G04 #@! TF.GenerationSoftware,KiCad,Pcbnew,7.0.9-7.0.9~ubuntu22.04.1*
G04 #@! TF.CreationDate,2023-12-28T07:12:25+00:00*
G04 #@! TF.ProjectId,uaeficopiedtovfr,75616566-6963-46f7-9069-6564746f7666,rev?*
G04 #@! TF.SameCoordinates,Original*
G04 #@! TF.FileFunction,Legend,Bot*
G04 #@! TF.FilePolarity,Positive*
%FSLAX46Y46*%
G04 Gerber Fmt 4.6, Leading zero omitted, Abs format (unit mm)*
G04 Created by KiCad (PCBNEW 7.0.9-7.0.9~ubuntu22.04.1) date 2023-12-28 07:12:25*
%MOMM*%
%LPD*%
G01*
G04 APERTURE LIST*
%ADD10C,0.127000*%
%ADD11C,0.150000*%
%ADD12C,0.170000*%
%ADD13C,0.099060*%
%ADD14C,0.120000*%
%ADD15C,0.200000*%
%ADD16C,0.203200*%
G04 APERTURE END LIST*
D10*
X120045911Y15402000D02*
X119683054Y15656000D01*
X120045911Y15837429D02*
X119283911Y15837429D01*
X119283911Y15837429D02*
X119283911Y15547143D01*
X119283911Y15547143D02*
X119320197Y15474572D01*
X119320197Y15474572D02*
X119356483Y15438286D01*
X119356483Y15438286D02*
X119429054Y15402000D01*
X119429054Y15402000D02*
X119537911Y15402000D01*
X119537911Y15402000D02*
X119610483Y15438286D01*
X119610483Y15438286D02*
X119646768Y15474572D01*
X119646768Y15474572D02*
X119683054Y15547143D01*
X119683054Y15547143D02*
X119683054Y15837429D01*
X119537911Y14748857D02*
X120045911Y14748857D01*
X119247626Y14930286D02*
X119791911Y15111715D01*
X119791911Y15111715D02*
X119791911Y14640000D01*
D11*
X132754819Y41813095D02*
X131754819Y41813095D01*
X131754819Y41813095D02*
X131754819Y41432143D01*
X131754819Y41432143D02*
X131802438Y41336905D01*
X131802438Y41336905D02*
X131850057Y41289286D01*
X131850057Y41289286D02*
X131945295Y41241667D01*
X131945295Y41241667D02*
X132088152Y41241667D01*
X132088152Y41241667D02*
X132183390Y41289286D01*
X132183390Y41289286D02*
X132231009Y41336905D01*
X132231009Y41336905D02*
X132278628Y41432143D01*
X132278628Y41432143D02*
X132278628Y41813095D01*
X131754819Y40908333D02*
X131754819Y40289286D01*
X131754819Y40289286D02*
X132135771Y40622619D01*
X132135771Y40622619D02*
X132135771Y40479762D01*
X132135771Y40479762D02*
X132183390Y40384524D01*
X132183390Y40384524D02*
X132231009Y40336905D01*
X132231009Y40336905D02*
X132326247Y40289286D01*
X132326247Y40289286D02*
X132564342Y40289286D01*
X132564342Y40289286D02*
X132659580Y40336905D01*
X132659580Y40336905D02*
X132707200Y40384524D01*
X132707200Y40384524D02*
X132754819Y40479762D01*
X132754819Y40479762D02*
X132754819Y40765476D01*
X132754819Y40765476D02*
X132707200Y40860714D01*
X132707200Y40860714D02*
X132659580Y40908333D01*
X136534819Y41813095D02*
X135534819Y41813095D01*
X135534819Y41813095D02*
X135534819Y41432143D01*
X135534819Y41432143D02*
X135582438Y41336905D01*
X135582438Y41336905D02*
X135630057Y41289286D01*
X135630057Y41289286D02*
X135725295Y41241667D01*
X135725295Y41241667D02*
X135868152Y41241667D01*
X135868152Y41241667D02*
X135963390Y41289286D01*
X135963390Y41289286D02*
X136011009Y41336905D01*
X136011009Y41336905D02*
X136058628Y41432143D01*
X136058628Y41432143D02*
X136058628Y41813095D01*
X135868152Y40384524D02*
X136534819Y40384524D01*
X135487200Y40622619D02*
X136201485Y40860714D01*
X136201485Y40860714D02*
X136201485Y40241667D01*
D10*
X111896768Y44429000D02*
X111896768Y44683000D01*
X112295911Y44683000D02*
X111533911Y44683000D01*
X111533911Y44683000D02*
X111533911Y44320143D01*
X111606483Y44066143D02*
X111570197Y44029857D01*
X111570197Y44029857D02*
X111533911Y43957285D01*
X111533911Y43957285D02*
X111533911Y43775857D01*
X111533911Y43775857D02*
X111570197Y43703285D01*
X111570197Y43703285D02*
X111606483Y43667000D01*
X111606483Y43667000D02*
X111679054Y43630714D01*
X111679054Y43630714D02*
X111751626Y43630714D01*
X111751626Y43630714D02*
X111860483Y43667000D01*
X111860483Y43667000D02*
X112295911Y44102428D01*
X112295911Y44102428D02*
X112295911Y43630714D01*
X124613537Y44020672D02*
X124793142Y44200277D01*
X125075379Y43918041D02*
X124536563Y44456856D01*
X124536563Y44456856D02*
X124279985Y44200277D01*
X124331300Y43173962D02*
X124639195Y43481857D01*
X124485248Y43327910D02*
X123946432Y43866725D01*
X123946432Y43866725D02*
X124074722Y43841067D01*
X124074722Y43841067D02*
X124177353Y43841067D01*
X124177353Y43841067D02*
X124254327Y43866725D01*
D11*
X27224819Y48017858D02*
X26748628Y48351191D01*
X27224819Y48589286D02*
X26224819Y48589286D01*
X26224819Y48589286D02*
X26224819Y48208334D01*
X26224819Y48208334D02*
X26272438Y48113096D01*
X26272438Y48113096D02*
X26320057Y48065477D01*
X26320057Y48065477D02*
X26415295Y48017858D01*
X26415295Y48017858D02*
X26558152Y48017858D01*
X26558152Y48017858D02*
X26653390Y48065477D01*
X26653390Y48065477D02*
X26701009Y48113096D01*
X26701009Y48113096D02*
X26748628Y48208334D01*
X26748628Y48208334D02*
X26748628Y48589286D01*
X27224819Y47065477D02*
X27224819Y47636905D01*
X27224819Y47351191D02*
X26224819Y47351191D01*
X26224819Y47351191D02*
X26367676Y47446429D01*
X26367676Y47446429D02*
X26462914Y47541667D01*
X26462914Y47541667D02*
X26510533Y47636905D01*
X26558152Y46208334D02*
X27224819Y46208334D01*
X26177200Y46446429D02*
X26891485Y46684524D01*
X26891485Y46684524D02*
X26891485Y46065477D01*
X36574819Y49767858D02*
X36098628Y50101191D01*
X36574819Y50339286D02*
X35574819Y50339286D01*
X35574819Y50339286D02*
X35574819Y49958334D01*
X35574819Y49958334D02*
X35622438Y49863096D01*
X35622438Y49863096D02*
X35670057Y49815477D01*
X35670057Y49815477D02*
X35765295Y49767858D01*
X35765295Y49767858D02*
X35908152Y49767858D01*
X35908152Y49767858D02*
X36003390Y49815477D01*
X36003390Y49815477D02*
X36051009Y49863096D01*
X36051009Y49863096D02*
X36098628Y49958334D01*
X36098628Y49958334D02*
X36098628Y50339286D01*
X36574819Y48815477D02*
X36574819Y49386905D01*
X36574819Y49101191D02*
X35574819Y49101191D01*
X35574819Y49101191D02*
X35717676Y49196429D01*
X35717676Y49196429D02*
X35812914Y49291667D01*
X35812914Y49291667D02*
X35860533Y49386905D01*
X35670057Y48434524D02*
X35622438Y48386905D01*
X35622438Y48386905D02*
X35574819Y48291667D01*
X35574819Y48291667D02*
X35574819Y48053572D01*
X35574819Y48053572D02*
X35622438Y47958334D01*
X35622438Y47958334D02*
X35670057Y47910715D01*
X35670057Y47910715D02*
X35765295Y47863096D01*
X35765295Y47863096D02*
X35860533Y47863096D01*
X35860533Y47863096D02*
X36003390Y47910715D01*
X36003390Y47910715D02*
X36574819Y48482143D01*
X36574819Y48482143D02*
X36574819Y47863096D01*
D12*
X18063014Y42765093D02*
X18453490Y42491760D01*
X18063014Y42296522D02*
X18883014Y42296522D01*
X18883014Y42296522D02*
X18883014Y42608903D01*
X18883014Y42608903D02*
X18843966Y42686998D01*
X18843966Y42686998D02*
X18804919Y42726045D01*
X18804919Y42726045D02*
X18726823Y42765093D01*
X18726823Y42765093D02*
X18609681Y42765093D01*
X18609681Y42765093D02*
X18531585Y42726045D01*
X18531585Y42726045D02*
X18492538Y42686998D01*
X18492538Y42686998D02*
X18453490Y42608903D01*
X18453490Y42608903D02*
X18453490Y42296522D01*
X18063014Y43546045D02*
X18063014Y43077474D01*
X18063014Y43311760D02*
X18883014Y43311760D01*
X18883014Y43311760D02*
X18765871Y43233664D01*
X18765871Y43233664D02*
X18687776Y43155569D01*
X18687776Y43155569D02*
X18648728Y43077474D01*
X18883014Y44287950D02*
X18883014Y43897474D01*
X18883014Y43897474D02*
X18492538Y43858426D01*
X18492538Y43858426D02*
X18531585Y43897474D01*
X18531585Y43897474D02*
X18570633Y43975569D01*
X18570633Y43975569D02*
X18570633Y44170807D01*
X18570633Y44170807D02*
X18531585Y44248902D01*
X18531585Y44248902D02*
X18492538Y44287950D01*
X18492538Y44287950D02*
X18414442Y44326997D01*
X18414442Y44326997D02*
X18219204Y44326997D01*
X18219204Y44326997D02*
X18141109Y44287950D01*
X18141109Y44287950D02*
X18102062Y44248902D01*
X18102062Y44248902D02*
X18063014Y44170807D01*
X18063014Y44170807D02*
X18063014Y43975569D01*
X18063014Y43975569D02*
X18102062Y43897474D01*
X18102062Y43897474D02*
X18141109Y43858426D01*
X51050237Y54554492D02*
X51050237Y55374492D01*
X51050237Y55374492D02*
X50854999Y55374492D01*
X50854999Y55374492D02*
X50737856Y55335444D01*
X50737856Y55335444D02*
X50659761Y55257349D01*
X50659761Y55257349D02*
X50620714Y55179254D01*
X50620714Y55179254D02*
X50581666Y55023063D01*
X50581666Y55023063D02*
X50581666Y54905920D01*
X50581666Y54905920D02*
X50620714Y54749730D01*
X50620714Y54749730D02*
X50659761Y54671635D01*
X50659761Y54671635D02*
X50737856Y54593539D01*
X50737856Y54593539D02*
X50854999Y54554492D01*
X50854999Y54554492D02*
X51050237Y54554492D01*
X50269285Y55296397D02*
X50230237Y55335444D01*
X50230237Y55335444D02*
X50152142Y55374492D01*
X50152142Y55374492D02*
X49956904Y55374492D01*
X49956904Y55374492D02*
X49878809Y55335444D01*
X49878809Y55335444D02*
X49839761Y55296397D01*
X49839761Y55296397D02*
X49800714Y55218301D01*
X49800714Y55218301D02*
X49800714Y55140206D01*
X49800714Y55140206D02*
X49839761Y55023063D01*
X49839761Y55023063D02*
X50308333Y54554492D01*
X50308333Y54554492D02*
X49800714Y54554492D01*
X52213610Y38293061D02*
X51633783Y38872889D01*
X51633783Y38872889D02*
X51495729Y38734835D01*
X51495729Y38734835D02*
X51440507Y38624391D01*
X51440507Y38624391D02*
X51440507Y38513948D01*
X51440507Y38513948D02*
X51468118Y38431115D01*
X51468118Y38431115D02*
X51550950Y38293061D01*
X51550950Y38293061D02*
X51633783Y38210229D01*
X51633783Y38210229D02*
X51771837Y38127396D01*
X51771837Y38127396D02*
X51854670Y38099785D01*
X51854670Y38099785D02*
X51965113Y38099785D01*
X51965113Y38099785D02*
X52075556Y38155007D01*
X52075556Y38155007D02*
X52213610Y38293061D01*
X50777847Y38016953D02*
X51053955Y38293061D01*
X51053955Y38293061D02*
X51357675Y38044564D01*
X51357675Y38044564D02*
X51302453Y38044564D01*
X51302453Y38044564D02*
X51219620Y38016953D01*
X51219620Y38016953D02*
X51081566Y37878899D01*
X51081566Y37878899D02*
X51053955Y37796066D01*
X51053955Y37796066D02*
X51053955Y37740844D01*
X51053955Y37740844D02*
X51081566Y37658012D01*
X51081566Y37658012D02*
X51219620Y37519958D01*
X51219620Y37519958D02*
X51302453Y37492347D01*
X51302453Y37492347D02*
X51357675Y37492347D01*
X51357675Y37492347D02*
X51440507Y37519958D01*
X51440507Y37519958D02*
X51578561Y37658012D01*
X51578561Y37658012D02*
X51606172Y37740844D01*
X51606172Y37740844D02*
X51606172Y37796066D01*
X31163014Y44915093D02*
X31553490Y44641760D01*
X31163014Y44446522D02*
X31983014Y44446522D01*
X31983014Y44446522D02*
X31983014Y44758903D01*
X31983014Y44758903D02*
X31943966Y44836998D01*
X31943966Y44836998D02*
X31904919Y44876045D01*
X31904919Y44876045D02*
X31826823Y44915093D01*
X31826823Y44915093D02*
X31709681Y44915093D01*
X31709681Y44915093D02*
X31631585Y44876045D01*
X31631585Y44876045D02*
X31592538Y44836998D01*
X31592538Y44836998D02*
X31553490Y44758903D01*
X31553490Y44758903D02*
X31553490Y44446522D01*
X31163014Y45305569D02*
X31163014Y45461760D01*
X31163014Y45461760D02*
X31202062Y45539855D01*
X31202062Y45539855D02*
X31241109Y45578903D01*
X31241109Y45578903D02*
X31358252Y45656998D01*
X31358252Y45656998D02*
X31514442Y45696045D01*
X31514442Y45696045D02*
X31826823Y45696045D01*
X31826823Y45696045D02*
X31904919Y45656998D01*
X31904919Y45656998D02*
X31943966Y45617950D01*
X31943966Y45617950D02*
X31983014Y45539855D01*
X31983014Y45539855D02*
X31983014Y45383664D01*
X31983014Y45383664D02*
X31943966Y45305569D01*
X31943966Y45305569D02*
X31904919Y45266522D01*
X31904919Y45266522D02*
X31826823Y45227474D01*
X31826823Y45227474D02*
X31631585Y45227474D01*
X31631585Y45227474D02*
X31553490Y45266522D01*
X31553490Y45266522D02*
X31514442Y45305569D01*
X31514442Y45305569D02*
X31475395Y45383664D01*
X31475395Y45383664D02*
X31475395Y45539855D01*
X31475395Y45539855D02*
X31514442Y45617950D01*
X31514442Y45617950D02*
X31553490Y45656998D01*
X31553490Y45656998D02*
X31631585Y45696045D01*
D11*
X18674819Y48967858D02*
X18198628Y49301191D01*
X18674819Y49539286D02*
X17674819Y49539286D01*
X17674819Y49539286D02*
X17674819Y49158334D01*
X17674819Y49158334D02*
X17722438Y49063096D01*
X17722438Y49063096D02*
X17770057Y49015477D01*
X17770057Y49015477D02*
X17865295Y48967858D01*
X17865295Y48967858D02*
X18008152Y48967858D01*
X18008152Y48967858D02*
X18103390Y49015477D01*
X18103390Y49015477D02*
X18151009Y49063096D01*
X18151009Y49063096D02*
X18198628Y49158334D01*
X18198628Y49158334D02*
X18198628Y49539286D01*
X18674819Y48015477D02*
X18674819Y48586905D01*
X18674819Y48301191D02*
X17674819Y48301191D01*
X17674819Y48301191D02*
X17817676Y48396429D01*
X17817676Y48396429D02*
X17912914Y48491667D01*
X17912914Y48491667D02*
X17960533Y48586905D01*
X18103390Y47444048D02*
X18055771Y47539286D01*
X18055771Y47539286D02*
X18008152Y47586905D01*
X18008152Y47586905D02*
X17912914Y47634524D01*
X17912914Y47634524D02*
X17865295Y47634524D01*
X17865295Y47634524D02*
X17770057Y47586905D01*
X17770057Y47586905D02*
X17722438Y47539286D01*
X17722438Y47539286D02*
X17674819Y47444048D01*
X17674819Y47444048D02*
X17674819Y47253572D01*
X17674819Y47253572D02*
X17722438Y47158334D01*
X17722438Y47158334D02*
X17770057Y47110715D01*
X17770057Y47110715D02*
X17865295Y47063096D01*
X17865295Y47063096D02*
X17912914Y47063096D01*
X17912914Y47063096D02*
X18008152Y47110715D01*
X18008152Y47110715D02*
X18055771Y47158334D01*
X18055771Y47158334D02*
X18103390Y47253572D01*
X18103390Y47253572D02*
X18103390Y47444048D01*
X18103390Y47444048D02*
X18151009Y47539286D01*
X18151009Y47539286D02*
X18198628Y47586905D01*
X18198628Y47586905D02*
X18293866Y47634524D01*
X18293866Y47634524D02*
X18484342Y47634524D01*
X18484342Y47634524D02*
X18579580Y47586905D01*
X18579580Y47586905D02*
X18627200Y47539286D01*
X18627200Y47539286D02*
X18674819Y47444048D01*
X18674819Y47444048D02*
X18674819Y47253572D01*
X18674819Y47253572D02*
X18627200Y47158334D01*
X18627200Y47158334D02*
X18579580Y47110715D01*
X18579580Y47110715D02*
X18484342Y47063096D01*
X18484342Y47063096D02*
X18293866Y47063096D01*
X18293866Y47063096D02*
X18198628Y47110715D01*
X18198628Y47110715D02*
X18151009Y47158334D01*
X18151009Y47158334D02*
X18103390Y47253572D01*
D12*
X53105237Y45054492D02*
X53105237Y45874492D01*
X53105237Y45874492D02*
X52909999Y45874492D01*
X52909999Y45874492D02*
X52792856Y45835444D01*
X52792856Y45835444D02*
X52714761Y45757349D01*
X52714761Y45757349D02*
X52675714Y45679254D01*
X52675714Y45679254D02*
X52636666Y45523063D01*
X52636666Y45523063D02*
X52636666Y45405920D01*
X52636666Y45405920D02*
X52675714Y45249730D01*
X52675714Y45249730D02*
X52714761Y45171635D01*
X52714761Y45171635D02*
X52792856Y45093539D01*
X52792856Y45093539D02*
X52909999Y45054492D01*
X52909999Y45054492D02*
X53105237Y45054492D01*
X52363333Y45874492D02*
X51855714Y45874492D01*
X51855714Y45874492D02*
X52129047Y45562111D01*
X52129047Y45562111D02*
X52011904Y45562111D01*
X52011904Y45562111D02*
X51933809Y45523063D01*
X51933809Y45523063D02*
X51894761Y45484016D01*
X51894761Y45484016D02*
X51855714Y45405920D01*
X51855714Y45405920D02*
X51855714Y45210682D01*
X51855714Y45210682D02*
X51894761Y45132587D01*
X51894761Y45132587D02*
X51933809Y45093539D01*
X51933809Y45093539D02*
X52011904Y45054492D01*
X52011904Y45054492D02*
X52246190Y45054492D01*
X52246190Y45054492D02*
X52324285Y45093539D01*
X52324285Y45093539D02*
X52363333Y45132587D01*
X43200237Y42404492D02*
X43200237Y43224492D01*
X43200237Y43224492D02*
X43004999Y43224492D01*
X43004999Y43224492D02*
X42887856Y43185444D01*
X42887856Y43185444D02*
X42809761Y43107349D01*
X42809761Y43107349D02*
X42770714Y43029254D01*
X42770714Y43029254D02*
X42731666Y42873063D01*
X42731666Y42873063D02*
X42731666Y42755920D01*
X42731666Y42755920D02*
X42770714Y42599730D01*
X42770714Y42599730D02*
X42809761Y42521635D01*
X42809761Y42521635D02*
X42887856Y42443539D01*
X42887856Y42443539D02*
X43004999Y42404492D01*
X43004999Y42404492D02*
X43200237Y42404492D01*
X42028809Y42951159D02*
X42028809Y42404492D01*
X42224047Y43263539D02*
X42419285Y42677825D01*
X42419285Y42677825D02*
X41911666Y42677825D01*
X8713014Y42665093D02*
X9103490Y42391760D01*
X8713014Y42196522D02*
X9533014Y42196522D01*
X9533014Y42196522D02*
X9533014Y42508903D01*
X9533014Y42508903D02*
X9493966Y42586998D01*
X9493966Y42586998D02*
X9454919Y42626045D01*
X9454919Y42626045D02*
X9376823Y42665093D01*
X9376823Y42665093D02*
X9259681Y42665093D01*
X9259681Y42665093D02*
X9181585Y42626045D01*
X9181585Y42626045D02*
X9142538Y42586998D01*
X9142538Y42586998D02*
X9103490Y42508903D01*
X9103490Y42508903D02*
X9103490Y42196522D01*
X8713014Y43446045D02*
X8713014Y42977474D01*
X8713014Y43211760D02*
X9533014Y43211760D01*
X9533014Y43211760D02*
X9415871Y43133664D01*
X9415871Y43133664D02*
X9337776Y43055569D01*
X9337776Y43055569D02*
X9298728Y42977474D01*
X9533014Y43953664D02*
X9533014Y44031759D01*
X9533014Y44031759D02*
X9493966Y44109855D01*
X9493966Y44109855D02*
X9454919Y44148902D01*
X9454919Y44148902D02*
X9376823Y44187950D01*
X9376823Y44187950D02*
X9220633Y44226997D01*
X9220633Y44226997D02*
X9025395Y44226997D01*
X9025395Y44226997D02*
X8869204Y44187950D01*
X8869204Y44187950D02*
X8791109Y44148902D01*
X8791109Y44148902D02*
X8752062Y44109855D01*
X8752062Y44109855D02*
X8713014Y44031759D01*
X8713014Y44031759D02*
X8713014Y43953664D01*
X8713014Y43953664D02*
X8752062Y43875569D01*
X8752062Y43875569D02*
X8791109Y43836521D01*
X8791109Y43836521D02*
X8869204Y43797474D01*
X8869204Y43797474D02*
X9025395Y43758426D01*
X9025395Y43758426D02*
X9220633Y43758426D01*
X9220633Y43758426D02*
X9376823Y43797474D01*
X9376823Y43797474D02*
X9454919Y43836521D01*
X9454919Y43836521D02*
X9493966Y43875569D01*
X9493966Y43875569D02*
X9533014Y43953664D01*
D11*
X9724819Y48717858D02*
X9248628Y49051191D01*
X9724819Y49289286D02*
X8724819Y49289286D01*
X8724819Y49289286D02*
X8724819Y48908334D01*
X8724819Y48908334D02*
X8772438Y48813096D01*
X8772438Y48813096D02*
X8820057Y48765477D01*
X8820057Y48765477D02*
X8915295Y48717858D01*
X8915295Y48717858D02*
X9058152Y48717858D01*
X9058152Y48717858D02*
X9153390Y48765477D01*
X9153390Y48765477D02*
X9201009Y48813096D01*
X9201009Y48813096D02*
X9248628Y48908334D01*
X9248628Y48908334D02*
X9248628Y49289286D01*
X9724819Y47765477D02*
X9724819Y48336905D01*
X9724819Y48051191D02*
X8724819Y48051191D01*
X8724819Y48051191D02*
X8867676Y48146429D01*
X8867676Y48146429D02*
X8962914Y48241667D01*
X8962914Y48241667D02*
X9010533Y48336905D01*
X8724819Y47432143D02*
X8724819Y46813096D01*
X8724819Y46813096D02*
X9105771Y47146429D01*
X9105771Y47146429D02*
X9105771Y47003572D01*
X9105771Y47003572D02*
X9153390Y46908334D01*
X9153390Y46908334D02*
X9201009Y46860715D01*
X9201009Y46860715D02*
X9296247Y46813096D01*
X9296247Y46813096D02*
X9534342Y46813096D01*
X9534342Y46813096D02*
X9629580Y46860715D01*
X9629580Y46860715D02*
X9677200Y46908334D01*
X9677200Y46908334D02*
X9724819Y47003572D01*
X9724819Y47003572D02*
X9724819Y47289286D01*
X9724819Y47289286D02*
X9677200Y47384524D01*
X9677200Y47384524D02*
X9629580Y47432143D01*
D12*
X27663014Y43115093D02*
X28053490Y42841760D01*
X27663014Y42646522D02*
X28483014Y42646522D01*
X28483014Y42646522D02*
X28483014Y42958903D01*
X28483014Y42958903D02*
X28443966Y43036998D01*
X28443966Y43036998D02*
X28404919Y43076045D01*
X28404919Y43076045D02*
X28326823Y43115093D01*
X28326823Y43115093D02*
X28209681Y43115093D01*
X28209681Y43115093D02*
X28131585Y43076045D01*
X28131585Y43076045D02*
X28092538Y43036998D01*
X28092538Y43036998D02*
X28053490Y42958903D01*
X28053490Y42958903D02*
X28053490Y42646522D01*
X27663014Y43896045D02*
X27663014Y43427474D01*
X27663014Y43661760D02*
X28483014Y43661760D01*
X28483014Y43661760D02*
X28365871Y43583664D01*
X28365871Y43583664D02*
X28287776Y43505569D01*
X28287776Y43505569D02*
X28248728Y43427474D01*
X27663014Y44676997D02*
X27663014Y44208426D01*
X27663014Y44442712D02*
X28483014Y44442712D01*
X28483014Y44442712D02*
X28365871Y44364616D01*
X28365871Y44364616D02*
X28287776Y44286521D01*
X28287776Y44286521D02*
X28248728Y44208426D01*
D13*
G04 #@! TO.C,R4*
X117724000Y16075000D02*
X116708000Y16075000D01*
X116708000Y14475000D02*
X117724000Y14475000D01*
X115692000Y16075000D02*
X114676000Y16075000D01*
X114676000Y14475000D02*
X115692000Y14475000D01*
D14*
X117775000Y14475001D02*
G75*
G03*
X117779000Y16076637I330000J799999D01*
G01*
X114616398Y16078494D02*
G75*
G03*
X114625000Y14475000I-321398J-803494D01*
G01*
D15*
G04 #@! TO.C,M2*
X155974999Y17650000D02*
X155974999Y26750000D01*
X159075002Y17650000D02*
X158075000Y17650000D01*
X159075002Y17650000D02*
X159075002Y26750000D01*
G04 #@! TO.C,M3*
X86125000Y56950000D02*
X86125000Y63350000D01*
X86125000Y66550000D02*
X86125000Y65250000D01*
X86125000Y66550000D02*
X71125000Y66550000D01*
X71725000Y56950000D02*
X86125000Y56950000D01*
X71125000Y66550000D02*
X71125000Y61450000D01*
G04 #@! TO.C,M7*
X18025000Y9050000D02*
X4125000Y9050000D01*
X4125000Y9050000D02*
X4125000Y36550000D01*
X4125000Y36550000D02*
X18025000Y36550000D01*
X18025000Y36550000D02*
X18025000Y9050000D01*
G04 #@! TO.C,M1*
X128524999Y35950001D02*
X131725002Y35950001D01*
X116424999Y35950001D02*
X126825001Y35950001D01*
X114524999Y35950001D02*
X114824999Y35950001D01*
X114524999Y35950001D02*
X114524999Y20550001D01*
X135124997Y34450001D02*
X135124999Y19150002D01*
X128425001Y19150004D02*
X133225001Y19150004D01*
X122224999Y19150004D02*
X124924999Y19150004D01*
X119525001Y19150004D02*
X120625004Y19150004D01*
X115974999Y19150004D02*
X117524999Y19149999D01*
X134825001Y19150002D02*
X135124999Y19150002D01*
G04 #@! TO.C,M4*
X139175000Y46000000D02*
X139175000Y52400000D01*
X139175000Y55600000D02*
X139175000Y54300000D01*
X139175000Y55600000D02*
X124175000Y55600000D01*
X124775000Y46000000D02*
X139175000Y46000000D01*
X124175000Y55600000D02*
X124175000Y50500000D01*
D14*
G04 #@! TO.C,P3*
X135880000Y39745000D02*
X133220000Y39745000D01*
X133220000Y40039462D02*
X133220000Y39745000D01*
X135880000Y40050627D02*
X135880000Y39745000D01*
X133220000Y42099373D02*
X133220000Y42405000D01*
X135880000Y42110538D02*
X135880000Y42405000D01*
X133220000Y42405000D02*
X135880000Y42405000D01*
G04 #@! TO.C,P4*
X139660000Y39745000D02*
X137000000Y39745000D01*
X137000000Y40039462D02*
X137000000Y39745000D01*
X139660000Y40050627D02*
X139660000Y39745000D01*
X137000000Y42099373D02*
X137000000Y42405000D01*
X139660000Y42110538D02*
X139660000Y42405000D01*
X137000000Y42405000D02*
X139660000Y42405000D01*
G04 #@! TO.C,F2*
X118350000Y45175000D02*
X113500000Y45175000D01*
X118350000Y43175000D02*
X113500000Y43175000D01*
X113500000Y45175000D02*
G75*
G03*
X113500000Y43175000I0J-1000000D01*
G01*
X118400000Y43175000D02*
G75*
G03*
X118400000Y45175000I0J1000000D01*
G01*
D15*
G04 #@! TO.C,M6*
X108025005Y19400015D02*
X74224995Y19400015D01*
X108025005Y55200005D02*
X108025005Y19400015D01*
X108025005Y55200005D02*
X74224995Y55200005D01*
X74224995Y55200005D02*
X74224995Y19400015D01*
D14*
G04 #@! TO.C,F1*
X129704163Y39985051D02*
X126274695Y43414518D01*
X128289949Y38570837D02*
X124860482Y42000305D01*
X126274695Y43414518D02*
G75*
G03*
X124860482Y42000305I-707107J-707106D01*
G01*
X128325305Y38535482D02*
G75*
G03*
X129739518Y39949695I707107J707106D01*
G01*
D15*
G04 #@! TO.C,M5*
X34600000Y13475000D02*
X20700000Y13475000D01*
X20700000Y13475000D02*
X20700000Y40975000D01*
X20700000Y40975000D02*
X34600000Y40975000D01*
X34600000Y40975000D02*
X34600000Y13475000D01*
D14*
G04 #@! TO.C,R14*
X22440000Y45197936D02*
X22440000Y49552064D01*
X25860000Y45197936D02*
X25860000Y49552064D01*
G04 #@! TO.C,R12*
X31790000Y46947936D02*
X31790000Y51302064D01*
X35210000Y46947936D02*
X35210000Y51302064D01*
D16*
G04 #@! TO.C,R15*
X16929160Y43023944D02*
X16929149Y43423943D01*
X17674995Y43025000D02*
X17674985Y43425000D01*
D14*
G04 #@! TO.C,D2*
X52695000Y51925000D02*
X48795000Y51925000D01*
X52695000Y53925000D02*
X52695000Y51925000D01*
X52695000Y53925000D02*
X48795000Y53925000D01*
D12*
X50995000Y52925000D02*
X50795000Y52925000D01*
X50795000Y52575000D02*
X50795000Y53275000D01*
X50795000Y52925000D02*
X50095000Y52575000D01*
X50795000Y52925000D02*
X50095000Y53275000D01*
X50095000Y52575000D02*
X50095000Y53275000D01*
X50095000Y52925000D02*
X49795000Y52925000D01*
D14*
G04 #@! TO.C,D5*
X55235965Y37596751D02*
X52478249Y34839035D01*
X53821751Y39010965D02*
X55235965Y37596751D01*
X53821751Y39010965D02*
X51064035Y36253249D01*
D12*
X53326777Y37101777D02*
X53185355Y36960355D01*
X53432843Y36712868D02*
X52937868Y37207843D01*
X53185355Y36960355D02*
X52937868Y36217893D01*
X53185355Y36960355D02*
X52442893Y36712868D01*
X52937868Y36217893D02*
X52442893Y36712868D01*
X52690381Y36465381D02*
X52478249Y36253249D01*
D16*
G04 #@! TO.C,R9*
X30029160Y45173944D02*
X30029149Y45573943D01*
X30774995Y45175000D02*
X30774985Y45575000D01*
D14*
G04 #@! TO.C,R18*
X13890000Y46147936D02*
X13890000Y50502064D01*
X17310000Y46147936D02*
X17310000Y50502064D01*
G04 #@! TO.C,D3*
X54750000Y42425000D02*
X50850000Y42425000D01*
X54750000Y44425000D02*
X54750000Y42425000D01*
X54750000Y44425000D02*
X50850000Y44425000D01*
D12*
X53050000Y43425000D02*
X52850000Y43425000D01*
X52850000Y43075000D02*
X52850000Y43775000D01*
X52850000Y43425000D02*
X52150000Y43075000D01*
X52850000Y43425000D02*
X52150000Y43775000D01*
X52150000Y43075000D02*
X52150000Y43775000D01*
X52150000Y43425000D02*
X51850000Y43425000D01*
D14*
G04 #@! TO.C,D4*
X44845000Y39775000D02*
X40945000Y39775000D01*
X44845000Y41775000D02*
X44845000Y39775000D01*
X44845000Y41775000D02*
X40945000Y41775000D01*
D12*
X43145000Y40775000D02*
X42945000Y40775000D01*
X42945000Y40425000D02*
X42945000Y41125000D01*
X42945000Y40775000D02*
X42245000Y40425000D01*
X42945000Y40775000D02*
X42245000Y41125000D01*
X42245000Y40425000D02*
X42245000Y41125000D01*
X42245000Y40775000D02*
X41945000Y40775000D01*
D16*
G04 #@! TO.C,R10*
X7579160Y42923944D02*
X7579149Y43323943D01*
X8324995Y42925000D02*
X8324985Y43325000D01*
D14*
G04 #@! TO.C,R13*
X4940000Y45897936D02*
X4940000Y50252064D01*
X8360000Y45897936D02*
X8360000Y50252064D01*
D16*
G04 #@! TO.C,R11*
X26529160Y43373944D02*
X26529149Y43773943D01*
X27274995Y43375000D02*
X27274985Y43775000D01*
G04 #@! TD*
M02*
