M48
INCH,TZ
T01C0.009850
T02C0.015700
T03C0.024600
T04C0.031750
T05C0.039200
T06C0.043300
T07C0.070400
T08C0.085000
%
T01
X1703Y21988
X2569Y16614
X3770Y22224
X5955Y26811
X6742Y25748
X7687Y16988
X8573Y21634
X9144Y28524
X9714Y29134
X10344Y16457
X10896Y17106
X12392Y17500
X16703Y21791
X26289Y4764
X27288Y15762
X27549Y19764
X27608Y6319
X27707Y9370
X27726Y21398
X27825Y11124
X28258Y14685
X28297Y13111
X28435Y14173
X28710Y14823
X28809Y12343
X32510Y5689
X32884Y5079
X34104Y5453
X34419Y22874
X36329Y23858
X36673Y7156
X36899Y27500
X37451Y7146
X37962Y5787
X38085Y22559
X38225Y25735
X38442Y24803
X39911Y7028
X40187Y4980
X40423Y23721
X40718Y5689
X40733Y25802
X40856Y4764
X41329Y6280
X41644Y6850
X42293Y4016
X42549Y25354
X42923Y25374
X43691Y7421
X43986Y7441
X44281Y7047
X44439Y14862
X44439Y6595
X44655Y26280
X44911Y15295
X45994Y6870
X47214Y7244
X47844Y18445
X49970Y4469
X50147Y4685
X50443Y16713
X50758Y27776
X50758Y16555
X50974Y28819
X51801Y25847
X52923Y17500
X53317Y17165
X2165Y3691
X2559Y3691
X2953Y3691
X3346Y3691
X4273Y14160
X4673Y14160
X5571Y14160
X5964Y14160
X6358Y14160
X8691Y5433
X9084Y5433
X9478Y5433
X9872Y5433
X10799Y15902
X11199Y15902
X12096Y15902
X12490Y15902
X12884Y15902
X28051Y23947
X28051Y23474
X28051Y23002
X28051Y22530
X29232Y17352
X29232Y17037
X29232Y16722
X29232Y16408
X29232Y16093
X29232Y15778
X29232Y15463
X29232Y15148
X29232Y14833
X29232Y14518
X29232Y14203
X29232Y13888
X29232Y13573
X29232Y13258
X29232Y12628
X29232Y12077
X29232Y11762
X29232Y11447
X29232Y11132
X29232Y10817
X29232Y10502
X29232Y19045
X29232Y12943
X29390Y7667
X29705Y7667
X30020Y7667
X30334Y7667
X30649Y7667
X30964Y7667
X31279Y7667
X31594Y7667
X31831Y21604
X31909Y7667
X32224Y7667
X32303Y21604
X32539Y7667
X32775Y21604
X32854Y7667
X33248Y21604
X33720Y21604
X33730Y25467
X33730Y25073
X33799Y7667
X34114Y7667
X34193Y21604
X34429Y7667
X34665Y21604
X34744Y7667
X35059Y7667
X35138Y21604
X35374Y7667
X35610Y21604
X35689Y7667
X36004Y7667
X36083Y21604
X36319Y7667
X36555Y21604
X37027Y21604
X37500Y21604
X37972Y21604
X38012Y7667
X38445Y21604
X38917Y21604
X39075Y7667
X39390Y21604
X39468Y7667
X39862Y21604
X40334Y21604
X40807Y21604
X41279Y21604
X42224Y21604
X42382Y20620
X42382Y20226
X42382Y16014
X42382Y15620
X42382Y15226
X42382Y14833
X42382Y14439
X42382Y14045
X42382Y13652
X42382Y13258
X42382Y12234
X42382Y11919
X42382Y10069
X42382Y9518
X42382Y7667
X46397Y7569
X46791Y7569
X48937Y19636
X48937Y19163
X48937Y18691
X48937Y18219
X54616Y21156
X54616Y20762
X61575Y10404
X61575Y6978
X61929Y6978
X61949Y10404
X62323Y10404
X45173Y23110
X45809Y23382
X46194Y23168
X46623Y23809
X46959Y23849
X47549Y23652
X47805Y23376
X48336Y23258
X48632Y23652
X48140Y23849
X49321Y23849
X50896Y23849
X50876Y23376
X51168Y22265
X51143Y21218
X50855Y20896
X50780Y19843
X50896Y18731
X50896Y17943
X49892Y18416
X49886Y19061
X48640Y19001
X48730Y18534
X48250Y18366
X48533Y17943
X47365Y18365
X47193Y17669
X46801Y17628
X46407Y17628
X46501Y18310
X46012Y18620
X45695Y18233
X45265Y18630
X45644Y19019
X46368Y19094
X46801Y19046
X45816Y20362
X45187Y20362
X45173Y21281
X45173Y22136
X45815Y21913
X46840Y21329
X48287Y20936
X48336Y21683
X48846Y21250
X49844Y20661
X51801Y19715
X51868Y18783
X52273Y18731
X52077Y17943
X51486Y18337
X52626Y20811
X53032Y20769
X52616Y21598
X52213Y21863
X52290Y23300
X51655Y22891
X51422Y23731
X62479Y17043
X62226Y17195
X61939Y17037
X61584Y17037
X61918Y18039
X62023Y18313
X61810Y18556
X62323Y18006
X61583Y19485
X61584Y20462
X61958Y20462
X62332Y20462
X33750Y34380
X33723Y32734
X33701Y33563
X32979Y36087
X32970Y35330
X32933Y34528
X32896Y32722
X32864Y34222
X32548Y32750
X32496Y34572
X32461Y35959
X32333Y34262
X32156Y36093
X32100Y32559
X32012Y35352
X32008Y34459
X31858Y33031
X31812Y34080
X31447Y34065
X31199Y33664
X31067Y34470
X31014Y34144
X31004Y34862
X30984Y35945
X30934Y35573
X30894Y35223
X30673Y34565
X30364Y36093
X30295Y34518
X29981Y34094
X29862Y34380
X29764Y34884
X29742Y33421
X29699Y35933
X29676Y34124
X29607Y32750
X29311Y32809
X29128Y34079
X29116Y32580
X28789Y35453
X28313Y35461
X28071Y35630
X28061Y35217
X28045Y36112
X33740Y35132
X33740Y35526
X28061Y32589
X28061Y33061
X28061Y33533
X28061Y34006
X54498Y29715
X54498Y31683
X54459Y28376
X53632Y29793
X53475Y30856
X53357Y31683
X53120Y28376
X52727Y29282
X52687Y30266
X52136Y30896
X52097Y31683
X51703Y28376
X51467Y29085
X51388Y31683
X51302Y29776
X50876Y31329
X50365Y30463
X50128Y31408
X49971Y28376
X49656Y31683
X49338Y29201
X49065Y30069
X49065Y31408
X54626Y30821
X54626Y31215
X48947Y28278
X48947Y28750
X48947Y29222
X48947Y29695
X10433Y26024
X13363Y25949
X11693Y25905
X8327Y25905
X8517Y25672
X9797Y25616
X10108Y25616
X13131Y25462
X11540Y25234
X12238Y25142
X9610Y25079
X8677Y24942
X8405Y24650
X13445Y24547
X12808Y24501
X12431Y24459
X11124Y24384
X9887Y24380
X8366Y24104
X10452Y24023
X9163Y23898
X11112Y23838
X12159Y23829
X10402Y23720
X8327Y23622
X13450Y22825
X9134Y22657
X10939Y22367
X11878Y22137
X10378Y22136
X11171Y22135
X11414Y21929
X8228Y21909
X11073Y21851
X12450Y21544
X10315Y21336
X12399Y21247
X8258Y21122
X11752Y21106
X12405Y20937
X8972Y20919
X10354Y20846
X11354Y20787
X12029Y20634
X9055Y20630
X9788Y20329
X12754Y20311
X13055Y20303
X8248Y19931
X12886Y19724
X13471Y19699
X12587Y19690
X13252Y19433
X11610Y19295
X10763Y19249
X10250Y19179
X9350Y19179
X9049Y19179
X8748Y19179
X8447Y19179
X9842Y19175
X11378Y18799
X11161Y18543
X8206Y16468
X9955Y16251
X13208Y16211
X12795Y16063
X9862Y15964
X12214Y15925
X11939Y15925
X11663Y15925
X12775Y15748
X8199Y15728
X12214Y15620
X11939Y15620
X13189Y15423
X12894Y25961
X12500Y25961
X12106Y25961
X11208Y25961
X10808Y25961
X9882Y15492
X9488Y15492
X9094Y15492
X8701Y15492
X42234Y31664
X41758Y31633
X41526Y31443
X41290Y31664
X41053Y31463
X40817Y31664
X40581Y31463
X40345Y31664
X40108Y31463
X39872Y31664
X39636Y31463
X39400Y31664
X39164Y31463
X38927Y31664
X38691Y31463
X38455Y31664
X38219Y31463
X37982Y31664
X37746Y31463
X37510Y31664
X37274Y31463
X37038Y31664
X36801Y31463
X36565Y31664
X36329Y31463
X36093Y31664
X35856Y31463
X35620Y31664
X35384Y31463
X35148Y31664
X34912Y31463
X34675Y31664
X34439Y31463
X34203Y31664
X33967Y31463
X33730Y31664
X33494Y31463
X33258Y31664
X33022Y31463
X32786Y31664
X32549Y31463
X32313Y31664
X32077Y31463
X31841Y31664
X31526Y31506
X31533Y30971
X31960Y30777
X32411Y30767
X32853Y30760
X33326Y30762
X33831Y29715
X34141Y29715
X34388Y30188
X34986Y29985
X35282Y29976
X35125Y29705
X35008Y29023
X35263Y28755
X35360Y28214
X34921Y28214
X34461Y28334
X34461Y28002
X34461Y27707
X34467Y27416
X34137Y26732
X33592Y26736
X33730Y26152
X34360Y26231
X34430Y25399
X34445Y25013
X34793Y25207
X35027Y25407
X35284Y24974
X35977Y24673
X36575Y24656
X36922Y24952
X37697Y24777
X37679Y25332
X37689Y25879
X38397Y25752
X38352Y24953
X38378Y24188
X38400Y23378
X37697Y23338
X37697Y23623
X37697Y23908
X37697Y23037
X36909Y22721
X36922Y22436
X36954Y22138
X36904Y21656
X36500Y21605
X35870Y21127
X35493Y21139
X34557Y20995
X34232Y21595
X34024Y21392
X34042Y21919
X33684Y21966
X34235Y22150
X34441Y23293
X34664Y23522
X34710Y24205
X35001Y24216
X34514Y24424
X33845Y24424
X32979Y24613
X32785Y24827
X32581Y25031
X32379Y25233
X32382Y24420
X32829Y23955
X32842Y23254
X32466Y23352
X32589Y22884
X32791Y22347
X32551Y22121
X32357Y21723
X32549Y21467
X32650Y21084
X32690Y20778
X32392Y20876
X31888Y21078
X31832Y21379
X31888Y21941
X31741Y22186
X31998Y22569
X32016Y23060
X30788Y23452
X30478Y23766
X30660Y23987
X30695Y24507
X29242Y24577
X29242Y24262
X29242Y23947
X29242Y23632
X29242Y23317
X29242Y23002
X29242Y22688
X29381Y22410
X29242Y22136
X29242Y21821
X29242Y21506
X29242Y21191
X29242Y20876
X29242Y20562
X29599Y20474
X29382Y20230
X29691Y19528
X29695Y18593
X30068Y18549
X30070Y18834
X30443Y18593
X30345Y17727
X30660Y17727
X30975Y17727
X31290Y17727
X31604Y17727
X31919Y17727
X32234Y17727
X32549Y17727
X32864Y17727
X33455Y17924
X33809Y17727
X34124Y17727
X34439Y17727
X34754Y17727
X35069Y17727
X35384Y17727
X35699Y17727
X36014Y17727
X36329Y17727
X36841Y17766
X36747Y18421
X37145Y18457
X37490Y18412
X37769Y18714
X37711Y17959
X38022Y17727
X39085Y17727
X39479Y17727
X39840Y17751
X39832Y18214
X40062Y18659
X40143Y19532
X40583Y19309
X39397Y18997
X38934Y18678
X38977Y19529
X38534Y19577
X38049Y20005
X38041Y20290
X37973Y20650
X37970Y20946
X38700Y20847
X38691Y21231
X38700Y21556
X38361Y21884
X38700Y22264
X38684Y22616
X38704Y22911
X38387Y22593
X39382Y22165
X39385Y21721
X40561Y21865
X40541Y22386
X40542Y22775
X39717Y23240
X39417Y23201
X39394Y23654
X39394Y23941
X39394Y24228
X39394Y24644
X39394Y24930
X39376Y25354
X39376Y25662
X39376Y25951
X39152Y26691
X38872Y26786
X38560Y27181
X38858Y27501
X38858Y28067
X38865Y28353
X38774Y29014
X38977Y29759
X38809Y29991
X39109Y30026
X39734Y30190
X40030Y30190
X40656Y29985
X40942Y29985
X40778Y29702
X40674Y29026
X40833Y28757
X41013Y28180
X40537Y28180
X40051Y28334
X40051Y28002
X40051Y27707
X40058Y27416
X40821Y27194
X40817Y26817
X41620Y26809
X41593Y27143
X41888Y26711
X42367Y26668
X42392Y26073
X42392Y25680
X42392Y25286
X42392Y24892
X42392Y24499
X42392Y24105
X42392Y23711
X42392Y23317
X42353Y22688
X42392Y22294
X42392Y21979
X42392Y21605
X42264Y21122
X42353Y20758
X42392Y20128
X42108Y20018
X42392Y19577
X42371Y18415
X42392Y17727
X41368Y20995
X41242Y21290
X40373Y20805
X38381Y20513
X37504Y20065
X37372Y19676
X37034Y19747
X36611Y20069
X36171Y20168
X35430Y20090
X34902Y19154
X34762Y18875
X34691Y18568
X34429Y19258
X33598Y19229
X33406Y18904
X32662Y19250
X32736Y20098
X32442Y20098
X32151Y20098
X30965Y20040
X30935Y19577
X31210Y19046
X31236Y18142
X32346Y18015
X30030Y17727
X29715Y17727
X29400Y17727
X30594Y20631
X30750Y20870
X30522Y21162
X30305Y21589
X30746Y21587
X30844Y22271
X30328Y22560
X30052Y22006
X30041Y23215
X29242Y24892
X29242Y25207
X29242Y25522
X29242Y25837
X29242Y26152
X29242Y26467
X29242Y26782
X29242Y27097
X29242Y27412
X29761Y28026
X29321Y28632
X29242Y29105
X29813Y29703
X29813Y30022
X29813Y30340
X29813Y30658
X29813Y30977
X30177Y31303
X29459Y31346
X31055Y30515
X30922Y29936
X31486Y29026
X31719Y28322
X31705Y28002
X31710Y27714
X31711Y27416
X32498Y27194
X32507Y26781
X33017Y27166
X33307Y27382
X33307Y27955
X33270Y28341
X32666Y28207
X32166Y28214
X32506Y28760
X32385Y29426
X32702Y29426
X33048Y29426
X32038Y29437
X33849Y29026
X36065Y28341
X36063Y27942
X36063Y27503
X35981Y27119
X35254Y27141
X35305Y26859
X36447Y26727
X36771Y26719
X36793Y26227
X37203Y26507
X37274Y27336
X37251Y27707
X37264Y28002
X37274Y28502
X37569Y28239
X38238Y28194
X38038Y28736
X38109Y29612
X37878Y30192
X37168Y29985
X36876Y29985
X37018Y29695
X36895Y29026
X36249Y30146
X35921Y30197
X37916Y27188
X38115Y26782
X39728Y26732
X40262Y26113
X40262Y25352
X40262Y24591
X40261Y23829
X36578Y23882
X36782Y23557
X36620Y22669
X37699Y21569
X36900Y18946
X36456Y19042
X36363Y19312
X36160Y18949
X33654Y20291
X33596Y20574
X32023Y26107
X31644Y25758
X30557Y25903
X30606Y26632
X30918Y26600
X31381Y26732
X29846Y26425
X36168Y25370
X41654Y27914
X41616Y28379
X41898Y28701
X42389Y28740
X41791Y29292
X42057Y29604
X42392Y30286
X42392Y30680
X42372Y31265
X41801Y31073
X41604Y30190
X42264Y27382
X3908Y24282
X6838Y24207
X5168Y24163
X1802Y24163
X1992Y23930
X3272Y23874
X3583Y23874
X6606Y23720
X5015Y23492
X5713Y23400
X3085Y23337
X2152Y23200
X1880Y22908
X6920Y22805
X6283Y22759
X5906Y22717
X4599Y22642
X3362Y22638
X1841Y22362
X3927Y22281
X2638Y22156
X4587Y22096
X5634Y22087
X3877Y21978
X1802Y21880
X6925Y21083
X2609Y20915
X4414Y20625
X5353Y20395
X3853Y20394
X4646Y20393
X4889Y20187
X1703Y20167
X4548Y20109
X5925Y19802
X3790Y19594
X5874Y19505
X1733Y19380
X5227Y19364
X5880Y19195
X2447Y19177
X3829Y19104
X4829Y19045
X5504Y18892
X2530Y18888
X3263Y18587
X6229Y18569
X6530Y18561
X1723Y18189
X6361Y17982
X6946Y17957
X6062Y17948
X6727Y17691
X5085Y17553
X4238Y17507
X3725Y17437
X2825Y17437
X2524Y17437
X2223Y17437
X1922Y17437
X3317Y17433
X4853Y17057
X4636Y16801
X1681Y14726
X3430Y14509
X6683Y14469
X6270Y14321
X3337Y14222
X5689Y14183
X5414Y14183
X5138Y14183
X6250Y14006
X1674Y13986
X5689Y13878
X5414Y13878
X6664Y13681
X6369Y24219
X5975Y24219
X5581Y24219
X4683Y24219
X4283Y24219
X3357Y13750
X2963Y13750
X2569Y13750
X2176Y13750
T02
X7451Y15394
X15384Y22421
X20659Y13091
X22136Y17618
X22155Y11063
X22234Y15374
X22962Y13661
X24163Y12008
X25207Y11850
X26447Y16654
X26762Y10394
X27313Y14882
X27470Y7972
X28396Y18091
X28612Y20433
X28789Y8819
X29754Y4508
X31466Y27579
X31998Y6595
X34104Y26181
X34557Y6772
X36053Y24685
X40462Y4370
X40777Y6614
X41270Y551
X45147Y20256
X45403Y19035
X45423Y16142
X46447Y20138
X46584Y26850
X47254Y5866
X47746Y22677
X47825Y15925
X47962Y17382
X48710Y7224
X49301Y4370
X50364Y5847
X51506Y7185
X53258Y26910
X54616Y11949
X58435Y21575
X58494Y24449
X61270Y27874
X61742Y18780
T03
X52876Y3073G85X52876Y2640
X52876Y1329G85X52876Y1093
X56277Y3073G85X56277Y2640
X56277Y1329G85X56277Y1093
X53439Y2660
X55714Y2660
T04
X836Y21752
X3506Y21299
X7267Y21201
X10718Y22106
X15462Y17953
X17678Y19007
X21132Y21535
X23907Y18701
X45521Y21732
X47155Y19429
X47155Y16280
X49793Y14685
X44616Y17343
X44929Y5965
X46429Y5965
X46545Y17343
X49367Y16765
X50731Y15401
X36297Y26369
X34719Y26369
X33297Y26369
T05
X45275Y7746
X45453Y13848
X47736Y7746
X49429Y7746
X50177Y7746
X50197Y13848
X52146Y13848
X52697Y7746
X52874Y13848
X52903Y16122
X54392Y16122
X45462Y23908
X50207Y23908
X50187Y17805
X49439Y17805
X47746Y17805
X45285Y17805
X52707Y17805
X52884Y23908
X52155Y23908
X9212Y18638
X10394Y17850
X9212Y17063
X9134Y25764
X9534Y23764
X8734Y23764
X42077Y18042
X32998Y19013
X32998Y18213
X30998Y18613
X2687Y16896
X3869Y16108
X2687Y15321
X2609Y24022
X3009Y22022
X2209Y22022
T06
X3346Y25256
X3346Y23642
X5590Y25256
X5590Y23642
X7834Y25256
X7834Y23642
X10079Y25256
X10079Y23642
X12323Y25256
X12323Y23642
X14567Y25256
X14567Y23642
X16811Y25256
X16811Y23642
X19055Y25256
X19055Y23642
X21299Y25256
X21299Y23642
X23543Y25256
X23543Y23642
X25787Y25256
X25787Y23642
X37205Y25236
X37205Y23622
X39449Y25236
X39449Y23622
X41693Y25236
X41693Y23622
X43937Y25236
X43937Y23622
X46181Y25236
X46181Y23622
X48425Y25236
X48425Y23622
X50669Y25236
X50669Y23622
X52913Y25236
X52913Y23622
X55157Y25236
X55157Y23622
X57401Y25236
X57401Y23622
X59646Y25236
X59646Y23622
X13021Y18815
X13021Y17815
X13021Y16815
X6496Y17073
X6496Y16073
X6496Y15073
T07
X11313Y3189
X11313Y1437
X13065Y3189
X13065Y1437
X14813Y3189
X14813Y1437
X16565Y3189
X16565Y1437
X18313Y3189
X18313Y1437
X20065Y3189
X20065Y1437
X29462Y3189
X29462Y1437
X31214Y3189
X31214Y1437
X32962Y3189
X32962Y1437
X34714Y3189
X34714Y1437
X36462Y3189
X36462Y1437
X38214Y3189
X38214Y1437
T08
X8937Y2311
X22437Y2311
X27086Y2311
X40586Y2311
M30
