M48
INCH,TZ
T01C0.009850
T02C0.015700
T03C0.024600
T04C0.031750
T05C0.039200
T06C0.043300
T07C0.070400
T08C0.085000
%
T01
X1703Y31594
X2569Y26220
X3770Y31830
X5955Y36417
X6742Y35354
X7687Y26594
X8573Y31240
X9144Y38130
X9715Y38740
X10344Y26063
X10896Y26712
X12392Y27106
X16703Y31397
X26289Y14370
X27288Y25368
X27549Y29370
X27608Y15925
X27707Y18976
X27726Y31004
X27825Y20730
X28258Y24291
X28297Y22717
X28435Y23779
X28711Y24429
X28809Y21949
X32510Y15295
X32884Y14685
X34104Y15059
X34419Y32480
X36329Y33464
X36673Y16762
X36900Y37106
X37451Y16752
X37963Y15393
X38086Y32165
X38225Y35341
X38442Y34409
X39911Y16634
X40187Y14586
X40423Y33326
X40719Y15295
X40733Y35408
X40856Y14370
X41329Y15886
X41644Y16456
X42293Y13622
X42549Y34960
X42923Y34980
X43691Y17027
X43986Y17047
X44281Y16653
X44439Y24468
X44439Y16200
X44656Y35886
X44911Y24901
X45994Y16476
X47215Y16850
X47844Y28051
X49970Y14075
X50148Y14291
X50443Y26319
X50758Y37382
X50758Y26161
X50974Y38425
X51801Y35452
X52923Y27106
X53317Y26771
X2165Y13297
X2559Y13297
X2953Y13297
X3346Y13297
X4273Y23766
X4673Y23766
X5571Y23766
X5965Y23766
X6358Y23766
X8691Y15039
X9085Y15039
X9478Y15039
X9872Y15039
X10799Y25508
X11199Y25508
X12096Y25508
X12490Y25508
X12884Y25508
X28051Y33553
X28051Y33080
X28051Y32608
X28051Y32136
X29232Y26958
X29232Y26643
X29232Y26328
X29232Y26013
X29232Y25699
X29232Y25384
X29232Y25069
X29232Y24754
X29232Y24439
X29232Y24124
X29232Y23809
X29232Y23494
X29232Y23179
X29232Y22864
X29232Y22234
X29232Y21683
X29232Y21368
X29232Y21053
X29232Y20738
X29232Y20423
X29232Y20108
X29232Y28651
X29232Y22549
X29390Y17273
X29705Y17273
X30020Y17273
X30335Y17273
X30650Y17273
X30965Y17273
X31280Y17273
X31594Y17273
X31831Y31210
X31909Y17273
X32224Y17273
X32303Y31210
X32539Y17273
X32776Y31210
X32854Y17273
X33248Y31210
X33720Y31210
X33730Y35073
X33730Y34679
X33799Y17273
X34114Y17273
X34193Y31210
X34429Y17273
X34665Y31210
X34744Y17273
X35059Y17273
X35138Y31210
X35374Y17273
X35610Y31210
X35689Y17273
X36004Y17273
X36083Y31210
X36319Y17273
X36555Y31210
X37028Y31210
X37500Y31210
X37972Y31210
X38012Y17273
X38445Y31210
X38917Y31210
X39075Y17273
X39390Y31210
X39469Y17273
X39862Y31210
X40335Y31210
X40807Y31210
X41280Y31210
X42224Y31210
X42382Y30226
X42382Y29832
X42382Y25620
X42382Y25226
X42382Y24832
X42382Y24439
X42382Y24045
X42382Y23651
X42382Y23258
X42382Y22864
X42382Y21840
X42382Y21525
X42382Y19675
X42382Y19124
X42382Y17273
X46398Y17175
X46791Y17175
X48937Y29242
X48937Y28769
X48937Y28297
X48937Y27825
X54616Y30762
X54616Y30368
X61575Y20010
X61575Y16584
X61929Y16584
X61949Y20010
X62323Y20010
X45163Y13051
X45799Y13323
X46184Y13109
X46613Y13750
X46949Y13790
X47539Y13593
X47795Y13317
X48326Y13199
X48622Y13593
X48130Y13790
X49311Y13790
X50886Y13790
X50866Y13317
X51158Y12206
X51133Y11159
X50845Y10837
X50770Y9784
X50886Y8672
X50886Y7884
X49882Y8357
X49876Y9002
X48630Y8942
X48720Y8475
X48240Y8307
X48523Y7884
X47355Y8306
X47183Y7610
X46791Y7569
X46397Y7569
X46491Y8251
X46002Y8561
X45685Y8174
X45255Y8571
X45634Y8960
X46358Y9035
X46791Y8987
X45806Y10303
X45177Y10303
X45163Y11222
X45163Y12077
X45805Y11854
X46830Y11270
X48277Y10877
X48326Y11624
X48836Y11191
X49834Y10602
X51791Y9656
X51858Y8724
X52263Y8672
X52067Y7884
X51476Y8278
X52616Y10752
X53022Y10710
X52606Y11539
X52203Y11804
X52280Y13241
X51645Y12832
X51412Y13672
X62469Y6984
X62216Y7136
X61929Y6978
X61574Y6978
X61908Y7980
X62013Y8254
X61800Y8497
X62313Y7947
X61573Y9426
X61574Y10403
X61948Y10403
X62322Y10403
X33740Y24321
X33713Y22675
X33691Y23504
X32969Y26028
X32960Y25271
X32923Y24469
X32886Y22663
X32854Y24163
X32538Y22691
X32486Y24513
X32451Y25900
X32323Y24203
X32146Y26034
X32090Y22500
X32002Y25293
X31998Y24400
X31848Y22972
X31802Y24021
X31437Y24006
X31189Y23605
X31057Y24411
X31004Y24085
X30994Y24803
X30974Y25886
X30924Y25514
X30884Y25164
X30663Y24506
X30354Y26034
X30285Y24459
X29971Y24035
X29852Y24321
X29754Y24825
X29732Y23362
X29689Y25874
X29666Y24065
X29597Y22691
X29301Y22750
X29118Y24020
X29106Y22521
X28779Y25394
X28303Y25402
X28061Y25571
X28051Y25158
X28035Y26053
X33730Y25073
X33730Y25467
X28051Y22530
X28051Y23002
X28051Y23474
X28051Y23947
X54488Y19656
X54488Y21624
X54449Y18317
X53622Y19734
X53465Y20797
X53347Y21624
X53110Y18317
X52717Y19223
X52677Y20207
X52126Y20837
X52087Y21624
X51693Y18317
X51457Y19026
X51378Y21624
X51292Y19717
X50866Y21270
X50355Y20404
X50118Y21349
X49961Y18317
X49646Y21624
X49328Y19142
X49055Y20010
X49055Y21349
X54616Y20762
X54616Y21156
X48937Y18219
X48937Y18691
X48937Y19163
X48937Y19636
X10423Y15965
X13353Y15890
X11683Y15846
X8317Y15846
X8507Y15613
X9787Y15557
X10098Y15557
X13121Y15403
X11530Y15175
X12228Y15083
X9600Y15020
X8667Y14883
X8395Y14591
X13435Y14488
X12798Y14442
X12421Y14400
X11114Y14325
X9877Y14321
X8356Y14045
X10442Y13964
X9153Y13839
X11102Y13779
X12149Y13770
X10392Y13661
X8317Y13563
X13440Y12766
X9124Y12598
X10929Y12308
X11868Y12078
X10368Y12077
X11161Y12076
X11404Y11870
X8218Y11850
X11063Y11792
X12440Y11485
X10305Y11277
X12389Y11188
X8248Y11063
X11742Y11047
X12395Y10878
X8962Y10860
X10344Y10787
X11344Y10728
X12019Y10575
X9045Y10571
X9778Y10270
X12744Y10252
X13045Y10244
X8238Y9872
X12876Y9665
X13461Y9640
X12577Y9631
X13242Y9374
X11600Y9236
X10753Y9190
X10240Y9120
X9340Y9120
X9039Y9120
X8738Y9120
X8437Y9120
X9832Y9116
X11368Y8740
X11151Y8484
X8196Y6409
X9945Y6192
X13198Y6152
X12785Y6004
X9852Y5905
X12204Y5866
X11929Y5866
X11653Y5866
X12765Y5689
X8189Y5669
X12204Y5561
X11929Y5561
X13179Y5364
X12884Y15902
X12490Y15902
X12096Y15902
X11198Y15902
X10798Y15902
X9872Y5433
X9478Y5433
X9084Y5433
X8691Y5433
X42224Y21604
X41748Y21573
X41516Y21383
X41280Y21604
X41043Y21403
X40807Y21604
X40571Y21403
X40335Y21604
X40098Y21403
X39862Y21604
X39626Y21403
X39390Y21604
X39154Y21403
X38917Y21604
X38681Y21403
X38445Y21604
X38209Y21403
X37972Y21604
X37736Y21403
X37500Y21604
X37264Y21403
X37028Y21604
X36791Y21403
X36555Y21604
X36319Y21403
X36083Y21604
X35846Y21403
X35610Y21604
X35374Y21403
X35138Y21604
X34902Y21403
X34665Y21604
X34429Y21403
X34193Y21604
X33957Y21403
X33720Y21604
X33484Y21403
X33248Y21604
X33012Y21403
X32776Y21604
X32539Y21403
X32303Y21604
X32067Y21403
X31831Y21604
X31516Y21446
X31523Y20911
X31950Y20717
X32401Y20707
X32843Y20700
X33316Y20702
X33821Y19655
X34131Y19655
X34378Y20128
X34976Y19925
X35272Y19916
X35115Y19645
X34998Y18963
X35253Y18695
X35350Y18154
X34911Y18154
X34451Y18274
X34451Y17942
X34451Y17647
X34457Y17356
X34127Y16672
X33582Y16676
X33720Y16092
X34350Y16171
X34420Y15339
X34435Y14953
X34783Y15147
X35017Y15347
X35274Y14914
X35967Y14613
X36565Y14596
X36912Y14892
X37687Y14717
X37669Y15272
X37679Y15819
X38387Y15692
X38342Y14893
X38368Y14128
X38390Y13318
X37687Y13278
X37687Y13563
X37687Y13848
X37687Y12977
X36899Y12661
X36912Y12376
X36944Y12078
X36894Y11596
X36490Y11545
X35860Y11067
X35483Y11079
X34547Y10935
X34222Y11535
X34014Y11332
X34032Y11859
X33674Y11906
X34225Y12090
X34431Y13233
X34654Y13462
X34700Y14145
X34991Y14156
X34504Y14364
X33835Y14364
X32969Y14553
X32775Y14767
X32571Y14971
X32369Y15173
X32372Y14360
X32819Y13895
X32832Y13194
X32456Y13292
X32579Y12824
X32781Y12287
X32541Y12061
X32347Y11663
X32539Y11407
X32640Y11024
X32680Y10718
X32382Y10816
X31878Y11018
X31822Y11319
X31878Y11881
X31731Y12126
X31988Y12509
X32006Y13000
X30778Y13392
X30468Y13706
X30650Y13927
X30685Y14447
X29232Y14517
X29232Y14202
X29232Y13887
X29232Y13572
X29232Y13257
X29232Y12942
X29232Y12628
X29371Y12350
X29232Y12076
X29232Y11761
X29232Y11446
X29232Y11131
X29232Y10816
X29232Y10502
X29589Y10414
X29372Y10170
X29681Y9468
X29685Y8533
X30058Y8489
X30060Y8774
X30433Y8533
X30335Y7667
X30650Y7667
X30965Y7667
X31280Y7667
X31594Y7667
X31909Y7667
X32224Y7667
X32539Y7667
X32854Y7667
X33445Y7864
X33799Y7667
X34114Y7667
X34429Y7667
X34744Y7667
X35059Y7667
X35374Y7667
X35689Y7667
X36004Y7667
X36319Y7667
X36831Y7706
X36737Y8361
X37135Y8397
X37480Y8352
X37759Y8654
X37701Y7899
X38012Y7667
X39075Y7667
X39469Y7667
X39830Y7691
X39822Y8154
X40052Y8599
X40133Y9472
X40573Y9249
X39387Y8937
X38924Y8618
X38967Y9469
X38524Y9517
X38039Y9945
X38031Y10230
X37963Y10590
X37960Y10886
X38690Y10787
X38681Y11171
X38690Y11496
X38351Y11824
X38690Y12204
X38674Y12556
X38694Y12851
X38377Y12533
X39372Y12105
X39375Y11661
X40551Y11805
X40531Y12326
X40532Y12715
X39707Y13180
X39407Y13141
X39384Y13594
X39384Y13881
X39384Y14168
X39384Y14584
X39384Y14870
X39366Y15294
X39366Y15602
X39366Y15891
X39142Y16631
X38862Y16726
X38550Y17121
X38848Y17441
X38848Y18007
X38855Y18293
X38764Y18954
X38967Y19699
X38799Y19931
X39099Y19966
X39724Y20130
X40020Y20130
X40646Y19925
X40932Y19925
X40768Y19642
X40664Y18966
X40823Y18697
X41003Y18120
X40527Y18120
X40041Y18274
X40041Y17942
X40041Y17647
X40048Y17356
X40811Y17134
X40807Y16757
X41610Y16749
X41583Y17083
X41878Y16651
X42357Y16608
X42382Y16013
X42382Y15620
X42382Y15226
X42382Y14832
X42382Y14439
X42382Y14045
X42382Y13651
X42382Y13257
X42343Y12628
X42382Y12234
X42382Y11919
X42382Y11545
X42254Y11062
X42343Y10698
X42382Y10068
X42098Y9958
X42382Y9517
X42361Y8355
X42382Y7667
X41358Y10935
X41232Y11230
X40363Y10745
X38371Y10453
X37494Y10005
X37362Y9616
X37024Y9687
X36601Y10009
X36161Y10108
X35420Y10030
X34892Y9094
X34752Y8815
X34681Y8508
X34419Y9198
X33588Y9169
X33396Y8844
X32652Y9190
X32726Y10038
X32432Y10038
X32141Y10038
X30955Y9980
X30925Y9517
X31200Y8986
X31226Y8082
X32336Y7955
X30020Y7667
X29705Y7667
X29390Y7667
X30584Y10571
X30740Y10810
X30512Y11102
X30295Y11529
X30736Y11527
X30834Y12211
X30318Y12500
X30042Y11946
X30031Y13155
X29232Y14832
X29232Y15147
X29232Y15462
X29232Y15777
X29232Y16092
X29232Y16407
X29232Y16722
X29232Y17037
X29232Y17352
X29751Y17966
X29311Y18572
X29232Y19045
X29803Y19643
X29803Y19962
X29803Y20280
X29803Y20598
X29803Y20917
X30167Y21243
X29449Y21286
X31045Y20455
X30912Y19876
X31476Y18966
X31709Y18262
X31695Y17942
X31700Y17654
X31701Y17356
X32488Y17134
X32497Y16721
X33007Y17106
X33297Y17322
X33297Y17895
X33260Y18281
X32656Y18147
X32156Y18154
X32496Y18700
X32375Y19366
X32692Y19366
X33038Y19366
X32028Y19377
X33839Y18966
X36055Y18281
X36053Y17882
X36053Y17443
X35971Y17059
X35244Y17081
X35295Y16799
X36437Y16667
X36761Y16659
X36783Y16167
X37193Y16447
X37264Y17276
X37241Y17647
X37254Y17942
X37264Y18442
X37559Y18179
X38228Y18134
X38028Y18676
X38099Y19552
X37868Y20132
X37158Y19925
X36866Y19925
X37008Y19635
X36885Y18966
X36239Y20086
X35911Y20137
X37906Y17128
X38105Y16722
X39718Y16672
X40252Y16053
X40252Y15292
X40252Y14531
X40251Y13769
X36568Y13822
X36772Y13497
X36610Y12609
X37689Y11509
X36890Y8886
X36446Y8982
X36353Y9252
X36150Y8889
X33644Y10231
X33586Y10514
X32013Y16047
X31634Y15698
X30547Y15843
X30596Y16572
X30908Y16540
X31371Y16672
X29836Y16365
X36158Y15310
X41644Y17854
X41606Y18319
X41888Y18641
X42379Y18680
X41781Y19232
X42047Y19544
X42382Y20226
X42382Y20620
X42362Y21205
X41791Y21013
X41594Y20130
X42254Y17322
X3898Y14223
X6828Y14148
X5158Y14104
X1792Y14104
X1982Y13871
X3262Y13815
X3573Y13815
X6596Y13661
X5005Y13433
X5703Y13341
X3075Y13278
X2142Y13141
X1870Y12849
X6910Y12746
X6273Y12700
X5896Y12658
X4589Y12583
X3352Y12579
X1831Y12303
X3917Y12222
X2628Y12097
X4577Y12037
X5624Y12028
X3867Y11919
X1792Y11821
X6915Y11024
X2599Y10856
X4404Y10566
X5343Y10336
X3843Y10335
X4636Y10334
X4879Y10128
X1693Y10108
X4538Y10050
X5915Y9743
X3780Y9535
X5864Y9446
X1723Y9321
X5217Y9305
X5870Y9136
X2437Y9118
X3819Y9045
X4819Y8986
X5494Y8833
X2520Y8829
X3253Y8528
X6219Y8510
X6520Y8502
X1713Y8130
X6351Y7923
X6936Y7898
X6052Y7889
X6717Y7632
X5075Y7494
X4228Y7448
X3715Y7378
X2815Y7378
X2514Y7378
X2213Y7378
X1912Y7378
X3307Y7374
X4843Y6998
X4626Y6742
X1671Y4667
X3420Y4450
X6673Y4410
X6260Y4262
X3327Y4163
X5679Y4124
X5404Y4124
X5128Y4124
X6240Y3947
X1664Y3927
X5679Y3819
X5404Y3819
X6654Y3622
X6359Y14160
X5965Y14160
X5571Y14160
X4673Y14160
X4273Y14160
X3347Y3691
X2953Y3691
X2559Y3691
X2166Y3691
T02
X7451Y25000
X15384Y32027
X20659Y22697
X22136Y27224
X22156Y20669
X22234Y24980
X22963Y23267
X24163Y21614
X25207Y21456
X26447Y26260
X26762Y20000
X27313Y24488
X27470Y17578
X28396Y27697
X28612Y30039
X28789Y18425
X29754Y14114
X31467Y37185
X31998Y16200
X34104Y35787
X34557Y16378
X36053Y34291
X40463Y13976
X40777Y16220
X41270Y10157
X45148Y29862
X45404Y28641
X45423Y25748
X46447Y29744
X46585Y36456
X47254Y15472
X47746Y32283
X47825Y25531
X47963Y26988
X48711Y16830
X49301Y13976
X50364Y15452
X51506Y16791
X53258Y36515
X54616Y21555
X58435Y31181
X58494Y34055
X61270Y37480
X61742Y28386
T03
X52876Y12679G85X52876Y12246
X52876Y10935G85X52876Y10699
X56278Y12679G85X56278Y12246
X56278Y10935G85X56278Y10699
X53439Y12265
X55715Y12265
T04
X837Y31358
X3506Y30905
X7267Y30807
X10719Y31712
X15463Y27559
X17678Y28612
X21132Y31141
X23907Y28307
X45522Y31338
X47156Y29035
X47156Y25886
X49793Y24291
X44616Y26949
X44929Y15571
X46429Y15571
X46545Y26949
X49367Y26371
X50731Y25007
X36287Y16309
X34709Y16309
X33287Y16309
T05
X45276Y17352
X45453Y23454
X47736Y17352
X49429Y17352
X50177Y17352
X50197Y23454
X52146Y23454
X52697Y17352
X52874Y23454
X52904Y25728
X54392Y25728
X45452Y13849
X50197Y13849
X50177Y7746
X49429Y7746
X47736Y7746
X45275Y7746
X52697Y7746
X52874Y13849
X52145Y13849
X9202Y8579
X10384Y7791
X9202Y7004
X9124Y15705
X9524Y13705
X8724Y13705
X42067Y7982
X32988Y8953
X32988Y8153
X30988Y8553
X2677Y6837
X3859Y6049
X2677Y5262
X2599Y13963
X2999Y11963
X2199Y11963
T06
X3346Y34862
X3346Y33248
X5591Y34862
X5591Y33248
X7835Y34862
X7835Y33248
X10079Y34862
X10079Y33248
X12323Y34862
X12323Y33248
X14567Y34862
X14567Y33248
X16811Y34862
X16811Y33248
X19055Y34862
X19055Y33248
X21299Y34862
X21299Y33248
X23543Y34862
X23543Y33248
X25787Y34862
X25787Y33248
X37205Y34842
X37205Y33228
X39449Y34842
X39449Y33228
X41693Y34842
X41693Y33228
X43937Y34842
X43937Y33228
X46181Y34842
X46181Y33228
X48425Y34842
X48425Y33228
X50669Y34842
X50669Y33228
X52913Y34842
X52913Y33228
X55157Y34842
X55157Y33228
X57402Y34842
X57402Y33228
X59646Y34842
X59646Y33228
X13011Y8756
X13011Y7756
X13011Y6756
X6486Y7014
X6486Y6014
X6486Y5014
T07
X11313Y12795
X11313Y11043
X13065Y12795
X13065Y11043
X14813Y12795
X14813Y11043
X16565Y12795
X16565Y11043
X18313Y12795
X18313Y11043
X20065Y12795
X20065Y11043
X29463Y12795
X29463Y11043
X31215Y12795
X31215Y11043
X32963Y12795
X32963Y11043
X34715Y12795
X34715Y11043
X36463Y12795
X36463Y11043
X38215Y12795
X38215Y11043
T08
X8937Y11917
X22437Y11917
X27087Y11917
X40587Y11917
M30
