G75*
G70*
%OFA0B0*%
%FSLAX25Y25*%
%IPPOS*%
%LPD*%
%AMOC8*
5,1,8,0,0,1.08239X$1,22.5*
%
%AMM110*
21,1,0.027170,0.052760,-0.000000,0.000000,0.000000*
21,1,0.017320,0.062600,-0.000000,0.000000,0.000000*
1,1,0.009840,0.008660,-0.026380*
1,1,0.009840,-0.008660,-0.026380*
1,1,0.009840,-0.008660,0.026380*
1,1,0.009840,0.008660,0.026380*
%
%AMM177*
21,1,0.092130,0.073230,0.000000,-0.000000,180.000000*
21,1,0.069290,0.096060,0.000000,-0.000000,180.000000*
1,1,0.022840,-0.034650,0.036610*
1,1,0.022840,0.034650,0.036610*
1,1,0.022840,0.034650,-0.036610*
1,1,0.022840,-0.034650,-0.036610*
%
%AMM178*
21,1,0.100000,0.111020,0.000000,-0.000000,270.000000*
21,1,0.075590,0.135430,0.000000,-0.000000,270.000000*
1,1,0.024410,-0.055510,-0.037800*
1,1,0.024410,-0.055510,0.037800*
1,1,0.024410,0.055510,0.037800*
1,1,0.024410,0.055510,-0.037800*
%
%AMM179*
21,1,0.080320,0.083460,0.000000,-0.000000,270.000000*
21,1,0.059840,0.103940,0.000000,-0.000000,270.000000*
1,1,0.020470,-0.041730,-0.029920*
1,1,0.020470,-0.041730,0.029920*
1,1,0.020470,0.041730,0.029920*
1,1,0.020470,0.041730,-0.029920*
%
%AMM180*
21,1,0.084250,0.053540,0.000000,-0.000000,90.000000*
21,1,0.065350,0.072440,0.000000,-0.000000,90.000000*
1,1,0.018900,0.026770,0.032680*
1,1,0.018900,0.026770,-0.032680*
1,1,0.018900,-0.026770,-0.032680*
1,1,0.018900,-0.026770,0.032680*
%
%AMM181*
21,1,0.040950,0.030320,0.000000,-0.000000,0.000000*
21,1,0.028350,0.042910,0.000000,-0.000000,0.000000*
1,1,0.012600,0.014170,-0.015160*
1,1,0.012600,-0.014170,-0.015160*
1,1,0.012600,-0.014170,0.015160*
1,1,0.012600,0.014170,0.015160*
%
%AMM182*
21,1,0.027170,0.052760,0.000000,-0.000000,180.000000*
21,1,0.017320,0.062600,0.000000,-0.000000,180.000000*
1,1,0.009840,-0.008660,0.026380*
1,1,0.009840,0.008660,0.026380*
1,1,0.009840,0.008660,-0.026380*
1,1,0.009840,-0.008660,-0.026380*
%
%AMM183*
21,1,0.041340,0.026770,0.000000,-0.000000,270.000000*
21,1,0.029130,0.038980,0.000000,-0.000000,270.000000*
1,1,0.012210,-0.013390,-0.014570*
1,1,0.012210,-0.013390,0.014570*
1,1,0.012210,0.013390,0.014570*
1,1,0.012210,0.013390,-0.014570*
%
%AMM184*
21,1,0.076380,0.036220,0.000000,-0.000000,0.000000*
21,1,0.061810,0.050790,0.000000,-0.000000,0.000000*
1,1,0.014570,0.030910,-0.018110*
1,1,0.014570,-0.030910,-0.018110*
1,1,0.014570,-0.030910,0.018110*
1,1,0.014570,0.030910,0.018110*
%
%AMM185*
21,1,0.038980,0.026770,0.000000,-0.000000,270.000000*
21,1,0.026770,0.038980,0.000000,-0.000000,270.000000*
1,1,0.012210,-0.013390,-0.013390*
1,1,0.012210,-0.013390,0.013390*
1,1,0.012210,0.013390,0.013390*
1,1,0.012210,0.013390,-0.013390*
%
%AMM186*
21,1,0.021260,0.016540,0.000000,-0.000000,180.000000*
21,1,0.012600,0.025200,0.000000,-0.000000,180.000000*
1,1,0.008660,-0.006300,0.008270*
1,1,0.008660,0.006300,0.008270*
1,1,0.008660,0.006300,-0.008270*
1,1,0.008660,-0.006300,-0.008270*
%
%AMM187*
21,1,0.029130,0.018900,0.000000,-0.000000,0.000000*
21,1,0.018900,0.029130,0.000000,-0.000000,0.000000*
1,1,0.010240,0.009450,-0.009450*
1,1,0.010240,-0.009450,-0.009450*
1,1,0.010240,-0.009450,0.009450*
1,1,0.010240,0.009450,0.009450*
%
%AMM188*
21,1,0.025200,0.019680,0.000000,-0.000000,270.000000*
21,1,0.015750,0.029130,0.000000,-0.000000,270.000000*
1,1,0.009450,-0.009840,-0.007870*
1,1,0.009450,-0.009840,0.007870*
1,1,0.009450,0.009840,0.007870*
1,1,0.009450,0.009840,-0.007870*
%
%AMM189*
21,1,0.025200,0.019680,0.000000,-0.000000,180.000000*
21,1,0.015750,0.029130,0.000000,-0.000000,180.000000*
1,1,0.009450,-0.007870,0.009840*
1,1,0.009450,0.007870,0.009840*
1,1,0.009450,0.007870,-0.009840*
1,1,0.009450,-0.007870,-0.009840*
%
%AMM271*
21,1,0.029530,0.026380,-0.000000,-0.000000,90.000000*
21,1,0.020470,0.035430,-0.000000,-0.000000,90.000000*
1,1,0.009060,0.013190,0.010240*
1,1,0.009060,0.013190,-0.010240*
1,1,0.009060,-0.013190,-0.010240*
1,1,0.009060,-0.013190,0.010240*
%
%AMM272*
21,1,0.021650,0.027950,-0.000000,-0.000000,90.000000*
21,1,0.014170,0.035430,-0.000000,-0.000000,90.000000*
1,1,0.007480,0.013980,0.007090*
1,1,0.007480,0.013980,-0.007090*
1,1,0.007480,-0.013980,-0.007090*
1,1,0.007480,-0.013980,0.007090*
%
%AMM273*
21,1,0.016540,0.028980,-0.000000,-0.000000,270.000000*
21,1,0.010080,0.035430,-0.000000,-0.000000,270.000000*
1,1,0.006460,-0.014490,-0.005040*
1,1,0.006460,-0.014490,0.005040*
1,1,0.006460,0.014490,0.005040*
1,1,0.006460,0.014490,-0.005040*
%
%AMM274*
21,1,0.027560,0.030710,-0.000000,-0.000000,0.000000*
21,1,0.018900,0.039370,-0.000000,-0.000000,0.000000*
1,1,0.008660,0.009450,-0.015350*
1,1,0.008660,-0.009450,-0.015350*
1,1,0.008660,-0.009450,0.015350*
1,1,0.008660,0.009450,0.015350*
%
%AMM275*
21,1,0.031500,0.018900,-0.000000,-0.000000,270.000000*
21,1,0.022840,0.027560,-0.000000,-0.000000,270.000000*
1,1,0.008660,-0.009450,-0.011420*
1,1,0.008660,-0.009450,0.011420*
1,1,0.008660,0.009450,0.011420*
1,1,0.008660,0.009450,-0.011420*
%
%AMM276*
21,1,0.035430,0.072440,-0.000000,-0.000000,270.000000*
21,1,0.025200,0.082680,-0.000000,-0.000000,270.000000*
1,1,0.010240,-0.036220,-0.012600*
1,1,0.010240,-0.036220,0.012600*
1,1,0.010240,0.036220,0.012600*
1,1,0.010240,0.036220,-0.012600*
%
%AMM277*
21,1,0.031500,0.018900,-0.000000,-0.000000,0.000000*
21,1,0.022840,0.027560,-0.000000,-0.000000,0.000000*
1,1,0.008660,0.011420,-0.009450*
1,1,0.008660,-0.011420,-0.009450*
1,1,0.008660,-0.011420,0.009450*
1,1,0.008660,0.011420,0.009450*
%
%AMM278*
21,1,0.027560,0.030710,-0.000000,-0.000000,90.000000*
21,1,0.018900,0.039370,-0.000000,-0.000000,90.000000*
1,1,0.008660,0.015350,0.009450*
1,1,0.008660,0.015350,-0.009450*
1,1,0.008660,-0.015350,-0.009450*
1,1,0.008660,-0.015350,0.009450*
%
%AMM279*
21,1,0.039370,0.030320,-0.000000,-0.000000,90.000000*
21,1,0.028350,0.041340,-0.000000,-0.000000,90.000000*
1,1,0.011020,0.015160,0.014170*
1,1,0.011020,0.015160,-0.014170*
1,1,0.011020,-0.015160,-0.014170*
1,1,0.011020,-0.015160,0.014170*
%
%AMM280*
21,1,0.047240,0.075980,-0.000000,-0.000000,180.000000*
21,1,0.034650,0.088580,-0.000000,-0.000000,180.000000*
1,1,0.012600,-0.017320,0.037990*
1,1,0.012600,0.017320,0.037990*
1,1,0.012600,0.017320,-0.037990*
1,1,0.012600,-0.017320,-0.037990*
%
%AMM281*
21,1,0.043310,0.035430,-0.000000,-0.000000,180.000000*
21,1,0.031500,0.047240,-0.000000,-0.000000,180.000000*
1,1,0.011810,-0.015750,0.017720*
1,1,0.011810,0.015750,0.017720*
1,1,0.011810,0.015750,-0.017720*
1,1,0.011810,-0.015750,-0.017720*
%
%AMM282*
21,1,0.031500,0.030710,-0.000000,-0.000000,180.000000*
21,1,0.022050,0.040160,-0.000000,-0.000000,180.000000*
1,1,0.009450,-0.011020,0.015350*
1,1,0.009450,0.011020,0.015350*
1,1,0.009450,0.011020,-0.015350*
1,1,0.009450,-0.011020,-0.015350*
%
%AMM283*
21,1,0.035430,0.072440,-0.000000,-0.000000,180.000000*
21,1,0.025200,0.082680,-0.000000,-0.000000,180.000000*
1,1,0.010240,-0.012600,0.036220*
1,1,0.010240,0.012600,0.036220*
1,1,0.010240,0.012600,-0.036220*
1,1,0.010240,-0.012600,-0.036220*
%
%AMM284*
21,1,0.141730,0.067720,-0.000000,-0.000000,180.000000*
21,1,0.120870,0.088580,-0.000000,-0.000000,180.000000*
1,1,0.020870,-0.060430,0.033860*
1,1,0.020870,0.060430,0.033860*
1,1,0.020870,0.060430,-0.033860*
1,1,0.020870,-0.060430,-0.033860*
%
%AMM285*
21,1,0.047240,0.075990,-0.000000,-0.000000,180.000000*
21,1,0.034650,0.088580,-0.000000,-0.000000,180.000000*
1,1,0.012600,-0.017320,0.037990*
1,1,0.012600,0.017320,0.037990*
1,1,0.012600,0.017320,-0.037990*
1,1,0.012600,-0.017320,-0.037990*
%
%AMM286*
21,1,0.090550,0.073230,-0.000000,-0.000000,270.000000*
21,1,0.069290,0.094490,-0.000000,-0.000000,270.000000*
1,1,0.021260,-0.036610,-0.034650*
1,1,0.021260,-0.036610,0.034650*
1,1,0.021260,0.036610,0.034650*
1,1,0.021260,0.036610,-0.034650*
%
%ADD10C,0.06000*%
%ADD11R,0.07874X0.05906*%
%ADD12R,0.07874X0.14961*%
%ADD121C,0.02913*%
%ADD122C,0.06457*%
%ADD13R,0.10559X0.10559*%
%ADD139R,0.02559X0.01575*%
%ADD14C,0.10559*%
%ADD140R,0.01575X0.02559*%
%ADD142R,0.05512X0.01181*%
%ADD143R,0.03543X0.03150*%
%ADD145C,0.05118*%
%ADD147R,0.03150X0.03543*%
%ADD15C,0.12756*%
%ADD155C,0.03100*%
%ADD158C,0.03900*%
%ADD16C,0.02362*%
%ADD193O,0.05118X0.01260*%
%ADD194O,0.01260X0.05118*%
%ADD195O,0.04724X0.01575*%
%ADD196C,0.03494*%
%ADD199R,0.01772X0.01378*%
%ADD200R,0.01378X0.01772*%
%ADD205O,0.09055X0.02756*%
%ADD212C,0.03543*%
%ADD214C,0.04724*%
%ADD215C,0.04294*%
%ADD24R,0.05906X0.07874*%
%ADD25R,0.14961X0.07874*%
%ADD270M110*%
%ADD339M177*%
%ADD340M178*%
%ADD341M179*%
%ADD342M180*%
%ADD343M181*%
%ADD344M182*%
%ADD345M183*%
%ADD346M184*%
%ADD347M185*%
%ADD348M186*%
%ADD349M187*%
%ADD35C,0.05906*%
%ADD350M188*%
%ADD351M189*%
%ADD368R,0.08661X0.04724*%
%ADD369R,0.25197X0.22835*%
%ADD370R,0.07874X0.07500*%
%ADD371O,0.07874X0.07500*%
%ADD45C,0.06693*%
%ADD46R,0.01181X0.04528*%
%ADD466M271*%
%ADD467M272*%
%ADD468M273*%
%ADD469M274*%
%ADD47O,0.03937X0.08268*%
%ADD470M275*%
%ADD471M276*%
%ADD472M277*%
%ADD473M278*%
%ADD474M279*%
%ADD475M280*%
%ADD476M281*%
%ADD477M282*%
%ADD478M283*%
%ADD479M284*%
%ADD48O,0.03937X0.06299*%
%ADD480M285*%
%ADD481M286*%
%ADD61R,0.05118X0.03937*%
%ADD67C,0.00472*%
%ADD68C,0.02559*%
X0000000Y0000000D02*
%LPD*%
G01*
D67*
X0604478Y0273424D02*
X0553297Y0273424D01*
X0553297Y0300983D01*
X0604478Y0300983D01*
X0604478Y0273424D01*
G36*
X0604478Y0273424D02*
G01*
X0553297Y0273424D01*
X0553297Y0300983D01*
X0604478Y0300983D01*
X0604478Y0273424D01*
G37*
D10*
X0464291Y0155708D03*
G36*
G01*
X0462500Y0158168D02*
X0462500Y0153247D01*
G75*
G02*
X0462106Y0152853I-000394J0000000D01*
G01*
X0458957Y0152853D01*
G75*
G02*
X0458563Y0153247I0000000J0000394D01*
G01*
X0458563Y0158168D01*
G75*
G02*
X0458957Y0158562I0000394J0000000D01*
G01*
X0462106Y0158562D01*
G75*
G02*
X0462500Y0158168I0000000J-000394D01*
G01*
G37*
G36*
G01*
X0455020Y0158168D02*
X0455020Y0153247D01*
G75*
G02*
X0454626Y0152853I-000394J0000000D01*
G01*
X0451476Y0152853D01*
G75*
G02*
X0451083Y0153247I0000000J0000394D01*
G01*
X0451083Y0158168D01*
G75*
G02*
X0451476Y0158562I0000394J0000000D01*
G01*
X0454626Y0158562D01*
G75*
G02*
X0455020Y0158168I0000000J-000394D01*
G01*
G37*
X0449291Y0155708D03*
G36*
G01*
X0560571Y0317322D02*
X0563642Y0317322D01*
G75*
G02*
X0563917Y0317046I0000000J-000276D01*
G01*
X0563917Y0314842D01*
G75*
G02*
X0563642Y0314566I-000276J0000000D01*
G01*
X0560571Y0314566D01*
G75*
G02*
X0560295Y0314842I0000000J0000276D01*
G01*
X0560295Y0317046D01*
G75*
G02*
X0560571Y0317322I0000276J0000000D01*
G01*
G37*
G36*
G01*
X0560571Y0311023D02*
X0563642Y0311023D01*
G75*
G02*
X0563917Y0310747I0000000J-000276D01*
G01*
X0563917Y0308542D01*
G75*
G02*
X0563642Y0308267I-000276J0000000D01*
G01*
X0560571Y0308267D01*
G75*
G02*
X0560295Y0308542I0000000J0000276D01*
G01*
X0560295Y0310747D01*
G75*
G02*
X0560571Y0311023I0000276J0000000D01*
G01*
G37*
D11*
X0265453Y0223818D03*
X0265453Y0232873D03*
X0265453Y0241928D03*
D12*
X0240650Y0232873D03*
D13*
X0294626Y0127952D03*
D14*
X0312146Y0127952D03*
X0329626Y0127952D03*
X0347146Y0127952D03*
X0364626Y0127952D03*
X0382146Y0127952D03*
X0382146Y0110432D03*
X0364626Y0110432D03*
X0347146Y0110432D03*
X0329626Y0110432D03*
X0312146Y0110432D03*
X0294626Y0110432D03*
D15*
X0270866Y0119172D03*
X0405866Y0119172D03*
G36*
X0191112Y0281570D02*
G01*
X0196226Y0284523D01*
X0200163Y0277704D01*
X0195049Y0274751D01*
X0191112Y0281570D01*
G37*
G36*
X0183270Y0277042D02*
G01*
X0188384Y0279995D01*
X0192321Y0273176D01*
X0187207Y0270223D01*
X0183270Y0277042D01*
G37*
G36*
X0175428Y0272515D02*
G01*
X0180542Y0275468D01*
X0184479Y0268648D01*
X0179365Y0265696D01*
X0175428Y0272515D01*
G37*
G36*
X0191750Y0253298D02*
G01*
X0204706Y0260779D01*
X0208643Y0253960D01*
X0195687Y0246479D01*
X0191750Y0253298D01*
G37*
G36*
G01*
X0560531Y0137361D02*
X0560531Y0134290D01*
G75*
G02*
X0560256Y0134015I-000276J0000000D01*
G01*
X0558051Y0134015D01*
G75*
G02*
X0557776Y0134290I0000000J0000276D01*
G01*
X0557776Y0137361D01*
G75*
G02*
X0558051Y0137637I0000276J0000000D01*
G01*
X0560256Y0137637D01*
G75*
G02*
X0560531Y0137361I0000000J-000276D01*
G01*
G37*
G36*
G01*
X0554232Y0137361D02*
X0554232Y0134290D01*
G75*
G02*
X0553957Y0134015I-000276J0000000D01*
G01*
X0551752Y0134015D01*
G75*
G02*
X0551476Y0134290I0000000J0000276D01*
G01*
X0551476Y0137361D01*
G75*
G02*
X0551752Y0137637I0000276J0000000D01*
G01*
X0553957Y0137637D01*
G75*
G02*
X0554232Y0137361I0000000J-000276D01*
G01*
G37*
G36*
X0215712Y0211188D02*
G01*
X0211536Y0207013D01*
X0205968Y0212580D01*
X0210144Y0216756D01*
X0215712Y0211188D01*
G37*
G36*
X0222115Y0217591D02*
G01*
X0217939Y0213416D01*
X0212371Y0218983D01*
X0216547Y0223159D01*
X0222115Y0217591D01*
G37*
G36*
X0228518Y0223994D02*
G01*
X0224342Y0219818D01*
X0218774Y0225386D01*
X0222950Y0229562D01*
X0228518Y0223994D01*
G37*
G36*
X0207778Y0238331D02*
G01*
X0197199Y0227753D01*
X0191631Y0233320D01*
X0202210Y0243899D01*
X0207778Y0238331D01*
G37*
G36*
G01*
X0274665Y0199408D02*
X0271594Y0199408D01*
G75*
G02*
X0271319Y0199684I0000000J0000276D01*
G01*
X0271319Y0201889D01*
G75*
G02*
X0271594Y0202164I0000276J0000000D01*
G01*
X0274665Y0202164D01*
G75*
G02*
X0274941Y0201889I0000000J-000276D01*
G01*
X0274941Y0199684D01*
G75*
G02*
X0274665Y0199408I-000276J0000000D01*
G01*
G37*
G36*
G01*
X0274665Y0205708D02*
X0271594Y0205708D01*
G75*
G02*
X0271319Y0205983I0000000J0000276D01*
G01*
X0271319Y0208188D01*
G75*
G02*
X0271594Y0208464I0000276J0000000D01*
G01*
X0274665Y0208464D01*
G75*
G02*
X0274941Y0208188I0000000J-000276D01*
G01*
X0274941Y0205983D01*
G75*
G02*
X0274665Y0205708I-000276J0000000D01*
G01*
G37*
D16*
X0615748Y0200097D03*
X0619488Y0200097D03*
X0623228Y0200097D03*
X0619291Y0165845D03*
X0615748Y0165845D03*
X0280512Y0330806D03*
X0280512Y0335531D03*
X0280512Y0326082D03*
X0280512Y0321357D03*
X0337303Y0346790D03*
X0337303Y0350727D03*
G36*
G01*
X0441398Y0314566D02*
X0438327Y0314566D01*
G75*
G02*
X0438051Y0314842I0000000J0000276D01*
G01*
X0438051Y0317046D01*
G75*
G02*
X0438327Y0317322I0000276J0000000D01*
G01*
X0441398Y0317322D01*
G75*
G02*
X0441673Y0317046I0000000J-000276D01*
G01*
X0441673Y0314842D01*
G75*
G02*
X0441398Y0314566I-000276J0000000D01*
G01*
G37*
G36*
G01*
X0441398Y0320865D02*
X0438327Y0320865D01*
G75*
G02*
X0438051Y0321141I0000000J0000276D01*
G01*
X0438051Y0323345D01*
G75*
G02*
X0438327Y0323621I0000276J0000000D01*
G01*
X0441398Y0323621D01*
G75*
G02*
X0441673Y0323345I0000000J-000276D01*
G01*
X0441673Y0321141D01*
G75*
G02*
X0441398Y0320865I-000276J0000000D01*
G01*
G37*
G36*
G01*
X0267776Y0246653D02*
X0264705Y0246653D01*
G75*
G02*
X0264429Y0246928I0000000J0000276D01*
G01*
X0264429Y0249133D01*
G75*
G02*
X0264705Y0249408I0000276J0000000D01*
G01*
X0267776Y0249408D01*
G75*
G02*
X0268051Y0249133I0000000J-000276D01*
G01*
X0268051Y0246928D01*
G75*
G02*
X0267776Y0246653I-000276J0000000D01*
G01*
G37*
G36*
G01*
X0267776Y0252952D02*
X0264705Y0252952D01*
G75*
G02*
X0264429Y0253227I0000000J0000276D01*
G01*
X0264429Y0255432D01*
G75*
G02*
X0264705Y0255708I0000276J0000000D01*
G01*
X0267776Y0255708D01*
G75*
G02*
X0268051Y0255432I0000000J-000276D01*
G01*
X0268051Y0253227D01*
G75*
G02*
X0267776Y0252952I-000276J0000000D01*
G01*
G37*
G36*
G01*
X0157332Y0284648D02*
X0159991Y0286184D01*
G75*
G02*
X0160368Y0286083I0000138J-000239D01*
G01*
X0161470Y0284174D01*
G75*
G02*
X0161369Y0283797I-000239J-000138D01*
G01*
X0158710Y0282262D01*
G75*
G02*
X0158333Y0282363I-000138J0000239D01*
G01*
X0157231Y0284272D01*
G75*
G02*
X0157332Y0284648I0000239J0000138D01*
G01*
G37*
G36*
G01*
X0160481Y0279193D02*
X0163141Y0280728D01*
G75*
G02*
X0163517Y0280628I0000138J-000239D01*
G01*
X0164620Y0278718D01*
G75*
G02*
X0164519Y0278342I-000239J-000138D01*
G01*
X0161859Y0276806D01*
G75*
G02*
X0161483Y0276907I-000138J0000239D01*
G01*
X0160380Y0278817D01*
G75*
G02*
X0160481Y0279193I0000239J0000138D01*
G01*
G37*
D24*
X0260925Y0208070D03*
X0251870Y0208070D03*
X0242815Y0208070D03*
D25*
X0251870Y0183267D03*
G36*
X0160600Y0272712D02*
G01*
X0165714Y0275664D01*
X0169651Y0268845D01*
X0164537Y0265893D01*
X0160600Y0272712D01*
G37*
G36*
X0152758Y0268184D02*
G01*
X0157872Y0271137D01*
X0161809Y0264318D01*
X0156695Y0261365D01*
X0152758Y0268184D01*
G37*
G36*
X0144916Y0263657D02*
G01*
X0150030Y0266609D01*
X0153967Y0259790D01*
X0148853Y0256837D01*
X0144916Y0263657D01*
G37*
G36*
X0161238Y0244440D02*
G01*
X0174195Y0251920D01*
X0178132Y0245101D01*
X0165175Y0237621D01*
X0161238Y0244440D01*
G37*
D35*
X0526968Y0173523D03*
X0501772Y0173523D03*
X0494291Y0173523D03*
X0477362Y0173523D03*
D16*
X0467913Y0171751D03*
X0463976Y0171751D03*
D35*
X0452756Y0173523D03*
X0528740Y0234546D03*
X0521457Y0234546D03*
X0501968Y0234546D03*
X0454528Y0234546D03*
D11*
X0248720Y0291731D03*
X0248720Y0300786D03*
X0248720Y0309842D03*
D12*
X0223917Y0300786D03*
G36*
G01*
X0142776Y0366731D02*
X0139705Y0366731D01*
G75*
G02*
X0139429Y0367007I0000000J0000276D01*
G01*
X0139429Y0369212D01*
G75*
G02*
X0139705Y0369487I0000276J0000000D01*
G01*
X0142776Y0369487D01*
G75*
G02*
X0143051Y0369212I0000000J-000276D01*
G01*
X0143051Y0367007D01*
G75*
G02*
X0142776Y0366731I-000276J0000000D01*
G01*
G37*
G36*
G01*
X0142776Y0373031D02*
X0139705Y0373031D01*
G75*
G02*
X0139429Y0373306I0000000J0000276D01*
G01*
X0139429Y0375511D01*
G75*
G02*
X0139705Y0375786I0000276J0000000D01*
G01*
X0142776Y0375786D01*
G75*
G02*
X0143051Y0375511I0000000J-000276D01*
G01*
X0143051Y0373306D01*
G75*
G02*
X0142776Y0373031I-000276J0000000D01*
G01*
G37*
G36*
G01*
X0547303Y0170412D02*
X0544626Y0170412D01*
G75*
G02*
X0544291Y0170747I0000000J0000335D01*
G01*
X0544291Y0173424D01*
G75*
G02*
X0544626Y0173759I0000335J0000000D01*
G01*
X0547303Y0173759D01*
G75*
G02*
X0547638Y0173424I0000000J-000335D01*
G01*
X0547638Y0170747D01*
G75*
G02*
X0547303Y0170412I-000335J0000000D01*
G01*
G37*
G36*
G01*
X0547303Y0176633D02*
X0544626Y0176633D01*
G75*
G02*
X0544291Y0176968I0000000J0000335D01*
G01*
X0544291Y0179645D01*
G75*
G02*
X0544626Y0179979I0000335J0000000D01*
G01*
X0547303Y0179979D01*
G75*
G02*
X0547638Y0179645I0000000J-000335D01*
G01*
X0547638Y0176968D01*
G75*
G02*
X0547303Y0176633I-000335J0000000D01*
G01*
G37*
G36*
X0185009Y0319759D02*
G01*
X0190124Y0322712D01*
X0194061Y0315893D01*
X0188946Y0312940D01*
X0185009Y0319759D01*
G37*
G36*
X0177167Y0315231D02*
G01*
X0182282Y0318184D01*
X0186219Y0311365D01*
X0181104Y0308412D01*
X0177167Y0315231D01*
G37*
G36*
X0169325Y0310704D02*
G01*
X0174440Y0313657D01*
X0178377Y0306837D01*
X0173262Y0303885D01*
X0169325Y0310704D01*
G37*
G36*
X0185648Y0291487D02*
G01*
X0198604Y0298968D01*
X0202541Y0292149D01*
X0189585Y0284668D01*
X0185648Y0291487D01*
G37*
G36*
G01*
X0273327Y0236259D02*
X0273327Y0239330D01*
G75*
G02*
X0273602Y0239605I0000276J0000000D01*
G01*
X0275807Y0239605D01*
G75*
G02*
X0276083Y0239330I0000000J-000276D01*
G01*
X0276083Y0236259D01*
G75*
G02*
X0275807Y0235983I-000276J0000000D01*
G01*
X0273602Y0235983D01*
G75*
G02*
X0273327Y0236259I0000000J0000276D01*
G01*
G37*
G36*
G01*
X0279626Y0236259D02*
X0279626Y0239330D01*
G75*
G02*
X0279902Y0239605I0000276J0000000D01*
G01*
X0282106Y0239605D01*
G75*
G02*
X0282382Y0239330I0000000J-000276D01*
G01*
X0282382Y0236259D01*
G75*
G02*
X0282106Y0235983I-000276J0000000D01*
G01*
X0279902Y0235983D01*
G75*
G02*
X0279626Y0236259I0000000J0000276D01*
G01*
G37*
G36*
G01*
X0253740Y0329330D02*
X0253740Y0335629D01*
G75*
G02*
X0254724Y0336613I0000984J0000000D01*
G01*
X0261024Y0336613D01*
G75*
G02*
X0262008Y0335629I0000000J-000984D01*
G01*
X0262008Y0329330D01*
G75*
G02*
X0261024Y0328345I-000984J0000000D01*
G01*
X0254724Y0328345D01*
G75*
G02*
X0253740Y0329330I0000000J0000984D01*
G01*
G37*
G36*
G01*
X0231299Y0329330D02*
X0231299Y0335629D01*
G75*
G02*
X0232283Y0336613I0000984J0000000D01*
G01*
X0238583Y0336613D01*
G75*
G02*
X0239567Y0335629I0000000J-000984D01*
G01*
X0239567Y0329330D01*
G75*
G02*
X0238583Y0328345I-000984J0000000D01*
G01*
X0232283Y0328345D01*
G75*
G02*
X0231299Y0329330I0000000J0000984D01*
G01*
G37*
G36*
G01*
X0208858Y0329330D02*
X0208858Y0335629D01*
G75*
G02*
X0209843Y0336613I0000984J0000000D01*
G01*
X0216142Y0336613D01*
G75*
G02*
X0217126Y0335629I0000000J-000984D01*
G01*
X0217126Y0329330D01*
G75*
G02*
X0216142Y0328345I-000984J0000000D01*
G01*
X0209843Y0328345D01*
G75*
G02*
X0208858Y0329330I0000000J0000984D01*
G01*
G37*
G36*
G01*
X0186417Y0329330D02*
X0186417Y0335629D01*
G75*
G02*
X0187402Y0336613I0000984J0000000D01*
G01*
X0193701Y0336613D01*
G75*
G02*
X0194685Y0335629I0000000J-000984D01*
G01*
X0194685Y0329330D01*
G75*
G02*
X0193701Y0328345I-000984J0000000D01*
G01*
X0187402Y0328345D01*
G75*
G02*
X0186417Y0329330I0000000J0000984D01*
G01*
G37*
G36*
G01*
X0163976Y0329330D02*
X0163976Y0335629D01*
G75*
G02*
X0164961Y0336613I0000984J0000000D01*
G01*
X0171260Y0336613D01*
G75*
G02*
X0172244Y0335629I0000000J-000984D01*
G01*
X0172244Y0329330D01*
G75*
G02*
X0171260Y0328345I-000984J0000000D01*
G01*
X0164961Y0328345D01*
G75*
G02*
X0163976Y0329330I0000000J0000984D01*
G01*
G37*
G36*
G01*
X0141535Y0329330D02*
X0141535Y0335629D01*
G75*
G02*
X0142520Y0336613I0000984J0000000D01*
G01*
X0148819Y0336613D01*
G75*
G02*
X0149803Y0335629I0000000J-000984D01*
G01*
X0149803Y0329330D01*
G75*
G02*
X0148819Y0328345I-000984J0000000D01*
G01*
X0142520Y0328345D01*
G75*
G02*
X0141535Y0329330I0000000J0000984D01*
G01*
G37*
G36*
G01*
X0119094Y0329330D02*
X0119094Y0335629D01*
G75*
G02*
X0120079Y0336613I0000984J0000000D01*
G01*
X0126378Y0336613D01*
G75*
G02*
X0127362Y0335629I0000000J-000984D01*
G01*
X0127362Y0329330D01*
G75*
G02*
X0126378Y0328345I-000984J0000000D01*
G01*
X0120079Y0328345D01*
G75*
G02*
X0119094Y0329330I0000000J0000984D01*
G01*
G37*
G36*
G01*
X0096654Y0329330D02*
X0096654Y0335629D01*
G75*
G02*
X0097638Y0336613I0000984J0000000D01*
G01*
X0103937Y0336613D01*
G75*
G02*
X0104921Y0335629I0000000J-000984D01*
G01*
X0104921Y0329330D01*
G75*
G02*
X0103937Y0328345I-000984J0000000D01*
G01*
X0097638Y0328345D01*
G75*
G02*
X0096654Y0329330I0000000J0000984D01*
G01*
G37*
G36*
G01*
X0074213Y0329330D02*
X0074213Y0335629D01*
G75*
G02*
X0075197Y0336613I0000984J0000000D01*
G01*
X0081496Y0336613D01*
G75*
G02*
X0082480Y0335629I0000000J-000984D01*
G01*
X0082480Y0329330D01*
G75*
G02*
X0081496Y0328345I-000984J0000000D01*
G01*
X0075197Y0328345D01*
G75*
G02*
X0074213Y0329330I0000000J0000984D01*
G01*
G37*
G36*
G01*
X0051772Y0329330D02*
X0051772Y0335629D01*
G75*
G02*
X0052756Y0336613I0000984J0000000D01*
G01*
X0059055Y0336613D01*
G75*
G02*
X0060039Y0335629I0000000J-000984D01*
G01*
X0060039Y0329330D01*
G75*
G02*
X0059055Y0328345I-000984J0000000D01*
G01*
X0052756Y0328345D01*
G75*
G02*
X0051772Y0329330I0000000J0000984D01*
G01*
G37*
G36*
G01*
X0029331Y0329330D02*
X0029331Y0335629D01*
G75*
G02*
X0030315Y0336613I0000984J0000000D01*
G01*
X0036614Y0336613D01*
G75*
G02*
X0037598Y0335629I0000000J-000984D01*
G01*
X0037598Y0329330D01*
G75*
G02*
X0036614Y0328345I-000984J0000000D01*
G01*
X0030315Y0328345D01*
G75*
G02*
X0029331Y0329330I0000000J0000984D01*
G01*
G37*
G36*
G01*
X0253740Y0345471D02*
X0253740Y0351771D01*
G75*
G02*
X0254724Y0352755I0000984J0000000D01*
G01*
X0261024Y0352755D01*
G75*
G02*
X0262008Y0351771I0000000J-000984D01*
G01*
X0262008Y0345471D01*
G75*
G02*
X0261024Y0344487I-000984J0000000D01*
G01*
X0254724Y0344487D01*
G75*
G02*
X0253740Y0345471I0000000J0000984D01*
G01*
G37*
G36*
G01*
X0231299Y0345471D02*
X0231299Y0351771D01*
G75*
G02*
X0232283Y0352755I0000984J0000000D01*
G01*
X0238583Y0352755D01*
G75*
G02*
X0239567Y0351771I0000000J-000984D01*
G01*
X0239567Y0345471D01*
G75*
G02*
X0238583Y0344487I-000984J0000000D01*
G01*
X0232283Y0344487D01*
G75*
G02*
X0231299Y0345471I0000000J0000984D01*
G01*
G37*
G36*
G01*
X0208858Y0345471D02*
X0208858Y0351771D01*
G75*
G02*
X0209843Y0352755I0000984J0000000D01*
G01*
X0216142Y0352755D01*
G75*
G02*
X0217126Y0351771I0000000J-000984D01*
G01*
X0217126Y0345471D01*
G75*
G02*
X0216142Y0344487I-000984J0000000D01*
G01*
X0209843Y0344487D01*
G75*
G02*
X0208858Y0345471I0000000J0000984D01*
G01*
G37*
G36*
G01*
X0186417Y0345471D02*
X0186417Y0351771D01*
G75*
G02*
X0187402Y0352755I0000984J0000000D01*
G01*
X0193701Y0352755D01*
G75*
G02*
X0194685Y0351771I0000000J-000984D01*
G01*
X0194685Y0345471D01*
G75*
G02*
X0193701Y0344487I-000984J0000000D01*
G01*
X0187402Y0344487D01*
G75*
G02*
X0186417Y0345471I0000000J0000984D01*
G01*
G37*
G36*
G01*
X0163976Y0345471D02*
X0163976Y0351771D01*
G75*
G02*
X0164961Y0352755I0000984J0000000D01*
G01*
X0171260Y0352755D01*
G75*
G02*
X0172244Y0351771I0000000J-000984D01*
G01*
X0172244Y0345471D01*
G75*
G02*
X0171260Y0344487I-000984J0000000D01*
G01*
X0164961Y0344487D01*
G75*
G02*
X0163976Y0345471I0000000J0000984D01*
G01*
G37*
G36*
G01*
X0141535Y0345471D02*
X0141535Y0351771D01*
G75*
G02*
X0142520Y0352755I0000984J0000000D01*
G01*
X0148819Y0352755D01*
G75*
G02*
X0149803Y0351771I0000000J-000984D01*
G01*
X0149803Y0345471D01*
G75*
G02*
X0148819Y0344487I-000984J0000000D01*
G01*
X0142520Y0344487D01*
G75*
G02*
X0141535Y0345471I0000000J0000984D01*
G01*
G37*
G36*
G01*
X0119094Y0345471D02*
X0119094Y0351771D01*
G75*
G02*
X0120079Y0352755I0000984J0000000D01*
G01*
X0126378Y0352755D01*
G75*
G02*
X0127362Y0351771I0000000J-000984D01*
G01*
X0127362Y0345471D01*
G75*
G02*
X0126378Y0344487I-000984J0000000D01*
G01*
X0120079Y0344487D01*
G75*
G02*
X0119094Y0345471I0000000J0000984D01*
G01*
G37*
G36*
G01*
X0096654Y0345471D02*
X0096654Y0351771D01*
G75*
G02*
X0097638Y0352755I0000984J0000000D01*
G01*
X0103937Y0352755D01*
G75*
G02*
X0104921Y0351771I0000000J-000984D01*
G01*
X0104921Y0345471D01*
G75*
G02*
X0103937Y0344487I-000984J0000000D01*
G01*
X0097638Y0344487D01*
G75*
G02*
X0096654Y0345471I0000000J0000984D01*
G01*
G37*
G36*
G01*
X0074213Y0345471D02*
X0074213Y0351771D01*
G75*
G02*
X0075197Y0352755I0000984J0000000D01*
G01*
X0081496Y0352755D01*
G75*
G02*
X0082480Y0351771I0000000J-000984D01*
G01*
X0082480Y0345471D01*
G75*
G02*
X0081496Y0344487I-000984J0000000D01*
G01*
X0075197Y0344487D01*
G75*
G02*
X0074213Y0345471I0000000J0000984D01*
G01*
G37*
G36*
G01*
X0051772Y0345471D02*
X0051772Y0351771D01*
G75*
G02*
X0052756Y0352755I0000984J0000000D01*
G01*
X0059055Y0352755D01*
G75*
G02*
X0060039Y0351771I0000000J-000984D01*
G01*
X0060039Y0345471D01*
G75*
G02*
X0059055Y0344487I-000984J0000000D01*
G01*
X0052756Y0344487D01*
G75*
G02*
X0051772Y0345471I0000000J0000984D01*
G01*
G37*
G36*
G01*
X0029331Y0345471D02*
X0029331Y0351771D01*
G75*
G02*
X0030315Y0352755I0000984J0000000D01*
G01*
X0036614Y0352755D01*
G75*
G02*
X0037598Y0351771I0000000J-000984D01*
G01*
X0037598Y0345471D01*
G75*
G02*
X0036614Y0344487I-000984J0000000D01*
G01*
X0030315Y0344487D01*
G75*
G02*
X0029331Y0345471I0000000J0000984D01*
G01*
G37*
G36*
G01*
X0592323Y0329133D02*
X0592323Y0335432D01*
G75*
G02*
X0593307Y0336416I0000984J0000000D01*
G01*
X0599606Y0336416D01*
G75*
G02*
X0600591Y0335432I0000000J-000984D01*
G01*
X0600591Y0329133D01*
G75*
G02*
X0599606Y0328149I-000984J0000000D01*
G01*
X0593307Y0328149D01*
G75*
G02*
X0592323Y0329133I0000000J0000984D01*
G01*
G37*
G36*
G01*
X0569882Y0329133D02*
X0569882Y0335432D01*
G75*
G02*
X0570866Y0336416I0000984J0000000D01*
G01*
X0577165Y0336416D01*
G75*
G02*
X0578150Y0335432I0000000J-000984D01*
G01*
X0578150Y0329133D01*
G75*
G02*
X0577165Y0328149I-000984J0000000D01*
G01*
X0570866Y0328149D01*
G75*
G02*
X0569882Y0329133I0000000J0000984D01*
G01*
G37*
G36*
G01*
X0547441Y0329133D02*
X0547441Y0335432D01*
G75*
G02*
X0548425Y0336416I0000984J0000000D01*
G01*
X0554724Y0336416D01*
G75*
G02*
X0555709Y0335432I0000000J-000984D01*
G01*
X0555709Y0329133D01*
G75*
G02*
X0554724Y0328149I-000984J0000000D01*
G01*
X0548425Y0328149D01*
G75*
G02*
X0547441Y0329133I0000000J0000984D01*
G01*
G37*
G36*
G01*
X0525000Y0329133D02*
X0525000Y0335432D01*
G75*
G02*
X0525984Y0336416I0000984J0000000D01*
G01*
X0532283Y0336416D01*
G75*
G02*
X0533268Y0335432I0000000J-000984D01*
G01*
X0533268Y0329133D01*
G75*
G02*
X0532283Y0328149I-000984J0000000D01*
G01*
X0525984Y0328149D01*
G75*
G02*
X0525000Y0329133I0000000J0000984D01*
G01*
G37*
G36*
G01*
X0502559Y0329133D02*
X0502559Y0335432D01*
G75*
G02*
X0503543Y0336416I0000984J0000000D01*
G01*
X0509843Y0336416D01*
G75*
G02*
X0510827Y0335432I0000000J-000984D01*
G01*
X0510827Y0329133D01*
G75*
G02*
X0509843Y0328149I-000984J0000000D01*
G01*
X0503543Y0328149D01*
G75*
G02*
X0502559Y0329133I0000000J0000984D01*
G01*
G37*
G36*
G01*
X0480118Y0329133D02*
X0480118Y0335432D01*
G75*
G02*
X0481102Y0336416I0000984J0000000D01*
G01*
X0487402Y0336416D01*
G75*
G02*
X0488386Y0335432I0000000J-000984D01*
G01*
X0488386Y0329133D01*
G75*
G02*
X0487402Y0328149I-000984J0000000D01*
G01*
X0481102Y0328149D01*
G75*
G02*
X0480118Y0329133I0000000J0000984D01*
G01*
G37*
G36*
G01*
X0457677Y0329133D02*
X0457677Y0335432D01*
G75*
G02*
X0458661Y0336416I0000984J0000000D01*
G01*
X0464961Y0336416D01*
G75*
G02*
X0465945Y0335432I0000000J-000984D01*
G01*
X0465945Y0329133D01*
G75*
G02*
X0464961Y0328149I-000984J0000000D01*
G01*
X0458661Y0328149D01*
G75*
G02*
X0457677Y0329133I0000000J0000984D01*
G01*
G37*
G36*
G01*
X0435236Y0329133D02*
X0435236Y0335432D01*
G75*
G02*
X0436220Y0336416I0000984J0000000D01*
G01*
X0442520Y0336416D01*
G75*
G02*
X0443504Y0335432I0000000J-000984D01*
G01*
X0443504Y0329133D01*
G75*
G02*
X0442520Y0328149I-000984J0000000D01*
G01*
X0436220Y0328149D01*
G75*
G02*
X0435236Y0329133I0000000J0000984D01*
G01*
G37*
G36*
G01*
X0412795Y0329133D02*
X0412795Y0335432D01*
G75*
G02*
X0413780Y0336416I0000984J0000000D01*
G01*
X0420079Y0336416D01*
G75*
G02*
X0421063Y0335432I0000000J-000984D01*
G01*
X0421063Y0329133D01*
G75*
G02*
X0420079Y0328149I-000984J0000000D01*
G01*
X0413780Y0328149D01*
G75*
G02*
X0412795Y0329133I0000000J0000984D01*
G01*
G37*
G36*
G01*
X0390354Y0329133D02*
X0390354Y0335432D01*
G75*
G02*
X0391339Y0336416I0000984J0000000D01*
G01*
X0397638Y0336416D01*
G75*
G02*
X0398622Y0335432I0000000J-000984D01*
G01*
X0398622Y0329133D01*
G75*
G02*
X0397638Y0328149I-000984J0000000D01*
G01*
X0391339Y0328149D01*
G75*
G02*
X0390354Y0329133I0000000J0000984D01*
G01*
G37*
G36*
G01*
X0367913Y0329133D02*
X0367913Y0335432D01*
G75*
G02*
X0368898Y0336416I0000984J0000000D01*
G01*
X0375197Y0336416D01*
G75*
G02*
X0376181Y0335432I0000000J-000984D01*
G01*
X0376181Y0329133D01*
G75*
G02*
X0375197Y0328149I-000984J0000000D01*
G01*
X0368898Y0328149D01*
G75*
G02*
X0367913Y0329133I0000000J0000984D01*
G01*
G37*
G36*
G01*
X0592323Y0345275D02*
X0592323Y0351574D01*
G75*
G02*
X0593307Y0352558I0000984J0000000D01*
G01*
X0599606Y0352558D01*
G75*
G02*
X0600591Y0351574I0000000J-000984D01*
G01*
X0600591Y0345275D01*
G75*
G02*
X0599606Y0344290I-000984J0000000D01*
G01*
X0593307Y0344290D01*
G75*
G02*
X0592323Y0345275I0000000J0000984D01*
G01*
G37*
G36*
G01*
X0569882Y0345275D02*
X0569882Y0351574D01*
G75*
G02*
X0570866Y0352558I0000984J0000000D01*
G01*
X0577165Y0352558D01*
G75*
G02*
X0578150Y0351574I0000000J-000984D01*
G01*
X0578150Y0345275D01*
G75*
G02*
X0577165Y0344290I-000984J0000000D01*
G01*
X0570866Y0344290D01*
G75*
G02*
X0569882Y0345275I0000000J0000984D01*
G01*
G37*
G36*
G01*
X0547441Y0345275D02*
X0547441Y0351574D01*
G75*
G02*
X0548425Y0352558I0000984J0000000D01*
G01*
X0554724Y0352558D01*
G75*
G02*
X0555709Y0351574I0000000J-000984D01*
G01*
X0555709Y0345275D01*
G75*
G02*
X0554724Y0344290I-000984J0000000D01*
G01*
X0548425Y0344290D01*
G75*
G02*
X0547441Y0345275I0000000J0000984D01*
G01*
G37*
G36*
G01*
X0525000Y0345275D02*
X0525000Y0351574D01*
G75*
G02*
X0525984Y0352558I0000984J0000000D01*
G01*
X0532283Y0352558D01*
G75*
G02*
X0533268Y0351574I0000000J-000984D01*
G01*
X0533268Y0345275D01*
G75*
G02*
X0532283Y0344290I-000984J0000000D01*
G01*
X0525984Y0344290D01*
G75*
G02*
X0525000Y0345275I0000000J0000984D01*
G01*
G37*
G36*
G01*
X0502559Y0345275D02*
X0502559Y0351574D01*
G75*
G02*
X0503543Y0352558I0000984J0000000D01*
G01*
X0509843Y0352558D01*
G75*
G02*
X0510827Y0351574I0000000J-000984D01*
G01*
X0510827Y0345275D01*
G75*
G02*
X0509843Y0344290I-000984J0000000D01*
G01*
X0503543Y0344290D01*
G75*
G02*
X0502559Y0345275I0000000J0000984D01*
G01*
G37*
G36*
G01*
X0480118Y0345275D02*
X0480118Y0351574D01*
G75*
G02*
X0481102Y0352558I0000984J0000000D01*
G01*
X0487402Y0352558D01*
G75*
G02*
X0488386Y0351574I0000000J-000984D01*
G01*
X0488386Y0345275D01*
G75*
G02*
X0487402Y0344290I-000984J0000000D01*
G01*
X0481102Y0344290D01*
G75*
G02*
X0480118Y0345275I0000000J0000984D01*
G01*
G37*
G36*
G01*
X0457677Y0345275D02*
X0457677Y0351574D01*
G75*
G02*
X0458661Y0352558I0000984J0000000D01*
G01*
X0464961Y0352558D01*
G75*
G02*
X0465945Y0351574I0000000J-000984D01*
G01*
X0465945Y0345275D01*
G75*
G02*
X0464961Y0344290I-000984J0000000D01*
G01*
X0458661Y0344290D01*
G75*
G02*
X0457677Y0345275I0000000J0000984D01*
G01*
G37*
G36*
G01*
X0435236Y0345275D02*
X0435236Y0351574D01*
G75*
G02*
X0436220Y0352558I0000984J0000000D01*
G01*
X0442520Y0352558D01*
G75*
G02*
X0443504Y0351574I0000000J-000984D01*
G01*
X0443504Y0345275D01*
G75*
G02*
X0442520Y0344290I-000984J0000000D01*
G01*
X0436220Y0344290D01*
G75*
G02*
X0435236Y0345275I0000000J0000984D01*
G01*
G37*
G36*
G01*
X0412795Y0345275D02*
X0412795Y0351574D01*
G75*
G02*
X0413780Y0352558I0000984J0000000D01*
G01*
X0420079Y0352558D01*
G75*
G02*
X0421063Y0351574I0000000J-000984D01*
G01*
X0421063Y0345275D01*
G75*
G02*
X0420079Y0344290I-000984J0000000D01*
G01*
X0413780Y0344290D01*
G75*
G02*
X0412795Y0345275I0000000J0000984D01*
G01*
G37*
G36*
G01*
X0390354Y0345275D02*
X0390354Y0351574D01*
G75*
G02*
X0391339Y0352558I0000984J0000000D01*
G01*
X0397638Y0352558D01*
G75*
G02*
X0398622Y0351574I0000000J-000984D01*
G01*
X0398622Y0345275D01*
G75*
G02*
X0397638Y0344290I-000984J0000000D01*
G01*
X0391339Y0344290D01*
G75*
G02*
X0390354Y0345275I0000000J0000984D01*
G01*
G37*
G36*
G01*
X0367913Y0345275D02*
X0367913Y0351574D01*
G75*
G02*
X0368898Y0352558I0000984J0000000D01*
G01*
X0375197Y0352558D01*
G75*
G02*
X0376181Y0351574I0000000J-000984D01*
G01*
X0376181Y0345275D01*
G75*
G02*
X0375197Y0344290I-000984J0000000D01*
G01*
X0368898Y0344290D01*
G75*
G02*
X0367913Y0345275I0000000J0000984D01*
G01*
G37*
G36*
G01*
X0199164Y0199846D02*
X0196992Y0202017D01*
G75*
G02*
X0196992Y0202407I0000195J0000195D01*
G01*
X0198551Y0203966D01*
G75*
G02*
X0198941Y0203966I0000195J-000195D01*
G01*
X0201112Y0201794D01*
G75*
G02*
X0201112Y0201405I-000195J-000195D01*
G01*
X0199554Y0199846D01*
G75*
G02*
X0199164Y0199846I-000195J0000195D01*
G01*
G37*
G36*
G01*
X0203618Y0204300D02*
X0201447Y0206471D01*
G75*
G02*
X0201447Y0206861I0000195J0000195D01*
G01*
X0203006Y0208420D01*
G75*
G02*
X0203395Y0208420I0000195J-000195D01*
G01*
X0205567Y0206249D01*
G75*
G02*
X0205567Y0205859I-000195J-000195D01*
G01*
X0204008Y0204300D01*
G75*
G02*
X0203618Y0204300I-000195J0000195D01*
G01*
G37*
D16*
X0489370Y0287696D03*
X0489370Y0292420D03*
X0489370Y0282971D03*
X0489370Y0278247D03*
X0546161Y0303680D03*
X0546161Y0307617D03*
D45*
X0529035Y0257282D03*
D68*
X0534390Y0122656D03*
X0557146Y0122656D03*
D46*
X0532579Y0126849D03*
X0535728Y0126849D03*
X0540846Y0126849D03*
X0544783Y0126849D03*
X0546752Y0126849D03*
X0550689Y0126849D03*
X0555807Y0126849D03*
X0558957Y0126849D03*
X0557776Y0126849D03*
X0554626Y0126849D03*
X0552657Y0126849D03*
X0548720Y0126849D03*
X0542815Y0126849D03*
X0538878Y0126849D03*
X0536909Y0126849D03*
X0533760Y0126849D03*
D47*
X0528760Y0124625D03*
D48*
X0528760Y0108168D03*
D47*
X0562776Y0124625D03*
D48*
X0562776Y0108168D03*
G36*
G01*
X0098112Y0265406D02*
X0095725Y0264028D01*
G75*
G02*
X0094381Y0264388I-000492J0000852D01*
G01*
X0091034Y0270184D01*
G75*
G02*
X0091394Y0271529I0000852J0000492D01*
G01*
X0093781Y0272907D01*
G75*
G02*
X0095126Y0272547I0000492J-000852D01*
G01*
X0098472Y0266750D01*
G75*
G02*
X0098112Y0265406I-000852J-000492D01*
G01*
G37*
G36*
G01*
X0105460Y0288742D02*
X0087389Y0278309D01*
G75*
G02*
X0086045Y0278669I-000492J0000852D01*
G01*
X0074430Y0298785D01*
G75*
G02*
X0074791Y0300130I0000852J0000492D01*
G01*
X0092861Y0310563D01*
G75*
G02*
X0094206Y0310202I0000492J-000852D01*
G01*
X0105820Y0290086D01*
G75*
G02*
X0105460Y0288742I-000852J-000492D01*
G01*
G37*
G36*
G01*
X0113659Y0274382D02*
X0111273Y0273004D01*
G75*
G02*
X0109928Y0273364I-000492J0000852D01*
G01*
X0106582Y0279161D01*
G75*
G02*
X0106942Y0280505I0000852J0000492D01*
G01*
X0109329Y0281883D01*
G75*
G02*
X0110673Y0281523I0000492J-000852D01*
G01*
X0114020Y0275727D01*
G75*
G02*
X0113659Y0274382I-000852J-000492D01*
G01*
G37*
G36*
G01*
X0109843Y0369093D02*
X0109843Y0367912D01*
G75*
G02*
X0109252Y0367322I-000591J0000000D01*
G01*
X0104626Y0367322D01*
G75*
G02*
X0104035Y0367912I0000000J0000591D01*
G01*
X0104035Y0369093D01*
G75*
G02*
X0104626Y0369684I0000591J0000000D01*
G01*
X0109252Y0369684D01*
G75*
G02*
X0109843Y0369093I0000000J-000591D01*
G01*
G37*
G36*
G01*
X0102461Y0372834D02*
X0102461Y0371653D01*
G75*
G02*
X0101870Y0371062I-000591J0000000D01*
G01*
X0097244Y0371062D01*
G75*
G02*
X0096654Y0371653I0000000J0000591D01*
G01*
X0096654Y0372834D01*
G75*
G02*
X0097244Y0373424I0000591J0000000D01*
G01*
X0101870Y0373424D01*
G75*
G02*
X0102461Y0372834I0000000J-000591D01*
G01*
G37*
G36*
G01*
X0109843Y0376574D02*
X0109843Y0375393D01*
G75*
G02*
X0109252Y0374802I-000591J0000000D01*
G01*
X0104626Y0374802D01*
G75*
G02*
X0104035Y0375393I0000000J0000591D01*
G01*
X0104035Y0376574D01*
G75*
G02*
X0104626Y0377164I0000591J0000000D01*
G01*
X0109252Y0377164D01*
G75*
G02*
X0109843Y0376574I0000000J-000591D01*
G01*
G37*
G36*
G01*
X0272185Y0326574D02*
X0275256Y0326574D01*
G75*
G02*
X0275531Y0326298I0000000J-000276D01*
G01*
X0275531Y0324093D01*
G75*
G02*
X0275256Y0323818I-000276J0000000D01*
G01*
X0272185Y0323818D01*
G75*
G02*
X0271909Y0324093I0000000J0000276D01*
G01*
X0271909Y0326298D01*
G75*
G02*
X0272185Y0326574I0000276J0000000D01*
G01*
G37*
G36*
G01*
X0272185Y0320275D02*
X0275256Y0320275D01*
G75*
G02*
X0275531Y0319999I0000000J-000276D01*
G01*
X0275531Y0317794D01*
G75*
G02*
X0275256Y0317519I-000276J0000000D01*
G01*
X0272185Y0317519D01*
G75*
G02*
X0271909Y0317794I0000000J0000276D01*
G01*
X0271909Y0319999D01*
G75*
G02*
X0272185Y0320275I0000276J0000000D01*
G01*
G37*
G36*
G01*
X0132561Y0271114D02*
X0130174Y0269736D01*
G75*
G02*
X0128829Y0270097I-000492J0000852D01*
G01*
X0125483Y0275893D01*
G75*
G02*
X0125843Y0277237I0000852J0000492D01*
G01*
X0128230Y0278615D01*
G75*
G02*
X0129574Y0278255I0000492J-000852D01*
G01*
X0132921Y0272459D01*
G75*
G02*
X0132561Y0271114I-000852J-000492D01*
G01*
G37*
G36*
G01*
X0139909Y0294450D02*
X0121838Y0284017D01*
G75*
G02*
X0120493Y0284377I-000492J0000852D01*
G01*
X0108879Y0304494D01*
G75*
G02*
X0109240Y0305838I0000852J0000492D01*
G01*
X0127310Y0316271D01*
G75*
G02*
X0128655Y0315911I0000492J-000852D01*
G01*
X0140269Y0295795D01*
G75*
G02*
X0139909Y0294450I-000852J-000492D01*
G01*
G37*
G36*
G01*
X0148108Y0280091D02*
X0145721Y0278713D01*
G75*
G02*
X0144377Y0279073I-000492J0000852D01*
G01*
X0141030Y0284869D01*
G75*
G02*
X0141391Y0286214I0000852J0000492D01*
G01*
X0143777Y0287592D01*
G75*
G02*
X0145122Y0287232I0000492J-000852D01*
G01*
X0148468Y0281435D01*
G75*
G02*
X0148108Y0280091I-000852J-000492D01*
G01*
G37*
G36*
G01*
X0192185Y0365747D02*
X0189114Y0365747D01*
G75*
G02*
X0188839Y0366023I0000000J0000276D01*
G01*
X0188839Y0368227D01*
G75*
G02*
X0189114Y0368503I0000276J0000000D01*
G01*
X0192185Y0368503D01*
G75*
G02*
X0192461Y0368227I0000000J-000276D01*
G01*
X0192461Y0366023D01*
G75*
G02*
X0192185Y0365747I-000276J0000000D01*
G01*
G37*
G36*
G01*
X0192185Y0372046D02*
X0189114Y0372046D01*
G75*
G02*
X0188839Y0372322I0000000J0000276D01*
G01*
X0188839Y0374527D01*
G75*
G02*
X0189114Y0374802I0000276J0000000D01*
G01*
X0192185Y0374802D01*
G75*
G02*
X0192461Y0374527I0000000J-000276D01*
G01*
X0192461Y0372322D01*
G75*
G02*
X0192185Y0372046I-000276J0000000D01*
G01*
G37*
G36*
G01*
X0625059Y0204330D02*
X0621988Y0204330D01*
G75*
G02*
X0621713Y0204605I0000000J0000276D01*
G01*
X0621713Y0206810D01*
G75*
G02*
X0621988Y0207086I0000276J0000000D01*
G01*
X0625059Y0207086D01*
G75*
G02*
X0625335Y0206810I0000000J-000276D01*
G01*
X0625335Y0204605D01*
G75*
G02*
X0625059Y0204330I-000276J0000000D01*
G01*
G37*
G36*
G01*
X0625059Y0210629D02*
X0621988Y0210629D01*
G75*
G02*
X0621713Y0210905I0000000J0000276D01*
G01*
X0621713Y0213109D01*
G75*
G02*
X0621988Y0213385I0000276J0000000D01*
G01*
X0625059Y0213385D01*
G75*
G02*
X0625335Y0213109I0000000J-000276D01*
G01*
X0625335Y0210905D01*
G75*
G02*
X0625059Y0210629I-000276J0000000D01*
G01*
G37*
G36*
G01*
X0062416Y0266442D02*
X0060029Y0265064D01*
G75*
G02*
X0058684Y0265424I-000492J0000852D01*
G01*
X0055338Y0271220D01*
G75*
G02*
X0055698Y0272565I0000852J0000492D01*
G01*
X0058085Y0273943D01*
G75*
G02*
X0059429Y0273582I0000492J-000852D01*
G01*
X0062776Y0267786D01*
G75*
G02*
X0062416Y0266442I-000852J-000492D01*
G01*
G37*
G36*
G01*
X0069764Y0289777D02*
X0051693Y0279344D01*
G75*
G02*
X0050349Y0279705I-000492J0000852D01*
G01*
X0038734Y0299821D01*
G75*
G02*
X0039095Y0301165I0000852J0000492D01*
G01*
X0057165Y0311599D01*
G75*
G02*
X0058510Y0311238I0000492J-000852D01*
G01*
X0070124Y0291122D01*
G75*
G02*
X0069764Y0289777I-000852J-000492D01*
G01*
G37*
G36*
G01*
X0077963Y0275418D02*
X0075576Y0274040D01*
G75*
G02*
X0074232Y0274400I-000492J0000852D01*
G01*
X0070886Y0280196D01*
G75*
G02*
X0071246Y0281541I0000852J0000492D01*
G01*
X0073632Y0282919D01*
G75*
G02*
X0074977Y0282559I0000492J-000852D01*
G01*
X0078323Y0276762D01*
G75*
G02*
X0077963Y0275418I-000852J-000492D01*
G01*
G37*
G36*
G01*
X0132431Y0368897D02*
X0132431Y0367716D01*
G75*
G02*
X0131841Y0367125I-000591J0000000D01*
G01*
X0127215Y0367125D01*
G75*
G02*
X0126624Y0367716I0000000J0000591D01*
G01*
X0126624Y0368897D01*
G75*
G02*
X0127215Y0369487I0000591J0000000D01*
G01*
X0131841Y0369487D01*
G75*
G02*
X0132431Y0368897I0000000J-000591D01*
G01*
G37*
G36*
G01*
X0125049Y0372637D02*
X0125049Y0371456D01*
G75*
G02*
X0124459Y0370865I-000591J0000000D01*
G01*
X0119833Y0370865D01*
G75*
G02*
X0119242Y0371456I0000000J0000591D01*
G01*
X0119242Y0372637D01*
G75*
G02*
X0119833Y0373227I0000591J0000000D01*
G01*
X0124459Y0373227D01*
G75*
G02*
X0125049Y0372637I0000000J-000591D01*
G01*
G37*
G36*
G01*
X0132431Y0376377D02*
X0132431Y0375196D01*
G75*
G02*
X0131841Y0374605I-000591J0000000D01*
G01*
X0127215Y0374605D01*
G75*
G02*
X0126624Y0375196I0000000J0000591D01*
G01*
X0126624Y0376377D01*
G75*
G02*
X0127215Y0376968I0000591J0000000D01*
G01*
X0131841Y0376968D01*
G75*
G02*
X0132431Y0376377I0000000J-000591D01*
G01*
G37*
D45*
X0543917Y0257282D03*
G36*
G01*
X0260689Y0283660D02*
X0257618Y0283660D01*
G75*
G02*
X0257343Y0283936I0000000J0000276D01*
G01*
X0257343Y0286141D01*
G75*
G02*
X0257618Y0286416I0000276J0000000D01*
G01*
X0260689Y0286416D01*
G75*
G02*
X0260965Y0286141I0000000J-000276D01*
G01*
X0260965Y0283936D01*
G75*
G02*
X0260689Y0283660I-000276J0000000D01*
G01*
G37*
G36*
G01*
X0260689Y0289960D02*
X0257618Y0289960D01*
G75*
G02*
X0257343Y0290235I0000000J0000276D01*
G01*
X0257343Y0292440D01*
G75*
G02*
X0257618Y0292716I0000276J0000000D01*
G01*
X0260689Y0292716D01*
G75*
G02*
X0260965Y0292440I0000000J-000276D01*
G01*
X0260965Y0290235D01*
G75*
G02*
X0260689Y0289960I-000276J0000000D01*
G01*
G37*
G36*
G01*
X0168110Y0367322D02*
X0168110Y0366141D01*
G75*
G02*
X0167520Y0365550I-000591J0000000D01*
G01*
X0162894Y0365550D01*
G75*
G02*
X0162303Y0366141I0000000J0000591D01*
G01*
X0162303Y0367322D01*
G75*
G02*
X0162894Y0367912I0000591J0000000D01*
G01*
X0167520Y0367912D01*
G75*
G02*
X0168110Y0367322I0000000J-000591D01*
G01*
G37*
G36*
G01*
X0160728Y0371062D02*
X0160728Y0369881D01*
G75*
G02*
X0160138Y0369290I-000591J0000000D01*
G01*
X0155512Y0369290D01*
G75*
G02*
X0154921Y0369881I0000000J0000591D01*
G01*
X0154921Y0371062D01*
G75*
G02*
X0155512Y0371653I0000591J0000000D01*
G01*
X0160138Y0371653D01*
G75*
G02*
X0160728Y0371062I0000000J-000591D01*
G01*
G37*
G36*
G01*
X0168110Y0374802D02*
X0168110Y0373621D01*
G75*
G02*
X0167520Y0373031I-000591J0000000D01*
G01*
X0162894Y0373031D01*
G75*
G02*
X0162303Y0373621I0000000J0000591D01*
G01*
X0162303Y0374802D01*
G75*
G02*
X0162894Y0375393I0000591J0000000D01*
G01*
X0167520Y0375393D01*
G75*
G02*
X0168110Y0374802I0000000J-000591D01*
G01*
G37*
D11*
X0255413Y0256298D03*
X0255413Y0265353D03*
X0255413Y0274408D03*
D12*
X0230610Y0265353D03*
G36*
G01*
X0205660Y0312594D02*
X0203001Y0311058D01*
G75*
G02*
X0202625Y0311159I-000138J0000239D01*
G01*
X0201522Y0313069D01*
G75*
G02*
X0201623Y0313445I0000239J0000138D01*
G01*
X0204282Y0314980D01*
G75*
G02*
X0204659Y0314880I0000138J-000239D01*
G01*
X0205761Y0312970D01*
G75*
G02*
X0205660Y0312594I-000239J-000138D01*
G01*
G37*
G36*
G01*
X0202511Y0318049D02*
X0199851Y0316514D01*
G75*
G02*
X0199475Y0316614I-000138J0000239D01*
G01*
X0198373Y0318524D01*
G75*
G02*
X0198473Y0318900I0000239J0000138D01*
G01*
X0201133Y0320436D01*
G75*
G02*
X0201509Y0320335I0000138J-000239D01*
G01*
X0202612Y0318426D01*
G75*
G02*
X0202511Y0318049I-000239J-000138D01*
G01*
G37*
G36*
G01*
X0186417Y0367125D02*
X0186417Y0365944D01*
G75*
G02*
X0185827Y0365353I-000591J0000000D01*
G01*
X0181201Y0365353D01*
G75*
G02*
X0180610Y0365944I0000000J0000591D01*
G01*
X0180610Y0367125D01*
G75*
G02*
X0181201Y0367716I0000591J0000000D01*
G01*
X0185827Y0367716D01*
G75*
G02*
X0186417Y0367125I0000000J-000591D01*
G01*
G37*
G36*
G01*
X0179035Y0370865D02*
X0179035Y0369684D01*
G75*
G02*
X0178445Y0369093I-000591J0000000D01*
G01*
X0173819Y0369093D01*
G75*
G02*
X0173228Y0369684I0000000J0000591D01*
G01*
X0173228Y0370865D01*
G75*
G02*
X0173819Y0371456I0000591J0000000D01*
G01*
X0178445Y0371456D01*
G75*
G02*
X0179035Y0370865I0000000J-000591D01*
G01*
G37*
G36*
G01*
X0186417Y0374605D02*
X0186417Y0373424D01*
G75*
G02*
X0185827Y0372834I-000591J0000000D01*
G01*
X0181201Y0372834D01*
G75*
G02*
X0180610Y0373424I0000000J0000591D01*
G01*
X0180610Y0374605D01*
G75*
G02*
X0181201Y0375196I0000591J0000000D01*
G01*
X0185827Y0375196D01*
G75*
G02*
X0186417Y0374605I0000000J-000591D01*
G01*
G37*
D10*
X0446161Y0269487D03*
G36*
G01*
X0451457Y0265944D02*
X0448740Y0265944D01*
G75*
G02*
X0447835Y0266849I0000000J0000906D01*
G01*
X0447835Y0272125D01*
G75*
G02*
X0448740Y0273031I0000906J0000000D01*
G01*
X0451457Y0273031D01*
G75*
G02*
X0452362Y0272125I0000000J-000906D01*
G01*
X0452362Y0266849D01*
G75*
G02*
X0451457Y0265944I-000906J0000000D01*
G01*
G37*
G36*
G01*
X0462874Y0265944D02*
X0460158Y0265944D01*
G75*
G02*
X0459252Y0266849I0000000J0000906D01*
G01*
X0459252Y0272125D01*
G75*
G02*
X0460158Y0273031I0000906J0000000D01*
G01*
X0462874Y0273031D01*
G75*
G02*
X0463780Y0272125I0000000J-000906D01*
G01*
X0463780Y0266849D01*
G75*
G02*
X0462874Y0265944I-000906J0000000D01*
G01*
G37*
X0465453Y0269487D03*
D61*
X0553888Y0271160D03*
X0553888Y0265255D03*
X0553888Y0259349D03*
X0553888Y0253444D03*
X0553888Y0247538D03*
X0553888Y0241633D03*
X0553888Y0235727D03*
X0553888Y0229822D03*
X0553888Y0223916D03*
X0553888Y0218011D03*
X0553888Y0212105D03*
X0553888Y0206200D03*
X0553888Y0200294D03*
X0603888Y0200294D03*
X0603888Y0206200D03*
X0603888Y0212105D03*
X0603888Y0218011D03*
X0603888Y0223916D03*
X0603888Y0229822D03*
X0603888Y0235727D03*
X0603888Y0241633D03*
X0603888Y0247538D03*
X0603888Y0253444D03*
X0603888Y0259349D03*
X0603888Y0265255D03*
X0603888Y0271160D03*
D13*
X0113130Y0127952D03*
D14*
X0130650Y0127952D03*
X0148130Y0127952D03*
X0165650Y0127952D03*
X0183130Y0127952D03*
X0200650Y0127952D03*
X0200650Y0110432D03*
X0183130Y0110432D03*
X0165650Y0110432D03*
X0148130Y0110432D03*
X0130650Y0110432D03*
X0113130Y0110432D03*
D15*
X0089370Y0119172D03*
X0224370Y0119172D03*
G36*
G01*
X0026786Y0266048D02*
X0024399Y0264670D01*
G75*
G02*
X0023055Y0265030I-000492J0000852D01*
G01*
X0019708Y0270826D01*
G75*
G02*
X0020068Y0272171I0000852J0000492D01*
G01*
X0022455Y0273549D01*
G75*
G02*
X0023800Y0273189I0000492J-000852D01*
G01*
X0027146Y0267392D01*
G75*
G02*
X0026786Y0266048I-000852J-000492D01*
G01*
G37*
G36*
G01*
X0034134Y0289384D02*
X0016063Y0278951D01*
G75*
G02*
X0014719Y0279311I-000492J0000852D01*
G01*
X0003104Y0299427D01*
G75*
G02*
X0003465Y0300772I0000852J0000492D01*
G01*
X0021535Y0311205D01*
G75*
G02*
X0022880Y0310845I0000492J-000852D01*
G01*
X0034494Y0290728D01*
G75*
G02*
X0034134Y0289384I-000852J-000492D01*
G01*
G37*
G36*
G01*
X0042333Y0275024D02*
X0039947Y0273646D01*
G75*
G02*
X0038602Y0274007I-000492J0000852D01*
G01*
X0035256Y0279803D01*
G75*
G02*
X0035616Y0281147I0000852J0000492D01*
G01*
X0038003Y0282525D01*
G75*
G02*
X0039347Y0282165I0000492J-000852D01*
G01*
X0042694Y0276369D01*
G75*
G02*
X0042333Y0275024I-000852J-000492D01*
G01*
G37*
D10*
X0493672Y0263709D03*
G36*
G01*
X0494910Y0257459D02*
X0492990Y0259380D01*
G75*
G02*
X0492990Y0260661I0000640J0000640D01*
G01*
X0496720Y0264391D01*
G75*
G02*
X0498001Y0264391I0000640J-000640D01*
G01*
X0499921Y0262470D01*
G75*
G02*
X0499921Y0261190I-000640J-000640D01*
G01*
X0496191Y0257459D01*
G75*
G02*
X0494910Y0257459I-000640J0000640D01*
G01*
G37*
G36*
G01*
X0502984Y0249386D02*
X0501063Y0251307D01*
G75*
G02*
X0501063Y0252588I0000640J0000640D01*
G01*
X0504793Y0256318D01*
G75*
G02*
X0506074Y0256318I0000640J-000640D01*
G01*
X0507995Y0254397D01*
G75*
G02*
X0507995Y0253117I-000640J-000640D01*
G01*
X0504264Y0249386D01*
G75*
G02*
X0502984Y0249386I-000640J0000640D01*
G01*
G37*
X0507313Y0250068D03*
G36*
G01*
X0448878Y0308464D02*
X0445807Y0308464D01*
G75*
G02*
X0445531Y0308739I0000000J0000276D01*
G01*
X0445531Y0310944D01*
G75*
G02*
X0445807Y0311219I0000276J0000000D01*
G01*
X0448878Y0311219D01*
G75*
G02*
X0449154Y0310944I0000000J-000276D01*
G01*
X0449154Y0308739D01*
G75*
G02*
X0448878Y0308464I-000276J0000000D01*
G01*
G37*
G36*
G01*
X0448878Y0314763D02*
X0445807Y0314763D01*
G75*
G02*
X0445531Y0315038I0000000J0000276D01*
G01*
X0445531Y0317243D01*
G75*
G02*
X0445807Y0317519I0000276J0000000D01*
G01*
X0448878Y0317519D01*
G75*
G02*
X0449154Y0317243I0000000J-000276D01*
G01*
X0449154Y0315038D01*
G75*
G02*
X0448878Y0314763I-000276J0000000D01*
G01*
G37*
G36*
G01*
X0210779Y0278539D02*
X0208119Y0277003D01*
G75*
G02*
X0207743Y0277104I-000138J0000239D01*
G01*
X0206640Y0279013D01*
G75*
G02*
X0206741Y0279390I0000239J0000138D01*
G01*
X0209401Y0280925D01*
G75*
G02*
X0209777Y0280824I0000138J-000239D01*
G01*
X0210879Y0278915D01*
G75*
G02*
X0210779Y0278539I-000239J-000138D01*
G01*
G37*
G36*
G01*
X0207629Y0283994D02*
X0204969Y0282459D01*
G75*
G02*
X0204593Y0282559I-000138J0000239D01*
G01*
X0203491Y0284469D01*
G75*
G02*
X0203592Y0284845I0000239J0000138D01*
G01*
X0206251Y0286381D01*
G75*
G02*
X0206627Y0286280I0000138J-000239D01*
G01*
X0207730Y0284370D01*
G75*
G02*
X0207629Y0283994I-000239J-000138D01*
G01*
G37*
G36*
G01*
X0532185Y0133700D02*
X0532185Y0136771D01*
G75*
G02*
X0532461Y0137046I0000276J0000000D01*
G01*
X0534665Y0137046D01*
G75*
G02*
X0534941Y0136771I0000000J-000276D01*
G01*
X0534941Y0133700D01*
G75*
G02*
X0534665Y0133424I-000276J0000000D01*
G01*
X0532461Y0133424D01*
G75*
G02*
X0532185Y0133700I0000000J0000276D01*
G01*
G37*
G36*
G01*
X0538484Y0133700D02*
X0538484Y0136771D01*
G75*
G02*
X0538760Y0137046I0000276J0000000D01*
G01*
X0540965Y0137046D01*
G75*
G02*
X0541240Y0136771I0000000J-000276D01*
G01*
X0541240Y0133700D01*
G75*
G02*
X0540965Y0133424I-000276J0000000D01*
G01*
X0538760Y0133424D01*
G75*
G02*
X0538484Y0133700I0000000J0000276D01*
G01*
G37*
X0449803Y0141437D02*
G01*
G75*
D339*
X0474170Y0096358D02*
D03*
X0456453Y0096358D02*
D03*
D340*
X0498622Y0099685D02*
D03*
X0498622Y0127047D02*
D03*
D341*
X0475394Y0110925D02*
D03*
X0475394Y0127067D02*
D03*
D342*
X0457283Y0109154D02*
D03*
X0457283Y0124902D02*
D03*
D343*
X0519061Y0132093D02*
D03*
X0515321Y0122841D02*
D03*
D343*
X0522801Y0122841D02*
D03*
D344*
X0528740Y0100006D02*
D03*
D344*
X0525000Y0100006D02*
D03*
X0521260Y0100006D02*
D03*
X0521260Y0091542D02*
D03*
X0528740Y0091542D02*
D03*
D345*
X0514739Y0087690D02*
D03*
X0514739Y0100682D02*
D03*
D346*
X0515027Y0105976D02*
D03*
X0515027Y0117394D02*
D03*
D347*
X0482480Y0086791D02*
D03*
X0482480Y0093012D02*
D03*
X0482480Y0097382D02*
D03*
X0482480Y0103602D02*
D03*
D348*
X0459591Y0137468D02*
D03*
X0463725Y0137468D02*
D03*
X0501465Y0086913D02*
D03*
X0505599Y0086913D02*
D03*
X0496752Y0086913D02*
D03*
X0492618Y0086913D02*
D03*
X0477103Y0086021D02*
D03*
X0472969Y0086021D02*
D03*
D349*
X0521310Y0105124D02*
D03*
X0525247Y0105124D02*
D03*
X0522212Y0118799D02*
D03*
X0522212Y0110138D02*
D03*
X0528609Y0118799D02*
D03*
X0528609Y0110138D02*
D03*
D350*
X0528740Y0127172D02*
D03*
X0528740Y0123628D02*
D03*
D351*
X0505402Y0091171D02*
D03*
X0501858Y0091171D02*
D03*
X0496358Y0091171D02*
D03*
X0492815Y0091171D02*
D03*
X0464802Y0086021D02*
D03*
X0468346Y0086021D02*
D03*
D121*
X0467913Y0075689D02*
D03*
X0463976Y0075689D02*
D03*
D122*
X0521456Y0138484D02*
D03*
X0454527Y0138484D02*
D03*
X0501968Y0138484D02*
D03*
X0501771Y0077461D02*
D03*
X0526968Y0077461D02*
D03*
X0477362Y0077461D02*
D03*
X0494291Y0077461D02*
D03*
X0452756Y0077461D02*
D03*
X0528740Y0138484D02*
D03*
X0625984Y0068602D02*
G01*
G75*
D270*
X0615760Y0083307D02*
D03*
X0623240Y0083307D02*
D03*
X0623240Y0074842D02*
D03*
X0619500Y0074842D02*
D03*
X0615760Y0098956D02*
D03*
X0623240Y0098956D02*
D03*
X0623240Y0090492D02*
D03*
X0619500Y0090492D02*
D03*
D270*
X0615760Y0074842D02*
D03*
X0615760Y0090492D02*
D03*
D121*
X0615748Y0104035D02*
D03*
X0619488Y0104035D02*
D03*
X0623228Y0104035D02*
D03*
X0619291Y0069783D02*
D03*
X0615748Y0069783D02*
D03*
X0338780Y0261909D02*
%LPD*%
G01*
G36*
G01*
X0284686Y0246082D02*
X0284686Y0247421D01*
G75*
G02*
X0285237Y0247972I0000551J0000000D01*
G01*
X0286339Y0247972D01*
G75*
G02*
X0286890Y0247421I0000000J-000551D01*
G01*
X0286890Y0246082D01*
G75*
G02*
X0286339Y0245531I-000551J0000000D01*
G01*
X0285237Y0245531D01*
G75*
G02*
X0284686Y0246082I0000000J0000551D01*
G01*
G37*
G36*
G01*
X0280906Y0246082D02*
X0280906Y0247421D01*
G75*
G02*
X0281457Y0247972I0000551J0000000D01*
G01*
X0282560Y0247972D01*
G75*
G02*
X0283111Y0247421I0000000J-000551D01*
G01*
X0283111Y0246082D01*
G75*
G02*
X0282560Y0245531I-000551J0000000D01*
G01*
X0281457Y0245531D01*
G75*
G02*
X0280906Y0246082I0000000J0000551D01*
G01*
G37*
G36*
G01*
X0311182Y0231318D02*
X0312520Y0231318D01*
G75*
G02*
X0313071Y0230767I0000000J-000551D01*
G01*
X0313071Y0229665D01*
G75*
G02*
X0312520Y0229114I-000551J0000000D01*
G01*
X0311182Y0229114D01*
G75*
G02*
X0310630Y0229665I0000000J0000551D01*
G01*
X0310630Y0230767D01*
G75*
G02*
X0311182Y0231318I0000551J0000000D01*
G01*
G37*
G36*
G01*
X0311182Y0235098D02*
X0312520Y0235098D01*
G75*
G02*
X0313071Y0234547I0000000J-000551D01*
G01*
X0313071Y0233444D01*
G75*
G02*
X0312520Y0232893I-000551J0000000D01*
G01*
X0311182Y0232893D01*
G75*
G02*
X0310630Y0233444I0000000J0000551D01*
G01*
X0310630Y0234547D01*
G75*
G02*
X0311182Y0235098I0000551J0000000D01*
G01*
G37*
G36*
G01*
X0298091Y0259980D02*
X0299548Y0259980D01*
G75*
G02*
X0300079Y0259448I0000000J-000531D01*
G01*
X0300079Y0258385D01*
G75*
G02*
X0299548Y0257854I-000531J0000000D01*
G01*
X0298091Y0257854D01*
G75*
G02*
X0297560Y0258385I0000000J0000531D01*
G01*
X0297560Y0259448D01*
G75*
G02*
X0298091Y0259980I0000531J0000000D01*
G01*
G37*
G36*
G01*
X0298091Y0255964D02*
X0299548Y0255964D01*
G75*
G02*
X0300079Y0255433I0000000J-000531D01*
G01*
X0300079Y0254370D01*
G75*
G02*
X0299548Y0253838I-000531J0000000D01*
G01*
X0298091Y0253838D01*
G75*
G02*
X0297560Y0254370I0000000J0000531D01*
G01*
X0297560Y0255433D01*
G75*
G02*
X0298091Y0255964I0000531J0000000D01*
G01*
G37*
G36*
G01*
X0309063Y0227637D02*
X0309063Y0226456D01*
G75*
G02*
X0308473Y0225866I-000591J0000000D01*
G01*
X0301977Y0225866D01*
G75*
G02*
X0301386Y0226456I0000000J0000591D01*
G01*
X0301386Y0227637D01*
G75*
G02*
X0301977Y0228228I0000591J0000000D01*
G01*
X0308473Y0228228D01*
G75*
G02*
X0309063Y0227637I0000000J-000591D01*
G01*
G37*
G36*
G01*
X0309063Y0232637D02*
X0309063Y0231456D01*
G75*
G02*
X0308473Y0230866I-000591J0000000D01*
G01*
X0301977Y0230866D01*
G75*
G02*
X0301386Y0231456I0000000J0000591D01*
G01*
X0301386Y0232637D01*
G75*
G02*
X0301977Y0233228I0000591J0000000D01*
G01*
X0308473Y0233228D01*
G75*
G02*
X0309063Y0232637I0000000J-000591D01*
G01*
G37*
G36*
G01*
X0309063Y0237637D02*
X0309063Y0236456D01*
G75*
G02*
X0308473Y0235866I-000591J0000000D01*
G01*
X0301977Y0235866D01*
G75*
G02*
X0301386Y0236456I0000000J0000591D01*
G01*
X0301386Y0237637D01*
G75*
G02*
X0301977Y0238228I0000591J0000000D01*
G01*
X0308473Y0238228D01*
G75*
G02*
X0309063Y0237637I0000000J-000591D01*
G01*
G37*
G36*
G01*
X0309063Y0242637D02*
X0309063Y0241456D01*
G75*
G02*
X0308473Y0240866I-000591J0000000D01*
G01*
X0301977Y0240866D01*
G75*
G02*
X0301386Y0241456I0000000J0000591D01*
G01*
X0301386Y0242637D01*
G75*
G02*
X0301977Y0243228I0000591J0000000D01*
G01*
X0308473Y0243228D01*
G75*
G02*
X0309063Y0242637I0000000J-000591D01*
G01*
G37*
G36*
G01*
X0289575Y0242637D02*
X0289575Y0241456D01*
G75*
G02*
X0288985Y0240866I-000591J0000000D01*
G01*
X0282489Y0240866D01*
G75*
G02*
X0281898Y0241456I0000000J0000591D01*
G01*
X0281898Y0242637D01*
G75*
G02*
X0282489Y0243228I0000591J0000000D01*
G01*
X0288985Y0243228D01*
G75*
G02*
X0289575Y0242637I0000000J-000591D01*
G01*
G37*
G36*
G01*
X0289575Y0237637D02*
X0289575Y0236456D01*
G75*
G02*
X0288985Y0235866I-000591J0000000D01*
G01*
X0282489Y0235866D01*
G75*
G02*
X0281898Y0236456I0000000J0000591D01*
G01*
X0281898Y0237637D01*
G75*
G02*
X0282489Y0238228I0000591J0000000D01*
G01*
X0288985Y0238228D01*
G75*
G02*
X0289575Y0237637I0000000J-000591D01*
G01*
G37*
G36*
G01*
X0289575Y0232637D02*
X0289575Y0231456D01*
G75*
G02*
X0288985Y0230866I-000591J0000000D01*
G01*
X0282489Y0230866D01*
G75*
G02*
X0281898Y0231456I0000000J0000591D01*
G01*
X0281898Y0232637D01*
G75*
G02*
X0282489Y0233228I0000591J0000000D01*
G01*
X0288985Y0233228D01*
G75*
G02*
X0289575Y0232637I0000000J-000591D01*
G01*
G37*
G36*
G01*
X0289575Y0227637D02*
X0289575Y0226456D01*
G75*
G02*
X0288985Y0225866I-000591J0000000D01*
G01*
X0282489Y0225866D01*
G75*
G02*
X0281898Y0226456I0000000J0000591D01*
G01*
X0281898Y0227637D01*
G75*
G02*
X0282489Y0228228I0000591J0000000D01*
G01*
X0288985Y0228228D01*
G75*
G02*
X0289575Y0227637I0000000J-000591D01*
G01*
G37*
D139*
X0323583Y0226909D03*
X0323583Y0229468D03*
X0323583Y0232027D03*
X0316103Y0232027D03*
X0316103Y0229468D03*
X0316103Y0226909D03*
D16*
X0280512Y0234744D03*
X0280512Y0239468D03*
X0280512Y0230019D03*
X0280512Y0225295D03*
X0337304Y0250728D03*
X0337304Y0254665D03*
G36*
G01*
X0307422Y0245997D02*
X0305965Y0245997D01*
G75*
G02*
X0305434Y0246529I0000000J0000531D01*
G01*
X0305434Y0247592D01*
G75*
G02*
X0305965Y0248123I0000531J0000000D01*
G01*
X0307422Y0248123D01*
G75*
G02*
X0307953Y0247592I0000000J-000531D01*
G01*
X0307953Y0246529D01*
G75*
G02*
X0307422Y0245997I-000531J0000000D01*
G01*
G37*
G36*
G01*
X0307422Y0250013D02*
X0305965Y0250013D01*
G75*
G02*
X0305434Y0250544I0000000J0000531D01*
G01*
X0305434Y0251607D01*
G75*
G02*
X0305965Y0252139I0000531J0000000D01*
G01*
X0307422Y0252139D01*
G75*
G02*
X0307953Y0251607I0000000J-000531D01*
G01*
X0307953Y0250544D01*
G75*
G02*
X0307422Y0250013I-000531J0000000D01*
G01*
G37*
G36*
G01*
X0302087Y0252060D02*
X0303426Y0252060D01*
G75*
G02*
X0303977Y0251509I0000000J-000551D01*
G01*
X0303977Y0250407D01*
G75*
G02*
X0303426Y0249855I-000551J0000000D01*
G01*
X0302087Y0249855D01*
G75*
G02*
X0301536Y0250407I0000000J0000551D01*
G01*
X0301536Y0251509D01*
G75*
G02*
X0302087Y0252060I0000551J0000000D01*
G01*
G37*
G36*
G01*
X0302087Y0248281D02*
X0303426Y0248281D01*
G75*
G02*
X0303977Y0247729I0000000J-000551D01*
G01*
X0303977Y0246627D01*
G75*
G02*
X0303426Y0246076I-000551J0000000D01*
G01*
X0302087Y0246076D01*
G75*
G02*
X0301536Y0246627I0000000J0000551D01*
G01*
X0301536Y0247729D01*
G75*
G02*
X0302087Y0248281I0000551J0000000D01*
G01*
G37*
G36*
G01*
X0305965Y0259980D02*
X0307422Y0259980D01*
G75*
G02*
X0307953Y0259448I0000000J-000531D01*
G01*
X0307953Y0258385D01*
G75*
G02*
X0307422Y0257854I-000531J0000000D01*
G01*
X0305965Y0257854D01*
G75*
G02*
X0305434Y0258385I0000000J0000531D01*
G01*
X0305434Y0259448D01*
G75*
G02*
X0305965Y0259980I0000531J0000000D01*
G01*
G37*
G36*
G01*
X0305965Y0255964D02*
X0307422Y0255964D01*
G75*
G02*
X0307953Y0255433I0000000J-000531D01*
G01*
X0307953Y0254370D01*
G75*
G02*
X0307422Y0253838I-000531J0000000D01*
G01*
X0305965Y0253838D01*
G75*
G02*
X0305434Y0254370I0000000J0000531D01*
G01*
X0305434Y0255433D01*
G75*
G02*
X0305965Y0255964I0000531J0000000D01*
G01*
G37*
G36*
G01*
X0294371Y0253917D02*
X0293032Y0253917D01*
G75*
G02*
X0292481Y0254468I0000000J0000551D01*
G01*
X0292481Y0255570D01*
G75*
G02*
X0293032Y0256122I0000551J0000000D01*
G01*
X0294371Y0256122D01*
G75*
G02*
X0294922Y0255570I0000000J-000551D01*
G01*
X0294922Y0254468D01*
G75*
G02*
X0294371Y0253917I-000551J0000000D01*
G01*
G37*
G36*
G01*
X0294371Y0257696D02*
X0293032Y0257696D01*
G75*
G02*
X0292481Y0258248I0000000J0000551D01*
G01*
X0292481Y0259350D01*
G75*
G02*
X0293032Y0259901I0000551J0000000D01*
G01*
X0294371Y0259901D01*
G75*
G02*
X0294922Y0259350I0000000J-000551D01*
G01*
X0294922Y0258248D01*
G75*
G02*
X0294371Y0257696I-000551J0000000D01*
G01*
G37*
G36*
G01*
X0317500Y0250059D02*
X0316162Y0250059D01*
G75*
G02*
X0315611Y0250610I0000000J0000551D01*
G01*
X0315611Y0251712D01*
G75*
G02*
X0316162Y0252263I0000551J0000000D01*
G01*
X0317500Y0252263D01*
G75*
G02*
X0318052Y0251712I0000000J-000551D01*
G01*
X0318052Y0250610D01*
G75*
G02*
X0317500Y0250059I-000551J0000000D01*
G01*
G37*
G36*
G01*
X0317500Y0253838D02*
X0316162Y0253838D01*
G75*
G02*
X0315611Y0254389I0000000J0000551D01*
G01*
X0315611Y0255492D01*
G75*
G02*
X0316162Y0256043I0000551J0000000D01*
G01*
X0317500Y0256043D01*
G75*
G02*
X0318052Y0255492I0000000J-000551D01*
G01*
X0318052Y0254389D01*
G75*
G02*
X0317500Y0253838I-000551J0000000D01*
G01*
G37*
G36*
G01*
X0311910Y0246811D02*
X0311910Y0248267D01*
G75*
G02*
X0312441Y0248799I0000531J0000000D01*
G01*
X0313504Y0248799D01*
G75*
G02*
X0314036Y0248267I0000000J-000531D01*
G01*
X0314036Y0246811D01*
G75*
G02*
X0313504Y0246279I-000531J0000000D01*
G01*
X0312441Y0246279D01*
G75*
G02*
X0311910Y0246811I0000000J0000531D01*
G01*
G37*
G36*
G01*
X0315926Y0246811D02*
X0315926Y0248267D01*
G75*
G02*
X0316457Y0248799I0000531J0000000D01*
G01*
X0317520Y0248799D01*
G75*
G02*
X0318052Y0248267I0000000J-000531D01*
G01*
X0318052Y0246811D01*
G75*
G02*
X0317520Y0246279I-000531J0000000D01*
G01*
X0316457Y0246279D01*
G75*
G02*
X0315926Y0246811I0000000J0000531D01*
G01*
G37*
G36*
G01*
X0335335Y0239099D02*
X0335335Y0237081D01*
G75*
G02*
X0334474Y0236220I-000861J0000000D01*
G01*
X0332751Y0236220D01*
G75*
G02*
X0331890Y0237081I0000000J0000861D01*
G01*
X0331890Y0239099D01*
G75*
G02*
X0332751Y0239960I0000861J0000000D01*
G01*
X0334474Y0239960D01*
G75*
G02*
X0335335Y0239099I0000000J-000861D01*
G01*
G37*
G36*
G01*
X0329134Y0239099D02*
X0329134Y0237081D01*
G75*
G02*
X0328273Y0236220I-000861J0000000D01*
G01*
X0326551Y0236220D01*
G75*
G02*
X0325689Y0237081I0000000J0000861D01*
G01*
X0325689Y0239099D01*
G75*
G02*
X0326551Y0239960I0000861J0000000D01*
G01*
X0328273Y0239960D01*
G75*
G02*
X0329134Y0239099I0000000J-000861D01*
G01*
G37*
G36*
G01*
X0328819Y0232244D02*
X0328819Y0233700D01*
G75*
G02*
X0329351Y0234232I0000531J0000000D01*
G01*
X0330414Y0234232D01*
G75*
G02*
X0330945Y0233700I0000000J-000531D01*
G01*
X0330945Y0232244D01*
G75*
G02*
X0330414Y0231712I-000531J0000000D01*
G01*
X0329351Y0231712D01*
G75*
G02*
X0328819Y0232244I0000000J0000531D01*
G01*
G37*
G36*
G01*
X0332835Y0232244D02*
X0332835Y0233700D01*
G75*
G02*
X0333367Y0234232I0000531J0000000D01*
G01*
X0334430Y0234232D01*
G75*
G02*
X0334961Y0233700I0000000J-000531D01*
G01*
X0334961Y0232244D01*
G75*
G02*
X0334430Y0231712I-000531J0000000D01*
G01*
X0333367Y0231712D01*
G75*
G02*
X0332835Y0232244I0000000J0000531D01*
G01*
G37*
G36*
G01*
X0318052Y0244330D02*
X0318052Y0242874D01*
G75*
G02*
X0317520Y0242342I-000531J0000000D01*
G01*
X0316457Y0242342D01*
G75*
G02*
X0315926Y0242874I0000000J0000531D01*
G01*
X0315926Y0244330D01*
G75*
G02*
X0316457Y0244862I0000531J0000000D01*
G01*
X0317520Y0244862D01*
G75*
G02*
X0318052Y0244330I0000000J-000531D01*
G01*
G37*
G36*
G01*
X0314036Y0244330D02*
X0314036Y0242874D01*
G75*
G02*
X0313504Y0242342I-000531J0000000D01*
G01*
X0312441Y0242342D01*
G75*
G02*
X0311910Y0242874I0000000J0000531D01*
G01*
X0311910Y0244330D01*
G75*
G02*
X0312441Y0244862I0000531J0000000D01*
G01*
X0313504Y0244862D01*
G75*
G02*
X0314036Y0244330I0000000J-000531D01*
G01*
G37*
G36*
G01*
X0312737Y0250121D02*
X0311280Y0250121D01*
G75*
G02*
X0310749Y0250652I0000000J0000531D01*
G01*
X0310749Y0251715D01*
G75*
G02*
X0311280Y0252247I0000531J0000000D01*
G01*
X0312737Y0252247D01*
G75*
G02*
X0313268Y0251715I0000000J-000531D01*
G01*
X0313268Y0250652D01*
G75*
G02*
X0312737Y0250121I-000531J0000000D01*
G01*
G37*
G36*
G01*
X0312737Y0254137D02*
X0311280Y0254137D01*
G75*
G02*
X0310749Y0254668I0000000J0000531D01*
G01*
X0310749Y0255731D01*
G75*
G02*
X0311280Y0256262I0000531J0000000D01*
G01*
X0312737Y0256262D01*
G75*
G02*
X0313268Y0255731I0000000J-000531D01*
G01*
X0313268Y0254668D01*
G75*
G02*
X0312737Y0254137I-000531J0000000D01*
G01*
G37*
G36*
G01*
X0330079Y0243523D02*
X0330079Y0244862D01*
G75*
G02*
X0330630Y0245413I0000551J0000000D01*
G01*
X0331733Y0245413D01*
G75*
G02*
X0332284Y0244862I0000000J-000551D01*
G01*
X0332284Y0243523D01*
G75*
G02*
X0331733Y0242972I-000551J0000000D01*
G01*
X0330630Y0242972D01*
G75*
G02*
X0330079Y0243523I0000000J0000551D01*
G01*
G37*
G36*
G01*
X0333859Y0243523D02*
X0333859Y0244862D01*
G75*
G02*
X0334410Y0245413I0000551J0000000D01*
G01*
X0335512Y0245413D01*
G75*
G02*
X0336063Y0244862I0000000J-000551D01*
G01*
X0336063Y0243523D01*
G75*
G02*
X0335512Y0242972I-000551J0000000D01*
G01*
X0334410Y0242972D01*
G75*
G02*
X0333859Y0243523I0000000J0000551D01*
G01*
G37*
G36*
G01*
X0293032Y0252060D02*
X0294371Y0252060D01*
G75*
G02*
X0294922Y0251509I0000000J-000551D01*
G01*
X0294922Y0250407D01*
G75*
G02*
X0294371Y0249855I-000551J0000000D01*
G01*
X0293032Y0249855D01*
G75*
G02*
X0292481Y0250407I0000000J0000551D01*
G01*
X0292481Y0251509D01*
G75*
G02*
X0293032Y0252060I0000551J0000000D01*
G01*
G37*
G36*
G01*
X0293032Y0248281D02*
X0294371Y0248281D01*
G75*
G02*
X0294922Y0247729I0000000J-000551D01*
G01*
X0294922Y0246627D01*
G75*
G02*
X0294371Y0246076I-000551J0000000D01*
G01*
X0293032Y0246076D01*
G75*
G02*
X0292481Y0246627I0000000J0000551D01*
G01*
X0292481Y0247729D01*
G75*
G02*
X0293032Y0248281I0000551J0000000D01*
G01*
G37*
G36*
G01*
X0318052Y0259586D02*
X0318052Y0258129D01*
G75*
G02*
X0317520Y0257598I-000531J0000000D01*
G01*
X0316457Y0257598D01*
G75*
G02*
X0315926Y0258129I0000000J0000531D01*
G01*
X0315926Y0259586D01*
G75*
G02*
X0316457Y0260118I0000531J0000000D01*
G01*
X0317520Y0260118D01*
G75*
G02*
X0318052Y0259586I0000000J-000531D01*
G01*
G37*
G36*
G01*
X0314036Y0259586D02*
X0314036Y0258129D01*
G75*
G02*
X0313504Y0257598I-000531J0000000D01*
G01*
X0312441Y0257598D01*
G75*
G02*
X0311910Y0258129I0000000J0000531D01*
G01*
X0311910Y0259586D01*
G75*
G02*
X0312441Y0260118I0000531J0000000D01*
G01*
X0313504Y0260118D01*
G75*
G02*
X0314036Y0259586I0000000J-000531D01*
G01*
G37*
D140*
X0288793Y0258366D03*
X0286234Y0258366D03*
X0283675Y0258366D03*
X0283675Y0250885D03*
X0286234Y0250885D03*
X0288793Y0250885D03*
G36*
G01*
X0334742Y0249580D02*
X0334742Y0248399D01*
G75*
G02*
X0334151Y0247808I-000591J0000000D01*
G01*
X0330116Y0247808D01*
G75*
G02*
X0329525Y0248399I0000000J0000591D01*
G01*
X0329525Y0249580D01*
G75*
G02*
X0330116Y0250170I0000591J0000000D01*
G01*
X0334151Y0250170D01*
G75*
G02*
X0334742Y0249580I0000000J-000591D01*
G01*
G37*
G36*
G01*
X0334742Y0253320D02*
X0334742Y0252139D01*
G75*
G02*
X0334151Y0251548I-000591J0000000D01*
G01*
X0330116Y0251548D01*
G75*
G02*
X0329525Y0252139I0000000J0000591D01*
G01*
X0329525Y0253320D01*
G75*
G02*
X0330116Y0253911I0000591J0000000D01*
G01*
X0334151Y0253911D01*
G75*
G02*
X0334742Y0253320I0000000J-000591D01*
G01*
G37*
G36*
G01*
X0334742Y0257060D02*
X0334742Y0255879D01*
G75*
G02*
X0334151Y0255289I-000591J0000000D01*
G01*
X0330116Y0255289D01*
G75*
G02*
X0329525Y0255879I0000000J0000591D01*
G01*
X0329525Y0257060D01*
G75*
G02*
X0330116Y0257651I0000591J0000000D01*
G01*
X0334151Y0257651D01*
G75*
G02*
X0334742Y0257060I0000000J-000591D01*
G01*
G37*
G36*
G01*
X0325785Y0257060D02*
X0325785Y0255879D01*
G75*
G02*
X0325195Y0255289I-000591J0000000D01*
G01*
X0321159Y0255289D01*
G75*
G02*
X0320569Y0255879I0000000J0000591D01*
G01*
X0320569Y0257060D01*
G75*
G02*
X0321159Y0257651I0000591J0000000D01*
G01*
X0325195Y0257651D01*
G75*
G02*
X0325785Y0257060I0000000J-000591D01*
G01*
G37*
G36*
G01*
X0325785Y0253320D02*
X0325785Y0252139D01*
G75*
G02*
X0325195Y0251548I-000591J0000000D01*
G01*
X0321159Y0251548D01*
G75*
G02*
X0320569Y0252139I0000000J0000591D01*
G01*
X0320569Y0253320D01*
G75*
G02*
X0321159Y0253911I0000591J0000000D01*
G01*
X0325195Y0253911D01*
G75*
G02*
X0325785Y0253320I0000000J-000591D01*
G01*
G37*
G36*
G01*
X0325785Y0249580D02*
X0325785Y0248399D01*
G75*
G02*
X0325195Y0247808I-000591J0000000D01*
G01*
X0321159Y0247808D01*
G75*
G02*
X0320569Y0248399I0000000J0000591D01*
G01*
X0320569Y0249580D01*
G75*
G02*
X0321159Y0250170I0000591J0000000D01*
G01*
X0325195Y0250170D01*
G75*
G02*
X0325785Y0249580I0000000J-000591D01*
G01*
G37*
G36*
G01*
X0323859Y0237696D02*
X0323859Y0236358D01*
G75*
G02*
X0323308Y0235807I-000551J0000000D01*
G01*
X0322205Y0235807D01*
G75*
G02*
X0321654Y0236358I0000000J0000551D01*
G01*
X0321654Y0237696D01*
G75*
G02*
X0322205Y0238248I0000551J0000000D01*
G01*
X0323308Y0238248D01*
G75*
G02*
X0323859Y0237696I0000000J-000551D01*
G01*
G37*
G36*
G01*
X0320079Y0237696D02*
X0320079Y0236358D01*
G75*
G02*
X0319528Y0235807I-000551J0000000D01*
G01*
X0318426Y0235807D01*
G75*
G02*
X0317874Y0236358I0000000J0000551D01*
G01*
X0317874Y0237696D01*
G75*
G02*
X0318426Y0238248I0000551J0000000D01*
G01*
X0319528Y0238248D01*
G75*
G02*
X0320079Y0237696I0000000J-000551D01*
G01*
G37*
G36*
G01*
X0302087Y0259901D02*
X0303426Y0259901D01*
G75*
G02*
X0303977Y0259350I0000000J-000551D01*
G01*
X0303977Y0258248D01*
G75*
G02*
X0303426Y0257696I-000551J0000000D01*
G01*
X0302087Y0257696D01*
G75*
G02*
X0301536Y0258248I0000000J0000551D01*
G01*
X0301536Y0259350D01*
G75*
G02*
X0302087Y0259901I0000551J0000000D01*
G01*
G37*
G36*
G01*
X0302087Y0256122D02*
X0303426Y0256122D01*
G75*
G02*
X0303977Y0255570I0000000J-000551D01*
G01*
X0303977Y0254468D01*
G75*
G02*
X0303426Y0253917I-000551J0000000D01*
G01*
X0302087Y0253917D01*
G75*
G02*
X0301536Y0254468I0000000J0000551D01*
G01*
X0301536Y0255570D01*
G75*
G02*
X0302087Y0256122I0000551J0000000D01*
G01*
G37*
G36*
G01*
X0298091Y0252139D02*
X0299548Y0252139D01*
G75*
G02*
X0300079Y0251607I0000000J-000531D01*
G01*
X0300079Y0250544D01*
G75*
G02*
X0299548Y0250013I-000531J0000000D01*
G01*
X0298091Y0250013D01*
G75*
G02*
X0297560Y0250544I0000000J0000531D01*
G01*
X0297560Y0251607D01*
G75*
G02*
X0298091Y0252139I0000531J0000000D01*
G01*
G37*
G36*
G01*
X0298091Y0248123D02*
X0299548Y0248123D01*
G75*
G02*
X0300079Y0247592I0000000J-000531D01*
G01*
X0300079Y0246529D01*
G75*
G02*
X0299548Y0245997I-000531J0000000D01*
G01*
X0298091Y0245997D01*
G75*
G02*
X0297560Y0246529I0000000J0000531D01*
G01*
X0297560Y0247592D01*
G75*
G02*
X0298091Y0248123I0000531J0000000D01*
G01*
G37*
X0547638Y0218799D02*
%LPD*%
G01*
D16*
X0489370Y0191634D03*
X0489370Y0196358D03*
X0489370Y0186909D03*
X0489370Y0182185D03*
X0546162Y0207618D03*
X0546162Y0211555D03*
D142*
X0513780Y0205807D03*
X0513780Y0207775D03*
X0513780Y0209744D03*
X0513780Y0211712D03*
X0513780Y0213681D03*
X0496457Y0213681D03*
X0496457Y0211712D03*
X0496457Y0209744D03*
X0496457Y0207775D03*
X0496457Y0205807D03*
G36*
G01*
X0506260Y0192618D02*
X0503189Y0192618D01*
G75*
G02*
X0502914Y0192893I0000000J0000276D01*
G01*
X0502914Y0195098D01*
G75*
G02*
X0503189Y0195374I0000276J0000000D01*
G01*
X0506260Y0195374D01*
G75*
G02*
X0506536Y0195098I0000000J-000276D01*
G01*
X0506536Y0192893D01*
G75*
G02*
X0506260Y0192618I-000276J0000000D01*
G01*
G37*
G36*
G01*
X0506260Y0198917D02*
X0503189Y0198917D01*
G75*
G02*
X0502914Y0199193I0000000J0000276D01*
G01*
X0502914Y0201397D01*
G75*
G02*
X0503189Y0201673I0000276J0000000D01*
G01*
X0506260Y0201673D01*
G75*
G02*
X0506536Y0201397I0000000J-000276D01*
G01*
X0506536Y0199193D01*
G75*
G02*
X0506260Y0198917I-000276J0000000D01*
G01*
G37*
G36*
G01*
X0491929Y0185964D02*
X0491929Y0189035D01*
G75*
G02*
X0492205Y0189311I0000276J0000000D01*
G01*
X0494410Y0189311D01*
G75*
G02*
X0494685Y0189035I0000000J-000276D01*
G01*
X0494685Y0185964D01*
G75*
G02*
X0494410Y0185689I-000276J0000000D01*
G01*
X0492205Y0185689D01*
G75*
G02*
X0491929Y0185964I0000000J0000276D01*
G01*
G37*
G36*
G01*
X0498229Y0185964D02*
X0498229Y0189035D01*
G75*
G02*
X0498504Y0189311I0000276J0000000D01*
G01*
X0500709Y0189311D01*
G75*
G02*
X0500984Y0189035I0000000J-000276D01*
G01*
X0500984Y0185964D01*
G75*
G02*
X0500709Y0185689I-000276J0000000D01*
G01*
X0498504Y0185689D01*
G75*
G02*
X0498229Y0185964I0000000J0000276D01*
G01*
G37*
G36*
G01*
X0512166Y0192618D02*
X0509095Y0192618D01*
G75*
G02*
X0508819Y0192893I0000000J0000276D01*
G01*
X0508819Y0195098D01*
G75*
G02*
X0509095Y0195374I0000276J0000000D01*
G01*
X0512166Y0195374D01*
G75*
G02*
X0512441Y0195098I0000000J-000276D01*
G01*
X0512441Y0192893D01*
G75*
G02*
X0512166Y0192618I-000276J0000000D01*
G01*
G37*
G36*
G01*
X0512166Y0198917D02*
X0509095Y0198917D01*
G75*
G02*
X0508819Y0199193I0000000J0000276D01*
G01*
X0508819Y0201397D01*
G75*
G02*
X0509095Y0201673I0000276J0000000D01*
G01*
X0512166Y0201673D01*
G75*
G02*
X0512441Y0201397I0000000J-000276D01*
G01*
X0512441Y0199193D01*
G75*
G02*
X0512166Y0198917I-000276J0000000D01*
G01*
G37*
G36*
G01*
X0522815Y0188878D02*
X0520099Y0188878D01*
G75*
G02*
X0519193Y0189783I0000000J0000906D01*
G01*
X0519193Y0195059D01*
G75*
G02*
X0520099Y0195964I0000906J0000000D01*
G01*
X0522815Y0195964D01*
G75*
G02*
X0523721Y0195059I0000000J-000906D01*
G01*
X0523721Y0189783D01*
G75*
G02*
X0522815Y0188878I-000906J0000000D01*
G01*
G37*
G36*
G01*
X0534233Y0188878D02*
X0531516Y0188878D01*
G75*
G02*
X0530610Y0189783I0000000J0000906D01*
G01*
X0530610Y0195059D01*
G75*
G02*
X0531516Y0195964I0000906J0000000D01*
G01*
X0534233Y0195964D01*
G75*
G02*
X0535138Y0195059I0000000J-000906D01*
G01*
X0535138Y0189783D01*
G75*
G02*
X0534233Y0188878I-000906J0000000D01*
G01*
G37*
G36*
G01*
X0522815Y0198720D02*
X0520099Y0198720D01*
G75*
G02*
X0519193Y0199626I0000000J0000906D01*
G01*
X0519193Y0204901D01*
G75*
G02*
X0520099Y0205807I0000906J0000000D01*
G01*
X0522815Y0205807D01*
G75*
G02*
X0523721Y0204901I0000000J-000906D01*
G01*
X0523721Y0199626D01*
G75*
G02*
X0522815Y0198720I-000906J0000000D01*
G01*
G37*
G36*
G01*
X0534233Y0198720D02*
X0531516Y0198720D01*
G75*
G02*
X0530610Y0199626I0000000J0000906D01*
G01*
X0530610Y0204901D01*
G75*
G02*
X0531516Y0205807I0000906J0000000D01*
G01*
X0534233Y0205807D01*
G75*
G02*
X0535138Y0204901I0000000J-000906D01*
G01*
X0535138Y0199626D01*
G75*
G02*
X0534233Y0198720I-000906J0000000D01*
G01*
G37*
G36*
G01*
X0544882Y0192401D02*
X0544882Y0189685D01*
G75*
G02*
X0543977Y0188779I-000906J0000000D01*
G01*
X0538701Y0188779D01*
G75*
G02*
X0537795Y0189685I0000000J0000906D01*
G01*
X0537795Y0192401D01*
G75*
G02*
X0538701Y0193307I0000906J0000000D01*
G01*
X0543977Y0193307D01*
G75*
G02*
X0544882Y0192401I0000000J-000906D01*
G01*
G37*
G36*
G01*
X0544882Y0203819D02*
X0544882Y0201102D01*
G75*
G02*
X0543977Y0200197I-000906J0000000D01*
G01*
X0538701Y0200197D01*
G75*
G02*
X0537795Y0201102I0000000J0000906D01*
G01*
X0537795Y0203819D01*
G75*
G02*
X0538701Y0204724I0000906J0000000D01*
G01*
X0543977Y0204724D01*
G75*
G02*
X0544882Y0203819I0000000J-000906D01*
G01*
G37*
G36*
G01*
X0529508Y0208169D02*
X0526792Y0208169D01*
G75*
G02*
X0525886Y0209075I0000000J0000906D01*
G01*
X0525886Y0214350D01*
G75*
G02*
X0526792Y0215256I0000906J0000000D01*
G01*
X0529508Y0215256D01*
G75*
G02*
X0530414Y0214350I0000000J-000906D01*
G01*
X0530414Y0209075D01*
G75*
G02*
X0529508Y0208169I-000906J0000000D01*
G01*
G37*
G36*
G01*
X0540925Y0208169D02*
X0538209Y0208169D01*
G75*
G02*
X0537303Y0209075I0000000J0000906D01*
G01*
X0537303Y0214350D01*
G75*
G02*
X0538209Y0215256I0000906J0000000D01*
G01*
X0540925Y0215256D01*
G75*
G02*
X0541831Y0214350I0000000J-000906D01*
G01*
X0541831Y0209075D01*
G75*
G02*
X0540925Y0208169I-000906J0000000D01*
G01*
G37*
G36*
G01*
X0503839Y0186294D02*
X0503839Y0188312D01*
G75*
G02*
X0504700Y0189173I0000861J0000000D01*
G01*
X0506422Y0189173D01*
G75*
G02*
X0507284Y0188312I0000000J-000861D01*
G01*
X0507284Y0186294D01*
G75*
G02*
X0506422Y0185433I-000861J0000000D01*
G01*
X0504700Y0185433D01*
G75*
G02*
X0503839Y0186294I0000000J0000861D01*
G01*
G37*
G36*
G01*
X0510040Y0186294D02*
X0510040Y0188312D01*
G75*
G02*
X0510901Y0189173I0000861J0000000D01*
G01*
X0512623Y0189173D01*
G75*
G02*
X0513484Y0188312I0000000J-000861D01*
G01*
X0513484Y0186294D01*
G75*
G02*
X0512623Y0185433I-000861J0000000D01*
G01*
X0510901Y0185433D01*
G75*
G02*
X0510040Y0186294I0000000J0000861D01*
G01*
G37*
G36*
G01*
X0497894Y0193256D02*
X0497894Y0195933D01*
G75*
G02*
X0498229Y0196268I0000335J0000000D01*
G01*
X0500906Y0196268D01*
G75*
G02*
X0501240Y0195933I0000000J-000335D01*
G01*
X0501240Y0193256D01*
G75*
G02*
X0500906Y0192921I-000335J0000000D01*
G01*
X0498229Y0192921D01*
G75*
G02*
X0497894Y0193256I0000000J0000335D01*
G01*
G37*
G36*
G01*
X0491673Y0193256D02*
X0491673Y0195933D01*
G75*
G02*
X0492008Y0196268I0000335J0000000D01*
G01*
X0494685Y0196268D01*
G75*
G02*
X0495020Y0195933I0000000J-000335D01*
G01*
X0495020Y0193256D01*
G75*
G02*
X0494685Y0192921I-000335J0000000D01*
G01*
X0492008Y0192921D01*
G75*
G02*
X0491673Y0193256I0000000J0000335D01*
G01*
G37*
G36*
G01*
X0491673Y0198563D02*
X0491673Y0201240D01*
G75*
G02*
X0492008Y0201575I0000335J0000000D01*
G01*
X0494685Y0201575D01*
G75*
G02*
X0495020Y0201240I0000000J-000335D01*
G01*
X0495020Y0198563D01*
G75*
G02*
X0494685Y0198228I-000335J0000000D01*
G01*
X0492008Y0198228D01*
G75*
G02*
X0491673Y0198563I0000000J0000335D01*
G01*
G37*
G36*
G01*
X0497894Y0198563D02*
X0497894Y0201240D01*
G75*
G02*
X0498229Y0201575I0000335J0000000D01*
G01*
X0500906Y0201575D01*
G75*
G02*
X0501240Y0201240I0000000J-000335D01*
G01*
X0501240Y0198563D01*
G75*
G02*
X0500906Y0198228I-000335J0000000D01*
G01*
X0498229Y0198228D01*
G75*
G02*
X0497894Y0198563I0000000J0000335D01*
G01*
G37*
G36*
G01*
X0517087Y0192362D02*
X0514410Y0192362D01*
G75*
G02*
X0514075Y0192697I0000000J0000335D01*
G01*
X0514075Y0195374D01*
G75*
G02*
X0514410Y0195708I0000335J0000000D01*
G01*
X0517087Y0195708D01*
G75*
G02*
X0517421Y0195374I0000000J-000335D01*
G01*
X0517421Y0192697D01*
G75*
G02*
X0517087Y0192362I-000335J0000000D01*
G01*
G37*
G36*
G01*
X0517087Y0198582D02*
X0514410Y0198582D01*
G75*
G02*
X0514075Y0198917I0000000J0000335D01*
G01*
X0514075Y0201594D01*
G75*
G02*
X0514410Y0201929I0000335J0000000D01*
G01*
X0517087Y0201929D01*
G75*
G02*
X0517421Y0201594I0000000J-000335D01*
G01*
X0517421Y0198917D01*
G75*
G02*
X0517087Y0198582I-000335J0000000D01*
G01*
G37*
X0080413Y0161220D02*
%LPD*%
G01*
G36*
G01*
X0116122Y0093612D02*
X0116122Y0094970D01*
G75*
G02*
X0116702Y0095551I0000581J0000000D01*
G01*
X0117864Y0095551D01*
G75*
G02*
X0118444Y0094970I0000000J-000581D01*
G01*
X0118444Y0093612D01*
G75*
G02*
X0117864Y0093031I-000581J0000000D01*
G01*
X0116702Y0093031D01*
G75*
G02*
X0116122Y0093612I0000000J0000581D01*
G01*
G37*
G36*
G01*
X0119941Y0093612D02*
X0119941Y0094970D01*
G75*
G02*
X0120521Y0095551I0000581J0000000D01*
G01*
X0121683Y0095551D01*
G75*
G02*
X0122263Y0094970I0000000J-000581D01*
G01*
X0122263Y0093612D01*
G75*
G02*
X0121683Y0093031I-000581J0000000D01*
G01*
X0120521Y0093031D01*
G75*
G02*
X0119941Y0093612I0000000J0000581D01*
G01*
G37*
G36*
G01*
X0100698Y0152185D02*
X0102057Y0152185D01*
G75*
G02*
X0102637Y0151604I0000000J-000581D01*
G01*
X0102637Y0150442D01*
G75*
G02*
X0102057Y0149862I-000581J0000000D01*
G01*
X0100698Y0149862D01*
G75*
G02*
X0100118Y0150442I0000000J0000581D01*
G01*
X0100118Y0151604D01*
G75*
G02*
X0100698Y0152185I0000581J0000000D01*
G01*
G37*
G36*
G01*
X0100698Y0148366D02*
X0102057Y0148366D01*
G75*
G02*
X0102637Y0147785I0000000J-000581D01*
G01*
X0102637Y0146624D01*
G75*
G02*
X0102057Y0146043I-000581J0000000D01*
G01*
X0100698Y0146043D01*
G75*
G02*
X0100118Y0146624I0000000J0000581D01*
G01*
X0100118Y0147785D01*
G75*
G02*
X0100698Y0148366I0000581J0000000D01*
G01*
G37*
G36*
G01*
X0115895Y0141658D02*
X0115895Y0139640D01*
G75*
G02*
X0115034Y0138779I-000861J0000000D01*
G01*
X0113312Y0138779D01*
G75*
G02*
X0112450Y0139640I0000000J0000861D01*
G01*
X0112450Y0141658D01*
G75*
G02*
X0113312Y0142519I0000861J0000000D01*
G01*
X0115034Y0142519D01*
G75*
G02*
X0115895Y0141658I0000000J-000861D01*
G01*
G37*
G36*
G01*
X0109694Y0141658D02*
X0109694Y0139640D01*
G75*
G02*
X0108833Y0138779I-000861J0000000D01*
G01*
X0107111Y0138779D01*
G75*
G02*
X0106250Y0139640I0000000J0000861D01*
G01*
X0106250Y0141658D01*
G75*
G02*
X0107111Y0142519I0000861J0000000D01*
G01*
X0108833Y0142519D01*
G75*
G02*
X0109694Y0141658I0000000J-000861D01*
G01*
G37*
G36*
G01*
X0090866Y0095167D02*
X0090866Y0093809D01*
G75*
G02*
X0090285Y0093228I-000581J0000000D01*
G01*
X0089124Y0093228D01*
G75*
G02*
X0088543Y0093809I0000000J0000581D01*
G01*
X0088543Y0095167D01*
G75*
G02*
X0089124Y0095748I0000581J0000000D01*
G01*
X0090285Y0095748D01*
G75*
G02*
X0090866Y0095167I0000000J-000581D01*
G01*
G37*
G36*
G01*
X0087047Y0095167D02*
X0087047Y0093809D01*
G75*
G02*
X0086466Y0093228I-000581J0000000D01*
G01*
X0085305Y0093228D01*
G75*
G02*
X0084724Y0093809I0000000J0000581D01*
G01*
X0084724Y0095167D01*
G75*
G02*
X0085305Y0095748I0000581J0000000D01*
G01*
X0086466Y0095748D01*
G75*
G02*
X0087047Y0095167I0000000J-000581D01*
G01*
G37*
D147*
X0106693Y0146358D03*
X0114173Y0146358D03*
X0110433Y0154232D03*
G36*
G01*
X0090866Y0099350D02*
X0090866Y0097992D01*
G75*
G02*
X0090285Y0097411I-000581J0000000D01*
G01*
X0089124Y0097411D01*
G75*
G02*
X0088543Y0097992I0000000J0000581D01*
G01*
X0088543Y0099350D01*
G75*
G02*
X0089124Y0099931I0000581J0000000D01*
G01*
X0090285Y0099931D01*
G75*
G02*
X0090866Y0099350I0000000J-000581D01*
G01*
G37*
G36*
G01*
X0087047Y0099350D02*
X0087047Y0097992D01*
G75*
G02*
X0086466Y0097411I-000581J0000000D01*
G01*
X0085305Y0097411D01*
G75*
G02*
X0084724Y0097992I0000000J0000581D01*
G01*
X0084724Y0099350D01*
G75*
G02*
X0085305Y0099931I0000581J0000000D01*
G01*
X0086466Y0099931D01*
G75*
G02*
X0087047Y0099350I0000000J-000581D01*
G01*
G37*
G36*
G01*
X0114783Y0094970D02*
X0114783Y0093612D01*
G75*
G02*
X0114202Y0093031I-000581J0000000D01*
G01*
X0113041Y0093031D01*
G75*
G02*
X0112460Y0093612I0000000J0000581D01*
G01*
X0112460Y0094970D01*
G75*
G02*
X0113041Y0095551I0000581J0000000D01*
G01*
X0114202Y0095551D01*
G75*
G02*
X0114783Y0094970I0000000J-000581D01*
G01*
G37*
G36*
G01*
X0110964Y0094970D02*
X0110964Y0093612D01*
G75*
G02*
X0110383Y0093031I-000581J0000000D01*
G01*
X0109222Y0093031D01*
G75*
G02*
X0108641Y0093612I0000000J0000581D01*
G01*
X0108641Y0094970D01*
G75*
G02*
X0109222Y0095551I0000581J0000000D01*
G01*
X0110383Y0095551D01*
G75*
G02*
X0110964Y0094970I0000000J-000581D01*
G01*
G37*
G36*
G01*
X0127047Y0098730D02*
X0127047Y0100088D01*
G75*
G02*
X0127628Y0100669I0000581J0000000D01*
G01*
X0128789Y0100669D01*
G75*
G02*
X0129370Y0100088I0000000J-000581D01*
G01*
X0129370Y0098730D01*
G75*
G02*
X0128789Y0098149I-000581J0000000D01*
G01*
X0127628Y0098149D01*
G75*
G02*
X0127047Y0098730I0000000J0000581D01*
G01*
G37*
G36*
G01*
X0130866Y0098730D02*
X0130866Y0100088D01*
G75*
G02*
X0131446Y0100669I0000581J0000000D01*
G01*
X0132608Y0100669D01*
G75*
G02*
X0133189Y0100088I0000000J-000581D01*
G01*
X0133189Y0098730D01*
G75*
G02*
X0132608Y0098149I-000581J0000000D01*
G01*
X0131446Y0098149D01*
G75*
G02*
X0130866Y0098730I0000000J0000581D01*
G01*
G37*
G36*
G01*
X0100275Y0093612D02*
X0100275Y0094970D01*
G75*
G02*
X0100856Y0095551I0000581J0000000D01*
G01*
X0102017Y0095551D01*
G75*
G02*
X0102598Y0094970I0000000J-000581D01*
G01*
X0102598Y0093612D01*
G75*
G02*
X0102017Y0093031I-000581J0000000D01*
G01*
X0100856Y0093031D01*
G75*
G02*
X0100275Y0093612I0000000J0000581D01*
G01*
G37*
G36*
G01*
X0104094Y0093612D02*
X0104094Y0094970D01*
G75*
G02*
X0104675Y0095551I0000581J0000000D01*
G01*
X0105836Y0095551D01*
G75*
G02*
X0106417Y0094970I0000000J-000581D01*
G01*
X0106417Y0093612D01*
G75*
G02*
X0105836Y0093031I-000581J0000000D01*
G01*
X0104675Y0093031D01*
G75*
G02*
X0104094Y0093612I0000000J0000581D01*
G01*
G37*
G36*
G01*
X0127047Y0133376D02*
X0127047Y0134734D01*
G75*
G02*
X0127628Y0135314I0000581J0000000D01*
G01*
X0128789Y0135314D01*
G75*
G02*
X0129370Y0134734I0000000J-000581D01*
G01*
X0129370Y0133376D01*
G75*
G02*
X0128789Y0132795I-000581J0000000D01*
G01*
X0127628Y0132795D01*
G75*
G02*
X0127047Y0133376I0000000J0000581D01*
G01*
G37*
G36*
G01*
X0130866Y0133376D02*
X0130866Y0134734D01*
G75*
G02*
X0131446Y0135314I0000581J0000000D01*
G01*
X0132608Y0135314D01*
G75*
G02*
X0133189Y0134734I0000000J-000581D01*
G01*
X0133189Y0133376D01*
G75*
G02*
X0132608Y0132795I-000581J0000000D01*
G01*
X0131446Y0132795D01*
G75*
G02*
X0130866Y0133376I0000000J0000581D01*
G01*
G37*
D368*
X0120374Y0068937D03*
D145*
X0092027Y0070039D03*
X0103838Y0077913D03*
X0092027Y0085787D03*
D369*
X0095570Y0077913D03*
D368*
X0120374Y0086889D03*
G36*
G01*
X0100600Y0144409D02*
X0101958Y0144409D01*
G75*
G02*
X0102539Y0143828I0000000J-000581D01*
G01*
X0102539Y0142667D01*
G75*
G02*
X0101958Y0142086I-000581J0000000D01*
G01*
X0100600Y0142086D01*
G75*
G02*
X0100019Y0142667I0000000J0000581D01*
G01*
X0100019Y0143828D01*
G75*
G02*
X0100600Y0144409I0000581J0000000D01*
G01*
G37*
G36*
G01*
X0100600Y0140590D02*
X0101958Y0140590D01*
G75*
G02*
X0102539Y0140009I0000000J-000581D01*
G01*
X0102539Y0138848D01*
G75*
G02*
X0101958Y0138267I-000581J0000000D01*
G01*
X0100600Y0138267D01*
G75*
G02*
X0100019Y0138848I0000000J0000581D01*
G01*
X0100019Y0140009D01*
G75*
G02*
X0100600Y0140590I0000581J0000000D01*
G01*
G37*
G36*
G01*
X0086934Y0105905D02*
X0084916Y0105905D01*
G75*
G02*
X0084055Y0106766I0000000J0000861D01*
G01*
X0084055Y0108489D01*
G75*
G02*
X0084916Y0109350I0000861J0000000D01*
G01*
X0086934Y0109350D01*
G75*
G02*
X0087795Y0108489I0000000J-000861D01*
G01*
X0087795Y0106766D01*
G75*
G02*
X0086934Y0105905I-000861J0000000D01*
G01*
G37*
G36*
G01*
X0086934Y0112106D02*
X0084916Y0112106D01*
G75*
G02*
X0084055Y0112967I0000000J0000861D01*
G01*
X0084055Y0114689D01*
G75*
G02*
X0084916Y0115551I0000861J0000000D01*
G01*
X0086934Y0115551D01*
G75*
G02*
X0087795Y0114689I0000000J-000861D01*
G01*
X0087795Y0112967D01*
G75*
G02*
X0086934Y0112106I-000861J0000000D01*
G01*
G37*
G36*
G01*
X0090866Y0103533D02*
X0090866Y0102175D01*
G75*
G02*
X0090285Y0101594I-000581J0000000D01*
G01*
X0089124Y0101594D01*
G75*
G02*
X0088543Y0102175I0000000J0000581D01*
G01*
X0088543Y0103533D01*
G75*
G02*
X0089124Y0104114I0000581J0000000D01*
G01*
X0090285Y0104114D01*
G75*
G02*
X0090866Y0103533I0000000J-000581D01*
G01*
G37*
G36*
G01*
X0087047Y0103533D02*
X0087047Y0102175D01*
G75*
G02*
X0086466Y0101594I-000581J0000000D01*
G01*
X0085305Y0101594D01*
G75*
G02*
X0084724Y0102175I0000000J0000581D01*
G01*
X0084724Y0103533D01*
G75*
G02*
X0085305Y0104114I0000581J0000000D01*
G01*
X0086466Y0104114D01*
G75*
G02*
X0087047Y0103533I0000000J-000581D01*
G01*
G37*
G36*
G01*
X0086319Y0059424D02*
X0086319Y0061441D01*
G75*
G02*
X0087180Y0062303I0000861J0000000D01*
G01*
X0088902Y0062303D01*
G75*
G02*
X0089763Y0061441I0000000J-000861D01*
G01*
X0089763Y0059424D01*
G75*
G02*
X0088902Y0058563I-000861J0000000D01*
G01*
X0087180Y0058563D01*
G75*
G02*
X0086319Y0059424I0000000J0000861D01*
G01*
G37*
G36*
G01*
X0092519Y0059424D02*
X0092519Y0061441D01*
G75*
G02*
X0093381Y0062303I0000861J0000000D01*
G01*
X0095103Y0062303D01*
G75*
G02*
X0095964Y0061441I0000000J-000861D01*
G01*
X0095964Y0059424D01*
G75*
G02*
X0095103Y0058563I-000861J0000000D01*
G01*
X0093381Y0058563D01*
G75*
G02*
X0092519Y0059424I0000000J0000861D01*
G01*
G37*
G36*
G01*
X0084916Y0127263D02*
X0086934Y0127263D01*
G75*
G02*
X0087795Y0126402I0000000J-000861D01*
G01*
X0087795Y0124680D01*
G75*
G02*
X0086934Y0123818I-000861J0000000D01*
G01*
X0084916Y0123818D01*
G75*
G02*
X0084055Y0124680I0000000J0000861D01*
G01*
X0084055Y0126402D01*
G75*
G02*
X0084916Y0127263I0000861J0000000D01*
G01*
G37*
G36*
G01*
X0084916Y0121063D02*
X0086934Y0121063D01*
G75*
G02*
X0087795Y0120201I0000000J-000861D01*
G01*
X0087795Y0118479D01*
G75*
G02*
X0086934Y0117618I-000861J0000000D01*
G01*
X0084916Y0117618D01*
G75*
G02*
X0084055Y0118479I0000000J0000861D01*
G01*
X0084055Y0120201D01*
G75*
G02*
X0084916Y0121063I0000861J0000000D01*
G01*
G37*
G36*
G01*
X0089094Y0131584D02*
X0089094Y0130226D01*
G75*
G02*
X0088513Y0129645I-000581J0000000D01*
G01*
X0087352Y0129645D01*
G75*
G02*
X0086771Y0130226I0000000J0000581D01*
G01*
X0086771Y0131584D01*
G75*
G02*
X0087352Y0132165I0000581J0000000D01*
G01*
X0088513Y0132165D01*
G75*
G02*
X0089094Y0131584I0000000J-000581D01*
G01*
G37*
G36*
G01*
X0085275Y0131584D02*
X0085275Y0130226D01*
G75*
G02*
X0084694Y0129645I-000581J0000000D01*
G01*
X0083533Y0129645D01*
G75*
G02*
X0082952Y0130226I0000000J0000581D01*
G01*
X0082952Y0131584D01*
G75*
G02*
X0083533Y0132165I0000581J0000000D01*
G01*
X0084694Y0132165D01*
G75*
G02*
X0085275Y0131584I0000000J-000581D01*
G01*
G37*
G36*
G01*
X0101771Y0097145D02*
X0100787Y0097145D01*
G75*
G02*
X0100295Y0097637I0000000J0000492D01*
G01*
X0100295Y0102559D01*
G75*
G02*
X0100787Y0103051I0000492J0000000D01*
G01*
X0101771Y0103051D01*
G75*
G02*
X0102263Y0102559I0000000J-000492D01*
G01*
X0102263Y0097637D01*
G75*
G02*
X0101771Y0097145I-000492J0000000D01*
G01*
G37*
G36*
G01*
X0104921Y0097145D02*
X0103937Y0097145D01*
G75*
G02*
X0103444Y0097637I0000000J0000492D01*
G01*
X0103444Y0102559D01*
G75*
G02*
X0103937Y0103051I0000492J0000000D01*
G01*
X0104921Y0103051D01*
G75*
G02*
X0105413Y0102559I0000000J-000492D01*
G01*
X0105413Y0097637D01*
G75*
G02*
X0104921Y0097145I-000492J0000000D01*
G01*
G37*
G36*
G01*
X0108070Y0097145D02*
X0107086Y0097145D01*
G75*
G02*
X0106594Y0097637I0000000J0000492D01*
G01*
X0106594Y0102559D01*
G75*
G02*
X0107086Y0103051I0000492J0000000D01*
G01*
X0108070Y0103051D01*
G75*
G02*
X0108563Y0102559I0000000J-000492D01*
G01*
X0108563Y0097637D01*
G75*
G02*
X0108070Y0097145I-000492J0000000D01*
G01*
G37*
G36*
G01*
X0111220Y0097145D02*
X0110236Y0097145D01*
G75*
G02*
X0109744Y0097637I0000000J0000492D01*
G01*
X0109744Y0102559D01*
G75*
G02*
X0110236Y0103051I0000492J0000000D01*
G01*
X0111220Y0103051D01*
G75*
G02*
X0111712Y0102559I0000000J-000492D01*
G01*
X0111712Y0097637D01*
G75*
G02*
X0111220Y0097145I-000492J0000000D01*
G01*
G37*
G36*
G01*
X0114370Y0097145D02*
X0113385Y0097145D01*
G75*
G02*
X0112893Y0097637I0000000J0000492D01*
G01*
X0112893Y0102559D01*
G75*
G02*
X0113385Y0103051I0000492J0000000D01*
G01*
X0114370Y0103051D01*
G75*
G02*
X0114862Y0102559I0000000J-000492D01*
G01*
X0114862Y0097637D01*
G75*
G02*
X0114370Y0097145I-000492J0000000D01*
G01*
G37*
G36*
G01*
X0117519Y0097145D02*
X0116535Y0097145D01*
G75*
G02*
X0116043Y0097637I0000000J0000492D01*
G01*
X0116043Y0102559D01*
G75*
G02*
X0116535Y0103051I0000492J0000000D01*
G01*
X0117519Y0103051D01*
G75*
G02*
X0118011Y0102559I0000000J-000492D01*
G01*
X0118011Y0097637D01*
G75*
G02*
X0117519Y0097145I-000492J0000000D01*
G01*
G37*
G36*
G01*
X0120669Y0097145D02*
X0119685Y0097145D01*
G75*
G02*
X0119193Y0097637I0000000J0000492D01*
G01*
X0119193Y0102559D01*
G75*
G02*
X0119685Y0103051I0000492J0000000D01*
G01*
X0120669Y0103051D01*
G75*
G02*
X0121161Y0102559I0000000J-000492D01*
G01*
X0121161Y0097637D01*
G75*
G02*
X0120669Y0097145I-000492J0000000D01*
G01*
G37*
G36*
G01*
X0123819Y0097145D02*
X0122834Y0097145D01*
G75*
G02*
X0122342Y0097637I0000000J0000492D01*
G01*
X0122342Y0102559D01*
G75*
G02*
X0122834Y0103051I0000492J0000000D01*
G01*
X0123819Y0103051D01*
G75*
G02*
X0124311Y0102559I0000000J-000492D01*
G01*
X0124311Y0097637D01*
G75*
G02*
X0123819Y0097145I-000492J0000000D01*
G01*
G37*
G36*
G01*
X0131200Y0104527D02*
X0126279Y0104527D01*
G75*
G02*
X0125787Y0105019I0000000J0000492D01*
G01*
X0125787Y0106003D01*
G75*
G02*
X0126279Y0106496I0000492J0000000D01*
G01*
X0131200Y0106496D01*
G75*
G02*
X0131693Y0106003I0000000J-000492D01*
G01*
X0131693Y0105019D01*
G75*
G02*
X0131200Y0104527I-000492J0000000D01*
G01*
G37*
G36*
G01*
X0131200Y0107677D02*
X0126279Y0107677D01*
G75*
G02*
X0125787Y0108169I0000000J0000492D01*
G01*
X0125787Y0109153D01*
G75*
G02*
X0126279Y0109645I0000492J0000000D01*
G01*
X0131200Y0109645D01*
G75*
G02*
X0131693Y0109153I0000000J-000492D01*
G01*
X0131693Y0108169D01*
G75*
G02*
X0131200Y0107677I-000492J0000000D01*
G01*
G37*
G36*
G01*
X0131200Y0110826D02*
X0126279Y0110826D01*
G75*
G02*
X0125787Y0111318I0000000J0000492D01*
G01*
X0125787Y0112303D01*
G75*
G02*
X0126279Y0112795I0000492J0000000D01*
G01*
X0131200Y0112795D01*
G75*
G02*
X0131693Y0112303I0000000J-000492D01*
G01*
X0131693Y0111318D01*
G75*
G02*
X0131200Y0110826I-000492J0000000D01*
G01*
G37*
G36*
G01*
X0131200Y0113976D02*
X0126279Y0113976D01*
G75*
G02*
X0125787Y0114468I0000000J0000492D01*
G01*
X0125787Y0115452D01*
G75*
G02*
X0126279Y0115944I0000492J0000000D01*
G01*
X0131200Y0115944D01*
G75*
G02*
X0131693Y0115452I0000000J-000492D01*
G01*
X0131693Y0114468D01*
G75*
G02*
X0131200Y0113976I-000492J0000000D01*
G01*
G37*
G36*
G01*
X0131200Y0117126D02*
X0126279Y0117126D01*
G75*
G02*
X0125787Y0117618I0000000J0000492D01*
G01*
X0125787Y0118602D01*
G75*
G02*
X0126279Y0119094I0000492J0000000D01*
G01*
X0131200Y0119094D01*
G75*
G02*
X0131693Y0118602I0000000J-000492D01*
G01*
X0131693Y0117618D01*
G75*
G02*
X0131200Y0117126I-000492J0000000D01*
G01*
G37*
G36*
G01*
X0131200Y0120275D02*
X0126279Y0120275D01*
G75*
G02*
X0125787Y0120767I0000000J0000492D01*
G01*
X0125787Y0121751D01*
G75*
G02*
X0126279Y0122244I0000492J0000000D01*
G01*
X0131200Y0122244D01*
G75*
G02*
X0131693Y0121751I0000000J-000492D01*
G01*
X0131693Y0120767D01*
G75*
G02*
X0131200Y0120275I-000492J0000000D01*
G01*
G37*
G36*
G01*
X0131200Y0123425D02*
X0126279Y0123425D01*
G75*
G02*
X0125787Y0123917I0000000J0000492D01*
G01*
X0125787Y0124901D01*
G75*
G02*
X0126279Y0125393I0000492J0000000D01*
G01*
X0131200Y0125393D01*
G75*
G02*
X0131693Y0124901I0000000J-000492D01*
G01*
X0131693Y0123917D01*
G75*
G02*
X0131200Y0123425I-000492J0000000D01*
G01*
G37*
G36*
G01*
X0131200Y0126574D02*
X0126279Y0126574D01*
G75*
G02*
X0125787Y0127066I0000000J0000492D01*
G01*
X0125787Y0128051D01*
G75*
G02*
X0126279Y0128543I0000492J0000000D01*
G01*
X0131200Y0128543D01*
G75*
G02*
X0131693Y0128051I0000000J-000492D01*
G01*
X0131693Y0127066D01*
G75*
G02*
X0131200Y0126574I-000492J0000000D01*
G01*
G37*
G36*
G01*
X0123819Y0130019D02*
X0122834Y0130019D01*
G75*
G02*
X0122342Y0130511I0000000J0000492D01*
G01*
X0122342Y0135433D01*
G75*
G02*
X0122834Y0135925I0000492J0000000D01*
G01*
X0123819Y0135925D01*
G75*
G02*
X0124311Y0135433I0000000J-000492D01*
G01*
X0124311Y0130511D01*
G75*
G02*
X0123819Y0130019I-000492J0000000D01*
G01*
G37*
G36*
G01*
X0120669Y0130019D02*
X0119685Y0130019D01*
G75*
G02*
X0119193Y0130511I0000000J0000492D01*
G01*
X0119193Y0135433D01*
G75*
G02*
X0119685Y0135925I0000492J0000000D01*
G01*
X0120669Y0135925D01*
G75*
G02*
X0121161Y0135433I0000000J-000492D01*
G01*
X0121161Y0130511D01*
G75*
G02*
X0120669Y0130019I-000492J0000000D01*
G01*
G37*
G36*
G01*
X0117519Y0130019D02*
X0116535Y0130019D01*
G75*
G02*
X0116043Y0130511I0000000J0000492D01*
G01*
X0116043Y0135433D01*
G75*
G02*
X0116535Y0135925I0000492J0000000D01*
G01*
X0117519Y0135925D01*
G75*
G02*
X0118011Y0135433I0000000J-000492D01*
G01*
X0118011Y0130511D01*
G75*
G02*
X0117519Y0130019I-000492J0000000D01*
G01*
G37*
G36*
G01*
X0114370Y0130019D02*
X0113385Y0130019D01*
G75*
G02*
X0112893Y0130511I0000000J0000492D01*
G01*
X0112893Y0135433D01*
G75*
G02*
X0113385Y0135925I0000492J0000000D01*
G01*
X0114370Y0135925D01*
G75*
G02*
X0114862Y0135433I0000000J-000492D01*
G01*
X0114862Y0130511D01*
G75*
G02*
X0114370Y0130019I-000492J0000000D01*
G01*
G37*
G36*
G01*
X0111220Y0130019D02*
X0110236Y0130019D01*
G75*
G02*
X0109744Y0130511I0000000J0000492D01*
G01*
X0109744Y0135433D01*
G75*
G02*
X0110236Y0135925I0000492J0000000D01*
G01*
X0111220Y0135925D01*
G75*
G02*
X0111712Y0135433I0000000J-000492D01*
G01*
X0111712Y0130511D01*
G75*
G02*
X0111220Y0130019I-000492J0000000D01*
G01*
G37*
G36*
G01*
X0108070Y0130019D02*
X0107086Y0130019D01*
G75*
G02*
X0106594Y0130511I0000000J0000492D01*
G01*
X0106594Y0135433D01*
G75*
G02*
X0107086Y0135925I0000492J0000000D01*
G01*
X0108070Y0135925D01*
G75*
G02*
X0108563Y0135433I0000000J-000492D01*
G01*
X0108563Y0130511D01*
G75*
G02*
X0108070Y0130019I-000492J0000000D01*
G01*
G37*
G36*
G01*
X0104921Y0130019D02*
X0103937Y0130019D01*
G75*
G02*
X0103444Y0130511I0000000J0000492D01*
G01*
X0103444Y0135433D01*
G75*
G02*
X0103937Y0135925I0000492J0000000D01*
G01*
X0104921Y0135925D01*
G75*
G02*
X0105413Y0135433I0000000J-000492D01*
G01*
X0105413Y0130511D01*
G75*
G02*
X0104921Y0130019I-000492J0000000D01*
G01*
G37*
G36*
G01*
X0101771Y0130019D02*
X0100787Y0130019D01*
G75*
G02*
X0100295Y0130511I0000000J0000492D01*
G01*
X0100295Y0135433D01*
G75*
G02*
X0100787Y0135925I0000492J0000000D01*
G01*
X0101771Y0135925D01*
G75*
G02*
X0102263Y0135433I0000000J-000492D01*
G01*
X0102263Y0130511D01*
G75*
G02*
X0101771Y0130019I-000492J0000000D01*
G01*
G37*
G36*
G01*
X0098326Y0126574D02*
X0093405Y0126574D01*
G75*
G02*
X0092913Y0127066I0000000J0000492D01*
G01*
X0092913Y0128051D01*
G75*
G02*
X0093405Y0128543I0000492J0000000D01*
G01*
X0098326Y0128543D01*
G75*
G02*
X0098819Y0128051I0000000J-000492D01*
G01*
X0098819Y0127066D01*
G75*
G02*
X0098326Y0126574I-000492J0000000D01*
G01*
G37*
G36*
G01*
X0098326Y0123425D02*
X0093405Y0123425D01*
G75*
G02*
X0092913Y0123917I0000000J0000492D01*
G01*
X0092913Y0124901D01*
G75*
G02*
X0093405Y0125393I0000492J0000000D01*
G01*
X0098326Y0125393D01*
G75*
G02*
X0098819Y0124901I0000000J-000492D01*
G01*
X0098819Y0123917D01*
G75*
G02*
X0098326Y0123425I-000492J0000000D01*
G01*
G37*
G36*
G01*
X0098326Y0120275D02*
X0093405Y0120275D01*
G75*
G02*
X0092913Y0120767I0000000J0000492D01*
G01*
X0092913Y0121751D01*
G75*
G02*
X0093405Y0122244I0000492J0000000D01*
G01*
X0098326Y0122244D01*
G75*
G02*
X0098819Y0121751I0000000J-000492D01*
G01*
X0098819Y0120767D01*
G75*
G02*
X0098326Y0120275I-000492J0000000D01*
G01*
G37*
G36*
G01*
X0098326Y0117126D02*
X0093405Y0117126D01*
G75*
G02*
X0092913Y0117618I0000000J0000492D01*
G01*
X0092913Y0118602D01*
G75*
G02*
X0093405Y0119094I0000492J0000000D01*
G01*
X0098326Y0119094D01*
G75*
G02*
X0098819Y0118602I0000000J-000492D01*
G01*
X0098819Y0117618D01*
G75*
G02*
X0098326Y0117126I-000492J0000000D01*
G01*
G37*
G36*
G01*
X0098326Y0113976D02*
X0093405Y0113976D01*
G75*
G02*
X0092913Y0114468I0000000J0000492D01*
G01*
X0092913Y0115452D01*
G75*
G02*
X0093405Y0115944I0000492J0000000D01*
G01*
X0098326Y0115944D01*
G75*
G02*
X0098819Y0115452I0000000J-000492D01*
G01*
X0098819Y0114468D01*
G75*
G02*
X0098326Y0113976I-000492J0000000D01*
G01*
G37*
G36*
G01*
X0098326Y0110826D02*
X0093405Y0110826D01*
G75*
G02*
X0092913Y0111318I0000000J0000492D01*
G01*
X0092913Y0112303D01*
G75*
G02*
X0093405Y0112795I0000492J0000000D01*
G01*
X0098326Y0112795D01*
G75*
G02*
X0098819Y0112303I0000000J-000492D01*
G01*
X0098819Y0111318D01*
G75*
G02*
X0098326Y0110826I-000492J0000000D01*
G01*
G37*
G36*
G01*
X0098326Y0107677D02*
X0093405Y0107677D01*
G75*
G02*
X0092913Y0108169I0000000J0000492D01*
G01*
X0092913Y0109153D01*
G75*
G02*
X0093405Y0109645I0000492J0000000D01*
G01*
X0098326Y0109645D01*
G75*
G02*
X0098819Y0109153I0000000J-000492D01*
G01*
X0098819Y0108169D01*
G75*
G02*
X0098326Y0107677I-000492J0000000D01*
G01*
G37*
G36*
G01*
X0098326Y0104527D02*
X0093405Y0104527D01*
G75*
G02*
X0092913Y0105019I0000000J0000492D01*
G01*
X0092913Y0106003D01*
G75*
G02*
X0093405Y0106496I0000492J0000000D01*
G01*
X0098326Y0106496D01*
G75*
G02*
X0098819Y0106003I0000000J-000492D01*
G01*
X0098819Y0105019D01*
G75*
G02*
X0098326Y0104527I-000492J0000000D01*
G01*
G37*
G36*
G01*
X0119872Y0139153D02*
X0118513Y0139153D01*
G75*
G02*
X0117933Y0139734I0000000J0000581D01*
G01*
X0117933Y0140895D01*
G75*
G02*
X0118513Y0141476I0000581J0000000D01*
G01*
X0119872Y0141476D01*
G75*
G02*
X0120452Y0140895I0000000J-000581D01*
G01*
X0120452Y0139734D01*
G75*
G02*
X0119872Y0139153I-000581J0000000D01*
G01*
G37*
G36*
G01*
X0119872Y0142972D02*
X0118513Y0142972D01*
G75*
G02*
X0117933Y0143553I0000000J0000581D01*
G01*
X0117933Y0144714D01*
G75*
G02*
X0118513Y0145295I0000581J0000000D01*
G01*
X0119872Y0145295D01*
G75*
G02*
X0120452Y0144714I0000000J-000581D01*
G01*
X0120452Y0143553D01*
G75*
G02*
X0119872Y0142972I-000581J0000000D01*
G01*
G37*
G36*
G01*
X0096476Y0132076D02*
X0096476Y0130718D01*
G75*
G02*
X0095895Y0130137I-000581J0000000D01*
G01*
X0094734Y0130137D01*
G75*
G02*
X0094153Y0130718I0000000J0000581D01*
G01*
X0094153Y0132076D01*
G75*
G02*
X0094734Y0132657I0000581J0000000D01*
G01*
X0095895Y0132657D01*
G75*
G02*
X0096476Y0132076I0000000J-000581D01*
G01*
G37*
G36*
G01*
X0092657Y0132076D02*
X0092657Y0130718D01*
G75*
G02*
X0092076Y0130137I-000581J0000000D01*
G01*
X0090915Y0130137D01*
G75*
G02*
X0090334Y0130718I0000000J0000581D01*
G01*
X0090334Y0132076D01*
G75*
G02*
X0090915Y0132657I0000581J0000000D01*
G01*
X0092076Y0132657D01*
G75*
G02*
X0092657Y0132076I0000000J-000581D01*
G01*
G37*
G36*
G01*
X0118513Y0155720D02*
X0119872Y0155720D01*
G75*
G02*
X0120452Y0155139I0000000J-000581D01*
G01*
X0120452Y0153978D01*
G75*
G02*
X0119872Y0153397I-000581J0000000D01*
G01*
X0118513Y0153397D01*
G75*
G02*
X0117933Y0153978I0000000J0000581D01*
G01*
X0117933Y0155139D01*
G75*
G02*
X0118513Y0155720I0000581J0000000D01*
G01*
G37*
G36*
G01*
X0118513Y0151901D02*
X0119872Y0151901D01*
G75*
G02*
X0120452Y0151320I0000000J-000581D01*
G01*
X0120452Y0150159D01*
G75*
G02*
X0119872Y0149578I-000581J0000000D01*
G01*
X0118513Y0149578D01*
G75*
G02*
X0117933Y0150159I0000000J0000581D01*
G01*
X0117933Y0151320D01*
G75*
G02*
X0118513Y0151901I0000581J0000000D01*
G01*
G37*
D143*
X0124114Y0154232D03*
X0124114Y0146751D03*
X0131988Y0150492D03*
G36*
G01*
X0098346Y0095167D02*
X0098346Y0093809D01*
G75*
G02*
X0097765Y0093228I-000581J0000000D01*
G01*
X0096604Y0093228D01*
G75*
G02*
X0096023Y0093809I0000000J0000581D01*
G01*
X0096023Y0095167D01*
G75*
G02*
X0096604Y0095748I0000581J0000000D01*
G01*
X0097765Y0095748D01*
G75*
G02*
X0098346Y0095167I0000000J-000581D01*
G01*
G37*
G36*
G01*
X0094527Y0095167D02*
X0094527Y0093809D01*
G75*
G02*
X0093946Y0093228I-000581J0000000D01*
G01*
X0092785Y0093228D01*
G75*
G02*
X0092204Y0093809I0000000J0000581D01*
G01*
X0092204Y0095167D01*
G75*
G02*
X0092785Y0095748I0000581J0000000D01*
G01*
X0093946Y0095748D01*
G75*
G02*
X0094527Y0095167I0000000J-000581D01*
G01*
G37*
G36*
G01*
X0133385Y0141294D02*
X0133385Y0139276D01*
G75*
G02*
X0132524Y0138415I-000861J0000000D01*
G01*
X0130802Y0138415D01*
G75*
G02*
X0129941Y0139276I0000000J0000861D01*
G01*
X0129941Y0141294D01*
G75*
G02*
X0130802Y0142155I0000861J0000000D01*
G01*
X0132524Y0142155D01*
G75*
G02*
X0133385Y0141294I0000000J-000861D01*
G01*
G37*
G36*
G01*
X0127185Y0141294D02*
X0127185Y0139276D01*
G75*
G02*
X0126323Y0138415I-000861J0000000D01*
G01*
X0124601Y0138415D01*
G75*
G02*
X0123740Y0139276I0000000J0000861D01*
G01*
X0123740Y0141294D01*
G75*
G02*
X0124601Y0142155I0000861J0000000D01*
G01*
X0126323Y0142155D01*
G75*
G02*
X0127185Y0141294I0000000J-000861D01*
G01*
G37*
D158*
X0091240Y0157047D03*
X0087240Y0137047D03*
X0095240Y0137047D03*
D155*
X0088740Y0152047D03*
X0093740Y0152047D03*
X0088740Y0147047D03*
X0093740Y0147047D03*
X0088740Y0142047D03*
X0093740Y0142047D03*
D370*
X0130118Y0067559D03*
D371*
X0130118Y0077559D03*
X0130118Y0087559D03*
X0425000Y0217224D02*
G01*
G75*
D466*
X0301378Y0199134D02*
D03*
X0294291Y0199134D02*
D03*
X0294291Y0209173D02*
D03*
X0301378Y0209173D02*
D03*
X0413189Y0150393D02*
D03*
X0420276Y0150393D02*
D03*
X0420276Y0160433D02*
D03*
X0413189Y0160433D02*
D03*
X0413189Y0144291D02*
D03*
X0420276Y0144291D02*
D03*
X0420276Y0134251D02*
D03*
X0413189Y0134251D02*
D03*
D467*
X0301378Y0202578D02*
D03*
X0301378Y0205728D02*
D03*
X0294291Y0205728D02*
D03*
X0294291Y0202578D02*
D03*
X0420276Y0156988D02*
D03*
X0420276Y0153838D02*
D03*
X0413189Y0153838D02*
D03*
X0413189Y0156988D02*
D03*
X0413189Y0140846D02*
D03*
X0413189Y0137696D02*
D03*
X0420276Y0137696D02*
D03*
X0420276Y0140846D02*
D03*
D468*
X0305590Y0202130D02*
D03*
X0305590Y0199571D02*
D03*
X0305590Y0197011D02*
D03*
X0313070Y0202130D02*
D03*
X0313070Y0197011D02*
D03*
X0313070Y0199571D02*
D03*
X0313070Y0206755D02*
D03*
X0313070Y0211874D02*
D03*
X0305590Y0206755D02*
D03*
X0305590Y0209315D02*
D03*
X0305590Y0211874D02*
D03*
X0313070Y0209315D02*
D03*
D193*
X0372798Y0102854D02*
D03*
X0372798Y0104822D02*
D03*
X0372798Y0106791D02*
D03*
X0372798Y0108759D02*
D03*
X0372798Y0110728D02*
D03*
X0372798Y0112696D02*
D03*
X0372798Y0114665D02*
D03*
X0372798Y0116633D02*
D03*
X0372798Y0118602D02*
D03*
X0372798Y0122539D02*
D03*
X0372798Y0124508D02*
D03*
X0372798Y0126476D02*
D03*
X0372798Y0128445D02*
D03*
X0372798Y0130413D02*
D03*
X0372798Y0132382D02*
D03*
X0372798Y0134350D02*
D03*
X0372798Y0136319D02*
D03*
X0372798Y0138287D02*
D03*
X0372798Y0140256D02*
D03*
X0372798Y0142224D02*
D03*
X0372798Y0144192D02*
D03*
X0372798Y0146161D02*
D03*
X0372798Y0148129D02*
D03*
X0372798Y0150098D02*
D03*
X0311774Y0150098D02*
D03*
X0311774Y0148129D02*
D03*
X0311774Y0146161D02*
D03*
X0311774Y0144192D02*
D03*
X0311774Y0142224D02*
D03*
X0311774Y0140256D02*
D03*
X0311774Y0138287D02*
D03*
X0311774Y0136319D02*
D03*
X0311774Y0134350D02*
D03*
X0311774Y0132382D02*
D03*
X0311774Y0130413D02*
D03*
X0311774Y0128445D02*
D03*
X0311774Y0126476D02*
D03*
X0311774Y0124508D02*
D03*
X0311774Y0122539D02*
D03*
X0311774Y0120571D02*
D03*
X0311774Y0118602D02*
D03*
X0311774Y0116633D02*
D03*
X0311774Y0114665D02*
D03*
X0311774Y0112696D02*
D03*
X0311774Y0110728D02*
D03*
X0311774Y0108759D02*
D03*
X0311774Y0106791D02*
D03*
X0311774Y0102854D02*
D03*
X0372798Y0120571D02*
D03*
X0311774Y0104822D02*
D03*
D194*
X0365908Y0156988D02*
D03*
X0361971Y0156988D02*
D03*
X0360002Y0156988D02*
D03*
X0358034Y0156988D02*
D03*
X0356065Y0156988D02*
D03*
X0354097Y0156988D02*
D03*
X0352128Y0156988D02*
D03*
X0350160Y0156988D02*
D03*
X0348191Y0156988D02*
D03*
X0346223Y0156988D02*
D03*
X0344254Y0156988D02*
D03*
X0342286Y0156988D02*
D03*
X0340317Y0156988D02*
D03*
X0338349Y0156988D02*
D03*
X0336380Y0156988D02*
D03*
X0334412Y0156988D02*
D03*
X0332443Y0156988D02*
D03*
X0330475Y0156988D02*
D03*
X0328506Y0156988D02*
D03*
X0326538Y0156988D02*
D03*
X0324569Y0156988D02*
D03*
X0322601Y0156988D02*
D03*
X0320632Y0156988D02*
D03*
X0318664Y0156988D02*
D03*
X0318664Y0095964D02*
D03*
X0320632Y0095964D02*
D03*
X0322601Y0095964D02*
D03*
X0324569Y0095964D02*
D03*
X0326538Y0095964D02*
D03*
X0328506Y0095964D02*
D03*
X0330475Y0095964D02*
D03*
X0332443Y0095964D02*
D03*
X0334412Y0095964D02*
D03*
X0336380Y0095964D02*
D03*
X0338349Y0095964D02*
D03*
X0340317Y0095964D02*
D03*
X0342286Y0095964D02*
D03*
X0344254Y0095964D02*
D03*
X0346223Y0095964D02*
D03*
X0348191Y0095964D02*
D03*
X0350160Y0095964D02*
D03*
X0352128Y0095964D02*
D03*
X0354097Y0095964D02*
D03*
X0356065Y0095964D02*
D03*
X0358034Y0095964D02*
D03*
X0360002Y0095964D02*
D03*
X0361971Y0095964D02*
D03*
X0363939Y0095964D02*
D03*
X0365908Y0095964D02*
D03*
X0363939Y0156988D02*
D03*
D195*
X0369291Y0173917D02*
D03*
X0341339Y0173917D02*
D03*
X0397244Y0173917D02*
D03*
X0391732Y0179035D02*
D03*
X0363779Y0168799D02*
D03*
X0363779Y0171358D02*
D03*
X0363779Y0173917D02*
D03*
X0363779Y0176476D02*
D03*
X0363779Y0179035D02*
D03*
X0363779Y0181594D02*
D03*
X0363779Y0184153D02*
D03*
X0341339Y0168799D02*
D03*
X0341339Y0171358D02*
D03*
X0341339Y0176476D02*
D03*
X0341339Y0179035D02*
D03*
X0341339Y0181594D02*
D03*
X0341339Y0184153D02*
D03*
X0419685Y0168799D02*
D03*
X0419685Y0171358D02*
D03*
X0419685Y0173917D02*
D03*
X0419685Y0176476D02*
D03*
X0419685Y0179035D02*
D03*
X0419685Y0181594D02*
D03*
X0419685Y0184153D02*
D03*
X0397244Y0168799D02*
D03*
X0397244Y0171358D02*
D03*
X0397244Y0176476D02*
D03*
X0397244Y0179035D02*
D03*
X0397244Y0181594D02*
D03*
X0397244Y0184153D02*
D03*
X0391732Y0168799D02*
D03*
X0391732Y0171358D02*
D03*
X0391732Y0173917D02*
D03*
X0391732Y0176476D02*
D03*
X0391732Y0181594D02*
D03*
X0391732Y0184153D02*
D03*
X0369291Y0168799D02*
D03*
X0369291Y0171358D02*
D03*
X0369291Y0176476D02*
D03*
X0369291Y0179035D02*
D03*
X0369291Y0181594D02*
D03*
X0369291Y0184153D02*
D03*
X0313386Y0184153D02*
D03*
X0313386Y0181594D02*
D03*
X0313386Y0179035D02*
D03*
X0313386Y0176476D02*
D03*
X0313386Y0173917D02*
D03*
X0313386Y0171358D02*
D03*
X0313386Y0168799D02*
D03*
X0335827Y0184153D02*
D03*
X0335827Y0181594D02*
D03*
X0335827Y0179035D02*
D03*
X0335827Y0176476D02*
D03*
X0335827Y0173917D02*
D03*
X0335827Y0171358D02*
D03*
X0335827Y0168799D02*
D03*
D196*
X0314882Y0083031D02*
D03*
X0314882Y0088031D02*
D03*
X0319882Y0083031D02*
D03*
X0319882Y0088031D02*
D03*
X0324882Y0083031D02*
D03*
X0324882Y0088031D02*
D03*
D469*
X0300591Y0081791D02*
D03*
X0296850Y0081791D02*
D03*
X0304331Y0081791D02*
D03*
X0304331Y0091240D02*
D03*
X0300591Y0091240D02*
D03*
X0296850Y0091240D02*
D03*
D470*
X0299141Y0103051D02*
D03*
X0299141Y0098326D02*
D03*
X0300610Y0112598D02*
D03*
X0387150Y0085813D02*
D03*
X0373838Y0161679D02*
D03*
X0303077Y0103051D02*
D03*
X0296672Y0112598D02*
D03*
X0301972Y0149582D02*
D03*
X0298035Y0149582D02*
D03*
X0301972Y0158637D02*
D03*
X0298035Y0158637D02*
D03*
X0303077Y0098326D02*
D03*
X0383213Y0085813D02*
D03*
X0390290Y0102528D02*
D03*
X0386353Y0102528D02*
D03*
X0369901Y0161679D02*
D03*
X0369882Y0157383D02*
D03*
X0373819Y0157383D02*
D03*
D199*
X0296684Y0121233D02*
D03*
X0296684Y0123201D02*
D03*
X0302983Y0119264D02*
D03*
X0302983Y0121233D02*
D03*
X0302983Y0117296D02*
D03*
X0302983Y0123201D02*
D03*
X0296684Y0117296D02*
D03*
X0296684Y0119264D02*
D03*
D200*
X0298849Y0123398D02*
D03*
X0300818Y0123398D02*
D03*
X0300818Y0117099D02*
D03*
X0298849Y0117099D02*
D03*
D471*
X0301589Y0128248D02*
D03*
X0301589Y0144783D02*
D03*
D472*
X0330118Y0200689D02*
D03*
X0320669Y0200689D02*
D03*
X0325394Y0200689D02*
D03*
X0334842Y0200689D02*
D03*
X0320669Y0212106D02*
D03*
X0330118Y0212106D02*
D03*
X0325394Y0212106D02*
D03*
X0334842Y0212106D02*
D03*
X0341052Y0193709D02*
D03*
X0341052Y0189772D02*
D03*
X0334842Y0208169D02*
D03*
D03*
X0334842Y0204232D02*
D03*
X0330118Y0208169D02*
D03*
X0330118Y0204232D02*
D03*
X0334842Y0196752D02*
D03*
X0325394Y0208169D02*
D03*
X0325394Y0204232D02*
D03*
X0330118Y0196752D02*
D03*
X0325394Y0196752D02*
D03*
X0320669Y0208169D02*
D03*
X0320669Y0204232D02*
D03*
X0320669Y0208169D02*
D03*
X0320669Y0196752D02*
D03*
X0330118Y0208169D02*
D03*
X0325394Y0208169D02*
D03*
X0420866Y0205807D02*
D03*
X0420866Y0209744D02*
D03*
X0396260Y0208169D02*
D03*
X0396260Y0212106D02*
D03*
X0382087Y0208169D02*
D03*
X0382087Y0212106D02*
D03*
X0363189Y0204232D02*
D03*
X0363189Y0208169D02*
D03*
X0363189Y0212106D02*
D03*
X0363189Y0208169D02*
D03*
X0349016Y0204232D02*
D03*
X0349016Y0208169D02*
D03*
X0420866Y0189074D02*
D03*
X0420866Y0193011D02*
D03*
X0415157Y0208169D02*
D03*
X0415157Y0204232D02*
D03*
X0410433Y0208169D02*
D03*
X0410433Y0204232D02*
D03*
X0405709Y0208169D02*
D03*
X0405709Y0204232D02*
D03*
X0400984Y0208169D02*
D03*
X0400984Y0204232D02*
D03*
X0415157Y0208169D02*
D03*
X0415157Y0212106D02*
D03*
X0410433Y0208169D02*
D03*
X0410433Y0212106D02*
D03*
X0405709Y0208169D02*
D03*
X0405709Y0212106D02*
D03*
X0400984Y0208169D02*
D03*
X0400984Y0212106D02*
D03*
X0396260Y0208169D02*
D03*
X0396260Y0204232D02*
D03*
X0391535Y0208169D02*
D03*
X0391535Y0204232D02*
D03*
X0386811Y0208169D02*
D03*
X0386811Y0204232D02*
D03*
X0382087Y0208169D02*
D03*
X0382087Y0204232D02*
D03*
X0391535Y0208169D02*
D03*
X0391535Y0212106D02*
D03*
X0386811Y0208169D02*
D03*
X0386811Y0212106D02*
D03*
X0377362Y0204232D02*
D03*
X0377362Y0208169D02*
D03*
X0372638Y0204232D02*
D03*
X0372638Y0208169D02*
D03*
X0367913Y0204232D02*
D03*
X0367913Y0208169D02*
D03*
X0377362Y0212106D02*
D03*
X0377362Y0208169D02*
D03*
X0372638Y0212106D02*
D03*
X0372638Y0208169D02*
D03*
X0367913Y0212106D02*
D03*
X0367913Y0208169D02*
D03*
X0358464Y0204232D02*
D03*
X0358464Y0208169D02*
D03*
X0353740Y0204232D02*
D03*
X0353740Y0208169D02*
D03*
X0344291Y0204232D02*
D03*
X0344291Y0208169D02*
D03*
X0358464Y0212106D02*
D03*
X0358464Y0208169D02*
D03*
X0353740Y0212106D02*
D03*
X0353740Y0208169D02*
D03*
X0349016Y0212106D02*
D03*
X0349016Y0208169D02*
D03*
X0344291Y0212106D02*
D03*
X0344291Y0208169D02*
D03*
X0420866Y0198130D02*
D03*
X0420866Y0202067D02*
D03*
D473*
X0356102Y0195177D02*
D03*
X0375000Y0195177D02*
D03*
X0393898Y0195177D02*
D03*
X0412795Y0195177D02*
D03*
X0384449Y0191437D02*
D03*
X0384449Y0195177D02*
D03*
X0384449Y0198917D02*
D03*
X0393898Y0198917D02*
D03*
X0393898Y0191437D02*
D03*
X0403346Y0191437D02*
D03*
X0403346Y0195177D02*
D03*
X0403346Y0198917D02*
D03*
X0412795Y0198917D02*
D03*
X0412795Y0191437D02*
D03*
X0365551Y0191437D02*
D03*
X0365551Y0195177D02*
D03*
X0365551Y0198917D02*
D03*
X0375000Y0198917D02*
D03*
X0375000Y0191437D02*
D03*
X0346653Y0191437D02*
D03*
X0346653Y0195177D02*
D03*
X0346653Y0198917D02*
D03*
X0356102Y0198917D02*
D03*
X0356102Y0191437D02*
D03*
D474*
X0390087Y0098142D02*
D03*
X0372165Y0087893D02*
D03*
D205*
X0399409Y0123265D02*
D03*
X0418307Y0128265D02*
D03*
X0418307Y0113265D02*
D03*
X0418307Y0118265D02*
D03*
X0418307Y0123265D02*
D03*
X0399409Y0113265D02*
D03*
X0399409Y0118265D02*
D03*
X0399409Y0128265D02*
D03*
D475*
X0417717Y0105624D02*
D03*
X0399606Y0105624D02*
D03*
D476*
X0383255Y0137150D02*
D03*
X0399464Y0137698D02*
D03*
X0382778Y0145310D02*
D03*
X0382778Y0152921D02*
D03*
X0399464Y0145310D02*
D03*
X0399464Y0152921D02*
D03*
X0382778Y0160533D02*
D03*
X0399464Y0160533D02*
D03*
X0389948Y0137150D02*
D03*
X0389471Y0145310D02*
D03*
X0389471Y0152921D02*
D03*
X0389471Y0160533D02*
D03*
X0406157Y0145310D02*
D03*
X0406157Y0137698D02*
D03*
X0389948Y0129173D02*
D03*
X0383255Y0129173D02*
D03*
X0383255Y0122086D02*
D03*
X0389948Y0122086D02*
D03*
X0389948Y0115000D02*
D03*
X0383255Y0115000D02*
D03*
X0383255Y0107913D02*
D03*
X0389948Y0107913D02*
D03*
X0406157Y0152921D02*
D03*
X0406157Y0160533D02*
D03*
X0383255Y0080413D02*
D03*
X0389948Y0080413D02*
D03*
D477*
X0296581Y0107826D02*
D03*
X0302881Y0107826D02*
D03*
X0303941Y0154267D02*
D03*
X0297641Y0154267D02*
D03*
D478*
X0337206Y0084884D02*
D03*
X0353741Y0084884D02*
D03*
D474*
X0372165Y0080413D02*
D03*
X0362913Y0084153D02*
D03*
X0390087Y0090662D02*
D03*
X0380835Y0094402D02*
D03*
D479*
X0408661Y0081214D02*
D03*
D480*
X0408661Y0105624D02*
D03*
D212*
X0339370Y0208169D02*
D03*
X0420276Y0214074D02*
D03*
D481*
X0302179Y0190427D02*
D03*
X0302179Y0172711D02*
D03*
D214*
X0347087Y0163090D02*
D03*
X0332874Y0163090D02*
D03*
X0362874Y0163090D02*
D03*
D215*
X0309882Y0085531D02*
D03*
X0329882Y0089531D02*
D03*
X0329882Y0081531D02*
D03*
D35*
X0420669Y0079822D02*
D03*
X0015157Y0143799D02*
%LPD*%
G01*
G36*
G01*
X0050866Y0076191D02*
X0050866Y0077549D01*
G75*
G02*
X0051446Y0078130I0000581J0000000D01*
G01*
X0052608Y0078130D01*
G75*
G02*
X0053188Y0077549I0000000J-000581D01*
G01*
X0053188Y0076191D01*
G75*
G02*
X0052608Y0075610I-000581J0000000D01*
G01*
X0051446Y0075610D01*
G75*
G02*
X0050866Y0076191I0000000J0000581D01*
G01*
G37*
G36*
G01*
X0054685Y0076191D02*
X0054685Y0077549D01*
G75*
G02*
X0055265Y0078130I0000581J0000000D01*
G01*
X0056427Y0078130D01*
G75*
G02*
X0057007Y0077549I0000000J-000581D01*
G01*
X0057007Y0076191D01*
G75*
G02*
X0056427Y0075610I-000581J0000000D01*
G01*
X0055265Y0075610D01*
G75*
G02*
X0054685Y0076191I0000000J0000581D01*
G01*
G37*
G36*
G01*
X0035442Y0134764D02*
X0036801Y0134764D01*
G75*
G02*
X0037381Y0134183I0000000J-000581D01*
G01*
X0037381Y0133021D01*
G75*
G02*
X0036801Y0132441I-000581J0000000D01*
G01*
X0035442Y0132441D01*
G75*
G02*
X0034862Y0133021I0000000J0000581D01*
G01*
X0034862Y0134183D01*
G75*
G02*
X0035442Y0134764I0000581J0000000D01*
G01*
G37*
G36*
G01*
X0035442Y0130945D02*
X0036801Y0130945D01*
G75*
G02*
X0037381Y0130364I0000000J-000581D01*
G01*
X0037381Y0129203D01*
G75*
G02*
X0036801Y0128622I-000581J0000000D01*
G01*
X0035442Y0128622D01*
G75*
G02*
X0034862Y0129203I0000000J0000581D01*
G01*
X0034862Y0130364D01*
G75*
G02*
X0035442Y0130945I0000581J0000000D01*
G01*
G37*
G36*
G01*
X0050639Y0124237D02*
X0050639Y0122219D01*
G75*
G02*
X0049778Y0121358I-000861J0000000D01*
G01*
X0048056Y0121358D01*
G75*
G02*
X0047194Y0122219I0000000J0000861D01*
G01*
X0047194Y0124237D01*
G75*
G02*
X0048056Y0125098I0000861J0000000D01*
G01*
X0049778Y0125098D01*
G75*
G02*
X0050639Y0124237I0000000J-000861D01*
G01*
G37*
G36*
G01*
X0044438Y0124237D02*
X0044438Y0122219D01*
G75*
G02*
X0043577Y0121358I-000861J0000000D01*
G01*
X0041855Y0121358D01*
G75*
G02*
X0040994Y0122219I0000000J0000861D01*
G01*
X0040994Y0124237D01*
G75*
G02*
X0041855Y0125098I0000861J0000000D01*
G01*
X0043577Y0125098D01*
G75*
G02*
X0044438Y0124237I0000000J-000861D01*
G01*
G37*
G36*
G01*
X0025610Y0077746D02*
X0025610Y0076388D01*
G75*
G02*
X0025029Y0075807I-000581J0000000D01*
G01*
X0023868Y0075807D01*
G75*
G02*
X0023287Y0076388I0000000J0000581D01*
G01*
X0023287Y0077746D01*
G75*
G02*
X0023868Y0078327I0000581J0000000D01*
G01*
X0025029Y0078327D01*
G75*
G02*
X0025610Y0077746I0000000J-000581D01*
G01*
G37*
G36*
G01*
X0021791Y0077746D02*
X0021791Y0076388D01*
G75*
G02*
X0021210Y0075807I-000581J0000000D01*
G01*
X0020049Y0075807D01*
G75*
G02*
X0019468Y0076388I0000000J0000581D01*
G01*
X0019468Y0077746D01*
G75*
G02*
X0020049Y0078327I0000581J0000000D01*
G01*
X0021210Y0078327D01*
G75*
G02*
X0021791Y0077746I0000000J-000581D01*
G01*
G37*
D147*
X0041437Y0128937D03*
X0048917Y0128937D03*
X0045177Y0136811D03*
G36*
G01*
X0025610Y0081929D02*
X0025610Y0080571D01*
G75*
G02*
X0025029Y0079990I-000581J0000000D01*
G01*
X0023868Y0079990D01*
G75*
G02*
X0023287Y0080571I0000000J0000581D01*
G01*
X0023287Y0081929D01*
G75*
G02*
X0023868Y0082510I0000581J0000000D01*
G01*
X0025029Y0082510D01*
G75*
G02*
X0025610Y0081929I0000000J-000581D01*
G01*
G37*
G36*
G01*
X0021791Y0081929D02*
X0021791Y0080571D01*
G75*
G02*
X0021210Y0079990I-000581J0000000D01*
G01*
X0020049Y0079990D01*
G75*
G02*
X0019468Y0080571I0000000J0000581D01*
G01*
X0019468Y0081929D01*
G75*
G02*
X0020049Y0082510I0000581J0000000D01*
G01*
X0021210Y0082510D01*
G75*
G02*
X0021791Y0081929I0000000J-000581D01*
G01*
G37*
G36*
G01*
X0049527Y0077549D02*
X0049527Y0076191D01*
G75*
G02*
X0048946Y0075610I-000581J0000000D01*
G01*
X0047785Y0075610D01*
G75*
G02*
X0047204Y0076191I0000000J0000581D01*
G01*
X0047204Y0077549D01*
G75*
G02*
X0047785Y0078130I0000581J0000000D01*
G01*
X0048946Y0078130D01*
G75*
G02*
X0049527Y0077549I0000000J-000581D01*
G01*
G37*
G36*
G01*
X0045708Y0077549D02*
X0045708Y0076191D01*
G75*
G02*
X0045127Y0075610I-000581J0000000D01*
G01*
X0043966Y0075610D01*
G75*
G02*
X0043385Y0076191I0000000J0000581D01*
G01*
X0043385Y0077549D01*
G75*
G02*
X0043966Y0078130I0000581J0000000D01*
G01*
X0045127Y0078130D01*
G75*
G02*
X0045708Y0077549I0000000J-000581D01*
G01*
G37*
G36*
G01*
X0061791Y0081309D02*
X0061791Y0082667D01*
G75*
G02*
X0062372Y0083248I0000581J0000000D01*
G01*
X0063533Y0083248D01*
G75*
G02*
X0064114Y0082667I0000000J-000581D01*
G01*
X0064114Y0081309D01*
G75*
G02*
X0063533Y0080728I-000581J0000000D01*
G01*
X0062372Y0080728D01*
G75*
G02*
X0061791Y0081309I0000000J0000581D01*
G01*
G37*
G36*
G01*
X0065610Y0081309D02*
X0065610Y0082667D01*
G75*
G02*
X0066190Y0083248I0000581J0000000D01*
G01*
X0067352Y0083248D01*
G75*
G02*
X0067933Y0082667I0000000J-000581D01*
G01*
X0067933Y0081309D01*
G75*
G02*
X0067352Y0080728I-000581J0000000D01*
G01*
X0066190Y0080728D01*
G75*
G02*
X0065610Y0081309I0000000J0000581D01*
G01*
G37*
G36*
G01*
X0035019Y0076191D02*
X0035019Y0077549D01*
G75*
G02*
X0035600Y0078130I0000581J0000000D01*
G01*
X0036761Y0078130D01*
G75*
G02*
X0037342Y0077549I0000000J-000581D01*
G01*
X0037342Y0076191D01*
G75*
G02*
X0036761Y0075610I-000581J0000000D01*
G01*
X0035600Y0075610D01*
G75*
G02*
X0035019Y0076191I0000000J0000581D01*
G01*
G37*
G36*
G01*
X0038838Y0076191D02*
X0038838Y0077549D01*
G75*
G02*
X0039419Y0078130I0000581J0000000D01*
G01*
X0040580Y0078130D01*
G75*
G02*
X0041161Y0077549I0000000J-000581D01*
G01*
X0041161Y0076191D01*
G75*
G02*
X0040580Y0075610I-000581J0000000D01*
G01*
X0039419Y0075610D01*
G75*
G02*
X0038838Y0076191I0000000J0000581D01*
G01*
G37*
G36*
G01*
X0061791Y0115955D02*
X0061791Y0117313D01*
G75*
G02*
X0062372Y0117893I0000581J0000000D01*
G01*
X0063533Y0117893D01*
G75*
G02*
X0064114Y0117313I0000000J-000581D01*
G01*
X0064114Y0115955D01*
G75*
G02*
X0063533Y0115374I-000581J0000000D01*
G01*
X0062372Y0115374D01*
G75*
G02*
X0061791Y0115955I0000000J0000581D01*
G01*
G37*
G36*
G01*
X0065610Y0115955D02*
X0065610Y0117313D01*
G75*
G02*
X0066190Y0117893I0000581J0000000D01*
G01*
X0067352Y0117893D01*
G75*
G02*
X0067933Y0117313I0000000J-000581D01*
G01*
X0067933Y0115955D01*
G75*
G02*
X0067352Y0115374I-000581J0000000D01*
G01*
X0066190Y0115374D01*
G75*
G02*
X0065610Y0115955I0000000J0000581D01*
G01*
G37*
D368*
X0055118Y0051516D03*
D145*
X0026771Y0052618D03*
X0038582Y0060492D03*
X0026771Y0068366D03*
D369*
X0030314Y0060492D03*
D368*
X0055118Y0069468D03*
G36*
G01*
X0035344Y0126988D02*
X0036702Y0126988D01*
G75*
G02*
X0037283Y0126407I0000000J-000581D01*
G01*
X0037283Y0125246D01*
G75*
G02*
X0036702Y0124665I-000581J0000000D01*
G01*
X0035344Y0124665D01*
G75*
G02*
X0034763Y0125246I0000000J0000581D01*
G01*
X0034763Y0126407D01*
G75*
G02*
X0035344Y0126988I0000581J0000000D01*
G01*
G37*
G36*
G01*
X0035344Y0123169D02*
X0036702Y0123169D01*
G75*
G02*
X0037283Y0122588I0000000J-000581D01*
G01*
X0037283Y0121427D01*
G75*
G02*
X0036702Y0120846I-000581J0000000D01*
G01*
X0035344Y0120846D01*
G75*
G02*
X0034763Y0121427I0000000J0000581D01*
G01*
X0034763Y0122588D01*
G75*
G02*
X0035344Y0123169I0000581J0000000D01*
G01*
G37*
G36*
G01*
X0021678Y0088484D02*
X0019660Y0088484D01*
G75*
G02*
X0018799Y0089345I0000000J0000861D01*
G01*
X0018799Y0091068D01*
G75*
G02*
X0019660Y0091929I0000861J0000000D01*
G01*
X0021678Y0091929D01*
G75*
G02*
X0022539Y0091068I0000000J-000861D01*
G01*
X0022539Y0089345D01*
G75*
G02*
X0021678Y0088484I-000861J0000000D01*
G01*
G37*
G36*
G01*
X0021678Y0094685D02*
X0019660Y0094685D01*
G75*
G02*
X0018799Y0095546I0000000J0000861D01*
G01*
X0018799Y0097268D01*
G75*
G02*
X0019660Y0098130I0000861J0000000D01*
G01*
X0021678Y0098130D01*
G75*
G02*
X0022539Y0097268I0000000J-000861D01*
G01*
X0022539Y0095546D01*
G75*
G02*
X0021678Y0094685I-000861J0000000D01*
G01*
G37*
G36*
G01*
X0025610Y0086112D02*
X0025610Y0084754D01*
G75*
G02*
X0025029Y0084173I-000581J0000000D01*
G01*
X0023868Y0084173D01*
G75*
G02*
X0023287Y0084754I0000000J0000581D01*
G01*
X0023287Y0086112D01*
G75*
G02*
X0023868Y0086693I0000581J0000000D01*
G01*
X0025029Y0086693D01*
G75*
G02*
X0025610Y0086112I0000000J-000581D01*
G01*
G37*
G36*
G01*
X0021791Y0086112D02*
X0021791Y0084754D01*
G75*
G02*
X0021210Y0084173I-000581J0000000D01*
G01*
X0020049Y0084173D01*
G75*
G02*
X0019468Y0084754I0000000J0000581D01*
G01*
X0019468Y0086112D01*
G75*
G02*
X0020049Y0086693I0000581J0000000D01*
G01*
X0021210Y0086693D01*
G75*
G02*
X0021791Y0086112I0000000J-000581D01*
G01*
G37*
G36*
G01*
X0021063Y0042003D02*
X0021063Y0044020D01*
G75*
G02*
X0021924Y0044882I0000861J0000000D01*
G01*
X0023646Y0044882D01*
G75*
G02*
X0024507Y0044020I0000000J-000861D01*
G01*
X0024507Y0042003D01*
G75*
G02*
X0023646Y0041142I-000861J0000000D01*
G01*
X0021924Y0041142D01*
G75*
G02*
X0021063Y0042003I0000000J0000861D01*
G01*
G37*
G36*
G01*
X0027263Y0042003D02*
X0027263Y0044020D01*
G75*
G02*
X0028125Y0044882I0000861J0000000D01*
G01*
X0029847Y0044882D01*
G75*
G02*
X0030708Y0044020I0000000J-000861D01*
G01*
X0030708Y0042003D01*
G75*
G02*
X0029847Y0041142I-000861J0000000D01*
G01*
X0028125Y0041142D01*
G75*
G02*
X0027263Y0042003I0000000J0000861D01*
G01*
G37*
G36*
G01*
X0019660Y0109842D02*
X0021678Y0109842D01*
G75*
G02*
X0022539Y0108981I0000000J-000861D01*
G01*
X0022539Y0107259D01*
G75*
G02*
X0021678Y0106397I-000861J0000000D01*
G01*
X0019660Y0106397D01*
G75*
G02*
X0018799Y0107259I0000000J0000861D01*
G01*
X0018799Y0108981D01*
G75*
G02*
X0019660Y0109842I0000861J0000000D01*
G01*
G37*
G36*
G01*
X0019660Y0103642D02*
X0021678Y0103642D01*
G75*
G02*
X0022539Y0102780I0000000J-000861D01*
G01*
X0022539Y0101058D01*
G75*
G02*
X0021678Y0100197I-000861J0000000D01*
G01*
X0019660Y0100197D01*
G75*
G02*
X0018799Y0101058I0000000J0000861D01*
G01*
X0018799Y0102780D01*
G75*
G02*
X0019660Y0103642I0000861J0000000D01*
G01*
G37*
G36*
G01*
X0023838Y0114163D02*
X0023838Y0112805D01*
G75*
G02*
X0023257Y0112224I-000581J0000000D01*
G01*
X0022096Y0112224D01*
G75*
G02*
X0021515Y0112805I0000000J0000581D01*
G01*
X0021515Y0114163D01*
G75*
G02*
X0022096Y0114744I0000581J0000000D01*
G01*
X0023257Y0114744D01*
G75*
G02*
X0023838Y0114163I0000000J-000581D01*
G01*
G37*
G36*
G01*
X0020019Y0114163D02*
X0020019Y0112805D01*
G75*
G02*
X0019438Y0112224I-000581J0000000D01*
G01*
X0018277Y0112224D01*
G75*
G02*
X0017696Y0112805I0000000J0000581D01*
G01*
X0017696Y0114163D01*
G75*
G02*
X0018277Y0114744I0000581J0000000D01*
G01*
X0019438Y0114744D01*
G75*
G02*
X0020019Y0114163I0000000J-000581D01*
G01*
G37*
G36*
G01*
X0036515Y0079724D02*
X0035531Y0079724D01*
G75*
G02*
X0035039Y0080216I0000000J0000492D01*
G01*
X0035039Y0085138D01*
G75*
G02*
X0035531Y0085630I0000492J0000000D01*
G01*
X0036515Y0085630D01*
G75*
G02*
X0037007Y0085138I0000000J-000492D01*
G01*
X0037007Y0080216D01*
G75*
G02*
X0036515Y0079724I-000492J0000000D01*
G01*
G37*
G36*
G01*
X0039665Y0079724D02*
X0038681Y0079724D01*
G75*
G02*
X0038188Y0080216I0000000J0000492D01*
G01*
X0038188Y0085138D01*
G75*
G02*
X0038681Y0085630I0000492J0000000D01*
G01*
X0039665Y0085630D01*
G75*
G02*
X0040157Y0085138I0000000J-000492D01*
G01*
X0040157Y0080216D01*
G75*
G02*
X0039665Y0079724I-000492J0000000D01*
G01*
G37*
G36*
G01*
X0042814Y0079724D02*
X0041830Y0079724D01*
G75*
G02*
X0041338Y0080216I0000000J0000492D01*
G01*
X0041338Y0085138D01*
G75*
G02*
X0041830Y0085630I0000492J0000000D01*
G01*
X0042814Y0085630D01*
G75*
G02*
X0043307Y0085138I0000000J-000492D01*
G01*
X0043307Y0080216D01*
G75*
G02*
X0042814Y0079724I-000492J0000000D01*
G01*
G37*
G36*
G01*
X0045964Y0079724D02*
X0044980Y0079724D01*
G75*
G02*
X0044488Y0080216I0000000J0000492D01*
G01*
X0044488Y0085138D01*
G75*
G02*
X0044980Y0085630I0000492J0000000D01*
G01*
X0045964Y0085630D01*
G75*
G02*
X0046456Y0085138I0000000J-000492D01*
G01*
X0046456Y0080216D01*
G75*
G02*
X0045964Y0079724I-000492J0000000D01*
G01*
G37*
G36*
G01*
X0049114Y0079724D02*
X0048129Y0079724D01*
G75*
G02*
X0047637Y0080216I0000000J0000492D01*
G01*
X0047637Y0085138D01*
G75*
G02*
X0048129Y0085630I0000492J0000000D01*
G01*
X0049114Y0085630D01*
G75*
G02*
X0049606Y0085138I0000000J-000492D01*
G01*
X0049606Y0080216D01*
G75*
G02*
X0049114Y0079724I-000492J0000000D01*
G01*
G37*
G36*
G01*
X0052263Y0079724D02*
X0051279Y0079724D01*
G75*
G02*
X0050787Y0080216I0000000J0000492D01*
G01*
X0050787Y0085138D01*
G75*
G02*
X0051279Y0085630I0000492J0000000D01*
G01*
X0052263Y0085630D01*
G75*
G02*
X0052755Y0085138I0000000J-000492D01*
G01*
X0052755Y0080216D01*
G75*
G02*
X0052263Y0079724I-000492J0000000D01*
G01*
G37*
G36*
G01*
X0055413Y0079724D02*
X0054429Y0079724D01*
G75*
G02*
X0053937Y0080216I0000000J0000492D01*
G01*
X0053937Y0085138D01*
G75*
G02*
X0054429Y0085630I0000492J0000000D01*
G01*
X0055413Y0085630D01*
G75*
G02*
X0055905Y0085138I0000000J-000492D01*
G01*
X0055905Y0080216D01*
G75*
G02*
X0055413Y0079724I-000492J0000000D01*
G01*
G37*
G36*
G01*
X0058563Y0079724D02*
X0057578Y0079724D01*
G75*
G02*
X0057086Y0080216I0000000J0000492D01*
G01*
X0057086Y0085138D01*
G75*
G02*
X0057578Y0085630I0000492J0000000D01*
G01*
X0058563Y0085630D01*
G75*
G02*
X0059055Y0085138I0000000J-000492D01*
G01*
X0059055Y0080216D01*
G75*
G02*
X0058563Y0079724I-000492J0000000D01*
G01*
G37*
G36*
G01*
X0065944Y0087106D02*
X0061023Y0087106D01*
G75*
G02*
X0060531Y0087598I0000000J0000492D01*
G01*
X0060531Y0088582D01*
G75*
G02*
X0061023Y0089075I0000492J0000000D01*
G01*
X0065944Y0089075D01*
G75*
G02*
X0066437Y0088582I0000000J-000492D01*
G01*
X0066437Y0087598D01*
G75*
G02*
X0065944Y0087106I-000492J0000000D01*
G01*
G37*
G36*
G01*
X0065944Y0090256D02*
X0061023Y0090256D01*
G75*
G02*
X0060531Y0090748I0000000J0000492D01*
G01*
X0060531Y0091732D01*
G75*
G02*
X0061023Y0092224I0000492J0000000D01*
G01*
X0065944Y0092224D01*
G75*
G02*
X0066437Y0091732I0000000J-000492D01*
G01*
X0066437Y0090748D01*
G75*
G02*
X0065944Y0090256I-000492J0000000D01*
G01*
G37*
G36*
G01*
X0065944Y0093405D02*
X0061023Y0093405D01*
G75*
G02*
X0060531Y0093897I0000000J0000492D01*
G01*
X0060531Y0094882D01*
G75*
G02*
X0061023Y0095374I0000492J0000000D01*
G01*
X0065944Y0095374D01*
G75*
G02*
X0066437Y0094882I0000000J-000492D01*
G01*
X0066437Y0093897D01*
G75*
G02*
X0065944Y0093405I-000492J0000000D01*
G01*
G37*
G36*
G01*
X0065944Y0096555D02*
X0061023Y0096555D01*
G75*
G02*
X0060531Y0097047I0000000J0000492D01*
G01*
X0060531Y0098031D01*
G75*
G02*
X0061023Y0098523I0000492J0000000D01*
G01*
X0065944Y0098523D01*
G75*
G02*
X0066437Y0098031I0000000J-000492D01*
G01*
X0066437Y0097047D01*
G75*
G02*
X0065944Y0096555I-000492J0000000D01*
G01*
G37*
G36*
G01*
X0065944Y0099705D02*
X0061023Y0099705D01*
G75*
G02*
X0060531Y0100197I0000000J0000492D01*
G01*
X0060531Y0101181D01*
G75*
G02*
X0061023Y0101673I0000492J0000000D01*
G01*
X0065944Y0101673D01*
G75*
G02*
X0066437Y0101181I0000000J-000492D01*
G01*
X0066437Y0100197D01*
G75*
G02*
X0065944Y0099705I-000492J0000000D01*
G01*
G37*
G36*
G01*
X0065944Y0102854D02*
X0061023Y0102854D01*
G75*
G02*
X0060531Y0103346I0000000J0000492D01*
G01*
X0060531Y0104330D01*
G75*
G02*
X0061023Y0104823I0000492J0000000D01*
G01*
X0065944Y0104823D01*
G75*
G02*
X0066437Y0104330I0000000J-000492D01*
G01*
X0066437Y0103346D01*
G75*
G02*
X0065944Y0102854I-000492J0000000D01*
G01*
G37*
G36*
G01*
X0065944Y0106004D02*
X0061023Y0106004D01*
G75*
G02*
X0060531Y0106496I0000000J0000492D01*
G01*
X0060531Y0107480D01*
G75*
G02*
X0061023Y0107972I0000492J0000000D01*
G01*
X0065944Y0107972D01*
G75*
G02*
X0066437Y0107480I0000000J-000492D01*
G01*
X0066437Y0106496D01*
G75*
G02*
X0065944Y0106004I-000492J0000000D01*
G01*
G37*
G36*
G01*
X0065944Y0109153D02*
X0061023Y0109153D01*
G75*
G02*
X0060531Y0109645I0000000J0000492D01*
G01*
X0060531Y0110630D01*
G75*
G02*
X0061023Y0111122I0000492J0000000D01*
G01*
X0065944Y0111122D01*
G75*
G02*
X0066437Y0110630I0000000J-000492D01*
G01*
X0066437Y0109645D01*
G75*
G02*
X0065944Y0109153I-000492J0000000D01*
G01*
G37*
G36*
G01*
X0058563Y0112598D02*
X0057578Y0112598D01*
G75*
G02*
X0057086Y0113090I0000000J0000492D01*
G01*
X0057086Y0118012D01*
G75*
G02*
X0057578Y0118504I0000492J0000000D01*
G01*
X0058563Y0118504D01*
G75*
G02*
X0059055Y0118012I0000000J-000492D01*
G01*
X0059055Y0113090D01*
G75*
G02*
X0058563Y0112598I-000492J0000000D01*
G01*
G37*
G36*
G01*
X0055413Y0112598D02*
X0054429Y0112598D01*
G75*
G02*
X0053937Y0113090I0000000J0000492D01*
G01*
X0053937Y0118012D01*
G75*
G02*
X0054429Y0118504I0000492J0000000D01*
G01*
X0055413Y0118504D01*
G75*
G02*
X0055905Y0118012I0000000J-000492D01*
G01*
X0055905Y0113090D01*
G75*
G02*
X0055413Y0112598I-000492J0000000D01*
G01*
G37*
G36*
G01*
X0052263Y0112598D02*
X0051279Y0112598D01*
G75*
G02*
X0050787Y0113090I0000000J0000492D01*
G01*
X0050787Y0118012D01*
G75*
G02*
X0051279Y0118504I0000492J0000000D01*
G01*
X0052263Y0118504D01*
G75*
G02*
X0052755Y0118012I0000000J-000492D01*
G01*
X0052755Y0113090D01*
G75*
G02*
X0052263Y0112598I-000492J0000000D01*
G01*
G37*
G36*
G01*
X0049114Y0112598D02*
X0048129Y0112598D01*
G75*
G02*
X0047637Y0113090I0000000J0000492D01*
G01*
X0047637Y0118012D01*
G75*
G02*
X0048129Y0118504I0000492J0000000D01*
G01*
X0049114Y0118504D01*
G75*
G02*
X0049606Y0118012I0000000J-000492D01*
G01*
X0049606Y0113090D01*
G75*
G02*
X0049114Y0112598I-000492J0000000D01*
G01*
G37*
G36*
G01*
X0045964Y0112598D02*
X0044980Y0112598D01*
G75*
G02*
X0044488Y0113090I0000000J0000492D01*
G01*
X0044488Y0118012D01*
G75*
G02*
X0044980Y0118504I0000492J0000000D01*
G01*
X0045964Y0118504D01*
G75*
G02*
X0046456Y0118012I0000000J-000492D01*
G01*
X0046456Y0113090D01*
G75*
G02*
X0045964Y0112598I-000492J0000000D01*
G01*
G37*
G36*
G01*
X0042814Y0112598D02*
X0041830Y0112598D01*
G75*
G02*
X0041338Y0113090I0000000J0000492D01*
G01*
X0041338Y0118012D01*
G75*
G02*
X0041830Y0118504I0000492J0000000D01*
G01*
X0042814Y0118504D01*
G75*
G02*
X0043307Y0118012I0000000J-000492D01*
G01*
X0043307Y0113090D01*
G75*
G02*
X0042814Y0112598I-000492J0000000D01*
G01*
G37*
G36*
G01*
X0039665Y0112598D02*
X0038681Y0112598D01*
G75*
G02*
X0038188Y0113090I0000000J0000492D01*
G01*
X0038188Y0118012D01*
G75*
G02*
X0038681Y0118504I0000492J0000000D01*
G01*
X0039665Y0118504D01*
G75*
G02*
X0040157Y0118012I0000000J-000492D01*
G01*
X0040157Y0113090D01*
G75*
G02*
X0039665Y0112598I-000492J0000000D01*
G01*
G37*
G36*
G01*
X0036515Y0112598D02*
X0035531Y0112598D01*
G75*
G02*
X0035039Y0113090I0000000J0000492D01*
G01*
X0035039Y0118012D01*
G75*
G02*
X0035531Y0118504I0000492J0000000D01*
G01*
X0036515Y0118504D01*
G75*
G02*
X0037007Y0118012I0000000J-000492D01*
G01*
X0037007Y0113090D01*
G75*
G02*
X0036515Y0112598I-000492J0000000D01*
G01*
G37*
G36*
G01*
X0033070Y0109153D02*
X0028149Y0109153D01*
G75*
G02*
X0027657Y0109645I0000000J0000492D01*
G01*
X0027657Y0110630D01*
G75*
G02*
X0028149Y0111122I0000492J0000000D01*
G01*
X0033070Y0111122D01*
G75*
G02*
X0033563Y0110630I0000000J-000492D01*
G01*
X0033563Y0109645D01*
G75*
G02*
X0033070Y0109153I-000492J0000000D01*
G01*
G37*
G36*
G01*
X0033070Y0106004D02*
X0028149Y0106004D01*
G75*
G02*
X0027657Y0106496I0000000J0000492D01*
G01*
X0027657Y0107480D01*
G75*
G02*
X0028149Y0107972I0000492J0000000D01*
G01*
X0033070Y0107972D01*
G75*
G02*
X0033563Y0107480I0000000J-000492D01*
G01*
X0033563Y0106496D01*
G75*
G02*
X0033070Y0106004I-000492J0000000D01*
G01*
G37*
G36*
G01*
X0033070Y0102854D02*
X0028149Y0102854D01*
G75*
G02*
X0027657Y0103346I0000000J0000492D01*
G01*
X0027657Y0104330D01*
G75*
G02*
X0028149Y0104823I0000492J0000000D01*
G01*
X0033070Y0104823D01*
G75*
G02*
X0033563Y0104330I0000000J-000492D01*
G01*
X0033563Y0103346D01*
G75*
G02*
X0033070Y0102854I-000492J0000000D01*
G01*
G37*
G36*
G01*
X0033070Y0099705D02*
X0028149Y0099705D01*
G75*
G02*
X0027657Y0100197I0000000J0000492D01*
G01*
X0027657Y0101181D01*
G75*
G02*
X0028149Y0101673I0000492J0000000D01*
G01*
X0033070Y0101673D01*
G75*
G02*
X0033563Y0101181I0000000J-000492D01*
G01*
X0033563Y0100197D01*
G75*
G02*
X0033070Y0099705I-000492J0000000D01*
G01*
G37*
G36*
G01*
X0033070Y0096555D02*
X0028149Y0096555D01*
G75*
G02*
X0027657Y0097047I0000000J0000492D01*
G01*
X0027657Y0098031D01*
G75*
G02*
X0028149Y0098523I0000492J0000000D01*
G01*
X0033070Y0098523D01*
G75*
G02*
X0033563Y0098031I0000000J-000492D01*
G01*
X0033563Y0097047D01*
G75*
G02*
X0033070Y0096555I-000492J0000000D01*
G01*
G37*
G36*
G01*
X0033070Y0093405D02*
X0028149Y0093405D01*
G75*
G02*
X0027657Y0093897I0000000J0000492D01*
G01*
X0027657Y0094882D01*
G75*
G02*
X0028149Y0095374I0000492J0000000D01*
G01*
X0033070Y0095374D01*
G75*
G02*
X0033563Y0094882I0000000J-000492D01*
G01*
X0033563Y0093897D01*
G75*
G02*
X0033070Y0093405I-000492J0000000D01*
G01*
G37*
G36*
G01*
X0033070Y0090256D02*
X0028149Y0090256D01*
G75*
G02*
X0027657Y0090748I0000000J0000492D01*
G01*
X0027657Y0091732D01*
G75*
G02*
X0028149Y0092224I0000492J0000000D01*
G01*
X0033070Y0092224D01*
G75*
G02*
X0033563Y0091732I0000000J-000492D01*
G01*
X0033563Y0090748D01*
G75*
G02*
X0033070Y0090256I-000492J0000000D01*
G01*
G37*
G36*
G01*
X0033070Y0087106D02*
X0028149Y0087106D01*
G75*
G02*
X0027657Y0087598I0000000J0000492D01*
G01*
X0027657Y0088582D01*
G75*
G02*
X0028149Y0089075I0000492J0000000D01*
G01*
X0033070Y0089075D01*
G75*
G02*
X0033563Y0088582I0000000J-000492D01*
G01*
X0033563Y0087598D01*
G75*
G02*
X0033070Y0087106I-000492J0000000D01*
G01*
G37*
G36*
G01*
X0054616Y0121732D02*
X0053257Y0121732D01*
G75*
G02*
X0052677Y0122313I0000000J0000581D01*
G01*
X0052677Y0123474D01*
G75*
G02*
X0053257Y0124055I0000581J0000000D01*
G01*
X0054616Y0124055D01*
G75*
G02*
X0055196Y0123474I0000000J-000581D01*
G01*
X0055196Y0122313D01*
G75*
G02*
X0054616Y0121732I-000581J0000000D01*
G01*
G37*
G36*
G01*
X0054616Y0125551D02*
X0053257Y0125551D01*
G75*
G02*
X0052677Y0126132I0000000J0000581D01*
G01*
X0052677Y0127293D01*
G75*
G02*
X0053257Y0127874I0000581J0000000D01*
G01*
X0054616Y0127874D01*
G75*
G02*
X0055196Y0127293I0000000J-000581D01*
G01*
X0055196Y0126132D01*
G75*
G02*
X0054616Y0125551I-000581J0000000D01*
G01*
G37*
G36*
G01*
X0031220Y0114655D02*
X0031220Y0113297D01*
G75*
G02*
X0030639Y0112716I-000581J0000000D01*
G01*
X0029478Y0112716D01*
G75*
G02*
X0028897Y0113297I0000000J0000581D01*
G01*
X0028897Y0114655D01*
G75*
G02*
X0029478Y0115236I0000581J0000000D01*
G01*
X0030639Y0115236D01*
G75*
G02*
X0031220Y0114655I0000000J-000581D01*
G01*
G37*
G36*
G01*
X0027401Y0114655D02*
X0027401Y0113297D01*
G75*
G02*
X0026820Y0112716I-000581J0000000D01*
G01*
X0025659Y0112716D01*
G75*
G02*
X0025078Y0113297I0000000J0000581D01*
G01*
X0025078Y0114655D01*
G75*
G02*
X0025659Y0115236I0000581J0000000D01*
G01*
X0026820Y0115236D01*
G75*
G02*
X0027401Y0114655I0000000J-000581D01*
G01*
G37*
G36*
G01*
X0053257Y0138299D02*
X0054616Y0138299D01*
G75*
G02*
X0055196Y0137718I0000000J-000581D01*
G01*
X0055196Y0136557D01*
G75*
G02*
X0054616Y0135976I-000581J0000000D01*
G01*
X0053257Y0135976D01*
G75*
G02*
X0052677Y0136557I0000000J0000581D01*
G01*
X0052677Y0137718D01*
G75*
G02*
X0053257Y0138299I0000581J0000000D01*
G01*
G37*
G36*
G01*
X0053257Y0134480D02*
X0054616Y0134480D01*
G75*
G02*
X0055196Y0133899I0000000J-000581D01*
G01*
X0055196Y0132738D01*
G75*
G02*
X0054616Y0132157I-000581J0000000D01*
G01*
X0053257Y0132157D01*
G75*
G02*
X0052677Y0132738I0000000J0000581D01*
G01*
X0052677Y0133899D01*
G75*
G02*
X0053257Y0134480I0000581J0000000D01*
G01*
G37*
D143*
X0058858Y0136811D03*
X0058858Y0129330D03*
X0066732Y0133071D03*
G36*
G01*
X0033090Y0077746D02*
X0033090Y0076388D01*
G75*
G02*
X0032509Y0075807I-000581J0000000D01*
G01*
X0031348Y0075807D01*
G75*
G02*
X0030767Y0076388I0000000J0000581D01*
G01*
X0030767Y0077746D01*
G75*
G02*
X0031348Y0078327I0000581J0000000D01*
G01*
X0032509Y0078327D01*
G75*
G02*
X0033090Y0077746I0000000J-000581D01*
G01*
G37*
G36*
G01*
X0029271Y0077746D02*
X0029271Y0076388D01*
G75*
G02*
X0028690Y0075807I-000581J0000000D01*
G01*
X0027529Y0075807D01*
G75*
G02*
X0026948Y0076388I0000000J0000581D01*
G01*
X0026948Y0077746D01*
G75*
G02*
X0027529Y0078327I0000581J0000000D01*
G01*
X0028690Y0078327D01*
G75*
G02*
X0029271Y0077746I0000000J-000581D01*
G01*
G37*
G36*
G01*
X0068129Y0123873D02*
X0068129Y0121855D01*
G75*
G02*
X0067268Y0120994I-000861J0000000D01*
G01*
X0065546Y0120994D01*
G75*
G02*
X0064685Y0121855I0000000J0000861D01*
G01*
X0064685Y0123873D01*
G75*
G02*
X0065546Y0124734I0000861J0000000D01*
G01*
X0067268Y0124734D01*
G75*
G02*
X0068129Y0123873I0000000J-000861D01*
G01*
G37*
G36*
G01*
X0061929Y0123873D02*
X0061929Y0121855D01*
G75*
G02*
X0061067Y0120994I-000861J0000000D01*
G01*
X0059345Y0120994D01*
G75*
G02*
X0058484Y0121855I0000000J0000861D01*
G01*
X0058484Y0123873D01*
G75*
G02*
X0059345Y0124734I0000861J0000000D01*
G01*
X0061067Y0124734D01*
G75*
G02*
X0061929Y0123873I0000000J-000861D01*
G01*
G37*
D158*
X0025984Y0139626D03*
X0021984Y0119626D03*
X0029984Y0119626D03*
D155*
X0023484Y0134626D03*
X0028484Y0134626D03*
X0023484Y0129626D03*
X0028484Y0129626D03*
X0023484Y0124626D03*
X0028484Y0124626D03*
D370*
X0064862Y0050138D03*
D371*
X0064862Y0060138D03*
X0064862Y0070138D03*
M02*
