G75*
G70*
%OFA0B0*%
%FSLAX25Y25*%
%IPPOS*%
%LPD*%
%AMOC8*
5,1,8,0,0,1.08239X$1,22.5*
%
%AMM110*
21,1,0.027170,0.052760,-0.000000,0.000000,0.000000*
21,1,0.017320,0.062600,-0.000000,0.000000,0.000000*
1,1,0.009840,0.008660,-0.026380*
1,1,0.009840,-0.008660,-0.026380*
1,1,0.009840,-0.008660,0.026380*
1,1,0.009840,0.008660,0.026380*
%
%AMM177*
21,1,0.092130,0.073230,0.000000,-0.000000,180.000000*
21,1,0.069290,0.096060,0.000000,-0.000000,180.000000*
1,1,0.022840,-0.034650,0.036610*
1,1,0.022840,0.034650,0.036610*
1,1,0.022840,0.034650,-0.036610*
1,1,0.022840,-0.034650,-0.036610*
%
%AMM178*
21,1,0.100000,0.111020,0.000000,-0.000000,270.000000*
21,1,0.075590,0.135430,0.000000,-0.000000,270.000000*
1,1,0.024410,-0.055510,-0.037800*
1,1,0.024410,-0.055510,0.037800*
1,1,0.024410,0.055510,0.037800*
1,1,0.024410,0.055510,-0.037800*
%
%AMM179*
21,1,0.080320,0.083460,0.000000,-0.000000,270.000000*
21,1,0.059840,0.103940,0.000000,-0.000000,270.000000*
1,1,0.020470,-0.041730,-0.029920*
1,1,0.020470,-0.041730,0.029920*
1,1,0.020470,0.041730,0.029920*
1,1,0.020470,0.041730,-0.029920*
%
%AMM180*
21,1,0.084250,0.053540,0.000000,-0.000000,90.000000*
21,1,0.065350,0.072440,0.000000,-0.000000,90.000000*
1,1,0.018900,0.026770,0.032680*
1,1,0.018900,0.026770,-0.032680*
1,1,0.018900,-0.026770,-0.032680*
1,1,0.018900,-0.026770,0.032680*
%
%AMM181*
21,1,0.040950,0.030320,0.000000,-0.000000,0.000000*
21,1,0.028350,0.042910,0.000000,-0.000000,0.000000*
1,1,0.012600,0.014170,-0.015160*
1,1,0.012600,-0.014170,-0.015160*
1,1,0.012600,-0.014170,0.015160*
1,1,0.012600,0.014170,0.015160*
%
%AMM182*
21,1,0.027170,0.052760,0.000000,-0.000000,180.000000*
21,1,0.017320,0.062600,0.000000,-0.000000,180.000000*
1,1,0.009840,-0.008660,0.026380*
1,1,0.009840,0.008660,0.026380*
1,1,0.009840,0.008660,-0.026380*
1,1,0.009840,-0.008660,-0.026380*
%
%AMM183*
21,1,0.041340,0.026770,0.000000,-0.000000,270.000000*
21,1,0.029130,0.038980,0.000000,-0.000000,270.000000*
1,1,0.012210,-0.013390,-0.014570*
1,1,0.012210,-0.013390,0.014570*
1,1,0.012210,0.013390,0.014570*
1,1,0.012210,0.013390,-0.014570*
%
%AMM184*
21,1,0.076380,0.036220,0.000000,-0.000000,0.000000*
21,1,0.061810,0.050790,0.000000,-0.000000,0.000000*
1,1,0.014570,0.030910,-0.018110*
1,1,0.014570,-0.030910,-0.018110*
1,1,0.014570,-0.030910,0.018110*
1,1,0.014570,0.030910,0.018110*
%
%AMM185*
21,1,0.038980,0.026770,0.000000,-0.000000,270.000000*
21,1,0.026770,0.038980,0.000000,-0.000000,270.000000*
1,1,0.012210,-0.013390,-0.013390*
1,1,0.012210,-0.013390,0.013390*
1,1,0.012210,0.013390,0.013390*
1,1,0.012210,0.013390,-0.013390*
%
%AMM186*
21,1,0.021260,0.016540,0.000000,-0.000000,180.000000*
21,1,0.012600,0.025200,0.000000,-0.000000,180.000000*
1,1,0.008660,-0.006300,0.008270*
1,1,0.008660,0.006300,0.008270*
1,1,0.008660,0.006300,-0.008270*
1,1,0.008660,-0.006300,-0.008270*
%
%AMM187*
21,1,0.029130,0.018900,0.000000,-0.000000,0.000000*
21,1,0.018900,0.029130,0.000000,-0.000000,0.000000*
1,1,0.010240,0.009450,-0.009450*
1,1,0.010240,-0.009450,-0.009450*
1,1,0.010240,-0.009450,0.009450*
1,1,0.010240,0.009450,0.009450*
%
%AMM188*
21,1,0.025200,0.019680,0.000000,-0.000000,270.000000*
21,1,0.015750,0.029130,0.000000,-0.000000,270.000000*
1,1,0.009450,-0.009840,-0.007870*
1,1,0.009450,-0.009840,0.007870*
1,1,0.009450,0.009840,0.007870*
1,1,0.009450,0.009840,-0.007870*
%
%AMM189*
21,1,0.025200,0.019680,0.000000,-0.000000,180.000000*
21,1,0.015750,0.029130,0.000000,-0.000000,180.000000*
1,1,0.009450,-0.007870,0.009840*
1,1,0.009450,0.007870,0.009840*
1,1,0.009450,0.007870,-0.009840*
1,1,0.009450,-0.007870,-0.009840*
%
%AMM271*
21,1,0.029530,0.026380,-0.000000,-0.000000,90.000000*
21,1,0.020470,0.035430,-0.000000,-0.000000,90.000000*
1,1,0.009060,0.013190,0.010240*
1,1,0.009060,0.013190,-0.010240*
1,1,0.009060,-0.013190,-0.010240*
1,1,0.009060,-0.013190,0.010240*
%
%AMM272*
21,1,0.021650,0.027950,-0.000000,-0.000000,90.000000*
21,1,0.014170,0.035430,-0.000000,-0.000000,90.000000*
1,1,0.007480,0.013980,0.007090*
1,1,0.007480,0.013980,-0.007090*
1,1,0.007480,-0.013980,-0.007090*
1,1,0.007480,-0.013980,0.007090*
%
%AMM273*
21,1,0.016540,0.028980,-0.000000,-0.000000,270.000000*
21,1,0.010080,0.035430,-0.000000,-0.000000,270.000000*
1,1,0.006460,-0.014490,-0.005040*
1,1,0.006460,-0.014490,0.005040*
1,1,0.006460,0.014490,0.005040*
1,1,0.006460,0.014490,-0.005040*
%
%AMM274*
21,1,0.027560,0.030710,-0.000000,-0.000000,0.000000*
21,1,0.018900,0.039370,-0.000000,-0.000000,0.000000*
1,1,0.008660,0.009450,-0.015350*
1,1,0.008660,-0.009450,-0.015350*
1,1,0.008660,-0.009450,0.015350*
1,1,0.008660,0.009450,0.015350*
%
%AMM275*
21,1,0.031500,0.018900,-0.000000,-0.000000,270.000000*
21,1,0.022840,0.027560,-0.000000,-0.000000,270.000000*
1,1,0.008660,-0.009450,-0.011420*
1,1,0.008660,-0.009450,0.011420*
1,1,0.008660,0.009450,0.011420*
1,1,0.008660,0.009450,-0.011420*
%
%AMM276*
21,1,0.035430,0.072440,-0.000000,-0.000000,270.000000*
21,1,0.025200,0.082680,-0.000000,-0.000000,270.000000*
1,1,0.010240,-0.036220,-0.012600*
1,1,0.010240,-0.036220,0.012600*
1,1,0.010240,0.036220,0.012600*
1,1,0.010240,0.036220,-0.012600*
%
%AMM277*
21,1,0.031500,0.018900,-0.000000,-0.000000,0.000000*
21,1,0.022840,0.027560,-0.000000,-0.000000,0.000000*
1,1,0.008660,0.011420,-0.009450*
1,1,0.008660,-0.011420,-0.009450*
1,1,0.008660,-0.011420,0.009450*
1,1,0.008660,0.011420,0.009450*
%
%AMM278*
21,1,0.027560,0.030710,-0.000000,-0.000000,90.000000*
21,1,0.018900,0.039370,-0.000000,-0.000000,90.000000*
1,1,0.008660,0.015350,0.009450*
1,1,0.008660,0.015350,-0.009450*
1,1,0.008660,-0.015350,-0.009450*
1,1,0.008660,-0.015350,0.009450*
%
%AMM279*
21,1,0.039370,0.030320,-0.000000,-0.000000,90.000000*
21,1,0.028350,0.041340,-0.000000,-0.000000,90.000000*
1,1,0.011020,0.015160,0.014170*
1,1,0.011020,0.015160,-0.014170*
1,1,0.011020,-0.015160,-0.014170*
1,1,0.011020,-0.015160,0.014170*
%
%AMM280*
21,1,0.047240,0.075980,-0.000000,-0.000000,180.000000*
21,1,0.034650,0.088580,-0.000000,-0.000000,180.000000*
1,1,0.012600,-0.017320,0.037990*
1,1,0.012600,0.017320,0.037990*
1,1,0.012600,0.017320,-0.037990*
1,1,0.012600,-0.017320,-0.037990*
%
%AMM281*
21,1,0.043310,0.035430,-0.000000,-0.000000,180.000000*
21,1,0.031500,0.047240,-0.000000,-0.000000,180.000000*
1,1,0.011810,-0.015750,0.017720*
1,1,0.011810,0.015750,0.017720*
1,1,0.011810,0.015750,-0.017720*
1,1,0.011810,-0.015750,-0.017720*
%
%AMM282*
21,1,0.031500,0.030710,-0.000000,-0.000000,180.000000*
21,1,0.022050,0.040160,-0.000000,-0.000000,180.000000*
1,1,0.009450,-0.011020,0.015350*
1,1,0.009450,0.011020,0.015350*
1,1,0.009450,0.011020,-0.015350*
1,1,0.009450,-0.011020,-0.015350*
%
%AMM283*
21,1,0.035430,0.072440,-0.000000,-0.000000,180.000000*
21,1,0.025200,0.082680,-0.000000,-0.000000,180.000000*
1,1,0.010240,-0.012600,0.036220*
1,1,0.010240,0.012600,0.036220*
1,1,0.010240,0.012600,-0.036220*
1,1,0.010240,-0.012600,-0.036220*
%
%AMM284*
21,1,0.141730,0.067720,-0.000000,-0.000000,180.000000*
21,1,0.120870,0.088580,-0.000000,-0.000000,180.000000*
1,1,0.020870,-0.060430,0.033860*
1,1,0.020870,0.060430,0.033860*
1,1,0.020870,0.060430,-0.033860*
1,1,0.020870,-0.060430,-0.033860*
%
%AMM285*
21,1,0.047240,0.075990,-0.000000,-0.000000,180.000000*
21,1,0.034650,0.088580,-0.000000,-0.000000,180.000000*
1,1,0.012600,-0.017320,0.037990*
1,1,0.012600,0.017320,0.037990*
1,1,0.012600,0.017320,-0.037990*
1,1,0.012600,-0.017320,-0.037990*
%
%AMM286*
21,1,0.090550,0.073230,-0.000000,-0.000000,270.000000*
21,1,0.069290,0.094490,-0.000000,-0.000000,270.000000*
1,1,0.021260,-0.036610,-0.034650*
1,1,0.021260,-0.036610,0.034650*
1,1,0.021260,0.036610,0.034650*
1,1,0.021260,0.036610,-0.034650*
%
%ADD10C,0.06000*%
%ADD11R,0.07874X0.05906*%
%ADD12R,0.07874X0.14961*%
%ADD122C,0.02913*%
%ADD123C,0.06457*%
%ADD13R,0.10559X0.10559*%
%ADD14C,0.10559*%
%ADD140R,0.02559X0.01575*%
%ADD141R,0.01575X0.02559*%
%ADD143R,0.05512X0.01181*%
%ADD144R,0.03543X0.03150*%
%ADD146C,0.05118*%
%ADD148R,0.03150X0.03543*%
%ADD15C,0.12756*%
%ADD156C,0.03100*%
%ADD159C,0.03900*%
%ADD16C,0.22047*%
%ADD17C,0.02362*%
%ADD194O,0.05118X0.01260*%
%ADD195O,0.01260X0.05118*%
%ADD196O,0.04724X0.01575*%
%ADD197C,0.03494*%
%ADD200R,0.01772X0.01378*%
%ADD201R,0.01378X0.01772*%
%ADD206O,0.09055X0.02756*%
%ADD213C,0.03543*%
%ADD215C,0.04724*%
%ADD216C,0.04294*%
%ADD25R,0.05906X0.07874*%
%ADD26R,0.14961X0.07874*%
%ADD271M110*%
%ADD340M177*%
%ADD341M178*%
%ADD342M179*%
%ADD343M180*%
%ADD344M181*%
%ADD345M182*%
%ADD346M183*%
%ADD347M184*%
%ADD348M185*%
%ADD349M186*%
%ADD350M187*%
%ADD351M188*%
%ADD352M189*%
%ADD36C,0.05906*%
%ADD369R,0.08661X0.04724*%
%ADD370R,0.25197X0.22835*%
%ADD371R,0.07874X0.07500*%
%ADD372O,0.07874X0.07500*%
%ADD46C,0.06693*%
%ADD467M271*%
%ADD468M272*%
%ADD469M273*%
%ADD47R,0.01181X0.04528*%
%ADD470M274*%
%ADD471M275*%
%ADD472M276*%
%ADD473M277*%
%ADD474M278*%
%ADD475M279*%
%ADD476M280*%
%ADD477M281*%
%ADD478M282*%
%ADD479M283*%
%ADD48O,0.03937X0.08268*%
%ADD480M284*%
%ADD481M285*%
%ADD482M286*%
%ADD49O,0.03937X0.06299*%
%ADD62R,0.05118X0.03937*%
%ADD68C,0.00472*%
%ADD69C,0.02559*%
X0000000Y0000000D02*
%LPD*%
G01*
D68*
X0604478Y0177362D02*
X0553297Y0177362D01*
X0553297Y0204921D01*
X0604478Y0204921D01*
X0604478Y0177362D01*
G36*
X0604478Y0177362D02*
G01*
X0553297Y0177362D01*
X0553297Y0204921D01*
X0604478Y0204921D01*
X0604478Y0177362D01*
G37*
D10*
X0464291Y0059646D03*
G36*
G01*
X0462500Y0062106D02*
X0462500Y0057185D01*
G75*
G02*
X0462106Y0056791I-000394J0000000D01*
G01*
X0458957Y0056791D01*
G75*
G02*
X0458563Y0057185I0000000J0000394D01*
G01*
X0458563Y0062106D01*
G75*
G02*
X0458957Y0062500I0000394J0000000D01*
G01*
X0462106Y0062500D01*
G75*
G02*
X0462500Y0062106I0000000J-000394D01*
G01*
G37*
G36*
G01*
X0455020Y0062106D02*
X0455020Y0057185D01*
G75*
G02*
X0454626Y0056791I-000394J0000000D01*
G01*
X0451476Y0056791D01*
G75*
G02*
X0451083Y0057185I0000000J0000394D01*
G01*
X0451083Y0062106D01*
G75*
G02*
X0451476Y0062500I0000394J0000000D01*
G01*
X0454626Y0062500D01*
G75*
G02*
X0455020Y0062106I0000000J-000394D01*
G01*
G37*
X0449291Y0059646D03*
G36*
G01*
X0560571Y0221260D02*
X0563642Y0221260D01*
G75*
G02*
X0563917Y0220984I0000000J-000276D01*
G01*
X0563917Y0218780D01*
G75*
G02*
X0563642Y0218504I-000276J0000000D01*
G01*
X0560571Y0218504D01*
G75*
G02*
X0560295Y0218780I0000000J0000276D01*
G01*
X0560295Y0220984D01*
G75*
G02*
X0560571Y0221260I0000276J0000000D01*
G01*
G37*
G36*
G01*
X0560571Y0214961D02*
X0563642Y0214961D01*
G75*
G02*
X0563917Y0214685I0000000J-000276D01*
G01*
X0563917Y0212480D01*
G75*
G02*
X0563642Y0212205I-000276J0000000D01*
G01*
X0560571Y0212205D01*
G75*
G02*
X0560295Y0212480I0000000J0000276D01*
G01*
X0560295Y0214685D01*
G75*
G02*
X0560571Y0214961I0000276J0000000D01*
G01*
G37*
D11*
X0265453Y0127756D03*
X0265453Y0136811D03*
X0265453Y0145866D03*
D12*
X0240650Y0136811D03*
D13*
X0294626Y0031890D03*
D14*
X0312146Y0031890D03*
X0329626Y0031890D03*
X0347146Y0031890D03*
X0364626Y0031890D03*
X0382146Y0031890D03*
X0382146Y0014370D03*
X0364626Y0014370D03*
X0347146Y0014370D03*
X0329626Y0014370D03*
X0312146Y0014370D03*
X0294626Y0014370D03*
D15*
X0270866Y0023110D03*
X0405866Y0023110D03*
D16*
X0162106Y0076477D03*
G36*
X0191112Y0185508D02*
G01*
X0196226Y0188461D01*
X0200163Y0181642D01*
X0195049Y0178689D01*
X0191112Y0185508D01*
G37*
G36*
X0183270Y0180980D02*
G01*
X0188384Y0183933D01*
X0192321Y0177114D01*
X0187207Y0174161D01*
X0183270Y0180980D01*
G37*
G36*
X0175428Y0176453D02*
G01*
X0180542Y0179406D01*
X0184479Y0172587D01*
X0179365Y0169634D01*
X0175428Y0176453D01*
G37*
G36*
X0191750Y0157237D02*
G01*
X0204706Y0164717D01*
X0208643Y0157898D01*
X0195687Y0150417D01*
X0191750Y0157237D01*
G37*
G36*
G01*
X0560531Y0041299D02*
X0560531Y0038228D01*
G75*
G02*
X0560256Y0037953I-000276J0000000D01*
G01*
X0558051Y0037953D01*
G75*
G02*
X0557776Y0038228I0000000J0000276D01*
G01*
X0557776Y0041299D01*
G75*
G02*
X0558051Y0041575I0000276J0000000D01*
G01*
X0560256Y0041575D01*
G75*
G02*
X0560531Y0041299I0000000J-000276D01*
G01*
G37*
G36*
G01*
X0554232Y0041299D02*
X0554232Y0038228D01*
G75*
G02*
X0553957Y0037953I-000276J0000000D01*
G01*
X0551752Y0037953D01*
G75*
G02*
X0551476Y0038228I0000000J0000276D01*
G01*
X0551476Y0041299D01*
G75*
G02*
X0551752Y0041575I0000276J0000000D01*
G01*
X0553957Y0041575D01*
G75*
G02*
X0554232Y0041299I0000000J-000276D01*
G01*
G37*
G36*
X0215712Y0115127D02*
G01*
X0211536Y0110951D01*
X0205968Y0116518D01*
X0210144Y0120694D01*
X0215712Y0115127D01*
G37*
G36*
X0222115Y0121529D02*
G01*
X0217939Y0117354D01*
X0212371Y0122921D01*
X0216547Y0127097D01*
X0222115Y0121529D01*
G37*
G36*
X0228518Y0127932D02*
G01*
X0224342Y0123757D01*
X0218774Y0129324D01*
X0222950Y0133500D01*
X0228518Y0127932D01*
G37*
G36*
X0207778Y0142269D02*
G01*
X0197199Y0131691D01*
X0191631Y0137258D01*
X0202210Y0147837D01*
X0207778Y0142269D01*
G37*
G36*
G01*
X0274665Y0103347D02*
X0271594Y0103347D01*
G75*
G02*
X0271319Y0103622I0000000J0000276D01*
G01*
X0271319Y0105827D01*
G75*
G02*
X0271594Y0106102I0000276J0000000D01*
G01*
X0274665Y0106102D01*
G75*
G02*
X0274941Y0105827I0000000J-000276D01*
G01*
X0274941Y0103622D01*
G75*
G02*
X0274665Y0103347I-000276J0000000D01*
G01*
G37*
G36*
G01*
X0274665Y0109646D02*
X0271594Y0109646D01*
G75*
G02*
X0271319Y0109921I0000000J0000276D01*
G01*
X0271319Y0112126D01*
G75*
G02*
X0271594Y0112402I0000276J0000000D01*
G01*
X0274665Y0112402D01*
G75*
G02*
X0274941Y0112126I0000000J-000276D01*
G01*
X0274941Y0109921D01*
G75*
G02*
X0274665Y0109646I-000276J0000000D01*
G01*
G37*
D17*
X0615748Y0104036D03*
X0619488Y0104036D03*
X0623228Y0104036D03*
X0619291Y0069784D03*
X0615748Y0069784D03*
X0280512Y0234744D03*
X0280512Y0239469D03*
X0280512Y0230020D03*
X0280512Y0225295D03*
X0337303Y0250728D03*
X0337303Y0254665D03*
G36*
G01*
X0441398Y0218504D02*
X0438327Y0218504D01*
G75*
G02*
X0438051Y0218780I0000000J0000276D01*
G01*
X0438051Y0220984D01*
G75*
G02*
X0438327Y0221260I0000276J0000000D01*
G01*
X0441398Y0221260D01*
G75*
G02*
X0441673Y0220984I0000000J-000276D01*
G01*
X0441673Y0218780D01*
G75*
G02*
X0441398Y0218504I-000276J0000000D01*
G01*
G37*
G36*
G01*
X0441398Y0224803D02*
X0438327Y0224803D01*
G75*
G02*
X0438051Y0225079I0000000J0000276D01*
G01*
X0438051Y0227284D01*
G75*
G02*
X0438327Y0227559I0000276J0000000D01*
G01*
X0441398Y0227559D01*
G75*
G02*
X0441673Y0227284I0000000J-000276D01*
G01*
X0441673Y0225079D01*
G75*
G02*
X0441398Y0224803I-000276J0000000D01*
G01*
G37*
G36*
G01*
X0267776Y0150591D02*
X0264705Y0150591D01*
G75*
G02*
X0264429Y0150866I0000000J0000276D01*
G01*
X0264429Y0153071D01*
G75*
G02*
X0264705Y0153347I0000276J0000000D01*
G01*
X0267776Y0153347D01*
G75*
G02*
X0268051Y0153071I0000000J-000276D01*
G01*
X0268051Y0150866D01*
G75*
G02*
X0267776Y0150591I-000276J0000000D01*
G01*
G37*
G36*
G01*
X0267776Y0156890D02*
X0264705Y0156890D01*
G75*
G02*
X0264429Y0157165I0000000J0000276D01*
G01*
X0264429Y0159370D01*
G75*
G02*
X0264705Y0159646I0000276J0000000D01*
G01*
X0267776Y0159646D01*
G75*
G02*
X0268051Y0159370I0000000J-000276D01*
G01*
X0268051Y0157165D01*
G75*
G02*
X0267776Y0156890I-000276J0000000D01*
G01*
G37*
G36*
G01*
X0157332Y0188586D02*
X0159991Y0190122D01*
G75*
G02*
X0160368Y0190021I0000138J-000239D01*
G01*
X0161470Y0188112D01*
G75*
G02*
X0161369Y0187735I-000239J-000138D01*
G01*
X0158710Y0186200D01*
G75*
G02*
X0158333Y0186301I-000138J0000239D01*
G01*
X0157231Y0188210D01*
G75*
G02*
X0157332Y0188586I0000239J0000138D01*
G01*
G37*
G36*
G01*
X0160481Y0183131D02*
X0163141Y0184667D01*
G75*
G02*
X0163517Y0184566I0000138J-000239D01*
G01*
X0164620Y0182656D01*
G75*
G02*
X0164519Y0182280I-000239J-000138D01*
G01*
X0161859Y0180745D01*
G75*
G02*
X0161483Y0180845I-000138J0000239D01*
G01*
X0160380Y0182755D01*
G75*
G02*
X0160481Y0183131I0000239J0000138D01*
G01*
G37*
D25*
X0260925Y0112008D03*
X0251870Y0112008D03*
X0242815Y0112008D03*
D26*
X0251870Y0087205D03*
G36*
X0160600Y0176650D02*
G01*
X0165714Y0179603D01*
X0169651Y0172783D01*
X0164537Y0169831D01*
X0160600Y0176650D01*
G37*
G36*
X0152758Y0172122D02*
G01*
X0157872Y0175075D01*
X0161809Y0168256D01*
X0156695Y0165303D01*
X0152758Y0172122D01*
G37*
G36*
X0144916Y0167595D02*
G01*
X0150030Y0170547D01*
X0153967Y0163728D01*
X0148853Y0160776D01*
X0144916Y0167595D01*
G37*
G36*
X0161238Y0148378D02*
G01*
X0174195Y0155859D01*
X0178132Y0149039D01*
X0165175Y0141559D01*
X0161238Y0148378D01*
G37*
D36*
X0526968Y0077461D03*
X0501772Y0077461D03*
X0494291Y0077461D03*
X0477362Y0077461D03*
D17*
X0467913Y0075689D03*
X0463976Y0075689D03*
D36*
X0452756Y0077461D03*
X0528740Y0138484D03*
X0521457Y0138484D03*
X0501968Y0138484D03*
X0454528Y0138484D03*
D11*
X0248720Y0195669D03*
X0248720Y0204725D03*
X0248720Y0213780D03*
D12*
X0223917Y0204725D03*
G36*
G01*
X0142776Y0270669D02*
X0139705Y0270669D01*
G75*
G02*
X0139429Y0270945I0000000J0000276D01*
G01*
X0139429Y0273150D01*
G75*
G02*
X0139705Y0273425I0000276J0000000D01*
G01*
X0142776Y0273425D01*
G75*
G02*
X0143051Y0273150I0000000J-000276D01*
G01*
X0143051Y0270945D01*
G75*
G02*
X0142776Y0270669I-000276J0000000D01*
G01*
G37*
G36*
G01*
X0142776Y0276969D02*
X0139705Y0276969D01*
G75*
G02*
X0139429Y0277244I0000000J0000276D01*
G01*
X0139429Y0279449D01*
G75*
G02*
X0139705Y0279725I0000276J0000000D01*
G01*
X0142776Y0279725D01*
G75*
G02*
X0143051Y0279449I0000000J-000276D01*
G01*
X0143051Y0277244D01*
G75*
G02*
X0142776Y0276969I-000276J0000000D01*
G01*
G37*
G36*
G01*
X0547303Y0074351D02*
X0544626Y0074351D01*
G75*
G02*
X0544291Y0074685I0000000J0000335D01*
G01*
X0544291Y0077362D01*
G75*
G02*
X0544626Y0077697I0000335J0000000D01*
G01*
X0547303Y0077697D01*
G75*
G02*
X0547638Y0077362I0000000J-000335D01*
G01*
X0547638Y0074685D01*
G75*
G02*
X0547303Y0074351I-000335J0000000D01*
G01*
G37*
G36*
G01*
X0547303Y0080571D02*
X0544626Y0080571D01*
G75*
G02*
X0544291Y0080906I0000000J0000335D01*
G01*
X0544291Y0083583D01*
G75*
G02*
X0544626Y0083917I0000335J0000000D01*
G01*
X0547303Y0083917D01*
G75*
G02*
X0547638Y0083583I0000000J-000335D01*
G01*
X0547638Y0080906D01*
G75*
G02*
X0547303Y0080571I-000335J0000000D01*
G01*
G37*
G36*
X0185009Y0223697D02*
G01*
X0190124Y0226650D01*
X0194061Y0219831D01*
X0188946Y0216878D01*
X0185009Y0223697D01*
G37*
G36*
X0177167Y0219169D02*
G01*
X0182282Y0222122D01*
X0186219Y0215303D01*
X0181104Y0212350D01*
X0177167Y0219169D01*
G37*
G36*
X0169325Y0214642D02*
G01*
X0174440Y0217595D01*
X0178377Y0210776D01*
X0173262Y0207823D01*
X0169325Y0214642D01*
G37*
G36*
X0185648Y0195426D02*
G01*
X0198604Y0202906D01*
X0202541Y0196087D01*
X0189585Y0188606D01*
X0185648Y0195426D01*
G37*
G36*
G01*
X0273327Y0140197D02*
X0273327Y0143268D01*
G75*
G02*
X0273602Y0143543I0000276J0000000D01*
G01*
X0275807Y0143543D01*
G75*
G02*
X0276083Y0143268I0000000J-000276D01*
G01*
X0276083Y0140197D01*
G75*
G02*
X0275807Y0139921I-000276J0000000D01*
G01*
X0273602Y0139921D01*
G75*
G02*
X0273327Y0140197I0000000J0000276D01*
G01*
G37*
G36*
G01*
X0279626Y0140197D02*
X0279626Y0143268D01*
G75*
G02*
X0279902Y0143543I0000276J0000000D01*
G01*
X0282106Y0143543D01*
G75*
G02*
X0282382Y0143268I0000000J-000276D01*
G01*
X0282382Y0140197D01*
G75*
G02*
X0282106Y0139921I-000276J0000000D01*
G01*
X0279902Y0139921D01*
G75*
G02*
X0279626Y0140197I0000000J0000276D01*
G01*
G37*
G36*
G01*
X0253740Y0233268D02*
X0253740Y0239567D01*
G75*
G02*
X0254724Y0240551I0000984J0000000D01*
G01*
X0261024Y0240551D01*
G75*
G02*
X0262008Y0239567I0000000J-000984D01*
G01*
X0262008Y0233268D01*
G75*
G02*
X0261024Y0232284I-000984J0000000D01*
G01*
X0254724Y0232284D01*
G75*
G02*
X0253740Y0233268I0000000J0000984D01*
G01*
G37*
G36*
G01*
X0231299Y0233268D02*
X0231299Y0239567D01*
G75*
G02*
X0232283Y0240551I0000984J0000000D01*
G01*
X0238583Y0240551D01*
G75*
G02*
X0239567Y0239567I0000000J-000984D01*
G01*
X0239567Y0233268D01*
G75*
G02*
X0238583Y0232284I-000984J0000000D01*
G01*
X0232283Y0232284D01*
G75*
G02*
X0231299Y0233268I0000000J0000984D01*
G01*
G37*
G36*
G01*
X0208858Y0233268D02*
X0208858Y0239567D01*
G75*
G02*
X0209843Y0240551I0000984J0000000D01*
G01*
X0216142Y0240551D01*
G75*
G02*
X0217126Y0239567I0000000J-000984D01*
G01*
X0217126Y0233268D01*
G75*
G02*
X0216142Y0232284I-000984J0000000D01*
G01*
X0209843Y0232284D01*
G75*
G02*
X0208858Y0233268I0000000J0000984D01*
G01*
G37*
G36*
G01*
X0186417Y0233268D02*
X0186417Y0239567D01*
G75*
G02*
X0187402Y0240551I0000984J0000000D01*
G01*
X0193701Y0240551D01*
G75*
G02*
X0194685Y0239567I0000000J-000984D01*
G01*
X0194685Y0233268D01*
G75*
G02*
X0193701Y0232284I-000984J0000000D01*
G01*
X0187402Y0232284D01*
G75*
G02*
X0186417Y0233268I0000000J0000984D01*
G01*
G37*
G36*
G01*
X0163976Y0233268D02*
X0163976Y0239567D01*
G75*
G02*
X0164961Y0240551I0000984J0000000D01*
G01*
X0171260Y0240551D01*
G75*
G02*
X0172244Y0239567I0000000J-000984D01*
G01*
X0172244Y0233268D01*
G75*
G02*
X0171260Y0232284I-000984J0000000D01*
G01*
X0164961Y0232284D01*
G75*
G02*
X0163976Y0233268I0000000J0000984D01*
G01*
G37*
G36*
G01*
X0141535Y0233268D02*
X0141535Y0239567D01*
G75*
G02*
X0142520Y0240551I0000984J0000000D01*
G01*
X0148819Y0240551D01*
G75*
G02*
X0149803Y0239567I0000000J-000984D01*
G01*
X0149803Y0233268D01*
G75*
G02*
X0148819Y0232284I-000984J0000000D01*
G01*
X0142520Y0232284D01*
G75*
G02*
X0141535Y0233268I0000000J0000984D01*
G01*
G37*
G36*
G01*
X0119094Y0233268D02*
X0119094Y0239567D01*
G75*
G02*
X0120079Y0240551I0000984J0000000D01*
G01*
X0126378Y0240551D01*
G75*
G02*
X0127362Y0239567I0000000J-000984D01*
G01*
X0127362Y0233268D01*
G75*
G02*
X0126378Y0232284I-000984J0000000D01*
G01*
X0120079Y0232284D01*
G75*
G02*
X0119094Y0233268I0000000J0000984D01*
G01*
G37*
G36*
G01*
X0096654Y0233268D02*
X0096654Y0239567D01*
G75*
G02*
X0097638Y0240551I0000984J0000000D01*
G01*
X0103937Y0240551D01*
G75*
G02*
X0104921Y0239567I0000000J-000984D01*
G01*
X0104921Y0233268D01*
G75*
G02*
X0103937Y0232284I-000984J0000000D01*
G01*
X0097638Y0232284D01*
G75*
G02*
X0096654Y0233268I0000000J0000984D01*
G01*
G37*
G36*
G01*
X0074213Y0233268D02*
X0074213Y0239567D01*
G75*
G02*
X0075197Y0240551I0000984J0000000D01*
G01*
X0081496Y0240551D01*
G75*
G02*
X0082480Y0239567I0000000J-000984D01*
G01*
X0082480Y0233268D01*
G75*
G02*
X0081496Y0232284I-000984J0000000D01*
G01*
X0075197Y0232284D01*
G75*
G02*
X0074213Y0233268I0000000J0000984D01*
G01*
G37*
G36*
G01*
X0051772Y0233268D02*
X0051772Y0239567D01*
G75*
G02*
X0052756Y0240551I0000984J0000000D01*
G01*
X0059055Y0240551D01*
G75*
G02*
X0060039Y0239567I0000000J-000984D01*
G01*
X0060039Y0233268D01*
G75*
G02*
X0059055Y0232284I-000984J0000000D01*
G01*
X0052756Y0232284D01*
G75*
G02*
X0051772Y0233268I0000000J0000984D01*
G01*
G37*
G36*
G01*
X0029331Y0233268D02*
X0029331Y0239567D01*
G75*
G02*
X0030315Y0240551I0000984J0000000D01*
G01*
X0036614Y0240551D01*
G75*
G02*
X0037598Y0239567I0000000J-000984D01*
G01*
X0037598Y0233268D01*
G75*
G02*
X0036614Y0232284I-000984J0000000D01*
G01*
X0030315Y0232284D01*
G75*
G02*
X0029331Y0233268I0000000J0000984D01*
G01*
G37*
G36*
G01*
X0253740Y0249410D02*
X0253740Y0255709D01*
G75*
G02*
X0254724Y0256693I0000984J0000000D01*
G01*
X0261024Y0256693D01*
G75*
G02*
X0262008Y0255709I0000000J-000984D01*
G01*
X0262008Y0249410D01*
G75*
G02*
X0261024Y0248425I-000984J0000000D01*
G01*
X0254724Y0248425D01*
G75*
G02*
X0253740Y0249410I0000000J0000984D01*
G01*
G37*
G36*
G01*
X0231299Y0249410D02*
X0231299Y0255709D01*
G75*
G02*
X0232283Y0256693I0000984J0000000D01*
G01*
X0238583Y0256693D01*
G75*
G02*
X0239567Y0255709I0000000J-000984D01*
G01*
X0239567Y0249410D01*
G75*
G02*
X0238583Y0248425I-000984J0000000D01*
G01*
X0232283Y0248425D01*
G75*
G02*
X0231299Y0249410I0000000J0000984D01*
G01*
G37*
G36*
G01*
X0208858Y0249410D02*
X0208858Y0255709D01*
G75*
G02*
X0209843Y0256693I0000984J0000000D01*
G01*
X0216142Y0256693D01*
G75*
G02*
X0217126Y0255709I0000000J-000984D01*
G01*
X0217126Y0249410D01*
G75*
G02*
X0216142Y0248425I-000984J0000000D01*
G01*
X0209843Y0248425D01*
G75*
G02*
X0208858Y0249410I0000000J0000984D01*
G01*
G37*
G36*
G01*
X0186417Y0249410D02*
X0186417Y0255709D01*
G75*
G02*
X0187402Y0256693I0000984J0000000D01*
G01*
X0193701Y0256693D01*
G75*
G02*
X0194685Y0255709I0000000J-000984D01*
G01*
X0194685Y0249410D01*
G75*
G02*
X0193701Y0248425I-000984J0000000D01*
G01*
X0187402Y0248425D01*
G75*
G02*
X0186417Y0249410I0000000J0000984D01*
G01*
G37*
G36*
G01*
X0163976Y0249410D02*
X0163976Y0255709D01*
G75*
G02*
X0164961Y0256693I0000984J0000000D01*
G01*
X0171260Y0256693D01*
G75*
G02*
X0172244Y0255709I0000000J-000984D01*
G01*
X0172244Y0249410D01*
G75*
G02*
X0171260Y0248425I-000984J0000000D01*
G01*
X0164961Y0248425D01*
G75*
G02*
X0163976Y0249410I0000000J0000984D01*
G01*
G37*
G36*
G01*
X0141535Y0249410D02*
X0141535Y0255709D01*
G75*
G02*
X0142520Y0256693I0000984J0000000D01*
G01*
X0148819Y0256693D01*
G75*
G02*
X0149803Y0255709I0000000J-000984D01*
G01*
X0149803Y0249410D01*
G75*
G02*
X0148819Y0248425I-000984J0000000D01*
G01*
X0142520Y0248425D01*
G75*
G02*
X0141535Y0249410I0000000J0000984D01*
G01*
G37*
G36*
G01*
X0119094Y0249410D02*
X0119094Y0255709D01*
G75*
G02*
X0120079Y0256693I0000984J0000000D01*
G01*
X0126378Y0256693D01*
G75*
G02*
X0127362Y0255709I0000000J-000984D01*
G01*
X0127362Y0249410D01*
G75*
G02*
X0126378Y0248425I-000984J0000000D01*
G01*
X0120079Y0248425D01*
G75*
G02*
X0119094Y0249410I0000000J0000984D01*
G01*
G37*
G36*
G01*
X0096654Y0249410D02*
X0096654Y0255709D01*
G75*
G02*
X0097638Y0256693I0000984J0000000D01*
G01*
X0103937Y0256693D01*
G75*
G02*
X0104921Y0255709I0000000J-000984D01*
G01*
X0104921Y0249410D01*
G75*
G02*
X0103937Y0248425I-000984J0000000D01*
G01*
X0097638Y0248425D01*
G75*
G02*
X0096654Y0249410I0000000J0000984D01*
G01*
G37*
G36*
G01*
X0074213Y0249410D02*
X0074213Y0255709D01*
G75*
G02*
X0075197Y0256693I0000984J0000000D01*
G01*
X0081496Y0256693D01*
G75*
G02*
X0082480Y0255709I0000000J-000984D01*
G01*
X0082480Y0249410D01*
G75*
G02*
X0081496Y0248425I-000984J0000000D01*
G01*
X0075197Y0248425D01*
G75*
G02*
X0074213Y0249410I0000000J0000984D01*
G01*
G37*
G36*
G01*
X0051772Y0249410D02*
X0051772Y0255709D01*
G75*
G02*
X0052756Y0256693I0000984J0000000D01*
G01*
X0059055Y0256693D01*
G75*
G02*
X0060039Y0255709I0000000J-000984D01*
G01*
X0060039Y0249410D01*
G75*
G02*
X0059055Y0248425I-000984J0000000D01*
G01*
X0052756Y0248425D01*
G75*
G02*
X0051772Y0249410I0000000J0000984D01*
G01*
G37*
G36*
G01*
X0029331Y0249410D02*
X0029331Y0255709D01*
G75*
G02*
X0030315Y0256693I0000984J0000000D01*
G01*
X0036614Y0256693D01*
G75*
G02*
X0037598Y0255709I0000000J-000984D01*
G01*
X0037598Y0249410D01*
G75*
G02*
X0036614Y0248425I-000984J0000000D01*
G01*
X0030315Y0248425D01*
G75*
G02*
X0029331Y0249410I0000000J0000984D01*
G01*
G37*
G36*
G01*
X0592323Y0233071D02*
X0592323Y0239370D01*
G75*
G02*
X0593307Y0240354I0000984J0000000D01*
G01*
X0599606Y0240354D01*
G75*
G02*
X0600591Y0239370I0000000J-000984D01*
G01*
X0600591Y0233071D01*
G75*
G02*
X0599606Y0232087I-000984J0000000D01*
G01*
X0593307Y0232087D01*
G75*
G02*
X0592323Y0233071I0000000J0000984D01*
G01*
G37*
G36*
G01*
X0569882Y0233071D02*
X0569882Y0239370D01*
G75*
G02*
X0570866Y0240354I0000984J0000000D01*
G01*
X0577165Y0240354D01*
G75*
G02*
X0578150Y0239370I0000000J-000984D01*
G01*
X0578150Y0233071D01*
G75*
G02*
X0577165Y0232087I-000984J0000000D01*
G01*
X0570866Y0232087D01*
G75*
G02*
X0569882Y0233071I0000000J0000984D01*
G01*
G37*
G36*
G01*
X0547441Y0233071D02*
X0547441Y0239370D01*
G75*
G02*
X0548425Y0240354I0000984J0000000D01*
G01*
X0554724Y0240354D01*
G75*
G02*
X0555709Y0239370I0000000J-000984D01*
G01*
X0555709Y0233071D01*
G75*
G02*
X0554724Y0232087I-000984J0000000D01*
G01*
X0548425Y0232087D01*
G75*
G02*
X0547441Y0233071I0000000J0000984D01*
G01*
G37*
G36*
G01*
X0525000Y0233071D02*
X0525000Y0239370D01*
G75*
G02*
X0525984Y0240354I0000984J0000000D01*
G01*
X0532283Y0240354D01*
G75*
G02*
X0533268Y0239370I0000000J-000984D01*
G01*
X0533268Y0233071D01*
G75*
G02*
X0532283Y0232087I-000984J0000000D01*
G01*
X0525984Y0232087D01*
G75*
G02*
X0525000Y0233071I0000000J0000984D01*
G01*
G37*
G36*
G01*
X0502559Y0233071D02*
X0502559Y0239370D01*
G75*
G02*
X0503543Y0240354I0000984J0000000D01*
G01*
X0509842Y0240354D01*
G75*
G02*
X0510827Y0239370I0000000J-000984D01*
G01*
X0510827Y0233071D01*
G75*
G02*
X0509842Y0232087I-000984J0000000D01*
G01*
X0503543Y0232087D01*
G75*
G02*
X0502559Y0233071I0000000J0000984D01*
G01*
G37*
G36*
G01*
X0480118Y0233071D02*
X0480118Y0239370D01*
G75*
G02*
X0481102Y0240354I0000984J0000000D01*
G01*
X0487402Y0240354D01*
G75*
G02*
X0488386Y0239370I0000000J-000984D01*
G01*
X0488386Y0233071D01*
G75*
G02*
X0487402Y0232087I-000984J0000000D01*
G01*
X0481102Y0232087D01*
G75*
G02*
X0480118Y0233071I0000000J0000984D01*
G01*
G37*
G36*
G01*
X0457677Y0233071D02*
X0457677Y0239370D01*
G75*
G02*
X0458661Y0240354I0000984J0000000D01*
G01*
X0464961Y0240354D01*
G75*
G02*
X0465945Y0239370I0000000J-000984D01*
G01*
X0465945Y0233071D01*
G75*
G02*
X0464961Y0232087I-000984J0000000D01*
G01*
X0458661Y0232087D01*
G75*
G02*
X0457677Y0233071I0000000J0000984D01*
G01*
G37*
G36*
G01*
X0435236Y0233071D02*
X0435236Y0239370D01*
G75*
G02*
X0436220Y0240354I0000984J0000000D01*
G01*
X0442520Y0240354D01*
G75*
G02*
X0443504Y0239370I0000000J-000984D01*
G01*
X0443504Y0233071D01*
G75*
G02*
X0442520Y0232087I-000984J0000000D01*
G01*
X0436220Y0232087D01*
G75*
G02*
X0435236Y0233071I0000000J0000984D01*
G01*
G37*
G36*
G01*
X0412795Y0233071D02*
X0412795Y0239370D01*
G75*
G02*
X0413780Y0240354I0000984J0000000D01*
G01*
X0420079Y0240354D01*
G75*
G02*
X0421063Y0239370I0000000J-000984D01*
G01*
X0421063Y0233071D01*
G75*
G02*
X0420079Y0232087I-000984J0000000D01*
G01*
X0413780Y0232087D01*
G75*
G02*
X0412795Y0233071I0000000J0000984D01*
G01*
G37*
G36*
G01*
X0390354Y0233071D02*
X0390354Y0239370D01*
G75*
G02*
X0391339Y0240354I0000984J0000000D01*
G01*
X0397638Y0240354D01*
G75*
G02*
X0398622Y0239370I0000000J-000984D01*
G01*
X0398622Y0233071D01*
G75*
G02*
X0397638Y0232087I-000984J0000000D01*
G01*
X0391339Y0232087D01*
G75*
G02*
X0390354Y0233071I0000000J0000984D01*
G01*
G37*
G36*
G01*
X0367913Y0233071D02*
X0367913Y0239370D01*
G75*
G02*
X0368898Y0240354I0000984J0000000D01*
G01*
X0375197Y0240354D01*
G75*
G02*
X0376181Y0239370I0000000J-000984D01*
G01*
X0376181Y0233071D01*
G75*
G02*
X0375197Y0232087I-000984J0000000D01*
G01*
X0368898Y0232087D01*
G75*
G02*
X0367913Y0233071I0000000J0000984D01*
G01*
G37*
G36*
G01*
X0592323Y0249213D02*
X0592323Y0255512D01*
G75*
G02*
X0593307Y0256496I0000984J0000000D01*
G01*
X0599606Y0256496D01*
G75*
G02*
X0600591Y0255512I0000000J-000984D01*
G01*
X0600591Y0249213D01*
G75*
G02*
X0599606Y0248228I-000984J0000000D01*
G01*
X0593307Y0248228D01*
G75*
G02*
X0592323Y0249213I0000000J0000984D01*
G01*
G37*
G36*
G01*
X0569882Y0249213D02*
X0569882Y0255512D01*
G75*
G02*
X0570866Y0256496I0000984J0000000D01*
G01*
X0577165Y0256496D01*
G75*
G02*
X0578150Y0255512I0000000J-000984D01*
G01*
X0578150Y0249213D01*
G75*
G02*
X0577165Y0248228I-000984J0000000D01*
G01*
X0570866Y0248228D01*
G75*
G02*
X0569882Y0249213I0000000J0000984D01*
G01*
G37*
G36*
G01*
X0547441Y0249213D02*
X0547441Y0255512D01*
G75*
G02*
X0548425Y0256496I0000984J0000000D01*
G01*
X0554724Y0256496D01*
G75*
G02*
X0555709Y0255512I0000000J-000984D01*
G01*
X0555709Y0249213D01*
G75*
G02*
X0554724Y0248228I-000984J0000000D01*
G01*
X0548425Y0248228D01*
G75*
G02*
X0547441Y0249213I0000000J0000984D01*
G01*
G37*
G36*
G01*
X0525000Y0249213D02*
X0525000Y0255512D01*
G75*
G02*
X0525984Y0256496I0000984J0000000D01*
G01*
X0532283Y0256496D01*
G75*
G02*
X0533268Y0255512I0000000J-000984D01*
G01*
X0533268Y0249213D01*
G75*
G02*
X0532283Y0248228I-000984J0000000D01*
G01*
X0525984Y0248228D01*
G75*
G02*
X0525000Y0249213I0000000J0000984D01*
G01*
G37*
G36*
G01*
X0502559Y0249213D02*
X0502559Y0255512D01*
G75*
G02*
X0503543Y0256496I0000984J0000000D01*
G01*
X0509842Y0256496D01*
G75*
G02*
X0510827Y0255512I0000000J-000984D01*
G01*
X0510827Y0249213D01*
G75*
G02*
X0509842Y0248228I-000984J0000000D01*
G01*
X0503543Y0248228D01*
G75*
G02*
X0502559Y0249213I0000000J0000984D01*
G01*
G37*
G36*
G01*
X0480118Y0249213D02*
X0480118Y0255512D01*
G75*
G02*
X0481102Y0256496I0000984J0000000D01*
G01*
X0487402Y0256496D01*
G75*
G02*
X0488386Y0255512I0000000J-000984D01*
G01*
X0488386Y0249213D01*
G75*
G02*
X0487402Y0248228I-000984J0000000D01*
G01*
X0481102Y0248228D01*
G75*
G02*
X0480118Y0249213I0000000J0000984D01*
G01*
G37*
G36*
G01*
X0457677Y0249213D02*
X0457677Y0255512D01*
G75*
G02*
X0458661Y0256496I0000984J0000000D01*
G01*
X0464961Y0256496D01*
G75*
G02*
X0465945Y0255512I0000000J-000984D01*
G01*
X0465945Y0249213D01*
G75*
G02*
X0464961Y0248228I-000984J0000000D01*
G01*
X0458661Y0248228D01*
G75*
G02*
X0457677Y0249213I0000000J0000984D01*
G01*
G37*
G36*
G01*
X0435236Y0249213D02*
X0435236Y0255512D01*
G75*
G02*
X0436220Y0256496I0000984J0000000D01*
G01*
X0442520Y0256496D01*
G75*
G02*
X0443504Y0255512I0000000J-000984D01*
G01*
X0443504Y0249213D01*
G75*
G02*
X0442520Y0248228I-000984J0000000D01*
G01*
X0436220Y0248228D01*
G75*
G02*
X0435236Y0249213I0000000J0000984D01*
G01*
G37*
G36*
G01*
X0412795Y0249213D02*
X0412795Y0255512D01*
G75*
G02*
X0413780Y0256496I0000984J0000000D01*
G01*
X0420079Y0256496D01*
G75*
G02*
X0421063Y0255512I0000000J-000984D01*
G01*
X0421063Y0249213D01*
G75*
G02*
X0420079Y0248228I-000984J0000000D01*
G01*
X0413780Y0248228D01*
G75*
G02*
X0412795Y0249213I0000000J0000984D01*
G01*
G37*
G36*
G01*
X0390354Y0249213D02*
X0390354Y0255512D01*
G75*
G02*
X0391339Y0256496I0000984J0000000D01*
G01*
X0397638Y0256496D01*
G75*
G02*
X0398622Y0255512I0000000J-000984D01*
G01*
X0398622Y0249213D01*
G75*
G02*
X0397638Y0248228I-000984J0000000D01*
G01*
X0391339Y0248228D01*
G75*
G02*
X0390354Y0249213I0000000J0000984D01*
G01*
G37*
G36*
G01*
X0367913Y0249213D02*
X0367913Y0255512D01*
G75*
G02*
X0368898Y0256496I0000984J0000000D01*
G01*
X0375197Y0256496D01*
G75*
G02*
X0376181Y0255512I0000000J-000984D01*
G01*
X0376181Y0249213D01*
G75*
G02*
X0375197Y0248228I-000984J0000000D01*
G01*
X0368898Y0248228D01*
G75*
G02*
X0367913Y0249213I0000000J0000984D01*
G01*
G37*
G36*
G01*
X0199164Y0103784D02*
X0196992Y0105955D01*
G75*
G02*
X0196992Y0106345I0000195J0000195D01*
G01*
X0198551Y0107904D01*
G75*
G02*
X0198941Y0107904I0000195J-000195D01*
G01*
X0201112Y0105733D01*
G75*
G02*
X0201112Y0105343I-000195J-000195D01*
G01*
X0199553Y0103784D01*
G75*
G02*
X0199164Y0103784I-000195J0000195D01*
G01*
G37*
G36*
G01*
X0203618Y0108238D02*
X0201447Y0110409D01*
G75*
G02*
X0201447Y0110799I0000195J0000195D01*
G01*
X0203006Y0112358D01*
G75*
G02*
X0203395Y0112358I0000195J-000195D01*
G01*
X0205567Y0110187D01*
G75*
G02*
X0205567Y0109797I-000195J-000195D01*
G01*
X0204008Y0108238D01*
G75*
G02*
X0203618Y0108238I-000195J0000195D01*
G01*
G37*
D17*
X0489370Y0191634D03*
X0489370Y0196358D03*
X0489370Y0186910D03*
X0489370Y0182185D03*
X0546161Y0207618D03*
X0546161Y0211555D03*
D46*
X0529035Y0161221D03*
D69*
X0534390Y0026595D03*
X0557146Y0026595D03*
D47*
X0532579Y0030788D03*
X0535728Y0030788D03*
X0540846Y0030788D03*
X0544783Y0030788D03*
X0546752Y0030788D03*
X0550689Y0030788D03*
X0555807Y0030788D03*
X0558957Y0030788D03*
X0557776Y0030788D03*
X0554626Y0030788D03*
X0552657Y0030788D03*
X0548720Y0030788D03*
X0542815Y0030788D03*
X0538878Y0030788D03*
X0536909Y0030788D03*
X0533760Y0030788D03*
D48*
X0528760Y0028563D03*
D49*
X0528760Y0012106D03*
D48*
X0562776Y0028563D03*
D49*
X0562776Y0012106D03*
D16*
X0574311Y0076477D03*
G36*
G01*
X0098112Y0169344D02*
X0095725Y0167966D01*
G75*
G02*
X0094381Y0168326I-000492J0000852D01*
G01*
X0091034Y0174122D01*
G75*
G02*
X0091394Y0175467I0000852J0000492D01*
G01*
X0093781Y0176845D01*
G75*
G02*
X0095126Y0176485I0000492J-000852D01*
G01*
X0098472Y0170688D01*
G75*
G02*
X0098112Y0169344I-000852J-000492D01*
G01*
G37*
G36*
G01*
X0105460Y0192680D02*
X0087389Y0182247D01*
G75*
G02*
X0086045Y0182607I-000492J0000852D01*
G01*
X0074430Y0202723D01*
G75*
G02*
X0074791Y0204068I0000852J0000492D01*
G01*
X0092861Y0214501D01*
G75*
G02*
X0094206Y0214141I0000492J-000852D01*
G01*
X0105820Y0194024D01*
G75*
G02*
X0105460Y0192680I-000852J-000492D01*
G01*
G37*
G36*
G01*
X0113659Y0178320D02*
X0111273Y0176942D01*
G75*
G02*
X0109928Y0177303I-000492J0000852D01*
G01*
X0106582Y0183099D01*
G75*
G02*
X0106942Y0184443I0000852J0000492D01*
G01*
X0109329Y0185821D01*
G75*
G02*
X0110673Y0185461I0000492J-000852D01*
G01*
X0114020Y0179665D01*
G75*
G02*
X0113659Y0178320I-000852J-000492D01*
G01*
G37*
G36*
G01*
X0109842Y0273032D02*
X0109842Y0271851D01*
G75*
G02*
X0109252Y0271260I-000591J0000000D01*
G01*
X0104626Y0271260D01*
G75*
G02*
X0104035Y0271851I0000000J0000591D01*
G01*
X0104035Y0273032D01*
G75*
G02*
X0104626Y0273622I0000591J0000000D01*
G01*
X0109252Y0273622D01*
G75*
G02*
X0109842Y0273032I0000000J-000591D01*
G01*
G37*
G36*
G01*
X0102461Y0276772D02*
X0102461Y0275591D01*
G75*
G02*
X0101870Y0275000I-000591J0000000D01*
G01*
X0097244Y0275000D01*
G75*
G02*
X0096654Y0275591I0000000J0000591D01*
G01*
X0096654Y0276772D01*
G75*
G02*
X0097244Y0277362I0000591J0000000D01*
G01*
X0101870Y0277362D01*
G75*
G02*
X0102461Y0276772I0000000J-000591D01*
G01*
G37*
G36*
G01*
X0109842Y0280512D02*
X0109842Y0279331D01*
G75*
G02*
X0109252Y0278740I-000591J0000000D01*
G01*
X0104626Y0278740D01*
G75*
G02*
X0104035Y0279331I0000000J0000591D01*
G01*
X0104035Y0280512D01*
G75*
G02*
X0104626Y0281102I0000591J0000000D01*
G01*
X0109252Y0281102D01*
G75*
G02*
X0109842Y0280512I0000000J-000591D01*
G01*
G37*
G36*
G01*
X0272185Y0230512D02*
X0275256Y0230512D01*
G75*
G02*
X0275531Y0230236I0000000J-000276D01*
G01*
X0275531Y0228032D01*
G75*
G02*
X0275256Y0227756I-000276J0000000D01*
G01*
X0272185Y0227756D01*
G75*
G02*
X0271909Y0228032I0000000J0000276D01*
G01*
X0271909Y0230236D01*
G75*
G02*
X0272185Y0230512I0000276J0000000D01*
G01*
G37*
G36*
G01*
X0272185Y0224213D02*
X0275256Y0224213D01*
G75*
G02*
X0275531Y0223937I0000000J-000276D01*
G01*
X0275531Y0221732D01*
G75*
G02*
X0275256Y0221457I-000276J0000000D01*
G01*
X0272185Y0221457D01*
G75*
G02*
X0271909Y0221732I0000000J0000276D01*
G01*
X0271909Y0223937D01*
G75*
G02*
X0272185Y0224213I0000276J0000000D01*
G01*
G37*
G36*
G01*
X0132561Y0175053D02*
X0130174Y0173675D01*
G75*
G02*
X0128829Y0174035I-000492J0000852D01*
G01*
X0125483Y0179831D01*
G75*
G02*
X0125843Y0181176I0000852J0000492D01*
G01*
X0128230Y0182554D01*
G75*
G02*
X0129574Y0182193I0000492J-000852D01*
G01*
X0132921Y0176397D01*
G75*
G02*
X0132561Y0175053I-000852J-000492D01*
G01*
G37*
G36*
G01*
X0139909Y0198388D02*
X0121838Y0187955D01*
G75*
G02*
X0120493Y0188316I-000492J0000852D01*
G01*
X0108879Y0208432D01*
G75*
G02*
X0109240Y0209776I0000852J0000492D01*
G01*
X0127310Y0220210D01*
G75*
G02*
X0128655Y0219849I0000492J-000852D01*
G01*
X0140269Y0199733D01*
G75*
G02*
X0139909Y0198388I-000852J-000492D01*
G01*
G37*
G36*
G01*
X0148108Y0184029D02*
X0145721Y0182651D01*
G75*
G02*
X0144377Y0183011I-000492J0000852D01*
G01*
X0141030Y0188807D01*
G75*
G02*
X0141391Y0190152I0000852J0000492D01*
G01*
X0143777Y0191530D01*
G75*
G02*
X0145122Y0191170I0000492J-000852D01*
G01*
X0148468Y0185373D01*
G75*
G02*
X0148108Y0184029I-000852J-000492D01*
G01*
G37*
G36*
G01*
X0192185Y0269685D02*
X0189114Y0269685D01*
G75*
G02*
X0188839Y0269961I0000000J0000276D01*
G01*
X0188839Y0272165D01*
G75*
G02*
X0189114Y0272441I0000276J0000000D01*
G01*
X0192185Y0272441D01*
G75*
G02*
X0192461Y0272165I0000000J-000276D01*
G01*
X0192461Y0269961D01*
G75*
G02*
X0192185Y0269685I-000276J0000000D01*
G01*
G37*
G36*
G01*
X0192185Y0275984D02*
X0189114Y0275984D01*
G75*
G02*
X0188839Y0276260I0000000J0000276D01*
G01*
X0188839Y0278465D01*
G75*
G02*
X0189114Y0278740I0000276J0000000D01*
G01*
X0192185Y0278740D01*
G75*
G02*
X0192461Y0278465I0000000J-000276D01*
G01*
X0192461Y0276260D01*
G75*
G02*
X0192185Y0275984I-000276J0000000D01*
G01*
G37*
G36*
G01*
X0625059Y0108268D02*
X0621988Y0108268D01*
G75*
G02*
X0621713Y0108543I0000000J0000276D01*
G01*
X0621713Y0110748D01*
G75*
G02*
X0621988Y0111024I0000276J0000000D01*
G01*
X0625059Y0111024D01*
G75*
G02*
X0625335Y0110748I0000000J-000276D01*
G01*
X0625335Y0108543D01*
G75*
G02*
X0625059Y0108268I-000276J0000000D01*
G01*
G37*
G36*
G01*
X0625059Y0114567D02*
X0621988Y0114567D01*
G75*
G02*
X0621713Y0114843I0000000J0000276D01*
G01*
X0621713Y0117047D01*
G75*
G02*
X0621988Y0117323I0000276J0000000D01*
G01*
X0625059Y0117323D01*
G75*
G02*
X0625335Y0117047I0000000J-000276D01*
G01*
X0625335Y0114843D01*
G75*
G02*
X0625059Y0114567I-000276J0000000D01*
G01*
G37*
G36*
G01*
X0062416Y0170380D02*
X0060029Y0169002D01*
G75*
G02*
X0058684Y0169362I-000492J0000852D01*
G01*
X0055338Y0175158D01*
G75*
G02*
X0055698Y0176503I0000852J0000492D01*
G01*
X0058085Y0177881D01*
G75*
G02*
X0059429Y0177520I0000492J-000852D01*
G01*
X0062776Y0171724D01*
G75*
G02*
X0062416Y0170380I-000852J-000492D01*
G01*
G37*
G36*
G01*
X0069764Y0193716D02*
X0051693Y0183282D01*
G75*
G02*
X0050349Y0183643I-000492J0000852D01*
G01*
X0038734Y0203759D01*
G75*
G02*
X0039095Y0205104I0000852J0000492D01*
G01*
X0057165Y0215537D01*
G75*
G02*
X0058510Y0215176I0000492J-000852D01*
G01*
X0070124Y0195060D01*
G75*
G02*
X0069764Y0193716I-000852J-000492D01*
G01*
G37*
G36*
G01*
X0077963Y0179356D02*
X0075576Y0177978D01*
G75*
G02*
X0074232Y0178338I-000492J0000852D01*
G01*
X0070885Y0184135D01*
G75*
G02*
X0071246Y0185479I0000852J0000492D01*
G01*
X0073632Y0186857D01*
G75*
G02*
X0074977Y0186497I0000492J-000852D01*
G01*
X0078323Y0180701D01*
G75*
G02*
X0077963Y0179356I-000852J-000492D01*
G01*
G37*
G36*
G01*
X0132431Y0272835D02*
X0132431Y0271654D01*
G75*
G02*
X0131841Y0271063I-000591J0000000D01*
G01*
X0127215Y0271063D01*
G75*
G02*
X0126624Y0271654I0000000J0000591D01*
G01*
X0126624Y0272835D01*
G75*
G02*
X0127215Y0273425I0000591J0000000D01*
G01*
X0131841Y0273425D01*
G75*
G02*
X0132431Y0272835I0000000J-000591D01*
G01*
G37*
G36*
G01*
X0125049Y0276575D02*
X0125049Y0275394D01*
G75*
G02*
X0124459Y0274803I-000591J0000000D01*
G01*
X0119833Y0274803D01*
G75*
G02*
X0119242Y0275394I0000000J0000591D01*
G01*
X0119242Y0276575D01*
G75*
G02*
X0119833Y0277165I0000591J0000000D01*
G01*
X0124459Y0277165D01*
G75*
G02*
X0125049Y0276575I0000000J-000591D01*
G01*
G37*
G36*
G01*
X0132431Y0280315D02*
X0132431Y0279134D01*
G75*
G02*
X0131841Y0278543I-000591J0000000D01*
G01*
X0127215Y0278543D01*
G75*
G02*
X0126624Y0279134I0000000J0000591D01*
G01*
X0126624Y0280315D01*
G75*
G02*
X0127215Y0280906I0000591J0000000D01*
G01*
X0131841Y0280906D01*
G75*
G02*
X0132431Y0280315I0000000J-000591D01*
G01*
G37*
D46*
X0543917Y0161221D03*
G36*
G01*
X0260689Y0187599D02*
X0257618Y0187599D01*
G75*
G02*
X0257342Y0187874I0000000J0000276D01*
G01*
X0257342Y0190079D01*
G75*
G02*
X0257618Y0190354I0000276J0000000D01*
G01*
X0260689Y0190354D01*
G75*
G02*
X0260965Y0190079I0000000J-000276D01*
G01*
X0260965Y0187874D01*
G75*
G02*
X0260689Y0187599I-000276J0000000D01*
G01*
G37*
G36*
G01*
X0260689Y0193898D02*
X0257618Y0193898D01*
G75*
G02*
X0257342Y0194173I0000000J0000276D01*
G01*
X0257342Y0196378D01*
G75*
G02*
X0257618Y0196654I0000276J0000000D01*
G01*
X0260689Y0196654D01*
G75*
G02*
X0260965Y0196378I0000000J-000276D01*
G01*
X0260965Y0194173D01*
G75*
G02*
X0260689Y0193898I-000276J0000000D01*
G01*
G37*
G36*
G01*
X0168110Y0271260D02*
X0168110Y0270079D01*
G75*
G02*
X0167520Y0269488I-000591J0000000D01*
G01*
X0162894Y0269488D01*
G75*
G02*
X0162303Y0270079I0000000J0000591D01*
G01*
X0162303Y0271260D01*
G75*
G02*
X0162894Y0271851I0000591J0000000D01*
G01*
X0167520Y0271851D01*
G75*
G02*
X0168110Y0271260I0000000J-000591D01*
G01*
G37*
G36*
G01*
X0160728Y0275000D02*
X0160728Y0273819D01*
G75*
G02*
X0160138Y0273228I-000591J0000000D01*
G01*
X0155512Y0273228D01*
G75*
G02*
X0154921Y0273819I0000000J0000591D01*
G01*
X0154921Y0275000D01*
G75*
G02*
X0155512Y0275591I0000591J0000000D01*
G01*
X0160138Y0275591D01*
G75*
G02*
X0160728Y0275000I0000000J-000591D01*
G01*
G37*
G36*
G01*
X0168110Y0278740D02*
X0168110Y0277559D01*
G75*
G02*
X0167520Y0276969I-000591J0000000D01*
G01*
X0162894Y0276969D01*
G75*
G02*
X0162303Y0277559I0000000J0000591D01*
G01*
X0162303Y0278740D01*
G75*
G02*
X0162894Y0279331I0000591J0000000D01*
G01*
X0167520Y0279331D01*
G75*
G02*
X0168110Y0278740I0000000J-000591D01*
G01*
G37*
D11*
X0255413Y0160236D03*
X0255413Y0169291D03*
X0255413Y0178347D03*
D12*
X0230610Y0169291D03*
G36*
G01*
X0205660Y0216532D02*
X0203001Y0214996D01*
G75*
G02*
X0202624Y0215097I-000138J0000239D01*
G01*
X0201522Y0217007D01*
G75*
G02*
X0201623Y0217383I0000239J0000138D01*
G01*
X0204282Y0218919D01*
G75*
G02*
X0204659Y0218818I0000138J-000239D01*
G01*
X0205761Y0216908D01*
G75*
G02*
X0205660Y0216532I-000239J-000138D01*
G01*
G37*
G36*
G01*
X0202511Y0221987D02*
X0199851Y0220452D01*
G75*
G02*
X0199475Y0220553I-000138J0000239D01*
G01*
X0198373Y0222462D01*
G75*
G02*
X0198473Y0222838I0000239J0000138D01*
G01*
X0201133Y0224374D01*
G75*
G02*
X0201509Y0224273I0000138J-000239D01*
G01*
X0202612Y0222364D01*
G75*
G02*
X0202511Y0221987I-000239J-000138D01*
G01*
G37*
G36*
G01*
X0186417Y0271063D02*
X0186417Y0269882D01*
G75*
G02*
X0185827Y0269291I-000591J0000000D01*
G01*
X0181201Y0269291D01*
G75*
G02*
X0180610Y0269882I0000000J0000591D01*
G01*
X0180610Y0271063D01*
G75*
G02*
X0181201Y0271654I0000591J0000000D01*
G01*
X0185827Y0271654D01*
G75*
G02*
X0186417Y0271063I0000000J-000591D01*
G01*
G37*
G36*
G01*
X0179035Y0274803D02*
X0179035Y0273622D01*
G75*
G02*
X0178445Y0273032I-000591J0000000D01*
G01*
X0173819Y0273032D01*
G75*
G02*
X0173228Y0273622I0000000J0000591D01*
G01*
X0173228Y0274803D01*
G75*
G02*
X0173819Y0275394I0000591J0000000D01*
G01*
X0178445Y0275394D01*
G75*
G02*
X0179035Y0274803I0000000J-000591D01*
G01*
G37*
G36*
G01*
X0186417Y0278543D02*
X0186417Y0277362D01*
G75*
G02*
X0185827Y0276772I-000591J0000000D01*
G01*
X0181201Y0276772D01*
G75*
G02*
X0180610Y0277362I0000000J0000591D01*
G01*
X0180610Y0278543D01*
G75*
G02*
X0181201Y0279134I0000591J0000000D01*
G01*
X0185827Y0279134D01*
G75*
G02*
X0186417Y0278543I0000000J-000591D01*
G01*
G37*
D10*
X0446161Y0173425D03*
G36*
G01*
X0451457Y0169882D02*
X0448740Y0169882D01*
G75*
G02*
X0447835Y0170788I0000000J0000906D01*
G01*
X0447835Y0176063D01*
G75*
G02*
X0448740Y0176969I0000906J0000000D01*
G01*
X0451457Y0176969D01*
G75*
G02*
X0452362Y0176063I0000000J-000906D01*
G01*
X0452362Y0170788D01*
G75*
G02*
X0451457Y0169882I-000906J0000000D01*
G01*
G37*
G36*
G01*
X0462874Y0169882D02*
X0460157Y0169882D01*
G75*
G02*
X0459252Y0170788I0000000J0000906D01*
G01*
X0459252Y0176063D01*
G75*
G02*
X0460157Y0176969I0000906J0000000D01*
G01*
X0462874Y0176969D01*
G75*
G02*
X0463780Y0176063I0000000J-000906D01*
G01*
X0463780Y0170788D01*
G75*
G02*
X0462874Y0169882I-000906J0000000D01*
G01*
G37*
X0465453Y0173425D03*
D62*
X0553888Y0175099D03*
X0553888Y0169193D03*
X0553888Y0163288D03*
X0553888Y0157382D03*
X0553888Y0151477D03*
X0553888Y0145571D03*
X0553888Y0139665D03*
X0553888Y0133760D03*
X0553888Y0127854D03*
X0553888Y0121949D03*
X0553888Y0116043D03*
X0553888Y0110138D03*
X0553888Y0104232D03*
X0603888Y0104232D03*
X0603888Y0110138D03*
X0603888Y0116043D03*
X0603888Y0121949D03*
X0603888Y0127854D03*
X0603888Y0133760D03*
X0603888Y0139665D03*
X0603888Y0145571D03*
X0603888Y0151477D03*
X0603888Y0157382D03*
X0603888Y0163288D03*
X0603888Y0169193D03*
X0603888Y0175099D03*
D13*
X0113130Y0031890D03*
D14*
X0130650Y0031890D03*
X0148130Y0031890D03*
X0165650Y0031890D03*
X0183130Y0031890D03*
X0200650Y0031890D03*
X0200650Y0014370D03*
X0183130Y0014370D03*
X0165650Y0014370D03*
X0148130Y0014370D03*
X0130650Y0014370D03*
X0113130Y0014370D03*
D15*
X0089370Y0023110D03*
X0224370Y0023110D03*
G36*
G01*
X0026786Y0169986D02*
X0024399Y0168608D01*
G75*
G02*
X0023054Y0168968I-000492J0000852D01*
G01*
X0019708Y0174765D01*
G75*
G02*
X0020068Y0176109I0000852J0000492D01*
G01*
X0022455Y0177487D01*
G75*
G02*
X0023799Y0177127I0000492J-000852D01*
G01*
X0027146Y0171331D01*
G75*
G02*
X0026786Y0169986I-000852J-000492D01*
G01*
G37*
G36*
G01*
X0034134Y0193322D02*
X0016063Y0182889D01*
G75*
G02*
X0014719Y0183249I-000492J0000852D01*
G01*
X0003104Y0203365D01*
G75*
G02*
X0003465Y0204710I0000852J0000492D01*
G01*
X0021535Y0215143D01*
G75*
G02*
X0022880Y0214783I0000492J-000852D01*
G01*
X0034494Y0194666D01*
G75*
G02*
X0034134Y0193322I-000852J-000492D01*
G01*
G37*
G36*
G01*
X0042333Y0178962D02*
X0039947Y0177584D01*
G75*
G02*
X0038602Y0177945I-000492J0000852D01*
G01*
X0035256Y0183741D01*
G75*
G02*
X0035616Y0185085I0000852J0000492D01*
G01*
X0038003Y0186463D01*
G75*
G02*
X0039347Y0186103I0000492J-000852D01*
G01*
X0042693Y0180307D01*
G75*
G02*
X0042333Y0178962I-000852J-000492D01*
G01*
G37*
D10*
X0493672Y0167647D03*
G36*
G01*
X0494910Y0161398D02*
X0492990Y0163318D01*
G75*
G02*
X0492990Y0164599I0000640J0000640D01*
G01*
X0496720Y0168329D01*
G75*
G02*
X0498001Y0168329I0000640J-000640D01*
G01*
X0499921Y0166409D01*
G75*
G02*
X0499921Y0165128I-000640J-000640D01*
G01*
X0496191Y0161398D01*
G75*
G02*
X0494910Y0161398I-000640J0000640D01*
G01*
G37*
G36*
G01*
X0502984Y0153324D02*
X0501063Y0155245D01*
G75*
G02*
X0501063Y0156526I0000640J0000640D01*
G01*
X0504793Y0160256D01*
G75*
G02*
X0506074Y0160256I0000640J-000640D01*
G01*
X0507995Y0158335D01*
G75*
G02*
X0507995Y0157055I-000640J-000640D01*
G01*
X0504264Y0153324D01*
G75*
G02*
X0502984Y0153324I-000640J0000640D01*
G01*
G37*
X0507313Y0154006D03*
G36*
G01*
X0448878Y0212402D02*
X0445807Y0212402D01*
G75*
G02*
X0445531Y0212677I0000000J0000276D01*
G01*
X0445531Y0214882D01*
G75*
G02*
X0445807Y0215158I0000276J0000000D01*
G01*
X0448878Y0215158D01*
G75*
G02*
X0449154Y0214882I0000000J-000276D01*
G01*
X0449154Y0212677D01*
G75*
G02*
X0448878Y0212402I-000276J0000000D01*
G01*
G37*
G36*
G01*
X0448878Y0218701D02*
X0445807Y0218701D01*
G75*
G02*
X0445531Y0218977I0000000J0000276D01*
G01*
X0445531Y0221181D01*
G75*
G02*
X0445807Y0221457I0000276J0000000D01*
G01*
X0448878Y0221457D01*
G75*
G02*
X0449154Y0221181I0000000J-000276D01*
G01*
X0449154Y0218977D01*
G75*
G02*
X0448878Y0218701I-000276J0000000D01*
G01*
G37*
G36*
G01*
X0210779Y0182477D02*
X0208119Y0180941D01*
G75*
G02*
X0207743Y0181042I-000138J0000239D01*
G01*
X0206640Y0182952D01*
G75*
G02*
X0206741Y0183328I0000239J0000138D01*
G01*
X0209401Y0184863D01*
G75*
G02*
X0209777Y0184763I0000138J-000239D01*
G01*
X0210879Y0182853D01*
G75*
G02*
X0210779Y0182477I-000239J-000138D01*
G01*
G37*
G36*
G01*
X0207629Y0187932D02*
X0204969Y0186397D01*
G75*
G02*
X0204593Y0186498I-000138J0000239D01*
G01*
X0203491Y0188407D01*
G75*
G02*
X0203592Y0188783I0000239J0000138D01*
G01*
X0206251Y0190319D01*
G75*
G02*
X0206627Y0190218I0000138J-000239D01*
G01*
X0207730Y0188309D01*
G75*
G02*
X0207629Y0187932I-000239J-000138D01*
G01*
G37*
G36*
G01*
X0532185Y0037638D02*
X0532185Y0040709D01*
G75*
G02*
X0532461Y0040984I0000276J0000000D01*
G01*
X0534665Y0040984D01*
G75*
G02*
X0534941Y0040709I0000000J-000276D01*
G01*
X0534941Y0037638D01*
G75*
G02*
X0534665Y0037362I-000276J0000000D01*
G01*
X0532461Y0037362D01*
G75*
G02*
X0532185Y0037638I0000000J0000276D01*
G01*
G37*
G36*
G01*
X0538484Y0037638D02*
X0538484Y0040709D01*
G75*
G02*
X0538760Y0040984I0000276J0000000D01*
G01*
X0540965Y0040984D01*
G75*
G02*
X0541240Y0040709I0000000J-000276D01*
G01*
X0541240Y0037638D01*
G75*
G02*
X0540965Y0037362I-000276J0000000D01*
G01*
X0538760Y0037362D01*
G75*
G02*
X0538484Y0037638I0000000J0000276D01*
G01*
G37*
X0450492Y0141929D02*
G01*
G75*
D340*
X0474859Y0096850D02*
D03*
X0457142Y0096850D02*
D03*
D341*
X0499311Y0100177D02*
D03*
X0499311Y0127539D02*
D03*
D342*
X0476083Y0111417D02*
D03*
X0476083Y0127559D02*
D03*
D343*
X0457972Y0109646D02*
D03*
X0457972Y0125394D02*
D03*
D344*
X0519750Y0132585D02*
D03*
X0516010Y0123333D02*
D03*
D344*
X0523490Y0123333D02*
D03*
D345*
X0529429Y0100498D02*
D03*
D345*
X0525689Y0100498D02*
D03*
X0521949Y0100498D02*
D03*
X0521949Y0092034D02*
D03*
X0529429Y0092034D02*
D03*
D346*
X0515428Y0088182D02*
D03*
X0515428Y0101174D02*
D03*
D347*
X0515716Y0106468D02*
D03*
X0515716Y0117886D02*
D03*
D348*
X0483169Y0087283D02*
D03*
X0483169Y0093504D02*
D03*
X0483169Y0097874D02*
D03*
X0483169Y0104094D02*
D03*
D349*
X0460280Y0137960D02*
D03*
X0464414Y0137960D02*
D03*
X0502154Y0087405D02*
D03*
X0506288Y0087405D02*
D03*
X0497441Y0087405D02*
D03*
X0493307Y0087405D02*
D03*
X0477792Y0086513D02*
D03*
X0473658Y0086513D02*
D03*
D350*
X0521999Y0105616D02*
D03*
X0525936Y0105616D02*
D03*
X0522901Y0119291D02*
D03*
X0522901Y0110630D02*
D03*
X0529298Y0119291D02*
D03*
X0529298Y0110630D02*
D03*
D351*
X0529429Y0127664D02*
D03*
X0529429Y0124120D02*
D03*
D352*
X0506091Y0091663D02*
D03*
X0502547Y0091663D02*
D03*
X0497047Y0091663D02*
D03*
X0493504Y0091663D02*
D03*
X0465491Y0086513D02*
D03*
X0469035Y0086513D02*
D03*
D122*
X0468602Y0076181D02*
D03*
X0464665Y0076181D02*
D03*
D123*
X0522145Y0138976D02*
D03*
X0455216Y0138976D02*
D03*
X0502657Y0138976D02*
D03*
X0502460Y0077953D02*
D03*
X0527657Y0077953D02*
D03*
X0478051Y0077953D02*
D03*
X0494980Y0077953D02*
D03*
X0453445Y0077953D02*
D03*
X0529429Y0138976D02*
D03*
X0626673Y0069094D02*
G01*
G75*
D271*
X0616449Y0083799D02*
D03*
X0623929Y0083799D02*
D03*
X0623929Y0075334D02*
D03*
X0620189Y0075334D02*
D03*
X0616449Y0099448D02*
D03*
X0623929Y0099448D02*
D03*
X0623929Y0090984D02*
D03*
X0620189Y0090984D02*
D03*
D271*
X0616449Y0075334D02*
D03*
X0616449Y0090984D02*
D03*
D122*
X0616437Y0104527D02*
D03*
X0620177Y0104527D02*
D03*
X0623917Y0104527D02*
D03*
X0619980Y0070275D02*
D03*
X0616437Y0070275D02*
D03*
X0339469Y0262402D02*
%LPD*%
G01*
G36*
G01*
X0285375Y0246575D02*
X0285375Y0247914D01*
G75*
G02*
X0285926Y0248465I0000551J0000000D01*
G01*
X0287028Y0248465D01*
G75*
G02*
X0287579Y0247914I0000000J-000551D01*
G01*
X0287579Y0246575D01*
G75*
G02*
X0287028Y0246024I-000551J0000000D01*
G01*
X0285926Y0246024D01*
G75*
G02*
X0285375Y0246575I0000000J0000551D01*
G01*
G37*
G36*
G01*
X0281595Y0246575D02*
X0281595Y0247914D01*
G75*
G02*
X0282146Y0248465I0000551J0000000D01*
G01*
X0283249Y0248465D01*
G75*
G02*
X0283800Y0247914I0000000J-000551D01*
G01*
X0283800Y0246575D01*
G75*
G02*
X0283249Y0246024I-000551J0000000D01*
G01*
X0282146Y0246024D01*
G75*
G02*
X0281595Y0246575I0000000J0000551D01*
G01*
G37*
G36*
G01*
X0311871Y0231811D02*
X0313209Y0231811D01*
G75*
G02*
X0313760Y0231260I0000000J-000551D01*
G01*
X0313760Y0230158D01*
G75*
G02*
X0313209Y0229607I-000551J0000000D01*
G01*
X0311871Y0229607D01*
G75*
G02*
X0311319Y0230158I0000000J0000551D01*
G01*
X0311319Y0231260D01*
G75*
G02*
X0311871Y0231811I0000551J0000000D01*
G01*
G37*
G36*
G01*
X0311871Y0235591D02*
X0313209Y0235591D01*
G75*
G02*
X0313760Y0235040I0000000J-000551D01*
G01*
X0313760Y0233937D01*
G75*
G02*
X0313209Y0233386I-000551J0000000D01*
G01*
X0311871Y0233386D01*
G75*
G02*
X0311319Y0233937I0000000J0000551D01*
G01*
X0311319Y0235040D01*
G75*
G02*
X0311871Y0235591I0000551J0000000D01*
G01*
G37*
G36*
G01*
X0298780Y0260473D02*
X0300237Y0260473D01*
G75*
G02*
X0300768Y0259941I0000000J-000531D01*
G01*
X0300768Y0258878D01*
G75*
G02*
X0300237Y0258347I-000531J0000000D01*
G01*
X0298780Y0258347D01*
G75*
G02*
X0298249Y0258878I0000000J0000531D01*
G01*
X0298249Y0259941D01*
G75*
G02*
X0298780Y0260473I0000531J0000000D01*
G01*
G37*
G36*
G01*
X0298780Y0256457D02*
X0300237Y0256457D01*
G75*
G02*
X0300768Y0255926I0000000J-000531D01*
G01*
X0300768Y0254863D01*
G75*
G02*
X0300237Y0254331I-000531J0000000D01*
G01*
X0298780Y0254331D01*
G75*
G02*
X0298249Y0254863I0000000J0000531D01*
G01*
X0298249Y0255926D01*
G75*
G02*
X0298780Y0256457I0000531J0000000D01*
G01*
G37*
G36*
G01*
X0309752Y0228130D02*
X0309752Y0226949D01*
G75*
G02*
X0309162Y0226359I-000591J0000000D01*
G01*
X0302666Y0226359D01*
G75*
G02*
X0302075Y0226949I0000000J0000591D01*
G01*
X0302075Y0228130D01*
G75*
G02*
X0302666Y0228721I0000591J0000000D01*
G01*
X0309162Y0228721D01*
G75*
G02*
X0309752Y0228130I0000000J-000591D01*
G01*
G37*
G36*
G01*
X0309752Y0233130D02*
X0309752Y0231949D01*
G75*
G02*
X0309162Y0231359I-000591J0000000D01*
G01*
X0302666Y0231359D01*
G75*
G02*
X0302075Y0231949I0000000J0000591D01*
G01*
X0302075Y0233130D01*
G75*
G02*
X0302666Y0233721I0000591J0000000D01*
G01*
X0309162Y0233721D01*
G75*
G02*
X0309752Y0233130I0000000J-000591D01*
G01*
G37*
G36*
G01*
X0309752Y0238130D02*
X0309752Y0236949D01*
G75*
G02*
X0309162Y0236359I-000591J0000000D01*
G01*
X0302666Y0236359D01*
G75*
G02*
X0302075Y0236949I0000000J0000591D01*
G01*
X0302075Y0238130D01*
G75*
G02*
X0302666Y0238721I0000591J0000000D01*
G01*
X0309162Y0238721D01*
G75*
G02*
X0309752Y0238130I0000000J-000591D01*
G01*
G37*
G36*
G01*
X0309752Y0243130D02*
X0309752Y0241949D01*
G75*
G02*
X0309162Y0241359I-000591J0000000D01*
G01*
X0302666Y0241359D01*
G75*
G02*
X0302075Y0241949I0000000J0000591D01*
G01*
X0302075Y0243130D01*
G75*
G02*
X0302666Y0243721I0000591J0000000D01*
G01*
X0309162Y0243721D01*
G75*
G02*
X0309752Y0243130I0000000J-000591D01*
G01*
G37*
G36*
G01*
X0290264Y0243130D02*
X0290264Y0241949D01*
G75*
G02*
X0289674Y0241359I-000591J0000000D01*
G01*
X0283178Y0241359D01*
G75*
G02*
X0282587Y0241949I0000000J0000591D01*
G01*
X0282587Y0243130D01*
G75*
G02*
X0283178Y0243721I0000591J0000000D01*
G01*
X0289674Y0243721D01*
G75*
G02*
X0290264Y0243130I0000000J-000591D01*
G01*
G37*
G36*
G01*
X0290264Y0238130D02*
X0290264Y0236949D01*
G75*
G02*
X0289674Y0236359I-000591J0000000D01*
G01*
X0283178Y0236359D01*
G75*
G02*
X0282587Y0236949I0000000J0000591D01*
G01*
X0282587Y0238130D01*
G75*
G02*
X0283178Y0238721I0000591J0000000D01*
G01*
X0289674Y0238721D01*
G75*
G02*
X0290264Y0238130I0000000J-000591D01*
G01*
G37*
G36*
G01*
X0290264Y0233130D02*
X0290264Y0231949D01*
G75*
G02*
X0289674Y0231359I-000591J0000000D01*
G01*
X0283178Y0231359D01*
G75*
G02*
X0282587Y0231949I0000000J0000591D01*
G01*
X0282587Y0233130D01*
G75*
G02*
X0283178Y0233721I0000591J0000000D01*
G01*
X0289674Y0233721D01*
G75*
G02*
X0290264Y0233130I0000000J-000591D01*
G01*
G37*
G36*
G01*
X0290264Y0228130D02*
X0290264Y0226949D01*
G75*
G02*
X0289674Y0226359I-000591J0000000D01*
G01*
X0283178Y0226359D01*
G75*
G02*
X0282587Y0226949I0000000J0000591D01*
G01*
X0282587Y0228130D01*
G75*
G02*
X0283178Y0228721I0000591J0000000D01*
G01*
X0289674Y0228721D01*
G75*
G02*
X0290264Y0228130I0000000J-000591D01*
G01*
G37*
D140*
X0324272Y0227402D03*
X0324272Y0229961D03*
X0324272Y0232520D03*
X0316792Y0232520D03*
X0316792Y0229961D03*
X0316792Y0227402D03*
D17*
X0281201Y0235237D03*
X0281201Y0239961D03*
X0281201Y0230512D03*
X0281201Y0225788D03*
X0337993Y0251221D03*
X0337993Y0255158D03*
G36*
G01*
X0308111Y0246490D02*
X0306654Y0246490D01*
G75*
G02*
X0306123Y0247022I0000000J0000531D01*
G01*
X0306123Y0248085D01*
G75*
G02*
X0306654Y0248616I0000531J0000000D01*
G01*
X0308111Y0248616D01*
G75*
G02*
X0308642Y0248085I0000000J-000531D01*
G01*
X0308642Y0247022D01*
G75*
G02*
X0308111Y0246490I-000531J0000000D01*
G01*
G37*
G36*
G01*
X0308111Y0250506D02*
X0306654Y0250506D01*
G75*
G02*
X0306123Y0251037I0000000J0000531D01*
G01*
X0306123Y0252100D01*
G75*
G02*
X0306654Y0252632I0000531J0000000D01*
G01*
X0308111Y0252632D01*
G75*
G02*
X0308642Y0252100I0000000J-000531D01*
G01*
X0308642Y0251037D01*
G75*
G02*
X0308111Y0250506I-000531J0000000D01*
G01*
G37*
G36*
G01*
X0302776Y0252553D02*
X0304115Y0252553D01*
G75*
G02*
X0304666Y0252002I0000000J-000551D01*
G01*
X0304666Y0250900D01*
G75*
G02*
X0304115Y0250348I-000551J0000000D01*
G01*
X0302776Y0250348D01*
G75*
G02*
X0302225Y0250900I0000000J0000551D01*
G01*
X0302225Y0252002D01*
G75*
G02*
X0302776Y0252553I0000551J0000000D01*
G01*
G37*
G36*
G01*
X0302776Y0248774D02*
X0304115Y0248774D01*
G75*
G02*
X0304666Y0248222I0000000J-000551D01*
G01*
X0304666Y0247120D01*
G75*
G02*
X0304115Y0246569I-000551J0000000D01*
G01*
X0302776Y0246569D01*
G75*
G02*
X0302225Y0247120I0000000J0000551D01*
G01*
X0302225Y0248222D01*
G75*
G02*
X0302776Y0248774I0000551J0000000D01*
G01*
G37*
G36*
G01*
X0306654Y0260473D02*
X0308111Y0260473D01*
G75*
G02*
X0308642Y0259941I0000000J-000531D01*
G01*
X0308642Y0258878D01*
G75*
G02*
X0308111Y0258347I-000531J0000000D01*
G01*
X0306654Y0258347D01*
G75*
G02*
X0306123Y0258878I0000000J0000531D01*
G01*
X0306123Y0259941D01*
G75*
G02*
X0306654Y0260473I0000531J0000000D01*
G01*
G37*
G36*
G01*
X0306654Y0256457D02*
X0308111Y0256457D01*
G75*
G02*
X0308642Y0255926I0000000J-000531D01*
G01*
X0308642Y0254863D01*
G75*
G02*
X0308111Y0254331I-000531J0000000D01*
G01*
X0306654Y0254331D01*
G75*
G02*
X0306123Y0254863I0000000J0000531D01*
G01*
X0306123Y0255926D01*
G75*
G02*
X0306654Y0256457I0000531J0000000D01*
G01*
G37*
G36*
G01*
X0295060Y0254410D02*
X0293721Y0254410D01*
G75*
G02*
X0293170Y0254961I0000000J0000551D01*
G01*
X0293170Y0256063D01*
G75*
G02*
X0293721Y0256615I0000551J0000000D01*
G01*
X0295060Y0256615D01*
G75*
G02*
X0295611Y0256063I0000000J-000551D01*
G01*
X0295611Y0254961D01*
G75*
G02*
X0295060Y0254410I-000551J0000000D01*
G01*
G37*
G36*
G01*
X0295060Y0258189D02*
X0293721Y0258189D01*
G75*
G02*
X0293170Y0258741I0000000J0000551D01*
G01*
X0293170Y0259843D01*
G75*
G02*
X0293721Y0260394I0000551J0000000D01*
G01*
X0295060Y0260394D01*
G75*
G02*
X0295611Y0259843I0000000J-000551D01*
G01*
X0295611Y0258741D01*
G75*
G02*
X0295060Y0258189I-000551J0000000D01*
G01*
G37*
G36*
G01*
X0318189Y0250552D02*
X0316851Y0250552D01*
G75*
G02*
X0316300Y0251103I0000000J0000551D01*
G01*
X0316300Y0252205D01*
G75*
G02*
X0316851Y0252756I0000551J0000000D01*
G01*
X0318189Y0252756D01*
G75*
G02*
X0318741Y0252205I0000000J-000551D01*
G01*
X0318741Y0251103D01*
G75*
G02*
X0318189Y0250552I-000551J0000000D01*
G01*
G37*
G36*
G01*
X0318189Y0254331D02*
X0316851Y0254331D01*
G75*
G02*
X0316300Y0254882I0000000J0000551D01*
G01*
X0316300Y0255985D01*
G75*
G02*
X0316851Y0256536I0000551J0000000D01*
G01*
X0318189Y0256536D01*
G75*
G02*
X0318741Y0255985I0000000J-000551D01*
G01*
X0318741Y0254882D01*
G75*
G02*
X0318189Y0254331I-000551J0000000D01*
G01*
G37*
G36*
G01*
X0312599Y0247304D02*
X0312599Y0248760D01*
G75*
G02*
X0313130Y0249292I0000531J0000000D01*
G01*
X0314193Y0249292D01*
G75*
G02*
X0314725Y0248760I0000000J-000531D01*
G01*
X0314725Y0247304D01*
G75*
G02*
X0314193Y0246772I-000531J0000000D01*
G01*
X0313130Y0246772D01*
G75*
G02*
X0312599Y0247304I0000000J0000531D01*
G01*
G37*
G36*
G01*
X0316615Y0247304D02*
X0316615Y0248760D01*
G75*
G02*
X0317146Y0249292I0000531J0000000D01*
G01*
X0318209Y0249292D01*
G75*
G02*
X0318741Y0248760I0000000J-000531D01*
G01*
X0318741Y0247304D01*
G75*
G02*
X0318209Y0246772I-000531J0000000D01*
G01*
X0317146Y0246772D01*
G75*
G02*
X0316615Y0247304I0000000J0000531D01*
G01*
G37*
G36*
G01*
X0336024Y0239592D02*
X0336024Y0237574D01*
G75*
G02*
X0335163Y0236713I-000861J0000000D01*
G01*
X0333440Y0236713D01*
G75*
G02*
X0332579Y0237574I0000000J0000861D01*
G01*
X0332579Y0239592D01*
G75*
G02*
X0333440Y0240453I0000861J0000000D01*
G01*
X0335163Y0240453D01*
G75*
G02*
X0336024Y0239592I0000000J-000861D01*
G01*
G37*
G36*
G01*
X0329823Y0239592D02*
X0329823Y0237574D01*
G75*
G02*
X0328962Y0236713I-000861J0000000D01*
G01*
X0327240Y0236713D01*
G75*
G02*
X0326378Y0237574I0000000J0000861D01*
G01*
X0326378Y0239592D01*
G75*
G02*
X0327240Y0240453I0000861J0000000D01*
G01*
X0328962Y0240453D01*
G75*
G02*
X0329823Y0239592I0000000J-000861D01*
G01*
G37*
G36*
G01*
X0329508Y0232737D02*
X0329508Y0234193D01*
G75*
G02*
X0330040Y0234725I0000531J0000000D01*
G01*
X0331103Y0234725D01*
G75*
G02*
X0331634Y0234193I0000000J-000531D01*
G01*
X0331634Y0232737D01*
G75*
G02*
X0331103Y0232205I-000531J0000000D01*
G01*
X0330040Y0232205D01*
G75*
G02*
X0329508Y0232737I0000000J0000531D01*
G01*
G37*
G36*
G01*
X0333524Y0232737D02*
X0333524Y0234193D01*
G75*
G02*
X0334056Y0234725I0000531J0000000D01*
G01*
X0335119Y0234725D01*
G75*
G02*
X0335650Y0234193I0000000J-000531D01*
G01*
X0335650Y0232737D01*
G75*
G02*
X0335119Y0232205I-000531J0000000D01*
G01*
X0334056Y0232205D01*
G75*
G02*
X0333524Y0232737I0000000J0000531D01*
G01*
G37*
G36*
G01*
X0318741Y0244823D02*
X0318741Y0243367D01*
G75*
G02*
X0318209Y0242835I-000531J0000000D01*
G01*
X0317146Y0242835D01*
G75*
G02*
X0316615Y0243367I0000000J0000531D01*
G01*
X0316615Y0244823D01*
G75*
G02*
X0317146Y0245355I0000531J0000000D01*
G01*
X0318209Y0245355D01*
G75*
G02*
X0318741Y0244823I0000000J-000531D01*
G01*
G37*
G36*
G01*
X0314725Y0244823D02*
X0314725Y0243367D01*
G75*
G02*
X0314193Y0242835I-000531J0000000D01*
G01*
X0313130Y0242835D01*
G75*
G02*
X0312599Y0243367I0000000J0000531D01*
G01*
X0312599Y0244823D01*
G75*
G02*
X0313130Y0245355I0000531J0000000D01*
G01*
X0314193Y0245355D01*
G75*
G02*
X0314725Y0244823I0000000J-000531D01*
G01*
G37*
G36*
G01*
X0313426Y0250614D02*
X0311969Y0250614D01*
G75*
G02*
X0311438Y0251145I0000000J0000531D01*
G01*
X0311438Y0252208D01*
G75*
G02*
X0311969Y0252740I0000531J0000000D01*
G01*
X0313426Y0252740D01*
G75*
G02*
X0313957Y0252208I0000000J-000531D01*
G01*
X0313957Y0251145D01*
G75*
G02*
X0313426Y0250614I-000531J0000000D01*
G01*
G37*
G36*
G01*
X0313426Y0254630D02*
X0311969Y0254630D01*
G75*
G02*
X0311438Y0255161I0000000J0000531D01*
G01*
X0311438Y0256224D01*
G75*
G02*
X0311969Y0256755I0000531J0000000D01*
G01*
X0313426Y0256755D01*
G75*
G02*
X0313957Y0256224I0000000J-000531D01*
G01*
X0313957Y0255161D01*
G75*
G02*
X0313426Y0254630I-000531J0000000D01*
G01*
G37*
G36*
G01*
X0330768Y0244016D02*
X0330768Y0245355D01*
G75*
G02*
X0331319Y0245906I0000551J0000000D01*
G01*
X0332422Y0245906D01*
G75*
G02*
X0332973Y0245355I0000000J-000551D01*
G01*
X0332973Y0244016D01*
G75*
G02*
X0332422Y0243465I-000551J0000000D01*
G01*
X0331319Y0243465D01*
G75*
G02*
X0330768Y0244016I0000000J0000551D01*
G01*
G37*
G36*
G01*
X0334548Y0244016D02*
X0334548Y0245355D01*
G75*
G02*
X0335099Y0245906I0000551J0000000D01*
G01*
X0336201Y0245906D01*
G75*
G02*
X0336752Y0245355I0000000J-000551D01*
G01*
X0336752Y0244016D01*
G75*
G02*
X0336201Y0243465I-000551J0000000D01*
G01*
X0335099Y0243465D01*
G75*
G02*
X0334548Y0244016I0000000J0000551D01*
G01*
G37*
G36*
G01*
X0293721Y0252553D02*
X0295060Y0252553D01*
G75*
G02*
X0295611Y0252002I0000000J-000551D01*
G01*
X0295611Y0250900D01*
G75*
G02*
X0295060Y0250348I-000551J0000000D01*
G01*
X0293721Y0250348D01*
G75*
G02*
X0293170Y0250900I0000000J0000551D01*
G01*
X0293170Y0252002D01*
G75*
G02*
X0293721Y0252553I0000551J0000000D01*
G01*
G37*
G36*
G01*
X0293721Y0248774D02*
X0295060Y0248774D01*
G75*
G02*
X0295611Y0248222I0000000J-000551D01*
G01*
X0295611Y0247120D01*
G75*
G02*
X0295060Y0246569I-000551J0000000D01*
G01*
X0293721Y0246569D01*
G75*
G02*
X0293170Y0247120I0000000J0000551D01*
G01*
X0293170Y0248222D01*
G75*
G02*
X0293721Y0248774I0000551J0000000D01*
G01*
G37*
G36*
G01*
X0318741Y0260079D02*
X0318741Y0258622D01*
G75*
G02*
X0318209Y0258091I-000531J0000000D01*
G01*
X0317146Y0258091D01*
G75*
G02*
X0316615Y0258622I0000000J0000531D01*
G01*
X0316615Y0260079D01*
G75*
G02*
X0317146Y0260611I0000531J0000000D01*
G01*
X0318209Y0260611D01*
G75*
G02*
X0318741Y0260079I0000000J-000531D01*
G01*
G37*
G36*
G01*
X0314725Y0260079D02*
X0314725Y0258622D01*
G75*
G02*
X0314193Y0258091I-000531J0000000D01*
G01*
X0313130Y0258091D01*
G75*
G02*
X0312599Y0258622I0000000J0000531D01*
G01*
X0312599Y0260079D01*
G75*
G02*
X0313130Y0260611I0000531J0000000D01*
G01*
X0314193Y0260611D01*
G75*
G02*
X0314725Y0260079I0000000J-000531D01*
G01*
G37*
D141*
X0289482Y0258859D03*
X0286923Y0258859D03*
X0284364Y0258859D03*
X0284364Y0251378D03*
X0286923Y0251378D03*
X0289482Y0251378D03*
G36*
G01*
X0335431Y0250073D02*
X0335431Y0248892D01*
G75*
G02*
X0334840Y0248301I-000591J0000000D01*
G01*
X0330805Y0248301D01*
G75*
G02*
X0330214Y0248892I0000000J0000591D01*
G01*
X0330214Y0250073D01*
G75*
G02*
X0330805Y0250663I0000591J0000000D01*
G01*
X0334840Y0250663D01*
G75*
G02*
X0335431Y0250073I0000000J-000591D01*
G01*
G37*
G36*
G01*
X0335431Y0253813D02*
X0335431Y0252632D01*
G75*
G02*
X0334840Y0252041I-000591J0000000D01*
G01*
X0330805Y0252041D01*
G75*
G02*
X0330214Y0252632I0000000J0000591D01*
G01*
X0330214Y0253813D01*
G75*
G02*
X0330805Y0254404I0000591J0000000D01*
G01*
X0334840Y0254404D01*
G75*
G02*
X0335431Y0253813I0000000J-000591D01*
G01*
G37*
G36*
G01*
X0335431Y0257553D02*
X0335431Y0256372D01*
G75*
G02*
X0334840Y0255782I-000591J0000000D01*
G01*
X0330805Y0255782D01*
G75*
G02*
X0330214Y0256372I0000000J0000591D01*
G01*
X0330214Y0257553D01*
G75*
G02*
X0330805Y0258144I0000591J0000000D01*
G01*
X0334840Y0258144D01*
G75*
G02*
X0335431Y0257553I0000000J-000591D01*
G01*
G37*
G36*
G01*
X0326474Y0257553D02*
X0326474Y0256372D01*
G75*
G02*
X0325884Y0255782I-000591J0000000D01*
G01*
X0321848Y0255782D01*
G75*
G02*
X0321258Y0256372I0000000J0000591D01*
G01*
X0321258Y0257553D01*
G75*
G02*
X0321848Y0258144I0000591J0000000D01*
G01*
X0325884Y0258144D01*
G75*
G02*
X0326474Y0257553I0000000J-000591D01*
G01*
G37*
G36*
G01*
X0326474Y0253813D02*
X0326474Y0252632D01*
G75*
G02*
X0325884Y0252041I-000591J0000000D01*
G01*
X0321848Y0252041D01*
G75*
G02*
X0321258Y0252632I0000000J0000591D01*
G01*
X0321258Y0253813D01*
G75*
G02*
X0321848Y0254404I0000591J0000000D01*
G01*
X0325884Y0254404D01*
G75*
G02*
X0326474Y0253813I0000000J-000591D01*
G01*
G37*
G36*
G01*
X0326474Y0250073D02*
X0326474Y0248892D01*
G75*
G02*
X0325884Y0248301I-000591J0000000D01*
G01*
X0321848Y0248301D01*
G75*
G02*
X0321258Y0248892I0000000J0000591D01*
G01*
X0321258Y0250073D01*
G75*
G02*
X0321848Y0250663I0000591J0000000D01*
G01*
X0325884Y0250663D01*
G75*
G02*
X0326474Y0250073I0000000J-000591D01*
G01*
G37*
G36*
G01*
X0324548Y0238189D02*
X0324548Y0236851D01*
G75*
G02*
X0323997Y0236300I-000551J0000000D01*
G01*
X0322894Y0236300D01*
G75*
G02*
X0322343Y0236851I0000000J0000551D01*
G01*
X0322343Y0238189D01*
G75*
G02*
X0322894Y0238741I0000551J0000000D01*
G01*
X0323997Y0238741D01*
G75*
G02*
X0324548Y0238189I0000000J-000551D01*
G01*
G37*
G36*
G01*
X0320768Y0238189D02*
X0320768Y0236851D01*
G75*
G02*
X0320217Y0236300I-000551J0000000D01*
G01*
X0319115Y0236300D01*
G75*
G02*
X0318563Y0236851I0000000J0000551D01*
G01*
X0318563Y0238189D01*
G75*
G02*
X0319115Y0238741I0000551J0000000D01*
G01*
X0320217Y0238741D01*
G75*
G02*
X0320768Y0238189I0000000J-000551D01*
G01*
G37*
G36*
G01*
X0302776Y0260394D02*
X0304115Y0260394D01*
G75*
G02*
X0304666Y0259843I0000000J-000551D01*
G01*
X0304666Y0258741D01*
G75*
G02*
X0304115Y0258189I-000551J0000000D01*
G01*
X0302776Y0258189D01*
G75*
G02*
X0302225Y0258741I0000000J0000551D01*
G01*
X0302225Y0259843D01*
G75*
G02*
X0302776Y0260394I0000551J0000000D01*
G01*
G37*
G36*
G01*
X0302776Y0256615D02*
X0304115Y0256615D01*
G75*
G02*
X0304666Y0256063I0000000J-000551D01*
G01*
X0304666Y0254961D01*
G75*
G02*
X0304115Y0254410I-000551J0000000D01*
G01*
X0302776Y0254410D01*
G75*
G02*
X0302225Y0254961I0000000J0000551D01*
G01*
X0302225Y0256063D01*
G75*
G02*
X0302776Y0256615I0000551J0000000D01*
G01*
G37*
G36*
G01*
X0298780Y0252632D02*
X0300237Y0252632D01*
G75*
G02*
X0300768Y0252100I0000000J-000531D01*
G01*
X0300768Y0251037D01*
G75*
G02*
X0300237Y0250506I-000531J0000000D01*
G01*
X0298780Y0250506D01*
G75*
G02*
X0298249Y0251037I0000000J0000531D01*
G01*
X0298249Y0252100D01*
G75*
G02*
X0298780Y0252632I0000531J0000000D01*
G01*
G37*
G36*
G01*
X0298780Y0248616D02*
X0300237Y0248616D01*
G75*
G02*
X0300768Y0248085I0000000J-000531D01*
G01*
X0300768Y0247022D01*
G75*
G02*
X0300237Y0246490I-000531J0000000D01*
G01*
X0298780Y0246490D01*
G75*
G02*
X0298249Y0247022I0000000J0000531D01*
G01*
X0298249Y0248085D01*
G75*
G02*
X0298780Y0248616I0000531J0000000D01*
G01*
G37*
X0548327Y0219291D02*
%LPD*%
G01*
D17*
X0490059Y0192126D03*
X0490059Y0196850D03*
X0490059Y0187401D03*
X0490059Y0182677D03*
X0546851Y0208110D03*
X0546851Y0212047D03*
D143*
X0514469Y0206299D03*
X0514469Y0208267D03*
X0514469Y0210236D03*
X0514469Y0212204D03*
X0514469Y0214173D03*
X0497146Y0214173D03*
X0497146Y0212204D03*
X0497146Y0210236D03*
X0497146Y0208267D03*
X0497146Y0206299D03*
G36*
G01*
X0506949Y0193110D02*
X0503878Y0193110D01*
G75*
G02*
X0503603Y0193385I0000000J0000276D01*
G01*
X0503603Y0195590D01*
G75*
G02*
X0503878Y0195866I0000276J0000000D01*
G01*
X0506949Y0195866D01*
G75*
G02*
X0507225Y0195590I0000000J-000276D01*
G01*
X0507225Y0193385D01*
G75*
G02*
X0506949Y0193110I-000276J0000000D01*
G01*
G37*
G36*
G01*
X0506949Y0199409D02*
X0503878Y0199409D01*
G75*
G02*
X0503603Y0199685I0000000J0000276D01*
G01*
X0503603Y0201889D01*
G75*
G02*
X0503878Y0202165I0000276J0000000D01*
G01*
X0506949Y0202165D01*
G75*
G02*
X0507225Y0201889I0000000J-000276D01*
G01*
X0507225Y0199685D01*
G75*
G02*
X0506949Y0199409I-000276J0000000D01*
G01*
G37*
G36*
G01*
X0492618Y0186456D02*
X0492618Y0189527D01*
G75*
G02*
X0492894Y0189803I0000276J0000000D01*
G01*
X0495099Y0189803D01*
G75*
G02*
X0495374Y0189527I0000000J-000276D01*
G01*
X0495374Y0186456D01*
G75*
G02*
X0495099Y0186181I-000276J0000000D01*
G01*
X0492894Y0186181D01*
G75*
G02*
X0492618Y0186456I0000000J0000276D01*
G01*
G37*
G36*
G01*
X0498918Y0186456D02*
X0498918Y0189527D01*
G75*
G02*
X0499193Y0189803I0000276J0000000D01*
G01*
X0501398Y0189803D01*
G75*
G02*
X0501673Y0189527I0000000J-000276D01*
G01*
X0501673Y0186456D01*
G75*
G02*
X0501398Y0186181I-000276J0000000D01*
G01*
X0499193Y0186181D01*
G75*
G02*
X0498918Y0186456I0000000J0000276D01*
G01*
G37*
G36*
G01*
X0512855Y0193110D02*
X0509784Y0193110D01*
G75*
G02*
X0509508Y0193385I0000000J0000276D01*
G01*
X0509508Y0195590D01*
G75*
G02*
X0509784Y0195866I0000276J0000000D01*
G01*
X0512855Y0195866D01*
G75*
G02*
X0513130Y0195590I0000000J-000276D01*
G01*
X0513130Y0193385D01*
G75*
G02*
X0512855Y0193110I-000276J0000000D01*
G01*
G37*
G36*
G01*
X0512855Y0199409D02*
X0509784Y0199409D01*
G75*
G02*
X0509508Y0199685I0000000J0000276D01*
G01*
X0509508Y0201889D01*
G75*
G02*
X0509784Y0202165I0000276J0000000D01*
G01*
X0512855Y0202165D01*
G75*
G02*
X0513130Y0201889I0000000J-000276D01*
G01*
X0513130Y0199685D01*
G75*
G02*
X0512855Y0199409I-000276J0000000D01*
G01*
G37*
G36*
G01*
X0523504Y0189370D02*
X0520788Y0189370D01*
G75*
G02*
X0519882Y0190275I0000000J0000906D01*
G01*
X0519882Y0195551D01*
G75*
G02*
X0520788Y0196456I0000906J0000000D01*
G01*
X0523504Y0196456D01*
G75*
G02*
X0524410Y0195551I0000000J-000906D01*
G01*
X0524410Y0190275D01*
G75*
G02*
X0523504Y0189370I-000906J0000000D01*
G01*
G37*
G36*
G01*
X0534922Y0189370D02*
X0532205Y0189370D01*
G75*
G02*
X0531299Y0190275I0000000J0000906D01*
G01*
X0531299Y0195551D01*
G75*
G02*
X0532205Y0196456I0000906J0000000D01*
G01*
X0534922Y0196456D01*
G75*
G02*
X0535827Y0195551I0000000J-000906D01*
G01*
X0535827Y0190275D01*
G75*
G02*
X0534922Y0189370I-000906J0000000D01*
G01*
G37*
G36*
G01*
X0523504Y0199212D02*
X0520788Y0199212D01*
G75*
G02*
X0519882Y0200118I0000000J0000906D01*
G01*
X0519882Y0205393D01*
G75*
G02*
X0520788Y0206299I0000906J0000000D01*
G01*
X0523504Y0206299D01*
G75*
G02*
X0524410Y0205393I0000000J-000906D01*
G01*
X0524410Y0200118D01*
G75*
G02*
X0523504Y0199212I-000906J0000000D01*
G01*
G37*
G36*
G01*
X0534922Y0199212D02*
X0532205Y0199212D01*
G75*
G02*
X0531299Y0200118I0000000J0000906D01*
G01*
X0531299Y0205393D01*
G75*
G02*
X0532205Y0206299I0000906J0000000D01*
G01*
X0534922Y0206299D01*
G75*
G02*
X0535827Y0205393I0000000J-000906D01*
G01*
X0535827Y0200118D01*
G75*
G02*
X0534922Y0199212I-000906J0000000D01*
G01*
G37*
G36*
G01*
X0545571Y0192893D02*
X0545571Y0190177D01*
G75*
G02*
X0544666Y0189271I-000906J0000000D01*
G01*
X0539390Y0189271D01*
G75*
G02*
X0538484Y0190177I0000000J0000906D01*
G01*
X0538484Y0192893D01*
G75*
G02*
X0539390Y0193799I0000906J0000000D01*
G01*
X0544666Y0193799D01*
G75*
G02*
X0545571Y0192893I0000000J-000906D01*
G01*
G37*
G36*
G01*
X0545571Y0204311D02*
X0545571Y0201594D01*
G75*
G02*
X0544666Y0200689I-000906J0000000D01*
G01*
X0539390Y0200689D01*
G75*
G02*
X0538484Y0201594I0000000J0000906D01*
G01*
X0538484Y0204311D01*
G75*
G02*
X0539390Y0205216I0000906J0000000D01*
G01*
X0544666Y0205216D01*
G75*
G02*
X0545571Y0204311I0000000J-000906D01*
G01*
G37*
G36*
G01*
X0530197Y0208661D02*
X0527481Y0208661D01*
G75*
G02*
X0526575Y0209567I0000000J0000906D01*
G01*
X0526575Y0214842D01*
G75*
G02*
X0527481Y0215748I0000906J0000000D01*
G01*
X0530197Y0215748D01*
G75*
G02*
X0531103Y0214842I0000000J-000906D01*
G01*
X0531103Y0209567D01*
G75*
G02*
X0530197Y0208661I-000906J0000000D01*
G01*
G37*
G36*
G01*
X0541614Y0208661D02*
X0538898Y0208661D01*
G75*
G02*
X0537992Y0209567I0000000J0000906D01*
G01*
X0537992Y0214842D01*
G75*
G02*
X0538898Y0215748I0000906J0000000D01*
G01*
X0541614Y0215748D01*
G75*
G02*
X0542520Y0214842I0000000J-000906D01*
G01*
X0542520Y0209567D01*
G75*
G02*
X0541614Y0208661I-000906J0000000D01*
G01*
G37*
G36*
G01*
X0504528Y0186786D02*
X0504528Y0188804D01*
G75*
G02*
X0505389Y0189665I0000861J0000000D01*
G01*
X0507111Y0189665D01*
G75*
G02*
X0507973Y0188804I0000000J-000861D01*
G01*
X0507973Y0186786D01*
G75*
G02*
X0507111Y0185925I-000861J0000000D01*
G01*
X0505389Y0185925D01*
G75*
G02*
X0504528Y0186786I0000000J0000861D01*
G01*
G37*
G36*
G01*
X0510729Y0186786D02*
X0510729Y0188804D01*
G75*
G02*
X0511590Y0189665I0000861J0000000D01*
G01*
X0513312Y0189665D01*
G75*
G02*
X0514173Y0188804I0000000J-000861D01*
G01*
X0514173Y0186786D01*
G75*
G02*
X0513312Y0185925I-000861J0000000D01*
G01*
X0511590Y0185925D01*
G75*
G02*
X0510729Y0186786I0000000J0000861D01*
G01*
G37*
G36*
G01*
X0498583Y0193748D02*
X0498583Y0196425D01*
G75*
G02*
X0498918Y0196760I0000335J0000000D01*
G01*
X0501595Y0196760D01*
G75*
G02*
X0501929Y0196425I0000000J-000335D01*
G01*
X0501929Y0193748D01*
G75*
G02*
X0501595Y0193413I-000335J0000000D01*
G01*
X0498918Y0193413D01*
G75*
G02*
X0498583Y0193748I0000000J0000335D01*
G01*
G37*
G36*
G01*
X0492362Y0193748D02*
X0492362Y0196425D01*
G75*
G02*
X0492697Y0196760I0000335J0000000D01*
G01*
X0495374Y0196760D01*
G75*
G02*
X0495709Y0196425I0000000J-000335D01*
G01*
X0495709Y0193748D01*
G75*
G02*
X0495374Y0193413I-000335J0000000D01*
G01*
X0492697Y0193413D01*
G75*
G02*
X0492362Y0193748I0000000J0000335D01*
G01*
G37*
G36*
G01*
X0492362Y0199055D02*
X0492362Y0201732D01*
G75*
G02*
X0492697Y0202067I0000335J0000000D01*
G01*
X0495374Y0202067D01*
G75*
G02*
X0495709Y0201732I0000000J-000335D01*
G01*
X0495709Y0199055D01*
G75*
G02*
X0495374Y0198720I-000335J0000000D01*
G01*
X0492697Y0198720D01*
G75*
G02*
X0492362Y0199055I0000000J0000335D01*
G01*
G37*
G36*
G01*
X0498583Y0199055D02*
X0498583Y0201732D01*
G75*
G02*
X0498918Y0202067I0000335J0000000D01*
G01*
X0501595Y0202067D01*
G75*
G02*
X0501929Y0201732I0000000J-000335D01*
G01*
X0501929Y0199055D01*
G75*
G02*
X0501595Y0198720I-000335J0000000D01*
G01*
X0498918Y0198720D01*
G75*
G02*
X0498583Y0199055I0000000J0000335D01*
G01*
G37*
G36*
G01*
X0517776Y0192854D02*
X0515099Y0192854D01*
G75*
G02*
X0514764Y0193189I0000000J0000335D01*
G01*
X0514764Y0195866D01*
G75*
G02*
X0515099Y0196200I0000335J0000000D01*
G01*
X0517776Y0196200D01*
G75*
G02*
X0518110Y0195866I0000000J-000335D01*
G01*
X0518110Y0193189D01*
G75*
G02*
X0517776Y0192854I-000335J0000000D01*
G01*
G37*
G36*
G01*
X0517776Y0199074D02*
X0515099Y0199074D01*
G75*
G02*
X0514764Y0199409I0000000J0000335D01*
G01*
X0514764Y0202086D01*
G75*
G02*
X0515099Y0202421I0000335J0000000D01*
G01*
X0517776Y0202421D01*
G75*
G02*
X0518110Y0202086I0000000J-000335D01*
G01*
X0518110Y0199409D01*
G75*
G02*
X0517776Y0199074I-000335J0000000D01*
G01*
G37*
X0081102Y0161713D02*
%LPD*%
G01*
G36*
G01*
X0116811Y0094105D02*
X0116811Y0095463D01*
G75*
G02*
X0117391Y0096044I0000581J0000000D01*
G01*
X0118553Y0096044D01*
G75*
G02*
X0119133Y0095463I0000000J-000581D01*
G01*
X0119133Y0094105D01*
G75*
G02*
X0118553Y0093524I-000581J0000000D01*
G01*
X0117391Y0093524D01*
G75*
G02*
X0116811Y0094105I0000000J0000581D01*
G01*
G37*
G36*
G01*
X0120630Y0094105D02*
X0120630Y0095463D01*
G75*
G02*
X0121210Y0096044I0000581J0000000D01*
G01*
X0122372Y0096044D01*
G75*
G02*
X0122952Y0095463I0000000J-000581D01*
G01*
X0122952Y0094105D01*
G75*
G02*
X0122372Y0093524I-000581J0000000D01*
G01*
X0121210Y0093524D01*
G75*
G02*
X0120630Y0094105I0000000J0000581D01*
G01*
G37*
G36*
G01*
X0101387Y0152678D02*
X0102746Y0152678D01*
G75*
G02*
X0103326Y0152097I0000000J-000581D01*
G01*
X0103326Y0150935D01*
G75*
G02*
X0102746Y0150355I-000581J0000000D01*
G01*
X0101387Y0150355D01*
G75*
G02*
X0100807Y0150935I0000000J0000581D01*
G01*
X0100807Y0152097D01*
G75*
G02*
X0101387Y0152678I0000581J0000000D01*
G01*
G37*
G36*
G01*
X0101387Y0148859D02*
X0102746Y0148859D01*
G75*
G02*
X0103326Y0148278I0000000J-000581D01*
G01*
X0103326Y0147117D01*
G75*
G02*
X0102746Y0146536I-000581J0000000D01*
G01*
X0101387Y0146536D01*
G75*
G02*
X0100807Y0147117I0000000J0000581D01*
G01*
X0100807Y0148278D01*
G75*
G02*
X0101387Y0148859I0000581J0000000D01*
G01*
G37*
G36*
G01*
X0116584Y0142151D02*
X0116584Y0140133D01*
G75*
G02*
X0115723Y0139272I-000861J0000000D01*
G01*
X0114001Y0139272D01*
G75*
G02*
X0113139Y0140133I0000000J0000861D01*
G01*
X0113139Y0142151D01*
G75*
G02*
X0114001Y0143012I0000861J0000000D01*
G01*
X0115723Y0143012D01*
G75*
G02*
X0116584Y0142151I0000000J-000861D01*
G01*
G37*
G36*
G01*
X0110383Y0142151D02*
X0110383Y0140133D01*
G75*
G02*
X0109522Y0139272I-000861J0000000D01*
G01*
X0107800Y0139272D01*
G75*
G02*
X0106939Y0140133I0000000J0000861D01*
G01*
X0106939Y0142151D01*
G75*
G02*
X0107800Y0143012I0000861J0000000D01*
G01*
X0109522Y0143012D01*
G75*
G02*
X0110383Y0142151I0000000J-000861D01*
G01*
G37*
G36*
G01*
X0091555Y0095660D02*
X0091555Y0094302D01*
G75*
G02*
X0090974Y0093721I-000581J0000000D01*
G01*
X0089813Y0093721D01*
G75*
G02*
X0089232Y0094302I0000000J0000581D01*
G01*
X0089232Y0095660D01*
G75*
G02*
X0089813Y0096241I0000581J0000000D01*
G01*
X0090974Y0096241D01*
G75*
G02*
X0091555Y0095660I0000000J-000581D01*
G01*
G37*
G36*
G01*
X0087736Y0095660D02*
X0087736Y0094302D01*
G75*
G02*
X0087155Y0093721I-000581J0000000D01*
G01*
X0085994Y0093721D01*
G75*
G02*
X0085413Y0094302I0000000J0000581D01*
G01*
X0085413Y0095660D01*
G75*
G02*
X0085994Y0096241I0000581J0000000D01*
G01*
X0087155Y0096241D01*
G75*
G02*
X0087736Y0095660I0000000J-000581D01*
G01*
G37*
D148*
X0107382Y0146851D03*
X0114862Y0146851D03*
X0111122Y0154725D03*
G36*
G01*
X0091555Y0099843D02*
X0091555Y0098485D01*
G75*
G02*
X0090974Y0097904I-000581J0000000D01*
G01*
X0089813Y0097904D01*
G75*
G02*
X0089232Y0098485I0000000J0000581D01*
G01*
X0089232Y0099843D01*
G75*
G02*
X0089813Y0100424I0000581J0000000D01*
G01*
X0090974Y0100424D01*
G75*
G02*
X0091555Y0099843I0000000J-000581D01*
G01*
G37*
G36*
G01*
X0087736Y0099843D02*
X0087736Y0098485D01*
G75*
G02*
X0087155Y0097904I-000581J0000000D01*
G01*
X0085994Y0097904D01*
G75*
G02*
X0085413Y0098485I0000000J0000581D01*
G01*
X0085413Y0099843D01*
G75*
G02*
X0085994Y0100424I0000581J0000000D01*
G01*
X0087155Y0100424D01*
G75*
G02*
X0087736Y0099843I0000000J-000581D01*
G01*
G37*
G36*
G01*
X0115472Y0095463D02*
X0115472Y0094105D01*
G75*
G02*
X0114891Y0093524I-000581J0000000D01*
G01*
X0113730Y0093524D01*
G75*
G02*
X0113149Y0094105I0000000J0000581D01*
G01*
X0113149Y0095463D01*
G75*
G02*
X0113730Y0096044I0000581J0000000D01*
G01*
X0114891Y0096044D01*
G75*
G02*
X0115472Y0095463I0000000J-000581D01*
G01*
G37*
G36*
G01*
X0111653Y0095463D02*
X0111653Y0094105D01*
G75*
G02*
X0111072Y0093524I-000581J0000000D01*
G01*
X0109911Y0093524D01*
G75*
G02*
X0109330Y0094105I0000000J0000581D01*
G01*
X0109330Y0095463D01*
G75*
G02*
X0109911Y0096044I0000581J0000000D01*
G01*
X0111072Y0096044D01*
G75*
G02*
X0111653Y0095463I0000000J-000581D01*
G01*
G37*
G36*
G01*
X0127736Y0099223D02*
X0127736Y0100581D01*
G75*
G02*
X0128317Y0101162I0000581J0000000D01*
G01*
X0129478Y0101162D01*
G75*
G02*
X0130059Y0100581I0000000J-000581D01*
G01*
X0130059Y0099223D01*
G75*
G02*
X0129478Y0098642I-000581J0000000D01*
G01*
X0128317Y0098642D01*
G75*
G02*
X0127736Y0099223I0000000J0000581D01*
G01*
G37*
G36*
G01*
X0131555Y0099223D02*
X0131555Y0100581D01*
G75*
G02*
X0132135Y0101162I0000581J0000000D01*
G01*
X0133297Y0101162D01*
G75*
G02*
X0133878Y0100581I0000000J-000581D01*
G01*
X0133878Y0099223D01*
G75*
G02*
X0133297Y0098642I-000581J0000000D01*
G01*
X0132135Y0098642D01*
G75*
G02*
X0131555Y0099223I0000000J0000581D01*
G01*
G37*
G36*
G01*
X0100964Y0094105D02*
X0100964Y0095463D01*
G75*
G02*
X0101545Y0096044I0000581J0000000D01*
G01*
X0102706Y0096044D01*
G75*
G02*
X0103287Y0095463I0000000J-000581D01*
G01*
X0103287Y0094105D01*
G75*
G02*
X0102706Y0093524I-000581J0000000D01*
G01*
X0101545Y0093524D01*
G75*
G02*
X0100964Y0094105I0000000J0000581D01*
G01*
G37*
G36*
G01*
X0104783Y0094105D02*
X0104783Y0095463D01*
G75*
G02*
X0105364Y0096044I0000581J0000000D01*
G01*
X0106525Y0096044D01*
G75*
G02*
X0107106Y0095463I0000000J-000581D01*
G01*
X0107106Y0094105D01*
G75*
G02*
X0106525Y0093524I-000581J0000000D01*
G01*
X0105364Y0093524D01*
G75*
G02*
X0104783Y0094105I0000000J0000581D01*
G01*
G37*
G36*
G01*
X0127736Y0133869D02*
X0127736Y0135227D01*
G75*
G02*
X0128317Y0135807I0000581J0000000D01*
G01*
X0129478Y0135807D01*
G75*
G02*
X0130059Y0135227I0000000J-000581D01*
G01*
X0130059Y0133869D01*
G75*
G02*
X0129478Y0133288I-000581J0000000D01*
G01*
X0128317Y0133288D01*
G75*
G02*
X0127736Y0133869I0000000J0000581D01*
G01*
G37*
G36*
G01*
X0131555Y0133869D02*
X0131555Y0135227D01*
G75*
G02*
X0132135Y0135807I0000581J0000000D01*
G01*
X0133297Y0135807D01*
G75*
G02*
X0133878Y0135227I0000000J-000581D01*
G01*
X0133878Y0133869D01*
G75*
G02*
X0133297Y0133288I-000581J0000000D01*
G01*
X0132135Y0133288D01*
G75*
G02*
X0131555Y0133869I0000000J0000581D01*
G01*
G37*
D369*
X0121063Y0069430D03*
D146*
X0092716Y0070532D03*
X0104527Y0078406D03*
X0092716Y0086280D03*
D370*
X0096259Y0078406D03*
D369*
X0121063Y0087382D03*
G36*
G01*
X0101289Y0144902D02*
X0102647Y0144902D01*
G75*
G02*
X0103228Y0144321I0000000J-000581D01*
G01*
X0103228Y0143160D01*
G75*
G02*
X0102647Y0142579I-000581J0000000D01*
G01*
X0101289Y0142579D01*
G75*
G02*
X0100708Y0143160I0000000J0000581D01*
G01*
X0100708Y0144321D01*
G75*
G02*
X0101289Y0144902I0000581J0000000D01*
G01*
G37*
G36*
G01*
X0101289Y0141083D02*
X0102647Y0141083D01*
G75*
G02*
X0103228Y0140502I0000000J-000581D01*
G01*
X0103228Y0139341D01*
G75*
G02*
X0102647Y0138760I-000581J0000000D01*
G01*
X0101289Y0138760D01*
G75*
G02*
X0100708Y0139341I0000000J0000581D01*
G01*
X0100708Y0140502D01*
G75*
G02*
X0101289Y0141083I0000581J0000000D01*
G01*
G37*
G36*
G01*
X0087623Y0106398D02*
X0085605Y0106398D01*
G75*
G02*
X0084744Y0107259I0000000J0000861D01*
G01*
X0084744Y0108982D01*
G75*
G02*
X0085605Y0109843I0000861J0000000D01*
G01*
X0087623Y0109843D01*
G75*
G02*
X0088484Y0108982I0000000J-000861D01*
G01*
X0088484Y0107259D01*
G75*
G02*
X0087623Y0106398I-000861J0000000D01*
G01*
G37*
G36*
G01*
X0087623Y0112599D02*
X0085605Y0112599D01*
G75*
G02*
X0084744Y0113460I0000000J0000861D01*
G01*
X0084744Y0115182D01*
G75*
G02*
X0085605Y0116044I0000861J0000000D01*
G01*
X0087623Y0116044D01*
G75*
G02*
X0088484Y0115182I0000000J-000861D01*
G01*
X0088484Y0113460D01*
G75*
G02*
X0087623Y0112599I-000861J0000000D01*
G01*
G37*
G36*
G01*
X0091555Y0104026D02*
X0091555Y0102668D01*
G75*
G02*
X0090974Y0102087I-000581J0000000D01*
G01*
X0089813Y0102087D01*
G75*
G02*
X0089232Y0102668I0000000J0000581D01*
G01*
X0089232Y0104026D01*
G75*
G02*
X0089813Y0104607I0000581J0000000D01*
G01*
X0090974Y0104607D01*
G75*
G02*
X0091555Y0104026I0000000J-000581D01*
G01*
G37*
G36*
G01*
X0087736Y0104026D02*
X0087736Y0102668D01*
G75*
G02*
X0087155Y0102087I-000581J0000000D01*
G01*
X0085994Y0102087D01*
G75*
G02*
X0085413Y0102668I0000000J0000581D01*
G01*
X0085413Y0104026D01*
G75*
G02*
X0085994Y0104607I0000581J0000000D01*
G01*
X0087155Y0104607D01*
G75*
G02*
X0087736Y0104026I0000000J-000581D01*
G01*
G37*
G36*
G01*
X0087008Y0059917D02*
X0087008Y0061934D01*
G75*
G02*
X0087869Y0062796I0000861J0000000D01*
G01*
X0089591Y0062796D01*
G75*
G02*
X0090452Y0061934I0000000J-000861D01*
G01*
X0090452Y0059917D01*
G75*
G02*
X0089591Y0059056I-000861J0000000D01*
G01*
X0087869Y0059056D01*
G75*
G02*
X0087008Y0059917I0000000J0000861D01*
G01*
G37*
G36*
G01*
X0093208Y0059917D02*
X0093208Y0061934D01*
G75*
G02*
X0094070Y0062796I0000861J0000000D01*
G01*
X0095792Y0062796D01*
G75*
G02*
X0096653Y0061934I0000000J-000861D01*
G01*
X0096653Y0059917D01*
G75*
G02*
X0095792Y0059056I-000861J0000000D01*
G01*
X0094070Y0059056D01*
G75*
G02*
X0093208Y0059917I0000000J0000861D01*
G01*
G37*
G36*
G01*
X0085605Y0127756D02*
X0087623Y0127756D01*
G75*
G02*
X0088484Y0126895I0000000J-000861D01*
G01*
X0088484Y0125173D01*
G75*
G02*
X0087623Y0124311I-000861J0000000D01*
G01*
X0085605Y0124311D01*
G75*
G02*
X0084744Y0125173I0000000J0000861D01*
G01*
X0084744Y0126895D01*
G75*
G02*
X0085605Y0127756I0000861J0000000D01*
G01*
G37*
G36*
G01*
X0085605Y0121556D02*
X0087623Y0121556D01*
G75*
G02*
X0088484Y0120694I0000000J-000861D01*
G01*
X0088484Y0118972D01*
G75*
G02*
X0087623Y0118111I-000861J0000000D01*
G01*
X0085605Y0118111D01*
G75*
G02*
X0084744Y0118972I0000000J0000861D01*
G01*
X0084744Y0120694D01*
G75*
G02*
X0085605Y0121556I0000861J0000000D01*
G01*
G37*
G36*
G01*
X0089783Y0132077D02*
X0089783Y0130719D01*
G75*
G02*
X0089202Y0130138I-000581J0000000D01*
G01*
X0088041Y0130138D01*
G75*
G02*
X0087460Y0130719I0000000J0000581D01*
G01*
X0087460Y0132077D01*
G75*
G02*
X0088041Y0132658I0000581J0000000D01*
G01*
X0089202Y0132658D01*
G75*
G02*
X0089783Y0132077I0000000J-000581D01*
G01*
G37*
G36*
G01*
X0085964Y0132077D02*
X0085964Y0130719D01*
G75*
G02*
X0085383Y0130138I-000581J0000000D01*
G01*
X0084222Y0130138D01*
G75*
G02*
X0083641Y0130719I0000000J0000581D01*
G01*
X0083641Y0132077D01*
G75*
G02*
X0084222Y0132658I0000581J0000000D01*
G01*
X0085383Y0132658D01*
G75*
G02*
X0085964Y0132077I0000000J-000581D01*
G01*
G37*
G36*
G01*
X0102460Y0097638D02*
X0101476Y0097638D01*
G75*
G02*
X0100984Y0098130I0000000J0000492D01*
G01*
X0100984Y0103052D01*
G75*
G02*
X0101476Y0103544I0000492J0000000D01*
G01*
X0102460Y0103544D01*
G75*
G02*
X0102952Y0103052I0000000J-000492D01*
G01*
X0102952Y0098130D01*
G75*
G02*
X0102460Y0097638I-000492J0000000D01*
G01*
G37*
G36*
G01*
X0105610Y0097638D02*
X0104626Y0097638D01*
G75*
G02*
X0104133Y0098130I0000000J0000492D01*
G01*
X0104133Y0103052D01*
G75*
G02*
X0104626Y0103544I0000492J0000000D01*
G01*
X0105610Y0103544D01*
G75*
G02*
X0106102Y0103052I0000000J-000492D01*
G01*
X0106102Y0098130D01*
G75*
G02*
X0105610Y0097638I-000492J0000000D01*
G01*
G37*
G36*
G01*
X0108759Y0097638D02*
X0107775Y0097638D01*
G75*
G02*
X0107283Y0098130I0000000J0000492D01*
G01*
X0107283Y0103052D01*
G75*
G02*
X0107775Y0103544I0000492J0000000D01*
G01*
X0108759Y0103544D01*
G75*
G02*
X0109252Y0103052I0000000J-000492D01*
G01*
X0109252Y0098130D01*
G75*
G02*
X0108759Y0097638I-000492J0000000D01*
G01*
G37*
G36*
G01*
X0111909Y0097638D02*
X0110925Y0097638D01*
G75*
G02*
X0110433Y0098130I0000000J0000492D01*
G01*
X0110433Y0103052D01*
G75*
G02*
X0110925Y0103544I0000492J0000000D01*
G01*
X0111909Y0103544D01*
G75*
G02*
X0112401Y0103052I0000000J-000492D01*
G01*
X0112401Y0098130D01*
G75*
G02*
X0111909Y0097638I-000492J0000000D01*
G01*
G37*
G36*
G01*
X0115059Y0097638D02*
X0114074Y0097638D01*
G75*
G02*
X0113582Y0098130I0000000J0000492D01*
G01*
X0113582Y0103052D01*
G75*
G02*
X0114074Y0103544I0000492J0000000D01*
G01*
X0115059Y0103544D01*
G75*
G02*
X0115551Y0103052I0000000J-000492D01*
G01*
X0115551Y0098130D01*
G75*
G02*
X0115059Y0097638I-000492J0000000D01*
G01*
G37*
G36*
G01*
X0118208Y0097638D02*
X0117224Y0097638D01*
G75*
G02*
X0116732Y0098130I0000000J0000492D01*
G01*
X0116732Y0103052D01*
G75*
G02*
X0117224Y0103544I0000492J0000000D01*
G01*
X0118208Y0103544D01*
G75*
G02*
X0118700Y0103052I0000000J-000492D01*
G01*
X0118700Y0098130D01*
G75*
G02*
X0118208Y0097638I-000492J0000000D01*
G01*
G37*
G36*
G01*
X0121358Y0097638D02*
X0120374Y0097638D01*
G75*
G02*
X0119882Y0098130I0000000J0000492D01*
G01*
X0119882Y0103052D01*
G75*
G02*
X0120374Y0103544I0000492J0000000D01*
G01*
X0121358Y0103544D01*
G75*
G02*
X0121850Y0103052I0000000J-000492D01*
G01*
X0121850Y0098130D01*
G75*
G02*
X0121358Y0097638I-000492J0000000D01*
G01*
G37*
G36*
G01*
X0124508Y0097638D02*
X0123523Y0097638D01*
G75*
G02*
X0123031Y0098130I0000000J0000492D01*
G01*
X0123031Y0103052D01*
G75*
G02*
X0123523Y0103544I0000492J0000000D01*
G01*
X0124508Y0103544D01*
G75*
G02*
X0125000Y0103052I0000000J-000492D01*
G01*
X0125000Y0098130D01*
G75*
G02*
X0124508Y0097638I-000492J0000000D01*
G01*
G37*
G36*
G01*
X0131889Y0105020D02*
X0126968Y0105020D01*
G75*
G02*
X0126476Y0105512I0000000J0000492D01*
G01*
X0126476Y0106496D01*
G75*
G02*
X0126968Y0106989I0000492J0000000D01*
G01*
X0131889Y0106989D01*
G75*
G02*
X0132382Y0106496I0000000J-000492D01*
G01*
X0132382Y0105512D01*
G75*
G02*
X0131889Y0105020I-000492J0000000D01*
G01*
G37*
G36*
G01*
X0131889Y0108170D02*
X0126968Y0108170D01*
G75*
G02*
X0126476Y0108662I0000000J0000492D01*
G01*
X0126476Y0109646D01*
G75*
G02*
X0126968Y0110138I0000492J0000000D01*
G01*
X0131889Y0110138D01*
G75*
G02*
X0132382Y0109646I0000000J-000492D01*
G01*
X0132382Y0108662D01*
G75*
G02*
X0131889Y0108170I-000492J0000000D01*
G01*
G37*
G36*
G01*
X0131889Y0111319D02*
X0126968Y0111319D01*
G75*
G02*
X0126476Y0111811I0000000J0000492D01*
G01*
X0126476Y0112796D01*
G75*
G02*
X0126968Y0113288I0000492J0000000D01*
G01*
X0131889Y0113288D01*
G75*
G02*
X0132382Y0112796I0000000J-000492D01*
G01*
X0132382Y0111811D01*
G75*
G02*
X0131889Y0111319I-000492J0000000D01*
G01*
G37*
G36*
G01*
X0131889Y0114469D02*
X0126968Y0114469D01*
G75*
G02*
X0126476Y0114961I0000000J0000492D01*
G01*
X0126476Y0115945D01*
G75*
G02*
X0126968Y0116437I0000492J0000000D01*
G01*
X0131889Y0116437D01*
G75*
G02*
X0132382Y0115945I0000000J-000492D01*
G01*
X0132382Y0114961D01*
G75*
G02*
X0131889Y0114469I-000492J0000000D01*
G01*
G37*
G36*
G01*
X0131889Y0117619D02*
X0126968Y0117619D01*
G75*
G02*
X0126476Y0118111I0000000J0000492D01*
G01*
X0126476Y0119095D01*
G75*
G02*
X0126968Y0119587I0000492J0000000D01*
G01*
X0131889Y0119587D01*
G75*
G02*
X0132382Y0119095I0000000J-000492D01*
G01*
X0132382Y0118111D01*
G75*
G02*
X0131889Y0117619I-000492J0000000D01*
G01*
G37*
G36*
G01*
X0131889Y0120768D02*
X0126968Y0120768D01*
G75*
G02*
X0126476Y0121260I0000000J0000492D01*
G01*
X0126476Y0122244D01*
G75*
G02*
X0126968Y0122737I0000492J0000000D01*
G01*
X0131889Y0122737D01*
G75*
G02*
X0132382Y0122244I0000000J-000492D01*
G01*
X0132382Y0121260D01*
G75*
G02*
X0131889Y0120768I-000492J0000000D01*
G01*
G37*
G36*
G01*
X0131889Y0123918D02*
X0126968Y0123918D01*
G75*
G02*
X0126476Y0124410I0000000J0000492D01*
G01*
X0126476Y0125394D01*
G75*
G02*
X0126968Y0125886I0000492J0000000D01*
G01*
X0131889Y0125886D01*
G75*
G02*
X0132382Y0125394I0000000J-000492D01*
G01*
X0132382Y0124410D01*
G75*
G02*
X0131889Y0123918I-000492J0000000D01*
G01*
G37*
G36*
G01*
X0131889Y0127067D02*
X0126968Y0127067D01*
G75*
G02*
X0126476Y0127559I0000000J0000492D01*
G01*
X0126476Y0128544D01*
G75*
G02*
X0126968Y0129036I0000492J0000000D01*
G01*
X0131889Y0129036D01*
G75*
G02*
X0132382Y0128544I0000000J-000492D01*
G01*
X0132382Y0127559D01*
G75*
G02*
X0131889Y0127067I-000492J0000000D01*
G01*
G37*
G36*
G01*
X0124508Y0130512D02*
X0123523Y0130512D01*
G75*
G02*
X0123031Y0131004I0000000J0000492D01*
G01*
X0123031Y0135926D01*
G75*
G02*
X0123523Y0136418I0000492J0000000D01*
G01*
X0124508Y0136418D01*
G75*
G02*
X0125000Y0135926I0000000J-000492D01*
G01*
X0125000Y0131004D01*
G75*
G02*
X0124508Y0130512I-000492J0000000D01*
G01*
G37*
G36*
G01*
X0121358Y0130512D02*
X0120374Y0130512D01*
G75*
G02*
X0119882Y0131004I0000000J0000492D01*
G01*
X0119882Y0135926D01*
G75*
G02*
X0120374Y0136418I0000492J0000000D01*
G01*
X0121358Y0136418D01*
G75*
G02*
X0121850Y0135926I0000000J-000492D01*
G01*
X0121850Y0131004D01*
G75*
G02*
X0121358Y0130512I-000492J0000000D01*
G01*
G37*
G36*
G01*
X0118208Y0130512D02*
X0117224Y0130512D01*
G75*
G02*
X0116732Y0131004I0000000J0000492D01*
G01*
X0116732Y0135926D01*
G75*
G02*
X0117224Y0136418I0000492J0000000D01*
G01*
X0118208Y0136418D01*
G75*
G02*
X0118700Y0135926I0000000J-000492D01*
G01*
X0118700Y0131004D01*
G75*
G02*
X0118208Y0130512I-000492J0000000D01*
G01*
G37*
G36*
G01*
X0115059Y0130512D02*
X0114074Y0130512D01*
G75*
G02*
X0113582Y0131004I0000000J0000492D01*
G01*
X0113582Y0135926D01*
G75*
G02*
X0114074Y0136418I0000492J0000000D01*
G01*
X0115059Y0136418D01*
G75*
G02*
X0115551Y0135926I0000000J-000492D01*
G01*
X0115551Y0131004D01*
G75*
G02*
X0115059Y0130512I-000492J0000000D01*
G01*
G37*
G36*
G01*
X0111909Y0130512D02*
X0110925Y0130512D01*
G75*
G02*
X0110433Y0131004I0000000J0000492D01*
G01*
X0110433Y0135926D01*
G75*
G02*
X0110925Y0136418I0000492J0000000D01*
G01*
X0111909Y0136418D01*
G75*
G02*
X0112401Y0135926I0000000J-000492D01*
G01*
X0112401Y0131004D01*
G75*
G02*
X0111909Y0130512I-000492J0000000D01*
G01*
G37*
G36*
G01*
X0108759Y0130512D02*
X0107775Y0130512D01*
G75*
G02*
X0107283Y0131004I0000000J0000492D01*
G01*
X0107283Y0135926D01*
G75*
G02*
X0107775Y0136418I0000492J0000000D01*
G01*
X0108759Y0136418D01*
G75*
G02*
X0109252Y0135926I0000000J-000492D01*
G01*
X0109252Y0131004D01*
G75*
G02*
X0108759Y0130512I-000492J0000000D01*
G01*
G37*
G36*
G01*
X0105610Y0130512D02*
X0104626Y0130512D01*
G75*
G02*
X0104133Y0131004I0000000J0000492D01*
G01*
X0104133Y0135926D01*
G75*
G02*
X0104626Y0136418I0000492J0000000D01*
G01*
X0105610Y0136418D01*
G75*
G02*
X0106102Y0135926I0000000J-000492D01*
G01*
X0106102Y0131004D01*
G75*
G02*
X0105610Y0130512I-000492J0000000D01*
G01*
G37*
G36*
G01*
X0102460Y0130512D02*
X0101476Y0130512D01*
G75*
G02*
X0100984Y0131004I0000000J0000492D01*
G01*
X0100984Y0135926D01*
G75*
G02*
X0101476Y0136418I0000492J0000000D01*
G01*
X0102460Y0136418D01*
G75*
G02*
X0102952Y0135926I0000000J-000492D01*
G01*
X0102952Y0131004D01*
G75*
G02*
X0102460Y0130512I-000492J0000000D01*
G01*
G37*
G36*
G01*
X0099015Y0127067D02*
X0094094Y0127067D01*
G75*
G02*
X0093602Y0127559I0000000J0000492D01*
G01*
X0093602Y0128544D01*
G75*
G02*
X0094094Y0129036I0000492J0000000D01*
G01*
X0099015Y0129036D01*
G75*
G02*
X0099508Y0128544I0000000J-000492D01*
G01*
X0099508Y0127559D01*
G75*
G02*
X0099015Y0127067I-000492J0000000D01*
G01*
G37*
G36*
G01*
X0099015Y0123918D02*
X0094094Y0123918D01*
G75*
G02*
X0093602Y0124410I0000000J0000492D01*
G01*
X0093602Y0125394D01*
G75*
G02*
X0094094Y0125886I0000492J0000000D01*
G01*
X0099015Y0125886D01*
G75*
G02*
X0099508Y0125394I0000000J-000492D01*
G01*
X0099508Y0124410D01*
G75*
G02*
X0099015Y0123918I-000492J0000000D01*
G01*
G37*
G36*
G01*
X0099015Y0120768D02*
X0094094Y0120768D01*
G75*
G02*
X0093602Y0121260I0000000J0000492D01*
G01*
X0093602Y0122244D01*
G75*
G02*
X0094094Y0122737I0000492J0000000D01*
G01*
X0099015Y0122737D01*
G75*
G02*
X0099508Y0122244I0000000J-000492D01*
G01*
X0099508Y0121260D01*
G75*
G02*
X0099015Y0120768I-000492J0000000D01*
G01*
G37*
G36*
G01*
X0099015Y0117619D02*
X0094094Y0117619D01*
G75*
G02*
X0093602Y0118111I0000000J0000492D01*
G01*
X0093602Y0119095D01*
G75*
G02*
X0094094Y0119587I0000492J0000000D01*
G01*
X0099015Y0119587D01*
G75*
G02*
X0099508Y0119095I0000000J-000492D01*
G01*
X0099508Y0118111D01*
G75*
G02*
X0099015Y0117619I-000492J0000000D01*
G01*
G37*
G36*
G01*
X0099015Y0114469D02*
X0094094Y0114469D01*
G75*
G02*
X0093602Y0114961I0000000J0000492D01*
G01*
X0093602Y0115945D01*
G75*
G02*
X0094094Y0116437I0000492J0000000D01*
G01*
X0099015Y0116437D01*
G75*
G02*
X0099508Y0115945I0000000J-000492D01*
G01*
X0099508Y0114961D01*
G75*
G02*
X0099015Y0114469I-000492J0000000D01*
G01*
G37*
G36*
G01*
X0099015Y0111319D02*
X0094094Y0111319D01*
G75*
G02*
X0093602Y0111811I0000000J0000492D01*
G01*
X0093602Y0112796D01*
G75*
G02*
X0094094Y0113288I0000492J0000000D01*
G01*
X0099015Y0113288D01*
G75*
G02*
X0099508Y0112796I0000000J-000492D01*
G01*
X0099508Y0111811D01*
G75*
G02*
X0099015Y0111319I-000492J0000000D01*
G01*
G37*
G36*
G01*
X0099015Y0108170D02*
X0094094Y0108170D01*
G75*
G02*
X0093602Y0108662I0000000J0000492D01*
G01*
X0093602Y0109646D01*
G75*
G02*
X0094094Y0110138I0000492J0000000D01*
G01*
X0099015Y0110138D01*
G75*
G02*
X0099508Y0109646I0000000J-000492D01*
G01*
X0099508Y0108662D01*
G75*
G02*
X0099015Y0108170I-000492J0000000D01*
G01*
G37*
G36*
G01*
X0099015Y0105020D02*
X0094094Y0105020D01*
G75*
G02*
X0093602Y0105512I0000000J0000492D01*
G01*
X0093602Y0106496D01*
G75*
G02*
X0094094Y0106989I0000492J0000000D01*
G01*
X0099015Y0106989D01*
G75*
G02*
X0099508Y0106496I0000000J-000492D01*
G01*
X0099508Y0105512D01*
G75*
G02*
X0099015Y0105020I-000492J0000000D01*
G01*
G37*
G36*
G01*
X0120561Y0139646D02*
X0119202Y0139646D01*
G75*
G02*
X0118622Y0140227I0000000J0000581D01*
G01*
X0118622Y0141388D01*
G75*
G02*
X0119202Y0141969I0000581J0000000D01*
G01*
X0120561Y0141969D01*
G75*
G02*
X0121141Y0141388I0000000J-000581D01*
G01*
X0121141Y0140227D01*
G75*
G02*
X0120561Y0139646I-000581J0000000D01*
G01*
G37*
G36*
G01*
X0120561Y0143465D02*
X0119202Y0143465D01*
G75*
G02*
X0118622Y0144046I0000000J0000581D01*
G01*
X0118622Y0145207D01*
G75*
G02*
X0119202Y0145788I0000581J0000000D01*
G01*
X0120561Y0145788D01*
G75*
G02*
X0121141Y0145207I0000000J-000581D01*
G01*
X0121141Y0144046D01*
G75*
G02*
X0120561Y0143465I-000581J0000000D01*
G01*
G37*
G36*
G01*
X0097165Y0132569D02*
X0097165Y0131211D01*
G75*
G02*
X0096584Y0130630I-000581J0000000D01*
G01*
X0095423Y0130630D01*
G75*
G02*
X0094842Y0131211I0000000J0000581D01*
G01*
X0094842Y0132569D01*
G75*
G02*
X0095423Y0133150I0000581J0000000D01*
G01*
X0096584Y0133150D01*
G75*
G02*
X0097165Y0132569I0000000J-000581D01*
G01*
G37*
G36*
G01*
X0093346Y0132569D02*
X0093346Y0131211D01*
G75*
G02*
X0092765Y0130630I-000581J0000000D01*
G01*
X0091604Y0130630D01*
G75*
G02*
X0091023Y0131211I0000000J0000581D01*
G01*
X0091023Y0132569D01*
G75*
G02*
X0091604Y0133150I0000581J0000000D01*
G01*
X0092765Y0133150D01*
G75*
G02*
X0093346Y0132569I0000000J-000581D01*
G01*
G37*
G36*
G01*
X0119202Y0156213D02*
X0120561Y0156213D01*
G75*
G02*
X0121141Y0155632I0000000J-000581D01*
G01*
X0121141Y0154471D01*
G75*
G02*
X0120561Y0153890I-000581J0000000D01*
G01*
X0119202Y0153890D01*
G75*
G02*
X0118622Y0154471I0000000J0000581D01*
G01*
X0118622Y0155632D01*
G75*
G02*
X0119202Y0156213I0000581J0000000D01*
G01*
G37*
G36*
G01*
X0119202Y0152394D02*
X0120561Y0152394D01*
G75*
G02*
X0121141Y0151813I0000000J-000581D01*
G01*
X0121141Y0150652D01*
G75*
G02*
X0120561Y0150071I-000581J0000000D01*
G01*
X0119202Y0150071D01*
G75*
G02*
X0118622Y0150652I0000000J0000581D01*
G01*
X0118622Y0151813D01*
G75*
G02*
X0119202Y0152394I0000581J0000000D01*
G01*
G37*
D144*
X0124803Y0154725D03*
X0124803Y0147244D03*
X0132677Y0150985D03*
G36*
G01*
X0099035Y0095660D02*
X0099035Y0094302D01*
G75*
G02*
X0098454Y0093721I-000581J0000000D01*
G01*
X0097293Y0093721D01*
G75*
G02*
X0096712Y0094302I0000000J0000581D01*
G01*
X0096712Y0095660D01*
G75*
G02*
X0097293Y0096241I0000581J0000000D01*
G01*
X0098454Y0096241D01*
G75*
G02*
X0099035Y0095660I0000000J-000581D01*
G01*
G37*
G36*
G01*
X0095216Y0095660D02*
X0095216Y0094302D01*
G75*
G02*
X0094635Y0093721I-000581J0000000D01*
G01*
X0093474Y0093721D01*
G75*
G02*
X0092893Y0094302I0000000J0000581D01*
G01*
X0092893Y0095660D01*
G75*
G02*
X0093474Y0096241I0000581J0000000D01*
G01*
X0094635Y0096241D01*
G75*
G02*
X0095216Y0095660I0000000J-000581D01*
G01*
G37*
G36*
G01*
X0134074Y0141787D02*
X0134074Y0139769D01*
G75*
G02*
X0133213Y0138908I-000861J0000000D01*
G01*
X0131491Y0138908D01*
G75*
G02*
X0130630Y0139769I0000000J0000861D01*
G01*
X0130630Y0141787D01*
G75*
G02*
X0131491Y0142648I0000861J0000000D01*
G01*
X0133213Y0142648D01*
G75*
G02*
X0134074Y0141787I0000000J-000861D01*
G01*
G37*
G36*
G01*
X0127874Y0141787D02*
X0127874Y0139769D01*
G75*
G02*
X0127012Y0138908I-000861J0000000D01*
G01*
X0125290Y0138908D01*
G75*
G02*
X0124429Y0139769I0000000J0000861D01*
G01*
X0124429Y0141787D01*
G75*
G02*
X0125290Y0142648I0000861J0000000D01*
G01*
X0127012Y0142648D01*
G75*
G02*
X0127874Y0141787I0000000J-000861D01*
G01*
G37*
D159*
X0091929Y0157540D03*
X0087929Y0137540D03*
X0095929Y0137540D03*
D156*
X0089429Y0152540D03*
X0094429Y0152540D03*
X0089429Y0147540D03*
X0094429Y0147540D03*
X0089429Y0142540D03*
X0094429Y0142540D03*
D371*
X0130807Y0068052D03*
D372*
X0130807Y0078052D03*
X0130807Y0088052D03*
X0425689Y0217717D02*
G01*
G75*
D467*
X0302067Y0199627D02*
D03*
X0294980Y0199627D02*
D03*
X0294980Y0209666D02*
D03*
X0302067Y0209666D02*
D03*
X0413878Y0150886D02*
D03*
X0420965Y0150886D02*
D03*
X0420965Y0160926D02*
D03*
X0413878Y0160926D02*
D03*
X0413878Y0144784D02*
D03*
X0420965Y0144784D02*
D03*
X0420965Y0134744D02*
D03*
X0413878Y0134744D02*
D03*
D468*
X0302067Y0203071D02*
D03*
X0302067Y0206221D02*
D03*
X0294980Y0206221D02*
D03*
X0294980Y0203071D02*
D03*
X0420965Y0157481D02*
D03*
X0420965Y0154331D02*
D03*
X0413878Y0154331D02*
D03*
X0413878Y0157481D02*
D03*
X0413878Y0141339D02*
D03*
X0413878Y0138189D02*
D03*
X0420965Y0138189D02*
D03*
X0420965Y0141339D02*
D03*
D469*
X0306279Y0202623D02*
D03*
X0306279Y0200064D02*
D03*
X0306279Y0197504D02*
D03*
X0313759Y0202623D02*
D03*
X0313759Y0197504D02*
D03*
X0313759Y0200064D02*
D03*
X0313759Y0207248D02*
D03*
X0313759Y0212367D02*
D03*
X0306279Y0207248D02*
D03*
X0306279Y0209808D02*
D03*
X0306279Y0212367D02*
D03*
X0313759Y0209808D02*
D03*
D194*
X0373487Y0103347D02*
D03*
X0373487Y0105315D02*
D03*
X0373487Y0107284D02*
D03*
X0373487Y0109252D02*
D03*
X0373487Y0111221D02*
D03*
X0373487Y0113189D02*
D03*
X0373487Y0115158D02*
D03*
X0373487Y0117126D02*
D03*
X0373487Y0119095D02*
D03*
X0373487Y0123032D02*
D03*
X0373487Y0125001D02*
D03*
X0373487Y0126969D02*
D03*
X0373487Y0128938D02*
D03*
X0373487Y0130906D02*
D03*
X0373487Y0132875D02*
D03*
X0373487Y0134843D02*
D03*
X0373487Y0136812D02*
D03*
X0373487Y0138780D02*
D03*
X0373487Y0140749D02*
D03*
X0373487Y0142717D02*
D03*
X0373487Y0144685D02*
D03*
X0373487Y0146654D02*
D03*
X0373487Y0148622D02*
D03*
X0373487Y0150591D02*
D03*
X0312463Y0150591D02*
D03*
X0312463Y0148622D02*
D03*
X0312463Y0146654D02*
D03*
X0312463Y0144685D02*
D03*
X0312463Y0142717D02*
D03*
X0312463Y0140749D02*
D03*
X0312463Y0138780D02*
D03*
X0312463Y0136812D02*
D03*
X0312463Y0134843D02*
D03*
X0312463Y0132875D02*
D03*
X0312463Y0130906D02*
D03*
X0312463Y0128938D02*
D03*
X0312463Y0126969D02*
D03*
X0312463Y0125001D02*
D03*
X0312463Y0123032D02*
D03*
X0312463Y0121064D02*
D03*
X0312463Y0119095D02*
D03*
X0312463Y0117126D02*
D03*
X0312463Y0115158D02*
D03*
X0312463Y0113189D02*
D03*
X0312463Y0111221D02*
D03*
X0312463Y0109252D02*
D03*
X0312463Y0107284D02*
D03*
X0312463Y0103347D02*
D03*
X0373487Y0121064D02*
D03*
X0312463Y0105315D02*
D03*
D195*
X0366597Y0157481D02*
D03*
X0362660Y0157481D02*
D03*
X0360691Y0157481D02*
D03*
X0358723Y0157481D02*
D03*
X0356754Y0157481D02*
D03*
X0354786Y0157481D02*
D03*
X0352817Y0157481D02*
D03*
X0350849Y0157481D02*
D03*
X0348880Y0157481D02*
D03*
X0346912Y0157481D02*
D03*
X0344943Y0157481D02*
D03*
X0342975Y0157481D02*
D03*
X0341006Y0157481D02*
D03*
X0339038Y0157481D02*
D03*
X0337069Y0157481D02*
D03*
X0335101Y0157481D02*
D03*
X0333132Y0157481D02*
D03*
X0331164Y0157481D02*
D03*
X0329195Y0157481D02*
D03*
X0327227Y0157481D02*
D03*
X0325258Y0157481D02*
D03*
X0323290Y0157481D02*
D03*
X0321321Y0157481D02*
D03*
X0319353Y0157481D02*
D03*
X0319353Y0096457D02*
D03*
X0321321Y0096457D02*
D03*
X0323290Y0096457D02*
D03*
X0325258Y0096457D02*
D03*
X0327227Y0096457D02*
D03*
X0329195Y0096457D02*
D03*
X0331164Y0096457D02*
D03*
X0333132Y0096457D02*
D03*
X0335101Y0096457D02*
D03*
X0337069Y0096457D02*
D03*
X0339038Y0096457D02*
D03*
X0341006Y0096457D02*
D03*
X0342975Y0096457D02*
D03*
X0344943Y0096457D02*
D03*
X0346912Y0096457D02*
D03*
X0348880Y0096457D02*
D03*
X0350849Y0096457D02*
D03*
X0352817Y0096457D02*
D03*
X0354786Y0096457D02*
D03*
X0356754Y0096457D02*
D03*
X0358723Y0096457D02*
D03*
X0360691Y0096457D02*
D03*
X0362660Y0096457D02*
D03*
X0364628Y0096457D02*
D03*
X0366597Y0096457D02*
D03*
X0364628Y0157481D02*
D03*
D196*
X0369980Y0174410D02*
D03*
X0342028Y0174410D02*
D03*
X0397933Y0174410D02*
D03*
X0392421Y0179528D02*
D03*
X0364468Y0169292D02*
D03*
X0364468Y0171851D02*
D03*
X0364468Y0174410D02*
D03*
X0364468Y0176969D02*
D03*
X0364468Y0179528D02*
D03*
X0364468Y0182087D02*
D03*
X0364468Y0184646D02*
D03*
X0342028Y0169292D02*
D03*
X0342028Y0171851D02*
D03*
X0342028Y0176969D02*
D03*
X0342028Y0179528D02*
D03*
X0342028Y0182087D02*
D03*
X0342028Y0184646D02*
D03*
X0420374Y0169292D02*
D03*
X0420374Y0171851D02*
D03*
X0420374Y0174410D02*
D03*
X0420374Y0176969D02*
D03*
X0420374Y0179528D02*
D03*
X0420374Y0182087D02*
D03*
X0420374Y0184646D02*
D03*
X0397933Y0169292D02*
D03*
X0397933Y0171851D02*
D03*
X0397933Y0176969D02*
D03*
X0397933Y0179528D02*
D03*
X0397933Y0182087D02*
D03*
X0397933Y0184646D02*
D03*
X0392421Y0169292D02*
D03*
X0392421Y0171851D02*
D03*
X0392421Y0174410D02*
D03*
X0392421Y0176969D02*
D03*
X0392421Y0182087D02*
D03*
X0392421Y0184646D02*
D03*
X0369980Y0169292D02*
D03*
X0369980Y0171851D02*
D03*
X0369980Y0176969D02*
D03*
X0369980Y0179528D02*
D03*
X0369980Y0182087D02*
D03*
X0369980Y0184646D02*
D03*
X0314075Y0184646D02*
D03*
X0314075Y0182087D02*
D03*
X0314075Y0179528D02*
D03*
X0314075Y0176969D02*
D03*
X0314075Y0174410D02*
D03*
X0314075Y0171851D02*
D03*
X0314075Y0169292D02*
D03*
X0336516Y0184646D02*
D03*
X0336516Y0182087D02*
D03*
X0336516Y0179528D02*
D03*
X0336516Y0176969D02*
D03*
X0336516Y0174410D02*
D03*
X0336516Y0171851D02*
D03*
X0336516Y0169292D02*
D03*
D197*
X0315571Y0083524D02*
D03*
X0315571Y0088524D02*
D03*
X0320571Y0083524D02*
D03*
X0320571Y0088524D02*
D03*
X0325571Y0083524D02*
D03*
X0325571Y0088524D02*
D03*
D470*
X0301280Y0082284D02*
D03*
X0297539Y0082284D02*
D03*
X0305020Y0082284D02*
D03*
X0305020Y0091733D02*
D03*
X0301280Y0091733D02*
D03*
X0297539Y0091733D02*
D03*
D471*
X0299830Y0103544D02*
D03*
X0299830Y0098819D02*
D03*
X0301299Y0113091D02*
D03*
X0387839Y0086306D02*
D03*
X0374527Y0162172D02*
D03*
X0303766Y0103544D02*
D03*
X0297361Y0113091D02*
D03*
X0302661Y0150075D02*
D03*
X0298724Y0150075D02*
D03*
X0302661Y0159130D02*
D03*
X0298724Y0159130D02*
D03*
X0303766Y0098819D02*
D03*
X0383902Y0086306D02*
D03*
X0390979Y0103021D02*
D03*
X0387042Y0103021D02*
D03*
X0370590Y0162172D02*
D03*
X0370571Y0157876D02*
D03*
X0374508Y0157876D02*
D03*
D200*
X0297373Y0121726D02*
D03*
X0297373Y0123694D02*
D03*
X0303672Y0119757D02*
D03*
X0303672Y0121726D02*
D03*
X0303672Y0117789D02*
D03*
X0303672Y0123694D02*
D03*
X0297373Y0117789D02*
D03*
X0297373Y0119757D02*
D03*
D201*
X0299538Y0123891D02*
D03*
X0301507Y0123891D02*
D03*
X0301507Y0117592D02*
D03*
X0299538Y0117592D02*
D03*
D472*
X0302278Y0128741D02*
D03*
X0302278Y0145276D02*
D03*
D473*
X0330807Y0201182D02*
D03*
X0321358Y0201182D02*
D03*
X0326083Y0201182D02*
D03*
X0335531Y0201182D02*
D03*
X0321358Y0212599D02*
D03*
X0330807Y0212599D02*
D03*
X0326083Y0212599D02*
D03*
X0335531Y0212599D02*
D03*
X0341741Y0194202D02*
D03*
X0341741Y0190265D02*
D03*
X0335531Y0208662D02*
D03*
D03*
X0335531Y0204725D02*
D03*
X0330807Y0208662D02*
D03*
X0330807Y0204725D02*
D03*
X0335531Y0197245D02*
D03*
X0326083Y0208662D02*
D03*
X0326083Y0204725D02*
D03*
X0330807Y0197245D02*
D03*
X0326083Y0197245D02*
D03*
X0321358Y0208662D02*
D03*
X0321358Y0204725D02*
D03*
X0321358Y0208662D02*
D03*
X0321358Y0197245D02*
D03*
X0330807Y0208662D02*
D03*
X0326083Y0208662D02*
D03*
X0421555Y0206300D02*
D03*
X0421555Y0210237D02*
D03*
X0396949Y0208662D02*
D03*
X0396949Y0212599D02*
D03*
X0382776Y0208662D02*
D03*
X0382776Y0212599D02*
D03*
X0363878Y0204725D02*
D03*
X0363878Y0208662D02*
D03*
X0363878Y0212599D02*
D03*
X0363878Y0208662D02*
D03*
X0349705Y0204725D02*
D03*
X0349705Y0208662D02*
D03*
X0421555Y0189567D02*
D03*
X0421555Y0193504D02*
D03*
X0415846Y0208662D02*
D03*
X0415846Y0204725D02*
D03*
X0411122Y0208662D02*
D03*
X0411122Y0204725D02*
D03*
X0406398Y0208662D02*
D03*
X0406398Y0204725D02*
D03*
X0401673Y0208662D02*
D03*
X0401673Y0204725D02*
D03*
X0415846Y0208662D02*
D03*
X0415846Y0212599D02*
D03*
X0411122Y0208662D02*
D03*
X0411122Y0212599D02*
D03*
X0406398Y0208662D02*
D03*
X0406398Y0212599D02*
D03*
X0401673Y0208662D02*
D03*
X0401673Y0212599D02*
D03*
X0396949Y0208662D02*
D03*
X0396949Y0204725D02*
D03*
X0392224Y0208662D02*
D03*
X0392224Y0204725D02*
D03*
X0387500Y0208662D02*
D03*
X0387500Y0204725D02*
D03*
X0382776Y0208662D02*
D03*
X0382776Y0204725D02*
D03*
X0392224Y0208662D02*
D03*
X0392224Y0212599D02*
D03*
X0387500Y0208662D02*
D03*
X0387500Y0212599D02*
D03*
X0378051Y0204725D02*
D03*
X0378051Y0208662D02*
D03*
X0373327Y0204725D02*
D03*
X0373327Y0208662D02*
D03*
X0368602Y0204725D02*
D03*
X0368602Y0208662D02*
D03*
X0378051Y0212599D02*
D03*
X0378051Y0208662D02*
D03*
X0373327Y0212599D02*
D03*
X0373327Y0208662D02*
D03*
X0368602Y0212599D02*
D03*
X0368602Y0208662D02*
D03*
X0359153Y0204725D02*
D03*
X0359153Y0208662D02*
D03*
X0354429Y0204725D02*
D03*
X0354429Y0208662D02*
D03*
X0344980Y0204725D02*
D03*
X0344980Y0208662D02*
D03*
X0359153Y0212599D02*
D03*
X0359153Y0208662D02*
D03*
X0354429Y0212599D02*
D03*
X0354429Y0208662D02*
D03*
X0349705Y0212599D02*
D03*
X0349705Y0208662D02*
D03*
X0344980Y0212599D02*
D03*
X0344980Y0208662D02*
D03*
X0421555Y0198623D02*
D03*
X0421555Y0202560D02*
D03*
D474*
X0356791Y0195670D02*
D03*
X0375689Y0195670D02*
D03*
X0394587Y0195670D02*
D03*
X0413484Y0195670D02*
D03*
X0385138Y0191930D02*
D03*
X0385138Y0195670D02*
D03*
X0385138Y0199410D02*
D03*
X0394587Y0199410D02*
D03*
X0394587Y0191930D02*
D03*
X0404035Y0191930D02*
D03*
X0404035Y0195670D02*
D03*
X0404035Y0199410D02*
D03*
X0413484Y0199410D02*
D03*
X0413484Y0191930D02*
D03*
X0366240Y0191930D02*
D03*
X0366240Y0195670D02*
D03*
X0366240Y0199410D02*
D03*
X0375689Y0199410D02*
D03*
X0375689Y0191930D02*
D03*
X0347342Y0191930D02*
D03*
X0347342Y0195670D02*
D03*
X0347342Y0199410D02*
D03*
X0356791Y0199410D02*
D03*
X0356791Y0191930D02*
D03*
D475*
X0390776Y0098635D02*
D03*
X0372854Y0088386D02*
D03*
D206*
X0400098Y0123758D02*
D03*
X0418996Y0128758D02*
D03*
X0418996Y0113758D02*
D03*
X0418996Y0118758D02*
D03*
X0418996Y0123758D02*
D03*
X0400098Y0113758D02*
D03*
X0400098Y0118758D02*
D03*
X0400098Y0128758D02*
D03*
D476*
X0418406Y0106117D02*
D03*
X0400295Y0106117D02*
D03*
D477*
X0383944Y0137643D02*
D03*
X0400153Y0138191D02*
D03*
X0383467Y0145803D02*
D03*
X0383467Y0153414D02*
D03*
X0400153Y0145803D02*
D03*
X0400153Y0153414D02*
D03*
X0383467Y0161026D02*
D03*
X0400153Y0161026D02*
D03*
X0390637Y0137643D02*
D03*
X0390160Y0145803D02*
D03*
X0390160Y0153414D02*
D03*
X0390160Y0161026D02*
D03*
X0406846Y0145803D02*
D03*
X0406846Y0138191D02*
D03*
X0390637Y0129666D02*
D03*
X0383944Y0129666D02*
D03*
X0383944Y0122579D02*
D03*
X0390637Y0122579D02*
D03*
X0390637Y0115493D02*
D03*
X0383944Y0115493D02*
D03*
X0383944Y0108406D02*
D03*
X0390637Y0108406D02*
D03*
X0406846Y0153414D02*
D03*
X0406846Y0161026D02*
D03*
X0383944Y0080906D02*
D03*
X0390637Y0080906D02*
D03*
D478*
X0297270Y0108319D02*
D03*
X0303570Y0108319D02*
D03*
X0304630Y0154760D02*
D03*
X0298330Y0154760D02*
D03*
D479*
X0337895Y0085377D02*
D03*
X0354430Y0085377D02*
D03*
D475*
X0372854Y0080906D02*
D03*
X0363602Y0084646D02*
D03*
X0390776Y0091155D02*
D03*
X0381524Y0094895D02*
D03*
D480*
X0409350Y0081707D02*
D03*
D481*
X0409350Y0106117D02*
D03*
D213*
X0340059Y0208662D02*
D03*
X0420965Y0214567D02*
D03*
D482*
X0302868Y0190920D02*
D03*
X0302868Y0173204D02*
D03*
D215*
X0347776Y0163583D02*
D03*
X0333563Y0163583D02*
D03*
X0363563Y0163583D02*
D03*
D216*
X0310571Y0086024D02*
D03*
X0330571Y0090024D02*
D03*
X0330571Y0082024D02*
D03*
D36*
X0421358Y0080315D02*
D03*
X0015846Y0144291D02*
%LPD*%
G01*
G36*
G01*
X0051555Y0076683D02*
X0051555Y0078041D01*
G75*
G02*
X0052135Y0078622I0000581J0000000D01*
G01*
X0053297Y0078622D01*
G75*
G02*
X0053877Y0078041I0000000J-000581D01*
G01*
X0053877Y0076683D01*
G75*
G02*
X0053297Y0076102I-000581J0000000D01*
G01*
X0052135Y0076102D01*
G75*
G02*
X0051555Y0076683I0000000J0000581D01*
G01*
G37*
G36*
G01*
X0055374Y0076683D02*
X0055374Y0078041D01*
G75*
G02*
X0055954Y0078622I0000581J0000000D01*
G01*
X0057116Y0078622D01*
G75*
G02*
X0057696Y0078041I0000000J-000581D01*
G01*
X0057696Y0076683D01*
G75*
G02*
X0057116Y0076102I-000581J0000000D01*
G01*
X0055954Y0076102D01*
G75*
G02*
X0055374Y0076683I0000000J0000581D01*
G01*
G37*
G36*
G01*
X0036131Y0135256D02*
X0037490Y0135256D01*
G75*
G02*
X0038070Y0134675I0000000J-000581D01*
G01*
X0038070Y0133513D01*
G75*
G02*
X0037490Y0132933I-000581J0000000D01*
G01*
X0036131Y0132933D01*
G75*
G02*
X0035551Y0133513I0000000J0000581D01*
G01*
X0035551Y0134675D01*
G75*
G02*
X0036131Y0135256I0000581J0000000D01*
G01*
G37*
G36*
G01*
X0036131Y0131437D02*
X0037490Y0131437D01*
G75*
G02*
X0038070Y0130856I0000000J-000581D01*
G01*
X0038070Y0129695D01*
G75*
G02*
X0037490Y0129114I-000581J0000000D01*
G01*
X0036131Y0129114D01*
G75*
G02*
X0035551Y0129695I0000000J0000581D01*
G01*
X0035551Y0130856D01*
G75*
G02*
X0036131Y0131437I0000581J0000000D01*
G01*
G37*
G36*
G01*
X0051328Y0124729D02*
X0051328Y0122711D01*
G75*
G02*
X0050467Y0121850I-000861J0000000D01*
G01*
X0048745Y0121850D01*
G75*
G02*
X0047883Y0122711I0000000J0000861D01*
G01*
X0047883Y0124729D01*
G75*
G02*
X0048745Y0125590I0000861J0000000D01*
G01*
X0050467Y0125590D01*
G75*
G02*
X0051328Y0124729I0000000J-000861D01*
G01*
G37*
G36*
G01*
X0045127Y0124729D02*
X0045127Y0122711D01*
G75*
G02*
X0044266Y0121850I-000861J0000000D01*
G01*
X0042544Y0121850D01*
G75*
G02*
X0041683Y0122711I0000000J0000861D01*
G01*
X0041683Y0124729D01*
G75*
G02*
X0042544Y0125590I0000861J0000000D01*
G01*
X0044266Y0125590D01*
G75*
G02*
X0045127Y0124729I0000000J-000861D01*
G01*
G37*
G36*
G01*
X0026299Y0078238D02*
X0026299Y0076880D01*
G75*
G02*
X0025718Y0076299I-000581J0000000D01*
G01*
X0024557Y0076299D01*
G75*
G02*
X0023976Y0076880I0000000J0000581D01*
G01*
X0023976Y0078238D01*
G75*
G02*
X0024557Y0078819I0000581J0000000D01*
G01*
X0025718Y0078819D01*
G75*
G02*
X0026299Y0078238I0000000J-000581D01*
G01*
G37*
G36*
G01*
X0022480Y0078238D02*
X0022480Y0076880D01*
G75*
G02*
X0021899Y0076299I-000581J0000000D01*
G01*
X0020738Y0076299D01*
G75*
G02*
X0020157Y0076880I0000000J0000581D01*
G01*
X0020157Y0078238D01*
G75*
G02*
X0020738Y0078819I0000581J0000000D01*
G01*
X0021899Y0078819D01*
G75*
G02*
X0022480Y0078238I0000000J-000581D01*
G01*
G37*
D148*
X0042126Y0129429D03*
X0049606Y0129429D03*
X0045866Y0137303D03*
G36*
G01*
X0026299Y0082421D02*
X0026299Y0081063D01*
G75*
G02*
X0025718Y0080482I-000581J0000000D01*
G01*
X0024557Y0080482D01*
G75*
G02*
X0023976Y0081063I0000000J0000581D01*
G01*
X0023976Y0082421D01*
G75*
G02*
X0024557Y0083002I0000581J0000000D01*
G01*
X0025718Y0083002D01*
G75*
G02*
X0026299Y0082421I0000000J-000581D01*
G01*
G37*
G36*
G01*
X0022480Y0082421D02*
X0022480Y0081063D01*
G75*
G02*
X0021899Y0080482I-000581J0000000D01*
G01*
X0020738Y0080482D01*
G75*
G02*
X0020157Y0081063I0000000J0000581D01*
G01*
X0020157Y0082421D01*
G75*
G02*
X0020738Y0083002I0000581J0000000D01*
G01*
X0021899Y0083002D01*
G75*
G02*
X0022480Y0082421I0000000J-000581D01*
G01*
G37*
G36*
G01*
X0050216Y0078041D02*
X0050216Y0076683D01*
G75*
G02*
X0049635Y0076102I-000581J0000000D01*
G01*
X0048474Y0076102D01*
G75*
G02*
X0047893Y0076683I0000000J0000581D01*
G01*
X0047893Y0078041D01*
G75*
G02*
X0048474Y0078622I0000581J0000000D01*
G01*
X0049635Y0078622D01*
G75*
G02*
X0050216Y0078041I0000000J-000581D01*
G01*
G37*
G36*
G01*
X0046397Y0078041D02*
X0046397Y0076683D01*
G75*
G02*
X0045816Y0076102I-000581J0000000D01*
G01*
X0044655Y0076102D01*
G75*
G02*
X0044074Y0076683I0000000J0000581D01*
G01*
X0044074Y0078041D01*
G75*
G02*
X0044655Y0078622I0000581J0000000D01*
G01*
X0045816Y0078622D01*
G75*
G02*
X0046397Y0078041I0000000J-000581D01*
G01*
G37*
G36*
G01*
X0062480Y0081801D02*
X0062480Y0083159D01*
G75*
G02*
X0063061Y0083740I0000581J0000000D01*
G01*
X0064222Y0083740D01*
G75*
G02*
X0064803Y0083159I0000000J-000581D01*
G01*
X0064803Y0081801D01*
G75*
G02*
X0064222Y0081220I-000581J0000000D01*
G01*
X0063061Y0081220D01*
G75*
G02*
X0062480Y0081801I0000000J0000581D01*
G01*
G37*
G36*
G01*
X0066299Y0081801D02*
X0066299Y0083159D01*
G75*
G02*
X0066879Y0083740I0000581J0000000D01*
G01*
X0068041Y0083740D01*
G75*
G02*
X0068622Y0083159I0000000J-000581D01*
G01*
X0068622Y0081801D01*
G75*
G02*
X0068041Y0081220I-000581J0000000D01*
G01*
X0066879Y0081220D01*
G75*
G02*
X0066299Y0081801I0000000J0000581D01*
G01*
G37*
G36*
G01*
X0035708Y0076683D02*
X0035708Y0078041D01*
G75*
G02*
X0036289Y0078622I0000581J0000000D01*
G01*
X0037450Y0078622D01*
G75*
G02*
X0038031Y0078041I0000000J-000581D01*
G01*
X0038031Y0076683D01*
G75*
G02*
X0037450Y0076102I-000581J0000000D01*
G01*
X0036289Y0076102D01*
G75*
G02*
X0035708Y0076683I0000000J0000581D01*
G01*
G37*
G36*
G01*
X0039527Y0076683D02*
X0039527Y0078041D01*
G75*
G02*
X0040108Y0078622I0000581J0000000D01*
G01*
X0041269Y0078622D01*
G75*
G02*
X0041850Y0078041I0000000J-000581D01*
G01*
X0041850Y0076683D01*
G75*
G02*
X0041269Y0076102I-000581J0000000D01*
G01*
X0040108Y0076102D01*
G75*
G02*
X0039527Y0076683I0000000J0000581D01*
G01*
G37*
G36*
G01*
X0062480Y0116447D02*
X0062480Y0117805D01*
G75*
G02*
X0063061Y0118385I0000581J0000000D01*
G01*
X0064222Y0118385D01*
G75*
G02*
X0064803Y0117805I0000000J-000581D01*
G01*
X0064803Y0116447D01*
G75*
G02*
X0064222Y0115866I-000581J0000000D01*
G01*
X0063061Y0115866D01*
G75*
G02*
X0062480Y0116447I0000000J0000581D01*
G01*
G37*
G36*
G01*
X0066299Y0116447D02*
X0066299Y0117805D01*
G75*
G02*
X0066879Y0118385I0000581J0000000D01*
G01*
X0068041Y0118385D01*
G75*
G02*
X0068622Y0117805I0000000J-000581D01*
G01*
X0068622Y0116447D01*
G75*
G02*
X0068041Y0115866I-000581J0000000D01*
G01*
X0066879Y0115866D01*
G75*
G02*
X0066299Y0116447I0000000J0000581D01*
G01*
G37*
D369*
X0055807Y0052008D03*
D146*
X0027460Y0053110D03*
X0039271Y0060984D03*
X0027460Y0068858D03*
D370*
X0031003Y0060984D03*
D369*
X0055807Y0069960D03*
G36*
G01*
X0036033Y0127480D02*
X0037391Y0127480D01*
G75*
G02*
X0037972Y0126899I0000000J-000581D01*
G01*
X0037972Y0125738D01*
G75*
G02*
X0037391Y0125157I-000581J0000000D01*
G01*
X0036033Y0125157D01*
G75*
G02*
X0035452Y0125738I0000000J0000581D01*
G01*
X0035452Y0126899D01*
G75*
G02*
X0036033Y0127480I0000581J0000000D01*
G01*
G37*
G36*
G01*
X0036033Y0123661D02*
X0037391Y0123661D01*
G75*
G02*
X0037972Y0123080I0000000J-000581D01*
G01*
X0037972Y0121919D01*
G75*
G02*
X0037391Y0121338I-000581J0000000D01*
G01*
X0036033Y0121338D01*
G75*
G02*
X0035452Y0121919I0000000J0000581D01*
G01*
X0035452Y0123080D01*
G75*
G02*
X0036033Y0123661I0000581J0000000D01*
G01*
G37*
G36*
G01*
X0022367Y0088976D02*
X0020349Y0088976D01*
G75*
G02*
X0019488Y0089837I0000000J0000861D01*
G01*
X0019488Y0091560D01*
G75*
G02*
X0020349Y0092421I0000861J0000000D01*
G01*
X0022367Y0092421D01*
G75*
G02*
X0023228Y0091560I0000000J-000861D01*
G01*
X0023228Y0089837D01*
G75*
G02*
X0022367Y0088976I-000861J0000000D01*
G01*
G37*
G36*
G01*
X0022367Y0095177D02*
X0020349Y0095177D01*
G75*
G02*
X0019488Y0096038I0000000J0000861D01*
G01*
X0019488Y0097760D01*
G75*
G02*
X0020349Y0098622I0000861J0000000D01*
G01*
X0022367Y0098622D01*
G75*
G02*
X0023228Y0097760I0000000J-000861D01*
G01*
X0023228Y0096038D01*
G75*
G02*
X0022367Y0095177I-000861J0000000D01*
G01*
G37*
G36*
G01*
X0026299Y0086604D02*
X0026299Y0085246D01*
G75*
G02*
X0025718Y0084665I-000581J0000000D01*
G01*
X0024557Y0084665D01*
G75*
G02*
X0023976Y0085246I0000000J0000581D01*
G01*
X0023976Y0086604D01*
G75*
G02*
X0024557Y0087185I0000581J0000000D01*
G01*
X0025718Y0087185D01*
G75*
G02*
X0026299Y0086604I0000000J-000581D01*
G01*
G37*
G36*
G01*
X0022480Y0086604D02*
X0022480Y0085246D01*
G75*
G02*
X0021899Y0084665I-000581J0000000D01*
G01*
X0020738Y0084665D01*
G75*
G02*
X0020157Y0085246I0000000J0000581D01*
G01*
X0020157Y0086604D01*
G75*
G02*
X0020738Y0087185I0000581J0000000D01*
G01*
X0021899Y0087185D01*
G75*
G02*
X0022480Y0086604I0000000J-000581D01*
G01*
G37*
G36*
G01*
X0021752Y0042495D02*
X0021752Y0044512D01*
G75*
G02*
X0022613Y0045374I0000861J0000000D01*
G01*
X0024335Y0045374D01*
G75*
G02*
X0025196Y0044512I0000000J-000861D01*
G01*
X0025196Y0042495D01*
G75*
G02*
X0024335Y0041634I-000861J0000000D01*
G01*
X0022613Y0041634D01*
G75*
G02*
X0021752Y0042495I0000000J0000861D01*
G01*
G37*
G36*
G01*
X0027952Y0042495D02*
X0027952Y0044512D01*
G75*
G02*
X0028814Y0045374I0000861J0000000D01*
G01*
X0030536Y0045374D01*
G75*
G02*
X0031397Y0044512I0000000J-000861D01*
G01*
X0031397Y0042495D01*
G75*
G02*
X0030536Y0041634I-000861J0000000D01*
G01*
X0028814Y0041634D01*
G75*
G02*
X0027952Y0042495I0000000J0000861D01*
G01*
G37*
G36*
G01*
X0020349Y0110334D02*
X0022367Y0110334D01*
G75*
G02*
X0023228Y0109473I0000000J-000861D01*
G01*
X0023228Y0107751D01*
G75*
G02*
X0022367Y0106889I-000861J0000000D01*
G01*
X0020349Y0106889D01*
G75*
G02*
X0019488Y0107751I0000000J0000861D01*
G01*
X0019488Y0109473D01*
G75*
G02*
X0020349Y0110334I0000861J0000000D01*
G01*
G37*
G36*
G01*
X0020349Y0104134D02*
X0022367Y0104134D01*
G75*
G02*
X0023228Y0103272I0000000J-000861D01*
G01*
X0023228Y0101550D01*
G75*
G02*
X0022367Y0100689I-000861J0000000D01*
G01*
X0020349Y0100689D01*
G75*
G02*
X0019488Y0101550I0000000J0000861D01*
G01*
X0019488Y0103272D01*
G75*
G02*
X0020349Y0104134I0000861J0000000D01*
G01*
G37*
G36*
G01*
X0024527Y0114655D02*
X0024527Y0113297D01*
G75*
G02*
X0023946Y0112716I-000581J0000000D01*
G01*
X0022785Y0112716D01*
G75*
G02*
X0022204Y0113297I0000000J0000581D01*
G01*
X0022204Y0114655D01*
G75*
G02*
X0022785Y0115236I0000581J0000000D01*
G01*
X0023946Y0115236D01*
G75*
G02*
X0024527Y0114655I0000000J-000581D01*
G01*
G37*
G36*
G01*
X0020708Y0114655D02*
X0020708Y0113297D01*
G75*
G02*
X0020127Y0112716I-000581J0000000D01*
G01*
X0018966Y0112716D01*
G75*
G02*
X0018385Y0113297I0000000J0000581D01*
G01*
X0018385Y0114655D01*
G75*
G02*
X0018966Y0115236I0000581J0000000D01*
G01*
X0020127Y0115236D01*
G75*
G02*
X0020708Y0114655I0000000J-000581D01*
G01*
G37*
G36*
G01*
X0037204Y0080216D02*
X0036220Y0080216D01*
G75*
G02*
X0035728Y0080708I0000000J0000492D01*
G01*
X0035728Y0085630D01*
G75*
G02*
X0036220Y0086122I0000492J0000000D01*
G01*
X0037204Y0086122D01*
G75*
G02*
X0037696Y0085630I0000000J-000492D01*
G01*
X0037696Y0080708D01*
G75*
G02*
X0037204Y0080216I-000492J0000000D01*
G01*
G37*
G36*
G01*
X0040354Y0080216D02*
X0039370Y0080216D01*
G75*
G02*
X0038877Y0080708I0000000J0000492D01*
G01*
X0038877Y0085630D01*
G75*
G02*
X0039370Y0086122I0000492J0000000D01*
G01*
X0040354Y0086122D01*
G75*
G02*
X0040846Y0085630I0000000J-000492D01*
G01*
X0040846Y0080708D01*
G75*
G02*
X0040354Y0080216I-000492J0000000D01*
G01*
G37*
G36*
G01*
X0043503Y0080216D02*
X0042519Y0080216D01*
G75*
G02*
X0042027Y0080708I0000000J0000492D01*
G01*
X0042027Y0085630D01*
G75*
G02*
X0042519Y0086122I0000492J0000000D01*
G01*
X0043503Y0086122D01*
G75*
G02*
X0043996Y0085630I0000000J-000492D01*
G01*
X0043996Y0080708D01*
G75*
G02*
X0043503Y0080216I-000492J0000000D01*
G01*
G37*
G36*
G01*
X0046653Y0080216D02*
X0045669Y0080216D01*
G75*
G02*
X0045177Y0080708I0000000J0000492D01*
G01*
X0045177Y0085630D01*
G75*
G02*
X0045669Y0086122I0000492J0000000D01*
G01*
X0046653Y0086122D01*
G75*
G02*
X0047145Y0085630I0000000J-000492D01*
G01*
X0047145Y0080708D01*
G75*
G02*
X0046653Y0080216I-000492J0000000D01*
G01*
G37*
G36*
G01*
X0049803Y0080216D02*
X0048818Y0080216D01*
G75*
G02*
X0048326Y0080708I0000000J0000492D01*
G01*
X0048326Y0085630D01*
G75*
G02*
X0048818Y0086122I0000492J0000000D01*
G01*
X0049803Y0086122D01*
G75*
G02*
X0050295Y0085630I0000000J-000492D01*
G01*
X0050295Y0080708D01*
G75*
G02*
X0049803Y0080216I-000492J0000000D01*
G01*
G37*
G36*
G01*
X0052952Y0080216D02*
X0051968Y0080216D01*
G75*
G02*
X0051476Y0080708I0000000J0000492D01*
G01*
X0051476Y0085630D01*
G75*
G02*
X0051968Y0086122I0000492J0000000D01*
G01*
X0052952Y0086122D01*
G75*
G02*
X0053444Y0085630I0000000J-000492D01*
G01*
X0053444Y0080708D01*
G75*
G02*
X0052952Y0080216I-000492J0000000D01*
G01*
G37*
G36*
G01*
X0056102Y0080216D02*
X0055118Y0080216D01*
G75*
G02*
X0054626Y0080708I0000000J0000492D01*
G01*
X0054626Y0085630D01*
G75*
G02*
X0055118Y0086122I0000492J0000000D01*
G01*
X0056102Y0086122D01*
G75*
G02*
X0056594Y0085630I0000000J-000492D01*
G01*
X0056594Y0080708D01*
G75*
G02*
X0056102Y0080216I-000492J0000000D01*
G01*
G37*
G36*
G01*
X0059252Y0080216D02*
X0058267Y0080216D01*
G75*
G02*
X0057775Y0080708I0000000J0000492D01*
G01*
X0057775Y0085630D01*
G75*
G02*
X0058267Y0086122I0000492J0000000D01*
G01*
X0059252Y0086122D01*
G75*
G02*
X0059744Y0085630I0000000J-000492D01*
G01*
X0059744Y0080708D01*
G75*
G02*
X0059252Y0080216I-000492J0000000D01*
G01*
G37*
G36*
G01*
X0066633Y0087598D02*
X0061712Y0087598D01*
G75*
G02*
X0061220Y0088090I0000000J0000492D01*
G01*
X0061220Y0089074D01*
G75*
G02*
X0061712Y0089567I0000492J0000000D01*
G01*
X0066633Y0089567D01*
G75*
G02*
X0067126Y0089074I0000000J-000492D01*
G01*
X0067126Y0088090D01*
G75*
G02*
X0066633Y0087598I-000492J0000000D01*
G01*
G37*
G36*
G01*
X0066633Y0090748D02*
X0061712Y0090748D01*
G75*
G02*
X0061220Y0091240I0000000J0000492D01*
G01*
X0061220Y0092224D01*
G75*
G02*
X0061712Y0092716I0000492J0000000D01*
G01*
X0066633Y0092716D01*
G75*
G02*
X0067126Y0092224I0000000J-000492D01*
G01*
X0067126Y0091240D01*
G75*
G02*
X0066633Y0090748I-000492J0000000D01*
G01*
G37*
G36*
G01*
X0066633Y0093897D02*
X0061712Y0093897D01*
G75*
G02*
X0061220Y0094389I0000000J0000492D01*
G01*
X0061220Y0095374D01*
G75*
G02*
X0061712Y0095866I0000492J0000000D01*
G01*
X0066633Y0095866D01*
G75*
G02*
X0067126Y0095374I0000000J-000492D01*
G01*
X0067126Y0094389D01*
G75*
G02*
X0066633Y0093897I-000492J0000000D01*
G01*
G37*
G36*
G01*
X0066633Y0097047D02*
X0061712Y0097047D01*
G75*
G02*
X0061220Y0097539I0000000J0000492D01*
G01*
X0061220Y0098523D01*
G75*
G02*
X0061712Y0099015I0000492J0000000D01*
G01*
X0066633Y0099015D01*
G75*
G02*
X0067126Y0098523I0000000J-000492D01*
G01*
X0067126Y0097539D01*
G75*
G02*
X0066633Y0097047I-000492J0000000D01*
G01*
G37*
G36*
G01*
X0066633Y0100197D02*
X0061712Y0100197D01*
G75*
G02*
X0061220Y0100689I0000000J0000492D01*
G01*
X0061220Y0101673D01*
G75*
G02*
X0061712Y0102165I0000492J0000000D01*
G01*
X0066633Y0102165D01*
G75*
G02*
X0067126Y0101673I0000000J-000492D01*
G01*
X0067126Y0100689D01*
G75*
G02*
X0066633Y0100197I-000492J0000000D01*
G01*
G37*
G36*
G01*
X0066633Y0103346D02*
X0061712Y0103346D01*
G75*
G02*
X0061220Y0103838I0000000J0000492D01*
G01*
X0061220Y0104822D01*
G75*
G02*
X0061712Y0105315I0000492J0000000D01*
G01*
X0066633Y0105315D01*
G75*
G02*
X0067126Y0104822I0000000J-000492D01*
G01*
X0067126Y0103838D01*
G75*
G02*
X0066633Y0103346I-000492J0000000D01*
G01*
G37*
G36*
G01*
X0066633Y0106496D02*
X0061712Y0106496D01*
G75*
G02*
X0061220Y0106988I0000000J0000492D01*
G01*
X0061220Y0107972D01*
G75*
G02*
X0061712Y0108464I0000492J0000000D01*
G01*
X0066633Y0108464D01*
G75*
G02*
X0067126Y0107972I0000000J-000492D01*
G01*
X0067126Y0106988D01*
G75*
G02*
X0066633Y0106496I-000492J0000000D01*
G01*
G37*
G36*
G01*
X0066633Y0109645D02*
X0061712Y0109645D01*
G75*
G02*
X0061220Y0110137I0000000J0000492D01*
G01*
X0061220Y0111122D01*
G75*
G02*
X0061712Y0111614I0000492J0000000D01*
G01*
X0066633Y0111614D01*
G75*
G02*
X0067126Y0111122I0000000J-000492D01*
G01*
X0067126Y0110137D01*
G75*
G02*
X0066633Y0109645I-000492J0000000D01*
G01*
G37*
G36*
G01*
X0059252Y0113090D02*
X0058267Y0113090D01*
G75*
G02*
X0057775Y0113582I0000000J0000492D01*
G01*
X0057775Y0118504D01*
G75*
G02*
X0058267Y0118996I0000492J0000000D01*
G01*
X0059252Y0118996D01*
G75*
G02*
X0059744Y0118504I0000000J-000492D01*
G01*
X0059744Y0113582D01*
G75*
G02*
X0059252Y0113090I-000492J0000000D01*
G01*
G37*
G36*
G01*
X0056102Y0113090D02*
X0055118Y0113090D01*
G75*
G02*
X0054626Y0113582I0000000J0000492D01*
G01*
X0054626Y0118504D01*
G75*
G02*
X0055118Y0118996I0000492J0000000D01*
G01*
X0056102Y0118996D01*
G75*
G02*
X0056594Y0118504I0000000J-000492D01*
G01*
X0056594Y0113582D01*
G75*
G02*
X0056102Y0113090I-000492J0000000D01*
G01*
G37*
G36*
G01*
X0052952Y0113090D02*
X0051968Y0113090D01*
G75*
G02*
X0051476Y0113582I0000000J0000492D01*
G01*
X0051476Y0118504D01*
G75*
G02*
X0051968Y0118996I0000492J0000000D01*
G01*
X0052952Y0118996D01*
G75*
G02*
X0053444Y0118504I0000000J-000492D01*
G01*
X0053444Y0113582D01*
G75*
G02*
X0052952Y0113090I-000492J0000000D01*
G01*
G37*
G36*
G01*
X0049803Y0113090D02*
X0048818Y0113090D01*
G75*
G02*
X0048326Y0113582I0000000J0000492D01*
G01*
X0048326Y0118504D01*
G75*
G02*
X0048818Y0118996I0000492J0000000D01*
G01*
X0049803Y0118996D01*
G75*
G02*
X0050295Y0118504I0000000J-000492D01*
G01*
X0050295Y0113582D01*
G75*
G02*
X0049803Y0113090I-000492J0000000D01*
G01*
G37*
G36*
G01*
X0046653Y0113090D02*
X0045669Y0113090D01*
G75*
G02*
X0045177Y0113582I0000000J0000492D01*
G01*
X0045177Y0118504D01*
G75*
G02*
X0045669Y0118996I0000492J0000000D01*
G01*
X0046653Y0118996D01*
G75*
G02*
X0047145Y0118504I0000000J-000492D01*
G01*
X0047145Y0113582D01*
G75*
G02*
X0046653Y0113090I-000492J0000000D01*
G01*
G37*
G36*
G01*
X0043503Y0113090D02*
X0042519Y0113090D01*
G75*
G02*
X0042027Y0113582I0000000J0000492D01*
G01*
X0042027Y0118504D01*
G75*
G02*
X0042519Y0118996I0000492J0000000D01*
G01*
X0043503Y0118996D01*
G75*
G02*
X0043996Y0118504I0000000J-000492D01*
G01*
X0043996Y0113582D01*
G75*
G02*
X0043503Y0113090I-000492J0000000D01*
G01*
G37*
G36*
G01*
X0040354Y0113090D02*
X0039370Y0113090D01*
G75*
G02*
X0038877Y0113582I0000000J0000492D01*
G01*
X0038877Y0118504D01*
G75*
G02*
X0039370Y0118996I0000492J0000000D01*
G01*
X0040354Y0118996D01*
G75*
G02*
X0040846Y0118504I0000000J-000492D01*
G01*
X0040846Y0113582D01*
G75*
G02*
X0040354Y0113090I-000492J0000000D01*
G01*
G37*
G36*
G01*
X0037204Y0113090D02*
X0036220Y0113090D01*
G75*
G02*
X0035728Y0113582I0000000J0000492D01*
G01*
X0035728Y0118504D01*
G75*
G02*
X0036220Y0118996I0000492J0000000D01*
G01*
X0037204Y0118996D01*
G75*
G02*
X0037696Y0118504I0000000J-000492D01*
G01*
X0037696Y0113582D01*
G75*
G02*
X0037204Y0113090I-000492J0000000D01*
G01*
G37*
G36*
G01*
X0033759Y0109645D02*
X0028838Y0109645D01*
G75*
G02*
X0028346Y0110137I0000000J0000492D01*
G01*
X0028346Y0111122D01*
G75*
G02*
X0028838Y0111614I0000492J0000000D01*
G01*
X0033759Y0111614D01*
G75*
G02*
X0034252Y0111122I0000000J-000492D01*
G01*
X0034252Y0110137D01*
G75*
G02*
X0033759Y0109645I-000492J0000000D01*
G01*
G37*
G36*
G01*
X0033759Y0106496D02*
X0028838Y0106496D01*
G75*
G02*
X0028346Y0106988I0000000J0000492D01*
G01*
X0028346Y0107972D01*
G75*
G02*
X0028838Y0108464I0000492J0000000D01*
G01*
X0033759Y0108464D01*
G75*
G02*
X0034252Y0107972I0000000J-000492D01*
G01*
X0034252Y0106988D01*
G75*
G02*
X0033759Y0106496I-000492J0000000D01*
G01*
G37*
G36*
G01*
X0033759Y0103346D02*
X0028838Y0103346D01*
G75*
G02*
X0028346Y0103838I0000000J0000492D01*
G01*
X0028346Y0104822D01*
G75*
G02*
X0028838Y0105315I0000492J0000000D01*
G01*
X0033759Y0105315D01*
G75*
G02*
X0034252Y0104822I0000000J-000492D01*
G01*
X0034252Y0103838D01*
G75*
G02*
X0033759Y0103346I-000492J0000000D01*
G01*
G37*
G36*
G01*
X0033759Y0100197D02*
X0028838Y0100197D01*
G75*
G02*
X0028346Y0100689I0000000J0000492D01*
G01*
X0028346Y0101673D01*
G75*
G02*
X0028838Y0102165I0000492J0000000D01*
G01*
X0033759Y0102165D01*
G75*
G02*
X0034252Y0101673I0000000J-000492D01*
G01*
X0034252Y0100689D01*
G75*
G02*
X0033759Y0100197I-000492J0000000D01*
G01*
G37*
G36*
G01*
X0033759Y0097047D02*
X0028838Y0097047D01*
G75*
G02*
X0028346Y0097539I0000000J0000492D01*
G01*
X0028346Y0098523D01*
G75*
G02*
X0028838Y0099015I0000492J0000000D01*
G01*
X0033759Y0099015D01*
G75*
G02*
X0034252Y0098523I0000000J-000492D01*
G01*
X0034252Y0097539D01*
G75*
G02*
X0033759Y0097047I-000492J0000000D01*
G01*
G37*
G36*
G01*
X0033759Y0093897D02*
X0028838Y0093897D01*
G75*
G02*
X0028346Y0094389I0000000J0000492D01*
G01*
X0028346Y0095374D01*
G75*
G02*
X0028838Y0095866I0000492J0000000D01*
G01*
X0033759Y0095866D01*
G75*
G02*
X0034252Y0095374I0000000J-000492D01*
G01*
X0034252Y0094389D01*
G75*
G02*
X0033759Y0093897I-000492J0000000D01*
G01*
G37*
G36*
G01*
X0033759Y0090748D02*
X0028838Y0090748D01*
G75*
G02*
X0028346Y0091240I0000000J0000492D01*
G01*
X0028346Y0092224D01*
G75*
G02*
X0028838Y0092716I0000492J0000000D01*
G01*
X0033759Y0092716D01*
G75*
G02*
X0034252Y0092224I0000000J-000492D01*
G01*
X0034252Y0091240D01*
G75*
G02*
X0033759Y0090748I-000492J0000000D01*
G01*
G37*
G36*
G01*
X0033759Y0087598D02*
X0028838Y0087598D01*
G75*
G02*
X0028346Y0088090I0000000J0000492D01*
G01*
X0028346Y0089074D01*
G75*
G02*
X0028838Y0089567I0000492J0000000D01*
G01*
X0033759Y0089567D01*
G75*
G02*
X0034252Y0089074I0000000J-000492D01*
G01*
X0034252Y0088090D01*
G75*
G02*
X0033759Y0087598I-000492J0000000D01*
G01*
G37*
G36*
G01*
X0055305Y0122224D02*
X0053946Y0122224D01*
G75*
G02*
X0053366Y0122805I0000000J0000581D01*
G01*
X0053366Y0123966D01*
G75*
G02*
X0053946Y0124547I0000581J0000000D01*
G01*
X0055305Y0124547D01*
G75*
G02*
X0055885Y0123966I0000000J-000581D01*
G01*
X0055885Y0122805D01*
G75*
G02*
X0055305Y0122224I-000581J0000000D01*
G01*
G37*
G36*
G01*
X0055305Y0126043D02*
X0053946Y0126043D01*
G75*
G02*
X0053366Y0126624I0000000J0000581D01*
G01*
X0053366Y0127785D01*
G75*
G02*
X0053946Y0128366I0000581J0000000D01*
G01*
X0055305Y0128366D01*
G75*
G02*
X0055885Y0127785I0000000J-000581D01*
G01*
X0055885Y0126624D01*
G75*
G02*
X0055305Y0126043I-000581J0000000D01*
G01*
G37*
G36*
G01*
X0031909Y0115147D02*
X0031909Y0113789D01*
G75*
G02*
X0031328Y0113208I-000581J0000000D01*
G01*
X0030167Y0113208D01*
G75*
G02*
X0029586Y0113789I0000000J0000581D01*
G01*
X0029586Y0115147D01*
G75*
G02*
X0030167Y0115728I0000581J0000000D01*
G01*
X0031328Y0115728D01*
G75*
G02*
X0031909Y0115147I0000000J-000581D01*
G01*
G37*
G36*
G01*
X0028090Y0115147D02*
X0028090Y0113789D01*
G75*
G02*
X0027509Y0113208I-000581J0000000D01*
G01*
X0026348Y0113208D01*
G75*
G02*
X0025767Y0113789I0000000J0000581D01*
G01*
X0025767Y0115147D01*
G75*
G02*
X0026348Y0115728I0000581J0000000D01*
G01*
X0027509Y0115728D01*
G75*
G02*
X0028090Y0115147I0000000J-000581D01*
G01*
G37*
G36*
G01*
X0053946Y0138791D02*
X0055305Y0138791D01*
G75*
G02*
X0055885Y0138210I0000000J-000581D01*
G01*
X0055885Y0137049D01*
G75*
G02*
X0055305Y0136468I-000581J0000000D01*
G01*
X0053946Y0136468D01*
G75*
G02*
X0053366Y0137049I0000000J0000581D01*
G01*
X0053366Y0138210D01*
G75*
G02*
X0053946Y0138791I0000581J0000000D01*
G01*
G37*
G36*
G01*
X0053946Y0134972D02*
X0055305Y0134972D01*
G75*
G02*
X0055885Y0134391I0000000J-000581D01*
G01*
X0055885Y0133230D01*
G75*
G02*
X0055305Y0132649I-000581J0000000D01*
G01*
X0053946Y0132649D01*
G75*
G02*
X0053366Y0133230I0000000J0000581D01*
G01*
X0053366Y0134391D01*
G75*
G02*
X0053946Y0134972I0000581J0000000D01*
G01*
G37*
D144*
X0059547Y0137303D03*
X0059547Y0129822D03*
X0067421Y0133563D03*
G36*
G01*
X0033779Y0078238D02*
X0033779Y0076880D01*
G75*
G02*
X0033198Y0076299I-000581J0000000D01*
G01*
X0032037Y0076299D01*
G75*
G02*
X0031456Y0076880I0000000J0000581D01*
G01*
X0031456Y0078238D01*
G75*
G02*
X0032037Y0078819I0000581J0000000D01*
G01*
X0033198Y0078819D01*
G75*
G02*
X0033779Y0078238I0000000J-000581D01*
G01*
G37*
G36*
G01*
X0029960Y0078238D02*
X0029960Y0076880D01*
G75*
G02*
X0029379Y0076299I-000581J0000000D01*
G01*
X0028218Y0076299D01*
G75*
G02*
X0027637Y0076880I0000000J0000581D01*
G01*
X0027637Y0078238D01*
G75*
G02*
X0028218Y0078819I0000581J0000000D01*
G01*
X0029379Y0078819D01*
G75*
G02*
X0029960Y0078238I0000000J-000581D01*
G01*
G37*
G36*
G01*
X0068818Y0124365D02*
X0068818Y0122347D01*
G75*
G02*
X0067957Y0121486I-000861J0000000D01*
G01*
X0066235Y0121486D01*
G75*
G02*
X0065374Y0122347I0000000J0000861D01*
G01*
X0065374Y0124365D01*
G75*
G02*
X0066235Y0125226I0000861J0000000D01*
G01*
X0067957Y0125226D01*
G75*
G02*
X0068818Y0124365I0000000J-000861D01*
G01*
G37*
G36*
G01*
X0062618Y0124365D02*
X0062618Y0122347D01*
G75*
G02*
X0061756Y0121486I-000861J0000000D01*
G01*
X0060034Y0121486D01*
G75*
G02*
X0059173Y0122347I0000000J0000861D01*
G01*
X0059173Y0124365D01*
G75*
G02*
X0060034Y0125226I0000861J0000000D01*
G01*
X0061756Y0125226D01*
G75*
G02*
X0062618Y0124365I0000000J-000861D01*
G01*
G37*
D159*
X0026673Y0140118D03*
X0022673Y0120118D03*
X0030673Y0120118D03*
D156*
X0024173Y0135118D03*
X0029173Y0135118D03*
X0024173Y0130118D03*
X0029173Y0130118D03*
X0024173Y0125118D03*
X0029173Y0125118D03*
D371*
X0065551Y0050630D03*
D372*
X0065551Y0060630D03*
X0065551Y0070630D03*
M02*
