G75*
G70*
%OFA0B0*%
%FSLAX25Y25*%
%IPPOS*%
%LPD*%
%AMOC8*
5,1,8,0,0,1.08239X$1,22.5*
%
%AMM103*
21,1,0.019680,0.019680,-0.000000,0.000000,90.000000*
21,1,0.015750,0.023620,-0.000000,0.000000,90.000000*
1,1,0.003940,0.009840,0.007870*
1,1,0.003940,0.009840,-0.007870*
1,1,0.003940,-0.009840,-0.007870*
1,1,0.003940,-0.009840,0.007870*
%
%AMM104*
21,1,0.019680,0.019680,-0.000000,0.000000,0.000000*
21,1,0.015750,0.023620,-0.000000,0.000000,0.000000*
1,1,0.003940,0.007870,-0.009840*
1,1,0.003940,-0.007870,-0.009840*
1,1,0.003940,-0.007870,0.009840*
1,1,0.003940,0.007870,0.009840*
%
%AMM119*
21,1,0.033470,0.026770,-0.000000,0.000000,0.000000*
21,1,0.026770,0.033470,-0.000000,0.000000,0.000000*
1,1,0.006690,0.013390,-0.013390*
1,1,0.006690,-0.013390,-0.013390*
1,1,0.006690,-0.013390,0.013390*
1,1,0.006690,0.013390,0.013390*
%
%AMM120*
21,1,0.023620,0.018900,-0.000000,0.000000,270.000000*
21,1,0.018900,0.023620,-0.000000,0.000000,270.000000*
1,1,0.004720,-0.009450,-0.009450*
1,1,0.004720,-0.009450,0.009450*
1,1,0.004720,0.009450,0.009450*
1,1,0.004720,0.009450,-0.009450*
%
%AMM134*
21,1,0.035830,0.026770,-0.000000,-0.000000,180.000000*
21,1,0.029130,0.033470,-0.000000,-0.000000,180.000000*
1,1,0.006690,-0.014570,0.013390*
1,1,0.006690,0.014570,0.013390*
1,1,0.006690,0.014570,-0.013390*
1,1,0.006690,-0.014570,-0.013390*
%
%AMM135*
21,1,0.070870,0.036220,-0.000000,-0.000000,270.000000*
21,1,0.061810,0.045280,-0.000000,-0.000000,270.000000*
1,1,0.009060,-0.018110,-0.030910*
1,1,0.009060,-0.018110,0.030910*
1,1,0.009060,0.018110,0.030910*
1,1,0.009060,0.018110,-0.030910*
%
%AMM136*
21,1,0.033470,0.026770,-0.000000,-0.000000,180.000000*
21,1,0.026770,0.033470,-0.000000,-0.000000,180.000000*
1,1,0.006690,-0.013390,0.013390*
1,1,0.006690,0.013390,0.013390*
1,1,0.006690,0.013390,-0.013390*
1,1,0.006690,-0.013390,-0.013390*
%
%AMM170*
21,1,0.035830,0.026770,0.000000,-0.000000,270.000000*
21,1,0.029130,0.033470,0.000000,-0.000000,270.000000*
1,1,0.006690,-0.013390,-0.014570*
1,1,0.006690,-0.013390,0.014570*
1,1,0.006690,0.013390,0.014570*
1,1,0.006690,0.013390,-0.014570*
%
%AMM171*
21,1,0.070870,0.036220,0.000000,-0.000000,0.000000*
21,1,0.061810,0.045280,0.000000,-0.000000,0.000000*
1,1,0.009060,0.030910,-0.018110*
1,1,0.009060,-0.030910,-0.018110*
1,1,0.009060,-0.030910,0.018110*
1,1,0.009060,0.030910,0.018110*
%
%AMM174*
21,1,0.023620,0.018900,0.000000,-0.000000,0.000000*
21,1,0.018900,0.023620,0.000000,-0.000000,0.000000*
1,1,0.004720,0.009450,-0.009450*
1,1,0.004720,-0.009450,-0.009450*
1,1,0.004720,-0.009450,0.009450*
1,1,0.004720,0.009450,0.009450*
%
%AMM175*
21,1,0.019680,0.019680,0.000000,-0.000000,270.000000*
21,1,0.015750,0.023620,0.000000,-0.000000,270.000000*
1,1,0.003940,-0.009840,-0.007870*
1,1,0.003940,-0.009840,0.007870*
1,1,0.003940,0.009840,0.007870*
1,1,0.003940,0.009840,-0.007870*
%
%AMM176*
21,1,0.019680,0.019680,0.000000,-0.000000,180.000000*
21,1,0.015750,0.023620,0.000000,-0.000000,180.000000*
1,1,0.003940,-0.007870,0.009840*
1,1,0.003940,0.007870,0.009840*
1,1,0.003940,0.007870,-0.009840*
1,1,0.003940,-0.007870,-0.009840*
%
%AMM190*
21,1,0.106300,0.050390,0.000000,-0.000000,0.000000*
21,1,0.093700,0.062990,0.000000,-0.000000,0.000000*
1,1,0.012600,0.046850,-0.025200*
1,1,0.012600,-0.046850,-0.025200*
1,1,0.012600,-0.046850,0.025200*
1,1,0.012600,0.046850,0.025200*
%
%AMM191*
21,1,0.033470,0.026770,0.000000,-0.000000,180.000000*
21,1,0.026770,0.033470,0.000000,-0.000000,180.000000*
1,1,0.006690,-0.013390,0.013390*
1,1,0.006690,0.013390,0.013390*
1,1,0.006690,0.013390,-0.013390*
1,1,0.006690,-0.013390,-0.013390*
%
%AMM192*
21,1,0.023620,0.018900,0.000000,-0.000000,90.000000*
21,1,0.018900,0.023620,0.000000,-0.000000,90.000000*
1,1,0.004720,0.009450,0.009450*
1,1,0.004720,0.009450,-0.009450*
1,1,0.004720,-0.009450,-0.009450*
1,1,0.004720,-0.009450,0.009450*
%
%AMM193*
21,1,0.122050,0.075590,0.000000,-0.000000,90.000000*
21,1,0.103150,0.094490,0.000000,-0.000000,90.000000*
1,1,0.018900,0.037800,0.051580*
1,1,0.018900,0.037800,-0.051580*
1,1,0.018900,-0.037800,-0.051580*
1,1,0.018900,-0.037800,0.051580*
%
%AMM194*
21,1,0.118110,0.083460,0.000000,-0.000000,270.000000*
21,1,0.097240,0.104330,0.000000,-0.000000,270.000000*
1,1,0.020870,-0.041730,-0.048620*
1,1,0.020870,-0.041730,0.048620*
1,1,0.020870,0.041730,0.048620*
1,1,0.020870,0.041730,-0.048620*
%
%AMM255*
21,1,0.025590,0.026380,-0.000000,-0.000000,90.000000*
21,1,0.020470,0.031500,-0.000000,-0.000000,90.000000*
1,1,0.005120,0.013190,0.010240*
1,1,0.005120,0.013190,-0.010240*
1,1,0.005120,-0.013190,-0.010240*
1,1,0.005120,-0.013190,0.010240*
%
%AMM256*
21,1,0.017720,0.027950,-0.000000,-0.000000,90.000000*
21,1,0.014170,0.031500,-0.000000,-0.000000,90.000000*
1,1,0.003540,0.013980,0.007090*
1,1,0.003540,0.013980,-0.007090*
1,1,0.003540,-0.013980,-0.007090*
1,1,0.003540,-0.013980,0.007090*
%
%AMM259*
21,1,0.027560,0.018900,-0.000000,-0.000000,270.000000*
21,1,0.022840,0.023620,-0.000000,-0.000000,270.000000*
1,1,0.004720,-0.009450,-0.011420*
1,1,0.004720,-0.009450,0.011420*
1,1,0.004720,0.009450,0.011420*
1,1,0.004720,0.009450,-0.011420*
%
%AMM261*
21,1,0.027560,0.018900,-0.000000,-0.000000,0.000000*
21,1,0.022840,0.023620,-0.000000,-0.000000,0.000000*
1,1,0.004720,0.011420,-0.009450*
1,1,0.004720,-0.011420,-0.009450*
1,1,0.004720,-0.011420,0.009450*
1,1,0.004720,0.011420,0.009450*
%
%AMM263*
21,1,0.035430,0.030320,-0.000000,-0.000000,90.000000*
21,1,0.028350,0.037400,-0.000000,-0.000000,90.000000*
1,1,0.007090,0.015160,0.014170*
1,1,0.007090,0.015160,-0.014170*
1,1,0.007090,-0.015160,-0.014170*
1,1,0.007090,-0.015160,0.014170*
%
%AMM266*
21,1,0.027560,0.030710,-0.000000,-0.000000,180.000000*
21,1,0.022050,0.036220,-0.000000,-0.000000,180.000000*
1,1,0.005510,-0.011020,0.015350*
1,1,0.005510,0.011020,0.015350*
1,1,0.005510,0.011020,-0.015350*
1,1,0.005510,-0.011020,-0.015350*
%
%AMM287*
21,1,0.033470,0.026770,-0.000000,-0.000000,270.000000*
21,1,0.026770,0.033470,-0.000000,-0.000000,270.000000*
1,1,0.006690,-0.013390,-0.013390*
1,1,0.006690,-0.013390,0.013390*
1,1,0.006690,0.013390,0.013390*
1,1,0.006690,0.013390,-0.013390*
%
%AMM288*
21,1,0.025590,0.026380,-0.000000,-0.000000,180.000000*
21,1,0.020470,0.031500,-0.000000,-0.000000,180.000000*
1,1,0.005120,-0.010240,0.013190*
1,1,0.005120,0.010240,0.013190*
1,1,0.005120,0.010240,-0.013190*
1,1,0.005120,-0.010240,-0.013190*
%
%AMM289*
21,1,0.017720,0.027950,-0.000000,-0.000000,180.000000*
21,1,0.014170,0.031500,-0.000000,-0.000000,180.000000*
1,1,0.003540,-0.007090,0.013980*
1,1,0.003540,0.007090,0.013980*
1,1,0.003540,0.007090,-0.013980*
1,1,0.003540,-0.007090,-0.013980*
%
%AMM290*
21,1,0.078740,0.045670,-0.000000,-0.000000,0.000000*
21,1,0.067320,0.057090,-0.000000,-0.000000,0.000000*
1,1,0.011420,0.033660,-0.022840*
1,1,0.011420,-0.033660,-0.022840*
1,1,0.011420,-0.033660,0.022840*
1,1,0.011420,0.033660,0.022840*
%
%AMM291*
21,1,0.059060,0.020470,-0.000000,-0.000000,0.000000*
21,1,0.053940,0.025590,-0.000000,-0.000000,0.000000*
1,1,0.005120,0.026970,-0.010240*
1,1,0.005120,-0.026970,-0.010240*
1,1,0.005120,-0.026970,0.010240*
1,1,0.005120,0.026970,0.010240*
%
%AMM292*
21,1,0.035430,0.030320,-0.000000,-0.000000,0.000000*
21,1,0.028350,0.037400,-0.000000,-0.000000,0.000000*
1,1,0.007090,0.014170,-0.015160*
1,1,0.007090,-0.014170,-0.015160*
1,1,0.007090,-0.014170,0.015160*
1,1,0.007090,0.014170,0.015160*
%
%AMM293*
21,1,0.012600,0.028980,-0.000000,-0.000000,0.000000*
21,1,0.010080,0.031500,-0.000000,-0.000000,0.000000*
1,1,0.002520,0.005040,-0.014490*
1,1,0.002520,-0.005040,-0.014490*
1,1,0.002520,-0.005040,0.014490*
1,1,0.002520,0.005040,0.014490*
%
%AMM294*
21,1,0.070870,0.036220,-0.000000,-0.000000,180.000000*
21,1,0.061810,0.045280,-0.000000,-0.000000,180.000000*
1,1,0.009060,-0.030910,0.018110*
1,1,0.009060,0.030910,0.018110*
1,1,0.009060,0.030910,-0.018110*
1,1,0.009060,-0.030910,-0.018110*
%
%AMM295*
21,1,0.027560,0.049610,-0.000000,-0.000000,180.000000*
21,1,0.022050,0.055120,-0.000000,-0.000000,180.000000*
1,1,0.005510,-0.011020,0.024800*
1,1,0.005510,0.011020,0.024800*
1,1,0.005510,0.011020,-0.024800*
1,1,0.005510,-0.011020,-0.024800*
%
%AMM296*
21,1,0.027560,0.030710,-0.000000,-0.000000,270.000000*
21,1,0.022050,0.036220,-0.000000,-0.000000,270.000000*
1,1,0.005510,-0.015350,-0.011020*
1,1,0.005510,-0.015350,0.011020*
1,1,0.005510,0.015350,0.011020*
1,1,0.005510,0.015350,-0.011020*
%
%ADD223R,0.01378X0.01476*%
%ADD226O,0.04961X0.00984*%
%ADD228R,0.09449X0.06693*%
%ADD229R,0.01476X0.01378*%
%ADD231R,0.03937X0.04331*%
%ADD262M103*%
%ADD263M104*%
%ADD279M119*%
%ADD280M120*%
%ADD281O,0.08661X0.01968*%
%ADD296M134*%
%ADD297M135*%
%ADD298M136*%
%ADD332M170*%
%ADD333M171*%
%ADD336M174*%
%ADD337M175*%
%ADD338M176*%
%ADD352M190*%
%ADD353M191*%
%ADD354M192*%
%ADD355M193*%
%ADD356M194*%
%ADD373R,0.01772X0.05709*%
%ADD374R,0.02559X0.04803*%
%ADD450M255*%
%ADD451M256*%
%ADD454M259*%
%ADD456M261*%
%ADD458M263*%
%ADD461M266*%
%ADD482M287*%
%ADD483M288*%
%ADD484M289*%
%ADD485M290*%
%ADD486M291*%
%ADD487M292*%
%ADD488M293*%
%ADD489M294*%
%ADD49R,0.00787X0.14567*%
%ADD490M295*%
%ADD491M296*%
%ADD50R,0.00787X0.01575*%
%ADD51R,0.00787X0.06299*%
%ADD52R,0.00787X0.38189*%
%ADD53R,0.00787X0.09055*%
%ADD54R,0.05512X0.00787*%
%ADD55R,0.25197X0.00787*%
%ADD56R,0.06693X0.00787*%
%ADD57R,0.12992X0.00787*%
%ADD58R,0.00787X0.27559*%
%ADD59R,0.00787X0.12992*%
%ADD60R,0.00787X0.24803*%
X0000000Y0000000D02*
%LPD*%
G01*
G36*
G01*
X0100000Y0268011D02*
X0088780Y0268011D01*
G75*
G02*
X0087795Y0268995I0000000J0000984D01*
G01*
X0087795Y0271849D01*
G75*
G02*
X0088780Y0272834I0000984J0000000D01*
G01*
X0100000Y0272834D01*
G75*
G02*
X0100984Y0271849I0000000J-000984D01*
G01*
X0100984Y0268995D01*
G75*
G02*
X0100000Y0268011I-000984J0000000D01*
G01*
G37*
G36*
G01*
X0100000Y0291338D02*
X0088780Y0291338D01*
G75*
G02*
X0087795Y0292322I0000000J0000984D01*
G01*
X0087795Y0295176D01*
G75*
G02*
X0088780Y0296160I0000984J0000000D01*
G01*
X0100000Y0296160D01*
G75*
G02*
X0100984Y0295176I0000000J-000984D01*
G01*
X0100984Y0292322D01*
G75*
G02*
X0100000Y0291338I-000984J0000000D01*
G01*
G37*
G36*
G01*
X0136811Y0274901D02*
X0125591Y0274901D01*
G75*
G02*
X0124606Y0275885I0000000J0000984D01*
G01*
X0124606Y0278739D01*
G75*
G02*
X0125591Y0279723I0000984J0000000D01*
G01*
X0136811Y0279723D01*
G75*
G02*
X0137795Y0278739I0000000J-000984D01*
G01*
X0137795Y0275885D01*
G75*
G02*
X0136811Y0274901I-000984J0000000D01*
G01*
G37*
G36*
G01*
X0136811Y0298227D02*
X0125591Y0298227D01*
G75*
G02*
X0124606Y0299212I0000000J0000984D01*
G01*
X0124606Y0302066D01*
G75*
G02*
X0125591Y0303050I0000984J0000000D01*
G01*
X0136811Y0303050D01*
G75*
G02*
X0137795Y0302066I0000000J-000984D01*
G01*
X0137795Y0299212D01*
G75*
G02*
X0136811Y0298227I-000984J0000000D01*
G01*
G37*
G36*
G01*
X0068957Y0261219D02*
X0065886Y0261219D01*
G75*
G02*
X0065610Y0261495I0000000J0000276D01*
G01*
X0065610Y0263700D01*
G75*
G02*
X0065886Y0263975I0000276J0000000D01*
G01*
X0068957Y0263975D01*
G75*
G02*
X0069232Y0263700I0000000J-000276D01*
G01*
X0069232Y0261495D01*
G75*
G02*
X0068957Y0261219I-000276J0000000D01*
G01*
G37*
G36*
G01*
X0068957Y0267519D02*
X0065886Y0267519D01*
G75*
G02*
X0065610Y0267794I0000000J0000276D01*
G01*
X0065610Y0269999D01*
G75*
G02*
X0065886Y0270275I0000276J0000000D01*
G01*
X0068957Y0270275D01*
G75*
G02*
X0069232Y0269999I0000000J-000276D01*
G01*
X0069232Y0267794D01*
G75*
G02*
X0068957Y0267519I-000276J0000000D01*
G01*
G37*
G36*
G01*
X0206181Y0305944D02*
X0206181Y0301928D01*
G75*
G02*
X0205827Y0301574I-000354J0000000D01*
G01*
X0202992Y0301574D01*
G75*
G02*
X0202638Y0301928I0000000J0000354D01*
G01*
X0202638Y0305944D01*
G75*
G02*
X0202992Y0306298I0000354J0000000D01*
G01*
X0205827Y0306298D01*
G75*
G02*
X0206181Y0305944I0000000J-000354D01*
G01*
G37*
G36*
G01*
X0193189Y0305944D02*
X0193189Y0301928D01*
G75*
G02*
X0192835Y0301574I-000354J0000000D01*
G01*
X0190000Y0301574D01*
G75*
G02*
X0189646Y0301928I0000000J0000354D01*
G01*
X0189646Y0305944D01*
G75*
G02*
X0190000Y0306298I0000354J0000000D01*
G01*
X0192835Y0306298D01*
G75*
G02*
X0193189Y0305944I0000000J-000354D01*
G01*
G37*
G36*
G01*
X0212154Y0247375D02*
X0214994Y0244535D01*
G75*
G02*
X0214994Y0244034I-000251J-000251D01*
G01*
X0212989Y0242030D01*
G75*
G02*
X0212488Y0242030I-000251J0000251D01*
G01*
X0209649Y0244869D01*
G75*
G02*
X0209649Y0245370I0000251J0000251D01*
G01*
X0211653Y0247375D01*
G75*
G02*
X0212154Y0247375I0000251J-000251D01*
G01*
G37*
G36*
G01*
X0202967Y0238188D02*
X0205807Y0235348D01*
G75*
G02*
X0205807Y0234847I-000251J-000251D01*
G01*
X0203803Y0232843D01*
G75*
G02*
X0203301Y0232843I-000251J0000251D01*
G01*
X0200462Y0235682D01*
G75*
G02*
X0200462Y0236183I0000251J0000251D01*
G01*
X0202466Y0238188D01*
G75*
G02*
X0202967Y0238188I0000251J-000251D01*
G01*
G37*
G36*
G01*
X0120531Y0269684D02*
X0117461Y0269684D01*
G75*
G02*
X0117185Y0269960I0000000J0000276D01*
G01*
X0117185Y0272164D01*
G75*
G02*
X0117461Y0272440I0000276J0000000D01*
G01*
X0120531Y0272440D01*
G75*
G02*
X0120807Y0272164I0000000J-000276D01*
G01*
X0120807Y0269960D01*
G75*
G02*
X0120531Y0269684I-000276J0000000D01*
G01*
G37*
G36*
G01*
X0120531Y0275983D02*
X0117461Y0275983D01*
G75*
G02*
X0117185Y0276259I0000000J0000276D01*
G01*
X0117185Y0278464D01*
G75*
G02*
X0117461Y0278739I0000276J0000000D01*
G01*
X0120531Y0278739D01*
G75*
G02*
X0120807Y0278464I0000000J-000276D01*
G01*
X0120807Y0276259D01*
G75*
G02*
X0120531Y0275983I-000276J0000000D01*
G01*
G37*
G36*
G01*
X0066339Y0271751D02*
X0055118Y0271751D01*
G75*
G02*
X0054134Y0272735I0000000J0000984D01*
G01*
X0054134Y0275590D01*
G75*
G02*
X0055118Y0276574I0000984J0000000D01*
G01*
X0066339Y0276574D01*
G75*
G02*
X0067323Y0275590I0000000J-000984D01*
G01*
X0067323Y0272735D01*
G75*
G02*
X0066339Y0271751I-000984J0000000D01*
G01*
G37*
G36*
G01*
X0066339Y0295078D02*
X0055118Y0295078D01*
G75*
G02*
X0054134Y0296062I0000000J0000984D01*
G01*
X0054134Y0298916D01*
G75*
G02*
X0055118Y0299901I0000984J0000000D01*
G01*
X0066339Y0299901D01*
G75*
G02*
X0067323Y0298916I0000000J-000984D01*
G01*
X0067323Y0296062D01*
G75*
G02*
X0066339Y0295078I-000984J0000000D01*
G01*
G37*
G36*
G01*
X0214272Y0268542D02*
X0214272Y0264527D01*
G75*
G02*
X0213917Y0264172I-000354J0000000D01*
G01*
X0211083Y0264172D01*
G75*
G02*
X0210728Y0264527I0000000J0000354D01*
G01*
X0210728Y0268542D01*
G75*
G02*
X0211083Y0268897I0000354J0000000D01*
G01*
X0213917Y0268897D01*
G75*
G02*
X0214272Y0268542I0000000J-000354D01*
G01*
G37*
G36*
G01*
X0201280Y0268542D02*
X0201280Y0264527D01*
G75*
G02*
X0200925Y0264172I-000354J0000000D01*
G01*
X0198091Y0264172D01*
G75*
G02*
X0197736Y0264527I0000000J0000354D01*
G01*
X0197736Y0268542D01*
G75*
G02*
X0198091Y0268897I0000354J0000000D01*
G01*
X0200925Y0268897D01*
G75*
G02*
X0201280Y0268542I0000000J-000354D01*
G01*
G37*
G36*
G01*
X0175276Y0258109D02*
X0175276Y0254093D01*
G75*
G02*
X0174921Y0253739I-000354J0000000D01*
G01*
X0172087Y0253739D01*
G75*
G02*
X0171732Y0254093I0000000J0000354D01*
G01*
X0171732Y0258109D01*
G75*
G02*
X0172087Y0258464I0000354J0000000D01*
G01*
X0174921Y0258464D01*
G75*
G02*
X0175276Y0258109I0000000J-000354D01*
G01*
G37*
G36*
G01*
X0162283Y0258109D02*
X0162283Y0254093D01*
G75*
G02*
X0161929Y0253739I-000354J0000000D01*
G01*
X0159094Y0253739D01*
G75*
G02*
X0158740Y0254093I0000000J0000354D01*
G01*
X0158740Y0258109D01*
G75*
G02*
X0159094Y0258464I0000354J0000000D01*
G01*
X0161929Y0258464D01*
G75*
G02*
X0162283Y0258109I0000000J-000354D01*
G01*
G37*
G36*
G01*
X0032146Y0260826D02*
X0029075Y0260826D01*
G75*
G02*
X0028799Y0261101I0000000J0000276D01*
G01*
X0028799Y0263306D01*
G75*
G02*
X0029075Y0263582I0000276J0000000D01*
G01*
X0032146Y0263582D01*
G75*
G02*
X0032421Y0263306I0000000J-000276D01*
G01*
X0032421Y0261101D01*
G75*
G02*
X0032146Y0260826I-000276J0000000D01*
G01*
G37*
G36*
G01*
X0032146Y0267125D02*
X0029075Y0267125D01*
G75*
G02*
X0028799Y0267401I0000000J0000276D01*
G01*
X0028799Y0269605D01*
G75*
G02*
X0029075Y0269881I0000276J0000000D01*
G01*
X0032146Y0269881D01*
G75*
G02*
X0032421Y0269605I0000000J-000276D01*
G01*
X0032421Y0267401D01*
G75*
G02*
X0032146Y0267125I-000276J0000000D01*
G01*
G37*
G36*
G01*
X0031102Y0270767D02*
X0019882Y0270767D01*
G75*
G02*
X0018898Y0271751I0000000J0000984D01*
G01*
X0018898Y0274605D01*
G75*
G02*
X0019882Y0275590I0000984J0000000D01*
G01*
X0031102Y0275590D01*
G75*
G02*
X0032087Y0274605I0000000J-000984D01*
G01*
X0032087Y0271751D01*
G75*
G02*
X0031102Y0270767I-000984J0000000D01*
G01*
G37*
G36*
G01*
X0031102Y0294093D02*
X0019882Y0294093D01*
G75*
G02*
X0018898Y0295078I0000000J0000984D01*
G01*
X0018898Y0297932D01*
G75*
G02*
X0019882Y0298916I0000984J0000000D01*
G01*
X0031102Y0298916D01*
G75*
G02*
X0032087Y0297932I0000000J-000984D01*
G01*
X0032087Y0295078D01*
G75*
G02*
X0031102Y0294093I-000984J0000000D01*
G01*
G37*
G36*
G01*
X0106752Y0262597D02*
X0103681Y0262597D01*
G75*
G02*
X0103406Y0262873I0000000J0000276D01*
G01*
X0103406Y0265078D01*
G75*
G02*
X0103681Y0265353I0000276J0000000D01*
G01*
X0106752Y0265353D01*
G75*
G02*
X0107028Y0265078I0000000J-000276D01*
G01*
X0107028Y0262873D01*
G75*
G02*
X0106752Y0262597I-000276J0000000D01*
G01*
G37*
G36*
G01*
X0106752Y0268897D02*
X0103681Y0268897D01*
G75*
G02*
X0103406Y0269172I0000000J0000276D01*
G01*
X0103406Y0271377D01*
G75*
G02*
X0103681Y0271653I0000276J0000000D01*
G01*
X0106752Y0271653D01*
G75*
G02*
X0107028Y0271377I0000000J-000276D01*
G01*
X0107028Y0269172D01*
G75*
G02*
X0106752Y0268897I-000276J0000000D01*
G01*
G37*
X0449803Y0141437D02*
G01*
G75*
D332*
X0526181Y0111522D02*
D03*
X0526181Y0124514D02*
D03*
D333*
X0526575Y0091662D02*
D03*
X0526575Y0103079D02*
D03*
X0518543Y0091662D02*
D03*
X0518543Y0103079D02*
D03*
D336*
X0504527Y0129035D02*
D03*
X0508464Y0129035D02*
D03*
X0519094Y0132382D02*
D03*
X0519094Y0123720D02*
D03*
X0513846Y0133169D02*
D03*
X0513846Y0124508D02*
D03*
D337*
X0461220Y0121282D02*
D03*
X0461220Y0124826D02*
D03*
X0497953Y0111891D02*
D03*
X0497953Y0108347D02*
D03*
X0513058Y0119888D02*
D03*
X0513058Y0116345D02*
D03*
X0461220Y0112664D02*
D03*
X0461220Y0116207D02*
D03*
X0465157Y0133169D02*
D03*
X0465157Y0129626D02*
D03*
D338*
X0514633Y0107684D02*
D03*
X0518177Y0107684D02*
D03*
X0527035Y0128451D02*
D03*
X0523491Y0128451D02*
D03*
X0468718Y0079687D02*
D03*
X0472262Y0079687D02*
D03*
D352*
X0506102Y0092224D02*
D03*
X0506102Y0103248D02*
D03*
D353*
X0501779Y0124902D02*
D03*
X0507999Y0124902D02*
D03*
X0501779Y0110808D02*
D03*
X0507999Y0110808D02*
D03*
X0501779Y0115499D02*
D03*
X0507999Y0115499D02*
D03*
X0501779Y0120191D02*
D03*
X0507999Y0120191D02*
D03*
X0514023Y0111989D02*
D03*
X0520244Y0111989D02*
D03*
D354*
X0465157Y0121479D02*
D03*
X0465157Y0125416D02*
D03*
X0465157Y0116798D02*
D03*
X0465157Y0112861D02*
D03*
X0519094Y0120085D02*
D03*
X0519094Y0116148D02*
D03*
X0497480Y0097152D02*
D03*
X0497480Y0093215D02*
D03*
X0460039Y0089376D02*
D03*
X0460039Y0093314D02*
D03*
D281*
X0471917Y0116365D02*
D03*
X0471917Y0121365D02*
D03*
X0471917Y0126365D02*
D03*
X0471917Y0131365D02*
D03*
X0494554Y0116365D02*
D03*
X0494554Y0121365D02*
D03*
X0494554Y0126365D02*
D03*
X0494554Y0131365D02*
D03*
X0466634Y0093298D02*
D03*
X0466634Y0098298D02*
D03*
X0466634Y0103298D02*
D03*
X0466634Y0108298D02*
D03*
X0490059Y0093298D02*
D03*
X0490059Y0098298D02*
D03*
X0490059Y0103298D02*
D03*
X0490059Y0108298D02*
D03*
D355*
X0483235Y0123865D02*
D03*
D356*
X0478346Y0100798D02*
D03*
X0625984Y0068602D02*
G01*
G75*
D280*
X0615748Y0096555D02*
D03*
X0615748Y0100492D02*
D03*
X0615748Y0085432D02*
D03*
X0615748Y0081495D02*
D03*
X0615748Y0077066D02*
D03*
X0615748Y0073129D02*
D03*
X0623031Y0096555D02*
D03*
X0623031Y0100492D02*
D03*
D263*
X0623228Y0093170D02*
D03*
X0619685Y0093170D02*
D03*
D279*
X0616515Y0089285D02*
D03*
X0622736Y0089285D02*
D03*
D262*
X0619685Y0076673D02*
D03*
X0619685Y0073130D02*
D03*
X0623228Y0085039D02*
D03*
X0623228Y0081496D02*
D03*
X0619627Y0099901D02*
D03*
X0619627Y0096358D02*
D03*
X0623228Y0073130D02*
D03*
X0623228Y0076673D02*
D03*
X0338780Y0261909D02*
%LPD*%
G01*
G36*
G01*
X0321851Y0231315D02*
X0321851Y0232496D01*
G75*
G02*
X0322441Y0233087I0000591J0000000D01*
G01*
X0326477Y0233087D01*
G75*
G02*
X0327067Y0232496I0000000J-000591D01*
G01*
X0327067Y0231315D01*
G75*
G02*
X0326477Y0230725I-000591J0000000D01*
G01*
X0322441Y0230725D01*
G75*
G02*
X0321851Y0231315I0000000J0000591D01*
G01*
G37*
G36*
G01*
X0321851Y0235056D02*
X0321851Y0236237D01*
G75*
G02*
X0322441Y0236827I0000591J0000000D01*
G01*
X0326477Y0236827D01*
G75*
G02*
X0327067Y0236237I0000000J-000591D01*
G01*
X0327067Y0235056D01*
G75*
G02*
X0326477Y0234465I-000591J0000000D01*
G01*
X0322441Y0234465D01*
G75*
G02*
X0321851Y0235056I0000000J0000591D01*
G01*
G37*
G36*
G01*
X0321851Y0238796D02*
X0321851Y0239977D01*
G75*
G02*
X0322441Y0240567I0000591J0000000D01*
G01*
X0326477Y0240567D01*
G75*
G02*
X0327067Y0239977I0000000J-000591D01*
G01*
X0327067Y0238796D01*
G75*
G02*
X0326477Y0238205I-000591J0000000D01*
G01*
X0322441Y0238205D01*
G75*
G02*
X0321851Y0238796I0000000J0000591D01*
G01*
G37*
G36*
G01*
X0330808Y0238796D02*
X0330808Y0239977D01*
G75*
G02*
X0331398Y0240567I0000591J0000000D01*
G01*
X0335434Y0240567D01*
G75*
G02*
X0336024Y0239977I0000000J-000591D01*
G01*
X0336024Y0238796D01*
G75*
G02*
X0335434Y0238205I-000591J0000000D01*
G01*
X0331398Y0238205D01*
G75*
G02*
X0330808Y0238796I0000000J0000591D01*
G01*
G37*
G36*
G01*
X0330808Y0231315D02*
X0330808Y0232496D01*
G75*
G02*
X0331398Y0233087I0000591J0000000D01*
G01*
X0335434Y0233087D01*
G75*
G02*
X0336024Y0232496I0000000J-000591D01*
G01*
X0336024Y0231315D01*
G75*
G02*
X0335434Y0230725I-000591J0000000D01*
G01*
X0331398Y0230725D01*
G75*
G02*
X0330808Y0231315I0000000J0000591D01*
G01*
G37*
G36*
G01*
X0322126Y0253602D02*
X0320788Y0253602D01*
G75*
G02*
X0320237Y0254153I0000000J0000551D01*
G01*
X0320237Y0255255D01*
G75*
G02*
X0320788Y0255807I0000551J0000000D01*
G01*
X0322126Y0255807D01*
G75*
G02*
X0322678Y0255255I0000000J-000551D01*
G01*
X0322678Y0254153D01*
G75*
G02*
X0322126Y0253602I-000551J0000000D01*
G01*
G37*
G36*
G01*
X0322126Y0257381D02*
X0320788Y0257381D01*
G75*
G02*
X0320237Y0257933I0000000J0000551D01*
G01*
X0320237Y0259035D01*
G75*
G02*
X0320788Y0259586I0000551J0000000D01*
G01*
X0322126Y0259586D01*
G75*
G02*
X0322678Y0259035I0000000J-000551D01*
G01*
X0322678Y0257933D01*
G75*
G02*
X0322126Y0257381I-000551J0000000D01*
G01*
G37*
G36*
G01*
X0295611Y0230885D02*
X0295611Y0229547D01*
G75*
G02*
X0295060Y0228996I-000551J0000000D01*
G01*
X0293957Y0228996D01*
G75*
G02*
X0293406Y0229547I0000000J0000551D01*
G01*
X0293406Y0230885D01*
G75*
G02*
X0293957Y0231437I0000551J0000000D01*
G01*
X0295060Y0231437D01*
G75*
G02*
X0295611Y0230885I0000000J-000551D01*
G01*
G37*
G36*
G01*
X0291831Y0230885D02*
X0291831Y0229547D01*
G75*
G02*
X0291280Y0228996I-000551J0000000D01*
G01*
X0290178Y0228996D01*
G75*
G02*
X0289626Y0229547I0000000J0000551D01*
G01*
X0289626Y0230885D01*
G75*
G02*
X0290178Y0231437I0000551J0000000D01*
G01*
X0291280Y0231437D01*
G75*
G02*
X0291831Y0230885I0000000J-000551D01*
G01*
G37*
G36*
G01*
X0282264Y0225885D02*
X0282264Y0227224D01*
G75*
G02*
X0282815Y0227775I0000551J0000000D01*
G01*
X0283918Y0227775D01*
G75*
G02*
X0284469Y0227224I0000000J-000551D01*
G01*
X0284469Y0225885D01*
G75*
G02*
X0283918Y0225334I-000551J0000000D01*
G01*
X0282815Y0225334D01*
G75*
G02*
X0282264Y0225885I0000000J0000551D01*
G01*
G37*
G36*
G01*
X0286044Y0225885D02*
X0286044Y0227224D01*
G75*
G02*
X0286595Y0227775I0000551J0000000D01*
G01*
X0287697Y0227775D01*
G75*
G02*
X0288249Y0227224I0000000J-000551D01*
G01*
X0288249Y0225885D01*
G75*
G02*
X0287697Y0225334I-000551J0000000D01*
G01*
X0286595Y0225334D01*
G75*
G02*
X0286044Y0225885I0000000J0000551D01*
G01*
G37*
G36*
G01*
X0304016Y0234626D02*
X0304016Y0233287D01*
G75*
G02*
X0303465Y0232736I-000551J0000000D01*
G01*
X0302363Y0232736D01*
G75*
G02*
X0301811Y0233287I0000000J0000551D01*
G01*
X0301811Y0234626D01*
G75*
G02*
X0302363Y0235177I0000551J0000000D01*
G01*
X0303465Y0235177D01*
G75*
G02*
X0304016Y0234626I0000000J-000551D01*
G01*
G37*
G36*
G01*
X0300237Y0234626D02*
X0300237Y0233287D01*
G75*
G02*
X0299686Y0232736I-000551J0000000D01*
G01*
X0298583Y0232736D01*
G75*
G02*
X0298032Y0233287I0000000J0000551D01*
G01*
X0298032Y0234626D01*
G75*
G02*
X0298583Y0235177I0000551J0000000D01*
G01*
X0299686Y0235177D01*
G75*
G02*
X0300237Y0234626I0000000J-000551D01*
G01*
G37*
G36*
G01*
X0282461Y0229547D02*
X0282461Y0230885D01*
G75*
G02*
X0283012Y0231437I0000551J0000000D01*
G01*
X0284115Y0231437D01*
G75*
G02*
X0284666Y0230885I0000000J-000551D01*
G01*
X0284666Y0229547D01*
G75*
G02*
X0284115Y0228996I-000551J0000000D01*
G01*
X0283012Y0228996D01*
G75*
G02*
X0282461Y0229547I0000000J0000551D01*
G01*
G37*
G36*
G01*
X0286241Y0229547D02*
X0286241Y0230885D01*
G75*
G02*
X0286792Y0231437I0000551J0000000D01*
G01*
X0287894Y0231437D01*
G75*
G02*
X0288445Y0230885I0000000J-000551D01*
G01*
X0288445Y0229547D01*
G75*
G02*
X0287894Y0228996I-000551J0000000D01*
G01*
X0286792Y0228996D01*
G75*
G02*
X0286241Y0229547I0000000J0000551D01*
G01*
G37*
G36*
G01*
X0287737Y0251063D02*
X0287737Y0249724D01*
G75*
G02*
X0287186Y0249173I-000551J0000000D01*
G01*
X0286083Y0249173D01*
G75*
G02*
X0285532Y0249724I0000000J0000551D01*
G01*
X0285532Y0251063D01*
G75*
G02*
X0286083Y0251614I0000551J0000000D01*
G01*
X0287186Y0251614D01*
G75*
G02*
X0287737Y0251063I0000000J-000551D01*
G01*
G37*
G36*
G01*
X0283957Y0251063D02*
X0283957Y0249724D01*
G75*
G02*
X0283406Y0249173I-000551J0000000D01*
G01*
X0282304Y0249173D01*
G75*
G02*
X0281752Y0249724I0000000J0000551D01*
G01*
X0281752Y0251063D01*
G75*
G02*
X0282304Y0251614I0000551J0000000D01*
G01*
X0283406Y0251614D01*
G75*
G02*
X0283957Y0251063I0000000J-000551D01*
G01*
G37*
G36*
G01*
X0318246Y0258563D02*
X0318246Y0257775D01*
G75*
G02*
X0317852Y0257381I-000394J0000000D01*
G01*
X0312832Y0257381D01*
G75*
G02*
X0312439Y0257775I0000000J0000394D01*
G01*
X0312439Y0258563D01*
G75*
G02*
X0312832Y0258956I0000394J0000000D01*
G01*
X0317852Y0258956D01*
G75*
G02*
X0318246Y0258563I0000000J-000394D01*
G01*
G37*
G36*
G01*
X0318246Y0256003D02*
X0318246Y0255216D01*
G75*
G02*
X0317852Y0254822I-000394J0000000D01*
G01*
X0312832Y0254822D01*
G75*
G02*
X0312439Y0255216I0000000J0000394D01*
G01*
X0312439Y0256003D01*
G75*
G02*
X0312832Y0256397I0000394J0000000D01*
G01*
X0317852Y0256397D01*
G75*
G02*
X0318246Y0256003I0000000J-000394D01*
G01*
G37*
G36*
G01*
X0318246Y0253444D02*
X0318246Y0252657D01*
G75*
G02*
X0317852Y0252263I-000394J0000000D01*
G01*
X0312832Y0252263D01*
G75*
G02*
X0312439Y0252657I0000000J0000394D01*
G01*
X0312439Y0253444D01*
G75*
G02*
X0312832Y0253838I0000394J0000000D01*
G01*
X0317852Y0253838D01*
G75*
G02*
X0318246Y0253444I0000000J-000394D01*
G01*
G37*
G36*
G01*
X0318246Y0250885D02*
X0318246Y0250098D01*
G75*
G02*
X0317852Y0249704I-000394J0000000D01*
G01*
X0312832Y0249704D01*
G75*
G02*
X0312439Y0250098I0000000J0000394D01*
G01*
X0312439Y0250885D01*
G75*
G02*
X0312832Y0251279I0000394J0000000D01*
G01*
X0317852Y0251279D01*
G75*
G02*
X0318246Y0250885I0000000J-000394D01*
G01*
G37*
G36*
G01*
X0318246Y0248326D02*
X0318246Y0247539D01*
G75*
G02*
X0317852Y0247145I-000394J0000000D01*
G01*
X0312832Y0247145D01*
G75*
G02*
X0312439Y0247539I0000000J0000394D01*
G01*
X0312439Y0248326D01*
G75*
G02*
X0312832Y0248720I0000394J0000000D01*
G01*
X0317852Y0248720D01*
G75*
G02*
X0318246Y0248326I0000000J-000394D01*
G01*
G37*
G36*
G01*
X0318246Y0245767D02*
X0318246Y0244980D01*
G75*
G02*
X0317852Y0244586I-000394J0000000D01*
G01*
X0312832Y0244586D01*
G75*
G02*
X0312439Y0244980I0000000J0000394D01*
G01*
X0312439Y0245767D01*
G75*
G02*
X0312832Y0246161I0000394J0000000D01*
G01*
X0317852Y0246161D01*
G75*
G02*
X0318246Y0245767I0000000J-000394D01*
G01*
G37*
G36*
G01*
X0318246Y0243208D02*
X0318246Y0242421D01*
G75*
G02*
X0317852Y0242027I-000394J0000000D01*
G01*
X0312832Y0242027D01*
G75*
G02*
X0312439Y0242421I0000000J0000394D01*
G01*
X0312439Y0243208D01*
G75*
G02*
X0312832Y0243602I0000394J0000000D01*
G01*
X0317852Y0243602D01*
G75*
G02*
X0318246Y0243208I0000000J-000394D01*
G01*
G37*
G36*
G01*
X0295706Y0243208D02*
X0295706Y0242421D01*
G75*
G02*
X0295313Y0242027I-000394J0000000D01*
G01*
X0290293Y0242027D01*
G75*
G02*
X0289899Y0242421I0000000J0000394D01*
G01*
X0289899Y0243208D01*
G75*
G02*
X0290293Y0243602I0000394J0000000D01*
G01*
X0295313Y0243602D01*
G75*
G02*
X0295706Y0243208I0000000J-000394D01*
G01*
G37*
G36*
G01*
X0295706Y0245767D02*
X0295706Y0244980D01*
G75*
G02*
X0295313Y0244586I-000394J0000000D01*
G01*
X0290293Y0244586D01*
G75*
G02*
X0289899Y0244980I0000000J0000394D01*
G01*
X0289899Y0245767D01*
G75*
G02*
X0290293Y0246161I0000394J0000000D01*
G01*
X0295313Y0246161D01*
G75*
G02*
X0295706Y0245767I0000000J-000394D01*
G01*
G37*
G36*
G01*
X0295706Y0248326D02*
X0295706Y0247539D01*
G75*
G02*
X0295313Y0247145I-000394J0000000D01*
G01*
X0290293Y0247145D01*
G75*
G02*
X0289899Y0247539I0000000J0000394D01*
G01*
X0289899Y0248326D01*
G75*
G02*
X0290293Y0248720I0000394J0000000D01*
G01*
X0295313Y0248720D01*
G75*
G02*
X0295706Y0248326I0000000J-000394D01*
G01*
G37*
G36*
G01*
X0295706Y0250885D02*
X0295706Y0250098D01*
G75*
G02*
X0295313Y0249704I-000394J0000000D01*
G01*
X0290293Y0249704D01*
G75*
G02*
X0289899Y0250098I0000000J0000394D01*
G01*
X0289899Y0250885D01*
G75*
G02*
X0290293Y0251279I0000394J0000000D01*
G01*
X0295313Y0251279D01*
G75*
G02*
X0295706Y0250885I0000000J-000394D01*
G01*
G37*
G36*
G01*
X0295706Y0253444D02*
X0295706Y0252657D01*
G75*
G02*
X0295313Y0252263I-000394J0000000D01*
G01*
X0290293Y0252263D01*
G75*
G02*
X0289899Y0252657I0000000J0000394D01*
G01*
X0289899Y0253444D01*
G75*
G02*
X0290293Y0253838I0000394J0000000D01*
G01*
X0295313Y0253838D01*
G75*
G02*
X0295706Y0253444I0000000J-000394D01*
G01*
G37*
G36*
G01*
X0295706Y0256003D02*
X0295706Y0255216D01*
G75*
G02*
X0295313Y0254822I-000394J0000000D01*
G01*
X0290293Y0254822D01*
G75*
G02*
X0289899Y0255216I0000000J0000394D01*
G01*
X0289899Y0256003D01*
G75*
G02*
X0290293Y0256397I0000394J0000000D01*
G01*
X0295313Y0256397D01*
G75*
G02*
X0295706Y0256003I0000000J-000394D01*
G01*
G37*
G36*
G01*
X0295706Y0258563D02*
X0295706Y0257775D01*
G75*
G02*
X0295313Y0257381I-000394J0000000D01*
G01*
X0290293Y0257381D01*
G75*
G02*
X0289899Y0257775I0000000J0000394D01*
G01*
X0289899Y0258563D01*
G75*
G02*
X0290293Y0258956I0000394J0000000D01*
G01*
X0295313Y0258956D01*
G75*
G02*
X0295706Y0258563I0000000J-000394D01*
G01*
G37*
G36*
G01*
X0335889Y0250692D02*
X0335889Y0247149D01*
G75*
G02*
X0334905Y0246165I-000984J0000000D01*
G01*
X0332838Y0246165D01*
G75*
G02*
X0331854Y0247149I0000000J0000984D01*
G01*
X0331854Y0250692D01*
G75*
G02*
X0332838Y0251677I0000984J0000000D01*
G01*
X0334905Y0251677D01*
G75*
G02*
X0335889Y0250692I0000000J-000984D01*
G01*
G37*
G36*
G01*
X0328704Y0250692D02*
X0328704Y0247149D01*
G75*
G02*
X0327720Y0246165I-000984J0000000D01*
G01*
X0325653Y0246165D01*
G75*
G02*
X0324669Y0247149I0000000J0000984D01*
G01*
X0324669Y0250692D01*
G75*
G02*
X0325653Y0251677I0000984J0000000D01*
G01*
X0327720Y0251677D01*
G75*
G02*
X0328704Y0250692I0000000J-000984D01*
G01*
G37*
G36*
G01*
X0289646Y0236968D02*
X0289646Y0238425D01*
G75*
G02*
X0290178Y0238956I0000531J0000000D01*
G01*
X0291241Y0238956D01*
G75*
G02*
X0291772Y0238425I0000000J-000531D01*
G01*
X0291772Y0236968D01*
G75*
G02*
X0291241Y0236437I-000531J0000000D01*
G01*
X0290178Y0236437D01*
G75*
G02*
X0289646Y0236968I0000000J0000531D01*
G01*
G37*
G36*
G01*
X0293662Y0236968D02*
X0293662Y0238425D01*
G75*
G02*
X0294193Y0238956I0000531J0000000D01*
G01*
X0295256Y0238956D01*
G75*
G02*
X0295788Y0238425I0000000J-000531D01*
G01*
X0295788Y0236968D01*
G75*
G02*
X0295256Y0236437I-000531J0000000D01*
G01*
X0294193Y0236437D01*
G75*
G02*
X0293662Y0236968I0000000J0000531D01*
G01*
G37*
G36*
G01*
X0330079Y0226043D02*
X0330079Y0227381D01*
G75*
G02*
X0330630Y0227933I0000551J0000000D01*
G01*
X0331733Y0227933D01*
G75*
G02*
X0332284Y0227381I0000000J-000551D01*
G01*
X0332284Y0226043D01*
G75*
G02*
X0331733Y0225492I-000551J0000000D01*
G01*
X0330630Y0225492D01*
G75*
G02*
X0330079Y0226043I0000000J0000551D01*
G01*
G37*
G36*
G01*
X0333859Y0226043D02*
X0333859Y0227381D01*
G75*
G02*
X0334410Y0227933I0000551J0000000D01*
G01*
X0335512Y0227933D01*
G75*
G02*
X0336063Y0227381I0000000J-000551D01*
G01*
X0336063Y0226043D01*
G75*
G02*
X0335512Y0225492I-000551J0000000D01*
G01*
X0334410Y0225492D01*
G75*
G02*
X0333859Y0226043I0000000J0000551D01*
G01*
G37*
G36*
G01*
X0281969Y0233228D02*
X0281969Y0234685D01*
G75*
G02*
X0282500Y0235216I0000531J0000000D01*
G01*
X0283563Y0235216D01*
G75*
G02*
X0284095Y0234685I0000000J-000531D01*
G01*
X0284095Y0233228D01*
G75*
G02*
X0283563Y0232696I-000531J0000000D01*
G01*
X0282500Y0232696D01*
G75*
G02*
X0281969Y0233228I0000000J0000531D01*
G01*
G37*
G36*
G01*
X0285985Y0233228D02*
X0285985Y0234685D01*
G75*
G02*
X0286516Y0235216I0000531J0000000D01*
G01*
X0287579Y0235216D01*
G75*
G02*
X0288111Y0234685I0000000J-000531D01*
G01*
X0288111Y0233228D01*
G75*
G02*
X0287579Y0232696I-000531J0000000D01*
G01*
X0286516Y0232696D01*
G75*
G02*
X0285985Y0233228I0000000J0000531D01*
G01*
G37*
G36*
G01*
X0297902Y0236968D02*
X0297902Y0238424D01*
G75*
G02*
X0298434Y0238956I0000531J0000000D01*
G01*
X0299497Y0238956D01*
G75*
G02*
X0300028Y0238424I0000000J-000531D01*
G01*
X0300028Y0236968D01*
G75*
G02*
X0299497Y0236436I-000531J0000000D01*
G01*
X0298434Y0236436D01*
G75*
G02*
X0297902Y0236968I0000000J0000531D01*
G01*
G37*
G36*
G01*
X0301918Y0236968D02*
X0301918Y0238424D01*
G75*
G02*
X0302450Y0238956I0000531J0000000D01*
G01*
X0303513Y0238956D01*
G75*
G02*
X0304044Y0238424I0000000J-000531D01*
G01*
X0304044Y0236968D01*
G75*
G02*
X0303513Y0236436I-000531J0000000D01*
G01*
X0302450Y0236436D01*
G75*
G02*
X0301918Y0236968I0000000J0000531D01*
G01*
G37*
G36*
G01*
X0324669Y0254724D02*
X0324669Y0258267D01*
G75*
G02*
X0325653Y0259252I0000984J0000000D01*
G01*
X0327720Y0259252D01*
G75*
G02*
X0328704Y0258267I0000000J-000984D01*
G01*
X0328704Y0254724D01*
G75*
G02*
X0327720Y0253740I-000984J0000000D01*
G01*
X0325653Y0253740D01*
G75*
G02*
X0324669Y0254724I0000000J0000984D01*
G01*
G37*
G36*
G01*
X0331854Y0254724D02*
X0331854Y0258267D01*
G75*
G02*
X0332838Y0259252I0000984J0000000D01*
G01*
X0334905Y0259252D01*
G75*
G02*
X0335889Y0258267I0000000J-000984D01*
G01*
X0335889Y0254724D01*
G75*
G02*
X0334905Y0253740I-000984J0000000D01*
G01*
X0332838Y0253740D01*
G75*
G02*
X0331854Y0254724I0000000J0000984D01*
G01*
G37*
G36*
G01*
X0297953Y0225826D02*
X0297953Y0227283D01*
G75*
G02*
X0298485Y0227815I0000531J0000000D01*
G01*
X0299548Y0227815D01*
G75*
G02*
X0300079Y0227283I0000000J-000531D01*
G01*
X0300079Y0225826D01*
G75*
G02*
X0299548Y0225295I-000531J0000000D01*
G01*
X0298485Y0225295D01*
G75*
G02*
X0297953Y0225826I0000000J0000531D01*
G01*
G37*
G36*
G01*
X0301969Y0225826D02*
X0301969Y0227283D01*
G75*
G02*
X0302500Y0227815I0000531J0000000D01*
G01*
X0303563Y0227815D01*
G75*
G02*
X0304095Y0227283I0000000J-000531D01*
G01*
X0304095Y0225826D01*
G75*
G02*
X0303563Y0225295I-000531J0000000D01*
G01*
X0302500Y0225295D01*
G75*
G02*
X0301969Y0225826I0000000J0000531D01*
G01*
G37*
G36*
G01*
X0288268Y0259330D02*
X0288268Y0257874D01*
G75*
G02*
X0287737Y0257342I-000531J0000000D01*
G01*
X0286674Y0257342D01*
G75*
G02*
X0286142Y0257874I0000000J0000531D01*
G01*
X0286142Y0259330D01*
G75*
G02*
X0286674Y0259862I0000531J0000000D01*
G01*
X0287737Y0259862D01*
G75*
G02*
X0288268Y0259330I0000000J-000531D01*
G01*
G37*
G36*
G01*
X0284252Y0259330D02*
X0284252Y0257874D01*
G75*
G02*
X0283721Y0257342I-000531J0000000D01*
G01*
X0282658Y0257342D01*
G75*
G02*
X0282126Y0257874I0000000J0000531D01*
G01*
X0282126Y0259330D01*
G75*
G02*
X0282658Y0259862I0000531J0000000D01*
G01*
X0283721Y0259862D01*
G75*
G02*
X0284252Y0259330I0000000J-000531D01*
G01*
G37*
G36*
G01*
X0287815Y0247381D02*
X0287815Y0245925D01*
G75*
G02*
X0287284Y0245393I-000531J0000000D01*
G01*
X0286221Y0245393D01*
G75*
G02*
X0285689Y0245925I0000000J0000531D01*
G01*
X0285689Y0247381D01*
G75*
G02*
X0286221Y0247913I0000531J0000000D01*
G01*
X0287284Y0247913D01*
G75*
G02*
X0287815Y0247381I0000000J-000531D01*
G01*
G37*
G36*
G01*
X0283800Y0247381D02*
X0283800Y0245925D01*
G75*
G02*
X0283268Y0245393I-000531J0000000D01*
G01*
X0282205Y0245393D01*
G75*
G02*
X0281674Y0245925I0000000J0000531D01*
G01*
X0281674Y0247381D01*
G75*
G02*
X0282205Y0247913I0000531J0000000D01*
G01*
X0283268Y0247913D01*
G75*
G02*
X0283800Y0247381I0000000J-000531D01*
G01*
G37*
G36*
G01*
X0289351Y0233228D02*
X0289351Y0234685D01*
G75*
G02*
X0289882Y0235216I0000531J0000000D01*
G01*
X0290945Y0235216D01*
G75*
G02*
X0291477Y0234685I0000000J-000531D01*
G01*
X0291477Y0233228D01*
G75*
G02*
X0290945Y0232696I-000531J0000000D01*
G01*
X0289882Y0232696D01*
G75*
G02*
X0289351Y0233228I0000000J0000531D01*
G01*
G37*
G36*
G01*
X0293367Y0233228D02*
X0293367Y0234685D01*
G75*
G02*
X0293898Y0235216I0000531J0000000D01*
G01*
X0294961Y0235216D01*
G75*
G02*
X0295493Y0234685I0000000J-000531D01*
G01*
X0295493Y0233228D01*
G75*
G02*
X0294961Y0232696I-000531J0000000D01*
G01*
X0293898Y0232696D01*
G75*
G02*
X0293367Y0233228I0000000J0000531D01*
G01*
G37*
G36*
G01*
X0281654Y0242145D02*
X0281654Y0243484D01*
G75*
G02*
X0282205Y0244035I0000551J0000000D01*
G01*
X0283308Y0244035D01*
G75*
G02*
X0283859Y0243484I0000000J-000551D01*
G01*
X0283859Y0242145D01*
G75*
G02*
X0283308Y0241594I-000551J0000000D01*
G01*
X0282205Y0241594D01*
G75*
G02*
X0281654Y0242145I0000000J0000551D01*
G01*
G37*
G36*
G01*
X0285434Y0242145D02*
X0285434Y0243484D01*
G75*
G02*
X0285985Y0244035I0000551J0000000D01*
G01*
X0287087Y0244035D01*
G75*
G02*
X0287638Y0243484I0000000J-000551D01*
G01*
X0287638Y0242145D01*
G75*
G02*
X0287087Y0241594I-000551J0000000D01*
G01*
X0285985Y0241594D01*
G75*
G02*
X0285434Y0242145I0000000J0000551D01*
G01*
G37*
G36*
G01*
X0320802Y0252360D02*
X0322140Y0252360D01*
G75*
G02*
X0322692Y0251809I0000000J-000551D01*
G01*
X0322692Y0250707D01*
G75*
G02*
X0322140Y0250155I-000551J0000000D01*
G01*
X0320802Y0250155D01*
G75*
G02*
X0320251Y0250707I0000000J0000551D01*
G01*
X0320251Y0251809D01*
G75*
G02*
X0320802Y0252360I0000551J0000000D01*
G01*
G37*
G36*
G01*
X0320802Y0248581D02*
X0322140Y0248581D01*
G75*
G02*
X0322692Y0248030I0000000J-000551D01*
G01*
X0322692Y0246927D01*
G75*
G02*
X0322140Y0246376I-000551J0000000D01*
G01*
X0320802Y0246376D01*
G75*
G02*
X0320251Y0246927I0000000J0000551D01*
G01*
X0320251Y0248030D01*
G75*
G02*
X0320802Y0248581I0000551J0000000D01*
G01*
G37*
G36*
G01*
X0288308Y0238425D02*
X0288308Y0236968D01*
G75*
G02*
X0287776Y0236437I-000531J0000000D01*
G01*
X0286713Y0236437D01*
G75*
G02*
X0286182Y0236968I0000000J0000531D01*
G01*
X0286182Y0238425D01*
G75*
G02*
X0286713Y0238956I0000531J0000000D01*
G01*
X0287776Y0238956D01*
G75*
G02*
X0288308Y0238425I0000000J-000531D01*
G01*
G37*
G36*
G01*
X0284292Y0238425D02*
X0284292Y0236968D01*
G75*
G02*
X0283760Y0236437I-000531J0000000D01*
G01*
X0282697Y0236437D01*
G75*
G02*
X0282166Y0236968I0000000J0000531D01*
G01*
X0282166Y0238425D01*
G75*
G02*
X0282697Y0238956I0000531J0000000D01*
G01*
X0283760Y0238956D01*
G75*
G02*
X0284292Y0238425I0000000J-000531D01*
G01*
G37*
G36*
G01*
X0305709Y0227066D02*
X0305709Y0228248D01*
G75*
G02*
X0306300Y0228838I0000591J0000000D01*
G01*
X0310335Y0228838D01*
G75*
G02*
X0310926Y0228248I0000000J-000591D01*
G01*
X0310926Y0227066D01*
G75*
G02*
X0310335Y0226476I-000591J0000000D01*
G01*
X0306300Y0226476D01*
G75*
G02*
X0305709Y0227066I0000000J0000591D01*
G01*
G37*
G36*
G01*
X0305709Y0230807D02*
X0305709Y0231988D01*
G75*
G02*
X0306300Y0232578I0000591J0000000D01*
G01*
X0310335Y0232578D01*
G75*
G02*
X0310926Y0231988I0000000J-000591D01*
G01*
X0310926Y0230807D01*
G75*
G02*
X0310335Y0230216I-000591J0000000D01*
G01*
X0306300Y0230216D01*
G75*
G02*
X0305709Y0230807I0000000J0000591D01*
G01*
G37*
G36*
G01*
X0305709Y0234547D02*
X0305709Y0235728D01*
G75*
G02*
X0306300Y0236318I0000591J0000000D01*
G01*
X0310335Y0236318D01*
G75*
G02*
X0310926Y0235728I0000000J-000591D01*
G01*
X0310926Y0234547D01*
G75*
G02*
X0310335Y0233956I-000591J0000000D01*
G01*
X0306300Y0233956D01*
G75*
G02*
X0305709Y0234547I0000000J0000591D01*
G01*
G37*
G36*
G01*
X0314666Y0234547D02*
X0314666Y0235728D01*
G75*
G02*
X0315256Y0236318I0000591J0000000D01*
G01*
X0319292Y0236318D01*
G75*
G02*
X0319882Y0235728I0000000J-000591D01*
G01*
X0319882Y0234547D01*
G75*
G02*
X0319292Y0233956I-000591J0000000D01*
G01*
X0315256Y0233956D01*
G75*
G02*
X0314666Y0234547I0000000J0000591D01*
G01*
G37*
G36*
G01*
X0314666Y0227066D02*
X0314666Y0228248D01*
G75*
G02*
X0315256Y0228838I0000591J0000000D01*
G01*
X0319292Y0228838D01*
G75*
G02*
X0319882Y0228248I0000000J-000591D01*
G01*
X0319882Y0227066D01*
G75*
G02*
X0319292Y0226476I-000591J0000000D01*
G01*
X0315256Y0226476D01*
G75*
G02*
X0314666Y0227066I0000000J0000591D01*
G01*
G37*
G36*
G01*
X0304016Y0230885D02*
X0304016Y0229547D01*
G75*
G02*
X0303465Y0228996I-000551J0000000D01*
G01*
X0302363Y0228996D01*
G75*
G02*
X0301811Y0229547I0000000J0000551D01*
G01*
X0301811Y0230885D01*
G75*
G02*
X0302363Y0231437I0000551J0000000D01*
G01*
X0303465Y0231437D01*
G75*
G02*
X0304016Y0230885I0000000J-000551D01*
G01*
G37*
G36*
G01*
X0300237Y0230885D02*
X0300237Y0229547D01*
G75*
G02*
X0299686Y0228996I-000551J0000000D01*
G01*
X0298583Y0228996D01*
G75*
G02*
X0298032Y0229547I0000000J0000551D01*
G01*
X0298032Y0230885D01*
G75*
G02*
X0298583Y0231437I0000551J0000000D01*
G01*
X0299686Y0231437D01*
G75*
G02*
X0300237Y0230885I0000000J-000551D01*
G01*
G37*
X0547638Y0218799D02*
%LPD*%
G01*
X0080413Y0161220D02*
%LPD*%
G01*
G36*
G01*
X0087772Y0081515D02*
X0089130Y0081515D01*
G75*
G02*
X0089711Y0080935I0000000J-000581D01*
G01*
X0089711Y0079773D01*
G75*
G02*
X0089130Y0079192I-000581J0000000D01*
G01*
X0087772Y0079192D01*
G75*
G02*
X0087191Y0079773I0000000J0000581D01*
G01*
X0087191Y0080935D01*
G75*
G02*
X0087772Y0081515I0000581J0000000D01*
G01*
G37*
G36*
G01*
X0087772Y0077696D02*
X0089130Y0077696D01*
G75*
G02*
X0089711Y0077116I0000000J-000581D01*
G01*
X0089711Y0075954D01*
G75*
G02*
X0089130Y0075374I-000581J0000000D01*
G01*
X0087772Y0075374D01*
G75*
G02*
X0087191Y0075954I0000000J0000581D01*
G01*
X0087191Y0077116D01*
G75*
G02*
X0087772Y0077696I0000581J0000000D01*
G01*
G37*
G36*
G01*
X0103061Y0067047D02*
X0104419Y0067047D01*
G75*
G02*
X0105000Y0066466I0000000J-000581D01*
G01*
X0105000Y0065305D01*
G75*
G02*
X0104419Y0064724I-000581J0000000D01*
G01*
X0103061Y0064724D01*
G75*
G02*
X0102480Y0065305I0000000J0000581D01*
G01*
X0102480Y0066466D01*
G75*
G02*
X0103061Y0067047I0000581J0000000D01*
G01*
G37*
G36*
G01*
X0103061Y0063228D02*
X0104419Y0063228D01*
G75*
G02*
X0105000Y0062647I0000000J-000581D01*
G01*
X0105000Y0061486D01*
G75*
G02*
X0104419Y0060905I-000581J0000000D01*
G01*
X0103061Y0060905D01*
G75*
G02*
X0102480Y0061486I0000000J0000581D01*
G01*
X0102480Y0062647D01*
G75*
G02*
X0103061Y0063228I0000581J0000000D01*
G01*
G37*
G36*
G01*
X0129257Y0116929D02*
X0127239Y0116929D01*
G75*
G02*
X0126378Y0117790I0000000J0000861D01*
G01*
X0126378Y0119512D01*
G75*
G02*
X0127239Y0120374I0000861J0000000D01*
G01*
X0129257Y0120374D01*
G75*
G02*
X0130118Y0119512I0000000J-000861D01*
G01*
X0130118Y0117790D01*
G75*
G02*
X0129257Y0116929I-000861J0000000D01*
G01*
G37*
G36*
G01*
X0129257Y0123129D02*
X0127239Y0123129D01*
G75*
G02*
X0126378Y0123991I0000000J0000861D01*
G01*
X0126378Y0125713D01*
G75*
G02*
X0127239Y0126574I0000861J0000000D01*
G01*
X0129257Y0126574D01*
G75*
G02*
X0130118Y0125713I0000000J-000861D01*
G01*
X0130118Y0123991D01*
G75*
G02*
X0129257Y0123129I-000861J0000000D01*
G01*
G37*
G36*
G01*
X0084931Y0075374D02*
X0083572Y0075374D01*
G75*
G02*
X0082992Y0075954I0000000J0000581D01*
G01*
X0082992Y0077116D01*
G75*
G02*
X0083572Y0077696I0000581J0000000D01*
G01*
X0084931Y0077696D01*
G75*
G02*
X0085511Y0077116I0000000J-000581D01*
G01*
X0085511Y0075954D01*
G75*
G02*
X0084931Y0075374I-000581J0000000D01*
G01*
G37*
G36*
G01*
X0084931Y0079192D02*
X0083572Y0079192D01*
G75*
G02*
X0082992Y0079773I0000000J0000581D01*
G01*
X0082992Y0080935D01*
G75*
G02*
X0083572Y0081515I0000581J0000000D01*
G01*
X0084931Y0081515D01*
G75*
G02*
X0085511Y0080935I0000000J-000581D01*
G01*
X0085511Y0079773D01*
G75*
G02*
X0084931Y0079192I-000581J0000000D01*
G01*
G37*
G36*
G01*
X0123927Y0135075D02*
X0125285Y0135075D01*
G75*
G02*
X0125866Y0134495I0000000J-000581D01*
G01*
X0125866Y0133333D01*
G75*
G02*
X0125285Y0132753I-000581J0000000D01*
G01*
X0123927Y0132753D01*
G75*
G02*
X0123346Y0133333I0000000J0000581D01*
G01*
X0123346Y0134495D01*
G75*
G02*
X0123927Y0135075I0000581J0000000D01*
G01*
G37*
G36*
G01*
X0123927Y0131257D02*
X0125285Y0131257D01*
G75*
G02*
X0125866Y0130676I0000000J-000581D01*
G01*
X0125866Y0129514D01*
G75*
G02*
X0125285Y0128934I-000581J0000000D01*
G01*
X0123927Y0128934D01*
G75*
G02*
X0123346Y0129514I0000000J0000581D01*
G01*
X0123346Y0130676D01*
G75*
G02*
X0123927Y0131257I0000581J0000000D01*
G01*
G37*
G36*
G01*
X0122057Y0126988D02*
X0123415Y0126988D01*
G75*
G02*
X0123996Y0126407I0000000J-000581D01*
G01*
X0123996Y0125246D01*
G75*
G02*
X0123415Y0124665I-000581J0000000D01*
G01*
X0122057Y0124665D01*
G75*
G02*
X0121476Y0125246I0000000J0000581D01*
G01*
X0121476Y0126407D01*
G75*
G02*
X0122057Y0126988I0000581J0000000D01*
G01*
G37*
G36*
G01*
X0122057Y0123169D02*
X0123415Y0123169D01*
G75*
G02*
X0123996Y0122588I0000000J-000581D01*
G01*
X0123996Y0121427D01*
G75*
G02*
X0123415Y0120846I-000581J0000000D01*
G01*
X0122057Y0120846D01*
G75*
G02*
X0121476Y0121427I0000000J0000581D01*
G01*
X0121476Y0122588D01*
G75*
G02*
X0122057Y0123169I0000581J0000000D01*
G01*
G37*
G36*
G01*
X0129389Y0155600D02*
X0129389Y0154242D01*
G75*
G02*
X0128809Y0153661I-000581J0000000D01*
G01*
X0127647Y0153661D01*
G75*
G02*
X0127067Y0154242I0000000J0000581D01*
G01*
X0127067Y0155600D01*
G75*
G02*
X0127647Y0156181I0000581J0000000D01*
G01*
X0128809Y0156181D01*
G75*
G02*
X0129389Y0155600I0000000J-000581D01*
G01*
G37*
G36*
G01*
X0125570Y0155600D02*
X0125570Y0154242D01*
G75*
G02*
X0124990Y0153661I-000581J0000000D01*
G01*
X0123828Y0153661D01*
G75*
G02*
X0123248Y0154242I0000000J0000581D01*
G01*
X0123248Y0155600D01*
G75*
G02*
X0123828Y0156181I0000581J0000000D01*
G01*
X0124990Y0156181D01*
G75*
G02*
X0125570Y0155600I0000000J-000581D01*
G01*
G37*
G36*
G01*
X0111801Y0106082D02*
X0110443Y0106082D01*
G75*
G02*
X0109862Y0106663I0000000J0000581D01*
G01*
X0109862Y0107824D01*
G75*
G02*
X0110443Y0108405I0000581J0000000D01*
G01*
X0111801Y0108405D01*
G75*
G02*
X0112382Y0107824I0000000J-000581D01*
G01*
X0112382Y0106663D01*
G75*
G02*
X0111801Y0106082I-000581J0000000D01*
G01*
G37*
G36*
G01*
X0111801Y0109901D02*
X0110443Y0109901D01*
G75*
G02*
X0109862Y0110482I0000000J0000581D01*
G01*
X0109862Y0111643D01*
G75*
G02*
X0110443Y0112224I0000581J0000000D01*
G01*
X0111801Y0112224D01*
G75*
G02*
X0112382Y0111643I0000000J-000581D01*
G01*
X0112382Y0110482D01*
G75*
G02*
X0111801Y0109901I-000581J0000000D01*
G01*
G37*
G36*
G01*
X0106506Y0112224D02*
X0107864Y0112224D01*
G75*
G02*
X0108444Y0111643I0000000J-000581D01*
G01*
X0108444Y0110482D01*
G75*
G02*
X0107864Y0109901I-000581J0000000D01*
G01*
X0106506Y0109901D01*
G75*
G02*
X0105925Y0110482I0000000J0000581D01*
G01*
X0105925Y0111643D01*
G75*
G02*
X0106506Y0112224I0000581J0000000D01*
G01*
G37*
G36*
G01*
X0106506Y0108405D02*
X0107864Y0108405D01*
G75*
G02*
X0108444Y0107824I0000000J-000581D01*
G01*
X0108444Y0106663D01*
G75*
G02*
X0107864Y0106082I-000581J0000000D01*
G01*
X0106506Y0106082D01*
G75*
G02*
X0105925Y0106663I0000000J0000581D01*
G01*
X0105925Y0107824D01*
G75*
G02*
X0106506Y0108405I0000581J0000000D01*
G01*
G37*
G36*
G01*
X0108946Y0064744D02*
X0107588Y0064744D01*
G75*
G02*
X0107007Y0065324I0000000J0000581D01*
G01*
X0107007Y0066486D01*
G75*
G02*
X0107588Y0067066I0000581J0000000D01*
G01*
X0108946Y0067066D01*
G75*
G02*
X0109527Y0066486I0000000J-000581D01*
G01*
X0109527Y0065324D01*
G75*
G02*
X0108946Y0064744I-000581J0000000D01*
G01*
G37*
G36*
G01*
X0108946Y0068563D02*
X0107588Y0068563D01*
G75*
G02*
X0107007Y0069143I0000000J0000581D01*
G01*
X0107007Y0070305D01*
G75*
G02*
X0107588Y0070885I0000581J0000000D01*
G01*
X0108946Y0070885D01*
G75*
G02*
X0109527Y0070305I0000000J-000581D01*
G01*
X0109527Y0069143D01*
G75*
G02*
X0108946Y0068563I-000581J0000000D01*
G01*
G37*
D373*
X0085531Y0119094D03*
X0088090Y0119094D03*
X0090649Y0119094D03*
X0093208Y0119094D03*
X0095767Y0119094D03*
X0098326Y0119094D03*
X0100885Y0119094D03*
X0100885Y0095866D03*
X0098326Y0095866D03*
X0095767Y0095866D03*
X0093208Y0095866D03*
X0090649Y0095866D03*
X0088090Y0095866D03*
X0085531Y0095866D03*
G36*
G01*
X0129025Y0128917D02*
X0127667Y0128917D01*
G75*
G02*
X0127086Y0129498I0000000J0000581D01*
G01*
X0127086Y0130659D01*
G75*
G02*
X0127667Y0131240I0000581J0000000D01*
G01*
X0129025Y0131240D01*
G75*
G02*
X0129606Y0130659I0000000J-000581D01*
G01*
X0129606Y0129498D01*
G75*
G02*
X0129025Y0128917I-000581J0000000D01*
G01*
G37*
G36*
G01*
X0129025Y0132736D02*
X0127667Y0132736D01*
G75*
G02*
X0127086Y0133316I0000000J0000581D01*
G01*
X0127086Y0134478D01*
G75*
G02*
X0127667Y0135059I0000581J0000000D01*
G01*
X0129025Y0135059D01*
G75*
G02*
X0129606Y0134478I0000000J-000581D01*
G01*
X0129606Y0133316D01*
G75*
G02*
X0129025Y0132736I-000581J0000000D01*
G01*
G37*
G36*
G01*
X0131407Y0135059D02*
X0132765Y0135059D01*
G75*
G02*
X0133346Y0134478I0000000J-000581D01*
G01*
X0133346Y0133316D01*
G75*
G02*
X0132765Y0132736I-000581J0000000D01*
G01*
X0131407Y0132736D01*
G75*
G02*
X0130826Y0133316I0000000J0000581D01*
G01*
X0130826Y0134478D01*
G75*
G02*
X0131407Y0135059I0000581J0000000D01*
G01*
G37*
G36*
G01*
X0131407Y0131240D02*
X0132765Y0131240D01*
G75*
G02*
X0133346Y0130659I0000000J-000581D01*
G01*
X0133346Y0129498D01*
G75*
G02*
X0132765Y0128917I-000581J0000000D01*
G01*
X0131407Y0128917D01*
G75*
G02*
X0130826Y0129498I0000000J0000581D01*
G01*
X0130826Y0130659D01*
G75*
G02*
X0131407Y0131240I0000581J0000000D01*
G01*
G37*
G36*
G01*
X0121958Y0074822D02*
X0123317Y0074822D01*
G75*
G02*
X0123897Y0074242I0000000J-000581D01*
G01*
X0123897Y0073080D01*
G75*
G02*
X0123317Y0072500I-000581J0000000D01*
G01*
X0121958Y0072500D01*
G75*
G02*
X0121378Y0073080I0000000J0000581D01*
G01*
X0121378Y0074242D01*
G75*
G02*
X0121958Y0074822I0000581J0000000D01*
G01*
G37*
G36*
G01*
X0121958Y0071003D02*
X0123317Y0071003D01*
G75*
G02*
X0123897Y0070423I0000000J-000581D01*
G01*
X0123897Y0069261D01*
G75*
G02*
X0123317Y0068681I-000581J0000000D01*
G01*
X0121958Y0068681D01*
G75*
G02*
X0121378Y0069261I0000000J0000581D01*
G01*
X0121378Y0070423D01*
G75*
G02*
X0121958Y0071003I0000581J0000000D01*
G01*
G37*
G36*
G01*
X0092660Y0081515D02*
X0094019Y0081515D01*
G75*
G02*
X0094599Y0080935I0000000J-000581D01*
G01*
X0094599Y0079773D01*
G75*
G02*
X0094019Y0079192I-000581J0000000D01*
G01*
X0092660Y0079192D01*
G75*
G02*
X0092080Y0079773I0000000J0000581D01*
G01*
X0092080Y0080935D01*
G75*
G02*
X0092660Y0081515I0000581J0000000D01*
G01*
G37*
G36*
G01*
X0092660Y0077696D02*
X0094019Y0077696D01*
G75*
G02*
X0094599Y0077116I0000000J-000581D01*
G01*
X0094599Y0075954D01*
G75*
G02*
X0094019Y0075374I-000581J0000000D01*
G01*
X0092660Y0075374D01*
G75*
G02*
X0092080Y0075954I0000000J0000581D01*
G01*
X0092080Y0077116D01*
G75*
G02*
X0092660Y0077696I0000581J0000000D01*
G01*
G37*
G36*
G01*
X0115738Y0109330D02*
X0114380Y0109330D01*
G75*
G02*
X0113799Y0109911I0000000J0000581D01*
G01*
X0113799Y0111072D01*
G75*
G02*
X0114380Y0111653I0000581J0000000D01*
G01*
X0115738Y0111653D01*
G75*
G02*
X0116319Y0111072I0000000J-000581D01*
G01*
X0116319Y0109911D01*
G75*
G02*
X0115738Y0109330I-000581J0000000D01*
G01*
G37*
G36*
G01*
X0115738Y0113149D02*
X0114380Y0113149D01*
G75*
G02*
X0113799Y0113730I0000000J0000581D01*
G01*
X0113799Y0114891D01*
G75*
G02*
X0114380Y0115472I0000581J0000000D01*
G01*
X0115738Y0115472D01*
G75*
G02*
X0116319Y0114891I0000000J-000581D01*
G01*
X0116319Y0113730D01*
G75*
G02*
X0115738Y0113149I-000581J0000000D01*
G01*
G37*
G36*
G01*
X0123317Y0061003D02*
X0121958Y0061003D01*
G75*
G02*
X0121378Y0061584I0000000J0000581D01*
G01*
X0121378Y0062746D01*
G75*
G02*
X0121958Y0063326I0000581J0000000D01*
G01*
X0123317Y0063326D01*
G75*
G02*
X0123897Y0062746I0000000J-000581D01*
G01*
X0123897Y0061584D01*
G75*
G02*
X0123317Y0061003I-000581J0000000D01*
G01*
G37*
G36*
G01*
X0123317Y0064822D02*
X0121958Y0064822D01*
G75*
G02*
X0121378Y0065403I0000000J0000581D01*
G01*
X0121378Y0066564D01*
G75*
G02*
X0121958Y0067145I0000581J0000000D01*
G01*
X0123317Y0067145D01*
G75*
G02*
X0123897Y0066564I0000000J-000581D01*
G01*
X0123897Y0065403D01*
G75*
G02*
X0123317Y0064822I-000581J0000000D01*
G01*
G37*
G36*
G01*
X0107864Y0113464D02*
X0106506Y0113464D01*
G75*
G02*
X0105925Y0114045I0000000J0000581D01*
G01*
X0105925Y0115206D01*
G75*
G02*
X0106506Y0115787I0000581J0000000D01*
G01*
X0107864Y0115787D01*
G75*
G02*
X0108444Y0115206I0000000J-000581D01*
G01*
X0108444Y0114045D01*
G75*
G02*
X0107864Y0113464I-000581J0000000D01*
G01*
G37*
G36*
G01*
X0107864Y0117283D02*
X0106506Y0117283D01*
G75*
G02*
X0105925Y0117864I0000000J0000581D01*
G01*
X0105925Y0119025D01*
G75*
G02*
X0106506Y0119606I0000581J0000000D01*
G01*
X0107864Y0119606D01*
G75*
G02*
X0108444Y0119025I0000000J-000581D01*
G01*
X0108444Y0117864D01*
G75*
G02*
X0107864Y0117283I-000581J0000000D01*
G01*
G37*
G36*
G01*
X0083248Y0124714D02*
X0083248Y0126072D01*
G75*
G02*
X0083828Y0126653I0000581J0000000D01*
G01*
X0084990Y0126653D01*
G75*
G02*
X0085570Y0126072I0000000J-000581D01*
G01*
X0085570Y0124714D01*
G75*
G02*
X0084990Y0124133I-000581J0000000D01*
G01*
X0083828Y0124133D01*
G75*
G02*
X0083248Y0124714I0000000J0000581D01*
G01*
G37*
G36*
G01*
X0087067Y0124714D02*
X0087067Y0126072D01*
G75*
G02*
X0087647Y0126653I0000581J0000000D01*
G01*
X0088809Y0126653D01*
G75*
G02*
X0089389Y0126072I0000000J-000581D01*
G01*
X0089389Y0124714D01*
G75*
G02*
X0088809Y0124133I-000581J0000000D01*
G01*
X0087647Y0124133D01*
G75*
G02*
X0087067Y0124714I0000000J0000581D01*
G01*
G37*
G36*
G01*
X0111801Y0098602D02*
X0110443Y0098602D01*
G75*
G02*
X0109862Y0099183I0000000J0000581D01*
G01*
X0109862Y0100344D01*
G75*
G02*
X0110443Y0100925I0000581J0000000D01*
G01*
X0111801Y0100925D01*
G75*
G02*
X0112382Y0100344I0000000J-000581D01*
G01*
X0112382Y0099183D01*
G75*
G02*
X0111801Y0098602I-000581J0000000D01*
G01*
G37*
G36*
G01*
X0111801Y0102421D02*
X0110443Y0102421D01*
G75*
G02*
X0109862Y0103001I0000000J0000581D01*
G01*
X0109862Y0104163D01*
G75*
G02*
X0110443Y0104744I0000581J0000000D01*
G01*
X0111801Y0104744D01*
G75*
G02*
X0112382Y0104163I0000000J-000581D01*
G01*
X0112382Y0103001D01*
G75*
G02*
X0111801Y0102421I-000581J0000000D01*
G01*
G37*
G36*
G01*
X0110443Y0097263D02*
X0111801Y0097263D01*
G75*
G02*
X0112382Y0096683I0000000J-000581D01*
G01*
X0112382Y0095521D01*
G75*
G02*
X0111801Y0094940I-000581J0000000D01*
G01*
X0110443Y0094940D01*
G75*
G02*
X0109862Y0095521I0000000J0000581D01*
G01*
X0109862Y0096683D01*
G75*
G02*
X0110443Y0097263I0000581J0000000D01*
G01*
G37*
G36*
G01*
X0110443Y0093444D02*
X0111801Y0093444D01*
G75*
G02*
X0112382Y0092864I0000000J-000581D01*
G01*
X0112382Y0091702D01*
G75*
G02*
X0111801Y0091122I-000581J0000000D01*
G01*
X0110443Y0091122D01*
G75*
G02*
X0109862Y0091702I0000000J0000581D01*
G01*
X0109862Y0092864D01*
G75*
G02*
X0110443Y0093444I0000581J0000000D01*
G01*
G37*
G36*
G01*
X0083248Y0128454D02*
X0083248Y0129813D01*
G75*
G02*
X0083828Y0130393I0000581J0000000D01*
G01*
X0084990Y0130393D01*
G75*
G02*
X0085570Y0129813I0000000J-000581D01*
G01*
X0085570Y0128454D01*
G75*
G02*
X0084990Y0127874I-000581J0000000D01*
G01*
X0083828Y0127874D01*
G75*
G02*
X0083248Y0128454I0000000J0000581D01*
G01*
G37*
G36*
G01*
X0087067Y0128454D02*
X0087067Y0129813D01*
G75*
G02*
X0087647Y0130393I0000581J0000000D01*
G01*
X0088809Y0130393D01*
G75*
G02*
X0089389Y0129813I0000000J-000581D01*
G01*
X0089389Y0128454D01*
G75*
G02*
X0088809Y0127874I-000581J0000000D01*
G01*
X0087647Y0127874D01*
G75*
G02*
X0087067Y0128454I0000000J0000581D01*
G01*
G37*
D374*
X0132086Y0139133D03*
X0128346Y0139133D03*
X0124606Y0139133D03*
X0124606Y0149448D03*
X0132086Y0149448D03*
G36*
G01*
X0114380Y0104645D02*
X0115738Y0104645D01*
G75*
G02*
X0116319Y0104064I0000000J-000581D01*
G01*
X0116319Y0102903D01*
G75*
G02*
X0115738Y0102322I-000581J0000000D01*
G01*
X0114380Y0102322D01*
G75*
G02*
X0113799Y0102903I0000000J0000581D01*
G01*
X0113799Y0104064D01*
G75*
G02*
X0114380Y0104645I0000581J0000000D01*
G01*
G37*
G36*
G01*
X0114380Y0100826D02*
X0115738Y0100826D01*
G75*
G02*
X0116319Y0100246I0000000J-000581D01*
G01*
X0116319Y0099084D01*
G75*
G02*
X0115738Y0098503I-000581J0000000D01*
G01*
X0114380Y0098503D01*
G75*
G02*
X0113799Y0099084I0000000J0000581D01*
G01*
X0113799Y0100246D01*
G75*
G02*
X0114380Y0100826I0000581J0000000D01*
G01*
G37*
G36*
G01*
X0118484Y0117234D02*
X0118484Y0118592D01*
G75*
G02*
X0119065Y0119173I0000581J0000000D01*
G01*
X0120226Y0119173D01*
G75*
G02*
X0120807Y0118592I0000000J-000581D01*
G01*
X0120807Y0117234D01*
G75*
G02*
X0120226Y0116653I-000581J0000000D01*
G01*
X0119065Y0116653D01*
G75*
G02*
X0118484Y0117234I0000000J0000581D01*
G01*
G37*
G36*
G01*
X0122303Y0117234D02*
X0122303Y0118592D01*
G75*
G02*
X0122883Y0119173I0000581J0000000D01*
G01*
X0124045Y0119173D01*
G75*
G02*
X0124626Y0118592I0000000J-000581D01*
G01*
X0124626Y0117234D01*
G75*
G02*
X0124045Y0116653I-000581J0000000D01*
G01*
X0122883Y0116653D01*
G75*
G02*
X0122303Y0117234I0000000J0000581D01*
G01*
G37*
G36*
G01*
X0098051Y0126072D02*
X0098051Y0124714D01*
G75*
G02*
X0097470Y0124133I-000581J0000000D01*
G01*
X0096309Y0124133D01*
G75*
G02*
X0095728Y0124714I0000000J0000581D01*
G01*
X0095728Y0126072D01*
G75*
G02*
X0096309Y0126653I0000581J0000000D01*
G01*
X0097470Y0126653D01*
G75*
G02*
X0098051Y0126072I0000000J-000581D01*
G01*
G37*
G36*
G01*
X0094232Y0126072D02*
X0094232Y0124714D01*
G75*
G02*
X0093651Y0124133I-000581J0000000D01*
G01*
X0092490Y0124133D01*
G75*
G02*
X0091909Y0124714I0000000J0000581D01*
G01*
X0091909Y0126072D01*
G75*
G02*
X0092490Y0126653I0000581J0000000D01*
G01*
X0093651Y0126653D01*
G75*
G02*
X0094232Y0126072I0000000J-000581D01*
G01*
G37*
G36*
G01*
X0099006Y0082952D02*
X0097647Y0082952D01*
G75*
G02*
X0097067Y0083533I0000000J0000581D01*
G01*
X0097067Y0084694D01*
G75*
G02*
X0097647Y0085275I0000581J0000000D01*
G01*
X0099006Y0085275D01*
G75*
G02*
X0099586Y0084694I0000000J-000581D01*
G01*
X0099586Y0083533D01*
G75*
G02*
X0099006Y0082952I-000581J0000000D01*
G01*
G37*
G36*
G01*
X0099006Y0086771D02*
X0097647Y0086771D01*
G75*
G02*
X0097067Y0087352I0000000J0000581D01*
G01*
X0097067Y0088513D01*
G75*
G02*
X0097647Y0089094I0000581J0000000D01*
G01*
X0099006Y0089094D01*
G75*
G02*
X0099586Y0088513I0000000J-000581D01*
G01*
X0099586Y0087352D01*
G75*
G02*
X0099006Y0086771I-000581J0000000D01*
G01*
G37*
G36*
G01*
X0099006Y0075374D02*
X0097647Y0075374D01*
G75*
G02*
X0097067Y0075954I0000000J0000581D01*
G01*
X0097067Y0077116D01*
G75*
G02*
X0097647Y0077696I0000581J0000000D01*
G01*
X0099006Y0077696D01*
G75*
G02*
X0099586Y0077116I0000000J-000581D01*
G01*
X0099586Y0075954D01*
G75*
G02*
X0099006Y0075374I-000581J0000000D01*
G01*
G37*
G36*
G01*
X0099006Y0079192D02*
X0097647Y0079192D01*
G75*
G02*
X0097067Y0079773I0000000J0000581D01*
G01*
X0097067Y0080935D01*
G75*
G02*
X0097647Y0081515I0000581J0000000D01*
G01*
X0099006Y0081515D01*
G75*
G02*
X0099586Y0080935I0000000J-000581D01*
G01*
X0099586Y0079773D01*
G75*
G02*
X0099006Y0079192I-000581J0000000D01*
G01*
G37*
G36*
G01*
X0098051Y0129813D02*
X0098051Y0128454D01*
G75*
G02*
X0097470Y0127874I-000581J0000000D01*
G01*
X0096309Y0127874D01*
G75*
G02*
X0095728Y0128454I0000000J0000581D01*
G01*
X0095728Y0129813D01*
G75*
G02*
X0096309Y0130393I0000581J0000000D01*
G01*
X0097470Y0130393D01*
G75*
G02*
X0098051Y0129813I0000000J-000581D01*
G01*
G37*
G36*
G01*
X0094232Y0129813D02*
X0094232Y0128454D01*
G75*
G02*
X0093651Y0127874I-000581J0000000D01*
G01*
X0092490Y0127874D01*
G75*
G02*
X0091909Y0128454I0000000J0000581D01*
G01*
X0091909Y0129813D01*
G75*
G02*
X0092490Y0130393I0000581J0000000D01*
G01*
X0093651Y0130393D01*
G75*
G02*
X0094232Y0129813I0000000J-000581D01*
G01*
G37*
G36*
G01*
X0107864Y0095452D02*
X0106506Y0095452D01*
G75*
G02*
X0105925Y0096033I0000000J0000581D01*
G01*
X0105925Y0097194D01*
G75*
G02*
X0106506Y0097775I0000581J0000000D01*
G01*
X0107864Y0097775D01*
G75*
G02*
X0108444Y0097194I0000000J-000581D01*
G01*
X0108444Y0096033D01*
G75*
G02*
X0107864Y0095452I-000581J0000000D01*
G01*
G37*
G36*
G01*
X0107864Y0099271D02*
X0106506Y0099271D01*
G75*
G02*
X0105925Y0099852I0000000J0000581D01*
G01*
X0105925Y0101013D01*
G75*
G02*
X0106506Y0101594I0000581J0000000D01*
G01*
X0107864Y0101594D01*
G75*
G02*
X0108444Y0101013I0000000J-000581D01*
G01*
X0108444Y0099852D01*
G75*
G02*
X0107864Y0099271I-000581J0000000D01*
G01*
G37*
G36*
G01*
X0098051Y0133553D02*
X0098051Y0132194D01*
G75*
G02*
X0097470Y0131614I-000581J0000000D01*
G01*
X0096309Y0131614D01*
G75*
G02*
X0095728Y0132194I0000000J0000581D01*
G01*
X0095728Y0133553D01*
G75*
G02*
X0096309Y0134133I0000581J0000000D01*
G01*
X0097470Y0134133D01*
G75*
G02*
X0098051Y0133553I0000000J-000581D01*
G01*
G37*
G36*
G01*
X0094232Y0133553D02*
X0094232Y0132194D01*
G75*
G02*
X0093651Y0131614I-000581J0000000D01*
G01*
X0092490Y0131614D01*
G75*
G02*
X0091909Y0132194I0000000J0000581D01*
G01*
X0091909Y0133553D01*
G75*
G02*
X0092490Y0134133I0000581J0000000D01*
G01*
X0093651Y0134133D01*
G75*
G02*
X0094232Y0133553I0000000J-000581D01*
G01*
G37*
G36*
G01*
X0089389Y0133553D02*
X0089389Y0132194D01*
G75*
G02*
X0088809Y0131614I-000581J0000000D01*
G01*
X0087647Y0131614D01*
G75*
G02*
X0087067Y0132194I0000000J0000581D01*
G01*
X0087067Y0133553D01*
G75*
G02*
X0087647Y0134133I0000581J0000000D01*
G01*
X0088809Y0134133D01*
G75*
G02*
X0089389Y0133553I0000000J-000581D01*
G01*
G37*
G36*
G01*
X0085570Y0133553D02*
X0085570Y0132194D01*
G75*
G02*
X0084990Y0131614I-000581J0000000D01*
G01*
X0083828Y0131614D01*
G75*
G02*
X0083248Y0132194I0000000J0000581D01*
G01*
X0083248Y0133553D01*
G75*
G02*
X0083828Y0134133I0000581J0000000D01*
G01*
X0084990Y0134133D01*
G75*
G02*
X0085570Y0133553I0000000J-000581D01*
G01*
G37*
G36*
G01*
X0095196Y0148366D02*
X0096535Y0148366D01*
G75*
G02*
X0097086Y0147815I0000000J-000551D01*
G01*
X0097086Y0146712D01*
G75*
G02*
X0096535Y0146161I-000551J0000000D01*
G01*
X0095196Y0146161D01*
G75*
G02*
X0094645Y0146712I0000000J0000551D01*
G01*
X0094645Y0147815D01*
G75*
G02*
X0095196Y0148366I0000551J0000000D01*
G01*
G37*
G36*
G01*
X0095196Y0144586D02*
X0096535Y0144586D01*
G75*
G02*
X0097086Y0144035I0000000J-000551D01*
G01*
X0097086Y0142933D01*
G75*
G02*
X0096535Y0142382I-000551J0000000D01*
G01*
X0095196Y0142382D01*
G75*
G02*
X0094645Y0142933I0000000J0000551D01*
G01*
X0094645Y0144035D01*
G75*
G02*
X0095196Y0144586I0000551J0000000D01*
G01*
G37*
G36*
G01*
X0121456Y0093425D02*
X0120000Y0093425D01*
G75*
G02*
X0119468Y0093956I0000000J0000531D01*
G01*
X0119468Y0095019D01*
G75*
G02*
X0120000Y0095551I0000531J0000000D01*
G01*
X0121456Y0095551D01*
G75*
G02*
X0121988Y0095019I0000000J-000531D01*
G01*
X0121988Y0093956D01*
G75*
G02*
X0121456Y0093425I-000531J0000000D01*
G01*
G37*
G36*
G01*
X0121456Y0097440D02*
X0120000Y0097440D01*
G75*
G02*
X0119468Y0097972I0000000J0000531D01*
G01*
X0119468Y0099035D01*
G75*
G02*
X0120000Y0099566I0000531J0000000D01*
G01*
X0121456Y0099566D01*
G75*
G02*
X0121988Y0099035I0000000J-000531D01*
G01*
X0121988Y0097972D01*
G75*
G02*
X0121456Y0097440I-000531J0000000D01*
G01*
G37*
G36*
G01*
X0106923Y0154153D02*
X0106923Y0155610D01*
G75*
G02*
X0107455Y0156141I0000531J0000000D01*
G01*
X0108518Y0156141D01*
G75*
G02*
X0109049Y0155610I0000000J-000531D01*
G01*
X0109049Y0154153D01*
G75*
G02*
X0108518Y0153622I-000531J0000000D01*
G01*
X0107455Y0153622D01*
G75*
G02*
X0106923Y0154153I0000000J0000531D01*
G01*
G37*
G36*
G01*
X0110939Y0154153D02*
X0110939Y0155610D01*
G75*
G02*
X0111471Y0156141I0000531J0000000D01*
G01*
X0112534Y0156141D01*
G75*
G02*
X0113065Y0155610I0000000J-000531D01*
G01*
X0113065Y0154153D01*
G75*
G02*
X0112534Y0153622I-000531J0000000D01*
G01*
X0111471Y0153622D01*
G75*
G02*
X0110939Y0154153I0000000J0000531D01*
G01*
G37*
G36*
G01*
X0082972Y0153543D02*
X0084153Y0153543D01*
G75*
G02*
X0084744Y0152952I0000000J-000591D01*
G01*
X0084744Y0148326D01*
G75*
G02*
X0084153Y0147736I-000591J0000000D01*
G01*
X0082972Y0147736D01*
G75*
G02*
X0082382Y0148326I0000000J0000591D01*
G01*
X0082382Y0152952D01*
G75*
G02*
X0082972Y0153543I0000591J0000000D01*
G01*
G37*
G36*
G01*
X0090452Y0153543D02*
X0091633Y0153543D01*
G75*
G02*
X0092224Y0152952I0000000J-000591D01*
G01*
X0092224Y0148326D01*
G75*
G02*
X0091633Y0147736I-000591J0000000D01*
G01*
X0090452Y0147736D01*
G75*
G02*
X0089862Y0148326I0000000J0000591D01*
G01*
X0089862Y0152952D01*
G75*
G02*
X0090452Y0153543I0000591J0000000D01*
G01*
G37*
G36*
G01*
X0086712Y0146161D02*
X0087893Y0146161D01*
G75*
G02*
X0088484Y0145570I0000000J-000591D01*
G01*
X0088484Y0140944D01*
G75*
G02*
X0087893Y0140354I-000591J0000000D01*
G01*
X0086712Y0140354D01*
G75*
G02*
X0086122Y0140944I0000000J0000591D01*
G01*
X0086122Y0145570D01*
G75*
G02*
X0086712Y0146161I0000591J0000000D01*
G01*
G37*
G36*
G01*
X0120904Y0155590D02*
X0120904Y0154251D01*
G75*
G02*
X0120352Y0153700I-000551J0000000D01*
G01*
X0119250Y0153700D01*
G75*
G02*
X0118699Y0154251I0000000J0000551D01*
G01*
X0118699Y0155590D01*
G75*
G02*
X0119250Y0156141I0000551J0000000D01*
G01*
X0120352Y0156141D01*
G75*
G02*
X0120904Y0155590I0000000J-000551D01*
G01*
G37*
G36*
G01*
X0117124Y0155590D02*
X0117124Y0154251D01*
G75*
G02*
X0116573Y0153700I-000551J0000000D01*
G01*
X0115471Y0153700D01*
G75*
G02*
X0114919Y0154251I0000000J0000551D01*
G01*
X0114919Y0155590D01*
G75*
G02*
X0115471Y0156141I0000551J0000000D01*
G01*
X0116573Y0156141D01*
G75*
G02*
X0117124Y0155590I0000000J-000551D01*
G01*
G37*
G36*
G01*
X0117833Y0124803D02*
X0116652Y0124803D01*
G75*
G02*
X0116061Y0125393I0000000J0000591D01*
G01*
X0116061Y0131102D01*
G75*
G02*
X0116652Y0131692I0000591J0000000D01*
G01*
X0117833Y0131692D01*
G75*
G02*
X0118423Y0131102I0000000J-000591D01*
G01*
X0118423Y0125393D01*
G75*
G02*
X0117833Y0124803I-000591J0000000D01*
G01*
G37*
G36*
G01*
X0112833Y0124803D02*
X0111652Y0124803D01*
G75*
G02*
X0111061Y0125393I0000000J0000591D01*
G01*
X0111061Y0131102D01*
G75*
G02*
X0111652Y0131692I0000591J0000000D01*
G01*
X0112833Y0131692D01*
G75*
G02*
X0113423Y0131102I0000000J-000591D01*
G01*
X0113423Y0125393D01*
G75*
G02*
X0112833Y0124803I-000591J0000000D01*
G01*
G37*
G36*
G01*
X0107833Y0124803D02*
X0106652Y0124803D01*
G75*
G02*
X0106061Y0125393I0000000J0000591D01*
G01*
X0106061Y0131102D01*
G75*
G02*
X0106652Y0131692I0000591J0000000D01*
G01*
X0107833Y0131692D01*
G75*
G02*
X0108423Y0131102I0000000J-000591D01*
G01*
X0108423Y0125393D01*
G75*
G02*
X0107833Y0124803I-000591J0000000D01*
G01*
G37*
G36*
G01*
X0102833Y0124803D02*
X0101652Y0124803D01*
G75*
G02*
X0101061Y0125393I0000000J0000591D01*
G01*
X0101061Y0131102D01*
G75*
G02*
X0101652Y0131692I0000591J0000000D01*
G01*
X0102833Y0131692D01*
G75*
G02*
X0103423Y0131102I0000000J-000591D01*
G01*
X0103423Y0125393D01*
G75*
G02*
X0102833Y0124803I-000591J0000000D01*
G01*
G37*
G36*
G01*
X0102833Y0145078D02*
X0101652Y0145078D01*
G75*
G02*
X0101061Y0145669I0000000J0000591D01*
G01*
X0101061Y0151377D01*
G75*
G02*
X0101652Y0151968I0000591J0000000D01*
G01*
X0102833Y0151968D01*
G75*
G02*
X0103423Y0151377I0000000J-000591D01*
G01*
X0103423Y0145669D01*
G75*
G02*
X0102833Y0145078I-000591J0000000D01*
G01*
G37*
G36*
G01*
X0107833Y0145078D02*
X0106652Y0145078D01*
G75*
G02*
X0106061Y0145669I0000000J0000591D01*
G01*
X0106061Y0151377D01*
G75*
G02*
X0106652Y0151968I0000591J0000000D01*
G01*
X0107833Y0151968D01*
G75*
G02*
X0108423Y0151377I0000000J-000591D01*
G01*
X0108423Y0145669D01*
G75*
G02*
X0107833Y0145078I-000591J0000000D01*
G01*
G37*
G36*
G01*
X0112833Y0145078D02*
X0111652Y0145078D01*
G75*
G02*
X0111061Y0145669I0000000J0000591D01*
G01*
X0111061Y0151377D01*
G75*
G02*
X0111652Y0151968I0000591J0000000D01*
G01*
X0112833Y0151968D01*
G75*
G02*
X0113423Y0151377I0000000J-000591D01*
G01*
X0113423Y0145669D01*
G75*
G02*
X0112833Y0145078I-000591J0000000D01*
G01*
G37*
G36*
G01*
X0117833Y0145078D02*
X0116652Y0145078D01*
G75*
G02*
X0116061Y0145669I0000000J0000591D01*
G01*
X0116061Y0151377D01*
G75*
G02*
X0116652Y0151968I0000591J0000000D01*
G01*
X0117833Y0151968D01*
G75*
G02*
X0118423Y0151377I0000000J-000591D01*
G01*
X0118423Y0145669D01*
G75*
G02*
X0117833Y0145078I-000591J0000000D01*
G01*
G37*
X0425000Y0217224D02*
G01*
G75*
D57*
X0371653Y0075885D02*
D03*
D56*
X0385433Y0075885D02*
D03*
D59*
X0291535Y0181988D02*
D03*
D54*
X0333268Y0075885D02*
D03*
X0417520Y0216830D02*
D03*
D55*
X0303740Y0216830D02*
D03*
X0409252Y0075885D02*
D03*
D52*
X0424606Y0181200D02*
D03*
D53*
X0424606Y0212696D02*
D03*
D51*
X0424606Y0127460D02*
D03*
D60*
X0291535Y0204822D02*
D03*
D58*
X0291535Y0089271D02*
D03*
D49*
X0424606Y0109941D02*
D03*
X0424606Y0085925D02*
D03*
D50*
X0424606Y0097933D02*
D03*
X0291535Y0123523D02*
D03*
D450*
X0373031Y0132185D02*
D03*
X0373031Y0157480D02*
D03*
X0373031Y0142224D02*
D03*
X0373031Y0147440D02*
D03*
X0380118Y0116929D02*
D03*
X0373031Y0116929D02*
D03*
X0373031Y0126968D02*
D03*
X0380118Y0126968D02*
D03*
X0380118Y0157480D02*
D03*
X0380118Y0147440D02*
D03*
X0380118Y0142224D02*
D03*
X0380118Y0132185D02*
D03*
D451*
X0373031Y0135630D02*
D03*
X0373031Y0150885D02*
D03*
X0373031Y0138779D02*
D03*
X0373031Y0154035D02*
D03*
X0373031Y0123523D02*
D03*
X0373031Y0120374D02*
D03*
X0380118Y0120374D02*
D03*
X0380118Y0123523D02*
D03*
X0380118Y0150885D02*
D03*
X0380118Y0154035D02*
D03*
X0380118Y0135630D02*
D03*
X0380118Y0138779D02*
D03*
D454*
X0371063Y0079035D02*
D03*
X0375000Y0079035D02*
D03*
X0376575Y0082578D02*
D03*
X0380512Y0082578D02*
D03*
X0368701Y0099901D02*
D03*
X0372638Y0099901D02*
D03*
X0340048Y0157603D02*
D03*
X0343985Y0157603D02*
D03*
X0348244Y0157603D02*
D03*
X0352181Y0157603D02*
D03*
X0391566Y0125136D02*
D03*
X0395503Y0125136D02*
D03*
X0391566Y0128859D02*
D03*
X0395503Y0128859D02*
D03*
X0393982Y0092027D02*
D03*
X0390045Y0092027D02*
D03*
X0305348Y0081094D02*
D03*
X0341096Y0081333D02*
D03*
X0326181Y0157603D02*
D03*
X0358465Y0103445D02*
D03*
X0358465Y0107775D02*
D03*
X0361895Y0111994D02*
D03*
X0373172Y0111939D02*
D03*
X0352756Y0141599D02*
D03*
X0361545Y0141599D02*
D03*
X0365482Y0150084D02*
D03*
X0300565Y0179950D02*
D03*
X0326181Y0162106D02*
D03*
X0367126Y0079035D02*
D03*
X0380512Y0112030D02*
D03*
X0402165Y0110632D02*
D03*
X0416230Y0110632D02*
D03*
X0402165Y0114862D02*
D03*
X0416230Y0114862D02*
D03*
X0376527Y0161770D02*
D03*
X0421063Y0163681D02*
D03*
X0354528Y0103445D02*
D03*
X0365482Y0141599D02*
D03*
X0356693Y0141599D02*
D03*
X0356693Y0146087D02*
D03*
X0352756Y0146087D02*
D03*
X0298622Y0166043D02*
D03*
X0302559Y0166043D02*
D03*
X0304502Y0179950D02*
D03*
X0389947Y0109126D02*
D03*
X0393884Y0109126D02*
D03*
X0420168Y0110632D02*
D03*
X0376575Y0112030D02*
D03*
X0361545Y0150084D02*
D03*
X0369235Y0111939D02*
D03*
X0365832Y0111994D02*
D03*
X0406102Y0114862D02*
D03*
X0380464Y0161770D02*
D03*
X0417126Y0163681D02*
D03*
X0345033Y0081333D02*
D03*
X0371063Y0079035D02*
D03*
X0397835Y0104059D02*
D03*
X0401772Y0104059D02*
D03*
X0406102Y0110632D02*
D03*
X0322244Y0162106D02*
D03*
X0322244Y0157603D02*
D03*
X0354528Y0107775D02*
D03*
X0309285Y0081094D02*
D03*
X0318601Y0081094D02*
D03*
X0314664Y0081094D02*
D03*
X0412293Y0114862D02*
D03*
X0421063Y0159744D02*
D03*
X0417126Y0159744D02*
D03*
X0421063Y0147342D02*
D03*
X0417126Y0147342D02*
D03*
X0421063Y0143208D02*
D03*
X0417126Y0143208D02*
D03*
X0421063Y0134940D02*
D03*
X0417126Y0134940D02*
D03*
X0421063Y0139074D02*
D03*
X0417126Y0139074D02*
D03*
X0421063Y0130807D02*
D03*
X0417126Y0130807D02*
D03*
X0421063Y0151476D02*
D03*
X0417126Y0151476D02*
D03*
X0421063Y0155610D02*
D03*
X0417126Y0155610D02*
D03*
D456*
X0366073Y0128248D02*
D03*
X0366073Y0124015D02*
D03*
X0320669Y0212106D02*
D03*
X0325394Y0212106D02*
D03*
X0330118Y0212106D02*
D03*
X0334842Y0212106D02*
D03*
X0404921Y0083759D02*
D03*
X0400787Y0083759D02*
D03*
X0309607Y0175980D02*
D03*
X0309607Y0172043D02*
D03*
X0420536Y0084941D02*
D03*
X0420536Y0088877D02*
D03*
X0366073Y0120078D02*
D03*
X0366073Y0132185D02*
D03*
X0313779Y0176476D02*
D03*
X0313779Y0172539D02*
D03*
X0338552Y0204252D02*
D03*
X0338552Y0200315D02*
D03*
X0334842Y0200315D02*
D03*
X0334842Y0204252D02*
D03*
X0334842Y0189665D02*
D03*
X0334842Y0193602D02*
D03*
X0334842Y0208169D02*
D03*
X0330118Y0208169D02*
D03*
X0320669Y0208169D02*
D03*
X0325394Y0208169D02*
D03*
X0419501Y0174975D02*
D03*
X0419501Y0171038D02*
D03*
X0369291Y0171948D02*
D03*
X0369291Y0175885D02*
D03*
X0369291Y0182185D02*
D03*
X0369291Y0186122D02*
D03*
X0397244Y0171948D02*
D03*
X0397244Y0175885D02*
D03*
X0373819Y0197342D02*
D03*
X0373819Y0193405D02*
D03*
X0403149Y0197342D02*
D03*
X0403149Y0193405D02*
D03*
X0415945Y0197342D02*
D03*
X0415945Y0193405D02*
D03*
X0399053Y0204252D02*
D03*
X0399053Y0208189D02*
D03*
X0420669Y0204626D02*
D03*
X0420669Y0200689D02*
D03*
X0420472Y0207775D02*
D03*
X0420472Y0211712D02*
D03*
X0420536Y0096467D02*
D03*
X0420536Y0092530D02*
D03*
X0404921Y0079822D02*
D03*
X0400787Y0079822D02*
D03*
X0397047Y0193405D02*
D03*
X0397047Y0197342D02*
D03*
X0392717Y0193405D02*
D03*
X0392717Y0197342D02*
D03*
X0384252Y0193405D02*
D03*
X0384252Y0197342D02*
D03*
X0380086Y0208189D02*
D03*
X0380086Y0204252D02*
D03*
X0341339Y0175885D02*
D03*
X0341339Y0171948D02*
D03*
X0411614Y0193405D02*
D03*
X0411614Y0197342D02*
D03*
X0361243Y0208189D02*
D03*
X0361243Y0204252D02*
D03*
X0365354Y0193405D02*
D03*
X0365354Y0197342D02*
D03*
X0378149Y0193405D02*
D03*
X0378149Y0197342D02*
D03*
X0342263Y0208189D02*
D03*
X0342263Y0204252D02*
D03*
X0346456Y0193405D02*
D03*
X0346456Y0197342D02*
D03*
X0354921Y0193405D02*
D03*
X0354921Y0197342D02*
D03*
X0359252Y0193405D02*
D03*
X0359252Y0197342D02*
D03*
X0341475Y0189665D02*
D03*
X0341475Y0193602D02*
D03*
D458*
X0385443Y0086968D02*
D03*
X0393183Y0096443D02*
D03*
X0411516Y0119813D02*
D03*
D461*
X0337795Y0088385D02*
D03*
X0344095Y0088385D02*
D03*
X0374409Y0087007D02*
D03*
X0380709Y0087007D02*
D03*
X0374409Y0091633D02*
D03*
X0380709Y0091633D02*
D03*
D458*
X0402264Y0123554D02*
D03*
X0393183Y0103923D02*
D03*
X0383931Y0100183D02*
D03*
X0385443Y0079488D02*
D03*
X0394695Y0083228D02*
D03*
X0411516Y0127294D02*
D03*
D482*
X0376969Y0096830D02*
D03*
X0376969Y0103051D02*
D03*
D483*
X0347539Y0167618D02*
D03*
X0347539Y0174704D02*
D03*
X0357579Y0174704D02*
D03*
X0357579Y0167618D02*
D03*
X0375492Y0174704D02*
D03*
X0403445Y0174704D02*
D03*
X0385531Y0178641D02*
D03*
X0330413Y0203838D02*
D03*
X0330413Y0196752D02*
D03*
X0320374Y0196752D02*
D03*
X0320374Y0203838D02*
D03*
X0413484Y0185728D02*
D03*
X0413484Y0178641D02*
D03*
X0403445Y0178641D02*
D03*
X0403445Y0185728D02*
D03*
X0403445Y0167618D02*
D03*
X0413484Y0174704D02*
D03*
X0413484Y0167618D02*
D03*
X0385531Y0185728D02*
D03*
X0375492Y0178641D02*
D03*
X0375492Y0185728D02*
D03*
X0375492Y0167618D02*
D03*
X0385531Y0174704D02*
D03*
X0385531Y0167618D02*
D03*
X0384547Y0209547D02*
D03*
X0384547Y0202460D02*
D03*
X0394587Y0202460D02*
D03*
X0394587Y0209547D02*
D03*
X0403445Y0209547D02*
D03*
X0403445Y0202460D02*
D03*
X0413484Y0202460D02*
D03*
X0413484Y0209547D02*
D03*
X0365649Y0209547D02*
D03*
X0365649Y0202460D02*
D03*
X0375689Y0202460D02*
D03*
X0375689Y0209547D02*
D03*
X0346752Y0209547D02*
D03*
X0346752Y0202460D02*
D03*
X0356791Y0202460D02*
D03*
X0356791Y0209547D02*
D03*
X0347539Y0185728D02*
D03*
X0347539Y0178641D02*
D03*
X0357579Y0178641D02*
D03*
X0357579Y0185728D02*
D03*
X0319980Y0185728D02*
D03*
X0319980Y0178641D02*
D03*
X0330020Y0178641D02*
D03*
X0330020Y0185728D02*
D03*
X0330020Y0167618D02*
D03*
X0330020Y0174704D02*
D03*
X0319980Y0174704D02*
D03*
X0319980Y0167618D02*
D03*
D484*
X0354134Y0174704D02*
D03*
X0350984Y0174704D02*
D03*
X0350984Y0167618D02*
D03*
X0354134Y0167618D02*
D03*
X0378937Y0174704D02*
D03*
X0406890Y0174704D02*
D03*
X0382087Y0178641D02*
D03*
X0323819Y0196752D02*
D03*
X0326968Y0196752D02*
D03*
X0326968Y0203838D02*
D03*
X0323819Y0203838D02*
D03*
X0406890Y0178641D02*
D03*
X0410039Y0178641D02*
D03*
X0410039Y0185728D02*
D03*
X0406890Y0185728D02*
D03*
X0410039Y0174704D02*
D03*
X0406890Y0167618D02*
D03*
X0410039Y0167618D02*
D03*
X0378937Y0178641D02*
D03*
X0382087Y0185728D02*
D03*
X0378937Y0185728D02*
D03*
X0382086Y0174704D02*
D03*
X0378937Y0167618D02*
D03*
X0382086Y0167618D02*
D03*
X0387992Y0209547D02*
D03*
X0391142Y0209547D02*
D03*
X0391142Y0202460D02*
D03*
X0387992Y0202460D02*
D03*
X0406889Y0209547D02*
D03*
X0410039Y0209547D02*
D03*
X0410039Y0202460D02*
D03*
X0406889Y0202460D02*
D03*
X0369094Y0209547D02*
D03*
X0372244Y0209547D02*
D03*
X0372244Y0202460D02*
D03*
X0369094Y0202460D02*
D03*
X0350197Y0209547D02*
D03*
X0353346Y0209547D02*
D03*
X0353346Y0202460D02*
D03*
X0350197Y0202460D02*
D03*
X0350984Y0185728D02*
D03*
X0354134Y0185728D02*
D03*
X0354134Y0178641D02*
D03*
X0350984Y0178641D02*
D03*
X0323425Y0185728D02*
D03*
X0326575Y0185728D02*
D03*
X0326575Y0178641D02*
D03*
X0323425Y0178641D02*
D03*
X0326575Y0167618D02*
D03*
X0323425Y0167618D02*
D03*
X0323425Y0174704D02*
D03*
X0326575Y0174704D02*
D03*
D298*
X0315197Y0090354D02*
D03*
X0315197Y0085364D02*
D03*
X0321417Y0085364D02*
D03*
X0321417Y0090354D02*
D03*
D485*
X0302559Y0097244D02*
D03*
X0335236Y0097244D02*
D03*
X0302559Y0151377D02*
D03*
X0335236Y0151377D02*
D03*
D486*
X0312795Y0115275D02*
D03*
X0312795Y0106614D02*
D03*
X0312795Y0110944D02*
D03*
X0312795Y0119606D02*
D03*
X0312795Y0123937D02*
D03*
X0312795Y0128267D02*
D03*
X0312795Y0132598D02*
D03*
X0312795Y0136929D02*
D03*
D487*
X0294488Y0195885D02*
D03*
X0307692Y0195885D02*
D03*
X0301969Y0203917D02*
D03*
X0315172Y0203917D02*
D03*
X0298228Y0186633D02*
D03*
X0311432Y0186633D02*
D03*
X0311432Y0213169D02*
D03*
X0399606Y0098248D02*
D03*
X0403346Y0088996D02*
D03*
X0298228Y0213169D02*
D03*
D223*
X0300565Y0170112D02*
D03*
X0304502Y0170112D02*
D03*
X0300565Y0176116D02*
D03*
X0302533Y0176116D02*
D03*
X0302533Y0170112D02*
D03*
X0304502Y0176116D02*
D03*
D488*
X0391130Y0113464D02*
D03*
X0396248Y0113464D02*
D03*
X0393689Y0113464D02*
D03*
X0391130Y0120945D02*
D03*
X0396248Y0120945D02*
D03*
D226*
X0387913Y0132972D02*
D03*
X0410905Y0135531D02*
D03*
X0410905Y0132972D02*
D03*
X0387913Y0156003D02*
D03*
X0410905Y0158562D02*
D03*
X0410905Y0161122D02*
D03*
X0410905Y0156003D02*
D03*
X0410905Y0153444D02*
D03*
X0410905Y0150885D02*
D03*
X0410905Y0148326D02*
D03*
X0410905Y0145767D02*
D03*
X0410905Y0143208D02*
D03*
X0410905Y0140649D02*
D03*
X0410905Y0138090D02*
D03*
X0387913Y0161122D02*
D03*
X0387913Y0158562D02*
D03*
X0387913Y0153444D02*
D03*
X0387913Y0150885D02*
D03*
X0387913Y0148326D02*
D03*
X0387913Y0145767D02*
D03*
X0387913Y0143208D02*
D03*
X0387913Y0140649D02*
D03*
X0387913Y0138090D02*
D03*
X0387913Y0135531D02*
D03*
D489*
X0413976Y0095385D02*
D03*
X0413976Y0083967D02*
D03*
D296*
X0355886Y0093250D02*
D03*
X0368878Y0093250D02*
D03*
X0419963Y0104450D02*
D03*
X0406971Y0104450D02*
D03*
D228*
X0357111Y0118655D02*
D03*
X0357111Y0133222D02*
D03*
D229*
X0305535Y0174098D02*
D03*
X0305535Y0172130D02*
D03*
X0299531Y0172130D02*
D03*
X0299531Y0174098D02*
D03*
D490*
X0370522Y0106132D02*
D03*
X0364617Y0106132D02*
D03*
D487*
X0301969Y0195885D02*
D03*
X0315172Y0195885D02*
D03*
X0307692Y0203917D02*
D03*
X0407087Y0098248D02*
D03*
X0294488Y0203917D02*
D03*
D231*
X0367719Y0156791D02*
D03*
X0361026Y0156791D02*
D03*
D297*
X0351358Y0083254D02*
D03*
X0362775Y0083254D02*
D03*
D491*
X0420275Y0117618D02*
D03*
X0420275Y0123917D02*
D03*
X0015157Y0143799D02*
%LPD*%
G01*
G36*
G01*
X0022516Y0064094D02*
X0023874Y0064094D01*
G75*
G02*
X0024455Y0063514I0000000J-000581D01*
G01*
X0024455Y0062352D01*
G75*
G02*
X0023874Y0061771I-000581J0000000D01*
G01*
X0022516Y0061771D01*
G75*
G02*
X0021935Y0062352I0000000J0000581D01*
G01*
X0021935Y0063514D01*
G75*
G02*
X0022516Y0064094I0000581J0000000D01*
G01*
G37*
G36*
G01*
X0022516Y0060275D02*
X0023874Y0060275D01*
G75*
G02*
X0024455Y0059695I0000000J-000581D01*
G01*
X0024455Y0058533D01*
G75*
G02*
X0023874Y0057953I-000581J0000000D01*
G01*
X0022516Y0057953D01*
G75*
G02*
X0021935Y0058533I0000000J0000581D01*
G01*
X0021935Y0059695D01*
G75*
G02*
X0022516Y0060275I0000581J0000000D01*
G01*
G37*
G36*
G01*
X0037805Y0049626D02*
X0039163Y0049626D01*
G75*
G02*
X0039744Y0049045I0000000J-000581D01*
G01*
X0039744Y0047884D01*
G75*
G02*
X0039163Y0047303I-000581J0000000D01*
G01*
X0037805Y0047303D01*
G75*
G02*
X0037224Y0047884I0000000J0000581D01*
G01*
X0037224Y0049045D01*
G75*
G02*
X0037805Y0049626I0000581J0000000D01*
G01*
G37*
G36*
G01*
X0037805Y0045807D02*
X0039163Y0045807D01*
G75*
G02*
X0039744Y0045226I0000000J-000581D01*
G01*
X0039744Y0044065D01*
G75*
G02*
X0039163Y0043484I-000581J0000000D01*
G01*
X0037805Y0043484D01*
G75*
G02*
X0037224Y0044065I0000000J0000581D01*
G01*
X0037224Y0045226D01*
G75*
G02*
X0037805Y0045807I0000581J0000000D01*
G01*
G37*
G36*
G01*
X0064001Y0099508D02*
X0061983Y0099508D01*
G75*
G02*
X0061122Y0100369I0000000J0000861D01*
G01*
X0061122Y0102091D01*
G75*
G02*
X0061983Y0102953I0000861J0000000D01*
G01*
X0064001Y0102953D01*
G75*
G02*
X0064862Y0102091I0000000J-000861D01*
G01*
X0064862Y0100369D01*
G75*
G02*
X0064001Y0099508I-000861J0000000D01*
G01*
G37*
G36*
G01*
X0064001Y0105708D02*
X0061983Y0105708D01*
G75*
G02*
X0061122Y0106570I0000000J0000861D01*
G01*
X0061122Y0108292D01*
G75*
G02*
X0061983Y0109153I0000861J0000000D01*
G01*
X0064001Y0109153D01*
G75*
G02*
X0064862Y0108292I0000000J-000861D01*
G01*
X0064862Y0106570D01*
G75*
G02*
X0064001Y0105708I-000861J0000000D01*
G01*
G37*
G36*
G01*
X0019675Y0057953D02*
X0018316Y0057953D01*
G75*
G02*
X0017736Y0058533I0000000J0000581D01*
G01*
X0017736Y0059695D01*
G75*
G02*
X0018316Y0060275I0000581J0000000D01*
G01*
X0019675Y0060275D01*
G75*
G02*
X0020255Y0059695I0000000J-000581D01*
G01*
X0020255Y0058533D01*
G75*
G02*
X0019675Y0057953I-000581J0000000D01*
G01*
G37*
G36*
G01*
X0019675Y0061771D02*
X0018316Y0061771D01*
G75*
G02*
X0017736Y0062352I0000000J0000581D01*
G01*
X0017736Y0063514D01*
G75*
G02*
X0018316Y0064094I0000581J0000000D01*
G01*
X0019675Y0064094D01*
G75*
G02*
X0020255Y0063514I0000000J-000581D01*
G01*
X0020255Y0062352D01*
G75*
G02*
X0019675Y0061771I-000581J0000000D01*
G01*
G37*
G36*
G01*
X0058671Y0117654D02*
X0060029Y0117654D01*
G75*
G02*
X0060610Y0117074I0000000J-000581D01*
G01*
X0060610Y0115912D01*
G75*
G02*
X0060029Y0115332I-000581J0000000D01*
G01*
X0058671Y0115332D01*
G75*
G02*
X0058090Y0115912I0000000J0000581D01*
G01*
X0058090Y0117074D01*
G75*
G02*
X0058671Y0117654I0000581J0000000D01*
G01*
G37*
G36*
G01*
X0058671Y0113836D02*
X0060029Y0113836D01*
G75*
G02*
X0060610Y0113255I0000000J-000581D01*
G01*
X0060610Y0112093D01*
G75*
G02*
X0060029Y0111513I-000581J0000000D01*
G01*
X0058671Y0111513D01*
G75*
G02*
X0058090Y0112093I0000000J0000581D01*
G01*
X0058090Y0113255D01*
G75*
G02*
X0058671Y0113836I0000581J0000000D01*
G01*
G37*
G36*
G01*
X0056801Y0109567D02*
X0058159Y0109567D01*
G75*
G02*
X0058740Y0108986I0000000J-000581D01*
G01*
X0058740Y0107825D01*
G75*
G02*
X0058159Y0107244I-000581J0000000D01*
G01*
X0056801Y0107244D01*
G75*
G02*
X0056220Y0107825I0000000J0000581D01*
G01*
X0056220Y0108986D01*
G75*
G02*
X0056801Y0109567I0000581J0000000D01*
G01*
G37*
G36*
G01*
X0056801Y0105748D02*
X0058159Y0105748D01*
G75*
G02*
X0058740Y0105167I0000000J-000581D01*
G01*
X0058740Y0104006D01*
G75*
G02*
X0058159Y0103425I-000581J0000000D01*
G01*
X0056801Y0103425D01*
G75*
G02*
X0056220Y0104006I0000000J0000581D01*
G01*
X0056220Y0105167D01*
G75*
G02*
X0056801Y0105748I0000581J0000000D01*
G01*
G37*
G36*
G01*
X0064133Y0138179D02*
X0064133Y0136821D01*
G75*
G02*
X0063553Y0136240I-000581J0000000D01*
G01*
X0062391Y0136240D01*
G75*
G02*
X0061811Y0136821I0000000J0000581D01*
G01*
X0061811Y0138179D01*
G75*
G02*
X0062391Y0138760I0000581J0000000D01*
G01*
X0063553Y0138760D01*
G75*
G02*
X0064133Y0138179I0000000J-000581D01*
G01*
G37*
G36*
G01*
X0060314Y0138179D02*
X0060314Y0136821D01*
G75*
G02*
X0059734Y0136240I-000581J0000000D01*
G01*
X0058572Y0136240D01*
G75*
G02*
X0057992Y0136821I0000000J0000581D01*
G01*
X0057992Y0138179D01*
G75*
G02*
X0058572Y0138760I0000581J0000000D01*
G01*
X0059734Y0138760D01*
G75*
G02*
X0060314Y0138179I0000000J-000581D01*
G01*
G37*
G36*
G01*
X0046545Y0088661D02*
X0045187Y0088661D01*
G75*
G02*
X0044606Y0089242I0000000J0000581D01*
G01*
X0044606Y0090403D01*
G75*
G02*
X0045187Y0090984I0000581J0000000D01*
G01*
X0046545Y0090984D01*
G75*
G02*
X0047126Y0090403I0000000J-000581D01*
G01*
X0047126Y0089242D01*
G75*
G02*
X0046545Y0088661I-000581J0000000D01*
G01*
G37*
G36*
G01*
X0046545Y0092480D02*
X0045187Y0092480D01*
G75*
G02*
X0044606Y0093061I0000000J0000581D01*
G01*
X0044606Y0094222D01*
G75*
G02*
X0045187Y0094803I0000581J0000000D01*
G01*
X0046545Y0094803D01*
G75*
G02*
X0047126Y0094222I0000000J-000581D01*
G01*
X0047126Y0093061D01*
G75*
G02*
X0046545Y0092480I-000581J0000000D01*
G01*
G37*
G36*
G01*
X0041250Y0094803D02*
X0042608Y0094803D01*
G75*
G02*
X0043188Y0094222I0000000J-000581D01*
G01*
X0043188Y0093061D01*
G75*
G02*
X0042608Y0092480I-000581J0000000D01*
G01*
X0041250Y0092480D01*
G75*
G02*
X0040669Y0093061I0000000J0000581D01*
G01*
X0040669Y0094222D01*
G75*
G02*
X0041250Y0094803I0000581J0000000D01*
G01*
G37*
G36*
G01*
X0041250Y0090984D02*
X0042608Y0090984D01*
G75*
G02*
X0043188Y0090403I0000000J-000581D01*
G01*
X0043188Y0089242D01*
G75*
G02*
X0042608Y0088661I-000581J0000000D01*
G01*
X0041250Y0088661D01*
G75*
G02*
X0040669Y0089242I0000000J0000581D01*
G01*
X0040669Y0090403D01*
G75*
G02*
X0041250Y0090984I0000581J0000000D01*
G01*
G37*
G36*
G01*
X0043690Y0047323D02*
X0042332Y0047323D01*
G75*
G02*
X0041751Y0047903I0000000J0000581D01*
G01*
X0041751Y0049065D01*
G75*
G02*
X0042332Y0049645I0000581J0000000D01*
G01*
X0043690Y0049645D01*
G75*
G02*
X0044271Y0049065I0000000J-000581D01*
G01*
X0044271Y0047903D01*
G75*
G02*
X0043690Y0047323I-000581J0000000D01*
G01*
G37*
G36*
G01*
X0043690Y0051142D02*
X0042332Y0051142D01*
G75*
G02*
X0041751Y0051722I0000000J0000581D01*
G01*
X0041751Y0052884D01*
G75*
G02*
X0042332Y0053464I0000581J0000000D01*
G01*
X0043690Y0053464D01*
G75*
G02*
X0044271Y0052884I0000000J-000581D01*
G01*
X0044271Y0051722D01*
G75*
G02*
X0043690Y0051142I-000581J0000000D01*
G01*
G37*
D373*
X0020275Y0101673D03*
X0022834Y0101673D03*
X0025393Y0101673D03*
X0027952Y0101673D03*
X0030511Y0101673D03*
X0033070Y0101673D03*
X0035629Y0101673D03*
X0035629Y0078445D03*
X0033070Y0078445D03*
X0030511Y0078445D03*
X0027952Y0078445D03*
X0025393Y0078445D03*
X0022834Y0078445D03*
X0020275Y0078445D03*
G36*
G01*
X0063769Y0111496D02*
X0062411Y0111496D01*
G75*
G02*
X0061830Y0112077I0000000J0000581D01*
G01*
X0061830Y0113238D01*
G75*
G02*
X0062411Y0113819I0000581J0000000D01*
G01*
X0063769Y0113819D01*
G75*
G02*
X0064350Y0113238I0000000J-000581D01*
G01*
X0064350Y0112077D01*
G75*
G02*
X0063769Y0111496I-000581J0000000D01*
G01*
G37*
G36*
G01*
X0063769Y0115315D02*
X0062411Y0115315D01*
G75*
G02*
X0061830Y0115895I0000000J0000581D01*
G01*
X0061830Y0117057D01*
G75*
G02*
X0062411Y0117638I0000581J0000000D01*
G01*
X0063769Y0117638D01*
G75*
G02*
X0064350Y0117057I0000000J-000581D01*
G01*
X0064350Y0115895D01*
G75*
G02*
X0063769Y0115315I-000581J0000000D01*
G01*
G37*
G36*
G01*
X0066151Y0117638D02*
X0067509Y0117638D01*
G75*
G02*
X0068090Y0117057I0000000J-000581D01*
G01*
X0068090Y0115895D01*
G75*
G02*
X0067509Y0115315I-000581J0000000D01*
G01*
X0066151Y0115315D01*
G75*
G02*
X0065570Y0115895I0000000J0000581D01*
G01*
X0065570Y0117057D01*
G75*
G02*
X0066151Y0117638I0000581J0000000D01*
G01*
G37*
G36*
G01*
X0066151Y0113819D02*
X0067509Y0113819D01*
G75*
G02*
X0068090Y0113238I0000000J-000581D01*
G01*
X0068090Y0112077D01*
G75*
G02*
X0067509Y0111496I-000581J0000000D01*
G01*
X0066151Y0111496D01*
G75*
G02*
X0065570Y0112077I0000000J0000581D01*
G01*
X0065570Y0113238D01*
G75*
G02*
X0066151Y0113819I0000581J0000000D01*
G01*
G37*
G36*
G01*
X0056702Y0057401D02*
X0058061Y0057401D01*
G75*
G02*
X0058641Y0056821I0000000J-000581D01*
G01*
X0058641Y0055659D01*
G75*
G02*
X0058061Y0055079I-000581J0000000D01*
G01*
X0056702Y0055079D01*
G75*
G02*
X0056122Y0055659I0000000J0000581D01*
G01*
X0056122Y0056821D01*
G75*
G02*
X0056702Y0057401I0000581J0000000D01*
G01*
G37*
G36*
G01*
X0056702Y0053582D02*
X0058061Y0053582D01*
G75*
G02*
X0058641Y0053002I0000000J-000581D01*
G01*
X0058641Y0051840D01*
G75*
G02*
X0058061Y0051260I-000581J0000000D01*
G01*
X0056702Y0051260D01*
G75*
G02*
X0056122Y0051840I0000000J0000581D01*
G01*
X0056122Y0053002D01*
G75*
G02*
X0056702Y0053582I0000581J0000000D01*
G01*
G37*
G36*
G01*
X0027404Y0064094D02*
X0028763Y0064094D01*
G75*
G02*
X0029343Y0063514I0000000J-000581D01*
G01*
X0029343Y0062352D01*
G75*
G02*
X0028763Y0061771I-000581J0000000D01*
G01*
X0027404Y0061771D01*
G75*
G02*
X0026824Y0062352I0000000J0000581D01*
G01*
X0026824Y0063514D01*
G75*
G02*
X0027404Y0064094I0000581J0000000D01*
G01*
G37*
G36*
G01*
X0027404Y0060275D02*
X0028763Y0060275D01*
G75*
G02*
X0029343Y0059695I0000000J-000581D01*
G01*
X0029343Y0058533D01*
G75*
G02*
X0028763Y0057953I-000581J0000000D01*
G01*
X0027404Y0057953D01*
G75*
G02*
X0026824Y0058533I0000000J0000581D01*
G01*
X0026824Y0059695D01*
G75*
G02*
X0027404Y0060275I0000581J0000000D01*
G01*
G37*
G36*
G01*
X0050482Y0091909D02*
X0049124Y0091909D01*
G75*
G02*
X0048543Y0092490I0000000J0000581D01*
G01*
X0048543Y0093651D01*
G75*
G02*
X0049124Y0094232I0000581J0000000D01*
G01*
X0050482Y0094232D01*
G75*
G02*
X0051063Y0093651I0000000J-000581D01*
G01*
X0051063Y0092490D01*
G75*
G02*
X0050482Y0091909I-000581J0000000D01*
G01*
G37*
G36*
G01*
X0050482Y0095728D02*
X0049124Y0095728D01*
G75*
G02*
X0048543Y0096309I0000000J0000581D01*
G01*
X0048543Y0097470D01*
G75*
G02*
X0049124Y0098051I0000581J0000000D01*
G01*
X0050482Y0098051D01*
G75*
G02*
X0051063Y0097470I0000000J-000581D01*
G01*
X0051063Y0096309D01*
G75*
G02*
X0050482Y0095728I-000581J0000000D01*
G01*
G37*
G36*
G01*
X0058061Y0043582D02*
X0056702Y0043582D01*
G75*
G02*
X0056122Y0044163I0000000J0000581D01*
G01*
X0056122Y0045325D01*
G75*
G02*
X0056702Y0045905I0000581J0000000D01*
G01*
X0058061Y0045905D01*
G75*
G02*
X0058641Y0045325I0000000J-000581D01*
G01*
X0058641Y0044163D01*
G75*
G02*
X0058061Y0043582I-000581J0000000D01*
G01*
G37*
G36*
G01*
X0058061Y0047401D02*
X0056702Y0047401D01*
G75*
G02*
X0056122Y0047982I0000000J0000581D01*
G01*
X0056122Y0049143D01*
G75*
G02*
X0056702Y0049724I0000581J0000000D01*
G01*
X0058061Y0049724D01*
G75*
G02*
X0058641Y0049143I0000000J-000581D01*
G01*
X0058641Y0047982D01*
G75*
G02*
X0058061Y0047401I-000581J0000000D01*
G01*
G37*
G36*
G01*
X0042608Y0096043D02*
X0041250Y0096043D01*
G75*
G02*
X0040669Y0096624I0000000J0000581D01*
G01*
X0040669Y0097785D01*
G75*
G02*
X0041250Y0098366I0000581J0000000D01*
G01*
X0042608Y0098366D01*
G75*
G02*
X0043188Y0097785I0000000J-000581D01*
G01*
X0043188Y0096624D01*
G75*
G02*
X0042608Y0096043I-000581J0000000D01*
G01*
G37*
G36*
G01*
X0042608Y0099862D02*
X0041250Y0099862D01*
G75*
G02*
X0040669Y0100443I0000000J0000581D01*
G01*
X0040669Y0101604D01*
G75*
G02*
X0041250Y0102185I0000581J0000000D01*
G01*
X0042608Y0102185D01*
G75*
G02*
X0043188Y0101604I0000000J-000581D01*
G01*
X0043188Y0100443D01*
G75*
G02*
X0042608Y0099862I-000581J0000000D01*
G01*
G37*
G36*
G01*
X0017992Y0107293D02*
X0017992Y0108651D01*
G75*
G02*
X0018572Y0109232I0000581J0000000D01*
G01*
X0019734Y0109232D01*
G75*
G02*
X0020314Y0108651I0000000J-000581D01*
G01*
X0020314Y0107293D01*
G75*
G02*
X0019734Y0106712I-000581J0000000D01*
G01*
X0018572Y0106712D01*
G75*
G02*
X0017992Y0107293I0000000J0000581D01*
G01*
G37*
G36*
G01*
X0021811Y0107293D02*
X0021811Y0108651D01*
G75*
G02*
X0022391Y0109232I0000581J0000000D01*
G01*
X0023553Y0109232D01*
G75*
G02*
X0024133Y0108651I0000000J-000581D01*
G01*
X0024133Y0107293D01*
G75*
G02*
X0023553Y0106712I-000581J0000000D01*
G01*
X0022391Y0106712D01*
G75*
G02*
X0021811Y0107293I0000000J0000581D01*
G01*
G37*
G36*
G01*
X0046545Y0081181D02*
X0045187Y0081181D01*
G75*
G02*
X0044606Y0081762I0000000J0000581D01*
G01*
X0044606Y0082923D01*
G75*
G02*
X0045187Y0083504I0000581J0000000D01*
G01*
X0046545Y0083504D01*
G75*
G02*
X0047126Y0082923I0000000J-000581D01*
G01*
X0047126Y0081762D01*
G75*
G02*
X0046545Y0081181I-000581J0000000D01*
G01*
G37*
G36*
G01*
X0046545Y0085000D02*
X0045187Y0085000D01*
G75*
G02*
X0044606Y0085580I0000000J0000581D01*
G01*
X0044606Y0086742D01*
G75*
G02*
X0045187Y0087323I0000581J0000000D01*
G01*
X0046545Y0087323D01*
G75*
G02*
X0047126Y0086742I0000000J-000581D01*
G01*
X0047126Y0085580D01*
G75*
G02*
X0046545Y0085000I-000581J0000000D01*
G01*
G37*
G36*
G01*
X0045187Y0079842D02*
X0046545Y0079842D01*
G75*
G02*
X0047126Y0079262I0000000J-000581D01*
G01*
X0047126Y0078100D01*
G75*
G02*
X0046545Y0077519I-000581J0000000D01*
G01*
X0045187Y0077519D01*
G75*
G02*
X0044606Y0078100I0000000J0000581D01*
G01*
X0044606Y0079262D01*
G75*
G02*
X0045187Y0079842I0000581J0000000D01*
G01*
G37*
G36*
G01*
X0045187Y0076023D02*
X0046545Y0076023D01*
G75*
G02*
X0047126Y0075443I0000000J-000581D01*
G01*
X0047126Y0074281D01*
G75*
G02*
X0046545Y0073701I-000581J0000000D01*
G01*
X0045187Y0073701D01*
G75*
G02*
X0044606Y0074281I0000000J0000581D01*
G01*
X0044606Y0075443D01*
G75*
G02*
X0045187Y0076023I0000581J0000000D01*
G01*
G37*
G36*
G01*
X0017992Y0111033D02*
X0017992Y0112392D01*
G75*
G02*
X0018572Y0112972I0000581J0000000D01*
G01*
X0019734Y0112972D01*
G75*
G02*
X0020314Y0112392I0000000J-000581D01*
G01*
X0020314Y0111033D01*
G75*
G02*
X0019734Y0110453I-000581J0000000D01*
G01*
X0018572Y0110453D01*
G75*
G02*
X0017992Y0111033I0000000J0000581D01*
G01*
G37*
G36*
G01*
X0021811Y0111033D02*
X0021811Y0112392D01*
G75*
G02*
X0022391Y0112972I0000581J0000000D01*
G01*
X0023553Y0112972D01*
G75*
G02*
X0024133Y0112392I0000000J-000581D01*
G01*
X0024133Y0111033D01*
G75*
G02*
X0023553Y0110453I-000581J0000000D01*
G01*
X0022391Y0110453D01*
G75*
G02*
X0021811Y0111033I0000000J0000581D01*
G01*
G37*
D374*
X0066830Y0121712D03*
X0063090Y0121712D03*
X0059350Y0121712D03*
X0059350Y0132027D03*
X0066830Y0132027D03*
G36*
G01*
X0049124Y0087224D02*
X0050482Y0087224D01*
G75*
G02*
X0051063Y0086643I0000000J-000581D01*
G01*
X0051063Y0085482D01*
G75*
G02*
X0050482Y0084901I-000581J0000000D01*
G01*
X0049124Y0084901D01*
G75*
G02*
X0048543Y0085482I0000000J0000581D01*
G01*
X0048543Y0086643D01*
G75*
G02*
X0049124Y0087224I0000581J0000000D01*
G01*
G37*
G36*
G01*
X0049124Y0083405D02*
X0050482Y0083405D01*
G75*
G02*
X0051063Y0082825I0000000J-000581D01*
G01*
X0051063Y0081663D01*
G75*
G02*
X0050482Y0081082I-000581J0000000D01*
G01*
X0049124Y0081082D01*
G75*
G02*
X0048543Y0081663I0000000J0000581D01*
G01*
X0048543Y0082825D01*
G75*
G02*
X0049124Y0083405I0000581J0000000D01*
G01*
G37*
G36*
G01*
X0053228Y0099813D02*
X0053228Y0101171D01*
G75*
G02*
X0053809Y0101752I0000581J0000000D01*
G01*
X0054970Y0101752D01*
G75*
G02*
X0055551Y0101171I0000000J-000581D01*
G01*
X0055551Y0099813D01*
G75*
G02*
X0054970Y0099232I-000581J0000000D01*
G01*
X0053809Y0099232D01*
G75*
G02*
X0053228Y0099813I0000000J0000581D01*
G01*
G37*
G36*
G01*
X0057047Y0099813D02*
X0057047Y0101171D01*
G75*
G02*
X0057627Y0101752I0000581J0000000D01*
G01*
X0058789Y0101752D01*
G75*
G02*
X0059370Y0101171I0000000J-000581D01*
G01*
X0059370Y0099813D01*
G75*
G02*
X0058789Y0099232I-000581J0000000D01*
G01*
X0057627Y0099232D01*
G75*
G02*
X0057047Y0099813I0000000J0000581D01*
G01*
G37*
G36*
G01*
X0032795Y0108651D02*
X0032795Y0107293D01*
G75*
G02*
X0032214Y0106712I-000581J0000000D01*
G01*
X0031053Y0106712D01*
G75*
G02*
X0030472Y0107293I0000000J0000581D01*
G01*
X0030472Y0108651D01*
G75*
G02*
X0031053Y0109232I0000581J0000000D01*
G01*
X0032214Y0109232D01*
G75*
G02*
X0032795Y0108651I0000000J-000581D01*
G01*
G37*
G36*
G01*
X0028976Y0108651D02*
X0028976Y0107293D01*
G75*
G02*
X0028395Y0106712I-000581J0000000D01*
G01*
X0027234Y0106712D01*
G75*
G02*
X0026653Y0107293I0000000J0000581D01*
G01*
X0026653Y0108651D01*
G75*
G02*
X0027234Y0109232I0000581J0000000D01*
G01*
X0028395Y0109232D01*
G75*
G02*
X0028976Y0108651I0000000J-000581D01*
G01*
G37*
G36*
G01*
X0033750Y0065531D02*
X0032391Y0065531D01*
G75*
G02*
X0031811Y0066112I0000000J0000581D01*
G01*
X0031811Y0067273D01*
G75*
G02*
X0032391Y0067854I0000581J0000000D01*
G01*
X0033750Y0067854D01*
G75*
G02*
X0034330Y0067273I0000000J-000581D01*
G01*
X0034330Y0066112D01*
G75*
G02*
X0033750Y0065531I-000581J0000000D01*
G01*
G37*
G36*
G01*
X0033750Y0069350D02*
X0032391Y0069350D01*
G75*
G02*
X0031811Y0069931I0000000J0000581D01*
G01*
X0031811Y0071092D01*
G75*
G02*
X0032391Y0071673I0000581J0000000D01*
G01*
X0033750Y0071673D01*
G75*
G02*
X0034330Y0071092I0000000J-000581D01*
G01*
X0034330Y0069931D01*
G75*
G02*
X0033750Y0069350I-000581J0000000D01*
G01*
G37*
G36*
G01*
X0033750Y0057953D02*
X0032391Y0057953D01*
G75*
G02*
X0031811Y0058533I0000000J0000581D01*
G01*
X0031811Y0059695D01*
G75*
G02*
X0032391Y0060275I0000581J0000000D01*
G01*
X0033750Y0060275D01*
G75*
G02*
X0034330Y0059695I0000000J-000581D01*
G01*
X0034330Y0058533D01*
G75*
G02*
X0033750Y0057953I-000581J0000000D01*
G01*
G37*
G36*
G01*
X0033750Y0061771D02*
X0032391Y0061771D01*
G75*
G02*
X0031811Y0062352I0000000J0000581D01*
G01*
X0031811Y0063514D01*
G75*
G02*
X0032391Y0064094I0000581J0000000D01*
G01*
X0033750Y0064094D01*
G75*
G02*
X0034330Y0063514I0000000J-000581D01*
G01*
X0034330Y0062352D01*
G75*
G02*
X0033750Y0061771I-000581J0000000D01*
G01*
G37*
G36*
G01*
X0032795Y0112392D02*
X0032795Y0111033D01*
G75*
G02*
X0032214Y0110453I-000581J0000000D01*
G01*
X0031053Y0110453D01*
G75*
G02*
X0030472Y0111033I0000000J0000581D01*
G01*
X0030472Y0112392D01*
G75*
G02*
X0031053Y0112972I0000581J0000000D01*
G01*
X0032214Y0112972D01*
G75*
G02*
X0032795Y0112392I0000000J-000581D01*
G01*
G37*
G36*
G01*
X0028976Y0112392D02*
X0028976Y0111033D01*
G75*
G02*
X0028395Y0110453I-000581J0000000D01*
G01*
X0027234Y0110453D01*
G75*
G02*
X0026653Y0111033I0000000J0000581D01*
G01*
X0026653Y0112392D01*
G75*
G02*
X0027234Y0112972I0000581J0000000D01*
G01*
X0028395Y0112972D01*
G75*
G02*
X0028976Y0112392I0000000J-000581D01*
G01*
G37*
G36*
G01*
X0042608Y0078031D02*
X0041250Y0078031D01*
G75*
G02*
X0040669Y0078612I0000000J0000581D01*
G01*
X0040669Y0079773D01*
G75*
G02*
X0041250Y0080354I0000581J0000000D01*
G01*
X0042608Y0080354D01*
G75*
G02*
X0043188Y0079773I0000000J-000581D01*
G01*
X0043188Y0078612D01*
G75*
G02*
X0042608Y0078031I-000581J0000000D01*
G01*
G37*
G36*
G01*
X0042608Y0081850D02*
X0041250Y0081850D01*
G75*
G02*
X0040669Y0082431I0000000J0000581D01*
G01*
X0040669Y0083592D01*
G75*
G02*
X0041250Y0084173I0000581J0000000D01*
G01*
X0042608Y0084173D01*
G75*
G02*
X0043188Y0083592I0000000J-000581D01*
G01*
X0043188Y0082431D01*
G75*
G02*
X0042608Y0081850I-000581J0000000D01*
G01*
G37*
G36*
G01*
X0032795Y0116132D02*
X0032795Y0114773D01*
G75*
G02*
X0032214Y0114193I-000581J0000000D01*
G01*
X0031053Y0114193D01*
G75*
G02*
X0030472Y0114773I0000000J0000581D01*
G01*
X0030472Y0116132D01*
G75*
G02*
X0031053Y0116712I0000581J0000000D01*
G01*
X0032214Y0116712D01*
G75*
G02*
X0032795Y0116132I0000000J-000581D01*
G01*
G37*
G36*
G01*
X0028976Y0116132D02*
X0028976Y0114773D01*
G75*
G02*
X0028395Y0114193I-000581J0000000D01*
G01*
X0027234Y0114193D01*
G75*
G02*
X0026653Y0114773I0000000J0000581D01*
G01*
X0026653Y0116132D01*
G75*
G02*
X0027234Y0116712I0000581J0000000D01*
G01*
X0028395Y0116712D01*
G75*
G02*
X0028976Y0116132I0000000J-000581D01*
G01*
G37*
G36*
G01*
X0024133Y0116132D02*
X0024133Y0114773D01*
G75*
G02*
X0023553Y0114193I-000581J0000000D01*
G01*
X0022391Y0114193D01*
G75*
G02*
X0021811Y0114773I0000000J0000581D01*
G01*
X0021811Y0116132D01*
G75*
G02*
X0022391Y0116712I0000581J0000000D01*
G01*
X0023553Y0116712D01*
G75*
G02*
X0024133Y0116132I0000000J-000581D01*
G01*
G37*
G36*
G01*
X0020314Y0116132D02*
X0020314Y0114773D01*
G75*
G02*
X0019734Y0114193I-000581J0000000D01*
G01*
X0018572Y0114193D01*
G75*
G02*
X0017992Y0114773I0000000J0000581D01*
G01*
X0017992Y0116132D01*
G75*
G02*
X0018572Y0116712I0000581J0000000D01*
G01*
X0019734Y0116712D01*
G75*
G02*
X0020314Y0116132I0000000J-000581D01*
G01*
G37*
G36*
G01*
X0029940Y0130945D02*
X0031279Y0130945D01*
G75*
G02*
X0031830Y0130394I0000000J-000551D01*
G01*
X0031830Y0129291D01*
G75*
G02*
X0031279Y0128740I-000551J0000000D01*
G01*
X0029940Y0128740D01*
G75*
G02*
X0029389Y0129291I0000000J0000551D01*
G01*
X0029389Y0130394D01*
G75*
G02*
X0029940Y0130945I0000551J0000000D01*
G01*
G37*
G36*
G01*
X0029940Y0127165D02*
X0031279Y0127165D01*
G75*
G02*
X0031830Y0126614I0000000J-000551D01*
G01*
X0031830Y0125512D01*
G75*
G02*
X0031279Y0124961I-000551J0000000D01*
G01*
X0029940Y0124961D01*
G75*
G02*
X0029389Y0125512I0000000J0000551D01*
G01*
X0029389Y0126614D01*
G75*
G02*
X0029940Y0127165I0000551J0000000D01*
G01*
G37*
G36*
G01*
X0056200Y0076004D02*
X0054744Y0076004D01*
G75*
G02*
X0054212Y0076535I0000000J0000531D01*
G01*
X0054212Y0077598D01*
G75*
G02*
X0054744Y0078130I0000531J0000000D01*
G01*
X0056200Y0078130D01*
G75*
G02*
X0056732Y0077598I0000000J-000531D01*
G01*
X0056732Y0076535D01*
G75*
G02*
X0056200Y0076004I-000531J0000000D01*
G01*
G37*
G36*
G01*
X0056200Y0080019D02*
X0054744Y0080019D01*
G75*
G02*
X0054212Y0080551I0000000J0000531D01*
G01*
X0054212Y0081614D01*
G75*
G02*
X0054744Y0082145I0000531J0000000D01*
G01*
X0056200Y0082145D01*
G75*
G02*
X0056732Y0081614I0000000J-000531D01*
G01*
X0056732Y0080551D01*
G75*
G02*
X0056200Y0080019I-000531J0000000D01*
G01*
G37*
G36*
G01*
X0041667Y0136732D02*
X0041667Y0138189D01*
G75*
G02*
X0042199Y0138720I0000531J0000000D01*
G01*
X0043262Y0138720D01*
G75*
G02*
X0043793Y0138189I0000000J-000531D01*
G01*
X0043793Y0136732D01*
G75*
G02*
X0043262Y0136201I-000531J0000000D01*
G01*
X0042199Y0136201D01*
G75*
G02*
X0041667Y0136732I0000000J0000531D01*
G01*
G37*
G36*
G01*
X0045683Y0136732D02*
X0045683Y0138189D01*
G75*
G02*
X0046215Y0138720I0000531J0000000D01*
G01*
X0047278Y0138720D01*
G75*
G02*
X0047809Y0138189I0000000J-000531D01*
G01*
X0047809Y0136732D01*
G75*
G02*
X0047278Y0136201I-000531J0000000D01*
G01*
X0046215Y0136201D01*
G75*
G02*
X0045683Y0136732I0000000J0000531D01*
G01*
G37*
G36*
G01*
X0017716Y0136122D02*
X0018897Y0136122D01*
G75*
G02*
X0019488Y0135531I0000000J-000591D01*
G01*
X0019488Y0130905D01*
G75*
G02*
X0018897Y0130315I-000591J0000000D01*
G01*
X0017716Y0130315D01*
G75*
G02*
X0017126Y0130905I0000000J0000591D01*
G01*
X0017126Y0135531D01*
G75*
G02*
X0017716Y0136122I0000591J0000000D01*
G01*
G37*
G36*
G01*
X0025196Y0136122D02*
X0026377Y0136122D01*
G75*
G02*
X0026968Y0135531I0000000J-000591D01*
G01*
X0026968Y0130905D01*
G75*
G02*
X0026377Y0130315I-000591J0000000D01*
G01*
X0025196Y0130315D01*
G75*
G02*
X0024606Y0130905I0000000J0000591D01*
G01*
X0024606Y0135531D01*
G75*
G02*
X0025196Y0136122I0000591J0000000D01*
G01*
G37*
G36*
G01*
X0021456Y0128740D02*
X0022637Y0128740D01*
G75*
G02*
X0023228Y0128149I0000000J-000591D01*
G01*
X0023228Y0123523D01*
G75*
G02*
X0022637Y0122933I-000591J0000000D01*
G01*
X0021456Y0122933D01*
G75*
G02*
X0020866Y0123523I0000000J0000591D01*
G01*
X0020866Y0128149D01*
G75*
G02*
X0021456Y0128740I0000591J0000000D01*
G01*
G37*
G36*
G01*
X0055648Y0138169D02*
X0055648Y0136830D01*
G75*
G02*
X0055096Y0136279I-000551J0000000D01*
G01*
X0053994Y0136279D01*
G75*
G02*
X0053443Y0136830I0000000J0000551D01*
G01*
X0053443Y0138169D01*
G75*
G02*
X0053994Y0138720I0000551J0000000D01*
G01*
X0055096Y0138720D01*
G75*
G02*
X0055648Y0138169I0000000J-000551D01*
G01*
G37*
G36*
G01*
X0051868Y0138169D02*
X0051868Y0136830D01*
G75*
G02*
X0051317Y0136279I-000551J0000000D01*
G01*
X0050215Y0136279D01*
G75*
G02*
X0049663Y0136830I0000000J0000551D01*
G01*
X0049663Y0138169D01*
G75*
G02*
X0050215Y0138720I0000551J0000000D01*
G01*
X0051317Y0138720D01*
G75*
G02*
X0051868Y0138169I0000000J-000551D01*
G01*
G37*
G36*
G01*
X0052577Y0107382D02*
X0051396Y0107382D01*
G75*
G02*
X0050805Y0107972I0000000J0000591D01*
G01*
X0050805Y0113681D01*
G75*
G02*
X0051396Y0114271I0000591J0000000D01*
G01*
X0052577Y0114271D01*
G75*
G02*
X0053167Y0113681I0000000J-000591D01*
G01*
X0053167Y0107972D01*
G75*
G02*
X0052577Y0107382I-000591J0000000D01*
G01*
G37*
G36*
G01*
X0047577Y0107382D02*
X0046396Y0107382D01*
G75*
G02*
X0045805Y0107972I0000000J0000591D01*
G01*
X0045805Y0113681D01*
G75*
G02*
X0046396Y0114271I0000591J0000000D01*
G01*
X0047577Y0114271D01*
G75*
G02*
X0048167Y0113681I0000000J-000591D01*
G01*
X0048167Y0107972D01*
G75*
G02*
X0047577Y0107382I-000591J0000000D01*
G01*
G37*
G36*
G01*
X0042577Y0107382D02*
X0041396Y0107382D01*
G75*
G02*
X0040805Y0107972I0000000J0000591D01*
G01*
X0040805Y0113681D01*
G75*
G02*
X0041396Y0114271I0000591J0000000D01*
G01*
X0042577Y0114271D01*
G75*
G02*
X0043167Y0113681I0000000J-000591D01*
G01*
X0043167Y0107972D01*
G75*
G02*
X0042577Y0107382I-000591J0000000D01*
G01*
G37*
G36*
G01*
X0037577Y0107382D02*
X0036396Y0107382D01*
G75*
G02*
X0035805Y0107972I0000000J0000591D01*
G01*
X0035805Y0113681D01*
G75*
G02*
X0036396Y0114271I0000591J0000000D01*
G01*
X0037577Y0114271D01*
G75*
G02*
X0038167Y0113681I0000000J-000591D01*
G01*
X0038167Y0107972D01*
G75*
G02*
X0037577Y0107382I-000591J0000000D01*
G01*
G37*
G36*
G01*
X0037577Y0127657D02*
X0036396Y0127657D01*
G75*
G02*
X0035805Y0128248I0000000J0000591D01*
G01*
X0035805Y0133956D01*
G75*
G02*
X0036396Y0134547I0000591J0000000D01*
G01*
X0037577Y0134547D01*
G75*
G02*
X0038167Y0133956I0000000J-000591D01*
G01*
X0038167Y0128248D01*
G75*
G02*
X0037577Y0127657I-000591J0000000D01*
G01*
G37*
G36*
G01*
X0042577Y0127657D02*
X0041396Y0127657D01*
G75*
G02*
X0040805Y0128248I0000000J0000591D01*
G01*
X0040805Y0133956D01*
G75*
G02*
X0041396Y0134547I0000591J0000000D01*
G01*
X0042577Y0134547D01*
G75*
G02*
X0043167Y0133956I0000000J-000591D01*
G01*
X0043167Y0128248D01*
G75*
G02*
X0042577Y0127657I-000591J0000000D01*
G01*
G37*
G36*
G01*
X0047577Y0127657D02*
X0046396Y0127657D01*
G75*
G02*
X0045805Y0128248I0000000J0000591D01*
G01*
X0045805Y0133956D01*
G75*
G02*
X0046396Y0134547I0000591J0000000D01*
G01*
X0047577Y0134547D01*
G75*
G02*
X0048167Y0133956I0000000J-000591D01*
G01*
X0048167Y0128248D01*
G75*
G02*
X0047577Y0127657I-000591J0000000D01*
G01*
G37*
G36*
G01*
X0052577Y0127657D02*
X0051396Y0127657D01*
G75*
G02*
X0050805Y0128248I0000000J0000591D01*
G01*
X0050805Y0133956D01*
G75*
G02*
X0051396Y0134547I0000591J0000000D01*
G01*
X0052577Y0134547D01*
G75*
G02*
X0053167Y0133956I0000000J-000591D01*
G01*
X0053167Y0128248D01*
G75*
G02*
X0052577Y0127657I-000591J0000000D01*
G01*
G37*
M02*
