G75*
G70*
%OFA0B0*%
%FSLAX25Y25*%
%IPPOS*%
%LPD*%
%AMOC8*
5,1,8,0,0,1.08239X$1,22.5*
%
%AMM116*
21,1,0.025200,0.019680,-0.000000,0.000000,90.000000*
21,1,0.015750,0.029130,-0.000000,0.000000,90.000000*
1,1,0.009450,0.009840,0.007870*
1,1,0.009450,0.009840,-0.007870*
1,1,0.009450,-0.009840,-0.007870*
1,1,0.009450,-0.009840,0.007870*
%
%AMM117*
21,1,0.025200,0.019680,-0.000000,0.000000,0.000000*
21,1,0.015750,0.029130,-0.000000,0.000000,0.000000*
1,1,0.009450,0.007870,-0.009840*
1,1,0.009450,-0.007870,-0.009840*
1,1,0.009450,-0.007870,0.009840*
1,1,0.009450,0.007870,0.009840*
%
%AMM124*
21,1,0.038980,0.026770,-0.000000,0.000000,0.000000*
21,1,0.026770,0.038980,-0.000000,0.000000,0.000000*
1,1,0.012210,0.013390,-0.013390*
1,1,0.012210,-0.013390,-0.013390*
1,1,0.012210,-0.013390,0.013390*
1,1,0.012210,0.013390,0.013390*
%
%AMM125*
21,1,0.029130,0.018900,-0.000000,0.000000,270.000000*
21,1,0.018900,0.029130,-0.000000,0.000000,270.000000*
1,1,0.010240,-0.009450,-0.009450*
1,1,0.010240,-0.009450,0.009450*
1,1,0.010240,0.009450,0.009450*
1,1,0.010240,0.009450,-0.009450*
%
%AMM183*
21,1,0.041340,0.026770,0.000000,-0.000000,270.000000*
21,1,0.029130,0.038980,0.000000,-0.000000,270.000000*
1,1,0.012210,-0.013390,-0.014570*
1,1,0.012210,-0.013390,0.014570*
1,1,0.012210,0.013390,0.014570*
1,1,0.012210,0.013390,-0.014570*
%
%AMM184*
21,1,0.076380,0.036220,0.000000,-0.000000,0.000000*
21,1,0.061810,0.050790,0.000000,-0.000000,0.000000*
1,1,0.014570,0.030910,-0.018110*
1,1,0.014570,-0.030910,-0.018110*
1,1,0.014570,-0.030910,0.018110*
1,1,0.014570,0.030910,0.018110*
%
%AMM187*
21,1,0.029130,0.018900,0.000000,-0.000000,0.000000*
21,1,0.018900,0.029130,0.000000,-0.000000,0.000000*
1,1,0.010240,0.009450,-0.009450*
1,1,0.010240,-0.009450,-0.009450*
1,1,0.010240,-0.009450,0.009450*
1,1,0.010240,0.009450,0.009450*
%
%AMM188*
21,1,0.025200,0.019680,0.000000,-0.000000,270.000000*
21,1,0.015750,0.029130,0.000000,-0.000000,270.000000*
1,1,0.009450,-0.009840,-0.007870*
1,1,0.009450,-0.009840,0.007870*
1,1,0.009450,0.009840,0.007870*
1,1,0.009450,0.009840,-0.007870*
%
%AMM189*
21,1,0.025200,0.019680,0.000000,-0.000000,180.000000*
21,1,0.015750,0.029130,0.000000,-0.000000,180.000000*
1,1,0.009450,-0.007870,0.009840*
1,1,0.009450,0.007870,0.009840*
1,1,0.009450,0.007870,-0.009840*
1,1,0.009450,-0.007870,-0.009840*
%
%AMM195*
21,1,0.111810,0.050390,0.000000,-0.000000,0.000000*
21,1,0.093700,0.068500,0.000000,-0.000000,0.000000*
1,1,0.018110,0.046850,-0.025200*
1,1,0.018110,-0.046850,-0.025200*
1,1,0.018110,-0.046850,0.025200*
1,1,0.018110,0.046850,0.025200*
%
%AMM196*
21,1,0.038980,0.026770,0.000000,-0.000000,180.000000*
21,1,0.026770,0.038980,0.000000,-0.000000,180.000000*
1,1,0.012210,-0.013390,0.013390*
1,1,0.012210,0.013390,0.013390*
1,1,0.012210,0.013390,-0.013390*
1,1,0.012210,-0.013390,-0.013390*
%
%AMM197*
21,1,0.029130,0.018900,0.000000,-0.000000,90.000000*
21,1,0.018900,0.029130,0.000000,-0.000000,90.000000*
1,1,0.010240,0.009450,0.009450*
1,1,0.010240,0.009450,-0.009450*
1,1,0.010240,-0.009450,-0.009450*
1,1,0.010240,-0.009450,0.009450*
%
%AMM198*
21,1,0.127560,0.075590,0.000000,-0.000000,90.000000*
21,1,0.103150,0.100000,0.000000,-0.000000,90.000000*
1,1,0.024410,0.037800,0.051580*
1,1,0.024410,0.037800,-0.051580*
1,1,0.024410,-0.037800,-0.051580*
1,1,0.024410,-0.037800,0.051580*
%
%AMM199*
21,1,0.123620,0.083460,0.000000,-0.000000,270.000000*
21,1,0.097240,0.109840,0.000000,-0.000000,270.000000*
1,1,0.026380,-0.041730,-0.048620*
1,1,0.026380,-0.041730,0.048620*
1,1,0.026380,0.041730,0.048620*
1,1,0.026380,0.041730,-0.048620*
%
%AMM271*
21,1,0.029530,0.026380,-0.000000,-0.000000,90.000000*
21,1,0.020470,0.035430,-0.000000,-0.000000,90.000000*
1,1,0.009060,0.013190,0.010240*
1,1,0.009060,0.013190,-0.010240*
1,1,0.009060,-0.013190,-0.010240*
1,1,0.009060,-0.013190,0.010240*
%
%AMM272*
21,1,0.021650,0.027950,-0.000000,-0.000000,90.000000*
21,1,0.014170,0.035430,-0.000000,-0.000000,90.000000*
1,1,0.007480,0.013980,0.007090*
1,1,0.007480,0.013980,-0.007090*
1,1,0.007480,-0.013980,-0.007090*
1,1,0.007480,-0.013980,0.007090*
%
%AMM275*
21,1,0.031500,0.018900,-0.000000,-0.000000,270.000000*
21,1,0.022840,0.027560,-0.000000,-0.000000,270.000000*
1,1,0.008660,-0.009450,-0.011420*
1,1,0.008660,-0.009450,0.011420*
1,1,0.008660,0.009450,0.011420*
1,1,0.008660,0.009450,-0.011420*
%
%AMM277*
21,1,0.031500,0.018900,-0.000000,-0.000000,0.000000*
21,1,0.022840,0.027560,-0.000000,-0.000000,0.000000*
1,1,0.008660,0.011420,-0.009450*
1,1,0.008660,-0.011420,-0.009450*
1,1,0.008660,-0.011420,0.009450*
1,1,0.008660,0.011420,0.009450*
%
%AMM279*
21,1,0.039370,0.030320,-0.000000,-0.000000,90.000000*
21,1,0.028350,0.041340,-0.000000,-0.000000,90.000000*
1,1,0.011020,0.015160,0.014170*
1,1,0.011020,0.015160,-0.014170*
1,1,0.011020,-0.015160,-0.014170*
1,1,0.011020,-0.015160,0.014170*
%
%AMM282*
21,1,0.031500,0.030710,-0.000000,-0.000000,180.000000*
21,1,0.022050,0.040160,-0.000000,-0.000000,180.000000*
1,1,0.009450,-0.011020,0.015350*
1,1,0.009450,0.011020,0.015350*
1,1,0.009450,0.011020,-0.015350*
1,1,0.009450,-0.011020,-0.015350*
%
%AMM297*
21,1,0.037400,0.026770,-0.000000,-0.000000,270.000000*
21,1,0.026770,0.037400,-0.000000,-0.000000,270.000000*
1,1,0.010630,-0.013390,-0.013390*
1,1,0.010630,-0.013390,0.013390*
1,1,0.010630,0.013390,0.013390*
1,1,0.010630,0.013390,-0.013390*
%
%AMM298*
21,1,0.029530,0.026380,-0.000000,-0.000000,180.000000*
21,1,0.020470,0.035430,-0.000000,-0.000000,180.000000*
1,1,0.009060,-0.010240,0.013190*
1,1,0.009060,0.010240,0.013190*
1,1,0.009060,0.010240,-0.013190*
1,1,0.009060,-0.010240,-0.013190*
%
%AMM299*
21,1,0.021650,0.027950,-0.000000,-0.000000,180.000000*
21,1,0.014170,0.035430,-0.000000,-0.000000,180.000000*
1,1,0.007480,-0.007090,0.013980*
1,1,0.007480,0.007090,0.013980*
1,1,0.007480,0.007090,-0.013980*
1,1,0.007480,-0.007090,-0.013980*
%
%AMM300*
21,1,0.037400,0.026770,-0.000000,-0.000000,180.000000*
21,1,0.026770,0.037400,-0.000000,-0.000000,180.000000*
1,1,0.010630,-0.013390,0.013390*
1,1,0.010630,0.013390,0.013390*
1,1,0.010630,0.013390,-0.013390*
1,1,0.010630,-0.013390,-0.013390*
%
%AMM301*
21,1,0.082680,0.045670,-0.000000,-0.000000,0.000000*
21,1,0.067320,0.061020,-0.000000,-0.000000,0.000000*
1,1,0.015350,0.033660,-0.022840*
1,1,0.015350,-0.033660,-0.022840*
1,1,0.015350,-0.033660,0.022840*
1,1,0.015350,0.033660,0.022840*
%
%AMM302*
21,1,0.062990,0.020470,-0.000000,-0.000000,0.000000*
21,1,0.053940,0.029530,-0.000000,-0.000000,0.000000*
1,1,0.009060,0.026970,-0.010240*
1,1,0.009060,-0.026970,-0.010240*
1,1,0.009060,-0.026970,0.010240*
1,1,0.009060,0.026970,0.010240*
%
%AMM303*
21,1,0.039370,0.030320,-0.000000,-0.000000,0.000000*
21,1,0.028350,0.041340,-0.000000,-0.000000,0.000000*
1,1,0.011020,0.014170,-0.015160*
1,1,0.011020,-0.014170,-0.015160*
1,1,0.011020,-0.014170,0.015160*
1,1,0.011020,0.014170,0.015160*
%
%AMM304*
21,1,0.016540,0.028980,-0.000000,-0.000000,0.000000*
21,1,0.010080,0.035430,-0.000000,-0.000000,0.000000*
1,1,0.006460,0.005040,-0.014490*
1,1,0.006460,-0.005040,-0.014490*
1,1,0.006460,-0.005040,0.014490*
1,1,0.006460,0.005040,0.014490*
%
%AMM305*
21,1,0.074800,0.036220,-0.000000,-0.000000,180.000000*
21,1,0.061810,0.049210,-0.000000,-0.000000,180.000000*
1,1,0.012990,-0.030910,0.018110*
1,1,0.012990,0.030910,0.018110*
1,1,0.012990,0.030910,-0.018110*
1,1,0.012990,-0.030910,-0.018110*
%
%AMM306*
21,1,0.039760,0.026770,-0.000000,-0.000000,180.000000*
21,1,0.029130,0.037400,-0.000000,-0.000000,180.000000*
1,1,0.010630,-0.014570,0.013390*
1,1,0.010630,0.014570,0.013390*
1,1,0.010630,0.014570,-0.013390*
1,1,0.010630,-0.014570,-0.013390*
%
%AMM307*
21,1,0.031500,0.049610,-0.000000,-0.000000,180.000000*
21,1,0.022050,0.059060,-0.000000,-0.000000,180.000000*
1,1,0.009450,-0.011020,0.024800*
1,1,0.009450,0.011020,0.024800*
1,1,0.009450,0.011020,-0.024800*
1,1,0.009450,-0.011020,-0.024800*
%
%AMM308*
21,1,0.074800,0.036220,-0.000000,-0.000000,270.000000*
21,1,0.061810,0.049210,-0.000000,-0.000000,270.000000*
1,1,0.012990,-0.018110,-0.030910*
1,1,0.012990,-0.018110,0.030910*
1,1,0.012990,0.018110,0.030910*
1,1,0.012990,0.018110,-0.030910*
%
%AMM309*
21,1,0.031500,0.030710,-0.000000,-0.000000,270.000000*
21,1,0.022050,0.040160,-0.000000,-0.000000,270.000000*
1,1,0.009450,-0.015350,-0.011020*
1,1,0.009450,-0.015350,0.011020*
1,1,0.009450,0.015350,0.011020*
1,1,0.009450,0.015350,-0.011020*
%
%ADD10C,0.06000*%
%ADD122C,0.02913*%
%ADD123C,0.06457*%
%ADD13R,0.10559X0.10559*%
%ADD14C,0.10559*%
%ADD146C,0.05118*%
%ADD15C,0.12756*%
%ADD159C,0.03900*%
%ADD16C,0.22047*%
%ADD17C,0.02362*%
%ADD215C,0.04724*%
%ADD216C,0.04294*%
%ADD241R,0.01772X0.01870*%
%ADD243O,0.05354X0.01378*%
%ADD246R,0.09843X0.07087*%
%ADD247R,0.01870X0.01772*%
%ADD249R,0.04331X0.04724*%
%ADD277M116*%
%ADD278M117*%
%ADD286M124*%
%ADD287M125*%
%ADD288O,0.09213X0.02520*%
%ADD346M183*%
%ADD347M184*%
%ADD350M187*%
%ADD351M188*%
%ADD352M189*%
%ADD358M195*%
%ADD359M196*%
%ADD36C,0.05906*%
%ADD360M197*%
%ADD361M198*%
%ADD362M199*%
%ADD371R,0.07874X0.07500*%
%ADD372O,0.07874X0.07500*%
%ADD374R,0.01772X0.05709*%
%ADD375R,0.02559X0.04803*%
%ADD46C,0.06693*%
%ADD467M271*%
%ADD468M272*%
%ADD471M275*%
%ADD473M277*%
%ADD475M279*%
%ADD478M282*%
%ADD48O,0.03937X0.08268*%
%ADD49O,0.03937X0.06299*%
%ADD493M297*%
%ADD494M298*%
%ADD495M299*%
%ADD496M300*%
%ADD497M301*%
%ADD498M302*%
%ADD499M303*%
%ADD500M304*%
%ADD501M305*%
%ADD502M306*%
%ADD503M307*%
%ADD504M308*%
%ADD505M309*%
%ADD68C,0.00472*%
%ADD69C,0.02559*%
X0000000Y0000000D02*
%LPD*%
G01*
D68*
X0604478Y0177362D02*
X0553297Y0177362D01*
X0553297Y0204921D01*
X0604478Y0204921D01*
X0604478Y0177362D01*
G36*
X0604478Y0177362D02*
G01*
X0553297Y0177362D01*
X0553297Y0204921D01*
X0604478Y0204921D01*
X0604478Y0177362D01*
G37*
D10*
X0464291Y0059646D03*
X0449291Y0059646D03*
D13*
X0294626Y0031890D03*
D14*
X0312146Y0031890D03*
X0329626Y0031890D03*
X0347146Y0031890D03*
X0364626Y0031890D03*
X0382146Y0031890D03*
X0382146Y0014370D03*
X0364626Y0014370D03*
X0347146Y0014370D03*
X0329626Y0014370D03*
X0312146Y0014370D03*
X0294626Y0014370D03*
D15*
X0270866Y0023110D03*
X0405866Y0023110D03*
D16*
X0162106Y0076477D03*
D17*
X0615748Y0104036D03*
X0619488Y0104036D03*
X0623228Y0104036D03*
X0619291Y0069784D03*
X0615748Y0069784D03*
X0280512Y0234744D03*
X0280512Y0239469D03*
X0280512Y0230020D03*
X0280512Y0225295D03*
X0337303Y0250728D03*
X0337303Y0254665D03*
D36*
X0526968Y0077461D03*
X0501772Y0077461D03*
X0494291Y0077461D03*
X0477362Y0077461D03*
D17*
X0467913Y0075689D03*
X0463976Y0075689D03*
D36*
X0452756Y0077461D03*
X0528740Y0138484D03*
X0521457Y0138484D03*
X0501968Y0138484D03*
X0454528Y0138484D03*
G36*
G01*
X0253740Y0233268D02*
X0253740Y0239567D01*
G75*
G02*
X0254724Y0240551I0000984J0000000D01*
G01*
X0261024Y0240551D01*
G75*
G02*
X0262008Y0239567I0000000J-000984D01*
G01*
X0262008Y0233268D01*
G75*
G02*
X0261024Y0232284I-000984J0000000D01*
G01*
X0254724Y0232284D01*
G75*
G02*
X0253740Y0233268I0000000J0000984D01*
G01*
G37*
G36*
G01*
X0231299Y0233268D02*
X0231299Y0239567D01*
G75*
G02*
X0232283Y0240551I0000984J0000000D01*
G01*
X0238583Y0240551D01*
G75*
G02*
X0239567Y0239567I0000000J-000984D01*
G01*
X0239567Y0233268D01*
G75*
G02*
X0238583Y0232284I-000984J0000000D01*
G01*
X0232283Y0232284D01*
G75*
G02*
X0231299Y0233268I0000000J0000984D01*
G01*
G37*
G36*
G01*
X0208858Y0233268D02*
X0208858Y0239567D01*
G75*
G02*
X0209843Y0240551I0000984J0000000D01*
G01*
X0216142Y0240551D01*
G75*
G02*
X0217126Y0239567I0000000J-000984D01*
G01*
X0217126Y0233268D01*
G75*
G02*
X0216142Y0232284I-000984J0000000D01*
G01*
X0209843Y0232284D01*
G75*
G02*
X0208858Y0233268I0000000J0000984D01*
G01*
G37*
G36*
G01*
X0186417Y0233268D02*
X0186417Y0239567D01*
G75*
G02*
X0187402Y0240551I0000984J0000000D01*
G01*
X0193701Y0240551D01*
G75*
G02*
X0194685Y0239567I0000000J-000984D01*
G01*
X0194685Y0233268D01*
G75*
G02*
X0193701Y0232284I-000984J0000000D01*
G01*
X0187402Y0232284D01*
G75*
G02*
X0186417Y0233268I0000000J0000984D01*
G01*
G37*
G36*
G01*
X0163976Y0233268D02*
X0163976Y0239567D01*
G75*
G02*
X0164961Y0240551I0000984J0000000D01*
G01*
X0171260Y0240551D01*
G75*
G02*
X0172244Y0239567I0000000J-000984D01*
G01*
X0172244Y0233268D01*
G75*
G02*
X0171260Y0232284I-000984J0000000D01*
G01*
X0164961Y0232284D01*
G75*
G02*
X0163976Y0233268I0000000J0000984D01*
G01*
G37*
G36*
G01*
X0141535Y0233268D02*
X0141535Y0239567D01*
G75*
G02*
X0142520Y0240551I0000984J0000000D01*
G01*
X0148819Y0240551D01*
G75*
G02*
X0149803Y0239567I0000000J-000984D01*
G01*
X0149803Y0233268D01*
G75*
G02*
X0148819Y0232284I-000984J0000000D01*
G01*
X0142520Y0232284D01*
G75*
G02*
X0141535Y0233268I0000000J0000984D01*
G01*
G37*
G36*
G01*
X0119094Y0233268D02*
X0119094Y0239567D01*
G75*
G02*
X0120079Y0240551I0000984J0000000D01*
G01*
X0126378Y0240551D01*
G75*
G02*
X0127362Y0239567I0000000J-000984D01*
G01*
X0127362Y0233268D01*
G75*
G02*
X0126378Y0232284I-000984J0000000D01*
G01*
X0120079Y0232284D01*
G75*
G02*
X0119094Y0233268I0000000J0000984D01*
G01*
G37*
G36*
G01*
X0096654Y0233268D02*
X0096654Y0239567D01*
G75*
G02*
X0097638Y0240551I0000984J0000000D01*
G01*
X0103937Y0240551D01*
G75*
G02*
X0104921Y0239567I0000000J-000984D01*
G01*
X0104921Y0233268D01*
G75*
G02*
X0103937Y0232284I-000984J0000000D01*
G01*
X0097638Y0232284D01*
G75*
G02*
X0096654Y0233268I0000000J0000984D01*
G01*
G37*
G36*
G01*
X0074213Y0233268D02*
X0074213Y0239567D01*
G75*
G02*
X0075197Y0240551I0000984J0000000D01*
G01*
X0081496Y0240551D01*
G75*
G02*
X0082480Y0239567I0000000J-000984D01*
G01*
X0082480Y0233268D01*
G75*
G02*
X0081496Y0232284I-000984J0000000D01*
G01*
X0075197Y0232284D01*
G75*
G02*
X0074213Y0233268I0000000J0000984D01*
G01*
G37*
G36*
G01*
X0051772Y0233268D02*
X0051772Y0239567D01*
G75*
G02*
X0052756Y0240551I0000984J0000000D01*
G01*
X0059055Y0240551D01*
G75*
G02*
X0060039Y0239567I0000000J-000984D01*
G01*
X0060039Y0233268D01*
G75*
G02*
X0059055Y0232284I-000984J0000000D01*
G01*
X0052756Y0232284D01*
G75*
G02*
X0051772Y0233268I0000000J0000984D01*
G01*
G37*
G36*
G01*
X0029331Y0233268D02*
X0029331Y0239567D01*
G75*
G02*
X0030315Y0240551I0000984J0000000D01*
G01*
X0036614Y0240551D01*
G75*
G02*
X0037598Y0239567I0000000J-000984D01*
G01*
X0037598Y0233268D01*
G75*
G02*
X0036614Y0232284I-000984J0000000D01*
G01*
X0030315Y0232284D01*
G75*
G02*
X0029331Y0233268I0000000J0000984D01*
G01*
G37*
G36*
G01*
X0253740Y0249410D02*
X0253740Y0255709D01*
G75*
G02*
X0254724Y0256693I0000984J0000000D01*
G01*
X0261024Y0256693D01*
G75*
G02*
X0262008Y0255709I0000000J-000984D01*
G01*
X0262008Y0249410D01*
G75*
G02*
X0261024Y0248425I-000984J0000000D01*
G01*
X0254724Y0248425D01*
G75*
G02*
X0253740Y0249410I0000000J0000984D01*
G01*
G37*
G36*
G01*
X0231299Y0249410D02*
X0231299Y0255709D01*
G75*
G02*
X0232283Y0256693I0000984J0000000D01*
G01*
X0238583Y0256693D01*
G75*
G02*
X0239567Y0255709I0000000J-000984D01*
G01*
X0239567Y0249410D01*
G75*
G02*
X0238583Y0248425I-000984J0000000D01*
G01*
X0232283Y0248425D01*
G75*
G02*
X0231299Y0249410I0000000J0000984D01*
G01*
G37*
G36*
G01*
X0208858Y0249410D02*
X0208858Y0255709D01*
G75*
G02*
X0209843Y0256693I0000984J0000000D01*
G01*
X0216142Y0256693D01*
G75*
G02*
X0217126Y0255709I0000000J-000984D01*
G01*
X0217126Y0249410D01*
G75*
G02*
X0216142Y0248425I-000984J0000000D01*
G01*
X0209843Y0248425D01*
G75*
G02*
X0208858Y0249410I0000000J0000984D01*
G01*
G37*
G36*
G01*
X0186417Y0249410D02*
X0186417Y0255709D01*
G75*
G02*
X0187402Y0256693I0000984J0000000D01*
G01*
X0193701Y0256693D01*
G75*
G02*
X0194685Y0255709I0000000J-000984D01*
G01*
X0194685Y0249410D01*
G75*
G02*
X0193701Y0248425I-000984J0000000D01*
G01*
X0187402Y0248425D01*
G75*
G02*
X0186417Y0249410I0000000J0000984D01*
G01*
G37*
G36*
G01*
X0163976Y0249410D02*
X0163976Y0255709D01*
G75*
G02*
X0164961Y0256693I0000984J0000000D01*
G01*
X0171260Y0256693D01*
G75*
G02*
X0172244Y0255709I0000000J-000984D01*
G01*
X0172244Y0249410D01*
G75*
G02*
X0171260Y0248425I-000984J0000000D01*
G01*
X0164961Y0248425D01*
G75*
G02*
X0163976Y0249410I0000000J0000984D01*
G01*
G37*
G36*
G01*
X0141535Y0249410D02*
X0141535Y0255709D01*
G75*
G02*
X0142520Y0256693I0000984J0000000D01*
G01*
X0148819Y0256693D01*
G75*
G02*
X0149803Y0255709I0000000J-000984D01*
G01*
X0149803Y0249410D01*
G75*
G02*
X0148819Y0248425I-000984J0000000D01*
G01*
X0142520Y0248425D01*
G75*
G02*
X0141535Y0249410I0000000J0000984D01*
G01*
G37*
G36*
G01*
X0119094Y0249410D02*
X0119094Y0255709D01*
G75*
G02*
X0120079Y0256693I0000984J0000000D01*
G01*
X0126378Y0256693D01*
G75*
G02*
X0127362Y0255709I0000000J-000984D01*
G01*
X0127362Y0249410D01*
G75*
G02*
X0126378Y0248425I-000984J0000000D01*
G01*
X0120079Y0248425D01*
G75*
G02*
X0119094Y0249410I0000000J0000984D01*
G01*
G37*
G36*
G01*
X0096654Y0249410D02*
X0096654Y0255709D01*
G75*
G02*
X0097638Y0256693I0000984J0000000D01*
G01*
X0103937Y0256693D01*
G75*
G02*
X0104921Y0255709I0000000J-000984D01*
G01*
X0104921Y0249410D01*
G75*
G02*
X0103937Y0248425I-000984J0000000D01*
G01*
X0097638Y0248425D01*
G75*
G02*
X0096654Y0249410I0000000J0000984D01*
G01*
G37*
G36*
G01*
X0074213Y0249410D02*
X0074213Y0255709D01*
G75*
G02*
X0075197Y0256693I0000984J0000000D01*
G01*
X0081496Y0256693D01*
G75*
G02*
X0082480Y0255709I0000000J-000984D01*
G01*
X0082480Y0249410D01*
G75*
G02*
X0081496Y0248425I-000984J0000000D01*
G01*
X0075197Y0248425D01*
G75*
G02*
X0074213Y0249410I0000000J0000984D01*
G01*
G37*
G36*
G01*
X0051772Y0249410D02*
X0051772Y0255709D01*
G75*
G02*
X0052756Y0256693I0000984J0000000D01*
G01*
X0059055Y0256693D01*
G75*
G02*
X0060039Y0255709I0000000J-000984D01*
G01*
X0060039Y0249410D01*
G75*
G02*
X0059055Y0248425I-000984J0000000D01*
G01*
X0052756Y0248425D01*
G75*
G02*
X0051772Y0249410I0000000J0000984D01*
G01*
G37*
G36*
G01*
X0029331Y0249410D02*
X0029331Y0255709D01*
G75*
G02*
X0030315Y0256693I0000984J0000000D01*
G01*
X0036614Y0256693D01*
G75*
G02*
X0037598Y0255709I0000000J-000984D01*
G01*
X0037598Y0249410D01*
G75*
G02*
X0036614Y0248425I-000984J0000000D01*
G01*
X0030315Y0248425D01*
G75*
G02*
X0029331Y0249410I0000000J0000984D01*
G01*
G37*
G36*
G01*
X0592323Y0233071D02*
X0592323Y0239370D01*
G75*
G02*
X0593307Y0240354I0000984J0000000D01*
G01*
X0599606Y0240354D01*
G75*
G02*
X0600591Y0239370I0000000J-000984D01*
G01*
X0600591Y0233071D01*
G75*
G02*
X0599606Y0232087I-000984J0000000D01*
G01*
X0593307Y0232087D01*
G75*
G02*
X0592323Y0233071I0000000J0000984D01*
G01*
G37*
G36*
G01*
X0569882Y0233071D02*
X0569882Y0239370D01*
G75*
G02*
X0570866Y0240354I0000984J0000000D01*
G01*
X0577165Y0240354D01*
G75*
G02*
X0578150Y0239370I0000000J-000984D01*
G01*
X0578150Y0233071D01*
G75*
G02*
X0577165Y0232087I-000984J0000000D01*
G01*
X0570866Y0232087D01*
G75*
G02*
X0569882Y0233071I0000000J0000984D01*
G01*
G37*
G36*
G01*
X0547441Y0233071D02*
X0547441Y0239370D01*
G75*
G02*
X0548425Y0240354I0000984J0000000D01*
G01*
X0554724Y0240354D01*
G75*
G02*
X0555709Y0239370I0000000J-000984D01*
G01*
X0555709Y0233071D01*
G75*
G02*
X0554724Y0232087I-000984J0000000D01*
G01*
X0548425Y0232087D01*
G75*
G02*
X0547441Y0233071I0000000J0000984D01*
G01*
G37*
G36*
G01*
X0525000Y0233071D02*
X0525000Y0239370D01*
G75*
G02*
X0525984Y0240354I0000984J0000000D01*
G01*
X0532283Y0240354D01*
G75*
G02*
X0533268Y0239370I0000000J-000984D01*
G01*
X0533268Y0233071D01*
G75*
G02*
X0532283Y0232087I-000984J0000000D01*
G01*
X0525984Y0232087D01*
G75*
G02*
X0525000Y0233071I0000000J0000984D01*
G01*
G37*
G36*
G01*
X0502559Y0233071D02*
X0502559Y0239370D01*
G75*
G02*
X0503543Y0240354I0000984J0000000D01*
G01*
X0509842Y0240354D01*
G75*
G02*
X0510827Y0239370I0000000J-000984D01*
G01*
X0510827Y0233071D01*
G75*
G02*
X0509842Y0232087I-000984J0000000D01*
G01*
X0503543Y0232087D01*
G75*
G02*
X0502559Y0233071I0000000J0000984D01*
G01*
G37*
G36*
G01*
X0480118Y0233071D02*
X0480118Y0239370D01*
G75*
G02*
X0481102Y0240354I0000984J0000000D01*
G01*
X0487402Y0240354D01*
G75*
G02*
X0488386Y0239370I0000000J-000984D01*
G01*
X0488386Y0233071D01*
G75*
G02*
X0487402Y0232087I-000984J0000000D01*
G01*
X0481102Y0232087D01*
G75*
G02*
X0480118Y0233071I0000000J0000984D01*
G01*
G37*
G36*
G01*
X0457677Y0233071D02*
X0457677Y0239370D01*
G75*
G02*
X0458661Y0240354I0000984J0000000D01*
G01*
X0464961Y0240354D01*
G75*
G02*
X0465945Y0239370I0000000J-000984D01*
G01*
X0465945Y0233071D01*
G75*
G02*
X0464961Y0232087I-000984J0000000D01*
G01*
X0458661Y0232087D01*
G75*
G02*
X0457677Y0233071I0000000J0000984D01*
G01*
G37*
G36*
G01*
X0435236Y0233071D02*
X0435236Y0239370D01*
G75*
G02*
X0436220Y0240354I0000984J0000000D01*
G01*
X0442520Y0240354D01*
G75*
G02*
X0443504Y0239370I0000000J-000984D01*
G01*
X0443504Y0233071D01*
G75*
G02*
X0442520Y0232087I-000984J0000000D01*
G01*
X0436220Y0232087D01*
G75*
G02*
X0435236Y0233071I0000000J0000984D01*
G01*
G37*
G36*
G01*
X0412795Y0233071D02*
X0412795Y0239370D01*
G75*
G02*
X0413780Y0240354I0000984J0000000D01*
G01*
X0420079Y0240354D01*
G75*
G02*
X0421063Y0239370I0000000J-000984D01*
G01*
X0421063Y0233071D01*
G75*
G02*
X0420079Y0232087I-000984J0000000D01*
G01*
X0413780Y0232087D01*
G75*
G02*
X0412795Y0233071I0000000J0000984D01*
G01*
G37*
G36*
G01*
X0390354Y0233071D02*
X0390354Y0239370D01*
G75*
G02*
X0391339Y0240354I0000984J0000000D01*
G01*
X0397638Y0240354D01*
G75*
G02*
X0398622Y0239370I0000000J-000984D01*
G01*
X0398622Y0233071D01*
G75*
G02*
X0397638Y0232087I-000984J0000000D01*
G01*
X0391339Y0232087D01*
G75*
G02*
X0390354Y0233071I0000000J0000984D01*
G01*
G37*
G36*
G01*
X0367913Y0233071D02*
X0367913Y0239370D01*
G75*
G02*
X0368898Y0240354I0000984J0000000D01*
G01*
X0375197Y0240354D01*
G75*
G02*
X0376181Y0239370I0000000J-000984D01*
G01*
X0376181Y0233071D01*
G75*
G02*
X0375197Y0232087I-000984J0000000D01*
G01*
X0368898Y0232087D01*
G75*
G02*
X0367913Y0233071I0000000J0000984D01*
G01*
G37*
G36*
G01*
X0592323Y0249213D02*
X0592323Y0255512D01*
G75*
G02*
X0593307Y0256496I0000984J0000000D01*
G01*
X0599606Y0256496D01*
G75*
G02*
X0600591Y0255512I0000000J-000984D01*
G01*
X0600591Y0249213D01*
G75*
G02*
X0599606Y0248228I-000984J0000000D01*
G01*
X0593307Y0248228D01*
G75*
G02*
X0592323Y0249213I0000000J0000984D01*
G01*
G37*
G36*
G01*
X0569882Y0249213D02*
X0569882Y0255512D01*
G75*
G02*
X0570866Y0256496I0000984J0000000D01*
G01*
X0577165Y0256496D01*
G75*
G02*
X0578150Y0255512I0000000J-000984D01*
G01*
X0578150Y0249213D01*
G75*
G02*
X0577165Y0248228I-000984J0000000D01*
G01*
X0570866Y0248228D01*
G75*
G02*
X0569882Y0249213I0000000J0000984D01*
G01*
G37*
G36*
G01*
X0547441Y0249213D02*
X0547441Y0255512D01*
G75*
G02*
X0548425Y0256496I0000984J0000000D01*
G01*
X0554724Y0256496D01*
G75*
G02*
X0555709Y0255512I0000000J-000984D01*
G01*
X0555709Y0249213D01*
G75*
G02*
X0554724Y0248228I-000984J0000000D01*
G01*
X0548425Y0248228D01*
G75*
G02*
X0547441Y0249213I0000000J0000984D01*
G01*
G37*
G36*
G01*
X0525000Y0249213D02*
X0525000Y0255512D01*
G75*
G02*
X0525984Y0256496I0000984J0000000D01*
G01*
X0532283Y0256496D01*
G75*
G02*
X0533268Y0255512I0000000J-000984D01*
G01*
X0533268Y0249213D01*
G75*
G02*
X0532283Y0248228I-000984J0000000D01*
G01*
X0525984Y0248228D01*
G75*
G02*
X0525000Y0249213I0000000J0000984D01*
G01*
G37*
G36*
G01*
X0502559Y0249213D02*
X0502559Y0255512D01*
G75*
G02*
X0503543Y0256496I0000984J0000000D01*
G01*
X0509842Y0256496D01*
G75*
G02*
X0510827Y0255512I0000000J-000984D01*
G01*
X0510827Y0249213D01*
G75*
G02*
X0509842Y0248228I-000984J0000000D01*
G01*
X0503543Y0248228D01*
G75*
G02*
X0502559Y0249213I0000000J0000984D01*
G01*
G37*
G36*
G01*
X0480118Y0249213D02*
X0480118Y0255512D01*
G75*
G02*
X0481102Y0256496I0000984J0000000D01*
G01*
X0487402Y0256496D01*
G75*
G02*
X0488386Y0255512I0000000J-000984D01*
G01*
X0488386Y0249213D01*
G75*
G02*
X0487402Y0248228I-000984J0000000D01*
G01*
X0481102Y0248228D01*
G75*
G02*
X0480118Y0249213I0000000J0000984D01*
G01*
G37*
G36*
G01*
X0457677Y0249213D02*
X0457677Y0255512D01*
G75*
G02*
X0458661Y0256496I0000984J0000000D01*
G01*
X0464961Y0256496D01*
G75*
G02*
X0465945Y0255512I0000000J-000984D01*
G01*
X0465945Y0249213D01*
G75*
G02*
X0464961Y0248228I-000984J0000000D01*
G01*
X0458661Y0248228D01*
G75*
G02*
X0457677Y0249213I0000000J0000984D01*
G01*
G37*
G36*
G01*
X0435236Y0249213D02*
X0435236Y0255512D01*
G75*
G02*
X0436220Y0256496I0000984J0000000D01*
G01*
X0442520Y0256496D01*
G75*
G02*
X0443504Y0255512I0000000J-000984D01*
G01*
X0443504Y0249213D01*
G75*
G02*
X0442520Y0248228I-000984J0000000D01*
G01*
X0436220Y0248228D01*
G75*
G02*
X0435236Y0249213I0000000J0000984D01*
G01*
G37*
G36*
G01*
X0412795Y0249213D02*
X0412795Y0255512D01*
G75*
G02*
X0413780Y0256496I0000984J0000000D01*
G01*
X0420079Y0256496D01*
G75*
G02*
X0421063Y0255512I0000000J-000984D01*
G01*
X0421063Y0249213D01*
G75*
G02*
X0420079Y0248228I-000984J0000000D01*
G01*
X0413780Y0248228D01*
G75*
G02*
X0412795Y0249213I0000000J0000984D01*
G01*
G37*
G36*
G01*
X0390354Y0249213D02*
X0390354Y0255512D01*
G75*
G02*
X0391339Y0256496I0000984J0000000D01*
G01*
X0397638Y0256496D01*
G75*
G02*
X0398622Y0255512I0000000J-000984D01*
G01*
X0398622Y0249213D01*
G75*
G02*
X0397638Y0248228I-000984J0000000D01*
G01*
X0391339Y0248228D01*
G75*
G02*
X0390354Y0249213I0000000J0000984D01*
G01*
G37*
G36*
G01*
X0367913Y0249213D02*
X0367913Y0255512D01*
G75*
G02*
X0368898Y0256496I0000984J0000000D01*
G01*
X0375197Y0256496D01*
G75*
G02*
X0376181Y0255512I0000000J-000984D01*
G01*
X0376181Y0249213D01*
G75*
G02*
X0375197Y0248228I-000984J0000000D01*
G01*
X0368898Y0248228D01*
G75*
G02*
X0367913Y0249213I0000000J0000984D01*
G01*
G37*
D17*
X0489370Y0191634D03*
X0489370Y0196358D03*
X0489370Y0186910D03*
X0489370Y0182185D03*
X0546161Y0207618D03*
X0546161Y0211555D03*
D46*
X0529035Y0161221D03*
D69*
X0534390Y0026595D03*
X0557146Y0026595D03*
D48*
X0528760Y0028563D03*
D49*
X0528760Y0012106D03*
D48*
X0562776Y0028563D03*
D49*
X0562776Y0012106D03*
D16*
X0574311Y0076477D03*
D46*
X0543917Y0161221D03*
D10*
X0446161Y0173425D03*
X0465453Y0173425D03*
D13*
X0113130Y0031890D03*
D14*
X0130650Y0031890D03*
X0148130Y0031890D03*
X0165650Y0031890D03*
X0183130Y0031890D03*
X0200650Y0031890D03*
X0200650Y0014370D03*
X0183130Y0014370D03*
X0165650Y0014370D03*
X0148130Y0014370D03*
X0130650Y0014370D03*
X0113130Y0014370D03*
D15*
X0089370Y0023110D03*
X0224370Y0023110D03*
D10*
X0493672Y0167647D03*
X0507313Y0154006D03*
G36*
G01*
X0100000Y0171949D02*
X0088780Y0171949D01*
G75*
G02*
X0087795Y0172933I0000000J0000984D01*
G01*
X0087795Y0175788D01*
G75*
G02*
X0088780Y0176772I0000984J0000000D01*
G01*
X0100000Y0176772D01*
G75*
G02*
X0100984Y0175788I0000000J-000984D01*
G01*
X0100984Y0172933D01*
G75*
G02*
X0100000Y0171949I-000984J0000000D01*
G01*
G37*
G36*
G01*
X0100000Y0195276D02*
X0088780Y0195276D01*
G75*
G02*
X0087795Y0196260I0000000J0000984D01*
G01*
X0087795Y0199114D01*
G75*
G02*
X0088780Y0200099I0000984J0000000D01*
G01*
X0100000Y0200099D01*
G75*
G02*
X0100984Y0199114I0000000J-000984D01*
G01*
X0100984Y0196260D01*
G75*
G02*
X0100000Y0195276I-000984J0000000D01*
G01*
G37*
G36*
G01*
X0136811Y0178839D02*
X0125591Y0178839D01*
G75*
G02*
X0124606Y0179823I0000000J0000984D01*
G01*
X0124606Y0182677D01*
G75*
G02*
X0125591Y0183662I0000984J0000000D01*
G01*
X0136811Y0183662D01*
G75*
G02*
X0137795Y0182677I0000000J-000984D01*
G01*
X0137795Y0179823D01*
G75*
G02*
X0136811Y0178839I-000984J0000000D01*
G01*
G37*
G36*
G01*
X0136811Y0202165D02*
X0125591Y0202165D01*
G75*
G02*
X0124606Y0203150I0000000J0000984D01*
G01*
X0124606Y0206004D01*
G75*
G02*
X0125591Y0206988I0000984J0000000D01*
G01*
X0136811Y0206988D01*
G75*
G02*
X0137795Y0206004I0000000J-000984D01*
G01*
X0137795Y0203150D01*
G75*
G02*
X0136811Y0202165I-000984J0000000D01*
G01*
G37*
G36*
G01*
X0068957Y0165158D02*
X0065886Y0165158D01*
G75*
G02*
X0065610Y0165433I0000000J0000276D01*
G01*
X0065610Y0167638D01*
G75*
G02*
X0065886Y0167914I0000276J0000000D01*
G01*
X0068957Y0167914D01*
G75*
G02*
X0069232Y0167638I0000000J-000276D01*
G01*
X0069232Y0165433D01*
G75*
G02*
X0068957Y0165158I-000276J0000000D01*
G01*
G37*
G36*
G01*
X0068957Y0171457D02*
X0065886Y0171457D01*
G75*
G02*
X0065610Y0171732I0000000J0000276D01*
G01*
X0065610Y0173937D01*
G75*
G02*
X0065886Y0174213I0000276J0000000D01*
G01*
X0068957Y0174213D01*
G75*
G02*
X0069232Y0173937I0000000J-000276D01*
G01*
X0069232Y0171732D01*
G75*
G02*
X0068957Y0171457I-000276J0000000D01*
G01*
G37*
G36*
G01*
X0206181Y0209882D02*
X0206181Y0205866D01*
G75*
G02*
X0205827Y0205512I-000354J0000000D01*
G01*
X0202992Y0205512D01*
G75*
G02*
X0202638Y0205866I0000000J0000354D01*
G01*
X0202638Y0209882D01*
G75*
G02*
X0202992Y0210236I0000354J0000000D01*
G01*
X0205827Y0210236D01*
G75*
G02*
X0206181Y0209882I0000000J-000354D01*
G01*
G37*
G36*
G01*
X0193189Y0209882D02*
X0193189Y0205866D01*
G75*
G02*
X0192835Y0205512I-000354J0000000D01*
G01*
X0190000Y0205512D01*
G75*
G02*
X0189646Y0205866I0000000J0000354D01*
G01*
X0189646Y0209882D01*
G75*
G02*
X0190000Y0210236I0000354J0000000D01*
G01*
X0192835Y0210236D01*
G75*
G02*
X0193189Y0209882I0000000J-000354D01*
G01*
G37*
G36*
G01*
X0212154Y0151313D02*
X0214994Y0148473D01*
G75*
G02*
X0214994Y0147972I-000251J-000251D01*
G01*
X0212989Y0145968D01*
G75*
G02*
X0212488Y0145968I-000251J0000251D01*
G01*
X0209649Y0148807D01*
G75*
G02*
X0209649Y0149308I0000251J0000251D01*
G01*
X0211653Y0151313D01*
G75*
G02*
X0212154Y0151313I0000251J-000251D01*
G01*
G37*
G36*
G01*
X0202967Y0142126D02*
X0205807Y0139286D01*
G75*
G02*
X0205807Y0138785I-000251J-000251D01*
G01*
X0203803Y0136781D01*
G75*
G02*
X0203301Y0136781I-000251J0000251D01*
G01*
X0200462Y0139620D01*
G75*
G02*
X0200462Y0140122I0000251J0000251D01*
G01*
X0202466Y0142126D01*
G75*
G02*
X0202967Y0142126I0000251J-000251D01*
G01*
G37*
G36*
G01*
X0120531Y0173622D02*
X0117461Y0173622D01*
G75*
G02*
X0117185Y0173898I0000000J0000276D01*
G01*
X0117185Y0176102D01*
G75*
G02*
X0117461Y0176378I0000276J0000000D01*
G01*
X0120531Y0176378D01*
G75*
G02*
X0120807Y0176102I0000000J-000276D01*
G01*
X0120807Y0173898D01*
G75*
G02*
X0120531Y0173622I-000276J0000000D01*
G01*
G37*
G36*
G01*
X0120531Y0179921D02*
X0117461Y0179921D01*
G75*
G02*
X0117185Y0180197I0000000J0000276D01*
G01*
X0117185Y0182402D01*
G75*
G02*
X0117461Y0182677I0000276J0000000D01*
G01*
X0120531Y0182677D01*
G75*
G02*
X0120807Y0182402I0000000J-000276D01*
G01*
X0120807Y0180197D01*
G75*
G02*
X0120531Y0179921I-000276J0000000D01*
G01*
G37*
G36*
G01*
X0066339Y0175689D02*
X0055118Y0175689D01*
G75*
G02*
X0054134Y0176673I0000000J0000984D01*
G01*
X0054134Y0179528D01*
G75*
G02*
X0055118Y0180512I0000984J0000000D01*
G01*
X0066339Y0180512D01*
G75*
G02*
X0067323Y0179528I0000000J-000984D01*
G01*
X0067323Y0176673D01*
G75*
G02*
X0066339Y0175689I-000984J0000000D01*
G01*
G37*
G36*
G01*
X0066339Y0199016D02*
X0055118Y0199016D01*
G75*
G02*
X0054134Y0200000I0000000J0000984D01*
G01*
X0054134Y0202854D01*
G75*
G02*
X0055118Y0203839I0000984J0000000D01*
G01*
X0066339Y0203839D01*
G75*
G02*
X0067323Y0202854I0000000J-000984D01*
G01*
X0067323Y0200000D01*
G75*
G02*
X0066339Y0199016I-000984J0000000D01*
G01*
G37*
G36*
G01*
X0214272Y0172480D02*
X0214272Y0168465D01*
G75*
G02*
X0213917Y0168110I-000354J0000000D01*
G01*
X0211083Y0168110D01*
G75*
G02*
X0210728Y0168465I0000000J0000354D01*
G01*
X0210728Y0172480D01*
G75*
G02*
X0211083Y0172835I0000354J0000000D01*
G01*
X0213917Y0172835D01*
G75*
G02*
X0214272Y0172480I0000000J-000354D01*
G01*
G37*
G36*
G01*
X0201280Y0172480D02*
X0201280Y0168465D01*
G75*
G02*
X0200925Y0168110I-000354J0000000D01*
G01*
X0198091Y0168110D01*
G75*
G02*
X0197736Y0168465I0000000J0000354D01*
G01*
X0197736Y0172480D01*
G75*
G02*
X0198091Y0172835I0000354J0000000D01*
G01*
X0200925Y0172835D01*
G75*
G02*
X0201280Y0172480I0000000J-000354D01*
G01*
G37*
G36*
G01*
X0175276Y0162047D02*
X0175276Y0158032D01*
G75*
G02*
X0174921Y0157677I-000354J0000000D01*
G01*
X0172087Y0157677D01*
G75*
G02*
X0171732Y0158032I0000000J0000354D01*
G01*
X0171732Y0162047D01*
G75*
G02*
X0172087Y0162402I0000354J0000000D01*
G01*
X0174921Y0162402D01*
G75*
G02*
X0175276Y0162047I0000000J-000354D01*
G01*
G37*
G36*
G01*
X0162283Y0162047D02*
X0162283Y0158032D01*
G75*
G02*
X0161929Y0157677I-000354J0000000D01*
G01*
X0159094Y0157677D01*
G75*
G02*
X0158740Y0158032I0000000J0000354D01*
G01*
X0158740Y0162047D01*
G75*
G02*
X0159094Y0162402I0000354J0000000D01*
G01*
X0161929Y0162402D01*
G75*
G02*
X0162283Y0162047I0000000J-000354D01*
G01*
G37*
G36*
G01*
X0032146Y0164764D02*
X0029075Y0164764D01*
G75*
G02*
X0028799Y0165039I0000000J0000276D01*
G01*
X0028799Y0167244D01*
G75*
G02*
X0029075Y0167520I0000276J0000000D01*
G01*
X0032146Y0167520D01*
G75*
G02*
X0032421Y0167244I0000000J-000276D01*
G01*
X0032421Y0165039D01*
G75*
G02*
X0032146Y0164764I-000276J0000000D01*
G01*
G37*
G36*
G01*
X0032146Y0171063D02*
X0029075Y0171063D01*
G75*
G02*
X0028799Y0171339I0000000J0000276D01*
G01*
X0028799Y0173543D01*
G75*
G02*
X0029075Y0173819I0000276J0000000D01*
G01*
X0032146Y0173819D01*
G75*
G02*
X0032421Y0173543I0000000J-000276D01*
G01*
X0032421Y0171339D01*
G75*
G02*
X0032146Y0171063I-000276J0000000D01*
G01*
G37*
G36*
G01*
X0031102Y0174705D02*
X0019882Y0174705D01*
G75*
G02*
X0018898Y0175689I0000000J0000984D01*
G01*
X0018898Y0178543D01*
G75*
G02*
X0019882Y0179528I0000984J0000000D01*
G01*
X0031102Y0179528D01*
G75*
G02*
X0032087Y0178543I0000000J-000984D01*
G01*
X0032087Y0175689D01*
G75*
G02*
X0031102Y0174705I-000984J0000000D01*
G01*
G37*
G36*
G01*
X0031102Y0198032D02*
X0019882Y0198032D01*
G75*
G02*
X0018898Y0199016I0000000J0000984D01*
G01*
X0018898Y0201870D01*
G75*
G02*
X0019882Y0202854I0000984J0000000D01*
G01*
X0031102Y0202854D01*
G75*
G02*
X0032087Y0201870I0000000J-000984D01*
G01*
X0032087Y0199016D01*
G75*
G02*
X0031102Y0198032I-000984J0000000D01*
G01*
G37*
G36*
G01*
X0106752Y0166536D02*
X0103681Y0166536D01*
G75*
G02*
X0103405Y0166811I0000000J0000276D01*
G01*
X0103405Y0169016D01*
G75*
G02*
X0103681Y0169291I0000276J0000000D01*
G01*
X0106752Y0169291D01*
G75*
G02*
X0107028Y0169016I0000000J-000276D01*
G01*
X0107028Y0166811D01*
G75*
G02*
X0106752Y0166536I-000276J0000000D01*
G01*
G37*
G36*
G01*
X0106752Y0172835D02*
X0103681Y0172835D01*
G75*
G02*
X0103405Y0173110I0000000J0000276D01*
G01*
X0103405Y0175315D01*
G75*
G02*
X0103681Y0175591I0000276J0000000D01*
G01*
X0106752Y0175591D01*
G75*
G02*
X0107028Y0175315I0000000J-000276D01*
G01*
X0107028Y0173110D01*
G75*
G02*
X0106752Y0172835I-000276J0000000D01*
G01*
G37*
X0450492Y0141929D02*
G01*
G75*
D346*
X0526870Y0112014D02*
D03*
X0526870Y0125006D02*
D03*
D347*
X0527264Y0092154D02*
D03*
X0527264Y0103571D02*
D03*
X0519232Y0092154D02*
D03*
X0519232Y0103571D02*
D03*
D350*
X0505216Y0129527D02*
D03*
X0509153Y0129527D02*
D03*
X0519783Y0132874D02*
D03*
X0519783Y0124212D02*
D03*
X0514535Y0133661D02*
D03*
X0514535Y0125000D02*
D03*
D351*
X0461909Y0121774D02*
D03*
X0461909Y0125318D02*
D03*
X0498642Y0112383D02*
D03*
X0498642Y0108839D02*
D03*
X0513747Y0120380D02*
D03*
X0513747Y0116837D02*
D03*
X0461909Y0113156D02*
D03*
X0461909Y0116699D02*
D03*
X0465846Y0133661D02*
D03*
X0465846Y0130118D02*
D03*
D352*
X0515322Y0108176D02*
D03*
X0518866Y0108176D02*
D03*
X0527724Y0128943D02*
D03*
X0524180Y0128943D02*
D03*
X0469407Y0080179D02*
D03*
X0472951Y0080179D02*
D03*
D122*
X0468602Y0076181D02*
D03*
X0464665Y0076181D02*
D03*
D123*
X0522145Y0138976D02*
D03*
X0455216Y0138976D02*
D03*
X0502657Y0138976D02*
D03*
X0502460Y0077953D02*
D03*
X0527657Y0077953D02*
D03*
X0478051Y0077953D02*
D03*
X0494980Y0077953D02*
D03*
X0453445Y0077953D02*
D03*
X0529429Y0138976D02*
D03*
D358*
X0506791Y0092716D02*
D03*
X0506791Y0103740D02*
D03*
D359*
X0502468Y0125394D02*
D03*
X0508688Y0125394D02*
D03*
X0502468Y0111300D02*
D03*
X0508688Y0111300D02*
D03*
X0502468Y0115991D02*
D03*
X0508688Y0115991D02*
D03*
X0502468Y0120683D02*
D03*
X0508688Y0120683D02*
D03*
X0514712Y0112481D02*
D03*
X0520933Y0112481D02*
D03*
D360*
X0465846Y0121971D02*
D03*
X0465846Y0125908D02*
D03*
X0465846Y0117290D02*
D03*
X0465846Y0113353D02*
D03*
X0519783Y0120577D02*
D03*
X0519783Y0116640D02*
D03*
X0498169Y0097644D02*
D03*
X0498169Y0093707D02*
D03*
X0460728Y0089868D02*
D03*
X0460728Y0093806D02*
D03*
D288*
X0472606Y0116857D02*
D03*
X0472606Y0121857D02*
D03*
X0472606Y0126857D02*
D03*
X0472606Y0131857D02*
D03*
X0495243Y0116857D02*
D03*
X0495243Y0121857D02*
D03*
X0495243Y0126857D02*
D03*
X0495243Y0131857D02*
D03*
X0467323Y0093790D02*
D03*
X0467323Y0098790D02*
D03*
X0467323Y0103790D02*
D03*
X0467323Y0108790D02*
D03*
X0490748Y0093790D02*
D03*
X0490748Y0098790D02*
D03*
X0490748Y0103790D02*
D03*
X0490748Y0108790D02*
D03*
D361*
X0483924Y0124357D02*
D03*
D362*
X0479035Y0101290D02*
D03*
X0626673Y0069094D02*
G01*
G75*
D122*
X0616437Y0104527D02*
D03*
X0620177Y0104527D02*
D03*
X0623917Y0104527D02*
D03*
X0619980Y0070275D02*
D03*
X0616437Y0070275D02*
D03*
D287*
X0616437Y0097047D02*
D03*
X0616437Y0100984D02*
D03*
X0616437Y0085924D02*
D03*
X0616437Y0081987D02*
D03*
X0616437Y0077558D02*
D03*
X0616437Y0073621D02*
D03*
X0623720Y0097047D02*
D03*
X0623720Y0100984D02*
D03*
D278*
X0623917Y0093662D02*
D03*
X0620374Y0093662D02*
D03*
D286*
X0617204Y0089777D02*
D03*
X0623425Y0089777D02*
D03*
D277*
X0620374Y0077165D02*
D03*
X0620374Y0073622D02*
D03*
X0623917Y0085531D02*
D03*
X0623917Y0081988D02*
D03*
X0620316Y0100393D02*
D03*
X0620316Y0096850D02*
D03*
X0623917Y0073622D02*
D03*
X0623917Y0077165D02*
D03*
X0339469Y0262402D02*
%LPD*%
G01*
D17*
X0281201Y0235237D03*
X0281201Y0239961D03*
X0281201Y0230512D03*
X0281201Y0225788D03*
X0337993Y0251221D03*
X0337993Y0255158D03*
G36*
G01*
X0322540Y0231808D02*
X0322540Y0232989D01*
G75*
G02*
X0323130Y0233580I0000591J0000000D01*
G01*
X0327166Y0233580D01*
G75*
G02*
X0327756Y0232989I0000000J-000591D01*
G01*
X0327756Y0231808D01*
G75*
G02*
X0327166Y0231218I-000591J0000000D01*
G01*
X0323130Y0231218D01*
G75*
G02*
X0322540Y0231808I0000000J0000591D01*
G01*
G37*
G36*
G01*
X0322540Y0235549D02*
X0322540Y0236730D01*
G75*
G02*
X0323130Y0237320I0000591J0000000D01*
G01*
X0327166Y0237320D01*
G75*
G02*
X0327756Y0236730I0000000J-000591D01*
G01*
X0327756Y0235549D01*
G75*
G02*
X0327166Y0234958I-000591J0000000D01*
G01*
X0323130Y0234958D01*
G75*
G02*
X0322540Y0235549I0000000J0000591D01*
G01*
G37*
G36*
G01*
X0322540Y0239289D02*
X0322540Y0240470D01*
G75*
G02*
X0323130Y0241060I0000591J0000000D01*
G01*
X0327166Y0241060D01*
G75*
G02*
X0327756Y0240470I0000000J-000591D01*
G01*
X0327756Y0239289D01*
G75*
G02*
X0327166Y0238698I-000591J0000000D01*
G01*
X0323130Y0238698D01*
G75*
G02*
X0322540Y0239289I0000000J0000591D01*
G01*
G37*
G36*
G01*
X0331497Y0239289D02*
X0331497Y0240470D01*
G75*
G02*
X0332087Y0241060I0000591J0000000D01*
G01*
X0336123Y0241060D01*
G75*
G02*
X0336713Y0240470I0000000J-000591D01*
G01*
X0336713Y0239289D01*
G75*
G02*
X0336123Y0238698I-000591J0000000D01*
G01*
X0332087Y0238698D01*
G75*
G02*
X0331497Y0239289I0000000J0000591D01*
G01*
G37*
G36*
G01*
X0331497Y0231808D02*
X0331497Y0232989D01*
G75*
G02*
X0332087Y0233580I0000591J0000000D01*
G01*
X0336123Y0233580D01*
G75*
G02*
X0336713Y0232989I0000000J-000591D01*
G01*
X0336713Y0231808D01*
G75*
G02*
X0336123Y0231218I-000591J0000000D01*
G01*
X0332087Y0231218D01*
G75*
G02*
X0331497Y0231808I0000000J0000591D01*
G01*
G37*
G36*
G01*
X0322815Y0254095D02*
X0321477Y0254095D01*
G75*
G02*
X0320926Y0254646I0000000J0000551D01*
G01*
X0320926Y0255748D01*
G75*
G02*
X0321477Y0256300I0000551J0000000D01*
G01*
X0322815Y0256300D01*
G75*
G02*
X0323367Y0255748I0000000J-000551D01*
G01*
X0323367Y0254646D01*
G75*
G02*
X0322815Y0254095I-000551J0000000D01*
G01*
G37*
G36*
G01*
X0322815Y0257874D02*
X0321477Y0257874D01*
G75*
G02*
X0320926Y0258426I0000000J0000551D01*
G01*
X0320926Y0259528D01*
G75*
G02*
X0321477Y0260079I0000551J0000000D01*
G01*
X0322815Y0260079D01*
G75*
G02*
X0323367Y0259528I0000000J-000551D01*
G01*
X0323367Y0258426D01*
G75*
G02*
X0322815Y0257874I-000551J0000000D01*
G01*
G37*
G36*
G01*
X0296300Y0231378D02*
X0296300Y0230040D01*
G75*
G02*
X0295749Y0229489I-000551J0000000D01*
G01*
X0294646Y0229489D01*
G75*
G02*
X0294095Y0230040I0000000J0000551D01*
G01*
X0294095Y0231378D01*
G75*
G02*
X0294646Y0231930I0000551J0000000D01*
G01*
X0295749Y0231930D01*
G75*
G02*
X0296300Y0231378I0000000J-000551D01*
G01*
G37*
G36*
G01*
X0292520Y0231378D02*
X0292520Y0230040D01*
G75*
G02*
X0291969Y0229489I-000551J0000000D01*
G01*
X0290867Y0229489D01*
G75*
G02*
X0290315Y0230040I0000000J0000551D01*
G01*
X0290315Y0231378D01*
G75*
G02*
X0290867Y0231930I0000551J0000000D01*
G01*
X0291969Y0231930D01*
G75*
G02*
X0292520Y0231378I0000000J-000551D01*
G01*
G37*
G36*
G01*
X0282953Y0226378D02*
X0282953Y0227717D01*
G75*
G02*
X0283504Y0228268I0000551J0000000D01*
G01*
X0284607Y0228268D01*
G75*
G02*
X0285158Y0227717I0000000J-000551D01*
G01*
X0285158Y0226378D01*
G75*
G02*
X0284607Y0225827I-000551J0000000D01*
G01*
X0283504Y0225827D01*
G75*
G02*
X0282953Y0226378I0000000J0000551D01*
G01*
G37*
G36*
G01*
X0286733Y0226378D02*
X0286733Y0227717D01*
G75*
G02*
X0287284Y0228268I0000551J0000000D01*
G01*
X0288386Y0228268D01*
G75*
G02*
X0288938Y0227717I0000000J-000551D01*
G01*
X0288938Y0226378D01*
G75*
G02*
X0288386Y0225827I-000551J0000000D01*
G01*
X0287284Y0225827D01*
G75*
G02*
X0286733Y0226378I0000000J0000551D01*
G01*
G37*
G36*
G01*
X0304705Y0235119D02*
X0304705Y0233780D01*
G75*
G02*
X0304154Y0233229I-000551J0000000D01*
G01*
X0303052Y0233229D01*
G75*
G02*
X0302500Y0233780I0000000J0000551D01*
G01*
X0302500Y0235119D01*
G75*
G02*
X0303052Y0235670I0000551J0000000D01*
G01*
X0304154Y0235670D01*
G75*
G02*
X0304705Y0235119I0000000J-000551D01*
G01*
G37*
G36*
G01*
X0300926Y0235119D02*
X0300926Y0233780D01*
G75*
G02*
X0300375Y0233229I-000551J0000000D01*
G01*
X0299272Y0233229D01*
G75*
G02*
X0298721Y0233780I0000000J0000551D01*
G01*
X0298721Y0235119D01*
G75*
G02*
X0299272Y0235670I0000551J0000000D01*
G01*
X0300375Y0235670D01*
G75*
G02*
X0300926Y0235119I0000000J-000551D01*
G01*
G37*
G36*
G01*
X0283150Y0230040D02*
X0283150Y0231378D01*
G75*
G02*
X0283701Y0231930I0000551J0000000D01*
G01*
X0284804Y0231930D01*
G75*
G02*
X0285355Y0231378I0000000J-000551D01*
G01*
X0285355Y0230040D01*
G75*
G02*
X0284804Y0229489I-000551J0000000D01*
G01*
X0283701Y0229489D01*
G75*
G02*
X0283150Y0230040I0000000J0000551D01*
G01*
G37*
G36*
G01*
X0286930Y0230040D02*
X0286930Y0231378D01*
G75*
G02*
X0287481Y0231930I0000551J0000000D01*
G01*
X0288583Y0231930D01*
G75*
G02*
X0289134Y0231378I0000000J-000551D01*
G01*
X0289134Y0230040D01*
G75*
G02*
X0288583Y0229489I-000551J0000000D01*
G01*
X0287481Y0229489D01*
G75*
G02*
X0286930Y0230040I0000000J0000551D01*
G01*
G37*
G36*
G01*
X0288426Y0251556D02*
X0288426Y0250217D01*
G75*
G02*
X0287875Y0249666I-000551J0000000D01*
G01*
X0286772Y0249666D01*
G75*
G02*
X0286221Y0250217I0000000J0000551D01*
G01*
X0286221Y0251556D01*
G75*
G02*
X0286772Y0252107I0000551J0000000D01*
G01*
X0287875Y0252107D01*
G75*
G02*
X0288426Y0251556I0000000J-000551D01*
G01*
G37*
G36*
G01*
X0284646Y0251556D02*
X0284646Y0250217D01*
G75*
G02*
X0284095Y0249666I-000551J0000000D01*
G01*
X0282993Y0249666D01*
G75*
G02*
X0282441Y0250217I0000000J0000551D01*
G01*
X0282441Y0251556D01*
G75*
G02*
X0282993Y0252107I0000551J0000000D01*
G01*
X0284095Y0252107D01*
G75*
G02*
X0284646Y0251556I0000000J-000551D01*
G01*
G37*
G36*
G01*
X0318935Y0259056D02*
X0318935Y0258268D01*
G75*
G02*
X0318541Y0257874I-000394J0000000D01*
G01*
X0313521Y0257874D01*
G75*
G02*
X0313128Y0258268I0000000J0000394D01*
G01*
X0313128Y0259056D01*
G75*
G02*
X0313521Y0259449I0000394J0000000D01*
G01*
X0318541Y0259449D01*
G75*
G02*
X0318935Y0259056I0000000J-000394D01*
G01*
G37*
G36*
G01*
X0318935Y0256496D02*
X0318935Y0255709D01*
G75*
G02*
X0318541Y0255315I-000394J0000000D01*
G01*
X0313521Y0255315D01*
G75*
G02*
X0313128Y0255709I0000000J0000394D01*
G01*
X0313128Y0256496D01*
G75*
G02*
X0313521Y0256890I0000394J0000000D01*
G01*
X0318541Y0256890D01*
G75*
G02*
X0318935Y0256496I0000000J-000394D01*
G01*
G37*
G36*
G01*
X0318935Y0253937D02*
X0318935Y0253150D01*
G75*
G02*
X0318541Y0252756I-000394J0000000D01*
G01*
X0313521Y0252756D01*
G75*
G02*
X0313128Y0253150I0000000J0000394D01*
G01*
X0313128Y0253937D01*
G75*
G02*
X0313521Y0254331I0000394J0000000D01*
G01*
X0318541Y0254331D01*
G75*
G02*
X0318935Y0253937I0000000J-000394D01*
G01*
G37*
G36*
G01*
X0318935Y0251378D02*
X0318935Y0250591D01*
G75*
G02*
X0318541Y0250197I-000394J0000000D01*
G01*
X0313521Y0250197D01*
G75*
G02*
X0313128Y0250591I0000000J0000394D01*
G01*
X0313128Y0251378D01*
G75*
G02*
X0313521Y0251772I0000394J0000000D01*
G01*
X0318541Y0251772D01*
G75*
G02*
X0318935Y0251378I0000000J-000394D01*
G01*
G37*
G36*
G01*
X0318935Y0248819D02*
X0318935Y0248032D01*
G75*
G02*
X0318541Y0247638I-000394J0000000D01*
G01*
X0313521Y0247638D01*
G75*
G02*
X0313128Y0248032I0000000J0000394D01*
G01*
X0313128Y0248819D01*
G75*
G02*
X0313521Y0249213I0000394J0000000D01*
G01*
X0318541Y0249213D01*
G75*
G02*
X0318935Y0248819I0000000J-000394D01*
G01*
G37*
G36*
G01*
X0318935Y0246260D02*
X0318935Y0245473D01*
G75*
G02*
X0318541Y0245079I-000394J0000000D01*
G01*
X0313521Y0245079D01*
G75*
G02*
X0313128Y0245473I0000000J0000394D01*
G01*
X0313128Y0246260D01*
G75*
G02*
X0313521Y0246654I0000394J0000000D01*
G01*
X0318541Y0246654D01*
G75*
G02*
X0318935Y0246260I0000000J-000394D01*
G01*
G37*
G36*
G01*
X0318935Y0243701D02*
X0318935Y0242914D01*
G75*
G02*
X0318541Y0242520I-000394J0000000D01*
G01*
X0313521Y0242520D01*
G75*
G02*
X0313128Y0242914I0000000J0000394D01*
G01*
X0313128Y0243701D01*
G75*
G02*
X0313521Y0244095I0000394J0000000D01*
G01*
X0318541Y0244095D01*
G75*
G02*
X0318935Y0243701I0000000J-000394D01*
G01*
G37*
G36*
G01*
X0296395Y0243701D02*
X0296395Y0242914D01*
G75*
G02*
X0296002Y0242520I-000394J0000000D01*
G01*
X0290982Y0242520D01*
G75*
G02*
X0290588Y0242914I0000000J0000394D01*
G01*
X0290588Y0243701D01*
G75*
G02*
X0290982Y0244095I0000394J0000000D01*
G01*
X0296002Y0244095D01*
G75*
G02*
X0296395Y0243701I0000000J-000394D01*
G01*
G37*
G36*
G01*
X0296395Y0246260D02*
X0296395Y0245473D01*
G75*
G02*
X0296002Y0245079I-000394J0000000D01*
G01*
X0290982Y0245079D01*
G75*
G02*
X0290588Y0245473I0000000J0000394D01*
G01*
X0290588Y0246260D01*
G75*
G02*
X0290982Y0246654I0000394J0000000D01*
G01*
X0296002Y0246654D01*
G75*
G02*
X0296395Y0246260I0000000J-000394D01*
G01*
G37*
G36*
G01*
X0296395Y0248819D02*
X0296395Y0248032D01*
G75*
G02*
X0296002Y0247638I-000394J0000000D01*
G01*
X0290982Y0247638D01*
G75*
G02*
X0290588Y0248032I0000000J0000394D01*
G01*
X0290588Y0248819D01*
G75*
G02*
X0290982Y0249213I0000394J0000000D01*
G01*
X0296002Y0249213D01*
G75*
G02*
X0296395Y0248819I0000000J-000394D01*
G01*
G37*
G36*
G01*
X0296395Y0251378D02*
X0296395Y0250591D01*
G75*
G02*
X0296002Y0250197I-000394J0000000D01*
G01*
X0290982Y0250197D01*
G75*
G02*
X0290588Y0250591I0000000J0000394D01*
G01*
X0290588Y0251378D01*
G75*
G02*
X0290982Y0251772I0000394J0000000D01*
G01*
X0296002Y0251772D01*
G75*
G02*
X0296395Y0251378I0000000J-000394D01*
G01*
G37*
G36*
G01*
X0296395Y0253937D02*
X0296395Y0253150D01*
G75*
G02*
X0296002Y0252756I-000394J0000000D01*
G01*
X0290982Y0252756D01*
G75*
G02*
X0290588Y0253150I0000000J0000394D01*
G01*
X0290588Y0253937D01*
G75*
G02*
X0290982Y0254331I0000394J0000000D01*
G01*
X0296002Y0254331D01*
G75*
G02*
X0296395Y0253937I0000000J-000394D01*
G01*
G37*
G36*
G01*
X0296395Y0256496D02*
X0296395Y0255709D01*
G75*
G02*
X0296002Y0255315I-000394J0000000D01*
G01*
X0290982Y0255315D01*
G75*
G02*
X0290588Y0255709I0000000J0000394D01*
G01*
X0290588Y0256496D01*
G75*
G02*
X0290982Y0256890I0000394J0000000D01*
G01*
X0296002Y0256890D01*
G75*
G02*
X0296395Y0256496I0000000J-000394D01*
G01*
G37*
G36*
G01*
X0296395Y0259056D02*
X0296395Y0258268D01*
G75*
G02*
X0296002Y0257874I-000394J0000000D01*
G01*
X0290982Y0257874D01*
G75*
G02*
X0290588Y0258268I0000000J0000394D01*
G01*
X0290588Y0259056D01*
G75*
G02*
X0290982Y0259449I0000394J0000000D01*
G01*
X0296002Y0259449D01*
G75*
G02*
X0296395Y0259056I0000000J-000394D01*
G01*
G37*
G36*
G01*
X0336578Y0251185D02*
X0336578Y0247642D01*
G75*
G02*
X0335594Y0246658I-000984J0000000D01*
G01*
X0333527Y0246658D01*
G75*
G02*
X0332543Y0247642I0000000J0000984D01*
G01*
X0332543Y0251185D01*
G75*
G02*
X0333527Y0252170I0000984J0000000D01*
G01*
X0335594Y0252170D01*
G75*
G02*
X0336578Y0251185I0000000J-000984D01*
G01*
G37*
G36*
G01*
X0329393Y0251185D02*
X0329393Y0247642D01*
G75*
G02*
X0328409Y0246658I-000984J0000000D01*
G01*
X0326342Y0246658D01*
G75*
G02*
X0325358Y0247642I0000000J0000984D01*
G01*
X0325358Y0251185D01*
G75*
G02*
X0326342Y0252170I0000984J0000000D01*
G01*
X0328409Y0252170D01*
G75*
G02*
X0329393Y0251185I0000000J-000984D01*
G01*
G37*
G36*
G01*
X0290335Y0237461D02*
X0290335Y0238918D01*
G75*
G02*
X0290867Y0239449I0000531J0000000D01*
G01*
X0291930Y0239449D01*
G75*
G02*
X0292461Y0238918I0000000J-000531D01*
G01*
X0292461Y0237461D01*
G75*
G02*
X0291930Y0236930I-000531J0000000D01*
G01*
X0290867Y0236930D01*
G75*
G02*
X0290335Y0237461I0000000J0000531D01*
G01*
G37*
G36*
G01*
X0294351Y0237461D02*
X0294351Y0238918D01*
G75*
G02*
X0294882Y0239449I0000531J0000000D01*
G01*
X0295945Y0239449D01*
G75*
G02*
X0296477Y0238918I0000000J-000531D01*
G01*
X0296477Y0237461D01*
G75*
G02*
X0295945Y0236930I-000531J0000000D01*
G01*
X0294882Y0236930D01*
G75*
G02*
X0294351Y0237461I0000000J0000531D01*
G01*
G37*
G36*
G01*
X0330768Y0226536D02*
X0330768Y0227874D01*
G75*
G02*
X0331319Y0228426I0000551J0000000D01*
G01*
X0332422Y0228426D01*
G75*
G02*
X0332973Y0227874I0000000J-000551D01*
G01*
X0332973Y0226536D01*
G75*
G02*
X0332422Y0225985I-000551J0000000D01*
G01*
X0331319Y0225985D01*
G75*
G02*
X0330768Y0226536I0000000J0000551D01*
G01*
G37*
G36*
G01*
X0334548Y0226536D02*
X0334548Y0227874D01*
G75*
G02*
X0335099Y0228426I0000551J0000000D01*
G01*
X0336201Y0228426D01*
G75*
G02*
X0336752Y0227874I0000000J-000551D01*
G01*
X0336752Y0226536D01*
G75*
G02*
X0336201Y0225985I-000551J0000000D01*
G01*
X0335099Y0225985D01*
G75*
G02*
X0334548Y0226536I0000000J0000551D01*
G01*
G37*
G36*
G01*
X0282658Y0233721D02*
X0282658Y0235178D01*
G75*
G02*
X0283189Y0235709I0000531J0000000D01*
G01*
X0284252Y0235709D01*
G75*
G02*
X0284784Y0235178I0000000J-000531D01*
G01*
X0284784Y0233721D01*
G75*
G02*
X0284252Y0233189I-000531J0000000D01*
G01*
X0283189Y0233189D01*
G75*
G02*
X0282658Y0233721I0000000J0000531D01*
G01*
G37*
G36*
G01*
X0286674Y0233721D02*
X0286674Y0235178D01*
G75*
G02*
X0287205Y0235709I0000531J0000000D01*
G01*
X0288268Y0235709D01*
G75*
G02*
X0288800Y0235178I0000000J-000531D01*
G01*
X0288800Y0233721D01*
G75*
G02*
X0288268Y0233189I-000531J0000000D01*
G01*
X0287205Y0233189D01*
G75*
G02*
X0286674Y0233721I0000000J0000531D01*
G01*
G37*
G36*
G01*
X0298591Y0237461D02*
X0298591Y0238917D01*
G75*
G02*
X0299123Y0239449I0000531J0000000D01*
G01*
X0300186Y0239449D01*
G75*
G02*
X0300717Y0238917I0000000J-000531D01*
G01*
X0300717Y0237461D01*
G75*
G02*
X0300186Y0236929I-000531J0000000D01*
G01*
X0299123Y0236929D01*
G75*
G02*
X0298591Y0237461I0000000J0000531D01*
G01*
G37*
G36*
G01*
X0302607Y0237461D02*
X0302607Y0238917D01*
G75*
G02*
X0303139Y0239449I0000531J0000000D01*
G01*
X0304202Y0239449D01*
G75*
G02*
X0304733Y0238917I0000000J-000531D01*
G01*
X0304733Y0237461D01*
G75*
G02*
X0304202Y0236929I-000531J0000000D01*
G01*
X0303139Y0236929D01*
G75*
G02*
X0302607Y0237461I0000000J0000531D01*
G01*
G37*
G36*
G01*
X0325358Y0255217D02*
X0325358Y0258760D01*
G75*
G02*
X0326342Y0259745I0000984J0000000D01*
G01*
X0328409Y0259745D01*
G75*
G02*
X0329393Y0258760I0000000J-000984D01*
G01*
X0329393Y0255217D01*
G75*
G02*
X0328409Y0254233I-000984J0000000D01*
G01*
X0326342Y0254233D01*
G75*
G02*
X0325358Y0255217I0000000J0000984D01*
G01*
G37*
G36*
G01*
X0332543Y0255217D02*
X0332543Y0258760D01*
G75*
G02*
X0333527Y0259745I0000984J0000000D01*
G01*
X0335594Y0259745D01*
G75*
G02*
X0336578Y0258760I0000000J-000984D01*
G01*
X0336578Y0255217D01*
G75*
G02*
X0335594Y0254233I-000984J0000000D01*
G01*
X0333527Y0254233D01*
G75*
G02*
X0332543Y0255217I0000000J0000984D01*
G01*
G37*
G36*
G01*
X0298642Y0226319D02*
X0298642Y0227776D01*
G75*
G02*
X0299174Y0228308I0000531J0000000D01*
G01*
X0300237Y0228308D01*
G75*
G02*
X0300768Y0227776I0000000J-000531D01*
G01*
X0300768Y0226319D01*
G75*
G02*
X0300237Y0225788I-000531J0000000D01*
G01*
X0299174Y0225788D01*
G75*
G02*
X0298642Y0226319I0000000J0000531D01*
G01*
G37*
G36*
G01*
X0302658Y0226319D02*
X0302658Y0227776D01*
G75*
G02*
X0303189Y0228308I0000531J0000000D01*
G01*
X0304252Y0228308D01*
G75*
G02*
X0304784Y0227776I0000000J-000531D01*
G01*
X0304784Y0226319D01*
G75*
G02*
X0304252Y0225788I-000531J0000000D01*
G01*
X0303189Y0225788D01*
G75*
G02*
X0302658Y0226319I0000000J0000531D01*
G01*
G37*
G36*
G01*
X0288957Y0259823D02*
X0288957Y0258367D01*
G75*
G02*
X0288426Y0257835I-000531J0000000D01*
G01*
X0287363Y0257835D01*
G75*
G02*
X0286831Y0258367I0000000J0000531D01*
G01*
X0286831Y0259823D01*
G75*
G02*
X0287363Y0260355I0000531J0000000D01*
G01*
X0288426Y0260355D01*
G75*
G02*
X0288957Y0259823I0000000J-000531D01*
G01*
G37*
G36*
G01*
X0284941Y0259823D02*
X0284941Y0258367D01*
G75*
G02*
X0284410Y0257835I-000531J0000000D01*
G01*
X0283347Y0257835D01*
G75*
G02*
X0282815Y0258367I0000000J0000531D01*
G01*
X0282815Y0259823D01*
G75*
G02*
X0283347Y0260355I0000531J0000000D01*
G01*
X0284410Y0260355D01*
G75*
G02*
X0284941Y0259823I0000000J-000531D01*
G01*
G37*
G36*
G01*
X0288504Y0247874D02*
X0288504Y0246418D01*
G75*
G02*
X0287973Y0245886I-000531J0000000D01*
G01*
X0286910Y0245886D01*
G75*
G02*
X0286378Y0246418I0000000J0000531D01*
G01*
X0286378Y0247874D01*
G75*
G02*
X0286910Y0248406I0000531J0000000D01*
G01*
X0287973Y0248406D01*
G75*
G02*
X0288504Y0247874I0000000J-000531D01*
G01*
G37*
G36*
G01*
X0284489Y0247874D02*
X0284489Y0246418D01*
G75*
G02*
X0283957Y0245886I-000531J0000000D01*
G01*
X0282894Y0245886D01*
G75*
G02*
X0282363Y0246418I0000000J0000531D01*
G01*
X0282363Y0247874D01*
G75*
G02*
X0282894Y0248406I0000531J0000000D01*
G01*
X0283957Y0248406D01*
G75*
G02*
X0284489Y0247874I0000000J-000531D01*
G01*
G37*
G36*
G01*
X0290040Y0233721D02*
X0290040Y0235178D01*
G75*
G02*
X0290571Y0235709I0000531J0000000D01*
G01*
X0291634Y0235709D01*
G75*
G02*
X0292166Y0235178I0000000J-000531D01*
G01*
X0292166Y0233721D01*
G75*
G02*
X0291634Y0233189I-000531J0000000D01*
G01*
X0290571Y0233189D01*
G75*
G02*
X0290040Y0233721I0000000J0000531D01*
G01*
G37*
G36*
G01*
X0294056Y0233721D02*
X0294056Y0235178D01*
G75*
G02*
X0294587Y0235709I0000531J0000000D01*
G01*
X0295650Y0235709D01*
G75*
G02*
X0296182Y0235178I0000000J-000531D01*
G01*
X0296182Y0233721D01*
G75*
G02*
X0295650Y0233189I-000531J0000000D01*
G01*
X0294587Y0233189D01*
G75*
G02*
X0294056Y0233721I0000000J0000531D01*
G01*
G37*
G36*
G01*
X0282343Y0242638D02*
X0282343Y0243977D01*
G75*
G02*
X0282894Y0244528I0000551J0000000D01*
G01*
X0283997Y0244528D01*
G75*
G02*
X0284548Y0243977I0000000J-000551D01*
G01*
X0284548Y0242638D01*
G75*
G02*
X0283997Y0242087I-000551J0000000D01*
G01*
X0282894Y0242087D01*
G75*
G02*
X0282343Y0242638I0000000J0000551D01*
G01*
G37*
G36*
G01*
X0286123Y0242638D02*
X0286123Y0243977D01*
G75*
G02*
X0286674Y0244528I0000551J0000000D01*
G01*
X0287776Y0244528D01*
G75*
G02*
X0288327Y0243977I0000000J-000551D01*
G01*
X0288327Y0242638D01*
G75*
G02*
X0287776Y0242087I-000551J0000000D01*
G01*
X0286674Y0242087D01*
G75*
G02*
X0286123Y0242638I0000000J0000551D01*
G01*
G37*
G36*
G01*
X0321491Y0252853D02*
X0322829Y0252853D01*
G75*
G02*
X0323381Y0252302I0000000J-000551D01*
G01*
X0323381Y0251200D01*
G75*
G02*
X0322829Y0250648I-000551J0000000D01*
G01*
X0321491Y0250648D01*
G75*
G02*
X0320940Y0251200I0000000J0000551D01*
G01*
X0320940Y0252302D01*
G75*
G02*
X0321491Y0252853I0000551J0000000D01*
G01*
G37*
G36*
G01*
X0321491Y0249074D02*
X0322829Y0249074D01*
G75*
G02*
X0323381Y0248523I0000000J-000551D01*
G01*
X0323381Y0247420D01*
G75*
G02*
X0322829Y0246869I-000551J0000000D01*
G01*
X0321491Y0246869D01*
G75*
G02*
X0320940Y0247420I0000000J0000551D01*
G01*
X0320940Y0248523D01*
G75*
G02*
X0321491Y0249074I0000551J0000000D01*
G01*
G37*
G36*
G01*
X0288997Y0238918D02*
X0288997Y0237461D01*
G75*
G02*
X0288465Y0236930I-000531J0000000D01*
G01*
X0287402Y0236930D01*
G75*
G02*
X0286871Y0237461I0000000J0000531D01*
G01*
X0286871Y0238918D01*
G75*
G02*
X0287402Y0239449I0000531J0000000D01*
G01*
X0288465Y0239449D01*
G75*
G02*
X0288997Y0238918I0000000J-000531D01*
G01*
G37*
G36*
G01*
X0284981Y0238918D02*
X0284981Y0237461D01*
G75*
G02*
X0284449Y0236930I-000531J0000000D01*
G01*
X0283386Y0236930D01*
G75*
G02*
X0282855Y0237461I0000000J0000531D01*
G01*
X0282855Y0238918D01*
G75*
G02*
X0283386Y0239449I0000531J0000000D01*
G01*
X0284449Y0239449D01*
G75*
G02*
X0284981Y0238918I0000000J-000531D01*
G01*
G37*
G36*
G01*
X0306398Y0227559D02*
X0306398Y0228741D01*
G75*
G02*
X0306989Y0229331I0000591J0000000D01*
G01*
X0311024Y0229331D01*
G75*
G02*
X0311615Y0228741I0000000J-000591D01*
G01*
X0311615Y0227559D01*
G75*
G02*
X0311024Y0226969I-000591J0000000D01*
G01*
X0306989Y0226969D01*
G75*
G02*
X0306398Y0227559I0000000J0000591D01*
G01*
G37*
G36*
G01*
X0306398Y0231300D02*
X0306398Y0232481D01*
G75*
G02*
X0306989Y0233071I0000591J0000000D01*
G01*
X0311024Y0233071D01*
G75*
G02*
X0311615Y0232481I0000000J-000591D01*
G01*
X0311615Y0231300D01*
G75*
G02*
X0311024Y0230709I-000591J0000000D01*
G01*
X0306989Y0230709D01*
G75*
G02*
X0306398Y0231300I0000000J0000591D01*
G01*
G37*
G36*
G01*
X0306398Y0235040D02*
X0306398Y0236221D01*
G75*
G02*
X0306989Y0236811I0000591J0000000D01*
G01*
X0311024Y0236811D01*
G75*
G02*
X0311615Y0236221I0000000J-000591D01*
G01*
X0311615Y0235040D01*
G75*
G02*
X0311024Y0234449I-000591J0000000D01*
G01*
X0306989Y0234449D01*
G75*
G02*
X0306398Y0235040I0000000J0000591D01*
G01*
G37*
G36*
G01*
X0315355Y0235040D02*
X0315355Y0236221D01*
G75*
G02*
X0315945Y0236811I0000591J0000000D01*
G01*
X0319981Y0236811D01*
G75*
G02*
X0320571Y0236221I0000000J-000591D01*
G01*
X0320571Y0235040D01*
G75*
G02*
X0319981Y0234449I-000591J0000000D01*
G01*
X0315945Y0234449D01*
G75*
G02*
X0315355Y0235040I0000000J0000591D01*
G01*
G37*
G36*
G01*
X0315355Y0227559D02*
X0315355Y0228741D01*
G75*
G02*
X0315945Y0229331I0000591J0000000D01*
G01*
X0319981Y0229331D01*
G75*
G02*
X0320571Y0228741I0000000J-000591D01*
G01*
X0320571Y0227559D01*
G75*
G02*
X0319981Y0226969I-000591J0000000D01*
G01*
X0315945Y0226969D01*
G75*
G02*
X0315355Y0227559I0000000J0000591D01*
G01*
G37*
G36*
G01*
X0304705Y0231378D02*
X0304705Y0230040D01*
G75*
G02*
X0304154Y0229489I-000551J0000000D01*
G01*
X0303052Y0229489D01*
G75*
G02*
X0302500Y0230040I0000000J0000551D01*
G01*
X0302500Y0231378D01*
G75*
G02*
X0303052Y0231930I0000551J0000000D01*
G01*
X0304154Y0231930D01*
G75*
G02*
X0304705Y0231378I0000000J-000551D01*
G01*
G37*
G36*
G01*
X0300926Y0231378D02*
X0300926Y0230040D01*
G75*
G02*
X0300375Y0229489I-000551J0000000D01*
G01*
X0299272Y0229489D01*
G75*
G02*
X0298721Y0230040I0000000J0000551D01*
G01*
X0298721Y0231378D01*
G75*
G02*
X0299272Y0231930I0000551J0000000D01*
G01*
X0300375Y0231930D01*
G75*
G02*
X0300926Y0231378I0000000J-000551D01*
G01*
G37*
X0548327Y0219291D02*
%LPD*%
G01*
D17*
X0490059Y0192126D03*
X0490059Y0196850D03*
X0490059Y0187401D03*
X0490059Y0182677D03*
X0546851Y0208110D03*
X0546851Y0212047D03*
X0081102Y0161713D02*
%LPD*%
G01*
D146*
X0092716Y0070532D03*
X0104527Y0078406D03*
X0092716Y0086280D03*
D159*
X0091929Y0157540D03*
X0087929Y0137540D03*
X0095929Y0137540D03*
D371*
X0130807Y0068052D03*
D372*
X0130807Y0078052D03*
X0130807Y0088052D03*
G36*
G01*
X0088461Y0082008D02*
X0089819Y0082008D01*
G75*
G02*
X0090400Y0081428I0000000J-000581D01*
G01*
X0090400Y0080266D01*
G75*
G02*
X0089819Y0079685I-000581J0000000D01*
G01*
X0088461Y0079685D01*
G75*
G02*
X0087880Y0080266I0000000J0000581D01*
G01*
X0087880Y0081428D01*
G75*
G02*
X0088461Y0082008I0000581J0000000D01*
G01*
G37*
G36*
G01*
X0088461Y0078189D02*
X0089819Y0078189D01*
G75*
G02*
X0090400Y0077609I0000000J-000581D01*
G01*
X0090400Y0076447D01*
G75*
G02*
X0089819Y0075867I-000581J0000000D01*
G01*
X0088461Y0075867D01*
G75*
G02*
X0087880Y0076447I0000000J0000581D01*
G01*
X0087880Y0077609D01*
G75*
G02*
X0088461Y0078189I0000581J0000000D01*
G01*
G37*
G36*
G01*
X0103750Y0067540D02*
X0105108Y0067540D01*
G75*
G02*
X0105689Y0066959I0000000J-000581D01*
G01*
X0105689Y0065798D01*
G75*
G02*
X0105108Y0065217I-000581J0000000D01*
G01*
X0103750Y0065217D01*
G75*
G02*
X0103169Y0065798I0000000J0000581D01*
G01*
X0103169Y0066959D01*
G75*
G02*
X0103750Y0067540I0000581J0000000D01*
G01*
G37*
G36*
G01*
X0103750Y0063721D02*
X0105108Y0063721D01*
G75*
G02*
X0105689Y0063140I0000000J-000581D01*
G01*
X0105689Y0061979D01*
G75*
G02*
X0105108Y0061398I-000581J0000000D01*
G01*
X0103750Y0061398D01*
G75*
G02*
X0103169Y0061979I0000000J0000581D01*
G01*
X0103169Y0063140D01*
G75*
G02*
X0103750Y0063721I0000581J0000000D01*
G01*
G37*
G36*
G01*
X0129946Y0117422D02*
X0127928Y0117422D01*
G75*
G02*
X0127067Y0118283I0000000J0000861D01*
G01*
X0127067Y0120005D01*
G75*
G02*
X0127928Y0120867I0000861J0000000D01*
G01*
X0129946Y0120867D01*
G75*
G02*
X0130807Y0120005I0000000J-000861D01*
G01*
X0130807Y0118283D01*
G75*
G02*
X0129946Y0117422I-000861J0000000D01*
G01*
G37*
G36*
G01*
X0129946Y0123622D02*
X0127928Y0123622D01*
G75*
G02*
X0127067Y0124484I0000000J0000861D01*
G01*
X0127067Y0126206D01*
G75*
G02*
X0127928Y0127067I0000861J0000000D01*
G01*
X0129946Y0127067D01*
G75*
G02*
X0130807Y0126206I0000000J-000861D01*
G01*
X0130807Y0124484D01*
G75*
G02*
X0129946Y0123622I-000861J0000000D01*
G01*
G37*
G36*
G01*
X0085620Y0075867D02*
X0084261Y0075867D01*
G75*
G02*
X0083681Y0076447I0000000J0000581D01*
G01*
X0083681Y0077609D01*
G75*
G02*
X0084261Y0078189I0000581J0000000D01*
G01*
X0085620Y0078189D01*
G75*
G02*
X0086200Y0077609I0000000J-000581D01*
G01*
X0086200Y0076447D01*
G75*
G02*
X0085620Y0075867I-000581J0000000D01*
G01*
G37*
G36*
G01*
X0085620Y0079685D02*
X0084261Y0079685D01*
G75*
G02*
X0083681Y0080266I0000000J0000581D01*
G01*
X0083681Y0081428D01*
G75*
G02*
X0084261Y0082008I0000581J0000000D01*
G01*
X0085620Y0082008D01*
G75*
G02*
X0086200Y0081428I0000000J-000581D01*
G01*
X0086200Y0080266D01*
G75*
G02*
X0085620Y0079685I-000581J0000000D01*
G01*
G37*
G36*
G01*
X0124616Y0135568D02*
X0125974Y0135568D01*
G75*
G02*
X0126555Y0134988I0000000J-000581D01*
G01*
X0126555Y0133826D01*
G75*
G02*
X0125974Y0133246I-000581J0000000D01*
G01*
X0124616Y0133246D01*
G75*
G02*
X0124035Y0133826I0000000J0000581D01*
G01*
X0124035Y0134988D01*
G75*
G02*
X0124616Y0135568I0000581J0000000D01*
G01*
G37*
G36*
G01*
X0124616Y0131750D02*
X0125974Y0131750D01*
G75*
G02*
X0126555Y0131169I0000000J-000581D01*
G01*
X0126555Y0130007D01*
G75*
G02*
X0125974Y0129427I-000581J0000000D01*
G01*
X0124616Y0129427D01*
G75*
G02*
X0124035Y0130007I0000000J0000581D01*
G01*
X0124035Y0131169D01*
G75*
G02*
X0124616Y0131750I0000581J0000000D01*
G01*
G37*
G36*
G01*
X0122746Y0127481D02*
X0124104Y0127481D01*
G75*
G02*
X0124685Y0126900I0000000J-000581D01*
G01*
X0124685Y0125739D01*
G75*
G02*
X0124104Y0125158I-000581J0000000D01*
G01*
X0122746Y0125158D01*
G75*
G02*
X0122165Y0125739I0000000J0000581D01*
G01*
X0122165Y0126900D01*
G75*
G02*
X0122746Y0127481I0000581J0000000D01*
G01*
G37*
G36*
G01*
X0122746Y0123662D02*
X0124104Y0123662D01*
G75*
G02*
X0124685Y0123081I0000000J-000581D01*
G01*
X0124685Y0121920D01*
G75*
G02*
X0124104Y0121339I-000581J0000000D01*
G01*
X0122746Y0121339D01*
G75*
G02*
X0122165Y0121920I0000000J0000581D01*
G01*
X0122165Y0123081D01*
G75*
G02*
X0122746Y0123662I0000581J0000000D01*
G01*
G37*
G36*
G01*
X0130078Y0156093D02*
X0130078Y0154735D01*
G75*
G02*
X0129498Y0154154I-000581J0000000D01*
G01*
X0128336Y0154154D01*
G75*
G02*
X0127756Y0154735I0000000J0000581D01*
G01*
X0127756Y0156093D01*
G75*
G02*
X0128336Y0156674I0000581J0000000D01*
G01*
X0129498Y0156674D01*
G75*
G02*
X0130078Y0156093I0000000J-000581D01*
G01*
G37*
G36*
G01*
X0126259Y0156093D02*
X0126259Y0154735D01*
G75*
G02*
X0125679Y0154154I-000581J0000000D01*
G01*
X0124517Y0154154D01*
G75*
G02*
X0123937Y0154735I0000000J0000581D01*
G01*
X0123937Y0156093D01*
G75*
G02*
X0124517Y0156674I0000581J0000000D01*
G01*
X0125679Y0156674D01*
G75*
G02*
X0126259Y0156093I0000000J-000581D01*
G01*
G37*
G36*
G01*
X0112490Y0106575D02*
X0111132Y0106575D01*
G75*
G02*
X0110551Y0107156I0000000J0000581D01*
G01*
X0110551Y0108317D01*
G75*
G02*
X0111132Y0108898I0000581J0000000D01*
G01*
X0112490Y0108898D01*
G75*
G02*
X0113071Y0108317I0000000J-000581D01*
G01*
X0113071Y0107156D01*
G75*
G02*
X0112490Y0106575I-000581J0000000D01*
G01*
G37*
G36*
G01*
X0112490Y0110394D02*
X0111132Y0110394D01*
G75*
G02*
X0110551Y0110975I0000000J0000581D01*
G01*
X0110551Y0112136D01*
G75*
G02*
X0111132Y0112717I0000581J0000000D01*
G01*
X0112490Y0112717D01*
G75*
G02*
X0113071Y0112136I0000000J-000581D01*
G01*
X0113071Y0110975D01*
G75*
G02*
X0112490Y0110394I-000581J0000000D01*
G01*
G37*
G36*
G01*
X0107195Y0112717D02*
X0108553Y0112717D01*
G75*
G02*
X0109133Y0112136I0000000J-000581D01*
G01*
X0109133Y0110975D01*
G75*
G02*
X0108553Y0110394I-000581J0000000D01*
G01*
X0107195Y0110394D01*
G75*
G02*
X0106614Y0110975I0000000J0000581D01*
G01*
X0106614Y0112136D01*
G75*
G02*
X0107195Y0112717I0000581J0000000D01*
G01*
G37*
G36*
G01*
X0107195Y0108898D02*
X0108553Y0108898D01*
G75*
G02*
X0109133Y0108317I0000000J-000581D01*
G01*
X0109133Y0107156D01*
G75*
G02*
X0108553Y0106575I-000581J0000000D01*
G01*
X0107195Y0106575D01*
G75*
G02*
X0106614Y0107156I0000000J0000581D01*
G01*
X0106614Y0108317D01*
G75*
G02*
X0107195Y0108898I0000581J0000000D01*
G01*
G37*
G36*
G01*
X0109635Y0065237D02*
X0108277Y0065237D01*
G75*
G02*
X0107696Y0065817I0000000J0000581D01*
G01*
X0107696Y0066979D01*
G75*
G02*
X0108277Y0067559I0000581J0000000D01*
G01*
X0109635Y0067559D01*
G75*
G02*
X0110216Y0066979I0000000J-000581D01*
G01*
X0110216Y0065817D01*
G75*
G02*
X0109635Y0065237I-000581J0000000D01*
G01*
G37*
G36*
G01*
X0109635Y0069056D02*
X0108277Y0069056D01*
G75*
G02*
X0107696Y0069636I0000000J0000581D01*
G01*
X0107696Y0070798D01*
G75*
G02*
X0108277Y0071378I0000581J0000000D01*
G01*
X0109635Y0071378D01*
G75*
G02*
X0110216Y0070798I0000000J-000581D01*
G01*
X0110216Y0069636D01*
G75*
G02*
X0109635Y0069056I-000581J0000000D01*
G01*
G37*
D374*
X0086220Y0119587D03*
X0088779Y0119587D03*
X0091338Y0119587D03*
X0093897Y0119587D03*
X0096456Y0119587D03*
X0099015Y0119587D03*
X0101574Y0119587D03*
X0101574Y0096359D03*
X0099015Y0096359D03*
X0096456Y0096359D03*
X0093897Y0096359D03*
X0091338Y0096359D03*
X0088779Y0096359D03*
X0086220Y0096359D03*
G36*
G01*
X0129714Y0129410D02*
X0128356Y0129410D01*
G75*
G02*
X0127775Y0129991I0000000J0000581D01*
G01*
X0127775Y0131152D01*
G75*
G02*
X0128356Y0131733I0000581J0000000D01*
G01*
X0129714Y0131733D01*
G75*
G02*
X0130295Y0131152I0000000J-000581D01*
G01*
X0130295Y0129991D01*
G75*
G02*
X0129714Y0129410I-000581J0000000D01*
G01*
G37*
G36*
G01*
X0129714Y0133229D02*
X0128356Y0133229D01*
G75*
G02*
X0127775Y0133809I0000000J0000581D01*
G01*
X0127775Y0134971D01*
G75*
G02*
X0128356Y0135552I0000581J0000000D01*
G01*
X0129714Y0135552D01*
G75*
G02*
X0130295Y0134971I0000000J-000581D01*
G01*
X0130295Y0133809D01*
G75*
G02*
X0129714Y0133229I-000581J0000000D01*
G01*
G37*
G36*
G01*
X0132096Y0135552D02*
X0133454Y0135552D01*
G75*
G02*
X0134035Y0134971I0000000J-000581D01*
G01*
X0134035Y0133809D01*
G75*
G02*
X0133454Y0133229I-000581J0000000D01*
G01*
X0132096Y0133229D01*
G75*
G02*
X0131515Y0133809I0000000J0000581D01*
G01*
X0131515Y0134971D01*
G75*
G02*
X0132096Y0135552I0000581J0000000D01*
G01*
G37*
G36*
G01*
X0132096Y0131733D02*
X0133454Y0131733D01*
G75*
G02*
X0134035Y0131152I0000000J-000581D01*
G01*
X0134035Y0129991D01*
G75*
G02*
X0133454Y0129410I-000581J0000000D01*
G01*
X0132096Y0129410D01*
G75*
G02*
X0131515Y0129991I0000000J0000581D01*
G01*
X0131515Y0131152D01*
G75*
G02*
X0132096Y0131733I0000581J0000000D01*
G01*
G37*
G36*
G01*
X0122647Y0075315D02*
X0124006Y0075315D01*
G75*
G02*
X0124586Y0074735I0000000J-000581D01*
G01*
X0124586Y0073573D01*
G75*
G02*
X0124006Y0072993I-000581J0000000D01*
G01*
X0122647Y0072993D01*
G75*
G02*
X0122067Y0073573I0000000J0000581D01*
G01*
X0122067Y0074735D01*
G75*
G02*
X0122647Y0075315I0000581J0000000D01*
G01*
G37*
G36*
G01*
X0122647Y0071496D02*
X0124006Y0071496D01*
G75*
G02*
X0124586Y0070916I0000000J-000581D01*
G01*
X0124586Y0069754D01*
G75*
G02*
X0124006Y0069174I-000581J0000000D01*
G01*
X0122647Y0069174D01*
G75*
G02*
X0122067Y0069754I0000000J0000581D01*
G01*
X0122067Y0070916D01*
G75*
G02*
X0122647Y0071496I0000581J0000000D01*
G01*
G37*
G36*
G01*
X0093349Y0082008D02*
X0094708Y0082008D01*
G75*
G02*
X0095288Y0081428I0000000J-000581D01*
G01*
X0095288Y0080266D01*
G75*
G02*
X0094708Y0079685I-000581J0000000D01*
G01*
X0093349Y0079685D01*
G75*
G02*
X0092769Y0080266I0000000J0000581D01*
G01*
X0092769Y0081428D01*
G75*
G02*
X0093349Y0082008I0000581J0000000D01*
G01*
G37*
G36*
G01*
X0093349Y0078189D02*
X0094708Y0078189D01*
G75*
G02*
X0095288Y0077609I0000000J-000581D01*
G01*
X0095288Y0076447D01*
G75*
G02*
X0094708Y0075867I-000581J0000000D01*
G01*
X0093349Y0075867D01*
G75*
G02*
X0092769Y0076447I0000000J0000581D01*
G01*
X0092769Y0077609D01*
G75*
G02*
X0093349Y0078189I0000581J0000000D01*
G01*
G37*
G36*
G01*
X0116427Y0109823D02*
X0115069Y0109823D01*
G75*
G02*
X0114488Y0110404I0000000J0000581D01*
G01*
X0114488Y0111565D01*
G75*
G02*
X0115069Y0112146I0000581J0000000D01*
G01*
X0116427Y0112146D01*
G75*
G02*
X0117008Y0111565I0000000J-000581D01*
G01*
X0117008Y0110404D01*
G75*
G02*
X0116427Y0109823I-000581J0000000D01*
G01*
G37*
G36*
G01*
X0116427Y0113642D02*
X0115069Y0113642D01*
G75*
G02*
X0114488Y0114223I0000000J0000581D01*
G01*
X0114488Y0115384D01*
G75*
G02*
X0115069Y0115965I0000581J0000000D01*
G01*
X0116427Y0115965D01*
G75*
G02*
X0117008Y0115384I0000000J-000581D01*
G01*
X0117008Y0114223D01*
G75*
G02*
X0116427Y0113642I-000581J0000000D01*
G01*
G37*
G36*
G01*
X0124006Y0061496D02*
X0122647Y0061496D01*
G75*
G02*
X0122067Y0062077I0000000J0000581D01*
G01*
X0122067Y0063239D01*
G75*
G02*
X0122647Y0063819I0000581J0000000D01*
G01*
X0124006Y0063819D01*
G75*
G02*
X0124586Y0063239I0000000J-000581D01*
G01*
X0124586Y0062077D01*
G75*
G02*
X0124006Y0061496I-000581J0000000D01*
G01*
G37*
G36*
G01*
X0124006Y0065315D02*
X0122647Y0065315D01*
G75*
G02*
X0122067Y0065896I0000000J0000581D01*
G01*
X0122067Y0067057D01*
G75*
G02*
X0122647Y0067638I0000581J0000000D01*
G01*
X0124006Y0067638D01*
G75*
G02*
X0124586Y0067057I0000000J-000581D01*
G01*
X0124586Y0065896D01*
G75*
G02*
X0124006Y0065315I-000581J0000000D01*
G01*
G37*
G36*
G01*
X0108553Y0113957D02*
X0107195Y0113957D01*
G75*
G02*
X0106614Y0114538I0000000J0000581D01*
G01*
X0106614Y0115699D01*
G75*
G02*
X0107195Y0116280I0000581J0000000D01*
G01*
X0108553Y0116280D01*
G75*
G02*
X0109133Y0115699I0000000J-000581D01*
G01*
X0109133Y0114538D01*
G75*
G02*
X0108553Y0113957I-000581J0000000D01*
G01*
G37*
G36*
G01*
X0108553Y0117776D02*
X0107195Y0117776D01*
G75*
G02*
X0106614Y0118357I0000000J0000581D01*
G01*
X0106614Y0119518D01*
G75*
G02*
X0107195Y0120099I0000581J0000000D01*
G01*
X0108553Y0120099D01*
G75*
G02*
X0109133Y0119518I0000000J-000581D01*
G01*
X0109133Y0118357D01*
G75*
G02*
X0108553Y0117776I-000581J0000000D01*
G01*
G37*
G36*
G01*
X0083937Y0125207D02*
X0083937Y0126565D01*
G75*
G02*
X0084517Y0127146I0000581J0000000D01*
G01*
X0085679Y0127146D01*
G75*
G02*
X0086259Y0126565I0000000J-000581D01*
G01*
X0086259Y0125207D01*
G75*
G02*
X0085679Y0124626I-000581J0000000D01*
G01*
X0084517Y0124626D01*
G75*
G02*
X0083937Y0125207I0000000J0000581D01*
G01*
G37*
G36*
G01*
X0087756Y0125207D02*
X0087756Y0126565D01*
G75*
G02*
X0088336Y0127146I0000581J0000000D01*
G01*
X0089498Y0127146D01*
G75*
G02*
X0090078Y0126565I0000000J-000581D01*
G01*
X0090078Y0125207D01*
G75*
G02*
X0089498Y0124626I-000581J0000000D01*
G01*
X0088336Y0124626D01*
G75*
G02*
X0087756Y0125207I0000000J0000581D01*
G01*
G37*
G36*
G01*
X0112490Y0099095D02*
X0111132Y0099095D01*
G75*
G02*
X0110551Y0099676I0000000J0000581D01*
G01*
X0110551Y0100837D01*
G75*
G02*
X0111132Y0101418I0000581J0000000D01*
G01*
X0112490Y0101418D01*
G75*
G02*
X0113071Y0100837I0000000J-000581D01*
G01*
X0113071Y0099676D01*
G75*
G02*
X0112490Y0099095I-000581J0000000D01*
G01*
G37*
G36*
G01*
X0112490Y0102914D02*
X0111132Y0102914D01*
G75*
G02*
X0110551Y0103494I0000000J0000581D01*
G01*
X0110551Y0104656D01*
G75*
G02*
X0111132Y0105237I0000581J0000000D01*
G01*
X0112490Y0105237D01*
G75*
G02*
X0113071Y0104656I0000000J-000581D01*
G01*
X0113071Y0103494D01*
G75*
G02*
X0112490Y0102914I-000581J0000000D01*
G01*
G37*
G36*
G01*
X0111132Y0097756D02*
X0112490Y0097756D01*
G75*
G02*
X0113071Y0097176I0000000J-000581D01*
G01*
X0113071Y0096014D01*
G75*
G02*
X0112490Y0095433I-000581J0000000D01*
G01*
X0111132Y0095433D01*
G75*
G02*
X0110551Y0096014I0000000J0000581D01*
G01*
X0110551Y0097176D01*
G75*
G02*
X0111132Y0097756I0000581J0000000D01*
G01*
G37*
G36*
G01*
X0111132Y0093937D02*
X0112490Y0093937D01*
G75*
G02*
X0113071Y0093357I0000000J-000581D01*
G01*
X0113071Y0092195D01*
G75*
G02*
X0112490Y0091615I-000581J0000000D01*
G01*
X0111132Y0091615D01*
G75*
G02*
X0110551Y0092195I0000000J0000581D01*
G01*
X0110551Y0093357D01*
G75*
G02*
X0111132Y0093937I0000581J0000000D01*
G01*
G37*
G36*
G01*
X0083937Y0128947D02*
X0083937Y0130306D01*
G75*
G02*
X0084517Y0130886I0000581J0000000D01*
G01*
X0085679Y0130886D01*
G75*
G02*
X0086259Y0130306I0000000J-000581D01*
G01*
X0086259Y0128947D01*
G75*
G02*
X0085679Y0128367I-000581J0000000D01*
G01*
X0084517Y0128367D01*
G75*
G02*
X0083937Y0128947I0000000J0000581D01*
G01*
G37*
G36*
G01*
X0087756Y0128947D02*
X0087756Y0130306D01*
G75*
G02*
X0088336Y0130886I0000581J0000000D01*
G01*
X0089498Y0130886D01*
G75*
G02*
X0090078Y0130306I0000000J-000581D01*
G01*
X0090078Y0128947D01*
G75*
G02*
X0089498Y0128367I-000581J0000000D01*
G01*
X0088336Y0128367D01*
G75*
G02*
X0087756Y0128947I0000000J0000581D01*
G01*
G37*
D375*
X0132775Y0139626D03*
X0129035Y0139626D03*
X0125295Y0139626D03*
X0125295Y0149941D03*
X0132775Y0149941D03*
G36*
G01*
X0115069Y0105138D02*
X0116427Y0105138D01*
G75*
G02*
X0117008Y0104557I0000000J-000581D01*
G01*
X0117008Y0103396D01*
G75*
G02*
X0116427Y0102815I-000581J0000000D01*
G01*
X0115069Y0102815D01*
G75*
G02*
X0114488Y0103396I0000000J0000581D01*
G01*
X0114488Y0104557D01*
G75*
G02*
X0115069Y0105138I0000581J0000000D01*
G01*
G37*
G36*
G01*
X0115069Y0101319D02*
X0116427Y0101319D01*
G75*
G02*
X0117008Y0100739I0000000J-000581D01*
G01*
X0117008Y0099577D01*
G75*
G02*
X0116427Y0098996I-000581J0000000D01*
G01*
X0115069Y0098996D01*
G75*
G02*
X0114488Y0099577I0000000J0000581D01*
G01*
X0114488Y0100739D01*
G75*
G02*
X0115069Y0101319I0000581J0000000D01*
G01*
G37*
G36*
G01*
X0119173Y0117727D02*
X0119173Y0119085D01*
G75*
G02*
X0119754Y0119666I0000581J0000000D01*
G01*
X0120915Y0119666D01*
G75*
G02*
X0121496Y0119085I0000000J-000581D01*
G01*
X0121496Y0117727D01*
G75*
G02*
X0120915Y0117146I-000581J0000000D01*
G01*
X0119754Y0117146D01*
G75*
G02*
X0119173Y0117727I0000000J0000581D01*
G01*
G37*
G36*
G01*
X0122992Y0117727D02*
X0122992Y0119085D01*
G75*
G02*
X0123572Y0119666I0000581J0000000D01*
G01*
X0124734Y0119666D01*
G75*
G02*
X0125315Y0119085I0000000J-000581D01*
G01*
X0125315Y0117727D01*
G75*
G02*
X0124734Y0117146I-000581J0000000D01*
G01*
X0123572Y0117146D01*
G75*
G02*
X0122992Y0117727I0000000J0000581D01*
G01*
G37*
G36*
G01*
X0098740Y0126565D02*
X0098740Y0125207D01*
G75*
G02*
X0098159Y0124626I-000581J0000000D01*
G01*
X0096998Y0124626D01*
G75*
G02*
X0096417Y0125207I0000000J0000581D01*
G01*
X0096417Y0126565D01*
G75*
G02*
X0096998Y0127146I0000581J0000000D01*
G01*
X0098159Y0127146D01*
G75*
G02*
X0098740Y0126565I0000000J-000581D01*
G01*
G37*
G36*
G01*
X0094921Y0126565D02*
X0094921Y0125207D01*
G75*
G02*
X0094340Y0124626I-000581J0000000D01*
G01*
X0093179Y0124626D01*
G75*
G02*
X0092598Y0125207I0000000J0000581D01*
G01*
X0092598Y0126565D01*
G75*
G02*
X0093179Y0127146I0000581J0000000D01*
G01*
X0094340Y0127146D01*
G75*
G02*
X0094921Y0126565I0000000J-000581D01*
G01*
G37*
G36*
G01*
X0099695Y0083445D02*
X0098336Y0083445D01*
G75*
G02*
X0097756Y0084026I0000000J0000581D01*
G01*
X0097756Y0085187D01*
G75*
G02*
X0098336Y0085768I0000581J0000000D01*
G01*
X0099695Y0085768D01*
G75*
G02*
X0100275Y0085187I0000000J-000581D01*
G01*
X0100275Y0084026D01*
G75*
G02*
X0099695Y0083445I-000581J0000000D01*
G01*
G37*
G36*
G01*
X0099695Y0087264D02*
X0098336Y0087264D01*
G75*
G02*
X0097756Y0087845I0000000J0000581D01*
G01*
X0097756Y0089006D01*
G75*
G02*
X0098336Y0089587I0000581J0000000D01*
G01*
X0099695Y0089587D01*
G75*
G02*
X0100275Y0089006I0000000J-000581D01*
G01*
X0100275Y0087845D01*
G75*
G02*
X0099695Y0087264I-000581J0000000D01*
G01*
G37*
G36*
G01*
X0099695Y0075867D02*
X0098336Y0075867D01*
G75*
G02*
X0097756Y0076447I0000000J0000581D01*
G01*
X0097756Y0077609D01*
G75*
G02*
X0098336Y0078189I0000581J0000000D01*
G01*
X0099695Y0078189D01*
G75*
G02*
X0100275Y0077609I0000000J-000581D01*
G01*
X0100275Y0076447D01*
G75*
G02*
X0099695Y0075867I-000581J0000000D01*
G01*
G37*
G36*
G01*
X0099695Y0079685D02*
X0098336Y0079685D01*
G75*
G02*
X0097756Y0080266I0000000J0000581D01*
G01*
X0097756Y0081428D01*
G75*
G02*
X0098336Y0082008I0000581J0000000D01*
G01*
X0099695Y0082008D01*
G75*
G02*
X0100275Y0081428I0000000J-000581D01*
G01*
X0100275Y0080266D01*
G75*
G02*
X0099695Y0079685I-000581J0000000D01*
G01*
G37*
G36*
G01*
X0098740Y0130306D02*
X0098740Y0128947D01*
G75*
G02*
X0098159Y0128367I-000581J0000000D01*
G01*
X0096998Y0128367D01*
G75*
G02*
X0096417Y0128947I0000000J0000581D01*
G01*
X0096417Y0130306D01*
G75*
G02*
X0096998Y0130886I0000581J0000000D01*
G01*
X0098159Y0130886D01*
G75*
G02*
X0098740Y0130306I0000000J-000581D01*
G01*
G37*
G36*
G01*
X0094921Y0130306D02*
X0094921Y0128947D01*
G75*
G02*
X0094340Y0128367I-000581J0000000D01*
G01*
X0093179Y0128367D01*
G75*
G02*
X0092598Y0128947I0000000J0000581D01*
G01*
X0092598Y0130306D01*
G75*
G02*
X0093179Y0130886I0000581J0000000D01*
G01*
X0094340Y0130886D01*
G75*
G02*
X0094921Y0130306I0000000J-000581D01*
G01*
G37*
G36*
G01*
X0108553Y0095945D02*
X0107195Y0095945D01*
G75*
G02*
X0106614Y0096526I0000000J0000581D01*
G01*
X0106614Y0097687D01*
G75*
G02*
X0107195Y0098268I0000581J0000000D01*
G01*
X0108553Y0098268D01*
G75*
G02*
X0109133Y0097687I0000000J-000581D01*
G01*
X0109133Y0096526D01*
G75*
G02*
X0108553Y0095945I-000581J0000000D01*
G01*
G37*
G36*
G01*
X0108553Y0099764D02*
X0107195Y0099764D01*
G75*
G02*
X0106614Y0100345I0000000J0000581D01*
G01*
X0106614Y0101506D01*
G75*
G02*
X0107195Y0102087I0000581J0000000D01*
G01*
X0108553Y0102087D01*
G75*
G02*
X0109133Y0101506I0000000J-000581D01*
G01*
X0109133Y0100345D01*
G75*
G02*
X0108553Y0099764I-000581J0000000D01*
G01*
G37*
G36*
G01*
X0098740Y0134046D02*
X0098740Y0132687D01*
G75*
G02*
X0098159Y0132107I-000581J0000000D01*
G01*
X0096998Y0132107D01*
G75*
G02*
X0096417Y0132687I0000000J0000581D01*
G01*
X0096417Y0134046D01*
G75*
G02*
X0096998Y0134626I0000581J0000000D01*
G01*
X0098159Y0134626D01*
G75*
G02*
X0098740Y0134046I0000000J-000581D01*
G01*
G37*
G36*
G01*
X0094921Y0134046D02*
X0094921Y0132687D01*
G75*
G02*
X0094340Y0132107I-000581J0000000D01*
G01*
X0093179Y0132107D01*
G75*
G02*
X0092598Y0132687I0000000J0000581D01*
G01*
X0092598Y0134046D01*
G75*
G02*
X0093179Y0134626I0000581J0000000D01*
G01*
X0094340Y0134626D01*
G75*
G02*
X0094921Y0134046I0000000J-000581D01*
G01*
G37*
G36*
G01*
X0090078Y0134046D02*
X0090078Y0132687D01*
G75*
G02*
X0089498Y0132107I-000581J0000000D01*
G01*
X0088336Y0132107D01*
G75*
G02*
X0087756Y0132687I0000000J0000581D01*
G01*
X0087756Y0134046D01*
G75*
G02*
X0088336Y0134626I0000581J0000000D01*
G01*
X0089498Y0134626D01*
G75*
G02*
X0090078Y0134046I0000000J-000581D01*
G01*
G37*
G36*
G01*
X0086259Y0134046D02*
X0086259Y0132687D01*
G75*
G02*
X0085679Y0132107I-000581J0000000D01*
G01*
X0084517Y0132107D01*
G75*
G02*
X0083937Y0132687I0000000J0000581D01*
G01*
X0083937Y0134046D01*
G75*
G02*
X0084517Y0134626I0000581J0000000D01*
G01*
X0085679Y0134626D01*
G75*
G02*
X0086259Y0134046I0000000J-000581D01*
G01*
G37*
G36*
G01*
X0095885Y0148859D02*
X0097224Y0148859D01*
G75*
G02*
X0097775Y0148308I0000000J-000551D01*
G01*
X0097775Y0147205D01*
G75*
G02*
X0097224Y0146654I-000551J0000000D01*
G01*
X0095885Y0146654D01*
G75*
G02*
X0095334Y0147205I0000000J0000551D01*
G01*
X0095334Y0148308D01*
G75*
G02*
X0095885Y0148859I0000551J0000000D01*
G01*
G37*
G36*
G01*
X0095885Y0145079D02*
X0097224Y0145079D01*
G75*
G02*
X0097775Y0144528I0000000J-000551D01*
G01*
X0097775Y0143426D01*
G75*
G02*
X0097224Y0142875I-000551J0000000D01*
G01*
X0095885Y0142875D01*
G75*
G02*
X0095334Y0143426I0000000J0000551D01*
G01*
X0095334Y0144528D01*
G75*
G02*
X0095885Y0145079I0000551J0000000D01*
G01*
G37*
G36*
G01*
X0122145Y0093918D02*
X0120689Y0093918D01*
G75*
G02*
X0120157Y0094449I0000000J0000531D01*
G01*
X0120157Y0095512D01*
G75*
G02*
X0120689Y0096044I0000531J0000000D01*
G01*
X0122145Y0096044D01*
G75*
G02*
X0122677Y0095512I0000000J-000531D01*
G01*
X0122677Y0094449D01*
G75*
G02*
X0122145Y0093918I-000531J0000000D01*
G01*
G37*
G36*
G01*
X0122145Y0097933D02*
X0120689Y0097933D01*
G75*
G02*
X0120157Y0098465I0000000J0000531D01*
G01*
X0120157Y0099528D01*
G75*
G02*
X0120689Y0100059I0000531J0000000D01*
G01*
X0122145Y0100059D01*
G75*
G02*
X0122677Y0099528I0000000J-000531D01*
G01*
X0122677Y0098465D01*
G75*
G02*
X0122145Y0097933I-000531J0000000D01*
G01*
G37*
G36*
G01*
X0107612Y0154646D02*
X0107612Y0156103D01*
G75*
G02*
X0108144Y0156634I0000531J0000000D01*
G01*
X0109207Y0156634D01*
G75*
G02*
X0109738Y0156103I0000000J-000531D01*
G01*
X0109738Y0154646D01*
G75*
G02*
X0109207Y0154115I-000531J0000000D01*
G01*
X0108144Y0154115D01*
G75*
G02*
X0107612Y0154646I0000000J0000531D01*
G01*
G37*
G36*
G01*
X0111628Y0154646D02*
X0111628Y0156103D01*
G75*
G02*
X0112160Y0156634I0000531J0000000D01*
G01*
X0113223Y0156634D01*
G75*
G02*
X0113754Y0156103I0000000J-000531D01*
G01*
X0113754Y0154646D01*
G75*
G02*
X0113223Y0154115I-000531J0000000D01*
G01*
X0112160Y0154115D01*
G75*
G02*
X0111628Y0154646I0000000J0000531D01*
G01*
G37*
G36*
G01*
X0083661Y0154036D02*
X0084842Y0154036D01*
G75*
G02*
X0085433Y0153445I0000000J-000591D01*
G01*
X0085433Y0148819D01*
G75*
G02*
X0084842Y0148229I-000591J0000000D01*
G01*
X0083661Y0148229D01*
G75*
G02*
X0083071Y0148819I0000000J0000591D01*
G01*
X0083071Y0153445D01*
G75*
G02*
X0083661Y0154036I0000591J0000000D01*
G01*
G37*
G36*
G01*
X0091141Y0154036D02*
X0092322Y0154036D01*
G75*
G02*
X0092913Y0153445I0000000J-000591D01*
G01*
X0092913Y0148819D01*
G75*
G02*
X0092322Y0148229I-000591J0000000D01*
G01*
X0091141Y0148229D01*
G75*
G02*
X0090551Y0148819I0000000J0000591D01*
G01*
X0090551Y0153445D01*
G75*
G02*
X0091141Y0154036I0000591J0000000D01*
G01*
G37*
G36*
G01*
X0087401Y0146654D02*
X0088582Y0146654D01*
G75*
G02*
X0089173Y0146063I0000000J-000591D01*
G01*
X0089173Y0141437D01*
G75*
G02*
X0088582Y0140847I-000591J0000000D01*
G01*
X0087401Y0140847D01*
G75*
G02*
X0086811Y0141437I0000000J0000591D01*
G01*
X0086811Y0146063D01*
G75*
G02*
X0087401Y0146654I0000591J0000000D01*
G01*
G37*
G36*
G01*
X0121593Y0156083D02*
X0121593Y0154744D01*
G75*
G02*
X0121041Y0154193I-000551J0000000D01*
G01*
X0119939Y0154193D01*
G75*
G02*
X0119388Y0154744I0000000J0000551D01*
G01*
X0119388Y0156083D01*
G75*
G02*
X0119939Y0156634I0000551J0000000D01*
G01*
X0121041Y0156634D01*
G75*
G02*
X0121593Y0156083I0000000J-000551D01*
G01*
G37*
G36*
G01*
X0117813Y0156083D02*
X0117813Y0154744D01*
G75*
G02*
X0117262Y0154193I-000551J0000000D01*
G01*
X0116160Y0154193D01*
G75*
G02*
X0115608Y0154744I0000000J0000551D01*
G01*
X0115608Y0156083D01*
G75*
G02*
X0116160Y0156634I0000551J0000000D01*
G01*
X0117262Y0156634D01*
G75*
G02*
X0117813Y0156083I0000000J-000551D01*
G01*
G37*
G36*
G01*
X0118522Y0125296D02*
X0117341Y0125296D01*
G75*
G02*
X0116750Y0125886I0000000J0000591D01*
G01*
X0116750Y0131595D01*
G75*
G02*
X0117341Y0132185I0000591J0000000D01*
G01*
X0118522Y0132185D01*
G75*
G02*
X0119112Y0131595I0000000J-000591D01*
G01*
X0119112Y0125886D01*
G75*
G02*
X0118522Y0125296I-000591J0000000D01*
G01*
G37*
G36*
G01*
X0113522Y0125296D02*
X0112341Y0125296D01*
G75*
G02*
X0111750Y0125886I0000000J0000591D01*
G01*
X0111750Y0131595D01*
G75*
G02*
X0112341Y0132185I0000591J0000000D01*
G01*
X0113522Y0132185D01*
G75*
G02*
X0114112Y0131595I0000000J-000591D01*
G01*
X0114112Y0125886D01*
G75*
G02*
X0113522Y0125296I-000591J0000000D01*
G01*
G37*
G36*
G01*
X0108522Y0125296D02*
X0107341Y0125296D01*
G75*
G02*
X0106750Y0125886I0000000J0000591D01*
G01*
X0106750Y0131595D01*
G75*
G02*
X0107341Y0132185I0000591J0000000D01*
G01*
X0108522Y0132185D01*
G75*
G02*
X0109112Y0131595I0000000J-000591D01*
G01*
X0109112Y0125886D01*
G75*
G02*
X0108522Y0125296I-000591J0000000D01*
G01*
G37*
G36*
G01*
X0103522Y0125296D02*
X0102341Y0125296D01*
G75*
G02*
X0101750Y0125886I0000000J0000591D01*
G01*
X0101750Y0131595D01*
G75*
G02*
X0102341Y0132185I0000591J0000000D01*
G01*
X0103522Y0132185D01*
G75*
G02*
X0104112Y0131595I0000000J-000591D01*
G01*
X0104112Y0125886D01*
G75*
G02*
X0103522Y0125296I-000591J0000000D01*
G01*
G37*
G36*
G01*
X0103522Y0145571D02*
X0102341Y0145571D01*
G75*
G02*
X0101750Y0146162I0000000J0000591D01*
G01*
X0101750Y0151870D01*
G75*
G02*
X0102341Y0152461I0000591J0000000D01*
G01*
X0103522Y0152461D01*
G75*
G02*
X0104112Y0151870I0000000J-000591D01*
G01*
X0104112Y0146162D01*
G75*
G02*
X0103522Y0145571I-000591J0000000D01*
G01*
G37*
G36*
G01*
X0108522Y0145571D02*
X0107341Y0145571D01*
G75*
G02*
X0106750Y0146162I0000000J0000591D01*
G01*
X0106750Y0151870D01*
G75*
G02*
X0107341Y0152461I0000591J0000000D01*
G01*
X0108522Y0152461D01*
G75*
G02*
X0109112Y0151870I0000000J-000591D01*
G01*
X0109112Y0146162D01*
G75*
G02*
X0108522Y0145571I-000591J0000000D01*
G01*
G37*
G36*
G01*
X0113522Y0145571D02*
X0112341Y0145571D01*
G75*
G02*
X0111750Y0146162I0000000J0000591D01*
G01*
X0111750Y0151870D01*
G75*
G02*
X0112341Y0152461I0000591J0000000D01*
G01*
X0113522Y0152461D01*
G75*
G02*
X0114112Y0151870I0000000J-000591D01*
G01*
X0114112Y0146162D01*
G75*
G02*
X0113522Y0145571I-000591J0000000D01*
G01*
G37*
G36*
G01*
X0118522Y0145571D02*
X0117341Y0145571D01*
G75*
G02*
X0116750Y0146162I0000000J0000591D01*
G01*
X0116750Y0151870D01*
G75*
G02*
X0117341Y0152461I0000591J0000000D01*
G01*
X0118522Y0152461D01*
G75*
G02*
X0119112Y0151870I0000000J-000591D01*
G01*
X0119112Y0146162D01*
G75*
G02*
X0118522Y0145571I-000591J0000000D01*
G01*
G37*
X0425689Y0217717D02*
G01*
G75*
D467*
X0373720Y0132678D02*
D03*
X0373720Y0157973D02*
D03*
X0373720Y0142717D02*
D03*
X0373720Y0147933D02*
D03*
X0380807Y0117422D02*
D03*
X0373720Y0117422D02*
D03*
X0373720Y0127461D02*
D03*
X0380807Y0127461D02*
D03*
X0380807Y0157973D02*
D03*
X0380807Y0147933D02*
D03*
X0380807Y0142717D02*
D03*
X0380807Y0132678D02*
D03*
D468*
X0373720Y0136123D02*
D03*
X0373720Y0151378D02*
D03*
X0373720Y0139272D02*
D03*
X0373720Y0154528D02*
D03*
X0373720Y0124016D02*
D03*
X0373720Y0120867D02*
D03*
X0380807Y0120867D02*
D03*
X0380807Y0124016D02*
D03*
X0380807Y0151378D02*
D03*
X0380807Y0154528D02*
D03*
X0380807Y0136123D02*
D03*
X0380807Y0139272D02*
D03*
D471*
X0371752Y0079528D02*
D03*
X0375689Y0079528D02*
D03*
X0377264Y0083071D02*
D03*
X0381201Y0083071D02*
D03*
X0369390Y0100394D02*
D03*
X0373327Y0100394D02*
D03*
X0340737Y0158096D02*
D03*
X0344674Y0158096D02*
D03*
X0348933Y0158096D02*
D03*
X0352870Y0158096D02*
D03*
X0392255Y0125629D02*
D03*
X0396192Y0125629D02*
D03*
X0392255Y0129352D02*
D03*
X0396192Y0129352D02*
D03*
X0394671Y0092520D02*
D03*
X0390734Y0092520D02*
D03*
X0306037Y0081587D02*
D03*
X0341785Y0081826D02*
D03*
X0326870Y0158096D02*
D03*
X0359154Y0103938D02*
D03*
X0359154Y0108268D02*
D03*
X0362584Y0112487D02*
D03*
X0373861Y0112432D02*
D03*
X0353445Y0142092D02*
D03*
X0362234Y0142092D02*
D03*
X0366171Y0150577D02*
D03*
X0301254Y0180443D02*
D03*
X0326870Y0162599D02*
D03*
X0367815Y0079528D02*
D03*
X0381201Y0112523D02*
D03*
X0402854Y0111125D02*
D03*
X0416919Y0111125D02*
D03*
X0402854Y0115355D02*
D03*
X0416919Y0115355D02*
D03*
X0377216Y0162263D02*
D03*
X0421752Y0164174D02*
D03*
X0355217Y0103938D02*
D03*
X0366171Y0142092D02*
D03*
X0357382Y0142092D02*
D03*
X0357382Y0146580D02*
D03*
X0353445Y0146580D02*
D03*
X0299311Y0166536D02*
D03*
X0303248Y0166536D02*
D03*
X0305191Y0180443D02*
D03*
X0390636Y0109619D02*
D03*
X0394573Y0109619D02*
D03*
X0420857Y0111125D02*
D03*
X0377264Y0112523D02*
D03*
X0362234Y0150577D02*
D03*
X0369924Y0112432D02*
D03*
X0366521Y0112487D02*
D03*
X0406791Y0115355D02*
D03*
X0381153Y0162263D02*
D03*
X0417815Y0164174D02*
D03*
X0345722Y0081826D02*
D03*
X0371752Y0079528D02*
D03*
X0398524Y0104552D02*
D03*
X0402461Y0104552D02*
D03*
X0406791Y0111125D02*
D03*
X0322933Y0162599D02*
D03*
X0322933Y0158096D02*
D03*
X0355217Y0108268D02*
D03*
X0309974Y0081587D02*
D03*
X0319290Y0081587D02*
D03*
X0315353Y0081587D02*
D03*
X0412982Y0115355D02*
D03*
X0421752Y0160237D02*
D03*
X0417815Y0160237D02*
D03*
X0421752Y0147835D02*
D03*
X0417815Y0147835D02*
D03*
X0421752Y0143701D02*
D03*
X0417815Y0143701D02*
D03*
X0421752Y0135433D02*
D03*
X0417815Y0135433D02*
D03*
X0421752Y0139567D02*
D03*
X0417815Y0139567D02*
D03*
X0421752Y0131300D02*
D03*
X0417815Y0131300D02*
D03*
X0421752Y0151969D02*
D03*
X0417815Y0151969D02*
D03*
X0421752Y0156103D02*
D03*
X0417815Y0156103D02*
D03*
D473*
X0366762Y0128741D02*
D03*
X0366762Y0124508D02*
D03*
X0321358Y0212599D02*
D03*
X0326083Y0212599D02*
D03*
X0330807Y0212599D02*
D03*
X0335531Y0212599D02*
D03*
X0405610Y0084252D02*
D03*
X0401476Y0084252D02*
D03*
X0310296Y0176473D02*
D03*
X0310296Y0172536D02*
D03*
X0421225Y0085434D02*
D03*
X0421225Y0089370D02*
D03*
X0366762Y0120571D02*
D03*
X0366762Y0132678D02*
D03*
X0314468Y0176969D02*
D03*
X0314468Y0173032D02*
D03*
X0339241Y0204745D02*
D03*
X0339241Y0200808D02*
D03*
X0335531Y0200808D02*
D03*
X0335531Y0204745D02*
D03*
X0335531Y0190158D02*
D03*
X0335531Y0194095D02*
D03*
X0335531Y0208662D02*
D03*
X0330807Y0208662D02*
D03*
X0321358Y0208662D02*
D03*
X0326083Y0208662D02*
D03*
X0420190Y0175468D02*
D03*
X0420190Y0171531D02*
D03*
X0369980Y0172441D02*
D03*
X0369980Y0176378D02*
D03*
X0369980Y0182678D02*
D03*
X0369980Y0186615D02*
D03*
X0397933Y0172441D02*
D03*
X0397933Y0176378D02*
D03*
X0374508Y0197835D02*
D03*
X0374508Y0193898D02*
D03*
X0403838Y0197835D02*
D03*
X0403838Y0193898D02*
D03*
X0416634Y0197835D02*
D03*
X0416634Y0193898D02*
D03*
X0399742Y0204745D02*
D03*
X0399742Y0208682D02*
D03*
X0421358Y0205119D02*
D03*
X0421358Y0201182D02*
D03*
X0421161Y0208268D02*
D03*
X0421161Y0212205D02*
D03*
X0421225Y0096960D02*
D03*
X0421225Y0093023D02*
D03*
X0405610Y0080315D02*
D03*
X0401476Y0080315D02*
D03*
X0397736Y0193898D02*
D03*
X0397736Y0197835D02*
D03*
X0393406Y0193898D02*
D03*
X0393406Y0197835D02*
D03*
X0384941Y0193898D02*
D03*
X0384941Y0197835D02*
D03*
X0380775Y0208682D02*
D03*
X0380775Y0204745D02*
D03*
X0342028Y0176378D02*
D03*
X0342028Y0172441D02*
D03*
X0412303Y0193898D02*
D03*
X0412303Y0197835D02*
D03*
X0361932Y0208682D02*
D03*
X0361932Y0204745D02*
D03*
X0366043Y0193898D02*
D03*
X0366043Y0197835D02*
D03*
X0378838Y0193898D02*
D03*
X0378838Y0197835D02*
D03*
X0342952Y0208682D02*
D03*
X0342952Y0204745D02*
D03*
X0347145Y0193898D02*
D03*
X0347145Y0197835D02*
D03*
X0355610Y0193898D02*
D03*
X0355610Y0197835D02*
D03*
X0359941Y0193898D02*
D03*
X0359941Y0197835D02*
D03*
X0342164Y0190158D02*
D03*
X0342164Y0194095D02*
D03*
D475*
X0386132Y0087461D02*
D03*
X0393872Y0096936D02*
D03*
X0412205Y0120306D02*
D03*
D478*
X0338484Y0088878D02*
D03*
X0344784Y0088878D02*
D03*
X0375098Y0087500D02*
D03*
X0381398Y0087500D02*
D03*
X0375098Y0092126D02*
D03*
X0381398Y0092126D02*
D03*
D475*
X0402953Y0124047D02*
D03*
X0393872Y0104416D02*
D03*
X0384620Y0100676D02*
D03*
X0386132Y0079981D02*
D03*
X0395384Y0083721D02*
D03*
X0412205Y0127787D02*
D03*
D215*
X0347776Y0163583D02*
D03*
X0333563Y0163583D02*
D03*
X0363563Y0163583D02*
D03*
D216*
X0310571Y0086024D02*
D03*
X0330571Y0090024D02*
D03*
X0330571Y0082024D02*
D03*
D36*
X0421358Y0080315D02*
D03*
D493*
X0377658Y0097323D02*
D03*
X0377658Y0103544D02*
D03*
D494*
X0348228Y0168111D02*
D03*
X0348228Y0175197D02*
D03*
X0358268Y0175197D02*
D03*
X0358268Y0168111D02*
D03*
X0376181Y0175197D02*
D03*
X0404134Y0175197D02*
D03*
X0386220Y0179134D02*
D03*
X0331102Y0204331D02*
D03*
X0331102Y0197245D02*
D03*
X0321063Y0197245D02*
D03*
X0321063Y0204331D02*
D03*
X0414173Y0186221D02*
D03*
X0414173Y0179134D02*
D03*
X0404134Y0179134D02*
D03*
X0404134Y0186221D02*
D03*
X0404134Y0168111D02*
D03*
X0414173Y0175197D02*
D03*
X0414173Y0168111D02*
D03*
X0386220Y0186221D02*
D03*
X0376181Y0179134D02*
D03*
X0376181Y0186221D02*
D03*
X0376181Y0168111D02*
D03*
X0386220Y0175197D02*
D03*
X0386220Y0168111D02*
D03*
X0385236Y0210040D02*
D03*
X0385236Y0202953D02*
D03*
X0395276Y0202953D02*
D03*
X0395276Y0210040D02*
D03*
X0404134Y0210040D02*
D03*
X0404134Y0202953D02*
D03*
X0414173Y0202953D02*
D03*
X0414173Y0210040D02*
D03*
X0366338Y0210040D02*
D03*
X0366338Y0202953D02*
D03*
X0376378Y0202953D02*
D03*
X0376378Y0210040D02*
D03*
X0347441Y0210040D02*
D03*
X0347441Y0202953D02*
D03*
X0357480Y0202953D02*
D03*
X0357480Y0210040D02*
D03*
X0348228Y0186221D02*
D03*
X0348228Y0179134D02*
D03*
X0358268Y0179134D02*
D03*
X0358268Y0186221D02*
D03*
X0320669Y0186221D02*
D03*
X0320669Y0179134D02*
D03*
X0330709Y0179134D02*
D03*
X0330709Y0186221D02*
D03*
X0330709Y0168111D02*
D03*
X0330709Y0175197D02*
D03*
X0320669Y0175197D02*
D03*
X0320669Y0168111D02*
D03*
D495*
X0354823Y0175197D02*
D03*
X0351673Y0175197D02*
D03*
X0351673Y0168111D02*
D03*
X0354823Y0168111D02*
D03*
X0379626Y0175197D02*
D03*
X0407579Y0175197D02*
D03*
X0382776Y0179134D02*
D03*
X0324508Y0197245D02*
D03*
X0327657Y0197245D02*
D03*
X0327657Y0204331D02*
D03*
X0324508Y0204331D02*
D03*
X0407579Y0179134D02*
D03*
X0410728Y0179134D02*
D03*
X0410728Y0186221D02*
D03*
X0407579Y0186221D02*
D03*
X0410728Y0175197D02*
D03*
X0407579Y0168111D02*
D03*
X0410728Y0168111D02*
D03*
X0379626Y0179134D02*
D03*
X0382776Y0186221D02*
D03*
X0379626Y0186221D02*
D03*
X0382775Y0175197D02*
D03*
X0379626Y0168111D02*
D03*
X0382775Y0168111D02*
D03*
X0388681Y0210040D02*
D03*
X0391831Y0210040D02*
D03*
X0391831Y0202953D02*
D03*
X0388681Y0202953D02*
D03*
X0407578Y0210040D02*
D03*
X0410728Y0210040D02*
D03*
X0410728Y0202953D02*
D03*
X0407578Y0202953D02*
D03*
X0369783Y0210040D02*
D03*
X0372933Y0210040D02*
D03*
X0372933Y0202953D02*
D03*
X0369783Y0202953D02*
D03*
X0350886Y0210040D02*
D03*
X0354035Y0210040D02*
D03*
X0354035Y0202953D02*
D03*
X0350886Y0202953D02*
D03*
X0351673Y0186221D02*
D03*
X0354823Y0186221D02*
D03*
X0354823Y0179134D02*
D03*
X0351673Y0179134D02*
D03*
X0324114Y0186221D02*
D03*
X0327264Y0186221D02*
D03*
X0327264Y0179134D02*
D03*
X0324114Y0179134D02*
D03*
X0327264Y0168111D02*
D03*
X0324114Y0168111D02*
D03*
X0324114Y0175197D02*
D03*
X0327264Y0175197D02*
D03*
D496*
X0315886Y0090847D02*
D03*
X0315886Y0085857D02*
D03*
X0322106Y0085857D02*
D03*
X0322106Y0090847D02*
D03*
D497*
X0303248Y0097737D02*
D03*
X0335925Y0097737D02*
D03*
X0303248Y0151870D02*
D03*
X0335925Y0151870D02*
D03*
D498*
X0313484Y0115768D02*
D03*
X0313484Y0107107D02*
D03*
X0313484Y0111437D02*
D03*
X0313484Y0120099D02*
D03*
X0313484Y0124430D02*
D03*
X0313484Y0128760D02*
D03*
X0313484Y0133091D02*
D03*
X0313484Y0137422D02*
D03*
D499*
X0295177Y0196378D02*
D03*
X0308381Y0196378D02*
D03*
X0302658Y0204410D02*
D03*
X0315861Y0204410D02*
D03*
X0298917Y0187126D02*
D03*
X0312121Y0187126D02*
D03*
X0312121Y0213662D02*
D03*
X0400295Y0098741D02*
D03*
X0404035Y0089489D02*
D03*
X0298917Y0213662D02*
D03*
D241*
X0301254Y0170605D02*
D03*
X0305191Y0170605D02*
D03*
X0301254Y0176609D02*
D03*
X0303222Y0176609D02*
D03*
X0303222Y0170605D02*
D03*
X0305191Y0176609D02*
D03*
D500*
X0391819Y0113957D02*
D03*
X0396937Y0113957D02*
D03*
X0394378Y0113957D02*
D03*
X0391819Y0121438D02*
D03*
X0396937Y0121438D02*
D03*
D243*
X0388602Y0133465D02*
D03*
X0411594Y0136024D02*
D03*
X0411594Y0133465D02*
D03*
X0388602Y0156496D02*
D03*
X0411594Y0159055D02*
D03*
X0411594Y0161615D02*
D03*
X0411594Y0156496D02*
D03*
X0411594Y0153937D02*
D03*
X0411594Y0151378D02*
D03*
X0411594Y0148819D02*
D03*
X0411594Y0146260D02*
D03*
X0411594Y0143701D02*
D03*
X0411594Y0141142D02*
D03*
X0411594Y0138583D02*
D03*
X0388602Y0161615D02*
D03*
X0388602Y0159055D02*
D03*
X0388602Y0153937D02*
D03*
X0388602Y0151378D02*
D03*
X0388602Y0148819D02*
D03*
X0388602Y0146260D02*
D03*
X0388602Y0143701D02*
D03*
X0388602Y0141142D02*
D03*
X0388602Y0138583D02*
D03*
X0388602Y0136024D02*
D03*
D501*
X0414665Y0095878D02*
D03*
X0414665Y0084460D02*
D03*
D502*
X0356575Y0093743D02*
D03*
X0369567Y0093743D02*
D03*
X0420652Y0104943D02*
D03*
X0407660Y0104943D02*
D03*
D246*
X0357800Y0119148D02*
D03*
X0357800Y0133715D02*
D03*
D247*
X0306224Y0174591D02*
D03*
X0306224Y0172623D02*
D03*
X0300220Y0172623D02*
D03*
X0300220Y0174591D02*
D03*
D503*
X0371211Y0106625D02*
D03*
X0365306Y0106625D02*
D03*
D499*
X0302658Y0196378D02*
D03*
X0315861Y0196378D02*
D03*
X0308381Y0204410D02*
D03*
X0407776Y0098741D02*
D03*
X0295177Y0204410D02*
D03*
D249*
X0368408Y0157284D02*
D03*
X0361715Y0157284D02*
D03*
D504*
X0352047Y0083747D02*
D03*
X0363464Y0083747D02*
D03*
D505*
X0420964Y0118111D02*
D03*
X0420964Y0124410D02*
D03*
X0015846Y0144291D02*
%LPD*%
G01*
D146*
X0027460Y0053110D03*
X0039271Y0060984D03*
X0027460Y0068858D03*
D159*
X0026673Y0140118D03*
X0022673Y0120118D03*
X0030673Y0120118D03*
D371*
X0065551Y0050630D03*
D372*
X0065551Y0060630D03*
X0065551Y0070630D03*
G36*
G01*
X0023205Y0064586D02*
X0024563Y0064586D01*
G75*
G02*
X0025144Y0064006I0000000J-000581D01*
G01*
X0025144Y0062844D01*
G75*
G02*
X0024563Y0062263I-000581J0000000D01*
G01*
X0023205Y0062263D01*
G75*
G02*
X0022624Y0062844I0000000J0000581D01*
G01*
X0022624Y0064006D01*
G75*
G02*
X0023205Y0064586I0000581J0000000D01*
G01*
G37*
G36*
G01*
X0023205Y0060767D02*
X0024563Y0060767D01*
G75*
G02*
X0025144Y0060187I0000000J-000581D01*
G01*
X0025144Y0059025D01*
G75*
G02*
X0024563Y0058445I-000581J0000000D01*
G01*
X0023205Y0058445D01*
G75*
G02*
X0022624Y0059025I0000000J0000581D01*
G01*
X0022624Y0060187D01*
G75*
G02*
X0023205Y0060767I0000581J0000000D01*
G01*
G37*
G36*
G01*
X0038494Y0050118D02*
X0039852Y0050118D01*
G75*
G02*
X0040433Y0049537I0000000J-000581D01*
G01*
X0040433Y0048376D01*
G75*
G02*
X0039852Y0047795I-000581J0000000D01*
G01*
X0038494Y0047795D01*
G75*
G02*
X0037913Y0048376I0000000J0000581D01*
G01*
X0037913Y0049537D01*
G75*
G02*
X0038494Y0050118I0000581J0000000D01*
G01*
G37*
G36*
G01*
X0038494Y0046299D02*
X0039852Y0046299D01*
G75*
G02*
X0040433Y0045718I0000000J-000581D01*
G01*
X0040433Y0044557D01*
G75*
G02*
X0039852Y0043976I-000581J0000000D01*
G01*
X0038494Y0043976D01*
G75*
G02*
X0037913Y0044557I0000000J0000581D01*
G01*
X0037913Y0045718D01*
G75*
G02*
X0038494Y0046299I0000581J0000000D01*
G01*
G37*
G36*
G01*
X0064690Y0100000D02*
X0062672Y0100000D01*
G75*
G02*
X0061811Y0100861I0000000J0000861D01*
G01*
X0061811Y0102583D01*
G75*
G02*
X0062672Y0103445I0000861J0000000D01*
G01*
X0064690Y0103445D01*
G75*
G02*
X0065551Y0102583I0000000J-000861D01*
G01*
X0065551Y0100861D01*
G75*
G02*
X0064690Y0100000I-000861J0000000D01*
G01*
G37*
G36*
G01*
X0064690Y0106200D02*
X0062672Y0106200D01*
G75*
G02*
X0061811Y0107062I0000000J0000861D01*
G01*
X0061811Y0108784D01*
G75*
G02*
X0062672Y0109645I0000861J0000000D01*
G01*
X0064690Y0109645D01*
G75*
G02*
X0065551Y0108784I0000000J-000861D01*
G01*
X0065551Y0107062D01*
G75*
G02*
X0064690Y0106200I-000861J0000000D01*
G01*
G37*
G36*
G01*
X0020364Y0058445D02*
X0019005Y0058445D01*
G75*
G02*
X0018425Y0059025I0000000J0000581D01*
G01*
X0018425Y0060187D01*
G75*
G02*
X0019005Y0060767I0000581J0000000D01*
G01*
X0020364Y0060767D01*
G75*
G02*
X0020944Y0060187I0000000J-000581D01*
G01*
X0020944Y0059025D01*
G75*
G02*
X0020364Y0058445I-000581J0000000D01*
G01*
G37*
G36*
G01*
X0020364Y0062263D02*
X0019005Y0062263D01*
G75*
G02*
X0018425Y0062844I0000000J0000581D01*
G01*
X0018425Y0064006D01*
G75*
G02*
X0019005Y0064586I0000581J0000000D01*
G01*
X0020364Y0064586D01*
G75*
G02*
X0020944Y0064006I0000000J-000581D01*
G01*
X0020944Y0062844D01*
G75*
G02*
X0020364Y0062263I-000581J0000000D01*
G01*
G37*
G36*
G01*
X0059360Y0118146D02*
X0060718Y0118146D01*
G75*
G02*
X0061299Y0117566I0000000J-000581D01*
G01*
X0061299Y0116404D01*
G75*
G02*
X0060718Y0115824I-000581J0000000D01*
G01*
X0059360Y0115824D01*
G75*
G02*
X0058779Y0116404I0000000J0000581D01*
G01*
X0058779Y0117566D01*
G75*
G02*
X0059360Y0118146I0000581J0000000D01*
G01*
G37*
G36*
G01*
X0059360Y0114328D02*
X0060718Y0114328D01*
G75*
G02*
X0061299Y0113747I0000000J-000581D01*
G01*
X0061299Y0112585D01*
G75*
G02*
X0060718Y0112005I-000581J0000000D01*
G01*
X0059360Y0112005D01*
G75*
G02*
X0058779Y0112585I0000000J0000581D01*
G01*
X0058779Y0113747D01*
G75*
G02*
X0059360Y0114328I0000581J0000000D01*
G01*
G37*
G36*
G01*
X0057490Y0110059D02*
X0058848Y0110059D01*
G75*
G02*
X0059429Y0109478I0000000J-000581D01*
G01*
X0059429Y0108317D01*
G75*
G02*
X0058848Y0107736I-000581J0000000D01*
G01*
X0057490Y0107736D01*
G75*
G02*
X0056909Y0108317I0000000J0000581D01*
G01*
X0056909Y0109478D01*
G75*
G02*
X0057490Y0110059I0000581J0000000D01*
G01*
G37*
G36*
G01*
X0057490Y0106240D02*
X0058848Y0106240D01*
G75*
G02*
X0059429Y0105659I0000000J-000581D01*
G01*
X0059429Y0104498D01*
G75*
G02*
X0058848Y0103917I-000581J0000000D01*
G01*
X0057490Y0103917D01*
G75*
G02*
X0056909Y0104498I0000000J0000581D01*
G01*
X0056909Y0105659D01*
G75*
G02*
X0057490Y0106240I0000581J0000000D01*
G01*
G37*
G36*
G01*
X0064822Y0138671D02*
X0064822Y0137313D01*
G75*
G02*
X0064242Y0136732I-000581J0000000D01*
G01*
X0063080Y0136732D01*
G75*
G02*
X0062500Y0137313I0000000J0000581D01*
G01*
X0062500Y0138671D01*
G75*
G02*
X0063080Y0139252I0000581J0000000D01*
G01*
X0064242Y0139252D01*
G75*
G02*
X0064822Y0138671I0000000J-000581D01*
G01*
G37*
G36*
G01*
X0061003Y0138671D02*
X0061003Y0137313D01*
G75*
G02*
X0060423Y0136732I-000581J0000000D01*
G01*
X0059261Y0136732D01*
G75*
G02*
X0058681Y0137313I0000000J0000581D01*
G01*
X0058681Y0138671D01*
G75*
G02*
X0059261Y0139252I0000581J0000000D01*
G01*
X0060423Y0139252D01*
G75*
G02*
X0061003Y0138671I0000000J-000581D01*
G01*
G37*
G36*
G01*
X0047234Y0089153D02*
X0045876Y0089153D01*
G75*
G02*
X0045295Y0089734I0000000J0000581D01*
G01*
X0045295Y0090895D01*
G75*
G02*
X0045876Y0091476I0000581J0000000D01*
G01*
X0047234Y0091476D01*
G75*
G02*
X0047815Y0090895I0000000J-000581D01*
G01*
X0047815Y0089734D01*
G75*
G02*
X0047234Y0089153I-000581J0000000D01*
G01*
G37*
G36*
G01*
X0047234Y0092972D02*
X0045876Y0092972D01*
G75*
G02*
X0045295Y0093553I0000000J0000581D01*
G01*
X0045295Y0094714D01*
G75*
G02*
X0045876Y0095295I0000581J0000000D01*
G01*
X0047234Y0095295D01*
G75*
G02*
X0047815Y0094714I0000000J-000581D01*
G01*
X0047815Y0093553D01*
G75*
G02*
X0047234Y0092972I-000581J0000000D01*
G01*
G37*
G36*
G01*
X0041939Y0095295D02*
X0043297Y0095295D01*
G75*
G02*
X0043877Y0094714I0000000J-000581D01*
G01*
X0043877Y0093553D01*
G75*
G02*
X0043297Y0092972I-000581J0000000D01*
G01*
X0041939Y0092972D01*
G75*
G02*
X0041358Y0093553I0000000J0000581D01*
G01*
X0041358Y0094714D01*
G75*
G02*
X0041939Y0095295I0000581J0000000D01*
G01*
G37*
G36*
G01*
X0041939Y0091476D02*
X0043297Y0091476D01*
G75*
G02*
X0043877Y0090895I0000000J-000581D01*
G01*
X0043877Y0089734D01*
G75*
G02*
X0043297Y0089153I-000581J0000000D01*
G01*
X0041939Y0089153D01*
G75*
G02*
X0041358Y0089734I0000000J0000581D01*
G01*
X0041358Y0090895D01*
G75*
G02*
X0041939Y0091476I0000581J0000000D01*
G01*
G37*
G36*
G01*
X0044379Y0047815D02*
X0043021Y0047815D01*
G75*
G02*
X0042440Y0048395I0000000J0000581D01*
G01*
X0042440Y0049557D01*
G75*
G02*
X0043021Y0050137I0000581J0000000D01*
G01*
X0044379Y0050137D01*
G75*
G02*
X0044960Y0049557I0000000J-000581D01*
G01*
X0044960Y0048395D01*
G75*
G02*
X0044379Y0047815I-000581J0000000D01*
G01*
G37*
G36*
G01*
X0044379Y0051634D02*
X0043021Y0051634D01*
G75*
G02*
X0042440Y0052214I0000000J0000581D01*
G01*
X0042440Y0053376D01*
G75*
G02*
X0043021Y0053956I0000581J0000000D01*
G01*
X0044379Y0053956D01*
G75*
G02*
X0044960Y0053376I0000000J-000581D01*
G01*
X0044960Y0052214D01*
G75*
G02*
X0044379Y0051634I-000581J0000000D01*
G01*
G37*
D374*
X0020964Y0102165D03*
X0023523Y0102165D03*
X0026082Y0102165D03*
X0028641Y0102165D03*
X0031200Y0102165D03*
X0033759Y0102165D03*
X0036318Y0102165D03*
X0036318Y0078937D03*
X0033759Y0078937D03*
X0031200Y0078937D03*
X0028641Y0078937D03*
X0026082Y0078937D03*
X0023523Y0078937D03*
X0020964Y0078937D03*
G36*
G01*
X0064458Y0111988D02*
X0063100Y0111988D01*
G75*
G02*
X0062519Y0112569I0000000J0000581D01*
G01*
X0062519Y0113730D01*
G75*
G02*
X0063100Y0114311I0000581J0000000D01*
G01*
X0064458Y0114311D01*
G75*
G02*
X0065039Y0113730I0000000J-000581D01*
G01*
X0065039Y0112569D01*
G75*
G02*
X0064458Y0111988I-000581J0000000D01*
G01*
G37*
G36*
G01*
X0064458Y0115807D02*
X0063100Y0115807D01*
G75*
G02*
X0062519Y0116387I0000000J0000581D01*
G01*
X0062519Y0117549D01*
G75*
G02*
X0063100Y0118130I0000581J0000000D01*
G01*
X0064458Y0118130D01*
G75*
G02*
X0065039Y0117549I0000000J-000581D01*
G01*
X0065039Y0116387D01*
G75*
G02*
X0064458Y0115807I-000581J0000000D01*
G01*
G37*
G36*
G01*
X0066840Y0118130D02*
X0068198Y0118130D01*
G75*
G02*
X0068779Y0117549I0000000J-000581D01*
G01*
X0068779Y0116387D01*
G75*
G02*
X0068198Y0115807I-000581J0000000D01*
G01*
X0066840Y0115807D01*
G75*
G02*
X0066259Y0116387I0000000J0000581D01*
G01*
X0066259Y0117549D01*
G75*
G02*
X0066840Y0118130I0000581J0000000D01*
G01*
G37*
G36*
G01*
X0066840Y0114311D02*
X0068198Y0114311D01*
G75*
G02*
X0068779Y0113730I0000000J-000581D01*
G01*
X0068779Y0112569D01*
G75*
G02*
X0068198Y0111988I-000581J0000000D01*
G01*
X0066840Y0111988D01*
G75*
G02*
X0066259Y0112569I0000000J0000581D01*
G01*
X0066259Y0113730D01*
G75*
G02*
X0066840Y0114311I0000581J0000000D01*
G01*
G37*
G36*
G01*
X0057391Y0057893D02*
X0058750Y0057893D01*
G75*
G02*
X0059330Y0057313I0000000J-000581D01*
G01*
X0059330Y0056151D01*
G75*
G02*
X0058750Y0055571I-000581J0000000D01*
G01*
X0057391Y0055571D01*
G75*
G02*
X0056811Y0056151I0000000J0000581D01*
G01*
X0056811Y0057313D01*
G75*
G02*
X0057391Y0057893I0000581J0000000D01*
G01*
G37*
G36*
G01*
X0057391Y0054074D02*
X0058750Y0054074D01*
G75*
G02*
X0059330Y0053494I0000000J-000581D01*
G01*
X0059330Y0052332D01*
G75*
G02*
X0058750Y0051752I-000581J0000000D01*
G01*
X0057391Y0051752D01*
G75*
G02*
X0056811Y0052332I0000000J0000581D01*
G01*
X0056811Y0053494D01*
G75*
G02*
X0057391Y0054074I0000581J0000000D01*
G01*
G37*
G36*
G01*
X0028093Y0064586D02*
X0029452Y0064586D01*
G75*
G02*
X0030032Y0064006I0000000J-000581D01*
G01*
X0030032Y0062844D01*
G75*
G02*
X0029452Y0062263I-000581J0000000D01*
G01*
X0028093Y0062263D01*
G75*
G02*
X0027513Y0062844I0000000J0000581D01*
G01*
X0027513Y0064006D01*
G75*
G02*
X0028093Y0064586I0000581J0000000D01*
G01*
G37*
G36*
G01*
X0028093Y0060767D02*
X0029452Y0060767D01*
G75*
G02*
X0030032Y0060187I0000000J-000581D01*
G01*
X0030032Y0059025D01*
G75*
G02*
X0029452Y0058445I-000581J0000000D01*
G01*
X0028093Y0058445D01*
G75*
G02*
X0027513Y0059025I0000000J0000581D01*
G01*
X0027513Y0060187D01*
G75*
G02*
X0028093Y0060767I0000581J0000000D01*
G01*
G37*
G36*
G01*
X0051171Y0092401D02*
X0049813Y0092401D01*
G75*
G02*
X0049232Y0092982I0000000J0000581D01*
G01*
X0049232Y0094143D01*
G75*
G02*
X0049813Y0094724I0000581J0000000D01*
G01*
X0051171Y0094724D01*
G75*
G02*
X0051752Y0094143I0000000J-000581D01*
G01*
X0051752Y0092982D01*
G75*
G02*
X0051171Y0092401I-000581J0000000D01*
G01*
G37*
G36*
G01*
X0051171Y0096220D02*
X0049813Y0096220D01*
G75*
G02*
X0049232Y0096801I0000000J0000581D01*
G01*
X0049232Y0097962D01*
G75*
G02*
X0049813Y0098543I0000581J0000000D01*
G01*
X0051171Y0098543D01*
G75*
G02*
X0051752Y0097962I0000000J-000581D01*
G01*
X0051752Y0096801D01*
G75*
G02*
X0051171Y0096220I-000581J0000000D01*
G01*
G37*
G36*
G01*
X0058750Y0044074D02*
X0057391Y0044074D01*
G75*
G02*
X0056811Y0044655I0000000J0000581D01*
G01*
X0056811Y0045817D01*
G75*
G02*
X0057391Y0046397I0000581J0000000D01*
G01*
X0058750Y0046397D01*
G75*
G02*
X0059330Y0045817I0000000J-000581D01*
G01*
X0059330Y0044655D01*
G75*
G02*
X0058750Y0044074I-000581J0000000D01*
G01*
G37*
G36*
G01*
X0058750Y0047893D02*
X0057391Y0047893D01*
G75*
G02*
X0056811Y0048474I0000000J0000581D01*
G01*
X0056811Y0049635D01*
G75*
G02*
X0057391Y0050216I0000581J0000000D01*
G01*
X0058750Y0050216D01*
G75*
G02*
X0059330Y0049635I0000000J-000581D01*
G01*
X0059330Y0048474D01*
G75*
G02*
X0058750Y0047893I-000581J0000000D01*
G01*
G37*
G36*
G01*
X0043297Y0096535D02*
X0041939Y0096535D01*
G75*
G02*
X0041358Y0097116I0000000J0000581D01*
G01*
X0041358Y0098277D01*
G75*
G02*
X0041939Y0098858I0000581J0000000D01*
G01*
X0043297Y0098858D01*
G75*
G02*
X0043877Y0098277I0000000J-000581D01*
G01*
X0043877Y0097116D01*
G75*
G02*
X0043297Y0096535I-000581J0000000D01*
G01*
G37*
G36*
G01*
X0043297Y0100354D02*
X0041939Y0100354D01*
G75*
G02*
X0041358Y0100935I0000000J0000581D01*
G01*
X0041358Y0102096D01*
G75*
G02*
X0041939Y0102677I0000581J0000000D01*
G01*
X0043297Y0102677D01*
G75*
G02*
X0043877Y0102096I0000000J-000581D01*
G01*
X0043877Y0100935D01*
G75*
G02*
X0043297Y0100354I-000581J0000000D01*
G01*
G37*
G36*
G01*
X0018681Y0107785D02*
X0018681Y0109143D01*
G75*
G02*
X0019261Y0109724I0000581J0000000D01*
G01*
X0020423Y0109724D01*
G75*
G02*
X0021003Y0109143I0000000J-000581D01*
G01*
X0021003Y0107785D01*
G75*
G02*
X0020423Y0107204I-000581J0000000D01*
G01*
X0019261Y0107204D01*
G75*
G02*
X0018681Y0107785I0000000J0000581D01*
G01*
G37*
G36*
G01*
X0022500Y0107785D02*
X0022500Y0109143D01*
G75*
G02*
X0023080Y0109724I0000581J0000000D01*
G01*
X0024242Y0109724D01*
G75*
G02*
X0024822Y0109143I0000000J-000581D01*
G01*
X0024822Y0107785D01*
G75*
G02*
X0024242Y0107204I-000581J0000000D01*
G01*
X0023080Y0107204D01*
G75*
G02*
X0022500Y0107785I0000000J0000581D01*
G01*
G37*
G36*
G01*
X0047234Y0081673D02*
X0045876Y0081673D01*
G75*
G02*
X0045295Y0082254I0000000J0000581D01*
G01*
X0045295Y0083415D01*
G75*
G02*
X0045876Y0083996I0000581J0000000D01*
G01*
X0047234Y0083996D01*
G75*
G02*
X0047815Y0083415I0000000J-000581D01*
G01*
X0047815Y0082254D01*
G75*
G02*
X0047234Y0081673I-000581J0000000D01*
G01*
G37*
G36*
G01*
X0047234Y0085492D02*
X0045876Y0085492D01*
G75*
G02*
X0045295Y0086072I0000000J0000581D01*
G01*
X0045295Y0087234D01*
G75*
G02*
X0045876Y0087815I0000581J0000000D01*
G01*
X0047234Y0087815D01*
G75*
G02*
X0047815Y0087234I0000000J-000581D01*
G01*
X0047815Y0086072D01*
G75*
G02*
X0047234Y0085492I-000581J0000000D01*
G01*
G37*
G36*
G01*
X0045876Y0080334D02*
X0047234Y0080334D01*
G75*
G02*
X0047815Y0079754I0000000J-000581D01*
G01*
X0047815Y0078592D01*
G75*
G02*
X0047234Y0078011I-000581J0000000D01*
G01*
X0045876Y0078011D01*
G75*
G02*
X0045295Y0078592I0000000J0000581D01*
G01*
X0045295Y0079754D01*
G75*
G02*
X0045876Y0080334I0000581J0000000D01*
G01*
G37*
G36*
G01*
X0045876Y0076515D02*
X0047234Y0076515D01*
G75*
G02*
X0047815Y0075935I0000000J-000581D01*
G01*
X0047815Y0074773D01*
G75*
G02*
X0047234Y0074193I-000581J0000000D01*
G01*
X0045876Y0074193D01*
G75*
G02*
X0045295Y0074773I0000000J0000581D01*
G01*
X0045295Y0075935D01*
G75*
G02*
X0045876Y0076515I0000581J0000000D01*
G01*
G37*
G36*
G01*
X0018681Y0111525D02*
X0018681Y0112884D01*
G75*
G02*
X0019261Y0113464I0000581J0000000D01*
G01*
X0020423Y0113464D01*
G75*
G02*
X0021003Y0112884I0000000J-000581D01*
G01*
X0021003Y0111525D01*
G75*
G02*
X0020423Y0110945I-000581J0000000D01*
G01*
X0019261Y0110945D01*
G75*
G02*
X0018681Y0111525I0000000J0000581D01*
G01*
G37*
G36*
G01*
X0022500Y0111525D02*
X0022500Y0112884D01*
G75*
G02*
X0023080Y0113464I0000581J0000000D01*
G01*
X0024242Y0113464D01*
G75*
G02*
X0024822Y0112884I0000000J-000581D01*
G01*
X0024822Y0111525D01*
G75*
G02*
X0024242Y0110945I-000581J0000000D01*
G01*
X0023080Y0110945D01*
G75*
G02*
X0022500Y0111525I0000000J0000581D01*
G01*
G37*
D375*
X0067519Y0122204D03*
X0063779Y0122204D03*
X0060039Y0122204D03*
X0060039Y0132519D03*
X0067519Y0132519D03*
G36*
G01*
X0049813Y0087716D02*
X0051171Y0087716D01*
G75*
G02*
X0051752Y0087135I0000000J-000581D01*
G01*
X0051752Y0085974D01*
G75*
G02*
X0051171Y0085393I-000581J0000000D01*
G01*
X0049813Y0085393D01*
G75*
G02*
X0049232Y0085974I0000000J0000581D01*
G01*
X0049232Y0087135D01*
G75*
G02*
X0049813Y0087716I0000581J0000000D01*
G01*
G37*
G36*
G01*
X0049813Y0083897D02*
X0051171Y0083897D01*
G75*
G02*
X0051752Y0083317I0000000J-000581D01*
G01*
X0051752Y0082155D01*
G75*
G02*
X0051171Y0081574I-000581J0000000D01*
G01*
X0049813Y0081574D01*
G75*
G02*
X0049232Y0082155I0000000J0000581D01*
G01*
X0049232Y0083317D01*
G75*
G02*
X0049813Y0083897I0000581J0000000D01*
G01*
G37*
G36*
G01*
X0053917Y0100305D02*
X0053917Y0101663D01*
G75*
G02*
X0054498Y0102244I0000581J0000000D01*
G01*
X0055659Y0102244D01*
G75*
G02*
X0056240Y0101663I0000000J-000581D01*
G01*
X0056240Y0100305D01*
G75*
G02*
X0055659Y0099724I-000581J0000000D01*
G01*
X0054498Y0099724D01*
G75*
G02*
X0053917Y0100305I0000000J0000581D01*
G01*
G37*
G36*
G01*
X0057736Y0100305D02*
X0057736Y0101663D01*
G75*
G02*
X0058316Y0102244I0000581J0000000D01*
G01*
X0059478Y0102244D01*
G75*
G02*
X0060059Y0101663I0000000J-000581D01*
G01*
X0060059Y0100305D01*
G75*
G02*
X0059478Y0099724I-000581J0000000D01*
G01*
X0058316Y0099724D01*
G75*
G02*
X0057736Y0100305I0000000J0000581D01*
G01*
G37*
G36*
G01*
X0033484Y0109143D02*
X0033484Y0107785D01*
G75*
G02*
X0032903Y0107204I-000581J0000000D01*
G01*
X0031742Y0107204D01*
G75*
G02*
X0031161Y0107785I0000000J0000581D01*
G01*
X0031161Y0109143D01*
G75*
G02*
X0031742Y0109724I0000581J0000000D01*
G01*
X0032903Y0109724D01*
G75*
G02*
X0033484Y0109143I0000000J-000581D01*
G01*
G37*
G36*
G01*
X0029665Y0109143D02*
X0029665Y0107785D01*
G75*
G02*
X0029084Y0107204I-000581J0000000D01*
G01*
X0027923Y0107204D01*
G75*
G02*
X0027342Y0107785I0000000J0000581D01*
G01*
X0027342Y0109143D01*
G75*
G02*
X0027923Y0109724I0000581J0000000D01*
G01*
X0029084Y0109724D01*
G75*
G02*
X0029665Y0109143I0000000J-000581D01*
G01*
G37*
G36*
G01*
X0034439Y0066023D02*
X0033080Y0066023D01*
G75*
G02*
X0032500Y0066604I0000000J0000581D01*
G01*
X0032500Y0067765D01*
G75*
G02*
X0033080Y0068346I0000581J0000000D01*
G01*
X0034439Y0068346D01*
G75*
G02*
X0035019Y0067765I0000000J-000581D01*
G01*
X0035019Y0066604D01*
G75*
G02*
X0034439Y0066023I-000581J0000000D01*
G01*
G37*
G36*
G01*
X0034439Y0069842D02*
X0033080Y0069842D01*
G75*
G02*
X0032500Y0070423I0000000J0000581D01*
G01*
X0032500Y0071584D01*
G75*
G02*
X0033080Y0072165I0000581J0000000D01*
G01*
X0034439Y0072165D01*
G75*
G02*
X0035019Y0071584I0000000J-000581D01*
G01*
X0035019Y0070423D01*
G75*
G02*
X0034439Y0069842I-000581J0000000D01*
G01*
G37*
G36*
G01*
X0034439Y0058445D02*
X0033080Y0058445D01*
G75*
G02*
X0032500Y0059025I0000000J0000581D01*
G01*
X0032500Y0060187D01*
G75*
G02*
X0033080Y0060767I0000581J0000000D01*
G01*
X0034439Y0060767D01*
G75*
G02*
X0035019Y0060187I0000000J-000581D01*
G01*
X0035019Y0059025D01*
G75*
G02*
X0034439Y0058445I-000581J0000000D01*
G01*
G37*
G36*
G01*
X0034439Y0062263D02*
X0033080Y0062263D01*
G75*
G02*
X0032500Y0062844I0000000J0000581D01*
G01*
X0032500Y0064006D01*
G75*
G02*
X0033080Y0064586I0000581J0000000D01*
G01*
X0034439Y0064586D01*
G75*
G02*
X0035019Y0064006I0000000J-000581D01*
G01*
X0035019Y0062844D01*
G75*
G02*
X0034439Y0062263I-000581J0000000D01*
G01*
G37*
G36*
G01*
X0033484Y0112884D02*
X0033484Y0111525D01*
G75*
G02*
X0032903Y0110945I-000581J0000000D01*
G01*
X0031742Y0110945D01*
G75*
G02*
X0031161Y0111525I0000000J0000581D01*
G01*
X0031161Y0112884D01*
G75*
G02*
X0031742Y0113464I0000581J0000000D01*
G01*
X0032903Y0113464D01*
G75*
G02*
X0033484Y0112884I0000000J-000581D01*
G01*
G37*
G36*
G01*
X0029665Y0112884D02*
X0029665Y0111525D01*
G75*
G02*
X0029084Y0110945I-000581J0000000D01*
G01*
X0027923Y0110945D01*
G75*
G02*
X0027342Y0111525I0000000J0000581D01*
G01*
X0027342Y0112884D01*
G75*
G02*
X0027923Y0113464I0000581J0000000D01*
G01*
X0029084Y0113464D01*
G75*
G02*
X0029665Y0112884I0000000J-000581D01*
G01*
G37*
G36*
G01*
X0043297Y0078523D02*
X0041939Y0078523D01*
G75*
G02*
X0041358Y0079104I0000000J0000581D01*
G01*
X0041358Y0080265D01*
G75*
G02*
X0041939Y0080846I0000581J0000000D01*
G01*
X0043297Y0080846D01*
G75*
G02*
X0043877Y0080265I0000000J-000581D01*
G01*
X0043877Y0079104D01*
G75*
G02*
X0043297Y0078523I-000581J0000000D01*
G01*
G37*
G36*
G01*
X0043297Y0082342D02*
X0041939Y0082342D01*
G75*
G02*
X0041358Y0082923I0000000J0000581D01*
G01*
X0041358Y0084084D01*
G75*
G02*
X0041939Y0084665I0000581J0000000D01*
G01*
X0043297Y0084665D01*
G75*
G02*
X0043877Y0084084I0000000J-000581D01*
G01*
X0043877Y0082923D01*
G75*
G02*
X0043297Y0082342I-000581J0000000D01*
G01*
G37*
G36*
G01*
X0033484Y0116624D02*
X0033484Y0115265D01*
G75*
G02*
X0032903Y0114685I-000581J0000000D01*
G01*
X0031742Y0114685D01*
G75*
G02*
X0031161Y0115265I0000000J0000581D01*
G01*
X0031161Y0116624D01*
G75*
G02*
X0031742Y0117204I0000581J0000000D01*
G01*
X0032903Y0117204D01*
G75*
G02*
X0033484Y0116624I0000000J-000581D01*
G01*
G37*
G36*
G01*
X0029665Y0116624D02*
X0029665Y0115265D01*
G75*
G02*
X0029084Y0114685I-000581J0000000D01*
G01*
X0027923Y0114685D01*
G75*
G02*
X0027342Y0115265I0000000J0000581D01*
G01*
X0027342Y0116624D01*
G75*
G02*
X0027923Y0117204I0000581J0000000D01*
G01*
X0029084Y0117204D01*
G75*
G02*
X0029665Y0116624I0000000J-000581D01*
G01*
G37*
G36*
G01*
X0024822Y0116624D02*
X0024822Y0115265D01*
G75*
G02*
X0024242Y0114685I-000581J0000000D01*
G01*
X0023080Y0114685D01*
G75*
G02*
X0022500Y0115265I0000000J0000581D01*
G01*
X0022500Y0116624D01*
G75*
G02*
X0023080Y0117204I0000581J0000000D01*
G01*
X0024242Y0117204D01*
G75*
G02*
X0024822Y0116624I0000000J-000581D01*
G01*
G37*
G36*
G01*
X0021003Y0116624D02*
X0021003Y0115265D01*
G75*
G02*
X0020423Y0114685I-000581J0000000D01*
G01*
X0019261Y0114685D01*
G75*
G02*
X0018681Y0115265I0000000J0000581D01*
G01*
X0018681Y0116624D01*
G75*
G02*
X0019261Y0117204I0000581J0000000D01*
G01*
X0020423Y0117204D01*
G75*
G02*
X0021003Y0116624I0000000J-000581D01*
G01*
G37*
G36*
G01*
X0030629Y0131437D02*
X0031968Y0131437D01*
G75*
G02*
X0032519Y0130886I0000000J-000551D01*
G01*
X0032519Y0129783D01*
G75*
G02*
X0031968Y0129232I-000551J0000000D01*
G01*
X0030629Y0129232D01*
G75*
G02*
X0030078Y0129783I0000000J0000551D01*
G01*
X0030078Y0130886D01*
G75*
G02*
X0030629Y0131437I0000551J0000000D01*
G01*
G37*
G36*
G01*
X0030629Y0127657D02*
X0031968Y0127657D01*
G75*
G02*
X0032519Y0127106I0000000J-000551D01*
G01*
X0032519Y0126004D01*
G75*
G02*
X0031968Y0125453I-000551J0000000D01*
G01*
X0030629Y0125453D01*
G75*
G02*
X0030078Y0126004I0000000J0000551D01*
G01*
X0030078Y0127106D01*
G75*
G02*
X0030629Y0127657I0000551J0000000D01*
G01*
G37*
G36*
G01*
X0056889Y0076496D02*
X0055433Y0076496D01*
G75*
G02*
X0054901Y0077027I0000000J0000531D01*
G01*
X0054901Y0078090D01*
G75*
G02*
X0055433Y0078622I0000531J0000000D01*
G01*
X0056889Y0078622D01*
G75*
G02*
X0057421Y0078090I0000000J-000531D01*
G01*
X0057421Y0077027D01*
G75*
G02*
X0056889Y0076496I-000531J0000000D01*
G01*
G37*
G36*
G01*
X0056889Y0080511D02*
X0055433Y0080511D01*
G75*
G02*
X0054901Y0081043I0000000J0000531D01*
G01*
X0054901Y0082106D01*
G75*
G02*
X0055433Y0082637I0000531J0000000D01*
G01*
X0056889Y0082637D01*
G75*
G02*
X0057421Y0082106I0000000J-000531D01*
G01*
X0057421Y0081043D01*
G75*
G02*
X0056889Y0080511I-000531J0000000D01*
G01*
G37*
G36*
G01*
X0042356Y0137224D02*
X0042356Y0138681D01*
G75*
G02*
X0042888Y0139212I0000531J0000000D01*
G01*
X0043951Y0139212D01*
G75*
G02*
X0044482Y0138681I0000000J-000531D01*
G01*
X0044482Y0137224D01*
G75*
G02*
X0043951Y0136693I-000531J0000000D01*
G01*
X0042888Y0136693D01*
G75*
G02*
X0042356Y0137224I0000000J0000531D01*
G01*
G37*
G36*
G01*
X0046372Y0137224D02*
X0046372Y0138681D01*
G75*
G02*
X0046904Y0139212I0000531J0000000D01*
G01*
X0047967Y0139212D01*
G75*
G02*
X0048498Y0138681I0000000J-000531D01*
G01*
X0048498Y0137224D01*
G75*
G02*
X0047967Y0136693I-000531J0000000D01*
G01*
X0046904Y0136693D01*
G75*
G02*
X0046372Y0137224I0000000J0000531D01*
G01*
G37*
G36*
G01*
X0018405Y0136614D02*
X0019586Y0136614D01*
G75*
G02*
X0020177Y0136023I0000000J-000591D01*
G01*
X0020177Y0131397D01*
G75*
G02*
X0019586Y0130807I-000591J0000000D01*
G01*
X0018405Y0130807D01*
G75*
G02*
X0017815Y0131397I0000000J0000591D01*
G01*
X0017815Y0136023D01*
G75*
G02*
X0018405Y0136614I0000591J0000000D01*
G01*
G37*
G36*
G01*
X0025885Y0136614D02*
X0027066Y0136614D01*
G75*
G02*
X0027657Y0136023I0000000J-000591D01*
G01*
X0027657Y0131397D01*
G75*
G02*
X0027066Y0130807I-000591J0000000D01*
G01*
X0025885Y0130807D01*
G75*
G02*
X0025295Y0131397I0000000J0000591D01*
G01*
X0025295Y0136023D01*
G75*
G02*
X0025885Y0136614I0000591J0000000D01*
G01*
G37*
G36*
G01*
X0022145Y0129232D02*
X0023326Y0129232D01*
G75*
G02*
X0023917Y0128641I0000000J-000591D01*
G01*
X0023917Y0124015D01*
G75*
G02*
X0023326Y0123425I-000591J0000000D01*
G01*
X0022145Y0123425D01*
G75*
G02*
X0021555Y0124015I0000000J0000591D01*
G01*
X0021555Y0128641D01*
G75*
G02*
X0022145Y0129232I0000591J0000000D01*
G01*
G37*
G36*
G01*
X0056337Y0138661D02*
X0056337Y0137322D01*
G75*
G02*
X0055785Y0136771I-000551J0000000D01*
G01*
X0054683Y0136771D01*
G75*
G02*
X0054132Y0137322I0000000J0000551D01*
G01*
X0054132Y0138661D01*
G75*
G02*
X0054683Y0139212I0000551J0000000D01*
G01*
X0055785Y0139212D01*
G75*
G02*
X0056337Y0138661I0000000J-000551D01*
G01*
G37*
G36*
G01*
X0052557Y0138661D02*
X0052557Y0137322D01*
G75*
G02*
X0052006Y0136771I-000551J0000000D01*
G01*
X0050904Y0136771D01*
G75*
G02*
X0050352Y0137322I0000000J0000551D01*
G01*
X0050352Y0138661D01*
G75*
G02*
X0050904Y0139212I0000551J0000000D01*
G01*
X0052006Y0139212D01*
G75*
G02*
X0052557Y0138661I0000000J-000551D01*
G01*
G37*
G36*
G01*
X0053266Y0107874D02*
X0052085Y0107874D01*
G75*
G02*
X0051494Y0108464I0000000J0000591D01*
G01*
X0051494Y0114173D01*
G75*
G02*
X0052085Y0114763I0000591J0000000D01*
G01*
X0053266Y0114763D01*
G75*
G02*
X0053856Y0114173I0000000J-000591D01*
G01*
X0053856Y0108464D01*
G75*
G02*
X0053266Y0107874I-000591J0000000D01*
G01*
G37*
G36*
G01*
X0048266Y0107874D02*
X0047085Y0107874D01*
G75*
G02*
X0046494Y0108464I0000000J0000591D01*
G01*
X0046494Y0114173D01*
G75*
G02*
X0047085Y0114763I0000591J0000000D01*
G01*
X0048266Y0114763D01*
G75*
G02*
X0048856Y0114173I0000000J-000591D01*
G01*
X0048856Y0108464D01*
G75*
G02*
X0048266Y0107874I-000591J0000000D01*
G01*
G37*
G36*
G01*
X0043266Y0107874D02*
X0042085Y0107874D01*
G75*
G02*
X0041494Y0108464I0000000J0000591D01*
G01*
X0041494Y0114173D01*
G75*
G02*
X0042085Y0114763I0000591J0000000D01*
G01*
X0043266Y0114763D01*
G75*
G02*
X0043856Y0114173I0000000J-000591D01*
G01*
X0043856Y0108464D01*
G75*
G02*
X0043266Y0107874I-000591J0000000D01*
G01*
G37*
G36*
G01*
X0038266Y0107874D02*
X0037085Y0107874D01*
G75*
G02*
X0036494Y0108464I0000000J0000591D01*
G01*
X0036494Y0114173D01*
G75*
G02*
X0037085Y0114763I0000591J0000000D01*
G01*
X0038266Y0114763D01*
G75*
G02*
X0038856Y0114173I0000000J-000591D01*
G01*
X0038856Y0108464D01*
G75*
G02*
X0038266Y0107874I-000591J0000000D01*
G01*
G37*
G36*
G01*
X0038266Y0128149D02*
X0037085Y0128149D01*
G75*
G02*
X0036494Y0128740I0000000J0000591D01*
G01*
X0036494Y0134448D01*
G75*
G02*
X0037085Y0135039I0000591J0000000D01*
G01*
X0038266Y0135039D01*
G75*
G02*
X0038856Y0134448I0000000J-000591D01*
G01*
X0038856Y0128740D01*
G75*
G02*
X0038266Y0128149I-000591J0000000D01*
G01*
G37*
G36*
G01*
X0043266Y0128149D02*
X0042085Y0128149D01*
G75*
G02*
X0041494Y0128740I0000000J0000591D01*
G01*
X0041494Y0134448D01*
G75*
G02*
X0042085Y0135039I0000591J0000000D01*
G01*
X0043266Y0135039D01*
G75*
G02*
X0043856Y0134448I0000000J-000591D01*
G01*
X0043856Y0128740D01*
G75*
G02*
X0043266Y0128149I-000591J0000000D01*
G01*
G37*
G36*
G01*
X0048266Y0128149D02*
X0047085Y0128149D01*
G75*
G02*
X0046494Y0128740I0000000J0000591D01*
G01*
X0046494Y0134448D01*
G75*
G02*
X0047085Y0135039I0000591J0000000D01*
G01*
X0048266Y0135039D01*
G75*
G02*
X0048856Y0134448I0000000J-000591D01*
G01*
X0048856Y0128740D01*
G75*
G02*
X0048266Y0128149I-000591J0000000D01*
G01*
G37*
G36*
G01*
X0053266Y0128149D02*
X0052085Y0128149D01*
G75*
G02*
X0051494Y0128740I0000000J0000591D01*
G01*
X0051494Y0134448D01*
G75*
G02*
X0052085Y0135039I0000591J0000000D01*
G01*
X0053266Y0135039D01*
G75*
G02*
X0053856Y0134448I0000000J-000591D01*
G01*
X0053856Y0128740D01*
G75*
G02*
X0053266Y0128149I-000591J0000000D01*
G01*
G37*
M02*
