G75*
G70*
%OFA0B0*%
%FSLAX25Y25*%
%IPPOS*%
%LPD*%
%AMOC8*
5,1,8,0,0,1.08239X$1,22.5*
%
%AMM141*
21,1,0.092130,0.073230,-0.000000,-0.000000,90.000000*
21,1,0.069290,0.096060,-0.000000,-0.000000,90.000000*
1,1,0.022840,0.036610,0.034650*
1,1,0.022840,0.036610,-0.034650*
1,1,0.022840,-0.036610,-0.034650*
1,1,0.022840,-0.036610,0.034650*
%
%AMM142*
21,1,0.100000,0.111020,-0.000000,-0.000000,180.000000*
21,1,0.075590,0.135430,-0.000000,-0.000000,180.000000*
1,1,0.024410,-0.037800,0.055510*
1,1,0.024410,0.037800,0.055510*
1,1,0.024410,0.037800,-0.055510*
1,1,0.024410,-0.037800,-0.055510*
%
%AMM143*
21,1,0.080320,0.083460,-0.000000,-0.000000,180.000000*
21,1,0.059840,0.103940,-0.000000,-0.000000,180.000000*
1,1,0.020470,-0.029920,0.041730*
1,1,0.020470,0.029920,0.041730*
1,1,0.020470,0.029920,-0.041730*
1,1,0.020470,-0.029920,-0.041730*
%
%AMM144*
21,1,0.084250,0.053540,-0.000000,-0.000000,0.000000*
21,1,0.065350,0.072440,-0.000000,-0.000000,0.000000*
1,1,0.018900,0.032680,-0.026770*
1,1,0.018900,-0.032680,-0.026770*
1,1,0.018900,-0.032680,0.026770*
1,1,0.018900,0.032680,0.026770*
%
%AMM145*
21,1,0.040950,0.030320,-0.000000,-0.000000,270.000000*
21,1,0.028350,0.042910,-0.000000,-0.000000,270.000000*
1,1,0.012600,-0.015160,-0.014170*
1,1,0.012600,-0.015160,0.014170*
1,1,0.012600,0.015160,0.014170*
1,1,0.012600,0.015160,-0.014170*
%
%AMM146*
21,1,0.027170,0.052760,-0.000000,-0.000000,90.000000*
21,1,0.017320,0.062600,-0.000000,-0.000000,90.000000*
1,1,0.009840,0.026380,0.008660*
1,1,0.009840,0.026380,-0.008660*
1,1,0.009840,-0.026380,-0.008660*
1,1,0.009840,-0.026380,0.008660*
%
%AMM147*
21,1,0.041340,0.026770,-0.000000,-0.000000,180.000000*
21,1,0.029130,0.038980,-0.000000,-0.000000,180.000000*
1,1,0.012210,-0.014570,0.013390*
1,1,0.012210,0.014570,0.013390*
1,1,0.012210,0.014570,-0.013390*
1,1,0.012210,-0.014570,-0.013390*
%
%AMM148*
21,1,0.076380,0.036220,-0.000000,-0.000000,270.000000*
21,1,0.061810,0.050790,-0.000000,-0.000000,270.000000*
1,1,0.014570,-0.018110,-0.030910*
1,1,0.014570,-0.018110,0.030910*
1,1,0.014570,0.018110,0.030910*
1,1,0.014570,0.018110,-0.030910*
%
%AMM149*
21,1,0.038980,0.026770,-0.000000,-0.000000,180.000000*
21,1,0.026770,0.038980,-0.000000,-0.000000,180.000000*
1,1,0.012210,-0.013390,0.013390*
1,1,0.012210,0.013390,0.013390*
1,1,0.012210,0.013390,-0.013390*
1,1,0.012210,-0.013390,-0.013390*
%
%AMM150*
21,1,0.021260,0.016540,-0.000000,-0.000000,90.000000*
21,1,0.012600,0.025200,-0.000000,-0.000000,90.000000*
1,1,0.008660,0.008270,0.006300*
1,1,0.008660,0.008270,-0.006300*
1,1,0.008660,-0.008270,-0.006300*
1,1,0.008660,-0.008270,0.006300*
%
%AMM151*
21,1,0.029130,0.018900,-0.000000,-0.000000,270.000000*
21,1,0.018900,0.029130,-0.000000,-0.000000,270.000000*
1,1,0.010240,-0.009450,-0.009450*
1,1,0.010240,-0.009450,0.009450*
1,1,0.010240,0.009450,0.009450*
1,1,0.010240,0.009450,-0.009450*
%
%AMM152*
21,1,0.025200,0.019680,-0.000000,-0.000000,180.000000*
21,1,0.015750,0.029130,-0.000000,-0.000000,180.000000*
1,1,0.009450,-0.007870,0.009840*
1,1,0.009450,0.007870,0.009840*
1,1,0.009450,0.007870,-0.009840*
1,1,0.009450,-0.007870,-0.009840*
%
%AMM153*
21,1,0.025200,0.019680,-0.000000,-0.000000,90.000000*
21,1,0.015750,0.029130,-0.000000,-0.000000,90.000000*
1,1,0.009450,0.009840,0.007870*
1,1,0.009450,0.009840,-0.007870*
1,1,0.009450,-0.009840,-0.007870*
1,1,0.009450,-0.009840,0.007870*
%
%AMM235*
21,1,0.029530,0.026380,-0.000000,-0.000000,90.000000*
21,1,0.020470,0.035430,-0.000000,-0.000000,90.000000*
1,1,0.009060,0.013190,0.010240*
1,1,0.009060,0.013190,-0.010240*
1,1,0.009060,-0.013190,-0.010240*
1,1,0.009060,-0.013190,0.010240*
%
%AMM236*
21,1,0.021650,0.027950,-0.000000,-0.000000,90.000000*
21,1,0.014170,0.035430,-0.000000,-0.000000,90.000000*
1,1,0.007480,0.013980,0.007090*
1,1,0.007480,0.013980,-0.007090*
1,1,0.007480,-0.013980,-0.007090*
1,1,0.007480,-0.013980,0.007090*
%
%AMM237*
21,1,0.016540,0.028980,-0.000000,-0.000000,270.000000*
21,1,0.010080,0.035430,-0.000000,-0.000000,270.000000*
1,1,0.006460,-0.014490,-0.005040*
1,1,0.006460,-0.014490,0.005040*
1,1,0.006460,0.014490,0.005040*
1,1,0.006460,0.014490,-0.005040*
%
%AMM238*
21,1,0.027560,0.030710,-0.000000,-0.000000,0.000000*
21,1,0.018900,0.039370,-0.000000,-0.000000,0.000000*
1,1,0.008660,0.009450,-0.015350*
1,1,0.008660,-0.009450,-0.015350*
1,1,0.008660,-0.009450,0.015350*
1,1,0.008660,0.009450,0.015350*
%
%AMM239*
21,1,0.031500,0.018900,-0.000000,-0.000000,270.000000*
21,1,0.022840,0.027560,-0.000000,-0.000000,270.000000*
1,1,0.008660,-0.009450,-0.011420*
1,1,0.008660,-0.009450,0.011420*
1,1,0.008660,0.009450,0.011420*
1,1,0.008660,0.009450,-0.011420*
%
%AMM240*
21,1,0.035430,0.072440,-0.000000,-0.000000,270.000000*
21,1,0.025200,0.082680,-0.000000,-0.000000,270.000000*
1,1,0.010240,-0.036220,-0.012600*
1,1,0.010240,-0.036220,0.012600*
1,1,0.010240,0.036220,0.012600*
1,1,0.010240,0.036220,-0.012600*
%
%AMM241*
21,1,0.031500,0.018900,-0.000000,-0.000000,0.000000*
21,1,0.022840,0.027560,-0.000000,-0.000000,0.000000*
1,1,0.008660,0.011420,-0.009450*
1,1,0.008660,-0.011420,-0.009450*
1,1,0.008660,-0.011420,0.009450*
1,1,0.008660,0.011420,0.009450*
%
%AMM242*
21,1,0.027560,0.030710,-0.000000,-0.000000,90.000000*
21,1,0.018900,0.039370,-0.000000,-0.000000,90.000000*
1,1,0.008660,0.015350,0.009450*
1,1,0.008660,0.015350,-0.009450*
1,1,0.008660,-0.015350,-0.009450*
1,1,0.008660,-0.015350,0.009450*
%
%AMM243*
21,1,0.039370,0.030320,-0.000000,-0.000000,90.000000*
21,1,0.028350,0.041340,-0.000000,-0.000000,90.000000*
1,1,0.011020,0.015160,0.014170*
1,1,0.011020,0.015160,-0.014170*
1,1,0.011020,-0.015160,-0.014170*
1,1,0.011020,-0.015160,0.014170*
%
%AMM244*
21,1,0.047240,0.075980,-0.000000,-0.000000,180.000000*
21,1,0.034650,0.088580,-0.000000,-0.000000,180.000000*
1,1,0.012600,-0.017320,0.037990*
1,1,0.012600,0.017320,0.037990*
1,1,0.012600,0.017320,-0.037990*
1,1,0.012600,-0.017320,-0.037990*
%
%AMM245*
21,1,0.043310,0.035430,-0.000000,-0.000000,180.000000*
21,1,0.031500,0.047240,-0.000000,-0.000000,180.000000*
1,1,0.011810,-0.015750,0.017720*
1,1,0.011810,0.015750,0.017720*
1,1,0.011810,0.015750,-0.017720*
1,1,0.011810,-0.015750,-0.017720*
%
%AMM246*
21,1,0.031500,0.030710,-0.000000,-0.000000,180.000000*
21,1,0.022050,0.040160,-0.000000,-0.000000,180.000000*
1,1,0.009450,-0.011020,0.015350*
1,1,0.009450,0.011020,0.015350*
1,1,0.009450,0.011020,-0.015350*
1,1,0.009450,-0.011020,-0.015350*
%
%AMM247*
21,1,0.035430,0.072440,-0.000000,-0.000000,180.000000*
21,1,0.025200,0.082680,-0.000000,-0.000000,180.000000*
1,1,0.010240,-0.012600,0.036220*
1,1,0.010240,0.012600,0.036220*
1,1,0.010240,0.012600,-0.036220*
1,1,0.010240,-0.012600,-0.036220*
%
%AMM248*
21,1,0.141730,0.067720,-0.000000,-0.000000,180.000000*
21,1,0.120870,0.088580,-0.000000,-0.000000,180.000000*
1,1,0.020870,-0.060430,0.033860*
1,1,0.020870,0.060430,0.033860*
1,1,0.020870,0.060430,-0.033860*
1,1,0.020870,-0.060430,-0.033860*
%
%AMM249*
21,1,0.047240,0.075990,-0.000000,-0.000000,180.000000*
21,1,0.034650,0.088580,-0.000000,-0.000000,180.000000*
1,1,0.012600,-0.017320,0.037990*
1,1,0.012600,0.017320,0.037990*
1,1,0.012600,0.017320,-0.037990*
1,1,0.012600,-0.017320,-0.037990*
%
%AMM250*
21,1,0.090550,0.073230,-0.000000,-0.000000,270.000000*
21,1,0.069290,0.094490,-0.000000,-0.000000,270.000000*
1,1,0.021260,-0.036610,-0.034650*
1,1,0.021260,-0.036610,0.034650*
1,1,0.021260,0.036610,0.034650*
1,1,0.021260,0.036610,-0.034650*
%
%ADD11R,0.07874X0.05906*%
%ADD12R,0.07874X0.14961*%
%ADD13C,0.22047*%
%ADD130C,0.02913*%
%ADD131C,0.06457*%
%ADD14R,0.06693X0.06693*%
%ADD144R,0.02559X0.01575*%
%ADD145R,0.01575X0.02559*%
%ADD146R,0.05512X0.01181*%
%ADD147R,0.03543X0.03150*%
%ADD148R,0.04724X0.08661*%
%ADD149C,0.05118*%
%ADD15O,0.06693X0.06693*%
%ADD150R,0.22835X0.25197*%
%ADD151R,0.03150X0.03543*%
%ADD152C,0.03100*%
%ADD153R,0.07500X0.07874*%
%ADD154O,0.07500X0.07874*%
%ADD155C,0.03900*%
%ADD16C,0.02362*%
%ADD186O,0.05118X0.01260*%
%ADD187O,0.01260X0.05118*%
%ADD188O,0.04724X0.01575*%
%ADD189C,0.03494*%
%ADD192R,0.01772X0.01378*%
%ADD193R,0.01378X0.01772*%
%ADD198O,0.09055X0.02756*%
%ADD205C,0.03543*%
%ADD207C,0.04724*%
%ADD208C,0.04294*%
%ADD304M141*%
%ADD305M142*%
%ADD306M143*%
%ADD307M144*%
%ADD308M145*%
%ADD309M146*%
%ADD31C,0.05906*%
%ADD310M147*%
%ADD311M148*%
%ADD312M149*%
%ADD313M150*%
%ADD314M151*%
%ADD315M152*%
%ADD316M153*%
%ADD327R,0.08661X0.04724*%
%ADD328R,0.25197X0.22835*%
%ADD329R,0.07874X0.07500*%
%ADD330O,0.07874X0.07500*%
%ADD41R,0.10335X0.10335*%
%ADD42C,0.10335*%
%ADD425M235*%
%ADD426M236*%
%ADD427M237*%
%ADD428M238*%
%ADD429M239*%
%ADD430M240*%
%ADD431M241*%
%ADD432M242*%
%ADD433M243*%
%ADD434M244*%
%ADD435M245*%
%ADD436M246*%
%ADD437M247*%
%ADD438M248*%
%ADD439M249*%
%ADD440M250*%
%ADD48R,0.04331X0.04331*%
%ADD49C,0.04331*%
%ADD50O,0.04331X0.09449*%
%ADD51C,0.06000*%
%ADD64R,0.05118X0.03937*%
%ADD76C,0.00472*%
%ADD77C,0.11220*%
X0000000Y0000000D02*
%LPD*%
G01*
D76*
X0617244Y0086610D02*
X0566063Y0086610D01*
X0566063Y0114169D01*
X0617244Y0114169D01*
X0617244Y0086610D01*
G36*
X0617244Y0086610D02*
G01*
X0566063Y0086610D01*
X0566063Y0114169D01*
X0617244Y0114169D01*
X0617244Y0086610D01*
G37*
D11*
X0499902Y0194532D03*
X0499902Y0203587D03*
X0499902Y0212642D03*
D12*
X0475099Y0203587D03*
G36*
G01*
X0590083Y0196504D02*
X0590083Y0193433D01*
G75*
G02*
X0589807Y0193158I-000276J0000000D01*
G01*
X0587603Y0193158D01*
G75*
G02*
X0587327Y0193433I0000000J0000276D01*
G01*
X0587327Y0196504D01*
G75*
G02*
X0587603Y0196780I0000276J0000000D01*
G01*
X0589807Y0196780D01*
G75*
G02*
X0590083Y0196504I0000000J-000276D01*
G01*
G37*
G36*
G01*
X0583784Y0196504D02*
X0583784Y0193433D01*
G75*
G02*
X0583508Y0193158I-000276J0000000D01*
G01*
X0581303Y0193158D01*
G75*
G02*
X0581028Y0193433I0000000J0000276D01*
G01*
X0581028Y0196504D01*
G75*
G02*
X0581303Y0196780I0000276J0000000D01*
G01*
X0583508Y0196780D01*
G75*
G02*
X0583784Y0196504I0000000J-000276D01*
G01*
G37*
G36*
G01*
X0564953Y0189787D02*
X0564953Y0192858D01*
G75*
G02*
X0565229Y0193134I0000276J0000000D01*
G01*
X0567433Y0193134D01*
G75*
G02*
X0567709Y0192858I0000000J-000276D01*
G01*
X0567709Y0189787D01*
G75*
G02*
X0567433Y0189512I-000276J0000000D01*
G01*
X0565229Y0189512D01*
G75*
G02*
X0564953Y0189787I0000000J0000276D01*
G01*
G37*
G36*
G01*
X0571252Y0189787D02*
X0571252Y0192858D01*
G75*
G02*
X0571528Y0193134I0000276J0000000D01*
G01*
X0573733Y0193134D01*
G75*
G02*
X0574008Y0192858I0000000J-000276D01*
G01*
X0574008Y0189787D01*
G75*
G02*
X0573733Y0189512I-000276J0000000D01*
G01*
X0571528Y0189512D01*
G75*
G02*
X0571252Y0189787I0000000J0000276D01*
G01*
G37*
G36*
G01*
X0542425Y0165791D02*
X0539354Y0165791D01*
G75*
G02*
X0539079Y0166067I0000000J0000276D01*
G01*
X0539079Y0168272D01*
G75*
G02*
X0539354Y0168547I0000276J0000000D01*
G01*
X0542425Y0168547D01*
G75*
G02*
X0542701Y0168272I0000000J-000276D01*
G01*
X0542701Y0166067D01*
G75*
G02*
X0542425Y0165791I-000276J0000000D01*
G01*
G37*
G36*
G01*
X0542425Y0172091D02*
X0539354Y0172091D01*
G75*
G02*
X0539079Y0172366I0000000J0000276D01*
G01*
X0539079Y0174571D01*
G75*
G02*
X0539354Y0174847I0000276J0000000D01*
G01*
X0542425Y0174847D01*
G75*
G02*
X0542701Y0174571I0000000J-000276D01*
G01*
X0542701Y0172366D01*
G75*
G02*
X0542425Y0172091I-000276J0000000D01*
G01*
G37*
D11*
X0493111Y0118221D03*
X0493111Y0127276D03*
X0493111Y0136331D03*
D12*
X0468307Y0127276D03*
G36*
G01*
X0452379Y0163935D02*
X0449992Y0162557D01*
G75*
G02*
X0448648Y0162917I-000492J0000852D01*
G01*
X0445301Y0168713D01*
G75*
G02*
X0445661Y0170058I0000852J0000492D01*
G01*
X0448048Y0171436D01*
G75*
G02*
X0449393Y0171075I0000492J-000852D01*
G01*
X0452739Y0165279D01*
G75*
G02*
X0452379Y0163935I-000852J-000492D01*
G01*
G37*
G36*
G01*
X0459727Y0187270D02*
X0441656Y0176837D01*
G75*
G02*
X0440312Y0177198I-000492J0000852D01*
G01*
X0428697Y0197314D01*
G75*
G02*
X0429058Y0198658I0000852J0000492D01*
G01*
X0447128Y0209092D01*
G75*
G02*
X0448473Y0208731I0000492J-000852D01*
G01*
X0460087Y0188615D01*
G75*
G02*
X0459727Y0187270I-000852J-000492D01*
G01*
G37*
G36*
G01*
X0467926Y0172911D02*
X0465540Y0171533D01*
G75*
G02*
X0464195Y0171893I-000492J0000852D01*
G01*
X0460849Y0177690D01*
G75*
G02*
X0461209Y0179034I0000852J0000492D01*
G01*
X0463596Y0180412D01*
G75*
G02*
X0464940Y0180052I0000492J-000852D01*
G01*
X0468287Y0174255D01*
G75*
G02*
X0467926Y0172911I-000852J-000492D01*
G01*
G37*
G36*
G01*
X0381390Y0164486D02*
X0379004Y0163108D01*
G75*
G02*
X0377659Y0163468I-000492J0000852D01*
G01*
X0374313Y0169264D01*
G75*
G02*
X0374673Y0170609I0000852J0000492D01*
G01*
X0377060Y0171987D01*
G75*
G02*
X0378404Y0171627I0000492J-000852D01*
G01*
X0381750Y0165830D01*
G75*
G02*
X0381390Y0164486I-000852J-000492D01*
G01*
G37*
G36*
G01*
X0388738Y0187822D02*
X0370668Y0177389D01*
G75*
G02*
X0369323Y0177749I-000492J0000852D01*
G01*
X0357709Y0197865D01*
G75*
G02*
X0358069Y0199210I0000852J0000492D01*
G01*
X0376140Y0209643D01*
G75*
G02*
X0377484Y0209282I0000492J-000852D01*
G01*
X0389099Y0189166D01*
G75*
G02*
X0388738Y0187822I-000852J-000492D01*
G01*
G37*
G36*
G01*
X0396938Y0173462D02*
X0394551Y0172084D01*
G75*
G02*
X0393207Y0172444I-000492J0000852D01*
G01*
X0389860Y0178241D01*
G75*
G02*
X0390220Y0179585I0000852J0000492D01*
G01*
X0392607Y0180963D01*
G75*
G02*
X0393952Y0180603I0000492J-000852D01*
G01*
X0397298Y0174807D01*
G75*
G02*
X0396938Y0173462I-000852J-000492D01*
G01*
G37*
G36*
G01*
X0114087Y0265205D02*
X0111016Y0265205D01*
G75*
G02*
X0110740Y0265480I0000000J0000276D01*
G01*
X0110740Y0267685D01*
G75*
G02*
X0111016Y0267961I0000276J0000000D01*
G01*
X0114087Y0267961D01*
G75*
G02*
X0114363Y0267685I0000000J-000276D01*
G01*
X0114363Y0265480D01*
G75*
G02*
X0114087Y0265205I-000276J0000000D01*
G01*
G37*
G36*
G01*
X0114087Y0271504D02*
X0111016Y0271504D01*
G75*
G02*
X0110740Y0271780I0000000J0000276D01*
G01*
X0110740Y0273984D01*
G75*
G02*
X0111016Y0274260I0000276J0000000D01*
G01*
X0114087Y0274260D01*
G75*
G02*
X0114363Y0273984I0000000J-000276D01*
G01*
X0114363Y0271780D01*
G75*
G02*
X0114087Y0271504I-000276J0000000D01*
G01*
G37*
D13*
X0117898Y0146500D03*
X0613803Y0192547D03*
D14*
X0549272Y0029937D03*
D15*
X0549272Y0019937D03*
G36*
G01*
X0551965Y0132284D02*
X0551965Y0129213D01*
G75*
G02*
X0551689Y0128937I-000276J0000000D01*
G01*
X0549485Y0128937D01*
G75*
G02*
X0549209Y0129213I0000000J0000276D01*
G01*
X0549209Y0132284D01*
G75*
G02*
X0549485Y0132559I0000276J0000000D01*
G01*
X0551689Y0132559D01*
G75*
G02*
X0551965Y0132284I0000000J-000276D01*
G01*
G37*
G36*
G01*
X0545666Y0132284D02*
X0545666Y0129213D01*
G75*
G02*
X0545390Y0128937I-000276J0000000D01*
G01*
X0543185Y0128937D01*
G75*
G02*
X0542910Y0129213I0000000J0000276D01*
G01*
X0542910Y0132284D01*
G75*
G02*
X0543185Y0132559I0000276J0000000D01*
G01*
X0545390Y0132559D01*
G75*
G02*
X0545666Y0132284I0000000J-000276D01*
G01*
G37*
D16*
X0043855Y0168606D03*
X0039130Y0168606D03*
X0048579Y0168606D03*
X0053303Y0168606D03*
X0027870Y0225398D03*
X0023933Y0225398D03*
G36*
G01*
X0115492Y0227917D02*
X0115492Y0224847D01*
G75*
G02*
X0115217Y0224571I-000276J0000000D01*
G01*
X0113012Y0224571D01*
G75*
G02*
X0112737Y0224847I0000000J0000276D01*
G01*
X0112737Y0227917D01*
G75*
G02*
X0113012Y0228193I0000276J0000000D01*
G01*
X0115217Y0228193D01*
G75*
G02*
X0115492Y0227917I0000000J-000276D01*
G01*
G37*
G36*
G01*
X0109193Y0227917D02*
X0109193Y0224847D01*
G75*
G02*
X0108918Y0224571I-000276J0000000D01*
G01*
X0106713Y0224571D01*
G75*
G02*
X0106437Y0224847I0000000J0000276D01*
G01*
X0106437Y0227917D01*
G75*
G02*
X0106713Y0228193I0000276J0000000D01*
G01*
X0108918Y0228193D01*
G75*
G02*
X0109193Y0227917I0000000J-000276D01*
G01*
G37*
D11*
X0544666Y0138311D03*
X0544666Y0147366D03*
X0544666Y0156421D03*
D12*
X0519863Y0147366D03*
D14*
X0041075Y0154807D03*
D15*
X0041075Y0144807D03*
G36*
G01*
X0432351Y0129068D02*
X0429964Y0127690D01*
G75*
G02*
X0428620Y0128051I-000492J0000852D01*
G01*
X0425273Y0133847D01*
G75*
G02*
X0425634Y0135191I0000852J0000492D01*
G01*
X0428020Y0136569D01*
G75*
G02*
X0429365Y0136209I0000492J-000852D01*
G01*
X0432711Y0130413D01*
G75*
G02*
X0432351Y0129068I-000852J-000492D01*
G01*
G37*
G36*
G01*
X0439699Y0152404D02*
X0421629Y0141971D01*
G75*
G02*
X0420284Y0142331I-000492J0000852D01*
G01*
X0408670Y0162448D01*
G75*
G02*
X0409030Y0163792I0000852J0000492D01*
G01*
X0427101Y0174225D01*
G75*
G02*
X0428445Y0173865I0000492J-000852D01*
G01*
X0440059Y0153749D01*
G75*
G02*
X0439699Y0152404I-000852J-000492D01*
G01*
G37*
G36*
G01*
X0447899Y0138045D02*
X0445512Y0136667D01*
G75*
G02*
X0444167Y0137027I-000492J0000852D01*
G01*
X0440821Y0142823D01*
G75*
G02*
X0441181Y0144168I0000852J0000492D01*
G01*
X0443568Y0145546D01*
G75*
G02*
X0444912Y0145186I0000492J-000852D01*
G01*
X0448259Y0139389D01*
G75*
G02*
X0447899Y0138045I-000852J-000492D01*
G01*
G37*
D31*
X0087048Y0041441D03*
X0087048Y0066638D03*
X0087048Y0074118D03*
X0087048Y0091047D03*
D16*
X0085276Y0100496D03*
X0085276Y0104433D03*
D31*
X0087048Y0115654D03*
X0148071Y0039669D03*
X0148071Y0046953D03*
X0148071Y0066441D03*
X0148071Y0113882D03*
G36*
G01*
X0495595Y0270150D02*
X0492524Y0270150D01*
G75*
G02*
X0492248Y0270425I0000000J0000276D01*
G01*
X0492248Y0272630D01*
G75*
G02*
X0492524Y0272906I0000276J0000000D01*
G01*
X0495595Y0272906D01*
G75*
G02*
X0495870Y0272630I0000000J-000276D01*
G01*
X0495870Y0270425D01*
G75*
G02*
X0495595Y0270150I-000276J0000000D01*
G01*
G37*
G36*
G01*
X0495595Y0276449D02*
X0492524Y0276449D01*
G75*
G02*
X0492248Y0276724I0000000J0000276D01*
G01*
X0492248Y0278929D01*
G75*
G02*
X0492524Y0279205I0000276J0000000D01*
G01*
X0495595Y0279205D01*
G75*
G02*
X0495870Y0278929I0000000J-000276D01*
G01*
X0495870Y0276724D01*
G75*
G02*
X0495595Y0276449I-000276J0000000D01*
G01*
G37*
D11*
X0540469Y0181972D03*
X0540469Y0191028D03*
X0540469Y0200083D03*
D12*
X0515666Y0191028D03*
D11*
X0478650Y0181024D03*
X0478650Y0171969D03*
X0478650Y0162913D03*
D12*
X0503453Y0171969D03*
G36*
G01*
X0560496Y0011945D02*
X0557819Y0011945D01*
G75*
G02*
X0557485Y0012280I0000000J0000335D01*
G01*
X0557485Y0014957D01*
G75*
G02*
X0557819Y0015291I0000335J0000000D01*
G01*
X0560496Y0015291D01*
G75*
G02*
X0560831Y0014957I0000000J-000335D01*
G01*
X0560831Y0012280D01*
G75*
G02*
X0560496Y0011945I-000335J0000000D01*
G01*
G37*
G36*
G01*
X0560496Y0018165D02*
X0557819Y0018165D01*
G75*
G02*
X0557485Y0018500I0000000J0000335D01*
G01*
X0557485Y0021177D01*
G75*
G02*
X0557819Y0021512I0000335J0000000D01*
G01*
X0560496Y0021512D01*
G75*
G02*
X0560831Y0021177I0000000J-000335D01*
G01*
X0560831Y0018500D01*
G75*
G02*
X0560496Y0018165I-000335J0000000D01*
G01*
G37*
G36*
G01*
X0387300Y0106438D02*
X0385764Y0109097D01*
G75*
G02*
X0385865Y0109474I0000239J0000138D01*
G01*
X0387775Y0110576D01*
G75*
G02*
X0388151Y0110475I0000138J-000239D01*
G01*
X0389687Y0107816D01*
G75*
G02*
X0389586Y0107440I-000239J-000138D01*
G01*
X0387676Y0106337D01*
G75*
G02*
X0387300Y0106438I-000138J0000239D01*
G01*
G37*
G36*
G01*
X0392755Y0109588D02*
X0391220Y0112247D01*
G75*
G02*
X0391321Y0112624I0000239J0000138D01*
G01*
X0393230Y0113726D01*
G75*
G02*
X0393606Y0113625I0000138J-000239D01*
G01*
X0395142Y0110966D01*
G75*
G02*
X0395041Y0110589I-000239J-000138D01*
G01*
X0393132Y0109487D01*
G75*
G02*
X0392755Y0109588I-000138J0000239D01*
G01*
G37*
G36*
G01*
X0473524Y0151791D02*
X0473524Y0154862D01*
G75*
G02*
X0473800Y0155138I0000276J0000000D01*
G01*
X0476004Y0155138D01*
G75*
G02*
X0476280Y0154862I0000000J-000276D01*
G01*
X0476280Y0151791D01*
G75*
G02*
X0476004Y0151516I-000276J0000000D01*
G01*
X0473800Y0151516D01*
G75*
G02*
X0473524Y0151791I0000000J0000276D01*
G01*
G37*
G36*
G01*
X0479823Y0151791D02*
X0479823Y0154862D01*
G75*
G02*
X0480099Y0155138I0000276J0000000D01*
G01*
X0482303Y0155138D01*
G75*
G02*
X0482579Y0154862I0000000J-000276D01*
G01*
X0482579Y0151791D01*
G75*
G02*
X0482303Y0151516I-000276J0000000D01*
G01*
X0480099Y0151516D01*
G75*
G02*
X0479823Y0151791I0000000J0000276D01*
G01*
G37*
G36*
G01*
X0432721Y0122718D02*
X0431186Y0125377D01*
G75*
G02*
X0431287Y0125753I0000239J0000138D01*
G01*
X0433196Y0126856D01*
G75*
G02*
X0433572Y0126755I0000138J-000239D01*
G01*
X0435108Y0124096D01*
G75*
G02*
X0435007Y0123719I-000239J-000138D01*
G01*
X0433098Y0122617D01*
G75*
G02*
X0432721Y0122718I-000138J0000239D01*
G01*
G37*
G36*
G01*
X0438176Y0125867D02*
X0436641Y0128527D01*
G75*
G02*
X0436742Y0128903I0000239J0000138D01*
G01*
X0438651Y0130005D01*
G75*
G02*
X0439028Y0129905I0000138J-000239D01*
G01*
X0440563Y0127245D01*
G75*
G02*
X0440462Y0126869I-000239J-000138D01*
G01*
X0438553Y0125766D01*
G75*
G02*
X0438176Y0125867I-000138J0000239D01*
G01*
G37*
D77*
X0234363Y0036177D03*
X0395780Y0036177D03*
D41*
X0259953Y0053894D03*
D42*
X0275701Y0053894D03*
X0291449Y0053894D03*
X0307197Y0053894D03*
X0322945Y0053894D03*
X0338693Y0053894D03*
X0354441Y0053894D03*
X0370189Y0053894D03*
X0267827Y0038146D03*
X0283575Y0038146D03*
X0299323Y0038146D03*
X0315071Y0038146D03*
X0330819Y0038146D03*
X0346567Y0038146D03*
X0362315Y0038146D03*
X0259953Y0022398D03*
X0275701Y0022398D03*
X0291449Y0022398D03*
X0307197Y0022398D03*
X0322945Y0022398D03*
X0338693Y0022398D03*
X0354441Y0022398D03*
X0370189Y0022398D03*
G36*
G01*
X0386585Y0112922D02*
X0384199Y0111544D01*
G75*
G02*
X0382854Y0111904I-000492J0000852D01*
G01*
X0379508Y0117700D01*
G75*
G02*
X0379868Y0119045I0000852J0000492D01*
G01*
X0382255Y0120423D01*
G75*
G02*
X0383599Y0120062I0000492J-000852D01*
G01*
X0386946Y0114266D01*
G75*
G02*
X0386585Y0112922I-000852J-000492D01*
G01*
G37*
G36*
G01*
X0393933Y0136257D02*
X0375863Y0125824D01*
G75*
G02*
X0374518Y0126185I-000492J0000852D01*
G01*
X0362904Y0146301D01*
G75*
G02*
X0363264Y0147645I0000852J0000492D01*
G01*
X0381335Y0158079D01*
G75*
G02*
X0382679Y0157718I0000492J-000852D01*
G01*
X0394294Y0137602D01*
G75*
G02*
X0393933Y0136257I-000852J-000492D01*
G01*
G37*
G36*
G01*
X0402133Y0121898D02*
X0399746Y0120520D01*
G75*
G02*
X0398402Y0120880I-000492J0000852D01*
G01*
X0395055Y0126676D01*
G75*
G02*
X0395415Y0128021I0000852J0000492D01*
G01*
X0397802Y0129399D01*
G75*
G02*
X0399147Y0129039I0000492J-000852D01*
G01*
X0402493Y0123242D01*
G75*
G02*
X0402133Y0121898I-000852J-000492D01*
G01*
G37*
G36*
G01*
X0592111Y0233465D02*
X0592111Y0239764D01*
G75*
G02*
X0593095Y0240748I0000984J0000000D01*
G01*
X0599394Y0240748D01*
G75*
G02*
X0600378Y0239764I0000000J-000984D01*
G01*
X0600378Y0233465D01*
G75*
G02*
X0599394Y0232480I-000984J0000000D01*
G01*
X0593095Y0232480D01*
G75*
G02*
X0592111Y0233465I0000000J0000984D01*
G01*
G37*
G36*
G01*
X0569670Y0233465D02*
X0569670Y0239764D01*
G75*
G02*
X0570654Y0240748I0000984J0000000D01*
G01*
X0576953Y0240748D01*
G75*
G02*
X0577937Y0239764I0000000J-000984D01*
G01*
X0577937Y0233465D01*
G75*
G02*
X0576953Y0232480I-000984J0000000D01*
G01*
X0570654Y0232480D01*
G75*
G02*
X0569670Y0233465I0000000J0000984D01*
G01*
G37*
G36*
G01*
X0547229Y0233465D02*
X0547229Y0239764D01*
G75*
G02*
X0548213Y0240748I0000984J0000000D01*
G01*
X0554512Y0240748D01*
G75*
G02*
X0555496Y0239764I0000000J-000984D01*
G01*
X0555496Y0233465D01*
G75*
G02*
X0554512Y0232480I-000984J0000000D01*
G01*
X0548213Y0232480D01*
G75*
G02*
X0547229Y0233465I0000000J0000984D01*
G01*
G37*
G36*
G01*
X0524788Y0233465D02*
X0524788Y0239764D01*
G75*
G02*
X0525772Y0240748I0000984J0000000D01*
G01*
X0532071Y0240748D01*
G75*
G02*
X0533055Y0239764I0000000J-000984D01*
G01*
X0533055Y0233465D01*
G75*
G02*
X0532071Y0232480I-000984J0000000D01*
G01*
X0525772Y0232480D01*
G75*
G02*
X0524788Y0233465I0000000J0000984D01*
G01*
G37*
G36*
G01*
X0502347Y0233465D02*
X0502347Y0239764D01*
G75*
G02*
X0503331Y0240748I0000984J0000000D01*
G01*
X0509630Y0240748D01*
G75*
G02*
X0510614Y0239764I0000000J-000984D01*
G01*
X0510614Y0233465D01*
G75*
G02*
X0509630Y0232480I-000984J0000000D01*
G01*
X0503331Y0232480D01*
G75*
G02*
X0502347Y0233465I0000000J0000984D01*
G01*
G37*
G36*
G01*
X0479906Y0233465D02*
X0479906Y0239764D01*
G75*
G02*
X0480890Y0240748I0000984J0000000D01*
G01*
X0487189Y0240748D01*
G75*
G02*
X0488174Y0239764I0000000J-000984D01*
G01*
X0488174Y0233465D01*
G75*
G02*
X0487189Y0232480I-000984J0000000D01*
G01*
X0480890Y0232480D01*
G75*
G02*
X0479906Y0233465I0000000J0000984D01*
G01*
G37*
G36*
G01*
X0457465Y0233465D02*
X0457465Y0239764D01*
G75*
G02*
X0458449Y0240748I0000984J0000000D01*
G01*
X0464748Y0240748D01*
G75*
G02*
X0465733Y0239764I0000000J-000984D01*
G01*
X0465733Y0233465D01*
G75*
G02*
X0464748Y0232480I-000984J0000000D01*
G01*
X0458449Y0232480D01*
G75*
G02*
X0457465Y0233465I0000000J0000984D01*
G01*
G37*
G36*
G01*
X0435024Y0233465D02*
X0435024Y0239764D01*
G75*
G02*
X0436008Y0240748I0000984J0000000D01*
G01*
X0442307Y0240748D01*
G75*
G02*
X0443292Y0239764I0000000J-000984D01*
G01*
X0443292Y0233465D01*
G75*
G02*
X0442307Y0232480I-000984J0000000D01*
G01*
X0436008Y0232480D01*
G75*
G02*
X0435024Y0233465I0000000J0000984D01*
G01*
G37*
G36*
G01*
X0412583Y0233465D02*
X0412583Y0239764D01*
G75*
G02*
X0413567Y0240748I0000984J0000000D01*
G01*
X0419866Y0240748D01*
G75*
G02*
X0420851Y0239764I0000000J-000984D01*
G01*
X0420851Y0233465D01*
G75*
G02*
X0419866Y0232480I-000984J0000000D01*
G01*
X0413567Y0232480D01*
G75*
G02*
X0412583Y0233465I0000000J0000984D01*
G01*
G37*
G36*
G01*
X0390142Y0233465D02*
X0390142Y0239764D01*
G75*
G02*
X0391126Y0240748I0000984J0000000D01*
G01*
X0397426Y0240748D01*
G75*
G02*
X0398410Y0239764I0000000J-000984D01*
G01*
X0398410Y0233465D01*
G75*
G02*
X0397426Y0232480I-000984J0000000D01*
G01*
X0391126Y0232480D01*
G75*
G02*
X0390142Y0233465I0000000J0000984D01*
G01*
G37*
G36*
G01*
X0367701Y0233465D02*
X0367701Y0239764D01*
G75*
G02*
X0368685Y0240748I0000984J0000000D01*
G01*
X0374985Y0240748D01*
G75*
G02*
X0375969Y0239764I0000000J-000984D01*
G01*
X0375969Y0233465D01*
G75*
G02*
X0374985Y0232480I-000984J0000000D01*
G01*
X0368685Y0232480D01*
G75*
G02*
X0367701Y0233465I0000000J0000984D01*
G01*
G37*
G36*
G01*
X0592111Y0249606D02*
X0592111Y0255906D01*
G75*
G02*
X0593095Y0256890I0000984J0000000D01*
G01*
X0599394Y0256890D01*
G75*
G02*
X0600378Y0255906I0000000J-000984D01*
G01*
X0600378Y0249606D01*
G75*
G02*
X0599394Y0248622I-000984J0000000D01*
G01*
X0593095Y0248622D01*
G75*
G02*
X0592111Y0249606I0000000J0000984D01*
G01*
G37*
G36*
G01*
X0569670Y0249606D02*
X0569670Y0255906D01*
G75*
G02*
X0570654Y0256890I0000984J0000000D01*
G01*
X0576953Y0256890D01*
G75*
G02*
X0577937Y0255906I0000000J-000984D01*
G01*
X0577937Y0249606D01*
G75*
G02*
X0576953Y0248622I-000984J0000000D01*
G01*
X0570654Y0248622D01*
G75*
G02*
X0569670Y0249606I0000000J0000984D01*
G01*
G37*
G36*
G01*
X0547229Y0249606D02*
X0547229Y0255906D01*
G75*
G02*
X0548213Y0256890I0000984J0000000D01*
G01*
X0554512Y0256890D01*
G75*
G02*
X0555496Y0255906I0000000J-000984D01*
G01*
X0555496Y0249606D01*
G75*
G02*
X0554512Y0248622I-000984J0000000D01*
G01*
X0548213Y0248622D01*
G75*
G02*
X0547229Y0249606I0000000J0000984D01*
G01*
G37*
G36*
G01*
X0524788Y0249606D02*
X0524788Y0255906D01*
G75*
G02*
X0525772Y0256890I0000984J0000000D01*
G01*
X0532071Y0256890D01*
G75*
G02*
X0533055Y0255906I0000000J-000984D01*
G01*
X0533055Y0249606D01*
G75*
G02*
X0532071Y0248622I-000984J0000000D01*
G01*
X0525772Y0248622D01*
G75*
G02*
X0524788Y0249606I0000000J0000984D01*
G01*
G37*
G36*
G01*
X0502347Y0249606D02*
X0502347Y0255906D01*
G75*
G02*
X0503331Y0256890I0000984J0000000D01*
G01*
X0509630Y0256890D01*
G75*
G02*
X0510614Y0255906I0000000J-000984D01*
G01*
X0510614Y0249606D01*
G75*
G02*
X0509630Y0248622I-000984J0000000D01*
G01*
X0503331Y0248622D01*
G75*
G02*
X0502347Y0249606I0000000J0000984D01*
G01*
G37*
G36*
G01*
X0479906Y0249606D02*
X0479906Y0255906D01*
G75*
G02*
X0480890Y0256890I0000984J0000000D01*
G01*
X0487189Y0256890D01*
G75*
G02*
X0488174Y0255906I0000000J-000984D01*
G01*
X0488174Y0249606D01*
G75*
G02*
X0487189Y0248622I-000984J0000000D01*
G01*
X0480890Y0248622D01*
G75*
G02*
X0479906Y0249606I0000000J0000984D01*
G01*
G37*
G36*
G01*
X0457465Y0249606D02*
X0457465Y0255906D01*
G75*
G02*
X0458449Y0256890I0000984J0000000D01*
G01*
X0464748Y0256890D01*
G75*
G02*
X0465733Y0255906I0000000J-000984D01*
G01*
X0465733Y0249606D01*
G75*
G02*
X0464748Y0248622I-000984J0000000D01*
G01*
X0458449Y0248622D01*
G75*
G02*
X0457465Y0249606I0000000J0000984D01*
G01*
G37*
G36*
G01*
X0435024Y0249606D02*
X0435024Y0255906D01*
G75*
G02*
X0436008Y0256890I0000984J0000000D01*
G01*
X0442307Y0256890D01*
G75*
G02*
X0443292Y0255906I0000000J-000984D01*
G01*
X0443292Y0249606D01*
G75*
G02*
X0442307Y0248622I-000984J0000000D01*
G01*
X0436008Y0248622D01*
G75*
G02*
X0435024Y0249606I0000000J0000984D01*
G01*
G37*
G36*
G01*
X0412583Y0249606D02*
X0412583Y0255906D01*
G75*
G02*
X0413567Y0256890I0000984J0000000D01*
G01*
X0419866Y0256890D01*
G75*
G02*
X0420851Y0255906I0000000J-000984D01*
G01*
X0420851Y0249606D01*
G75*
G02*
X0419866Y0248622I-000984J0000000D01*
G01*
X0413567Y0248622D01*
G75*
G02*
X0412583Y0249606I0000000J0000984D01*
G01*
G37*
G36*
G01*
X0390142Y0249606D02*
X0390142Y0255906D01*
G75*
G02*
X0391126Y0256890I0000984J0000000D01*
G01*
X0397426Y0256890D01*
G75*
G02*
X0398410Y0255906I0000000J-000984D01*
G01*
X0398410Y0249606D01*
G75*
G02*
X0397426Y0248622I-000984J0000000D01*
G01*
X0391126Y0248622D01*
G75*
G02*
X0390142Y0249606I0000000J0000984D01*
G01*
G37*
G36*
G01*
X0367701Y0249606D02*
X0367701Y0255906D01*
G75*
G02*
X0368685Y0256890I0000984J0000000D01*
G01*
X0374985Y0256890D01*
G75*
G02*
X0375969Y0255906I0000000J-000984D01*
G01*
X0375969Y0249606D01*
G75*
G02*
X0374985Y0248622I-000984J0000000D01*
G01*
X0368685Y0248622D01*
G75*
G02*
X0367701Y0249606I0000000J0000984D01*
G01*
G37*
G36*
G01*
X0253528Y0233661D02*
X0253528Y0239961D01*
G75*
G02*
X0254512Y0240945I0000984J0000000D01*
G01*
X0260811Y0240945D01*
G75*
G02*
X0261796Y0239961I0000000J-000984D01*
G01*
X0261796Y0233661D01*
G75*
G02*
X0260811Y0232677I-000984J0000000D01*
G01*
X0254512Y0232677D01*
G75*
G02*
X0253528Y0233661I0000000J0000984D01*
G01*
G37*
G36*
G01*
X0231087Y0233661D02*
X0231087Y0239961D01*
G75*
G02*
X0232071Y0240945I0000984J0000000D01*
G01*
X0238370Y0240945D01*
G75*
G02*
X0239355Y0239961I0000000J-000984D01*
G01*
X0239355Y0233661D01*
G75*
G02*
X0238370Y0232677I-000984J0000000D01*
G01*
X0232071Y0232677D01*
G75*
G02*
X0231087Y0233661I0000000J0000984D01*
G01*
G37*
G36*
G01*
X0208646Y0233661D02*
X0208646Y0239961D01*
G75*
G02*
X0209630Y0240945I0000984J0000000D01*
G01*
X0215929Y0240945D01*
G75*
G02*
X0216914Y0239961I0000000J-000984D01*
G01*
X0216914Y0233661D01*
G75*
G02*
X0215929Y0232677I-000984J0000000D01*
G01*
X0209630Y0232677D01*
G75*
G02*
X0208646Y0233661I0000000J0000984D01*
G01*
G37*
G36*
G01*
X0186205Y0233661D02*
X0186205Y0239961D01*
G75*
G02*
X0187189Y0240945I0000984J0000000D01*
G01*
X0193489Y0240945D01*
G75*
G02*
X0194473Y0239961I0000000J-000984D01*
G01*
X0194473Y0233661D01*
G75*
G02*
X0193489Y0232677I-000984J0000000D01*
G01*
X0187189Y0232677D01*
G75*
G02*
X0186205Y0233661I0000000J0000984D01*
G01*
G37*
G36*
G01*
X0163764Y0233661D02*
X0163764Y0239961D01*
G75*
G02*
X0164748Y0240945I0000984J0000000D01*
G01*
X0171048Y0240945D01*
G75*
G02*
X0172032Y0239961I0000000J-000984D01*
G01*
X0172032Y0233661D01*
G75*
G02*
X0171048Y0232677I-000984J0000000D01*
G01*
X0164748Y0232677D01*
G75*
G02*
X0163764Y0233661I0000000J0000984D01*
G01*
G37*
G36*
G01*
X0141323Y0233661D02*
X0141323Y0239961D01*
G75*
G02*
X0142307Y0240945I0000984J0000000D01*
G01*
X0148607Y0240945D01*
G75*
G02*
X0149591Y0239961I0000000J-000984D01*
G01*
X0149591Y0233661D01*
G75*
G02*
X0148607Y0232677I-000984J0000000D01*
G01*
X0142307Y0232677D01*
G75*
G02*
X0141323Y0233661I0000000J0000984D01*
G01*
G37*
G36*
G01*
X0118882Y0233661D02*
X0118882Y0239961D01*
G75*
G02*
X0119866Y0240945I0000984J0000000D01*
G01*
X0126166Y0240945D01*
G75*
G02*
X0127150Y0239961I0000000J-000984D01*
G01*
X0127150Y0233661D01*
G75*
G02*
X0126166Y0232677I-000984J0000000D01*
G01*
X0119866Y0232677D01*
G75*
G02*
X0118882Y0233661I0000000J0000984D01*
G01*
G37*
G36*
G01*
X0096441Y0233661D02*
X0096441Y0239961D01*
G75*
G02*
X0097426Y0240945I0000984J0000000D01*
G01*
X0103725Y0240945D01*
G75*
G02*
X0104709Y0239961I0000000J-000984D01*
G01*
X0104709Y0233661D01*
G75*
G02*
X0103725Y0232677I-000984J0000000D01*
G01*
X0097426Y0232677D01*
G75*
G02*
X0096441Y0233661I0000000J0000984D01*
G01*
G37*
G36*
G01*
X0074000Y0233661D02*
X0074000Y0239961D01*
G75*
G02*
X0074985Y0240945I0000984J0000000D01*
G01*
X0081284Y0240945D01*
G75*
G02*
X0082268Y0239961I0000000J-000984D01*
G01*
X0082268Y0233661D01*
G75*
G02*
X0081284Y0232677I-000984J0000000D01*
G01*
X0074985Y0232677D01*
G75*
G02*
X0074000Y0233661I0000000J0000984D01*
G01*
G37*
G36*
G01*
X0051559Y0233661D02*
X0051559Y0239961D01*
G75*
G02*
X0052544Y0240945I0000984J0000000D01*
G01*
X0058843Y0240945D01*
G75*
G02*
X0059827Y0239961I0000000J-000984D01*
G01*
X0059827Y0233661D01*
G75*
G02*
X0058843Y0232677I-000984J0000000D01*
G01*
X0052544Y0232677D01*
G75*
G02*
X0051559Y0233661I0000000J0000984D01*
G01*
G37*
G36*
G01*
X0029118Y0233661D02*
X0029118Y0239961D01*
G75*
G02*
X0030103Y0240945I0000984J0000000D01*
G01*
X0036402Y0240945D01*
G75*
G02*
X0037386Y0239961I0000000J-000984D01*
G01*
X0037386Y0233661D01*
G75*
G02*
X0036402Y0232677I-000984J0000000D01*
G01*
X0030103Y0232677D01*
G75*
G02*
X0029118Y0233661I0000000J0000984D01*
G01*
G37*
G36*
G01*
X0253528Y0249803D02*
X0253528Y0256102D01*
G75*
G02*
X0254512Y0257087I0000984J0000000D01*
G01*
X0260811Y0257087D01*
G75*
G02*
X0261796Y0256102I0000000J-000984D01*
G01*
X0261796Y0249803D01*
G75*
G02*
X0260811Y0248819I-000984J0000000D01*
G01*
X0254512Y0248819D01*
G75*
G02*
X0253528Y0249803I0000000J0000984D01*
G01*
G37*
G36*
G01*
X0231087Y0249803D02*
X0231087Y0256102D01*
G75*
G02*
X0232071Y0257087I0000984J0000000D01*
G01*
X0238370Y0257087D01*
G75*
G02*
X0239355Y0256102I0000000J-000984D01*
G01*
X0239355Y0249803D01*
G75*
G02*
X0238370Y0248819I-000984J0000000D01*
G01*
X0232071Y0248819D01*
G75*
G02*
X0231087Y0249803I0000000J0000984D01*
G01*
G37*
G36*
G01*
X0208646Y0249803D02*
X0208646Y0256102D01*
G75*
G02*
X0209630Y0257087I0000984J0000000D01*
G01*
X0215929Y0257087D01*
G75*
G02*
X0216914Y0256102I0000000J-000984D01*
G01*
X0216914Y0249803D01*
G75*
G02*
X0215929Y0248819I-000984J0000000D01*
G01*
X0209630Y0248819D01*
G75*
G02*
X0208646Y0249803I0000000J0000984D01*
G01*
G37*
G36*
G01*
X0186205Y0249803D02*
X0186205Y0256102D01*
G75*
G02*
X0187189Y0257087I0000984J0000000D01*
G01*
X0193489Y0257087D01*
G75*
G02*
X0194473Y0256102I0000000J-000984D01*
G01*
X0194473Y0249803D01*
G75*
G02*
X0193489Y0248819I-000984J0000000D01*
G01*
X0187189Y0248819D01*
G75*
G02*
X0186205Y0249803I0000000J0000984D01*
G01*
G37*
G36*
G01*
X0163764Y0249803D02*
X0163764Y0256102D01*
G75*
G02*
X0164748Y0257087I0000984J0000000D01*
G01*
X0171048Y0257087D01*
G75*
G02*
X0172032Y0256102I0000000J-000984D01*
G01*
X0172032Y0249803D01*
G75*
G02*
X0171048Y0248819I-000984J0000000D01*
G01*
X0164748Y0248819D01*
G75*
G02*
X0163764Y0249803I0000000J0000984D01*
G01*
G37*
G36*
G01*
X0141323Y0249803D02*
X0141323Y0256102D01*
G75*
G02*
X0142307Y0257087I0000984J0000000D01*
G01*
X0148607Y0257087D01*
G75*
G02*
X0149591Y0256102I0000000J-000984D01*
G01*
X0149591Y0249803D01*
G75*
G02*
X0148607Y0248819I-000984J0000000D01*
G01*
X0142307Y0248819D01*
G75*
G02*
X0141323Y0249803I0000000J0000984D01*
G01*
G37*
G36*
G01*
X0118882Y0249803D02*
X0118882Y0256102D01*
G75*
G02*
X0119866Y0257087I0000984J0000000D01*
G01*
X0126166Y0257087D01*
G75*
G02*
X0127150Y0256102I0000000J-000984D01*
G01*
X0127150Y0249803D01*
G75*
G02*
X0126166Y0248819I-000984J0000000D01*
G01*
X0119866Y0248819D01*
G75*
G02*
X0118882Y0249803I0000000J0000984D01*
G01*
G37*
G36*
G01*
X0096441Y0249803D02*
X0096441Y0256102D01*
G75*
G02*
X0097426Y0257087I0000984J0000000D01*
G01*
X0103725Y0257087D01*
G75*
G02*
X0104709Y0256102I0000000J-000984D01*
G01*
X0104709Y0249803D01*
G75*
G02*
X0103725Y0248819I-000984J0000000D01*
G01*
X0097426Y0248819D01*
G75*
G02*
X0096441Y0249803I0000000J0000984D01*
G01*
G37*
G36*
G01*
X0074000Y0249803D02*
X0074000Y0256102D01*
G75*
G02*
X0074985Y0257087I0000984J0000000D01*
G01*
X0081284Y0257087D01*
G75*
G02*
X0082268Y0256102I0000000J-000984D01*
G01*
X0082268Y0249803D01*
G75*
G02*
X0081284Y0248819I-000984J0000000D01*
G01*
X0074985Y0248819D01*
G75*
G02*
X0074000Y0249803I0000000J0000984D01*
G01*
G37*
G36*
G01*
X0051559Y0249803D02*
X0051559Y0256102D01*
G75*
G02*
X0052544Y0257087I0000984J0000000D01*
G01*
X0058843Y0257087D01*
G75*
G02*
X0059827Y0256102I0000000J-000984D01*
G01*
X0059827Y0249803D01*
G75*
G02*
X0058843Y0248819I-000984J0000000D01*
G01*
X0052544Y0248819D01*
G75*
G02*
X0051559Y0249803I0000000J0000984D01*
G01*
G37*
G36*
G01*
X0029118Y0249803D02*
X0029118Y0256102D01*
G75*
G02*
X0030103Y0257087I0000984J0000000D01*
G01*
X0036402Y0257087D01*
G75*
G02*
X0037386Y0256102I0000000J-000984D01*
G01*
X0037386Y0249803D01*
G75*
G02*
X0036402Y0248819I-000984J0000000D01*
G01*
X0030103Y0248819D01*
G75*
G02*
X0029118Y0249803I0000000J0000984D01*
G01*
G37*
D16*
X0336237Y0263878D03*
X0336237Y0259154D03*
X0336237Y0268602D03*
X0336237Y0273327D03*
X0279445Y0247894D03*
X0279445Y0243957D03*
G36*
G01*
X0509044Y0188650D02*
X0509044Y0185579D01*
G75*
G02*
X0508768Y0185303I-000276J0000000D01*
G01*
X0506563Y0185303D01*
G75*
G02*
X0506288Y0185579I0000000J0000276D01*
G01*
X0506288Y0188650D01*
G75*
G02*
X0506563Y0188925I0000276J0000000D01*
G01*
X0508768Y0188925D01*
G75*
G02*
X0509044Y0188650I0000000J-000276D01*
G01*
G37*
G36*
G01*
X0502744Y0188650D02*
X0502744Y0185579D01*
G75*
G02*
X0502469Y0185303I-000276J0000000D01*
G01*
X0500264Y0185303D01*
G75*
G02*
X0499989Y0185579I0000000J0000276D01*
G01*
X0499989Y0188650D01*
G75*
G02*
X0500264Y0188925I0000276J0000000D01*
G01*
X0502469Y0188925D01*
G75*
G02*
X0502744Y0188650I0000000J-000276D01*
G01*
G37*
G36*
G01*
X0607532Y0124122D02*
X0607532Y0121051D01*
G75*
G02*
X0607256Y0120776I-000276J0000000D01*
G01*
X0605052Y0120776D01*
G75*
G02*
X0604776Y0121051I0000000J0000276D01*
G01*
X0604776Y0124122D01*
G75*
G02*
X0605052Y0124398I0000276J0000000D01*
G01*
X0607256Y0124398D01*
G75*
G02*
X0607532Y0124122I0000000J-000276D01*
G01*
G37*
G36*
G01*
X0601233Y0124122D02*
X0601233Y0121051D01*
G75*
G02*
X0600957Y0120776I-000276J0000000D01*
G01*
X0598752Y0120776D01*
G75*
G02*
X0598477Y0121051I0000000J0000276D01*
G01*
X0598477Y0124122D01*
G75*
G02*
X0598752Y0124398I0000276J0000000D01*
G01*
X0600957Y0124398D01*
G75*
G02*
X0601233Y0124122I0000000J-000276D01*
G01*
G37*
D13*
X0523563Y0018189D03*
D14*
X0555083Y0052835D03*
D15*
X0555083Y0062835D03*
G36*
G01*
X0462662Y0272512D02*
X0462662Y0271331D01*
G75*
G02*
X0462071Y0270740I-000591J0000000D01*
G01*
X0457445Y0270740D01*
G75*
G02*
X0456855Y0271331I0000000J0000591D01*
G01*
X0456855Y0272512D01*
G75*
G02*
X0457445Y0273102I0000591J0000000D01*
G01*
X0462071Y0273102D01*
G75*
G02*
X0462662Y0272512I0000000J-000591D01*
G01*
G37*
G36*
G01*
X0455280Y0276252D02*
X0455280Y0275071D01*
G75*
G02*
X0454689Y0274480I-000591J0000000D01*
G01*
X0450063Y0274480D01*
G75*
G02*
X0449473Y0275071I0000000J0000591D01*
G01*
X0449473Y0276252D01*
G75*
G02*
X0450063Y0276843I0000591J0000000D01*
G01*
X0454689Y0276843D01*
G75*
G02*
X0455280Y0276252I0000000J-000591D01*
G01*
G37*
G36*
G01*
X0462662Y0279992D02*
X0462662Y0278811D01*
G75*
G02*
X0462071Y0278221I-000591J0000000D01*
G01*
X0457445Y0278221D01*
G75*
G02*
X0456855Y0278811I0000000J0000591D01*
G01*
X0456855Y0279992D01*
G75*
G02*
X0457445Y0280583I0000591J0000000D01*
G01*
X0462071Y0280583D01*
G75*
G02*
X0462662Y0279992I0000000J-000591D01*
G01*
G37*
D11*
X0572855Y0181354D03*
X0572855Y0172299D03*
X0572855Y0163244D03*
D12*
X0597658Y0172299D03*
D48*
X0467611Y0022032D03*
D49*
X0470760Y0028921D03*
X0473910Y0022032D03*
X0477059Y0028921D03*
X0480209Y0022032D03*
D50*
X0459540Y0025476D03*
X0488280Y0025476D03*
G36*
G01*
X0545004Y0269165D02*
X0541933Y0269165D01*
G75*
G02*
X0541658Y0269441I0000000J0000276D01*
G01*
X0541658Y0271646D01*
G75*
G02*
X0541933Y0271921I0000276J0000000D01*
G01*
X0545004Y0271921D01*
G75*
G02*
X0545280Y0271646I0000000J-000276D01*
G01*
X0545280Y0269441D01*
G75*
G02*
X0545004Y0269165I-000276J0000000D01*
G01*
G37*
G36*
G01*
X0545004Y0275465D02*
X0541933Y0275465D01*
G75*
G02*
X0541658Y0275740I0000000J0000276D01*
G01*
X0541658Y0277945D01*
G75*
G02*
X0541933Y0278221I0000276J0000000D01*
G01*
X0545004Y0278221D01*
G75*
G02*
X0545280Y0277945I0000000J-000276D01*
G01*
X0545280Y0275740D01*
G75*
G02*
X0545004Y0275465I-000276J0000000D01*
G01*
G37*
G36*
G01*
X0451521Y0159657D02*
X0454180Y0161193D01*
G75*
G02*
X0454557Y0161092I0000138J-000239D01*
G01*
X0455659Y0159182D01*
G75*
G02*
X0455558Y0158806I-000239J-000138D01*
G01*
X0452899Y0157271D01*
G75*
G02*
X0452522Y0157371I-000138J0000239D01*
G01*
X0451420Y0159281D01*
G75*
G02*
X0451521Y0159657I0000239J0000138D01*
G01*
G37*
G36*
G01*
X0454671Y0154202D02*
X0457330Y0155737D01*
G75*
G02*
X0457707Y0155637I0000138J-000239D01*
G01*
X0458809Y0153727D01*
G75*
G02*
X0458708Y0153351I-000239J-000138D01*
G01*
X0456049Y0151815D01*
G75*
G02*
X0455672Y0151916I-000138J0000239D01*
G01*
X0454570Y0153826D01*
G75*
G02*
X0454671Y0154202I0000239J0000138D01*
G01*
G37*
G36*
G01*
X0397330Y0158407D02*
X0394671Y0156871D01*
G75*
G02*
X0394294Y0156972I-000138J0000239D01*
G01*
X0393192Y0158881D01*
G75*
G02*
X0393293Y0159258I0000239J0000138D01*
G01*
X0395952Y0160793D01*
G75*
G02*
X0396329Y0160692I0000138J-000239D01*
G01*
X0397431Y0158783D01*
G75*
G02*
X0397330Y0158407I-000239J-000138D01*
G01*
G37*
G36*
G01*
X0394180Y0163862D02*
X0391521Y0162326D01*
G75*
G02*
X0391145Y0162427I-000138J0000239D01*
G01*
X0390042Y0164337D01*
G75*
G02*
X0390143Y0164713I0000239J0000138D01*
G01*
X0392802Y0166249D01*
G75*
G02*
X0393179Y0166148I0000138J-000239D01*
G01*
X0394281Y0164238D01*
G75*
G02*
X0394180Y0163862I-000239J-000138D01*
G01*
G37*
D11*
X0589599Y0149807D03*
X0589599Y0140752D03*
X0589599Y0131697D03*
D12*
X0614402Y0140752D03*
G36*
G01*
X0485250Y0272315D02*
X0485250Y0271134D01*
G75*
G02*
X0484660Y0270543I-000591J0000000D01*
G01*
X0480034Y0270543D01*
G75*
G02*
X0479443Y0271134I0000000J0000591D01*
G01*
X0479443Y0272315D01*
G75*
G02*
X0480034Y0272906I0000591J0000000D01*
G01*
X0484660Y0272906D01*
G75*
G02*
X0485250Y0272315I0000000J-000591D01*
G01*
G37*
G36*
G01*
X0477868Y0276055D02*
X0477868Y0274874D01*
G75*
G02*
X0477278Y0274284I-000591J0000000D01*
G01*
X0472652Y0274284D01*
G75*
G02*
X0472061Y0274874I0000000J0000591D01*
G01*
X0472061Y0276055D01*
G75*
G02*
X0472652Y0276646I0000591J0000000D01*
G01*
X0477278Y0276646D01*
G75*
G02*
X0477868Y0276055I0000000J-000591D01*
G01*
G37*
G36*
G01*
X0485250Y0279795D02*
X0485250Y0278614D01*
G75*
G02*
X0484660Y0278024I-000591J0000000D01*
G01*
X0480034Y0278024D01*
G75*
G02*
X0479443Y0278614I0000000J0000591D01*
G01*
X0479443Y0279795D01*
G75*
G02*
X0480034Y0280386I0000591J0000000D01*
G01*
X0484660Y0280386D01*
G75*
G02*
X0485250Y0279795I0000000J-000591D01*
G01*
G37*
G36*
G01*
X0520366Y0272437D02*
X0520366Y0271256D01*
G75*
G02*
X0519776Y0270665I-000591J0000000D01*
G01*
X0515150Y0270665D01*
G75*
G02*
X0514559Y0271256I0000000J0000591D01*
G01*
X0514559Y0272437D01*
G75*
G02*
X0515150Y0273028I0000591J0000000D01*
G01*
X0519776Y0273028D01*
G75*
G02*
X0520366Y0272437I0000000J-000591D01*
G01*
G37*
G36*
G01*
X0512985Y0276177D02*
X0512985Y0274996D01*
G75*
G02*
X0512394Y0274406I-000591J0000000D01*
G01*
X0507768Y0274406D01*
G75*
G02*
X0507177Y0274996I0000000J0000591D01*
G01*
X0507177Y0276177D01*
G75*
G02*
X0507768Y0276768I0000591J0000000D01*
G01*
X0512394Y0276768D01*
G75*
G02*
X0512985Y0276177I0000000J-000591D01*
G01*
G37*
G36*
G01*
X0520366Y0279917D02*
X0520366Y0278736D01*
G75*
G02*
X0519776Y0278146I-000591J0000000D01*
G01*
X0515150Y0278146D01*
G75*
G02*
X0514559Y0278736I0000000J0000591D01*
G01*
X0514559Y0279917D01*
G75*
G02*
X0515150Y0280508I0000591J0000000D01*
G01*
X0519776Y0280508D01*
G75*
G02*
X0520366Y0279917I0000000J-000591D01*
G01*
G37*
G36*
G01*
X0539237Y0270543D02*
X0539237Y0269362D01*
G75*
G02*
X0538646Y0268772I-000591J0000000D01*
G01*
X0534020Y0268772D01*
G75*
G02*
X0533429Y0269362I0000000J0000591D01*
G01*
X0533429Y0270543D01*
G75*
G02*
X0534020Y0271134I0000591J0000000D01*
G01*
X0538646Y0271134D01*
G75*
G02*
X0539237Y0270543I0000000J-000591D01*
G01*
G37*
G36*
G01*
X0531855Y0274284D02*
X0531855Y0273102D01*
G75*
G02*
X0531264Y0272512I-000591J0000000D01*
G01*
X0526638Y0272512D01*
G75*
G02*
X0526048Y0273102I0000000J0000591D01*
G01*
X0526048Y0274284D01*
G75*
G02*
X0526638Y0274874I0000591J0000000D01*
G01*
X0531264Y0274874D01*
G75*
G02*
X0531855Y0274284I0000000J-000591D01*
G01*
G37*
G36*
G01*
X0539237Y0278024D02*
X0539237Y0276843D01*
G75*
G02*
X0538646Y0276252I-000591J0000000D01*
G01*
X0534020Y0276252D01*
G75*
G02*
X0533429Y0276843I0000000J0000591D01*
G01*
X0533429Y0278024D01*
G75*
G02*
X0534020Y0278614I0000591J0000000D01*
G01*
X0538646Y0278614D01*
G75*
G02*
X0539237Y0278024I0000000J-000591D01*
G01*
G37*
D51*
X0100546Y0222651D03*
G36*
G01*
X0101785Y0216401D02*
X0099864Y0218322D01*
G75*
G02*
X0099864Y0219603I0000640J0000640D01*
G01*
X0103594Y0223333D01*
G75*
G02*
X0104875Y0223333I0000640J-000640D01*
G01*
X0106796Y0221412D01*
G75*
G02*
X0106796Y0220132I-000640J-000640D01*
G01*
X0103065Y0216401D01*
G75*
G02*
X0101785Y0216401I-000640J0000640D01*
G01*
G37*
G36*
G01*
X0109858Y0208328D02*
X0107937Y0210249D01*
G75*
G02*
X0107937Y0211530I0000640J0000640D01*
G01*
X0111668Y0215260D01*
G75*
G02*
X0112948Y0215260I0000640J-000640D01*
G01*
X0114869Y0213339D01*
G75*
G02*
X0114869Y0212059I-000640J-000640D01*
G01*
X0111139Y0208328D01*
G75*
G02*
X0109858Y0208328I-000640J0000640D01*
G01*
G37*
X0114187Y0209010D03*
D64*
X0566654Y0084347D03*
X0566654Y0078441D03*
X0566654Y0072535D03*
X0566654Y0066630D03*
X0566654Y0060724D03*
X0566654Y0054819D03*
X0566654Y0048913D03*
X0566654Y0043008D03*
X0566654Y0037102D03*
X0566654Y0031197D03*
X0566654Y0025291D03*
X0566654Y0019386D03*
X0566654Y0013480D03*
X0616654Y0013480D03*
X0616654Y0019386D03*
X0616654Y0025291D03*
X0616654Y0031197D03*
X0616654Y0037102D03*
X0616654Y0043008D03*
X0616654Y0048913D03*
X0616654Y0054819D03*
X0616654Y0060724D03*
X0616654Y0066630D03*
X0616654Y0072535D03*
X0616654Y0078441D03*
X0616654Y0084347D03*
G36*
G01*
X0474733Y0110933D02*
X0474733Y0114004D01*
G75*
G02*
X0475008Y0114280I0000276J0000000D01*
G01*
X0477213Y0114280D01*
G75*
G02*
X0477489Y0114004I0000000J-000276D01*
G01*
X0477489Y0110933D01*
G75*
G02*
X0477213Y0110658I-000276J0000000D01*
G01*
X0475008Y0110658D01*
G75*
G02*
X0474733Y0110933I0000000J0000276D01*
G01*
G37*
G36*
G01*
X0481032Y0110933D02*
X0481032Y0114004D01*
G75*
G02*
X0481307Y0114280I0000276J0000000D01*
G01*
X0483512Y0114280D01*
G75*
G02*
X0483788Y0114004I0000000J-000276D01*
G01*
X0483788Y0110933D01*
G75*
G02*
X0483512Y0110658I-000276J0000000D01*
G01*
X0481307Y0110658D01*
G75*
G02*
X0481032Y0110933I0000000J0000276D01*
G01*
G37*
D51*
X0101357Y0206797D03*
G36*
G01*
X0102596Y0200547D02*
X0100675Y0202468D01*
G75*
G02*
X0100675Y0203749I0000640J0000640D01*
G01*
X0104405Y0207479D01*
G75*
G02*
X0105686Y0207479I0000640J-000640D01*
G01*
X0107607Y0205558D01*
G75*
G02*
X0107607Y0204278I-000640J-000640D01*
G01*
X0103876Y0200547D01*
G75*
G02*
X0102596Y0200547I-000640J0000640D01*
G01*
G37*
G36*
G01*
X0110669Y0192474D02*
X0108748Y0194395D01*
G75*
G02*
X0108748Y0195675I0000640J0000640D01*
G01*
X0112479Y0199406D01*
G75*
G02*
X0113759Y0199406I0000640J-000640D01*
G01*
X0115680Y0197485D01*
G75*
G02*
X0115680Y0196204I-000640J-000640D01*
G01*
X0111950Y0192474D01*
G75*
G02*
X0110669Y0192474I-000640J0000640D01*
G01*
G37*
X0114998Y0193156D03*
G36*
G01*
X0122650Y0214071D02*
X0119579Y0214071D01*
G75*
G02*
X0119303Y0214347I0000000J0000276D01*
G01*
X0119303Y0216551D01*
G75*
G02*
X0119579Y0216827I0000276J0000000D01*
G01*
X0122650Y0216827D01*
G75*
G02*
X0122926Y0216551I0000000J-000276D01*
G01*
X0122926Y0214347D01*
G75*
G02*
X0122650Y0214071I-000276J0000000D01*
G01*
G37*
G36*
G01*
X0122650Y0220370D02*
X0119579Y0220370D01*
G75*
G02*
X0119303Y0220646I0000000J0000276D01*
G01*
X0119303Y0222850D01*
G75*
G02*
X0119579Y0223126I0000276J0000000D01*
G01*
X0122650Y0223126D01*
G75*
G02*
X0122926Y0222850I0000000J-000276D01*
G01*
X0122926Y0220646D01*
G75*
G02*
X0122650Y0220370I-000276J0000000D01*
G01*
G37*
D11*
X0571800Y0221280D03*
X0571800Y0212224D03*
X0571800Y0203169D03*
D12*
X0596603Y0212224D03*
X0150941Y0118728D02*
G01*
G75*
D304*
X0105862Y0094361D02*
D03*
X0105862Y0112078D02*
D03*
D305*
X0109189Y0069909D02*
D03*
X0136551Y0069909D02*
D03*
D306*
X0120429Y0093137D02*
D03*
X0136571Y0093137D02*
D03*
D307*
X0118658Y0111248D02*
D03*
X0134406Y0111248D02*
D03*
D308*
X0141597Y0049470D02*
D03*
X0132345Y0053210D02*
D03*
D308*
X0132345Y0045730D02*
D03*
D309*
X0109510Y0039791D02*
D03*
D309*
X0109510Y0043531D02*
D03*
X0109510Y0047271D02*
D03*
X0101046Y0047271D02*
D03*
X0101046Y0039791D02*
D03*
D310*
X0097194Y0053792D02*
D03*
X0110186Y0053792D02*
D03*
D311*
X0115480Y0053504D02*
D03*
X0126898Y0053504D02*
D03*
D312*
X0096295Y0086051D02*
D03*
X0102516Y0086051D02*
D03*
X0106886Y0086051D02*
D03*
X0113106Y0086051D02*
D03*
D313*
X0146972Y0108940D02*
D03*
X0146972Y0104806D02*
D03*
X0096417Y0067066D02*
D03*
X0096417Y0062932D02*
D03*
X0096417Y0071779D02*
D03*
X0096417Y0075913D02*
D03*
X0095525Y0091428D02*
D03*
X0095525Y0095562D02*
D03*
D314*
X0114628Y0047221D02*
D03*
X0114628Y0043284D02*
D03*
X0128303Y0046319D02*
D03*
X0119642Y0046319D02*
D03*
X0128303Y0039922D02*
D03*
X0119642Y0039922D02*
D03*
D315*
X0136676Y0039791D02*
D03*
X0133132Y0039791D02*
D03*
D316*
X0100675Y0063129D02*
D03*
X0100675Y0066673D02*
D03*
X0100675Y0072173D02*
D03*
X0100675Y0075716D02*
D03*
X0095525Y0103729D02*
D03*
X0095525Y0100185D02*
D03*
D130*
X0085193Y0100618D02*
D03*
X0085193Y0104555D02*
D03*
D131*
X0147988Y0047075D02*
D03*
X0147988Y0114004D02*
D03*
X0147988Y0066563D02*
D03*
X0086965Y0066760D02*
D03*
X0086965Y0041563D02*
D03*
X0086965Y0091169D02*
D03*
X0086965Y0074240D02*
D03*
X0086965Y0115775D02*
D03*
X0147988Y0039791D02*
D03*
X0016606Y0226996D02*
%LPD*%
G01*
G36*
G01*
X0032433Y0172902D02*
X0031094Y0172902D01*
G75*
G02*
X0030543Y0173453I0000000J0000551D01*
G01*
X0030543Y0174555D01*
G75*
G02*
X0031094Y0175106I0000551J0000000D01*
G01*
X0032433Y0175106D01*
G75*
G02*
X0032984Y0174555I0000000J-000551D01*
G01*
X0032984Y0173453D01*
G75*
G02*
X0032433Y0172902I-000551J0000000D01*
G01*
G37*
G36*
G01*
X0032433Y0169122D02*
X0031094Y0169122D01*
G75*
G02*
X0030543Y0169673I0000000J0000551D01*
G01*
X0030543Y0170776D01*
G75*
G02*
X0031094Y0171327I0000551J0000000D01*
G01*
X0032433Y0171327D01*
G75*
G02*
X0032984Y0170776I0000000J-000551D01*
G01*
X0032984Y0169673D01*
G75*
G02*
X0032433Y0169122I-000551J0000000D01*
G01*
G37*
G36*
G01*
X0047197Y0199398D02*
X0047197Y0200736D01*
G75*
G02*
X0047748Y0201287I0000551J0000000D01*
G01*
X0048850Y0201287D01*
G75*
G02*
X0049401Y0200736I0000000J-000551D01*
G01*
X0049401Y0199398D01*
G75*
G02*
X0048850Y0198846I-000551J0000000D01*
G01*
X0047748Y0198846D01*
G75*
G02*
X0047197Y0199398I0000000J0000551D01*
G01*
G37*
G36*
G01*
X0043417Y0199398D02*
X0043417Y0200736D01*
G75*
G02*
X0043968Y0201287I0000551J0000000D01*
G01*
X0045071Y0201287D01*
G75*
G02*
X0045622Y0200736I0000000J-000551D01*
G01*
X0045622Y0199398D01*
G75*
G02*
X0045071Y0198846I-000551J0000000D01*
G01*
X0043968Y0198846D01*
G75*
G02*
X0043417Y0199398I0000000J0000551D01*
G01*
G37*
G36*
G01*
X0018535Y0186307D02*
X0018535Y0187764D01*
G75*
G02*
X0019067Y0188295I0000531J0000000D01*
G01*
X0020130Y0188295D01*
G75*
G02*
X0020661Y0187764I0000000J-000531D01*
G01*
X0020661Y0186307D01*
G75*
G02*
X0020130Y0185776I-000531J0000000D01*
G01*
X0019067Y0185776D01*
G75*
G02*
X0018535Y0186307I0000000J0000531D01*
G01*
G37*
G36*
G01*
X0022551Y0186307D02*
X0022551Y0187764D01*
G75*
G02*
X0023082Y0188295I0000531J0000000D01*
G01*
X0024145Y0188295D01*
G75*
G02*
X0024677Y0187764I0000000J-000531D01*
G01*
X0024677Y0186307D01*
G75*
G02*
X0024145Y0185776I-000531J0000000D01*
G01*
X0023082Y0185776D01*
G75*
G02*
X0022551Y0186307I0000000J0000531D01*
G01*
G37*
G36*
G01*
X0050878Y0197279D02*
X0052059Y0197279D01*
G75*
G02*
X0052649Y0196689I0000000J-000591D01*
G01*
X0052649Y0190193D01*
G75*
G02*
X0052059Y0189602I-000591J0000000D01*
G01*
X0050878Y0189602D01*
G75*
G02*
X0050287Y0190193I0000000J0000591D01*
G01*
X0050287Y0196689D01*
G75*
G02*
X0050878Y0197279I0000591J0000000D01*
G01*
G37*
G36*
G01*
X0045878Y0197279D02*
X0047059Y0197279D01*
G75*
G02*
X0047649Y0196689I0000000J-000591D01*
G01*
X0047649Y0190193D01*
G75*
G02*
X0047059Y0189602I-000591J0000000D01*
G01*
X0045878Y0189602D01*
G75*
G02*
X0045287Y0190193I0000000J0000591D01*
G01*
X0045287Y0196689D01*
G75*
G02*
X0045878Y0197279I0000591J0000000D01*
G01*
G37*
G36*
G01*
X0040878Y0197279D02*
X0042059Y0197279D01*
G75*
G02*
X0042649Y0196689I0000000J-000591D01*
G01*
X0042649Y0190193D01*
G75*
G02*
X0042059Y0189602I-000591J0000000D01*
G01*
X0040878Y0189602D01*
G75*
G02*
X0040287Y0190193I0000000J0000591D01*
G01*
X0040287Y0196689D01*
G75*
G02*
X0040878Y0197279I0000591J0000000D01*
G01*
G37*
G36*
G01*
X0035878Y0197279D02*
X0037059Y0197279D01*
G75*
G02*
X0037649Y0196689I0000000J-000591D01*
G01*
X0037649Y0190193D01*
G75*
G02*
X0037059Y0189602I-000591J0000000D01*
G01*
X0035878Y0189602D01*
G75*
G02*
X0035287Y0190193I0000000J0000591D01*
G01*
X0035287Y0196689D01*
G75*
G02*
X0035878Y0197279I0000591J0000000D01*
G01*
G37*
G36*
G01*
X0035878Y0177791D02*
X0037059Y0177791D01*
G75*
G02*
X0037649Y0177201I0000000J-000591D01*
G01*
X0037649Y0170705D01*
G75*
G02*
X0037059Y0170114I-000591J0000000D01*
G01*
X0035878Y0170114D01*
G75*
G02*
X0035287Y0170705I0000000J0000591D01*
G01*
X0035287Y0177201D01*
G75*
G02*
X0035878Y0177791I0000591J0000000D01*
G01*
G37*
G36*
G01*
X0040878Y0177791D02*
X0042059Y0177791D01*
G75*
G02*
X0042649Y0177201I0000000J-000591D01*
G01*
X0042649Y0170705D01*
G75*
G02*
X0042059Y0170114I-000591J0000000D01*
G01*
X0040878Y0170114D01*
G75*
G02*
X0040287Y0170705I0000000J0000591D01*
G01*
X0040287Y0177201D01*
G75*
G02*
X0040878Y0177791I0000591J0000000D01*
G01*
G37*
G36*
G01*
X0045878Y0177791D02*
X0047059Y0177791D01*
G75*
G02*
X0047649Y0177201I0000000J-000591D01*
G01*
X0047649Y0170705D01*
G75*
G02*
X0047059Y0170114I-000591J0000000D01*
G01*
X0045878Y0170114D01*
G75*
G02*
X0045287Y0170705I0000000J0000591D01*
G01*
X0045287Y0177201D01*
G75*
G02*
X0045878Y0177791I0000591J0000000D01*
G01*
G37*
G36*
G01*
X0050878Y0177791D02*
X0052059Y0177791D01*
G75*
G02*
X0052649Y0177201I0000000J-000591D01*
G01*
X0052649Y0170705D01*
G75*
G02*
X0052059Y0170114I-000591J0000000D01*
G01*
X0050878Y0170114D01*
G75*
G02*
X0050287Y0170705I0000000J0000591D01*
G01*
X0050287Y0177201D01*
G75*
G02*
X0050878Y0177791I0000591J0000000D01*
G01*
G37*
D145*
X0051606Y0211799D03*
X0049047Y0211799D03*
X0046488Y0211799D03*
X0046488Y0204319D03*
X0049047Y0204319D03*
X0051606Y0204319D03*
D16*
X0043771Y0168728D03*
X0039047Y0168728D03*
X0048496Y0168728D03*
X0053220Y0168728D03*
X0027787Y0225520D03*
X0023850Y0225520D03*
G36*
G01*
X0032518Y0195638D02*
X0032518Y0194181D01*
G75*
G02*
X0031986Y0193650I-000531J0000000D01*
G01*
X0030923Y0193650D01*
G75*
G02*
X0030392Y0194181I0000000J0000531D01*
G01*
X0030392Y0195638D01*
G75*
G02*
X0030923Y0196169I0000531J0000000D01*
G01*
X0031986Y0196169D01*
G75*
G02*
X0032518Y0195638I0000000J-000531D01*
G01*
G37*
G36*
G01*
X0028502Y0195638D02*
X0028502Y0194181D01*
G75*
G02*
X0027971Y0193650I-000531J0000000D01*
G01*
X0026908Y0193650D01*
G75*
G02*
X0026376Y0194181I0000000J0000531D01*
G01*
X0026376Y0195638D01*
G75*
G02*
X0026908Y0196169I0000531J0000000D01*
G01*
X0027971Y0196169D01*
G75*
G02*
X0028502Y0195638I0000000J-000531D01*
G01*
G37*
G36*
G01*
X0026455Y0190303D02*
X0026455Y0191642D01*
G75*
G02*
X0027006Y0192193I0000551J0000000D01*
G01*
X0028108Y0192193D01*
G75*
G02*
X0028660Y0191642I0000000J-000551D01*
G01*
X0028660Y0190303D01*
G75*
G02*
X0028108Y0189752I-000551J0000000D01*
G01*
X0027006Y0189752D01*
G75*
G02*
X0026455Y0190303I0000000J0000551D01*
G01*
G37*
G36*
G01*
X0030234Y0190303D02*
X0030234Y0191642D01*
G75*
G02*
X0030786Y0192193I0000551J0000000D01*
G01*
X0031888Y0192193D01*
G75*
G02*
X0032439Y0191642I0000000J-000551D01*
G01*
X0032439Y0190303D01*
G75*
G02*
X0031888Y0189752I-000551J0000000D01*
G01*
X0030786Y0189752D01*
G75*
G02*
X0030234Y0190303I0000000J0000551D01*
G01*
G37*
G36*
G01*
X0018535Y0194181D02*
X0018535Y0195638D01*
G75*
G02*
X0019067Y0196169I0000531J0000000D01*
G01*
X0020130Y0196169D01*
G75*
G02*
X0020661Y0195638I0000000J-000531D01*
G01*
X0020661Y0194181D01*
G75*
G02*
X0020130Y0193650I-000531J0000000D01*
G01*
X0019067Y0193650D01*
G75*
G02*
X0018535Y0194181I0000000J0000531D01*
G01*
G37*
G36*
G01*
X0022551Y0194181D02*
X0022551Y0195638D01*
G75*
G02*
X0023082Y0196169I0000531J0000000D01*
G01*
X0024145Y0196169D01*
G75*
G02*
X0024677Y0195638I0000000J-000531D01*
G01*
X0024677Y0194181D01*
G75*
G02*
X0024145Y0193650I-000531J0000000D01*
G01*
X0023082Y0193650D01*
G75*
G02*
X0022551Y0194181I0000000J0000531D01*
G01*
G37*
G36*
G01*
X0024598Y0182587D02*
X0024598Y0181248D01*
G75*
G02*
X0024047Y0180697I-000551J0000000D01*
G01*
X0022945Y0180697D01*
G75*
G02*
X0022393Y0181248I0000000J0000551D01*
G01*
X0022393Y0182587D01*
G75*
G02*
X0022945Y0183138I0000551J0000000D01*
G01*
X0024047Y0183138D01*
G75*
G02*
X0024598Y0182587I0000000J-000551D01*
G01*
G37*
G36*
G01*
X0020819Y0182587D02*
X0020819Y0181248D01*
G75*
G02*
X0020267Y0180697I-000551J0000000D01*
G01*
X0019165Y0180697D01*
G75*
G02*
X0018614Y0181248I0000000J0000551D01*
G01*
X0018614Y0182587D01*
G75*
G02*
X0019165Y0183138I0000551J0000000D01*
G01*
X0020267Y0183138D01*
G75*
G02*
X0020819Y0182587I0000000J-000551D01*
G01*
G37*
G36*
G01*
X0028456Y0205716D02*
X0028456Y0204378D01*
G75*
G02*
X0027905Y0203827I-000551J0000000D01*
G01*
X0026803Y0203827D01*
G75*
G02*
X0026252Y0204378I0000000J0000551D01*
G01*
X0026252Y0205716D01*
G75*
G02*
X0026803Y0206268I0000551J0000000D01*
G01*
X0027905Y0206268D01*
G75*
G02*
X0028456Y0205716I0000000J-000551D01*
G01*
G37*
G36*
G01*
X0024677Y0205716D02*
X0024677Y0204378D01*
G75*
G02*
X0024126Y0203827I-000551J0000000D01*
G01*
X0023023Y0203827D01*
G75*
G02*
X0022472Y0204378I0000000J0000551D01*
G01*
X0022472Y0205716D01*
G75*
G02*
X0023023Y0206268I0000551J0000000D01*
G01*
X0024126Y0206268D01*
G75*
G02*
X0024677Y0205716I0000000J-000551D01*
G01*
G37*
G36*
G01*
X0031704Y0200126D02*
X0030248Y0200126D01*
G75*
G02*
X0029716Y0200657I0000000J0000531D01*
G01*
X0029716Y0201720D01*
G75*
G02*
X0030248Y0202252I0000531J0000000D01*
G01*
X0031704Y0202252D01*
G75*
G02*
X0032236Y0201720I0000000J-000531D01*
G01*
X0032236Y0200657D01*
G75*
G02*
X0031704Y0200126I-000531J0000000D01*
G01*
G37*
G36*
G01*
X0031704Y0204142D02*
X0030248Y0204142D01*
G75*
G02*
X0029716Y0204673I0000000J0000531D01*
G01*
X0029716Y0205736D01*
G75*
G02*
X0030248Y0206268I0000531J0000000D01*
G01*
X0031704Y0206268D01*
G75*
G02*
X0032236Y0205736I0000000J-000531D01*
G01*
X0032236Y0204673D01*
G75*
G02*
X0031704Y0204142I-000531J0000000D01*
G01*
G37*
G36*
G01*
X0039416Y0223551D02*
X0041434Y0223551D01*
G75*
G02*
X0042295Y0222690I0000000J-000861D01*
G01*
X0042295Y0220967D01*
G75*
G02*
X0041434Y0220106I-000861J0000000D01*
G01*
X0039416Y0220106D01*
G75*
G02*
X0038555Y0220967I0000000J0000861D01*
G01*
X0038555Y0222690D01*
G75*
G02*
X0039416Y0223551I0000861J0000000D01*
G01*
G37*
G36*
G01*
X0039416Y0217350D02*
X0041434Y0217350D01*
G75*
G02*
X0042295Y0216489I0000000J-000861D01*
G01*
X0042295Y0214767D01*
G75*
G02*
X0041434Y0213905I-000861J0000000D01*
G01*
X0039416Y0213905D01*
G75*
G02*
X0038555Y0214767I0000000J0000861D01*
G01*
X0038555Y0216489D01*
G75*
G02*
X0039416Y0217350I0000861J0000000D01*
G01*
G37*
G36*
G01*
X0046271Y0217035D02*
X0044815Y0217035D01*
G75*
G02*
X0044283Y0217567I0000000J0000531D01*
G01*
X0044283Y0218630D01*
G75*
G02*
X0044815Y0219161I0000531J0000000D01*
G01*
X0046271Y0219161D01*
G75*
G02*
X0046803Y0218630I0000000J-000531D01*
G01*
X0046803Y0217567D01*
G75*
G02*
X0046271Y0217035I-000531J0000000D01*
G01*
G37*
G36*
G01*
X0046271Y0221051D02*
X0044815Y0221051D01*
G75*
G02*
X0044283Y0221583I0000000J0000531D01*
G01*
X0044283Y0222646D01*
G75*
G02*
X0044815Y0223177I0000531J0000000D01*
G01*
X0046271Y0223177D01*
G75*
G02*
X0046803Y0222646I0000000J-000531D01*
G01*
X0046803Y0221583D01*
G75*
G02*
X0046271Y0221051I-000531J0000000D01*
G01*
G37*
G36*
G01*
X0034185Y0206268D02*
X0035641Y0206268D01*
G75*
G02*
X0036173Y0205736I0000000J-000531D01*
G01*
X0036173Y0204673D01*
G75*
G02*
X0035641Y0204142I-000531J0000000D01*
G01*
X0034185Y0204142D01*
G75*
G02*
X0033653Y0204673I0000000J0000531D01*
G01*
X0033653Y0205736D01*
G75*
G02*
X0034185Y0206268I0000531J0000000D01*
G01*
G37*
G36*
G01*
X0034185Y0202252D02*
X0035641Y0202252D01*
G75*
G02*
X0036173Y0201720I0000000J-000531D01*
G01*
X0036173Y0200657D01*
G75*
G02*
X0035641Y0200126I-000531J0000000D01*
G01*
X0034185Y0200126D01*
G75*
G02*
X0033653Y0200657I0000000J0000531D01*
G01*
X0033653Y0201720D01*
G75*
G02*
X0034185Y0202252I0000531J0000000D01*
G01*
G37*
G36*
G01*
X0028394Y0200953D02*
X0028394Y0199496D01*
G75*
G02*
X0027863Y0198965I-000531J0000000D01*
G01*
X0026800Y0198965D01*
G75*
G02*
X0026268Y0199496I0000000J0000531D01*
G01*
X0026268Y0200953D01*
G75*
G02*
X0026800Y0201484I0000531J0000000D01*
G01*
X0027863Y0201484D01*
G75*
G02*
X0028394Y0200953I0000000J-000531D01*
G01*
G37*
G36*
G01*
X0024378Y0200953D02*
X0024378Y0199496D01*
G75*
G02*
X0023847Y0198965I-000531J0000000D01*
G01*
X0022784Y0198965D01*
G75*
G02*
X0022253Y0199496I0000000J0000531D01*
G01*
X0022253Y0200953D01*
G75*
G02*
X0022784Y0201484I0000531J0000000D01*
G01*
X0023847Y0201484D01*
G75*
G02*
X0024378Y0200953I0000000J-000531D01*
G01*
G37*
G36*
G01*
X0034992Y0218295D02*
X0033653Y0218295D01*
G75*
G02*
X0033102Y0218846I0000000J0000551D01*
G01*
X0033102Y0219949D01*
G75*
G02*
X0033653Y0220500I0000551J0000000D01*
G01*
X0034992Y0220500D01*
G75*
G02*
X0035543Y0219949I0000000J-000551D01*
G01*
X0035543Y0218846D01*
G75*
G02*
X0034992Y0218295I-000551J0000000D01*
G01*
G37*
G36*
G01*
X0034992Y0222075D02*
X0033653Y0222075D01*
G75*
G02*
X0033102Y0222626I0000000J0000551D01*
G01*
X0033102Y0223728D01*
G75*
G02*
X0033653Y0224279I0000551J0000000D01*
G01*
X0034992Y0224279D01*
G75*
G02*
X0035543Y0223728I0000000J-000551D01*
G01*
X0035543Y0222626D01*
G75*
G02*
X0034992Y0222075I-000551J0000000D01*
G01*
G37*
G36*
G01*
X0026455Y0181248D02*
X0026455Y0182587D01*
G75*
G02*
X0027006Y0183138I0000551J0000000D01*
G01*
X0028108Y0183138D01*
G75*
G02*
X0028660Y0182587I0000000J-000551D01*
G01*
X0028660Y0181248D01*
G75*
G02*
X0028108Y0180697I-000551J0000000D01*
G01*
X0027006Y0180697D01*
G75*
G02*
X0026455Y0181248I0000000J0000551D01*
G01*
G37*
G36*
G01*
X0030234Y0181248D02*
X0030234Y0182587D01*
G75*
G02*
X0030786Y0183138I0000551J0000000D01*
G01*
X0031888Y0183138D01*
G75*
G02*
X0032439Y0182587I0000000J-000551D01*
G01*
X0032439Y0181248D01*
G75*
G02*
X0031888Y0180697I-000551J0000000D01*
G01*
X0030786Y0180697D01*
G75*
G02*
X0030234Y0181248I0000000J0000551D01*
G01*
G37*
G36*
G01*
X0018929Y0206268D02*
X0020386Y0206268D01*
G75*
G02*
X0020917Y0205736I0000000J-000531D01*
G01*
X0020917Y0204673D01*
G75*
G02*
X0020386Y0204142I-000531J0000000D01*
G01*
X0018929Y0204142D01*
G75*
G02*
X0018397Y0204673I0000000J0000531D01*
G01*
X0018397Y0205736D01*
G75*
G02*
X0018929Y0206268I0000531J0000000D01*
G01*
G37*
G36*
G01*
X0018929Y0202252D02*
X0020386Y0202252D01*
G75*
G02*
X0020917Y0201720I0000000J-000531D01*
G01*
X0020917Y0200657D01*
G75*
G02*
X0020386Y0200126I-000531J0000000D01*
G01*
X0018929Y0200126D01*
G75*
G02*
X0018397Y0200657I0000000J0000531D01*
G01*
X0018397Y0201720D01*
G75*
G02*
X0018929Y0202252I0000531J0000000D01*
G01*
G37*
D144*
X0020149Y0177009D03*
X0020149Y0174450D03*
X0020149Y0171891D03*
X0027630Y0171891D03*
X0027630Y0174450D03*
X0027630Y0177009D03*
G36*
G01*
X0028935Y0222958D02*
X0030116Y0222958D01*
G75*
G02*
X0030707Y0222367I0000000J-000591D01*
G01*
X0030707Y0218332D01*
G75*
G02*
X0030116Y0217741I-000591J0000000D01*
G01*
X0028935Y0217741D01*
G75*
G02*
X0028345Y0218332I0000000J0000591D01*
G01*
X0028345Y0222367D01*
G75*
G02*
X0028935Y0222958I0000591J0000000D01*
G01*
G37*
G36*
G01*
X0025195Y0222958D02*
X0026376Y0222958D01*
G75*
G02*
X0026967Y0222367I0000000J-000591D01*
G01*
X0026967Y0218332D01*
G75*
G02*
X0026376Y0217741I-000591J0000000D01*
G01*
X0025195Y0217741D01*
G75*
G02*
X0024604Y0218332I0000000J0000591D01*
G01*
X0024604Y0222367D01*
G75*
G02*
X0025195Y0222958I0000591J0000000D01*
G01*
G37*
G36*
G01*
X0021455Y0222958D02*
X0022636Y0222958D01*
G75*
G02*
X0023226Y0222367I0000000J-000591D01*
G01*
X0023226Y0218332D01*
G75*
G02*
X0022636Y0217741I-000591J0000000D01*
G01*
X0021455Y0217741D01*
G75*
G02*
X0020864Y0218332I0000000J0000591D01*
G01*
X0020864Y0222367D01*
G75*
G02*
X0021455Y0222958I0000591J0000000D01*
G01*
G37*
G36*
G01*
X0021455Y0214001D02*
X0022636Y0214001D01*
G75*
G02*
X0023226Y0213411I0000000J-000591D01*
G01*
X0023226Y0209375D01*
G75*
G02*
X0022636Y0208785I-000591J0000000D01*
G01*
X0021455Y0208785D01*
G75*
G02*
X0020864Y0209375I0000000J0000591D01*
G01*
X0020864Y0213411D01*
G75*
G02*
X0021455Y0214001I0000591J0000000D01*
G01*
G37*
G36*
G01*
X0025195Y0214001D02*
X0026376Y0214001D01*
G75*
G02*
X0026967Y0213411I0000000J-000591D01*
G01*
X0026967Y0209375D01*
G75*
G02*
X0026376Y0208785I-000591J0000000D01*
G01*
X0025195Y0208785D01*
G75*
G02*
X0024604Y0209375I0000000J0000591D01*
G01*
X0024604Y0213411D01*
G75*
G02*
X0025195Y0214001I0000591J0000000D01*
G01*
G37*
G36*
G01*
X0028935Y0214001D02*
X0030116Y0214001D01*
G75*
G02*
X0030707Y0213411I0000000J-000591D01*
G01*
X0030707Y0209375D01*
G75*
G02*
X0030116Y0208785I-000591J0000000D01*
G01*
X0028935Y0208785D01*
G75*
G02*
X0028345Y0209375I0000000J0000591D01*
G01*
X0028345Y0213411D01*
G75*
G02*
X0028935Y0214001I0000591J0000000D01*
G01*
G37*
G36*
G01*
X0040819Y0212075D02*
X0042157Y0212075D01*
G75*
G02*
X0042708Y0211524I0000000J-000551D01*
G01*
X0042708Y0210421D01*
G75*
G02*
X0042157Y0209870I-000551J0000000D01*
G01*
X0040819Y0209870D01*
G75*
G02*
X0040267Y0210421I0000000J0000551D01*
G01*
X0040267Y0211524D01*
G75*
G02*
X0040819Y0212075I0000551J0000000D01*
G01*
G37*
G36*
G01*
X0040819Y0208295D02*
X0042157Y0208295D01*
G75*
G02*
X0042708Y0207744I0000000J-000551D01*
G01*
X0042708Y0206642D01*
G75*
G02*
X0042157Y0206090I-000551J0000000D01*
G01*
X0040819Y0206090D01*
G75*
G02*
X0040267Y0206642I0000000J0000551D01*
G01*
X0040267Y0207744D01*
G75*
G02*
X0040819Y0208295I0000551J0000000D01*
G01*
G37*
G36*
G01*
X0018614Y0190303D02*
X0018614Y0191642D01*
G75*
G02*
X0019165Y0192193I0000551J0000000D01*
G01*
X0020267Y0192193D01*
G75*
G02*
X0020819Y0191642I0000000J-000551D01*
G01*
X0020819Y0190303D01*
G75*
G02*
X0020267Y0189752I-000551J0000000D01*
G01*
X0019165Y0189752D01*
G75*
G02*
X0018614Y0190303I0000000J0000551D01*
G01*
G37*
G36*
G01*
X0022393Y0190303D02*
X0022393Y0191642D01*
G75*
G02*
X0022945Y0192193I0000551J0000000D01*
G01*
X0024047Y0192193D01*
G75*
G02*
X0024598Y0191642I0000000J-000551D01*
G01*
X0024598Y0190303D01*
G75*
G02*
X0024047Y0189752I-000551J0000000D01*
G01*
X0022945Y0189752D01*
G75*
G02*
X0022393Y0190303I0000000J0000551D01*
G01*
G37*
G36*
G01*
X0026376Y0186307D02*
X0026376Y0187764D01*
G75*
G02*
X0026908Y0188295I0000531J0000000D01*
G01*
X0027971Y0188295D01*
G75*
G02*
X0028502Y0187764I0000000J-000531D01*
G01*
X0028502Y0186307D01*
G75*
G02*
X0027971Y0185776I-000531J0000000D01*
G01*
X0026908Y0185776D01*
G75*
G02*
X0026376Y0186307I0000000J0000531D01*
G01*
G37*
G36*
G01*
X0030392Y0186307D02*
X0030392Y0187764D01*
G75*
G02*
X0030923Y0188295I0000531J0000000D01*
G01*
X0031986Y0188295D01*
G75*
G02*
X0032518Y0187764I0000000J-000531D01*
G01*
X0032518Y0186307D01*
G75*
G02*
X0031986Y0185776I-000531J0000000D01*
G01*
X0030923Y0185776D01*
G75*
G02*
X0030392Y0186307I0000000J0000531D01*
G01*
G37*
X0277886Y0236835D02*
%LPD*%
G01*
D16*
X0336154Y0264000D03*
X0336154Y0259276D03*
X0336154Y0268725D03*
X0336154Y0273449D03*
X0279362Y0248016D03*
X0279362Y0244079D03*
D146*
X0311744Y0249827D03*
X0311744Y0247859D03*
X0311744Y0245890D03*
X0311744Y0243922D03*
X0311744Y0241953D03*
X0329067Y0241953D03*
X0329067Y0243922D03*
X0329067Y0245890D03*
X0329067Y0247859D03*
X0329067Y0249827D03*
G36*
G01*
X0319264Y0263016D02*
X0322335Y0263016D01*
G75*
G02*
X0322610Y0262741I0000000J-000276D01*
G01*
X0322610Y0260536D01*
G75*
G02*
X0322335Y0260260I-000276J0000000D01*
G01*
X0319264Y0260260D01*
G75*
G02*
X0318988Y0260536I0000000J0000276D01*
G01*
X0318988Y0262741D01*
G75*
G02*
X0319264Y0263016I0000276J0000000D01*
G01*
G37*
G36*
G01*
X0319264Y0256717D02*
X0322335Y0256717D01*
G75*
G02*
X0322610Y0256441I0000000J-000276D01*
G01*
X0322610Y0254237D01*
G75*
G02*
X0322335Y0253961I-000276J0000000D01*
G01*
X0319264Y0253961D01*
G75*
G02*
X0318988Y0254237I0000000J0000276D01*
G01*
X0318988Y0256441D01*
G75*
G02*
X0319264Y0256717I0000276J0000000D01*
G01*
G37*
G36*
G01*
X0333595Y0269670D02*
X0333595Y0266599D01*
G75*
G02*
X0333319Y0266323I-000276J0000000D01*
G01*
X0331114Y0266323D01*
G75*
G02*
X0330839Y0266599I0000000J0000276D01*
G01*
X0330839Y0269670D01*
G75*
G02*
X0331114Y0269945I0000276J0000000D01*
G01*
X0333319Y0269945D01*
G75*
G02*
X0333595Y0269670I0000000J-000276D01*
G01*
G37*
G36*
G01*
X0327295Y0269670D02*
X0327295Y0266599D01*
G75*
G02*
X0327020Y0266323I-000276J0000000D01*
G01*
X0324815Y0266323D01*
G75*
G02*
X0324540Y0266599I0000000J0000276D01*
G01*
X0324540Y0269670D01*
G75*
G02*
X0324815Y0269945I0000276J0000000D01*
G01*
X0327020Y0269945D01*
G75*
G02*
X0327295Y0269670I0000000J-000276D01*
G01*
G37*
G36*
G01*
X0313358Y0263016D02*
X0316429Y0263016D01*
G75*
G02*
X0316705Y0262741I0000000J-000276D01*
G01*
X0316705Y0260536D01*
G75*
G02*
X0316429Y0260260I-000276J0000000D01*
G01*
X0313358Y0260260D01*
G75*
G02*
X0313083Y0260536I0000000J0000276D01*
G01*
X0313083Y0262741D01*
G75*
G02*
X0313358Y0263016I0000276J0000000D01*
G01*
G37*
G36*
G01*
X0313358Y0256717D02*
X0316429Y0256717D01*
G75*
G02*
X0316705Y0256441I0000000J-000276D01*
G01*
X0316705Y0254237D01*
G75*
G02*
X0316429Y0253961I-000276J0000000D01*
G01*
X0313358Y0253961D01*
G75*
G02*
X0313083Y0254237I0000000J0000276D01*
G01*
X0313083Y0256441D01*
G75*
G02*
X0313358Y0256717I0000276J0000000D01*
G01*
G37*
G36*
G01*
X0302709Y0266756D02*
X0305425Y0266756D01*
G75*
G02*
X0306331Y0265851I0000000J-000906D01*
G01*
X0306331Y0260575D01*
G75*
G02*
X0305425Y0259670I-000906J0000000D01*
G01*
X0302709Y0259670D01*
G75*
G02*
X0301803Y0260575I0000000J0000906D01*
G01*
X0301803Y0265851D01*
G75*
G02*
X0302709Y0266756I0000906J0000000D01*
G01*
G37*
G36*
G01*
X0291291Y0266756D02*
X0294008Y0266756D01*
G75*
G02*
X0294914Y0265851I0000000J-000906D01*
G01*
X0294914Y0260575D01*
G75*
G02*
X0294008Y0259670I-000906J0000000D01*
G01*
X0291291Y0259670D01*
G75*
G02*
X0290386Y0260575I0000000J0000906D01*
G01*
X0290386Y0265851D01*
G75*
G02*
X0291291Y0266756I0000906J0000000D01*
G01*
G37*
G36*
G01*
X0302709Y0256914D02*
X0305425Y0256914D01*
G75*
G02*
X0306331Y0256008I0000000J-000906D01*
G01*
X0306331Y0250733D01*
G75*
G02*
X0305425Y0249827I-000906J0000000D01*
G01*
X0302709Y0249827D01*
G75*
G02*
X0301803Y0250733I0000000J0000906D01*
G01*
X0301803Y0256008D01*
G75*
G02*
X0302709Y0256914I0000906J0000000D01*
G01*
G37*
G36*
G01*
X0291291Y0256914D02*
X0294008Y0256914D01*
G75*
G02*
X0294914Y0256008I0000000J-000906D01*
G01*
X0294914Y0250733D01*
G75*
G02*
X0294008Y0249827I-000906J0000000D01*
G01*
X0291291Y0249827D01*
G75*
G02*
X0290386Y0250733I0000000J0000906D01*
G01*
X0290386Y0256008D01*
G75*
G02*
X0291291Y0256914I0000906J0000000D01*
G01*
G37*
G36*
G01*
X0280642Y0263233D02*
X0280642Y0265949D01*
G75*
G02*
X0281547Y0266855I0000906J0000000D01*
G01*
X0286823Y0266855D01*
G75*
G02*
X0287729Y0265949I0000000J-000906D01*
G01*
X0287729Y0263233D01*
G75*
G02*
X0286823Y0262327I-000906J0000000D01*
G01*
X0281547Y0262327D01*
G75*
G02*
X0280642Y0263233I0000000J0000906D01*
G01*
G37*
G36*
G01*
X0280642Y0251815D02*
X0280642Y0254532D01*
G75*
G02*
X0281547Y0255437I0000906J0000000D01*
G01*
X0286823Y0255437D01*
G75*
G02*
X0287729Y0254532I0000000J-000906D01*
G01*
X0287729Y0251815D01*
G75*
G02*
X0286823Y0250910I-000906J0000000D01*
G01*
X0281547Y0250910D01*
G75*
G02*
X0280642Y0251815I0000000J0000906D01*
G01*
G37*
G36*
G01*
X0296016Y0247465D02*
X0298732Y0247465D01*
G75*
G02*
X0299638Y0246559I0000000J-000906D01*
G01*
X0299638Y0241284D01*
G75*
G02*
X0298732Y0240378I-000906J0000000D01*
G01*
X0296016Y0240378D01*
G75*
G02*
X0295110Y0241284I0000000J0000906D01*
G01*
X0295110Y0246559D01*
G75*
G02*
X0296016Y0247465I0000906J0000000D01*
G01*
G37*
G36*
G01*
X0284599Y0247465D02*
X0287315Y0247465D01*
G75*
G02*
X0288221Y0246559I0000000J-000906D01*
G01*
X0288221Y0241284D01*
G75*
G02*
X0287315Y0240378I-000906J0000000D01*
G01*
X0284599Y0240378D01*
G75*
G02*
X0283693Y0241284I0000000J0000906D01*
G01*
X0283693Y0246559D01*
G75*
G02*
X0284599Y0247465I0000906J0000000D01*
G01*
G37*
G36*
G01*
X0321685Y0269340D02*
X0321685Y0267322D01*
G75*
G02*
X0320824Y0266461I-000861J0000000D01*
G01*
X0319102Y0266461D01*
G75*
G02*
X0318240Y0267322I0000000J0000861D01*
G01*
X0318240Y0269340D01*
G75*
G02*
X0319102Y0270201I0000861J0000000D01*
G01*
X0320824Y0270201D01*
G75*
G02*
X0321685Y0269340I0000000J-000861D01*
G01*
G37*
G36*
G01*
X0315484Y0269340D02*
X0315484Y0267322D01*
G75*
G02*
X0314623Y0266461I-000861J0000000D01*
G01*
X0312901Y0266461D01*
G75*
G02*
X0312040Y0267322I0000000J0000861D01*
G01*
X0312040Y0269340D01*
G75*
G02*
X0312901Y0270201I0000861J0000000D01*
G01*
X0314623Y0270201D01*
G75*
G02*
X0315484Y0269340I0000000J-000861D01*
G01*
G37*
G36*
G01*
X0327630Y0262378D02*
X0327630Y0259701D01*
G75*
G02*
X0327295Y0259366I-000335J0000000D01*
G01*
X0324618Y0259366D01*
G75*
G02*
X0324284Y0259701I0000000J0000335D01*
G01*
X0324284Y0262378D01*
G75*
G02*
X0324618Y0262713I0000335J0000000D01*
G01*
X0327295Y0262713D01*
G75*
G02*
X0327630Y0262378I0000000J-000335D01*
G01*
G37*
G36*
G01*
X0333851Y0262378D02*
X0333851Y0259701D01*
G75*
G02*
X0333516Y0259366I-000335J0000000D01*
G01*
X0330839Y0259366D01*
G75*
G02*
X0330504Y0259701I0000000J0000335D01*
G01*
X0330504Y0262378D01*
G75*
G02*
X0330839Y0262713I0000335J0000000D01*
G01*
X0333516Y0262713D01*
G75*
G02*
X0333851Y0262378I0000000J-000335D01*
G01*
G37*
G36*
G01*
X0333851Y0257071D02*
X0333851Y0254394D01*
G75*
G02*
X0333516Y0254059I-000335J0000000D01*
G01*
X0330839Y0254059D01*
G75*
G02*
X0330504Y0254394I0000000J0000335D01*
G01*
X0330504Y0257071D01*
G75*
G02*
X0330839Y0257406I0000335J0000000D01*
G01*
X0333516Y0257406D01*
G75*
G02*
X0333851Y0257071I0000000J-000335D01*
G01*
G37*
G36*
G01*
X0327630Y0257071D02*
X0327630Y0254394D01*
G75*
G02*
X0327295Y0254059I-000335J0000000D01*
G01*
X0324618Y0254059D01*
G75*
G02*
X0324284Y0254394I0000000J0000335D01*
G01*
X0324284Y0257071D01*
G75*
G02*
X0324618Y0257406I0000335J0000000D01*
G01*
X0327295Y0257406D01*
G75*
G02*
X0327630Y0257071I0000000J-000335D01*
G01*
G37*
G36*
G01*
X0308437Y0263272D02*
X0311114Y0263272D01*
G75*
G02*
X0311449Y0262937I0000000J-000335D01*
G01*
X0311449Y0260260D01*
G75*
G02*
X0311114Y0259926I-000335J0000000D01*
G01*
X0308437Y0259926D01*
G75*
G02*
X0308103Y0260260I0000000J0000335D01*
G01*
X0308103Y0262937D01*
G75*
G02*
X0308437Y0263272I0000335J0000000D01*
G01*
G37*
G36*
G01*
X0308437Y0257052D02*
X0311114Y0257052D01*
G75*
G02*
X0311449Y0256717I0000000J-000335D01*
G01*
X0311449Y0254040D01*
G75*
G02*
X0311114Y0253705I-000335J0000000D01*
G01*
X0308437Y0253705D01*
G75*
G02*
X0308103Y0254040I0000000J0000335D01*
G01*
X0308103Y0256717D01*
G75*
G02*
X0308437Y0257052I0000335J0000000D01*
G01*
G37*
X0547559Y0096898D02*
%LPD*%
G01*
G36*
G01*
X0479951Y0061189D02*
X0481309Y0061189D01*
G75*
G02*
X0481890Y0060609I0000000J-000581D01*
G01*
X0481890Y0059447D01*
G75*
G02*
X0481309Y0058867I-000581J0000000D01*
G01*
X0479951Y0058867D01*
G75*
G02*
X0479370Y0059447I0000000J0000581D01*
G01*
X0479370Y0060609D01*
G75*
G02*
X0479951Y0061189I0000581J0000000D01*
G01*
G37*
G36*
G01*
X0479951Y0057370D02*
X0481309Y0057370D01*
G75*
G02*
X0481890Y0056790I0000000J-000581D01*
G01*
X0481890Y0055628D01*
G75*
G02*
X0481309Y0055048I-000581J0000000D01*
G01*
X0479951Y0055048D01*
G75*
G02*
X0479370Y0055628I0000000J0000581D01*
G01*
X0479370Y0056790D01*
G75*
G02*
X0479951Y0057370I0000581J0000000D01*
G01*
G37*
G36*
G01*
X0538524Y0076613D02*
X0538524Y0075254D01*
G75*
G02*
X0537943Y0074674I-000581J0000000D01*
G01*
X0536781Y0074674D01*
G75*
G02*
X0536201Y0075254I0000000J0000581D01*
G01*
X0536201Y0076613D01*
G75*
G02*
X0536781Y0077193I0000581J0000000D01*
G01*
X0537943Y0077193D01*
G75*
G02*
X0538524Y0076613I0000000J-000581D01*
G01*
G37*
G36*
G01*
X0534705Y0076613D02*
X0534705Y0075254D01*
G75*
G02*
X0534124Y0074674I-000581J0000000D01*
G01*
X0532963Y0074674D01*
G75*
G02*
X0532382Y0075254I0000000J0000581D01*
G01*
X0532382Y0076613D01*
G75*
G02*
X0532963Y0077193I0000581J0000000D01*
G01*
X0534124Y0077193D01*
G75*
G02*
X0534705Y0076613I0000000J-000581D01*
G01*
G37*
G36*
G01*
X0527997Y0061416D02*
X0525979Y0061416D01*
G75*
G02*
X0525118Y0062277I0000000J0000861D01*
G01*
X0525118Y0063999D01*
G75*
G02*
X0525979Y0064861I0000861J0000000D01*
G01*
X0527997Y0064861D01*
G75*
G02*
X0528858Y0063999I0000000J-000861D01*
G01*
X0528858Y0062277D01*
G75*
G02*
X0527997Y0061416I-000861J0000000D01*
G01*
G37*
G36*
G01*
X0527997Y0067617D02*
X0525979Y0067617D01*
G75*
G02*
X0525118Y0068478I0000000J0000861D01*
G01*
X0525118Y0070200D01*
G75*
G02*
X0525979Y0071061I0000861J0000000D01*
G01*
X0527997Y0071061D01*
G75*
G02*
X0528858Y0070200I0000000J-000861D01*
G01*
X0528858Y0068478D01*
G75*
G02*
X0527997Y0067617I-000861J0000000D01*
G01*
G37*
G36*
G01*
X0481506Y0086445D02*
X0480148Y0086445D01*
G75*
G02*
X0479567Y0087026I0000000J0000581D01*
G01*
X0479567Y0088187D01*
G75*
G02*
X0480148Y0088768I0000581J0000000D01*
G01*
X0481506Y0088768D01*
G75*
G02*
X0482087Y0088187I0000000J-000581D01*
G01*
X0482087Y0087026D01*
G75*
G02*
X0481506Y0086445I-000581J0000000D01*
G01*
G37*
G36*
G01*
X0481506Y0090264D02*
X0480148Y0090264D01*
G75*
G02*
X0479567Y0090845I0000000J0000581D01*
G01*
X0479567Y0092006D01*
G75*
G02*
X0480148Y0092587I0000581J0000000D01*
G01*
X0481506Y0092587D01*
G75*
G02*
X0482087Y0092006I0000000J-000581D01*
G01*
X0482087Y0090845D01*
G75*
G02*
X0481506Y0090264I-000581J0000000D01*
G01*
G37*
D147*
X0532697Y0070618D03*
X0532697Y0063138D03*
X0540571Y0066878D03*
G36*
G01*
X0485689Y0086445D02*
X0484331Y0086445D01*
G75*
G02*
X0483750Y0087026I0000000J0000581D01*
G01*
X0483750Y0088187D01*
G75*
G02*
X0484331Y0088768I0000581J0000000D01*
G01*
X0485689Y0088768D01*
G75*
G02*
X0486270Y0088187I0000000J-000581D01*
G01*
X0486270Y0087026D01*
G75*
G02*
X0485689Y0086445I-000581J0000000D01*
G01*
G37*
G36*
G01*
X0485689Y0090264D02*
X0484331Y0090264D01*
G75*
G02*
X0483750Y0090845I0000000J0000581D01*
G01*
X0483750Y0092006D01*
G75*
G02*
X0484331Y0092587I0000581J0000000D01*
G01*
X0485689Y0092587D01*
G75*
G02*
X0486270Y0092006I0000000J-000581D01*
G01*
X0486270Y0090845D01*
G75*
G02*
X0485689Y0090264I-000581J0000000D01*
G01*
G37*
G36*
G01*
X0481309Y0062528D02*
X0479951Y0062528D01*
G75*
G02*
X0479370Y0063109I0000000J0000581D01*
G01*
X0479370Y0064270D01*
G75*
G02*
X0479951Y0064851I0000581J0000000D01*
G01*
X0481309Y0064851D01*
G75*
G02*
X0481890Y0064270I0000000J-000581D01*
G01*
X0481890Y0063109D01*
G75*
G02*
X0481309Y0062528I-000581J0000000D01*
G01*
G37*
G36*
G01*
X0481309Y0066347D02*
X0479951Y0066347D01*
G75*
G02*
X0479370Y0066928I0000000J0000581D01*
G01*
X0479370Y0068089D01*
G75*
G02*
X0479951Y0068670I0000581J0000000D01*
G01*
X0481309Y0068670D01*
G75*
G02*
X0481890Y0068089I0000000J-000581D01*
G01*
X0481890Y0066928D01*
G75*
G02*
X0481309Y0066347I-000581J0000000D01*
G01*
G37*
G36*
G01*
X0485069Y0050264D02*
X0486427Y0050264D01*
G75*
G02*
X0487008Y0049683I0000000J-000581D01*
G01*
X0487008Y0048522D01*
G75*
G02*
X0486427Y0047941I-000581J0000000D01*
G01*
X0485069Y0047941D01*
G75*
G02*
X0484488Y0048522I0000000J0000581D01*
G01*
X0484488Y0049683D01*
G75*
G02*
X0485069Y0050264I0000581J0000000D01*
G01*
G37*
G36*
G01*
X0485069Y0046445D02*
X0486427Y0046445D01*
G75*
G02*
X0487008Y0045865I0000000J-000581D01*
G01*
X0487008Y0044703D01*
G75*
G02*
X0486427Y0044122I-000581J0000000D01*
G01*
X0485069Y0044122D01*
G75*
G02*
X0484488Y0044703I0000000J0000581D01*
G01*
X0484488Y0045865D01*
G75*
G02*
X0485069Y0046445I0000581J0000000D01*
G01*
G37*
G36*
G01*
X0479951Y0077036D02*
X0481309Y0077036D01*
G75*
G02*
X0481890Y0076455I0000000J-000581D01*
G01*
X0481890Y0075294D01*
G75*
G02*
X0481309Y0074713I-000581J0000000D01*
G01*
X0479951Y0074713D01*
G75*
G02*
X0479370Y0075294I0000000J0000581D01*
G01*
X0479370Y0076455D01*
G75*
G02*
X0479951Y0077036I0000581J0000000D01*
G01*
G37*
G36*
G01*
X0479951Y0073217D02*
X0481309Y0073217D01*
G75*
G02*
X0481890Y0072636I0000000J-000581D01*
G01*
X0481890Y0071475D01*
G75*
G02*
X0481309Y0070894I-000581J0000000D01*
G01*
X0479951Y0070894D01*
G75*
G02*
X0479370Y0071475I0000000J0000581D01*
G01*
X0479370Y0072636D01*
G75*
G02*
X0479951Y0073217I0000581J0000000D01*
G01*
G37*
G36*
G01*
X0519715Y0050264D02*
X0521073Y0050264D01*
G75*
G02*
X0521653Y0049683I0000000J-000581D01*
G01*
X0521653Y0048522D01*
G75*
G02*
X0521073Y0047941I-000581J0000000D01*
G01*
X0519715Y0047941D01*
G75*
G02*
X0519134Y0048522I0000000J0000581D01*
G01*
X0519134Y0049683D01*
G75*
G02*
X0519715Y0050264I0000581J0000000D01*
G01*
G37*
G36*
G01*
X0519715Y0046445D02*
X0521073Y0046445D01*
G75*
G02*
X0521653Y0045865I0000000J-000581D01*
G01*
X0521653Y0044703D01*
G75*
G02*
X0521073Y0044122I-000581J0000000D01*
G01*
X0519715Y0044122D01*
G75*
G02*
X0519134Y0044703I0000000J0000581D01*
G01*
X0519134Y0045865D01*
G75*
G02*
X0519715Y0046445I0000581J0000000D01*
G01*
G37*
D148*
X0455276Y0056937D03*
D149*
X0456378Y0085284D03*
X0464252Y0073473D03*
X0472126Y0085284D03*
D150*
X0464252Y0081741D03*
D148*
X0473228Y0056937D03*
G36*
G01*
X0530748Y0076711D02*
X0530748Y0075353D01*
G75*
G02*
X0530167Y0074772I-000581J0000000D01*
G01*
X0529006Y0074772D01*
G75*
G02*
X0528425Y0075353I0000000J0000581D01*
G01*
X0528425Y0076711D01*
G75*
G02*
X0529006Y0077292I0000581J0000000D01*
G01*
X0530167Y0077292D01*
G75*
G02*
X0530748Y0076711I0000000J-000581D01*
G01*
G37*
G36*
G01*
X0526929Y0076711D02*
X0526929Y0075353D01*
G75*
G02*
X0526348Y0074772I-000581J0000000D01*
G01*
X0525187Y0074772D01*
G75*
G02*
X0524606Y0075353I0000000J0000581D01*
G01*
X0524606Y0076711D01*
G75*
G02*
X0525187Y0077292I0000581J0000000D01*
G01*
X0526348Y0077292D01*
G75*
G02*
X0526929Y0076711I0000000J-000581D01*
G01*
G37*
G36*
G01*
X0492244Y0090377D02*
X0492244Y0092395D01*
G75*
G02*
X0493105Y0093256I0000861J0000000D01*
G01*
X0494828Y0093256D01*
G75*
G02*
X0495689Y0092395I0000000J-000861D01*
G01*
X0495689Y0090377D01*
G75*
G02*
X0494828Y0089516I-000861J0000000D01*
G01*
X0493105Y0089516D01*
G75*
G02*
X0492244Y0090377I0000000J0000861D01*
G01*
G37*
G36*
G01*
X0498445Y0090377D02*
X0498445Y0092395D01*
G75*
G02*
X0499306Y0093256I0000861J0000000D01*
G01*
X0501028Y0093256D01*
G75*
G02*
X0501890Y0092395I0000000J-000861D01*
G01*
X0501890Y0090377D01*
G75*
G02*
X0501028Y0089516I-000861J0000000D01*
G01*
X0499306Y0089516D01*
G75*
G02*
X0498445Y0090377I0000000J0000861D01*
G01*
G37*
G36*
G01*
X0489872Y0086445D02*
X0488514Y0086445D01*
G75*
G02*
X0487933Y0087026I0000000J0000581D01*
G01*
X0487933Y0088187D01*
G75*
G02*
X0488514Y0088768I0000581J0000000D01*
G01*
X0489872Y0088768D01*
G75*
G02*
X0490453Y0088187I0000000J-000581D01*
G01*
X0490453Y0087026D01*
G75*
G02*
X0489872Y0086445I-000581J0000000D01*
G01*
G37*
G36*
G01*
X0489872Y0090264D02*
X0488514Y0090264D01*
G75*
G02*
X0487933Y0090845I0000000J0000581D01*
G01*
X0487933Y0092006D01*
G75*
G02*
X0488514Y0092587I0000581J0000000D01*
G01*
X0489872Y0092587D01*
G75*
G02*
X0490453Y0092006I0000000J-000581D01*
G01*
X0490453Y0090845D01*
G75*
G02*
X0489872Y0090264I-000581J0000000D01*
G01*
G37*
G36*
G01*
X0445763Y0090992D02*
X0447780Y0090992D01*
G75*
G02*
X0448642Y0090131I0000000J-000861D01*
G01*
X0448642Y0088409D01*
G75*
G02*
X0447780Y0087548I-000861J0000000D01*
G01*
X0445763Y0087548D01*
G75*
G02*
X0444902Y0088409I0000000J0000861D01*
G01*
X0444902Y0090131D01*
G75*
G02*
X0445763Y0090992I0000861J0000000D01*
G01*
G37*
G36*
G01*
X0445763Y0084792D02*
X0447780Y0084792D01*
G75*
G02*
X0448642Y0083930I0000000J-000861D01*
G01*
X0448642Y0082208D01*
G75*
G02*
X0447780Y0081347I-000861J0000000D01*
G01*
X0445763Y0081347D01*
G75*
G02*
X0444902Y0082208I0000000J0000861D01*
G01*
X0444902Y0083930D01*
G75*
G02*
X0445763Y0084792I0000861J0000000D01*
G01*
G37*
G36*
G01*
X0513602Y0092395D02*
X0513602Y0090377D01*
G75*
G02*
X0512741Y0089516I-000861J0000000D01*
G01*
X0511019Y0089516D01*
G75*
G02*
X0510157Y0090377I0000000J0000861D01*
G01*
X0510157Y0092395D01*
G75*
G02*
X0511019Y0093256I0000861J0000000D01*
G01*
X0512741Y0093256D01*
G75*
G02*
X0513602Y0092395I0000000J-000861D01*
G01*
G37*
G36*
G01*
X0507402Y0092395D02*
X0507402Y0090377D01*
G75*
G02*
X0506540Y0089516I-000861J0000000D01*
G01*
X0504818Y0089516D01*
G75*
G02*
X0503957Y0090377I0000000J0000861D01*
G01*
X0503957Y0092395D01*
G75*
G02*
X0504818Y0093256I0000861J0000000D01*
G01*
X0506540Y0093256D01*
G75*
G02*
X0507402Y0092395I0000000J-000861D01*
G01*
G37*
G36*
G01*
X0517923Y0088217D02*
X0516565Y0088217D01*
G75*
G02*
X0515984Y0088798I0000000J0000581D01*
G01*
X0515984Y0089959D01*
G75*
G02*
X0516565Y0090540I0000581J0000000D01*
G01*
X0517923Y0090540D01*
G75*
G02*
X0518504Y0089959I0000000J-000581D01*
G01*
X0518504Y0088798D01*
G75*
G02*
X0517923Y0088217I-000581J0000000D01*
G01*
G37*
G36*
G01*
X0517923Y0092036D02*
X0516565Y0092036D01*
G75*
G02*
X0515984Y0092617I0000000J0000581D01*
G01*
X0515984Y0093778D01*
G75*
G02*
X0516565Y0094359I0000581J0000000D01*
G01*
X0517923Y0094359D01*
G75*
G02*
X0518504Y0093778I0000000J-000581D01*
G01*
X0518504Y0092617D01*
G75*
G02*
X0517923Y0092036I-000581J0000000D01*
G01*
G37*
G36*
G01*
X0483484Y0075540D02*
X0483484Y0076524D01*
G75*
G02*
X0483976Y0077016I0000492J0000000D01*
G01*
X0488898Y0077016D01*
G75*
G02*
X0489390Y0076524I0000000J-000492D01*
G01*
X0489390Y0075540D01*
G75*
G02*
X0488898Y0075048I-000492J0000000D01*
G01*
X0483976Y0075048D01*
G75*
G02*
X0483484Y0075540I0000000J0000492D01*
G01*
G37*
G36*
G01*
X0483484Y0072390D02*
X0483484Y0073374D01*
G75*
G02*
X0483976Y0073867I0000492J0000000D01*
G01*
X0488898Y0073867D01*
G75*
G02*
X0489390Y0073374I0000000J-000492D01*
G01*
X0489390Y0072390D01*
G75*
G02*
X0488898Y0071898I-000492J0000000D01*
G01*
X0483976Y0071898D01*
G75*
G02*
X0483484Y0072390I0000000J0000492D01*
G01*
G37*
G36*
G01*
X0483484Y0069241D02*
X0483484Y0070225D01*
G75*
G02*
X0483976Y0070717I0000492J0000000D01*
G01*
X0488898Y0070717D01*
G75*
G02*
X0489390Y0070225I0000000J-000492D01*
G01*
X0489390Y0069241D01*
G75*
G02*
X0488898Y0068748I-000492J0000000D01*
G01*
X0483976Y0068748D01*
G75*
G02*
X0483484Y0069241I0000000J0000492D01*
G01*
G37*
G36*
G01*
X0483484Y0066091D02*
X0483484Y0067075D01*
G75*
G02*
X0483976Y0067567I0000492J0000000D01*
G01*
X0488898Y0067567D01*
G75*
G02*
X0489390Y0067075I0000000J-000492D01*
G01*
X0489390Y0066091D01*
G75*
G02*
X0488898Y0065599I-000492J0000000D01*
G01*
X0483976Y0065599D01*
G75*
G02*
X0483484Y0066091I0000000J0000492D01*
G01*
G37*
G36*
G01*
X0483484Y0062941D02*
X0483484Y0063926D01*
G75*
G02*
X0483976Y0064418I0000492J0000000D01*
G01*
X0488898Y0064418D01*
G75*
G02*
X0489390Y0063926I0000000J-000492D01*
G01*
X0489390Y0062941D01*
G75*
G02*
X0488898Y0062449I-000492J0000000D01*
G01*
X0483976Y0062449D01*
G75*
G02*
X0483484Y0062941I0000000J0000492D01*
G01*
G37*
G36*
G01*
X0483484Y0059792D02*
X0483484Y0060776D01*
G75*
G02*
X0483976Y0061268I0000492J0000000D01*
G01*
X0488898Y0061268D01*
G75*
G02*
X0489390Y0060776I0000000J-000492D01*
G01*
X0489390Y0059792D01*
G75*
G02*
X0488898Y0059300I-000492J0000000D01*
G01*
X0483976Y0059300D01*
G75*
G02*
X0483484Y0059792I0000000J0000492D01*
G01*
G37*
G36*
G01*
X0483484Y0056642D02*
X0483484Y0057626D01*
G75*
G02*
X0483976Y0058118I0000492J0000000D01*
G01*
X0488898Y0058118D01*
G75*
G02*
X0489390Y0057626I0000000J-000492D01*
G01*
X0489390Y0056642D01*
G75*
G02*
X0488898Y0056150I-000492J0000000D01*
G01*
X0483976Y0056150D01*
G75*
G02*
X0483484Y0056642I0000000J0000492D01*
G01*
G37*
G36*
G01*
X0483484Y0053492D02*
X0483484Y0054477D01*
G75*
G02*
X0483976Y0054969I0000492J0000000D01*
G01*
X0488898Y0054969D01*
G75*
G02*
X0489390Y0054477I0000000J-000492D01*
G01*
X0489390Y0053492D01*
G75*
G02*
X0488898Y0053000I-000492J0000000D01*
G01*
X0483976Y0053000D01*
G75*
G02*
X0483484Y0053492I0000000J0000492D01*
G01*
G37*
G36*
G01*
X0490866Y0046111D02*
X0490866Y0051032D01*
G75*
G02*
X0491358Y0051524I0000492J0000000D01*
G01*
X0492342Y0051524D01*
G75*
G02*
X0492835Y0051032I0000000J-000492D01*
G01*
X0492835Y0046111D01*
G75*
G02*
X0492342Y0045618I-000492J0000000D01*
G01*
X0491358Y0045618D01*
G75*
G02*
X0490866Y0046111I0000000J0000492D01*
G01*
G37*
G36*
G01*
X0494016Y0046111D02*
X0494016Y0051032D01*
G75*
G02*
X0494508Y0051524I0000492J0000000D01*
G01*
X0495492Y0051524D01*
G75*
G02*
X0495984Y0051032I0000000J-000492D01*
G01*
X0495984Y0046111D01*
G75*
G02*
X0495492Y0045618I-000492J0000000D01*
G01*
X0494508Y0045618D01*
G75*
G02*
X0494016Y0046111I0000000J0000492D01*
G01*
G37*
G36*
G01*
X0497165Y0046111D02*
X0497165Y0051032D01*
G75*
G02*
X0497657Y0051524I0000492J0000000D01*
G01*
X0498642Y0051524D01*
G75*
G02*
X0499134Y0051032I0000000J-000492D01*
G01*
X0499134Y0046111D01*
G75*
G02*
X0498642Y0045618I-000492J0000000D01*
G01*
X0497657Y0045618D01*
G75*
G02*
X0497165Y0046111I0000000J0000492D01*
G01*
G37*
G36*
G01*
X0500315Y0046111D02*
X0500315Y0051032D01*
G75*
G02*
X0500807Y0051524I0000492J0000000D01*
G01*
X0501791Y0051524D01*
G75*
G02*
X0502283Y0051032I0000000J-000492D01*
G01*
X0502283Y0046111D01*
G75*
G02*
X0501791Y0045618I-000492J0000000D01*
G01*
X0500807Y0045618D01*
G75*
G02*
X0500315Y0046111I0000000J0000492D01*
G01*
G37*
G36*
G01*
X0503465Y0046111D02*
X0503465Y0051032D01*
G75*
G02*
X0503957Y0051524I0000492J0000000D01*
G01*
X0504941Y0051524D01*
G75*
G02*
X0505433Y0051032I0000000J-000492D01*
G01*
X0505433Y0046111D01*
G75*
G02*
X0504941Y0045618I-000492J0000000D01*
G01*
X0503957Y0045618D01*
G75*
G02*
X0503465Y0046111I0000000J0000492D01*
G01*
G37*
G36*
G01*
X0506614Y0046111D02*
X0506614Y0051032D01*
G75*
G02*
X0507106Y0051524I0000492J0000000D01*
G01*
X0508090Y0051524D01*
G75*
G02*
X0508583Y0051032I0000000J-000492D01*
G01*
X0508583Y0046111D01*
G75*
G02*
X0508090Y0045618I-000492J0000000D01*
G01*
X0507106Y0045618D01*
G75*
G02*
X0506614Y0046111I0000000J0000492D01*
G01*
G37*
G36*
G01*
X0509764Y0046111D02*
X0509764Y0051032D01*
G75*
G02*
X0510256Y0051524I0000492J0000000D01*
G01*
X0511240Y0051524D01*
G75*
G02*
X0511732Y0051032I0000000J-000492D01*
G01*
X0511732Y0046111D01*
G75*
G02*
X0511240Y0045618I-000492J0000000D01*
G01*
X0510256Y0045618D01*
G75*
G02*
X0509764Y0046111I0000000J0000492D01*
G01*
G37*
G36*
G01*
X0512913Y0046111D02*
X0512913Y0051032D01*
G75*
G02*
X0513405Y0051524I0000492J0000000D01*
G01*
X0514390Y0051524D01*
G75*
G02*
X0514882Y0051032I0000000J-000492D01*
G01*
X0514882Y0046111D01*
G75*
G02*
X0514390Y0045618I-000492J0000000D01*
G01*
X0513405Y0045618D01*
G75*
G02*
X0512913Y0046111I0000000J0000492D01*
G01*
G37*
G36*
G01*
X0516358Y0053492D02*
X0516358Y0054477D01*
G75*
G02*
X0516850Y0054969I0000492J0000000D01*
G01*
X0521772Y0054969D01*
G75*
G02*
X0522264Y0054477I0000000J-000492D01*
G01*
X0522264Y0053492D01*
G75*
G02*
X0521772Y0053000I-000492J0000000D01*
G01*
X0516850Y0053000D01*
G75*
G02*
X0516358Y0053492I0000000J0000492D01*
G01*
G37*
G36*
G01*
X0516358Y0056642D02*
X0516358Y0057626D01*
G75*
G02*
X0516850Y0058118I0000492J0000000D01*
G01*
X0521772Y0058118D01*
G75*
G02*
X0522264Y0057626I0000000J-000492D01*
G01*
X0522264Y0056642D01*
G75*
G02*
X0521772Y0056150I-000492J0000000D01*
G01*
X0516850Y0056150D01*
G75*
G02*
X0516358Y0056642I0000000J0000492D01*
G01*
G37*
G36*
G01*
X0516358Y0059792D02*
X0516358Y0060776D01*
G75*
G02*
X0516850Y0061268I0000492J0000000D01*
G01*
X0521772Y0061268D01*
G75*
G02*
X0522264Y0060776I0000000J-000492D01*
G01*
X0522264Y0059792D01*
G75*
G02*
X0521772Y0059300I-000492J0000000D01*
G01*
X0516850Y0059300D01*
G75*
G02*
X0516358Y0059792I0000000J0000492D01*
G01*
G37*
G36*
G01*
X0516358Y0062941D02*
X0516358Y0063926D01*
G75*
G02*
X0516850Y0064418I0000492J0000000D01*
G01*
X0521772Y0064418D01*
G75*
G02*
X0522264Y0063926I0000000J-000492D01*
G01*
X0522264Y0062941D01*
G75*
G02*
X0521772Y0062449I-000492J0000000D01*
G01*
X0516850Y0062449D01*
G75*
G02*
X0516358Y0062941I0000000J0000492D01*
G01*
G37*
G36*
G01*
X0516358Y0066091D02*
X0516358Y0067075D01*
G75*
G02*
X0516850Y0067567I0000492J0000000D01*
G01*
X0521772Y0067567D01*
G75*
G02*
X0522264Y0067075I0000000J-000492D01*
G01*
X0522264Y0066091D01*
G75*
G02*
X0521772Y0065599I-000492J0000000D01*
G01*
X0516850Y0065599D01*
G75*
G02*
X0516358Y0066091I0000000J0000492D01*
G01*
G37*
G36*
G01*
X0516358Y0069241D02*
X0516358Y0070225D01*
G75*
G02*
X0516850Y0070717I0000492J0000000D01*
G01*
X0521772Y0070717D01*
G75*
G02*
X0522264Y0070225I0000000J-000492D01*
G01*
X0522264Y0069241D01*
G75*
G02*
X0521772Y0068748I-000492J0000000D01*
G01*
X0516850Y0068748D01*
G75*
G02*
X0516358Y0069241I0000000J0000492D01*
G01*
G37*
G36*
G01*
X0516358Y0072390D02*
X0516358Y0073374D01*
G75*
G02*
X0516850Y0073867I0000492J0000000D01*
G01*
X0521772Y0073867D01*
G75*
G02*
X0522264Y0073374I0000000J-000492D01*
G01*
X0522264Y0072390D01*
G75*
G02*
X0521772Y0071898I-000492J0000000D01*
G01*
X0516850Y0071898D01*
G75*
G02*
X0516358Y0072390I0000000J0000492D01*
G01*
G37*
G36*
G01*
X0516358Y0075540D02*
X0516358Y0076524D01*
G75*
G02*
X0516850Y0077016I0000492J0000000D01*
G01*
X0521772Y0077016D01*
G75*
G02*
X0522264Y0076524I0000000J-000492D01*
G01*
X0522264Y0075540D01*
G75*
G02*
X0521772Y0075048I-000492J0000000D01*
G01*
X0516850Y0075048D01*
G75*
G02*
X0516358Y0075540I0000000J0000492D01*
G01*
G37*
G36*
G01*
X0512913Y0078985D02*
X0512913Y0083906D01*
G75*
G02*
X0513405Y0084398I0000492J0000000D01*
G01*
X0514390Y0084398D01*
G75*
G02*
X0514882Y0083906I0000000J-000492D01*
G01*
X0514882Y0078985D01*
G75*
G02*
X0514390Y0078492I-000492J0000000D01*
G01*
X0513405Y0078492D01*
G75*
G02*
X0512913Y0078985I0000000J0000492D01*
G01*
G37*
G36*
G01*
X0509764Y0078985D02*
X0509764Y0083906D01*
G75*
G02*
X0510256Y0084398I0000492J0000000D01*
G01*
X0511240Y0084398D01*
G75*
G02*
X0511732Y0083906I0000000J-000492D01*
G01*
X0511732Y0078985D01*
G75*
G02*
X0511240Y0078492I-000492J0000000D01*
G01*
X0510256Y0078492D01*
G75*
G02*
X0509764Y0078985I0000000J0000492D01*
G01*
G37*
G36*
G01*
X0506614Y0078985D02*
X0506614Y0083906D01*
G75*
G02*
X0507106Y0084398I0000492J0000000D01*
G01*
X0508090Y0084398D01*
G75*
G02*
X0508583Y0083906I0000000J-000492D01*
G01*
X0508583Y0078985D01*
G75*
G02*
X0508090Y0078492I-000492J0000000D01*
G01*
X0507106Y0078492D01*
G75*
G02*
X0506614Y0078985I0000000J0000492D01*
G01*
G37*
G36*
G01*
X0503465Y0078985D02*
X0503465Y0083906D01*
G75*
G02*
X0503957Y0084398I0000492J0000000D01*
G01*
X0504941Y0084398D01*
G75*
G02*
X0505433Y0083906I0000000J-000492D01*
G01*
X0505433Y0078985D01*
G75*
G02*
X0504941Y0078492I-000492J0000000D01*
G01*
X0503957Y0078492D01*
G75*
G02*
X0503465Y0078985I0000000J0000492D01*
G01*
G37*
G36*
G01*
X0500315Y0078985D02*
X0500315Y0083906D01*
G75*
G02*
X0500807Y0084398I0000492J0000000D01*
G01*
X0501791Y0084398D01*
G75*
G02*
X0502283Y0083906I0000000J-000492D01*
G01*
X0502283Y0078985D01*
G75*
G02*
X0501791Y0078492I-000492J0000000D01*
G01*
X0500807Y0078492D01*
G75*
G02*
X0500315Y0078985I0000000J0000492D01*
G01*
G37*
G36*
G01*
X0497165Y0078985D02*
X0497165Y0083906D01*
G75*
G02*
X0497657Y0084398I0000492J0000000D01*
G01*
X0498642Y0084398D01*
G75*
G02*
X0499134Y0083906I0000000J-000492D01*
G01*
X0499134Y0078985D01*
G75*
G02*
X0498642Y0078492I-000492J0000000D01*
G01*
X0497657Y0078492D01*
G75*
G02*
X0497165Y0078985I0000000J0000492D01*
G01*
G37*
G36*
G01*
X0494016Y0078985D02*
X0494016Y0083906D01*
G75*
G02*
X0494508Y0084398I0000492J0000000D01*
G01*
X0495492Y0084398D01*
G75*
G02*
X0495984Y0083906I0000000J-000492D01*
G01*
X0495984Y0078985D01*
G75*
G02*
X0495492Y0078492I-000492J0000000D01*
G01*
X0494508Y0078492D01*
G75*
G02*
X0494016Y0078985I0000000J0000492D01*
G01*
G37*
G36*
G01*
X0490866Y0078985D02*
X0490866Y0083906D01*
G75*
G02*
X0491358Y0084398I0000492J0000000D01*
G01*
X0492342Y0084398D01*
G75*
G02*
X0492835Y0083906I0000000J-000492D01*
G01*
X0492835Y0078985D01*
G75*
G02*
X0492342Y0078492I-000492J0000000D01*
G01*
X0491358Y0078492D01*
G75*
G02*
X0490866Y0078985I0000000J0000492D01*
G01*
G37*
G36*
G01*
X0525492Y0057439D02*
X0525492Y0058798D01*
G75*
G02*
X0526073Y0059378I0000581J0000000D01*
G01*
X0527234Y0059378D01*
G75*
G02*
X0527815Y0058798I0000000J-000581D01*
G01*
X0527815Y0057439D01*
G75*
G02*
X0527234Y0056859I-000581J0000000D01*
G01*
X0526073Y0056859D01*
G75*
G02*
X0525492Y0057439I0000000J0000581D01*
G01*
G37*
G36*
G01*
X0529311Y0057439D02*
X0529311Y0058798D01*
G75*
G02*
X0529892Y0059378I0000581J0000000D01*
G01*
X0531053Y0059378D01*
G75*
G02*
X0531634Y0058798I0000000J-000581D01*
G01*
X0531634Y0057439D01*
G75*
G02*
X0531053Y0056859I-000581J0000000D01*
G01*
X0529892Y0056859D01*
G75*
G02*
X0529311Y0057439I0000000J0000581D01*
G01*
G37*
G36*
G01*
X0518415Y0080835D02*
X0517057Y0080835D01*
G75*
G02*
X0516476Y0081416I0000000J0000581D01*
G01*
X0516476Y0082577D01*
G75*
G02*
X0517057Y0083158I0000581J0000000D01*
G01*
X0518415Y0083158D01*
G75*
G02*
X0518996Y0082577I0000000J-000581D01*
G01*
X0518996Y0081416D01*
G75*
G02*
X0518415Y0080835I-000581J0000000D01*
G01*
G37*
G36*
G01*
X0518415Y0084654D02*
X0517057Y0084654D01*
G75*
G02*
X0516476Y0085235I0000000J0000581D01*
G01*
X0516476Y0086396D01*
G75*
G02*
X0517057Y0086977I0000581J0000000D01*
G01*
X0518415Y0086977D01*
G75*
G02*
X0518996Y0086396I0000000J-000581D01*
G01*
X0518996Y0085235D01*
G75*
G02*
X0518415Y0084654I-000581J0000000D01*
G01*
G37*
G36*
G01*
X0542059Y0058798D02*
X0542059Y0057439D01*
G75*
G02*
X0541478Y0056859I-000581J0000000D01*
G01*
X0540317Y0056859D01*
G75*
G02*
X0539736Y0057439I0000000J0000581D01*
G01*
X0539736Y0058798D01*
G75*
G02*
X0540317Y0059378I0000581J0000000D01*
G01*
X0541478Y0059378D01*
G75*
G02*
X0542059Y0058798I0000000J-000581D01*
G01*
G37*
G36*
G01*
X0538240Y0058798D02*
X0538240Y0057439D01*
G75*
G02*
X0537659Y0056859I-000581J0000000D01*
G01*
X0536498Y0056859D01*
G75*
G02*
X0535917Y0057439I0000000J0000581D01*
G01*
X0535917Y0058798D01*
G75*
G02*
X0536498Y0059378I0000581J0000000D01*
G01*
X0537659Y0059378D01*
G75*
G02*
X0538240Y0058798I0000000J-000581D01*
G01*
G37*
D151*
X0540571Y0053197D03*
X0533090Y0053197D03*
X0536831Y0045323D03*
G36*
G01*
X0481506Y0078965D02*
X0480148Y0078965D01*
G75*
G02*
X0479567Y0079546I0000000J0000581D01*
G01*
X0479567Y0080707D01*
G75*
G02*
X0480148Y0081288I0000581J0000000D01*
G01*
X0481506Y0081288D01*
G75*
G02*
X0482087Y0080707I0000000J-000581D01*
G01*
X0482087Y0079546D01*
G75*
G02*
X0481506Y0078965I-000581J0000000D01*
G01*
G37*
G36*
G01*
X0481506Y0082784D02*
X0480148Y0082784D01*
G75*
G02*
X0479567Y0083365I0000000J0000581D01*
G01*
X0479567Y0084526D01*
G75*
G02*
X0480148Y0085107I0000581J0000000D01*
G01*
X0481506Y0085107D01*
G75*
G02*
X0482087Y0084526I0000000J-000581D01*
G01*
X0482087Y0083365D01*
G75*
G02*
X0481506Y0082784I-000581J0000000D01*
G01*
G37*
G36*
G01*
X0527633Y0043926D02*
X0525615Y0043926D01*
G75*
G02*
X0524754Y0044787I0000000J0000861D01*
G01*
X0524754Y0046509D01*
G75*
G02*
X0525615Y0047370I0000861J0000000D01*
G01*
X0527633Y0047370D01*
G75*
G02*
X0528494Y0046509I0000000J-000861D01*
G01*
X0528494Y0044787D01*
G75*
G02*
X0527633Y0043926I-000861J0000000D01*
G01*
G37*
G36*
G01*
X0527633Y0050126D02*
X0525615Y0050126D01*
G75*
G02*
X0524754Y0050988I0000000J0000861D01*
G01*
X0524754Y0052710D01*
G75*
G02*
X0525615Y0053571I0000861J0000000D01*
G01*
X0527633Y0053571D01*
G75*
G02*
X0528494Y0052710I0000000J-000861D01*
G01*
X0528494Y0050988D01*
G75*
G02*
X0527633Y0050126I-000861J0000000D01*
G01*
G37*
D155*
X0543386Y0086071D03*
X0523386Y0090071D03*
X0523386Y0082071D03*
D152*
X0538386Y0088571D03*
X0538386Y0083571D03*
X0533386Y0088571D03*
X0533386Y0083571D03*
X0528386Y0088571D03*
X0528386Y0083571D03*
D153*
X0453898Y0047193D03*
D154*
X0463898Y0047193D03*
X0473898Y0047193D03*
X0316484Y0215303D02*
G01*
G75*
D425*
X0192862Y0197213D02*
D03*
X0185775Y0197213D02*
D03*
X0185775Y0207252D02*
D03*
X0192862Y0207252D02*
D03*
X0304673Y0148472D02*
D03*
X0311760Y0148472D02*
D03*
X0311760Y0158512D02*
D03*
X0304673Y0158512D02*
D03*
X0304673Y0142370D02*
D03*
X0311760Y0142370D02*
D03*
X0311760Y0132330D02*
D03*
X0304673Y0132330D02*
D03*
D426*
X0192862Y0200657D02*
D03*
X0192862Y0203807D02*
D03*
X0185775Y0203807D02*
D03*
X0185775Y0200657D02*
D03*
X0311760Y0155067D02*
D03*
X0311760Y0151917D02*
D03*
X0304673Y0151917D02*
D03*
X0304673Y0155067D02*
D03*
X0304673Y0138925D02*
D03*
X0304673Y0135775D02*
D03*
X0311760Y0135775D02*
D03*
X0311760Y0138925D02*
D03*
D427*
X0197074Y0200209D02*
D03*
X0197074Y0197650D02*
D03*
X0197074Y0195090D02*
D03*
X0204554Y0200209D02*
D03*
X0204554Y0195090D02*
D03*
X0204554Y0197650D02*
D03*
X0204554Y0204834D02*
D03*
X0204554Y0209953D02*
D03*
X0197074Y0204834D02*
D03*
X0197074Y0207394D02*
D03*
X0197074Y0209953D02*
D03*
X0204554Y0207394D02*
D03*
D186*
X0264282Y0100933D02*
D03*
X0264282Y0102901D02*
D03*
X0264282Y0104870D02*
D03*
X0264282Y0106838D02*
D03*
X0264282Y0108807D02*
D03*
X0264282Y0110775D02*
D03*
X0264282Y0112744D02*
D03*
X0264282Y0114712D02*
D03*
X0264282Y0116681D02*
D03*
X0264282Y0120618D02*
D03*
X0264282Y0122587D02*
D03*
X0264282Y0124555D02*
D03*
X0264282Y0126524D02*
D03*
X0264282Y0128492D02*
D03*
X0264282Y0130461D02*
D03*
X0264282Y0132429D02*
D03*
X0264282Y0134398D02*
D03*
X0264282Y0136366D02*
D03*
X0264282Y0138335D02*
D03*
X0264282Y0140303D02*
D03*
X0264282Y0142271D02*
D03*
X0264282Y0144240D02*
D03*
X0264282Y0146208D02*
D03*
X0264282Y0148177D02*
D03*
X0203258Y0148177D02*
D03*
X0203258Y0146208D02*
D03*
X0203258Y0144240D02*
D03*
X0203258Y0142271D02*
D03*
X0203258Y0140303D02*
D03*
X0203258Y0138335D02*
D03*
X0203258Y0136366D02*
D03*
X0203258Y0134398D02*
D03*
X0203258Y0132429D02*
D03*
X0203258Y0130461D02*
D03*
X0203258Y0128492D02*
D03*
X0203258Y0126524D02*
D03*
X0203258Y0124555D02*
D03*
X0203258Y0122587D02*
D03*
X0203258Y0120618D02*
D03*
X0203258Y0118650D02*
D03*
X0203258Y0116681D02*
D03*
X0203258Y0114712D02*
D03*
X0203258Y0112744D02*
D03*
X0203258Y0110775D02*
D03*
X0203258Y0108807D02*
D03*
X0203258Y0106838D02*
D03*
X0203258Y0104870D02*
D03*
X0203258Y0100933D02*
D03*
X0264282Y0118650D02*
D03*
X0203258Y0102901D02*
D03*
D187*
X0257392Y0155067D02*
D03*
X0253455Y0155067D02*
D03*
X0251486Y0155067D02*
D03*
X0249518Y0155067D02*
D03*
X0247549Y0155067D02*
D03*
X0245581Y0155067D02*
D03*
X0243612Y0155067D02*
D03*
X0241644Y0155067D02*
D03*
X0239675Y0155067D02*
D03*
X0237707Y0155067D02*
D03*
X0235738Y0155067D02*
D03*
X0233770Y0155067D02*
D03*
X0231801Y0155067D02*
D03*
X0229833Y0155067D02*
D03*
X0227864Y0155067D02*
D03*
X0225896Y0155067D02*
D03*
X0223927Y0155067D02*
D03*
X0221959Y0155067D02*
D03*
X0219990Y0155067D02*
D03*
X0218022Y0155067D02*
D03*
X0216053Y0155067D02*
D03*
X0214085Y0155067D02*
D03*
X0212116Y0155067D02*
D03*
X0210148Y0155067D02*
D03*
X0210148Y0094043D02*
D03*
X0212116Y0094043D02*
D03*
X0214085Y0094043D02*
D03*
X0216053Y0094043D02*
D03*
X0218022Y0094043D02*
D03*
X0219990Y0094043D02*
D03*
X0221959Y0094043D02*
D03*
X0223927Y0094043D02*
D03*
X0225896Y0094043D02*
D03*
X0227864Y0094043D02*
D03*
X0229833Y0094043D02*
D03*
X0231801Y0094043D02*
D03*
X0233770Y0094043D02*
D03*
X0235738Y0094043D02*
D03*
X0237707Y0094043D02*
D03*
X0239675Y0094043D02*
D03*
X0241644Y0094043D02*
D03*
X0243612Y0094043D02*
D03*
X0245581Y0094043D02*
D03*
X0247549Y0094043D02*
D03*
X0249518Y0094043D02*
D03*
X0251486Y0094043D02*
D03*
X0253455Y0094043D02*
D03*
X0255423Y0094043D02*
D03*
X0257392Y0094043D02*
D03*
X0255423Y0155067D02*
D03*
D188*
X0260775Y0171996D02*
D03*
X0232823Y0171996D02*
D03*
X0288728Y0171996D02*
D03*
X0283216Y0177114D02*
D03*
X0255263Y0166878D02*
D03*
X0255263Y0169437D02*
D03*
X0255263Y0171996D02*
D03*
X0255263Y0174555D02*
D03*
X0255263Y0177114D02*
D03*
X0255263Y0179673D02*
D03*
X0255263Y0182232D02*
D03*
X0232823Y0166878D02*
D03*
X0232823Y0169437D02*
D03*
X0232823Y0174555D02*
D03*
X0232823Y0177114D02*
D03*
X0232823Y0179673D02*
D03*
X0232823Y0182232D02*
D03*
X0311169Y0166878D02*
D03*
X0311169Y0169437D02*
D03*
X0311169Y0171996D02*
D03*
X0311169Y0174555D02*
D03*
X0311169Y0177114D02*
D03*
X0311169Y0179673D02*
D03*
X0311169Y0182232D02*
D03*
X0288728Y0166878D02*
D03*
X0288728Y0169437D02*
D03*
X0288728Y0174555D02*
D03*
X0288728Y0177114D02*
D03*
X0288728Y0179673D02*
D03*
X0288728Y0182232D02*
D03*
X0283216Y0166878D02*
D03*
X0283216Y0169437D02*
D03*
X0283216Y0171996D02*
D03*
X0283216Y0174555D02*
D03*
X0283216Y0179673D02*
D03*
X0283216Y0182232D02*
D03*
X0260775Y0166878D02*
D03*
X0260775Y0169437D02*
D03*
X0260775Y0174555D02*
D03*
X0260775Y0177114D02*
D03*
X0260775Y0179673D02*
D03*
X0260775Y0182232D02*
D03*
X0204870Y0182232D02*
D03*
X0204870Y0179673D02*
D03*
X0204870Y0177114D02*
D03*
X0204870Y0174555D02*
D03*
X0204870Y0171996D02*
D03*
X0204870Y0169437D02*
D03*
X0204870Y0166878D02*
D03*
X0227311Y0182232D02*
D03*
X0227311Y0179673D02*
D03*
X0227311Y0177114D02*
D03*
X0227311Y0174555D02*
D03*
X0227311Y0171996D02*
D03*
X0227311Y0169437D02*
D03*
X0227311Y0166878D02*
D03*
D189*
X0206366Y0081110D02*
D03*
X0206366Y0086110D02*
D03*
X0211366Y0081110D02*
D03*
X0211366Y0086110D02*
D03*
X0216366Y0081110D02*
D03*
X0216366Y0086110D02*
D03*
D428*
X0192075Y0079870D02*
D03*
X0188334Y0079870D02*
D03*
X0195815Y0079870D02*
D03*
X0195815Y0089319D02*
D03*
X0192075Y0089319D02*
D03*
X0188334Y0089319D02*
D03*
D429*
X0190625Y0101130D02*
D03*
X0190625Y0096405D02*
D03*
X0192094Y0110677D02*
D03*
X0278634Y0083892D02*
D03*
X0265322Y0159758D02*
D03*
X0194561Y0101130D02*
D03*
X0188156Y0110677D02*
D03*
X0193456Y0147661D02*
D03*
X0189519Y0147661D02*
D03*
X0193456Y0156716D02*
D03*
X0189519Y0156716D02*
D03*
X0194561Y0096405D02*
D03*
X0274697Y0083892D02*
D03*
X0281774Y0100607D02*
D03*
X0277837Y0100607D02*
D03*
X0261385Y0159758D02*
D03*
X0261366Y0155462D02*
D03*
X0265303Y0155462D02*
D03*
D192*
X0188168Y0119312D02*
D03*
X0188168Y0121280D02*
D03*
X0194467Y0117343D02*
D03*
X0194467Y0119312D02*
D03*
X0194467Y0115375D02*
D03*
X0194467Y0121280D02*
D03*
X0188168Y0115375D02*
D03*
X0188168Y0117343D02*
D03*
D193*
X0190333Y0121477D02*
D03*
X0192302Y0121477D02*
D03*
X0192302Y0115178D02*
D03*
X0190333Y0115178D02*
D03*
D430*
X0193073Y0126327D02*
D03*
X0193073Y0142862D02*
D03*
D431*
X0221602Y0198768D02*
D03*
X0212153Y0198768D02*
D03*
X0216878Y0198768D02*
D03*
X0226326Y0198768D02*
D03*
X0212153Y0210185D02*
D03*
X0221602Y0210185D02*
D03*
X0216878Y0210185D02*
D03*
X0226326Y0210185D02*
D03*
X0232536Y0191788D02*
D03*
X0232536Y0187851D02*
D03*
X0226326Y0206248D02*
D03*
D03*
X0226326Y0202311D02*
D03*
X0221602Y0206248D02*
D03*
X0221602Y0202311D02*
D03*
X0226326Y0194831D02*
D03*
X0216878Y0206248D02*
D03*
X0216878Y0202311D02*
D03*
X0221602Y0194831D02*
D03*
X0216878Y0194831D02*
D03*
X0212153Y0206248D02*
D03*
X0212153Y0202311D02*
D03*
X0212153Y0206248D02*
D03*
X0212153Y0194831D02*
D03*
X0221602Y0206248D02*
D03*
X0216878Y0206248D02*
D03*
X0312350Y0203886D02*
D03*
X0312350Y0207823D02*
D03*
X0287744Y0206248D02*
D03*
X0287744Y0210185D02*
D03*
X0273571Y0206248D02*
D03*
X0273571Y0210185D02*
D03*
X0254673Y0202311D02*
D03*
X0254673Y0206248D02*
D03*
X0254673Y0210185D02*
D03*
X0254673Y0206248D02*
D03*
X0240500Y0202311D02*
D03*
X0240500Y0206248D02*
D03*
X0312350Y0187153D02*
D03*
X0312350Y0191090D02*
D03*
X0306641Y0206248D02*
D03*
X0306641Y0202311D02*
D03*
X0301917Y0206248D02*
D03*
X0301917Y0202311D02*
D03*
X0297193Y0206248D02*
D03*
X0297193Y0202311D02*
D03*
X0292468Y0206248D02*
D03*
X0292468Y0202311D02*
D03*
X0306641Y0206248D02*
D03*
X0306641Y0210185D02*
D03*
X0301917Y0206248D02*
D03*
X0301917Y0210185D02*
D03*
X0297193Y0206248D02*
D03*
X0297193Y0210185D02*
D03*
X0292468Y0206248D02*
D03*
X0292468Y0210185D02*
D03*
X0287744Y0206248D02*
D03*
X0287744Y0202311D02*
D03*
X0283019Y0206248D02*
D03*
X0283019Y0202311D02*
D03*
X0278295Y0206248D02*
D03*
X0278295Y0202311D02*
D03*
X0273571Y0206248D02*
D03*
X0273571Y0202311D02*
D03*
X0283019Y0206248D02*
D03*
X0283019Y0210185D02*
D03*
X0278295Y0206248D02*
D03*
X0278295Y0210185D02*
D03*
X0268846Y0202311D02*
D03*
X0268846Y0206248D02*
D03*
X0264122Y0202311D02*
D03*
X0264122Y0206248D02*
D03*
X0259397Y0202311D02*
D03*
X0259397Y0206248D02*
D03*
X0268846Y0210185D02*
D03*
X0268846Y0206248D02*
D03*
X0264122Y0210185D02*
D03*
X0264122Y0206248D02*
D03*
X0259397Y0210185D02*
D03*
X0259397Y0206248D02*
D03*
X0249948Y0202311D02*
D03*
X0249948Y0206248D02*
D03*
X0245224Y0202311D02*
D03*
X0245224Y0206248D02*
D03*
X0235775Y0202311D02*
D03*
X0235775Y0206248D02*
D03*
X0249948Y0210185D02*
D03*
X0249948Y0206248D02*
D03*
X0245224Y0210185D02*
D03*
X0245224Y0206248D02*
D03*
X0240500Y0210185D02*
D03*
X0240500Y0206248D02*
D03*
X0235775Y0210185D02*
D03*
X0235775Y0206248D02*
D03*
X0312350Y0196209D02*
D03*
X0312350Y0200146D02*
D03*
D432*
X0247586Y0193256D02*
D03*
X0266484Y0193256D02*
D03*
X0285382Y0193256D02*
D03*
X0304279Y0193256D02*
D03*
X0275933Y0189516D02*
D03*
X0275933Y0193256D02*
D03*
X0275933Y0196996D02*
D03*
X0285382Y0196996D02*
D03*
X0285382Y0189516D02*
D03*
X0294830Y0189516D02*
D03*
X0294830Y0193256D02*
D03*
X0294830Y0196996D02*
D03*
X0304279Y0196996D02*
D03*
X0304279Y0189516D02*
D03*
X0257035Y0189516D02*
D03*
X0257035Y0193256D02*
D03*
X0257035Y0196996D02*
D03*
X0266484Y0196996D02*
D03*
X0266484Y0189516D02*
D03*
X0238137Y0189516D02*
D03*
X0238137Y0193256D02*
D03*
X0238137Y0196996D02*
D03*
X0247586Y0196996D02*
D03*
X0247586Y0189516D02*
D03*
D433*
X0281571Y0096221D02*
D03*
X0263649Y0085972D02*
D03*
D198*
X0290893Y0121344D02*
D03*
X0309791Y0126344D02*
D03*
X0309791Y0111344D02*
D03*
X0309791Y0116344D02*
D03*
X0309791Y0121344D02*
D03*
X0290893Y0111344D02*
D03*
X0290893Y0116344D02*
D03*
X0290893Y0126344D02*
D03*
D434*
X0309201Y0103703D02*
D03*
X0291090Y0103703D02*
D03*
D435*
X0274739Y0135229D02*
D03*
X0290948Y0135777D02*
D03*
X0274262Y0143389D02*
D03*
X0274262Y0151000D02*
D03*
X0290948Y0143389D02*
D03*
X0290948Y0151000D02*
D03*
X0274262Y0158612D02*
D03*
X0290948Y0158612D02*
D03*
X0281432Y0135229D02*
D03*
X0280955Y0143389D02*
D03*
X0280955Y0151000D02*
D03*
X0280955Y0158612D02*
D03*
X0297641Y0143389D02*
D03*
X0297641Y0135777D02*
D03*
X0281432Y0127252D02*
D03*
X0274739Y0127252D02*
D03*
X0274739Y0120165D02*
D03*
X0281432Y0120165D02*
D03*
X0281432Y0113079D02*
D03*
X0274739Y0113079D02*
D03*
X0274739Y0105992D02*
D03*
X0281432Y0105992D02*
D03*
X0297641Y0151000D02*
D03*
X0297641Y0158612D02*
D03*
X0274739Y0078492D02*
D03*
X0281432Y0078492D02*
D03*
D436*
X0188065Y0105905D02*
D03*
X0194365Y0105905D02*
D03*
X0195425Y0152346D02*
D03*
X0189125Y0152346D02*
D03*
D437*
X0228690Y0082963D02*
D03*
X0245225Y0082963D02*
D03*
D433*
X0263649Y0078492D02*
D03*
X0254397Y0082232D02*
D03*
X0281571Y0088741D02*
D03*
X0272319Y0092481D02*
D03*
D438*
X0300145Y0079293D02*
D03*
D439*
X0300145Y0103703D02*
D03*
D205*
X0230854Y0206248D02*
D03*
X0311760Y0212153D02*
D03*
D440*
X0193663Y0188506D02*
D03*
X0193663Y0170790D02*
D03*
D207*
X0238571Y0161169D02*
D03*
X0224358Y0161169D02*
D03*
X0254358Y0161169D02*
D03*
D208*
X0201366Y0083610D02*
D03*
X0221366Y0087610D02*
D03*
X0221366Y0079610D02*
D03*
D31*
X0312153Y0077901D02*
D03*
X0006953Y0137713D02*
%LPD*%
G01*
G36*
G01*
X0042662Y0070105D02*
X0042662Y0071463D01*
G75*
G02*
X0043242Y0072044I0000581J0000000D01*
G01*
X0044404Y0072044D01*
G75*
G02*
X0044984Y0071463I0000000J-000581D01*
G01*
X0044984Y0070105D01*
G75*
G02*
X0044404Y0069524I-000581J0000000D01*
G01*
X0043242Y0069524D01*
G75*
G02*
X0042662Y0070105I0000000J0000581D01*
G01*
G37*
G36*
G01*
X0046481Y0070105D02*
X0046481Y0071463D01*
G75*
G02*
X0047061Y0072044I0000581J0000000D01*
G01*
X0048223Y0072044D01*
G75*
G02*
X0048803Y0071463I0000000J-000581D01*
G01*
X0048803Y0070105D01*
G75*
G02*
X0048223Y0069524I-000581J0000000D01*
G01*
X0047061Y0069524D01*
G75*
G02*
X0046481Y0070105I0000000J0000581D01*
G01*
G37*
G36*
G01*
X0027238Y0128678D02*
X0028597Y0128678D01*
G75*
G02*
X0029177Y0128097I0000000J-000581D01*
G01*
X0029177Y0126935D01*
G75*
G02*
X0028597Y0126355I-000581J0000000D01*
G01*
X0027238Y0126355D01*
G75*
G02*
X0026658Y0126935I0000000J0000581D01*
G01*
X0026658Y0128097D01*
G75*
G02*
X0027238Y0128678I0000581J0000000D01*
G01*
G37*
G36*
G01*
X0027238Y0124859D02*
X0028597Y0124859D01*
G75*
G02*
X0029177Y0124278I0000000J-000581D01*
G01*
X0029177Y0123117D01*
G75*
G02*
X0028597Y0122536I-000581J0000000D01*
G01*
X0027238Y0122536D01*
G75*
G02*
X0026658Y0123117I0000000J0000581D01*
G01*
X0026658Y0124278D01*
G75*
G02*
X0027238Y0124859I0000581J0000000D01*
G01*
G37*
G36*
G01*
X0042435Y0118151D02*
X0042435Y0116133D01*
G75*
G02*
X0041574Y0115272I-000861J0000000D01*
G01*
X0039852Y0115272D01*
G75*
G02*
X0038990Y0116133I0000000J0000861D01*
G01*
X0038990Y0118151D01*
G75*
G02*
X0039852Y0119012I0000861J0000000D01*
G01*
X0041574Y0119012D01*
G75*
G02*
X0042435Y0118151I0000000J-000861D01*
G01*
G37*
G36*
G01*
X0036234Y0118151D02*
X0036234Y0116133D01*
G75*
G02*
X0035373Y0115272I-000861J0000000D01*
G01*
X0033651Y0115272D01*
G75*
G02*
X0032790Y0116133I0000000J0000861D01*
G01*
X0032790Y0118151D01*
G75*
G02*
X0033651Y0119012I0000861J0000000D01*
G01*
X0035373Y0119012D01*
G75*
G02*
X0036234Y0118151I0000000J-000861D01*
G01*
G37*
G36*
G01*
X0017406Y0071660D02*
X0017406Y0070302D01*
G75*
G02*
X0016825Y0069721I-000581J0000000D01*
G01*
X0015664Y0069721D01*
G75*
G02*
X0015083Y0070302I0000000J0000581D01*
G01*
X0015083Y0071660D01*
G75*
G02*
X0015664Y0072241I0000581J0000000D01*
G01*
X0016825Y0072241D01*
G75*
G02*
X0017406Y0071660I0000000J-000581D01*
G01*
G37*
G36*
G01*
X0013587Y0071660D02*
X0013587Y0070302D01*
G75*
G02*
X0013006Y0069721I-000581J0000000D01*
G01*
X0011845Y0069721D01*
G75*
G02*
X0011264Y0070302I0000000J0000581D01*
G01*
X0011264Y0071660D01*
G75*
G02*
X0011845Y0072241I0000581J0000000D01*
G01*
X0013006Y0072241D01*
G75*
G02*
X0013587Y0071660I0000000J-000581D01*
G01*
G37*
D151*
X0033233Y0122851D03*
X0040713Y0122851D03*
X0036973Y0130725D03*
G36*
G01*
X0017406Y0075843D02*
X0017406Y0074485D01*
G75*
G02*
X0016825Y0073904I-000581J0000000D01*
G01*
X0015664Y0073904D01*
G75*
G02*
X0015083Y0074485I0000000J0000581D01*
G01*
X0015083Y0075843D01*
G75*
G02*
X0015664Y0076424I0000581J0000000D01*
G01*
X0016825Y0076424D01*
G75*
G02*
X0017406Y0075843I0000000J-000581D01*
G01*
G37*
G36*
G01*
X0013587Y0075843D02*
X0013587Y0074485D01*
G75*
G02*
X0013006Y0073904I-000581J0000000D01*
G01*
X0011845Y0073904D01*
G75*
G02*
X0011264Y0074485I0000000J0000581D01*
G01*
X0011264Y0075843D01*
G75*
G02*
X0011845Y0076424I0000581J0000000D01*
G01*
X0013006Y0076424D01*
G75*
G02*
X0013587Y0075843I0000000J-000581D01*
G01*
G37*
G36*
G01*
X0041323Y0071463D02*
X0041323Y0070105D01*
G75*
G02*
X0040742Y0069524I-000581J0000000D01*
G01*
X0039581Y0069524D01*
G75*
G02*
X0039000Y0070105I0000000J0000581D01*
G01*
X0039000Y0071463D01*
G75*
G02*
X0039581Y0072044I0000581J0000000D01*
G01*
X0040742Y0072044D01*
G75*
G02*
X0041323Y0071463I0000000J-000581D01*
G01*
G37*
G36*
G01*
X0037504Y0071463D02*
X0037504Y0070105D01*
G75*
G02*
X0036923Y0069524I-000581J0000000D01*
G01*
X0035762Y0069524D01*
G75*
G02*
X0035181Y0070105I0000000J0000581D01*
G01*
X0035181Y0071463D01*
G75*
G02*
X0035762Y0072044I0000581J0000000D01*
G01*
X0036923Y0072044D01*
G75*
G02*
X0037504Y0071463I0000000J-000581D01*
G01*
G37*
G36*
G01*
X0053587Y0075223D02*
X0053587Y0076581D01*
G75*
G02*
X0054168Y0077162I0000581J0000000D01*
G01*
X0055329Y0077162D01*
G75*
G02*
X0055910Y0076581I0000000J-000581D01*
G01*
X0055910Y0075223D01*
G75*
G02*
X0055329Y0074642I-000581J0000000D01*
G01*
X0054168Y0074642D01*
G75*
G02*
X0053587Y0075223I0000000J0000581D01*
G01*
G37*
G36*
G01*
X0057406Y0075223D02*
X0057406Y0076581D01*
G75*
G02*
X0057986Y0077162I0000581J0000000D01*
G01*
X0059148Y0077162D01*
G75*
G02*
X0059729Y0076581I0000000J-000581D01*
G01*
X0059729Y0075223D01*
G75*
G02*
X0059148Y0074642I-000581J0000000D01*
G01*
X0057986Y0074642D01*
G75*
G02*
X0057406Y0075223I0000000J0000581D01*
G01*
G37*
G36*
G01*
X0026815Y0070105D02*
X0026815Y0071463D01*
G75*
G02*
X0027396Y0072044I0000581J0000000D01*
G01*
X0028557Y0072044D01*
G75*
G02*
X0029138Y0071463I0000000J-000581D01*
G01*
X0029138Y0070105D01*
G75*
G02*
X0028557Y0069524I-000581J0000000D01*
G01*
X0027396Y0069524D01*
G75*
G02*
X0026815Y0070105I0000000J0000581D01*
G01*
G37*
G36*
G01*
X0030634Y0070105D02*
X0030634Y0071463D01*
G75*
G02*
X0031215Y0072044I0000581J0000000D01*
G01*
X0032376Y0072044D01*
G75*
G02*
X0032957Y0071463I0000000J-000581D01*
G01*
X0032957Y0070105D01*
G75*
G02*
X0032376Y0069524I-000581J0000000D01*
G01*
X0031215Y0069524D01*
G75*
G02*
X0030634Y0070105I0000000J0000581D01*
G01*
G37*
G36*
G01*
X0053587Y0109869D02*
X0053587Y0111227D01*
G75*
G02*
X0054168Y0111807I0000581J0000000D01*
G01*
X0055329Y0111807D01*
G75*
G02*
X0055910Y0111227I0000000J-000581D01*
G01*
X0055910Y0109869D01*
G75*
G02*
X0055329Y0109288I-000581J0000000D01*
G01*
X0054168Y0109288D01*
G75*
G02*
X0053587Y0109869I0000000J0000581D01*
G01*
G37*
G36*
G01*
X0057406Y0109869D02*
X0057406Y0111227D01*
G75*
G02*
X0057986Y0111807I0000581J0000000D01*
G01*
X0059148Y0111807D01*
G75*
G02*
X0059729Y0111227I0000000J-000581D01*
G01*
X0059729Y0109869D01*
G75*
G02*
X0059148Y0109288I-000581J0000000D01*
G01*
X0057986Y0109288D01*
G75*
G02*
X0057406Y0109869I0000000J0000581D01*
G01*
G37*
D327*
X0046914Y0045430D03*
D149*
X0018567Y0046532D03*
X0030378Y0054406D03*
X0018567Y0062280D03*
D328*
X0022110Y0054406D03*
D327*
X0046914Y0063382D03*
G36*
G01*
X0027140Y0120902D02*
X0028498Y0120902D01*
G75*
G02*
X0029079Y0120321I0000000J-000581D01*
G01*
X0029079Y0119160D01*
G75*
G02*
X0028498Y0118579I-000581J0000000D01*
G01*
X0027140Y0118579D01*
G75*
G02*
X0026559Y0119160I0000000J0000581D01*
G01*
X0026559Y0120321D01*
G75*
G02*
X0027140Y0120902I0000581J0000000D01*
G01*
G37*
G36*
G01*
X0027140Y0117083D02*
X0028498Y0117083D01*
G75*
G02*
X0029079Y0116502I0000000J-000581D01*
G01*
X0029079Y0115341D01*
G75*
G02*
X0028498Y0114760I-000581J0000000D01*
G01*
X0027140Y0114760D01*
G75*
G02*
X0026559Y0115341I0000000J0000581D01*
G01*
X0026559Y0116502D01*
G75*
G02*
X0027140Y0117083I0000581J0000000D01*
G01*
G37*
G36*
G01*
X0013474Y0082398D02*
X0011456Y0082398D01*
G75*
G02*
X0010595Y0083259I0000000J0000861D01*
G01*
X0010595Y0084982D01*
G75*
G02*
X0011456Y0085843I0000861J0000000D01*
G01*
X0013474Y0085843D01*
G75*
G02*
X0014335Y0084982I0000000J-000861D01*
G01*
X0014335Y0083259D01*
G75*
G02*
X0013474Y0082398I-000861J0000000D01*
G01*
G37*
G36*
G01*
X0013474Y0088599D02*
X0011456Y0088599D01*
G75*
G02*
X0010595Y0089460I0000000J0000861D01*
G01*
X0010595Y0091182D01*
G75*
G02*
X0011456Y0092044I0000861J0000000D01*
G01*
X0013474Y0092044D01*
G75*
G02*
X0014335Y0091182I0000000J-000861D01*
G01*
X0014335Y0089460D01*
G75*
G02*
X0013474Y0088599I-000861J0000000D01*
G01*
G37*
G36*
G01*
X0017406Y0080026D02*
X0017406Y0078668D01*
G75*
G02*
X0016825Y0078087I-000581J0000000D01*
G01*
X0015664Y0078087D01*
G75*
G02*
X0015083Y0078668I0000000J0000581D01*
G01*
X0015083Y0080026D01*
G75*
G02*
X0015664Y0080607I0000581J0000000D01*
G01*
X0016825Y0080607D01*
G75*
G02*
X0017406Y0080026I0000000J-000581D01*
G01*
G37*
G36*
G01*
X0013587Y0080026D02*
X0013587Y0078668D01*
G75*
G02*
X0013006Y0078087I-000581J0000000D01*
G01*
X0011845Y0078087D01*
G75*
G02*
X0011264Y0078668I0000000J0000581D01*
G01*
X0011264Y0080026D01*
G75*
G02*
X0011845Y0080607I0000581J0000000D01*
G01*
X0013006Y0080607D01*
G75*
G02*
X0013587Y0080026I0000000J-000581D01*
G01*
G37*
G36*
G01*
X0012859Y0035917D02*
X0012859Y0037934D01*
G75*
G02*
X0013720Y0038796I0000861J0000000D01*
G01*
X0015442Y0038796D01*
G75*
G02*
X0016303Y0037934I0000000J-000861D01*
G01*
X0016303Y0035917D01*
G75*
G02*
X0015442Y0035056I-000861J0000000D01*
G01*
X0013720Y0035056D01*
G75*
G02*
X0012859Y0035917I0000000J0000861D01*
G01*
G37*
G36*
G01*
X0019059Y0035917D02*
X0019059Y0037934D01*
G75*
G02*
X0019921Y0038796I0000861J0000000D01*
G01*
X0021643Y0038796D01*
G75*
G02*
X0022504Y0037934I0000000J-000861D01*
G01*
X0022504Y0035917D01*
G75*
G02*
X0021643Y0035056I-000861J0000000D01*
G01*
X0019921Y0035056D01*
G75*
G02*
X0019059Y0035917I0000000J0000861D01*
G01*
G37*
G36*
G01*
X0011456Y0103756D02*
X0013474Y0103756D01*
G75*
G02*
X0014335Y0102895I0000000J-000861D01*
G01*
X0014335Y0101173D01*
G75*
G02*
X0013474Y0100311I-000861J0000000D01*
G01*
X0011456Y0100311D01*
G75*
G02*
X0010595Y0101173I0000000J0000861D01*
G01*
X0010595Y0102895D01*
G75*
G02*
X0011456Y0103756I0000861J0000000D01*
G01*
G37*
G36*
G01*
X0011456Y0097556D02*
X0013474Y0097556D01*
G75*
G02*
X0014335Y0096694I0000000J-000861D01*
G01*
X0014335Y0094972D01*
G75*
G02*
X0013474Y0094111I-000861J0000000D01*
G01*
X0011456Y0094111D01*
G75*
G02*
X0010595Y0094972I0000000J0000861D01*
G01*
X0010595Y0096694D01*
G75*
G02*
X0011456Y0097556I0000861J0000000D01*
G01*
G37*
G36*
G01*
X0015634Y0108077D02*
X0015634Y0106719D01*
G75*
G02*
X0015053Y0106138I-000581J0000000D01*
G01*
X0013892Y0106138D01*
G75*
G02*
X0013311Y0106719I0000000J0000581D01*
G01*
X0013311Y0108077D01*
G75*
G02*
X0013892Y0108658I0000581J0000000D01*
G01*
X0015053Y0108658D01*
G75*
G02*
X0015634Y0108077I0000000J-000581D01*
G01*
G37*
G36*
G01*
X0011815Y0108077D02*
X0011815Y0106719D01*
G75*
G02*
X0011234Y0106138I-000581J0000000D01*
G01*
X0010073Y0106138D01*
G75*
G02*
X0009492Y0106719I0000000J0000581D01*
G01*
X0009492Y0108077D01*
G75*
G02*
X0010073Y0108658I0000581J0000000D01*
G01*
X0011234Y0108658D01*
G75*
G02*
X0011815Y0108077I0000000J-000581D01*
G01*
G37*
G36*
G01*
X0028311Y0073638D02*
X0027327Y0073638D01*
G75*
G02*
X0026835Y0074130I0000000J0000492D01*
G01*
X0026835Y0079052D01*
G75*
G02*
X0027327Y0079544I0000492J0000000D01*
G01*
X0028311Y0079544D01*
G75*
G02*
X0028803Y0079052I0000000J-000492D01*
G01*
X0028803Y0074130D01*
G75*
G02*
X0028311Y0073638I-000492J0000000D01*
G01*
G37*
G36*
G01*
X0031461Y0073638D02*
X0030477Y0073638D01*
G75*
G02*
X0029984Y0074130I0000000J0000492D01*
G01*
X0029984Y0079052D01*
G75*
G02*
X0030477Y0079544I0000492J0000000D01*
G01*
X0031461Y0079544D01*
G75*
G02*
X0031953Y0079052I0000000J-000492D01*
G01*
X0031953Y0074130D01*
G75*
G02*
X0031461Y0073638I-000492J0000000D01*
G01*
G37*
G36*
G01*
X0034610Y0073638D02*
X0033626Y0073638D01*
G75*
G02*
X0033134Y0074130I0000000J0000492D01*
G01*
X0033134Y0079052D01*
G75*
G02*
X0033626Y0079544I0000492J0000000D01*
G01*
X0034610Y0079544D01*
G75*
G02*
X0035103Y0079052I0000000J-000492D01*
G01*
X0035103Y0074130D01*
G75*
G02*
X0034610Y0073638I-000492J0000000D01*
G01*
G37*
G36*
G01*
X0037760Y0073638D02*
X0036776Y0073638D01*
G75*
G02*
X0036284Y0074130I0000000J0000492D01*
G01*
X0036284Y0079052D01*
G75*
G02*
X0036776Y0079544I0000492J0000000D01*
G01*
X0037760Y0079544D01*
G75*
G02*
X0038252Y0079052I0000000J-000492D01*
G01*
X0038252Y0074130D01*
G75*
G02*
X0037760Y0073638I-000492J0000000D01*
G01*
G37*
G36*
G01*
X0040910Y0073638D02*
X0039925Y0073638D01*
G75*
G02*
X0039433Y0074130I0000000J0000492D01*
G01*
X0039433Y0079052D01*
G75*
G02*
X0039925Y0079544I0000492J0000000D01*
G01*
X0040910Y0079544D01*
G75*
G02*
X0041402Y0079052I0000000J-000492D01*
G01*
X0041402Y0074130D01*
G75*
G02*
X0040910Y0073638I-000492J0000000D01*
G01*
G37*
G36*
G01*
X0044059Y0073638D02*
X0043075Y0073638D01*
G75*
G02*
X0042583Y0074130I0000000J0000492D01*
G01*
X0042583Y0079052D01*
G75*
G02*
X0043075Y0079544I0000492J0000000D01*
G01*
X0044059Y0079544D01*
G75*
G02*
X0044551Y0079052I0000000J-000492D01*
G01*
X0044551Y0074130D01*
G75*
G02*
X0044059Y0073638I-000492J0000000D01*
G01*
G37*
G36*
G01*
X0047209Y0073638D02*
X0046225Y0073638D01*
G75*
G02*
X0045733Y0074130I0000000J0000492D01*
G01*
X0045733Y0079052D01*
G75*
G02*
X0046225Y0079544I0000492J0000000D01*
G01*
X0047209Y0079544D01*
G75*
G02*
X0047701Y0079052I0000000J-000492D01*
G01*
X0047701Y0074130D01*
G75*
G02*
X0047209Y0073638I-000492J0000000D01*
G01*
G37*
G36*
G01*
X0050359Y0073638D02*
X0049374Y0073638D01*
G75*
G02*
X0048882Y0074130I0000000J0000492D01*
G01*
X0048882Y0079052D01*
G75*
G02*
X0049374Y0079544I0000492J0000000D01*
G01*
X0050359Y0079544D01*
G75*
G02*
X0050851Y0079052I0000000J-000492D01*
G01*
X0050851Y0074130D01*
G75*
G02*
X0050359Y0073638I-000492J0000000D01*
G01*
G37*
G36*
G01*
X0057740Y0081020D02*
X0052819Y0081020D01*
G75*
G02*
X0052327Y0081512I0000000J0000492D01*
G01*
X0052327Y0082496D01*
G75*
G02*
X0052819Y0082989I0000492J0000000D01*
G01*
X0057740Y0082989D01*
G75*
G02*
X0058233Y0082496I0000000J-000492D01*
G01*
X0058233Y0081512D01*
G75*
G02*
X0057740Y0081020I-000492J0000000D01*
G01*
G37*
G36*
G01*
X0057740Y0084170D02*
X0052819Y0084170D01*
G75*
G02*
X0052327Y0084662I0000000J0000492D01*
G01*
X0052327Y0085646D01*
G75*
G02*
X0052819Y0086138I0000492J0000000D01*
G01*
X0057740Y0086138D01*
G75*
G02*
X0058233Y0085646I0000000J-000492D01*
G01*
X0058233Y0084662D01*
G75*
G02*
X0057740Y0084170I-000492J0000000D01*
G01*
G37*
G36*
G01*
X0057740Y0087319D02*
X0052819Y0087319D01*
G75*
G02*
X0052327Y0087811I0000000J0000492D01*
G01*
X0052327Y0088796D01*
G75*
G02*
X0052819Y0089288I0000492J0000000D01*
G01*
X0057740Y0089288D01*
G75*
G02*
X0058233Y0088796I0000000J-000492D01*
G01*
X0058233Y0087811D01*
G75*
G02*
X0057740Y0087319I-000492J0000000D01*
G01*
G37*
G36*
G01*
X0057740Y0090469D02*
X0052819Y0090469D01*
G75*
G02*
X0052327Y0090961I0000000J0000492D01*
G01*
X0052327Y0091945D01*
G75*
G02*
X0052819Y0092437I0000492J0000000D01*
G01*
X0057740Y0092437D01*
G75*
G02*
X0058233Y0091945I0000000J-000492D01*
G01*
X0058233Y0090961D01*
G75*
G02*
X0057740Y0090469I-000492J0000000D01*
G01*
G37*
G36*
G01*
X0057740Y0093619D02*
X0052819Y0093619D01*
G75*
G02*
X0052327Y0094111I0000000J0000492D01*
G01*
X0052327Y0095095D01*
G75*
G02*
X0052819Y0095587I0000492J0000000D01*
G01*
X0057740Y0095587D01*
G75*
G02*
X0058233Y0095095I0000000J-000492D01*
G01*
X0058233Y0094111D01*
G75*
G02*
X0057740Y0093619I-000492J0000000D01*
G01*
G37*
G36*
G01*
X0057740Y0096768D02*
X0052819Y0096768D01*
G75*
G02*
X0052327Y0097260I0000000J0000492D01*
G01*
X0052327Y0098244D01*
G75*
G02*
X0052819Y0098737I0000492J0000000D01*
G01*
X0057740Y0098737D01*
G75*
G02*
X0058233Y0098244I0000000J-000492D01*
G01*
X0058233Y0097260D01*
G75*
G02*
X0057740Y0096768I-000492J0000000D01*
G01*
G37*
G36*
G01*
X0057740Y0099918D02*
X0052819Y0099918D01*
G75*
G02*
X0052327Y0100410I0000000J0000492D01*
G01*
X0052327Y0101394D01*
G75*
G02*
X0052819Y0101886I0000492J0000000D01*
G01*
X0057740Y0101886D01*
G75*
G02*
X0058233Y0101394I0000000J-000492D01*
G01*
X0058233Y0100410D01*
G75*
G02*
X0057740Y0099918I-000492J0000000D01*
G01*
G37*
G36*
G01*
X0057740Y0103067D02*
X0052819Y0103067D01*
G75*
G02*
X0052327Y0103559I0000000J0000492D01*
G01*
X0052327Y0104544D01*
G75*
G02*
X0052819Y0105036I0000492J0000000D01*
G01*
X0057740Y0105036D01*
G75*
G02*
X0058233Y0104544I0000000J-000492D01*
G01*
X0058233Y0103559D01*
G75*
G02*
X0057740Y0103067I-000492J0000000D01*
G01*
G37*
G36*
G01*
X0050359Y0106512D02*
X0049374Y0106512D01*
G75*
G02*
X0048882Y0107004I0000000J0000492D01*
G01*
X0048882Y0111926D01*
G75*
G02*
X0049374Y0112418I0000492J0000000D01*
G01*
X0050359Y0112418D01*
G75*
G02*
X0050851Y0111926I0000000J-000492D01*
G01*
X0050851Y0107004D01*
G75*
G02*
X0050359Y0106512I-000492J0000000D01*
G01*
G37*
G36*
G01*
X0047209Y0106512D02*
X0046225Y0106512D01*
G75*
G02*
X0045733Y0107004I0000000J0000492D01*
G01*
X0045733Y0111926D01*
G75*
G02*
X0046225Y0112418I0000492J0000000D01*
G01*
X0047209Y0112418D01*
G75*
G02*
X0047701Y0111926I0000000J-000492D01*
G01*
X0047701Y0107004D01*
G75*
G02*
X0047209Y0106512I-000492J0000000D01*
G01*
G37*
G36*
G01*
X0044059Y0106512D02*
X0043075Y0106512D01*
G75*
G02*
X0042583Y0107004I0000000J0000492D01*
G01*
X0042583Y0111926D01*
G75*
G02*
X0043075Y0112418I0000492J0000000D01*
G01*
X0044059Y0112418D01*
G75*
G02*
X0044551Y0111926I0000000J-000492D01*
G01*
X0044551Y0107004D01*
G75*
G02*
X0044059Y0106512I-000492J0000000D01*
G01*
G37*
G36*
G01*
X0040910Y0106512D02*
X0039925Y0106512D01*
G75*
G02*
X0039433Y0107004I0000000J0000492D01*
G01*
X0039433Y0111926D01*
G75*
G02*
X0039925Y0112418I0000492J0000000D01*
G01*
X0040910Y0112418D01*
G75*
G02*
X0041402Y0111926I0000000J-000492D01*
G01*
X0041402Y0107004D01*
G75*
G02*
X0040910Y0106512I-000492J0000000D01*
G01*
G37*
G36*
G01*
X0037760Y0106512D02*
X0036776Y0106512D01*
G75*
G02*
X0036284Y0107004I0000000J0000492D01*
G01*
X0036284Y0111926D01*
G75*
G02*
X0036776Y0112418I0000492J0000000D01*
G01*
X0037760Y0112418D01*
G75*
G02*
X0038252Y0111926I0000000J-000492D01*
G01*
X0038252Y0107004D01*
G75*
G02*
X0037760Y0106512I-000492J0000000D01*
G01*
G37*
G36*
G01*
X0034610Y0106512D02*
X0033626Y0106512D01*
G75*
G02*
X0033134Y0107004I0000000J0000492D01*
G01*
X0033134Y0111926D01*
G75*
G02*
X0033626Y0112418I0000492J0000000D01*
G01*
X0034610Y0112418D01*
G75*
G02*
X0035103Y0111926I0000000J-000492D01*
G01*
X0035103Y0107004D01*
G75*
G02*
X0034610Y0106512I-000492J0000000D01*
G01*
G37*
G36*
G01*
X0031461Y0106512D02*
X0030477Y0106512D01*
G75*
G02*
X0029984Y0107004I0000000J0000492D01*
G01*
X0029984Y0111926D01*
G75*
G02*
X0030477Y0112418I0000492J0000000D01*
G01*
X0031461Y0112418D01*
G75*
G02*
X0031953Y0111926I0000000J-000492D01*
G01*
X0031953Y0107004D01*
G75*
G02*
X0031461Y0106512I-000492J0000000D01*
G01*
G37*
G36*
G01*
X0028311Y0106512D02*
X0027327Y0106512D01*
G75*
G02*
X0026835Y0107004I0000000J0000492D01*
G01*
X0026835Y0111926D01*
G75*
G02*
X0027327Y0112418I0000492J0000000D01*
G01*
X0028311Y0112418D01*
G75*
G02*
X0028803Y0111926I0000000J-000492D01*
G01*
X0028803Y0107004D01*
G75*
G02*
X0028311Y0106512I-000492J0000000D01*
G01*
G37*
G36*
G01*
X0024866Y0103067D02*
X0019945Y0103067D01*
G75*
G02*
X0019453Y0103559I0000000J0000492D01*
G01*
X0019453Y0104544D01*
G75*
G02*
X0019945Y0105036I0000492J0000000D01*
G01*
X0024866Y0105036D01*
G75*
G02*
X0025359Y0104544I0000000J-000492D01*
G01*
X0025359Y0103559D01*
G75*
G02*
X0024866Y0103067I-000492J0000000D01*
G01*
G37*
G36*
G01*
X0024866Y0099918D02*
X0019945Y0099918D01*
G75*
G02*
X0019453Y0100410I0000000J0000492D01*
G01*
X0019453Y0101394D01*
G75*
G02*
X0019945Y0101886I0000492J0000000D01*
G01*
X0024866Y0101886D01*
G75*
G02*
X0025359Y0101394I0000000J-000492D01*
G01*
X0025359Y0100410D01*
G75*
G02*
X0024866Y0099918I-000492J0000000D01*
G01*
G37*
G36*
G01*
X0024866Y0096768D02*
X0019945Y0096768D01*
G75*
G02*
X0019453Y0097260I0000000J0000492D01*
G01*
X0019453Y0098244D01*
G75*
G02*
X0019945Y0098737I0000492J0000000D01*
G01*
X0024866Y0098737D01*
G75*
G02*
X0025359Y0098244I0000000J-000492D01*
G01*
X0025359Y0097260D01*
G75*
G02*
X0024866Y0096768I-000492J0000000D01*
G01*
G37*
G36*
G01*
X0024866Y0093619D02*
X0019945Y0093619D01*
G75*
G02*
X0019453Y0094111I0000000J0000492D01*
G01*
X0019453Y0095095D01*
G75*
G02*
X0019945Y0095587I0000492J0000000D01*
G01*
X0024866Y0095587D01*
G75*
G02*
X0025359Y0095095I0000000J-000492D01*
G01*
X0025359Y0094111D01*
G75*
G02*
X0024866Y0093619I-000492J0000000D01*
G01*
G37*
G36*
G01*
X0024866Y0090469D02*
X0019945Y0090469D01*
G75*
G02*
X0019453Y0090961I0000000J0000492D01*
G01*
X0019453Y0091945D01*
G75*
G02*
X0019945Y0092437I0000492J0000000D01*
G01*
X0024866Y0092437D01*
G75*
G02*
X0025359Y0091945I0000000J-000492D01*
G01*
X0025359Y0090961D01*
G75*
G02*
X0024866Y0090469I-000492J0000000D01*
G01*
G37*
G36*
G01*
X0024866Y0087319D02*
X0019945Y0087319D01*
G75*
G02*
X0019453Y0087811I0000000J0000492D01*
G01*
X0019453Y0088796D01*
G75*
G02*
X0019945Y0089288I0000492J0000000D01*
G01*
X0024866Y0089288D01*
G75*
G02*
X0025359Y0088796I0000000J-000492D01*
G01*
X0025359Y0087811D01*
G75*
G02*
X0024866Y0087319I-000492J0000000D01*
G01*
G37*
G36*
G01*
X0024866Y0084170D02*
X0019945Y0084170D01*
G75*
G02*
X0019453Y0084662I0000000J0000492D01*
G01*
X0019453Y0085646D01*
G75*
G02*
X0019945Y0086138I0000492J0000000D01*
G01*
X0024866Y0086138D01*
G75*
G02*
X0025359Y0085646I0000000J-000492D01*
G01*
X0025359Y0084662D01*
G75*
G02*
X0024866Y0084170I-000492J0000000D01*
G01*
G37*
G36*
G01*
X0024866Y0081020D02*
X0019945Y0081020D01*
G75*
G02*
X0019453Y0081512I0000000J0000492D01*
G01*
X0019453Y0082496D01*
G75*
G02*
X0019945Y0082989I0000492J0000000D01*
G01*
X0024866Y0082989D01*
G75*
G02*
X0025359Y0082496I0000000J-000492D01*
G01*
X0025359Y0081512D01*
G75*
G02*
X0024866Y0081020I-000492J0000000D01*
G01*
G37*
G36*
G01*
X0046412Y0115646D02*
X0045053Y0115646D01*
G75*
G02*
X0044473Y0116227I0000000J0000581D01*
G01*
X0044473Y0117388D01*
G75*
G02*
X0045053Y0117969I0000581J0000000D01*
G01*
X0046412Y0117969D01*
G75*
G02*
X0046992Y0117388I0000000J-000581D01*
G01*
X0046992Y0116227D01*
G75*
G02*
X0046412Y0115646I-000581J0000000D01*
G01*
G37*
G36*
G01*
X0046412Y0119465D02*
X0045053Y0119465D01*
G75*
G02*
X0044473Y0120046I0000000J0000581D01*
G01*
X0044473Y0121207D01*
G75*
G02*
X0045053Y0121788I0000581J0000000D01*
G01*
X0046412Y0121788D01*
G75*
G02*
X0046992Y0121207I0000000J-000581D01*
G01*
X0046992Y0120046D01*
G75*
G02*
X0046412Y0119465I-000581J0000000D01*
G01*
G37*
G36*
G01*
X0023016Y0108569D02*
X0023016Y0107211D01*
G75*
G02*
X0022435Y0106630I-000581J0000000D01*
G01*
X0021274Y0106630D01*
G75*
G02*
X0020693Y0107211I0000000J0000581D01*
G01*
X0020693Y0108569D01*
G75*
G02*
X0021274Y0109150I0000581J0000000D01*
G01*
X0022435Y0109150D01*
G75*
G02*
X0023016Y0108569I0000000J-000581D01*
G01*
G37*
G36*
G01*
X0019197Y0108569D02*
X0019197Y0107211D01*
G75*
G02*
X0018616Y0106630I-000581J0000000D01*
G01*
X0017455Y0106630D01*
G75*
G02*
X0016874Y0107211I0000000J0000581D01*
G01*
X0016874Y0108569D01*
G75*
G02*
X0017455Y0109150I0000581J0000000D01*
G01*
X0018616Y0109150D01*
G75*
G02*
X0019197Y0108569I0000000J-000581D01*
G01*
G37*
G36*
G01*
X0045053Y0132213D02*
X0046412Y0132213D01*
G75*
G02*
X0046992Y0131632I0000000J-000581D01*
G01*
X0046992Y0130471D01*
G75*
G02*
X0046412Y0129890I-000581J0000000D01*
G01*
X0045053Y0129890D01*
G75*
G02*
X0044473Y0130471I0000000J0000581D01*
G01*
X0044473Y0131632D01*
G75*
G02*
X0045053Y0132213I0000581J0000000D01*
G01*
G37*
G36*
G01*
X0045053Y0128394D02*
X0046412Y0128394D01*
G75*
G02*
X0046992Y0127813I0000000J-000581D01*
G01*
X0046992Y0126652D01*
G75*
G02*
X0046412Y0126071I-000581J0000000D01*
G01*
X0045053Y0126071D01*
G75*
G02*
X0044473Y0126652I0000000J0000581D01*
G01*
X0044473Y0127813D01*
G75*
G02*
X0045053Y0128394I0000581J0000000D01*
G01*
G37*
D147*
X0050654Y0130725D03*
X0050654Y0123244D03*
X0058528Y0126985D03*
G36*
G01*
X0024886Y0071660D02*
X0024886Y0070302D01*
G75*
G02*
X0024305Y0069721I-000581J0000000D01*
G01*
X0023144Y0069721D01*
G75*
G02*
X0022563Y0070302I0000000J0000581D01*
G01*
X0022563Y0071660D01*
G75*
G02*
X0023144Y0072241I0000581J0000000D01*
G01*
X0024305Y0072241D01*
G75*
G02*
X0024886Y0071660I0000000J-000581D01*
G01*
G37*
G36*
G01*
X0021067Y0071660D02*
X0021067Y0070302D01*
G75*
G02*
X0020486Y0069721I-000581J0000000D01*
G01*
X0019325Y0069721D01*
G75*
G02*
X0018744Y0070302I0000000J0000581D01*
G01*
X0018744Y0071660D01*
G75*
G02*
X0019325Y0072241I0000581J0000000D01*
G01*
X0020486Y0072241D01*
G75*
G02*
X0021067Y0071660I0000000J-000581D01*
G01*
G37*
G36*
G01*
X0059925Y0117787D02*
X0059925Y0115769D01*
G75*
G02*
X0059064Y0114908I-000861J0000000D01*
G01*
X0057342Y0114908D01*
G75*
G02*
X0056481Y0115769I0000000J0000861D01*
G01*
X0056481Y0117787D01*
G75*
G02*
X0057342Y0118648I0000861J0000000D01*
G01*
X0059064Y0118648D01*
G75*
G02*
X0059925Y0117787I0000000J-000861D01*
G01*
G37*
G36*
G01*
X0053725Y0117787D02*
X0053725Y0115769D01*
G75*
G02*
X0052863Y0114908I-000861J0000000D01*
G01*
X0051141Y0114908D01*
G75*
G02*
X0050280Y0115769I0000000J0000861D01*
G01*
X0050280Y0117787D01*
G75*
G02*
X0051141Y0118648I0000861J0000000D01*
G01*
X0052863Y0118648D01*
G75*
G02*
X0053725Y0117787I0000000J-000861D01*
G01*
G37*
D155*
X0017780Y0133540D03*
X0013780Y0113540D03*
X0021780Y0113540D03*
D152*
X0015280Y0128540D03*
X0020280Y0128540D03*
X0015280Y0123540D03*
X0020280Y0123540D03*
X0015280Y0118540D03*
X0020280Y0118540D03*
D329*
X0056658Y0044052D03*
D330*
X0056658Y0054052D03*
X0056658Y0064052D03*
M02*
