M48
INCH,TZ
T01C0.009850
T02C0.015700
T03C0.024600
T04C0.031750
T05C0.039200
T06C0.043300
T07C0.070400
T08C0.085000
T09C0.126000
%
T01
X2648Y16742
X6545Y17018
X9990Y16782
X12510Y17530
X13376Y16782
X14616Y27195
X19419Y21585
X19695Y22530
X19714Y27077
X21821Y10797
X22195Y14085
X22234Y16014
X22982Y18652
X23120Y21683
X26821Y16447
X27175Y16014
X41959Y4990
X41978Y5266
X42214Y26073
X42293Y26368
X45285Y21998
X47943Y18868
X51506Y27294
X54360Y7766
X2165Y3691
X2559Y3691
X2953Y3691
X3346Y3691
X4273Y14160
X4673Y14160
X5571Y14160
X5964Y14160
X6358Y14160
X8691Y5433
X9085Y5433
X9478Y5433
X9872Y5433
X10799Y15902
X11199Y15902
X12096Y15902
X12490Y15902
X12884Y15902
X28051Y23947
X28051Y23475
X28051Y23002
X28051Y22530
X29232Y17353
X29232Y17038
X29232Y16723
X29232Y16408
X29232Y16093
X29232Y15778
X29232Y15463
X29232Y15148
X29232Y14833
X29232Y14518
X29232Y14203
X29232Y13888
X29232Y13573
X29232Y13258
X29232Y12628
X29232Y12077
X29232Y11762
X29232Y11447
X29232Y11132
X29232Y10817
X29232Y10502
X29232Y19045
X29232Y12943
X29390Y7668
X29705Y7668
X30020Y7668
X30335Y7668
X30650Y7668
X30964Y7668
X31279Y7668
X31594Y7668
X31831Y21605
X31909Y7668
X32224Y7668
X32303Y21605
X32539Y7668
X32775Y21605
X32854Y7668
X33248Y21605
X33720Y21605
X33730Y25467
X33730Y25073
X33799Y7668
X34114Y7668
X34193Y21605
X34429Y7668
X34665Y21605
X34744Y7668
X35059Y7668
X35138Y21605
X35374Y7668
X35610Y21605
X35689Y7668
X36004Y7668
X36083Y21605
X36319Y7668
X36555Y21605
X37027Y21605
X37500Y21605
X37972Y21605
X38012Y7668
X38445Y21605
X38917Y21605
X39075Y7668
X39390Y21605
X39468Y7668
X39862Y21605
X40335Y21605
X40807Y21605
X41279Y21605
X42224Y21605
X42382Y20620
X42382Y20227
X42382Y16014
X42382Y15620
X42382Y15227
X42382Y14833
X42382Y14439
X42382Y14045
X42382Y13652
X42382Y13258
X42382Y12234
X42382Y11920
X42382Y10069
X42382Y9518
X42382Y7668
X46398Y7569
X46791Y7569
X48937Y19636
X48937Y19164
X48937Y18691
X48937Y18219
X54616Y21156
X54616Y20762
X61575Y10404
X61575Y6979
X61929Y6979
X61949Y10404
X62323Y10404
X45232Y13100
X45868Y13372
X46253Y13158
X46682Y13799
X47018Y13839
X47608Y13642
X47864Y13366
X48395Y13248
X48691Y13642
X48199Y13839
X49380Y13839
X50955Y13839
X50935Y13366
X51227Y12255
X51202Y11208
X50914Y10886
X50839Y9833
X50955Y8721
X50955Y7933
X49951Y8406
X49945Y9051
X48699Y8991
X48789Y8524
X48309Y8356
X48592Y7933
X47424Y8355
X47252Y7659
X46860Y7618
X46466Y7618
X46560Y8300
X46071Y8610
X45754Y8223
X45324Y8620
X45703Y9009
X46427Y9084
X46860Y9036
X45875Y10352
X45246Y10352
X45232Y11271
X45232Y12126
X45874Y11903
X46899Y11319
X48346Y10926
X48395Y11673
X48905Y11240
X49903Y10651
X51860Y9705
X51927Y8773
X52332Y8721
X52136Y7933
X51545Y8327
X52685Y10801
X53091Y10759
X52675Y11588
X52272Y11853
X52349Y13290
X51714Y12881
X51481Y13721
X62538Y7033
X62285Y7185
X61998Y7027
X61643Y7027
X61977Y8029
X62082Y8303
X61869Y8546
X62382Y7996
X61642Y9475
X61643Y10452
X62017Y10452
X62391Y10452
X33809Y24370
X33782Y22724
X33760Y23553
X33038Y26077
X33029Y25320
X32992Y24518
X32955Y22712
X32923Y24212
X32607Y22740
X32555Y24562
X32520Y25949
X32392Y24252
X32215Y26083
X32159Y22549
X32071Y25342
X32067Y24449
X31917Y23021
X31871Y24070
X31506Y24055
X31258Y23654
X31126Y24460
X31073Y24134
X31063Y24852
X31043Y25935
X30993Y25563
X30953Y25213
X30732Y24555
X30423Y26083
X30354Y24508
X30040Y24084
X29921Y24370
X29823Y24874
X29801Y23411
X29758Y25923
X29735Y24114
X29666Y22740
X29370Y22799
X29187Y24069
X29175Y22570
X28848Y25443
X28372Y25451
X28130Y25620
X28120Y25207
X28104Y26102
X33799Y25122
X33799Y25516
X28120Y22579
X28120Y23051
X28120Y23523
X28120Y23996
X54557Y19705
X54557Y21673
X54518Y18366
X53691Y19783
X53534Y20846
X53416Y21673
X53179Y18366
X52786Y19272
X52746Y20256
X52195Y20886
X52156Y21673
X51762Y18366
X51526Y19075
X51447Y21673
X51361Y19766
X50935Y21319
X50424Y20453
X50187Y21398
X50030Y18366
X49715Y21673
X49397Y19191
X49124Y20059
X49124Y21398
X54685Y20811
X54685Y21205
X49006Y18268
X49006Y18740
X49006Y19212
X49006Y19685
X10492Y16014
X13422Y15939
X11752Y15895
X8386Y15895
X8576Y15662
X9856Y15606
X10167Y15606
X13190Y15452
X11599Y15224
X12297Y15132
X9669Y15069
X8736Y14932
X8464Y14640
X13504Y14537
X12867Y14491
X12490Y14449
X11183Y14374
X9946Y14370
X8425Y14094
X10511Y14013
X9222Y13888
X11171Y13828
X12218Y13819
X10461Y13710
X8386Y13612
X13509Y12815
X9193Y12647
X10998Y12357
X11937Y12127
X10437Y12126
X11230Y12125
X11473Y11919
X8287Y11899
X11132Y11841
X12509Y11534
X10374Y11326
X12458Y11237
X8317Y11112
X11811Y11096
X12464Y10927
X9031Y10909
X10413Y10836
X11413Y10777
X12088Y10624
X9114Y10620
X9847Y10319
X12813Y10301
X13114Y10293
X8307Y9921
X12945Y9714
X13530Y9689
X12646Y9680
X13311Y9423
X11669Y9285
X10822Y9239
X10309Y9169
X9409Y9169
X9108Y9169
X8807Y9169
X8506Y9169
X9901Y9165
X11437Y8789
X11220Y8533
X8265Y6458
X10014Y6241
X13267Y6201
X12854Y6053
X9921Y5954
X12273Y5915
X11998Y5915
X11722Y5915
X12834Y5738
X8258Y5718
X12273Y5610
X11998Y5610
X13248Y5413
X12953Y15951
X12559Y15951
X12165Y15951
X11267Y15951
X10867Y15951
X9941Y5482
X9547Y5482
X9153Y5482
X8760Y5482
X42293Y21654
X41817Y21623
X41585Y21433
X41349Y21654
X41112Y21453
X40876Y21654
X40640Y21453
X40404Y21654
X40167Y21453
X39931Y21654
X39695Y21453
X39459Y21654
X39223Y21453
X38986Y21654
X38750Y21453
X38514Y21654
X38278Y21453
X38041Y21654
X37805Y21453
X37569Y21654
X37333Y21453
X37097Y21654
X36860Y21453
X36624Y21654
X36388Y21453
X36152Y21654
X35915Y21453
X35679Y21654
X35443Y21453
X35207Y21654
X34971Y21453
X34734Y21654
X34498Y21453
X34262Y21654
X34026Y21453
X33789Y21654
X33553Y21453
X33317Y21654
X33081Y21453
X32845Y21654
X32608Y21453
X32372Y21654
X32136Y21453
X31900Y21654
X31585Y21496
X31592Y20961
X32019Y20767
X32470Y20757
X32912Y20750
X33385Y20752
X33890Y19705
X34200Y19705
X34447Y20178
X35045Y19975
X35341Y19966
X35184Y19695
X35067Y19013
X35322Y18745
X35419Y18204
X34980Y18204
X34520Y18324
X34520Y17992
X34520Y17697
X34526Y17406
X34196Y16722
X33651Y16726
X33789Y16142
X34419Y16221
X34489Y15389
X34504Y15003
X34852Y15197
X35086Y15397
X35343Y14964
X36036Y14663
X36634Y14646
X36981Y14942
X37756Y14767
X37738Y15322
X37748Y15869
X38456Y15742
X38411Y14943
X38437Y14178
X38459Y13368
X37756Y13328
X37756Y13613
X37756Y13898
X37756Y13027
X36968Y12711
X36981Y12426
X37013Y12128
X36963Y11646
X36559Y11595
X35929Y11117
X35552Y11129
X34616Y10985
X34291Y11585
X34083Y11382
X34101Y11909
X33743Y11956
X34294Y12140
X34500Y13283
X34723Y13512
X34769Y14195
X35060Y14206
X34573Y14414
X33904Y14414
X33038Y14603
X32844Y14817
X32640Y15021
X32438Y15223
X32441Y14410
X32888Y13945
X32901Y13244
X32525Y13342
X32648Y12874
X32850Y12337
X32610Y12111
X32416Y11713
X32608Y11457
X32709Y11074
X32749Y10768
X32451Y10866
X31947Y11068
X31891Y11369
X31947Y11931
X31800Y12176
X32057Y12559
X32075Y13050
X30847Y13442
X30537Y13756
X30719Y13977
X30754Y14497
X29301Y14567
X29301Y14252
X29301Y13937
X29301Y13622
X29301Y13307
X29301Y12992
X29301Y12678
X29440Y12400
X29301Y12126
X29301Y11811
X29301Y11496
X29301Y11181
X29301Y10866
X29301Y10552
X29658Y10464
X29441Y10220
X29750Y9518
X29754Y8583
X30127Y8539
X30129Y8824
X30502Y8583
X30404Y7717
X30719Y7717
X31034Y7717
X31349Y7717
X31663Y7717
X31978Y7717
X32293Y7717
X32608Y7717
X32923Y7717
X33514Y7914
X33868Y7717
X34183Y7717
X34498Y7717
X34813Y7717
X35128Y7717
X35443Y7717
X35758Y7717
X36073Y7717
X36388Y7717
X36900Y7756
X36806Y8411
X37204Y8447
X37549Y8402
X37828Y8704
X37770Y7949
X38081Y7717
X39144Y7717
X39538Y7717
X39899Y7741
X39891Y8204
X40121Y8649
X40202Y9522
X40642Y9299
X39456Y8987
X38993Y8668
X39036Y9519
X38593Y9567
X38108Y9995
X38100Y10280
X38032Y10640
X38029Y10936
X38759Y10837
X38750Y11221
X38759Y11546
X38420Y11874
X38759Y12254
X38743Y12606
X38763Y12901
X38446Y12583
X39441Y12155
X39444Y11711
X40620Y11855
X40600Y12376
X40601Y12765
X39776Y13230
X39476Y13191
X39453Y13644
X39453Y13931
X39453Y14218
X39453Y14634
X39453Y14920
X39435Y15344
X39435Y15652
X39435Y15941
X39211Y16681
X38931Y16776
X38619Y17171
X38917Y17491
X38917Y18057
X38924Y18343
X38833Y19004
X39036Y19749
X38868Y19981
X39168Y20016
X39793Y20180
X40089Y20180
X40715Y19975
X41001Y19975
X40837Y19692
X40733Y19016
X40892Y18747
X41072Y18170
X40596Y18170
X40110Y18324
X40110Y17992
X40110Y17697
X40117Y17406
X40880Y17184
X40876Y16807
X41679Y16799
X41652Y17133
X41947Y16701
X42426Y16658
X42451Y16063
X42451Y15670
X42451Y15276
X42451Y14882
X42451Y14489
X42451Y14095
X42451Y13701
X42451Y13307
X42412Y12678
X42451Y12284
X42451Y11969
X42451Y11595
X42323Y11112
X42412Y10748
X42451Y10118
X42167Y10008
X42451Y9567
X42430Y8405
X42451Y7717
X41427Y10985
X41301Y11280
X40432Y10795
X38440Y10503
X37563Y10055
X37431Y9666
X37093Y9737
X36670Y10059
X36230Y10158
X35489Y10080
X34961Y9144
X34821Y8865
X34750Y8558
X34488Y9248
X33657Y9219
X33465Y8894
X32721Y9240
X32795Y10088
X32501Y10088
X32210Y10088
X31024Y10030
X30994Y9567
X31269Y9036
X31295Y8132
X32405Y8005
X30089Y7717
X29774Y7717
X29459Y7717
X30653Y10621
X30809Y10860
X30581Y11152
X30364Y11579
X30805Y11577
X30903Y12261
X30387Y12550
X30111Y11996
X30100Y13205
X29301Y14882
X29301Y15197
X29301Y15512
X29301Y15827
X29301Y16142
X29301Y16457
X29301Y16772
X29301Y17087
X29301Y17402
X29820Y18016
X29380Y18622
X29301Y19095
X29872Y19693
X29872Y20012
X29872Y20330
X29872Y20648
X29872Y20967
X30236Y21293
X29518Y21336
X31114Y20505
X30981Y19926
X31545Y19016
X31778Y18312
X31764Y17992
X31769Y17704
X31770Y17406
X32557Y17184
X32566Y16771
X33076Y17156
X33366Y17372
X33366Y17945
X33329Y18331
X32725Y18197
X32225Y18204
X32565Y18750
X32444Y19416
X32761Y19416
X33107Y19416
X32097Y19427
X33908Y19016
X36124Y18331
X36122Y17932
X36122Y17493
X36040Y17109
X35313Y17131
X35364Y16849
X36506Y16717
X36830Y16709
X36852Y16217
X37262Y16497
X37333Y17326
X37310Y17697
X37323Y17992
X37333Y18492
X37628Y18229
X38297Y18184
X38097Y18726
X38168Y19602
X37937Y20182
X37227Y19975
X36935Y19975
X37077Y19685
X36954Y19016
X36308Y20136
X35980Y20187
X37975Y17178
X38174Y16772
X39787Y16722
X40321Y16103
X40321Y15342
X40321Y14581
X40320Y13819
X36637Y13872
X36841Y13547
X36679Y12659
X37758Y11559
X36959Y8936
X36515Y9032
X36422Y9302
X36219Y8939
X33713Y10281
X33655Y10564
X32082Y16097
X31703Y15748
X30616Y15893
X30665Y16622
X30977Y16590
X31440Y16722
X29905Y16415
X36227Y15360
X41713Y17904
X41675Y18369
X41957Y18691
X42448Y18730
X41850Y19282
X42116Y19594
X42451Y20276
X42451Y20670
X42431Y21255
X41860Y21063
X41663Y20180
X42323Y17372
X3967Y14272
X6897Y14197
X5227Y14153
X1861Y14153
X2051Y13920
X3331Y13864
X3642Y13864
X6665Y13710
X5074Y13482
X5772Y13390
X3144Y13327
X2211Y13190
X1939Y12898
X6979Y12795
X6342Y12749
X5965Y12707
X4658Y12632
X3421Y12628
X1900Y12352
X3986Y12271
X2697Y12146
X4646Y12086
X5693Y12077
X3936Y11968
X1861Y11870
X6984Y11073
X2668Y10905
X4473Y10615
X5412Y10385
X3912Y10384
X4705Y10383
X4948Y10177
X1762Y10157
X4607Y10099
X5984Y9792
X3849Y9584
X5933Y9495
X1792Y9370
X5286Y9354
X5939Y9185
X2506Y9167
X3888Y9094
X4888Y9035
X5563Y8882
X2589Y8878
X3322Y8577
X6288Y8559
X6589Y8551
X1782Y8179
X6420Y7972
X7005Y7947
X6121Y7938
X6786Y7681
X5144Y7543
X4297Y7497
X3784Y7427
X2884Y7427
X2583Y7427
X2282Y7427
X1981Y7427
X3376Y7423
X4912Y7047
X4695Y6791
X1740Y4716
X3489Y4499
X6742Y4459
X6329Y4311
X3396Y4212
X5748Y4173
X5473Y4173
X5197Y4173
X6309Y3996
X1733Y3976
X5748Y3868
X5473Y3868
X6723Y3671
X6428Y14209
X6034Y14209
X5640Y14209
X4742Y14209
X4342Y14209
X3416Y3740
X3022Y3740
X2628Y3740
X2235Y3740
T02
X4183Y16880
X6525Y27057
X13474Y26270
X16053Y16231
X17392Y18337
X18573Y20857
X19242Y17038
X20581Y13120
X22549Y11605
X23218Y27215
X25640Y13927
X39439Y6979
X58455Y24518
T03
X52876Y3073G85X52876Y2640
X52876Y1329G85X52876Y1093
X56277Y3073G85X56277Y2640
X56277Y1329G85X56277Y1093
X53439Y2660
X55714Y2660
T04
X1604Y22077
X3848Y21526
X7136Y20994
X10620Y21644
X44616Y17343
X44929Y5965
X46429Y5965
X46545Y17343
X49367Y16765
X50731Y15401
X36356Y16359
X34778Y16359
X33356Y16359
T05
X45275Y7746
X45453Y13849
X47736Y7746
X49429Y7746
X50177Y7746
X50197Y13849
X52146Y13849
X52697Y7746
X52874Y13849
X52903Y16122
X54392Y16122
X45521Y13898
X50266Y13898
X50246Y7795
X49498Y7795
X47805Y7795
X45344Y7795
X52766Y7795
X52943Y13898
X52214Y13898
X9271Y8628
X10453Y7840
X9271Y7053
X9193Y15754
X9593Y13754
X8793Y13754
X42136Y8032
X33057Y9003
X33057Y8203
X31057Y8603
X2746Y6886
X3928Y6098
X2746Y5311
X2668Y14012
X3068Y12012
X2268Y12012
T06
X3346Y25256
X3346Y23642
X5590Y25256
X5590Y23642
X7835Y25256
X7835Y23642
X10079Y25256
X10079Y23642
X12323Y25256
X12323Y23642
X14567Y25256
X14567Y23642
X16811Y25256
X16811Y23642
X19055Y25256
X19055Y23642
X21299Y25256
X21299Y23642
X23543Y25256
X23543Y23642
X25787Y25256
X25787Y23642
X37205Y25236
X37205Y23622
X39449Y25236
X39449Y23622
X41693Y25236
X41693Y23622
X43937Y25236
X43937Y23622
X46181Y25236
X46181Y23622
X48425Y25236
X48425Y23622
X50669Y25236
X50669Y23622
X52913Y25236
X52913Y23622
X55157Y25236
X55157Y23622
X57401Y25236
X57401Y23622
X59646Y25236
X59646Y23622
X13080Y8805
X13080Y7805
X13080Y6805
X6555Y7063
X6555Y6063
X6555Y5063
T07
X11313Y3189
X11313Y1437
X13065Y3189
X13065Y1437
X14813Y3189
X14813Y1437
X16565Y3189
X16565Y1437
X18313Y3189
X18313Y1437
X20065Y3189
X20065Y1437
X29462Y3189
X29462Y1437
X31214Y3189
X31214Y1437
X32962Y3189
X32962Y1437
X34714Y3189
X34714Y1437
X36462Y3189
X36462Y1437
X38214Y3189
X38214Y1437
T08
X8937Y2311
X22437Y2311
X27087Y2311
X40587Y2311
T09
X16211Y7648
X57431Y7648
M30
