M48
INCH,TZ
T01C0.009850
T02C0.015700
T03C0.024600
T04C0.031750
T05C0.039200
T06C0.043300
T07C0.068900
T08C0.112200
T09C0.126000
%
T01
X2267Y18726
X5653Y19041
X8941Y19867
X10240Y19848
X12385Y20517
X13193Y29316
X13311Y21541
X14571Y19001
X14748Y30182
X14945Y31147
X19551Y24572
X19826Y25517
X19846Y30064
X21756Y22860
X21952Y13785
X22326Y17072
X22366Y19001
X23114Y21639
X23252Y24671
X26952Y19434
X27307Y19001
X28822Y18627
X42090Y7978
X42110Y8253
X42286Y29118
X42425Y29356
X45417Y24986
X48074Y21856
X49078Y8706
X51637Y30281
X54492Y10753
X54758Y8362
X55378Y6430
X57041Y6167
X57504Y6167
X58360Y6167
X59236Y6167
X60379Y6434
X2425Y4690
X2819Y4690
X3212Y4690
X3606Y4690
X4533Y15159
X4933Y15159
X5830Y15159
X6224Y15159
X6618Y15159
X8931Y6649
X9324Y6649
X9718Y6649
X10112Y6649
X11039Y17118
X11439Y17118
X12336Y17118
X12730Y17118
X13124Y17118
X28183Y26934
X28183Y26462
X28183Y25989
X28183Y25517
X29364Y20340
X29364Y20025
X29364Y19710
X29364Y19395
X29364Y19080
X29364Y18765
X29364Y18450
X29364Y18135
X29364Y17820
X29364Y17505
X29364Y17190
X29364Y16875
X29364Y16560
X29364Y16245
X29364Y15615
X29364Y15064
X29364Y14749
X29364Y14434
X29364Y14119
X29364Y13804
X29364Y13489
X29364Y22033
X29364Y15930
X29521Y10655
X29836Y10655
X30151Y10655
X30466Y10655
X30781Y10655
X31096Y10655
X31411Y10655
X31726Y10655
X31962Y24592
X32041Y10655
X32356Y10655
X32435Y24592
X32671Y10655
X32907Y24592
X32986Y10655
X33380Y24592
X33852Y24592
X33862Y28454
X33862Y28060
X33931Y10655
X34246Y10655
X34324Y24592
X34561Y10655
X34797Y24592
X34876Y10655
X35191Y10655
X35269Y24592
X35506Y10655
X35742Y24592
X35821Y10655
X36135Y10655
X36214Y24592
X36450Y10655
X36687Y24592
X37159Y24592
X37632Y24592
X38104Y24592
X38143Y10655
X38576Y24592
X39049Y24592
X39206Y10655
X39521Y24592
X39600Y10655
X39994Y24592
X40466Y24592
X40939Y24592
X41411Y24592
X42356Y24592
X42513Y23608
X42513Y23214
X42513Y19001
X42513Y18608
X42513Y18214
X42513Y17820
X42513Y17427
X42513Y17033
X42513Y16639
X42513Y16245
X42513Y15222
X42513Y14907
X42513Y13056
X42513Y12505
X42513Y10655
X46529Y10556
X46923Y10556
X49069Y22623
X49069Y22151
X49069Y21678
X49069Y21206
X54748Y24143
X54748Y23749
X61706Y13391
X61706Y9966
X62061Y9966
X62080Y13391
X62454Y13391
X45193Y13080
X45829Y13352
X46214Y13138
X46643Y13779
X46979Y13819
X47569Y13622
X47825Y13346
X48356Y13228
X48652Y13622
X48160Y13819
X49341Y13819
X50916Y13819
X50896Y13346
X51188Y12235
X51163Y11188
X50875Y10866
X50800Y9813
X50916Y8701
X50916Y7913
X49912Y8386
X49906Y9031
X48660Y8971
X48750Y8504
X48270Y8336
X48553Y7913
X47385Y8335
X47213Y7639
X46821Y7598
X46427Y7598
X46521Y8280
X46032Y8590
X45715Y8203
X45285Y8600
X45664Y8989
X46388Y9064
X46821Y9016
X45836Y10332
X45207Y10332
X45193Y11251
X45193Y12106
X45835Y11883
X46860Y11299
X48307Y10906
X48356Y11653
X48866Y11220
X49864Y10631
X51821Y9685
X51888Y8753
X52293Y8701
X52097Y7913
X51506Y8307
X52646Y10781
X53052Y10739
X52636Y11568
X52233Y11833
X52310Y13270
X51675Y12861
X51442Y13701
X62499Y7014
X62246Y7166
X61959Y7008
X61604Y7008
X61938Y8010
X62043Y8284
X61830Y8527
X62343Y7977
X61603Y9456
X61604Y10433
X61978Y10433
X62352Y10433
X33770Y24350
X33743Y22704
X33721Y23533
X32999Y26057
X32990Y25300
X32953Y24498
X32916Y22692
X32884Y24192
X32568Y22720
X32516Y24542
X32481Y25929
X32353Y24232
X32176Y26063
X32120Y22529
X32032Y25322
X32028Y24429
X31878Y23001
X31832Y24050
X31467Y24035
X31219Y23634
X31087Y24440
X31034Y24114
X31024Y24832
X31004Y25915
X30954Y25543
X30914Y25193
X30693Y24535
X30384Y26063
X30315Y24488
X30001Y24064
X29882Y24350
X29784Y24854
X29762Y23391
X29719Y25903
X29696Y24094
X29627Y22720
X29331Y22779
X29148Y24049
X29136Y22550
X28809Y25423
X28333Y25431
X28091Y25600
X28081Y25187
X28065Y26082
X33760Y25102
X33760Y25496
X28081Y22559
X28081Y23031
X28081Y23503
X28081Y23976
X54517Y19685
X54517Y21653
X54478Y18346
X53651Y19763
X53494Y20826
X53376Y21653
X53139Y18346
X52746Y19252
X52706Y20236
X52155Y20866
X52116Y21653
X51722Y18346
X51486Y19055
X51407Y21653
X51321Y19746
X50895Y21299
X50384Y20433
X50147Y21378
X49990Y18346
X49675Y21653
X49357Y19171
X49084Y20039
X49084Y21378
X54645Y20791
X54645Y21185
X48966Y18248
X48966Y18720
X48966Y19192
X48966Y19665
X10561Y14223
X13491Y14148
X11821Y14104
X8455Y14104
X8645Y13871
X9925Y13815
X10236Y13815
X13259Y13661
X11668Y13433
X12366Y13341
X9738Y13278
X8805Y13141
X8533Y12849
X13573Y12746
X12936Y12700
X12559Y12658
X11252Y12583
X10015Y12579
X8494Y12303
X10580Y12222
X9291Y12097
X11240Y12037
X12287Y12028
X10530Y11919
X8455Y11821
X13578Y11024
X9262Y10856
X11067Y10566
X12006Y10336
X10506Y10335
X11299Y10334
X11542Y10128
X8356Y10108
X11201Y10050
X12578Y9743
X10443Y9535
X12527Y9446
X8386Y9321
X11880Y9305
X12533Y9136
X9100Y9118
X10482Y9045
X11482Y8986
X12157Y8833
X9183Y8829
X9916Y8528
X12882Y8510
X13183Y8502
X8376Y8130
X13014Y7923
X13599Y7898
X12715Y7889
X13380Y7632
X11738Y7494
X10891Y7448
X10378Y7378
X9478Y7378
X9177Y7378
X8876Y7378
X8575Y7378
X9970Y7374
X11506Y6998
X11289Y6742
X8334Y4667
X10083Y4450
X13336Y4410
X12923Y4262
X9990Y4163
X12342Y4124
X12067Y4124
X11791Y4124
X12903Y3947
X8327Y3927
X12342Y3819
X12067Y3819
X13317Y3622
X13022Y14160
X12628Y14160
X12234Y14160
X11336Y14160
X10936Y14160
X10010Y3691
X9616Y3691
X9222Y3691
X8829Y3691
X42254Y21634
X41778Y21603
X41546Y21413
X41310Y21634
X41073Y21433
X40837Y21634
X40601Y21433
X40365Y21634
X40128Y21433
X39892Y21634
X39656Y21433
X39420Y21634
X39184Y21433
X38947Y21634
X38711Y21433
X38475Y21634
X38239Y21433
X38002Y21634
X37766Y21433
X37530Y21634
X37294Y21433
X37058Y21634
X36821Y21433
X36585Y21634
X36349Y21433
X36113Y21634
X35876Y21433
X35640Y21634
X35404Y21433
X35168Y21634
X34932Y21433
X34695Y21634
X34459Y21433
X34223Y21634
X33987Y21433
X33750Y21634
X33514Y21433
X33278Y21634
X33042Y21433
X32806Y21634
X32569Y21433
X32333Y21634
X32097Y21433
X31861Y21634
X31546Y21476
X31553Y20941
X31980Y20747
X32431Y20737
X32873Y20730
X33346Y20732
X33851Y19685
X34161Y19685
X34408Y20158
X35006Y19955
X35302Y19946
X35145Y19675
X35028Y18993
X35283Y18725
X35380Y18184
X34941Y18184
X34481Y18304
X34481Y17972
X34481Y17677
X34487Y17386
X34157Y16702
X33612Y16706
X33750Y16122
X34380Y16201
X34450Y15369
X34465Y14983
X34813Y15177
X35047Y15377
X35304Y14944
X35997Y14643
X36595Y14626
X36942Y14922
X37717Y14747
X37699Y15302
X37709Y15849
X38417Y15722
X38372Y14923
X38398Y14158
X38420Y13348
X37717Y13308
X37717Y13593
X37717Y13878
X37717Y13007
X36929Y12691
X36942Y12406
X36974Y12108
X36924Y11626
X36520Y11575
X35890Y11097
X35513Y11109
X34577Y10965
X34252Y11565
X34044Y11362
X34062Y11889
X33704Y11936
X34255Y12120
X34461Y13263
X34684Y13492
X34730Y14175
X35021Y14186
X34534Y14394
X33865Y14394
X32999Y14583
X32805Y14797
X32601Y15001
X32399Y15203
X32402Y14390
X32849Y13925
X32862Y13224
X32486Y13322
X32609Y12854
X32811Y12317
X32571Y12091
X32377Y11693
X32569Y11437
X32670Y11054
X32710Y10748
X32412Y10846
X31908Y11048
X31852Y11349
X31908Y11911
X31761Y12156
X32018Y12539
X32036Y13030
X30808Y13422
X30498Y13736
X30680Y13957
X30715Y14477
X29262Y14547
X29262Y14232
X29262Y13917
X29262Y13602
X29262Y13287
X29262Y12972
X29262Y12658
X29401Y12380
X29262Y12106
X29262Y11791
X29262Y11476
X29262Y11161
X29262Y10846
X29262Y10532
X29619Y10444
X29402Y10200
X29711Y9498
X29715Y8563
X30088Y8519
X30090Y8804
X30463Y8563
X30365Y7697
X30680Y7697
X30995Y7697
X31310Y7697
X31624Y7697
X31939Y7697
X32254Y7697
X32569Y7697
X32884Y7697
X33475Y7894
X33829Y7697
X34144Y7697
X34459Y7697
X34774Y7697
X35089Y7697
X35404Y7697
X35719Y7697
X36034Y7697
X36349Y7697
X36861Y7736
X36767Y8391
X37165Y8427
X37510Y8382
X37789Y8684
X37731Y7929
X38042Y7697
X39105Y7697
X39499Y7697
X39860Y7721
X39852Y8184
X40082Y8629
X40163Y9502
X40603Y9279
X39417Y8967
X38954Y8648
X38997Y9499
X38554Y9547
X38069Y9975
X38061Y10260
X37993Y10620
X37990Y10916
X38720Y10817
X38711Y11201
X38720Y11526
X38381Y11854
X38720Y12234
X38704Y12586
X38724Y12881
X38407Y12563
X39402Y12135
X39405Y11691
X40581Y11835
X40561Y12356
X40562Y12745
X39737Y13210
X39437Y13171
X39414Y13624
X39414Y13911
X39414Y14198
X39414Y14614
X39414Y14900
X39396Y15324
X39396Y15632
X39396Y15921
X39172Y16661
X38892Y16756
X38580Y17151
X38878Y17471
X38878Y18037
X38885Y18323
X38794Y18984
X38997Y19729
X38829Y19961
X39129Y19996
X39754Y20160
X40050Y20160
X40676Y19955
X40962Y19955
X40798Y19672
X40694Y18996
X40853Y18727
X41033Y18150
X40557Y18150
X40071Y18304
X40071Y17972
X40071Y17677
X40078Y17386
X40841Y17164
X40837Y16787
X41640Y16779
X41613Y17113
X41908Y16681
X42387Y16638
X42412Y16043
X42412Y15650
X42412Y15256
X42412Y14862
X42412Y14469
X42412Y14075
X42412Y13681
X42412Y13287
X42373Y12658
X42412Y12264
X42412Y11949
X42412Y11575
X42284Y11092
X42373Y10728
X42412Y10098
X42128Y9988
X42412Y9547
X42391Y8385
X42412Y7697
X41388Y10965
X41262Y11260
X40393Y10775
X38401Y10483
X37524Y10035
X37392Y9646
X37054Y9717
X36631Y10039
X36191Y10138
X35450Y10060
X34922Y9124
X34782Y8845
X34711Y8538
X34449Y9228
X33618Y9199
X33426Y8874
X32682Y9220
X32756Y10068
X32462Y10068
X32171Y10068
X30985Y10010
X30955Y9547
X31230Y9016
X31256Y8112
X32366Y7985
X30050Y7697
X29735Y7697
X29420Y7697
X30614Y10601
X30770Y10840
X30542Y11132
X30325Y11559
X30766Y11557
X30864Y12241
X30348Y12530
X30072Y11976
X30061Y13185
X29262Y14862
X29262Y15177
X29262Y15492
X29262Y15807
X29262Y16122
X29262Y16437
X29262Y16752
X29262Y17067
X29262Y17382
X29781Y17996
X29341Y18602
X29262Y19075
X29833Y19673
X29833Y19992
X29833Y20310
X29833Y20628
X29833Y20947
X30197Y21273
X29479Y21316
X31075Y20485
X30942Y19906
X31506Y18996
X31739Y18292
X31725Y17972
X31730Y17684
X31731Y17386
X32518Y17164
X32527Y16751
X33037Y17136
X33327Y17352
X33327Y17925
X33290Y18311
X32686Y18177
X32186Y18184
X32526Y18730
X32405Y19396
X32722Y19396
X33068Y19396
X32058Y19407
X33869Y18996
X36085Y18311
X36083Y17912
X36083Y17473
X36001Y17089
X35274Y17111
X35325Y16829
X36467Y16697
X36791Y16689
X36813Y16197
X37223Y16477
X37294Y17306
X37271Y17677
X37284Y17972
X37294Y18472
X37589Y18209
X38258Y18164
X38058Y18706
X38129Y19582
X37898Y20162
X37188Y19955
X36896Y19955
X37038Y19665
X36915Y18996
X36269Y20116
X35941Y20167
X37936Y17158
X38135Y16752
X39748Y16702
X40282Y16083
X40282Y15322
X40282Y14561
X40281Y13799
X36598Y13852
X36802Y13527
X36640Y12639
X37719Y11539
X36920Y8916
X36476Y9012
X36383Y9282
X36180Y8919
X33674Y10261
X33616Y10544
X32043Y16077
X31664Y15728
X30577Y15873
X30626Y16602
X30938Y16570
X31401Y16702
X29866Y16395
X36188Y15340
X41674Y17884
X41636Y18349
X41918Y18671
X42409Y18710
X41811Y19262
X42077Y19574
X42412Y20256
X42412Y20650
X42392Y21235
X41821Y21043
X41624Y20160
X42284Y17352
X4055Y12264
X6985Y12189
X5315Y12145
X1949Y12145
X2139Y11912
X3419Y11856
X3730Y11856
X6753Y11702
X5162Y11474
X5860Y11382
X3232Y11319
X2299Y11182
X2027Y10890
X7067Y10787
X6430Y10741
X6053Y10699
X4746Y10624
X3509Y10620
X1988Y10344
X4074Y10263
X2785Y10138
X4734Y10078
X5781Y10069
X4024Y9960
X1949Y9862
X7072Y9065
X2756Y8897
X4561Y8607
X5500Y8377
X4000Y8376
X4793Y8375
X5036Y8169
X1850Y8149
X4695Y8091
X6072Y7784
X3937Y7576
X6021Y7487
X1880Y7362
X5374Y7346
X6027Y7177
X2594Y7159
X3976Y7086
X4976Y7027
X5651Y6874
X2677Y6870
X3410Y6569
X6376Y6551
X6677Y6543
X1870Y6171
X6508Y5964
X7093Y5939
X6209Y5930
X6874Y5673
X5232Y5535
X4385Y5489
X3872Y5419
X2972Y5419
X2671Y5419
X2370Y5419
X2069Y5419
X3464Y5415
X5000Y5039
X4783Y4783
X1828Y2708
X3577Y2491
X6830Y2451
X6417Y2303
X3484Y2204
X5836Y2165
X5561Y2165
X5285Y2165
X6397Y1988
X1821Y1968
X5836Y1860
X5561Y1860
X6811Y1663
X6516Y12201
X6122Y12201
X5728Y12201
X4830Y12201
X4430Y12201
X3504Y1732
X3110Y1732
X2716Y1732
X2323Y1732
X55276Y3472
X56939Y3209
X57401Y3209
X58258Y3209
X59134Y3209
X60277Y3476
X54655Y5403
T02
X13153Y25615
X16185Y19218
X17523Y21324
X18704Y23844
X19374Y20025
X20712Y16108
X22681Y14592
X23350Y30202
X25771Y16915
X39571Y9966
X58586Y27505
T03
X47319Y6090G85X47319Y5657
X47319Y4346G85X47319Y4110
X50720Y6090G85X50720Y5657
X50720Y4346G85X50720Y4110
X47882Y5677
X50157Y5677
T04
X1124Y22879
X4189Y23029
X7681Y24094
X10712Y24763
X44748Y20330
X45061Y8952
X46561Y8952
X46677Y20330
X49499Y19752
X50863Y18388
X36317Y16339
X34739Y16339
X33317Y16339
T05
X45407Y10734
X45584Y16836
X47868Y10734
X49561Y10734
X50309Y10734
X50328Y16836
X52277Y16836
X52828Y10734
X53006Y16836
X53035Y19110
X54523Y19110
X45482Y13878
X50227Y13878
X50207Y7775
X49459Y7775
X47766Y7775
X45305Y7775
X52727Y7775
X52904Y13878
X52175Y13878
X9340Y6837
X10522Y6049
X9340Y5262
X9262Y13963
X9662Y11963
X8862Y11963
X42097Y8012
X33018Y8983
X33018Y8183
X31018Y8583
X2834Y4878
X4016Y4090
X2834Y3303
X2756Y12004
X3156Y10004
X2356Y10004
T06
X3478Y28243
X3478Y26629
X5722Y28243
X5722Y26629
X7966Y28243
X7966Y26629
X10210Y28243
X10210Y26629
X12454Y28243
X12454Y26629
X14698Y28243
X14698Y26629
X16943Y28243
X16943Y26629
X19187Y28243
X19187Y26629
X21431Y28243
X21431Y26629
X23675Y28243
X23675Y26629
X25919Y28243
X25919Y26629
X37336Y28224
X37336Y26610
X39580Y28224
X39580Y26610
X41824Y28224
X41824Y26610
X44069Y28224
X44069Y26610
X46313Y28224
X46313Y26610
X48557Y28224
X48557Y26610
X50801Y28224
X50801Y26610
X53045Y28224
X53045Y26610
X55289Y28224
X55289Y26610
X57533Y28224
X57533Y26610
X59777Y28224
X59777Y26610
X13149Y7014
X13149Y6014
X13149Y5014
X6643Y5055
X6643Y4055
X6643Y3055
T07
X26126Y5655
X26126Y2505
X26913Y4080
X27700Y5655
X27700Y2505
X28488Y4080
X29275Y5655
X29275Y2505
X30063Y4080
X30850Y5655
X30850Y2505
X31637Y4080
X32425Y5655
X32425Y2505
X33212Y4080
X34000Y5655
X34000Y2505
X34787Y4080
X35574Y5655
X35574Y2505
X36362Y4080
X37149Y5655
X37149Y2505
T08
X23567Y3883
X39708Y3883
T09
X16342Y10635
X57563Y10635
M30
