G75*
G70*
%OFA0B0*%
%FSLAX25Y25*%
%IPPOS*%
%LPD*%
%AMOC8*
5,1,8,0,0,1.08239X$1,22.5*
%
%AMM117*
21,1,0.027170,0.052760,-0.000000,0.000000,0.000000*
21,1,0.017320,0.062600,-0.000000,0.000000,0.000000*
1,1,0.009840,0.008660,-0.026380*
1,1,0.009840,-0.008660,-0.026380*
1,1,0.009840,-0.008660,0.026380*
1,1,0.009840,0.008660,0.026380*
%
%AMM184*
21,1,0.092130,0.073230,0.000000,-0.000000,180.000000*
21,1,0.069290,0.096060,0.000000,-0.000000,180.000000*
1,1,0.022840,-0.034650,0.036610*
1,1,0.022840,0.034650,0.036610*
1,1,0.022840,0.034650,-0.036610*
1,1,0.022840,-0.034650,-0.036610*
%
%AMM185*
21,1,0.100000,0.111020,0.000000,-0.000000,270.000000*
21,1,0.075590,0.135430,0.000000,-0.000000,270.000000*
1,1,0.024410,-0.055510,-0.037800*
1,1,0.024410,-0.055510,0.037800*
1,1,0.024410,0.055510,0.037800*
1,1,0.024410,0.055510,-0.037800*
%
%AMM186*
21,1,0.080320,0.083460,0.000000,-0.000000,270.000000*
21,1,0.059840,0.103940,0.000000,-0.000000,270.000000*
1,1,0.020470,-0.041730,-0.029920*
1,1,0.020470,-0.041730,0.029920*
1,1,0.020470,0.041730,0.029920*
1,1,0.020470,0.041730,-0.029920*
%
%AMM187*
21,1,0.084250,0.053540,0.000000,-0.000000,90.000000*
21,1,0.065350,0.072440,0.000000,-0.000000,90.000000*
1,1,0.018900,0.026770,0.032680*
1,1,0.018900,0.026770,-0.032680*
1,1,0.018900,-0.026770,-0.032680*
1,1,0.018900,-0.026770,0.032680*
%
%AMM188*
21,1,0.040950,0.030320,0.000000,-0.000000,0.000000*
21,1,0.028350,0.042910,0.000000,-0.000000,0.000000*
1,1,0.012600,0.014170,-0.015160*
1,1,0.012600,-0.014170,-0.015160*
1,1,0.012600,-0.014170,0.015160*
1,1,0.012600,0.014170,0.015160*
%
%AMM189*
21,1,0.027170,0.052760,0.000000,-0.000000,180.000000*
21,1,0.017320,0.062600,0.000000,-0.000000,180.000000*
1,1,0.009840,-0.008660,0.026380*
1,1,0.009840,0.008660,0.026380*
1,1,0.009840,0.008660,-0.026380*
1,1,0.009840,-0.008660,-0.026380*
%
%AMM190*
21,1,0.041340,0.026770,0.000000,-0.000000,270.000000*
21,1,0.029130,0.038980,0.000000,-0.000000,270.000000*
1,1,0.012210,-0.013390,-0.014570*
1,1,0.012210,-0.013390,0.014570*
1,1,0.012210,0.013390,0.014570*
1,1,0.012210,0.013390,-0.014570*
%
%AMM191*
21,1,0.076380,0.036220,0.000000,-0.000000,0.000000*
21,1,0.061810,0.050790,0.000000,-0.000000,0.000000*
1,1,0.014570,0.030910,-0.018110*
1,1,0.014570,-0.030910,-0.018110*
1,1,0.014570,-0.030910,0.018110*
1,1,0.014570,0.030910,0.018110*
%
%AMM192*
21,1,0.038980,0.026770,0.000000,-0.000000,270.000000*
21,1,0.026770,0.038980,0.000000,-0.000000,270.000000*
1,1,0.012210,-0.013390,-0.013390*
1,1,0.012210,-0.013390,0.013390*
1,1,0.012210,0.013390,0.013390*
1,1,0.012210,0.013390,-0.013390*
%
%AMM193*
21,1,0.021260,0.016540,0.000000,-0.000000,180.000000*
21,1,0.012600,0.025200,0.000000,-0.000000,180.000000*
1,1,0.008660,-0.006300,0.008270*
1,1,0.008660,0.006300,0.008270*
1,1,0.008660,0.006300,-0.008270*
1,1,0.008660,-0.006300,-0.008270*
%
%AMM194*
21,1,0.029130,0.018900,0.000000,-0.000000,0.000000*
21,1,0.018900,0.029130,0.000000,-0.000000,0.000000*
1,1,0.010240,0.009450,-0.009450*
1,1,0.010240,-0.009450,-0.009450*
1,1,0.010240,-0.009450,0.009450*
1,1,0.010240,0.009450,0.009450*
%
%AMM195*
21,1,0.025200,0.019680,0.000000,-0.000000,270.000000*
21,1,0.015750,0.029130,0.000000,-0.000000,270.000000*
1,1,0.009450,-0.009840,-0.007870*
1,1,0.009450,-0.009840,0.007870*
1,1,0.009450,0.009840,0.007870*
1,1,0.009450,0.009840,-0.007870*
%
%AMM196*
21,1,0.025200,0.019680,0.000000,-0.000000,180.000000*
21,1,0.015750,0.029130,0.000000,-0.000000,180.000000*
1,1,0.009450,-0.007870,0.009840*
1,1,0.009450,0.007870,0.009840*
1,1,0.009450,0.007870,-0.009840*
1,1,0.009450,-0.007870,-0.009840*
%
%AMM278*
21,1,0.029530,0.026380,-0.000000,-0.000000,90.000000*
21,1,0.020470,0.035430,-0.000000,-0.000000,90.000000*
1,1,0.009060,0.013190,0.010240*
1,1,0.009060,0.013190,-0.010240*
1,1,0.009060,-0.013190,-0.010240*
1,1,0.009060,-0.013190,0.010240*
%
%AMM279*
21,1,0.021650,0.027950,-0.000000,-0.000000,90.000000*
21,1,0.014170,0.035430,-0.000000,-0.000000,90.000000*
1,1,0.007480,0.013980,0.007090*
1,1,0.007480,0.013980,-0.007090*
1,1,0.007480,-0.013980,-0.007090*
1,1,0.007480,-0.013980,0.007090*
%
%AMM280*
21,1,0.016540,0.028980,-0.000000,-0.000000,270.000000*
21,1,0.010080,0.035430,-0.000000,-0.000000,270.000000*
1,1,0.006460,-0.014490,-0.005040*
1,1,0.006460,-0.014490,0.005040*
1,1,0.006460,0.014490,0.005040*
1,1,0.006460,0.014490,-0.005040*
%
%AMM281*
21,1,0.027560,0.030710,-0.000000,-0.000000,0.000000*
21,1,0.018900,0.039370,-0.000000,-0.000000,0.000000*
1,1,0.008660,0.009450,-0.015350*
1,1,0.008660,-0.009450,-0.015350*
1,1,0.008660,-0.009450,0.015350*
1,1,0.008660,0.009450,0.015350*
%
%AMM282*
21,1,0.031500,0.018900,-0.000000,-0.000000,270.000000*
21,1,0.022840,0.027560,-0.000000,-0.000000,270.000000*
1,1,0.008660,-0.009450,-0.011420*
1,1,0.008660,-0.009450,0.011420*
1,1,0.008660,0.009450,0.011420*
1,1,0.008660,0.009450,-0.011420*
%
%AMM283*
21,1,0.035430,0.072440,-0.000000,-0.000000,270.000000*
21,1,0.025200,0.082680,-0.000000,-0.000000,270.000000*
1,1,0.010240,-0.036220,-0.012600*
1,1,0.010240,-0.036220,0.012600*
1,1,0.010240,0.036220,0.012600*
1,1,0.010240,0.036220,-0.012600*
%
%AMM284*
21,1,0.031500,0.018900,-0.000000,-0.000000,0.000000*
21,1,0.022840,0.027560,-0.000000,-0.000000,0.000000*
1,1,0.008660,0.011420,-0.009450*
1,1,0.008660,-0.011420,-0.009450*
1,1,0.008660,-0.011420,0.009450*
1,1,0.008660,0.011420,0.009450*
%
%AMM285*
21,1,0.027560,0.030710,-0.000000,-0.000000,90.000000*
21,1,0.018900,0.039370,-0.000000,-0.000000,90.000000*
1,1,0.008660,0.015350,0.009450*
1,1,0.008660,0.015350,-0.009450*
1,1,0.008660,-0.015350,-0.009450*
1,1,0.008660,-0.015350,0.009450*
%
%AMM286*
21,1,0.039370,0.030320,-0.000000,-0.000000,90.000000*
21,1,0.028350,0.041340,-0.000000,-0.000000,90.000000*
1,1,0.011020,0.015160,0.014170*
1,1,0.011020,0.015160,-0.014170*
1,1,0.011020,-0.015160,-0.014170*
1,1,0.011020,-0.015160,0.014170*
%
%AMM287*
21,1,0.047240,0.075980,-0.000000,-0.000000,180.000000*
21,1,0.034650,0.088580,-0.000000,-0.000000,180.000000*
1,1,0.012600,-0.017320,0.037990*
1,1,0.012600,0.017320,0.037990*
1,1,0.012600,0.017320,-0.037990*
1,1,0.012600,-0.017320,-0.037990*
%
%AMM288*
21,1,0.043310,0.035430,-0.000000,-0.000000,180.000000*
21,1,0.031500,0.047240,-0.000000,-0.000000,180.000000*
1,1,0.011810,-0.015750,0.017720*
1,1,0.011810,0.015750,0.017720*
1,1,0.011810,0.015750,-0.017720*
1,1,0.011810,-0.015750,-0.017720*
%
%AMM289*
21,1,0.031500,0.030710,-0.000000,-0.000000,180.000000*
21,1,0.022050,0.040160,-0.000000,-0.000000,180.000000*
1,1,0.009450,-0.011020,0.015350*
1,1,0.009450,0.011020,0.015350*
1,1,0.009450,0.011020,-0.015350*
1,1,0.009450,-0.011020,-0.015350*
%
%AMM290*
21,1,0.035430,0.072440,-0.000000,-0.000000,180.000000*
21,1,0.025200,0.082680,-0.000000,-0.000000,180.000000*
1,1,0.010240,-0.012600,0.036220*
1,1,0.010240,0.012600,0.036220*
1,1,0.010240,0.012600,-0.036220*
1,1,0.010240,-0.012600,-0.036220*
%
%AMM291*
21,1,0.141730,0.067720,-0.000000,-0.000000,180.000000*
21,1,0.120870,0.088580,-0.000000,-0.000000,180.000000*
1,1,0.020870,-0.060430,0.033860*
1,1,0.020870,0.060430,0.033860*
1,1,0.020870,0.060430,-0.033860*
1,1,0.020870,-0.060430,-0.033860*
%
%AMM292*
21,1,0.047240,0.075990,-0.000000,-0.000000,180.000000*
21,1,0.034650,0.088580,-0.000000,-0.000000,180.000000*
1,1,0.012600,-0.017320,0.037990*
1,1,0.012600,0.017320,0.037990*
1,1,0.012600,0.017320,-0.037990*
1,1,0.012600,-0.017320,-0.037990*
%
%AMM293*
21,1,0.090550,0.073230,-0.000000,-0.000000,270.000000*
21,1,0.069290,0.094490,-0.000000,-0.000000,270.000000*
1,1,0.021260,-0.036610,-0.034650*
1,1,0.021260,-0.036610,0.034650*
1,1,0.021260,0.036610,0.034650*
1,1,0.021260,0.036610,-0.034650*
%
%AMM95*
21,1,0.084250,0.045670,0.000000,0.000000,270.000000*
21,1,0.067320,0.062600,0.000000,0.000000,270.000000*
1,1,0.016930,-0.022840,-0.033660*
1,1,0.016930,-0.022840,0.033660*
1,1,0.016930,0.022840,0.033660*
1,1,0.016930,0.022840,-0.033660*
%
%AMM96*
21,1,0.064570,0.020470,0.000000,0.000000,270.000000*
21,1,0.053940,0.031100,0.000000,0.000000,270.000000*
1,1,0.010630,-0.010240,-0.026970*
1,1,0.010630,-0.010240,0.026970*
1,1,0.010630,0.010240,0.026970*
1,1,0.010630,0.010240,-0.026970*
%
%AMM97*
21,1,0.038980,0.026770,0.000000,0.000000,90.000000*
21,1,0.026770,0.038980,0.000000,0.000000,90.000000*
1,1,0.012210,0.013390,0.013390*
1,1,0.012210,0.013390,-0.013390*
1,1,0.012210,-0.013390,-0.013390*
1,1,0.012210,-0.013390,0.013390*
%
%AMM98*
21,1,0.033070,0.030710,0.000000,0.000000,270.000000*
21,1,0.022050,0.041730,0.000000,0.000000,270.000000*
1,1,0.011020,-0.015350,-0.011020*
1,1,0.011020,-0.015350,0.011020*
1,1,0.011020,0.015350,0.011020*
1,1,0.011020,0.015350,-0.011020*
%
%ADD10C,0.06000*%
%ADD11R,0.07874X0.05906*%
%ADD12R,0.07874X0.14961*%
%ADD13C,0.22047*%
%ADD132C,0.02913*%
%ADD133C,0.06457*%
%ADD14C,0.02362*%
%ADD149R,0.02559X0.01575*%
%ADD150R,0.01575X0.02559*%
%ADD151R,0.05512X0.01181*%
%ADD152R,0.03543X0.03150*%
%ADD154C,0.05118*%
%ADD156R,0.03150X0.03543*%
%ADD164C,0.03100*%
%ADD167C,0.03900*%
%ADD202O,0.05118X0.01260*%
%ADD203O,0.01260X0.05118*%
%ADD204O,0.04724X0.01575*%
%ADD205C,0.03494*%
%ADD208R,0.01772X0.01378*%
%ADD209R,0.01378X0.01772*%
%ADD214O,0.09055X0.02756*%
%ADD221C,0.03543*%
%ADD223C,0.04724*%
%ADD224C,0.04294*%
%ADD268M95*%
%ADD269M96*%
%ADD270M97*%
%ADD271M98*%
%ADD291M117*%
%ADD360M184*%
%ADD361M185*%
%ADD362M186*%
%ADD363M187*%
%ADD364M188*%
%ADD365M189*%
%ADD366M190*%
%ADD367M191*%
%ADD368M192*%
%ADD369M193*%
%ADD37C,0.05906*%
%ADD370M194*%
%ADD371M195*%
%ADD372M196*%
%ADD389R,0.08661X0.04724*%
%ADD390R,0.25197X0.22835*%
%ADD391R,0.07874X0.07500*%
%ADD392O,0.07874X0.07500*%
%ADD47R,0.10335X0.10335*%
%ADD48C,0.10335*%
%ADD487M278*%
%ADD488M279*%
%ADD489M280*%
%ADD49C,0.06693*%
%ADD490M281*%
%ADD491M282*%
%ADD492M283*%
%ADD493M284*%
%ADD494M285*%
%ADD495M286*%
%ADD496M287*%
%ADD497M288*%
%ADD498M289*%
%ADD499M290*%
%ADD50R,0.01181X0.04528*%
%ADD500M291*%
%ADD501M292*%
%ADD502M293*%
%ADD51O,0.03937X0.08268*%
%ADD52O,0.03937X0.06299*%
%ADD65R,0.05118X0.03937*%
%ADD70C,0.00472*%
%ADD71C,0.11220*%
%ADD72C,0.02559*%
X0000000Y0000000D02*
%LPD*%
G01*
D70*
X0604479Y0192225D02*
X0553298Y0192225D01*
X0553298Y0219784D01*
X0604479Y0219784D01*
X0604479Y0192225D01*
G36*
X0604479Y0192225D02*
G01*
X0553298Y0192225D01*
X0553298Y0219784D01*
X0604479Y0219784D01*
X0604479Y0192225D01*
G37*
D10*
X0464292Y0074508D03*
G36*
G01*
X0462500Y0076969D02*
X0462500Y0072048D01*
G75*
G02*
X0462107Y0071654I-000394J0000000D01*
G01*
X0458957Y0071654D01*
G75*
G02*
X0458563Y0072048I0000000J0000394D01*
G01*
X0458563Y0076969D01*
G75*
G02*
X0458957Y0077362I0000394J0000000D01*
G01*
X0462107Y0077362D01*
G75*
G02*
X0462500Y0076969I0000000J-000394D01*
G01*
G37*
G36*
G01*
X0455020Y0076969D02*
X0455020Y0072048D01*
G75*
G02*
X0454626Y0071654I-000394J0000000D01*
G01*
X0451477Y0071654D01*
G75*
G02*
X0451083Y0072048I0000000J0000394D01*
G01*
X0451083Y0076969D01*
G75*
G02*
X0451477Y0077362I0000394J0000000D01*
G01*
X0454626Y0077362D01*
G75*
G02*
X0455020Y0076969I0000000J-000394D01*
G01*
G37*
X0449292Y0074508D03*
G36*
G01*
X0560571Y0236122D02*
X0563642Y0236122D01*
G75*
G02*
X0563918Y0235847I0000000J-000276D01*
G01*
X0563918Y0233642D01*
G75*
G02*
X0563642Y0233366I-000276J0000000D01*
G01*
X0560571Y0233366D01*
G75*
G02*
X0560296Y0233642I0000000J0000276D01*
G01*
X0560296Y0235847D01*
G75*
G02*
X0560571Y0236122I0000276J0000000D01*
G01*
G37*
G36*
G01*
X0560571Y0229823D02*
X0563642Y0229823D01*
G75*
G02*
X0563918Y0229548I0000000J-000276D01*
G01*
X0563918Y0227343D01*
G75*
G02*
X0563642Y0227067I-000276J0000000D01*
G01*
X0560571Y0227067D01*
G75*
G02*
X0560296Y0227343I0000000J0000276D01*
G01*
X0560296Y0229548D01*
G75*
G02*
X0560571Y0229823I0000276J0000000D01*
G01*
G37*
D11*
X0223524Y0231693D03*
X0223524Y0222638D03*
X0223524Y0213583D03*
D12*
X0248327Y0222638D03*
D13*
X0162107Y0091339D03*
G36*
X0191112Y0200370D02*
G01*
X0196226Y0203323D01*
X0200163Y0196504D01*
X0195049Y0193551D01*
X0191112Y0200370D01*
G37*
G36*
X0183270Y0195843D02*
G01*
X0188384Y0198796D01*
X0192321Y0191976D01*
X0187207Y0189024D01*
X0183270Y0195843D01*
G37*
G36*
X0175428Y0191315D02*
G01*
X0180542Y0194268D01*
X0184479Y0187449D01*
X0179365Y0184496D01*
X0175428Y0191315D01*
G37*
G36*
X0191750Y0172099D02*
G01*
X0204707Y0179579D01*
X0208644Y0172760D01*
X0195687Y0165280D01*
X0191750Y0172099D01*
G37*
G36*
G01*
X0503642Y0055670D02*
X0503642Y0052599D01*
G75*
G02*
X0503366Y0052323I-000276J0000000D01*
G01*
X0501162Y0052323D01*
G75*
G02*
X0500886Y0052599I0000000J0000276D01*
G01*
X0500886Y0055670D01*
G75*
G02*
X0501162Y0055945I0000276J0000000D01*
G01*
X0503366Y0055945D01*
G75*
G02*
X0503642Y0055670I0000000J-000276D01*
G01*
G37*
G36*
G01*
X0497343Y0055670D02*
X0497343Y0052599D01*
G75*
G02*
X0497067Y0052323I-000276J0000000D01*
G01*
X0494862Y0052323D01*
G75*
G02*
X0494587Y0052599I0000000J0000276D01*
G01*
X0494587Y0055670D01*
G75*
G02*
X0494862Y0055945I0000276J0000000D01*
G01*
X0497067Y0055945D01*
G75*
G02*
X0497343Y0055670I0000000J-000276D01*
G01*
G37*
G36*
X0211274Y0126455D02*
G01*
X0207098Y0122279D01*
X0201530Y0127847D01*
X0205706Y0132023D01*
X0211274Y0126455D01*
G37*
G36*
X0217677Y0132858D02*
G01*
X0213501Y0128682D01*
X0207933Y0134250D01*
X0212109Y0138426D01*
X0217677Y0132858D01*
G37*
G36*
X0224080Y0139261D02*
G01*
X0219904Y0135085D01*
X0214336Y0140653D01*
X0218512Y0144829D01*
X0224080Y0139261D01*
G37*
G36*
X0203340Y0153598D02*
G01*
X0192761Y0143019D01*
X0187193Y0148587D01*
X0197772Y0159166D01*
X0203340Y0153598D01*
G37*
G36*
G01*
X0257422Y0180118D02*
X0260492Y0180118D01*
G75*
G02*
X0260768Y0179843I0000000J-000276D01*
G01*
X0260768Y0177638D01*
G75*
G02*
X0260492Y0177362I-000276J0000000D01*
G01*
X0257422Y0177362D01*
G75*
G02*
X0257146Y0177638I0000000J0000276D01*
G01*
X0257146Y0179843D01*
G75*
G02*
X0257422Y0180118I0000276J0000000D01*
G01*
G37*
G36*
G01*
X0257422Y0173819D02*
X0260492Y0173819D01*
G75*
G02*
X0260768Y0173544I0000000J-000276D01*
G01*
X0260768Y0171339D01*
G75*
G02*
X0260492Y0171063I-000276J0000000D01*
G01*
X0257422Y0171063D01*
G75*
G02*
X0257146Y0171339I0000000J0000276D01*
G01*
X0257146Y0173544D01*
G75*
G02*
X0257422Y0173819I0000276J0000000D01*
G01*
G37*
D14*
X0615748Y0118898D03*
X0619488Y0118898D03*
X0623229Y0118898D03*
X0619292Y0084646D03*
X0615748Y0084646D03*
X0280512Y0249607D03*
X0280512Y0254331D03*
X0280512Y0244882D03*
X0280512Y0240158D03*
X0337303Y0265591D03*
X0337303Y0269528D03*
G36*
G01*
X0441398Y0233366D02*
X0438327Y0233366D01*
G75*
G02*
X0438051Y0233642I0000000J0000276D01*
G01*
X0438051Y0235847D01*
G75*
G02*
X0438327Y0236122I0000276J0000000D01*
G01*
X0441398Y0236122D01*
G75*
G02*
X0441674Y0235847I0000000J-000276D01*
G01*
X0441674Y0233642D01*
G75*
G02*
X0441398Y0233366I-000276J0000000D01*
G01*
G37*
G36*
G01*
X0441398Y0239666D02*
X0438327Y0239666D01*
G75*
G02*
X0438051Y0239941I0000000J0000276D01*
G01*
X0438051Y0242146D01*
G75*
G02*
X0438327Y0242422I0000276J0000000D01*
G01*
X0441398Y0242422D01*
G75*
G02*
X0441674Y0242146I0000000J-000276D01*
G01*
X0441674Y0239941D01*
G75*
G02*
X0441398Y0239666I-000276J0000000D01*
G01*
G37*
G36*
G01*
X0261083Y0099803D02*
X0258012Y0099803D01*
G75*
G02*
X0257736Y0100079I0000000J0000276D01*
G01*
X0257736Y0102284D01*
G75*
G02*
X0258012Y0102559I0000276J0000000D01*
G01*
X0261083Y0102559D01*
G75*
G02*
X0261359Y0102284I0000000J-000276D01*
G01*
X0261359Y0100079D01*
G75*
G02*
X0261083Y0099803I-000276J0000000D01*
G01*
G37*
G36*
G01*
X0261083Y0106103D02*
X0258012Y0106103D01*
G75*
G02*
X0257736Y0106378I0000000J0000276D01*
G01*
X0257736Y0108583D01*
G75*
G02*
X0258012Y0108859I0000276J0000000D01*
G01*
X0261083Y0108859D01*
G75*
G02*
X0261359Y0108583I0000000J-000276D01*
G01*
X0261359Y0106378D01*
G75*
G02*
X0261083Y0106103I-000276J0000000D01*
G01*
G37*
G36*
G01*
X0161162Y0205118D02*
X0164233Y0205118D01*
G75*
G02*
X0164508Y0204843I0000000J-000276D01*
G01*
X0164508Y0202638D01*
G75*
G02*
X0164233Y0202362I-000276J0000000D01*
G01*
X0161162Y0202362D01*
G75*
G02*
X0160886Y0202638I0000000J0000276D01*
G01*
X0160886Y0204843D01*
G75*
G02*
X0161162Y0205118I0000276J0000000D01*
G01*
G37*
G36*
G01*
X0161162Y0198819D02*
X0164233Y0198819D01*
G75*
G02*
X0164508Y0198544I0000000J-000276D01*
G01*
X0164508Y0196339D01*
G75*
G02*
X0164233Y0196063I-000276J0000000D01*
G01*
X0161162Y0196063D01*
G75*
G02*
X0160886Y0196339I0000000J0000276D01*
G01*
X0160886Y0198544D01*
G75*
G02*
X0161162Y0198819I0000276J0000000D01*
G01*
G37*
D14*
X0546260Y0068603D03*
X0552461Y0049292D03*
X0602477Y0049327D03*
X0569095Y0046654D03*
X0573721Y0046654D03*
X0582284Y0046654D03*
X0591044Y0046654D03*
D11*
X0244193Y0165748D03*
X0244193Y0156693D03*
X0244193Y0147638D03*
D12*
X0268996Y0156693D03*
G36*
X0160600Y0191512D02*
G01*
X0165714Y0194465D01*
X0169651Y0187646D01*
X0164537Y0184693D01*
X0160600Y0191512D01*
G37*
G36*
X0152758Y0186985D02*
G01*
X0157872Y0189937D01*
X0161809Y0183118D01*
X0156695Y0180165D01*
X0152758Y0186985D01*
G37*
G36*
X0144916Y0182457D02*
G01*
X0150030Y0185410D01*
X0153967Y0178591D01*
X0148853Y0175638D01*
X0144916Y0182457D01*
G37*
G36*
X0161239Y0163241D02*
G01*
X0174195Y0170721D01*
X0178132Y0163902D01*
X0165176Y0156422D01*
X0161239Y0163241D01*
G37*
D37*
X0526969Y0092323D03*
X0501772Y0092323D03*
X0494292Y0092323D03*
X0477362Y0092323D03*
D14*
X0467914Y0090551D03*
X0463977Y0090551D03*
D37*
X0452756Y0092323D03*
X0528740Y0153347D03*
X0521457Y0153347D03*
X0501969Y0153347D03*
X0454528Y0153347D03*
D11*
X0222343Y0200985D03*
X0222343Y0191929D03*
X0222343Y0182874D03*
D12*
X0247146Y0191929D03*
G36*
G01*
X0142776Y0285532D02*
X0139705Y0285532D01*
G75*
G02*
X0139429Y0285807I0000000J0000276D01*
G01*
X0139429Y0288012D01*
G75*
G02*
X0139705Y0288288I0000276J0000000D01*
G01*
X0142776Y0288288D01*
G75*
G02*
X0143051Y0288012I0000000J-000276D01*
G01*
X0143051Y0285807D01*
G75*
G02*
X0142776Y0285532I-000276J0000000D01*
G01*
G37*
G36*
G01*
X0142776Y0291831D02*
X0139705Y0291831D01*
G75*
G02*
X0139429Y0292107I0000000J0000276D01*
G01*
X0139429Y0294311D01*
G75*
G02*
X0139705Y0294587I0000276J0000000D01*
G01*
X0142776Y0294587D01*
G75*
G02*
X0143051Y0294311I0000000J-000276D01*
G01*
X0143051Y0292107D01*
G75*
G02*
X0142776Y0291831I-000276J0000000D01*
G01*
G37*
G36*
G01*
X0547697Y0117067D02*
X0545020Y0117067D01*
G75*
G02*
X0544685Y0117402I0000000J0000335D01*
G01*
X0544685Y0120079D01*
G75*
G02*
X0545020Y0120414I0000335J0000000D01*
G01*
X0547697Y0120414D01*
G75*
G02*
X0548032Y0120079I0000000J-000335D01*
G01*
X0548032Y0117402D01*
G75*
G02*
X0547697Y0117067I-000335J0000000D01*
G01*
G37*
G36*
G01*
X0547697Y0123288D02*
X0545020Y0123288D01*
G75*
G02*
X0544685Y0123622I0000000J0000335D01*
G01*
X0544685Y0126299D01*
G75*
G02*
X0545020Y0126634I0000335J0000000D01*
G01*
X0547697Y0126634D01*
G75*
G02*
X0548032Y0126299I0000000J-000335D01*
G01*
X0548032Y0123622D01*
G75*
G02*
X0547697Y0123288I-000335J0000000D01*
G01*
G37*
G36*
X0185206Y0239642D02*
G01*
X0190321Y0242595D01*
X0194258Y0235776D01*
X0189143Y0232823D01*
X0185206Y0239642D01*
G37*
G36*
X0177364Y0235114D02*
G01*
X0182479Y0238067D01*
X0186416Y0231248D01*
X0181301Y0228295D01*
X0177364Y0235114D01*
G37*
G36*
X0169522Y0230587D02*
G01*
X0174637Y0233540D01*
X0178574Y0226721D01*
X0173459Y0223768D01*
X0169522Y0230587D01*
G37*
G36*
X0185845Y0211371D02*
G01*
X0198801Y0218851D01*
X0202738Y0212032D01*
X0189782Y0204551D01*
X0185845Y0211371D01*
G37*
D71*
X0234351Y0023819D03*
X0395768Y0023819D03*
D47*
X0259941Y0041536D03*
D48*
X0275689Y0041536D03*
X0291437Y0041536D03*
X0307185Y0041536D03*
X0322933Y0041536D03*
X0338681Y0041536D03*
X0354429Y0041536D03*
X0370177Y0041536D03*
X0267815Y0025788D03*
X0283563Y0025788D03*
X0299311Y0025788D03*
X0315059Y0025788D03*
X0330807Y0025788D03*
X0346555Y0025788D03*
X0362303Y0025788D03*
X0259941Y0010040D03*
X0275689Y0010040D03*
X0291437Y0010040D03*
X0307185Y0010040D03*
X0322933Y0010040D03*
X0338681Y0010040D03*
X0354429Y0010040D03*
X0370177Y0010040D03*
G36*
G01*
X0253740Y0248130D02*
X0253740Y0254429D01*
G75*
G02*
X0254725Y0255414I0000984J0000000D01*
G01*
X0261024Y0255414D01*
G75*
G02*
X0262008Y0254429I0000000J-000984D01*
G01*
X0262008Y0248130D01*
G75*
G02*
X0261024Y0247146I-000984J0000000D01*
G01*
X0254725Y0247146D01*
G75*
G02*
X0253740Y0248130I0000000J0000984D01*
G01*
G37*
G36*
G01*
X0231299Y0248130D02*
X0231299Y0254429D01*
G75*
G02*
X0232284Y0255414I0000984J0000000D01*
G01*
X0238583Y0255414D01*
G75*
G02*
X0239567Y0254429I0000000J-000984D01*
G01*
X0239567Y0248130D01*
G75*
G02*
X0238583Y0247146I-000984J0000000D01*
G01*
X0232284Y0247146D01*
G75*
G02*
X0231299Y0248130I0000000J0000984D01*
G01*
G37*
G36*
G01*
X0208859Y0248130D02*
X0208859Y0254429D01*
G75*
G02*
X0209843Y0255414I0000984J0000000D01*
G01*
X0216142Y0255414D01*
G75*
G02*
X0217126Y0254429I0000000J-000984D01*
G01*
X0217126Y0248130D01*
G75*
G02*
X0216142Y0247146I-000984J0000000D01*
G01*
X0209843Y0247146D01*
G75*
G02*
X0208859Y0248130I0000000J0000984D01*
G01*
G37*
G36*
G01*
X0186418Y0248130D02*
X0186418Y0254429D01*
G75*
G02*
X0187402Y0255414I0000984J0000000D01*
G01*
X0193701Y0255414D01*
G75*
G02*
X0194685Y0254429I0000000J-000984D01*
G01*
X0194685Y0248130D01*
G75*
G02*
X0193701Y0247146I-000984J0000000D01*
G01*
X0187402Y0247146D01*
G75*
G02*
X0186418Y0248130I0000000J0000984D01*
G01*
G37*
G36*
G01*
X0163977Y0248130D02*
X0163977Y0254429D01*
G75*
G02*
X0164961Y0255414I0000984J0000000D01*
G01*
X0171260Y0255414D01*
G75*
G02*
X0172244Y0254429I0000000J-000984D01*
G01*
X0172244Y0248130D01*
G75*
G02*
X0171260Y0247146I-000984J0000000D01*
G01*
X0164961Y0247146D01*
G75*
G02*
X0163977Y0248130I0000000J0000984D01*
G01*
G37*
G36*
G01*
X0141536Y0248130D02*
X0141536Y0254429D01*
G75*
G02*
X0142520Y0255414I0000984J0000000D01*
G01*
X0148819Y0255414D01*
G75*
G02*
X0149803Y0254429I0000000J-000984D01*
G01*
X0149803Y0248130D01*
G75*
G02*
X0148819Y0247146I-000984J0000000D01*
G01*
X0142520Y0247146D01*
G75*
G02*
X0141536Y0248130I0000000J0000984D01*
G01*
G37*
G36*
G01*
X0119095Y0248130D02*
X0119095Y0254429D01*
G75*
G02*
X0120079Y0255414I0000984J0000000D01*
G01*
X0126378Y0255414D01*
G75*
G02*
X0127362Y0254429I0000000J-000984D01*
G01*
X0127362Y0248130D01*
G75*
G02*
X0126378Y0247146I-000984J0000000D01*
G01*
X0120079Y0247146D01*
G75*
G02*
X0119095Y0248130I0000000J0000984D01*
G01*
G37*
G36*
G01*
X0096654Y0248130D02*
X0096654Y0254429D01*
G75*
G02*
X0097638Y0255414I0000984J0000000D01*
G01*
X0103937Y0255414D01*
G75*
G02*
X0104922Y0254429I0000000J-000984D01*
G01*
X0104922Y0248130D01*
G75*
G02*
X0103937Y0247146I-000984J0000000D01*
G01*
X0097638Y0247146D01*
G75*
G02*
X0096654Y0248130I0000000J0000984D01*
G01*
G37*
G36*
G01*
X0074213Y0248130D02*
X0074213Y0254429D01*
G75*
G02*
X0075197Y0255414I0000984J0000000D01*
G01*
X0081496Y0255414D01*
G75*
G02*
X0082481Y0254429I0000000J-000984D01*
G01*
X0082481Y0248130D01*
G75*
G02*
X0081496Y0247146I-000984J0000000D01*
G01*
X0075197Y0247146D01*
G75*
G02*
X0074213Y0248130I0000000J0000984D01*
G01*
G37*
G36*
G01*
X0051772Y0248130D02*
X0051772Y0254429D01*
G75*
G02*
X0052756Y0255414I0000984J0000000D01*
G01*
X0059055Y0255414D01*
G75*
G02*
X0060040Y0254429I0000000J-000984D01*
G01*
X0060040Y0248130D01*
G75*
G02*
X0059055Y0247146I-000984J0000000D01*
G01*
X0052756Y0247146D01*
G75*
G02*
X0051772Y0248130I0000000J0000984D01*
G01*
G37*
G36*
G01*
X0029331Y0248130D02*
X0029331Y0254429D01*
G75*
G02*
X0030315Y0255414I0000984J0000000D01*
G01*
X0036614Y0255414D01*
G75*
G02*
X0037599Y0254429I0000000J-000984D01*
G01*
X0037599Y0248130D01*
G75*
G02*
X0036614Y0247146I-000984J0000000D01*
G01*
X0030315Y0247146D01*
G75*
G02*
X0029331Y0248130I0000000J0000984D01*
G01*
G37*
G36*
G01*
X0253740Y0264272D02*
X0253740Y0270571D01*
G75*
G02*
X0254725Y0271555I0000984J0000000D01*
G01*
X0261024Y0271555D01*
G75*
G02*
X0262008Y0270571I0000000J-000984D01*
G01*
X0262008Y0264272D01*
G75*
G02*
X0261024Y0263288I-000984J0000000D01*
G01*
X0254725Y0263288D01*
G75*
G02*
X0253740Y0264272I0000000J0000984D01*
G01*
G37*
G36*
G01*
X0231299Y0264272D02*
X0231299Y0270571D01*
G75*
G02*
X0232284Y0271555I0000984J0000000D01*
G01*
X0238583Y0271555D01*
G75*
G02*
X0239567Y0270571I0000000J-000984D01*
G01*
X0239567Y0264272D01*
G75*
G02*
X0238583Y0263288I-000984J0000000D01*
G01*
X0232284Y0263288D01*
G75*
G02*
X0231299Y0264272I0000000J0000984D01*
G01*
G37*
G36*
G01*
X0208859Y0264272D02*
X0208859Y0270571D01*
G75*
G02*
X0209843Y0271555I0000984J0000000D01*
G01*
X0216142Y0271555D01*
G75*
G02*
X0217126Y0270571I0000000J-000984D01*
G01*
X0217126Y0264272D01*
G75*
G02*
X0216142Y0263288I-000984J0000000D01*
G01*
X0209843Y0263288D01*
G75*
G02*
X0208859Y0264272I0000000J0000984D01*
G01*
G37*
G36*
G01*
X0186418Y0264272D02*
X0186418Y0270571D01*
G75*
G02*
X0187402Y0271555I0000984J0000000D01*
G01*
X0193701Y0271555D01*
G75*
G02*
X0194685Y0270571I0000000J-000984D01*
G01*
X0194685Y0264272D01*
G75*
G02*
X0193701Y0263288I-000984J0000000D01*
G01*
X0187402Y0263288D01*
G75*
G02*
X0186418Y0264272I0000000J0000984D01*
G01*
G37*
G36*
G01*
X0163977Y0264272D02*
X0163977Y0270571D01*
G75*
G02*
X0164961Y0271555I0000984J0000000D01*
G01*
X0171260Y0271555D01*
G75*
G02*
X0172244Y0270571I0000000J-000984D01*
G01*
X0172244Y0264272D01*
G75*
G02*
X0171260Y0263288I-000984J0000000D01*
G01*
X0164961Y0263288D01*
G75*
G02*
X0163977Y0264272I0000000J0000984D01*
G01*
G37*
G36*
G01*
X0141536Y0264272D02*
X0141536Y0270571D01*
G75*
G02*
X0142520Y0271555I0000984J0000000D01*
G01*
X0148819Y0271555D01*
G75*
G02*
X0149803Y0270571I0000000J-000984D01*
G01*
X0149803Y0264272D01*
G75*
G02*
X0148819Y0263288I-000984J0000000D01*
G01*
X0142520Y0263288D01*
G75*
G02*
X0141536Y0264272I0000000J0000984D01*
G01*
G37*
G36*
G01*
X0119095Y0264272D02*
X0119095Y0270571D01*
G75*
G02*
X0120079Y0271555I0000984J0000000D01*
G01*
X0126378Y0271555D01*
G75*
G02*
X0127362Y0270571I0000000J-000984D01*
G01*
X0127362Y0264272D01*
G75*
G02*
X0126378Y0263288I-000984J0000000D01*
G01*
X0120079Y0263288D01*
G75*
G02*
X0119095Y0264272I0000000J0000984D01*
G01*
G37*
G36*
G01*
X0096654Y0264272D02*
X0096654Y0270571D01*
G75*
G02*
X0097638Y0271555I0000984J0000000D01*
G01*
X0103937Y0271555D01*
G75*
G02*
X0104922Y0270571I0000000J-000984D01*
G01*
X0104922Y0264272D01*
G75*
G02*
X0103937Y0263288I-000984J0000000D01*
G01*
X0097638Y0263288D01*
G75*
G02*
X0096654Y0264272I0000000J0000984D01*
G01*
G37*
G36*
G01*
X0074213Y0264272D02*
X0074213Y0270571D01*
G75*
G02*
X0075197Y0271555I0000984J0000000D01*
G01*
X0081496Y0271555D01*
G75*
G02*
X0082481Y0270571I0000000J-000984D01*
G01*
X0082481Y0264272D01*
G75*
G02*
X0081496Y0263288I-000984J0000000D01*
G01*
X0075197Y0263288D01*
G75*
G02*
X0074213Y0264272I0000000J0000984D01*
G01*
G37*
G36*
G01*
X0051772Y0264272D02*
X0051772Y0270571D01*
G75*
G02*
X0052756Y0271555I0000984J0000000D01*
G01*
X0059055Y0271555D01*
G75*
G02*
X0060040Y0270571I0000000J-000984D01*
G01*
X0060040Y0264272D01*
G75*
G02*
X0059055Y0263288I-000984J0000000D01*
G01*
X0052756Y0263288D01*
G75*
G02*
X0051772Y0264272I0000000J0000984D01*
G01*
G37*
G36*
G01*
X0029331Y0264272D02*
X0029331Y0270571D01*
G75*
G02*
X0030315Y0271555I0000984J0000000D01*
G01*
X0036614Y0271555D01*
G75*
G02*
X0037599Y0270571I0000000J-000984D01*
G01*
X0037599Y0264272D01*
G75*
G02*
X0036614Y0263288I-000984J0000000D01*
G01*
X0030315Y0263288D01*
G75*
G02*
X0029331Y0264272I0000000J0000984D01*
G01*
G37*
G36*
G01*
X0592323Y0247933D02*
X0592323Y0254233D01*
G75*
G02*
X0593307Y0255217I0000984J0000000D01*
G01*
X0599607Y0255217D01*
G75*
G02*
X0600591Y0254233I0000000J-000984D01*
G01*
X0600591Y0247933D01*
G75*
G02*
X0599607Y0246949I-000984J0000000D01*
G01*
X0593307Y0246949D01*
G75*
G02*
X0592323Y0247933I0000000J0000984D01*
G01*
G37*
G36*
G01*
X0569882Y0247933D02*
X0569882Y0254233D01*
G75*
G02*
X0570866Y0255217I0000984J0000000D01*
G01*
X0577166Y0255217D01*
G75*
G02*
X0578150Y0254233I0000000J-000984D01*
G01*
X0578150Y0247933D01*
G75*
G02*
X0577166Y0246949I-000984J0000000D01*
G01*
X0570866Y0246949D01*
G75*
G02*
X0569882Y0247933I0000000J0000984D01*
G01*
G37*
G36*
G01*
X0547441Y0247933D02*
X0547441Y0254233D01*
G75*
G02*
X0548425Y0255217I0000984J0000000D01*
G01*
X0554725Y0255217D01*
G75*
G02*
X0555709Y0254233I0000000J-000984D01*
G01*
X0555709Y0247933D01*
G75*
G02*
X0554725Y0246949I-000984J0000000D01*
G01*
X0548425Y0246949D01*
G75*
G02*
X0547441Y0247933I0000000J0000984D01*
G01*
G37*
G36*
G01*
X0525000Y0247933D02*
X0525000Y0254233D01*
G75*
G02*
X0525985Y0255217I0000984J0000000D01*
G01*
X0532284Y0255217D01*
G75*
G02*
X0533268Y0254233I0000000J-000984D01*
G01*
X0533268Y0247933D01*
G75*
G02*
X0532284Y0246949I-000984J0000000D01*
G01*
X0525985Y0246949D01*
G75*
G02*
X0525000Y0247933I0000000J0000984D01*
G01*
G37*
G36*
G01*
X0502559Y0247933D02*
X0502559Y0254233D01*
G75*
G02*
X0503544Y0255217I0000984J0000000D01*
G01*
X0509843Y0255217D01*
G75*
G02*
X0510827Y0254233I0000000J-000984D01*
G01*
X0510827Y0247933D01*
G75*
G02*
X0509843Y0246949I-000984J0000000D01*
G01*
X0503544Y0246949D01*
G75*
G02*
X0502559Y0247933I0000000J0000984D01*
G01*
G37*
G36*
G01*
X0480118Y0247933D02*
X0480118Y0254233D01*
G75*
G02*
X0481103Y0255217I0000984J0000000D01*
G01*
X0487402Y0255217D01*
G75*
G02*
X0488386Y0254233I0000000J-000984D01*
G01*
X0488386Y0247933D01*
G75*
G02*
X0487402Y0246949I-000984J0000000D01*
G01*
X0481103Y0246949D01*
G75*
G02*
X0480118Y0247933I0000000J0000984D01*
G01*
G37*
G36*
G01*
X0457677Y0247933D02*
X0457677Y0254233D01*
G75*
G02*
X0458662Y0255217I0000984J0000000D01*
G01*
X0464961Y0255217D01*
G75*
G02*
X0465945Y0254233I0000000J-000984D01*
G01*
X0465945Y0247933D01*
G75*
G02*
X0464961Y0246949I-000984J0000000D01*
G01*
X0458662Y0246949D01*
G75*
G02*
X0457677Y0247933I0000000J0000984D01*
G01*
G37*
G36*
G01*
X0435236Y0247933D02*
X0435236Y0254233D01*
G75*
G02*
X0436221Y0255217I0000984J0000000D01*
G01*
X0442520Y0255217D01*
G75*
G02*
X0443504Y0254233I0000000J-000984D01*
G01*
X0443504Y0247933D01*
G75*
G02*
X0442520Y0246949I-000984J0000000D01*
G01*
X0436221Y0246949D01*
G75*
G02*
X0435236Y0247933I0000000J0000984D01*
G01*
G37*
G36*
G01*
X0412796Y0247933D02*
X0412796Y0254233D01*
G75*
G02*
X0413780Y0255217I0000984J0000000D01*
G01*
X0420079Y0255217D01*
G75*
G02*
X0421063Y0254233I0000000J-000984D01*
G01*
X0421063Y0247933D01*
G75*
G02*
X0420079Y0246949I-000984J0000000D01*
G01*
X0413780Y0246949D01*
G75*
G02*
X0412796Y0247933I0000000J0000984D01*
G01*
G37*
G36*
G01*
X0390355Y0247933D02*
X0390355Y0254233D01*
G75*
G02*
X0391339Y0255217I0000984J0000000D01*
G01*
X0397638Y0255217D01*
G75*
G02*
X0398622Y0254233I0000000J-000984D01*
G01*
X0398622Y0247933D01*
G75*
G02*
X0397638Y0246949I-000984J0000000D01*
G01*
X0391339Y0246949D01*
G75*
G02*
X0390355Y0247933I0000000J0000984D01*
G01*
G37*
G36*
G01*
X0367914Y0247933D02*
X0367914Y0254233D01*
G75*
G02*
X0368898Y0255217I0000984J0000000D01*
G01*
X0375197Y0255217D01*
G75*
G02*
X0376181Y0254233I0000000J-000984D01*
G01*
X0376181Y0247933D01*
G75*
G02*
X0375197Y0246949I-000984J0000000D01*
G01*
X0368898Y0246949D01*
G75*
G02*
X0367914Y0247933I0000000J0000984D01*
G01*
G37*
G36*
G01*
X0592323Y0264075D02*
X0592323Y0270374D01*
G75*
G02*
X0593307Y0271359I0000984J0000000D01*
G01*
X0599607Y0271359D01*
G75*
G02*
X0600591Y0270374I0000000J-000984D01*
G01*
X0600591Y0264075D01*
G75*
G02*
X0599607Y0263091I-000984J0000000D01*
G01*
X0593307Y0263091D01*
G75*
G02*
X0592323Y0264075I0000000J0000984D01*
G01*
G37*
G36*
G01*
X0569882Y0264075D02*
X0569882Y0270374D01*
G75*
G02*
X0570866Y0271359I0000984J0000000D01*
G01*
X0577166Y0271359D01*
G75*
G02*
X0578150Y0270374I0000000J-000984D01*
G01*
X0578150Y0264075D01*
G75*
G02*
X0577166Y0263091I-000984J0000000D01*
G01*
X0570866Y0263091D01*
G75*
G02*
X0569882Y0264075I0000000J0000984D01*
G01*
G37*
G36*
G01*
X0547441Y0264075D02*
X0547441Y0270374D01*
G75*
G02*
X0548425Y0271359I0000984J0000000D01*
G01*
X0554725Y0271359D01*
G75*
G02*
X0555709Y0270374I0000000J-000984D01*
G01*
X0555709Y0264075D01*
G75*
G02*
X0554725Y0263091I-000984J0000000D01*
G01*
X0548425Y0263091D01*
G75*
G02*
X0547441Y0264075I0000000J0000984D01*
G01*
G37*
G36*
G01*
X0525000Y0264075D02*
X0525000Y0270374D01*
G75*
G02*
X0525985Y0271359I0000984J0000000D01*
G01*
X0532284Y0271359D01*
G75*
G02*
X0533268Y0270374I0000000J-000984D01*
G01*
X0533268Y0264075D01*
G75*
G02*
X0532284Y0263091I-000984J0000000D01*
G01*
X0525985Y0263091D01*
G75*
G02*
X0525000Y0264075I0000000J0000984D01*
G01*
G37*
G36*
G01*
X0502559Y0264075D02*
X0502559Y0270374D01*
G75*
G02*
X0503544Y0271359I0000984J0000000D01*
G01*
X0509843Y0271359D01*
G75*
G02*
X0510827Y0270374I0000000J-000984D01*
G01*
X0510827Y0264075D01*
G75*
G02*
X0509843Y0263091I-000984J0000000D01*
G01*
X0503544Y0263091D01*
G75*
G02*
X0502559Y0264075I0000000J0000984D01*
G01*
G37*
G36*
G01*
X0480118Y0264075D02*
X0480118Y0270374D01*
G75*
G02*
X0481103Y0271359I0000984J0000000D01*
G01*
X0487402Y0271359D01*
G75*
G02*
X0488386Y0270374I0000000J-000984D01*
G01*
X0488386Y0264075D01*
G75*
G02*
X0487402Y0263091I-000984J0000000D01*
G01*
X0481103Y0263091D01*
G75*
G02*
X0480118Y0264075I0000000J0000984D01*
G01*
G37*
G36*
G01*
X0457677Y0264075D02*
X0457677Y0270374D01*
G75*
G02*
X0458662Y0271359I0000984J0000000D01*
G01*
X0464961Y0271359D01*
G75*
G02*
X0465945Y0270374I0000000J-000984D01*
G01*
X0465945Y0264075D01*
G75*
G02*
X0464961Y0263091I-000984J0000000D01*
G01*
X0458662Y0263091D01*
G75*
G02*
X0457677Y0264075I0000000J0000984D01*
G01*
G37*
G36*
G01*
X0435236Y0264075D02*
X0435236Y0270374D01*
G75*
G02*
X0436221Y0271359I0000984J0000000D01*
G01*
X0442520Y0271359D01*
G75*
G02*
X0443504Y0270374I0000000J-000984D01*
G01*
X0443504Y0264075D01*
G75*
G02*
X0442520Y0263091I-000984J0000000D01*
G01*
X0436221Y0263091D01*
G75*
G02*
X0435236Y0264075I0000000J0000984D01*
G01*
G37*
G36*
G01*
X0412796Y0264075D02*
X0412796Y0270374D01*
G75*
G02*
X0413780Y0271359I0000984J0000000D01*
G01*
X0420079Y0271359D01*
G75*
G02*
X0421063Y0270374I0000000J-000984D01*
G01*
X0421063Y0264075D01*
G75*
G02*
X0420079Y0263091I-000984J0000000D01*
G01*
X0413780Y0263091D01*
G75*
G02*
X0412796Y0264075I0000000J0000984D01*
G01*
G37*
G36*
G01*
X0390355Y0264075D02*
X0390355Y0270374D01*
G75*
G02*
X0391339Y0271359I0000984J0000000D01*
G01*
X0397638Y0271359D01*
G75*
G02*
X0398622Y0270374I0000000J-000984D01*
G01*
X0398622Y0264075D01*
G75*
G02*
X0397638Y0263091I-000984J0000000D01*
G01*
X0391339Y0263091D01*
G75*
G02*
X0390355Y0264075I0000000J0000984D01*
G01*
G37*
G36*
G01*
X0367914Y0264075D02*
X0367914Y0270374D01*
G75*
G02*
X0368898Y0271359I0000984J0000000D01*
G01*
X0375197Y0271359D01*
G75*
G02*
X0376181Y0270374I0000000J-000984D01*
G01*
X0376181Y0264075D01*
G75*
G02*
X0375197Y0263091I-000984J0000000D01*
G01*
X0368898Y0263091D01*
G75*
G02*
X0367914Y0264075I0000000J0000984D01*
G01*
G37*
G36*
G01*
X0209794Y0112839D02*
X0207623Y0115011D01*
G75*
G02*
X0207623Y0115400I0000195J0000195D01*
G01*
X0209182Y0116959D01*
G75*
G02*
X0209571Y0116959I0000195J-000195D01*
G01*
X0211743Y0114788D01*
G75*
G02*
X0211743Y0114398I-000195J-000195D01*
G01*
X0210184Y0112839D01*
G75*
G02*
X0209794Y0112839I-000195J0000195D01*
G01*
G37*
G36*
G01*
X0214248Y0117293D02*
X0212077Y0119465D01*
G75*
G02*
X0212077Y0119854I0000195J0000195D01*
G01*
X0213636Y0121413D01*
G75*
G02*
X0214025Y0121413I0000195J-000195D01*
G01*
X0216197Y0119242D01*
G75*
G02*
X0216197Y0118852I-000195J-000195D01*
G01*
X0214638Y0117293D01*
G75*
G02*
X0214248Y0117293I-000195J0000195D01*
G01*
G37*
D14*
X0489370Y0206496D03*
X0489370Y0211221D03*
X0489370Y0201772D03*
X0489370Y0197048D03*
X0546162Y0222481D03*
X0546162Y0226418D03*
D49*
X0529036Y0176083D03*
D72*
X0477500Y0041752D03*
X0500256Y0041752D03*
D50*
X0475689Y0045945D03*
X0478839Y0045945D03*
X0483957Y0045945D03*
X0487894Y0045945D03*
X0489862Y0045945D03*
X0493799Y0045945D03*
X0498918Y0045945D03*
X0502067Y0045945D03*
X0500886Y0045945D03*
X0497736Y0045945D03*
X0495768Y0045945D03*
X0491831Y0045945D03*
X0485925Y0045945D03*
X0481988Y0045945D03*
X0480020Y0045945D03*
X0476870Y0045945D03*
D51*
X0471870Y0043721D03*
D52*
X0471870Y0027264D03*
D51*
X0505886Y0043721D03*
D52*
X0505886Y0027264D03*
D13*
X0574311Y0091339D03*
G36*
G01*
X0095061Y0182538D02*
X0092674Y0181160D01*
G75*
G02*
X0091330Y0181520I-000492J0000852D01*
G01*
X0087983Y0187316D01*
G75*
G02*
X0088343Y0188661I0000852J0000492D01*
G01*
X0090730Y0190039D01*
G75*
G02*
X0092075Y0189678I0000492J-000852D01*
G01*
X0095421Y0183882D01*
G75*
G02*
X0095061Y0182538I-000852J-000492D01*
G01*
G37*
G36*
G01*
X0102409Y0205874D02*
X0084338Y0195440D01*
G75*
G02*
X0082994Y0195801I-000492J0000852D01*
G01*
X0071380Y0215917D01*
G75*
G02*
X0071740Y0217262I0000852J0000492D01*
G01*
X0089810Y0227695D01*
G75*
G02*
X0091155Y0227334I0000492J-000852D01*
G01*
X0102769Y0207218D01*
G75*
G02*
X0102409Y0205874I-000852J-000492D01*
G01*
G37*
G36*
G01*
X0110608Y0191514D02*
X0108222Y0190136D01*
G75*
G02*
X0106877Y0190496I-000492J0000852D01*
G01*
X0103531Y0196293D01*
G75*
G02*
X0103891Y0197637I0000852J0000492D01*
G01*
X0106278Y0199015D01*
G75*
G02*
X0107622Y0198655I0000492J-000852D01*
G01*
X0110969Y0192859D01*
G75*
G02*
X0110608Y0191514I-000852J-000492D01*
G01*
G37*
G36*
G01*
X0109843Y0287894D02*
X0109843Y0286713D01*
G75*
G02*
X0109252Y0286122I-000591J0000000D01*
G01*
X0104626Y0286122D01*
G75*
G02*
X0104036Y0286713I0000000J0000591D01*
G01*
X0104036Y0287894D01*
G75*
G02*
X0104626Y0288485I0000591J0000000D01*
G01*
X0109252Y0288485D01*
G75*
G02*
X0109843Y0287894I0000000J-000591D01*
G01*
G37*
G36*
G01*
X0102461Y0291634D02*
X0102461Y0290453D01*
G75*
G02*
X0101870Y0289862I-000591J0000000D01*
G01*
X0097244Y0289862D01*
G75*
G02*
X0096654Y0290453I0000000J0000591D01*
G01*
X0096654Y0291634D01*
G75*
G02*
X0097244Y0292225I0000591J0000000D01*
G01*
X0101870Y0292225D01*
G75*
G02*
X0102461Y0291634I0000000J-000591D01*
G01*
G37*
G36*
G01*
X0109843Y0295374D02*
X0109843Y0294193D01*
G75*
G02*
X0109252Y0293603I-000591J0000000D01*
G01*
X0104626Y0293603D01*
G75*
G02*
X0104036Y0294193I0000000J0000591D01*
G01*
X0104036Y0295374D01*
G75*
G02*
X0104626Y0295965I0000591J0000000D01*
G01*
X0109252Y0295965D01*
G75*
G02*
X0109843Y0295374I0000000J-000591D01*
G01*
G37*
G36*
G01*
X0272185Y0245374D02*
X0275256Y0245374D01*
G75*
G02*
X0275532Y0245099I0000000J-000276D01*
G01*
X0275532Y0242894D01*
G75*
G02*
X0275256Y0242618I-000276J0000000D01*
G01*
X0272185Y0242618D01*
G75*
G02*
X0271910Y0242894I0000000J0000276D01*
G01*
X0271910Y0245099D01*
G75*
G02*
X0272185Y0245374I0000276J0000000D01*
G01*
G37*
G36*
G01*
X0272185Y0239075D02*
X0275256Y0239075D01*
G75*
G02*
X0275532Y0238799I0000000J-000276D01*
G01*
X0275532Y0236595D01*
G75*
G02*
X0275256Y0236319I-000276J0000000D01*
G01*
X0272185Y0236319D01*
G75*
G02*
X0271910Y0236595I0000000J0000276D01*
G01*
X0271910Y0238799D01*
G75*
G02*
X0272185Y0239075I0000276J0000000D01*
G01*
G37*
G36*
G01*
X0129345Y0189671D02*
X0126958Y0188293D01*
G75*
G02*
X0125614Y0188653I-000492J0000852D01*
G01*
X0122267Y0194450D01*
G75*
G02*
X0122628Y0195794I0000852J0000492D01*
G01*
X0125014Y0197172D01*
G75*
G02*
X0126359Y0196812I0000492J-000852D01*
G01*
X0129705Y0191016D01*
G75*
G02*
X0129345Y0189671I-000852J-000492D01*
G01*
G37*
G36*
G01*
X0136693Y0213007D02*
X0118622Y0202574D01*
G75*
G02*
X0117278Y0202934I-000492J0000852D01*
G01*
X0105664Y0223051D01*
G75*
G02*
X0106024Y0224395I0000852J0000492D01*
G01*
X0124095Y0234828D01*
G75*
G02*
X0125439Y0234468I0000492J-000852D01*
G01*
X0137053Y0214352D01*
G75*
G02*
X0136693Y0213007I-000852J-000492D01*
G01*
G37*
G36*
G01*
X0144893Y0198648D02*
X0142506Y0197270D01*
G75*
G02*
X0141161Y0197630I-000492J0000852D01*
G01*
X0137815Y0203426D01*
G75*
G02*
X0138175Y0204771I0000852J0000492D01*
G01*
X0140562Y0206149D01*
G75*
G02*
X0141906Y0205788I0000492J-000852D01*
G01*
X0145253Y0199992D01*
G75*
G02*
X0144893Y0198648I-000852J-000492D01*
G01*
G37*
G36*
G01*
X0192185Y0284548D02*
X0189114Y0284548D01*
G75*
G02*
X0188839Y0284823I0000000J0000276D01*
G01*
X0188839Y0287028D01*
G75*
G02*
X0189114Y0287303I0000276J0000000D01*
G01*
X0192185Y0287303D01*
G75*
G02*
X0192461Y0287028I0000000J-000276D01*
G01*
X0192461Y0284823D01*
G75*
G02*
X0192185Y0284548I-000276J0000000D01*
G01*
G37*
G36*
G01*
X0192185Y0290847D02*
X0189114Y0290847D01*
G75*
G02*
X0188839Y0291122I0000000J0000276D01*
G01*
X0188839Y0293327D01*
G75*
G02*
X0189114Y0293603I0000276J0000000D01*
G01*
X0192185Y0293603D01*
G75*
G02*
X0192461Y0293327I0000000J-000276D01*
G01*
X0192461Y0291122D01*
G75*
G02*
X0192185Y0290847I-000276J0000000D01*
G01*
G37*
G36*
G01*
X0624666Y0123130D02*
X0621595Y0123130D01*
G75*
G02*
X0621319Y0123406I0000000J0000276D01*
G01*
X0621319Y0125611D01*
G75*
G02*
X0621595Y0125886I0000276J0000000D01*
G01*
X0624666Y0125886D01*
G75*
G02*
X0624941Y0125611I0000000J-000276D01*
G01*
X0624941Y0123406D01*
G75*
G02*
X0624666Y0123130I-000276J0000000D01*
G01*
G37*
G36*
G01*
X0624666Y0129429D02*
X0621595Y0129429D01*
G75*
G02*
X0621319Y0129705I0000000J0000276D01*
G01*
X0621319Y0131910D01*
G75*
G02*
X0621595Y0132185I0000276J0000000D01*
G01*
X0624666Y0132185D01*
G75*
G02*
X0624941Y0131910I0000000J-000276D01*
G01*
X0624941Y0129705D01*
G75*
G02*
X0624666Y0129429I-000276J0000000D01*
G01*
G37*
G36*
G01*
X0062416Y0174415D02*
X0060029Y0173037D01*
G75*
G02*
X0058685Y0173398I-000492J0000852D01*
G01*
X0055338Y0179194D01*
G75*
G02*
X0055699Y0180538I0000852J0000492D01*
G01*
X0058085Y0181916D01*
G75*
G02*
X0059430Y0181556I0000492J-000852D01*
G01*
X0062776Y0175760D01*
G75*
G02*
X0062416Y0174415I-000852J-000492D01*
G01*
G37*
G36*
G01*
X0069764Y0197751D02*
X0051693Y0187318D01*
G75*
G02*
X0050349Y0187678I-000492J0000852D01*
G01*
X0038735Y0207795D01*
G75*
G02*
X0039095Y0209139I0000852J0000492D01*
G01*
X0057166Y0219572D01*
G75*
G02*
X0058510Y0219212I0000492J-000852D01*
G01*
X0070124Y0199096D01*
G75*
G02*
X0069764Y0197751I-000852J-000492D01*
G01*
G37*
G36*
G01*
X0077963Y0183392D02*
X0075577Y0182014D01*
G75*
G02*
X0074232Y0182374I-000492J0000852D01*
G01*
X0070886Y0188170D01*
G75*
G02*
X0071246Y0189515I0000852J0000492D01*
G01*
X0073633Y0190893D01*
G75*
G02*
X0074977Y0190532I0000492J-000852D01*
G01*
X0078324Y0184736D01*
G75*
G02*
X0077963Y0183392I-000852J-000492D01*
G01*
G37*
G36*
G01*
X0132431Y0287697D02*
X0132431Y0286516D01*
G75*
G02*
X0131841Y0285925I-000591J0000000D01*
G01*
X0127215Y0285925D01*
G75*
G02*
X0126624Y0286516I0000000J0000591D01*
G01*
X0126624Y0287697D01*
G75*
G02*
X0127215Y0288288I0000591J0000000D01*
G01*
X0131841Y0288288D01*
G75*
G02*
X0132431Y0287697I0000000J-000591D01*
G01*
G37*
G36*
G01*
X0125049Y0291437D02*
X0125049Y0290256D01*
G75*
G02*
X0124459Y0289666I-000591J0000000D01*
G01*
X0119833Y0289666D01*
G75*
G02*
X0119242Y0290256I0000000J0000591D01*
G01*
X0119242Y0291437D01*
G75*
G02*
X0119833Y0292028I0000591J0000000D01*
G01*
X0124459Y0292028D01*
G75*
G02*
X0125049Y0291437I0000000J-000591D01*
G01*
G37*
G36*
G01*
X0132431Y0295177D02*
X0132431Y0293996D01*
G75*
G02*
X0131841Y0293406I-000591J0000000D01*
G01*
X0127215Y0293406D01*
G75*
G02*
X0126624Y0293996I0000000J0000591D01*
G01*
X0126624Y0295177D01*
G75*
G02*
X0127215Y0295768I0000591J0000000D01*
G01*
X0131841Y0295768D01*
G75*
G02*
X0132431Y0295177I0000000J-000591D01*
G01*
G37*
D49*
X0543918Y0176083D03*
G36*
G01*
X0168111Y0286122D02*
X0168111Y0284941D01*
G75*
G02*
X0167520Y0284351I-000591J0000000D01*
G01*
X0162894Y0284351D01*
G75*
G02*
X0162303Y0284941I0000000J0000591D01*
G01*
X0162303Y0286122D01*
G75*
G02*
X0162894Y0286713I0000591J0000000D01*
G01*
X0167520Y0286713D01*
G75*
G02*
X0168111Y0286122I0000000J-000591D01*
G01*
G37*
G36*
G01*
X0160729Y0289862D02*
X0160729Y0288681D01*
G75*
G02*
X0160138Y0288091I-000591J0000000D01*
G01*
X0155512Y0288091D01*
G75*
G02*
X0154922Y0288681I0000000J0000591D01*
G01*
X0154922Y0289862D01*
G75*
G02*
X0155512Y0290453I0000591J0000000D01*
G01*
X0160138Y0290453D01*
G75*
G02*
X0160729Y0289862I0000000J-000591D01*
G01*
G37*
G36*
G01*
X0168111Y0293603D02*
X0168111Y0292422D01*
G75*
G02*
X0167520Y0291831I-000591J0000000D01*
G01*
X0162894Y0291831D01*
G75*
G02*
X0162303Y0292422I0000000J0000591D01*
G01*
X0162303Y0293603D01*
G75*
G02*
X0162894Y0294193I0000591J0000000D01*
G01*
X0167520Y0294193D01*
G75*
G02*
X0168111Y0293603I0000000J-000591D01*
G01*
G37*
D11*
X0248524Y0132284D03*
X0248524Y0123229D03*
X0248524Y0114174D03*
D12*
X0273327Y0123229D03*
G36*
G01*
X0205661Y0231394D02*
X0203001Y0229859D01*
G75*
G02*
X0202625Y0229960I-000138J0000239D01*
G01*
X0201522Y0231869D01*
G75*
G02*
X0201623Y0232246I0000239J0000138D01*
G01*
X0204283Y0233781D01*
G75*
G02*
X0204659Y0233680I0000138J-000239D01*
G01*
X0205762Y0231771D01*
G75*
G02*
X0205661Y0231394I-000239J-000138D01*
G01*
G37*
G36*
G01*
X0202511Y0236850D02*
X0199852Y0235314D01*
G75*
G02*
X0199475Y0235415I-000138J0000239D01*
G01*
X0198373Y0237324D01*
G75*
G02*
X0198474Y0237701I0000239J0000138D01*
G01*
X0201133Y0239236D01*
G75*
G02*
X0201510Y0239135I0000138J-000239D01*
G01*
X0202612Y0237226D01*
G75*
G02*
X0202511Y0236850I-000239J-000138D01*
G01*
G37*
G36*
G01*
X0186418Y0285925D02*
X0186418Y0284744D01*
G75*
G02*
X0185827Y0284154I-000591J0000000D01*
G01*
X0181201Y0284154D01*
G75*
G02*
X0180611Y0284744I0000000J0000591D01*
G01*
X0180611Y0285925D01*
G75*
G02*
X0181201Y0286516I0000591J0000000D01*
G01*
X0185827Y0286516D01*
G75*
G02*
X0186418Y0285925I0000000J-000591D01*
G01*
G37*
G36*
G01*
X0179036Y0289666D02*
X0179036Y0288485D01*
G75*
G02*
X0178445Y0287894I-000591J0000000D01*
G01*
X0173819Y0287894D01*
G75*
G02*
X0173229Y0288485I0000000J0000591D01*
G01*
X0173229Y0289666D01*
G75*
G02*
X0173819Y0290256I0000591J0000000D01*
G01*
X0178445Y0290256D01*
G75*
G02*
X0179036Y0289666I0000000J-000591D01*
G01*
G37*
G36*
G01*
X0186418Y0293406D02*
X0186418Y0292225D01*
G75*
G02*
X0185827Y0291634I-000591J0000000D01*
G01*
X0181201Y0291634D01*
G75*
G02*
X0180611Y0292225I0000000J0000591D01*
G01*
X0180611Y0293406D01*
G75*
G02*
X0181201Y0293996I0000591J0000000D01*
G01*
X0185827Y0293996D01*
G75*
G02*
X0186418Y0293406I0000000J-000591D01*
G01*
G37*
D10*
X0446162Y0188288D03*
G36*
G01*
X0451457Y0184744D02*
X0448740Y0184744D01*
G75*
G02*
X0447835Y0185650I0000000J0000906D01*
G01*
X0447835Y0190925D01*
G75*
G02*
X0448740Y0191831I0000906J0000000D01*
G01*
X0451457Y0191831D01*
G75*
G02*
X0452362Y0190925I0000000J-000906D01*
G01*
X0452362Y0185650D01*
G75*
G02*
X0451457Y0184744I-000906J0000000D01*
G01*
G37*
G36*
G01*
X0462874Y0184744D02*
X0460158Y0184744D01*
G75*
G02*
X0459252Y0185650I0000000J0000906D01*
G01*
X0459252Y0190925D01*
G75*
G02*
X0460158Y0191831I0000906J0000000D01*
G01*
X0462874Y0191831D01*
G75*
G02*
X0463780Y0190925I0000000J-000906D01*
G01*
X0463780Y0185650D01*
G75*
G02*
X0462874Y0184744I-000906J0000000D01*
G01*
G37*
X0465453Y0188288D03*
D65*
X0553888Y0189961D03*
X0553888Y0184055D03*
X0553888Y0178150D03*
X0553888Y0172244D03*
X0553888Y0166339D03*
X0553888Y0160433D03*
X0553888Y0154528D03*
X0553888Y0148622D03*
X0553888Y0142717D03*
X0553888Y0136811D03*
X0553888Y0130906D03*
X0553888Y0125000D03*
X0553888Y0119095D03*
X0603888Y0119095D03*
X0603888Y0125000D03*
X0603888Y0130906D03*
X0603888Y0136811D03*
X0603888Y0142717D03*
X0603888Y0148622D03*
X0603888Y0154528D03*
X0603888Y0160433D03*
X0603888Y0166339D03*
X0603888Y0172244D03*
X0603888Y0178150D03*
X0603888Y0184055D03*
X0603888Y0189961D03*
G36*
G01*
X0028132Y0171120D02*
X0025745Y0169742D01*
G75*
G02*
X0024401Y0170103I-000492J0000852D01*
G01*
X0021054Y0175899D01*
G75*
G02*
X0021414Y0177243I0000852J0000492D01*
G01*
X0023801Y0178621D01*
G75*
G02*
X0025146Y0178261I0000492J-000852D01*
G01*
X0028492Y0172465D01*
G75*
G02*
X0028132Y0171120I-000852J-000492D01*
G01*
G37*
G36*
G01*
X0035480Y0194456D02*
X0017409Y0184023D01*
G75*
G02*
X0016065Y0184383I-000492J0000852D01*
G01*
X0004450Y0204500D01*
G75*
G02*
X0004811Y0205844I0000852J0000492D01*
G01*
X0022881Y0216277D01*
G75*
G02*
X0024226Y0215917I0000492J-000852D01*
G01*
X0035840Y0195801D01*
G75*
G02*
X0035480Y0194456I-000852J-000492D01*
G01*
G37*
G36*
G01*
X0043679Y0180097D02*
X0041293Y0178719D01*
G75*
G02*
X0039948Y0179079I-000492J0000852D01*
G01*
X0036602Y0184875D01*
G75*
G02*
X0036962Y0186220I0000852J0000492D01*
G01*
X0039349Y0187598D01*
G75*
G02*
X0040693Y0187237I0000492J-000852D01*
G01*
X0044040Y0181441D01*
G75*
G02*
X0043679Y0180097I-000852J-000492D01*
G01*
G37*
D10*
X0493672Y0182510D03*
G36*
G01*
X0494911Y0176260D02*
X0492990Y0178181D01*
G75*
G02*
X0492990Y0179461I0000640J0000640D01*
G01*
X0496720Y0183192D01*
G75*
G02*
X0498001Y0183192I0000640J-000640D01*
G01*
X0499922Y0181271D01*
G75*
G02*
X0499922Y0179990I-000640J-000640D01*
G01*
X0496191Y0176260D01*
G75*
G02*
X0494911Y0176260I-000640J0000640D01*
G01*
G37*
G36*
G01*
X0502984Y0168187D02*
X0501063Y0170108D01*
G75*
G02*
X0501063Y0171388I0000640J0000640D01*
G01*
X0504794Y0175119D01*
G75*
G02*
X0506074Y0175119I0000640J-000640D01*
G01*
X0507995Y0173198D01*
G75*
G02*
X0507995Y0171917I-000640J-000640D01*
G01*
X0504265Y0168187D01*
G75*
G02*
X0502984Y0168187I-000640J0000640D01*
G01*
G37*
X0507313Y0168869D03*
G36*
G01*
X0448878Y0227264D02*
X0445807Y0227264D01*
G75*
G02*
X0445532Y0227540I0000000J0000276D01*
G01*
X0445532Y0229744D01*
G75*
G02*
X0445807Y0230020I0000276J0000000D01*
G01*
X0448878Y0230020D01*
G75*
G02*
X0449154Y0229744I0000000J-000276D01*
G01*
X0449154Y0227540D01*
G75*
G02*
X0448878Y0227264I-000276J0000000D01*
G01*
G37*
G36*
G01*
X0448878Y0233563D02*
X0445807Y0233563D01*
G75*
G02*
X0445532Y0233839I0000000J0000276D01*
G01*
X0445532Y0236044D01*
G75*
G02*
X0445807Y0236319I0000276J0000000D01*
G01*
X0448878Y0236319D01*
G75*
G02*
X0449154Y0236044I0000000J-000276D01*
G01*
X0449154Y0233839D01*
G75*
G02*
X0448878Y0233563I-000276J0000000D01*
G01*
G37*
G36*
G01*
X0208023Y0198028D02*
X0205363Y0196493D01*
G75*
G02*
X0204987Y0196594I-000138J0000239D01*
G01*
X0203885Y0198503D01*
G75*
G02*
X0203986Y0198879I0000239J0000138D01*
G01*
X0206645Y0200415D01*
G75*
G02*
X0207021Y0200314I0000138J-000239D01*
G01*
X0208124Y0198405D01*
G75*
G02*
X0208023Y0198028I-000239J-000138D01*
G01*
G37*
G36*
G01*
X0204873Y0203483D02*
X0202214Y0201948D01*
G75*
G02*
X0201837Y0202049I-000138J0000239D01*
G01*
X0200735Y0203958D01*
G75*
G02*
X0200836Y0204335I0000239J0000138D01*
G01*
X0203495Y0205870D01*
G75*
G02*
X0203872Y0205769I0000138J-000239D01*
G01*
X0204974Y0203860D01*
G75*
G02*
X0204873Y0203483I-000239J-000138D01*
G01*
G37*
G36*
G01*
X0467618Y0051024D02*
X0467618Y0054095D01*
G75*
G02*
X0467894Y0054370I0000276J0000000D01*
G01*
X0470099Y0054370D01*
G75*
G02*
X0470374Y0054095I0000000J-000276D01*
G01*
X0470374Y0051024D01*
G75*
G02*
X0470099Y0050748I-000276J0000000D01*
G01*
X0467894Y0050748D01*
G75*
G02*
X0467618Y0051024I0000000J0000276D01*
G01*
G37*
G36*
G01*
X0473918Y0051024D02*
X0473918Y0054095D01*
G75*
G02*
X0474193Y0054370I0000276J0000000D01*
G01*
X0476398Y0054370D01*
G75*
G02*
X0476674Y0054095I0000000J-000276D01*
G01*
X0476674Y0051024D01*
G75*
G02*
X0476398Y0050748I-000276J0000000D01*
G01*
X0474193Y0050748D01*
G75*
G02*
X0473918Y0051024I0000000J0000276D01*
G01*
G37*
X0450098Y0156594D02*
G01*
G75*
D360*
X0474465Y0111515D02*
D03*
X0456748Y0111515D02*
D03*
D361*
X0498917Y0114842D02*
D03*
X0498917Y0142204D02*
D03*
D362*
X0475689Y0126082D02*
D03*
X0475689Y0142224D02*
D03*
D363*
X0457578Y0124311D02*
D03*
X0457578Y0140059D02*
D03*
D364*
X0519356Y0147250D02*
D03*
X0515616Y0137998D02*
D03*
D364*
X0523096Y0137998D02*
D03*
D365*
X0529035Y0115163D02*
D03*
D365*
X0525295Y0115163D02*
D03*
X0521555Y0115163D02*
D03*
X0521555Y0106699D02*
D03*
X0529035Y0106699D02*
D03*
D366*
X0515034Y0102847D02*
D03*
X0515034Y0115839D02*
D03*
D367*
X0515322Y0121133D02*
D03*
X0515322Y0132551D02*
D03*
D368*
X0482775Y0101948D02*
D03*
X0482775Y0108169D02*
D03*
X0482775Y0112539D02*
D03*
X0482775Y0118759D02*
D03*
D369*
X0459886Y0152625D02*
D03*
X0464020Y0152625D02*
D03*
X0501760Y0102070D02*
D03*
X0505894Y0102070D02*
D03*
X0497047Y0102070D02*
D03*
X0492913Y0102070D02*
D03*
X0477398Y0101178D02*
D03*
X0473264Y0101178D02*
D03*
D370*
X0521605Y0120281D02*
D03*
X0525542Y0120281D02*
D03*
X0522507Y0133956D02*
D03*
X0522507Y0125295D02*
D03*
X0528904Y0133956D02*
D03*
X0528904Y0125295D02*
D03*
D371*
X0529035Y0142329D02*
D03*
X0529035Y0138785D02*
D03*
D372*
X0505697Y0106328D02*
D03*
X0502153Y0106328D02*
D03*
X0496653Y0106328D02*
D03*
X0493110Y0106328D02*
D03*
X0465097Y0101178D02*
D03*
X0468641Y0101178D02*
D03*
D132*
X0468208Y0090846D02*
D03*
X0464271Y0090846D02*
D03*
D133*
X0521751Y0153641D02*
D03*
X0454822Y0153641D02*
D03*
X0502263Y0153641D02*
D03*
X0502066Y0092618D02*
D03*
X0527263Y0092618D02*
D03*
X0477657Y0092618D02*
D03*
X0494586Y0092618D02*
D03*
X0453051Y0092618D02*
D03*
X0529035Y0153641D02*
D03*
X0626280Y0083760D02*
G01*
G75*
D291*
X0616056Y0098465D02*
D03*
X0623536Y0098465D02*
D03*
X0623536Y0090000D02*
D03*
X0619796Y0090000D02*
D03*
X0616056Y0114114D02*
D03*
X0623536Y0114114D02*
D03*
X0623536Y0105650D02*
D03*
X0619796Y0105650D02*
D03*
D291*
X0616056Y0090000D02*
D03*
X0616056Y0105650D02*
D03*
D132*
X0616044Y0119193D02*
D03*
X0619784Y0119193D02*
D03*
X0623524Y0119193D02*
D03*
X0619587Y0084941D02*
D03*
X0616044Y0084941D02*
D03*
X0339075Y0277067D02*
%LPD*%
G01*
G36*
G01*
X0284981Y0261240D02*
X0284981Y0262579D01*
G75*
G02*
X0285532Y0263130I0000551J0000000D01*
G01*
X0286634Y0263130D01*
G75*
G02*
X0287185Y0262579I0000000J-000551D01*
G01*
X0287185Y0261240D01*
G75*
G02*
X0286634Y0260689I-000551J0000000D01*
G01*
X0285532Y0260689D01*
G75*
G02*
X0284981Y0261240I0000000J0000551D01*
G01*
G37*
G36*
G01*
X0281201Y0261240D02*
X0281201Y0262579D01*
G75*
G02*
X0281752Y0263130I0000551J0000000D01*
G01*
X0282855Y0263130D01*
G75*
G02*
X0283406Y0262579I0000000J-000551D01*
G01*
X0283406Y0261240D01*
G75*
G02*
X0282855Y0260689I-000551J0000000D01*
G01*
X0281752Y0260689D01*
G75*
G02*
X0281201Y0261240I0000000J0000551D01*
G01*
G37*
G36*
G01*
X0311477Y0246476D02*
X0312815Y0246476D01*
G75*
G02*
X0313366Y0245925I0000000J-000551D01*
G01*
X0313366Y0244823D01*
G75*
G02*
X0312815Y0244272I-000551J0000000D01*
G01*
X0311477Y0244272D01*
G75*
G02*
X0310925Y0244823I0000000J0000551D01*
G01*
X0310925Y0245925D01*
G75*
G02*
X0311477Y0246476I0000551J0000000D01*
G01*
G37*
G36*
G01*
X0311477Y0250256D02*
X0312815Y0250256D01*
G75*
G02*
X0313366Y0249705I0000000J-000551D01*
G01*
X0313366Y0248602D01*
G75*
G02*
X0312815Y0248051I-000551J0000000D01*
G01*
X0311477Y0248051D01*
G75*
G02*
X0310925Y0248602I0000000J0000551D01*
G01*
X0310925Y0249705D01*
G75*
G02*
X0311477Y0250256I0000551J0000000D01*
G01*
G37*
G36*
G01*
X0298386Y0275138D02*
X0299843Y0275138D01*
G75*
G02*
X0300374Y0274606I0000000J-000531D01*
G01*
X0300374Y0273543D01*
G75*
G02*
X0299843Y0273012I-000531J0000000D01*
G01*
X0298386Y0273012D01*
G75*
G02*
X0297855Y0273543I0000000J0000531D01*
G01*
X0297855Y0274606D01*
G75*
G02*
X0298386Y0275138I0000531J0000000D01*
G01*
G37*
G36*
G01*
X0298386Y0271122D02*
X0299843Y0271122D01*
G75*
G02*
X0300374Y0270591I0000000J-000531D01*
G01*
X0300374Y0269528D01*
G75*
G02*
X0299843Y0268996I-000531J0000000D01*
G01*
X0298386Y0268996D01*
G75*
G02*
X0297855Y0269528I0000000J0000531D01*
G01*
X0297855Y0270591D01*
G75*
G02*
X0298386Y0271122I0000531J0000000D01*
G01*
G37*
G36*
G01*
X0309358Y0242795D02*
X0309358Y0241614D01*
G75*
G02*
X0308768Y0241024I-000591J0000000D01*
G01*
X0302272Y0241024D01*
G75*
G02*
X0301681Y0241614I0000000J0000591D01*
G01*
X0301681Y0242795D01*
G75*
G02*
X0302272Y0243386I0000591J0000000D01*
G01*
X0308768Y0243386D01*
G75*
G02*
X0309358Y0242795I0000000J-000591D01*
G01*
G37*
G36*
G01*
X0309358Y0247795D02*
X0309358Y0246614D01*
G75*
G02*
X0308768Y0246024I-000591J0000000D01*
G01*
X0302272Y0246024D01*
G75*
G02*
X0301681Y0246614I0000000J0000591D01*
G01*
X0301681Y0247795D01*
G75*
G02*
X0302272Y0248386I0000591J0000000D01*
G01*
X0308768Y0248386D01*
G75*
G02*
X0309358Y0247795I0000000J-000591D01*
G01*
G37*
G36*
G01*
X0309358Y0252795D02*
X0309358Y0251614D01*
G75*
G02*
X0308768Y0251024I-000591J0000000D01*
G01*
X0302272Y0251024D01*
G75*
G02*
X0301681Y0251614I0000000J0000591D01*
G01*
X0301681Y0252795D01*
G75*
G02*
X0302272Y0253386I0000591J0000000D01*
G01*
X0308768Y0253386D01*
G75*
G02*
X0309358Y0252795I0000000J-000591D01*
G01*
G37*
G36*
G01*
X0309358Y0257795D02*
X0309358Y0256614D01*
G75*
G02*
X0308768Y0256024I-000591J0000000D01*
G01*
X0302272Y0256024D01*
G75*
G02*
X0301681Y0256614I0000000J0000591D01*
G01*
X0301681Y0257795D01*
G75*
G02*
X0302272Y0258386I0000591J0000000D01*
G01*
X0308768Y0258386D01*
G75*
G02*
X0309358Y0257795I0000000J-000591D01*
G01*
G37*
G36*
G01*
X0289870Y0257795D02*
X0289870Y0256614D01*
G75*
G02*
X0289280Y0256024I-000591J0000000D01*
G01*
X0282784Y0256024D01*
G75*
G02*
X0282193Y0256614I0000000J0000591D01*
G01*
X0282193Y0257795D01*
G75*
G02*
X0282784Y0258386I0000591J0000000D01*
G01*
X0289280Y0258386D01*
G75*
G02*
X0289870Y0257795I0000000J-000591D01*
G01*
G37*
G36*
G01*
X0289870Y0252795D02*
X0289870Y0251614D01*
G75*
G02*
X0289280Y0251024I-000591J0000000D01*
G01*
X0282784Y0251024D01*
G75*
G02*
X0282193Y0251614I0000000J0000591D01*
G01*
X0282193Y0252795D01*
G75*
G02*
X0282784Y0253386I0000591J0000000D01*
G01*
X0289280Y0253386D01*
G75*
G02*
X0289870Y0252795I0000000J-000591D01*
G01*
G37*
G36*
G01*
X0289870Y0247795D02*
X0289870Y0246614D01*
G75*
G02*
X0289280Y0246024I-000591J0000000D01*
G01*
X0282784Y0246024D01*
G75*
G02*
X0282193Y0246614I0000000J0000591D01*
G01*
X0282193Y0247795D01*
G75*
G02*
X0282784Y0248386I0000591J0000000D01*
G01*
X0289280Y0248386D01*
G75*
G02*
X0289870Y0247795I0000000J-000591D01*
G01*
G37*
G36*
G01*
X0289870Y0242795D02*
X0289870Y0241614D01*
G75*
G02*
X0289280Y0241024I-000591J0000000D01*
G01*
X0282784Y0241024D01*
G75*
G02*
X0282193Y0241614I0000000J0000591D01*
G01*
X0282193Y0242795D01*
G75*
G02*
X0282784Y0243386I0000591J0000000D01*
G01*
X0289280Y0243386D01*
G75*
G02*
X0289870Y0242795I0000000J-000591D01*
G01*
G37*
D149*
X0323878Y0242067D03*
X0323878Y0244626D03*
X0323878Y0247185D03*
X0316398Y0247185D03*
X0316398Y0244626D03*
X0316398Y0242067D03*
D14*
X0280807Y0249902D03*
X0280807Y0254626D03*
X0280807Y0245177D03*
X0280807Y0240453D03*
X0337599Y0265886D03*
X0337599Y0269823D03*
G36*
G01*
X0307717Y0261155D02*
X0306260Y0261155D01*
G75*
G02*
X0305729Y0261687I0000000J0000531D01*
G01*
X0305729Y0262750D01*
G75*
G02*
X0306260Y0263281I0000531J0000000D01*
G01*
X0307717Y0263281D01*
G75*
G02*
X0308248Y0262750I0000000J-000531D01*
G01*
X0308248Y0261687D01*
G75*
G02*
X0307717Y0261155I-000531J0000000D01*
G01*
G37*
G36*
G01*
X0307717Y0265171D02*
X0306260Y0265171D01*
G75*
G02*
X0305729Y0265702I0000000J0000531D01*
G01*
X0305729Y0266765D01*
G75*
G02*
X0306260Y0267297I0000531J0000000D01*
G01*
X0307717Y0267297D01*
G75*
G02*
X0308248Y0266765I0000000J-000531D01*
G01*
X0308248Y0265702D01*
G75*
G02*
X0307717Y0265171I-000531J0000000D01*
G01*
G37*
G36*
G01*
X0302382Y0267218D02*
X0303721Y0267218D01*
G75*
G02*
X0304272Y0266667I0000000J-000551D01*
G01*
X0304272Y0265565D01*
G75*
G02*
X0303721Y0265013I-000551J0000000D01*
G01*
X0302382Y0265013D01*
G75*
G02*
X0301831Y0265565I0000000J0000551D01*
G01*
X0301831Y0266667D01*
G75*
G02*
X0302382Y0267218I0000551J0000000D01*
G01*
G37*
G36*
G01*
X0302382Y0263439D02*
X0303721Y0263439D01*
G75*
G02*
X0304272Y0262887I0000000J-000551D01*
G01*
X0304272Y0261785D01*
G75*
G02*
X0303721Y0261234I-000551J0000000D01*
G01*
X0302382Y0261234D01*
G75*
G02*
X0301831Y0261785I0000000J0000551D01*
G01*
X0301831Y0262887D01*
G75*
G02*
X0302382Y0263439I0000551J0000000D01*
G01*
G37*
G36*
G01*
X0306260Y0275138D02*
X0307717Y0275138D01*
G75*
G02*
X0308248Y0274606I0000000J-000531D01*
G01*
X0308248Y0273543D01*
G75*
G02*
X0307717Y0273012I-000531J0000000D01*
G01*
X0306260Y0273012D01*
G75*
G02*
X0305729Y0273543I0000000J0000531D01*
G01*
X0305729Y0274606D01*
G75*
G02*
X0306260Y0275138I0000531J0000000D01*
G01*
G37*
G36*
G01*
X0306260Y0271122D02*
X0307717Y0271122D01*
G75*
G02*
X0308248Y0270591I0000000J-000531D01*
G01*
X0308248Y0269528D01*
G75*
G02*
X0307717Y0268996I-000531J0000000D01*
G01*
X0306260Y0268996D01*
G75*
G02*
X0305729Y0269528I0000000J0000531D01*
G01*
X0305729Y0270591D01*
G75*
G02*
X0306260Y0271122I0000531J0000000D01*
G01*
G37*
G36*
G01*
X0294666Y0269075D02*
X0293327Y0269075D01*
G75*
G02*
X0292776Y0269626I0000000J0000551D01*
G01*
X0292776Y0270728D01*
G75*
G02*
X0293327Y0271280I0000551J0000000D01*
G01*
X0294666Y0271280D01*
G75*
G02*
X0295217Y0270728I0000000J-000551D01*
G01*
X0295217Y0269626D01*
G75*
G02*
X0294666Y0269075I-000551J0000000D01*
G01*
G37*
G36*
G01*
X0294666Y0272854D02*
X0293327Y0272854D01*
G75*
G02*
X0292776Y0273406I0000000J0000551D01*
G01*
X0292776Y0274508D01*
G75*
G02*
X0293327Y0275059I0000551J0000000D01*
G01*
X0294666Y0275059D01*
G75*
G02*
X0295217Y0274508I0000000J-000551D01*
G01*
X0295217Y0273406D01*
G75*
G02*
X0294666Y0272854I-000551J0000000D01*
G01*
G37*
G36*
G01*
X0317795Y0265217D02*
X0316457Y0265217D01*
G75*
G02*
X0315906Y0265768I0000000J0000551D01*
G01*
X0315906Y0266870D01*
G75*
G02*
X0316457Y0267421I0000551J0000000D01*
G01*
X0317795Y0267421D01*
G75*
G02*
X0318347Y0266870I0000000J-000551D01*
G01*
X0318347Y0265768D01*
G75*
G02*
X0317795Y0265217I-000551J0000000D01*
G01*
G37*
G36*
G01*
X0317795Y0268996D02*
X0316457Y0268996D01*
G75*
G02*
X0315906Y0269547I0000000J0000551D01*
G01*
X0315906Y0270650D01*
G75*
G02*
X0316457Y0271201I0000551J0000000D01*
G01*
X0317795Y0271201D01*
G75*
G02*
X0318347Y0270650I0000000J-000551D01*
G01*
X0318347Y0269547D01*
G75*
G02*
X0317795Y0268996I-000551J0000000D01*
G01*
G37*
G36*
G01*
X0312205Y0261969D02*
X0312205Y0263425D01*
G75*
G02*
X0312736Y0263957I0000531J0000000D01*
G01*
X0313799Y0263957D01*
G75*
G02*
X0314331Y0263425I0000000J-000531D01*
G01*
X0314331Y0261969D01*
G75*
G02*
X0313799Y0261437I-000531J0000000D01*
G01*
X0312736Y0261437D01*
G75*
G02*
X0312205Y0261969I0000000J0000531D01*
G01*
G37*
G36*
G01*
X0316221Y0261969D02*
X0316221Y0263425D01*
G75*
G02*
X0316752Y0263957I0000531J0000000D01*
G01*
X0317815Y0263957D01*
G75*
G02*
X0318347Y0263425I0000000J-000531D01*
G01*
X0318347Y0261969D01*
G75*
G02*
X0317815Y0261437I-000531J0000000D01*
G01*
X0316752Y0261437D01*
G75*
G02*
X0316221Y0261969I0000000J0000531D01*
G01*
G37*
G36*
G01*
X0335630Y0254257D02*
X0335630Y0252239D01*
G75*
G02*
X0334769Y0251378I-000861J0000000D01*
G01*
X0333046Y0251378D01*
G75*
G02*
X0332185Y0252239I0000000J0000861D01*
G01*
X0332185Y0254257D01*
G75*
G02*
X0333046Y0255118I0000861J0000000D01*
G01*
X0334769Y0255118D01*
G75*
G02*
X0335630Y0254257I0000000J-000861D01*
G01*
G37*
G36*
G01*
X0329429Y0254257D02*
X0329429Y0252239D01*
G75*
G02*
X0328568Y0251378I-000861J0000000D01*
G01*
X0326846Y0251378D01*
G75*
G02*
X0325984Y0252239I0000000J0000861D01*
G01*
X0325984Y0254257D01*
G75*
G02*
X0326846Y0255118I0000861J0000000D01*
G01*
X0328568Y0255118D01*
G75*
G02*
X0329429Y0254257I0000000J-000861D01*
G01*
G37*
G36*
G01*
X0329114Y0247402D02*
X0329114Y0248858D01*
G75*
G02*
X0329646Y0249390I0000531J0000000D01*
G01*
X0330709Y0249390D01*
G75*
G02*
X0331240Y0248858I0000000J-000531D01*
G01*
X0331240Y0247402D01*
G75*
G02*
X0330709Y0246870I-000531J0000000D01*
G01*
X0329646Y0246870D01*
G75*
G02*
X0329114Y0247402I0000000J0000531D01*
G01*
G37*
G36*
G01*
X0333130Y0247402D02*
X0333130Y0248858D01*
G75*
G02*
X0333662Y0249390I0000531J0000000D01*
G01*
X0334725Y0249390D01*
G75*
G02*
X0335256Y0248858I0000000J-000531D01*
G01*
X0335256Y0247402D01*
G75*
G02*
X0334725Y0246870I-000531J0000000D01*
G01*
X0333662Y0246870D01*
G75*
G02*
X0333130Y0247402I0000000J0000531D01*
G01*
G37*
G36*
G01*
X0318347Y0259488D02*
X0318347Y0258032D01*
G75*
G02*
X0317815Y0257500I-000531J0000000D01*
G01*
X0316752Y0257500D01*
G75*
G02*
X0316221Y0258032I0000000J0000531D01*
G01*
X0316221Y0259488D01*
G75*
G02*
X0316752Y0260020I0000531J0000000D01*
G01*
X0317815Y0260020D01*
G75*
G02*
X0318347Y0259488I0000000J-000531D01*
G01*
G37*
G36*
G01*
X0314331Y0259488D02*
X0314331Y0258032D01*
G75*
G02*
X0313799Y0257500I-000531J0000000D01*
G01*
X0312736Y0257500D01*
G75*
G02*
X0312205Y0258032I0000000J0000531D01*
G01*
X0312205Y0259488D01*
G75*
G02*
X0312736Y0260020I0000531J0000000D01*
G01*
X0313799Y0260020D01*
G75*
G02*
X0314331Y0259488I0000000J-000531D01*
G01*
G37*
G36*
G01*
X0313032Y0265279D02*
X0311575Y0265279D01*
G75*
G02*
X0311044Y0265810I0000000J0000531D01*
G01*
X0311044Y0266873D01*
G75*
G02*
X0311575Y0267405I0000531J0000000D01*
G01*
X0313032Y0267405D01*
G75*
G02*
X0313563Y0266873I0000000J-000531D01*
G01*
X0313563Y0265810D01*
G75*
G02*
X0313032Y0265279I-000531J0000000D01*
G01*
G37*
G36*
G01*
X0313032Y0269295D02*
X0311575Y0269295D01*
G75*
G02*
X0311044Y0269826I0000000J0000531D01*
G01*
X0311044Y0270889D01*
G75*
G02*
X0311575Y0271420I0000531J0000000D01*
G01*
X0313032Y0271420D01*
G75*
G02*
X0313563Y0270889I0000000J-000531D01*
G01*
X0313563Y0269826D01*
G75*
G02*
X0313032Y0269295I-000531J0000000D01*
G01*
G37*
G36*
G01*
X0330374Y0258681D02*
X0330374Y0260020D01*
G75*
G02*
X0330925Y0260571I0000551J0000000D01*
G01*
X0332028Y0260571D01*
G75*
G02*
X0332579Y0260020I0000000J-000551D01*
G01*
X0332579Y0258681D01*
G75*
G02*
X0332028Y0258130I-000551J0000000D01*
G01*
X0330925Y0258130D01*
G75*
G02*
X0330374Y0258681I0000000J0000551D01*
G01*
G37*
G36*
G01*
X0334154Y0258681D02*
X0334154Y0260020D01*
G75*
G02*
X0334705Y0260571I0000551J0000000D01*
G01*
X0335807Y0260571D01*
G75*
G02*
X0336358Y0260020I0000000J-000551D01*
G01*
X0336358Y0258681D01*
G75*
G02*
X0335807Y0258130I-000551J0000000D01*
G01*
X0334705Y0258130D01*
G75*
G02*
X0334154Y0258681I0000000J0000551D01*
G01*
G37*
G36*
G01*
X0293327Y0267218D02*
X0294666Y0267218D01*
G75*
G02*
X0295217Y0266667I0000000J-000551D01*
G01*
X0295217Y0265565D01*
G75*
G02*
X0294666Y0265013I-000551J0000000D01*
G01*
X0293327Y0265013D01*
G75*
G02*
X0292776Y0265565I0000000J0000551D01*
G01*
X0292776Y0266667D01*
G75*
G02*
X0293327Y0267218I0000551J0000000D01*
G01*
G37*
G36*
G01*
X0293327Y0263439D02*
X0294666Y0263439D01*
G75*
G02*
X0295217Y0262887I0000000J-000551D01*
G01*
X0295217Y0261785D01*
G75*
G02*
X0294666Y0261234I-000551J0000000D01*
G01*
X0293327Y0261234D01*
G75*
G02*
X0292776Y0261785I0000000J0000551D01*
G01*
X0292776Y0262887D01*
G75*
G02*
X0293327Y0263439I0000551J0000000D01*
G01*
G37*
G36*
G01*
X0318347Y0274744D02*
X0318347Y0273287D01*
G75*
G02*
X0317815Y0272756I-000531J0000000D01*
G01*
X0316752Y0272756D01*
G75*
G02*
X0316221Y0273287I0000000J0000531D01*
G01*
X0316221Y0274744D01*
G75*
G02*
X0316752Y0275276I0000531J0000000D01*
G01*
X0317815Y0275276D01*
G75*
G02*
X0318347Y0274744I0000000J-000531D01*
G01*
G37*
G36*
G01*
X0314331Y0274744D02*
X0314331Y0273287D01*
G75*
G02*
X0313799Y0272756I-000531J0000000D01*
G01*
X0312736Y0272756D01*
G75*
G02*
X0312205Y0273287I0000000J0000531D01*
G01*
X0312205Y0274744D01*
G75*
G02*
X0312736Y0275276I0000531J0000000D01*
G01*
X0313799Y0275276D01*
G75*
G02*
X0314331Y0274744I0000000J-000531D01*
G01*
G37*
D150*
X0289088Y0273524D03*
X0286529Y0273524D03*
X0283970Y0273524D03*
X0283970Y0266043D03*
X0286529Y0266043D03*
X0289088Y0266043D03*
G36*
G01*
X0335037Y0264738D02*
X0335037Y0263557D01*
G75*
G02*
X0334446Y0262966I-000591J0000000D01*
G01*
X0330411Y0262966D01*
G75*
G02*
X0329820Y0263557I0000000J0000591D01*
G01*
X0329820Y0264738D01*
G75*
G02*
X0330411Y0265328I0000591J0000000D01*
G01*
X0334446Y0265328D01*
G75*
G02*
X0335037Y0264738I0000000J-000591D01*
G01*
G37*
G36*
G01*
X0335037Y0268478D02*
X0335037Y0267297D01*
G75*
G02*
X0334446Y0266706I-000591J0000000D01*
G01*
X0330411Y0266706D01*
G75*
G02*
X0329820Y0267297I0000000J0000591D01*
G01*
X0329820Y0268478D01*
G75*
G02*
X0330411Y0269069I0000591J0000000D01*
G01*
X0334446Y0269069D01*
G75*
G02*
X0335037Y0268478I0000000J-000591D01*
G01*
G37*
G36*
G01*
X0335037Y0272218D02*
X0335037Y0271037D01*
G75*
G02*
X0334446Y0270447I-000591J0000000D01*
G01*
X0330411Y0270447D01*
G75*
G02*
X0329820Y0271037I0000000J0000591D01*
G01*
X0329820Y0272218D01*
G75*
G02*
X0330411Y0272809I0000591J0000000D01*
G01*
X0334446Y0272809D01*
G75*
G02*
X0335037Y0272218I0000000J-000591D01*
G01*
G37*
G36*
G01*
X0326080Y0272218D02*
X0326080Y0271037D01*
G75*
G02*
X0325490Y0270447I-000591J0000000D01*
G01*
X0321454Y0270447D01*
G75*
G02*
X0320864Y0271037I0000000J0000591D01*
G01*
X0320864Y0272218D01*
G75*
G02*
X0321454Y0272809I0000591J0000000D01*
G01*
X0325490Y0272809D01*
G75*
G02*
X0326080Y0272218I0000000J-000591D01*
G01*
G37*
G36*
G01*
X0326080Y0268478D02*
X0326080Y0267297D01*
G75*
G02*
X0325490Y0266706I-000591J0000000D01*
G01*
X0321454Y0266706D01*
G75*
G02*
X0320864Y0267297I0000000J0000591D01*
G01*
X0320864Y0268478D01*
G75*
G02*
X0321454Y0269069I0000591J0000000D01*
G01*
X0325490Y0269069D01*
G75*
G02*
X0326080Y0268478I0000000J-000591D01*
G01*
G37*
G36*
G01*
X0326080Y0264738D02*
X0326080Y0263557D01*
G75*
G02*
X0325490Y0262966I-000591J0000000D01*
G01*
X0321454Y0262966D01*
G75*
G02*
X0320864Y0263557I0000000J0000591D01*
G01*
X0320864Y0264738D01*
G75*
G02*
X0321454Y0265328I0000591J0000000D01*
G01*
X0325490Y0265328D01*
G75*
G02*
X0326080Y0264738I0000000J-000591D01*
G01*
G37*
G36*
G01*
X0324154Y0252854D02*
X0324154Y0251516D01*
G75*
G02*
X0323603Y0250965I-000551J0000000D01*
G01*
X0322500Y0250965D01*
G75*
G02*
X0321949Y0251516I0000000J0000551D01*
G01*
X0321949Y0252854D01*
G75*
G02*
X0322500Y0253406I0000551J0000000D01*
G01*
X0323603Y0253406D01*
G75*
G02*
X0324154Y0252854I0000000J-000551D01*
G01*
G37*
G36*
G01*
X0320374Y0252854D02*
X0320374Y0251516D01*
G75*
G02*
X0319823Y0250965I-000551J0000000D01*
G01*
X0318721Y0250965D01*
G75*
G02*
X0318169Y0251516I0000000J0000551D01*
G01*
X0318169Y0252854D01*
G75*
G02*
X0318721Y0253406I0000551J0000000D01*
G01*
X0319823Y0253406D01*
G75*
G02*
X0320374Y0252854I0000000J-000551D01*
G01*
G37*
G36*
G01*
X0302382Y0275059D02*
X0303721Y0275059D01*
G75*
G02*
X0304272Y0274508I0000000J-000551D01*
G01*
X0304272Y0273406D01*
G75*
G02*
X0303721Y0272854I-000551J0000000D01*
G01*
X0302382Y0272854D01*
G75*
G02*
X0301831Y0273406I0000000J0000551D01*
G01*
X0301831Y0274508D01*
G75*
G02*
X0302382Y0275059I0000551J0000000D01*
G01*
G37*
G36*
G01*
X0302382Y0271280D02*
X0303721Y0271280D01*
G75*
G02*
X0304272Y0270728I0000000J-000551D01*
G01*
X0304272Y0269626D01*
G75*
G02*
X0303721Y0269075I-000551J0000000D01*
G01*
X0302382Y0269075D01*
G75*
G02*
X0301831Y0269626I0000000J0000551D01*
G01*
X0301831Y0270728D01*
G75*
G02*
X0302382Y0271280I0000551J0000000D01*
G01*
G37*
G36*
G01*
X0298386Y0267297D02*
X0299843Y0267297D01*
G75*
G02*
X0300374Y0266765I0000000J-000531D01*
G01*
X0300374Y0265702D01*
G75*
G02*
X0299843Y0265171I-000531J0000000D01*
G01*
X0298386Y0265171D01*
G75*
G02*
X0297855Y0265702I0000000J0000531D01*
G01*
X0297855Y0266765D01*
G75*
G02*
X0298386Y0267297I0000531J0000000D01*
G01*
G37*
G36*
G01*
X0298386Y0263281D02*
X0299843Y0263281D01*
G75*
G02*
X0300374Y0262750I0000000J-000531D01*
G01*
X0300374Y0261687D01*
G75*
G02*
X0299843Y0261155I-000531J0000000D01*
G01*
X0298386Y0261155D01*
G75*
G02*
X0297855Y0261687I0000000J0000531D01*
G01*
X0297855Y0262750D01*
G75*
G02*
X0298386Y0263281I0000531J0000000D01*
G01*
G37*
X0547933Y0233957D02*
%LPD*%
G01*
D14*
X0489665Y0206792D03*
X0489665Y0211516D03*
X0489665Y0202067D03*
X0489665Y0197343D03*
X0546457Y0222776D03*
X0546457Y0226713D03*
D151*
X0514075Y0220965D03*
X0514075Y0222933D03*
X0514075Y0224902D03*
X0514075Y0226870D03*
X0514075Y0228839D03*
X0496752Y0228839D03*
X0496752Y0226870D03*
X0496752Y0224902D03*
X0496752Y0222933D03*
X0496752Y0220965D03*
G36*
G01*
X0506555Y0207776D02*
X0503484Y0207776D01*
G75*
G02*
X0503209Y0208051I0000000J0000276D01*
G01*
X0503209Y0210256D01*
G75*
G02*
X0503484Y0210532I0000276J0000000D01*
G01*
X0506555Y0210532D01*
G75*
G02*
X0506831Y0210256I0000000J-000276D01*
G01*
X0506831Y0208051D01*
G75*
G02*
X0506555Y0207776I-000276J0000000D01*
G01*
G37*
G36*
G01*
X0506555Y0214075D02*
X0503484Y0214075D01*
G75*
G02*
X0503209Y0214351I0000000J0000276D01*
G01*
X0503209Y0216555D01*
G75*
G02*
X0503484Y0216831I0000276J0000000D01*
G01*
X0506555Y0216831D01*
G75*
G02*
X0506831Y0216555I0000000J-000276D01*
G01*
X0506831Y0214351D01*
G75*
G02*
X0506555Y0214075I-000276J0000000D01*
G01*
G37*
G36*
G01*
X0492224Y0201122D02*
X0492224Y0204193D01*
G75*
G02*
X0492500Y0204469I0000276J0000000D01*
G01*
X0494705Y0204469D01*
G75*
G02*
X0494980Y0204193I0000000J-000276D01*
G01*
X0494980Y0201122D01*
G75*
G02*
X0494705Y0200847I-000276J0000000D01*
G01*
X0492500Y0200847D01*
G75*
G02*
X0492224Y0201122I0000000J0000276D01*
G01*
G37*
G36*
G01*
X0498524Y0201122D02*
X0498524Y0204193D01*
G75*
G02*
X0498799Y0204469I0000276J0000000D01*
G01*
X0501004Y0204469D01*
G75*
G02*
X0501279Y0204193I0000000J-000276D01*
G01*
X0501279Y0201122D01*
G75*
G02*
X0501004Y0200847I-000276J0000000D01*
G01*
X0498799Y0200847D01*
G75*
G02*
X0498524Y0201122I0000000J0000276D01*
G01*
G37*
G36*
G01*
X0512461Y0207776D02*
X0509390Y0207776D01*
G75*
G02*
X0509114Y0208051I0000000J0000276D01*
G01*
X0509114Y0210256D01*
G75*
G02*
X0509390Y0210532I0000276J0000000D01*
G01*
X0512461Y0210532D01*
G75*
G02*
X0512736Y0210256I0000000J-000276D01*
G01*
X0512736Y0208051D01*
G75*
G02*
X0512461Y0207776I-000276J0000000D01*
G01*
G37*
G36*
G01*
X0512461Y0214075D02*
X0509390Y0214075D01*
G75*
G02*
X0509114Y0214351I0000000J0000276D01*
G01*
X0509114Y0216555D01*
G75*
G02*
X0509390Y0216831I0000276J0000000D01*
G01*
X0512461Y0216831D01*
G75*
G02*
X0512736Y0216555I0000000J-000276D01*
G01*
X0512736Y0214351D01*
G75*
G02*
X0512461Y0214075I-000276J0000000D01*
G01*
G37*
G36*
G01*
X0523110Y0204036D02*
X0520394Y0204036D01*
G75*
G02*
X0519488Y0204941I0000000J0000906D01*
G01*
X0519488Y0210217D01*
G75*
G02*
X0520394Y0211122I0000906J0000000D01*
G01*
X0523110Y0211122D01*
G75*
G02*
X0524016Y0210217I0000000J-000906D01*
G01*
X0524016Y0204941D01*
G75*
G02*
X0523110Y0204036I-000906J0000000D01*
G01*
G37*
G36*
G01*
X0534528Y0204036D02*
X0531811Y0204036D01*
G75*
G02*
X0530905Y0204941I0000000J0000906D01*
G01*
X0530905Y0210217D01*
G75*
G02*
X0531811Y0211122I0000906J0000000D01*
G01*
X0534528Y0211122D01*
G75*
G02*
X0535433Y0210217I0000000J-000906D01*
G01*
X0535433Y0204941D01*
G75*
G02*
X0534528Y0204036I-000906J0000000D01*
G01*
G37*
G36*
G01*
X0523110Y0213878D02*
X0520394Y0213878D01*
G75*
G02*
X0519488Y0214784I0000000J0000906D01*
G01*
X0519488Y0220059D01*
G75*
G02*
X0520394Y0220965I0000906J0000000D01*
G01*
X0523110Y0220965D01*
G75*
G02*
X0524016Y0220059I0000000J-000906D01*
G01*
X0524016Y0214784D01*
G75*
G02*
X0523110Y0213878I-000906J0000000D01*
G01*
G37*
G36*
G01*
X0534528Y0213878D02*
X0531811Y0213878D01*
G75*
G02*
X0530905Y0214784I0000000J0000906D01*
G01*
X0530905Y0220059D01*
G75*
G02*
X0531811Y0220965I0000906J0000000D01*
G01*
X0534528Y0220965D01*
G75*
G02*
X0535433Y0220059I0000000J-000906D01*
G01*
X0535433Y0214784D01*
G75*
G02*
X0534528Y0213878I-000906J0000000D01*
G01*
G37*
G36*
G01*
X0545177Y0207559D02*
X0545177Y0204843D01*
G75*
G02*
X0544272Y0203937I-000906J0000000D01*
G01*
X0538996Y0203937D01*
G75*
G02*
X0538090Y0204843I0000000J0000906D01*
G01*
X0538090Y0207559D01*
G75*
G02*
X0538996Y0208465I0000906J0000000D01*
G01*
X0544272Y0208465D01*
G75*
G02*
X0545177Y0207559I0000000J-000906D01*
G01*
G37*
G36*
G01*
X0545177Y0218977D02*
X0545177Y0216260D01*
G75*
G02*
X0544272Y0215355I-000906J0000000D01*
G01*
X0538996Y0215355D01*
G75*
G02*
X0538090Y0216260I0000000J0000906D01*
G01*
X0538090Y0218977D01*
G75*
G02*
X0538996Y0219882I0000906J0000000D01*
G01*
X0544272Y0219882D01*
G75*
G02*
X0545177Y0218977I0000000J-000906D01*
G01*
G37*
G36*
G01*
X0529803Y0223327D02*
X0527087Y0223327D01*
G75*
G02*
X0526181Y0224233I0000000J0000906D01*
G01*
X0526181Y0229508D01*
G75*
G02*
X0527087Y0230414I0000906J0000000D01*
G01*
X0529803Y0230414D01*
G75*
G02*
X0530709Y0229508I0000000J-000906D01*
G01*
X0530709Y0224233D01*
G75*
G02*
X0529803Y0223327I-000906J0000000D01*
G01*
G37*
G36*
G01*
X0541220Y0223327D02*
X0538504Y0223327D01*
G75*
G02*
X0537598Y0224233I0000000J0000906D01*
G01*
X0537598Y0229508D01*
G75*
G02*
X0538504Y0230414I0000906J0000000D01*
G01*
X0541220Y0230414D01*
G75*
G02*
X0542126Y0229508I0000000J-000906D01*
G01*
X0542126Y0224233D01*
G75*
G02*
X0541220Y0223327I-000906J0000000D01*
G01*
G37*
G36*
G01*
X0504134Y0201452D02*
X0504134Y0203470D01*
G75*
G02*
X0504995Y0204331I0000861J0000000D01*
G01*
X0506717Y0204331D01*
G75*
G02*
X0507579Y0203470I0000000J-000861D01*
G01*
X0507579Y0201452D01*
G75*
G02*
X0506717Y0200591I-000861J0000000D01*
G01*
X0504995Y0200591D01*
G75*
G02*
X0504134Y0201452I0000000J0000861D01*
G01*
G37*
G36*
G01*
X0510335Y0201452D02*
X0510335Y0203470D01*
G75*
G02*
X0511196Y0204331I0000861J0000000D01*
G01*
X0512918Y0204331D01*
G75*
G02*
X0513779Y0203470I0000000J-000861D01*
G01*
X0513779Y0201452D01*
G75*
G02*
X0512918Y0200591I-000861J0000000D01*
G01*
X0511196Y0200591D01*
G75*
G02*
X0510335Y0201452I0000000J0000861D01*
G01*
G37*
G36*
G01*
X0498189Y0208414D02*
X0498189Y0211091D01*
G75*
G02*
X0498524Y0211426I0000335J0000000D01*
G01*
X0501201Y0211426D01*
G75*
G02*
X0501535Y0211091I0000000J-000335D01*
G01*
X0501535Y0208414D01*
G75*
G02*
X0501201Y0208079I-000335J0000000D01*
G01*
X0498524Y0208079D01*
G75*
G02*
X0498189Y0208414I0000000J0000335D01*
G01*
G37*
G36*
G01*
X0491968Y0208414D02*
X0491968Y0211091D01*
G75*
G02*
X0492303Y0211426I0000335J0000000D01*
G01*
X0494980Y0211426D01*
G75*
G02*
X0495315Y0211091I0000000J-000335D01*
G01*
X0495315Y0208414D01*
G75*
G02*
X0494980Y0208079I-000335J0000000D01*
G01*
X0492303Y0208079D01*
G75*
G02*
X0491968Y0208414I0000000J0000335D01*
G01*
G37*
G36*
G01*
X0491968Y0213721D02*
X0491968Y0216398D01*
G75*
G02*
X0492303Y0216733I0000335J0000000D01*
G01*
X0494980Y0216733D01*
G75*
G02*
X0495315Y0216398I0000000J-000335D01*
G01*
X0495315Y0213721D01*
G75*
G02*
X0494980Y0213386I-000335J0000000D01*
G01*
X0492303Y0213386D01*
G75*
G02*
X0491968Y0213721I0000000J0000335D01*
G01*
G37*
G36*
G01*
X0498189Y0213721D02*
X0498189Y0216398D01*
G75*
G02*
X0498524Y0216733I0000335J0000000D01*
G01*
X0501201Y0216733D01*
G75*
G02*
X0501535Y0216398I0000000J-000335D01*
G01*
X0501535Y0213721D01*
G75*
G02*
X0501201Y0213386I-000335J0000000D01*
G01*
X0498524Y0213386D01*
G75*
G02*
X0498189Y0213721I0000000J0000335D01*
G01*
G37*
G36*
G01*
X0517382Y0207520D02*
X0514705Y0207520D01*
G75*
G02*
X0514370Y0207855I0000000J0000335D01*
G01*
X0514370Y0210532D01*
G75*
G02*
X0514705Y0210866I0000335J0000000D01*
G01*
X0517382Y0210866D01*
G75*
G02*
X0517716Y0210532I0000000J-000335D01*
G01*
X0517716Y0207855D01*
G75*
G02*
X0517382Y0207520I-000335J0000000D01*
G01*
G37*
G36*
G01*
X0517382Y0213740D02*
X0514705Y0213740D01*
G75*
G02*
X0514370Y0214075I0000000J0000335D01*
G01*
X0514370Y0216752D01*
G75*
G02*
X0514705Y0217087I0000335J0000000D01*
G01*
X0517382Y0217087D01*
G75*
G02*
X0517716Y0216752I0000000J-000335D01*
G01*
X0517716Y0214075D01*
G75*
G02*
X0517382Y0213740I-000335J0000000D01*
G01*
G37*
X0081791Y0158661D02*
%LPD*%
G01*
G36*
G01*
X0117500Y0091053D02*
X0117500Y0092411D01*
G75*
G02*
X0118080Y0092992I0000581J0000000D01*
G01*
X0119242Y0092992D01*
G75*
G02*
X0119822Y0092411I0000000J-000581D01*
G01*
X0119822Y0091053D01*
G75*
G02*
X0119242Y0090472I-000581J0000000D01*
G01*
X0118080Y0090472D01*
G75*
G02*
X0117500Y0091053I0000000J0000581D01*
G01*
G37*
G36*
G01*
X0121319Y0091053D02*
X0121319Y0092411D01*
G75*
G02*
X0121899Y0092992I0000581J0000000D01*
G01*
X0123061Y0092992D01*
G75*
G02*
X0123641Y0092411I0000000J-000581D01*
G01*
X0123641Y0091053D01*
G75*
G02*
X0123061Y0090472I-000581J0000000D01*
G01*
X0121899Y0090472D01*
G75*
G02*
X0121319Y0091053I0000000J0000581D01*
G01*
G37*
G36*
G01*
X0102076Y0149626D02*
X0103435Y0149626D01*
G75*
G02*
X0104015Y0149045I0000000J-000581D01*
G01*
X0104015Y0147883D01*
G75*
G02*
X0103435Y0147303I-000581J0000000D01*
G01*
X0102076Y0147303D01*
G75*
G02*
X0101496Y0147883I0000000J0000581D01*
G01*
X0101496Y0149045D01*
G75*
G02*
X0102076Y0149626I0000581J0000000D01*
G01*
G37*
G36*
G01*
X0102076Y0145807D02*
X0103435Y0145807D01*
G75*
G02*
X0104015Y0145226I0000000J-000581D01*
G01*
X0104015Y0144065D01*
G75*
G02*
X0103435Y0143484I-000581J0000000D01*
G01*
X0102076Y0143484D01*
G75*
G02*
X0101496Y0144065I0000000J0000581D01*
G01*
X0101496Y0145226D01*
G75*
G02*
X0102076Y0145807I0000581J0000000D01*
G01*
G37*
G36*
G01*
X0117273Y0139099D02*
X0117273Y0137081D01*
G75*
G02*
X0116412Y0136220I-000861J0000000D01*
G01*
X0114690Y0136220D01*
G75*
G02*
X0113828Y0137081I0000000J0000861D01*
G01*
X0113828Y0139099D01*
G75*
G02*
X0114690Y0139960I0000861J0000000D01*
G01*
X0116412Y0139960D01*
G75*
G02*
X0117273Y0139099I0000000J-000861D01*
G01*
G37*
G36*
G01*
X0111072Y0139099D02*
X0111072Y0137081D01*
G75*
G02*
X0110211Y0136220I-000861J0000000D01*
G01*
X0108489Y0136220D01*
G75*
G02*
X0107628Y0137081I0000000J0000861D01*
G01*
X0107628Y0139099D01*
G75*
G02*
X0108489Y0139960I0000861J0000000D01*
G01*
X0110211Y0139960D01*
G75*
G02*
X0111072Y0139099I0000000J-000861D01*
G01*
G37*
G36*
G01*
X0092244Y0092608D02*
X0092244Y0091250D01*
G75*
G02*
X0091663Y0090669I-000581J0000000D01*
G01*
X0090502Y0090669D01*
G75*
G02*
X0089921Y0091250I0000000J0000581D01*
G01*
X0089921Y0092608D01*
G75*
G02*
X0090502Y0093189I0000581J0000000D01*
G01*
X0091663Y0093189D01*
G75*
G02*
X0092244Y0092608I0000000J-000581D01*
G01*
G37*
G36*
G01*
X0088425Y0092608D02*
X0088425Y0091250D01*
G75*
G02*
X0087844Y0090669I-000581J0000000D01*
G01*
X0086683Y0090669D01*
G75*
G02*
X0086102Y0091250I0000000J0000581D01*
G01*
X0086102Y0092608D01*
G75*
G02*
X0086683Y0093189I0000581J0000000D01*
G01*
X0087844Y0093189D01*
G75*
G02*
X0088425Y0092608I0000000J-000581D01*
G01*
G37*
D156*
X0108071Y0143799D03*
X0115551Y0143799D03*
X0111811Y0151673D03*
G36*
G01*
X0092244Y0096791D02*
X0092244Y0095433D01*
G75*
G02*
X0091663Y0094852I-000581J0000000D01*
G01*
X0090502Y0094852D01*
G75*
G02*
X0089921Y0095433I0000000J0000581D01*
G01*
X0089921Y0096791D01*
G75*
G02*
X0090502Y0097372I0000581J0000000D01*
G01*
X0091663Y0097372D01*
G75*
G02*
X0092244Y0096791I0000000J-000581D01*
G01*
G37*
G36*
G01*
X0088425Y0096791D02*
X0088425Y0095433D01*
G75*
G02*
X0087844Y0094852I-000581J0000000D01*
G01*
X0086683Y0094852D01*
G75*
G02*
X0086102Y0095433I0000000J0000581D01*
G01*
X0086102Y0096791D01*
G75*
G02*
X0086683Y0097372I0000581J0000000D01*
G01*
X0087844Y0097372D01*
G75*
G02*
X0088425Y0096791I0000000J-000581D01*
G01*
G37*
G36*
G01*
X0116161Y0092411D02*
X0116161Y0091053D01*
G75*
G02*
X0115580Y0090472I-000581J0000000D01*
G01*
X0114419Y0090472D01*
G75*
G02*
X0113838Y0091053I0000000J0000581D01*
G01*
X0113838Y0092411D01*
G75*
G02*
X0114419Y0092992I0000581J0000000D01*
G01*
X0115580Y0092992D01*
G75*
G02*
X0116161Y0092411I0000000J-000581D01*
G01*
G37*
G36*
G01*
X0112342Y0092411D02*
X0112342Y0091053D01*
G75*
G02*
X0111761Y0090472I-000581J0000000D01*
G01*
X0110600Y0090472D01*
G75*
G02*
X0110019Y0091053I0000000J0000581D01*
G01*
X0110019Y0092411D01*
G75*
G02*
X0110600Y0092992I0000581J0000000D01*
G01*
X0111761Y0092992D01*
G75*
G02*
X0112342Y0092411I0000000J-000581D01*
G01*
G37*
G36*
G01*
X0128425Y0096171D02*
X0128425Y0097529D01*
G75*
G02*
X0129006Y0098110I0000581J0000000D01*
G01*
X0130167Y0098110D01*
G75*
G02*
X0130748Y0097529I0000000J-000581D01*
G01*
X0130748Y0096171D01*
G75*
G02*
X0130167Y0095590I-000581J0000000D01*
G01*
X0129006Y0095590D01*
G75*
G02*
X0128425Y0096171I0000000J0000581D01*
G01*
G37*
G36*
G01*
X0132244Y0096171D02*
X0132244Y0097529D01*
G75*
G02*
X0132824Y0098110I0000581J0000000D01*
G01*
X0133986Y0098110D01*
G75*
G02*
X0134567Y0097529I0000000J-000581D01*
G01*
X0134567Y0096171D01*
G75*
G02*
X0133986Y0095590I-000581J0000000D01*
G01*
X0132824Y0095590D01*
G75*
G02*
X0132244Y0096171I0000000J0000581D01*
G01*
G37*
G36*
G01*
X0101653Y0091053D02*
X0101653Y0092411D01*
G75*
G02*
X0102234Y0092992I0000581J0000000D01*
G01*
X0103395Y0092992D01*
G75*
G02*
X0103976Y0092411I0000000J-000581D01*
G01*
X0103976Y0091053D01*
G75*
G02*
X0103395Y0090472I-000581J0000000D01*
G01*
X0102234Y0090472D01*
G75*
G02*
X0101653Y0091053I0000000J0000581D01*
G01*
G37*
G36*
G01*
X0105472Y0091053D02*
X0105472Y0092411D01*
G75*
G02*
X0106053Y0092992I0000581J0000000D01*
G01*
X0107214Y0092992D01*
G75*
G02*
X0107795Y0092411I0000000J-000581D01*
G01*
X0107795Y0091053D01*
G75*
G02*
X0107214Y0090472I-000581J0000000D01*
G01*
X0106053Y0090472D01*
G75*
G02*
X0105472Y0091053I0000000J0000581D01*
G01*
G37*
G36*
G01*
X0128425Y0130817D02*
X0128425Y0132175D01*
G75*
G02*
X0129006Y0132755I0000581J0000000D01*
G01*
X0130167Y0132755D01*
G75*
G02*
X0130748Y0132175I0000000J-000581D01*
G01*
X0130748Y0130817D01*
G75*
G02*
X0130167Y0130236I-000581J0000000D01*
G01*
X0129006Y0130236D01*
G75*
G02*
X0128425Y0130817I0000000J0000581D01*
G01*
G37*
G36*
G01*
X0132244Y0130817D02*
X0132244Y0132175D01*
G75*
G02*
X0132824Y0132755I0000581J0000000D01*
G01*
X0133986Y0132755D01*
G75*
G02*
X0134567Y0132175I0000000J-000581D01*
G01*
X0134567Y0130817D01*
G75*
G02*
X0133986Y0130236I-000581J0000000D01*
G01*
X0132824Y0130236D01*
G75*
G02*
X0132244Y0130817I0000000J0000581D01*
G01*
G37*
D389*
X0121752Y0066378D03*
D154*
X0093405Y0067480D03*
X0105216Y0075354D03*
X0093405Y0083228D03*
D390*
X0096948Y0075354D03*
D389*
X0121752Y0084330D03*
G36*
G01*
X0101978Y0141850D02*
X0103336Y0141850D01*
G75*
G02*
X0103917Y0141269I0000000J-000581D01*
G01*
X0103917Y0140108D01*
G75*
G02*
X0103336Y0139527I-000581J0000000D01*
G01*
X0101978Y0139527D01*
G75*
G02*
X0101397Y0140108I0000000J0000581D01*
G01*
X0101397Y0141269D01*
G75*
G02*
X0101978Y0141850I0000581J0000000D01*
G01*
G37*
G36*
G01*
X0101978Y0138031D02*
X0103336Y0138031D01*
G75*
G02*
X0103917Y0137450I0000000J-000581D01*
G01*
X0103917Y0136289D01*
G75*
G02*
X0103336Y0135708I-000581J0000000D01*
G01*
X0101978Y0135708D01*
G75*
G02*
X0101397Y0136289I0000000J0000581D01*
G01*
X0101397Y0137450D01*
G75*
G02*
X0101978Y0138031I0000581J0000000D01*
G01*
G37*
G36*
G01*
X0088312Y0103346D02*
X0086294Y0103346D01*
G75*
G02*
X0085433Y0104207I0000000J0000861D01*
G01*
X0085433Y0105930D01*
G75*
G02*
X0086294Y0106791I0000861J0000000D01*
G01*
X0088312Y0106791D01*
G75*
G02*
X0089173Y0105930I0000000J-000861D01*
G01*
X0089173Y0104207D01*
G75*
G02*
X0088312Y0103346I-000861J0000000D01*
G01*
G37*
G36*
G01*
X0088312Y0109547D02*
X0086294Y0109547D01*
G75*
G02*
X0085433Y0110408I0000000J0000861D01*
G01*
X0085433Y0112130D01*
G75*
G02*
X0086294Y0112992I0000861J0000000D01*
G01*
X0088312Y0112992D01*
G75*
G02*
X0089173Y0112130I0000000J-000861D01*
G01*
X0089173Y0110408D01*
G75*
G02*
X0088312Y0109547I-000861J0000000D01*
G01*
G37*
G36*
G01*
X0092244Y0100974D02*
X0092244Y0099616D01*
G75*
G02*
X0091663Y0099035I-000581J0000000D01*
G01*
X0090502Y0099035D01*
G75*
G02*
X0089921Y0099616I0000000J0000581D01*
G01*
X0089921Y0100974D01*
G75*
G02*
X0090502Y0101555I0000581J0000000D01*
G01*
X0091663Y0101555D01*
G75*
G02*
X0092244Y0100974I0000000J-000581D01*
G01*
G37*
G36*
G01*
X0088425Y0100974D02*
X0088425Y0099616D01*
G75*
G02*
X0087844Y0099035I-000581J0000000D01*
G01*
X0086683Y0099035D01*
G75*
G02*
X0086102Y0099616I0000000J0000581D01*
G01*
X0086102Y0100974D01*
G75*
G02*
X0086683Y0101555I0000581J0000000D01*
G01*
X0087844Y0101555D01*
G75*
G02*
X0088425Y0100974I0000000J-000581D01*
G01*
G37*
G36*
G01*
X0087697Y0056865D02*
X0087697Y0058882D01*
G75*
G02*
X0088558Y0059744I0000861J0000000D01*
G01*
X0090280Y0059744D01*
G75*
G02*
X0091141Y0058882I0000000J-000861D01*
G01*
X0091141Y0056865D01*
G75*
G02*
X0090280Y0056004I-000861J0000000D01*
G01*
X0088558Y0056004D01*
G75*
G02*
X0087697Y0056865I0000000J0000861D01*
G01*
G37*
G36*
G01*
X0093897Y0056865D02*
X0093897Y0058882D01*
G75*
G02*
X0094759Y0059744I0000861J0000000D01*
G01*
X0096481Y0059744D01*
G75*
G02*
X0097342Y0058882I0000000J-000861D01*
G01*
X0097342Y0056865D01*
G75*
G02*
X0096481Y0056004I-000861J0000000D01*
G01*
X0094759Y0056004D01*
G75*
G02*
X0093897Y0056865I0000000J0000861D01*
G01*
G37*
G36*
G01*
X0086294Y0124704D02*
X0088312Y0124704D01*
G75*
G02*
X0089173Y0123843I0000000J-000861D01*
G01*
X0089173Y0122121D01*
G75*
G02*
X0088312Y0121259I-000861J0000000D01*
G01*
X0086294Y0121259D01*
G75*
G02*
X0085433Y0122121I0000000J0000861D01*
G01*
X0085433Y0123843D01*
G75*
G02*
X0086294Y0124704I0000861J0000000D01*
G01*
G37*
G36*
G01*
X0086294Y0118504D02*
X0088312Y0118504D01*
G75*
G02*
X0089173Y0117642I0000000J-000861D01*
G01*
X0089173Y0115920D01*
G75*
G02*
X0088312Y0115059I-000861J0000000D01*
G01*
X0086294Y0115059D01*
G75*
G02*
X0085433Y0115920I0000000J0000861D01*
G01*
X0085433Y0117642D01*
G75*
G02*
X0086294Y0118504I0000861J0000000D01*
G01*
G37*
G36*
G01*
X0090472Y0129025D02*
X0090472Y0127667D01*
G75*
G02*
X0089891Y0127086I-000581J0000000D01*
G01*
X0088730Y0127086D01*
G75*
G02*
X0088149Y0127667I0000000J0000581D01*
G01*
X0088149Y0129025D01*
G75*
G02*
X0088730Y0129606I0000581J0000000D01*
G01*
X0089891Y0129606D01*
G75*
G02*
X0090472Y0129025I0000000J-000581D01*
G01*
G37*
G36*
G01*
X0086653Y0129025D02*
X0086653Y0127667D01*
G75*
G02*
X0086072Y0127086I-000581J0000000D01*
G01*
X0084911Y0127086D01*
G75*
G02*
X0084330Y0127667I0000000J0000581D01*
G01*
X0084330Y0129025D01*
G75*
G02*
X0084911Y0129606I0000581J0000000D01*
G01*
X0086072Y0129606D01*
G75*
G02*
X0086653Y0129025I0000000J-000581D01*
G01*
G37*
G36*
G01*
X0103149Y0094586D02*
X0102165Y0094586D01*
G75*
G02*
X0101673Y0095078I0000000J0000492D01*
G01*
X0101673Y0100000D01*
G75*
G02*
X0102165Y0100492I0000492J0000000D01*
G01*
X0103149Y0100492D01*
G75*
G02*
X0103641Y0100000I0000000J-000492D01*
G01*
X0103641Y0095078D01*
G75*
G02*
X0103149Y0094586I-000492J0000000D01*
G01*
G37*
G36*
G01*
X0106299Y0094586D02*
X0105315Y0094586D01*
G75*
G02*
X0104822Y0095078I0000000J0000492D01*
G01*
X0104822Y0100000D01*
G75*
G02*
X0105315Y0100492I0000492J0000000D01*
G01*
X0106299Y0100492D01*
G75*
G02*
X0106791Y0100000I0000000J-000492D01*
G01*
X0106791Y0095078D01*
G75*
G02*
X0106299Y0094586I-000492J0000000D01*
G01*
G37*
G36*
G01*
X0109448Y0094586D02*
X0108464Y0094586D01*
G75*
G02*
X0107972Y0095078I0000000J0000492D01*
G01*
X0107972Y0100000D01*
G75*
G02*
X0108464Y0100492I0000492J0000000D01*
G01*
X0109448Y0100492D01*
G75*
G02*
X0109941Y0100000I0000000J-000492D01*
G01*
X0109941Y0095078D01*
G75*
G02*
X0109448Y0094586I-000492J0000000D01*
G01*
G37*
G36*
G01*
X0112598Y0094586D02*
X0111614Y0094586D01*
G75*
G02*
X0111122Y0095078I0000000J0000492D01*
G01*
X0111122Y0100000D01*
G75*
G02*
X0111614Y0100492I0000492J0000000D01*
G01*
X0112598Y0100492D01*
G75*
G02*
X0113090Y0100000I0000000J-000492D01*
G01*
X0113090Y0095078D01*
G75*
G02*
X0112598Y0094586I-000492J0000000D01*
G01*
G37*
G36*
G01*
X0115748Y0094586D02*
X0114763Y0094586D01*
G75*
G02*
X0114271Y0095078I0000000J0000492D01*
G01*
X0114271Y0100000D01*
G75*
G02*
X0114763Y0100492I0000492J0000000D01*
G01*
X0115748Y0100492D01*
G75*
G02*
X0116240Y0100000I0000000J-000492D01*
G01*
X0116240Y0095078D01*
G75*
G02*
X0115748Y0094586I-000492J0000000D01*
G01*
G37*
G36*
G01*
X0118897Y0094586D02*
X0117913Y0094586D01*
G75*
G02*
X0117421Y0095078I0000000J0000492D01*
G01*
X0117421Y0100000D01*
G75*
G02*
X0117913Y0100492I0000492J0000000D01*
G01*
X0118897Y0100492D01*
G75*
G02*
X0119389Y0100000I0000000J-000492D01*
G01*
X0119389Y0095078D01*
G75*
G02*
X0118897Y0094586I-000492J0000000D01*
G01*
G37*
G36*
G01*
X0122047Y0094586D02*
X0121063Y0094586D01*
G75*
G02*
X0120571Y0095078I0000000J0000492D01*
G01*
X0120571Y0100000D01*
G75*
G02*
X0121063Y0100492I0000492J0000000D01*
G01*
X0122047Y0100492D01*
G75*
G02*
X0122539Y0100000I0000000J-000492D01*
G01*
X0122539Y0095078D01*
G75*
G02*
X0122047Y0094586I-000492J0000000D01*
G01*
G37*
G36*
G01*
X0125197Y0094586D02*
X0124212Y0094586D01*
G75*
G02*
X0123720Y0095078I0000000J0000492D01*
G01*
X0123720Y0100000D01*
G75*
G02*
X0124212Y0100492I0000492J0000000D01*
G01*
X0125197Y0100492D01*
G75*
G02*
X0125689Y0100000I0000000J-000492D01*
G01*
X0125689Y0095078D01*
G75*
G02*
X0125197Y0094586I-000492J0000000D01*
G01*
G37*
G36*
G01*
X0132578Y0101968D02*
X0127657Y0101968D01*
G75*
G02*
X0127165Y0102460I0000000J0000492D01*
G01*
X0127165Y0103444D01*
G75*
G02*
X0127657Y0103937I0000492J0000000D01*
G01*
X0132578Y0103937D01*
G75*
G02*
X0133071Y0103444I0000000J-000492D01*
G01*
X0133071Y0102460D01*
G75*
G02*
X0132578Y0101968I-000492J0000000D01*
G01*
G37*
G36*
G01*
X0132578Y0105118D02*
X0127657Y0105118D01*
G75*
G02*
X0127165Y0105610I0000000J0000492D01*
G01*
X0127165Y0106594D01*
G75*
G02*
X0127657Y0107086I0000492J0000000D01*
G01*
X0132578Y0107086D01*
G75*
G02*
X0133071Y0106594I0000000J-000492D01*
G01*
X0133071Y0105610D01*
G75*
G02*
X0132578Y0105118I-000492J0000000D01*
G01*
G37*
G36*
G01*
X0132578Y0108267D02*
X0127657Y0108267D01*
G75*
G02*
X0127165Y0108759I0000000J0000492D01*
G01*
X0127165Y0109744D01*
G75*
G02*
X0127657Y0110236I0000492J0000000D01*
G01*
X0132578Y0110236D01*
G75*
G02*
X0133071Y0109744I0000000J-000492D01*
G01*
X0133071Y0108759D01*
G75*
G02*
X0132578Y0108267I-000492J0000000D01*
G01*
G37*
G36*
G01*
X0132578Y0111417D02*
X0127657Y0111417D01*
G75*
G02*
X0127165Y0111909I0000000J0000492D01*
G01*
X0127165Y0112893D01*
G75*
G02*
X0127657Y0113385I0000492J0000000D01*
G01*
X0132578Y0113385D01*
G75*
G02*
X0133071Y0112893I0000000J-000492D01*
G01*
X0133071Y0111909D01*
G75*
G02*
X0132578Y0111417I-000492J0000000D01*
G01*
G37*
G36*
G01*
X0132578Y0114567D02*
X0127657Y0114567D01*
G75*
G02*
X0127165Y0115059I0000000J0000492D01*
G01*
X0127165Y0116043D01*
G75*
G02*
X0127657Y0116535I0000492J0000000D01*
G01*
X0132578Y0116535D01*
G75*
G02*
X0133071Y0116043I0000000J-000492D01*
G01*
X0133071Y0115059D01*
G75*
G02*
X0132578Y0114567I-000492J0000000D01*
G01*
G37*
G36*
G01*
X0132578Y0117716D02*
X0127657Y0117716D01*
G75*
G02*
X0127165Y0118208I0000000J0000492D01*
G01*
X0127165Y0119192D01*
G75*
G02*
X0127657Y0119685I0000492J0000000D01*
G01*
X0132578Y0119685D01*
G75*
G02*
X0133071Y0119192I0000000J-000492D01*
G01*
X0133071Y0118208D01*
G75*
G02*
X0132578Y0117716I-000492J0000000D01*
G01*
G37*
G36*
G01*
X0132578Y0120866D02*
X0127657Y0120866D01*
G75*
G02*
X0127165Y0121358I0000000J0000492D01*
G01*
X0127165Y0122342D01*
G75*
G02*
X0127657Y0122834I0000492J0000000D01*
G01*
X0132578Y0122834D01*
G75*
G02*
X0133071Y0122342I0000000J-000492D01*
G01*
X0133071Y0121358D01*
G75*
G02*
X0132578Y0120866I-000492J0000000D01*
G01*
G37*
G36*
G01*
X0132578Y0124015D02*
X0127657Y0124015D01*
G75*
G02*
X0127165Y0124507I0000000J0000492D01*
G01*
X0127165Y0125492D01*
G75*
G02*
X0127657Y0125984I0000492J0000000D01*
G01*
X0132578Y0125984D01*
G75*
G02*
X0133071Y0125492I0000000J-000492D01*
G01*
X0133071Y0124507D01*
G75*
G02*
X0132578Y0124015I-000492J0000000D01*
G01*
G37*
G36*
G01*
X0125197Y0127460D02*
X0124212Y0127460D01*
G75*
G02*
X0123720Y0127952I0000000J0000492D01*
G01*
X0123720Y0132874D01*
G75*
G02*
X0124212Y0133366I0000492J0000000D01*
G01*
X0125197Y0133366D01*
G75*
G02*
X0125689Y0132874I0000000J-000492D01*
G01*
X0125689Y0127952D01*
G75*
G02*
X0125197Y0127460I-000492J0000000D01*
G01*
G37*
G36*
G01*
X0122047Y0127460D02*
X0121063Y0127460D01*
G75*
G02*
X0120571Y0127952I0000000J0000492D01*
G01*
X0120571Y0132874D01*
G75*
G02*
X0121063Y0133366I0000492J0000000D01*
G01*
X0122047Y0133366D01*
G75*
G02*
X0122539Y0132874I0000000J-000492D01*
G01*
X0122539Y0127952D01*
G75*
G02*
X0122047Y0127460I-000492J0000000D01*
G01*
G37*
G36*
G01*
X0118897Y0127460D02*
X0117913Y0127460D01*
G75*
G02*
X0117421Y0127952I0000000J0000492D01*
G01*
X0117421Y0132874D01*
G75*
G02*
X0117913Y0133366I0000492J0000000D01*
G01*
X0118897Y0133366D01*
G75*
G02*
X0119389Y0132874I0000000J-000492D01*
G01*
X0119389Y0127952D01*
G75*
G02*
X0118897Y0127460I-000492J0000000D01*
G01*
G37*
G36*
G01*
X0115748Y0127460D02*
X0114763Y0127460D01*
G75*
G02*
X0114271Y0127952I0000000J0000492D01*
G01*
X0114271Y0132874D01*
G75*
G02*
X0114763Y0133366I0000492J0000000D01*
G01*
X0115748Y0133366D01*
G75*
G02*
X0116240Y0132874I0000000J-000492D01*
G01*
X0116240Y0127952D01*
G75*
G02*
X0115748Y0127460I-000492J0000000D01*
G01*
G37*
G36*
G01*
X0112598Y0127460D02*
X0111614Y0127460D01*
G75*
G02*
X0111122Y0127952I0000000J0000492D01*
G01*
X0111122Y0132874D01*
G75*
G02*
X0111614Y0133366I0000492J0000000D01*
G01*
X0112598Y0133366D01*
G75*
G02*
X0113090Y0132874I0000000J-000492D01*
G01*
X0113090Y0127952D01*
G75*
G02*
X0112598Y0127460I-000492J0000000D01*
G01*
G37*
G36*
G01*
X0109448Y0127460D02*
X0108464Y0127460D01*
G75*
G02*
X0107972Y0127952I0000000J0000492D01*
G01*
X0107972Y0132874D01*
G75*
G02*
X0108464Y0133366I0000492J0000000D01*
G01*
X0109448Y0133366D01*
G75*
G02*
X0109941Y0132874I0000000J-000492D01*
G01*
X0109941Y0127952D01*
G75*
G02*
X0109448Y0127460I-000492J0000000D01*
G01*
G37*
G36*
G01*
X0106299Y0127460D02*
X0105315Y0127460D01*
G75*
G02*
X0104822Y0127952I0000000J0000492D01*
G01*
X0104822Y0132874D01*
G75*
G02*
X0105315Y0133366I0000492J0000000D01*
G01*
X0106299Y0133366D01*
G75*
G02*
X0106791Y0132874I0000000J-000492D01*
G01*
X0106791Y0127952D01*
G75*
G02*
X0106299Y0127460I-000492J0000000D01*
G01*
G37*
G36*
G01*
X0103149Y0127460D02*
X0102165Y0127460D01*
G75*
G02*
X0101673Y0127952I0000000J0000492D01*
G01*
X0101673Y0132874D01*
G75*
G02*
X0102165Y0133366I0000492J0000000D01*
G01*
X0103149Y0133366D01*
G75*
G02*
X0103641Y0132874I0000000J-000492D01*
G01*
X0103641Y0127952D01*
G75*
G02*
X0103149Y0127460I-000492J0000000D01*
G01*
G37*
G36*
G01*
X0099704Y0124015D02*
X0094783Y0124015D01*
G75*
G02*
X0094291Y0124507I0000000J0000492D01*
G01*
X0094291Y0125492D01*
G75*
G02*
X0094783Y0125984I0000492J0000000D01*
G01*
X0099704Y0125984D01*
G75*
G02*
X0100197Y0125492I0000000J-000492D01*
G01*
X0100197Y0124507D01*
G75*
G02*
X0099704Y0124015I-000492J0000000D01*
G01*
G37*
G36*
G01*
X0099704Y0120866D02*
X0094783Y0120866D01*
G75*
G02*
X0094291Y0121358I0000000J0000492D01*
G01*
X0094291Y0122342D01*
G75*
G02*
X0094783Y0122834I0000492J0000000D01*
G01*
X0099704Y0122834D01*
G75*
G02*
X0100197Y0122342I0000000J-000492D01*
G01*
X0100197Y0121358D01*
G75*
G02*
X0099704Y0120866I-000492J0000000D01*
G01*
G37*
G36*
G01*
X0099704Y0117716D02*
X0094783Y0117716D01*
G75*
G02*
X0094291Y0118208I0000000J0000492D01*
G01*
X0094291Y0119192D01*
G75*
G02*
X0094783Y0119685I0000492J0000000D01*
G01*
X0099704Y0119685D01*
G75*
G02*
X0100197Y0119192I0000000J-000492D01*
G01*
X0100197Y0118208D01*
G75*
G02*
X0099704Y0117716I-000492J0000000D01*
G01*
G37*
G36*
G01*
X0099704Y0114567D02*
X0094783Y0114567D01*
G75*
G02*
X0094291Y0115059I0000000J0000492D01*
G01*
X0094291Y0116043D01*
G75*
G02*
X0094783Y0116535I0000492J0000000D01*
G01*
X0099704Y0116535D01*
G75*
G02*
X0100197Y0116043I0000000J-000492D01*
G01*
X0100197Y0115059D01*
G75*
G02*
X0099704Y0114567I-000492J0000000D01*
G01*
G37*
G36*
G01*
X0099704Y0111417D02*
X0094783Y0111417D01*
G75*
G02*
X0094291Y0111909I0000000J0000492D01*
G01*
X0094291Y0112893D01*
G75*
G02*
X0094783Y0113385I0000492J0000000D01*
G01*
X0099704Y0113385D01*
G75*
G02*
X0100197Y0112893I0000000J-000492D01*
G01*
X0100197Y0111909D01*
G75*
G02*
X0099704Y0111417I-000492J0000000D01*
G01*
G37*
G36*
G01*
X0099704Y0108267D02*
X0094783Y0108267D01*
G75*
G02*
X0094291Y0108759I0000000J0000492D01*
G01*
X0094291Y0109744D01*
G75*
G02*
X0094783Y0110236I0000492J0000000D01*
G01*
X0099704Y0110236D01*
G75*
G02*
X0100197Y0109744I0000000J-000492D01*
G01*
X0100197Y0108759D01*
G75*
G02*
X0099704Y0108267I-000492J0000000D01*
G01*
G37*
G36*
G01*
X0099704Y0105118D02*
X0094783Y0105118D01*
G75*
G02*
X0094291Y0105610I0000000J0000492D01*
G01*
X0094291Y0106594D01*
G75*
G02*
X0094783Y0107086I0000492J0000000D01*
G01*
X0099704Y0107086D01*
G75*
G02*
X0100197Y0106594I0000000J-000492D01*
G01*
X0100197Y0105610D01*
G75*
G02*
X0099704Y0105118I-000492J0000000D01*
G01*
G37*
G36*
G01*
X0099704Y0101968D02*
X0094783Y0101968D01*
G75*
G02*
X0094291Y0102460I0000000J0000492D01*
G01*
X0094291Y0103444D01*
G75*
G02*
X0094783Y0103937I0000492J0000000D01*
G01*
X0099704Y0103937D01*
G75*
G02*
X0100197Y0103444I0000000J-000492D01*
G01*
X0100197Y0102460D01*
G75*
G02*
X0099704Y0101968I-000492J0000000D01*
G01*
G37*
G36*
G01*
X0121250Y0136594D02*
X0119891Y0136594D01*
G75*
G02*
X0119311Y0137175I0000000J0000581D01*
G01*
X0119311Y0138336D01*
G75*
G02*
X0119891Y0138917I0000581J0000000D01*
G01*
X0121250Y0138917D01*
G75*
G02*
X0121830Y0138336I0000000J-000581D01*
G01*
X0121830Y0137175D01*
G75*
G02*
X0121250Y0136594I-000581J0000000D01*
G01*
G37*
G36*
G01*
X0121250Y0140413D02*
X0119891Y0140413D01*
G75*
G02*
X0119311Y0140994I0000000J0000581D01*
G01*
X0119311Y0142155D01*
G75*
G02*
X0119891Y0142736I0000581J0000000D01*
G01*
X0121250Y0142736D01*
G75*
G02*
X0121830Y0142155I0000000J-000581D01*
G01*
X0121830Y0140994D01*
G75*
G02*
X0121250Y0140413I-000581J0000000D01*
G01*
G37*
G36*
G01*
X0097854Y0129517D02*
X0097854Y0128159D01*
G75*
G02*
X0097273Y0127578I-000581J0000000D01*
G01*
X0096112Y0127578D01*
G75*
G02*
X0095531Y0128159I0000000J0000581D01*
G01*
X0095531Y0129517D01*
G75*
G02*
X0096112Y0130098I0000581J0000000D01*
G01*
X0097273Y0130098D01*
G75*
G02*
X0097854Y0129517I0000000J-000581D01*
G01*
G37*
G36*
G01*
X0094035Y0129517D02*
X0094035Y0128159D01*
G75*
G02*
X0093454Y0127578I-000581J0000000D01*
G01*
X0092293Y0127578D01*
G75*
G02*
X0091712Y0128159I0000000J0000581D01*
G01*
X0091712Y0129517D01*
G75*
G02*
X0092293Y0130098I0000581J0000000D01*
G01*
X0093454Y0130098D01*
G75*
G02*
X0094035Y0129517I0000000J-000581D01*
G01*
G37*
G36*
G01*
X0119891Y0153161D02*
X0121250Y0153161D01*
G75*
G02*
X0121830Y0152580I0000000J-000581D01*
G01*
X0121830Y0151419D01*
G75*
G02*
X0121250Y0150838I-000581J0000000D01*
G01*
X0119891Y0150838D01*
G75*
G02*
X0119311Y0151419I0000000J0000581D01*
G01*
X0119311Y0152580D01*
G75*
G02*
X0119891Y0153161I0000581J0000000D01*
G01*
G37*
G36*
G01*
X0119891Y0149342D02*
X0121250Y0149342D01*
G75*
G02*
X0121830Y0148761I0000000J-000581D01*
G01*
X0121830Y0147600D01*
G75*
G02*
X0121250Y0147019I-000581J0000000D01*
G01*
X0119891Y0147019D01*
G75*
G02*
X0119311Y0147600I0000000J0000581D01*
G01*
X0119311Y0148761D01*
G75*
G02*
X0119891Y0149342I0000581J0000000D01*
G01*
G37*
D152*
X0125492Y0151673D03*
X0125492Y0144192D03*
X0133366Y0147933D03*
G36*
G01*
X0099724Y0092608D02*
X0099724Y0091250D01*
G75*
G02*
X0099143Y0090669I-000581J0000000D01*
G01*
X0097982Y0090669D01*
G75*
G02*
X0097401Y0091250I0000000J0000581D01*
G01*
X0097401Y0092608D01*
G75*
G02*
X0097982Y0093189I0000581J0000000D01*
G01*
X0099143Y0093189D01*
G75*
G02*
X0099724Y0092608I0000000J-000581D01*
G01*
G37*
G36*
G01*
X0095905Y0092608D02*
X0095905Y0091250D01*
G75*
G02*
X0095324Y0090669I-000581J0000000D01*
G01*
X0094163Y0090669D01*
G75*
G02*
X0093582Y0091250I0000000J0000581D01*
G01*
X0093582Y0092608D01*
G75*
G02*
X0094163Y0093189I0000581J0000000D01*
G01*
X0095324Y0093189D01*
G75*
G02*
X0095905Y0092608I0000000J-000581D01*
G01*
G37*
G36*
G01*
X0134763Y0138735D02*
X0134763Y0136717D01*
G75*
G02*
X0133902Y0135856I-000861J0000000D01*
G01*
X0132180Y0135856D01*
G75*
G02*
X0131319Y0136717I0000000J0000861D01*
G01*
X0131319Y0138735D01*
G75*
G02*
X0132180Y0139596I0000861J0000000D01*
G01*
X0133902Y0139596D01*
G75*
G02*
X0134763Y0138735I0000000J-000861D01*
G01*
G37*
G36*
G01*
X0128563Y0138735D02*
X0128563Y0136717D01*
G75*
G02*
X0127701Y0135856I-000861J0000000D01*
G01*
X0125979Y0135856D01*
G75*
G02*
X0125118Y0136717I0000000J0000861D01*
G01*
X0125118Y0138735D01*
G75*
G02*
X0125979Y0139596I0000861J0000000D01*
G01*
X0127701Y0139596D01*
G75*
G02*
X0128563Y0138735I0000000J-000861D01*
G01*
G37*
D167*
X0092618Y0154488D03*
X0088618Y0134488D03*
X0096618Y0134488D03*
D164*
X0090118Y0149488D03*
X0095118Y0149488D03*
X0090118Y0144488D03*
X0095118Y0144488D03*
X0090118Y0139488D03*
X0095118Y0139488D03*
D391*
X0131496Y0065000D03*
D392*
X0131496Y0075000D03*
X0131496Y0085000D03*
X0425295Y0232382D02*
G01*
G75*
D487*
X0301673Y0214292D02*
D03*
X0294586Y0214292D02*
D03*
X0294586Y0224331D02*
D03*
X0301673Y0224331D02*
D03*
X0413484Y0165551D02*
D03*
X0420571Y0165551D02*
D03*
X0420571Y0175591D02*
D03*
X0413484Y0175591D02*
D03*
X0413484Y0159449D02*
D03*
X0420571Y0159449D02*
D03*
X0420571Y0149409D02*
D03*
X0413484Y0149409D02*
D03*
D488*
X0301673Y0217736D02*
D03*
X0301673Y0220886D02*
D03*
X0294586Y0220886D02*
D03*
X0294586Y0217736D02*
D03*
X0420571Y0172146D02*
D03*
X0420571Y0168996D02*
D03*
X0413484Y0168996D02*
D03*
X0413484Y0172146D02*
D03*
X0413484Y0156004D02*
D03*
X0413484Y0152854D02*
D03*
X0420571Y0152854D02*
D03*
X0420571Y0156004D02*
D03*
D489*
X0305885Y0217288D02*
D03*
X0305885Y0214729D02*
D03*
X0305885Y0212169D02*
D03*
X0313365Y0217288D02*
D03*
X0313365Y0212169D02*
D03*
X0313365Y0214729D02*
D03*
X0313365Y0221913D02*
D03*
X0313365Y0227032D02*
D03*
X0305885Y0221913D02*
D03*
X0305885Y0224473D02*
D03*
X0305885Y0227032D02*
D03*
X0313365Y0224473D02*
D03*
D202*
X0373093Y0118012D02*
D03*
X0373093Y0119980D02*
D03*
X0373093Y0121949D02*
D03*
X0373093Y0123917D02*
D03*
X0373093Y0125886D02*
D03*
X0373093Y0127854D02*
D03*
X0373093Y0129823D02*
D03*
X0373093Y0131791D02*
D03*
X0373093Y0133760D02*
D03*
X0373093Y0137697D02*
D03*
X0373093Y0139666D02*
D03*
X0373093Y0141634D02*
D03*
X0373093Y0143603D02*
D03*
X0373093Y0145571D02*
D03*
X0373093Y0147540D02*
D03*
X0373093Y0149508D02*
D03*
X0373093Y0151477D02*
D03*
X0373093Y0153445D02*
D03*
X0373093Y0155414D02*
D03*
X0373093Y0157382D02*
D03*
X0373093Y0159350D02*
D03*
X0373093Y0161319D02*
D03*
X0373093Y0163287D02*
D03*
X0373093Y0165256D02*
D03*
X0312069Y0165256D02*
D03*
X0312069Y0163287D02*
D03*
X0312069Y0161319D02*
D03*
X0312069Y0159350D02*
D03*
X0312069Y0157382D02*
D03*
X0312069Y0155414D02*
D03*
X0312069Y0153445D02*
D03*
X0312069Y0151477D02*
D03*
X0312069Y0149508D02*
D03*
X0312069Y0147540D02*
D03*
X0312069Y0145571D02*
D03*
X0312069Y0143603D02*
D03*
X0312069Y0141634D02*
D03*
X0312069Y0139666D02*
D03*
X0312069Y0137697D02*
D03*
X0312069Y0135729D02*
D03*
X0312069Y0133760D02*
D03*
X0312069Y0131791D02*
D03*
X0312069Y0129823D02*
D03*
X0312069Y0127854D02*
D03*
X0312069Y0125886D02*
D03*
X0312069Y0123917D02*
D03*
X0312069Y0121949D02*
D03*
X0312069Y0118012D02*
D03*
X0373093Y0135729D02*
D03*
X0312069Y0119980D02*
D03*
D203*
X0366203Y0172146D02*
D03*
X0362266Y0172146D02*
D03*
X0360297Y0172146D02*
D03*
X0358329Y0172146D02*
D03*
X0356360Y0172146D02*
D03*
X0354392Y0172146D02*
D03*
X0352423Y0172146D02*
D03*
X0350455Y0172146D02*
D03*
X0348486Y0172146D02*
D03*
X0346518Y0172146D02*
D03*
X0344549Y0172146D02*
D03*
X0342581Y0172146D02*
D03*
X0340612Y0172146D02*
D03*
X0338644Y0172146D02*
D03*
X0336675Y0172146D02*
D03*
X0334707Y0172146D02*
D03*
X0332738Y0172146D02*
D03*
X0330770Y0172146D02*
D03*
X0328801Y0172146D02*
D03*
X0326833Y0172146D02*
D03*
X0324864Y0172146D02*
D03*
X0322896Y0172146D02*
D03*
X0320927Y0172146D02*
D03*
X0318959Y0172146D02*
D03*
X0318959Y0111122D02*
D03*
X0320927Y0111122D02*
D03*
X0322896Y0111122D02*
D03*
X0324864Y0111122D02*
D03*
X0326833Y0111122D02*
D03*
X0328801Y0111122D02*
D03*
X0330770Y0111122D02*
D03*
X0332738Y0111122D02*
D03*
X0334707Y0111122D02*
D03*
X0336675Y0111122D02*
D03*
X0338644Y0111122D02*
D03*
X0340612Y0111122D02*
D03*
X0342581Y0111122D02*
D03*
X0344549Y0111122D02*
D03*
X0346518Y0111122D02*
D03*
X0348486Y0111122D02*
D03*
X0350455Y0111122D02*
D03*
X0352423Y0111122D02*
D03*
X0354392Y0111122D02*
D03*
X0356360Y0111122D02*
D03*
X0358329Y0111122D02*
D03*
X0360297Y0111122D02*
D03*
X0362266Y0111122D02*
D03*
X0364234Y0111122D02*
D03*
X0366203Y0111122D02*
D03*
X0364234Y0172146D02*
D03*
D204*
X0369586Y0189075D02*
D03*
X0341634Y0189075D02*
D03*
X0397539Y0189075D02*
D03*
X0392027Y0194193D02*
D03*
X0364074Y0183957D02*
D03*
X0364074Y0186516D02*
D03*
X0364074Y0189075D02*
D03*
X0364074Y0191634D02*
D03*
X0364074Y0194193D02*
D03*
X0364074Y0196752D02*
D03*
X0364074Y0199311D02*
D03*
X0341634Y0183957D02*
D03*
X0341634Y0186516D02*
D03*
X0341634Y0191634D02*
D03*
X0341634Y0194193D02*
D03*
X0341634Y0196752D02*
D03*
X0341634Y0199311D02*
D03*
X0419980Y0183957D02*
D03*
X0419980Y0186516D02*
D03*
X0419980Y0189075D02*
D03*
X0419980Y0191634D02*
D03*
X0419980Y0194193D02*
D03*
X0419980Y0196752D02*
D03*
X0419980Y0199311D02*
D03*
X0397539Y0183957D02*
D03*
X0397539Y0186516D02*
D03*
X0397539Y0191634D02*
D03*
X0397539Y0194193D02*
D03*
X0397539Y0196752D02*
D03*
X0397539Y0199311D02*
D03*
X0392027Y0183957D02*
D03*
X0392027Y0186516D02*
D03*
X0392027Y0189075D02*
D03*
X0392027Y0191634D02*
D03*
X0392027Y0196752D02*
D03*
X0392027Y0199311D02*
D03*
X0369586Y0183957D02*
D03*
X0369586Y0186516D02*
D03*
X0369586Y0191634D02*
D03*
X0369586Y0194193D02*
D03*
X0369586Y0196752D02*
D03*
X0369586Y0199311D02*
D03*
X0313681Y0199311D02*
D03*
X0313681Y0196752D02*
D03*
X0313681Y0194193D02*
D03*
X0313681Y0191634D02*
D03*
X0313681Y0189075D02*
D03*
X0313681Y0186516D02*
D03*
X0313681Y0183957D02*
D03*
X0336122Y0199311D02*
D03*
X0336122Y0196752D02*
D03*
X0336122Y0194193D02*
D03*
X0336122Y0191634D02*
D03*
X0336122Y0189075D02*
D03*
X0336122Y0186516D02*
D03*
X0336122Y0183957D02*
D03*
D205*
X0315177Y0098189D02*
D03*
X0315177Y0103189D02*
D03*
X0320177Y0098189D02*
D03*
X0320177Y0103189D02*
D03*
X0325177Y0098189D02*
D03*
X0325177Y0103189D02*
D03*
D490*
X0300886Y0096949D02*
D03*
X0297145Y0096949D02*
D03*
X0304626Y0096949D02*
D03*
X0304626Y0106398D02*
D03*
X0300886Y0106398D02*
D03*
X0297145Y0106398D02*
D03*
D491*
X0299436Y0118209D02*
D03*
X0299436Y0113484D02*
D03*
X0300905Y0127756D02*
D03*
X0387445Y0100971D02*
D03*
X0374133Y0176837D02*
D03*
X0303372Y0118209D02*
D03*
X0296967Y0127756D02*
D03*
X0302267Y0164740D02*
D03*
X0298330Y0164740D02*
D03*
X0302267Y0173795D02*
D03*
X0298330Y0173795D02*
D03*
X0303372Y0113484D02*
D03*
X0383508Y0100971D02*
D03*
X0390585Y0117686D02*
D03*
X0386648Y0117686D02*
D03*
X0370196Y0176837D02*
D03*
X0370177Y0172541D02*
D03*
X0374114Y0172541D02*
D03*
D208*
X0296979Y0136391D02*
D03*
X0296979Y0138359D02*
D03*
X0303278Y0134422D02*
D03*
X0303278Y0136391D02*
D03*
X0303278Y0132454D02*
D03*
X0303278Y0138359D02*
D03*
X0296979Y0132454D02*
D03*
X0296979Y0134422D02*
D03*
D209*
X0299144Y0138556D02*
D03*
X0301113Y0138556D02*
D03*
X0301113Y0132257D02*
D03*
X0299144Y0132257D02*
D03*
D492*
X0301884Y0143406D02*
D03*
X0301884Y0159941D02*
D03*
D493*
X0330413Y0215847D02*
D03*
X0320964Y0215847D02*
D03*
X0325689Y0215847D02*
D03*
X0335137Y0215847D02*
D03*
X0320964Y0227264D02*
D03*
X0330413Y0227264D02*
D03*
X0325689Y0227264D02*
D03*
X0335137Y0227264D02*
D03*
X0341347Y0208867D02*
D03*
X0341347Y0204930D02*
D03*
X0335137Y0223327D02*
D03*
D03*
X0335137Y0219390D02*
D03*
X0330413Y0223327D02*
D03*
X0330413Y0219390D02*
D03*
X0335137Y0211910D02*
D03*
X0325689Y0223327D02*
D03*
X0325689Y0219390D02*
D03*
X0330413Y0211910D02*
D03*
X0325689Y0211910D02*
D03*
X0320964Y0223327D02*
D03*
X0320964Y0219390D02*
D03*
X0320964Y0223327D02*
D03*
X0320964Y0211910D02*
D03*
X0330413Y0223327D02*
D03*
X0325689Y0223327D02*
D03*
X0421161Y0220965D02*
D03*
X0421161Y0224902D02*
D03*
X0396555Y0223327D02*
D03*
X0396555Y0227264D02*
D03*
X0382382Y0223327D02*
D03*
X0382382Y0227264D02*
D03*
X0363484Y0219390D02*
D03*
X0363484Y0223327D02*
D03*
X0363484Y0227264D02*
D03*
X0363484Y0223327D02*
D03*
X0349311Y0219390D02*
D03*
X0349311Y0223327D02*
D03*
X0421161Y0204232D02*
D03*
X0421161Y0208169D02*
D03*
X0415452Y0223327D02*
D03*
X0415452Y0219390D02*
D03*
X0410728Y0223327D02*
D03*
X0410728Y0219390D02*
D03*
X0406004Y0223327D02*
D03*
X0406004Y0219390D02*
D03*
X0401279Y0223327D02*
D03*
X0401279Y0219390D02*
D03*
X0415452Y0223327D02*
D03*
X0415452Y0227264D02*
D03*
X0410728Y0223327D02*
D03*
X0410728Y0227264D02*
D03*
X0406004Y0223327D02*
D03*
X0406004Y0227264D02*
D03*
X0401279Y0223327D02*
D03*
X0401279Y0227264D02*
D03*
X0396555Y0223327D02*
D03*
X0396555Y0219390D02*
D03*
X0391830Y0223327D02*
D03*
X0391830Y0219390D02*
D03*
X0387106Y0223327D02*
D03*
X0387106Y0219390D02*
D03*
X0382382Y0223327D02*
D03*
X0382382Y0219390D02*
D03*
X0391830Y0223327D02*
D03*
X0391830Y0227264D02*
D03*
X0387106Y0223327D02*
D03*
X0387106Y0227264D02*
D03*
X0377657Y0219390D02*
D03*
X0377657Y0223327D02*
D03*
X0372933Y0219390D02*
D03*
X0372933Y0223327D02*
D03*
X0368208Y0219390D02*
D03*
X0368208Y0223327D02*
D03*
X0377657Y0227264D02*
D03*
X0377657Y0223327D02*
D03*
X0372933Y0227264D02*
D03*
X0372933Y0223327D02*
D03*
X0368208Y0227264D02*
D03*
X0368208Y0223327D02*
D03*
X0358759Y0219390D02*
D03*
X0358759Y0223327D02*
D03*
X0354035Y0219390D02*
D03*
X0354035Y0223327D02*
D03*
X0344586Y0219390D02*
D03*
X0344586Y0223327D02*
D03*
X0358759Y0227264D02*
D03*
X0358759Y0223327D02*
D03*
X0354035Y0227264D02*
D03*
X0354035Y0223327D02*
D03*
X0349311Y0227264D02*
D03*
X0349311Y0223327D02*
D03*
X0344586Y0227264D02*
D03*
X0344586Y0223327D02*
D03*
X0421161Y0213288D02*
D03*
X0421161Y0217225D02*
D03*
D494*
X0356397Y0210335D02*
D03*
X0375295Y0210335D02*
D03*
X0394193Y0210335D02*
D03*
X0413090Y0210335D02*
D03*
X0384744Y0206595D02*
D03*
X0384744Y0210335D02*
D03*
X0384744Y0214075D02*
D03*
X0394193Y0214075D02*
D03*
X0394193Y0206595D02*
D03*
X0403641Y0206595D02*
D03*
X0403641Y0210335D02*
D03*
X0403641Y0214075D02*
D03*
X0413090Y0214075D02*
D03*
X0413090Y0206595D02*
D03*
X0365846Y0206595D02*
D03*
X0365846Y0210335D02*
D03*
X0365846Y0214075D02*
D03*
X0375295Y0214075D02*
D03*
X0375295Y0206595D02*
D03*
X0346948Y0206595D02*
D03*
X0346948Y0210335D02*
D03*
X0346948Y0214075D02*
D03*
X0356397Y0214075D02*
D03*
X0356397Y0206595D02*
D03*
D495*
X0390382Y0113300D02*
D03*
X0372460Y0103051D02*
D03*
D214*
X0399704Y0138423D02*
D03*
X0418602Y0143423D02*
D03*
X0418602Y0128423D02*
D03*
X0418602Y0133423D02*
D03*
X0418602Y0138423D02*
D03*
X0399704Y0128423D02*
D03*
X0399704Y0133423D02*
D03*
X0399704Y0143423D02*
D03*
D496*
X0418012Y0120782D02*
D03*
X0399901Y0120782D02*
D03*
D497*
X0383550Y0152308D02*
D03*
X0399759Y0152856D02*
D03*
X0383073Y0160468D02*
D03*
X0383073Y0168079D02*
D03*
X0399759Y0160468D02*
D03*
X0399759Y0168079D02*
D03*
X0383073Y0175691D02*
D03*
X0399759Y0175691D02*
D03*
X0390243Y0152308D02*
D03*
X0389766Y0160468D02*
D03*
X0389766Y0168079D02*
D03*
X0389766Y0175691D02*
D03*
X0406452Y0160468D02*
D03*
X0406452Y0152856D02*
D03*
X0390243Y0144331D02*
D03*
X0383550Y0144331D02*
D03*
X0383550Y0137244D02*
D03*
X0390243Y0137244D02*
D03*
X0390243Y0130158D02*
D03*
X0383550Y0130158D02*
D03*
X0383550Y0123071D02*
D03*
X0390243Y0123071D02*
D03*
X0406452Y0168079D02*
D03*
X0406452Y0175691D02*
D03*
X0383550Y0095571D02*
D03*
X0390243Y0095571D02*
D03*
D498*
X0296876Y0122984D02*
D03*
X0303176Y0122984D02*
D03*
X0304236Y0169425D02*
D03*
X0297936Y0169425D02*
D03*
D499*
X0337501Y0100042D02*
D03*
X0354036Y0100042D02*
D03*
D495*
X0372460Y0095571D02*
D03*
X0363208Y0099311D02*
D03*
X0390382Y0105820D02*
D03*
X0381130Y0109560D02*
D03*
D500*
X0408956Y0096372D02*
D03*
D501*
X0408956Y0120782D02*
D03*
D221*
X0339665Y0223327D02*
D03*
X0420571Y0229232D02*
D03*
D502*
X0302474Y0205585D02*
D03*
X0302474Y0187869D02*
D03*
D223*
X0347382Y0178248D02*
D03*
X0333169Y0178248D02*
D03*
X0363169Y0178248D02*
D03*
D224*
X0310177Y0100689D02*
D03*
X0330177Y0104689D02*
D03*
X0330177Y0096689D02*
D03*
D37*
X0420964Y0094980D02*
D03*
X0016732Y0139075D02*
%LPD*%
G01*
G36*
G01*
X0052441Y0071467D02*
X0052441Y0072825D01*
G75*
G02*
X0053021Y0073406I0000581J0000000D01*
G01*
X0054183Y0073406D01*
G75*
G02*
X0054763Y0072825I0000000J-000581D01*
G01*
X0054763Y0071467D01*
G75*
G02*
X0054183Y0070886I-000581J0000000D01*
G01*
X0053021Y0070886D01*
G75*
G02*
X0052441Y0071467I0000000J0000581D01*
G01*
G37*
G36*
G01*
X0056260Y0071467D02*
X0056260Y0072825D01*
G75*
G02*
X0056840Y0073406I0000581J0000000D01*
G01*
X0058002Y0073406D01*
G75*
G02*
X0058582Y0072825I0000000J-000581D01*
G01*
X0058582Y0071467D01*
G75*
G02*
X0058002Y0070886I-000581J0000000D01*
G01*
X0056840Y0070886D01*
G75*
G02*
X0056260Y0071467I0000000J0000581D01*
G01*
G37*
G36*
G01*
X0037017Y0130040D02*
X0038376Y0130040D01*
G75*
G02*
X0038956Y0129459I0000000J-000581D01*
G01*
X0038956Y0128297D01*
G75*
G02*
X0038376Y0127717I-000581J0000000D01*
G01*
X0037017Y0127717D01*
G75*
G02*
X0036437Y0128297I0000000J0000581D01*
G01*
X0036437Y0129459D01*
G75*
G02*
X0037017Y0130040I0000581J0000000D01*
G01*
G37*
G36*
G01*
X0037017Y0126221D02*
X0038376Y0126221D01*
G75*
G02*
X0038956Y0125640I0000000J-000581D01*
G01*
X0038956Y0124479D01*
G75*
G02*
X0038376Y0123898I-000581J0000000D01*
G01*
X0037017Y0123898D01*
G75*
G02*
X0036437Y0124479I0000000J0000581D01*
G01*
X0036437Y0125640D01*
G75*
G02*
X0037017Y0126221I0000581J0000000D01*
G01*
G37*
G36*
G01*
X0052214Y0119513D02*
X0052214Y0117495D01*
G75*
G02*
X0051353Y0116634I-000861J0000000D01*
G01*
X0049631Y0116634D01*
G75*
G02*
X0048769Y0117495I0000000J0000861D01*
G01*
X0048769Y0119513D01*
G75*
G02*
X0049631Y0120374I0000861J0000000D01*
G01*
X0051353Y0120374D01*
G75*
G02*
X0052214Y0119513I0000000J-000861D01*
G01*
G37*
G36*
G01*
X0046013Y0119513D02*
X0046013Y0117495D01*
G75*
G02*
X0045152Y0116634I-000861J0000000D01*
G01*
X0043430Y0116634D01*
G75*
G02*
X0042569Y0117495I0000000J0000861D01*
G01*
X0042569Y0119513D01*
G75*
G02*
X0043430Y0120374I0000861J0000000D01*
G01*
X0045152Y0120374D01*
G75*
G02*
X0046013Y0119513I0000000J-000861D01*
G01*
G37*
G36*
G01*
X0027185Y0073022D02*
X0027185Y0071664D01*
G75*
G02*
X0026604Y0071083I-000581J0000000D01*
G01*
X0025443Y0071083D01*
G75*
G02*
X0024862Y0071664I0000000J0000581D01*
G01*
X0024862Y0073022D01*
G75*
G02*
X0025443Y0073603I0000581J0000000D01*
G01*
X0026604Y0073603D01*
G75*
G02*
X0027185Y0073022I0000000J-000581D01*
G01*
G37*
G36*
G01*
X0023366Y0073022D02*
X0023366Y0071664D01*
G75*
G02*
X0022785Y0071083I-000581J0000000D01*
G01*
X0021624Y0071083D01*
G75*
G02*
X0021043Y0071664I0000000J0000581D01*
G01*
X0021043Y0073022D01*
G75*
G02*
X0021624Y0073603I0000581J0000000D01*
G01*
X0022785Y0073603D01*
G75*
G02*
X0023366Y0073022I0000000J-000581D01*
G01*
G37*
D156*
X0043012Y0124213D03*
X0050492Y0124213D03*
X0046752Y0132087D03*
G36*
G01*
X0027185Y0077205D02*
X0027185Y0075847D01*
G75*
G02*
X0026604Y0075266I-000581J0000000D01*
G01*
X0025443Y0075266D01*
G75*
G02*
X0024862Y0075847I0000000J0000581D01*
G01*
X0024862Y0077205D01*
G75*
G02*
X0025443Y0077786I0000581J0000000D01*
G01*
X0026604Y0077786D01*
G75*
G02*
X0027185Y0077205I0000000J-000581D01*
G01*
G37*
G36*
G01*
X0023366Y0077205D02*
X0023366Y0075847D01*
G75*
G02*
X0022785Y0075266I-000581J0000000D01*
G01*
X0021624Y0075266D01*
G75*
G02*
X0021043Y0075847I0000000J0000581D01*
G01*
X0021043Y0077205D01*
G75*
G02*
X0021624Y0077786I0000581J0000000D01*
G01*
X0022785Y0077786D01*
G75*
G02*
X0023366Y0077205I0000000J-000581D01*
G01*
G37*
G36*
G01*
X0051102Y0072825D02*
X0051102Y0071467D01*
G75*
G02*
X0050521Y0070886I-000581J0000000D01*
G01*
X0049360Y0070886D01*
G75*
G02*
X0048779Y0071467I0000000J0000581D01*
G01*
X0048779Y0072825D01*
G75*
G02*
X0049360Y0073406I0000581J0000000D01*
G01*
X0050521Y0073406D01*
G75*
G02*
X0051102Y0072825I0000000J-000581D01*
G01*
G37*
G36*
G01*
X0047283Y0072825D02*
X0047283Y0071467D01*
G75*
G02*
X0046702Y0070886I-000581J0000000D01*
G01*
X0045541Y0070886D01*
G75*
G02*
X0044960Y0071467I0000000J0000581D01*
G01*
X0044960Y0072825D01*
G75*
G02*
X0045541Y0073406I0000581J0000000D01*
G01*
X0046702Y0073406D01*
G75*
G02*
X0047283Y0072825I0000000J-000581D01*
G01*
G37*
G36*
G01*
X0063366Y0076585D02*
X0063366Y0077943D01*
G75*
G02*
X0063947Y0078524I0000581J0000000D01*
G01*
X0065108Y0078524D01*
G75*
G02*
X0065689Y0077943I0000000J-000581D01*
G01*
X0065689Y0076585D01*
G75*
G02*
X0065108Y0076004I-000581J0000000D01*
G01*
X0063947Y0076004D01*
G75*
G02*
X0063366Y0076585I0000000J0000581D01*
G01*
G37*
G36*
G01*
X0067185Y0076585D02*
X0067185Y0077943D01*
G75*
G02*
X0067765Y0078524I0000581J0000000D01*
G01*
X0068927Y0078524D01*
G75*
G02*
X0069508Y0077943I0000000J-000581D01*
G01*
X0069508Y0076585D01*
G75*
G02*
X0068927Y0076004I-000581J0000000D01*
G01*
X0067765Y0076004D01*
G75*
G02*
X0067185Y0076585I0000000J0000581D01*
G01*
G37*
G36*
G01*
X0036594Y0071467D02*
X0036594Y0072825D01*
G75*
G02*
X0037175Y0073406I0000581J0000000D01*
G01*
X0038336Y0073406D01*
G75*
G02*
X0038917Y0072825I0000000J-000581D01*
G01*
X0038917Y0071467D01*
G75*
G02*
X0038336Y0070886I-000581J0000000D01*
G01*
X0037175Y0070886D01*
G75*
G02*
X0036594Y0071467I0000000J0000581D01*
G01*
G37*
G36*
G01*
X0040413Y0071467D02*
X0040413Y0072825D01*
G75*
G02*
X0040994Y0073406I0000581J0000000D01*
G01*
X0042155Y0073406D01*
G75*
G02*
X0042736Y0072825I0000000J-000581D01*
G01*
X0042736Y0071467D01*
G75*
G02*
X0042155Y0070886I-000581J0000000D01*
G01*
X0040994Y0070886D01*
G75*
G02*
X0040413Y0071467I0000000J0000581D01*
G01*
G37*
G36*
G01*
X0063366Y0111231D02*
X0063366Y0112589D01*
G75*
G02*
X0063947Y0113169I0000581J0000000D01*
G01*
X0065108Y0113169D01*
G75*
G02*
X0065689Y0112589I0000000J-000581D01*
G01*
X0065689Y0111231D01*
G75*
G02*
X0065108Y0110650I-000581J0000000D01*
G01*
X0063947Y0110650D01*
G75*
G02*
X0063366Y0111231I0000000J0000581D01*
G01*
G37*
G36*
G01*
X0067185Y0111231D02*
X0067185Y0112589D01*
G75*
G02*
X0067765Y0113169I0000581J0000000D01*
G01*
X0068927Y0113169D01*
G75*
G02*
X0069508Y0112589I0000000J-000581D01*
G01*
X0069508Y0111231D01*
G75*
G02*
X0068927Y0110650I-000581J0000000D01*
G01*
X0067765Y0110650D01*
G75*
G02*
X0067185Y0111231I0000000J0000581D01*
G01*
G37*
D389*
X0056693Y0046792D03*
D154*
X0028346Y0047894D03*
X0040157Y0055768D03*
X0028346Y0063642D03*
D390*
X0031889Y0055768D03*
D389*
X0056693Y0064744D03*
G36*
G01*
X0036919Y0122264D02*
X0038277Y0122264D01*
G75*
G02*
X0038858Y0121683I0000000J-000581D01*
G01*
X0038858Y0120522D01*
G75*
G02*
X0038277Y0119941I-000581J0000000D01*
G01*
X0036919Y0119941D01*
G75*
G02*
X0036338Y0120522I0000000J0000581D01*
G01*
X0036338Y0121683D01*
G75*
G02*
X0036919Y0122264I0000581J0000000D01*
G01*
G37*
G36*
G01*
X0036919Y0118445D02*
X0038277Y0118445D01*
G75*
G02*
X0038858Y0117864I0000000J-000581D01*
G01*
X0038858Y0116703D01*
G75*
G02*
X0038277Y0116122I-000581J0000000D01*
G01*
X0036919Y0116122D01*
G75*
G02*
X0036338Y0116703I0000000J0000581D01*
G01*
X0036338Y0117864D01*
G75*
G02*
X0036919Y0118445I0000581J0000000D01*
G01*
G37*
G36*
G01*
X0023253Y0083760D02*
X0021235Y0083760D01*
G75*
G02*
X0020374Y0084621I0000000J0000861D01*
G01*
X0020374Y0086344D01*
G75*
G02*
X0021235Y0087205I0000861J0000000D01*
G01*
X0023253Y0087205D01*
G75*
G02*
X0024114Y0086344I0000000J-000861D01*
G01*
X0024114Y0084621D01*
G75*
G02*
X0023253Y0083760I-000861J0000000D01*
G01*
G37*
G36*
G01*
X0023253Y0089961D02*
X0021235Y0089961D01*
G75*
G02*
X0020374Y0090822I0000000J0000861D01*
G01*
X0020374Y0092544D01*
G75*
G02*
X0021235Y0093406I0000861J0000000D01*
G01*
X0023253Y0093406D01*
G75*
G02*
X0024114Y0092544I0000000J-000861D01*
G01*
X0024114Y0090822D01*
G75*
G02*
X0023253Y0089961I-000861J0000000D01*
G01*
G37*
G36*
G01*
X0027185Y0081388D02*
X0027185Y0080030D01*
G75*
G02*
X0026604Y0079449I-000581J0000000D01*
G01*
X0025443Y0079449D01*
G75*
G02*
X0024862Y0080030I0000000J0000581D01*
G01*
X0024862Y0081388D01*
G75*
G02*
X0025443Y0081969I0000581J0000000D01*
G01*
X0026604Y0081969D01*
G75*
G02*
X0027185Y0081388I0000000J-000581D01*
G01*
G37*
G36*
G01*
X0023366Y0081388D02*
X0023366Y0080030D01*
G75*
G02*
X0022785Y0079449I-000581J0000000D01*
G01*
X0021624Y0079449D01*
G75*
G02*
X0021043Y0080030I0000000J0000581D01*
G01*
X0021043Y0081388D01*
G75*
G02*
X0021624Y0081969I0000581J0000000D01*
G01*
X0022785Y0081969D01*
G75*
G02*
X0023366Y0081388I0000000J-000581D01*
G01*
G37*
G36*
G01*
X0022638Y0037279D02*
X0022638Y0039296D01*
G75*
G02*
X0023499Y0040158I0000861J0000000D01*
G01*
X0025221Y0040158D01*
G75*
G02*
X0026082Y0039296I0000000J-000861D01*
G01*
X0026082Y0037279D01*
G75*
G02*
X0025221Y0036418I-000861J0000000D01*
G01*
X0023499Y0036418D01*
G75*
G02*
X0022638Y0037279I0000000J0000861D01*
G01*
G37*
G36*
G01*
X0028838Y0037279D02*
X0028838Y0039296D01*
G75*
G02*
X0029700Y0040158I0000861J0000000D01*
G01*
X0031422Y0040158D01*
G75*
G02*
X0032283Y0039296I0000000J-000861D01*
G01*
X0032283Y0037279D01*
G75*
G02*
X0031422Y0036418I-000861J0000000D01*
G01*
X0029700Y0036418D01*
G75*
G02*
X0028838Y0037279I0000000J0000861D01*
G01*
G37*
G36*
G01*
X0021235Y0105118D02*
X0023253Y0105118D01*
G75*
G02*
X0024114Y0104257I0000000J-000861D01*
G01*
X0024114Y0102535D01*
G75*
G02*
X0023253Y0101673I-000861J0000000D01*
G01*
X0021235Y0101673D01*
G75*
G02*
X0020374Y0102535I0000000J0000861D01*
G01*
X0020374Y0104257D01*
G75*
G02*
X0021235Y0105118I0000861J0000000D01*
G01*
G37*
G36*
G01*
X0021235Y0098918D02*
X0023253Y0098918D01*
G75*
G02*
X0024114Y0098056I0000000J-000861D01*
G01*
X0024114Y0096334D01*
G75*
G02*
X0023253Y0095473I-000861J0000000D01*
G01*
X0021235Y0095473D01*
G75*
G02*
X0020374Y0096334I0000000J0000861D01*
G01*
X0020374Y0098056D01*
G75*
G02*
X0021235Y0098918I0000861J0000000D01*
G01*
G37*
G36*
G01*
X0025413Y0109439D02*
X0025413Y0108081D01*
G75*
G02*
X0024832Y0107500I-000581J0000000D01*
G01*
X0023671Y0107500D01*
G75*
G02*
X0023090Y0108081I0000000J0000581D01*
G01*
X0023090Y0109439D01*
G75*
G02*
X0023671Y0110020I0000581J0000000D01*
G01*
X0024832Y0110020D01*
G75*
G02*
X0025413Y0109439I0000000J-000581D01*
G01*
G37*
G36*
G01*
X0021594Y0109439D02*
X0021594Y0108081D01*
G75*
G02*
X0021013Y0107500I-000581J0000000D01*
G01*
X0019852Y0107500D01*
G75*
G02*
X0019271Y0108081I0000000J0000581D01*
G01*
X0019271Y0109439D01*
G75*
G02*
X0019852Y0110020I0000581J0000000D01*
G01*
X0021013Y0110020D01*
G75*
G02*
X0021594Y0109439I0000000J-000581D01*
G01*
G37*
G36*
G01*
X0038090Y0075000D02*
X0037106Y0075000D01*
G75*
G02*
X0036614Y0075492I0000000J0000492D01*
G01*
X0036614Y0080414D01*
G75*
G02*
X0037106Y0080906I0000492J0000000D01*
G01*
X0038090Y0080906D01*
G75*
G02*
X0038582Y0080414I0000000J-000492D01*
G01*
X0038582Y0075492D01*
G75*
G02*
X0038090Y0075000I-000492J0000000D01*
G01*
G37*
G36*
G01*
X0041240Y0075000D02*
X0040256Y0075000D01*
G75*
G02*
X0039763Y0075492I0000000J0000492D01*
G01*
X0039763Y0080414D01*
G75*
G02*
X0040256Y0080906I0000492J0000000D01*
G01*
X0041240Y0080906D01*
G75*
G02*
X0041732Y0080414I0000000J-000492D01*
G01*
X0041732Y0075492D01*
G75*
G02*
X0041240Y0075000I-000492J0000000D01*
G01*
G37*
G36*
G01*
X0044389Y0075000D02*
X0043405Y0075000D01*
G75*
G02*
X0042913Y0075492I0000000J0000492D01*
G01*
X0042913Y0080414D01*
G75*
G02*
X0043405Y0080906I0000492J0000000D01*
G01*
X0044389Y0080906D01*
G75*
G02*
X0044882Y0080414I0000000J-000492D01*
G01*
X0044882Y0075492D01*
G75*
G02*
X0044389Y0075000I-000492J0000000D01*
G01*
G37*
G36*
G01*
X0047539Y0075000D02*
X0046555Y0075000D01*
G75*
G02*
X0046063Y0075492I0000000J0000492D01*
G01*
X0046063Y0080414D01*
G75*
G02*
X0046555Y0080906I0000492J0000000D01*
G01*
X0047539Y0080906D01*
G75*
G02*
X0048031Y0080414I0000000J-000492D01*
G01*
X0048031Y0075492D01*
G75*
G02*
X0047539Y0075000I-000492J0000000D01*
G01*
G37*
G36*
G01*
X0050689Y0075000D02*
X0049704Y0075000D01*
G75*
G02*
X0049212Y0075492I0000000J0000492D01*
G01*
X0049212Y0080414D01*
G75*
G02*
X0049704Y0080906I0000492J0000000D01*
G01*
X0050689Y0080906D01*
G75*
G02*
X0051181Y0080414I0000000J-000492D01*
G01*
X0051181Y0075492D01*
G75*
G02*
X0050689Y0075000I-000492J0000000D01*
G01*
G37*
G36*
G01*
X0053838Y0075000D02*
X0052854Y0075000D01*
G75*
G02*
X0052362Y0075492I0000000J0000492D01*
G01*
X0052362Y0080414D01*
G75*
G02*
X0052854Y0080906I0000492J0000000D01*
G01*
X0053838Y0080906D01*
G75*
G02*
X0054330Y0080414I0000000J-000492D01*
G01*
X0054330Y0075492D01*
G75*
G02*
X0053838Y0075000I-000492J0000000D01*
G01*
G37*
G36*
G01*
X0056988Y0075000D02*
X0056004Y0075000D01*
G75*
G02*
X0055512Y0075492I0000000J0000492D01*
G01*
X0055512Y0080414D01*
G75*
G02*
X0056004Y0080906I0000492J0000000D01*
G01*
X0056988Y0080906D01*
G75*
G02*
X0057480Y0080414I0000000J-000492D01*
G01*
X0057480Y0075492D01*
G75*
G02*
X0056988Y0075000I-000492J0000000D01*
G01*
G37*
G36*
G01*
X0060138Y0075000D02*
X0059153Y0075000D01*
G75*
G02*
X0058661Y0075492I0000000J0000492D01*
G01*
X0058661Y0080414D01*
G75*
G02*
X0059153Y0080906I0000492J0000000D01*
G01*
X0060138Y0080906D01*
G75*
G02*
X0060630Y0080414I0000000J-000492D01*
G01*
X0060630Y0075492D01*
G75*
G02*
X0060138Y0075000I-000492J0000000D01*
G01*
G37*
G36*
G01*
X0067519Y0082382D02*
X0062598Y0082382D01*
G75*
G02*
X0062106Y0082874I0000000J0000492D01*
G01*
X0062106Y0083858D01*
G75*
G02*
X0062598Y0084351I0000492J0000000D01*
G01*
X0067519Y0084351D01*
G75*
G02*
X0068012Y0083858I0000000J-000492D01*
G01*
X0068012Y0082874D01*
G75*
G02*
X0067519Y0082382I-000492J0000000D01*
G01*
G37*
G36*
G01*
X0067519Y0085532D02*
X0062598Y0085532D01*
G75*
G02*
X0062106Y0086024I0000000J0000492D01*
G01*
X0062106Y0087008D01*
G75*
G02*
X0062598Y0087500I0000492J0000000D01*
G01*
X0067519Y0087500D01*
G75*
G02*
X0068012Y0087008I0000000J-000492D01*
G01*
X0068012Y0086024D01*
G75*
G02*
X0067519Y0085532I-000492J0000000D01*
G01*
G37*
G36*
G01*
X0067519Y0088681D02*
X0062598Y0088681D01*
G75*
G02*
X0062106Y0089173I0000000J0000492D01*
G01*
X0062106Y0090158D01*
G75*
G02*
X0062598Y0090650I0000492J0000000D01*
G01*
X0067519Y0090650D01*
G75*
G02*
X0068012Y0090158I0000000J-000492D01*
G01*
X0068012Y0089173D01*
G75*
G02*
X0067519Y0088681I-000492J0000000D01*
G01*
G37*
G36*
G01*
X0067519Y0091831D02*
X0062598Y0091831D01*
G75*
G02*
X0062106Y0092323I0000000J0000492D01*
G01*
X0062106Y0093307D01*
G75*
G02*
X0062598Y0093799I0000492J0000000D01*
G01*
X0067519Y0093799D01*
G75*
G02*
X0068012Y0093307I0000000J-000492D01*
G01*
X0068012Y0092323D01*
G75*
G02*
X0067519Y0091831I-000492J0000000D01*
G01*
G37*
G36*
G01*
X0067519Y0094981D02*
X0062598Y0094981D01*
G75*
G02*
X0062106Y0095473I0000000J0000492D01*
G01*
X0062106Y0096457D01*
G75*
G02*
X0062598Y0096949I0000492J0000000D01*
G01*
X0067519Y0096949D01*
G75*
G02*
X0068012Y0096457I0000000J-000492D01*
G01*
X0068012Y0095473D01*
G75*
G02*
X0067519Y0094981I-000492J0000000D01*
G01*
G37*
G36*
G01*
X0067519Y0098130D02*
X0062598Y0098130D01*
G75*
G02*
X0062106Y0098622I0000000J0000492D01*
G01*
X0062106Y0099606D01*
G75*
G02*
X0062598Y0100099I0000492J0000000D01*
G01*
X0067519Y0100099D01*
G75*
G02*
X0068012Y0099606I0000000J-000492D01*
G01*
X0068012Y0098622D01*
G75*
G02*
X0067519Y0098130I-000492J0000000D01*
G01*
G37*
G36*
G01*
X0067519Y0101280D02*
X0062598Y0101280D01*
G75*
G02*
X0062106Y0101772I0000000J0000492D01*
G01*
X0062106Y0102756D01*
G75*
G02*
X0062598Y0103248I0000492J0000000D01*
G01*
X0067519Y0103248D01*
G75*
G02*
X0068012Y0102756I0000000J-000492D01*
G01*
X0068012Y0101772D01*
G75*
G02*
X0067519Y0101280I-000492J0000000D01*
G01*
G37*
G36*
G01*
X0067519Y0104429D02*
X0062598Y0104429D01*
G75*
G02*
X0062106Y0104921I0000000J0000492D01*
G01*
X0062106Y0105906D01*
G75*
G02*
X0062598Y0106398I0000492J0000000D01*
G01*
X0067519Y0106398D01*
G75*
G02*
X0068012Y0105906I0000000J-000492D01*
G01*
X0068012Y0104921D01*
G75*
G02*
X0067519Y0104429I-000492J0000000D01*
G01*
G37*
G36*
G01*
X0060138Y0107874D02*
X0059153Y0107874D01*
G75*
G02*
X0058661Y0108366I0000000J0000492D01*
G01*
X0058661Y0113288D01*
G75*
G02*
X0059153Y0113780I0000492J0000000D01*
G01*
X0060138Y0113780D01*
G75*
G02*
X0060630Y0113288I0000000J-000492D01*
G01*
X0060630Y0108366D01*
G75*
G02*
X0060138Y0107874I-000492J0000000D01*
G01*
G37*
G36*
G01*
X0056988Y0107874D02*
X0056004Y0107874D01*
G75*
G02*
X0055512Y0108366I0000000J0000492D01*
G01*
X0055512Y0113288D01*
G75*
G02*
X0056004Y0113780I0000492J0000000D01*
G01*
X0056988Y0113780D01*
G75*
G02*
X0057480Y0113288I0000000J-000492D01*
G01*
X0057480Y0108366D01*
G75*
G02*
X0056988Y0107874I-000492J0000000D01*
G01*
G37*
G36*
G01*
X0053838Y0107874D02*
X0052854Y0107874D01*
G75*
G02*
X0052362Y0108366I0000000J0000492D01*
G01*
X0052362Y0113288D01*
G75*
G02*
X0052854Y0113780I0000492J0000000D01*
G01*
X0053838Y0113780D01*
G75*
G02*
X0054330Y0113288I0000000J-000492D01*
G01*
X0054330Y0108366D01*
G75*
G02*
X0053838Y0107874I-000492J0000000D01*
G01*
G37*
G36*
G01*
X0050689Y0107874D02*
X0049704Y0107874D01*
G75*
G02*
X0049212Y0108366I0000000J0000492D01*
G01*
X0049212Y0113288D01*
G75*
G02*
X0049704Y0113780I0000492J0000000D01*
G01*
X0050689Y0113780D01*
G75*
G02*
X0051181Y0113288I0000000J-000492D01*
G01*
X0051181Y0108366D01*
G75*
G02*
X0050689Y0107874I-000492J0000000D01*
G01*
G37*
G36*
G01*
X0047539Y0107874D02*
X0046555Y0107874D01*
G75*
G02*
X0046063Y0108366I0000000J0000492D01*
G01*
X0046063Y0113288D01*
G75*
G02*
X0046555Y0113780I0000492J0000000D01*
G01*
X0047539Y0113780D01*
G75*
G02*
X0048031Y0113288I0000000J-000492D01*
G01*
X0048031Y0108366D01*
G75*
G02*
X0047539Y0107874I-000492J0000000D01*
G01*
G37*
G36*
G01*
X0044389Y0107874D02*
X0043405Y0107874D01*
G75*
G02*
X0042913Y0108366I0000000J0000492D01*
G01*
X0042913Y0113288D01*
G75*
G02*
X0043405Y0113780I0000492J0000000D01*
G01*
X0044389Y0113780D01*
G75*
G02*
X0044882Y0113288I0000000J-000492D01*
G01*
X0044882Y0108366D01*
G75*
G02*
X0044389Y0107874I-000492J0000000D01*
G01*
G37*
G36*
G01*
X0041240Y0107874D02*
X0040256Y0107874D01*
G75*
G02*
X0039763Y0108366I0000000J0000492D01*
G01*
X0039763Y0113288D01*
G75*
G02*
X0040256Y0113780I0000492J0000000D01*
G01*
X0041240Y0113780D01*
G75*
G02*
X0041732Y0113288I0000000J-000492D01*
G01*
X0041732Y0108366D01*
G75*
G02*
X0041240Y0107874I-000492J0000000D01*
G01*
G37*
G36*
G01*
X0038090Y0107874D02*
X0037106Y0107874D01*
G75*
G02*
X0036614Y0108366I0000000J0000492D01*
G01*
X0036614Y0113288D01*
G75*
G02*
X0037106Y0113780I0000492J0000000D01*
G01*
X0038090Y0113780D01*
G75*
G02*
X0038582Y0113288I0000000J-000492D01*
G01*
X0038582Y0108366D01*
G75*
G02*
X0038090Y0107874I-000492J0000000D01*
G01*
G37*
G36*
G01*
X0034645Y0104429D02*
X0029724Y0104429D01*
G75*
G02*
X0029232Y0104921I0000000J0000492D01*
G01*
X0029232Y0105906D01*
G75*
G02*
X0029724Y0106398I0000492J0000000D01*
G01*
X0034645Y0106398D01*
G75*
G02*
X0035138Y0105906I0000000J-000492D01*
G01*
X0035138Y0104921D01*
G75*
G02*
X0034645Y0104429I-000492J0000000D01*
G01*
G37*
G36*
G01*
X0034645Y0101280D02*
X0029724Y0101280D01*
G75*
G02*
X0029232Y0101772I0000000J0000492D01*
G01*
X0029232Y0102756D01*
G75*
G02*
X0029724Y0103248I0000492J0000000D01*
G01*
X0034645Y0103248D01*
G75*
G02*
X0035138Y0102756I0000000J-000492D01*
G01*
X0035138Y0101772D01*
G75*
G02*
X0034645Y0101280I-000492J0000000D01*
G01*
G37*
G36*
G01*
X0034645Y0098130D02*
X0029724Y0098130D01*
G75*
G02*
X0029232Y0098622I0000000J0000492D01*
G01*
X0029232Y0099606D01*
G75*
G02*
X0029724Y0100099I0000492J0000000D01*
G01*
X0034645Y0100099D01*
G75*
G02*
X0035138Y0099606I0000000J-000492D01*
G01*
X0035138Y0098622D01*
G75*
G02*
X0034645Y0098130I-000492J0000000D01*
G01*
G37*
G36*
G01*
X0034645Y0094981D02*
X0029724Y0094981D01*
G75*
G02*
X0029232Y0095473I0000000J0000492D01*
G01*
X0029232Y0096457D01*
G75*
G02*
X0029724Y0096949I0000492J0000000D01*
G01*
X0034645Y0096949D01*
G75*
G02*
X0035138Y0096457I0000000J-000492D01*
G01*
X0035138Y0095473D01*
G75*
G02*
X0034645Y0094981I-000492J0000000D01*
G01*
G37*
G36*
G01*
X0034645Y0091831D02*
X0029724Y0091831D01*
G75*
G02*
X0029232Y0092323I0000000J0000492D01*
G01*
X0029232Y0093307D01*
G75*
G02*
X0029724Y0093799I0000492J0000000D01*
G01*
X0034645Y0093799D01*
G75*
G02*
X0035138Y0093307I0000000J-000492D01*
G01*
X0035138Y0092323D01*
G75*
G02*
X0034645Y0091831I-000492J0000000D01*
G01*
G37*
G36*
G01*
X0034645Y0088681D02*
X0029724Y0088681D01*
G75*
G02*
X0029232Y0089173I0000000J0000492D01*
G01*
X0029232Y0090158D01*
G75*
G02*
X0029724Y0090650I0000492J0000000D01*
G01*
X0034645Y0090650D01*
G75*
G02*
X0035138Y0090158I0000000J-000492D01*
G01*
X0035138Y0089173D01*
G75*
G02*
X0034645Y0088681I-000492J0000000D01*
G01*
G37*
G36*
G01*
X0034645Y0085532D02*
X0029724Y0085532D01*
G75*
G02*
X0029232Y0086024I0000000J0000492D01*
G01*
X0029232Y0087008D01*
G75*
G02*
X0029724Y0087500I0000492J0000000D01*
G01*
X0034645Y0087500D01*
G75*
G02*
X0035138Y0087008I0000000J-000492D01*
G01*
X0035138Y0086024D01*
G75*
G02*
X0034645Y0085532I-000492J0000000D01*
G01*
G37*
G36*
G01*
X0034645Y0082382D02*
X0029724Y0082382D01*
G75*
G02*
X0029232Y0082874I0000000J0000492D01*
G01*
X0029232Y0083858D01*
G75*
G02*
X0029724Y0084351I0000492J0000000D01*
G01*
X0034645Y0084351D01*
G75*
G02*
X0035138Y0083858I0000000J-000492D01*
G01*
X0035138Y0082874D01*
G75*
G02*
X0034645Y0082382I-000492J0000000D01*
G01*
G37*
G36*
G01*
X0056191Y0117008D02*
X0054832Y0117008D01*
G75*
G02*
X0054252Y0117589I0000000J0000581D01*
G01*
X0054252Y0118750D01*
G75*
G02*
X0054832Y0119331I0000581J0000000D01*
G01*
X0056191Y0119331D01*
G75*
G02*
X0056771Y0118750I0000000J-000581D01*
G01*
X0056771Y0117589D01*
G75*
G02*
X0056191Y0117008I-000581J0000000D01*
G01*
G37*
G36*
G01*
X0056191Y0120827D02*
X0054832Y0120827D01*
G75*
G02*
X0054252Y0121408I0000000J0000581D01*
G01*
X0054252Y0122569D01*
G75*
G02*
X0054832Y0123150I0000581J0000000D01*
G01*
X0056191Y0123150D01*
G75*
G02*
X0056771Y0122569I0000000J-000581D01*
G01*
X0056771Y0121408D01*
G75*
G02*
X0056191Y0120827I-000581J0000000D01*
G01*
G37*
G36*
G01*
X0032795Y0109931D02*
X0032795Y0108573D01*
G75*
G02*
X0032214Y0107992I-000581J0000000D01*
G01*
X0031053Y0107992D01*
G75*
G02*
X0030472Y0108573I0000000J0000581D01*
G01*
X0030472Y0109931D01*
G75*
G02*
X0031053Y0110512I0000581J0000000D01*
G01*
X0032214Y0110512D01*
G75*
G02*
X0032795Y0109931I0000000J-000581D01*
G01*
G37*
G36*
G01*
X0028976Y0109931D02*
X0028976Y0108573D01*
G75*
G02*
X0028395Y0107992I-000581J0000000D01*
G01*
X0027234Y0107992D01*
G75*
G02*
X0026653Y0108573I0000000J0000581D01*
G01*
X0026653Y0109931D01*
G75*
G02*
X0027234Y0110512I0000581J0000000D01*
G01*
X0028395Y0110512D01*
G75*
G02*
X0028976Y0109931I0000000J-000581D01*
G01*
G37*
G36*
G01*
X0054832Y0133575D02*
X0056191Y0133575D01*
G75*
G02*
X0056771Y0132994I0000000J-000581D01*
G01*
X0056771Y0131833D01*
G75*
G02*
X0056191Y0131252I-000581J0000000D01*
G01*
X0054832Y0131252D01*
G75*
G02*
X0054252Y0131833I0000000J0000581D01*
G01*
X0054252Y0132994D01*
G75*
G02*
X0054832Y0133575I0000581J0000000D01*
G01*
G37*
G36*
G01*
X0054832Y0129756D02*
X0056191Y0129756D01*
G75*
G02*
X0056771Y0129175I0000000J-000581D01*
G01*
X0056771Y0128014D01*
G75*
G02*
X0056191Y0127433I-000581J0000000D01*
G01*
X0054832Y0127433D01*
G75*
G02*
X0054252Y0128014I0000000J0000581D01*
G01*
X0054252Y0129175D01*
G75*
G02*
X0054832Y0129756I0000581J0000000D01*
G01*
G37*
D152*
X0060433Y0132087D03*
X0060433Y0124606D03*
X0068307Y0128347D03*
G36*
G01*
X0034665Y0073022D02*
X0034665Y0071664D01*
G75*
G02*
X0034084Y0071083I-000581J0000000D01*
G01*
X0032923Y0071083D01*
G75*
G02*
X0032342Y0071664I0000000J0000581D01*
G01*
X0032342Y0073022D01*
G75*
G02*
X0032923Y0073603I0000581J0000000D01*
G01*
X0034084Y0073603D01*
G75*
G02*
X0034665Y0073022I0000000J-000581D01*
G01*
G37*
G36*
G01*
X0030846Y0073022D02*
X0030846Y0071664D01*
G75*
G02*
X0030265Y0071083I-000581J0000000D01*
G01*
X0029104Y0071083D01*
G75*
G02*
X0028523Y0071664I0000000J0000581D01*
G01*
X0028523Y0073022D01*
G75*
G02*
X0029104Y0073603I0000581J0000000D01*
G01*
X0030265Y0073603D01*
G75*
G02*
X0030846Y0073022I0000000J-000581D01*
G01*
G37*
G36*
G01*
X0069704Y0119149D02*
X0069704Y0117131D01*
G75*
G02*
X0068843Y0116270I-000861J0000000D01*
G01*
X0067121Y0116270D01*
G75*
G02*
X0066260Y0117131I0000000J0000861D01*
G01*
X0066260Y0119149D01*
G75*
G02*
X0067121Y0120010I0000861J0000000D01*
G01*
X0068843Y0120010D01*
G75*
G02*
X0069704Y0119149I0000000J-000861D01*
G01*
G37*
G36*
G01*
X0063504Y0119149D02*
X0063504Y0117131D01*
G75*
G02*
X0062642Y0116270I-000861J0000000D01*
G01*
X0060920Y0116270D01*
G75*
G02*
X0060059Y0117131I0000000J0000861D01*
G01*
X0060059Y0119149D01*
G75*
G02*
X0060920Y0120010I0000861J0000000D01*
G01*
X0062642Y0120010D01*
G75*
G02*
X0063504Y0119149I0000000J-000861D01*
G01*
G37*
D167*
X0027559Y0134902D03*
X0023559Y0114902D03*
X0031559Y0114902D03*
D164*
X0025059Y0129902D03*
X0030059Y0129902D03*
X0025059Y0124902D03*
X0030059Y0124902D03*
X0025059Y0119902D03*
X0030059Y0119902D03*
D391*
X0066437Y0045414D03*
D392*
X0066437Y0055414D03*
X0066437Y0065414D03*
X0533071Y0015453D02*
G01*
G75*
D268*
X0550689Y0063484D02*
D03*
X0550689Y0030807D02*
D03*
X0604823Y0030807D02*
D03*
X0604823Y0063484D02*
D03*
D269*
X0595453Y0053248D02*
D03*
X0591122Y0053248D02*
D03*
X0586791Y0053248D02*
D03*
X0582461Y0053248D02*
D03*
X0578130Y0053248D02*
D03*
X0573799Y0053248D02*
D03*
X0569469Y0053248D02*
D03*
X0565138Y0053248D02*
D03*
D270*
X0544784Y0068051D02*
D03*
X0544784Y0074272D02*
D03*
X0540158Y0068051D02*
D03*
X0540158Y0074272D02*
D03*
D271*
X0535630Y0074311D02*
D03*
X0535630Y0068012D02*
D03*
D132*
X0546555Y0068898D02*
D03*
X0574016Y0046949D02*
D03*
X0591339Y0046949D02*
D03*
X0582579Y0046949D02*
D03*
X0552756Y0049587D02*
D03*
X0569390Y0046949D02*
D03*
X0602772Y0049623D02*
D03*
M02*
