G75*
G70*
%OFA0B0*%
%FSLAX25Y25*%
%IPPOS*%
%LPD*%
%AMOC8*
5,1,8,0,0,1.08239X$1,22.5*
%
%AMM104*
21,1,0.021650,0.052760,-0.000000,0.000000,0.000000*
21,1,0.017320,0.057090,-0.000000,0.000000,0.000000*
1,1,0.004330,0.008660,-0.026380*
1,1,0.004330,-0.008660,-0.026380*
1,1,0.004330,-0.008660,0.026380*
1,1,0.004330,0.008660,0.026380*
%
%AMM171*
21,1,0.086610,0.073230,0.000000,-0.000000,180.000000*
21,1,0.069290,0.090550,0.000000,-0.000000,180.000000*
1,1,0.017320,-0.034650,0.036610*
1,1,0.017320,0.034650,0.036610*
1,1,0.017320,0.034650,-0.036610*
1,1,0.017320,-0.034650,-0.036610*
%
%AMM172*
21,1,0.094490,0.111020,0.000000,-0.000000,270.000000*
21,1,0.075590,0.129920,0.000000,-0.000000,270.000000*
1,1,0.018900,-0.055510,-0.037800*
1,1,0.018900,-0.055510,0.037800*
1,1,0.018900,0.055510,0.037800*
1,1,0.018900,0.055510,-0.037800*
%
%AMM173*
21,1,0.074800,0.083460,0.000000,-0.000000,270.000000*
21,1,0.059840,0.098430,0.000000,-0.000000,270.000000*
1,1,0.014960,-0.041730,-0.029920*
1,1,0.014960,-0.041730,0.029920*
1,1,0.014960,0.041730,0.029920*
1,1,0.014960,0.041730,-0.029920*
%
%AMM174*
21,1,0.078740,0.053540,0.000000,-0.000000,90.000000*
21,1,0.065350,0.066930,0.000000,-0.000000,90.000000*
1,1,0.013390,0.026770,0.032680*
1,1,0.013390,0.026770,-0.032680*
1,1,0.013390,-0.026770,-0.032680*
1,1,0.013390,-0.026770,0.032680*
%
%AMM175*
21,1,0.035430,0.030320,0.000000,-0.000000,0.000000*
21,1,0.028350,0.037400,0.000000,-0.000000,0.000000*
1,1,0.007090,0.014170,-0.015160*
1,1,0.007090,-0.014170,-0.015160*
1,1,0.007090,-0.014170,0.015160*
1,1,0.007090,0.014170,0.015160*
%
%AMM176*
21,1,0.021650,0.052760,0.000000,-0.000000,180.000000*
21,1,0.017320,0.057090,0.000000,-0.000000,180.000000*
1,1,0.004330,-0.008660,0.026380*
1,1,0.004330,0.008660,0.026380*
1,1,0.004330,0.008660,-0.026380*
1,1,0.004330,-0.008660,-0.026380*
%
%AMM177*
21,1,0.035830,0.026770,0.000000,-0.000000,270.000000*
21,1,0.029130,0.033470,0.000000,-0.000000,270.000000*
1,1,0.006690,-0.013390,-0.014570*
1,1,0.006690,-0.013390,0.014570*
1,1,0.006690,0.013390,0.014570*
1,1,0.006690,0.013390,-0.014570*
%
%AMM178*
21,1,0.070870,0.036220,0.000000,-0.000000,0.000000*
21,1,0.061810,0.045280,0.000000,-0.000000,0.000000*
1,1,0.009060,0.030910,-0.018110*
1,1,0.009060,-0.030910,-0.018110*
1,1,0.009060,-0.030910,0.018110*
1,1,0.009060,0.030910,0.018110*
%
%AMM179*
21,1,0.033470,0.026770,0.000000,-0.000000,270.000000*
21,1,0.026770,0.033470,0.000000,-0.000000,270.000000*
1,1,0.006690,-0.013390,-0.013390*
1,1,0.006690,-0.013390,0.013390*
1,1,0.006690,0.013390,0.013390*
1,1,0.006690,0.013390,-0.013390*
%
%AMM180*
21,1,0.015750,0.016540,0.000000,-0.000000,180.000000*
21,1,0.012600,0.019680,0.000000,-0.000000,180.000000*
1,1,0.003150,-0.006300,0.008270*
1,1,0.003150,0.006300,0.008270*
1,1,0.003150,0.006300,-0.008270*
1,1,0.003150,-0.006300,-0.008270*
%
%AMM181*
21,1,0.023620,0.018900,0.000000,-0.000000,0.000000*
21,1,0.018900,0.023620,0.000000,-0.000000,0.000000*
1,1,0.004720,0.009450,-0.009450*
1,1,0.004720,-0.009450,-0.009450*
1,1,0.004720,-0.009450,0.009450*
1,1,0.004720,0.009450,0.009450*
%
%AMM182*
21,1,0.019680,0.019680,0.000000,-0.000000,270.000000*
21,1,0.015750,0.023620,0.000000,-0.000000,270.000000*
1,1,0.003940,-0.009840,-0.007870*
1,1,0.003940,-0.009840,0.007870*
1,1,0.003940,0.009840,0.007870*
1,1,0.003940,0.009840,-0.007870*
%
%AMM183*
21,1,0.019680,0.019680,0.000000,-0.000000,180.000000*
21,1,0.015750,0.023620,0.000000,-0.000000,180.000000*
1,1,0.003940,-0.007870,0.009840*
1,1,0.003940,0.007870,0.009840*
1,1,0.003940,0.007870,-0.009840*
1,1,0.003940,-0.007870,-0.009840*
%
%AMM262*
21,1,0.025590,0.026380,-0.000000,-0.000000,90.000000*
21,1,0.020470,0.031500,-0.000000,-0.000000,90.000000*
1,1,0.005120,0.013190,0.010240*
1,1,0.005120,0.013190,-0.010240*
1,1,0.005120,-0.013190,-0.010240*
1,1,0.005120,-0.013190,0.010240*
%
%AMM263*
21,1,0.017720,0.027950,-0.000000,-0.000000,90.000000*
21,1,0.014170,0.031500,-0.000000,-0.000000,90.000000*
1,1,0.003540,0.013980,0.007090*
1,1,0.003540,0.013980,-0.007090*
1,1,0.003540,-0.013980,-0.007090*
1,1,0.003540,-0.013980,0.007090*
%
%AMM264*
21,1,0.012600,0.028980,-0.000000,-0.000000,270.000000*
21,1,0.010080,0.031500,-0.000000,-0.000000,270.000000*
1,1,0.002520,-0.014490,-0.005040*
1,1,0.002520,-0.014490,0.005040*
1,1,0.002520,0.014490,0.005040*
1,1,0.002520,0.014490,-0.005040*
%
%AMM265*
21,1,0.023620,0.030710,-0.000000,-0.000000,0.000000*
21,1,0.018900,0.035430,-0.000000,-0.000000,0.000000*
1,1,0.004720,0.009450,-0.015350*
1,1,0.004720,-0.009450,-0.015350*
1,1,0.004720,-0.009450,0.015350*
1,1,0.004720,0.009450,0.015350*
%
%AMM266*
21,1,0.027560,0.018900,-0.000000,-0.000000,270.000000*
21,1,0.022840,0.023620,-0.000000,-0.000000,270.000000*
1,1,0.004720,-0.009450,-0.011420*
1,1,0.004720,-0.009450,0.011420*
1,1,0.004720,0.009450,0.011420*
1,1,0.004720,0.009450,-0.011420*
%
%AMM267*
21,1,0.031500,0.072440,-0.000000,-0.000000,270.000000*
21,1,0.025200,0.078740,-0.000000,-0.000000,270.000000*
1,1,0.006300,-0.036220,-0.012600*
1,1,0.006300,-0.036220,0.012600*
1,1,0.006300,0.036220,0.012600*
1,1,0.006300,0.036220,-0.012600*
%
%AMM268*
21,1,0.027560,0.018900,-0.000000,-0.000000,0.000000*
21,1,0.022840,0.023620,-0.000000,-0.000000,0.000000*
1,1,0.004720,0.011420,-0.009450*
1,1,0.004720,-0.011420,-0.009450*
1,1,0.004720,-0.011420,0.009450*
1,1,0.004720,0.011420,0.009450*
%
%AMM269*
21,1,0.023620,0.030710,-0.000000,-0.000000,90.000000*
21,1,0.018900,0.035430,-0.000000,-0.000000,90.000000*
1,1,0.004720,0.015350,0.009450*
1,1,0.004720,0.015350,-0.009450*
1,1,0.004720,-0.015350,-0.009450*
1,1,0.004720,-0.015350,0.009450*
%
%AMM270*
21,1,0.035430,0.030320,-0.000000,-0.000000,90.000000*
21,1,0.028350,0.037400,-0.000000,-0.000000,90.000000*
1,1,0.007090,0.015160,0.014170*
1,1,0.007090,0.015160,-0.014170*
1,1,0.007090,-0.015160,-0.014170*
1,1,0.007090,-0.015160,0.014170*
%
%AMM271*
21,1,0.043310,0.075980,-0.000000,-0.000000,180.000000*
21,1,0.034650,0.084650,-0.000000,-0.000000,180.000000*
1,1,0.008660,-0.017320,0.037990*
1,1,0.008660,0.017320,0.037990*
1,1,0.008660,0.017320,-0.037990*
1,1,0.008660,-0.017320,-0.037990*
%
%AMM272*
21,1,0.039370,0.035430,-0.000000,-0.000000,180.000000*
21,1,0.031500,0.043310,-0.000000,-0.000000,180.000000*
1,1,0.007870,-0.015750,0.017720*
1,1,0.007870,0.015750,0.017720*
1,1,0.007870,0.015750,-0.017720*
1,1,0.007870,-0.015750,-0.017720*
%
%AMM273*
21,1,0.027560,0.030710,-0.000000,-0.000000,180.000000*
21,1,0.022050,0.036220,-0.000000,-0.000000,180.000000*
1,1,0.005510,-0.011020,0.015350*
1,1,0.005510,0.011020,0.015350*
1,1,0.005510,0.011020,-0.015350*
1,1,0.005510,-0.011020,-0.015350*
%
%AMM274*
21,1,0.031500,0.072440,-0.000000,-0.000000,180.000000*
21,1,0.025200,0.078740,-0.000000,-0.000000,180.000000*
1,1,0.006300,-0.012600,0.036220*
1,1,0.006300,0.012600,0.036220*
1,1,0.006300,0.012600,-0.036220*
1,1,0.006300,-0.012600,-0.036220*
%
%AMM275*
21,1,0.137800,0.067720,-0.000000,-0.000000,180.000000*
21,1,0.120870,0.084650,-0.000000,-0.000000,180.000000*
1,1,0.016930,-0.060430,0.033860*
1,1,0.016930,0.060430,0.033860*
1,1,0.016930,0.060430,-0.033860*
1,1,0.016930,-0.060430,-0.033860*
%
%AMM276*
21,1,0.043310,0.075990,-0.000000,-0.000000,180.000000*
21,1,0.034650,0.084650,-0.000000,-0.000000,180.000000*
1,1,0.008660,-0.017320,0.037990*
1,1,0.008660,0.017320,0.037990*
1,1,0.008660,0.017320,-0.037990*
1,1,0.008660,-0.017320,-0.037990*
%
%AMM277*
21,1,0.086610,0.073230,-0.000000,-0.000000,270.000000*
21,1,0.069290,0.090550,-0.000000,-0.000000,270.000000*
1,1,0.017320,-0.036610,-0.034650*
1,1,0.017320,-0.036610,0.034650*
1,1,0.017320,0.036610,0.034650*
1,1,0.017320,0.036610,-0.034650*
%
%AMM69*
21,1,0.033470,0.026770,0.000000,0.000000,90.000000*
21,1,0.026770,0.033470,0.000000,0.000000,90.000000*
1,1,0.006690,0.013390,0.013390*
1,1,0.006690,0.013390,-0.013390*
1,1,0.006690,-0.013390,-0.013390*
1,1,0.006690,-0.013390,0.013390*
%
%AMM92*
21,1,0.078740,0.045670,0.000000,0.000000,270.000000*
21,1,0.067320,0.057090,0.000000,0.000000,270.000000*
1,1,0.011420,-0.022840,-0.033660*
1,1,0.011420,-0.022840,0.033660*
1,1,0.011420,0.022840,0.033660*
1,1,0.011420,0.022840,-0.033660*
%
%AMM93*
21,1,0.059060,0.020470,0.000000,0.000000,270.000000*
21,1,0.053940,0.025590,0.000000,0.000000,270.000000*
1,1,0.005120,-0.010240,-0.026970*
1,1,0.005120,-0.010240,0.026970*
1,1,0.005120,0.010240,0.026970*
1,1,0.005120,0.010240,-0.026970*
%
%AMM94*
21,1,0.027560,0.030710,0.000000,0.000000,270.000000*
21,1,0.022050,0.036220,0.000000,0.000000,270.000000*
1,1,0.005510,-0.015350,-0.011020*
1,1,0.005510,-0.015350,0.011020*
1,1,0.005510,0.015350,0.011020*
1,1,0.005510,0.015350,-0.011020*
%
%ADD11R,0.07874X0.05906*%
%ADD117C,0.03150*%
%ADD12R,0.07874X0.14961*%
%ADD148R,0.02559X0.01575*%
%ADD149R,0.01575X0.02559*%
%ADD150R,0.05512X0.01181*%
%ADD151R,0.03543X0.03150*%
%ADD155R,0.03150X0.03543*%
%ADD175O,0.04724X0.00866*%
%ADD176O,0.00866X0.04724*%
%ADD177O,0.04331X0.01181*%
%ADD180R,0.01378X0.00984*%
%ADD181R,0.00984X0.01378*%
%ADD186O,0.08661X0.02362*%
%ADD225M69*%
%ADD259M92*%
%ADD260M93*%
%ADD261M94*%
%ADD276M104*%
%ADD346M171*%
%ADD347M172*%
%ADD348M173*%
%ADD349M174*%
%ADD350M175*%
%ADD351M176*%
%ADD352M177*%
%ADD353M178*%
%ADD354M179*%
%ADD355M180*%
%ADD356M181*%
%ADD357M182*%
%ADD358M183*%
%ADD388R,0.08661X0.04724*%
%ADD392R,0.12008X0.10827*%
%ADD470M262*%
%ADD471M263*%
%ADD472M264*%
%ADD473M265*%
%ADD474M266*%
%ADD475M267*%
%ADD476M268*%
%ADD477M269*%
%ADD478M270*%
%ADD479M271*%
%ADD480M272*%
%ADD481M273*%
%ADD482M274*%
%ADD483M275*%
%ADD484M276*%
%ADD485M277*%
%ADD50R,0.01181X0.04528*%
%ADD53R,0.00787X0.14567*%
%ADD54R,0.00787X0.01575*%
%ADD55R,0.00787X0.06299*%
%ADD56R,0.00787X0.38189*%
%ADD57R,0.00787X0.09055*%
%ADD58R,0.05512X0.00787*%
%ADD59R,0.25197X0.00787*%
%ADD60R,0.06693X0.00787*%
%ADD61R,0.12992X0.00787*%
%ADD62R,0.00787X0.27559*%
%ADD63R,0.00787X0.12992*%
%ADD64R,0.00787X0.24803*%
%ADD65R,0.05118X0.03937*%
%ADD73O,0.00000X0.00000*%
X0000000Y0000000D02*
%LPD*%
G01*
G36*
G01*
X0462500Y0076968D02*
X0462500Y0072047D01*
G75*
G02*
X0462106Y0071653I-000394J0000000D01*
G01*
X0458957Y0071653D01*
G75*
G02*
X0458563Y0072047I0000000J0000394D01*
G01*
X0458563Y0076968D01*
G75*
G02*
X0458957Y0077362I0000394J0000000D01*
G01*
X0462106Y0077362D01*
G75*
G02*
X0462500Y0076968I0000000J-000394D01*
G01*
G37*
G36*
G01*
X0455020Y0076968D02*
X0455020Y0072047D01*
G75*
G02*
X0454626Y0071653I-000394J0000000D01*
G01*
X0451476Y0071653D01*
G75*
G02*
X0451083Y0072047I0000000J0000394D01*
G01*
X0451083Y0076968D01*
G75*
G02*
X0451476Y0077362I0000394J0000000D01*
G01*
X0454626Y0077362D01*
G75*
G02*
X0455020Y0076968I0000000J-000394D01*
G01*
G37*
G36*
G01*
X0560571Y0236122D02*
X0563642Y0236122D01*
G75*
G02*
X0563917Y0235846I0000000J-000276D01*
G01*
X0563917Y0233642D01*
G75*
G02*
X0563642Y0233366I-000276J0000000D01*
G01*
X0560571Y0233366D01*
G75*
G02*
X0560295Y0233642I0000000J0000276D01*
G01*
X0560295Y0235846D01*
G75*
G02*
X0560571Y0236122I0000276J0000000D01*
G01*
G37*
G36*
G01*
X0560571Y0229823D02*
X0563642Y0229823D01*
G75*
G02*
X0563917Y0229547I0000000J-000276D01*
G01*
X0563917Y0227342D01*
G75*
G02*
X0563642Y0227067I-000276J0000000D01*
G01*
X0560571Y0227067D01*
G75*
G02*
X0560295Y0227342I0000000J0000276D01*
G01*
X0560295Y0229547D01*
G75*
G02*
X0560571Y0229823I0000276J0000000D01*
G01*
G37*
D11*
X0223524Y0231693D03*
X0223524Y0222638D03*
X0223524Y0213583D03*
D12*
X0248327Y0222638D03*
G36*
X0191112Y0200370D02*
G01*
X0196226Y0203323D01*
X0200163Y0196504D01*
X0195049Y0193551D01*
X0191112Y0200370D01*
G37*
G36*
X0183270Y0195842D02*
G01*
X0188384Y0198795D01*
X0192321Y0191976D01*
X0187207Y0189023D01*
X0183270Y0195842D01*
G37*
G36*
X0175428Y0191315D02*
G01*
X0180542Y0194268D01*
X0184479Y0187449D01*
X0179365Y0184496D01*
X0175428Y0191315D01*
G37*
G36*
X0191750Y0172099D02*
G01*
X0204706Y0179579D01*
X0208643Y0172760D01*
X0195687Y0165279D01*
X0191750Y0172099D01*
G37*
G36*
G01*
X0503642Y0055669D02*
X0503642Y0052598D01*
G75*
G02*
X0503366Y0052323I-000276J0000000D01*
G01*
X0501161Y0052323D01*
G75*
G02*
X0500886Y0052598I0000000J0000276D01*
G01*
X0500886Y0055669D01*
G75*
G02*
X0501161Y0055945I0000276J0000000D01*
G01*
X0503366Y0055945D01*
G75*
G02*
X0503642Y0055669I0000000J-000276D01*
G01*
G37*
G36*
G01*
X0497342Y0055669D02*
X0497342Y0052598D01*
G75*
G02*
X0497067Y0052323I-000276J0000000D01*
G01*
X0494862Y0052323D01*
G75*
G02*
X0494587Y0052598I0000000J0000276D01*
G01*
X0494587Y0055669D01*
G75*
G02*
X0494862Y0055945I0000276J0000000D01*
G01*
X0497067Y0055945D01*
G75*
G02*
X0497342Y0055669I0000000J-000276D01*
G01*
G37*
G36*
X0211274Y0126455D02*
G01*
X0207098Y0122279D01*
X0201530Y0127847D01*
X0205706Y0132022D01*
X0211274Y0126455D01*
G37*
G36*
X0217676Y0132858D02*
G01*
X0213501Y0128682D01*
X0207933Y0134249D01*
X0212109Y0138425D01*
X0217676Y0132858D01*
G37*
G36*
X0224079Y0139260D02*
G01*
X0219904Y0135085D01*
X0214336Y0140652D01*
X0218512Y0144828D01*
X0224079Y0139260D01*
G37*
G36*
X0203339Y0153597D02*
G01*
X0192761Y0143019D01*
X0187193Y0148586D01*
X0197772Y0159165D01*
X0203339Y0153597D01*
G37*
G36*
G01*
X0257421Y0180118D02*
X0260492Y0180118D01*
G75*
G02*
X0260768Y0179842I0000000J-000276D01*
G01*
X0260768Y0177638D01*
G75*
G02*
X0260492Y0177362I-000276J0000000D01*
G01*
X0257421Y0177362D01*
G75*
G02*
X0257146Y0177638I0000000J0000276D01*
G01*
X0257146Y0179842D01*
G75*
G02*
X0257421Y0180118I0000276J0000000D01*
G01*
G37*
G36*
G01*
X0257421Y0173819D02*
X0260492Y0173819D01*
G75*
G02*
X0260768Y0173543I0000000J-000276D01*
G01*
X0260768Y0171339D01*
G75*
G02*
X0260492Y0171063I-000276J0000000D01*
G01*
X0257421Y0171063D01*
G75*
G02*
X0257146Y0171339I0000000J0000276D01*
G01*
X0257146Y0173543D01*
G75*
G02*
X0257421Y0173819I0000276J0000000D01*
G01*
G37*
G36*
G01*
X0441398Y0233366D02*
X0438327Y0233366D01*
G75*
G02*
X0438051Y0233642I0000000J0000276D01*
G01*
X0438051Y0235846D01*
G75*
G02*
X0438327Y0236122I0000276J0000000D01*
G01*
X0441398Y0236122D01*
G75*
G02*
X0441673Y0235846I0000000J-000276D01*
G01*
X0441673Y0233642D01*
G75*
G02*
X0441398Y0233366I-000276J0000000D01*
G01*
G37*
G36*
G01*
X0441398Y0239665D02*
X0438327Y0239665D01*
G75*
G02*
X0438051Y0239941I0000000J0000276D01*
G01*
X0438051Y0242146D01*
G75*
G02*
X0438327Y0242421I0000276J0000000D01*
G01*
X0441398Y0242421D01*
G75*
G02*
X0441673Y0242146I0000000J-000276D01*
G01*
X0441673Y0239941D01*
G75*
G02*
X0441398Y0239665I-000276J0000000D01*
G01*
G37*
G36*
G01*
X0261083Y0099803D02*
X0258012Y0099803D01*
G75*
G02*
X0257736Y0100079I0000000J0000276D01*
G01*
X0257736Y0102283D01*
G75*
G02*
X0258012Y0102559I0000276J0000000D01*
G01*
X0261083Y0102559D01*
G75*
G02*
X0261358Y0102283I0000000J-000276D01*
G01*
X0261358Y0100079D01*
G75*
G02*
X0261083Y0099803I-000276J0000000D01*
G01*
G37*
G36*
G01*
X0261083Y0106102D02*
X0258012Y0106102D01*
G75*
G02*
X0257736Y0106378I0000000J0000276D01*
G01*
X0257736Y0108583D01*
G75*
G02*
X0258012Y0108858I0000276J0000000D01*
G01*
X0261083Y0108858D01*
G75*
G02*
X0261358Y0108583I0000000J-000276D01*
G01*
X0261358Y0106378D01*
G75*
G02*
X0261083Y0106102I-000276J0000000D01*
G01*
G37*
G36*
G01*
X0161161Y0205118D02*
X0164232Y0205118D01*
G75*
G02*
X0164508Y0204842I0000000J-000276D01*
G01*
X0164508Y0202638D01*
G75*
G02*
X0164232Y0202362I-000276J0000000D01*
G01*
X0161161Y0202362D01*
G75*
G02*
X0160886Y0202638I0000000J0000276D01*
G01*
X0160886Y0204842D01*
G75*
G02*
X0161161Y0205118I0000276J0000000D01*
G01*
G37*
G36*
G01*
X0161161Y0198819D02*
X0164232Y0198819D01*
G75*
G02*
X0164508Y0198543I0000000J-000276D01*
G01*
X0164508Y0196339D01*
G75*
G02*
X0164232Y0196063I-000276J0000000D01*
G01*
X0161161Y0196063D01*
G75*
G02*
X0160886Y0196339I0000000J0000276D01*
G01*
X0160886Y0198543D01*
G75*
G02*
X0161161Y0198819I0000276J0000000D01*
G01*
G37*
D73*
X0572835Y0074902D03*
X0575866Y0016535D03*
X0603346Y0021555D03*
D11*
X0244193Y0165748D03*
X0244193Y0156693D03*
X0244193Y0147638D03*
D12*
X0268996Y0156693D03*
G36*
X0160600Y0191512D02*
G01*
X0165714Y0194465D01*
X0169651Y0187645D01*
X0164537Y0184693D01*
X0160600Y0191512D01*
G37*
G36*
X0152758Y0186984D02*
G01*
X0157872Y0189937D01*
X0161809Y0183118D01*
X0156695Y0180165D01*
X0152758Y0186984D01*
G37*
G36*
X0144916Y0182457D02*
G01*
X0150030Y0185409D01*
X0153967Y0178590D01*
X0148853Y0175638D01*
X0144916Y0182457D01*
G37*
G36*
X0161238Y0163240D02*
G01*
X0174195Y0170721D01*
X0178132Y0163901D01*
X0165175Y0156421D01*
X0161238Y0163240D01*
G37*
D11*
X0222342Y0200984D03*
X0222342Y0191929D03*
X0222342Y0182874D03*
D12*
X0247146Y0191929D03*
G36*
G01*
X0142776Y0285531D02*
X0139705Y0285531D01*
G75*
G02*
X0139429Y0285807I0000000J0000276D01*
G01*
X0139429Y0288012D01*
G75*
G02*
X0139705Y0288287I0000276J0000000D01*
G01*
X0142776Y0288287D01*
G75*
G02*
X0143051Y0288012I0000000J-000276D01*
G01*
X0143051Y0285807D01*
G75*
G02*
X0142776Y0285531I-000276J0000000D01*
G01*
G37*
G36*
G01*
X0142776Y0291831D02*
X0139705Y0291831D01*
G75*
G02*
X0139429Y0292106I0000000J0000276D01*
G01*
X0139429Y0294311D01*
G75*
G02*
X0139705Y0294587I0000276J0000000D01*
G01*
X0142776Y0294587D01*
G75*
G02*
X0143051Y0294311I0000000J-000276D01*
G01*
X0143051Y0292106D01*
G75*
G02*
X0142776Y0291831I-000276J0000000D01*
G01*
G37*
G36*
G01*
X0547697Y0117067D02*
X0545020Y0117067D01*
G75*
G02*
X0544685Y0117401I0000000J0000335D01*
G01*
X0544685Y0120079D01*
G75*
G02*
X0545020Y0120413I0000335J0000000D01*
G01*
X0547697Y0120413D01*
G75*
G02*
X0548031Y0120079I0000000J-000335D01*
G01*
X0548031Y0117401D01*
G75*
G02*
X0547697Y0117067I-000335J0000000D01*
G01*
G37*
G36*
G01*
X0547697Y0123287D02*
X0545020Y0123287D01*
G75*
G02*
X0544685Y0123622I0000000J0000335D01*
G01*
X0544685Y0126299D01*
G75*
G02*
X0545020Y0126634I0000335J0000000D01*
G01*
X0547697Y0126634D01*
G75*
G02*
X0548031Y0126299I0000000J-000335D01*
G01*
X0548031Y0123622D01*
G75*
G02*
X0547697Y0123287I-000335J0000000D01*
G01*
G37*
G36*
X0185206Y0239642D02*
G01*
X0190320Y0242594D01*
X0194257Y0235775D01*
X0189143Y0232823D01*
X0185206Y0239642D01*
G37*
G36*
X0177364Y0235114D02*
G01*
X0182478Y0238067D01*
X0186415Y0231248D01*
X0181301Y0228295D01*
X0177364Y0235114D01*
G37*
G36*
X0169522Y0230587D02*
G01*
X0174636Y0233539D01*
X0178573Y0226720D01*
X0173459Y0223767D01*
X0169522Y0230587D01*
G37*
G36*
X0185845Y0211370D02*
G01*
X0198801Y0218850D01*
X0202738Y0212031D01*
X0189782Y0204551D01*
X0185845Y0211370D01*
G37*
G36*
G01*
X0209794Y0112839D02*
X0207622Y0115010D01*
G75*
G02*
X0207622Y0115400I0000195J0000195D01*
G01*
X0209181Y0116959D01*
G75*
G02*
X0209571Y0116959I0000195J-000195D01*
G01*
X0211742Y0114787D01*
G75*
G02*
X0211742Y0114398I-000195J-000195D01*
G01*
X0210183Y0112839D01*
G75*
G02*
X0209794Y0112839I-000195J0000195D01*
G01*
G37*
G36*
G01*
X0214248Y0117293D02*
X0212076Y0119464D01*
G75*
G02*
X0212076Y0119854I0000195J0000195D01*
G01*
X0213635Y0121413D01*
G75*
G02*
X0214025Y0121413I0000195J-000195D01*
G01*
X0216197Y0119242D01*
G75*
G02*
X0216197Y0118852I-000195J-000195D01*
G01*
X0214638Y0117293D01*
G75*
G02*
X0214248Y0117293I-000195J0000195D01*
G01*
G37*
D50*
X0475689Y0045945D03*
X0478839Y0045945D03*
X0483957Y0045945D03*
X0487894Y0045945D03*
X0489862Y0045945D03*
X0493799Y0045945D03*
X0498917Y0045945D03*
X0502067Y0045945D03*
X0500886Y0045945D03*
X0497736Y0045945D03*
X0495768Y0045945D03*
X0491831Y0045945D03*
X0485925Y0045945D03*
X0481988Y0045945D03*
X0480020Y0045945D03*
X0476870Y0045945D03*
G36*
G01*
X0095061Y0182537D02*
X0092674Y0181159D01*
G75*
G02*
X0091329Y0181520I-000492J0000852D01*
G01*
X0087983Y0187316D01*
G75*
G02*
X0088343Y0188660I0000852J0000492D01*
G01*
X0090730Y0190038D01*
G75*
G02*
X0092074Y0189678I0000492J-000852D01*
G01*
X0095421Y0183882D01*
G75*
G02*
X0095061Y0182537I-000852J-000492D01*
G01*
G37*
G36*
G01*
X0092009Y0199869D02*
X0084338Y0195440D01*
G75*
G02*
X0082993Y0195800I-000492J0000852D01*
G01*
X0077974Y0204495D01*
G75*
G02*
X0078334Y0205839I0000852J0000492D01*
G01*
X0086005Y0210268D01*
G75*
G02*
X0087350Y0209908I0000492J-000852D01*
G01*
X0092370Y0201214D01*
G75*
G02*
X0092009Y0199869I-000852J-000492D01*
G01*
G37*
G36*
G01*
X0102409Y0205873D02*
X0094737Y0201444D01*
G75*
G02*
X0093393Y0201804I-000492J0000852D01*
G01*
X0088373Y0210499D01*
G75*
G02*
X0088733Y0211843I0000852J0000492D01*
G01*
X0096405Y0216272D01*
G75*
G02*
X0097749Y0215912I0000492J-000852D01*
G01*
X0102769Y0207218D01*
G75*
G02*
X0102409Y0205873I-000852J-000492D01*
G01*
G37*
G36*
G01*
X0085415Y0211291D02*
X0077743Y0206862D01*
G75*
G02*
X0076399Y0207222I-000492J0000852D01*
G01*
X0071379Y0215917D01*
G75*
G02*
X0071740Y0217261I0000852J0000492D01*
G01*
X0079411Y0221690D01*
G75*
G02*
X0080756Y0221330I0000492J-000852D01*
G01*
X0085775Y0212636D01*
G75*
G02*
X0085415Y0211291I-000852J-000492D01*
G01*
G37*
G36*
G01*
X0095814Y0217295D02*
X0088143Y0212866D01*
G75*
G02*
X0086798Y0213226I-000492J0000852D01*
G01*
X0081778Y0221921D01*
G75*
G02*
X0082139Y0223265I0000852J0000492D01*
G01*
X0089810Y0227694D01*
G75*
G02*
X0091155Y0227334I0000492J-000852D01*
G01*
X0096174Y0218640D01*
G75*
G02*
X0095814Y0217295I-000852J-000492D01*
G01*
G37*
G36*
G01*
X0110608Y0191514D02*
X0108221Y0190136D01*
G75*
G02*
X0106877Y0190496I-000492J0000852D01*
G01*
X0103530Y0196292D01*
G75*
G02*
X0103891Y0197637I0000852J0000492D01*
G01*
X0106277Y0199015D01*
G75*
G02*
X0107622Y0198654I0000492J-000852D01*
G01*
X0110968Y0192858D01*
G75*
G02*
X0110608Y0191514I-000852J-000492D01*
G01*
G37*
G36*
G01*
X0109842Y0287894D02*
X0109842Y0286713D01*
G75*
G02*
X0109252Y0286122I-000591J0000000D01*
G01*
X0104626Y0286122D01*
G75*
G02*
X0104035Y0286713I0000000J0000591D01*
G01*
X0104035Y0287894D01*
G75*
G02*
X0104626Y0288484I0000591J0000000D01*
G01*
X0109252Y0288484D01*
G75*
G02*
X0109842Y0287894I0000000J-000591D01*
G01*
G37*
G36*
G01*
X0102461Y0291634D02*
X0102461Y0290453D01*
G75*
G02*
X0101870Y0289862I-000591J0000000D01*
G01*
X0097244Y0289862D01*
G75*
G02*
X0096654Y0290453I0000000J0000591D01*
G01*
X0096654Y0291634D01*
G75*
G02*
X0097244Y0292224I0000591J0000000D01*
G01*
X0101870Y0292224D01*
G75*
G02*
X0102461Y0291634I0000000J-000591D01*
G01*
G37*
G36*
G01*
X0109842Y0295374D02*
X0109842Y0294193D01*
G75*
G02*
X0109252Y0293602I-000591J0000000D01*
G01*
X0104626Y0293602D01*
G75*
G02*
X0104035Y0294193I0000000J0000591D01*
G01*
X0104035Y0295374D01*
G75*
G02*
X0104626Y0295964I0000591J0000000D01*
G01*
X0109252Y0295964D01*
G75*
G02*
X0109842Y0295374I0000000J-000591D01*
G01*
G37*
G36*
G01*
X0272185Y0245374D02*
X0275256Y0245374D01*
G75*
G02*
X0275531Y0245098I0000000J-000276D01*
G01*
X0275531Y0242894D01*
G75*
G02*
X0275256Y0242618I-000276J0000000D01*
G01*
X0272185Y0242618D01*
G75*
G02*
X0271909Y0242894I0000000J0000276D01*
G01*
X0271909Y0245098D01*
G75*
G02*
X0272185Y0245374I0000276J0000000D01*
G01*
G37*
G36*
G01*
X0272185Y0239075D02*
X0275256Y0239075D01*
G75*
G02*
X0275531Y0238799I0000000J-000276D01*
G01*
X0275531Y0236594D01*
G75*
G02*
X0275256Y0236319I-000276J0000000D01*
G01*
X0272185Y0236319D01*
G75*
G02*
X0271909Y0236594I0000000J0000276D01*
G01*
X0271909Y0238799D01*
G75*
G02*
X0272185Y0239075I0000276J0000000D01*
G01*
G37*
G36*
G01*
X0129345Y0189671D02*
X0126958Y0188293D01*
G75*
G02*
X0125614Y0188653I-000492J0000852D01*
G01*
X0122267Y0194449D01*
G75*
G02*
X0122627Y0195794I0000852J0000492D01*
G01*
X0125014Y0197172D01*
G75*
G02*
X0126359Y0196812I0000492J-000852D01*
G01*
X0129705Y0191015D01*
G75*
G02*
X0129345Y0189671I-000852J-000492D01*
G01*
G37*
G36*
G01*
X0126294Y0207003D02*
X0118622Y0202574D01*
G75*
G02*
X0117278Y0202934I-000492J0000852D01*
G01*
X0112258Y0211628D01*
G75*
G02*
X0112618Y0212973I0000852J0000492D01*
G01*
X0120290Y0217402D01*
G75*
G02*
X0121634Y0217042I0000492J-000852D01*
G01*
X0126654Y0208347D01*
G75*
G02*
X0126294Y0207003I-000852J-000492D01*
G01*
G37*
G36*
G01*
X0136693Y0213007D02*
X0129021Y0208578D01*
G75*
G02*
X0127677Y0208938I-000492J0000852D01*
G01*
X0122657Y0217632D01*
G75*
G02*
X0123017Y0218977I0000852J0000492D01*
G01*
X0130689Y0223406D01*
G75*
G02*
X0132033Y0223046I0000492J-000852D01*
G01*
X0137053Y0214351D01*
G75*
G02*
X0136693Y0213007I-000852J-000492D01*
G01*
G37*
G36*
G01*
X0119699Y0218425D02*
X0112028Y0213996D01*
G75*
G02*
X0110683Y0214356I-000492J0000852D01*
G01*
X0105663Y0223050D01*
G75*
G02*
X0106024Y0224395I0000852J0000492D01*
G01*
X0113695Y0228824D01*
G75*
G02*
X0115040Y0228464I0000492J-000852D01*
G01*
X0120059Y0219769D01*
G75*
G02*
X0119699Y0218425I-000852J-000492D01*
G01*
G37*
G36*
G01*
X0130098Y0224429D02*
X0122427Y0220000D01*
G75*
G02*
X0121082Y0220360I-000492J0000852D01*
G01*
X0116063Y0229054D01*
G75*
G02*
X0116423Y0230399I0000852J0000492D01*
G01*
X0124094Y0234828D01*
G75*
G02*
X0125439Y0234468I0000492J-000852D01*
G01*
X0130459Y0225773D01*
G75*
G02*
X0130098Y0224429I-000852J-000492D01*
G01*
G37*
G36*
G01*
X0144892Y0198647D02*
X0142506Y0197269D01*
G75*
G02*
X0141161Y0197630I-000492J0000852D01*
G01*
X0137815Y0203426D01*
G75*
G02*
X0138175Y0204770I0000852J0000492D01*
G01*
X0140562Y0206148D01*
G75*
G02*
X0141906Y0205788I0000492J-000852D01*
G01*
X0145253Y0199992D01*
G75*
G02*
X0144892Y0198647I-000852J-000492D01*
G01*
G37*
G36*
G01*
X0192185Y0284547D02*
X0189114Y0284547D01*
G75*
G02*
X0188839Y0284823I0000000J0000276D01*
G01*
X0188839Y0287027D01*
G75*
G02*
X0189114Y0287303I0000276J0000000D01*
G01*
X0192185Y0287303D01*
G75*
G02*
X0192461Y0287027I0000000J-000276D01*
G01*
X0192461Y0284823D01*
G75*
G02*
X0192185Y0284547I-000276J0000000D01*
G01*
G37*
G36*
G01*
X0192185Y0290846D02*
X0189114Y0290846D01*
G75*
G02*
X0188839Y0291122I0000000J0000276D01*
G01*
X0188839Y0293327D01*
G75*
G02*
X0189114Y0293602I0000276J0000000D01*
G01*
X0192185Y0293602D01*
G75*
G02*
X0192461Y0293327I0000000J-000276D01*
G01*
X0192461Y0291122D01*
G75*
G02*
X0192185Y0290846I-000276J0000000D01*
G01*
G37*
G36*
G01*
X0624665Y0123130D02*
X0621594Y0123130D01*
G75*
G02*
X0621319Y0123405I0000000J0000276D01*
G01*
X0621319Y0125610D01*
G75*
G02*
X0621594Y0125886I0000276J0000000D01*
G01*
X0624665Y0125886D01*
G75*
G02*
X0624941Y0125610I0000000J-000276D01*
G01*
X0624941Y0123405D01*
G75*
G02*
X0624665Y0123130I-000276J0000000D01*
G01*
G37*
G36*
G01*
X0624665Y0129429D02*
X0621594Y0129429D01*
G75*
G02*
X0621319Y0129705I0000000J0000276D01*
G01*
X0621319Y0131909D01*
G75*
G02*
X0621594Y0132185I0000276J0000000D01*
G01*
X0624665Y0132185D01*
G75*
G02*
X0624941Y0131909I0000000J-000276D01*
G01*
X0624941Y0129705D01*
G75*
G02*
X0624665Y0129429I-000276J0000000D01*
G01*
G37*
G36*
G01*
X0062416Y0174415D02*
X0060029Y0173037D01*
G75*
G02*
X0058684Y0173397I-000492J0000852D01*
G01*
X0055338Y0179193D01*
G75*
G02*
X0055698Y0180538I0000852J0000492D01*
G01*
X0058085Y0181916D01*
G75*
G02*
X0059429Y0181556I0000492J-000852D01*
G01*
X0062776Y0175759D01*
G75*
G02*
X0062416Y0174415I-000852J-000492D01*
G01*
G37*
G36*
G01*
X0059365Y0191747D02*
X0051693Y0187318D01*
G75*
G02*
X0050349Y0187678I-000492J0000852D01*
G01*
X0045329Y0196372D01*
G75*
G02*
X0045689Y0197717I0000852J0000492D01*
G01*
X0053361Y0202146D01*
G75*
G02*
X0054705Y0201786I0000492J-000852D01*
G01*
X0059725Y0193091D01*
G75*
G02*
X0059365Y0191747I-000852J-000492D01*
G01*
G37*
G36*
G01*
X0069764Y0197751D02*
X0062092Y0193322D01*
G75*
G02*
X0060748Y0193682I-000492J0000852D01*
G01*
X0055728Y0202376D01*
G75*
G02*
X0056088Y0203721I0000852J0000492D01*
G01*
X0063760Y0208150D01*
G75*
G02*
X0065104Y0207790I0000492J-000852D01*
G01*
X0070124Y0199095D01*
G75*
G02*
X0069764Y0197751I-000852J-000492D01*
G01*
G37*
G36*
G01*
X0052770Y0203169D02*
X0045099Y0198740D01*
G75*
G02*
X0043754Y0199100I-000492J0000852D01*
G01*
X0038734Y0207794D01*
G75*
G02*
X0039095Y0209139I0000852J0000492D01*
G01*
X0046766Y0213568D01*
G75*
G02*
X0048111Y0213208I0000492J-000852D01*
G01*
X0053130Y0204513D01*
G75*
G02*
X0052770Y0203169I-000852J-000492D01*
G01*
G37*
G36*
G01*
X0063169Y0209173D02*
X0055498Y0204744D01*
G75*
G02*
X0054153Y0205104I-000492J0000852D01*
G01*
X0049133Y0213798D01*
G75*
G02*
X0049494Y0215143I0000852J0000492D01*
G01*
X0057165Y0219572D01*
G75*
G02*
X0058510Y0219212I0000492J-000852D01*
G01*
X0063529Y0210517D01*
G75*
G02*
X0063169Y0209173I-000852J-000492D01*
G01*
G37*
G36*
G01*
X0077963Y0183391D02*
X0075576Y0182013D01*
G75*
G02*
X0074232Y0182374I-000492J0000852D01*
G01*
X0070885Y0188170D01*
G75*
G02*
X0071246Y0189514I0000852J0000492D01*
G01*
X0073632Y0190892D01*
G75*
G02*
X0074977Y0190532I0000492J-000852D01*
G01*
X0078323Y0184736D01*
G75*
G02*
X0077963Y0183391I-000852J-000492D01*
G01*
G37*
G36*
G01*
X0132431Y0287697D02*
X0132431Y0286516D01*
G75*
G02*
X0131841Y0285925I-000591J0000000D01*
G01*
X0127215Y0285925D01*
G75*
G02*
X0126624Y0286516I0000000J0000591D01*
G01*
X0126624Y0287697D01*
G75*
G02*
X0127215Y0288287I0000591J0000000D01*
G01*
X0131841Y0288287D01*
G75*
G02*
X0132431Y0287697I0000000J-000591D01*
G01*
G37*
G36*
G01*
X0125049Y0291437D02*
X0125049Y0290256D01*
G75*
G02*
X0124459Y0289665I-000591J0000000D01*
G01*
X0119833Y0289665D01*
G75*
G02*
X0119242Y0290256I0000000J0000591D01*
G01*
X0119242Y0291437D01*
G75*
G02*
X0119833Y0292027I0000591J0000000D01*
G01*
X0124459Y0292027D01*
G75*
G02*
X0125049Y0291437I0000000J-000591D01*
G01*
G37*
G36*
G01*
X0132431Y0295177D02*
X0132431Y0293996D01*
G75*
G02*
X0131841Y0293405I-000591J0000000D01*
G01*
X0127215Y0293405D01*
G75*
G02*
X0126624Y0293996I0000000J0000591D01*
G01*
X0126624Y0295177D01*
G75*
G02*
X0127215Y0295768I0000591J0000000D01*
G01*
X0131841Y0295768D01*
G75*
G02*
X0132431Y0295177I0000000J-000591D01*
G01*
G37*
G36*
G01*
X0168110Y0286122D02*
X0168110Y0284941D01*
G75*
G02*
X0167520Y0284350I-000591J0000000D01*
G01*
X0162894Y0284350D01*
G75*
G02*
X0162303Y0284941I0000000J0000591D01*
G01*
X0162303Y0286122D01*
G75*
G02*
X0162894Y0286713I0000591J0000000D01*
G01*
X0167520Y0286713D01*
G75*
G02*
X0168110Y0286122I0000000J-000591D01*
G01*
G37*
G36*
G01*
X0160728Y0289862D02*
X0160728Y0288681D01*
G75*
G02*
X0160138Y0288090I-000591J0000000D01*
G01*
X0155512Y0288090D01*
G75*
G02*
X0154921Y0288681I0000000J0000591D01*
G01*
X0154921Y0289862D01*
G75*
G02*
X0155512Y0290453I0000591J0000000D01*
G01*
X0160138Y0290453D01*
G75*
G02*
X0160728Y0289862I0000000J-000591D01*
G01*
G37*
G36*
G01*
X0168110Y0293602D02*
X0168110Y0292421D01*
G75*
G02*
X0167520Y0291831I-000591J0000000D01*
G01*
X0162894Y0291831D01*
G75*
G02*
X0162303Y0292421I0000000J0000591D01*
G01*
X0162303Y0293602D01*
G75*
G02*
X0162894Y0294193I0000591J0000000D01*
G01*
X0167520Y0294193D01*
G75*
G02*
X0168110Y0293602I0000000J-000591D01*
G01*
G37*
D11*
X0248524Y0132283D03*
X0248524Y0123228D03*
X0248524Y0114173D03*
D12*
X0273327Y0123228D03*
G36*
G01*
X0205660Y0231394D02*
X0203001Y0229858D01*
G75*
G02*
X0202624Y0229959I-000138J0000239D01*
G01*
X0201522Y0231869D01*
G75*
G02*
X0201623Y0232245I0000239J0000138D01*
G01*
X0204282Y0233781D01*
G75*
G02*
X0204659Y0233680I0000138J-000239D01*
G01*
X0205761Y0231770D01*
G75*
G02*
X0205660Y0231394I-000239J-000138D01*
G01*
G37*
G36*
G01*
X0202511Y0236849D02*
X0199851Y0235314D01*
G75*
G02*
X0199475Y0235415I-000138J0000239D01*
G01*
X0198373Y0237324D01*
G75*
G02*
X0198473Y0237700I0000239J0000138D01*
G01*
X0201133Y0239236D01*
G75*
G02*
X0201509Y0239135I0000138J-000239D01*
G01*
X0202612Y0237226D01*
G75*
G02*
X0202511Y0236849I-000239J-000138D01*
G01*
G37*
G36*
G01*
X0186417Y0285925D02*
X0186417Y0284744D01*
G75*
G02*
X0185827Y0284153I-000591J0000000D01*
G01*
X0181201Y0284153D01*
G75*
G02*
X0180610Y0284744I0000000J0000591D01*
G01*
X0180610Y0285925D01*
G75*
G02*
X0181201Y0286516I0000591J0000000D01*
G01*
X0185827Y0286516D01*
G75*
G02*
X0186417Y0285925I0000000J-000591D01*
G01*
G37*
G36*
G01*
X0179035Y0289665D02*
X0179035Y0288484D01*
G75*
G02*
X0178445Y0287894I-000591J0000000D01*
G01*
X0173819Y0287894D01*
G75*
G02*
X0173228Y0288484I0000000J0000591D01*
G01*
X0173228Y0289665D01*
G75*
G02*
X0173819Y0290256I0000591J0000000D01*
G01*
X0178445Y0290256D01*
G75*
G02*
X0179035Y0289665I0000000J-000591D01*
G01*
G37*
G36*
G01*
X0186417Y0293405D02*
X0186417Y0292224D01*
G75*
G02*
X0185827Y0291634I-000591J0000000D01*
G01*
X0181201Y0291634D01*
G75*
G02*
X0180610Y0292224I0000000J0000591D01*
G01*
X0180610Y0293405D01*
G75*
G02*
X0181201Y0293996I0000591J0000000D01*
G01*
X0185827Y0293996D01*
G75*
G02*
X0186417Y0293405I0000000J-000591D01*
G01*
G37*
G36*
G01*
X0451457Y0184744D02*
X0448740Y0184744D01*
G75*
G02*
X0447835Y0185650I0000000J0000906D01*
G01*
X0447835Y0190925D01*
G75*
G02*
X0448740Y0191831I0000906J0000000D01*
G01*
X0451457Y0191831D01*
G75*
G02*
X0452362Y0190925I0000000J-000906D01*
G01*
X0452362Y0185650D01*
G75*
G02*
X0451457Y0184744I-000906J0000000D01*
G01*
G37*
G36*
G01*
X0462874Y0184744D02*
X0460157Y0184744D01*
G75*
G02*
X0459252Y0185650I0000000J0000906D01*
G01*
X0459252Y0190925D01*
G75*
G02*
X0460157Y0191831I0000906J0000000D01*
G01*
X0462874Y0191831D01*
G75*
G02*
X0463780Y0190925I0000000J-000906D01*
G01*
X0463780Y0185650D01*
G75*
G02*
X0462874Y0184744I-000906J0000000D01*
G01*
G37*
D65*
X0553888Y0189961D03*
X0553888Y0184055D03*
X0553888Y0178150D03*
X0553888Y0172244D03*
X0553888Y0166339D03*
X0553888Y0160433D03*
X0553888Y0154527D03*
X0553888Y0148622D03*
X0553888Y0142716D03*
X0553888Y0136811D03*
X0553888Y0130905D03*
X0553888Y0125000D03*
X0553888Y0119094D03*
X0603888Y0119094D03*
X0603888Y0125000D03*
X0603888Y0130905D03*
X0603888Y0136811D03*
X0603888Y0142716D03*
X0603888Y0148622D03*
X0603888Y0154527D03*
X0603888Y0160433D03*
X0603888Y0166339D03*
X0603888Y0172244D03*
X0603888Y0178150D03*
X0603888Y0184055D03*
X0603888Y0189961D03*
G36*
G01*
X0028131Y0171120D02*
X0025745Y0169742D01*
G75*
G02*
X0024400Y0170102I-000492J0000852D01*
G01*
X0021054Y0175899D01*
G75*
G02*
X0021414Y0177243I0000852J0000492D01*
G01*
X0023801Y0178621D01*
G75*
G02*
X0025145Y0178261I0000492J-000852D01*
G01*
X0028492Y0172465D01*
G75*
G02*
X0028131Y0171120I-000852J-000492D01*
G01*
G37*
G36*
G01*
X0025080Y0188452D02*
X0017409Y0184023D01*
G75*
G02*
X0016064Y0184383I-000492J0000852D01*
G01*
X0011045Y0193077D01*
G75*
G02*
X0011405Y0194422I0000852J0000492D01*
G01*
X0019076Y0198851D01*
G75*
G02*
X0020421Y0198491I0000492J-000852D01*
G01*
X0025441Y0189796D01*
G75*
G02*
X0025080Y0188452I-000852J-000492D01*
G01*
G37*
G36*
G01*
X0035479Y0194456D02*
X0027808Y0190027D01*
G75*
G02*
X0026463Y0190387I-000492J0000852D01*
G01*
X0021444Y0199081D01*
G75*
G02*
X0021804Y0200426I0000852J0000492D01*
G01*
X0029475Y0204855D01*
G75*
G02*
X0030820Y0204495I0000492J-000852D01*
G01*
X0035840Y0195800D01*
G75*
G02*
X0035479Y0194456I-000852J-000492D01*
G01*
G37*
G36*
G01*
X0018486Y0199874D02*
X0010814Y0195445D01*
G75*
G02*
X0009470Y0195805I-000492J0000852D01*
G01*
X0004450Y0204499D01*
G75*
G02*
X0004810Y0205844I0000852J0000492D01*
G01*
X0012482Y0210273D01*
G75*
G02*
X0013826Y0209913I0000492J-000852D01*
G01*
X0018846Y0201218D01*
G75*
G02*
X0018486Y0199874I-000852J-000492D01*
G01*
G37*
G36*
G01*
X0028885Y0205878D02*
X0021213Y0201449D01*
G75*
G02*
X0019869Y0201809I-000492J0000852D01*
G01*
X0014849Y0210503D01*
G75*
G02*
X0015210Y0211848I0000852J0000492D01*
G01*
X0022881Y0216277D01*
G75*
G02*
X0024226Y0215917I0000492J-000852D01*
G01*
X0029245Y0207222D01*
G75*
G02*
X0028885Y0205878I-000852J-000492D01*
G01*
G37*
G36*
G01*
X0043679Y0180096D02*
X0041292Y0178718D01*
G75*
G02*
X0039948Y0179079I-000492J0000852D01*
G01*
X0036601Y0184875D01*
G75*
G02*
X0036962Y0186219I0000852J0000492D01*
G01*
X0039348Y0187597D01*
G75*
G02*
X0040693Y0187237I0000492J-000852D01*
G01*
X0044039Y0181441D01*
G75*
G02*
X0043679Y0180096I-000852J-000492D01*
G01*
G37*
G36*
G01*
X0494910Y0176260D02*
X0492990Y0178180D01*
G75*
G02*
X0492990Y0179461I0000640J0000640D01*
G01*
X0496720Y0183191D01*
G75*
G02*
X0498001Y0183191I0000640J-000640D01*
G01*
X0499921Y0181271D01*
G75*
G02*
X0499921Y0179990I-000640J-000640D01*
G01*
X0496191Y0176260D01*
G75*
G02*
X0494910Y0176260I-000640J0000640D01*
G01*
G37*
G36*
G01*
X0502984Y0168186D02*
X0501063Y0170107D01*
G75*
G02*
X0501063Y0171388I0000640J0000640D01*
G01*
X0504793Y0175118D01*
G75*
G02*
X0506074Y0175118I0000640J-000640D01*
G01*
X0507995Y0173197D01*
G75*
G02*
X0507995Y0171917I-000640J-000640D01*
G01*
X0504264Y0168186D01*
G75*
G02*
X0502984Y0168186I-000640J0000640D01*
G01*
G37*
G36*
G01*
X0448878Y0227264D02*
X0445807Y0227264D01*
G75*
G02*
X0445531Y0227539I0000000J0000276D01*
G01*
X0445531Y0229744D01*
G75*
G02*
X0445807Y0230020I0000276J0000000D01*
G01*
X0448878Y0230020D01*
G75*
G02*
X0449154Y0229744I0000000J-000276D01*
G01*
X0449154Y0227539D01*
G75*
G02*
X0448878Y0227264I-000276J0000000D01*
G01*
G37*
G36*
G01*
X0448878Y0233563D02*
X0445807Y0233563D01*
G75*
G02*
X0445531Y0233839I0000000J0000276D01*
G01*
X0445531Y0236043D01*
G75*
G02*
X0445807Y0236319I0000276J0000000D01*
G01*
X0448878Y0236319D01*
G75*
G02*
X0449154Y0236043I0000000J-000276D01*
G01*
X0449154Y0233839D01*
G75*
G02*
X0448878Y0233563I-000276J0000000D01*
G01*
G37*
G36*
G01*
X0208023Y0198028D02*
X0205363Y0196492D01*
G75*
G02*
X0204987Y0196593I-000138J0000239D01*
G01*
X0203884Y0198503D01*
G75*
G02*
X0203985Y0198879I0000239J0000138D01*
G01*
X0206645Y0200414D01*
G75*
G02*
X0207021Y0200314I0000138J-000239D01*
G01*
X0208123Y0198404D01*
G75*
G02*
X0208023Y0198028I-000239J-000138D01*
G01*
G37*
G36*
G01*
X0204873Y0203483D02*
X0202214Y0201948D01*
G75*
G02*
X0201837Y0202048I-000138J0000239D01*
G01*
X0200735Y0203958D01*
G75*
G02*
X0200836Y0204334I0000239J0000138D01*
G01*
X0203495Y0205870D01*
G75*
G02*
X0203872Y0205769I0000138J-000239D01*
G01*
X0204974Y0203860D01*
G75*
G02*
X0204873Y0203483I-000239J-000138D01*
G01*
G37*
G36*
G01*
X0467618Y0051024D02*
X0467618Y0054094D01*
G75*
G02*
X0467894Y0054370I0000276J0000000D01*
G01*
X0470098Y0054370D01*
G75*
G02*
X0470374Y0054094I0000000J-000276D01*
G01*
X0470374Y0051024D01*
G75*
G02*
X0470098Y0050748I-000276J0000000D01*
G01*
X0467894Y0050748D01*
G75*
G02*
X0467618Y0051024I0000000J0000276D01*
G01*
G37*
G36*
G01*
X0473917Y0051024D02*
X0473917Y0054094D01*
G75*
G02*
X0474193Y0054370I0000276J0000000D01*
G01*
X0476398Y0054370D01*
G75*
G02*
X0476673Y0054094I0000000J-000276D01*
G01*
X0476673Y0051024D01*
G75*
G02*
X0476398Y0050748I-000276J0000000D01*
G01*
X0474193Y0050748D01*
G75*
G02*
X0473917Y0051024I0000000J0000276D01*
G01*
G37*
X0450492Y0141929D02*
G01*
G75*
D346*
X0474859Y0096850D02*
D03*
X0457142Y0096850D02*
D03*
D347*
X0499311Y0100177D02*
D03*
X0499311Y0127539D02*
D03*
D348*
X0476083Y0111417D02*
D03*
X0476083Y0127559D02*
D03*
D349*
X0457972Y0109646D02*
D03*
X0457972Y0125394D02*
D03*
D350*
X0519750Y0132585D02*
D03*
X0516010Y0123333D02*
D03*
D350*
X0523490Y0123333D02*
D03*
D351*
X0529429Y0100498D02*
D03*
D351*
X0525689Y0100498D02*
D03*
X0521949Y0100498D02*
D03*
X0521949Y0092034D02*
D03*
X0529429Y0092034D02*
D03*
D352*
X0515428Y0088182D02*
D03*
X0515428Y0101174D02*
D03*
D353*
X0515716Y0106468D02*
D03*
X0515716Y0117886D02*
D03*
D354*
X0483169Y0087283D02*
D03*
X0483169Y0093504D02*
D03*
X0483169Y0097874D02*
D03*
X0483169Y0104094D02*
D03*
D355*
X0460280Y0137960D02*
D03*
X0464414Y0137960D02*
D03*
X0502154Y0087405D02*
D03*
X0506288Y0087405D02*
D03*
X0497441Y0087405D02*
D03*
X0493307Y0087405D02*
D03*
X0477792Y0086513D02*
D03*
X0473658Y0086513D02*
D03*
D356*
X0521999Y0105616D02*
D03*
X0525936Y0105616D02*
D03*
X0522901Y0119291D02*
D03*
X0522901Y0110630D02*
D03*
X0529298Y0119291D02*
D03*
X0529298Y0110630D02*
D03*
D357*
X0529429Y0127664D02*
D03*
X0529429Y0124120D02*
D03*
D358*
X0506091Y0091663D02*
D03*
X0502547Y0091663D02*
D03*
X0497047Y0091663D02*
D03*
X0493504Y0091663D02*
D03*
X0465491Y0086513D02*
D03*
X0469035Y0086513D02*
D03*
X0626673Y0069094D02*
G01*
G75*
D276*
X0616449Y0083799D02*
D03*
X0623929Y0083799D02*
D03*
X0623929Y0075334D02*
D03*
X0620189Y0075334D02*
D03*
X0616449Y0099448D02*
D03*
X0623929Y0099448D02*
D03*
X0623929Y0090984D02*
D03*
X0620189Y0090984D02*
D03*
D276*
X0616449Y0075334D02*
D03*
X0616449Y0090984D02*
D03*
X0339469Y0262402D02*
%LPD*%
G01*
G36*
G01*
X0285375Y0246575D02*
X0285375Y0247914D01*
G75*
G02*
X0285926Y0248465I0000551J0000000D01*
G01*
X0287028Y0248465D01*
G75*
G02*
X0287579Y0247914I0000000J-000551D01*
G01*
X0287579Y0246575D01*
G75*
G02*
X0287028Y0246024I-000551J0000000D01*
G01*
X0285926Y0246024D01*
G75*
G02*
X0285375Y0246575I0000000J0000551D01*
G01*
G37*
G36*
G01*
X0281595Y0246575D02*
X0281595Y0247914D01*
G75*
G02*
X0282146Y0248465I0000551J0000000D01*
G01*
X0283249Y0248465D01*
G75*
G02*
X0283800Y0247914I0000000J-000551D01*
G01*
X0283800Y0246575D01*
G75*
G02*
X0283249Y0246024I-000551J0000000D01*
G01*
X0282146Y0246024D01*
G75*
G02*
X0281595Y0246575I0000000J0000551D01*
G01*
G37*
G36*
G01*
X0311871Y0231811D02*
X0313209Y0231811D01*
G75*
G02*
X0313760Y0231260I0000000J-000551D01*
G01*
X0313760Y0230158D01*
G75*
G02*
X0313209Y0229607I-000551J0000000D01*
G01*
X0311871Y0229607D01*
G75*
G02*
X0311319Y0230158I0000000J0000551D01*
G01*
X0311319Y0231260D01*
G75*
G02*
X0311871Y0231811I0000551J0000000D01*
G01*
G37*
G36*
G01*
X0311871Y0235591D02*
X0313209Y0235591D01*
G75*
G02*
X0313760Y0235040I0000000J-000551D01*
G01*
X0313760Y0233937D01*
G75*
G02*
X0313209Y0233386I-000551J0000000D01*
G01*
X0311871Y0233386D01*
G75*
G02*
X0311319Y0233937I0000000J0000551D01*
G01*
X0311319Y0235040D01*
G75*
G02*
X0311871Y0235591I0000551J0000000D01*
G01*
G37*
G36*
G01*
X0298780Y0260473D02*
X0300237Y0260473D01*
G75*
G02*
X0300768Y0259941I0000000J-000531D01*
G01*
X0300768Y0258878D01*
G75*
G02*
X0300237Y0258347I-000531J0000000D01*
G01*
X0298780Y0258347D01*
G75*
G02*
X0298249Y0258878I0000000J0000531D01*
G01*
X0298249Y0259941D01*
G75*
G02*
X0298780Y0260473I0000531J0000000D01*
G01*
G37*
G36*
G01*
X0298780Y0256457D02*
X0300237Y0256457D01*
G75*
G02*
X0300768Y0255926I0000000J-000531D01*
G01*
X0300768Y0254863D01*
G75*
G02*
X0300237Y0254331I-000531J0000000D01*
G01*
X0298780Y0254331D01*
G75*
G02*
X0298249Y0254863I0000000J0000531D01*
G01*
X0298249Y0255926D01*
G75*
G02*
X0298780Y0256457I0000531J0000000D01*
G01*
G37*
G36*
G01*
X0309752Y0228130D02*
X0309752Y0226949D01*
G75*
G02*
X0309162Y0226359I-000591J0000000D01*
G01*
X0302666Y0226359D01*
G75*
G02*
X0302075Y0226949I0000000J0000591D01*
G01*
X0302075Y0228130D01*
G75*
G02*
X0302666Y0228721I0000591J0000000D01*
G01*
X0309162Y0228721D01*
G75*
G02*
X0309752Y0228130I0000000J-000591D01*
G01*
G37*
G36*
G01*
X0309752Y0233130D02*
X0309752Y0231949D01*
G75*
G02*
X0309162Y0231359I-000591J0000000D01*
G01*
X0302666Y0231359D01*
G75*
G02*
X0302075Y0231949I0000000J0000591D01*
G01*
X0302075Y0233130D01*
G75*
G02*
X0302666Y0233721I0000591J0000000D01*
G01*
X0309162Y0233721D01*
G75*
G02*
X0309752Y0233130I0000000J-000591D01*
G01*
G37*
G36*
G01*
X0309752Y0238130D02*
X0309752Y0236949D01*
G75*
G02*
X0309162Y0236359I-000591J0000000D01*
G01*
X0302666Y0236359D01*
G75*
G02*
X0302075Y0236949I0000000J0000591D01*
G01*
X0302075Y0238130D01*
G75*
G02*
X0302666Y0238721I0000591J0000000D01*
G01*
X0309162Y0238721D01*
G75*
G02*
X0309752Y0238130I0000000J-000591D01*
G01*
G37*
G36*
G01*
X0309752Y0243130D02*
X0309752Y0241949D01*
G75*
G02*
X0309162Y0241359I-000591J0000000D01*
G01*
X0302666Y0241359D01*
G75*
G02*
X0302075Y0241949I0000000J0000591D01*
G01*
X0302075Y0243130D01*
G75*
G02*
X0302666Y0243721I0000591J0000000D01*
G01*
X0309162Y0243721D01*
G75*
G02*
X0309752Y0243130I0000000J-000591D01*
G01*
G37*
G36*
G01*
X0290264Y0243130D02*
X0290264Y0241949D01*
G75*
G02*
X0289674Y0241359I-000591J0000000D01*
G01*
X0283178Y0241359D01*
G75*
G02*
X0282587Y0241949I0000000J0000591D01*
G01*
X0282587Y0243130D01*
G75*
G02*
X0283178Y0243721I0000591J0000000D01*
G01*
X0289674Y0243721D01*
G75*
G02*
X0290264Y0243130I0000000J-000591D01*
G01*
G37*
G36*
G01*
X0290264Y0238130D02*
X0290264Y0236949D01*
G75*
G02*
X0289674Y0236359I-000591J0000000D01*
G01*
X0283178Y0236359D01*
G75*
G02*
X0282587Y0236949I0000000J0000591D01*
G01*
X0282587Y0238130D01*
G75*
G02*
X0283178Y0238721I0000591J0000000D01*
G01*
X0289674Y0238721D01*
G75*
G02*
X0290264Y0238130I0000000J-000591D01*
G01*
G37*
G36*
G01*
X0290264Y0233130D02*
X0290264Y0231949D01*
G75*
G02*
X0289674Y0231359I-000591J0000000D01*
G01*
X0283178Y0231359D01*
G75*
G02*
X0282587Y0231949I0000000J0000591D01*
G01*
X0282587Y0233130D01*
G75*
G02*
X0283178Y0233721I0000591J0000000D01*
G01*
X0289674Y0233721D01*
G75*
G02*
X0290264Y0233130I0000000J-000591D01*
G01*
G37*
G36*
G01*
X0290264Y0228130D02*
X0290264Y0226949D01*
G75*
G02*
X0289674Y0226359I-000591J0000000D01*
G01*
X0283178Y0226359D01*
G75*
G02*
X0282587Y0226949I0000000J0000591D01*
G01*
X0282587Y0228130D01*
G75*
G02*
X0283178Y0228721I0000591J0000000D01*
G01*
X0289674Y0228721D01*
G75*
G02*
X0290264Y0228130I0000000J-000591D01*
G01*
G37*
D148*
X0324272Y0227402D03*
X0324272Y0229961D03*
X0324272Y0232520D03*
X0316792Y0232520D03*
X0316792Y0229961D03*
X0316792Y0227402D03*
G36*
G01*
X0308111Y0246490D02*
X0306654Y0246490D01*
G75*
G02*
X0306123Y0247022I0000000J0000531D01*
G01*
X0306123Y0248085D01*
G75*
G02*
X0306654Y0248616I0000531J0000000D01*
G01*
X0308111Y0248616D01*
G75*
G02*
X0308642Y0248085I0000000J-000531D01*
G01*
X0308642Y0247022D01*
G75*
G02*
X0308111Y0246490I-000531J0000000D01*
G01*
G37*
G36*
G01*
X0308111Y0250506D02*
X0306654Y0250506D01*
G75*
G02*
X0306123Y0251037I0000000J0000531D01*
G01*
X0306123Y0252100D01*
G75*
G02*
X0306654Y0252632I0000531J0000000D01*
G01*
X0308111Y0252632D01*
G75*
G02*
X0308642Y0252100I0000000J-000531D01*
G01*
X0308642Y0251037D01*
G75*
G02*
X0308111Y0250506I-000531J0000000D01*
G01*
G37*
G36*
G01*
X0302776Y0252553D02*
X0304115Y0252553D01*
G75*
G02*
X0304666Y0252002I0000000J-000551D01*
G01*
X0304666Y0250900D01*
G75*
G02*
X0304115Y0250348I-000551J0000000D01*
G01*
X0302776Y0250348D01*
G75*
G02*
X0302225Y0250900I0000000J0000551D01*
G01*
X0302225Y0252002D01*
G75*
G02*
X0302776Y0252553I0000551J0000000D01*
G01*
G37*
G36*
G01*
X0302776Y0248774D02*
X0304115Y0248774D01*
G75*
G02*
X0304666Y0248222I0000000J-000551D01*
G01*
X0304666Y0247120D01*
G75*
G02*
X0304115Y0246569I-000551J0000000D01*
G01*
X0302776Y0246569D01*
G75*
G02*
X0302225Y0247120I0000000J0000551D01*
G01*
X0302225Y0248222D01*
G75*
G02*
X0302776Y0248774I0000551J0000000D01*
G01*
G37*
G36*
G01*
X0306654Y0260473D02*
X0308111Y0260473D01*
G75*
G02*
X0308642Y0259941I0000000J-000531D01*
G01*
X0308642Y0258878D01*
G75*
G02*
X0308111Y0258347I-000531J0000000D01*
G01*
X0306654Y0258347D01*
G75*
G02*
X0306123Y0258878I0000000J0000531D01*
G01*
X0306123Y0259941D01*
G75*
G02*
X0306654Y0260473I0000531J0000000D01*
G01*
G37*
G36*
G01*
X0306654Y0256457D02*
X0308111Y0256457D01*
G75*
G02*
X0308642Y0255926I0000000J-000531D01*
G01*
X0308642Y0254863D01*
G75*
G02*
X0308111Y0254331I-000531J0000000D01*
G01*
X0306654Y0254331D01*
G75*
G02*
X0306123Y0254863I0000000J0000531D01*
G01*
X0306123Y0255926D01*
G75*
G02*
X0306654Y0256457I0000531J0000000D01*
G01*
G37*
G36*
G01*
X0295060Y0254410D02*
X0293721Y0254410D01*
G75*
G02*
X0293170Y0254961I0000000J0000551D01*
G01*
X0293170Y0256063D01*
G75*
G02*
X0293721Y0256615I0000551J0000000D01*
G01*
X0295060Y0256615D01*
G75*
G02*
X0295611Y0256063I0000000J-000551D01*
G01*
X0295611Y0254961D01*
G75*
G02*
X0295060Y0254410I-000551J0000000D01*
G01*
G37*
G36*
G01*
X0295060Y0258189D02*
X0293721Y0258189D01*
G75*
G02*
X0293170Y0258741I0000000J0000551D01*
G01*
X0293170Y0259843D01*
G75*
G02*
X0293721Y0260394I0000551J0000000D01*
G01*
X0295060Y0260394D01*
G75*
G02*
X0295611Y0259843I0000000J-000551D01*
G01*
X0295611Y0258741D01*
G75*
G02*
X0295060Y0258189I-000551J0000000D01*
G01*
G37*
G36*
G01*
X0318189Y0250552D02*
X0316851Y0250552D01*
G75*
G02*
X0316300Y0251103I0000000J0000551D01*
G01*
X0316300Y0252205D01*
G75*
G02*
X0316851Y0252756I0000551J0000000D01*
G01*
X0318189Y0252756D01*
G75*
G02*
X0318741Y0252205I0000000J-000551D01*
G01*
X0318741Y0251103D01*
G75*
G02*
X0318189Y0250552I-000551J0000000D01*
G01*
G37*
G36*
G01*
X0318189Y0254331D02*
X0316851Y0254331D01*
G75*
G02*
X0316300Y0254882I0000000J0000551D01*
G01*
X0316300Y0255985D01*
G75*
G02*
X0316851Y0256536I0000551J0000000D01*
G01*
X0318189Y0256536D01*
G75*
G02*
X0318741Y0255985I0000000J-000551D01*
G01*
X0318741Y0254882D01*
G75*
G02*
X0318189Y0254331I-000551J0000000D01*
G01*
G37*
G36*
G01*
X0312599Y0247304D02*
X0312599Y0248760D01*
G75*
G02*
X0313130Y0249292I0000531J0000000D01*
G01*
X0314193Y0249292D01*
G75*
G02*
X0314725Y0248760I0000000J-000531D01*
G01*
X0314725Y0247304D01*
G75*
G02*
X0314193Y0246772I-000531J0000000D01*
G01*
X0313130Y0246772D01*
G75*
G02*
X0312599Y0247304I0000000J0000531D01*
G01*
G37*
G36*
G01*
X0316615Y0247304D02*
X0316615Y0248760D01*
G75*
G02*
X0317146Y0249292I0000531J0000000D01*
G01*
X0318209Y0249292D01*
G75*
G02*
X0318741Y0248760I0000000J-000531D01*
G01*
X0318741Y0247304D01*
G75*
G02*
X0318209Y0246772I-000531J0000000D01*
G01*
X0317146Y0246772D01*
G75*
G02*
X0316615Y0247304I0000000J0000531D01*
G01*
G37*
G36*
G01*
X0336024Y0239592D02*
X0336024Y0237574D01*
G75*
G02*
X0335163Y0236713I-000861J0000000D01*
G01*
X0333440Y0236713D01*
G75*
G02*
X0332579Y0237574I0000000J0000861D01*
G01*
X0332579Y0239592D01*
G75*
G02*
X0333440Y0240453I0000861J0000000D01*
G01*
X0335163Y0240453D01*
G75*
G02*
X0336024Y0239592I0000000J-000861D01*
G01*
G37*
G36*
G01*
X0329823Y0239592D02*
X0329823Y0237574D01*
G75*
G02*
X0328962Y0236713I-000861J0000000D01*
G01*
X0327240Y0236713D01*
G75*
G02*
X0326378Y0237574I0000000J0000861D01*
G01*
X0326378Y0239592D01*
G75*
G02*
X0327240Y0240453I0000861J0000000D01*
G01*
X0328962Y0240453D01*
G75*
G02*
X0329823Y0239592I0000000J-000861D01*
G01*
G37*
G36*
G01*
X0329508Y0232737D02*
X0329508Y0234193D01*
G75*
G02*
X0330040Y0234725I0000531J0000000D01*
G01*
X0331103Y0234725D01*
G75*
G02*
X0331634Y0234193I0000000J-000531D01*
G01*
X0331634Y0232737D01*
G75*
G02*
X0331103Y0232205I-000531J0000000D01*
G01*
X0330040Y0232205D01*
G75*
G02*
X0329508Y0232737I0000000J0000531D01*
G01*
G37*
G36*
G01*
X0333524Y0232737D02*
X0333524Y0234193D01*
G75*
G02*
X0334056Y0234725I0000531J0000000D01*
G01*
X0335119Y0234725D01*
G75*
G02*
X0335650Y0234193I0000000J-000531D01*
G01*
X0335650Y0232737D01*
G75*
G02*
X0335119Y0232205I-000531J0000000D01*
G01*
X0334056Y0232205D01*
G75*
G02*
X0333524Y0232737I0000000J0000531D01*
G01*
G37*
G36*
G01*
X0318741Y0244823D02*
X0318741Y0243367D01*
G75*
G02*
X0318209Y0242835I-000531J0000000D01*
G01*
X0317146Y0242835D01*
G75*
G02*
X0316615Y0243367I0000000J0000531D01*
G01*
X0316615Y0244823D01*
G75*
G02*
X0317146Y0245355I0000531J0000000D01*
G01*
X0318209Y0245355D01*
G75*
G02*
X0318741Y0244823I0000000J-000531D01*
G01*
G37*
G36*
G01*
X0314725Y0244823D02*
X0314725Y0243367D01*
G75*
G02*
X0314193Y0242835I-000531J0000000D01*
G01*
X0313130Y0242835D01*
G75*
G02*
X0312599Y0243367I0000000J0000531D01*
G01*
X0312599Y0244823D01*
G75*
G02*
X0313130Y0245355I0000531J0000000D01*
G01*
X0314193Y0245355D01*
G75*
G02*
X0314725Y0244823I0000000J-000531D01*
G01*
G37*
G36*
G01*
X0313426Y0250614D02*
X0311969Y0250614D01*
G75*
G02*
X0311438Y0251145I0000000J0000531D01*
G01*
X0311438Y0252208D01*
G75*
G02*
X0311969Y0252740I0000531J0000000D01*
G01*
X0313426Y0252740D01*
G75*
G02*
X0313957Y0252208I0000000J-000531D01*
G01*
X0313957Y0251145D01*
G75*
G02*
X0313426Y0250614I-000531J0000000D01*
G01*
G37*
G36*
G01*
X0313426Y0254630D02*
X0311969Y0254630D01*
G75*
G02*
X0311438Y0255161I0000000J0000531D01*
G01*
X0311438Y0256224D01*
G75*
G02*
X0311969Y0256755I0000531J0000000D01*
G01*
X0313426Y0256755D01*
G75*
G02*
X0313957Y0256224I0000000J-000531D01*
G01*
X0313957Y0255161D01*
G75*
G02*
X0313426Y0254630I-000531J0000000D01*
G01*
G37*
G36*
G01*
X0330768Y0244016D02*
X0330768Y0245355D01*
G75*
G02*
X0331319Y0245906I0000551J0000000D01*
G01*
X0332422Y0245906D01*
G75*
G02*
X0332973Y0245355I0000000J-000551D01*
G01*
X0332973Y0244016D01*
G75*
G02*
X0332422Y0243465I-000551J0000000D01*
G01*
X0331319Y0243465D01*
G75*
G02*
X0330768Y0244016I0000000J0000551D01*
G01*
G37*
G36*
G01*
X0334548Y0244016D02*
X0334548Y0245355D01*
G75*
G02*
X0335099Y0245906I0000551J0000000D01*
G01*
X0336201Y0245906D01*
G75*
G02*
X0336752Y0245355I0000000J-000551D01*
G01*
X0336752Y0244016D01*
G75*
G02*
X0336201Y0243465I-000551J0000000D01*
G01*
X0335099Y0243465D01*
G75*
G02*
X0334548Y0244016I0000000J0000551D01*
G01*
G37*
G36*
G01*
X0293721Y0252553D02*
X0295060Y0252553D01*
G75*
G02*
X0295611Y0252002I0000000J-000551D01*
G01*
X0295611Y0250900D01*
G75*
G02*
X0295060Y0250348I-000551J0000000D01*
G01*
X0293721Y0250348D01*
G75*
G02*
X0293170Y0250900I0000000J0000551D01*
G01*
X0293170Y0252002D01*
G75*
G02*
X0293721Y0252553I0000551J0000000D01*
G01*
G37*
G36*
G01*
X0293721Y0248774D02*
X0295060Y0248774D01*
G75*
G02*
X0295611Y0248222I0000000J-000551D01*
G01*
X0295611Y0247120D01*
G75*
G02*
X0295060Y0246569I-000551J0000000D01*
G01*
X0293721Y0246569D01*
G75*
G02*
X0293170Y0247120I0000000J0000551D01*
G01*
X0293170Y0248222D01*
G75*
G02*
X0293721Y0248774I0000551J0000000D01*
G01*
G37*
G36*
G01*
X0318741Y0260079D02*
X0318741Y0258622D01*
G75*
G02*
X0318209Y0258091I-000531J0000000D01*
G01*
X0317146Y0258091D01*
G75*
G02*
X0316615Y0258622I0000000J0000531D01*
G01*
X0316615Y0260079D01*
G75*
G02*
X0317146Y0260611I0000531J0000000D01*
G01*
X0318209Y0260611D01*
G75*
G02*
X0318741Y0260079I0000000J-000531D01*
G01*
G37*
G36*
G01*
X0314725Y0260079D02*
X0314725Y0258622D01*
G75*
G02*
X0314193Y0258091I-000531J0000000D01*
G01*
X0313130Y0258091D01*
G75*
G02*
X0312599Y0258622I0000000J0000531D01*
G01*
X0312599Y0260079D01*
G75*
G02*
X0313130Y0260611I0000531J0000000D01*
G01*
X0314193Y0260611D01*
G75*
G02*
X0314725Y0260079I0000000J-000531D01*
G01*
G37*
D149*
X0289482Y0258859D03*
X0286923Y0258859D03*
X0284364Y0258859D03*
X0284364Y0251378D03*
X0286923Y0251378D03*
X0289482Y0251378D03*
G36*
G01*
X0335431Y0250073D02*
X0335431Y0248892D01*
G75*
G02*
X0334840Y0248301I-000591J0000000D01*
G01*
X0330805Y0248301D01*
G75*
G02*
X0330214Y0248892I0000000J0000591D01*
G01*
X0330214Y0250073D01*
G75*
G02*
X0330805Y0250663I0000591J0000000D01*
G01*
X0334840Y0250663D01*
G75*
G02*
X0335431Y0250073I0000000J-000591D01*
G01*
G37*
G36*
G01*
X0335431Y0253813D02*
X0335431Y0252632D01*
G75*
G02*
X0334840Y0252041I-000591J0000000D01*
G01*
X0330805Y0252041D01*
G75*
G02*
X0330214Y0252632I0000000J0000591D01*
G01*
X0330214Y0253813D01*
G75*
G02*
X0330805Y0254404I0000591J0000000D01*
G01*
X0334840Y0254404D01*
G75*
G02*
X0335431Y0253813I0000000J-000591D01*
G01*
G37*
G36*
G01*
X0335431Y0257553D02*
X0335431Y0256372D01*
G75*
G02*
X0334840Y0255782I-000591J0000000D01*
G01*
X0330805Y0255782D01*
G75*
G02*
X0330214Y0256372I0000000J0000591D01*
G01*
X0330214Y0257553D01*
G75*
G02*
X0330805Y0258144I0000591J0000000D01*
G01*
X0334840Y0258144D01*
G75*
G02*
X0335431Y0257553I0000000J-000591D01*
G01*
G37*
G36*
G01*
X0326474Y0257553D02*
X0326474Y0256372D01*
G75*
G02*
X0325884Y0255782I-000591J0000000D01*
G01*
X0321848Y0255782D01*
G75*
G02*
X0321258Y0256372I0000000J0000591D01*
G01*
X0321258Y0257553D01*
G75*
G02*
X0321848Y0258144I0000591J0000000D01*
G01*
X0325884Y0258144D01*
G75*
G02*
X0326474Y0257553I0000000J-000591D01*
G01*
G37*
G36*
G01*
X0326474Y0253813D02*
X0326474Y0252632D01*
G75*
G02*
X0325884Y0252041I-000591J0000000D01*
G01*
X0321848Y0252041D01*
G75*
G02*
X0321258Y0252632I0000000J0000591D01*
G01*
X0321258Y0253813D01*
G75*
G02*
X0321848Y0254404I0000591J0000000D01*
G01*
X0325884Y0254404D01*
G75*
G02*
X0326474Y0253813I0000000J-000591D01*
G01*
G37*
G36*
G01*
X0326474Y0250073D02*
X0326474Y0248892D01*
G75*
G02*
X0325884Y0248301I-000591J0000000D01*
G01*
X0321848Y0248301D01*
G75*
G02*
X0321258Y0248892I0000000J0000591D01*
G01*
X0321258Y0250073D01*
G75*
G02*
X0321848Y0250663I0000591J0000000D01*
G01*
X0325884Y0250663D01*
G75*
G02*
X0326474Y0250073I0000000J-000591D01*
G01*
G37*
G36*
G01*
X0324548Y0238189D02*
X0324548Y0236851D01*
G75*
G02*
X0323997Y0236300I-000551J0000000D01*
G01*
X0322894Y0236300D01*
G75*
G02*
X0322343Y0236851I0000000J0000551D01*
G01*
X0322343Y0238189D01*
G75*
G02*
X0322894Y0238741I0000551J0000000D01*
G01*
X0323997Y0238741D01*
G75*
G02*
X0324548Y0238189I0000000J-000551D01*
G01*
G37*
G36*
G01*
X0320768Y0238189D02*
X0320768Y0236851D01*
G75*
G02*
X0320217Y0236300I-000551J0000000D01*
G01*
X0319115Y0236300D01*
G75*
G02*
X0318563Y0236851I0000000J0000551D01*
G01*
X0318563Y0238189D01*
G75*
G02*
X0319115Y0238741I0000551J0000000D01*
G01*
X0320217Y0238741D01*
G75*
G02*
X0320768Y0238189I0000000J-000551D01*
G01*
G37*
G36*
G01*
X0302776Y0260394D02*
X0304115Y0260394D01*
G75*
G02*
X0304666Y0259843I0000000J-000551D01*
G01*
X0304666Y0258741D01*
G75*
G02*
X0304115Y0258189I-000551J0000000D01*
G01*
X0302776Y0258189D01*
G75*
G02*
X0302225Y0258741I0000000J0000551D01*
G01*
X0302225Y0259843D01*
G75*
G02*
X0302776Y0260394I0000551J0000000D01*
G01*
G37*
G36*
G01*
X0302776Y0256615D02*
X0304115Y0256615D01*
G75*
G02*
X0304666Y0256063I0000000J-000551D01*
G01*
X0304666Y0254961D01*
G75*
G02*
X0304115Y0254410I-000551J0000000D01*
G01*
X0302776Y0254410D01*
G75*
G02*
X0302225Y0254961I0000000J0000551D01*
G01*
X0302225Y0256063D01*
G75*
G02*
X0302776Y0256615I0000551J0000000D01*
G01*
G37*
G36*
G01*
X0298780Y0252632D02*
X0300237Y0252632D01*
G75*
G02*
X0300768Y0252100I0000000J-000531D01*
G01*
X0300768Y0251037D01*
G75*
G02*
X0300237Y0250506I-000531J0000000D01*
G01*
X0298780Y0250506D01*
G75*
G02*
X0298249Y0251037I0000000J0000531D01*
G01*
X0298249Y0252100D01*
G75*
G02*
X0298780Y0252632I0000531J0000000D01*
G01*
G37*
G36*
G01*
X0298780Y0248616D02*
X0300237Y0248616D01*
G75*
G02*
X0300768Y0248085I0000000J-000531D01*
G01*
X0300768Y0247022D01*
G75*
G02*
X0300237Y0246490I-000531J0000000D01*
G01*
X0298780Y0246490D01*
G75*
G02*
X0298249Y0247022I0000000J0000531D01*
G01*
X0298249Y0248085D01*
G75*
G02*
X0298780Y0248616I0000531J0000000D01*
G01*
G37*
X0548327Y0219291D02*
%LPD*%
G01*
D150*
X0514469Y0206299D03*
X0514469Y0208267D03*
X0514469Y0210236D03*
X0514469Y0212204D03*
X0514469Y0214173D03*
X0497146Y0214173D03*
X0497146Y0212204D03*
X0497146Y0210236D03*
X0497146Y0208267D03*
X0497146Y0206299D03*
G36*
G01*
X0506949Y0193110D02*
X0503878Y0193110D01*
G75*
G02*
X0503603Y0193385I0000000J0000276D01*
G01*
X0503603Y0195590D01*
G75*
G02*
X0503878Y0195866I0000276J0000000D01*
G01*
X0506949Y0195866D01*
G75*
G02*
X0507225Y0195590I0000000J-000276D01*
G01*
X0507225Y0193385D01*
G75*
G02*
X0506949Y0193110I-000276J0000000D01*
G01*
G37*
G36*
G01*
X0506949Y0199409D02*
X0503878Y0199409D01*
G75*
G02*
X0503603Y0199685I0000000J0000276D01*
G01*
X0503603Y0201889D01*
G75*
G02*
X0503878Y0202165I0000276J0000000D01*
G01*
X0506949Y0202165D01*
G75*
G02*
X0507225Y0201889I0000000J-000276D01*
G01*
X0507225Y0199685D01*
G75*
G02*
X0506949Y0199409I-000276J0000000D01*
G01*
G37*
G36*
G01*
X0492618Y0186456D02*
X0492618Y0189527D01*
G75*
G02*
X0492894Y0189803I0000276J0000000D01*
G01*
X0495099Y0189803D01*
G75*
G02*
X0495374Y0189527I0000000J-000276D01*
G01*
X0495374Y0186456D01*
G75*
G02*
X0495099Y0186181I-000276J0000000D01*
G01*
X0492894Y0186181D01*
G75*
G02*
X0492618Y0186456I0000000J0000276D01*
G01*
G37*
G36*
G01*
X0498918Y0186456D02*
X0498918Y0189527D01*
G75*
G02*
X0499193Y0189803I0000276J0000000D01*
G01*
X0501398Y0189803D01*
G75*
G02*
X0501673Y0189527I0000000J-000276D01*
G01*
X0501673Y0186456D01*
G75*
G02*
X0501398Y0186181I-000276J0000000D01*
G01*
X0499193Y0186181D01*
G75*
G02*
X0498918Y0186456I0000000J0000276D01*
G01*
G37*
G36*
G01*
X0512855Y0193110D02*
X0509784Y0193110D01*
G75*
G02*
X0509508Y0193385I0000000J0000276D01*
G01*
X0509508Y0195590D01*
G75*
G02*
X0509784Y0195866I0000276J0000000D01*
G01*
X0512855Y0195866D01*
G75*
G02*
X0513130Y0195590I0000000J-000276D01*
G01*
X0513130Y0193385D01*
G75*
G02*
X0512855Y0193110I-000276J0000000D01*
G01*
G37*
G36*
G01*
X0512855Y0199409D02*
X0509784Y0199409D01*
G75*
G02*
X0509508Y0199685I0000000J0000276D01*
G01*
X0509508Y0201889D01*
G75*
G02*
X0509784Y0202165I0000276J0000000D01*
G01*
X0512855Y0202165D01*
G75*
G02*
X0513130Y0201889I0000000J-000276D01*
G01*
X0513130Y0199685D01*
G75*
G02*
X0512855Y0199409I-000276J0000000D01*
G01*
G37*
G36*
G01*
X0504528Y0186786D02*
X0504528Y0188804D01*
G75*
G02*
X0505389Y0189665I0000861J0000000D01*
G01*
X0507111Y0189665D01*
G75*
G02*
X0507973Y0188804I0000000J-000861D01*
G01*
X0507973Y0186786D01*
G75*
G02*
X0507111Y0185925I-000861J0000000D01*
G01*
X0505389Y0185925D01*
G75*
G02*
X0504528Y0186786I0000000J0000861D01*
G01*
G37*
G36*
G01*
X0510729Y0186786D02*
X0510729Y0188804D01*
G75*
G02*
X0511590Y0189665I0000861J0000000D01*
G01*
X0513312Y0189665D01*
G75*
G02*
X0514173Y0188804I0000000J-000861D01*
G01*
X0514173Y0186786D01*
G75*
G02*
X0513312Y0185925I-000861J0000000D01*
G01*
X0511590Y0185925D01*
G75*
G02*
X0510729Y0186786I0000000J0000861D01*
G01*
G37*
G36*
G01*
X0498583Y0193748D02*
X0498583Y0196425D01*
G75*
G02*
X0498918Y0196760I0000335J0000000D01*
G01*
X0501595Y0196760D01*
G75*
G02*
X0501929Y0196425I0000000J-000335D01*
G01*
X0501929Y0193748D01*
G75*
G02*
X0501595Y0193413I-000335J0000000D01*
G01*
X0498918Y0193413D01*
G75*
G02*
X0498583Y0193748I0000000J0000335D01*
G01*
G37*
G36*
G01*
X0492362Y0193748D02*
X0492362Y0196425D01*
G75*
G02*
X0492697Y0196760I0000335J0000000D01*
G01*
X0495374Y0196760D01*
G75*
G02*
X0495709Y0196425I0000000J-000335D01*
G01*
X0495709Y0193748D01*
G75*
G02*
X0495374Y0193413I-000335J0000000D01*
G01*
X0492697Y0193413D01*
G75*
G02*
X0492362Y0193748I0000000J0000335D01*
G01*
G37*
G36*
G01*
X0492362Y0199055D02*
X0492362Y0201732D01*
G75*
G02*
X0492697Y0202067I0000335J0000000D01*
G01*
X0495374Y0202067D01*
G75*
G02*
X0495709Y0201732I0000000J-000335D01*
G01*
X0495709Y0199055D01*
G75*
G02*
X0495374Y0198720I-000335J0000000D01*
G01*
X0492697Y0198720D01*
G75*
G02*
X0492362Y0199055I0000000J0000335D01*
G01*
G37*
G36*
G01*
X0498583Y0199055D02*
X0498583Y0201732D01*
G75*
G02*
X0498918Y0202067I0000335J0000000D01*
G01*
X0501595Y0202067D01*
G75*
G02*
X0501929Y0201732I0000000J-000335D01*
G01*
X0501929Y0199055D01*
G75*
G02*
X0501595Y0198720I-000335J0000000D01*
G01*
X0498918Y0198720D01*
G75*
G02*
X0498583Y0199055I0000000J0000335D01*
G01*
G37*
G36*
G01*
X0517776Y0192854D02*
X0515099Y0192854D01*
G75*
G02*
X0514764Y0193189I0000000J0000335D01*
G01*
X0514764Y0195866D01*
G75*
G02*
X0515099Y0196200I0000335J0000000D01*
G01*
X0517776Y0196200D01*
G75*
G02*
X0518110Y0195866I0000000J-000335D01*
G01*
X0518110Y0193189D01*
G75*
G02*
X0517776Y0192854I-000335J0000000D01*
G01*
G37*
G36*
G01*
X0517776Y0199074D02*
X0515099Y0199074D01*
G75*
G02*
X0514764Y0199409I0000000J0000335D01*
G01*
X0514764Y0202086D01*
G75*
G02*
X0515099Y0202421I0000335J0000000D01*
G01*
X0517776Y0202421D01*
G75*
G02*
X0518110Y0202086I0000000J-000335D01*
G01*
X0518110Y0199409D01*
G75*
G02*
X0517776Y0199074I-000335J0000000D01*
G01*
G37*
X0082185Y0143996D02*
%LPD*%
G01*
G36*
G01*
X0117894Y0076388D02*
X0117894Y0077746D01*
G75*
G02*
X0118474Y0078327I0000581J0000000D01*
G01*
X0119636Y0078327D01*
G75*
G02*
X0120216Y0077746I0000000J-000581D01*
G01*
X0120216Y0076388D01*
G75*
G02*
X0119636Y0075807I-000581J0000000D01*
G01*
X0118474Y0075807D01*
G75*
G02*
X0117894Y0076388I0000000J0000581D01*
G01*
G37*
G36*
G01*
X0121713Y0076388D02*
X0121713Y0077746D01*
G75*
G02*
X0122293Y0078327I0000581J0000000D01*
G01*
X0123455Y0078327D01*
G75*
G02*
X0124035Y0077746I0000000J-000581D01*
G01*
X0124035Y0076388D01*
G75*
G02*
X0123455Y0075807I-000581J0000000D01*
G01*
X0122293Y0075807D01*
G75*
G02*
X0121713Y0076388I0000000J0000581D01*
G01*
G37*
G36*
G01*
X0102470Y0134961D02*
X0103829Y0134961D01*
G75*
G02*
X0104409Y0134380I0000000J-000581D01*
G01*
X0104409Y0133218D01*
G75*
G02*
X0103829Y0132638I-000581J0000000D01*
G01*
X0102470Y0132638D01*
G75*
G02*
X0101890Y0133218I0000000J0000581D01*
G01*
X0101890Y0134380D01*
G75*
G02*
X0102470Y0134961I0000581J0000000D01*
G01*
G37*
G36*
G01*
X0102470Y0131142D02*
X0103829Y0131142D01*
G75*
G02*
X0104409Y0130561I0000000J-000581D01*
G01*
X0104409Y0129400D01*
G75*
G02*
X0103829Y0128819I-000581J0000000D01*
G01*
X0102470Y0128819D01*
G75*
G02*
X0101890Y0129400I0000000J0000581D01*
G01*
X0101890Y0130561D01*
G75*
G02*
X0102470Y0131142I0000581J0000000D01*
G01*
G37*
G36*
G01*
X0117667Y0124434D02*
X0117667Y0122416D01*
G75*
G02*
X0116806Y0121555I-000861J0000000D01*
G01*
X0115084Y0121555D01*
G75*
G02*
X0114222Y0122416I0000000J0000861D01*
G01*
X0114222Y0124434D01*
G75*
G02*
X0115084Y0125295I0000861J0000000D01*
G01*
X0116806Y0125295D01*
G75*
G02*
X0117667Y0124434I0000000J-000861D01*
G01*
G37*
G36*
G01*
X0111466Y0124434D02*
X0111466Y0122416D01*
G75*
G02*
X0110605Y0121555I-000861J0000000D01*
G01*
X0108883Y0121555D01*
G75*
G02*
X0108022Y0122416I0000000J0000861D01*
G01*
X0108022Y0124434D01*
G75*
G02*
X0108883Y0125295I0000861J0000000D01*
G01*
X0110605Y0125295D01*
G75*
G02*
X0111466Y0124434I0000000J-000861D01*
G01*
G37*
G36*
G01*
X0092638Y0077943D02*
X0092638Y0076585D01*
G75*
G02*
X0092057Y0076004I-000581J0000000D01*
G01*
X0090896Y0076004D01*
G75*
G02*
X0090315Y0076585I0000000J0000581D01*
G01*
X0090315Y0077943D01*
G75*
G02*
X0090896Y0078524I0000581J0000000D01*
G01*
X0092057Y0078524D01*
G75*
G02*
X0092638Y0077943I0000000J-000581D01*
G01*
G37*
G36*
G01*
X0088819Y0077943D02*
X0088819Y0076585D01*
G75*
G02*
X0088238Y0076004I-000581J0000000D01*
G01*
X0087077Y0076004D01*
G75*
G02*
X0086496Y0076585I0000000J0000581D01*
G01*
X0086496Y0077943D01*
G75*
G02*
X0087077Y0078524I0000581J0000000D01*
G01*
X0088238Y0078524D01*
G75*
G02*
X0088819Y0077943I0000000J-000581D01*
G01*
G37*
D155*
X0108465Y0129134D03*
X0115945Y0129134D03*
X0112205Y0137008D03*
G36*
G01*
X0092638Y0082126D02*
X0092638Y0080768D01*
G75*
G02*
X0092057Y0080187I-000581J0000000D01*
G01*
X0090896Y0080187D01*
G75*
G02*
X0090315Y0080768I0000000J0000581D01*
G01*
X0090315Y0082126D01*
G75*
G02*
X0090896Y0082707I0000581J0000000D01*
G01*
X0092057Y0082707D01*
G75*
G02*
X0092638Y0082126I0000000J-000581D01*
G01*
G37*
G36*
G01*
X0088819Y0082126D02*
X0088819Y0080768D01*
G75*
G02*
X0088238Y0080187I-000581J0000000D01*
G01*
X0087077Y0080187D01*
G75*
G02*
X0086496Y0080768I0000000J0000581D01*
G01*
X0086496Y0082126D01*
G75*
G02*
X0087077Y0082707I0000581J0000000D01*
G01*
X0088238Y0082707D01*
G75*
G02*
X0088819Y0082126I0000000J-000581D01*
G01*
G37*
G36*
G01*
X0116555Y0077746D02*
X0116555Y0076388D01*
G75*
G02*
X0115974Y0075807I-000581J0000000D01*
G01*
X0114813Y0075807D01*
G75*
G02*
X0114232Y0076388I0000000J0000581D01*
G01*
X0114232Y0077746D01*
G75*
G02*
X0114813Y0078327I0000581J0000000D01*
G01*
X0115974Y0078327D01*
G75*
G02*
X0116555Y0077746I0000000J-000581D01*
G01*
G37*
G36*
G01*
X0112736Y0077746D02*
X0112736Y0076388D01*
G75*
G02*
X0112155Y0075807I-000581J0000000D01*
G01*
X0110994Y0075807D01*
G75*
G02*
X0110413Y0076388I0000000J0000581D01*
G01*
X0110413Y0077746D01*
G75*
G02*
X0110994Y0078327I0000581J0000000D01*
G01*
X0112155Y0078327D01*
G75*
G02*
X0112736Y0077746I0000000J-000581D01*
G01*
G37*
G36*
G01*
X0128819Y0081506D02*
X0128819Y0082864D01*
G75*
G02*
X0129400Y0083445I0000581J0000000D01*
G01*
X0130561Y0083445D01*
G75*
G02*
X0131142Y0082864I0000000J-000581D01*
G01*
X0131142Y0081506D01*
G75*
G02*
X0130561Y0080925I-000581J0000000D01*
G01*
X0129400Y0080925D01*
G75*
G02*
X0128819Y0081506I0000000J0000581D01*
G01*
G37*
G36*
G01*
X0132638Y0081506D02*
X0132638Y0082864D01*
G75*
G02*
X0133218Y0083445I0000581J0000000D01*
G01*
X0134380Y0083445D01*
G75*
G02*
X0134961Y0082864I0000000J-000581D01*
G01*
X0134961Y0081506D01*
G75*
G02*
X0134380Y0080925I-000581J0000000D01*
G01*
X0133218Y0080925D01*
G75*
G02*
X0132638Y0081506I0000000J0000581D01*
G01*
G37*
G36*
G01*
X0102047Y0076388D02*
X0102047Y0077746D01*
G75*
G02*
X0102628Y0078327I0000581J0000000D01*
G01*
X0103789Y0078327D01*
G75*
G02*
X0104370Y0077746I0000000J-000581D01*
G01*
X0104370Y0076388D01*
G75*
G02*
X0103789Y0075807I-000581J0000000D01*
G01*
X0102628Y0075807D01*
G75*
G02*
X0102047Y0076388I0000000J0000581D01*
G01*
G37*
G36*
G01*
X0105866Y0076388D02*
X0105866Y0077746D01*
G75*
G02*
X0106447Y0078327I0000581J0000000D01*
G01*
X0107608Y0078327D01*
G75*
G02*
X0108189Y0077746I0000000J-000581D01*
G01*
X0108189Y0076388D01*
G75*
G02*
X0107608Y0075807I-000581J0000000D01*
G01*
X0106447Y0075807D01*
G75*
G02*
X0105866Y0076388I0000000J0000581D01*
G01*
G37*
G36*
G01*
X0128819Y0116152D02*
X0128819Y0117510D01*
G75*
G02*
X0129400Y0118090I0000581J0000000D01*
G01*
X0130561Y0118090D01*
G75*
G02*
X0131142Y0117510I0000000J-000581D01*
G01*
X0131142Y0116152D01*
G75*
G02*
X0130561Y0115571I-000581J0000000D01*
G01*
X0129400Y0115571D01*
G75*
G02*
X0128819Y0116152I0000000J0000581D01*
G01*
G37*
G36*
G01*
X0132638Y0116152D02*
X0132638Y0117510D01*
G75*
G02*
X0133218Y0118090I0000581J0000000D01*
G01*
X0134380Y0118090D01*
G75*
G02*
X0134961Y0117510I0000000J-000581D01*
G01*
X0134961Y0116152D01*
G75*
G02*
X0134380Y0115571I-000581J0000000D01*
G01*
X0133218Y0115571D01*
G75*
G02*
X0132638Y0116152I0000000J0000581D01*
G01*
G37*
D392*
X0103937Y0054685D03*
X0103937Y0066693D03*
X0090748Y0054685D03*
X0090748Y0066693D03*
D388*
X0122146Y0051713D03*
X0122146Y0069665D03*
G36*
G01*
X0102372Y0127185D02*
X0103730Y0127185D01*
G75*
G02*
X0104311Y0126604I0000000J-000581D01*
G01*
X0104311Y0125443D01*
G75*
G02*
X0103730Y0124862I-000581J0000000D01*
G01*
X0102372Y0124862D01*
G75*
G02*
X0101791Y0125443I0000000J0000581D01*
G01*
X0101791Y0126604D01*
G75*
G02*
X0102372Y0127185I0000581J0000000D01*
G01*
G37*
G36*
G01*
X0102372Y0123366D02*
X0103730Y0123366D01*
G75*
G02*
X0104311Y0122785I0000000J-000581D01*
G01*
X0104311Y0121624D01*
G75*
G02*
X0103730Y0121043I-000581J0000000D01*
G01*
X0102372Y0121043D01*
G75*
G02*
X0101791Y0121624I0000000J0000581D01*
G01*
X0101791Y0122785D01*
G75*
G02*
X0102372Y0123366I0000581J0000000D01*
G01*
G37*
G36*
G01*
X0088706Y0088681D02*
X0086688Y0088681D01*
G75*
G02*
X0085827Y0089542I0000000J0000861D01*
G01*
X0085827Y0091265D01*
G75*
G02*
X0086688Y0092126I0000861J0000000D01*
G01*
X0088706Y0092126D01*
G75*
G02*
X0089567Y0091265I0000000J-000861D01*
G01*
X0089567Y0089542D01*
G75*
G02*
X0088706Y0088681I-000861J0000000D01*
G01*
G37*
G36*
G01*
X0088706Y0094882D02*
X0086688Y0094882D01*
G75*
G02*
X0085827Y0095743I0000000J0000861D01*
G01*
X0085827Y0097465D01*
G75*
G02*
X0086688Y0098327I0000861J0000000D01*
G01*
X0088706Y0098327D01*
G75*
G02*
X0089567Y0097465I0000000J-000861D01*
G01*
X0089567Y0095743D01*
G75*
G02*
X0088706Y0094882I-000861J0000000D01*
G01*
G37*
G36*
G01*
X0092638Y0086309D02*
X0092638Y0084951D01*
G75*
G02*
X0092057Y0084370I-000581J0000000D01*
G01*
X0090896Y0084370D01*
G75*
G02*
X0090315Y0084951I0000000J0000581D01*
G01*
X0090315Y0086309D01*
G75*
G02*
X0090896Y0086890I0000581J0000000D01*
G01*
X0092057Y0086890D01*
G75*
G02*
X0092638Y0086309I0000000J-000581D01*
G01*
G37*
G36*
G01*
X0088819Y0086309D02*
X0088819Y0084951D01*
G75*
G02*
X0088238Y0084370I-000581J0000000D01*
G01*
X0087077Y0084370D01*
G75*
G02*
X0086496Y0084951I0000000J0000581D01*
G01*
X0086496Y0086309D01*
G75*
G02*
X0087077Y0086890I0000581J0000000D01*
G01*
X0088238Y0086890D01*
G75*
G02*
X0088819Y0086309I0000000J-000581D01*
G01*
G37*
G36*
G01*
X0088091Y0042200D02*
X0088091Y0044217D01*
G75*
G02*
X0088952Y0045079I0000861J0000000D01*
G01*
X0090674Y0045079D01*
G75*
G02*
X0091535Y0044217I0000000J-000861D01*
G01*
X0091535Y0042200D01*
G75*
G02*
X0090674Y0041339I-000861J0000000D01*
G01*
X0088952Y0041339D01*
G75*
G02*
X0088091Y0042200I0000000J0000861D01*
G01*
G37*
G36*
G01*
X0094291Y0042200D02*
X0094291Y0044217D01*
G75*
G02*
X0095153Y0045079I0000861J0000000D01*
G01*
X0096875Y0045079D01*
G75*
G02*
X0097736Y0044217I0000000J-000861D01*
G01*
X0097736Y0042200D01*
G75*
G02*
X0096875Y0041339I-000861J0000000D01*
G01*
X0095153Y0041339D01*
G75*
G02*
X0094291Y0042200I0000000J0000861D01*
G01*
G37*
G36*
G01*
X0086688Y0110039D02*
X0088706Y0110039D01*
G75*
G02*
X0089567Y0109178I0000000J-000861D01*
G01*
X0089567Y0107456D01*
G75*
G02*
X0088706Y0106594I-000861J0000000D01*
G01*
X0086688Y0106594D01*
G75*
G02*
X0085827Y0107456I0000000J0000861D01*
G01*
X0085827Y0109178D01*
G75*
G02*
X0086688Y0110039I0000861J0000000D01*
G01*
G37*
G36*
G01*
X0086688Y0103839D02*
X0088706Y0103839D01*
G75*
G02*
X0089567Y0102977I0000000J-000861D01*
G01*
X0089567Y0101255D01*
G75*
G02*
X0088706Y0100394I-000861J0000000D01*
G01*
X0086688Y0100394D01*
G75*
G02*
X0085827Y0101255I0000000J0000861D01*
G01*
X0085827Y0102977D01*
G75*
G02*
X0086688Y0103839I0000861J0000000D01*
G01*
G37*
G36*
G01*
X0090866Y0114360D02*
X0090866Y0113002D01*
G75*
G02*
X0090285Y0112421I-000581J0000000D01*
G01*
X0089124Y0112421D01*
G75*
G02*
X0088543Y0113002I0000000J0000581D01*
G01*
X0088543Y0114360D01*
G75*
G02*
X0089124Y0114941I0000581J0000000D01*
G01*
X0090285Y0114941D01*
G75*
G02*
X0090866Y0114360I0000000J-000581D01*
G01*
G37*
G36*
G01*
X0087047Y0114360D02*
X0087047Y0113002D01*
G75*
G02*
X0086466Y0112421I-000581J0000000D01*
G01*
X0085305Y0112421D01*
G75*
G02*
X0084724Y0113002I0000000J0000581D01*
G01*
X0084724Y0114360D01*
G75*
G02*
X0085305Y0114941I0000581J0000000D01*
G01*
X0086466Y0114941D01*
G75*
G02*
X0087047Y0114360I0000000J-000581D01*
G01*
G37*
G36*
G01*
X0103543Y0079921D02*
X0102559Y0079921D01*
G75*
G02*
X0102067Y0080413I0000000J0000492D01*
G01*
X0102067Y0085335D01*
G75*
G02*
X0102559Y0085827I0000492J0000000D01*
G01*
X0103543Y0085827D01*
G75*
G02*
X0104035Y0085335I0000000J-000492D01*
G01*
X0104035Y0080413D01*
G75*
G02*
X0103543Y0079921I-000492J0000000D01*
G01*
G37*
G36*
G01*
X0106693Y0079921D02*
X0105709Y0079921D01*
G75*
G02*
X0105216Y0080413I0000000J0000492D01*
G01*
X0105216Y0085335D01*
G75*
G02*
X0105709Y0085827I0000492J0000000D01*
G01*
X0106693Y0085827D01*
G75*
G02*
X0107185Y0085335I0000000J-000492D01*
G01*
X0107185Y0080413D01*
G75*
G02*
X0106693Y0079921I-000492J0000000D01*
G01*
G37*
G36*
G01*
X0109842Y0079921D02*
X0108858Y0079921D01*
G75*
G02*
X0108366Y0080413I0000000J0000492D01*
G01*
X0108366Y0085335D01*
G75*
G02*
X0108858Y0085827I0000492J0000000D01*
G01*
X0109842Y0085827D01*
G75*
G02*
X0110335Y0085335I0000000J-000492D01*
G01*
X0110335Y0080413D01*
G75*
G02*
X0109842Y0079921I-000492J0000000D01*
G01*
G37*
G36*
G01*
X0112992Y0079921D02*
X0112008Y0079921D01*
G75*
G02*
X0111516Y0080413I0000000J0000492D01*
G01*
X0111516Y0085335D01*
G75*
G02*
X0112008Y0085827I0000492J0000000D01*
G01*
X0112992Y0085827D01*
G75*
G02*
X0113484Y0085335I0000000J-000492D01*
G01*
X0113484Y0080413D01*
G75*
G02*
X0112992Y0079921I-000492J0000000D01*
G01*
G37*
G36*
G01*
X0116142Y0079921D02*
X0115157Y0079921D01*
G75*
G02*
X0114665Y0080413I0000000J0000492D01*
G01*
X0114665Y0085335D01*
G75*
G02*
X0115157Y0085827I0000492J0000000D01*
G01*
X0116142Y0085827D01*
G75*
G02*
X0116634Y0085335I0000000J-000492D01*
G01*
X0116634Y0080413D01*
G75*
G02*
X0116142Y0079921I-000492J0000000D01*
G01*
G37*
G36*
G01*
X0119291Y0079921D02*
X0118307Y0079921D01*
G75*
G02*
X0117815Y0080413I0000000J0000492D01*
G01*
X0117815Y0085335D01*
G75*
G02*
X0118307Y0085827I0000492J0000000D01*
G01*
X0119291Y0085827D01*
G75*
G02*
X0119783Y0085335I0000000J-000492D01*
G01*
X0119783Y0080413D01*
G75*
G02*
X0119291Y0079921I-000492J0000000D01*
G01*
G37*
G36*
G01*
X0122441Y0079921D02*
X0121457Y0079921D01*
G75*
G02*
X0120965Y0080413I0000000J0000492D01*
G01*
X0120965Y0085335D01*
G75*
G02*
X0121457Y0085827I0000492J0000000D01*
G01*
X0122441Y0085827D01*
G75*
G02*
X0122933Y0085335I0000000J-000492D01*
G01*
X0122933Y0080413D01*
G75*
G02*
X0122441Y0079921I-000492J0000000D01*
G01*
G37*
G36*
G01*
X0125591Y0079921D02*
X0124606Y0079921D01*
G75*
G02*
X0124114Y0080413I0000000J0000492D01*
G01*
X0124114Y0085335D01*
G75*
G02*
X0124606Y0085827I0000492J0000000D01*
G01*
X0125591Y0085827D01*
G75*
G02*
X0126083Y0085335I0000000J-000492D01*
G01*
X0126083Y0080413D01*
G75*
G02*
X0125591Y0079921I-000492J0000000D01*
G01*
G37*
G36*
G01*
X0132972Y0087303D02*
X0128051Y0087303D01*
G75*
G02*
X0127559Y0087795I0000000J0000492D01*
G01*
X0127559Y0088779D01*
G75*
G02*
X0128051Y0089272I0000492J0000000D01*
G01*
X0132972Y0089272D01*
G75*
G02*
X0133465Y0088779I0000000J-000492D01*
G01*
X0133465Y0087795D01*
G75*
G02*
X0132972Y0087303I-000492J0000000D01*
G01*
G37*
G36*
G01*
X0132972Y0090453D02*
X0128051Y0090453D01*
G75*
G02*
X0127559Y0090945I0000000J0000492D01*
G01*
X0127559Y0091929D01*
G75*
G02*
X0128051Y0092421I0000492J0000000D01*
G01*
X0132972Y0092421D01*
G75*
G02*
X0133465Y0091929I0000000J-000492D01*
G01*
X0133465Y0090945D01*
G75*
G02*
X0132972Y0090453I-000492J0000000D01*
G01*
G37*
G36*
G01*
X0132972Y0093602D02*
X0128051Y0093602D01*
G75*
G02*
X0127559Y0094094I0000000J0000492D01*
G01*
X0127559Y0095079D01*
G75*
G02*
X0128051Y0095571I0000492J0000000D01*
G01*
X0132972Y0095571D01*
G75*
G02*
X0133465Y0095079I0000000J-000492D01*
G01*
X0133465Y0094094D01*
G75*
G02*
X0132972Y0093602I-000492J0000000D01*
G01*
G37*
G36*
G01*
X0132972Y0096752D02*
X0128051Y0096752D01*
G75*
G02*
X0127559Y0097244I0000000J0000492D01*
G01*
X0127559Y0098228D01*
G75*
G02*
X0128051Y0098720I0000492J0000000D01*
G01*
X0132972Y0098720D01*
G75*
G02*
X0133465Y0098228I0000000J-000492D01*
G01*
X0133465Y0097244D01*
G75*
G02*
X0132972Y0096752I-000492J0000000D01*
G01*
G37*
G36*
G01*
X0132972Y0099902D02*
X0128051Y0099902D01*
G75*
G02*
X0127559Y0100394I0000000J0000492D01*
G01*
X0127559Y0101378D01*
G75*
G02*
X0128051Y0101870I0000492J0000000D01*
G01*
X0132972Y0101870D01*
G75*
G02*
X0133465Y0101378I0000000J-000492D01*
G01*
X0133465Y0100394D01*
G75*
G02*
X0132972Y0099902I-000492J0000000D01*
G01*
G37*
G36*
G01*
X0132972Y0103051D02*
X0128051Y0103051D01*
G75*
G02*
X0127559Y0103543I0000000J0000492D01*
G01*
X0127559Y0104527D01*
G75*
G02*
X0128051Y0105020I0000492J0000000D01*
G01*
X0132972Y0105020D01*
G75*
G02*
X0133465Y0104527I0000000J-000492D01*
G01*
X0133465Y0103543D01*
G75*
G02*
X0132972Y0103051I-000492J0000000D01*
G01*
G37*
G36*
G01*
X0132972Y0106201D02*
X0128051Y0106201D01*
G75*
G02*
X0127559Y0106693I0000000J0000492D01*
G01*
X0127559Y0107677D01*
G75*
G02*
X0128051Y0108169I0000492J0000000D01*
G01*
X0132972Y0108169D01*
G75*
G02*
X0133465Y0107677I0000000J-000492D01*
G01*
X0133465Y0106693D01*
G75*
G02*
X0132972Y0106201I-000492J0000000D01*
G01*
G37*
G36*
G01*
X0132972Y0109350D02*
X0128051Y0109350D01*
G75*
G02*
X0127559Y0109842I0000000J0000492D01*
G01*
X0127559Y0110827D01*
G75*
G02*
X0128051Y0111319I0000492J0000000D01*
G01*
X0132972Y0111319D01*
G75*
G02*
X0133465Y0110827I0000000J-000492D01*
G01*
X0133465Y0109842D01*
G75*
G02*
X0132972Y0109350I-000492J0000000D01*
G01*
G37*
G36*
G01*
X0125591Y0112795D02*
X0124606Y0112795D01*
G75*
G02*
X0124114Y0113287I0000000J0000492D01*
G01*
X0124114Y0118209D01*
G75*
G02*
X0124606Y0118701I0000492J0000000D01*
G01*
X0125591Y0118701D01*
G75*
G02*
X0126083Y0118209I0000000J-000492D01*
G01*
X0126083Y0113287D01*
G75*
G02*
X0125591Y0112795I-000492J0000000D01*
G01*
G37*
G36*
G01*
X0122441Y0112795D02*
X0121457Y0112795D01*
G75*
G02*
X0120965Y0113287I0000000J0000492D01*
G01*
X0120965Y0118209D01*
G75*
G02*
X0121457Y0118701I0000492J0000000D01*
G01*
X0122441Y0118701D01*
G75*
G02*
X0122933Y0118209I0000000J-000492D01*
G01*
X0122933Y0113287D01*
G75*
G02*
X0122441Y0112795I-000492J0000000D01*
G01*
G37*
G36*
G01*
X0119291Y0112795D02*
X0118307Y0112795D01*
G75*
G02*
X0117815Y0113287I0000000J0000492D01*
G01*
X0117815Y0118209D01*
G75*
G02*
X0118307Y0118701I0000492J0000000D01*
G01*
X0119291Y0118701D01*
G75*
G02*
X0119783Y0118209I0000000J-000492D01*
G01*
X0119783Y0113287D01*
G75*
G02*
X0119291Y0112795I-000492J0000000D01*
G01*
G37*
G36*
G01*
X0116142Y0112795D02*
X0115157Y0112795D01*
G75*
G02*
X0114665Y0113287I0000000J0000492D01*
G01*
X0114665Y0118209D01*
G75*
G02*
X0115157Y0118701I0000492J0000000D01*
G01*
X0116142Y0118701D01*
G75*
G02*
X0116634Y0118209I0000000J-000492D01*
G01*
X0116634Y0113287D01*
G75*
G02*
X0116142Y0112795I-000492J0000000D01*
G01*
G37*
G36*
G01*
X0112992Y0112795D02*
X0112008Y0112795D01*
G75*
G02*
X0111516Y0113287I0000000J0000492D01*
G01*
X0111516Y0118209D01*
G75*
G02*
X0112008Y0118701I0000492J0000000D01*
G01*
X0112992Y0118701D01*
G75*
G02*
X0113484Y0118209I0000000J-000492D01*
G01*
X0113484Y0113287D01*
G75*
G02*
X0112992Y0112795I-000492J0000000D01*
G01*
G37*
G36*
G01*
X0109842Y0112795D02*
X0108858Y0112795D01*
G75*
G02*
X0108366Y0113287I0000000J0000492D01*
G01*
X0108366Y0118209D01*
G75*
G02*
X0108858Y0118701I0000492J0000000D01*
G01*
X0109842Y0118701D01*
G75*
G02*
X0110335Y0118209I0000000J-000492D01*
G01*
X0110335Y0113287D01*
G75*
G02*
X0109842Y0112795I-000492J0000000D01*
G01*
G37*
G36*
G01*
X0106693Y0112795D02*
X0105709Y0112795D01*
G75*
G02*
X0105216Y0113287I0000000J0000492D01*
G01*
X0105216Y0118209D01*
G75*
G02*
X0105709Y0118701I0000492J0000000D01*
G01*
X0106693Y0118701D01*
G75*
G02*
X0107185Y0118209I0000000J-000492D01*
G01*
X0107185Y0113287D01*
G75*
G02*
X0106693Y0112795I-000492J0000000D01*
G01*
G37*
G36*
G01*
X0103543Y0112795D02*
X0102559Y0112795D01*
G75*
G02*
X0102067Y0113287I0000000J0000492D01*
G01*
X0102067Y0118209D01*
G75*
G02*
X0102559Y0118701I0000492J0000000D01*
G01*
X0103543Y0118701D01*
G75*
G02*
X0104035Y0118209I0000000J-000492D01*
G01*
X0104035Y0113287D01*
G75*
G02*
X0103543Y0112795I-000492J0000000D01*
G01*
G37*
G36*
G01*
X0100098Y0109350D02*
X0095177Y0109350D01*
G75*
G02*
X0094685Y0109842I0000000J0000492D01*
G01*
X0094685Y0110827D01*
G75*
G02*
X0095177Y0111319I0000492J0000000D01*
G01*
X0100098Y0111319D01*
G75*
G02*
X0100591Y0110827I0000000J-000492D01*
G01*
X0100591Y0109842D01*
G75*
G02*
X0100098Y0109350I-000492J0000000D01*
G01*
G37*
G36*
G01*
X0100098Y0106201D02*
X0095177Y0106201D01*
G75*
G02*
X0094685Y0106693I0000000J0000492D01*
G01*
X0094685Y0107677D01*
G75*
G02*
X0095177Y0108169I0000492J0000000D01*
G01*
X0100098Y0108169D01*
G75*
G02*
X0100591Y0107677I0000000J-000492D01*
G01*
X0100591Y0106693D01*
G75*
G02*
X0100098Y0106201I-000492J0000000D01*
G01*
G37*
G36*
G01*
X0100098Y0103051D02*
X0095177Y0103051D01*
G75*
G02*
X0094685Y0103543I0000000J0000492D01*
G01*
X0094685Y0104527D01*
G75*
G02*
X0095177Y0105020I0000492J0000000D01*
G01*
X0100098Y0105020D01*
G75*
G02*
X0100591Y0104527I0000000J-000492D01*
G01*
X0100591Y0103543D01*
G75*
G02*
X0100098Y0103051I-000492J0000000D01*
G01*
G37*
G36*
G01*
X0100098Y0099902D02*
X0095177Y0099902D01*
G75*
G02*
X0094685Y0100394I0000000J0000492D01*
G01*
X0094685Y0101378D01*
G75*
G02*
X0095177Y0101870I0000492J0000000D01*
G01*
X0100098Y0101870D01*
G75*
G02*
X0100591Y0101378I0000000J-000492D01*
G01*
X0100591Y0100394D01*
G75*
G02*
X0100098Y0099902I-000492J0000000D01*
G01*
G37*
G36*
G01*
X0100098Y0096752D02*
X0095177Y0096752D01*
G75*
G02*
X0094685Y0097244I0000000J0000492D01*
G01*
X0094685Y0098228D01*
G75*
G02*
X0095177Y0098720I0000492J0000000D01*
G01*
X0100098Y0098720D01*
G75*
G02*
X0100591Y0098228I0000000J-000492D01*
G01*
X0100591Y0097244D01*
G75*
G02*
X0100098Y0096752I-000492J0000000D01*
G01*
G37*
G36*
G01*
X0100098Y0093602D02*
X0095177Y0093602D01*
G75*
G02*
X0094685Y0094094I0000000J0000492D01*
G01*
X0094685Y0095079D01*
G75*
G02*
X0095177Y0095571I0000492J0000000D01*
G01*
X0100098Y0095571D01*
G75*
G02*
X0100591Y0095079I0000000J-000492D01*
G01*
X0100591Y0094094D01*
G75*
G02*
X0100098Y0093602I-000492J0000000D01*
G01*
G37*
G36*
G01*
X0100098Y0090453D02*
X0095177Y0090453D01*
G75*
G02*
X0094685Y0090945I0000000J0000492D01*
G01*
X0094685Y0091929D01*
G75*
G02*
X0095177Y0092421I0000492J0000000D01*
G01*
X0100098Y0092421D01*
G75*
G02*
X0100591Y0091929I0000000J-000492D01*
G01*
X0100591Y0090945D01*
G75*
G02*
X0100098Y0090453I-000492J0000000D01*
G01*
G37*
G36*
G01*
X0100098Y0087303D02*
X0095177Y0087303D01*
G75*
G02*
X0094685Y0087795I0000000J0000492D01*
G01*
X0094685Y0088779D01*
G75*
G02*
X0095177Y0089272I0000492J0000000D01*
G01*
X0100098Y0089272D01*
G75*
G02*
X0100591Y0088779I0000000J-000492D01*
G01*
X0100591Y0087795D01*
G75*
G02*
X0100098Y0087303I-000492J0000000D01*
G01*
G37*
G36*
G01*
X0121644Y0121929D02*
X0120285Y0121929D01*
G75*
G02*
X0119705Y0122510I0000000J0000581D01*
G01*
X0119705Y0123671D01*
G75*
G02*
X0120285Y0124252I0000581J0000000D01*
G01*
X0121644Y0124252D01*
G75*
G02*
X0122224Y0123671I0000000J-000581D01*
G01*
X0122224Y0122510D01*
G75*
G02*
X0121644Y0121929I-000581J0000000D01*
G01*
G37*
G36*
G01*
X0121644Y0125748D02*
X0120285Y0125748D01*
G75*
G02*
X0119705Y0126329I0000000J0000581D01*
G01*
X0119705Y0127490D01*
G75*
G02*
X0120285Y0128071I0000581J0000000D01*
G01*
X0121644Y0128071D01*
G75*
G02*
X0122224Y0127490I0000000J-000581D01*
G01*
X0122224Y0126329D01*
G75*
G02*
X0121644Y0125748I-000581J0000000D01*
G01*
G37*
G36*
G01*
X0098248Y0114852D02*
X0098248Y0113494D01*
G75*
G02*
X0097667Y0112913I-000581J0000000D01*
G01*
X0096506Y0112913D01*
G75*
G02*
X0095925Y0113494I0000000J0000581D01*
G01*
X0095925Y0114852D01*
G75*
G02*
X0096506Y0115433I0000581J0000000D01*
G01*
X0097667Y0115433D01*
G75*
G02*
X0098248Y0114852I0000000J-000581D01*
G01*
G37*
G36*
G01*
X0094429Y0114852D02*
X0094429Y0113494D01*
G75*
G02*
X0093848Y0112913I-000581J0000000D01*
G01*
X0092687Y0112913D01*
G75*
G02*
X0092106Y0113494I0000000J0000581D01*
G01*
X0092106Y0114852D01*
G75*
G02*
X0092687Y0115433I0000581J0000000D01*
G01*
X0093848Y0115433D01*
G75*
G02*
X0094429Y0114852I0000000J-000581D01*
G01*
G37*
G36*
G01*
X0120285Y0138496D02*
X0121644Y0138496D01*
G75*
G02*
X0122224Y0137915I0000000J-000581D01*
G01*
X0122224Y0136754D01*
G75*
G02*
X0121644Y0136173I-000581J0000000D01*
G01*
X0120285Y0136173D01*
G75*
G02*
X0119705Y0136754I0000000J0000581D01*
G01*
X0119705Y0137915D01*
G75*
G02*
X0120285Y0138496I0000581J0000000D01*
G01*
G37*
G36*
G01*
X0120285Y0134677D02*
X0121644Y0134677D01*
G75*
G02*
X0122224Y0134096I0000000J-000581D01*
G01*
X0122224Y0132935D01*
G75*
G02*
X0121644Y0132354I-000581J0000000D01*
G01*
X0120285Y0132354D01*
G75*
G02*
X0119705Y0132935I0000000J0000581D01*
G01*
X0119705Y0134096D01*
G75*
G02*
X0120285Y0134677I0000581J0000000D01*
G01*
G37*
D151*
X0125886Y0137008D03*
X0125886Y0129527D03*
X0133760Y0133268D03*
G36*
G01*
X0100118Y0077943D02*
X0100118Y0076585D01*
G75*
G02*
X0099537Y0076004I-000581J0000000D01*
G01*
X0098376Y0076004D01*
G75*
G02*
X0097795Y0076585I0000000J0000581D01*
G01*
X0097795Y0077943D01*
G75*
G02*
X0098376Y0078524I0000581J0000000D01*
G01*
X0099537Y0078524D01*
G75*
G02*
X0100118Y0077943I0000000J-000581D01*
G01*
G37*
G36*
G01*
X0096299Y0077943D02*
X0096299Y0076585D01*
G75*
G02*
X0095718Y0076004I-000581J0000000D01*
G01*
X0094557Y0076004D01*
G75*
G02*
X0093976Y0076585I0000000J0000581D01*
G01*
X0093976Y0077943D01*
G75*
G02*
X0094557Y0078524I0000581J0000000D01*
G01*
X0095718Y0078524D01*
G75*
G02*
X0096299Y0077943I0000000J-000581D01*
G01*
G37*
G36*
G01*
X0135157Y0124070D02*
X0135157Y0122052D01*
G75*
G02*
X0134296Y0121191I-000861J0000000D01*
G01*
X0132574Y0121191D01*
G75*
G02*
X0131713Y0122052I0000000J0000861D01*
G01*
X0131713Y0124070D01*
G75*
G02*
X0132574Y0124931I0000861J0000000D01*
G01*
X0134296Y0124931D01*
G75*
G02*
X0135157Y0124070I0000000J-000861D01*
G01*
G37*
G36*
G01*
X0128957Y0124070D02*
X0128957Y0122052D01*
G75*
G02*
X0128095Y0121191I-000861J0000000D01*
G01*
X0126373Y0121191D01*
G75*
G02*
X0125512Y0122052I0000000J0000861D01*
G01*
X0125512Y0124070D01*
G75*
G02*
X0126373Y0124931I0000861J0000000D01*
G01*
X0128095Y0124931D01*
G75*
G02*
X0128957Y0124070I0000000J-000861D01*
G01*
G37*
X0425689Y0217717D02*
G01*
G75*
D61*
X0372342Y0076378D02*
D03*
D60*
X0386122Y0076378D02*
D03*
D63*
X0292224Y0182481D02*
D03*
D58*
X0333957Y0076378D02*
D03*
X0418209Y0217323D02*
D03*
D59*
X0304429Y0217323D02*
D03*
X0409941Y0076378D02*
D03*
D56*
X0425295Y0181693D02*
D03*
D57*
X0425295Y0213189D02*
D03*
D55*
X0425295Y0127953D02*
D03*
D64*
X0292224Y0205315D02*
D03*
D62*
X0292224Y0089764D02*
D03*
D53*
X0425295Y0110434D02*
D03*
X0425295Y0086418D02*
D03*
D54*
X0425295Y0098426D02*
D03*
X0292224Y0124016D02*
D03*
D470*
X0302067Y0199627D02*
D03*
X0294980Y0199627D02*
D03*
X0294980Y0209666D02*
D03*
X0302067Y0209666D02*
D03*
X0413878Y0150886D02*
D03*
X0420965Y0150886D02*
D03*
X0420965Y0160926D02*
D03*
X0413878Y0160926D02*
D03*
X0413878Y0144784D02*
D03*
X0420965Y0144784D02*
D03*
X0420965Y0134744D02*
D03*
X0413878Y0134744D02*
D03*
D471*
X0302067Y0203071D02*
D03*
X0302067Y0206221D02*
D03*
X0294980Y0206221D02*
D03*
X0294980Y0203071D02*
D03*
X0420965Y0157481D02*
D03*
X0420965Y0154331D02*
D03*
X0413878Y0154331D02*
D03*
X0413878Y0157481D02*
D03*
X0413878Y0141339D02*
D03*
X0413878Y0138189D02*
D03*
X0420965Y0138189D02*
D03*
X0420965Y0141339D02*
D03*
D472*
X0306279Y0202623D02*
D03*
X0306279Y0200064D02*
D03*
X0306279Y0197504D02*
D03*
X0313759Y0202623D02*
D03*
X0313759Y0197504D02*
D03*
X0313759Y0200064D02*
D03*
X0313759Y0207248D02*
D03*
X0313759Y0212367D02*
D03*
X0306279Y0207248D02*
D03*
X0306279Y0209808D02*
D03*
X0306279Y0212367D02*
D03*
X0313759Y0209808D02*
D03*
D175*
X0373487Y0103347D02*
D03*
X0373487Y0105315D02*
D03*
X0373487Y0107284D02*
D03*
X0373487Y0109252D02*
D03*
X0373487Y0111221D02*
D03*
X0373487Y0113189D02*
D03*
X0373487Y0115158D02*
D03*
X0373487Y0117126D02*
D03*
X0373487Y0119095D02*
D03*
X0373487Y0123032D02*
D03*
X0373487Y0125001D02*
D03*
X0373487Y0126969D02*
D03*
X0373487Y0128938D02*
D03*
X0373487Y0130906D02*
D03*
X0373487Y0132875D02*
D03*
X0373487Y0134843D02*
D03*
X0373487Y0136812D02*
D03*
X0373487Y0138780D02*
D03*
X0373487Y0140749D02*
D03*
X0373487Y0142717D02*
D03*
X0373487Y0144685D02*
D03*
X0373487Y0146654D02*
D03*
X0373487Y0148622D02*
D03*
X0373487Y0150591D02*
D03*
X0312463Y0150591D02*
D03*
X0312463Y0148622D02*
D03*
X0312463Y0146654D02*
D03*
X0312463Y0144685D02*
D03*
X0312463Y0142717D02*
D03*
X0312463Y0140749D02*
D03*
X0312463Y0138780D02*
D03*
X0312463Y0136812D02*
D03*
X0312463Y0134843D02*
D03*
X0312463Y0132875D02*
D03*
X0312463Y0130906D02*
D03*
X0312463Y0128938D02*
D03*
X0312463Y0126969D02*
D03*
X0312463Y0125001D02*
D03*
X0312463Y0123032D02*
D03*
X0312463Y0121064D02*
D03*
X0312463Y0119095D02*
D03*
X0312463Y0117126D02*
D03*
X0312463Y0115158D02*
D03*
X0312463Y0113189D02*
D03*
X0312463Y0111221D02*
D03*
X0312463Y0109252D02*
D03*
X0312463Y0107284D02*
D03*
X0312463Y0103347D02*
D03*
X0373487Y0121064D02*
D03*
X0312463Y0105315D02*
D03*
D176*
X0366597Y0157481D02*
D03*
X0362660Y0157481D02*
D03*
X0360691Y0157481D02*
D03*
X0358723Y0157481D02*
D03*
X0356754Y0157481D02*
D03*
X0354786Y0157481D02*
D03*
X0352817Y0157481D02*
D03*
X0350849Y0157481D02*
D03*
X0348880Y0157481D02*
D03*
X0346912Y0157481D02*
D03*
X0344943Y0157481D02*
D03*
X0342975Y0157481D02*
D03*
X0341006Y0157481D02*
D03*
X0339038Y0157481D02*
D03*
X0337069Y0157481D02*
D03*
X0335101Y0157481D02*
D03*
X0333132Y0157481D02*
D03*
X0331164Y0157481D02*
D03*
X0329195Y0157481D02*
D03*
X0327227Y0157481D02*
D03*
X0325258Y0157481D02*
D03*
X0323290Y0157481D02*
D03*
X0321321Y0157481D02*
D03*
X0319353Y0157481D02*
D03*
X0319353Y0096457D02*
D03*
X0321321Y0096457D02*
D03*
X0323290Y0096457D02*
D03*
X0325258Y0096457D02*
D03*
X0327227Y0096457D02*
D03*
X0329195Y0096457D02*
D03*
X0331164Y0096457D02*
D03*
X0333132Y0096457D02*
D03*
X0335101Y0096457D02*
D03*
X0337069Y0096457D02*
D03*
X0339038Y0096457D02*
D03*
X0341006Y0096457D02*
D03*
X0342975Y0096457D02*
D03*
X0344943Y0096457D02*
D03*
X0346912Y0096457D02*
D03*
X0348880Y0096457D02*
D03*
X0350849Y0096457D02*
D03*
X0352817Y0096457D02*
D03*
X0354786Y0096457D02*
D03*
X0356754Y0096457D02*
D03*
X0358723Y0096457D02*
D03*
X0360691Y0096457D02*
D03*
X0362660Y0096457D02*
D03*
X0364628Y0096457D02*
D03*
X0366597Y0096457D02*
D03*
X0364628Y0157481D02*
D03*
D177*
X0369980Y0174410D02*
D03*
X0342028Y0174410D02*
D03*
X0397933Y0174410D02*
D03*
X0392421Y0179528D02*
D03*
X0364468Y0169292D02*
D03*
X0364468Y0171851D02*
D03*
X0364468Y0174410D02*
D03*
X0364468Y0176969D02*
D03*
X0364468Y0179528D02*
D03*
X0364468Y0182087D02*
D03*
X0364468Y0184646D02*
D03*
X0342028Y0169292D02*
D03*
X0342028Y0171851D02*
D03*
X0342028Y0176969D02*
D03*
X0342028Y0179528D02*
D03*
X0342028Y0182087D02*
D03*
X0342028Y0184646D02*
D03*
X0420374Y0169292D02*
D03*
X0420374Y0171851D02*
D03*
X0420374Y0174410D02*
D03*
X0420374Y0176969D02*
D03*
X0420374Y0179528D02*
D03*
X0420374Y0182087D02*
D03*
X0420374Y0184646D02*
D03*
X0397933Y0169292D02*
D03*
X0397933Y0171851D02*
D03*
X0397933Y0176969D02*
D03*
X0397933Y0179528D02*
D03*
X0397933Y0182087D02*
D03*
X0397933Y0184646D02*
D03*
X0392421Y0169292D02*
D03*
X0392421Y0171851D02*
D03*
X0392421Y0174410D02*
D03*
X0392421Y0176969D02*
D03*
X0392421Y0182087D02*
D03*
X0392421Y0184646D02*
D03*
X0369980Y0169292D02*
D03*
X0369980Y0171851D02*
D03*
X0369980Y0176969D02*
D03*
X0369980Y0179528D02*
D03*
X0369980Y0182087D02*
D03*
X0369980Y0184646D02*
D03*
X0314075Y0184646D02*
D03*
X0314075Y0182087D02*
D03*
X0314075Y0179528D02*
D03*
X0314075Y0176969D02*
D03*
X0314075Y0174410D02*
D03*
X0314075Y0171851D02*
D03*
X0314075Y0169292D02*
D03*
X0336516Y0184646D02*
D03*
X0336516Y0182087D02*
D03*
X0336516Y0179528D02*
D03*
X0336516Y0176969D02*
D03*
X0336516Y0174410D02*
D03*
X0336516Y0171851D02*
D03*
X0336516Y0169292D02*
D03*
D473*
X0301280Y0082284D02*
D03*
X0297539Y0082284D02*
D03*
X0305020Y0082284D02*
D03*
X0305020Y0091733D02*
D03*
X0301280Y0091733D02*
D03*
X0297539Y0091733D02*
D03*
D474*
X0299830Y0103544D02*
D03*
X0299830Y0098819D02*
D03*
X0301299Y0113091D02*
D03*
X0387839Y0086306D02*
D03*
X0374527Y0162172D02*
D03*
X0303766Y0103544D02*
D03*
X0297361Y0113091D02*
D03*
X0302661Y0150075D02*
D03*
X0298724Y0150075D02*
D03*
X0302661Y0159130D02*
D03*
X0298724Y0159130D02*
D03*
X0303766Y0098819D02*
D03*
X0383902Y0086306D02*
D03*
X0390979Y0103021D02*
D03*
X0387042Y0103021D02*
D03*
X0370590Y0162172D02*
D03*
X0370571Y0157876D02*
D03*
X0374508Y0157876D02*
D03*
D180*
X0297373Y0121726D02*
D03*
X0297373Y0123694D02*
D03*
X0303672Y0119757D02*
D03*
X0303672Y0121726D02*
D03*
X0303672Y0117789D02*
D03*
X0303672Y0123694D02*
D03*
X0297373Y0117789D02*
D03*
X0297373Y0119757D02*
D03*
D181*
X0299538Y0123891D02*
D03*
X0301507Y0123891D02*
D03*
X0301507Y0117592D02*
D03*
X0299538Y0117592D02*
D03*
D475*
X0302278Y0128741D02*
D03*
X0302278Y0145276D02*
D03*
D476*
X0330807Y0201182D02*
D03*
X0321358Y0201182D02*
D03*
X0326083Y0201182D02*
D03*
X0335531Y0201182D02*
D03*
X0321358Y0212599D02*
D03*
X0330807Y0212599D02*
D03*
X0326083Y0212599D02*
D03*
X0335531Y0212599D02*
D03*
X0341741Y0194202D02*
D03*
X0341741Y0190265D02*
D03*
X0335531Y0208662D02*
D03*
D03*
X0335531Y0204725D02*
D03*
X0330807Y0208662D02*
D03*
X0330807Y0204725D02*
D03*
X0335531Y0197245D02*
D03*
X0326083Y0208662D02*
D03*
X0326083Y0204725D02*
D03*
X0330807Y0197245D02*
D03*
X0326083Y0197245D02*
D03*
X0321358Y0208662D02*
D03*
X0321358Y0204725D02*
D03*
X0321358Y0208662D02*
D03*
X0321358Y0197245D02*
D03*
X0330807Y0208662D02*
D03*
X0326083Y0208662D02*
D03*
X0421555Y0206300D02*
D03*
X0421555Y0210237D02*
D03*
X0396949Y0208662D02*
D03*
X0396949Y0212599D02*
D03*
X0382776Y0208662D02*
D03*
X0382776Y0212599D02*
D03*
X0363878Y0204725D02*
D03*
X0363878Y0208662D02*
D03*
X0363878Y0212599D02*
D03*
X0363878Y0208662D02*
D03*
X0349705Y0204725D02*
D03*
X0349705Y0208662D02*
D03*
X0421555Y0189567D02*
D03*
X0421555Y0193504D02*
D03*
X0415846Y0208662D02*
D03*
X0415846Y0204725D02*
D03*
X0411122Y0208662D02*
D03*
X0411122Y0204725D02*
D03*
X0406398Y0208662D02*
D03*
X0406398Y0204725D02*
D03*
X0401673Y0208662D02*
D03*
X0401673Y0204725D02*
D03*
X0415846Y0208662D02*
D03*
X0415846Y0212599D02*
D03*
X0411122Y0208662D02*
D03*
X0411122Y0212599D02*
D03*
X0406398Y0208662D02*
D03*
X0406398Y0212599D02*
D03*
X0401673Y0208662D02*
D03*
X0401673Y0212599D02*
D03*
X0396949Y0208662D02*
D03*
X0396949Y0204725D02*
D03*
X0392224Y0208662D02*
D03*
X0392224Y0204725D02*
D03*
X0387500Y0208662D02*
D03*
X0387500Y0204725D02*
D03*
X0382776Y0208662D02*
D03*
X0382776Y0204725D02*
D03*
X0392224Y0208662D02*
D03*
X0392224Y0212599D02*
D03*
X0387500Y0208662D02*
D03*
X0387500Y0212599D02*
D03*
X0378051Y0204725D02*
D03*
X0378051Y0208662D02*
D03*
X0373327Y0204725D02*
D03*
X0373327Y0208662D02*
D03*
X0368602Y0204725D02*
D03*
X0368602Y0208662D02*
D03*
X0378051Y0212599D02*
D03*
X0378051Y0208662D02*
D03*
X0373327Y0212599D02*
D03*
X0373327Y0208662D02*
D03*
X0368602Y0212599D02*
D03*
X0368602Y0208662D02*
D03*
X0359153Y0204725D02*
D03*
X0359153Y0208662D02*
D03*
X0354429Y0204725D02*
D03*
X0354429Y0208662D02*
D03*
X0344980Y0204725D02*
D03*
X0344980Y0208662D02*
D03*
X0359153Y0212599D02*
D03*
X0359153Y0208662D02*
D03*
X0354429Y0212599D02*
D03*
X0354429Y0208662D02*
D03*
X0349705Y0212599D02*
D03*
X0349705Y0208662D02*
D03*
X0344980Y0212599D02*
D03*
X0344980Y0208662D02*
D03*
X0421555Y0198623D02*
D03*
X0421555Y0202560D02*
D03*
D477*
X0356791Y0195670D02*
D03*
X0375689Y0195670D02*
D03*
X0394587Y0195670D02*
D03*
X0413484Y0195670D02*
D03*
X0385138Y0191930D02*
D03*
X0385138Y0195670D02*
D03*
X0385138Y0199410D02*
D03*
X0394587Y0199410D02*
D03*
X0394587Y0191930D02*
D03*
X0404035Y0191930D02*
D03*
X0404035Y0195670D02*
D03*
X0404035Y0199410D02*
D03*
X0413484Y0199410D02*
D03*
X0413484Y0191930D02*
D03*
X0366240Y0191930D02*
D03*
X0366240Y0195670D02*
D03*
X0366240Y0199410D02*
D03*
X0375689Y0199410D02*
D03*
X0375689Y0191930D02*
D03*
X0347342Y0191930D02*
D03*
X0347342Y0195670D02*
D03*
X0347342Y0199410D02*
D03*
X0356791Y0199410D02*
D03*
X0356791Y0191930D02*
D03*
D478*
X0390776Y0098635D02*
D03*
X0372854Y0088386D02*
D03*
D186*
X0400098Y0123758D02*
D03*
X0418996Y0128758D02*
D03*
X0418996Y0113758D02*
D03*
X0418996Y0118758D02*
D03*
X0418996Y0123758D02*
D03*
X0400098Y0113758D02*
D03*
X0400098Y0118758D02*
D03*
X0400098Y0128758D02*
D03*
D479*
X0418406Y0106117D02*
D03*
X0400295Y0106117D02*
D03*
D480*
X0383944Y0137643D02*
D03*
X0400153Y0138191D02*
D03*
X0383467Y0145803D02*
D03*
X0383467Y0153414D02*
D03*
X0400153Y0145803D02*
D03*
X0400153Y0153414D02*
D03*
X0383467Y0161026D02*
D03*
X0400153Y0161026D02*
D03*
X0390637Y0137643D02*
D03*
X0390160Y0145803D02*
D03*
X0390160Y0153414D02*
D03*
X0390160Y0161026D02*
D03*
X0406846Y0145803D02*
D03*
X0406846Y0138191D02*
D03*
X0390637Y0129666D02*
D03*
X0383944Y0129666D02*
D03*
X0383944Y0122579D02*
D03*
X0390637Y0122579D02*
D03*
X0390637Y0115493D02*
D03*
X0383944Y0115493D02*
D03*
X0383944Y0108406D02*
D03*
X0390637Y0108406D02*
D03*
X0406846Y0153414D02*
D03*
X0406846Y0161026D02*
D03*
X0383944Y0080906D02*
D03*
X0390637Y0080906D02*
D03*
D481*
X0297270Y0108319D02*
D03*
X0303570Y0108319D02*
D03*
X0304630Y0154760D02*
D03*
X0298330Y0154760D02*
D03*
D482*
X0337895Y0085377D02*
D03*
X0354430Y0085377D02*
D03*
D478*
X0372854Y0080906D02*
D03*
X0363602Y0084646D02*
D03*
X0390776Y0091155D02*
D03*
X0381524Y0094895D02*
D03*
D483*
X0409350Y0081707D02*
D03*
D484*
X0409350Y0106117D02*
D03*
D117*
X0340059Y0208662D02*
D03*
X0420965Y0214567D02*
D03*
D485*
X0302868Y0190920D02*
D03*
X0302868Y0173204D02*
D03*
X0017126Y0124409D02*
%LPD*%
G01*
G36*
G01*
X0052835Y0056801D02*
X0052835Y0058159D01*
G75*
G02*
X0053415Y0058740I0000581J0000000D01*
G01*
X0054577Y0058740D01*
G75*
G02*
X0055157Y0058159I0000000J-000581D01*
G01*
X0055157Y0056801D01*
G75*
G02*
X0054577Y0056220I-000581J0000000D01*
G01*
X0053415Y0056220D01*
G75*
G02*
X0052835Y0056801I0000000J0000581D01*
G01*
G37*
G36*
G01*
X0056654Y0056801D02*
X0056654Y0058159D01*
G75*
G02*
X0057234Y0058740I0000581J0000000D01*
G01*
X0058396Y0058740D01*
G75*
G02*
X0058976Y0058159I0000000J-000581D01*
G01*
X0058976Y0056801D01*
G75*
G02*
X0058396Y0056220I-000581J0000000D01*
G01*
X0057234Y0056220D01*
G75*
G02*
X0056654Y0056801I0000000J0000581D01*
G01*
G37*
G36*
G01*
X0037411Y0115374D02*
X0038770Y0115374D01*
G75*
G02*
X0039350Y0114793I0000000J-000581D01*
G01*
X0039350Y0113631D01*
G75*
G02*
X0038770Y0113051I-000581J0000000D01*
G01*
X0037411Y0113051D01*
G75*
G02*
X0036831Y0113631I0000000J0000581D01*
G01*
X0036831Y0114793D01*
G75*
G02*
X0037411Y0115374I0000581J0000000D01*
G01*
G37*
G36*
G01*
X0037411Y0111555D02*
X0038770Y0111555D01*
G75*
G02*
X0039350Y0110974I0000000J-000581D01*
G01*
X0039350Y0109813D01*
G75*
G02*
X0038770Y0109232I-000581J0000000D01*
G01*
X0037411Y0109232D01*
G75*
G02*
X0036831Y0109813I0000000J0000581D01*
G01*
X0036831Y0110974D01*
G75*
G02*
X0037411Y0111555I0000581J0000000D01*
G01*
G37*
G36*
G01*
X0052608Y0104847D02*
X0052608Y0102829D01*
G75*
G02*
X0051747Y0101968I-000861J0000000D01*
G01*
X0050025Y0101968D01*
G75*
G02*
X0049163Y0102829I0000000J0000861D01*
G01*
X0049163Y0104847D01*
G75*
G02*
X0050025Y0105708I0000861J0000000D01*
G01*
X0051747Y0105708D01*
G75*
G02*
X0052608Y0104847I0000000J-000861D01*
G01*
G37*
G36*
G01*
X0046407Y0104847D02*
X0046407Y0102829D01*
G75*
G02*
X0045546Y0101968I-000861J0000000D01*
G01*
X0043824Y0101968D01*
G75*
G02*
X0042963Y0102829I0000000J0000861D01*
G01*
X0042963Y0104847D01*
G75*
G02*
X0043824Y0105708I0000861J0000000D01*
G01*
X0045546Y0105708D01*
G75*
G02*
X0046407Y0104847I0000000J-000861D01*
G01*
G37*
G36*
G01*
X0027579Y0058356D02*
X0027579Y0056998D01*
G75*
G02*
X0026998Y0056417I-000581J0000000D01*
G01*
X0025837Y0056417D01*
G75*
G02*
X0025256Y0056998I0000000J0000581D01*
G01*
X0025256Y0058356D01*
G75*
G02*
X0025837Y0058937I0000581J0000000D01*
G01*
X0026998Y0058937D01*
G75*
G02*
X0027579Y0058356I0000000J-000581D01*
G01*
G37*
G36*
G01*
X0023760Y0058356D02*
X0023760Y0056998D01*
G75*
G02*
X0023179Y0056417I-000581J0000000D01*
G01*
X0022018Y0056417D01*
G75*
G02*
X0021437Y0056998I0000000J0000581D01*
G01*
X0021437Y0058356D01*
G75*
G02*
X0022018Y0058937I0000581J0000000D01*
G01*
X0023179Y0058937D01*
G75*
G02*
X0023760Y0058356I0000000J-000581D01*
G01*
G37*
D155*
X0043406Y0109547D03*
X0050886Y0109547D03*
X0047146Y0117421D03*
G36*
G01*
X0027579Y0062539D02*
X0027579Y0061181D01*
G75*
G02*
X0026998Y0060600I-000581J0000000D01*
G01*
X0025837Y0060600D01*
G75*
G02*
X0025256Y0061181I0000000J0000581D01*
G01*
X0025256Y0062539D01*
G75*
G02*
X0025837Y0063120I0000581J0000000D01*
G01*
X0026998Y0063120D01*
G75*
G02*
X0027579Y0062539I0000000J-000581D01*
G01*
G37*
G36*
G01*
X0023760Y0062539D02*
X0023760Y0061181D01*
G75*
G02*
X0023179Y0060600I-000581J0000000D01*
G01*
X0022018Y0060600D01*
G75*
G02*
X0021437Y0061181I0000000J0000581D01*
G01*
X0021437Y0062539D01*
G75*
G02*
X0022018Y0063120I0000581J0000000D01*
G01*
X0023179Y0063120D01*
G75*
G02*
X0023760Y0062539I0000000J-000581D01*
G01*
G37*
G36*
G01*
X0051496Y0058159D02*
X0051496Y0056801D01*
G75*
G02*
X0050915Y0056220I-000581J0000000D01*
G01*
X0049754Y0056220D01*
G75*
G02*
X0049173Y0056801I0000000J0000581D01*
G01*
X0049173Y0058159D01*
G75*
G02*
X0049754Y0058740I0000581J0000000D01*
G01*
X0050915Y0058740D01*
G75*
G02*
X0051496Y0058159I0000000J-000581D01*
G01*
G37*
G36*
G01*
X0047677Y0058159D02*
X0047677Y0056801D01*
G75*
G02*
X0047096Y0056220I-000581J0000000D01*
G01*
X0045935Y0056220D01*
G75*
G02*
X0045354Y0056801I0000000J0000581D01*
G01*
X0045354Y0058159D01*
G75*
G02*
X0045935Y0058740I0000581J0000000D01*
G01*
X0047096Y0058740D01*
G75*
G02*
X0047677Y0058159I0000000J-000581D01*
G01*
G37*
G36*
G01*
X0063760Y0061919D02*
X0063760Y0063277D01*
G75*
G02*
X0064341Y0063858I0000581J0000000D01*
G01*
X0065502Y0063858D01*
G75*
G02*
X0066083Y0063277I0000000J-000581D01*
G01*
X0066083Y0061919D01*
G75*
G02*
X0065502Y0061338I-000581J0000000D01*
G01*
X0064341Y0061338D01*
G75*
G02*
X0063760Y0061919I0000000J0000581D01*
G01*
G37*
G36*
G01*
X0067579Y0061919D02*
X0067579Y0063277D01*
G75*
G02*
X0068159Y0063858I0000581J0000000D01*
G01*
X0069321Y0063858D01*
G75*
G02*
X0069902Y0063277I0000000J-000581D01*
G01*
X0069902Y0061919D01*
G75*
G02*
X0069321Y0061338I-000581J0000000D01*
G01*
X0068159Y0061338D01*
G75*
G02*
X0067579Y0061919I0000000J0000581D01*
G01*
G37*
G36*
G01*
X0036988Y0056801D02*
X0036988Y0058159D01*
G75*
G02*
X0037569Y0058740I0000581J0000000D01*
G01*
X0038730Y0058740D01*
G75*
G02*
X0039311Y0058159I0000000J-000581D01*
G01*
X0039311Y0056801D01*
G75*
G02*
X0038730Y0056220I-000581J0000000D01*
G01*
X0037569Y0056220D01*
G75*
G02*
X0036988Y0056801I0000000J0000581D01*
G01*
G37*
G36*
G01*
X0040807Y0056801D02*
X0040807Y0058159D01*
G75*
G02*
X0041388Y0058740I0000581J0000000D01*
G01*
X0042549Y0058740D01*
G75*
G02*
X0043130Y0058159I0000000J-000581D01*
G01*
X0043130Y0056801D01*
G75*
G02*
X0042549Y0056220I-000581J0000000D01*
G01*
X0041388Y0056220D01*
G75*
G02*
X0040807Y0056801I0000000J0000581D01*
G01*
G37*
G36*
G01*
X0063760Y0096565D02*
X0063760Y0097923D01*
G75*
G02*
X0064341Y0098503I0000581J0000000D01*
G01*
X0065502Y0098503D01*
G75*
G02*
X0066083Y0097923I0000000J-000581D01*
G01*
X0066083Y0096565D01*
G75*
G02*
X0065502Y0095984I-000581J0000000D01*
G01*
X0064341Y0095984D01*
G75*
G02*
X0063760Y0096565I0000000J0000581D01*
G01*
G37*
G36*
G01*
X0067579Y0096565D02*
X0067579Y0097923D01*
G75*
G02*
X0068159Y0098503I0000581J0000000D01*
G01*
X0069321Y0098503D01*
G75*
G02*
X0069902Y0097923I0000000J-000581D01*
G01*
X0069902Y0096565D01*
G75*
G02*
X0069321Y0095984I-000581J0000000D01*
G01*
X0068159Y0095984D01*
G75*
G02*
X0067579Y0096565I0000000J0000581D01*
G01*
G37*
D392*
X0038878Y0035098D03*
X0038878Y0047106D03*
X0025689Y0035098D03*
X0025689Y0047106D03*
D388*
X0057087Y0032126D03*
X0057087Y0050078D03*
G36*
G01*
X0037313Y0107598D02*
X0038671Y0107598D01*
G75*
G02*
X0039252Y0107017I0000000J-000581D01*
G01*
X0039252Y0105856D01*
G75*
G02*
X0038671Y0105275I-000581J0000000D01*
G01*
X0037313Y0105275D01*
G75*
G02*
X0036732Y0105856I0000000J0000581D01*
G01*
X0036732Y0107017D01*
G75*
G02*
X0037313Y0107598I0000581J0000000D01*
G01*
G37*
G36*
G01*
X0037313Y0103779D02*
X0038671Y0103779D01*
G75*
G02*
X0039252Y0103198I0000000J-000581D01*
G01*
X0039252Y0102037D01*
G75*
G02*
X0038671Y0101456I-000581J0000000D01*
G01*
X0037313Y0101456D01*
G75*
G02*
X0036732Y0102037I0000000J0000581D01*
G01*
X0036732Y0103198D01*
G75*
G02*
X0037313Y0103779I0000581J0000000D01*
G01*
G37*
G36*
G01*
X0023647Y0069094D02*
X0021629Y0069094D01*
G75*
G02*
X0020768Y0069955I0000000J0000861D01*
G01*
X0020768Y0071678D01*
G75*
G02*
X0021629Y0072539I0000861J0000000D01*
G01*
X0023647Y0072539D01*
G75*
G02*
X0024508Y0071678I0000000J-000861D01*
G01*
X0024508Y0069955D01*
G75*
G02*
X0023647Y0069094I-000861J0000000D01*
G01*
G37*
G36*
G01*
X0023647Y0075295D02*
X0021629Y0075295D01*
G75*
G02*
X0020768Y0076156I0000000J0000861D01*
G01*
X0020768Y0077878D01*
G75*
G02*
X0021629Y0078740I0000861J0000000D01*
G01*
X0023647Y0078740D01*
G75*
G02*
X0024508Y0077878I0000000J-000861D01*
G01*
X0024508Y0076156D01*
G75*
G02*
X0023647Y0075295I-000861J0000000D01*
G01*
G37*
G36*
G01*
X0027579Y0066722D02*
X0027579Y0065364D01*
G75*
G02*
X0026998Y0064783I-000581J0000000D01*
G01*
X0025837Y0064783D01*
G75*
G02*
X0025256Y0065364I0000000J0000581D01*
G01*
X0025256Y0066722D01*
G75*
G02*
X0025837Y0067303I0000581J0000000D01*
G01*
X0026998Y0067303D01*
G75*
G02*
X0027579Y0066722I0000000J-000581D01*
G01*
G37*
G36*
G01*
X0023760Y0066722D02*
X0023760Y0065364D01*
G75*
G02*
X0023179Y0064783I-000581J0000000D01*
G01*
X0022018Y0064783D01*
G75*
G02*
X0021437Y0065364I0000000J0000581D01*
G01*
X0021437Y0066722D01*
G75*
G02*
X0022018Y0067303I0000581J0000000D01*
G01*
X0023179Y0067303D01*
G75*
G02*
X0023760Y0066722I0000000J-000581D01*
G01*
G37*
G36*
G01*
X0023032Y0022613D02*
X0023032Y0024630D01*
G75*
G02*
X0023893Y0025492I0000861J0000000D01*
G01*
X0025615Y0025492D01*
G75*
G02*
X0026476Y0024630I0000000J-000861D01*
G01*
X0026476Y0022613D01*
G75*
G02*
X0025615Y0021752I-000861J0000000D01*
G01*
X0023893Y0021752D01*
G75*
G02*
X0023032Y0022613I0000000J0000861D01*
G01*
G37*
G36*
G01*
X0029232Y0022613D02*
X0029232Y0024630D01*
G75*
G02*
X0030094Y0025492I0000861J0000000D01*
G01*
X0031816Y0025492D01*
G75*
G02*
X0032677Y0024630I0000000J-000861D01*
G01*
X0032677Y0022613D01*
G75*
G02*
X0031816Y0021752I-000861J0000000D01*
G01*
X0030094Y0021752D01*
G75*
G02*
X0029232Y0022613I0000000J0000861D01*
G01*
G37*
G36*
G01*
X0021629Y0090452D02*
X0023647Y0090452D01*
G75*
G02*
X0024508Y0089591I0000000J-000861D01*
G01*
X0024508Y0087869D01*
G75*
G02*
X0023647Y0087007I-000861J0000000D01*
G01*
X0021629Y0087007D01*
G75*
G02*
X0020768Y0087869I0000000J0000861D01*
G01*
X0020768Y0089591D01*
G75*
G02*
X0021629Y0090452I0000861J0000000D01*
G01*
G37*
G36*
G01*
X0021629Y0084252D02*
X0023647Y0084252D01*
G75*
G02*
X0024508Y0083390I0000000J-000861D01*
G01*
X0024508Y0081668D01*
G75*
G02*
X0023647Y0080807I-000861J0000000D01*
G01*
X0021629Y0080807D01*
G75*
G02*
X0020768Y0081668I0000000J0000861D01*
G01*
X0020768Y0083390D01*
G75*
G02*
X0021629Y0084252I0000861J0000000D01*
G01*
G37*
G36*
G01*
X0025807Y0094773D02*
X0025807Y0093415D01*
G75*
G02*
X0025226Y0092834I-000581J0000000D01*
G01*
X0024065Y0092834D01*
G75*
G02*
X0023484Y0093415I0000000J0000581D01*
G01*
X0023484Y0094773D01*
G75*
G02*
X0024065Y0095354I0000581J0000000D01*
G01*
X0025226Y0095354D01*
G75*
G02*
X0025807Y0094773I0000000J-000581D01*
G01*
G37*
G36*
G01*
X0021988Y0094773D02*
X0021988Y0093415D01*
G75*
G02*
X0021407Y0092834I-000581J0000000D01*
G01*
X0020246Y0092834D01*
G75*
G02*
X0019665Y0093415I0000000J0000581D01*
G01*
X0019665Y0094773D01*
G75*
G02*
X0020246Y0095354I0000581J0000000D01*
G01*
X0021407Y0095354D01*
G75*
G02*
X0021988Y0094773I0000000J-000581D01*
G01*
G37*
G36*
G01*
X0038484Y0060334D02*
X0037500Y0060334D01*
G75*
G02*
X0037008Y0060826I0000000J0000492D01*
G01*
X0037008Y0065748D01*
G75*
G02*
X0037500Y0066240I0000492J0000000D01*
G01*
X0038484Y0066240D01*
G75*
G02*
X0038976Y0065748I0000000J-000492D01*
G01*
X0038976Y0060826D01*
G75*
G02*
X0038484Y0060334I-000492J0000000D01*
G01*
G37*
G36*
G01*
X0041634Y0060334D02*
X0040650Y0060334D01*
G75*
G02*
X0040157Y0060826I0000000J0000492D01*
G01*
X0040157Y0065748D01*
G75*
G02*
X0040650Y0066240I0000492J0000000D01*
G01*
X0041634Y0066240D01*
G75*
G02*
X0042126Y0065748I0000000J-000492D01*
G01*
X0042126Y0060826D01*
G75*
G02*
X0041634Y0060334I-000492J0000000D01*
G01*
G37*
G36*
G01*
X0044783Y0060334D02*
X0043799Y0060334D01*
G75*
G02*
X0043307Y0060826I0000000J0000492D01*
G01*
X0043307Y0065748D01*
G75*
G02*
X0043799Y0066240I0000492J0000000D01*
G01*
X0044783Y0066240D01*
G75*
G02*
X0045276Y0065748I0000000J-000492D01*
G01*
X0045276Y0060826D01*
G75*
G02*
X0044783Y0060334I-000492J0000000D01*
G01*
G37*
G36*
G01*
X0047933Y0060334D02*
X0046949Y0060334D01*
G75*
G02*
X0046457Y0060826I0000000J0000492D01*
G01*
X0046457Y0065748D01*
G75*
G02*
X0046949Y0066240I0000492J0000000D01*
G01*
X0047933Y0066240D01*
G75*
G02*
X0048425Y0065748I0000000J-000492D01*
G01*
X0048425Y0060826D01*
G75*
G02*
X0047933Y0060334I-000492J0000000D01*
G01*
G37*
G36*
G01*
X0051083Y0060334D02*
X0050098Y0060334D01*
G75*
G02*
X0049606Y0060826I0000000J0000492D01*
G01*
X0049606Y0065748D01*
G75*
G02*
X0050098Y0066240I0000492J0000000D01*
G01*
X0051083Y0066240D01*
G75*
G02*
X0051575Y0065748I0000000J-000492D01*
G01*
X0051575Y0060826D01*
G75*
G02*
X0051083Y0060334I-000492J0000000D01*
G01*
G37*
G36*
G01*
X0054232Y0060334D02*
X0053248Y0060334D01*
G75*
G02*
X0052756Y0060826I0000000J0000492D01*
G01*
X0052756Y0065748D01*
G75*
G02*
X0053248Y0066240I0000492J0000000D01*
G01*
X0054232Y0066240D01*
G75*
G02*
X0054724Y0065748I0000000J-000492D01*
G01*
X0054724Y0060826D01*
G75*
G02*
X0054232Y0060334I-000492J0000000D01*
G01*
G37*
G36*
G01*
X0057382Y0060334D02*
X0056398Y0060334D01*
G75*
G02*
X0055906Y0060826I0000000J0000492D01*
G01*
X0055906Y0065748D01*
G75*
G02*
X0056398Y0066240I0000492J0000000D01*
G01*
X0057382Y0066240D01*
G75*
G02*
X0057874Y0065748I0000000J-000492D01*
G01*
X0057874Y0060826D01*
G75*
G02*
X0057382Y0060334I-000492J0000000D01*
G01*
G37*
G36*
G01*
X0060532Y0060334D02*
X0059547Y0060334D01*
G75*
G02*
X0059055Y0060826I0000000J0000492D01*
G01*
X0059055Y0065748D01*
G75*
G02*
X0059547Y0066240I0000492J0000000D01*
G01*
X0060532Y0066240D01*
G75*
G02*
X0061024Y0065748I0000000J-000492D01*
G01*
X0061024Y0060826D01*
G75*
G02*
X0060532Y0060334I-000492J0000000D01*
G01*
G37*
G36*
G01*
X0067913Y0067716D02*
X0062992Y0067716D01*
G75*
G02*
X0062500Y0068208I0000000J0000492D01*
G01*
X0062500Y0069192D01*
G75*
G02*
X0062992Y0069685I0000492J0000000D01*
G01*
X0067913Y0069685D01*
G75*
G02*
X0068406Y0069192I0000000J-000492D01*
G01*
X0068406Y0068208D01*
G75*
G02*
X0067913Y0067716I-000492J0000000D01*
G01*
G37*
G36*
G01*
X0067913Y0070866D02*
X0062992Y0070866D01*
G75*
G02*
X0062500Y0071358I0000000J0000492D01*
G01*
X0062500Y0072342D01*
G75*
G02*
X0062992Y0072834I0000492J0000000D01*
G01*
X0067913Y0072834D01*
G75*
G02*
X0068406Y0072342I0000000J-000492D01*
G01*
X0068406Y0071358D01*
G75*
G02*
X0067913Y0070866I-000492J0000000D01*
G01*
G37*
G36*
G01*
X0067913Y0074015D02*
X0062992Y0074015D01*
G75*
G02*
X0062500Y0074507I0000000J0000492D01*
G01*
X0062500Y0075492D01*
G75*
G02*
X0062992Y0075984I0000492J0000000D01*
G01*
X0067913Y0075984D01*
G75*
G02*
X0068406Y0075492I0000000J-000492D01*
G01*
X0068406Y0074507D01*
G75*
G02*
X0067913Y0074015I-000492J0000000D01*
G01*
G37*
G36*
G01*
X0067913Y0077165D02*
X0062992Y0077165D01*
G75*
G02*
X0062500Y0077657I0000000J0000492D01*
G01*
X0062500Y0078641D01*
G75*
G02*
X0062992Y0079133I0000492J0000000D01*
G01*
X0067913Y0079133D01*
G75*
G02*
X0068406Y0078641I0000000J-000492D01*
G01*
X0068406Y0077657D01*
G75*
G02*
X0067913Y0077165I-000492J0000000D01*
G01*
G37*
G36*
G01*
X0067913Y0080315D02*
X0062992Y0080315D01*
G75*
G02*
X0062500Y0080807I0000000J0000492D01*
G01*
X0062500Y0081791D01*
G75*
G02*
X0062992Y0082283I0000492J0000000D01*
G01*
X0067913Y0082283D01*
G75*
G02*
X0068406Y0081791I0000000J-000492D01*
G01*
X0068406Y0080807D01*
G75*
G02*
X0067913Y0080315I-000492J0000000D01*
G01*
G37*
G36*
G01*
X0067913Y0083464D02*
X0062992Y0083464D01*
G75*
G02*
X0062500Y0083956I0000000J0000492D01*
G01*
X0062500Y0084940D01*
G75*
G02*
X0062992Y0085433I0000492J0000000D01*
G01*
X0067913Y0085433D01*
G75*
G02*
X0068406Y0084940I0000000J-000492D01*
G01*
X0068406Y0083956D01*
G75*
G02*
X0067913Y0083464I-000492J0000000D01*
G01*
G37*
G36*
G01*
X0067913Y0086614D02*
X0062992Y0086614D01*
G75*
G02*
X0062500Y0087106I0000000J0000492D01*
G01*
X0062500Y0088090D01*
G75*
G02*
X0062992Y0088582I0000492J0000000D01*
G01*
X0067913Y0088582D01*
G75*
G02*
X0068406Y0088090I0000000J-000492D01*
G01*
X0068406Y0087106D01*
G75*
G02*
X0067913Y0086614I-000492J0000000D01*
G01*
G37*
G36*
G01*
X0067913Y0089763D02*
X0062992Y0089763D01*
G75*
G02*
X0062500Y0090255I0000000J0000492D01*
G01*
X0062500Y0091240D01*
G75*
G02*
X0062992Y0091732I0000492J0000000D01*
G01*
X0067913Y0091732D01*
G75*
G02*
X0068406Y0091240I0000000J-000492D01*
G01*
X0068406Y0090255D01*
G75*
G02*
X0067913Y0089763I-000492J0000000D01*
G01*
G37*
G36*
G01*
X0060532Y0093208D02*
X0059547Y0093208D01*
G75*
G02*
X0059055Y0093700I0000000J0000492D01*
G01*
X0059055Y0098622D01*
G75*
G02*
X0059547Y0099114I0000492J0000000D01*
G01*
X0060532Y0099114D01*
G75*
G02*
X0061024Y0098622I0000000J-000492D01*
G01*
X0061024Y0093700D01*
G75*
G02*
X0060532Y0093208I-000492J0000000D01*
G01*
G37*
G36*
G01*
X0057382Y0093208D02*
X0056398Y0093208D01*
G75*
G02*
X0055906Y0093700I0000000J0000492D01*
G01*
X0055906Y0098622D01*
G75*
G02*
X0056398Y0099114I0000492J0000000D01*
G01*
X0057382Y0099114D01*
G75*
G02*
X0057874Y0098622I0000000J-000492D01*
G01*
X0057874Y0093700D01*
G75*
G02*
X0057382Y0093208I-000492J0000000D01*
G01*
G37*
G36*
G01*
X0054232Y0093208D02*
X0053248Y0093208D01*
G75*
G02*
X0052756Y0093700I0000000J0000492D01*
G01*
X0052756Y0098622D01*
G75*
G02*
X0053248Y0099114I0000492J0000000D01*
G01*
X0054232Y0099114D01*
G75*
G02*
X0054724Y0098622I0000000J-000492D01*
G01*
X0054724Y0093700D01*
G75*
G02*
X0054232Y0093208I-000492J0000000D01*
G01*
G37*
G36*
G01*
X0051083Y0093208D02*
X0050098Y0093208D01*
G75*
G02*
X0049606Y0093700I0000000J0000492D01*
G01*
X0049606Y0098622D01*
G75*
G02*
X0050098Y0099114I0000492J0000000D01*
G01*
X0051083Y0099114D01*
G75*
G02*
X0051575Y0098622I0000000J-000492D01*
G01*
X0051575Y0093700D01*
G75*
G02*
X0051083Y0093208I-000492J0000000D01*
G01*
G37*
G36*
G01*
X0047933Y0093208D02*
X0046949Y0093208D01*
G75*
G02*
X0046457Y0093700I0000000J0000492D01*
G01*
X0046457Y0098622D01*
G75*
G02*
X0046949Y0099114I0000492J0000000D01*
G01*
X0047933Y0099114D01*
G75*
G02*
X0048425Y0098622I0000000J-000492D01*
G01*
X0048425Y0093700D01*
G75*
G02*
X0047933Y0093208I-000492J0000000D01*
G01*
G37*
G36*
G01*
X0044783Y0093208D02*
X0043799Y0093208D01*
G75*
G02*
X0043307Y0093700I0000000J0000492D01*
G01*
X0043307Y0098622D01*
G75*
G02*
X0043799Y0099114I0000492J0000000D01*
G01*
X0044783Y0099114D01*
G75*
G02*
X0045276Y0098622I0000000J-000492D01*
G01*
X0045276Y0093700D01*
G75*
G02*
X0044783Y0093208I-000492J0000000D01*
G01*
G37*
G36*
G01*
X0041634Y0093208D02*
X0040650Y0093208D01*
G75*
G02*
X0040157Y0093700I0000000J0000492D01*
G01*
X0040157Y0098622D01*
G75*
G02*
X0040650Y0099114I0000492J0000000D01*
G01*
X0041634Y0099114D01*
G75*
G02*
X0042126Y0098622I0000000J-000492D01*
G01*
X0042126Y0093700D01*
G75*
G02*
X0041634Y0093208I-000492J0000000D01*
G01*
G37*
G36*
G01*
X0038484Y0093208D02*
X0037500Y0093208D01*
G75*
G02*
X0037008Y0093700I0000000J0000492D01*
G01*
X0037008Y0098622D01*
G75*
G02*
X0037500Y0099114I0000492J0000000D01*
G01*
X0038484Y0099114D01*
G75*
G02*
X0038976Y0098622I0000000J-000492D01*
G01*
X0038976Y0093700D01*
G75*
G02*
X0038484Y0093208I-000492J0000000D01*
G01*
G37*
G36*
G01*
X0035039Y0089763D02*
X0030118Y0089763D01*
G75*
G02*
X0029626Y0090255I0000000J0000492D01*
G01*
X0029626Y0091240D01*
G75*
G02*
X0030118Y0091732I0000492J0000000D01*
G01*
X0035039Y0091732D01*
G75*
G02*
X0035532Y0091240I0000000J-000492D01*
G01*
X0035532Y0090255D01*
G75*
G02*
X0035039Y0089763I-000492J0000000D01*
G01*
G37*
G36*
G01*
X0035039Y0086614D02*
X0030118Y0086614D01*
G75*
G02*
X0029626Y0087106I0000000J0000492D01*
G01*
X0029626Y0088090D01*
G75*
G02*
X0030118Y0088582I0000492J0000000D01*
G01*
X0035039Y0088582D01*
G75*
G02*
X0035532Y0088090I0000000J-000492D01*
G01*
X0035532Y0087106D01*
G75*
G02*
X0035039Y0086614I-000492J0000000D01*
G01*
G37*
G36*
G01*
X0035039Y0083464D02*
X0030118Y0083464D01*
G75*
G02*
X0029626Y0083956I0000000J0000492D01*
G01*
X0029626Y0084940D01*
G75*
G02*
X0030118Y0085433I0000492J0000000D01*
G01*
X0035039Y0085433D01*
G75*
G02*
X0035532Y0084940I0000000J-000492D01*
G01*
X0035532Y0083956D01*
G75*
G02*
X0035039Y0083464I-000492J0000000D01*
G01*
G37*
G36*
G01*
X0035039Y0080315D02*
X0030118Y0080315D01*
G75*
G02*
X0029626Y0080807I0000000J0000492D01*
G01*
X0029626Y0081791D01*
G75*
G02*
X0030118Y0082283I0000492J0000000D01*
G01*
X0035039Y0082283D01*
G75*
G02*
X0035532Y0081791I0000000J-000492D01*
G01*
X0035532Y0080807D01*
G75*
G02*
X0035039Y0080315I-000492J0000000D01*
G01*
G37*
G36*
G01*
X0035039Y0077165D02*
X0030118Y0077165D01*
G75*
G02*
X0029626Y0077657I0000000J0000492D01*
G01*
X0029626Y0078641D01*
G75*
G02*
X0030118Y0079133I0000492J0000000D01*
G01*
X0035039Y0079133D01*
G75*
G02*
X0035532Y0078641I0000000J-000492D01*
G01*
X0035532Y0077657D01*
G75*
G02*
X0035039Y0077165I-000492J0000000D01*
G01*
G37*
G36*
G01*
X0035039Y0074015D02*
X0030118Y0074015D01*
G75*
G02*
X0029626Y0074507I0000000J0000492D01*
G01*
X0029626Y0075492D01*
G75*
G02*
X0030118Y0075984I0000492J0000000D01*
G01*
X0035039Y0075984D01*
G75*
G02*
X0035532Y0075492I0000000J-000492D01*
G01*
X0035532Y0074507D01*
G75*
G02*
X0035039Y0074015I-000492J0000000D01*
G01*
G37*
G36*
G01*
X0035039Y0070866D02*
X0030118Y0070866D01*
G75*
G02*
X0029626Y0071358I0000000J0000492D01*
G01*
X0029626Y0072342D01*
G75*
G02*
X0030118Y0072834I0000492J0000000D01*
G01*
X0035039Y0072834D01*
G75*
G02*
X0035532Y0072342I0000000J-000492D01*
G01*
X0035532Y0071358D01*
G75*
G02*
X0035039Y0070866I-000492J0000000D01*
G01*
G37*
G36*
G01*
X0035039Y0067716D02*
X0030118Y0067716D01*
G75*
G02*
X0029626Y0068208I0000000J0000492D01*
G01*
X0029626Y0069192D01*
G75*
G02*
X0030118Y0069685I0000492J0000000D01*
G01*
X0035039Y0069685D01*
G75*
G02*
X0035532Y0069192I0000000J-000492D01*
G01*
X0035532Y0068208D01*
G75*
G02*
X0035039Y0067716I-000492J0000000D01*
G01*
G37*
G36*
G01*
X0056585Y0102342D02*
X0055226Y0102342D01*
G75*
G02*
X0054646Y0102923I0000000J0000581D01*
G01*
X0054646Y0104084D01*
G75*
G02*
X0055226Y0104665I0000581J0000000D01*
G01*
X0056585Y0104665D01*
G75*
G02*
X0057165Y0104084I0000000J-000581D01*
G01*
X0057165Y0102923D01*
G75*
G02*
X0056585Y0102342I-000581J0000000D01*
G01*
G37*
G36*
G01*
X0056585Y0106161D02*
X0055226Y0106161D01*
G75*
G02*
X0054646Y0106742I0000000J0000581D01*
G01*
X0054646Y0107903D01*
G75*
G02*
X0055226Y0108484I0000581J0000000D01*
G01*
X0056585Y0108484D01*
G75*
G02*
X0057165Y0107903I0000000J-000581D01*
G01*
X0057165Y0106742D01*
G75*
G02*
X0056585Y0106161I-000581J0000000D01*
G01*
G37*
G36*
G01*
X0033189Y0095265D02*
X0033189Y0093907D01*
G75*
G02*
X0032608Y0093326I-000581J0000000D01*
G01*
X0031447Y0093326D01*
G75*
G02*
X0030866Y0093907I0000000J0000581D01*
G01*
X0030866Y0095265D01*
G75*
G02*
X0031447Y0095846I0000581J0000000D01*
G01*
X0032608Y0095846D01*
G75*
G02*
X0033189Y0095265I0000000J-000581D01*
G01*
G37*
G36*
G01*
X0029370Y0095265D02*
X0029370Y0093907D01*
G75*
G02*
X0028789Y0093326I-000581J0000000D01*
G01*
X0027628Y0093326D01*
G75*
G02*
X0027047Y0093907I0000000J0000581D01*
G01*
X0027047Y0095265D01*
G75*
G02*
X0027628Y0095846I0000581J0000000D01*
G01*
X0028789Y0095846D01*
G75*
G02*
X0029370Y0095265I0000000J-000581D01*
G01*
G37*
G36*
G01*
X0055226Y0118909D02*
X0056585Y0118909D01*
G75*
G02*
X0057165Y0118328I0000000J-000581D01*
G01*
X0057165Y0117167D01*
G75*
G02*
X0056585Y0116586I-000581J0000000D01*
G01*
X0055226Y0116586D01*
G75*
G02*
X0054646Y0117167I0000000J0000581D01*
G01*
X0054646Y0118328D01*
G75*
G02*
X0055226Y0118909I0000581J0000000D01*
G01*
G37*
G36*
G01*
X0055226Y0115090D02*
X0056585Y0115090D01*
G75*
G02*
X0057165Y0114509I0000000J-000581D01*
G01*
X0057165Y0113348D01*
G75*
G02*
X0056585Y0112767I-000581J0000000D01*
G01*
X0055226Y0112767D01*
G75*
G02*
X0054646Y0113348I0000000J0000581D01*
G01*
X0054646Y0114509D01*
G75*
G02*
X0055226Y0115090I0000581J0000000D01*
G01*
G37*
D151*
X0060827Y0117421D03*
X0060827Y0109940D03*
X0068701Y0113681D03*
G36*
G01*
X0035059Y0058356D02*
X0035059Y0056998D01*
G75*
G02*
X0034478Y0056417I-000581J0000000D01*
G01*
X0033317Y0056417D01*
G75*
G02*
X0032736Y0056998I0000000J0000581D01*
G01*
X0032736Y0058356D01*
G75*
G02*
X0033317Y0058937I0000581J0000000D01*
G01*
X0034478Y0058937D01*
G75*
G02*
X0035059Y0058356I0000000J-000581D01*
G01*
G37*
G36*
G01*
X0031240Y0058356D02*
X0031240Y0056998D01*
G75*
G02*
X0030659Y0056417I-000581J0000000D01*
G01*
X0029498Y0056417D01*
G75*
G02*
X0028917Y0056998I0000000J0000581D01*
G01*
X0028917Y0058356D01*
G75*
G02*
X0029498Y0058937I0000581J0000000D01*
G01*
X0030659Y0058937D01*
G75*
G02*
X0031240Y0058356I0000000J-000581D01*
G01*
G37*
G36*
G01*
X0070098Y0104483D02*
X0070098Y0102465D01*
G75*
G02*
X0069237Y0101604I-000861J0000000D01*
G01*
X0067515Y0101604D01*
G75*
G02*
X0066654Y0102465I0000000J0000861D01*
G01*
X0066654Y0104483D01*
G75*
G02*
X0067515Y0105344I0000861J0000000D01*
G01*
X0069237Y0105344D01*
G75*
G02*
X0070098Y0104483I0000000J-000861D01*
G01*
G37*
G36*
G01*
X0063898Y0104483D02*
X0063898Y0102465D01*
G75*
G02*
X0063036Y0101604I-000861J0000000D01*
G01*
X0061314Y0101604D01*
G75*
G02*
X0060453Y0102465I0000000J0000861D01*
G01*
X0060453Y0104483D01*
G75*
G02*
X0061314Y0105344I0000861J0000000D01*
G01*
X0063036Y0105344D01*
G75*
G02*
X0063898Y0104483I0000000J-000861D01*
G01*
G37*
X0533465Y0000787D02*
G01*
G75*
D259*
X0551083Y0048818D02*
D03*
X0551083Y0016141D02*
D03*
X0605217Y0016141D02*
D03*
X0605217Y0048818D02*
D03*
D260*
X0595847Y0038582D02*
D03*
X0591516Y0038582D02*
D03*
X0587185Y0038582D02*
D03*
X0582855Y0038582D02*
D03*
X0578524Y0038582D02*
D03*
X0574193Y0038582D02*
D03*
X0569863Y0038582D02*
D03*
X0565532Y0038582D02*
D03*
D225*
X0545178Y0053385D02*
D03*
X0545178Y0059606D02*
D03*
X0540552Y0053385D02*
D03*
X0540552Y0059606D02*
D03*
D261*
X0536024Y0059645D02*
D03*
X0536024Y0053346D02*
D03*
M02*
