G75*
G70*
%OFA0B0*%
%FSLAX25Y25*%
%IPPOS*%
%LPD*%
%AMOC8*
5,1,8,0,0,1.08239X$1,22.5*
%
%AMM128*
21,1,0.086610,0.073230,-0.000000,-0.000000,90.000000*
21,1,0.069290,0.090550,-0.000000,-0.000000,90.000000*
1,1,0.017320,0.036610,0.034650*
1,1,0.017320,0.036610,-0.034650*
1,1,0.017320,-0.036610,-0.034650*
1,1,0.017320,-0.036610,0.034650*
%
%AMM129*
21,1,0.094490,0.111020,-0.000000,-0.000000,180.000000*
21,1,0.075590,0.129920,-0.000000,-0.000000,180.000000*
1,1,0.018900,-0.037800,0.055510*
1,1,0.018900,0.037800,0.055510*
1,1,0.018900,0.037800,-0.055510*
1,1,0.018900,-0.037800,-0.055510*
%
%AMM130*
21,1,0.074800,0.083460,-0.000000,-0.000000,180.000000*
21,1,0.059840,0.098430,-0.000000,-0.000000,180.000000*
1,1,0.014960,-0.029920,0.041730*
1,1,0.014960,0.029920,0.041730*
1,1,0.014960,0.029920,-0.041730*
1,1,0.014960,-0.029920,-0.041730*
%
%AMM131*
21,1,0.078740,0.053540,-0.000000,-0.000000,0.000000*
21,1,0.065350,0.066930,-0.000000,-0.000000,0.000000*
1,1,0.013390,0.032680,-0.026770*
1,1,0.013390,-0.032680,-0.026770*
1,1,0.013390,-0.032680,0.026770*
1,1,0.013390,0.032680,0.026770*
%
%AMM132*
21,1,0.035430,0.030320,-0.000000,-0.000000,270.000000*
21,1,0.028350,0.037400,-0.000000,-0.000000,270.000000*
1,1,0.007090,-0.015160,-0.014170*
1,1,0.007090,-0.015160,0.014170*
1,1,0.007090,0.015160,0.014170*
1,1,0.007090,0.015160,-0.014170*
%
%AMM133*
21,1,0.021650,0.052760,-0.000000,-0.000000,90.000000*
21,1,0.017320,0.057090,-0.000000,-0.000000,90.000000*
1,1,0.004330,0.026380,0.008660*
1,1,0.004330,0.026380,-0.008660*
1,1,0.004330,-0.026380,-0.008660*
1,1,0.004330,-0.026380,0.008660*
%
%AMM134*
21,1,0.035830,0.026770,-0.000000,-0.000000,180.000000*
21,1,0.029130,0.033470,-0.000000,-0.000000,180.000000*
1,1,0.006690,-0.014570,0.013390*
1,1,0.006690,0.014570,0.013390*
1,1,0.006690,0.014570,-0.013390*
1,1,0.006690,-0.014570,-0.013390*
%
%AMM135*
21,1,0.070870,0.036220,-0.000000,-0.000000,270.000000*
21,1,0.061810,0.045280,-0.000000,-0.000000,270.000000*
1,1,0.009060,-0.018110,-0.030910*
1,1,0.009060,-0.018110,0.030910*
1,1,0.009060,0.018110,0.030910*
1,1,0.009060,0.018110,-0.030910*
%
%AMM136*
21,1,0.033470,0.026770,-0.000000,-0.000000,180.000000*
21,1,0.026770,0.033470,-0.000000,-0.000000,180.000000*
1,1,0.006690,-0.013390,0.013390*
1,1,0.006690,0.013390,0.013390*
1,1,0.006690,0.013390,-0.013390*
1,1,0.006690,-0.013390,-0.013390*
%
%AMM137*
21,1,0.015750,0.016540,-0.000000,-0.000000,90.000000*
21,1,0.012600,0.019680,-0.000000,-0.000000,90.000000*
1,1,0.003150,0.008270,0.006300*
1,1,0.003150,0.008270,-0.006300*
1,1,0.003150,-0.008270,-0.006300*
1,1,0.003150,-0.008270,0.006300*
%
%AMM138*
21,1,0.023620,0.018900,-0.000000,-0.000000,270.000000*
21,1,0.018900,0.023620,-0.000000,-0.000000,270.000000*
1,1,0.004720,-0.009450,-0.009450*
1,1,0.004720,-0.009450,0.009450*
1,1,0.004720,0.009450,0.009450*
1,1,0.004720,0.009450,-0.009450*
%
%AMM139*
21,1,0.019680,0.019680,-0.000000,-0.000000,180.000000*
21,1,0.015750,0.023620,-0.000000,-0.000000,180.000000*
1,1,0.003940,-0.007870,0.009840*
1,1,0.003940,0.007870,0.009840*
1,1,0.003940,0.007870,-0.009840*
1,1,0.003940,-0.007870,-0.009840*
%
%AMM140*
21,1,0.019680,0.019680,-0.000000,-0.000000,90.000000*
21,1,0.015750,0.023620,-0.000000,-0.000000,90.000000*
1,1,0.003940,0.009840,0.007870*
1,1,0.003940,0.009840,-0.007870*
1,1,0.003940,-0.009840,-0.007870*
1,1,0.003940,-0.009840,0.007870*
%
%AMM219*
21,1,0.025590,0.026380,-0.000000,-0.000000,90.000000*
21,1,0.020470,0.031500,-0.000000,-0.000000,90.000000*
1,1,0.005120,0.013190,0.010240*
1,1,0.005120,0.013190,-0.010240*
1,1,0.005120,-0.013190,-0.010240*
1,1,0.005120,-0.013190,0.010240*
%
%AMM220*
21,1,0.017720,0.027950,-0.000000,-0.000000,90.000000*
21,1,0.014170,0.031500,-0.000000,-0.000000,90.000000*
1,1,0.003540,0.013980,0.007090*
1,1,0.003540,0.013980,-0.007090*
1,1,0.003540,-0.013980,-0.007090*
1,1,0.003540,-0.013980,0.007090*
%
%AMM221*
21,1,0.012600,0.028980,-0.000000,-0.000000,270.000000*
21,1,0.010080,0.031500,-0.000000,-0.000000,270.000000*
1,1,0.002520,-0.014490,-0.005040*
1,1,0.002520,-0.014490,0.005040*
1,1,0.002520,0.014490,0.005040*
1,1,0.002520,0.014490,-0.005040*
%
%AMM222*
21,1,0.023620,0.030710,-0.000000,-0.000000,0.000000*
21,1,0.018900,0.035430,-0.000000,-0.000000,0.000000*
1,1,0.004720,0.009450,-0.015350*
1,1,0.004720,-0.009450,-0.015350*
1,1,0.004720,-0.009450,0.015350*
1,1,0.004720,0.009450,0.015350*
%
%AMM223*
21,1,0.027560,0.018900,-0.000000,-0.000000,270.000000*
21,1,0.022840,0.023620,-0.000000,-0.000000,270.000000*
1,1,0.004720,-0.009450,-0.011420*
1,1,0.004720,-0.009450,0.011420*
1,1,0.004720,0.009450,0.011420*
1,1,0.004720,0.009450,-0.011420*
%
%AMM224*
21,1,0.031500,0.072440,-0.000000,-0.000000,270.000000*
21,1,0.025200,0.078740,-0.000000,-0.000000,270.000000*
1,1,0.006300,-0.036220,-0.012600*
1,1,0.006300,-0.036220,0.012600*
1,1,0.006300,0.036220,0.012600*
1,1,0.006300,0.036220,-0.012600*
%
%AMM225*
21,1,0.027560,0.018900,-0.000000,-0.000000,0.000000*
21,1,0.022840,0.023620,-0.000000,-0.000000,0.000000*
1,1,0.004720,0.011420,-0.009450*
1,1,0.004720,-0.011420,-0.009450*
1,1,0.004720,-0.011420,0.009450*
1,1,0.004720,0.011420,0.009450*
%
%AMM226*
21,1,0.023620,0.030710,-0.000000,-0.000000,90.000000*
21,1,0.018900,0.035430,-0.000000,-0.000000,90.000000*
1,1,0.004720,0.015350,0.009450*
1,1,0.004720,0.015350,-0.009450*
1,1,0.004720,-0.015350,-0.009450*
1,1,0.004720,-0.015350,0.009450*
%
%AMM227*
21,1,0.035430,0.030320,-0.000000,-0.000000,90.000000*
21,1,0.028350,0.037400,-0.000000,-0.000000,90.000000*
1,1,0.007090,0.015160,0.014170*
1,1,0.007090,0.015160,-0.014170*
1,1,0.007090,-0.015160,-0.014170*
1,1,0.007090,-0.015160,0.014170*
%
%AMM228*
21,1,0.043310,0.075980,-0.000000,-0.000000,180.000000*
21,1,0.034650,0.084650,-0.000000,-0.000000,180.000000*
1,1,0.008660,-0.017320,0.037990*
1,1,0.008660,0.017320,0.037990*
1,1,0.008660,0.017320,-0.037990*
1,1,0.008660,-0.017320,-0.037990*
%
%AMM229*
21,1,0.039370,0.035430,-0.000000,-0.000000,180.000000*
21,1,0.031500,0.043310,-0.000000,-0.000000,180.000000*
1,1,0.007870,-0.015750,0.017720*
1,1,0.007870,0.015750,0.017720*
1,1,0.007870,0.015750,-0.017720*
1,1,0.007870,-0.015750,-0.017720*
%
%AMM230*
21,1,0.027560,0.030710,-0.000000,-0.000000,180.000000*
21,1,0.022050,0.036220,-0.000000,-0.000000,180.000000*
1,1,0.005510,-0.011020,0.015350*
1,1,0.005510,0.011020,0.015350*
1,1,0.005510,0.011020,-0.015350*
1,1,0.005510,-0.011020,-0.015350*
%
%AMM231*
21,1,0.031500,0.072440,-0.000000,-0.000000,180.000000*
21,1,0.025200,0.078740,-0.000000,-0.000000,180.000000*
1,1,0.006300,-0.012600,0.036220*
1,1,0.006300,0.012600,0.036220*
1,1,0.006300,0.012600,-0.036220*
1,1,0.006300,-0.012600,-0.036220*
%
%AMM232*
21,1,0.137800,0.067720,-0.000000,-0.000000,180.000000*
21,1,0.120870,0.084650,-0.000000,-0.000000,180.000000*
1,1,0.016930,-0.060430,0.033860*
1,1,0.016930,0.060430,0.033860*
1,1,0.016930,0.060430,-0.033860*
1,1,0.016930,-0.060430,-0.033860*
%
%AMM233*
21,1,0.043310,0.075990,-0.000000,-0.000000,180.000000*
21,1,0.034650,0.084650,-0.000000,-0.000000,180.000000*
1,1,0.008660,-0.017320,0.037990*
1,1,0.008660,0.017320,0.037990*
1,1,0.008660,0.017320,-0.037990*
1,1,0.008660,-0.017320,-0.037990*
%
%AMM234*
21,1,0.086610,0.073230,-0.000000,-0.000000,270.000000*
21,1,0.069290,0.090550,-0.000000,-0.000000,270.000000*
1,1,0.017320,-0.036610,-0.034650*
1,1,0.017320,-0.036610,0.034650*
1,1,0.017320,0.036610,0.034650*
1,1,0.017320,0.036610,-0.034650*
%
%ADD113C,0.03150*%
%ADD12R,0.07874X0.05906*%
%ADD13R,0.07874X0.14961*%
%ADD142R,0.02559X0.01575*%
%ADD143R,0.01575X0.02559*%
%ADD144R,0.05512X0.01181*%
%ADD145R,0.03543X0.03150*%
%ADD146R,0.04724X0.08661*%
%ADD149R,0.03150X0.03543*%
%ADD154R,0.10827X0.12008*%
%ADD160O,0.04724X0.00866*%
%ADD161O,0.00866X0.04724*%
%ADD162O,0.04331X0.01181*%
%ADD165R,0.01378X0.00984*%
%ADD166R,0.00984X0.01378*%
%ADD171O,0.08661X0.02362*%
%ADD291M128*%
%ADD292M129*%
%ADD293M130*%
%ADD294M131*%
%ADD295M132*%
%ADD296M133*%
%ADD297M134*%
%ADD298M135*%
%ADD299M136*%
%ADD300M137*%
%ADD301M138*%
%ADD302M139*%
%ADD303M140*%
%ADD327R,0.08661X0.04724*%
%ADD331R,0.12008X0.10827*%
%ADD409M219*%
%ADD410M220*%
%ADD411M221*%
%ADD412M222*%
%ADD413M223*%
%ADD414M224*%
%ADD415M225*%
%ADD416M226*%
%ADD417M227*%
%ADD418M228*%
%ADD419M229*%
%ADD420M230*%
%ADD421M231*%
%ADD422M232*%
%ADD423M233*%
%ADD424M234*%
%ADD48R,0.01181X0.04528*%
%ADD52R,0.00787X0.14567*%
%ADD53R,0.00787X0.01575*%
%ADD54R,0.00787X0.06299*%
%ADD55R,0.00787X0.38189*%
%ADD56R,0.00787X0.09055*%
%ADD57R,0.05512X0.00787*%
%ADD58R,0.25197X0.00787*%
%ADD59R,0.06693X0.00787*%
%ADD60R,0.12992X0.00787*%
%ADD61R,0.00787X0.27559*%
%ADD62R,0.00787X0.12992*%
%ADD63R,0.00787X0.24803*%
%ADD64R,0.05118X0.03937*%
X0000000Y0000000D02*
%LPD*%
G01*
D12*
X0499819Y0194532D03*
X0499819Y0203587D03*
X0499819Y0212642D03*
D13*
X0475016Y0203587D03*
G36*
G01*
X0590000Y0196504D02*
X0590000Y0193433D01*
G75*
G02*
X0589724Y0193158I-000276J0000000D01*
G01*
X0587520Y0193158D01*
G75*
G02*
X0587244Y0193433I0000000J0000276D01*
G01*
X0587244Y0196504D01*
G75*
G02*
X0587520Y0196780I0000276J0000000D01*
G01*
X0589724Y0196780D01*
G75*
G02*
X0590000Y0196504I0000000J-000276D01*
G01*
G37*
G36*
G01*
X0583701Y0196504D02*
X0583701Y0193433D01*
G75*
G02*
X0583425Y0193158I-000276J0000000D01*
G01*
X0581220Y0193158D01*
G75*
G02*
X0580945Y0193433I0000000J0000276D01*
G01*
X0580945Y0196504D01*
G75*
G02*
X0581220Y0196780I0000276J0000000D01*
G01*
X0583425Y0196780D01*
G75*
G02*
X0583701Y0196504I0000000J-000276D01*
G01*
G37*
G36*
G01*
X0564870Y0189787D02*
X0564870Y0192858D01*
G75*
G02*
X0565146Y0193134I0000276J0000000D01*
G01*
X0567350Y0193134D01*
G75*
G02*
X0567626Y0192858I0000000J-000276D01*
G01*
X0567626Y0189787D01*
G75*
G02*
X0567350Y0189512I-000276J0000000D01*
G01*
X0565146Y0189512D01*
G75*
G02*
X0564870Y0189787I0000000J0000276D01*
G01*
G37*
G36*
G01*
X0571169Y0189787D02*
X0571169Y0192858D01*
G75*
G02*
X0571445Y0193134I0000276J0000000D01*
G01*
X0573650Y0193134D01*
G75*
G02*
X0573925Y0192858I0000000J-000276D01*
G01*
X0573925Y0189787D01*
G75*
G02*
X0573650Y0189512I-000276J0000000D01*
G01*
X0571445Y0189512D01*
G75*
G02*
X0571169Y0189787I0000000J0000276D01*
G01*
G37*
G36*
G01*
X0542342Y0165791D02*
X0539271Y0165791D01*
G75*
G02*
X0538996Y0166067I0000000J0000276D01*
G01*
X0538996Y0168272D01*
G75*
G02*
X0539271Y0168547I0000276J0000000D01*
G01*
X0542342Y0168547D01*
G75*
G02*
X0542618Y0168272I0000000J-000276D01*
G01*
X0542618Y0166067D01*
G75*
G02*
X0542342Y0165791I-000276J0000000D01*
G01*
G37*
G36*
G01*
X0542342Y0172091D02*
X0539271Y0172091D01*
G75*
G02*
X0538996Y0172366I0000000J0000276D01*
G01*
X0538996Y0174571D01*
G75*
G02*
X0539271Y0174847I0000276J0000000D01*
G01*
X0542342Y0174847D01*
G75*
G02*
X0542618Y0174571I0000000J-000276D01*
G01*
X0542618Y0172366D01*
G75*
G02*
X0542342Y0172091I-000276J0000000D01*
G01*
G37*
D12*
X0493028Y0118221D03*
X0493028Y0127276D03*
X0493028Y0136331D03*
D13*
X0468224Y0127276D03*
G36*
G01*
X0452296Y0163935D02*
X0449909Y0162557D01*
G75*
G02*
X0448565Y0162917I-000492J0000852D01*
G01*
X0445218Y0168713D01*
G75*
G02*
X0445578Y0170058I0000852J0000492D01*
G01*
X0447965Y0171436D01*
G75*
G02*
X0449310Y0171075I0000492J-000852D01*
G01*
X0452656Y0165279D01*
G75*
G02*
X0452296Y0163935I-000852J-000492D01*
G01*
G37*
G36*
G01*
X0449245Y0181266D02*
X0441573Y0176837D01*
G75*
G02*
X0440229Y0177198I-000492J0000852D01*
G01*
X0435209Y0185892D01*
G75*
G02*
X0435569Y0187236I0000852J0000492D01*
G01*
X0443241Y0191666D01*
G75*
G02*
X0444585Y0191305I0000492J-000852D01*
G01*
X0449605Y0182611D01*
G75*
G02*
X0449245Y0181266I-000852J-000492D01*
G01*
G37*
G36*
G01*
X0459644Y0187270D02*
X0451972Y0182841D01*
G75*
G02*
X0450628Y0183202I-000492J0000852D01*
G01*
X0445608Y0191896D01*
G75*
G02*
X0445968Y0193240I0000852J0000492D01*
G01*
X0453640Y0197670D01*
G75*
G02*
X0454984Y0197309I0000492J-000852D01*
G01*
X0460004Y0188615D01*
G75*
G02*
X0459644Y0187270I-000852J-000492D01*
G01*
G37*
G36*
G01*
X0442650Y0192688D02*
X0434979Y0188259D01*
G75*
G02*
X0433634Y0188620I-000492J0000852D01*
G01*
X0428614Y0197314D01*
G75*
G02*
X0428975Y0198658I0000852J0000492D01*
G01*
X0436646Y0203088D01*
G75*
G02*
X0437991Y0202727I0000492J-000852D01*
G01*
X0443010Y0194033D01*
G75*
G02*
X0442650Y0192688I-000852J-000492D01*
G01*
G37*
G36*
G01*
X0453049Y0198692D02*
X0445378Y0194263D01*
G75*
G02*
X0444033Y0194624I-000492J0000852D01*
G01*
X0439014Y0203318D01*
G75*
G02*
X0439374Y0204662I0000852J0000492D01*
G01*
X0447045Y0209092D01*
G75*
G02*
X0448390Y0208731I0000492J-000852D01*
G01*
X0453409Y0200037D01*
G75*
G02*
X0453049Y0198692I-000852J-000492D01*
G01*
G37*
G36*
G01*
X0467843Y0172911D02*
X0465457Y0171533D01*
G75*
G02*
X0464112Y0171893I-000492J0000852D01*
G01*
X0460766Y0177690D01*
G75*
G02*
X0461126Y0179034I0000852J0000492D01*
G01*
X0463513Y0180412D01*
G75*
G02*
X0464857Y0180052I0000492J-000852D01*
G01*
X0468204Y0174255D01*
G75*
G02*
X0467843Y0172911I-000852J-000492D01*
G01*
G37*
G36*
G01*
X0381307Y0164486D02*
X0378921Y0163108D01*
G75*
G02*
X0377576Y0163468I-000492J0000852D01*
G01*
X0374230Y0169264D01*
G75*
G02*
X0374590Y0170609I0000852J0000492D01*
G01*
X0376977Y0171987D01*
G75*
G02*
X0378321Y0171627I0000492J-000852D01*
G01*
X0381667Y0165830D01*
G75*
G02*
X0381307Y0164486I-000852J-000492D01*
G01*
G37*
G36*
G01*
X0378256Y0181818D02*
X0370585Y0177389D01*
G75*
G02*
X0369240Y0177749I-000492J0000852D01*
G01*
X0364220Y0186443D01*
G75*
G02*
X0364581Y0187788I0000852J0000492D01*
G01*
X0372252Y0192217D01*
G75*
G02*
X0373597Y0191857I0000492J-000852D01*
G01*
X0378616Y0183162D01*
G75*
G02*
X0378256Y0181818I-000852J-000492D01*
G01*
G37*
G36*
G01*
X0388655Y0187822D02*
X0380984Y0183392D01*
G75*
G02*
X0379639Y0183753I-000492J0000852D01*
G01*
X0374620Y0192447D01*
G75*
G02*
X0374980Y0193792I0000852J0000492D01*
G01*
X0382651Y0198221D01*
G75*
G02*
X0383996Y0197860I0000492J-000852D01*
G01*
X0389015Y0189166D01*
G75*
G02*
X0388655Y0187822I-000852J-000492D01*
G01*
G37*
G36*
G01*
X0371662Y0193240D02*
X0363990Y0188811D01*
G75*
G02*
X0362646Y0189171I-000492J0000852D01*
G01*
X0357626Y0197865D01*
G75*
G02*
X0357986Y0199210I0000852J0000492D01*
G01*
X0365658Y0203639D01*
G75*
G02*
X0367002Y0203279I0000492J-000852D01*
G01*
X0372022Y0194584D01*
G75*
G02*
X0371662Y0193240I-000852J-000492D01*
G01*
G37*
G36*
G01*
X0382061Y0199244D02*
X0374389Y0194814D01*
G75*
G02*
X0373045Y0195175I-000492J0000852D01*
G01*
X0368025Y0203869D01*
G75*
G02*
X0368385Y0205214I0000852J0000492D01*
G01*
X0376057Y0209643D01*
G75*
G02*
X0377401Y0209282I0000492J-000852D01*
G01*
X0382421Y0200588D01*
G75*
G02*
X0382061Y0199244I-000852J-000492D01*
G01*
G37*
G36*
G01*
X0396855Y0173462D02*
X0394468Y0172084D01*
G75*
G02*
X0393124Y0172444I-000492J0000852D01*
G01*
X0389777Y0178241D01*
G75*
G02*
X0390137Y0179585I0000852J0000492D01*
G01*
X0392524Y0180963D01*
G75*
G02*
X0393869Y0180603I0000492J-000852D01*
G01*
X0397215Y0174807D01*
G75*
G02*
X0396855Y0173462I-000852J-000492D01*
G01*
G37*
G36*
G01*
X0114004Y0265205D02*
X0110933Y0265205D01*
G75*
G02*
X0110657Y0265480I0000000J0000276D01*
G01*
X0110657Y0267685D01*
G75*
G02*
X0110933Y0267961I0000276J0000000D01*
G01*
X0114004Y0267961D01*
G75*
G02*
X0114280Y0267685I0000000J-000276D01*
G01*
X0114280Y0265480D01*
G75*
G02*
X0114004Y0265205I-000276J0000000D01*
G01*
G37*
G36*
G01*
X0114004Y0271504D02*
X0110933Y0271504D01*
G75*
G02*
X0110657Y0271780I0000000J0000276D01*
G01*
X0110657Y0273984D01*
G75*
G02*
X0110933Y0274260I0000276J0000000D01*
G01*
X0114004Y0274260D01*
G75*
G02*
X0114280Y0273984I0000000J-000276D01*
G01*
X0114280Y0271780D01*
G75*
G02*
X0114004Y0271504I-000276J0000000D01*
G01*
G37*
G36*
G01*
X0494079Y0038063D02*
X0494079Y0034992D01*
G75*
G02*
X0493803Y0034717I-000276J0000000D01*
G01*
X0491598Y0034717D01*
G75*
G02*
X0491323Y0034992I0000000J0000276D01*
G01*
X0491323Y0038063D01*
G75*
G02*
X0491598Y0038339I0000276J0000000D01*
G01*
X0493803Y0038339D01*
G75*
G02*
X0494079Y0038063I0000000J-000276D01*
G01*
G37*
G36*
G01*
X0487780Y0038063D02*
X0487780Y0034992D01*
G75*
G02*
X0487504Y0034717I-000276J0000000D01*
G01*
X0485299Y0034717D01*
G75*
G02*
X0485024Y0034992I0000000J0000276D01*
G01*
X0485024Y0038063D01*
G75*
G02*
X0485299Y0038339I0000276J0000000D01*
G01*
X0487504Y0038339D01*
G75*
G02*
X0487780Y0038063I0000000J-000276D01*
G01*
G37*
G36*
G01*
X0551882Y0132284D02*
X0551882Y0129213D01*
G75*
G02*
X0551606Y0128937I-000276J0000000D01*
G01*
X0549402Y0128937D01*
G75*
G02*
X0549126Y0129213I0000000J0000276D01*
G01*
X0549126Y0132284D01*
G75*
G02*
X0549402Y0132559I0000276J0000000D01*
G01*
X0551606Y0132559D01*
G75*
G02*
X0551882Y0132284I0000000J-000276D01*
G01*
G37*
G36*
G01*
X0545583Y0132284D02*
X0545583Y0129213D01*
G75*
G02*
X0545307Y0128937I-000276J0000000D01*
G01*
X0543102Y0128937D01*
G75*
G02*
X0542827Y0129213I0000000J0000276D01*
G01*
X0542827Y0132284D01*
G75*
G02*
X0543102Y0132559I0000276J0000000D01*
G01*
X0545307Y0132559D01*
G75*
G02*
X0545583Y0132284I0000000J-000276D01*
G01*
G37*
G36*
G01*
X0115409Y0227917D02*
X0115409Y0224847D01*
G75*
G02*
X0115134Y0224571I-000276J0000000D01*
G01*
X0112929Y0224571D01*
G75*
G02*
X0112654Y0224847I0000000J0000276D01*
G01*
X0112654Y0227917D01*
G75*
G02*
X0112929Y0228193I0000276J0000000D01*
G01*
X0115134Y0228193D01*
G75*
G02*
X0115409Y0227917I0000000J-000276D01*
G01*
G37*
G36*
G01*
X0109110Y0227917D02*
X0109110Y0224847D01*
G75*
G02*
X0108835Y0224571I-000276J0000000D01*
G01*
X0106630Y0224571D01*
G75*
G02*
X0106354Y0224847I0000000J0000276D01*
G01*
X0106354Y0227917D01*
G75*
G02*
X0106630Y0228193I0000276J0000000D01*
G01*
X0108835Y0228193D01*
G75*
G02*
X0109110Y0227917I0000000J-000276D01*
G01*
G37*
D12*
X0544583Y0138311D03*
X0544583Y0147366D03*
X0544583Y0156421D03*
D13*
X0519780Y0147366D03*
G36*
G01*
X0432268Y0129068D02*
X0429881Y0127690D01*
G75*
G02*
X0428537Y0128051I-000492J0000852D01*
G01*
X0425190Y0133847D01*
G75*
G02*
X0425551Y0135191I0000852J0000492D01*
G01*
X0427937Y0136569D01*
G75*
G02*
X0429282Y0136209I0000492J-000852D01*
G01*
X0432628Y0130413D01*
G75*
G02*
X0432268Y0129068I-000852J-000492D01*
G01*
G37*
G36*
G01*
X0429217Y0146400D02*
X0421546Y0141971D01*
G75*
G02*
X0420201Y0142331I-000492J0000852D01*
G01*
X0415181Y0151026D01*
G75*
G02*
X0415542Y0152370I0000852J0000492D01*
G01*
X0423213Y0156799D01*
G75*
G02*
X0424558Y0156439I0000492J-000852D01*
G01*
X0429577Y0147745D01*
G75*
G02*
X0429217Y0146400I-000852J-000492D01*
G01*
G37*
G36*
G01*
X0439616Y0152404D02*
X0431945Y0147975D01*
G75*
G02*
X0430600Y0148335I-000492J0000852D01*
G01*
X0425580Y0157030D01*
G75*
G02*
X0425941Y0158374I0000852J0000492D01*
G01*
X0433612Y0162803D01*
G75*
G02*
X0434957Y0162443I0000492J-000852D01*
G01*
X0439976Y0153749D01*
G75*
G02*
X0439616Y0152404I-000852J-000492D01*
G01*
G37*
G36*
G01*
X0422623Y0157822D02*
X0414951Y0153393D01*
G75*
G02*
X0413607Y0153753I-000492J0000852D01*
G01*
X0408587Y0162448D01*
G75*
G02*
X0408947Y0163792I0000852J0000492D01*
G01*
X0416619Y0168221D01*
G75*
G02*
X0417963Y0167861I0000492J-000852D01*
G01*
X0422983Y0159167D01*
G75*
G02*
X0422623Y0157822I-000852J-000492D01*
G01*
G37*
G36*
G01*
X0433022Y0163826D02*
X0425350Y0159397D01*
G75*
G02*
X0424006Y0159757I-000492J0000852D01*
G01*
X0418986Y0168452D01*
G75*
G02*
X0419346Y0169796I0000852J0000492D01*
G01*
X0427018Y0174225D01*
G75*
G02*
X0428362Y0173865I0000492J-000852D01*
G01*
X0433382Y0165171D01*
G75*
G02*
X0433022Y0163826I-000852J-000492D01*
G01*
G37*
G36*
G01*
X0447816Y0138045D02*
X0445429Y0136667D01*
G75*
G02*
X0444084Y0137027I-000492J0000852D01*
G01*
X0440738Y0142823D01*
G75*
G02*
X0441098Y0144168I0000852J0000492D01*
G01*
X0443485Y0145546D01*
G75*
G02*
X0444829Y0145186I0000492J-000852D01*
G01*
X0448176Y0139389D01*
G75*
G02*
X0447816Y0138045I-000852J-000492D01*
G01*
G37*
D12*
X0540386Y0181972D03*
X0540386Y0191028D03*
X0540386Y0200083D03*
D13*
X0515583Y0191028D03*
D12*
X0478567Y0181024D03*
X0478567Y0171969D03*
X0478567Y0162913D03*
D13*
X0503370Y0171969D03*
G36*
G01*
X0559724Y0011524D02*
X0557047Y0011524D01*
G75*
G02*
X0556713Y0011858I0000000J0000335D01*
G01*
X0556713Y0014535D01*
G75*
G02*
X0557047Y0014870I0000335J0000000D01*
G01*
X0559724Y0014870D01*
G75*
G02*
X0560059Y0014535I0000000J-000335D01*
G01*
X0560059Y0011858D01*
G75*
G02*
X0559724Y0011524I-000335J0000000D01*
G01*
G37*
G36*
G01*
X0559724Y0017744D02*
X0557047Y0017744D01*
G75*
G02*
X0556713Y0018079I0000000J0000335D01*
G01*
X0556713Y0020756D01*
G75*
G02*
X0557047Y0021091I0000335J0000000D01*
G01*
X0559724Y0021091D01*
G75*
G02*
X0560059Y0020756I0000000J-000335D01*
G01*
X0560059Y0018079D01*
G75*
G02*
X0559724Y0017744I-000335J0000000D01*
G01*
G37*
G36*
G01*
X0387217Y0106438D02*
X0385681Y0109097D01*
G75*
G02*
X0385782Y0109474I0000239J0000138D01*
G01*
X0387692Y0110576D01*
G75*
G02*
X0388068Y0110475I0000138J-000239D01*
G01*
X0389604Y0107816D01*
G75*
G02*
X0389503Y0107440I-000239J-000138D01*
G01*
X0387593Y0106337D01*
G75*
G02*
X0387217Y0106438I-000138J0000239D01*
G01*
G37*
G36*
G01*
X0392672Y0109588D02*
X0391137Y0112247D01*
G75*
G02*
X0391238Y0112624I0000239J0000138D01*
G01*
X0393147Y0113726D01*
G75*
G02*
X0393523Y0113625I0000138J-000239D01*
G01*
X0395059Y0110966D01*
G75*
G02*
X0394958Y0110589I-000239J-000138D01*
G01*
X0393049Y0109487D01*
G75*
G02*
X0392672Y0109588I-000138J0000239D01*
G01*
G37*
G36*
G01*
X0473441Y0151791D02*
X0473441Y0154862D01*
G75*
G02*
X0473717Y0155138I0000276J0000000D01*
G01*
X0475921Y0155138D01*
G75*
G02*
X0476197Y0154862I0000000J-000276D01*
G01*
X0476197Y0151791D01*
G75*
G02*
X0475921Y0151516I-000276J0000000D01*
G01*
X0473717Y0151516D01*
G75*
G02*
X0473441Y0151791I0000000J0000276D01*
G01*
G37*
G36*
G01*
X0479740Y0151791D02*
X0479740Y0154862D01*
G75*
G02*
X0480016Y0155138I0000276J0000000D01*
G01*
X0482220Y0155138D01*
G75*
G02*
X0482496Y0154862I0000000J-000276D01*
G01*
X0482496Y0151791D01*
G75*
G02*
X0482220Y0151516I-000276J0000000D01*
G01*
X0480016Y0151516D01*
G75*
G02*
X0479740Y0151791I0000000J0000276D01*
G01*
G37*
G36*
G01*
X0432638Y0122718D02*
X0431103Y0125377D01*
G75*
G02*
X0431204Y0125753I0000239J0000138D01*
G01*
X0433113Y0126856D01*
G75*
G02*
X0433489Y0126755I0000138J-000239D01*
G01*
X0435025Y0124096D01*
G75*
G02*
X0434924Y0123719I-000239J-000138D01*
G01*
X0433015Y0122617D01*
G75*
G02*
X0432638Y0122718I-000138J0000239D01*
G01*
G37*
G36*
G01*
X0438093Y0125867D02*
X0436558Y0128527D01*
G75*
G02*
X0436659Y0128903I0000239J0000138D01*
G01*
X0438568Y0130005D01*
G75*
G02*
X0438945Y0129905I0000138J-000239D01*
G01*
X0440480Y0127245D01*
G75*
G02*
X0440379Y0126869I-000239J-000138D01*
G01*
X0438470Y0125766D01*
G75*
G02*
X0438093Y0125867I-000138J0000239D01*
G01*
G37*
G36*
G01*
X0386502Y0112922D02*
X0384116Y0111544D01*
G75*
G02*
X0382771Y0111904I-000492J0000852D01*
G01*
X0379425Y0117700D01*
G75*
G02*
X0379785Y0119045I0000852J0000492D01*
G01*
X0382172Y0120423D01*
G75*
G02*
X0383516Y0120062I0000492J-000852D01*
G01*
X0386863Y0114266D01*
G75*
G02*
X0386502Y0112922I-000852J-000492D01*
G01*
G37*
G36*
G01*
X0383451Y0130253D02*
X0375780Y0125824D01*
G75*
G02*
X0374435Y0126185I-000492J0000852D01*
G01*
X0369415Y0134879D01*
G75*
G02*
X0369776Y0136223I0000852J0000492D01*
G01*
X0377447Y0140653D01*
G75*
G02*
X0378792Y0140292I0000492J-000852D01*
G01*
X0383811Y0131598D01*
G75*
G02*
X0383451Y0130253I-000852J-000492D01*
G01*
G37*
G36*
G01*
X0393850Y0136257D02*
X0386179Y0131828D01*
G75*
G02*
X0384834Y0132189I-000492J0000852D01*
G01*
X0379815Y0140883D01*
G75*
G02*
X0380175Y0142227I0000852J0000492D01*
G01*
X0387846Y0146657D01*
G75*
G02*
X0389191Y0146296I0000492J-000852D01*
G01*
X0394211Y0137602D01*
G75*
G02*
X0393850Y0136257I-000852J-000492D01*
G01*
G37*
G36*
G01*
X0376857Y0141675D02*
X0369185Y0137246D01*
G75*
G02*
X0367841Y0137607I-000492J0000852D01*
G01*
X0362821Y0146301D01*
G75*
G02*
X0363181Y0147645I0000852J0000492D01*
G01*
X0370853Y0152075D01*
G75*
G02*
X0372197Y0151714I0000492J-000852D01*
G01*
X0377217Y0143020D01*
G75*
G02*
X0376857Y0141675I-000852J-000492D01*
G01*
G37*
G36*
G01*
X0387256Y0147679D02*
X0379584Y0143250D01*
G75*
G02*
X0378240Y0143611I-000492J0000852D01*
G01*
X0373220Y0152305D01*
G75*
G02*
X0373580Y0153649I0000852J0000492D01*
G01*
X0381252Y0158079D01*
G75*
G02*
X0382596Y0157718I0000492J-000852D01*
G01*
X0387616Y0149024D01*
G75*
G02*
X0387256Y0147679I-000852J-000492D01*
G01*
G37*
G36*
G01*
X0402050Y0121898D02*
X0399663Y0120520D01*
G75*
G02*
X0398319Y0120880I-000492J0000852D01*
G01*
X0394972Y0126676D01*
G75*
G02*
X0395332Y0128021I0000852J0000492D01*
G01*
X0397719Y0129399D01*
G75*
G02*
X0399064Y0129039I0000492J-000852D01*
G01*
X0402410Y0123242D01*
G75*
G02*
X0402050Y0121898I-000852J-000492D01*
G01*
G37*
G36*
G01*
X0508961Y0188650D02*
X0508961Y0185579D01*
G75*
G02*
X0508685Y0185303I-000276J0000000D01*
G01*
X0506480Y0185303D01*
G75*
G02*
X0506205Y0185579I0000000J0000276D01*
G01*
X0506205Y0188650D01*
G75*
G02*
X0506480Y0188925I0000276J0000000D01*
G01*
X0508685Y0188925D01*
G75*
G02*
X0508961Y0188650I0000000J-000276D01*
G01*
G37*
G36*
G01*
X0502661Y0188650D02*
X0502661Y0185579D01*
G75*
G02*
X0502386Y0185303I-000276J0000000D01*
G01*
X0500181Y0185303D01*
G75*
G02*
X0499906Y0185579I0000000J0000276D01*
G01*
X0499906Y0188650D01*
G75*
G02*
X0500181Y0188925I0000276J0000000D01*
G01*
X0502386Y0188925D01*
G75*
G02*
X0502661Y0188650I0000000J-000276D01*
G01*
G37*
G36*
G01*
X0607449Y0124122D02*
X0607449Y0121051D01*
G75*
G02*
X0607173Y0120776I-000276J0000000D01*
G01*
X0604969Y0120776D01*
G75*
G02*
X0604693Y0121051I0000000J0000276D01*
G01*
X0604693Y0124122D01*
G75*
G02*
X0604969Y0124398I0000276J0000000D01*
G01*
X0607173Y0124398D01*
G75*
G02*
X0607449Y0124122I0000000J-000276D01*
G01*
G37*
G36*
G01*
X0601150Y0124122D02*
X0601150Y0121051D01*
G75*
G02*
X0600874Y0120776I-000276J0000000D01*
G01*
X0598669Y0120776D01*
G75*
G02*
X0598394Y0121051I0000000J0000276D01*
G01*
X0598394Y0124122D01*
G75*
G02*
X0598669Y0124398I0000276J0000000D01*
G01*
X0600874Y0124398D01*
G75*
G02*
X0601150Y0124122I0000000J-000276D01*
G01*
G37*
D48*
X0459358Y0030504D03*
X0462508Y0030504D03*
X0467626Y0030504D03*
X0471563Y0030504D03*
X0473531Y0030504D03*
X0477469Y0030504D03*
X0482587Y0030504D03*
X0485736Y0030504D03*
X0484555Y0030504D03*
X0481406Y0030504D03*
X0479437Y0030504D03*
X0475500Y0030504D03*
X0469594Y0030504D03*
X0465657Y0030504D03*
X0463689Y0030504D03*
X0460539Y0030504D03*
D12*
X0572772Y0181354D03*
X0572772Y0172299D03*
X0572772Y0163244D03*
D13*
X0597575Y0172299D03*
G36*
G01*
X0451438Y0159657D02*
X0454097Y0161193D01*
G75*
G02*
X0454474Y0161092I0000138J-000239D01*
G01*
X0455576Y0159182D01*
G75*
G02*
X0455475Y0158806I-000239J-000138D01*
G01*
X0452816Y0157271D01*
G75*
G02*
X0452439Y0157371I-000138J0000239D01*
G01*
X0451337Y0159281D01*
G75*
G02*
X0451438Y0159657I0000239J0000138D01*
G01*
G37*
G36*
G01*
X0454588Y0154202D02*
X0457247Y0155737D01*
G75*
G02*
X0457624Y0155637I0000138J-000239D01*
G01*
X0458726Y0153727D01*
G75*
G02*
X0458625Y0153351I-000239J-000138D01*
G01*
X0455966Y0151815D01*
G75*
G02*
X0455589Y0151916I-000138J0000239D01*
G01*
X0454487Y0153826D01*
G75*
G02*
X0454588Y0154202I0000239J0000138D01*
G01*
G37*
G36*
G01*
X0397247Y0158407D02*
X0394588Y0156871D01*
G75*
G02*
X0394211Y0156972I-000138J0000239D01*
G01*
X0393109Y0158881D01*
G75*
G02*
X0393210Y0159258I0000239J0000138D01*
G01*
X0395869Y0160793D01*
G75*
G02*
X0396246Y0160692I0000138J-000239D01*
G01*
X0397348Y0158783D01*
G75*
G02*
X0397247Y0158407I-000239J-000138D01*
G01*
G37*
G36*
G01*
X0394097Y0163862D02*
X0391438Y0162326D01*
G75*
G02*
X0391062Y0162427I-000138J0000239D01*
G01*
X0389959Y0164337D01*
G75*
G02*
X0390060Y0164713I0000239J0000138D01*
G01*
X0392719Y0166249D01*
G75*
G02*
X0393096Y0166148I0000138J-000239D01*
G01*
X0394198Y0164238D01*
G75*
G02*
X0394097Y0163862I-000239J-000138D01*
G01*
G37*
D12*
X0589516Y0149807D03*
X0589516Y0140752D03*
X0589516Y0131697D03*
D13*
X0614319Y0140752D03*
G36*
G01*
X0101702Y0216401D02*
X0099781Y0218322D01*
G75*
G02*
X0099781Y0219603I0000640J0000640D01*
G01*
X0103511Y0223333D01*
G75*
G02*
X0104792Y0223333I0000640J-000640D01*
G01*
X0106713Y0221412D01*
G75*
G02*
X0106713Y0220132I-000640J-000640D01*
G01*
X0102982Y0216401D01*
G75*
G02*
X0101702Y0216401I-000640J0000640D01*
G01*
G37*
G36*
G01*
X0109775Y0208328D02*
X0107854Y0210249D01*
G75*
G02*
X0107854Y0211530I0000640J0000640D01*
G01*
X0111585Y0215260D01*
G75*
G02*
X0112865Y0215260I0000640J-000640D01*
G01*
X0114786Y0213339D01*
G75*
G02*
X0114786Y0212059I-000640J-000640D01*
G01*
X0111056Y0208328D01*
G75*
G02*
X0109775Y0208328I-000640J0000640D01*
G01*
G37*
D64*
X0566571Y0084347D03*
X0566571Y0078441D03*
X0566571Y0072535D03*
X0566571Y0066630D03*
X0566571Y0060724D03*
X0566571Y0054819D03*
X0566571Y0048913D03*
X0566571Y0043008D03*
X0566571Y0037102D03*
X0566571Y0031197D03*
X0566571Y0025291D03*
X0566571Y0019386D03*
X0566571Y0013480D03*
X0616571Y0013480D03*
X0616571Y0019386D03*
X0616571Y0025291D03*
X0616571Y0031197D03*
X0616571Y0037102D03*
X0616571Y0043008D03*
X0616571Y0048913D03*
X0616571Y0054819D03*
X0616571Y0060724D03*
X0616571Y0066630D03*
X0616571Y0072535D03*
X0616571Y0078441D03*
X0616571Y0084347D03*
G36*
G01*
X0482319Y0107874D02*
X0482319Y0110945D01*
G75*
G02*
X0482594Y0111220I0000276J0000000D01*
G01*
X0484799Y0111220D01*
G75*
G02*
X0485075Y0110945I0000000J-000276D01*
G01*
X0485075Y0107874D01*
G75*
G02*
X0484799Y0107598I-000276J0000000D01*
G01*
X0482594Y0107598D01*
G75*
G02*
X0482319Y0107874I0000000J0000276D01*
G01*
G37*
G36*
G01*
X0488618Y0107874D02*
X0488618Y0110945D01*
G75*
G02*
X0488894Y0111220I0000276J0000000D01*
G01*
X0491098Y0111220D01*
G75*
G02*
X0491374Y0110945I0000000J-000276D01*
G01*
X0491374Y0107874D01*
G75*
G02*
X0491098Y0107598I-000276J0000000D01*
G01*
X0488894Y0107598D01*
G75*
G02*
X0488618Y0107874I0000000J0000276D01*
G01*
G37*
G36*
G01*
X0102513Y0200547D02*
X0100592Y0202468D01*
G75*
G02*
X0100592Y0203749I0000640J0000640D01*
G01*
X0104322Y0207479D01*
G75*
G02*
X0105603Y0207479I0000640J-000640D01*
G01*
X0107524Y0205558D01*
G75*
G02*
X0107524Y0204278I-000640J-000640D01*
G01*
X0103793Y0200547D01*
G75*
G02*
X0102513Y0200547I-000640J0000640D01*
G01*
G37*
G36*
G01*
X0110586Y0192474D02*
X0108665Y0194395D01*
G75*
G02*
X0108665Y0195675I0000640J0000640D01*
G01*
X0112396Y0199406D01*
G75*
G02*
X0113676Y0199406I0000640J-000640D01*
G01*
X0115597Y0197485D01*
G75*
G02*
X0115597Y0196204I-000640J-000640D01*
G01*
X0111867Y0192474D01*
G75*
G02*
X0110586Y0192474I-000640J0000640D01*
G01*
G37*
G36*
G01*
X0122567Y0214071D02*
X0119496Y0214071D01*
G75*
G02*
X0119220Y0214347I0000000J0000276D01*
G01*
X0119220Y0216551D01*
G75*
G02*
X0119496Y0216827I0000276J0000000D01*
G01*
X0122567Y0216827D01*
G75*
G02*
X0122843Y0216551I0000000J-000276D01*
G01*
X0122843Y0214347D01*
G75*
G02*
X0122567Y0214071I-000276J0000000D01*
G01*
G37*
G36*
G01*
X0122567Y0220370D02*
X0119496Y0220370D01*
G75*
G02*
X0119220Y0220646I0000000J0000276D01*
G01*
X0119220Y0222850D01*
G75*
G02*
X0119496Y0223126I0000276J0000000D01*
G01*
X0122567Y0223126D01*
G75*
G02*
X0122843Y0222850I0000000J-000276D01*
G01*
X0122843Y0220646D01*
G75*
G02*
X0122567Y0220370I-000276J0000000D01*
G01*
G37*
D12*
X0571717Y0221280D03*
X0571717Y0212224D03*
X0571717Y0203169D03*
D13*
X0596520Y0212224D03*
G36*
G01*
X0447465Y0021185D02*
X0444394Y0021185D01*
G75*
G02*
X0444118Y0021460I0000000J0000276D01*
G01*
X0444118Y0023665D01*
G75*
G02*
X0444394Y0023941I0000276J0000000D01*
G01*
X0447465Y0023941D01*
G75*
G02*
X0447740Y0023665I0000000J-000276D01*
G01*
X0447740Y0021460D01*
G75*
G02*
X0447465Y0021185I-000276J0000000D01*
G01*
G37*
G36*
G01*
X0447465Y0027484D02*
X0444394Y0027484D01*
G75*
G02*
X0444118Y0027760I0000000J0000276D01*
G01*
X0444118Y0029964D01*
G75*
G02*
X0444394Y0030240I0000276J0000000D01*
G01*
X0447465Y0030240D01*
G75*
G02*
X0447740Y0029964I0000000J-000276D01*
G01*
X0447740Y0027760D01*
G75*
G02*
X0447465Y0027484I-000276J0000000D01*
G01*
G37*
X0150941Y0118728D02*
G01*
G75*
D291*
X0105862Y0094361D02*
D03*
X0105862Y0112078D02*
D03*
D292*
X0109189Y0069909D02*
D03*
X0136551Y0069909D02*
D03*
D293*
X0120429Y0093137D02*
D03*
X0136571Y0093137D02*
D03*
D294*
X0118658Y0111248D02*
D03*
X0134406Y0111248D02*
D03*
D295*
X0141597Y0049470D02*
D03*
X0132345Y0053210D02*
D03*
D295*
X0132345Y0045730D02*
D03*
D296*
X0109510Y0039791D02*
D03*
D296*
X0109510Y0043531D02*
D03*
X0109510Y0047271D02*
D03*
X0101046Y0047271D02*
D03*
X0101046Y0039791D02*
D03*
D297*
X0097194Y0053792D02*
D03*
X0110186Y0053792D02*
D03*
D298*
X0115480Y0053504D02*
D03*
X0126898Y0053504D02*
D03*
D299*
X0096295Y0086051D02*
D03*
X0102516Y0086051D02*
D03*
X0106886Y0086051D02*
D03*
X0113106Y0086051D02*
D03*
D300*
X0146972Y0108940D02*
D03*
X0146972Y0104806D02*
D03*
X0096417Y0067066D02*
D03*
X0096417Y0062932D02*
D03*
X0096417Y0071779D02*
D03*
X0096417Y0075913D02*
D03*
X0095525Y0091428D02*
D03*
X0095525Y0095562D02*
D03*
D301*
X0114628Y0047221D02*
D03*
X0114628Y0043284D02*
D03*
X0128303Y0046319D02*
D03*
X0119642Y0046319D02*
D03*
X0128303Y0039922D02*
D03*
X0119642Y0039922D02*
D03*
D302*
X0136676Y0039791D02*
D03*
X0133132Y0039791D02*
D03*
D303*
X0100675Y0063129D02*
D03*
X0100675Y0066673D02*
D03*
X0100675Y0072173D02*
D03*
X0100675Y0075716D02*
D03*
X0095525Y0103729D02*
D03*
X0095525Y0100185D02*
D03*
X0016622Y0210047D02*
%LPD*%
G01*
G36*
G01*
X0032449Y0155953D02*
X0031110Y0155953D01*
G75*
G02*
X0030559Y0156504I0000000J0000551D01*
G01*
X0030559Y0157606D01*
G75*
G02*
X0031110Y0158157I0000551J0000000D01*
G01*
X0032449Y0158157D01*
G75*
G02*
X0033000Y0157606I0000000J-000551D01*
G01*
X0033000Y0156504D01*
G75*
G02*
X0032449Y0155953I-000551J0000000D01*
G01*
G37*
G36*
G01*
X0032449Y0152173D02*
X0031110Y0152173D01*
G75*
G02*
X0030559Y0152724I0000000J0000551D01*
G01*
X0030559Y0153827D01*
G75*
G02*
X0031110Y0154378I0000551J0000000D01*
G01*
X0032449Y0154378D01*
G75*
G02*
X0033000Y0153827I0000000J-000551D01*
G01*
X0033000Y0152724D01*
G75*
G02*
X0032449Y0152173I-000551J0000000D01*
G01*
G37*
G36*
G01*
X0047213Y0182449D02*
X0047213Y0183787D01*
G75*
G02*
X0047764Y0184338I0000551J0000000D01*
G01*
X0048866Y0184338D01*
G75*
G02*
X0049417Y0183787I0000000J-000551D01*
G01*
X0049417Y0182449D01*
G75*
G02*
X0048866Y0181897I-000551J0000000D01*
G01*
X0047764Y0181897D01*
G75*
G02*
X0047213Y0182449I0000000J0000551D01*
G01*
G37*
G36*
G01*
X0043433Y0182449D02*
X0043433Y0183787D01*
G75*
G02*
X0043984Y0184338I0000551J0000000D01*
G01*
X0045087Y0184338D01*
G75*
G02*
X0045638Y0183787I0000000J-000551D01*
G01*
X0045638Y0182449D01*
G75*
G02*
X0045087Y0181897I-000551J0000000D01*
G01*
X0043984Y0181897D01*
G75*
G02*
X0043433Y0182449I0000000J0000551D01*
G01*
G37*
G36*
G01*
X0018551Y0169358D02*
X0018551Y0170815D01*
G75*
G02*
X0019083Y0171346I0000531J0000000D01*
G01*
X0020146Y0171346D01*
G75*
G02*
X0020677Y0170815I0000000J-000531D01*
G01*
X0020677Y0169358D01*
G75*
G02*
X0020146Y0168827I-000531J0000000D01*
G01*
X0019083Y0168827D01*
G75*
G02*
X0018551Y0169358I0000000J0000531D01*
G01*
G37*
G36*
G01*
X0022567Y0169358D02*
X0022567Y0170815D01*
G75*
G02*
X0023098Y0171346I0000531J0000000D01*
G01*
X0024161Y0171346D01*
G75*
G02*
X0024693Y0170815I0000000J-000531D01*
G01*
X0024693Y0169358D01*
G75*
G02*
X0024161Y0168827I-000531J0000000D01*
G01*
X0023098Y0168827D01*
G75*
G02*
X0022567Y0169358I0000000J0000531D01*
G01*
G37*
G36*
G01*
X0050894Y0180330D02*
X0052075Y0180330D01*
G75*
G02*
X0052665Y0179740I0000000J-000591D01*
G01*
X0052665Y0173244D01*
G75*
G02*
X0052075Y0172653I-000591J0000000D01*
G01*
X0050894Y0172653D01*
G75*
G02*
X0050303Y0173244I0000000J0000591D01*
G01*
X0050303Y0179740D01*
G75*
G02*
X0050894Y0180330I0000591J0000000D01*
G01*
G37*
G36*
G01*
X0045894Y0180330D02*
X0047075Y0180330D01*
G75*
G02*
X0047665Y0179740I0000000J-000591D01*
G01*
X0047665Y0173244D01*
G75*
G02*
X0047075Y0172653I-000591J0000000D01*
G01*
X0045894Y0172653D01*
G75*
G02*
X0045303Y0173244I0000000J0000591D01*
G01*
X0045303Y0179740D01*
G75*
G02*
X0045894Y0180330I0000591J0000000D01*
G01*
G37*
G36*
G01*
X0040894Y0180330D02*
X0042075Y0180330D01*
G75*
G02*
X0042665Y0179740I0000000J-000591D01*
G01*
X0042665Y0173244D01*
G75*
G02*
X0042075Y0172653I-000591J0000000D01*
G01*
X0040894Y0172653D01*
G75*
G02*
X0040303Y0173244I0000000J0000591D01*
G01*
X0040303Y0179740D01*
G75*
G02*
X0040894Y0180330I0000591J0000000D01*
G01*
G37*
G36*
G01*
X0035894Y0180330D02*
X0037075Y0180330D01*
G75*
G02*
X0037665Y0179740I0000000J-000591D01*
G01*
X0037665Y0173244D01*
G75*
G02*
X0037075Y0172653I-000591J0000000D01*
G01*
X0035894Y0172653D01*
G75*
G02*
X0035303Y0173244I0000000J0000591D01*
G01*
X0035303Y0179740D01*
G75*
G02*
X0035894Y0180330I0000591J0000000D01*
G01*
G37*
G36*
G01*
X0035894Y0160842D02*
X0037075Y0160842D01*
G75*
G02*
X0037665Y0160252I0000000J-000591D01*
G01*
X0037665Y0153756D01*
G75*
G02*
X0037075Y0153165I-000591J0000000D01*
G01*
X0035894Y0153165D01*
G75*
G02*
X0035303Y0153756I0000000J0000591D01*
G01*
X0035303Y0160252D01*
G75*
G02*
X0035894Y0160842I0000591J0000000D01*
G01*
G37*
G36*
G01*
X0040894Y0160842D02*
X0042075Y0160842D01*
G75*
G02*
X0042665Y0160252I0000000J-000591D01*
G01*
X0042665Y0153756D01*
G75*
G02*
X0042075Y0153165I-000591J0000000D01*
G01*
X0040894Y0153165D01*
G75*
G02*
X0040303Y0153756I0000000J0000591D01*
G01*
X0040303Y0160252D01*
G75*
G02*
X0040894Y0160842I0000591J0000000D01*
G01*
G37*
G36*
G01*
X0045894Y0160842D02*
X0047075Y0160842D01*
G75*
G02*
X0047665Y0160252I0000000J-000591D01*
G01*
X0047665Y0153756D01*
G75*
G02*
X0047075Y0153165I-000591J0000000D01*
G01*
X0045894Y0153165D01*
G75*
G02*
X0045303Y0153756I0000000J0000591D01*
G01*
X0045303Y0160252D01*
G75*
G02*
X0045894Y0160842I0000591J0000000D01*
G01*
G37*
G36*
G01*
X0050894Y0160842D02*
X0052075Y0160842D01*
G75*
G02*
X0052665Y0160252I0000000J-000591D01*
G01*
X0052665Y0153756D01*
G75*
G02*
X0052075Y0153165I-000591J0000000D01*
G01*
X0050894Y0153165D01*
G75*
G02*
X0050303Y0153756I0000000J0000591D01*
G01*
X0050303Y0160252D01*
G75*
G02*
X0050894Y0160842I0000591J0000000D01*
G01*
G37*
D143*
X0051622Y0194850D03*
X0049063Y0194850D03*
X0046504Y0194850D03*
X0046504Y0187370D03*
X0049063Y0187370D03*
X0051622Y0187370D03*
G36*
G01*
X0032534Y0178689D02*
X0032534Y0177232D01*
G75*
G02*
X0032002Y0176701I-000531J0000000D01*
G01*
X0030939Y0176701D01*
G75*
G02*
X0030408Y0177232I0000000J0000531D01*
G01*
X0030408Y0178689D01*
G75*
G02*
X0030939Y0179220I0000531J0000000D01*
G01*
X0032002Y0179220D01*
G75*
G02*
X0032534Y0178689I0000000J-000531D01*
G01*
G37*
G36*
G01*
X0028518Y0178689D02*
X0028518Y0177232D01*
G75*
G02*
X0027987Y0176701I-000531J0000000D01*
G01*
X0026924Y0176701D01*
G75*
G02*
X0026392Y0177232I0000000J0000531D01*
G01*
X0026392Y0178689D01*
G75*
G02*
X0026924Y0179220I0000531J0000000D01*
G01*
X0027987Y0179220D01*
G75*
G02*
X0028518Y0178689I0000000J-000531D01*
G01*
G37*
G36*
G01*
X0026471Y0173354D02*
X0026471Y0174693D01*
G75*
G02*
X0027022Y0175244I0000551J0000000D01*
G01*
X0028124Y0175244D01*
G75*
G02*
X0028676Y0174693I0000000J-000551D01*
G01*
X0028676Y0173354D01*
G75*
G02*
X0028124Y0172803I-000551J0000000D01*
G01*
X0027022Y0172803D01*
G75*
G02*
X0026471Y0173354I0000000J0000551D01*
G01*
G37*
G36*
G01*
X0030250Y0173354D02*
X0030250Y0174693D01*
G75*
G02*
X0030802Y0175244I0000551J0000000D01*
G01*
X0031904Y0175244D01*
G75*
G02*
X0032455Y0174693I0000000J-000551D01*
G01*
X0032455Y0173354D01*
G75*
G02*
X0031904Y0172803I-000551J0000000D01*
G01*
X0030802Y0172803D01*
G75*
G02*
X0030250Y0173354I0000000J0000551D01*
G01*
G37*
G36*
G01*
X0018551Y0177232D02*
X0018551Y0178689D01*
G75*
G02*
X0019083Y0179220I0000531J0000000D01*
G01*
X0020146Y0179220D01*
G75*
G02*
X0020677Y0178689I0000000J-000531D01*
G01*
X0020677Y0177232D01*
G75*
G02*
X0020146Y0176701I-000531J0000000D01*
G01*
X0019083Y0176701D01*
G75*
G02*
X0018551Y0177232I0000000J0000531D01*
G01*
G37*
G36*
G01*
X0022567Y0177232D02*
X0022567Y0178689D01*
G75*
G02*
X0023098Y0179220I0000531J0000000D01*
G01*
X0024161Y0179220D01*
G75*
G02*
X0024693Y0178689I0000000J-000531D01*
G01*
X0024693Y0177232D01*
G75*
G02*
X0024161Y0176701I-000531J0000000D01*
G01*
X0023098Y0176701D01*
G75*
G02*
X0022567Y0177232I0000000J0000531D01*
G01*
G37*
G36*
G01*
X0024614Y0165638D02*
X0024614Y0164299D01*
G75*
G02*
X0024063Y0163748I-000551J0000000D01*
G01*
X0022961Y0163748D01*
G75*
G02*
X0022409Y0164299I0000000J0000551D01*
G01*
X0022409Y0165638D01*
G75*
G02*
X0022961Y0166189I0000551J0000000D01*
G01*
X0024063Y0166189D01*
G75*
G02*
X0024614Y0165638I0000000J-000551D01*
G01*
G37*
G36*
G01*
X0020835Y0165638D02*
X0020835Y0164299D01*
G75*
G02*
X0020283Y0163748I-000551J0000000D01*
G01*
X0019181Y0163748D01*
G75*
G02*
X0018630Y0164299I0000000J0000551D01*
G01*
X0018630Y0165638D01*
G75*
G02*
X0019181Y0166189I0000551J0000000D01*
G01*
X0020283Y0166189D01*
G75*
G02*
X0020835Y0165638I0000000J-000551D01*
G01*
G37*
G36*
G01*
X0028472Y0188767D02*
X0028472Y0187429D01*
G75*
G02*
X0027921Y0186878I-000551J0000000D01*
G01*
X0026819Y0186878D01*
G75*
G02*
X0026268Y0187429I0000000J0000551D01*
G01*
X0026268Y0188767D01*
G75*
G02*
X0026819Y0189319I0000551J0000000D01*
G01*
X0027921Y0189319D01*
G75*
G02*
X0028472Y0188767I0000000J-000551D01*
G01*
G37*
G36*
G01*
X0024693Y0188767D02*
X0024693Y0187429D01*
G75*
G02*
X0024142Y0186878I-000551J0000000D01*
G01*
X0023039Y0186878D01*
G75*
G02*
X0022488Y0187429I0000000J0000551D01*
G01*
X0022488Y0188767D01*
G75*
G02*
X0023039Y0189319I0000551J0000000D01*
G01*
X0024142Y0189319D01*
G75*
G02*
X0024693Y0188767I0000000J-000551D01*
G01*
G37*
G36*
G01*
X0031720Y0183177D02*
X0030264Y0183177D01*
G75*
G02*
X0029732Y0183708I0000000J0000531D01*
G01*
X0029732Y0184771D01*
G75*
G02*
X0030264Y0185303I0000531J0000000D01*
G01*
X0031720Y0185303D01*
G75*
G02*
X0032252Y0184771I0000000J-000531D01*
G01*
X0032252Y0183708D01*
G75*
G02*
X0031720Y0183177I-000531J0000000D01*
G01*
G37*
G36*
G01*
X0031720Y0187193D02*
X0030264Y0187193D01*
G75*
G02*
X0029732Y0187724I0000000J0000531D01*
G01*
X0029732Y0188787D01*
G75*
G02*
X0030264Y0189319I0000531J0000000D01*
G01*
X0031720Y0189319D01*
G75*
G02*
X0032252Y0188787I0000000J-000531D01*
G01*
X0032252Y0187724D01*
G75*
G02*
X0031720Y0187193I-000531J0000000D01*
G01*
G37*
G36*
G01*
X0039432Y0206602D02*
X0041450Y0206602D01*
G75*
G02*
X0042311Y0205741I0000000J-000861D01*
G01*
X0042311Y0204018D01*
G75*
G02*
X0041450Y0203157I-000861J0000000D01*
G01*
X0039432Y0203157D01*
G75*
G02*
X0038571Y0204018I0000000J0000861D01*
G01*
X0038571Y0205741D01*
G75*
G02*
X0039432Y0206602I0000861J0000000D01*
G01*
G37*
G36*
G01*
X0039432Y0200401D02*
X0041450Y0200401D01*
G75*
G02*
X0042311Y0199540I0000000J-000861D01*
G01*
X0042311Y0197818D01*
G75*
G02*
X0041450Y0196956I-000861J0000000D01*
G01*
X0039432Y0196956D01*
G75*
G02*
X0038571Y0197818I0000000J0000861D01*
G01*
X0038571Y0199540D01*
G75*
G02*
X0039432Y0200401I0000861J0000000D01*
G01*
G37*
G36*
G01*
X0046287Y0200086D02*
X0044831Y0200086D01*
G75*
G02*
X0044299Y0200618I0000000J0000531D01*
G01*
X0044299Y0201681D01*
G75*
G02*
X0044831Y0202212I0000531J0000000D01*
G01*
X0046287Y0202212D01*
G75*
G02*
X0046819Y0201681I0000000J-000531D01*
G01*
X0046819Y0200618D01*
G75*
G02*
X0046287Y0200086I-000531J0000000D01*
G01*
G37*
G36*
G01*
X0046287Y0204102D02*
X0044831Y0204102D01*
G75*
G02*
X0044299Y0204634I0000000J0000531D01*
G01*
X0044299Y0205697D01*
G75*
G02*
X0044831Y0206228I0000531J0000000D01*
G01*
X0046287Y0206228D01*
G75*
G02*
X0046819Y0205697I0000000J-000531D01*
G01*
X0046819Y0204634D01*
G75*
G02*
X0046287Y0204102I-000531J0000000D01*
G01*
G37*
G36*
G01*
X0034201Y0189319D02*
X0035657Y0189319D01*
G75*
G02*
X0036189Y0188787I0000000J-000531D01*
G01*
X0036189Y0187724D01*
G75*
G02*
X0035657Y0187193I-000531J0000000D01*
G01*
X0034201Y0187193D01*
G75*
G02*
X0033669Y0187724I0000000J0000531D01*
G01*
X0033669Y0188787D01*
G75*
G02*
X0034201Y0189319I0000531J0000000D01*
G01*
G37*
G36*
G01*
X0034201Y0185303D02*
X0035657Y0185303D01*
G75*
G02*
X0036189Y0184771I0000000J-000531D01*
G01*
X0036189Y0183708D01*
G75*
G02*
X0035657Y0183177I-000531J0000000D01*
G01*
X0034201Y0183177D01*
G75*
G02*
X0033669Y0183708I0000000J0000531D01*
G01*
X0033669Y0184771D01*
G75*
G02*
X0034201Y0185303I0000531J0000000D01*
G01*
G37*
G36*
G01*
X0028410Y0184004D02*
X0028410Y0182547D01*
G75*
G02*
X0027879Y0182016I-000531J0000000D01*
G01*
X0026816Y0182016D01*
G75*
G02*
X0026284Y0182547I0000000J0000531D01*
G01*
X0026284Y0184004D01*
G75*
G02*
X0026816Y0184535I0000531J0000000D01*
G01*
X0027879Y0184535D01*
G75*
G02*
X0028410Y0184004I0000000J-000531D01*
G01*
G37*
G36*
G01*
X0024394Y0184004D02*
X0024394Y0182547D01*
G75*
G02*
X0023863Y0182016I-000531J0000000D01*
G01*
X0022800Y0182016D01*
G75*
G02*
X0022269Y0182547I0000000J0000531D01*
G01*
X0022269Y0184004D01*
G75*
G02*
X0022800Y0184535I0000531J0000000D01*
G01*
X0023863Y0184535D01*
G75*
G02*
X0024394Y0184004I0000000J-000531D01*
G01*
G37*
G36*
G01*
X0035008Y0201346D02*
X0033669Y0201346D01*
G75*
G02*
X0033118Y0201897I0000000J0000551D01*
G01*
X0033118Y0203000D01*
G75*
G02*
X0033669Y0203551I0000551J0000000D01*
G01*
X0035008Y0203551D01*
G75*
G02*
X0035559Y0203000I0000000J-000551D01*
G01*
X0035559Y0201897D01*
G75*
G02*
X0035008Y0201346I-000551J0000000D01*
G01*
G37*
G36*
G01*
X0035008Y0205126D02*
X0033669Y0205126D01*
G75*
G02*
X0033118Y0205677I0000000J0000551D01*
G01*
X0033118Y0206779D01*
G75*
G02*
X0033669Y0207330I0000551J0000000D01*
G01*
X0035008Y0207330D01*
G75*
G02*
X0035559Y0206779I0000000J-000551D01*
G01*
X0035559Y0205677D01*
G75*
G02*
X0035008Y0205126I-000551J0000000D01*
G01*
G37*
G36*
G01*
X0026471Y0164299D02*
X0026471Y0165638D01*
G75*
G02*
X0027022Y0166189I0000551J0000000D01*
G01*
X0028124Y0166189D01*
G75*
G02*
X0028676Y0165638I0000000J-000551D01*
G01*
X0028676Y0164299D01*
G75*
G02*
X0028124Y0163748I-000551J0000000D01*
G01*
X0027022Y0163748D01*
G75*
G02*
X0026471Y0164299I0000000J0000551D01*
G01*
G37*
G36*
G01*
X0030250Y0164299D02*
X0030250Y0165638D01*
G75*
G02*
X0030802Y0166189I0000551J0000000D01*
G01*
X0031904Y0166189D01*
G75*
G02*
X0032455Y0165638I0000000J-000551D01*
G01*
X0032455Y0164299D01*
G75*
G02*
X0031904Y0163748I-000551J0000000D01*
G01*
X0030802Y0163748D01*
G75*
G02*
X0030250Y0164299I0000000J0000551D01*
G01*
G37*
G36*
G01*
X0018945Y0189319D02*
X0020402Y0189319D01*
G75*
G02*
X0020933Y0188787I0000000J-000531D01*
G01*
X0020933Y0187724D01*
G75*
G02*
X0020402Y0187193I-000531J0000000D01*
G01*
X0018945Y0187193D01*
G75*
G02*
X0018413Y0187724I0000000J0000531D01*
G01*
X0018413Y0188787D01*
G75*
G02*
X0018945Y0189319I0000531J0000000D01*
G01*
G37*
G36*
G01*
X0018945Y0185303D02*
X0020402Y0185303D01*
G75*
G02*
X0020933Y0184771I0000000J-000531D01*
G01*
X0020933Y0183708D01*
G75*
G02*
X0020402Y0183177I-000531J0000000D01*
G01*
X0018945Y0183177D01*
G75*
G02*
X0018413Y0183708I0000000J0000531D01*
G01*
X0018413Y0184771D01*
G75*
G02*
X0018945Y0185303I0000531J0000000D01*
G01*
G37*
D142*
X0020165Y0160060D03*
X0020165Y0157501D03*
X0020165Y0154942D03*
X0027646Y0154942D03*
X0027646Y0157501D03*
X0027646Y0160060D03*
G36*
G01*
X0028951Y0206009D02*
X0030132Y0206009D01*
G75*
G02*
X0030723Y0205418I0000000J-000591D01*
G01*
X0030723Y0201383D01*
G75*
G02*
X0030132Y0200792I-000591J0000000D01*
G01*
X0028951Y0200792D01*
G75*
G02*
X0028361Y0201383I0000000J0000591D01*
G01*
X0028361Y0205418D01*
G75*
G02*
X0028951Y0206009I0000591J0000000D01*
G01*
G37*
G36*
G01*
X0025211Y0206009D02*
X0026392Y0206009D01*
G75*
G02*
X0026983Y0205418I0000000J-000591D01*
G01*
X0026983Y0201383D01*
G75*
G02*
X0026392Y0200792I-000591J0000000D01*
G01*
X0025211Y0200792D01*
G75*
G02*
X0024620Y0201383I0000000J0000591D01*
G01*
X0024620Y0205418D01*
G75*
G02*
X0025211Y0206009I0000591J0000000D01*
G01*
G37*
G36*
G01*
X0021471Y0206009D02*
X0022652Y0206009D01*
G75*
G02*
X0023242Y0205418I0000000J-000591D01*
G01*
X0023242Y0201383D01*
G75*
G02*
X0022652Y0200792I-000591J0000000D01*
G01*
X0021471Y0200792D01*
G75*
G02*
X0020880Y0201383I0000000J0000591D01*
G01*
X0020880Y0205418D01*
G75*
G02*
X0021471Y0206009I0000591J0000000D01*
G01*
G37*
G36*
G01*
X0021471Y0197052D02*
X0022652Y0197052D01*
G75*
G02*
X0023242Y0196462I0000000J-000591D01*
G01*
X0023242Y0192426D01*
G75*
G02*
X0022652Y0191836I-000591J0000000D01*
G01*
X0021471Y0191836D01*
G75*
G02*
X0020880Y0192426I0000000J0000591D01*
G01*
X0020880Y0196462D01*
G75*
G02*
X0021471Y0197052I0000591J0000000D01*
G01*
G37*
G36*
G01*
X0025211Y0197052D02*
X0026392Y0197052D01*
G75*
G02*
X0026983Y0196462I0000000J-000591D01*
G01*
X0026983Y0192426D01*
G75*
G02*
X0026392Y0191836I-000591J0000000D01*
G01*
X0025211Y0191836D01*
G75*
G02*
X0024620Y0192426I0000000J0000591D01*
G01*
X0024620Y0196462D01*
G75*
G02*
X0025211Y0197052I0000591J0000000D01*
G01*
G37*
G36*
G01*
X0028951Y0197052D02*
X0030132Y0197052D01*
G75*
G02*
X0030723Y0196462I0000000J-000591D01*
G01*
X0030723Y0192426D01*
G75*
G02*
X0030132Y0191836I-000591J0000000D01*
G01*
X0028951Y0191836D01*
G75*
G02*
X0028361Y0192426I0000000J0000591D01*
G01*
X0028361Y0196462D01*
G75*
G02*
X0028951Y0197052I0000591J0000000D01*
G01*
G37*
G36*
G01*
X0040835Y0195126D02*
X0042173Y0195126D01*
G75*
G02*
X0042724Y0194575I0000000J-000551D01*
G01*
X0042724Y0193472D01*
G75*
G02*
X0042173Y0192921I-000551J0000000D01*
G01*
X0040835Y0192921D01*
G75*
G02*
X0040283Y0193472I0000000J0000551D01*
G01*
X0040283Y0194575D01*
G75*
G02*
X0040835Y0195126I0000551J0000000D01*
G01*
G37*
G36*
G01*
X0040835Y0191346D02*
X0042173Y0191346D01*
G75*
G02*
X0042724Y0190795I0000000J-000551D01*
G01*
X0042724Y0189693D01*
G75*
G02*
X0042173Y0189141I-000551J0000000D01*
G01*
X0040835Y0189141D01*
G75*
G02*
X0040283Y0189693I0000000J0000551D01*
G01*
X0040283Y0190795D01*
G75*
G02*
X0040835Y0191346I0000551J0000000D01*
G01*
G37*
G36*
G01*
X0018630Y0173354D02*
X0018630Y0174693D01*
G75*
G02*
X0019181Y0175244I0000551J0000000D01*
G01*
X0020283Y0175244D01*
G75*
G02*
X0020835Y0174693I0000000J-000551D01*
G01*
X0020835Y0173354D01*
G75*
G02*
X0020283Y0172803I-000551J0000000D01*
G01*
X0019181Y0172803D01*
G75*
G02*
X0018630Y0173354I0000000J0000551D01*
G01*
G37*
G36*
G01*
X0022409Y0173354D02*
X0022409Y0174693D01*
G75*
G02*
X0022961Y0175244I0000551J0000000D01*
G01*
X0024063Y0175244D01*
G75*
G02*
X0024614Y0174693I0000000J-000551D01*
G01*
X0024614Y0173354D01*
G75*
G02*
X0024063Y0172803I-000551J0000000D01*
G01*
X0022961Y0172803D01*
G75*
G02*
X0022409Y0173354I0000000J0000551D01*
G01*
G37*
G36*
G01*
X0026392Y0169358D02*
X0026392Y0170815D01*
G75*
G02*
X0026924Y0171346I0000531J0000000D01*
G01*
X0027987Y0171346D01*
G75*
G02*
X0028518Y0170815I0000000J-000531D01*
G01*
X0028518Y0169358D01*
G75*
G02*
X0027987Y0168827I-000531J0000000D01*
G01*
X0026924Y0168827D01*
G75*
G02*
X0026392Y0169358I0000000J0000531D01*
G01*
G37*
G36*
G01*
X0030408Y0169358D02*
X0030408Y0170815D01*
G75*
G02*
X0030939Y0171346I0000531J0000000D01*
G01*
X0032002Y0171346D01*
G75*
G02*
X0032534Y0170815I0000000J-000531D01*
G01*
X0032534Y0169358D01*
G75*
G02*
X0032002Y0168827I-000531J0000000D01*
G01*
X0030939Y0168827D01*
G75*
G02*
X0030408Y0169358I0000000J0000531D01*
G01*
G37*
X0277886Y0236835D02*
%LPD*%
G01*
D144*
X0311744Y0249827D03*
X0311744Y0247859D03*
X0311744Y0245890D03*
X0311744Y0243922D03*
X0311744Y0241953D03*
X0329067Y0241953D03*
X0329067Y0243922D03*
X0329067Y0245890D03*
X0329067Y0247859D03*
X0329067Y0249827D03*
G36*
G01*
X0319264Y0263016D02*
X0322335Y0263016D01*
G75*
G02*
X0322610Y0262741I0000000J-000276D01*
G01*
X0322610Y0260536D01*
G75*
G02*
X0322335Y0260260I-000276J0000000D01*
G01*
X0319264Y0260260D01*
G75*
G02*
X0318988Y0260536I0000000J0000276D01*
G01*
X0318988Y0262741D01*
G75*
G02*
X0319264Y0263016I0000276J0000000D01*
G01*
G37*
G36*
G01*
X0319264Y0256717D02*
X0322335Y0256717D01*
G75*
G02*
X0322610Y0256441I0000000J-000276D01*
G01*
X0322610Y0254237D01*
G75*
G02*
X0322335Y0253961I-000276J0000000D01*
G01*
X0319264Y0253961D01*
G75*
G02*
X0318988Y0254237I0000000J0000276D01*
G01*
X0318988Y0256441D01*
G75*
G02*
X0319264Y0256717I0000276J0000000D01*
G01*
G37*
G36*
G01*
X0333595Y0269670D02*
X0333595Y0266599D01*
G75*
G02*
X0333319Y0266323I-000276J0000000D01*
G01*
X0331114Y0266323D01*
G75*
G02*
X0330839Y0266599I0000000J0000276D01*
G01*
X0330839Y0269670D01*
G75*
G02*
X0331114Y0269945I0000276J0000000D01*
G01*
X0333319Y0269945D01*
G75*
G02*
X0333595Y0269670I0000000J-000276D01*
G01*
G37*
G36*
G01*
X0327295Y0269670D02*
X0327295Y0266599D01*
G75*
G02*
X0327020Y0266323I-000276J0000000D01*
G01*
X0324815Y0266323D01*
G75*
G02*
X0324540Y0266599I0000000J0000276D01*
G01*
X0324540Y0269670D01*
G75*
G02*
X0324815Y0269945I0000276J0000000D01*
G01*
X0327020Y0269945D01*
G75*
G02*
X0327295Y0269670I0000000J-000276D01*
G01*
G37*
G36*
G01*
X0313358Y0263016D02*
X0316429Y0263016D01*
G75*
G02*
X0316705Y0262741I0000000J-000276D01*
G01*
X0316705Y0260536D01*
G75*
G02*
X0316429Y0260260I-000276J0000000D01*
G01*
X0313358Y0260260D01*
G75*
G02*
X0313083Y0260536I0000000J0000276D01*
G01*
X0313083Y0262741D01*
G75*
G02*
X0313358Y0263016I0000276J0000000D01*
G01*
G37*
G36*
G01*
X0313358Y0256717D02*
X0316429Y0256717D01*
G75*
G02*
X0316705Y0256441I0000000J-000276D01*
G01*
X0316705Y0254237D01*
G75*
G02*
X0316429Y0253961I-000276J0000000D01*
G01*
X0313358Y0253961D01*
G75*
G02*
X0313083Y0254237I0000000J0000276D01*
G01*
X0313083Y0256441D01*
G75*
G02*
X0313358Y0256717I0000276J0000000D01*
G01*
G37*
G36*
G01*
X0321685Y0269340D02*
X0321685Y0267322D01*
G75*
G02*
X0320824Y0266461I-000861J0000000D01*
G01*
X0319102Y0266461D01*
G75*
G02*
X0318240Y0267322I0000000J0000861D01*
G01*
X0318240Y0269340D01*
G75*
G02*
X0319102Y0270201I0000861J0000000D01*
G01*
X0320824Y0270201D01*
G75*
G02*
X0321685Y0269340I0000000J-000861D01*
G01*
G37*
G36*
G01*
X0315484Y0269340D02*
X0315484Y0267322D01*
G75*
G02*
X0314623Y0266461I-000861J0000000D01*
G01*
X0312901Y0266461D01*
G75*
G02*
X0312040Y0267322I0000000J0000861D01*
G01*
X0312040Y0269340D01*
G75*
G02*
X0312901Y0270201I0000861J0000000D01*
G01*
X0314623Y0270201D01*
G75*
G02*
X0315484Y0269340I0000000J-000861D01*
G01*
G37*
G36*
G01*
X0327630Y0262378D02*
X0327630Y0259701D01*
G75*
G02*
X0327295Y0259366I-000335J0000000D01*
G01*
X0324618Y0259366D01*
G75*
G02*
X0324284Y0259701I0000000J0000335D01*
G01*
X0324284Y0262378D01*
G75*
G02*
X0324618Y0262713I0000335J0000000D01*
G01*
X0327295Y0262713D01*
G75*
G02*
X0327630Y0262378I0000000J-000335D01*
G01*
G37*
G36*
G01*
X0333851Y0262378D02*
X0333851Y0259701D01*
G75*
G02*
X0333516Y0259366I-000335J0000000D01*
G01*
X0330839Y0259366D01*
G75*
G02*
X0330504Y0259701I0000000J0000335D01*
G01*
X0330504Y0262378D01*
G75*
G02*
X0330839Y0262713I0000335J0000000D01*
G01*
X0333516Y0262713D01*
G75*
G02*
X0333851Y0262378I0000000J-000335D01*
G01*
G37*
G36*
G01*
X0333851Y0257071D02*
X0333851Y0254394D01*
G75*
G02*
X0333516Y0254059I-000335J0000000D01*
G01*
X0330839Y0254059D01*
G75*
G02*
X0330504Y0254394I0000000J0000335D01*
G01*
X0330504Y0257071D01*
G75*
G02*
X0330839Y0257406I0000335J0000000D01*
G01*
X0333516Y0257406D01*
G75*
G02*
X0333851Y0257071I0000000J-000335D01*
G01*
G37*
G36*
G01*
X0327630Y0257071D02*
X0327630Y0254394D01*
G75*
G02*
X0327295Y0254059I-000335J0000000D01*
G01*
X0324618Y0254059D01*
G75*
G02*
X0324284Y0254394I0000000J0000335D01*
G01*
X0324284Y0257071D01*
G75*
G02*
X0324618Y0257406I0000335J0000000D01*
G01*
X0327295Y0257406D01*
G75*
G02*
X0327630Y0257071I0000000J-000335D01*
G01*
G37*
G36*
G01*
X0308437Y0263272D02*
X0311114Y0263272D01*
G75*
G02*
X0311449Y0262937I0000000J-000335D01*
G01*
X0311449Y0260260D01*
G75*
G02*
X0311114Y0259926I-000335J0000000D01*
G01*
X0308437Y0259926D01*
G75*
G02*
X0308103Y0260260I0000000J0000335D01*
G01*
X0308103Y0262937D01*
G75*
G02*
X0308437Y0263272I0000335J0000000D01*
G01*
G37*
G36*
G01*
X0308437Y0257052D02*
X0311114Y0257052D01*
G75*
G02*
X0311449Y0256717I0000000J-000335D01*
G01*
X0311449Y0254040D01*
G75*
G02*
X0311114Y0253705I-000335J0000000D01*
G01*
X0308437Y0253705D01*
G75*
G02*
X0308103Y0254040I0000000J0000335D01*
G01*
X0308103Y0256717D01*
G75*
G02*
X0308437Y0257052I0000335J0000000D01*
G01*
G37*
X0547559Y0096898D02*
%LPD*%
G01*
G36*
G01*
X0479951Y0061189D02*
X0481309Y0061189D01*
G75*
G02*
X0481890Y0060609I0000000J-000581D01*
G01*
X0481890Y0059447D01*
G75*
G02*
X0481309Y0058867I-000581J0000000D01*
G01*
X0479951Y0058867D01*
G75*
G02*
X0479370Y0059447I0000000J0000581D01*
G01*
X0479370Y0060609D01*
G75*
G02*
X0479951Y0061189I0000581J0000000D01*
G01*
G37*
G36*
G01*
X0479951Y0057370D02*
X0481309Y0057370D01*
G75*
G02*
X0481890Y0056790I0000000J-000581D01*
G01*
X0481890Y0055628D01*
G75*
G02*
X0481309Y0055048I-000581J0000000D01*
G01*
X0479951Y0055048D01*
G75*
G02*
X0479370Y0055628I0000000J0000581D01*
G01*
X0479370Y0056790D01*
G75*
G02*
X0479951Y0057370I0000581J0000000D01*
G01*
G37*
G36*
G01*
X0538524Y0076613D02*
X0538524Y0075254D01*
G75*
G02*
X0537943Y0074674I-000581J0000000D01*
G01*
X0536781Y0074674D01*
G75*
G02*
X0536201Y0075254I0000000J0000581D01*
G01*
X0536201Y0076613D01*
G75*
G02*
X0536781Y0077193I0000581J0000000D01*
G01*
X0537943Y0077193D01*
G75*
G02*
X0538524Y0076613I0000000J-000581D01*
G01*
G37*
G36*
G01*
X0534705Y0076613D02*
X0534705Y0075254D01*
G75*
G02*
X0534124Y0074674I-000581J0000000D01*
G01*
X0532963Y0074674D01*
G75*
G02*
X0532382Y0075254I0000000J0000581D01*
G01*
X0532382Y0076613D01*
G75*
G02*
X0532963Y0077193I0000581J0000000D01*
G01*
X0534124Y0077193D01*
G75*
G02*
X0534705Y0076613I0000000J-000581D01*
G01*
G37*
G36*
G01*
X0527997Y0061416D02*
X0525979Y0061416D01*
G75*
G02*
X0525118Y0062277I0000000J0000861D01*
G01*
X0525118Y0063999D01*
G75*
G02*
X0525979Y0064861I0000861J0000000D01*
G01*
X0527997Y0064861D01*
G75*
G02*
X0528858Y0063999I0000000J-000861D01*
G01*
X0528858Y0062277D01*
G75*
G02*
X0527997Y0061416I-000861J0000000D01*
G01*
G37*
G36*
G01*
X0527997Y0067617D02*
X0525979Y0067617D01*
G75*
G02*
X0525118Y0068478I0000000J0000861D01*
G01*
X0525118Y0070200D01*
G75*
G02*
X0525979Y0071061I0000861J0000000D01*
G01*
X0527997Y0071061D01*
G75*
G02*
X0528858Y0070200I0000000J-000861D01*
G01*
X0528858Y0068478D01*
G75*
G02*
X0527997Y0067617I-000861J0000000D01*
G01*
G37*
G36*
G01*
X0481506Y0086445D02*
X0480148Y0086445D01*
G75*
G02*
X0479567Y0087026I0000000J0000581D01*
G01*
X0479567Y0088187D01*
G75*
G02*
X0480148Y0088768I0000581J0000000D01*
G01*
X0481506Y0088768D01*
G75*
G02*
X0482087Y0088187I0000000J-000581D01*
G01*
X0482087Y0087026D01*
G75*
G02*
X0481506Y0086445I-000581J0000000D01*
G01*
G37*
G36*
G01*
X0481506Y0090264D02*
X0480148Y0090264D01*
G75*
G02*
X0479567Y0090845I0000000J0000581D01*
G01*
X0479567Y0092006D01*
G75*
G02*
X0480148Y0092587I0000581J0000000D01*
G01*
X0481506Y0092587D01*
G75*
G02*
X0482087Y0092006I0000000J-000581D01*
G01*
X0482087Y0090845D01*
G75*
G02*
X0481506Y0090264I-000581J0000000D01*
G01*
G37*
D145*
X0532697Y0070618D03*
X0532697Y0063138D03*
X0540571Y0066878D03*
G36*
G01*
X0485689Y0086445D02*
X0484331Y0086445D01*
G75*
G02*
X0483750Y0087026I0000000J0000581D01*
G01*
X0483750Y0088187D01*
G75*
G02*
X0484331Y0088768I0000581J0000000D01*
G01*
X0485689Y0088768D01*
G75*
G02*
X0486270Y0088187I0000000J-000581D01*
G01*
X0486270Y0087026D01*
G75*
G02*
X0485689Y0086445I-000581J0000000D01*
G01*
G37*
G36*
G01*
X0485689Y0090264D02*
X0484331Y0090264D01*
G75*
G02*
X0483750Y0090845I0000000J0000581D01*
G01*
X0483750Y0092006D01*
G75*
G02*
X0484331Y0092587I0000581J0000000D01*
G01*
X0485689Y0092587D01*
G75*
G02*
X0486270Y0092006I0000000J-000581D01*
G01*
X0486270Y0090845D01*
G75*
G02*
X0485689Y0090264I-000581J0000000D01*
G01*
G37*
G36*
G01*
X0481309Y0062528D02*
X0479951Y0062528D01*
G75*
G02*
X0479370Y0063109I0000000J0000581D01*
G01*
X0479370Y0064270D01*
G75*
G02*
X0479951Y0064851I0000581J0000000D01*
G01*
X0481309Y0064851D01*
G75*
G02*
X0481890Y0064270I0000000J-000581D01*
G01*
X0481890Y0063109D01*
G75*
G02*
X0481309Y0062528I-000581J0000000D01*
G01*
G37*
G36*
G01*
X0481309Y0066347D02*
X0479951Y0066347D01*
G75*
G02*
X0479370Y0066928I0000000J0000581D01*
G01*
X0479370Y0068089D01*
G75*
G02*
X0479951Y0068670I0000581J0000000D01*
G01*
X0481309Y0068670D01*
G75*
G02*
X0481890Y0068089I0000000J-000581D01*
G01*
X0481890Y0066928D01*
G75*
G02*
X0481309Y0066347I-000581J0000000D01*
G01*
G37*
G36*
G01*
X0485069Y0050264D02*
X0486427Y0050264D01*
G75*
G02*
X0487008Y0049683I0000000J-000581D01*
G01*
X0487008Y0048522D01*
G75*
G02*
X0486427Y0047941I-000581J0000000D01*
G01*
X0485069Y0047941D01*
G75*
G02*
X0484488Y0048522I0000000J0000581D01*
G01*
X0484488Y0049683D01*
G75*
G02*
X0485069Y0050264I0000581J0000000D01*
G01*
G37*
G36*
G01*
X0485069Y0046445D02*
X0486427Y0046445D01*
G75*
G02*
X0487008Y0045865I0000000J-000581D01*
G01*
X0487008Y0044703D01*
G75*
G02*
X0486427Y0044122I-000581J0000000D01*
G01*
X0485069Y0044122D01*
G75*
G02*
X0484488Y0044703I0000000J0000581D01*
G01*
X0484488Y0045865D01*
G75*
G02*
X0485069Y0046445I0000581J0000000D01*
G01*
G37*
G36*
G01*
X0479951Y0077036D02*
X0481309Y0077036D01*
G75*
G02*
X0481890Y0076455I0000000J-000581D01*
G01*
X0481890Y0075294D01*
G75*
G02*
X0481309Y0074713I-000581J0000000D01*
G01*
X0479951Y0074713D01*
G75*
G02*
X0479370Y0075294I0000000J0000581D01*
G01*
X0479370Y0076455D01*
G75*
G02*
X0479951Y0077036I0000581J0000000D01*
G01*
G37*
G36*
G01*
X0479951Y0073217D02*
X0481309Y0073217D01*
G75*
G02*
X0481890Y0072636I0000000J-000581D01*
G01*
X0481890Y0071475D01*
G75*
G02*
X0481309Y0070894I-000581J0000000D01*
G01*
X0479951Y0070894D01*
G75*
G02*
X0479370Y0071475I0000000J0000581D01*
G01*
X0479370Y0072636D01*
G75*
G02*
X0479951Y0073217I0000581J0000000D01*
G01*
G37*
G36*
G01*
X0519715Y0050264D02*
X0521073Y0050264D01*
G75*
G02*
X0521653Y0049683I0000000J-000581D01*
G01*
X0521653Y0048522D01*
G75*
G02*
X0521073Y0047941I-000581J0000000D01*
G01*
X0519715Y0047941D01*
G75*
G02*
X0519134Y0048522I0000000J0000581D01*
G01*
X0519134Y0049683D01*
G75*
G02*
X0519715Y0050264I0000581J0000000D01*
G01*
G37*
G36*
G01*
X0519715Y0046445D02*
X0521073Y0046445D01*
G75*
G02*
X0521653Y0045865I0000000J-000581D01*
G01*
X0521653Y0044703D01*
G75*
G02*
X0521073Y0044122I-000581J0000000D01*
G01*
X0519715Y0044122D01*
G75*
G02*
X0519134Y0044703I0000000J0000581D01*
G01*
X0519134Y0045865D01*
G75*
G02*
X0519715Y0046445I0000581J0000000D01*
G01*
G37*
D154*
X0458248Y0075146D03*
X0470256Y0075146D03*
X0458248Y0088335D03*
X0470256Y0088335D03*
D146*
X0455276Y0056937D03*
X0473228Y0056937D03*
G36*
G01*
X0530748Y0076711D02*
X0530748Y0075353D01*
G75*
G02*
X0530167Y0074772I-000581J0000000D01*
G01*
X0529006Y0074772D01*
G75*
G02*
X0528425Y0075353I0000000J0000581D01*
G01*
X0528425Y0076711D01*
G75*
G02*
X0529006Y0077292I0000581J0000000D01*
G01*
X0530167Y0077292D01*
G75*
G02*
X0530748Y0076711I0000000J-000581D01*
G01*
G37*
G36*
G01*
X0526929Y0076711D02*
X0526929Y0075353D01*
G75*
G02*
X0526348Y0074772I-000581J0000000D01*
G01*
X0525187Y0074772D01*
G75*
G02*
X0524606Y0075353I0000000J0000581D01*
G01*
X0524606Y0076711D01*
G75*
G02*
X0525187Y0077292I0000581J0000000D01*
G01*
X0526348Y0077292D01*
G75*
G02*
X0526929Y0076711I0000000J-000581D01*
G01*
G37*
G36*
G01*
X0492244Y0090377D02*
X0492244Y0092395D01*
G75*
G02*
X0493105Y0093256I0000861J0000000D01*
G01*
X0494828Y0093256D01*
G75*
G02*
X0495689Y0092395I0000000J-000861D01*
G01*
X0495689Y0090377D01*
G75*
G02*
X0494828Y0089516I-000861J0000000D01*
G01*
X0493105Y0089516D01*
G75*
G02*
X0492244Y0090377I0000000J0000861D01*
G01*
G37*
G36*
G01*
X0498445Y0090377D02*
X0498445Y0092395D01*
G75*
G02*
X0499306Y0093256I0000861J0000000D01*
G01*
X0501028Y0093256D01*
G75*
G02*
X0501890Y0092395I0000000J-000861D01*
G01*
X0501890Y0090377D01*
G75*
G02*
X0501028Y0089516I-000861J0000000D01*
G01*
X0499306Y0089516D01*
G75*
G02*
X0498445Y0090377I0000000J0000861D01*
G01*
G37*
G36*
G01*
X0489872Y0086445D02*
X0488514Y0086445D01*
G75*
G02*
X0487933Y0087026I0000000J0000581D01*
G01*
X0487933Y0088187D01*
G75*
G02*
X0488514Y0088768I0000581J0000000D01*
G01*
X0489872Y0088768D01*
G75*
G02*
X0490453Y0088187I0000000J-000581D01*
G01*
X0490453Y0087026D01*
G75*
G02*
X0489872Y0086445I-000581J0000000D01*
G01*
G37*
G36*
G01*
X0489872Y0090264D02*
X0488514Y0090264D01*
G75*
G02*
X0487933Y0090845I0000000J0000581D01*
G01*
X0487933Y0092006D01*
G75*
G02*
X0488514Y0092587I0000581J0000000D01*
G01*
X0489872Y0092587D01*
G75*
G02*
X0490453Y0092006I0000000J-000581D01*
G01*
X0490453Y0090845D01*
G75*
G02*
X0489872Y0090264I-000581J0000000D01*
G01*
G37*
G36*
G01*
X0445763Y0090992D02*
X0447780Y0090992D01*
G75*
G02*
X0448642Y0090131I0000000J-000861D01*
G01*
X0448642Y0088409D01*
G75*
G02*
X0447780Y0087548I-000861J0000000D01*
G01*
X0445763Y0087548D01*
G75*
G02*
X0444902Y0088409I0000000J0000861D01*
G01*
X0444902Y0090131D01*
G75*
G02*
X0445763Y0090992I0000861J0000000D01*
G01*
G37*
G36*
G01*
X0445763Y0084792D02*
X0447780Y0084792D01*
G75*
G02*
X0448642Y0083930I0000000J-000861D01*
G01*
X0448642Y0082208D01*
G75*
G02*
X0447780Y0081347I-000861J0000000D01*
G01*
X0445763Y0081347D01*
G75*
G02*
X0444902Y0082208I0000000J0000861D01*
G01*
X0444902Y0083930D01*
G75*
G02*
X0445763Y0084792I0000861J0000000D01*
G01*
G37*
G36*
G01*
X0513602Y0092395D02*
X0513602Y0090377D01*
G75*
G02*
X0512741Y0089516I-000861J0000000D01*
G01*
X0511019Y0089516D01*
G75*
G02*
X0510157Y0090377I0000000J0000861D01*
G01*
X0510157Y0092395D01*
G75*
G02*
X0511019Y0093256I0000861J0000000D01*
G01*
X0512741Y0093256D01*
G75*
G02*
X0513602Y0092395I0000000J-000861D01*
G01*
G37*
G36*
G01*
X0507402Y0092395D02*
X0507402Y0090377D01*
G75*
G02*
X0506540Y0089516I-000861J0000000D01*
G01*
X0504818Y0089516D01*
G75*
G02*
X0503957Y0090377I0000000J0000861D01*
G01*
X0503957Y0092395D01*
G75*
G02*
X0504818Y0093256I0000861J0000000D01*
G01*
X0506540Y0093256D01*
G75*
G02*
X0507402Y0092395I0000000J-000861D01*
G01*
G37*
G36*
G01*
X0517923Y0088217D02*
X0516565Y0088217D01*
G75*
G02*
X0515984Y0088798I0000000J0000581D01*
G01*
X0515984Y0089959D01*
G75*
G02*
X0516565Y0090540I0000581J0000000D01*
G01*
X0517923Y0090540D01*
G75*
G02*
X0518504Y0089959I0000000J-000581D01*
G01*
X0518504Y0088798D01*
G75*
G02*
X0517923Y0088217I-000581J0000000D01*
G01*
G37*
G36*
G01*
X0517923Y0092036D02*
X0516565Y0092036D01*
G75*
G02*
X0515984Y0092617I0000000J0000581D01*
G01*
X0515984Y0093778D01*
G75*
G02*
X0516565Y0094359I0000581J0000000D01*
G01*
X0517923Y0094359D01*
G75*
G02*
X0518504Y0093778I0000000J-000581D01*
G01*
X0518504Y0092617D01*
G75*
G02*
X0517923Y0092036I-000581J0000000D01*
G01*
G37*
G36*
G01*
X0483484Y0075540D02*
X0483484Y0076524D01*
G75*
G02*
X0483976Y0077016I0000492J0000000D01*
G01*
X0488898Y0077016D01*
G75*
G02*
X0489390Y0076524I0000000J-000492D01*
G01*
X0489390Y0075540D01*
G75*
G02*
X0488898Y0075048I-000492J0000000D01*
G01*
X0483976Y0075048D01*
G75*
G02*
X0483484Y0075540I0000000J0000492D01*
G01*
G37*
G36*
G01*
X0483484Y0072390D02*
X0483484Y0073374D01*
G75*
G02*
X0483976Y0073867I0000492J0000000D01*
G01*
X0488898Y0073867D01*
G75*
G02*
X0489390Y0073374I0000000J-000492D01*
G01*
X0489390Y0072390D01*
G75*
G02*
X0488898Y0071898I-000492J0000000D01*
G01*
X0483976Y0071898D01*
G75*
G02*
X0483484Y0072390I0000000J0000492D01*
G01*
G37*
G36*
G01*
X0483484Y0069241D02*
X0483484Y0070225D01*
G75*
G02*
X0483976Y0070717I0000492J0000000D01*
G01*
X0488898Y0070717D01*
G75*
G02*
X0489390Y0070225I0000000J-000492D01*
G01*
X0489390Y0069241D01*
G75*
G02*
X0488898Y0068748I-000492J0000000D01*
G01*
X0483976Y0068748D01*
G75*
G02*
X0483484Y0069241I0000000J0000492D01*
G01*
G37*
G36*
G01*
X0483484Y0066091D02*
X0483484Y0067075D01*
G75*
G02*
X0483976Y0067567I0000492J0000000D01*
G01*
X0488898Y0067567D01*
G75*
G02*
X0489390Y0067075I0000000J-000492D01*
G01*
X0489390Y0066091D01*
G75*
G02*
X0488898Y0065599I-000492J0000000D01*
G01*
X0483976Y0065599D01*
G75*
G02*
X0483484Y0066091I0000000J0000492D01*
G01*
G37*
G36*
G01*
X0483484Y0062941D02*
X0483484Y0063926D01*
G75*
G02*
X0483976Y0064418I0000492J0000000D01*
G01*
X0488898Y0064418D01*
G75*
G02*
X0489390Y0063926I0000000J-000492D01*
G01*
X0489390Y0062941D01*
G75*
G02*
X0488898Y0062449I-000492J0000000D01*
G01*
X0483976Y0062449D01*
G75*
G02*
X0483484Y0062941I0000000J0000492D01*
G01*
G37*
G36*
G01*
X0483484Y0059792D02*
X0483484Y0060776D01*
G75*
G02*
X0483976Y0061268I0000492J0000000D01*
G01*
X0488898Y0061268D01*
G75*
G02*
X0489390Y0060776I0000000J-000492D01*
G01*
X0489390Y0059792D01*
G75*
G02*
X0488898Y0059300I-000492J0000000D01*
G01*
X0483976Y0059300D01*
G75*
G02*
X0483484Y0059792I0000000J0000492D01*
G01*
G37*
G36*
G01*
X0483484Y0056642D02*
X0483484Y0057626D01*
G75*
G02*
X0483976Y0058118I0000492J0000000D01*
G01*
X0488898Y0058118D01*
G75*
G02*
X0489390Y0057626I0000000J-000492D01*
G01*
X0489390Y0056642D01*
G75*
G02*
X0488898Y0056150I-000492J0000000D01*
G01*
X0483976Y0056150D01*
G75*
G02*
X0483484Y0056642I0000000J0000492D01*
G01*
G37*
G36*
G01*
X0483484Y0053492D02*
X0483484Y0054477D01*
G75*
G02*
X0483976Y0054969I0000492J0000000D01*
G01*
X0488898Y0054969D01*
G75*
G02*
X0489390Y0054477I0000000J-000492D01*
G01*
X0489390Y0053492D01*
G75*
G02*
X0488898Y0053000I-000492J0000000D01*
G01*
X0483976Y0053000D01*
G75*
G02*
X0483484Y0053492I0000000J0000492D01*
G01*
G37*
G36*
G01*
X0490866Y0046111D02*
X0490866Y0051032D01*
G75*
G02*
X0491358Y0051524I0000492J0000000D01*
G01*
X0492342Y0051524D01*
G75*
G02*
X0492835Y0051032I0000000J-000492D01*
G01*
X0492835Y0046111D01*
G75*
G02*
X0492342Y0045618I-000492J0000000D01*
G01*
X0491358Y0045618D01*
G75*
G02*
X0490866Y0046111I0000000J0000492D01*
G01*
G37*
G36*
G01*
X0494016Y0046111D02*
X0494016Y0051032D01*
G75*
G02*
X0494508Y0051524I0000492J0000000D01*
G01*
X0495492Y0051524D01*
G75*
G02*
X0495984Y0051032I0000000J-000492D01*
G01*
X0495984Y0046111D01*
G75*
G02*
X0495492Y0045618I-000492J0000000D01*
G01*
X0494508Y0045618D01*
G75*
G02*
X0494016Y0046111I0000000J0000492D01*
G01*
G37*
G36*
G01*
X0497165Y0046111D02*
X0497165Y0051032D01*
G75*
G02*
X0497657Y0051524I0000492J0000000D01*
G01*
X0498642Y0051524D01*
G75*
G02*
X0499134Y0051032I0000000J-000492D01*
G01*
X0499134Y0046111D01*
G75*
G02*
X0498642Y0045618I-000492J0000000D01*
G01*
X0497657Y0045618D01*
G75*
G02*
X0497165Y0046111I0000000J0000492D01*
G01*
G37*
G36*
G01*
X0500315Y0046111D02*
X0500315Y0051032D01*
G75*
G02*
X0500807Y0051524I0000492J0000000D01*
G01*
X0501791Y0051524D01*
G75*
G02*
X0502283Y0051032I0000000J-000492D01*
G01*
X0502283Y0046111D01*
G75*
G02*
X0501791Y0045618I-000492J0000000D01*
G01*
X0500807Y0045618D01*
G75*
G02*
X0500315Y0046111I0000000J0000492D01*
G01*
G37*
G36*
G01*
X0503465Y0046111D02*
X0503465Y0051032D01*
G75*
G02*
X0503957Y0051524I0000492J0000000D01*
G01*
X0504941Y0051524D01*
G75*
G02*
X0505433Y0051032I0000000J-000492D01*
G01*
X0505433Y0046111D01*
G75*
G02*
X0504941Y0045618I-000492J0000000D01*
G01*
X0503957Y0045618D01*
G75*
G02*
X0503465Y0046111I0000000J0000492D01*
G01*
G37*
G36*
G01*
X0506614Y0046111D02*
X0506614Y0051032D01*
G75*
G02*
X0507106Y0051524I0000492J0000000D01*
G01*
X0508090Y0051524D01*
G75*
G02*
X0508583Y0051032I0000000J-000492D01*
G01*
X0508583Y0046111D01*
G75*
G02*
X0508090Y0045618I-000492J0000000D01*
G01*
X0507106Y0045618D01*
G75*
G02*
X0506614Y0046111I0000000J0000492D01*
G01*
G37*
G36*
G01*
X0509764Y0046111D02*
X0509764Y0051032D01*
G75*
G02*
X0510256Y0051524I0000492J0000000D01*
G01*
X0511240Y0051524D01*
G75*
G02*
X0511732Y0051032I0000000J-000492D01*
G01*
X0511732Y0046111D01*
G75*
G02*
X0511240Y0045618I-000492J0000000D01*
G01*
X0510256Y0045618D01*
G75*
G02*
X0509764Y0046111I0000000J0000492D01*
G01*
G37*
G36*
G01*
X0512913Y0046111D02*
X0512913Y0051032D01*
G75*
G02*
X0513405Y0051524I0000492J0000000D01*
G01*
X0514390Y0051524D01*
G75*
G02*
X0514882Y0051032I0000000J-000492D01*
G01*
X0514882Y0046111D01*
G75*
G02*
X0514390Y0045618I-000492J0000000D01*
G01*
X0513405Y0045618D01*
G75*
G02*
X0512913Y0046111I0000000J0000492D01*
G01*
G37*
G36*
G01*
X0516358Y0053492D02*
X0516358Y0054477D01*
G75*
G02*
X0516850Y0054969I0000492J0000000D01*
G01*
X0521772Y0054969D01*
G75*
G02*
X0522264Y0054477I0000000J-000492D01*
G01*
X0522264Y0053492D01*
G75*
G02*
X0521772Y0053000I-000492J0000000D01*
G01*
X0516850Y0053000D01*
G75*
G02*
X0516358Y0053492I0000000J0000492D01*
G01*
G37*
G36*
G01*
X0516358Y0056642D02*
X0516358Y0057626D01*
G75*
G02*
X0516850Y0058118I0000492J0000000D01*
G01*
X0521772Y0058118D01*
G75*
G02*
X0522264Y0057626I0000000J-000492D01*
G01*
X0522264Y0056642D01*
G75*
G02*
X0521772Y0056150I-000492J0000000D01*
G01*
X0516850Y0056150D01*
G75*
G02*
X0516358Y0056642I0000000J0000492D01*
G01*
G37*
G36*
G01*
X0516358Y0059792D02*
X0516358Y0060776D01*
G75*
G02*
X0516850Y0061268I0000492J0000000D01*
G01*
X0521772Y0061268D01*
G75*
G02*
X0522264Y0060776I0000000J-000492D01*
G01*
X0522264Y0059792D01*
G75*
G02*
X0521772Y0059300I-000492J0000000D01*
G01*
X0516850Y0059300D01*
G75*
G02*
X0516358Y0059792I0000000J0000492D01*
G01*
G37*
G36*
G01*
X0516358Y0062941D02*
X0516358Y0063926D01*
G75*
G02*
X0516850Y0064418I0000492J0000000D01*
G01*
X0521772Y0064418D01*
G75*
G02*
X0522264Y0063926I0000000J-000492D01*
G01*
X0522264Y0062941D01*
G75*
G02*
X0521772Y0062449I-000492J0000000D01*
G01*
X0516850Y0062449D01*
G75*
G02*
X0516358Y0062941I0000000J0000492D01*
G01*
G37*
G36*
G01*
X0516358Y0066091D02*
X0516358Y0067075D01*
G75*
G02*
X0516850Y0067567I0000492J0000000D01*
G01*
X0521772Y0067567D01*
G75*
G02*
X0522264Y0067075I0000000J-000492D01*
G01*
X0522264Y0066091D01*
G75*
G02*
X0521772Y0065599I-000492J0000000D01*
G01*
X0516850Y0065599D01*
G75*
G02*
X0516358Y0066091I0000000J0000492D01*
G01*
G37*
G36*
G01*
X0516358Y0069241D02*
X0516358Y0070225D01*
G75*
G02*
X0516850Y0070717I0000492J0000000D01*
G01*
X0521772Y0070717D01*
G75*
G02*
X0522264Y0070225I0000000J-000492D01*
G01*
X0522264Y0069241D01*
G75*
G02*
X0521772Y0068748I-000492J0000000D01*
G01*
X0516850Y0068748D01*
G75*
G02*
X0516358Y0069241I0000000J0000492D01*
G01*
G37*
G36*
G01*
X0516358Y0072390D02*
X0516358Y0073374D01*
G75*
G02*
X0516850Y0073867I0000492J0000000D01*
G01*
X0521772Y0073867D01*
G75*
G02*
X0522264Y0073374I0000000J-000492D01*
G01*
X0522264Y0072390D01*
G75*
G02*
X0521772Y0071898I-000492J0000000D01*
G01*
X0516850Y0071898D01*
G75*
G02*
X0516358Y0072390I0000000J0000492D01*
G01*
G37*
G36*
G01*
X0516358Y0075540D02*
X0516358Y0076524D01*
G75*
G02*
X0516850Y0077016I0000492J0000000D01*
G01*
X0521772Y0077016D01*
G75*
G02*
X0522264Y0076524I0000000J-000492D01*
G01*
X0522264Y0075540D01*
G75*
G02*
X0521772Y0075048I-000492J0000000D01*
G01*
X0516850Y0075048D01*
G75*
G02*
X0516358Y0075540I0000000J0000492D01*
G01*
G37*
G36*
G01*
X0512913Y0078985D02*
X0512913Y0083906D01*
G75*
G02*
X0513405Y0084398I0000492J0000000D01*
G01*
X0514390Y0084398D01*
G75*
G02*
X0514882Y0083906I0000000J-000492D01*
G01*
X0514882Y0078985D01*
G75*
G02*
X0514390Y0078492I-000492J0000000D01*
G01*
X0513405Y0078492D01*
G75*
G02*
X0512913Y0078985I0000000J0000492D01*
G01*
G37*
G36*
G01*
X0509764Y0078985D02*
X0509764Y0083906D01*
G75*
G02*
X0510256Y0084398I0000492J0000000D01*
G01*
X0511240Y0084398D01*
G75*
G02*
X0511732Y0083906I0000000J-000492D01*
G01*
X0511732Y0078985D01*
G75*
G02*
X0511240Y0078492I-000492J0000000D01*
G01*
X0510256Y0078492D01*
G75*
G02*
X0509764Y0078985I0000000J0000492D01*
G01*
G37*
G36*
G01*
X0506614Y0078985D02*
X0506614Y0083906D01*
G75*
G02*
X0507106Y0084398I0000492J0000000D01*
G01*
X0508090Y0084398D01*
G75*
G02*
X0508583Y0083906I0000000J-000492D01*
G01*
X0508583Y0078985D01*
G75*
G02*
X0508090Y0078492I-000492J0000000D01*
G01*
X0507106Y0078492D01*
G75*
G02*
X0506614Y0078985I0000000J0000492D01*
G01*
G37*
G36*
G01*
X0503465Y0078985D02*
X0503465Y0083906D01*
G75*
G02*
X0503957Y0084398I0000492J0000000D01*
G01*
X0504941Y0084398D01*
G75*
G02*
X0505433Y0083906I0000000J-000492D01*
G01*
X0505433Y0078985D01*
G75*
G02*
X0504941Y0078492I-000492J0000000D01*
G01*
X0503957Y0078492D01*
G75*
G02*
X0503465Y0078985I0000000J0000492D01*
G01*
G37*
G36*
G01*
X0500315Y0078985D02*
X0500315Y0083906D01*
G75*
G02*
X0500807Y0084398I0000492J0000000D01*
G01*
X0501791Y0084398D01*
G75*
G02*
X0502283Y0083906I0000000J-000492D01*
G01*
X0502283Y0078985D01*
G75*
G02*
X0501791Y0078492I-000492J0000000D01*
G01*
X0500807Y0078492D01*
G75*
G02*
X0500315Y0078985I0000000J0000492D01*
G01*
G37*
G36*
G01*
X0497165Y0078985D02*
X0497165Y0083906D01*
G75*
G02*
X0497657Y0084398I0000492J0000000D01*
G01*
X0498642Y0084398D01*
G75*
G02*
X0499134Y0083906I0000000J-000492D01*
G01*
X0499134Y0078985D01*
G75*
G02*
X0498642Y0078492I-000492J0000000D01*
G01*
X0497657Y0078492D01*
G75*
G02*
X0497165Y0078985I0000000J0000492D01*
G01*
G37*
G36*
G01*
X0494016Y0078985D02*
X0494016Y0083906D01*
G75*
G02*
X0494508Y0084398I0000492J0000000D01*
G01*
X0495492Y0084398D01*
G75*
G02*
X0495984Y0083906I0000000J-000492D01*
G01*
X0495984Y0078985D01*
G75*
G02*
X0495492Y0078492I-000492J0000000D01*
G01*
X0494508Y0078492D01*
G75*
G02*
X0494016Y0078985I0000000J0000492D01*
G01*
G37*
G36*
G01*
X0490866Y0078985D02*
X0490866Y0083906D01*
G75*
G02*
X0491358Y0084398I0000492J0000000D01*
G01*
X0492342Y0084398D01*
G75*
G02*
X0492835Y0083906I0000000J-000492D01*
G01*
X0492835Y0078985D01*
G75*
G02*
X0492342Y0078492I-000492J0000000D01*
G01*
X0491358Y0078492D01*
G75*
G02*
X0490866Y0078985I0000000J0000492D01*
G01*
G37*
G36*
G01*
X0525492Y0057439D02*
X0525492Y0058798D01*
G75*
G02*
X0526073Y0059378I0000581J0000000D01*
G01*
X0527234Y0059378D01*
G75*
G02*
X0527815Y0058798I0000000J-000581D01*
G01*
X0527815Y0057439D01*
G75*
G02*
X0527234Y0056859I-000581J0000000D01*
G01*
X0526073Y0056859D01*
G75*
G02*
X0525492Y0057439I0000000J0000581D01*
G01*
G37*
G36*
G01*
X0529311Y0057439D02*
X0529311Y0058798D01*
G75*
G02*
X0529892Y0059378I0000581J0000000D01*
G01*
X0531053Y0059378D01*
G75*
G02*
X0531634Y0058798I0000000J-000581D01*
G01*
X0531634Y0057439D01*
G75*
G02*
X0531053Y0056859I-000581J0000000D01*
G01*
X0529892Y0056859D01*
G75*
G02*
X0529311Y0057439I0000000J0000581D01*
G01*
G37*
G36*
G01*
X0518415Y0080835D02*
X0517057Y0080835D01*
G75*
G02*
X0516476Y0081416I0000000J0000581D01*
G01*
X0516476Y0082577D01*
G75*
G02*
X0517057Y0083158I0000581J0000000D01*
G01*
X0518415Y0083158D01*
G75*
G02*
X0518996Y0082577I0000000J-000581D01*
G01*
X0518996Y0081416D01*
G75*
G02*
X0518415Y0080835I-000581J0000000D01*
G01*
G37*
G36*
G01*
X0518415Y0084654D02*
X0517057Y0084654D01*
G75*
G02*
X0516476Y0085235I0000000J0000581D01*
G01*
X0516476Y0086396D01*
G75*
G02*
X0517057Y0086977I0000581J0000000D01*
G01*
X0518415Y0086977D01*
G75*
G02*
X0518996Y0086396I0000000J-000581D01*
G01*
X0518996Y0085235D01*
G75*
G02*
X0518415Y0084654I-000581J0000000D01*
G01*
G37*
G36*
G01*
X0542059Y0058798D02*
X0542059Y0057439D01*
G75*
G02*
X0541478Y0056859I-000581J0000000D01*
G01*
X0540317Y0056859D01*
G75*
G02*
X0539736Y0057439I0000000J0000581D01*
G01*
X0539736Y0058798D01*
G75*
G02*
X0540317Y0059378I0000581J0000000D01*
G01*
X0541478Y0059378D01*
G75*
G02*
X0542059Y0058798I0000000J-000581D01*
G01*
G37*
G36*
G01*
X0538240Y0058798D02*
X0538240Y0057439D01*
G75*
G02*
X0537659Y0056859I-000581J0000000D01*
G01*
X0536498Y0056859D01*
G75*
G02*
X0535917Y0057439I0000000J0000581D01*
G01*
X0535917Y0058798D01*
G75*
G02*
X0536498Y0059378I0000581J0000000D01*
G01*
X0537659Y0059378D01*
G75*
G02*
X0538240Y0058798I0000000J-000581D01*
G01*
G37*
D149*
X0540571Y0053197D03*
X0533090Y0053197D03*
X0536831Y0045323D03*
G36*
G01*
X0481506Y0078965D02*
X0480148Y0078965D01*
G75*
G02*
X0479567Y0079546I0000000J0000581D01*
G01*
X0479567Y0080707D01*
G75*
G02*
X0480148Y0081288I0000581J0000000D01*
G01*
X0481506Y0081288D01*
G75*
G02*
X0482087Y0080707I0000000J-000581D01*
G01*
X0482087Y0079546D01*
G75*
G02*
X0481506Y0078965I-000581J0000000D01*
G01*
G37*
G36*
G01*
X0481506Y0082784D02*
X0480148Y0082784D01*
G75*
G02*
X0479567Y0083365I0000000J0000581D01*
G01*
X0479567Y0084526D01*
G75*
G02*
X0480148Y0085107I0000581J0000000D01*
G01*
X0481506Y0085107D01*
G75*
G02*
X0482087Y0084526I0000000J-000581D01*
G01*
X0482087Y0083365D01*
G75*
G02*
X0481506Y0082784I-000581J0000000D01*
G01*
G37*
G36*
G01*
X0527633Y0043926D02*
X0525615Y0043926D01*
G75*
G02*
X0524754Y0044787I0000000J0000861D01*
G01*
X0524754Y0046509D01*
G75*
G02*
X0525615Y0047370I0000861J0000000D01*
G01*
X0527633Y0047370D01*
G75*
G02*
X0528494Y0046509I0000000J-000861D01*
G01*
X0528494Y0044787D01*
G75*
G02*
X0527633Y0043926I-000861J0000000D01*
G01*
G37*
G36*
G01*
X0527633Y0050126D02*
X0525615Y0050126D01*
G75*
G02*
X0524754Y0050988I0000000J0000861D01*
G01*
X0524754Y0052710D01*
G75*
G02*
X0525615Y0053571I0000861J0000000D01*
G01*
X0527633Y0053571D01*
G75*
G02*
X0528494Y0052710I0000000J-000861D01*
G01*
X0528494Y0050988D01*
G75*
G02*
X0527633Y0050126I-000861J0000000D01*
G01*
G37*
X0316484Y0215303D02*
G01*
G75*
D60*
X0263137Y0073964D02*
D03*
D59*
X0276917Y0073964D02*
D03*
D62*
X0183019Y0180067D02*
D03*
D57*
X0224752Y0073964D02*
D03*
X0309004Y0214909D02*
D03*
D58*
X0195224Y0214909D02*
D03*
X0300736Y0073964D02*
D03*
D55*
X0316090Y0179279D02*
D03*
D56*
X0316090Y0210775D02*
D03*
D54*
X0316090Y0125539D02*
D03*
D63*
X0183019Y0202901D02*
D03*
D61*
X0183019Y0087350D02*
D03*
D52*
X0316090Y0108020D02*
D03*
X0316090Y0084004D02*
D03*
D53*
X0316090Y0096012D02*
D03*
X0183019Y0121602D02*
D03*
D409*
X0192862Y0197213D02*
D03*
X0185775Y0197213D02*
D03*
X0185775Y0207252D02*
D03*
X0192862Y0207252D02*
D03*
X0304673Y0148472D02*
D03*
X0311760Y0148472D02*
D03*
X0311760Y0158512D02*
D03*
X0304673Y0158512D02*
D03*
X0304673Y0142370D02*
D03*
X0311760Y0142370D02*
D03*
X0311760Y0132330D02*
D03*
X0304673Y0132330D02*
D03*
D410*
X0192862Y0200657D02*
D03*
X0192862Y0203807D02*
D03*
X0185775Y0203807D02*
D03*
X0185775Y0200657D02*
D03*
X0311760Y0155067D02*
D03*
X0311760Y0151917D02*
D03*
X0304673Y0151917D02*
D03*
X0304673Y0155067D02*
D03*
X0304673Y0138925D02*
D03*
X0304673Y0135775D02*
D03*
X0311760Y0135775D02*
D03*
X0311760Y0138925D02*
D03*
D411*
X0197074Y0200209D02*
D03*
X0197074Y0197650D02*
D03*
X0197074Y0195090D02*
D03*
X0204554Y0200209D02*
D03*
X0204554Y0195090D02*
D03*
X0204554Y0197650D02*
D03*
X0204554Y0204834D02*
D03*
X0204554Y0209953D02*
D03*
X0197074Y0204834D02*
D03*
X0197074Y0207394D02*
D03*
X0197074Y0209953D02*
D03*
X0204554Y0207394D02*
D03*
D160*
X0264282Y0100933D02*
D03*
X0264282Y0102901D02*
D03*
X0264282Y0104870D02*
D03*
X0264282Y0106838D02*
D03*
X0264282Y0108807D02*
D03*
X0264282Y0110775D02*
D03*
X0264282Y0112744D02*
D03*
X0264282Y0114712D02*
D03*
X0264282Y0116681D02*
D03*
X0264282Y0120618D02*
D03*
X0264282Y0122587D02*
D03*
X0264282Y0124555D02*
D03*
X0264282Y0126524D02*
D03*
X0264282Y0128492D02*
D03*
X0264282Y0130461D02*
D03*
X0264282Y0132429D02*
D03*
X0264282Y0134398D02*
D03*
X0264282Y0136366D02*
D03*
X0264282Y0138335D02*
D03*
X0264282Y0140303D02*
D03*
X0264282Y0142271D02*
D03*
X0264282Y0144240D02*
D03*
X0264282Y0146208D02*
D03*
X0264282Y0148177D02*
D03*
X0203258Y0148177D02*
D03*
X0203258Y0146208D02*
D03*
X0203258Y0144240D02*
D03*
X0203258Y0142271D02*
D03*
X0203258Y0140303D02*
D03*
X0203258Y0138335D02*
D03*
X0203258Y0136366D02*
D03*
X0203258Y0134398D02*
D03*
X0203258Y0132429D02*
D03*
X0203258Y0130461D02*
D03*
X0203258Y0128492D02*
D03*
X0203258Y0126524D02*
D03*
X0203258Y0124555D02*
D03*
X0203258Y0122587D02*
D03*
X0203258Y0120618D02*
D03*
X0203258Y0118650D02*
D03*
X0203258Y0116681D02*
D03*
X0203258Y0114712D02*
D03*
X0203258Y0112744D02*
D03*
X0203258Y0110775D02*
D03*
X0203258Y0108807D02*
D03*
X0203258Y0106838D02*
D03*
X0203258Y0104870D02*
D03*
X0203258Y0100933D02*
D03*
X0264282Y0118650D02*
D03*
X0203258Y0102901D02*
D03*
D161*
X0257392Y0155067D02*
D03*
X0253455Y0155067D02*
D03*
X0251486Y0155067D02*
D03*
X0249518Y0155067D02*
D03*
X0247549Y0155067D02*
D03*
X0245581Y0155067D02*
D03*
X0243612Y0155067D02*
D03*
X0241644Y0155067D02*
D03*
X0239675Y0155067D02*
D03*
X0237707Y0155067D02*
D03*
X0235738Y0155067D02*
D03*
X0233770Y0155067D02*
D03*
X0231801Y0155067D02*
D03*
X0229833Y0155067D02*
D03*
X0227864Y0155067D02*
D03*
X0225896Y0155067D02*
D03*
X0223927Y0155067D02*
D03*
X0221959Y0155067D02*
D03*
X0219990Y0155067D02*
D03*
X0218022Y0155067D02*
D03*
X0216053Y0155067D02*
D03*
X0214085Y0155067D02*
D03*
X0212116Y0155067D02*
D03*
X0210148Y0155067D02*
D03*
X0210148Y0094043D02*
D03*
X0212116Y0094043D02*
D03*
X0214085Y0094043D02*
D03*
X0216053Y0094043D02*
D03*
X0218022Y0094043D02*
D03*
X0219990Y0094043D02*
D03*
X0221959Y0094043D02*
D03*
X0223927Y0094043D02*
D03*
X0225896Y0094043D02*
D03*
X0227864Y0094043D02*
D03*
X0229833Y0094043D02*
D03*
X0231801Y0094043D02*
D03*
X0233770Y0094043D02*
D03*
X0235738Y0094043D02*
D03*
X0237707Y0094043D02*
D03*
X0239675Y0094043D02*
D03*
X0241644Y0094043D02*
D03*
X0243612Y0094043D02*
D03*
X0245581Y0094043D02*
D03*
X0247549Y0094043D02*
D03*
X0249518Y0094043D02*
D03*
X0251486Y0094043D02*
D03*
X0253455Y0094043D02*
D03*
X0255423Y0094043D02*
D03*
X0257392Y0094043D02*
D03*
X0255423Y0155067D02*
D03*
D162*
X0260775Y0171996D02*
D03*
X0232823Y0171996D02*
D03*
X0288728Y0171996D02*
D03*
X0283216Y0177114D02*
D03*
X0255263Y0166878D02*
D03*
X0255263Y0169437D02*
D03*
X0255263Y0171996D02*
D03*
X0255263Y0174555D02*
D03*
X0255263Y0177114D02*
D03*
X0255263Y0179673D02*
D03*
X0255263Y0182232D02*
D03*
X0232823Y0166878D02*
D03*
X0232823Y0169437D02*
D03*
X0232823Y0174555D02*
D03*
X0232823Y0177114D02*
D03*
X0232823Y0179673D02*
D03*
X0232823Y0182232D02*
D03*
X0311169Y0166878D02*
D03*
X0311169Y0169437D02*
D03*
X0311169Y0171996D02*
D03*
X0311169Y0174555D02*
D03*
X0311169Y0177114D02*
D03*
X0311169Y0179673D02*
D03*
X0311169Y0182232D02*
D03*
X0288728Y0166878D02*
D03*
X0288728Y0169437D02*
D03*
X0288728Y0174555D02*
D03*
X0288728Y0177114D02*
D03*
X0288728Y0179673D02*
D03*
X0288728Y0182232D02*
D03*
X0283216Y0166878D02*
D03*
X0283216Y0169437D02*
D03*
X0283216Y0171996D02*
D03*
X0283216Y0174555D02*
D03*
X0283216Y0179673D02*
D03*
X0283216Y0182232D02*
D03*
X0260775Y0166878D02*
D03*
X0260775Y0169437D02*
D03*
X0260775Y0174555D02*
D03*
X0260775Y0177114D02*
D03*
X0260775Y0179673D02*
D03*
X0260775Y0182232D02*
D03*
X0204870Y0182232D02*
D03*
X0204870Y0179673D02*
D03*
X0204870Y0177114D02*
D03*
X0204870Y0174555D02*
D03*
X0204870Y0171996D02*
D03*
X0204870Y0169437D02*
D03*
X0204870Y0166878D02*
D03*
X0227311Y0182232D02*
D03*
X0227311Y0179673D02*
D03*
X0227311Y0177114D02*
D03*
X0227311Y0174555D02*
D03*
X0227311Y0171996D02*
D03*
X0227311Y0169437D02*
D03*
X0227311Y0166878D02*
D03*
D412*
X0192075Y0079870D02*
D03*
X0188334Y0079870D02*
D03*
X0195815Y0079870D02*
D03*
X0195815Y0089319D02*
D03*
X0192075Y0089319D02*
D03*
X0188334Y0089319D02*
D03*
D413*
X0190625Y0101130D02*
D03*
X0190625Y0096405D02*
D03*
X0192094Y0110677D02*
D03*
X0278634Y0083892D02*
D03*
X0265322Y0159758D02*
D03*
X0194561Y0101130D02*
D03*
X0188156Y0110677D02*
D03*
X0193456Y0147661D02*
D03*
X0189519Y0147661D02*
D03*
X0193456Y0156716D02*
D03*
X0189519Y0156716D02*
D03*
X0194561Y0096405D02*
D03*
X0274697Y0083892D02*
D03*
X0281774Y0100607D02*
D03*
X0277837Y0100607D02*
D03*
X0261385Y0159758D02*
D03*
X0261366Y0155462D02*
D03*
X0265303Y0155462D02*
D03*
D165*
X0188168Y0119312D02*
D03*
X0188168Y0121280D02*
D03*
X0194467Y0117343D02*
D03*
X0194467Y0119312D02*
D03*
X0194467Y0115375D02*
D03*
X0194467Y0121280D02*
D03*
X0188168Y0115375D02*
D03*
X0188168Y0117343D02*
D03*
D166*
X0190333Y0121477D02*
D03*
X0192302Y0121477D02*
D03*
X0192302Y0115178D02*
D03*
X0190333Y0115178D02*
D03*
D414*
X0193073Y0126327D02*
D03*
X0193073Y0142862D02*
D03*
D415*
X0221602Y0198768D02*
D03*
X0212153Y0198768D02*
D03*
X0216878Y0198768D02*
D03*
X0226326Y0198768D02*
D03*
X0212153Y0210185D02*
D03*
X0221602Y0210185D02*
D03*
X0216878Y0210185D02*
D03*
X0226326Y0210185D02*
D03*
X0232536Y0191788D02*
D03*
X0232536Y0187851D02*
D03*
X0226326Y0206248D02*
D03*
D03*
X0226326Y0202311D02*
D03*
X0221602Y0206248D02*
D03*
X0221602Y0202311D02*
D03*
X0226326Y0194831D02*
D03*
X0216878Y0206248D02*
D03*
X0216878Y0202311D02*
D03*
X0221602Y0194831D02*
D03*
X0216878Y0194831D02*
D03*
X0212153Y0206248D02*
D03*
X0212153Y0202311D02*
D03*
X0212153Y0206248D02*
D03*
X0212153Y0194831D02*
D03*
X0221602Y0206248D02*
D03*
X0216878Y0206248D02*
D03*
X0312350Y0203886D02*
D03*
X0312350Y0207823D02*
D03*
X0287744Y0206248D02*
D03*
X0287744Y0210185D02*
D03*
X0273571Y0206248D02*
D03*
X0273571Y0210185D02*
D03*
X0254673Y0202311D02*
D03*
X0254673Y0206248D02*
D03*
X0254673Y0210185D02*
D03*
X0254673Y0206248D02*
D03*
X0240500Y0202311D02*
D03*
X0240500Y0206248D02*
D03*
X0312350Y0187153D02*
D03*
X0312350Y0191090D02*
D03*
X0306641Y0206248D02*
D03*
X0306641Y0202311D02*
D03*
X0301917Y0206248D02*
D03*
X0301917Y0202311D02*
D03*
X0297193Y0206248D02*
D03*
X0297193Y0202311D02*
D03*
X0292468Y0206248D02*
D03*
X0292468Y0202311D02*
D03*
X0306641Y0206248D02*
D03*
X0306641Y0210185D02*
D03*
X0301917Y0206248D02*
D03*
X0301917Y0210185D02*
D03*
X0297193Y0206248D02*
D03*
X0297193Y0210185D02*
D03*
X0292468Y0206248D02*
D03*
X0292468Y0210185D02*
D03*
X0287744Y0206248D02*
D03*
X0287744Y0202311D02*
D03*
X0283019Y0206248D02*
D03*
X0283019Y0202311D02*
D03*
X0278295Y0206248D02*
D03*
X0278295Y0202311D02*
D03*
X0273571Y0206248D02*
D03*
X0273571Y0202311D02*
D03*
X0283019Y0206248D02*
D03*
X0283019Y0210185D02*
D03*
X0278295Y0206248D02*
D03*
X0278295Y0210185D02*
D03*
X0268846Y0202311D02*
D03*
X0268846Y0206248D02*
D03*
X0264122Y0202311D02*
D03*
X0264122Y0206248D02*
D03*
X0259397Y0202311D02*
D03*
X0259397Y0206248D02*
D03*
X0268846Y0210185D02*
D03*
X0268846Y0206248D02*
D03*
X0264122Y0210185D02*
D03*
X0264122Y0206248D02*
D03*
X0259397Y0210185D02*
D03*
X0259397Y0206248D02*
D03*
X0249948Y0202311D02*
D03*
X0249948Y0206248D02*
D03*
X0245224Y0202311D02*
D03*
X0245224Y0206248D02*
D03*
X0235775Y0202311D02*
D03*
X0235775Y0206248D02*
D03*
X0249948Y0210185D02*
D03*
X0249948Y0206248D02*
D03*
X0245224Y0210185D02*
D03*
X0245224Y0206248D02*
D03*
X0240500Y0210185D02*
D03*
X0240500Y0206248D02*
D03*
X0235775Y0210185D02*
D03*
X0235775Y0206248D02*
D03*
X0312350Y0196209D02*
D03*
X0312350Y0200146D02*
D03*
D416*
X0247586Y0193256D02*
D03*
X0266484Y0193256D02*
D03*
X0285382Y0193256D02*
D03*
X0304279Y0193256D02*
D03*
X0275933Y0189516D02*
D03*
X0275933Y0193256D02*
D03*
X0275933Y0196996D02*
D03*
X0285382Y0196996D02*
D03*
X0285382Y0189516D02*
D03*
X0294830Y0189516D02*
D03*
X0294830Y0193256D02*
D03*
X0294830Y0196996D02*
D03*
X0304279Y0196996D02*
D03*
X0304279Y0189516D02*
D03*
X0257035Y0189516D02*
D03*
X0257035Y0193256D02*
D03*
X0257035Y0196996D02*
D03*
X0266484Y0196996D02*
D03*
X0266484Y0189516D02*
D03*
X0238137Y0189516D02*
D03*
X0238137Y0193256D02*
D03*
X0238137Y0196996D02*
D03*
X0247586Y0196996D02*
D03*
X0247586Y0189516D02*
D03*
D417*
X0281571Y0096221D02*
D03*
X0263649Y0085972D02*
D03*
D171*
X0290893Y0121344D02*
D03*
X0309791Y0126344D02*
D03*
X0309791Y0111344D02*
D03*
X0309791Y0116344D02*
D03*
X0309791Y0121344D02*
D03*
X0290893Y0111344D02*
D03*
X0290893Y0116344D02*
D03*
X0290893Y0126344D02*
D03*
D418*
X0309201Y0103703D02*
D03*
X0291090Y0103703D02*
D03*
D419*
X0274739Y0135229D02*
D03*
X0290948Y0135777D02*
D03*
X0274262Y0143389D02*
D03*
X0274262Y0151000D02*
D03*
X0290948Y0143389D02*
D03*
X0290948Y0151000D02*
D03*
X0274262Y0158612D02*
D03*
X0290948Y0158612D02*
D03*
X0281432Y0135229D02*
D03*
X0280955Y0143389D02*
D03*
X0280955Y0151000D02*
D03*
X0280955Y0158612D02*
D03*
X0297641Y0143389D02*
D03*
X0297641Y0135777D02*
D03*
X0281432Y0127252D02*
D03*
X0274739Y0127252D02*
D03*
X0274739Y0120165D02*
D03*
X0281432Y0120165D02*
D03*
X0281432Y0113079D02*
D03*
X0274739Y0113079D02*
D03*
X0274739Y0105992D02*
D03*
X0281432Y0105992D02*
D03*
X0297641Y0151000D02*
D03*
X0297641Y0158612D02*
D03*
X0274739Y0078492D02*
D03*
X0281432Y0078492D02*
D03*
D420*
X0188065Y0105905D02*
D03*
X0194365Y0105905D02*
D03*
X0195425Y0152346D02*
D03*
X0189125Y0152346D02*
D03*
D421*
X0228690Y0082963D02*
D03*
X0245225Y0082963D02*
D03*
D417*
X0263649Y0078492D02*
D03*
X0254397Y0082232D02*
D03*
X0281571Y0088741D02*
D03*
X0272319Y0092481D02*
D03*
D422*
X0300145Y0079293D02*
D03*
D423*
X0300145Y0103703D02*
D03*
D113*
X0230854Y0206248D02*
D03*
X0311760Y0212153D02*
D03*
D424*
X0193663Y0188506D02*
D03*
X0193663Y0170790D02*
D03*
X0006953Y0137713D02*
%LPD*%
G01*
G36*
G01*
X0042662Y0070105D02*
X0042662Y0071463D01*
G75*
G02*
X0043242Y0072044I0000581J0000000D01*
G01*
X0044404Y0072044D01*
G75*
G02*
X0044984Y0071463I0000000J-000581D01*
G01*
X0044984Y0070105D01*
G75*
G02*
X0044404Y0069524I-000581J0000000D01*
G01*
X0043242Y0069524D01*
G75*
G02*
X0042662Y0070105I0000000J0000581D01*
G01*
G37*
G36*
G01*
X0046481Y0070105D02*
X0046481Y0071463D01*
G75*
G02*
X0047061Y0072044I0000581J0000000D01*
G01*
X0048223Y0072044D01*
G75*
G02*
X0048803Y0071463I0000000J-000581D01*
G01*
X0048803Y0070105D01*
G75*
G02*
X0048223Y0069524I-000581J0000000D01*
G01*
X0047061Y0069524D01*
G75*
G02*
X0046481Y0070105I0000000J0000581D01*
G01*
G37*
G36*
G01*
X0027238Y0128678D02*
X0028597Y0128678D01*
G75*
G02*
X0029177Y0128097I0000000J-000581D01*
G01*
X0029177Y0126935D01*
G75*
G02*
X0028597Y0126355I-000581J0000000D01*
G01*
X0027238Y0126355D01*
G75*
G02*
X0026658Y0126935I0000000J0000581D01*
G01*
X0026658Y0128097D01*
G75*
G02*
X0027238Y0128678I0000581J0000000D01*
G01*
G37*
G36*
G01*
X0027238Y0124859D02*
X0028597Y0124859D01*
G75*
G02*
X0029177Y0124278I0000000J-000581D01*
G01*
X0029177Y0123117D01*
G75*
G02*
X0028597Y0122536I-000581J0000000D01*
G01*
X0027238Y0122536D01*
G75*
G02*
X0026658Y0123117I0000000J0000581D01*
G01*
X0026658Y0124278D01*
G75*
G02*
X0027238Y0124859I0000581J0000000D01*
G01*
G37*
G36*
G01*
X0042435Y0118151D02*
X0042435Y0116133D01*
G75*
G02*
X0041574Y0115272I-000861J0000000D01*
G01*
X0039852Y0115272D01*
G75*
G02*
X0038990Y0116133I0000000J0000861D01*
G01*
X0038990Y0118151D01*
G75*
G02*
X0039852Y0119012I0000861J0000000D01*
G01*
X0041574Y0119012D01*
G75*
G02*
X0042435Y0118151I0000000J-000861D01*
G01*
G37*
G36*
G01*
X0036234Y0118151D02*
X0036234Y0116133D01*
G75*
G02*
X0035373Y0115272I-000861J0000000D01*
G01*
X0033651Y0115272D01*
G75*
G02*
X0032790Y0116133I0000000J0000861D01*
G01*
X0032790Y0118151D01*
G75*
G02*
X0033651Y0119012I0000861J0000000D01*
G01*
X0035373Y0119012D01*
G75*
G02*
X0036234Y0118151I0000000J-000861D01*
G01*
G37*
G36*
G01*
X0017406Y0071660D02*
X0017406Y0070302D01*
G75*
G02*
X0016825Y0069721I-000581J0000000D01*
G01*
X0015664Y0069721D01*
G75*
G02*
X0015083Y0070302I0000000J0000581D01*
G01*
X0015083Y0071660D01*
G75*
G02*
X0015664Y0072241I0000581J0000000D01*
G01*
X0016825Y0072241D01*
G75*
G02*
X0017406Y0071660I0000000J-000581D01*
G01*
G37*
G36*
G01*
X0013587Y0071660D02*
X0013587Y0070302D01*
G75*
G02*
X0013006Y0069721I-000581J0000000D01*
G01*
X0011845Y0069721D01*
G75*
G02*
X0011264Y0070302I0000000J0000581D01*
G01*
X0011264Y0071660D01*
G75*
G02*
X0011845Y0072241I0000581J0000000D01*
G01*
X0013006Y0072241D01*
G75*
G02*
X0013587Y0071660I0000000J-000581D01*
G01*
G37*
D149*
X0033233Y0122851D03*
X0040713Y0122851D03*
X0036973Y0130725D03*
G36*
G01*
X0017406Y0075843D02*
X0017406Y0074485D01*
G75*
G02*
X0016825Y0073904I-000581J0000000D01*
G01*
X0015664Y0073904D01*
G75*
G02*
X0015083Y0074485I0000000J0000581D01*
G01*
X0015083Y0075843D01*
G75*
G02*
X0015664Y0076424I0000581J0000000D01*
G01*
X0016825Y0076424D01*
G75*
G02*
X0017406Y0075843I0000000J-000581D01*
G01*
G37*
G36*
G01*
X0013587Y0075843D02*
X0013587Y0074485D01*
G75*
G02*
X0013006Y0073904I-000581J0000000D01*
G01*
X0011845Y0073904D01*
G75*
G02*
X0011264Y0074485I0000000J0000581D01*
G01*
X0011264Y0075843D01*
G75*
G02*
X0011845Y0076424I0000581J0000000D01*
G01*
X0013006Y0076424D01*
G75*
G02*
X0013587Y0075843I0000000J-000581D01*
G01*
G37*
G36*
G01*
X0041323Y0071463D02*
X0041323Y0070105D01*
G75*
G02*
X0040742Y0069524I-000581J0000000D01*
G01*
X0039581Y0069524D01*
G75*
G02*
X0039000Y0070105I0000000J0000581D01*
G01*
X0039000Y0071463D01*
G75*
G02*
X0039581Y0072044I0000581J0000000D01*
G01*
X0040742Y0072044D01*
G75*
G02*
X0041323Y0071463I0000000J-000581D01*
G01*
G37*
G36*
G01*
X0037504Y0071463D02*
X0037504Y0070105D01*
G75*
G02*
X0036923Y0069524I-000581J0000000D01*
G01*
X0035762Y0069524D01*
G75*
G02*
X0035181Y0070105I0000000J0000581D01*
G01*
X0035181Y0071463D01*
G75*
G02*
X0035762Y0072044I0000581J0000000D01*
G01*
X0036923Y0072044D01*
G75*
G02*
X0037504Y0071463I0000000J-000581D01*
G01*
G37*
G36*
G01*
X0053587Y0075223D02*
X0053587Y0076581D01*
G75*
G02*
X0054168Y0077162I0000581J0000000D01*
G01*
X0055329Y0077162D01*
G75*
G02*
X0055910Y0076581I0000000J-000581D01*
G01*
X0055910Y0075223D01*
G75*
G02*
X0055329Y0074642I-000581J0000000D01*
G01*
X0054168Y0074642D01*
G75*
G02*
X0053587Y0075223I0000000J0000581D01*
G01*
G37*
G36*
G01*
X0057406Y0075223D02*
X0057406Y0076581D01*
G75*
G02*
X0057986Y0077162I0000581J0000000D01*
G01*
X0059148Y0077162D01*
G75*
G02*
X0059729Y0076581I0000000J-000581D01*
G01*
X0059729Y0075223D01*
G75*
G02*
X0059148Y0074642I-000581J0000000D01*
G01*
X0057986Y0074642D01*
G75*
G02*
X0057406Y0075223I0000000J0000581D01*
G01*
G37*
G36*
G01*
X0026815Y0070105D02*
X0026815Y0071463D01*
G75*
G02*
X0027396Y0072044I0000581J0000000D01*
G01*
X0028557Y0072044D01*
G75*
G02*
X0029138Y0071463I0000000J-000581D01*
G01*
X0029138Y0070105D01*
G75*
G02*
X0028557Y0069524I-000581J0000000D01*
G01*
X0027396Y0069524D01*
G75*
G02*
X0026815Y0070105I0000000J0000581D01*
G01*
G37*
G36*
G01*
X0030634Y0070105D02*
X0030634Y0071463D01*
G75*
G02*
X0031215Y0072044I0000581J0000000D01*
G01*
X0032376Y0072044D01*
G75*
G02*
X0032957Y0071463I0000000J-000581D01*
G01*
X0032957Y0070105D01*
G75*
G02*
X0032376Y0069524I-000581J0000000D01*
G01*
X0031215Y0069524D01*
G75*
G02*
X0030634Y0070105I0000000J0000581D01*
G01*
G37*
G36*
G01*
X0053587Y0109869D02*
X0053587Y0111227D01*
G75*
G02*
X0054168Y0111807I0000581J0000000D01*
G01*
X0055329Y0111807D01*
G75*
G02*
X0055910Y0111227I0000000J-000581D01*
G01*
X0055910Y0109869D01*
G75*
G02*
X0055329Y0109288I-000581J0000000D01*
G01*
X0054168Y0109288D01*
G75*
G02*
X0053587Y0109869I0000000J0000581D01*
G01*
G37*
G36*
G01*
X0057406Y0109869D02*
X0057406Y0111227D01*
G75*
G02*
X0057986Y0111807I0000581J0000000D01*
G01*
X0059148Y0111807D01*
G75*
G02*
X0059729Y0111227I0000000J-000581D01*
G01*
X0059729Y0109869D01*
G75*
G02*
X0059148Y0109288I-000581J0000000D01*
G01*
X0057986Y0109288D01*
G75*
G02*
X0057406Y0109869I0000000J0000581D01*
G01*
G37*
D331*
X0028705Y0048402D03*
X0028705Y0060410D03*
X0015516Y0048402D03*
X0015516Y0060410D03*
D327*
X0046914Y0045430D03*
X0046914Y0063382D03*
G36*
G01*
X0027140Y0120902D02*
X0028498Y0120902D01*
G75*
G02*
X0029079Y0120321I0000000J-000581D01*
G01*
X0029079Y0119160D01*
G75*
G02*
X0028498Y0118579I-000581J0000000D01*
G01*
X0027140Y0118579D01*
G75*
G02*
X0026559Y0119160I0000000J0000581D01*
G01*
X0026559Y0120321D01*
G75*
G02*
X0027140Y0120902I0000581J0000000D01*
G01*
G37*
G36*
G01*
X0027140Y0117083D02*
X0028498Y0117083D01*
G75*
G02*
X0029079Y0116502I0000000J-000581D01*
G01*
X0029079Y0115341D01*
G75*
G02*
X0028498Y0114760I-000581J0000000D01*
G01*
X0027140Y0114760D01*
G75*
G02*
X0026559Y0115341I0000000J0000581D01*
G01*
X0026559Y0116502D01*
G75*
G02*
X0027140Y0117083I0000581J0000000D01*
G01*
G37*
G36*
G01*
X0013474Y0082398D02*
X0011456Y0082398D01*
G75*
G02*
X0010595Y0083259I0000000J0000861D01*
G01*
X0010595Y0084982D01*
G75*
G02*
X0011456Y0085843I0000861J0000000D01*
G01*
X0013474Y0085843D01*
G75*
G02*
X0014335Y0084982I0000000J-000861D01*
G01*
X0014335Y0083259D01*
G75*
G02*
X0013474Y0082398I-000861J0000000D01*
G01*
G37*
G36*
G01*
X0013474Y0088599D02*
X0011456Y0088599D01*
G75*
G02*
X0010595Y0089460I0000000J0000861D01*
G01*
X0010595Y0091182D01*
G75*
G02*
X0011456Y0092044I0000861J0000000D01*
G01*
X0013474Y0092044D01*
G75*
G02*
X0014335Y0091182I0000000J-000861D01*
G01*
X0014335Y0089460D01*
G75*
G02*
X0013474Y0088599I-000861J0000000D01*
G01*
G37*
G36*
G01*
X0017406Y0080026D02*
X0017406Y0078668D01*
G75*
G02*
X0016825Y0078087I-000581J0000000D01*
G01*
X0015664Y0078087D01*
G75*
G02*
X0015083Y0078668I0000000J0000581D01*
G01*
X0015083Y0080026D01*
G75*
G02*
X0015664Y0080607I0000581J0000000D01*
G01*
X0016825Y0080607D01*
G75*
G02*
X0017406Y0080026I0000000J-000581D01*
G01*
G37*
G36*
G01*
X0013587Y0080026D02*
X0013587Y0078668D01*
G75*
G02*
X0013006Y0078087I-000581J0000000D01*
G01*
X0011845Y0078087D01*
G75*
G02*
X0011264Y0078668I0000000J0000581D01*
G01*
X0011264Y0080026D01*
G75*
G02*
X0011845Y0080607I0000581J0000000D01*
G01*
X0013006Y0080607D01*
G75*
G02*
X0013587Y0080026I0000000J-000581D01*
G01*
G37*
G36*
G01*
X0012859Y0035917D02*
X0012859Y0037934D01*
G75*
G02*
X0013720Y0038796I0000861J0000000D01*
G01*
X0015442Y0038796D01*
G75*
G02*
X0016303Y0037934I0000000J-000861D01*
G01*
X0016303Y0035917D01*
G75*
G02*
X0015442Y0035056I-000861J0000000D01*
G01*
X0013720Y0035056D01*
G75*
G02*
X0012859Y0035917I0000000J0000861D01*
G01*
G37*
G36*
G01*
X0019059Y0035917D02*
X0019059Y0037934D01*
G75*
G02*
X0019921Y0038796I0000861J0000000D01*
G01*
X0021643Y0038796D01*
G75*
G02*
X0022504Y0037934I0000000J-000861D01*
G01*
X0022504Y0035917D01*
G75*
G02*
X0021643Y0035056I-000861J0000000D01*
G01*
X0019921Y0035056D01*
G75*
G02*
X0019059Y0035917I0000000J0000861D01*
G01*
G37*
G36*
G01*
X0011456Y0103756D02*
X0013474Y0103756D01*
G75*
G02*
X0014335Y0102895I0000000J-000861D01*
G01*
X0014335Y0101173D01*
G75*
G02*
X0013474Y0100311I-000861J0000000D01*
G01*
X0011456Y0100311D01*
G75*
G02*
X0010595Y0101173I0000000J0000861D01*
G01*
X0010595Y0102895D01*
G75*
G02*
X0011456Y0103756I0000861J0000000D01*
G01*
G37*
G36*
G01*
X0011456Y0097556D02*
X0013474Y0097556D01*
G75*
G02*
X0014335Y0096694I0000000J-000861D01*
G01*
X0014335Y0094972D01*
G75*
G02*
X0013474Y0094111I-000861J0000000D01*
G01*
X0011456Y0094111D01*
G75*
G02*
X0010595Y0094972I0000000J0000861D01*
G01*
X0010595Y0096694D01*
G75*
G02*
X0011456Y0097556I0000861J0000000D01*
G01*
G37*
G36*
G01*
X0015634Y0108077D02*
X0015634Y0106719D01*
G75*
G02*
X0015053Y0106138I-000581J0000000D01*
G01*
X0013892Y0106138D01*
G75*
G02*
X0013311Y0106719I0000000J0000581D01*
G01*
X0013311Y0108077D01*
G75*
G02*
X0013892Y0108658I0000581J0000000D01*
G01*
X0015053Y0108658D01*
G75*
G02*
X0015634Y0108077I0000000J-000581D01*
G01*
G37*
G36*
G01*
X0011815Y0108077D02*
X0011815Y0106719D01*
G75*
G02*
X0011234Y0106138I-000581J0000000D01*
G01*
X0010073Y0106138D01*
G75*
G02*
X0009492Y0106719I0000000J0000581D01*
G01*
X0009492Y0108077D01*
G75*
G02*
X0010073Y0108658I0000581J0000000D01*
G01*
X0011234Y0108658D01*
G75*
G02*
X0011815Y0108077I0000000J-000581D01*
G01*
G37*
G36*
G01*
X0028311Y0073638D02*
X0027327Y0073638D01*
G75*
G02*
X0026835Y0074130I0000000J0000492D01*
G01*
X0026835Y0079052D01*
G75*
G02*
X0027327Y0079544I0000492J0000000D01*
G01*
X0028311Y0079544D01*
G75*
G02*
X0028803Y0079052I0000000J-000492D01*
G01*
X0028803Y0074130D01*
G75*
G02*
X0028311Y0073638I-000492J0000000D01*
G01*
G37*
G36*
G01*
X0031461Y0073638D02*
X0030477Y0073638D01*
G75*
G02*
X0029984Y0074130I0000000J0000492D01*
G01*
X0029984Y0079052D01*
G75*
G02*
X0030477Y0079544I0000492J0000000D01*
G01*
X0031461Y0079544D01*
G75*
G02*
X0031953Y0079052I0000000J-000492D01*
G01*
X0031953Y0074130D01*
G75*
G02*
X0031461Y0073638I-000492J0000000D01*
G01*
G37*
G36*
G01*
X0034610Y0073638D02*
X0033626Y0073638D01*
G75*
G02*
X0033134Y0074130I0000000J0000492D01*
G01*
X0033134Y0079052D01*
G75*
G02*
X0033626Y0079544I0000492J0000000D01*
G01*
X0034610Y0079544D01*
G75*
G02*
X0035103Y0079052I0000000J-000492D01*
G01*
X0035103Y0074130D01*
G75*
G02*
X0034610Y0073638I-000492J0000000D01*
G01*
G37*
G36*
G01*
X0037760Y0073638D02*
X0036776Y0073638D01*
G75*
G02*
X0036284Y0074130I0000000J0000492D01*
G01*
X0036284Y0079052D01*
G75*
G02*
X0036776Y0079544I0000492J0000000D01*
G01*
X0037760Y0079544D01*
G75*
G02*
X0038252Y0079052I0000000J-000492D01*
G01*
X0038252Y0074130D01*
G75*
G02*
X0037760Y0073638I-000492J0000000D01*
G01*
G37*
G36*
G01*
X0040910Y0073638D02*
X0039925Y0073638D01*
G75*
G02*
X0039433Y0074130I0000000J0000492D01*
G01*
X0039433Y0079052D01*
G75*
G02*
X0039925Y0079544I0000492J0000000D01*
G01*
X0040910Y0079544D01*
G75*
G02*
X0041402Y0079052I0000000J-000492D01*
G01*
X0041402Y0074130D01*
G75*
G02*
X0040910Y0073638I-000492J0000000D01*
G01*
G37*
G36*
G01*
X0044059Y0073638D02*
X0043075Y0073638D01*
G75*
G02*
X0042583Y0074130I0000000J0000492D01*
G01*
X0042583Y0079052D01*
G75*
G02*
X0043075Y0079544I0000492J0000000D01*
G01*
X0044059Y0079544D01*
G75*
G02*
X0044551Y0079052I0000000J-000492D01*
G01*
X0044551Y0074130D01*
G75*
G02*
X0044059Y0073638I-000492J0000000D01*
G01*
G37*
G36*
G01*
X0047209Y0073638D02*
X0046225Y0073638D01*
G75*
G02*
X0045733Y0074130I0000000J0000492D01*
G01*
X0045733Y0079052D01*
G75*
G02*
X0046225Y0079544I0000492J0000000D01*
G01*
X0047209Y0079544D01*
G75*
G02*
X0047701Y0079052I0000000J-000492D01*
G01*
X0047701Y0074130D01*
G75*
G02*
X0047209Y0073638I-000492J0000000D01*
G01*
G37*
G36*
G01*
X0050359Y0073638D02*
X0049374Y0073638D01*
G75*
G02*
X0048882Y0074130I0000000J0000492D01*
G01*
X0048882Y0079052D01*
G75*
G02*
X0049374Y0079544I0000492J0000000D01*
G01*
X0050359Y0079544D01*
G75*
G02*
X0050851Y0079052I0000000J-000492D01*
G01*
X0050851Y0074130D01*
G75*
G02*
X0050359Y0073638I-000492J0000000D01*
G01*
G37*
G36*
G01*
X0057740Y0081020D02*
X0052819Y0081020D01*
G75*
G02*
X0052327Y0081512I0000000J0000492D01*
G01*
X0052327Y0082496D01*
G75*
G02*
X0052819Y0082989I0000492J0000000D01*
G01*
X0057740Y0082989D01*
G75*
G02*
X0058233Y0082496I0000000J-000492D01*
G01*
X0058233Y0081512D01*
G75*
G02*
X0057740Y0081020I-000492J0000000D01*
G01*
G37*
G36*
G01*
X0057740Y0084170D02*
X0052819Y0084170D01*
G75*
G02*
X0052327Y0084662I0000000J0000492D01*
G01*
X0052327Y0085646D01*
G75*
G02*
X0052819Y0086138I0000492J0000000D01*
G01*
X0057740Y0086138D01*
G75*
G02*
X0058233Y0085646I0000000J-000492D01*
G01*
X0058233Y0084662D01*
G75*
G02*
X0057740Y0084170I-000492J0000000D01*
G01*
G37*
G36*
G01*
X0057740Y0087319D02*
X0052819Y0087319D01*
G75*
G02*
X0052327Y0087811I0000000J0000492D01*
G01*
X0052327Y0088796D01*
G75*
G02*
X0052819Y0089288I0000492J0000000D01*
G01*
X0057740Y0089288D01*
G75*
G02*
X0058233Y0088796I0000000J-000492D01*
G01*
X0058233Y0087811D01*
G75*
G02*
X0057740Y0087319I-000492J0000000D01*
G01*
G37*
G36*
G01*
X0057740Y0090469D02*
X0052819Y0090469D01*
G75*
G02*
X0052327Y0090961I0000000J0000492D01*
G01*
X0052327Y0091945D01*
G75*
G02*
X0052819Y0092437I0000492J0000000D01*
G01*
X0057740Y0092437D01*
G75*
G02*
X0058233Y0091945I0000000J-000492D01*
G01*
X0058233Y0090961D01*
G75*
G02*
X0057740Y0090469I-000492J0000000D01*
G01*
G37*
G36*
G01*
X0057740Y0093619D02*
X0052819Y0093619D01*
G75*
G02*
X0052327Y0094111I0000000J0000492D01*
G01*
X0052327Y0095095D01*
G75*
G02*
X0052819Y0095587I0000492J0000000D01*
G01*
X0057740Y0095587D01*
G75*
G02*
X0058233Y0095095I0000000J-000492D01*
G01*
X0058233Y0094111D01*
G75*
G02*
X0057740Y0093619I-000492J0000000D01*
G01*
G37*
G36*
G01*
X0057740Y0096768D02*
X0052819Y0096768D01*
G75*
G02*
X0052327Y0097260I0000000J0000492D01*
G01*
X0052327Y0098244D01*
G75*
G02*
X0052819Y0098737I0000492J0000000D01*
G01*
X0057740Y0098737D01*
G75*
G02*
X0058233Y0098244I0000000J-000492D01*
G01*
X0058233Y0097260D01*
G75*
G02*
X0057740Y0096768I-000492J0000000D01*
G01*
G37*
G36*
G01*
X0057740Y0099918D02*
X0052819Y0099918D01*
G75*
G02*
X0052327Y0100410I0000000J0000492D01*
G01*
X0052327Y0101394D01*
G75*
G02*
X0052819Y0101886I0000492J0000000D01*
G01*
X0057740Y0101886D01*
G75*
G02*
X0058233Y0101394I0000000J-000492D01*
G01*
X0058233Y0100410D01*
G75*
G02*
X0057740Y0099918I-000492J0000000D01*
G01*
G37*
G36*
G01*
X0057740Y0103067D02*
X0052819Y0103067D01*
G75*
G02*
X0052327Y0103559I0000000J0000492D01*
G01*
X0052327Y0104544D01*
G75*
G02*
X0052819Y0105036I0000492J0000000D01*
G01*
X0057740Y0105036D01*
G75*
G02*
X0058233Y0104544I0000000J-000492D01*
G01*
X0058233Y0103559D01*
G75*
G02*
X0057740Y0103067I-000492J0000000D01*
G01*
G37*
G36*
G01*
X0050359Y0106512D02*
X0049374Y0106512D01*
G75*
G02*
X0048882Y0107004I0000000J0000492D01*
G01*
X0048882Y0111926D01*
G75*
G02*
X0049374Y0112418I0000492J0000000D01*
G01*
X0050359Y0112418D01*
G75*
G02*
X0050851Y0111926I0000000J-000492D01*
G01*
X0050851Y0107004D01*
G75*
G02*
X0050359Y0106512I-000492J0000000D01*
G01*
G37*
G36*
G01*
X0047209Y0106512D02*
X0046225Y0106512D01*
G75*
G02*
X0045733Y0107004I0000000J0000492D01*
G01*
X0045733Y0111926D01*
G75*
G02*
X0046225Y0112418I0000492J0000000D01*
G01*
X0047209Y0112418D01*
G75*
G02*
X0047701Y0111926I0000000J-000492D01*
G01*
X0047701Y0107004D01*
G75*
G02*
X0047209Y0106512I-000492J0000000D01*
G01*
G37*
G36*
G01*
X0044059Y0106512D02*
X0043075Y0106512D01*
G75*
G02*
X0042583Y0107004I0000000J0000492D01*
G01*
X0042583Y0111926D01*
G75*
G02*
X0043075Y0112418I0000492J0000000D01*
G01*
X0044059Y0112418D01*
G75*
G02*
X0044551Y0111926I0000000J-000492D01*
G01*
X0044551Y0107004D01*
G75*
G02*
X0044059Y0106512I-000492J0000000D01*
G01*
G37*
G36*
G01*
X0040910Y0106512D02*
X0039925Y0106512D01*
G75*
G02*
X0039433Y0107004I0000000J0000492D01*
G01*
X0039433Y0111926D01*
G75*
G02*
X0039925Y0112418I0000492J0000000D01*
G01*
X0040910Y0112418D01*
G75*
G02*
X0041402Y0111926I0000000J-000492D01*
G01*
X0041402Y0107004D01*
G75*
G02*
X0040910Y0106512I-000492J0000000D01*
G01*
G37*
G36*
G01*
X0037760Y0106512D02*
X0036776Y0106512D01*
G75*
G02*
X0036284Y0107004I0000000J0000492D01*
G01*
X0036284Y0111926D01*
G75*
G02*
X0036776Y0112418I0000492J0000000D01*
G01*
X0037760Y0112418D01*
G75*
G02*
X0038252Y0111926I0000000J-000492D01*
G01*
X0038252Y0107004D01*
G75*
G02*
X0037760Y0106512I-000492J0000000D01*
G01*
G37*
G36*
G01*
X0034610Y0106512D02*
X0033626Y0106512D01*
G75*
G02*
X0033134Y0107004I0000000J0000492D01*
G01*
X0033134Y0111926D01*
G75*
G02*
X0033626Y0112418I0000492J0000000D01*
G01*
X0034610Y0112418D01*
G75*
G02*
X0035103Y0111926I0000000J-000492D01*
G01*
X0035103Y0107004D01*
G75*
G02*
X0034610Y0106512I-000492J0000000D01*
G01*
G37*
G36*
G01*
X0031461Y0106512D02*
X0030477Y0106512D01*
G75*
G02*
X0029984Y0107004I0000000J0000492D01*
G01*
X0029984Y0111926D01*
G75*
G02*
X0030477Y0112418I0000492J0000000D01*
G01*
X0031461Y0112418D01*
G75*
G02*
X0031953Y0111926I0000000J-000492D01*
G01*
X0031953Y0107004D01*
G75*
G02*
X0031461Y0106512I-000492J0000000D01*
G01*
G37*
G36*
G01*
X0028311Y0106512D02*
X0027327Y0106512D01*
G75*
G02*
X0026835Y0107004I0000000J0000492D01*
G01*
X0026835Y0111926D01*
G75*
G02*
X0027327Y0112418I0000492J0000000D01*
G01*
X0028311Y0112418D01*
G75*
G02*
X0028803Y0111926I0000000J-000492D01*
G01*
X0028803Y0107004D01*
G75*
G02*
X0028311Y0106512I-000492J0000000D01*
G01*
G37*
G36*
G01*
X0024866Y0103067D02*
X0019945Y0103067D01*
G75*
G02*
X0019453Y0103559I0000000J0000492D01*
G01*
X0019453Y0104544D01*
G75*
G02*
X0019945Y0105036I0000492J0000000D01*
G01*
X0024866Y0105036D01*
G75*
G02*
X0025359Y0104544I0000000J-000492D01*
G01*
X0025359Y0103559D01*
G75*
G02*
X0024866Y0103067I-000492J0000000D01*
G01*
G37*
G36*
G01*
X0024866Y0099918D02*
X0019945Y0099918D01*
G75*
G02*
X0019453Y0100410I0000000J0000492D01*
G01*
X0019453Y0101394D01*
G75*
G02*
X0019945Y0101886I0000492J0000000D01*
G01*
X0024866Y0101886D01*
G75*
G02*
X0025359Y0101394I0000000J-000492D01*
G01*
X0025359Y0100410D01*
G75*
G02*
X0024866Y0099918I-000492J0000000D01*
G01*
G37*
G36*
G01*
X0024866Y0096768D02*
X0019945Y0096768D01*
G75*
G02*
X0019453Y0097260I0000000J0000492D01*
G01*
X0019453Y0098244D01*
G75*
G02*
X0019945Y0098737I0000492J0000000D01*
G01*
X0024866Y0098737D01*
G75*
G02*
X0025359Y0098244I0000000J-000492D01*
G01*
X0025359Y0097260D01*
G75*
G02*
X0024866Y0096768I-000492J0000000D01*
G01*
G37*
G36*
G01*
X0024866Y0093619D02*
X0019945Y0093619D01*
G75*
G02*
X0019453Y0094111I0000000J0000492D01*
G01*
X0019453Y0095095D01*
G75*
G02*
X0019945Y0095587I0000492J0000000D01*
G01*
X0024866Y0095587D01*
G75*
G02*
X0025359Y0095095I0000000J-000492D01*
G01*
X0025359Y0094111D01*
G75*
G02*
X0024866Y0093619I-000492J0000000D01*
G01*
G37*
G36*
G01*
X0024866Y0090469D02*
X0019945Y0090469D01*
G75*
G02*
X0019453Y0090961I0000000J0000492D01*
G01*
X0019453Y0091945D01*
G75*
G02*
X0019945Y0092437I0000492J0000000D01*
G01*
X0024866Y0092437D01*
G75*
G02*
X0025359Y0091945I0000000J-000492D01*
G01*
X0025359Y0090961D01*
G75*
G02*
X0024866Y0090469I-000492J0000000D01*
G01*
G37*
G36*
G01*
X0024866Y0087319D02*
X0019945Y0087319D01*
G75*
G02*
X0019453Y0087811I0000000J0000492D01*
G01*
X0019453Y0088796D01*
G75*
G02*
X0019945Y0089288I0000492J0000000D01*
G01*
X0024866Y0089288D01*
G75*
G02*
X0025359Y0088796I0000000J-000492D01*
G01*
X0025359Y0087811D01*
G75*
G02*
X0024866Y0087319I-000492J0000000D01*
G01*
G37*
G36*
G01*
X0024866Y0084170D02*
X0019945Y0084170D01*
G75*
G02*
X0019453Y0084662I0000000J0000492D01*
G01*
X0019453Y0085646D01*
G75*
G02*
X0019945Y0086138I0000492J0000000D01*
G01*
X0024866Y0086138D01*
G75*
G02*
X0025359Y0085646I0000000J-000492D01*
G01*
X0025359Y0084662D01*
G75*
G02*
X0024866Y0084170I-000492J0000000D01*
G01*
G37*
G36*
G01*
X0024866Y0081020D02*
X0019945Y0081020D01*
G75*
G02*
X0019453Y0081512I0000000J0000492D01*
G01*
X0019453Y0082496D01*
G75*
G02*
X0019945Y0082989I0000492J0000000D01*
G01*
X0024866Y0082989D01*
G75*
G02*
X0025359Y0082496I0000000J-000492D01*
G01*
X0025359Y0081512D01*
G75*
G02*
X0024866Y0081020I-000492J0000000D01*
G01*
G37*
G36*
G01*
X0046412Y0115646D02*
X0045053Y0115646D01*
G75*
G02*
X0044473Y0116227I0000000J0000581D01*
G01*
X0044473Y0117388D01*
G75*
G02*
X0045053Y0117969I0000581J0000000D01*
G01*
X0046412Y0117969D01*
G75*
G02*
X0046992Y0117388I0000000J-000581D01*
G01*
X0046992Y0116227D01*
G75*
G02*
X0046412Y0115646I-000581J0000000D01*
G01*
G37*
G36*
G01*
X0046412Y0119465D02*
X0045053Y0119465D01*
G75*
G02*
X0044473Y0120046I0000000J0000581D01*
G01*
X0044473Y0121207D01*
G75*
G02*
X0045053Y0121788I0000581J0000000D01*
G01*
X0046412Y0121788D01*
G75*
G02*
X0046992Y0121207I0000000J-000581D01*
G01*
X0046992Y0120046D01*
G75*
G02*
X0046412Y0119465I-000581J0000000D01*
G01*
G37*
G36*
G01*
X0023016Y0108569D02*
X0023016Y0107211D01*
G75*
G02*
X0022435Y0106630I-000581J0000000D01*
G01*
X0021274Y0106630D01*
G75*
G02*
X0020693Y0107211I0000000J0000581D01*
G01*
X0020693Y0108569D01*
G75*
G02*
X0021274Y0109150I0000581J0000000D01*
G01*
X0022435Y0109150D01*
G75*
G02*
X0023016Y0108569I0000000J-000581D01*
G01*
G37*
G36*
G01*
X0019197Y0108569D02*
X0019197Y0107211D01*
G75*
G02*
X0018616Y0106630I-000581J0000000D01*
G01*
X0017455Y0106630D01*
G75*
G02*
X0016874Y0107211I0000000J0000581D01*
G01*
X0016874Y0108569D01*
G75*
G02*
X0017455Y0109150I0000581J0000000D01*
G01*
X0018616Y0109150D01*
G75*
G02*
X0019197Y0108569I0000000J-000581D01*
G01*
G37*
G36*
G01*
X0045053Y0132213D02*
X0046412Y0132213D01*
G75*
G02*
X0046992Y0131632I0000000J-000581D01*
G01*
X0046992Y0130471D01*
G75*
G02*
X0046412Y0129890I-000581J0000000D01*
G01*
X0045053Y0129890D01*
G75*
G02*
X0044473Y0130471I0000000J0000581D01*
G01*
X0044473Y0131632D01*
G75*
G02*
X0045053Y0132213I0000581J0000000D01*
G01*
G37*
G36*
G01*
X0045053Y0128394D02*
X0046412Y0128394D01*
G75*
G02*
X0046992Y0127813I0000000J-000581D01*
G01*
X0046992Y0126652D01*
G75*
G02*
X0046412Y0126071I-000581J0000000D01*
G01*
X0045053Y0126071D01*
G75*
G02*
X0044473Y0126652I0000000J0000581D01*
G01*
X0044473Y0127813D01*
G75*
G02*
X0045053Y0128394I0000581J0000000D01*
G01*
G37*
D145*
X0050654Y0130725D03*
X0050654Y0123244D03*
X0058528Y0126985D03*
G36*
G01*
X0024886Y0071660D02*
X0024886Y0070302D01*
G75*
G02*
X0024305Y0069721I-000581J0000000D01*
G01*
X0023144Y0069721D01*
G75*
G02*
X0022563Y0070302I0000000J0000581D01*
G01*
X0022563Y0071660D01*
G75*
G02*
X0023144Y0072241I0000581J0000000D01*
G01*
X0024305Y0072241D01*
G75*
G02*
X0024886Y0071660I0000000J-000581D01*
G01*
G37*
G36*
G01*
X0021067Y0071660D02*
X0021067Y0070302D01*
G75*
G02*
X0020486Y0069721I-000581J0000000D01*
G01*
X0019325Y0069721D01*
G75*
G02*
X0018744Y0070302I0000000J0000581D01*
G01*
X0018744Y0071660D01*
G75*
G02*
X0019325Y0072241I0000581J0000000D01*
G01*
X0020486Y0072241D01*
G75*
G02*
X0021067Y0071660I0000000J-000581D01*
G01*
G37*
G36*
G01*
X0059925Y0117787D02*
X0059925Y0115769D01*
G75*
G02*
X0059064Y0114908I-000861J0000000D01*
G01*
X0057342Y0114908D01*
G75*
G02*
X0056481Y0115769I0000000J0000861D01*
G01*
X0056481Y0117787D01*
G75*
G02*
X0057342Y0118648I0000861J0000000D01*
G01*
X0059064Y0118648D01*
G75*
G02*
X0059925Y0117787I0000000J-000861D01*
G01*
G37*
G36*
G01*
X0053725Y0117787D02*
X0053725Y0115769D01*
G75*
G02*
X0052863Y0114908I-000861J0000000D01*
G01*
X0051141Y0114908D01*
G75*
G02*
X0050280Y0115769I0000000J0000861D01*
G01*
X0050280Y0117787D01*
G75*
G02*
X0051141Y0118648I0000861J0000000D01*
G01*
X0052863Y0118648D01*
G75*
G02*
X0053725Y0117787I0000000J-000861D01*
G01*
G37*
M02*
