G75*
G70*
%OFA0B0*%
%FSLAX25Y25*%
%IPPOS*%
%LPD*%
%AMOC8*
5,1,8,0,0,1.08239X$1,22.5*
%
%AMM123*
21,1,0.025200,0.019680,-0.000000,0.000000,90.000000*
21,1,0.015750,0.029130,-0.000000,0.000000,90.000000*
1,1,0.009450,0.009840,0.007870*
1,1,0.009450,0.009840,-0.007870*
1,1,0.009450,-0.009840,-0.007870*
1,1,0.009450,-0.009840,0.007870*
%
%AMM124*
21,1,0.025200,0.019680,-0.000000,0.000000,0.000000*
21,1,0.015750,0.029130,-0.000000,0.000000,0.000000*
1,1,0.009450,0.007870,-0.009840*
1,1,0.009450,-0.007870,-0.009840*
1,1,0.009450,-0.007870,0.009840*
1,1,0.009450,0.007870,0.009840*
%
%AMM131*
21,1,0.038980,0.026770,-0.000000,0.000000,0.000000*
21,1,0.026770,0.038980,-0.000000,0.000000,0.000000*
1,1,0.012210,0.013390,-0.013390*
1,1,0.012210,-0.013390,-0.013390*
1,1,0.012210,-0.013390,0.013390*
1,1,0.012210,0.013390,0.013390*
%
%AMM132*
21,1,0.029130,0.018900,-0.000000,0.000000,270.000000*
21,1,0.018900,0.029130,-0.000000,0.000000,270.000000*
1,1,0.010240,-0.009450,-0.009450*
1,1,0.010240,-0.009450,0.009450*
1,1,0.010240,0.009450,0.009450*
1,1,0.010240,0.009450,-0.009450*
%
%AMM190*
21,1,0.041340,0.026770,0.000000,-0.000000,270.000000*
21,1,0.029130,0.038980,0.000000,-0.000000,270.000000*
1,1,0.012210,-0.013390,-0.014570*
1,1,0.012210,-0.013390,0.014570*
1,1,0.012210,0.013390,0.014570*
1,1,0.012210,0.013390,-0.014570*
%
%AMM191*
21,1,0.076380,0.036220,0.000000,-0.000000,0.000000*
21,1,0.061810,0.050790,0.000000,-0.000000,0.000000*
1,1,0.014570,0.030910,-0.018110*
1,1,0.014570,-0.030910,-0.018110*
1,1,0.014570,-0.030910,0.018110*
1,1,0.014570,0.030910,0.018110*
%
%AMM194*
21,1,0.029130,0.018900,0.000000,-0.000000,0.000000*
21,1,0.018900,0.029130,0.000000,-0.000000,0.000000*
1,1,0.010240,0.009450,-0.009450*
1,1,0.010240,-0.009450,-0.009450*
1,1,0.010240,-0.009450,0.009450*
1,1,0.010240,0.009450,0.009450*
%
%AMM195*
21,1,0.025200,0.019680,0.000000,-0.000000,270.000000*
21,1,0.015750,0.029130,0.000000,-0.000000,270.000000*
1,1,0.009450,-0.009840,-0.007870*
1,1,0.009450,-0.009840,0.007870*
1,1,0.009450,0.009840,0.007870*
1,1,0.009450,0.009840,-0.007870*
%
%AMM196*
21,1,0.025200,0.019680,0.000000,-0.000000,180.000000*
21,1,0.015750,0.029130,0.000000,-0.000000,180.000000*
1,1,0.009450,-0.007870,0.009840*
1,1,0.009450,0.007870,0.009840*
1,1,0.009450,0.007870,-0.009840*
1,1,0.009450,-0.007870,-0.009840*
%
%AMM202*
21,1,0.111810,0.050390,0.000000,-0.000000,0.000000*
21,1,0.093700,0.068500,0.000000,-0.000000,0.000000*
1,1,0.018110,0.046850,-0.025200*
1,1,0.018110,-0.046850,-0.025200*
1,1,0.018110,-0.046850,0.025200*
1,1,0.018110,0.046850,0.025200*
%
%AMM203*
21,1,0.038980,0.026770,0.000000,-0.000000,180.000000*
21,1,0.026770,0.038980,0.000000,-0.000000,180.000000*
1,1,0.012210,-0.013390,0.013390*
1,1,0.012210,0.013390,0.013390*
1,1,0.012210,0.013390,-0.013390*
1,1,0.012210,-0.013390,-0.013390*
%
%AMM204*
21,1,0.029130,0.018900,0.000000,-0.000000,90.000000*
21,1,0.018900,0.029130,0.000000,-0.000000,90.000000*
1,1,0.010240,0.009450,0.009450*
1,1,0.010240,0.009450,-0.009450*
1,1,0.010240,-0.009450,-0.009450*
1,1,0.010240,-0.009450,0.009450*
%
%AMM205*
21,1,0.127560,0.075590,0.000000,-0.000000,90.000000*
21,1,0.103150,0.100000,0.000000,-0.000000,90.000000*
1,1,0.024410,0.037800,0.051580*
1,1,0.024410,0.037800,-0.051580*
1,1,0.024410,-0.037800,-0.051580*
1,1,0.024410,-0.037800,0.051580*
%
%AMM206*
21,1,0.123620,0.083460,0.000000,-0.000000,270.000000*
21,1,0.097240,0.109840,0.000000,-0.000000,270.000000*
1,1,0.026380,-0.041730,-0.048620*
1,1,0.026380,-0.041730,0.048620*
1,1,0.026380,0.041730,0.048620*
1,1,0.026380,0.041730,-0.048620*
%
%AMM278*
21,1,0.029530,0.026380,-0.000000,-0.000000,90.000000*
21,1,0.020470,0.035430,-0.000000,-0.000000,90.000000*
1,1,0.009060,0.013190,0.010240*
1,1,0.009060,0.013190,-0.010240*
1,1,0.009060,-0.013190,-0.010240*
1,1,0.009060,-0.013190,0.010240*
%
%AMM279*
21,1,0.021650,0.027950,-0.000000,-0.000000,90.000000*
21,1,0.014170,0.035430,-0.000000,-0.000000,90.000000*
1,1,0.007480,0.013980,0.007090*
1,1,0.007480,0.013980,-0.007090*
1,1,0.007480,-0.013980,-0.007090*
1,1,0.007480,-0.013980,0.007090*
%
%AMM282*
21,1,0.031500,0.018900,-0.000000,-0.000000,270.000000*
21,1,0.022840,0.027560,-0.000000,-0.000000,270.000000*
1,1,0.008660,-0.009450,-0.011420*
1,1,0.008660,-0.009450,0.011420*
1,1,0.008660,0.009450,0.011420*
1,1,0.008660,0.009450,-0.011420*
%
%AMM284*
21,1,0.031500,0.018900,-0.000000,-0.000000,0.000000*
21,1,0.022840,0.027560,-0.000000,-0.000000,0.000000*
1,1,0.008660,0.011420,-0.009450*
1,1,0.008660,-0.011420,-0.009450*
1,1,0.008660,-0.011420,0.009450*
1,1,0.008660,0.011420,0.009450*
%
%AMM286*
21,1,0.039370,0.030320,-0.000000,-0.000000,90.000000*
21,1,0.028350,0.041340,-0.000000,-0.000000,90.000000*
1,1,0.011020,0.015160,0.014170*
1,1,0.011020,0.015160,-0.014170*
1,1,0.011020,-0.015160,-0.014170*
1,1,0.011020,-0.015160,0.014170*
%
%AMM289*
21,1,0.031500,0.030710,-0.000000,-0.000000,180.000000*
21,1,0.022050,0.040160,-0.000000,-0.000000,180.000000*
1,1,0.009450,-0.011020,0.015350*
1,1,0.009450,0.011020,0.015350*
1,1,0.009450,0.011020,-0.015350*
1,1,0.009450,-0.011020,-0.015350*
%
%AMM304*
21,1,0.037400,0.026770,-0.000000,-0.000000,270.000000*
21,1,0.026770,0.037400,-0.000000,-0.000000,270.000000*
1,1,0.010630,-0.013390,-0.013390*
1,1,0.010630,-0.013390,0.013390*
1,1,0.010630,0.013390,0.013390*
1,1,0.010630,0.013390,-0.013390*
%
%AMM305*
21,1,0.029530,0.026380,-0.000000,-0.000000,180.000000*
21,1,0.020470,0.035430,-0.000000,-0.000000,180.000000*
1,1,0.009060,-0.010240,0.013190*
1,1,0.009060,0.010240,0.013190*
1,1,0.009060,0.010240,-0.013190*
1,1,0.009060,-0.010240,-0.013190*
%
%AMM306*
21,1,0.021650,0.027950,-0.000000,-0.000000,180.000000*
21,1,0.014170,0.035430,-0.000000,-0.000000,180.000000*
1,1,0.007480,-0.007090,0.013980*
1,1,0.007480,0.007090,0.013980*
1,1,0.007480,0.007090,-0.013980*
1,1,0.007480,-0.007090,-0.013980*
%
%AMM307*
21,1,0.037400,0.026770,-0.000000,-0.000000,180.000000*
21,1,0.026770,0.037400,-0.000000,-0.000000,180.000000*
1,1,0.010630,-0.013390,0.013390*
1,1,0.010630,0.013390,0.013390*
1,1,0.010630,0.013390,-0.013390*
1,1,0.010630,-0.013390,-0.013390*
%
%AMM308*
21,1,0.082680,0.045670,-0.000000,-0.000000,0.000000*
21,1,0.067320,0.061020,-0.000000,-0.000000,0.000000*
1,1,0.015350,0.033660,-0.022840*
1,1,0.015350,-0.033660,-0.022840*
1,1,0.015350,-0.033660,0.022840*
1,1,0.015350,0.033660,0.022840*
%
%AMM309*
21,1,0.062990,0.020470,-0.000000,-0.000000,0.000000*
21,1,0.053940,0.029530,-0.000000,-0.000000,0.000000*
1,1,0.009060,0.026970,-0.010240*
1,1,0.009060,-0.026970,-0.010240*
1,1,0.009060,-0.026970,0.010240*
1,1,0.009060,0.026970,0.010240*
%
%AMM310*
21,1,0.039370,0.030320,-0.000000,-0.000000,0.000000*
21,1,0.028350,0.041340,-0.000000,-0.000000,0.000000*
1,1,0.011020,0.014170,-0.015160*
1,1,0.011020,-0.014170,-0.015160*
1,1,0.011020,-0.014170,0.015160*
1,1,0.011020,0.014170,0.015160*
%
%AMM311*
21,1,0.016540,0.028980,-0.000000,-0.000000,0.000000*
21,1,0.010080,0.035430,-0.000000,-0.000000,0.000000*
1,1,0.006460,0.005040,-0.014490*
1,1,0.006460,-0.005040,-0.014490*
1,1,0.006460,-0.005040,0.014490*
1,1,0.006460,0.005040,0.014490*
%
%AMM312*
21,1,0.074800,0.036220,-0.000000,-0.000000,180.000000*
21,1,0.061810,0.049210,-0.000000,-0.000000,180.000000*
1,1,0.012990,-0.030910,0.018110*
1,1,0.012990,0.030910,0.018110*
1,1,0.012990,0.030910,-0.018110*
1,1,0.012990,-0.030910,-0.018110*
%
%AMM313*
21,1,0.039760,0.026770,-0.000000,-0.000000,180.000000*
21,1,0.029130,0.037400,-0.000000,-0.000000,180.000000*
1,1,0.010630,-0.014570,0.013390*
1,1,0.010630,0.014570,0.013390*
1,1,0.010630,0.014570,-0.013390*
1,1,0.010630,-0.014570,-0.013390*
%
%AMM314*
21,1,0.031500,0.049610,-0.000000,-0.000000,180.000000*
21,1,0.022050,0.059060,-0.000000,-0.000000,180.000000*
1,1,0.009450,-0.011020,0.024800*
1,1,0.009450,0.011020,0.024800*
1,1,0.009450,0.011020,-0.024800*
1,1,0.009450,-0.011020,-0.024800*
%
%AMM315*
21,1,0.074800,0.036220,-0.000000,-0.000000,270.000000*
21,1,0.061810,0.049210,-0.000000,-0.000000,270.000000*
1,1,0.012990,-0.018110,-0.030910*
1,1,0.012990,-0.018110,0.030910*
1,1,0.012990,0.018110,0.030910*
1,1,0.012990,0.018110,-0.030910*
%
%AMM316*
21,1,0.031500,0.030710,-0.000000,-0.000000,270.000000*
21,1,0.022050,0.040160,-0.000000,-0.000000,270.000000*
1,1,0.009450,-0.015350,-0.011020*
1,1,0.009450,-0.015350,0.011020*
1,1,0.009450,0.015350,0.011020*
1,1,0.009450,0.015350,-0.011020*
%
%ADD10C,0.06000*%
%ADD13C,0.22047*%
%ADD132C,0.02913*%
%ADD133C,0.06457*%
%ADD14C,0.02362*%
%ADD154C,0.05118*%
%ADD167C,0.03900*%
%ADD223C,0.04724*%
%ADD224C,0.04294*%
%ADD249R,0.01772X0.01870*%
%ADD251O,0.05354X0.01378*%
%ADD254R,0.09843X0.07087*%
%ADD255R,0.01870X0.01772*%
%ADD257R,0.04331X0.04724*%
%ADD297M123*%
%ADD298M124*%
%ADD306M131*%
%ADD307M132*%
%ADD308O,0.09213X0.02520*%
%ADD366M190*%
%ADD367M191*%
%ADD37C,0.05906*%
%ADD370M194*%
%ADD371M195*%
%ADD372M196*%
%ADD378M202*%
%ADD379M203*%
%ADD380M204*%
%ADD381M205*%
%ADD382M206*%
%ADD391R,0.07874X0.07500*%
%ADD392O,0.07874X0.07500*%
%ADD394R,0.01772X0.05709*%
%ADD395R,0.02559X0.04803*%
%ADD47R,0.10335X0.10335*%
%ADD48C,0.10335*%
%ADD487M278*%
%ADD488M279*%
%ADD49C,0.06693*%
%ADD491M282*%
%ADD493M284*%
%ADD495M286*%
%ADD498M289*%
%ADD51O,0.03937X0.08268*%
%ADD513M304*%
%ADD514M305*%
%ADD515M306*%
%ADD516M307*%
%ADD517M308*%
%ADD518M309*%
%ADD519M310*%
%ADD52O,0.03937X0.06299*%
%ADD520M311*%
%ADD521M312*%
%ADD522M313*%
%ADD523M314*%
%ADD524M315*%
%ADD525M316*%
%ADD70C,0.00472*%
%ADD71C,0.11220*%
%ADD72C,0.02559*%
X0000000Y0000000D02*
%LPD*%
G01*
D70*
X0604478Y0192225D02*
X0553297Y0192225D01*
X0553297Y0219784D01*
X0604478Y0219784D01*
X0604478Y0192225D01*
G36*
X0604478Y0192225D02*
G01*
X0553297Y0192225D01*
X0553297Y0219784D01*
X0604478Y0219784D01*
X0604478Y0192225D01*
G37*
D10*
X0464291Y0074508D03*
X0449291Y0074508D03*
D13*
X0162106Y0091339D03*
D14*
X0615748Y0118898D03*
X0619488Y0118898D03*
X0623228Y0118898D03*
X0619291Y0084646D03*
X0615748Y0084646D03*
X0280512Y0249606D03*
X0280512Y0254331D03*
X0280512Y0244882D03*
X0280512Y0240158D03*
X0337303Y0265591D03*
X0337303Y0269528D03*
D14*
X0546260Y0068603D03*
X0552461Y0049291D03*
X0602476Y0049327D03*
X0569094Y0046654D03*
X0573720Y0046654D03*
X0582283Y0046654D03*
X0591043Y0046654D03*
D37*
X0526968Y0092323D03*
X0501772Y0092323D03*
X0494291Y0092323D03*
X0477362Y0092323D03*
D14*
X0467913Y0090551D03*
X0463976Y0090551D03*
D37*
X0452756Y0092323D03*
X0528740Y0153347D03*
X0521457Y0153347D03*
X0501968Y0153347D03*
X0454528Y0153347D03*
D71*
X0234350Y0023819D03*
X0395768Y0023819D03*
D47*
X0259941Y0041536D03*
D48*
X0275689Y0041536D03*
X0291437Y0041536D03*
X0307185Y0041536D03*
X0322933Y0041536D03*
X0338681Y0041536D03*
X0354429Y0041536D03*
X0370177Y0041536D03*
X0267815Y0025788D03*
X0283563Y0025788D03*
X0299311Y0025788D03*
X0315059Y0025788D03*
X0330807Y0025788D03*
X0346555Y0025788D03*
X0362303Y0025788D03*
X0259941Y0010039D03*
X0275689Y0010039D03*
X0291437Y0010039D03*
X0307185Y0010039D03*
X0322933Y0010039D03*
X0338681Y0010039D03*
X0354429Y0010039D03*
X0370177Y0010039D03*
G36*
G01*
X0253740Y0248130D02*
X0253740Y0254429D01*
G75*
G02*
X0254724Y0255414I0000984J0000000D01*
G01*
X0261024Y0255414D01*
G75*
G02*
X0262008Y0254429I0000000J-000984D01*
G01*
X0262008Y0248130D01*
G75*
G02*
X0261024Y0247146I-000984J0000000D01*
G01*
X0254724Y0247146D01*
G75*
G02*
X0253740Y0248130I0000000J0000984D01*
G01*
G37*
G36*
G01*
X0231299Y0248130D02*
X0231299Y0254429D01*
G75*
G02*
X0232283Y0255414I0000984J0000000D01*
G01*
X0238583Y0255414D01*
G75*
G02*
X0239567Y0254429I0000000J-000984D01*
G01*
X0239567Y0248130D01*
G75*
G02*
X0238583Y0247146I-000984J0000000D01*
G01*
X0232283Y0247146D01*
G75*
G02*
X0231299Y0248130I0000000J0000984D01*
G01*
G37*
G36*
G01*
X0208858Y0248130D02*
X0208858Y0254429D01*
G75*
G02*
X0209843Y0255414I0000984J0000000D01*
G01*
X0216142Y0255414D01*
G75*
G02*
X0217126Y0254429I0000000J-000984D01*
G01*
X0217126Y0248130D01*
G75*
G02*
X0216142Y0247146I-000984J0000000D01*
G01*
X0209843Y0247146D01*
G75*
G02*
X0208858Y0248130I0000000J0000984D01*
G01*
G37*
G36*
G01*
X0186417Y0248130D02*
X0186417Y0254429D01*
G75*
G02*
X0187402Y0255414I0000984J0000000D01*
G01*
X0193701Y0255414D01*
G75*
G02*
X0194685Y0254429I0000000J-000984D01*
G01*
X0194685Y0248130D01*
G75*
G02*
X0193701Y0247146I-000984J0000000D01*
G01*
X0187402Y0247146D01*
G75*
G02*
X0186417Y0248130I0000000J0000984D01*
G01*
G37*
G36*
G01*
X0163976Y0248130D02*
X0163976Y0254429D01*
G75*
G02*
X0164961Y0255414I0000984J0000000D01*
G01*
X0171260Y0255414D01*
G75*
G02*
X0172244Y0254429I0000000J-000984D01*
G01*
X0172244Y0248130D01*
G75*
G02*
X0171260Y0247146I-000984J0000000D01*
G01*
X0164961Y0247146D01*
G75*
G02*
X0163976Y0248130I0000000J0000984D01*
G01*
G37*
G36*
G01*
X0141535Y0248130D02*
X0141535Y0254429D01*
G75*
G02*
X0142520Y0255414I0000984J0000000D01*
G01*
X0148819Y0255414D01*
G75*
G02*
X0149803Y0254429I0000000J-000984D01*
G01*
X0149803Y0248130D01*
G75*
G02*
X0148819Y0247146I-000984J0000000D01*
G01*
X0142520Y0247146D01*
G75*
G02*
X0141535Y0248130I0000000J0000984D01*
G01*
G37*
G36*
G01*
X0119094Y0248130D02*
X0119094Y0254429D01*
G75*
G02*
X0120079Y0255414I0000984J0000000D01*
G01*
X0126378Y0255414D01*
G75*
G02*
X0127362Y0254429I0000000J-000984D01*
G01*
X0127362Y0248130D01*
G75*
G02*
X0126378Y0247146I-000984J0000000D01*
G01*
X0120079Y0247146D01*
G75*
G02*
X0119094Y0248130I0000000J0000984D01*
G01*
G37*
G36*
G01*
X0096654Y0248130D02*
X0096654Y0254429D01*
G75*
G02*
X0097638Y0255414I0000984J0000000D01*
G01*
X0103937Y0255414D01*
G75*
G02*
X0104921Y0254429I0000000J-000984D01*
G01*
X0104921Y0248130D01*
G75*
G02*
X0103937Y0247146I-000984J0000000D01*
G01*
X0097638Y0247146D01*
G75*
G02*
X0096654Y0248130I0000000J0000984D01*
G01*
G37*
G36*
G01*
X0074213Y0248130D02*
X0074213Y0254429D01*
G75*
G02*
X0075197Y0255414I0000984J0000000D01*
G01*
X0081496Y0255414D01*
G75*
G02*
X0082480Y0254429I0000000J-000984D01*
G01*
X0082480Y0248130D01*
G75*
G02*
X0081496Y0247146I-000984J0000000D01*
G01*
X0075197Y0247146D01*
G75*
G02*
X0074213Y0248130I0000000J0000984D01*
G01*
G37*
G36*
G01*
X0051772Y0248130D02*
X0051772Y0254429D01*
G75*
G02*
X0052756Y0255414I0000984J0000000D01*
G01*
X0059055Y0255414D01*
G75*
G02*
X0060039Y0254429I0000000J-000984D01*
G01*
X0060039Y0248130D01*
G75*
G02*
X0059055Y0247146I-000984J0000000D01*
G01*
X0052756Y0247146D01*
G75*
G02*
X0051772Y0248130I0000000J0000984D01*
G01*
G37*
G36*
G01*
X0029331Y0248130D02*
X0029331Y0254429D01*
G75*
G02*
X0030315Y0255414I0000984J0000000D01*
G01*
X0036614Y0255414D01*
G75*
G02*
X0037598Y0254429I0000000J-000984D01*
G01*
X0037598Y0248130D01*
G75*
G02*
X0036614Y0247146I-000984J0000000D01*
G01*
X0030315Y0247146D01*
G75*
G02*
X0029331Y0248130I0000000J0000984D01*
G01*
G37*
G36*
G01*
X0253740Y0264272D02*
X0253740Y0270571D01*
G75*
G02*
X0254724Y0271555I0000984J0000000D01*
G01*
X0261024Y0271555D01*
G75*
G02*
X0262008Y0270571I0000000J-000984D01*
G01*
X0262008Y0264272D01*
G75*
G02*
X0261024Y0263288I-000984J0000000D01*
G01*
X0254724Y0263288D01*
G75*
G02*
X0253740Y0264272I0000000J0000984D01*
G01*
G37*
G36*
G01*
X0231299Y0264272D02*
X0231299Y0270571D01*
G75*
G02*
X0232283Y0271555I0000984J0000000D01*
G01*
X0238583Y0271555D01*
G75*
G02*
X0239567Y0270571I0000000J-000984D01*
G01*
X0239567Y0264272D01*
G75*
G02*
X0238583Y0263288I-000984J0000000D01*
G01*
X0232283Y0263288D01*
G75*
G02*
X0231299Y0264272I0000000J0000984D01*
G01*
G37*
G36*
G01*
X0208858Y0264272D02*
X0208858Y0270571D01*
G75*
G02*
X0209843Y0271555I0000984J0000000D01*
G01*
X0216142Y0271555D01*
G75*
G02*
X0217126Y0270571I0000000J-000984D01*
G01*
X0217126Y0264272D01*
G75*
G02*
X0216142Y0263288I-000984J0000000D01*
G01*
X0209843Y0263288D01*
G75*
G02*
X0208858Y0264272I0000000J0000984D01*
G01*
G37*
G36*
G01*
X0186417Y0264272D02*
X0186417Y0270571D01*
G75*
G02*
X0187402Y0271555I0000984J0000000D01*
G01*
X0193701Y0271555D01*
G75*
G02*
X0194685Y0270571I0000000J-000984D01*
G01*
X0194685Y0264272D01*
G75*
G02*
X0193701Y0263288I-000984J0000000D01*
G01*
X0187402Y0263288D01*
G75*
G02*
X0186417Y0264272I0000000J0000984D01*
G01*
G37*
G36*
G01*
X0163976Y0264272D02*
X0163976Y0270571D01*
G75*
G02*
X0164961Y0271555I0000984J0000000D01*
G01*
X0171260Y0271555D01*
G75*
G02*
X0172244Y0270571I0000000J-000984D01*
G01*
X0172244Y0264272D01*
G75*
G02*
X0171260Y0263288I-000984J0000000D01*
G01*
X0164961Y0263288D01*
G75*
G02*
X0163976Y0264272I0000000J0000984D01*
G01*
G37*
G36*
G01*
X0141535Y0264272D02*
X0141535Y0270571D01*
G75*
G02*
X0142520Y0271555I0000984J0000000D01*
G01*
X0148819Y0271555D01*
G75*
G02*
X0149803Y0270571I0000000J-000984D01*
G01*
X0149803Y0264272D01*
G75*
G02*
X0148819Y0263288I-000984J0000000D01*
G01*
X0142520Y0263288D01*
G75*
G02*
X0141535Y0264272I0000000J0000984D01*
G01*
G37*
G36*
G01*
X0119094Y0264272D02*
X0119094Y0270571D01*
G75*
G02*
X0120079Y0271555I0000984J0000000D01*
G01*
X0126378Y0271555D01*
G75*
G02*
X0127362Y0270571I0000000J-000984D01*
G01*
X0127362Y0264272D01*
G75*
G02*
X0126378Y0263288I-000984J0000000D01*
G01*
X0120079Y0263288D01*
G75*
G02*
X0119094Y0264272I0000000J0000984D01*
G01*
G37*
G36*
G01*
X0096654Y0264272D02*
X0096654Y0270571D01*
G75*
G02*
X0097638Y0271555I0000984J0000000D01*
G01*
X0103937Y0271555D01*
G75*
G02*
X0104921Y0270571I0000000J-000984D01*
G01*
X0104921Y0264272D01*
G75*
G02*
X0103937Y0263288I-000984J0000000D01*
G01*
X0097638Y0263288D01*
G75*
G02*
X0096654Y0264272I0000000J0000984D01*
G01*
G37*
G36*
G01*
X0074213Y0264272D02*
X0074213Y0270571D01*
G75*
G02*
X0075197Y0271555I0000984J0000000D01*
G01*
X0081496Y0271555D01*
G75*
G02*
X0082480Y0270571I0000000J-000984D01*
G01*
X0082480Y0264272D01*
G75*
G02*
X0081496Y0263288I-000984J0000000D01*
G01*
X0075197Y0263288D01*
G75*
G02*
X0074213Y0264272I0000000J0000984D01*
G01*
G37*
G36*
G01*
X0051772Y0264272D02*
X0051772Y0270571D01*
G75*
G02*
X0052756Y0271555I0000984J0000000D01*
G01*
X0059055Y0271555D01*
G75*
G02*
X0060039Y0270571I0000000J-000984D01*
G01*
X0060039Y0264272D01*
G75*
G02*
X0059055Y0263288I-000984J0000000D01*
G01*
X0052756Y0263288D01*
G75*
G02*
X0051772Y0264272I0000000J0000984D01*
G01*
G37*
G36*
G01*
X0029331Y0264272D02*
X0029331Y0270571D01*
G75*
G02*
X0030315Y0271555I0000984J0000000D01*
G01*
X0036614Y0271555D01*
G75*
G02*
X0037598Y0270571I0000000J-000984D01*
G01*
X0037598Y0264272D01*
G75*
G02*
X0036614Y0263288I-000984J0000000D01*
G01*
X0030315Y0263288D01*
G75*
G02*
X0029331Y0264272I0000000J0000984D01*
G01*
G37*
G36*
G01*
X0592323Y0247933D02*
X0592323Y0254232D01*
G75*
G02*
X0593307Y0255217I0000984J0000000D01*
G01*
X0599606Y0255217D01*
G75*
G02*
X0600591Y0254232I0000000J-000984D01*
G01*
X0600591Y0247933D01*
G75*
G02*
X0599606Y0246949I-000984J0000000D01*
G01*
X0593307Y0246949D01*
G75*
G02*
X0592323Y0247933I0000000J0000984D01*
G01*
G37*
G36*
G01*
X0569882Y0247933D02*
X0569882Y0254232D01*
G75*
G02*
X0570866Y0255217I0000984J0000000D01*
G01*
X0577165Y0255217D01*
G75*
G02*
X0578150Y0254232I0000000J-000984D01*
G01*
X0578150Y0247933D01*
G75*
G02*
X0577165Y0246949I-000984J0000000D01*
G01*
X0570866Y0246949D01*
G75*
G02*
X0569882Y0247933I0000000J0000984D01*
G01*
G37*
G36*
G01*
X0547441Y0247933D02*
X0547441Y0254232D01*
G75*
G02*
X0548425Y0255217I0000984J0000000D01*
G01*
X0554724Y0255217D01*
G75*
G02*
X0555709Y0254232I0000000J-000984D01*
G01*
X0555709Y0247933D01*
G75*
G02*
X0554724Y0246949I-000984J0000000D01*
G01*
X0548425Y0246949D01*
G75*
G02*
X0547441Y0247933I0000000J0000984D01*
G01*
G37*
G36*
G01*
X0525000Y0247933D02*
X0525000Y0254232D01*
G75*
G02*
X0525984Y0255217I0000984J0000000D01*
G01*
X0532283Y0255217D01*
G75*
G02*
X0533268Y0254232I0000000J-000984D01*
G01*
X0533268Y0247933D01*
G75*
G02*
X0532283Y0246949I-000984J0000000D01*
G01*
X0525984Y0246949D01*
G75*
G02*
X0525000Y0247933I0000000J0000984D01*
G01*
G37*
G36*
G01*
X0502559Y0247933D02*
X0502559Y0254232D01*
G75*
G02*
X0503543Y0255217I0000984J0000000D01*
G01*
X0509843Y0255217D01*
G75*
G02*
X0510827Y0254232I0000000J-000984D01*
G01*
X0510827Y0247933D01*
G75*
G02*
X0509843Y0246949I-000984J0000000D01*
G01*
X0503543Y0246949D01*
G75*
G02*
X0502559Y0247933I0000000J0000984D01*
G01*
G37*
G36*
G01*
X0480118Y0247933D02*
X0480118Y0254232D01*
G75*
G02*
X0481102Y0255217I0000984J0000000D01*
G01*
X0487402Y0255217D01*
G75*
G02*
X0488386Y0254232I0000000J-000984D01*
G01*
X0488386Y0247933D01*
G75*
G02*
X0487402Y0246949I-000984J0000000D01*
G01*
X0481102Y0246949D01*
G75*
G02*
X0480118Y0247933I0000000J0000984D01*
G01*
G37*
G36*
G01*
X0457677Y0247933D02*
X0457677Y0254232D01*
G75*
G02*
X0458661Y0255217I0000984J0000000D01*
G01*
X0464961Y0255217D01*
G75*
G02*
X0465945Y0254232I0000000J-000984D01*
G01*
X0465945Y0247933D01*
G75*
G02*
X0464961Y0246949I-000984J0000000D01*
G01*
X0458661Y0246949D01*
G75*
G02*
X0457677Y0247933I0000000J0000984D01*
G01*
G37*
G36*
G01*
X0435236Y0247933D02*
X0435236Y0254232D01*
G75*
G02*
X0436220Y0255217I0000984J0000000D01*
G01*
X0442520Y0255217D01*
G75*
G02*
X0443504Y0254232I0000000J-000984D01*
G01*
X0443504Y0247933D01*
G75*
G02*
X0442520Y0246949I-000984J0000000D01*
G01*
X0436220Y0246949D01*
G75*
G02*
X0435236Y0247933I0000000J0000984D01*
G01*
G37*
G36*
G01*
X0412795Y0247933D02*
X0412795Y0254232D01*
G75*
G02*
X0413780Y0255217I0000984J0000000D01*
G01*
X0420079Y0255217D01*
G75*
G02*
X0421063Y0254232I0000000J-000984D01*
G01*
X0421063Y0247933D01*
G75*
G02*
X0420079Y0246949I-000984J0000000D01*
G01*
X0413780Y0246949D01*
G75*
G02*
X0412795Y0247933I0000000J0000984D01*
G01*
G37*
G36*
G01*
X0390354Y0247933D02*
X0390354Y0254232D01*
G75*
G02*
X0391339Y0255217I0000984J0000000D01*
G01*
X0397638Y0255217D01*
G75*
G02*
X0398622Y0254232I0000000J-000984D01*
G01*
X0398622Y0247933D01*
G75*
G02*
X0397638Y0246949I-000984J0000000D01*
G01*
X0391339Y0246949D01*
G75*
G02*
X0390354Y0247933I0000000J0000984D01*
G01*
G37*
G36*
G01*
X0367913Y0247933D02*
X0367913Y0254232D01*
G75*
G02*
X0368898Y0255217I0000984J0000000D01*
G01*
X0375197Y0255217D01*
G75*
G02*
X0376181Y0254232I0000000J-000984D01*
G01*
X0376181Y0247933D01*
G75*
G02*
X0375197Y0246949I-000984J0000000D01*
G01*
X0368898Y0246949D01*
G75*
G02*
X0367913Y0247933I0000000J0000984D01*
G01*
G37*
G36*
G01*
X0592323Y0264075D02*
X0592323Y0270374D01*
G75*
G02*
X0593307Y0271358I0000984J0000000D01*
G01*
X0599606Y0271358D01*
G75*
G02*
X0600591Y0270374I0000000J-000984D01*
G01*
X0600591Y0264075D01*
G75*
G02*
X0599606Y0263091I-000984J0000000D01*
G01*
X0593307Y0263091D01*
G75*
G02*
X0592323Y0264075I0000000J0000984D01*
G01*
G37*
G36*
G01*
X0569882Y0264075D02*
X0569882Y0270374D01*
G75*
G02*
X0570866Y0271358I0000984J0000000D01*
G01*
X0577165Y0271358D01*
G75*
G02*
X0578150Y0270374I0000000J-000984D01*
G01*
X0578150Y0264075D01*
G75*
G02*
X0577165Y0263091I-000984J0000000D01*
G01*
X0570866Y0263091D01*
G75*
G02*
X0569882Y0264075I0000000J0000984D01*
G01*
G37*
G36*
G01*
X0547441Y0264075D02*
X0547441Y0270374D01*
G75*
G02*
X0548425Y0271358I0000984J0000000D01*
G01*
X0554724Y0271358D01*
G75*
G02*
X0555709Y0270374I0000000J-000984D01*
G01*
X0555709Y0264075D01*
G75*
G02*
X0554724Y0263091I-000984J0000000D01*
G01*
X0548425Y0263091D01*
G75*
G02*
X0547441Y0264075I0000000J0000984D01*
G01*
G37*
G36*
G01*
X0525000Y0264075D02*
X0525000Y0270374D01*
G75*
G02*
X0525984Y0271358I0000984J0000000D01*
G01*
X0532283Y0271358D01*
G75*
G02*
X0533268Y0270374I0000000J-000984D01*
G01*
X0533268Y0264075D01*
G75*
G02*
X0532283Y0263091I-000984J0000000D01*
G01*
X0525984Y0263091D01*
G75*
G02*
X0525000Y0264075I0000000J0000984D01*
G01*
G37*
G36*
G01*
X0502559Y0264075D02*
X0502559Y0270374D01*
G75*
G02*
X0503543Y0271358I0000984J0000000D01*
G01*
X0509843Y0271358D01*
G75*
G02*
X0510827Y0270374I0000000J-000984D01*
G01*
X0510827Y0264075D01*
G75*
G02*
X0509843Y0263091I-000984J0000000D01*
G01*
X0503543Y0263091D01*
G75*
G02*
X0502559Y0264075I0000000J0000984D01*
G01*
G37*
G36*
G01*
X0480118Y0264075D02*
X0480118Y0270374D01*
G75*
G02*
X0481102Y0271358I0000984J0000000D01*
G01*
X0487402Y0271358D01*
G75*
G02*
X0488386Y0270374I0000000J-000984D01*
G01*
X0488386Y0264075D01*
G75*
G02*
X0487402Y0263091I-000984J0000000D01*
G01*
X0481102Y0263091D01*
G75*
G02*
X0480118Y0264075I0000000J0000984D01*
G01*
G37*
G36*
G01*
X0457677Y0264075D02*
X0457677Y0270374D01*
G75*
G02*
X0458661Y0271358I0000984J0000000D01*
G01*
X0464961Y0271358D01*
G75*
G02*
X0465945Y0270374I0000000J-000984D01*
G01*
X0465945Y0264075D01*
G75*
G02*
X0464961Y0263091I-000984J0000000D01*
G01*
X0458661Y0263091D01*
G75*
G02*
X0457677Y0264075I0000000J0000984D01*
G01*
G37*
G36*
G01*
X0435236Y0264075D02*
X0435236Y0270374D01*
G75*
G02*
X0436220Y0271358I0000984J0000000D01*
G01*
X0442520Y0271358D01*
G75*
G02*
X0443504Y0270374I0000000J-000984D01*
G01*
X0443504Y0264075D01*
G75*
G02*
X0442520Y0263091I-000984J0000000D01*
G01*
X0436220Y0263091D01*
G75*
G02*
X0435236Y0264075I0000000J0000984D01*
G01*
G37*
G36*
G01*
X0412795Y0264075D02*
X0412795Y0270374D01*
G75*
G02*
X0413780Y0271358I0000984J0000000D01*
G01*
X0420079Y0271358D01*
G75*
G02*
X0421063Y0270374I0000000J-000984D01*
G01*
X0421063Y0264075D01*
G75*
G02*
X0420079Y0263091I-000984J0000000D01*
G01*
X0413780Y0263091D01*
G75*
G02*
X0412795Y0264075I0000000J0000984D01*
G01*
G37*
G36*
G01*
X0390354Y0264075D02*
X0390354Y0270374D01*
G75*
G02*
X0391339Y0271358I0000984J0000000D01*
G01*
X0397638Y0271358D01*
G75*
G02*
X0398622Y0270374I0000000J-000984D01*
G01*
X0398622Y0264075D01*
G75*
G02*
X0397638Y0263091I-000984J0000000D01*
G01*
X0391339Y0263091D01*
G75*
G02*
X0390354Y0264075I0000000J0000984D01*
G01*
G37*
G36*
G01*
X0367913Y0264075D02*
X0367913Y0270374D01*
G75*
G02*
X0368898Y0271358I0000984J0000000D01*
G01*
X0375197Y0271358D01*
G75*
G02*
X0376181Y0270374I0000000J-000984D01*
G01*
X0376181Y0264075D01*
G75*
G02*
X0375197Y0263091I-000984J0000000D01*
G01*
X0368898Y0263091D01*
G75*
G02*
X0367913Y0264075I0000000J0000984D01*
G01*
G37*
D14*
X0489370Y0206496D03*
X0489370Y0211221D03*
X0489370Y0201772D03*
X0489370Y0197047D03*
X0546161Y0222480D03*
X0546161Y0226417D03*
D49*
X0529035Y0176083D03*
D72*
X0477500Y0041752D03*
X0500256Y0041752D03*
D51*
X0471870Y0043721D03*
D52*
X0471870Y0027264D03*
D51*
X0505886Y0043721D03*
D52*
X0505886Y0027264D03*
D13*
X0574311Y0091339D03*
D49*
X0543917Y0176083D03*
D10*
X0446161Y0188288D03*
X0465453Y0188288D03*
X0493672Y0182510D03*
X0507313Y0168869D03*
G36*
G01*
X0099494Y0200955D02*
X0089777Y0195345D01*
G75*
G02*
X0088433Y0195705I-000492J0000852D01*
G01*
X0087006Y0198177D01*
G75*
G02*
X0087366Y0199522I0000852J0000492D01*
G01*
X0097083Y0205132D01*
G75*
G02*
X0098428Y0204772I0000492J-000852D01*
G01*
X0099855Y0202300D01*
G75*
G02*
X0099494Y0200955I-000852J-000492D01*
G01*
G37*
G36*
G01*
X0087831Y0221157D02*
X0078114Y0215547D01*
G75*
G02*
X0076769Y0215907I-000492J0000852D01*
G01*
X0075342Y0218379D01*
G75*
G02*
X0075702Y0219723I0000852J0000492D01*
G01*
X0085420Y0225334D01*
G75*
G02*
X0086764Y0224973I0000492J-000852D01*
G01*
X0088191Y0222502D01*
G75*
G02*
X0087831Y0221157I-000852J-000492D01*
G01*
G37*
G36*
G01*
X0134172Y0208384D02*
X0124455Y0202774D01*
G75*
G02*
X0123111Y0203134I-000492J0000852D01*
G01*
X0121683Y0205606D01*
G75*
G02*
X0122044Y0206951I0000852J0000492D01*
G01*
X0131761Y0212561D01*
G75*
G02*
X0133105Y0212201I0000492J-000852D01*
G01*
X0134533Y0209729D01*
G75*
G02*
X0134172Y0208384I-000852J-000492D01*
G01*
G37*
G36*
G01*
X0122509Y0228586D02*
X0112792Y0222976D01*
G75*
G02*
X0111447Y0223336I-000492J0000852D01*
G01*
X0110020Y0225808D01*
G75*
G02*
X0110380Y0227152I0000852J0000492D01*
G01*
X0120098Y0232762D01*
G75*
G02*
X0121442Y0232402I0000492J-000852D01*
G01*
X0122869Y0229930D01*
G75*
G02*
X0122509Y0228586I-000852J-000492D01*
G01*
G37*
G36*
G01*
X0053101Y0172831D02*
X0050442Y0171296D01*
G75*
G02*
X0050065Y0171397I-000138J0000239D01*
G01*
X0048963Y0173306D01*
G75*
G02*
X0049064Y0173682I0000239J0000138D01*
G01*
X0051723Y0175218D01*
G75*
G02*
X0052100Y0175117I0000138J-000239D01*
G01*
X0053202Y0173208D01*
G75*
G02*
X0053101Y0172831I-000239J-000138D01*
G01*
G37*
G36*
G01*
X0049952Y0178286D02*
X0047292Y0176751D01*
G75*
G02*
X0046916Y0176852I-000138J0000239D01*
G01*
X0045813Y0178761D01*
G75*
G02*
X0045914Y0179138I0000239J0000138D01*
G01*
X0048574Y0180673D01*
G75*
G02*
X0048950Y0180572I0000138J-000239D01*
G01*
X0050053Y0178663D01*
G75*
G02*
X0049952Y0178286I-000239J-000138D01*
G01*
G37*
G36*
G01*
X0206181Y0224744D02*
X0206181Y0220728D01*
G75*
G02*
X0205827Y0220374I-000354J0000000D01*
G01*
X0202992Y0220374D01*
G75*
G02*
X0202638Y0220728I0000000J0000354D01*
G01*
X0202638Y0224744D01*
G75*
G02*
X0202992Y0225099I0000354J0000000D01*
G01*
X0205827Y0225099D01*
G75*
G02*
X0206181Y0224744I0000000J-000354D01*
G01*
G37*
G36*
G01*
X0193189Y0224744D02*
X0193189Y0220728D01*
G75*
G02*
X0192835Y0220374I-000354J0000000D01*
G01*
X0190000Y0220374D01*
G75*
G02*
X0189646Y0220728I0000000J0000354D01*
G01*
X0189646Y0224744D01*
G75*
G02*
X0190000Y0225099I0000354J0000000D01*
G01*
X0192835Y0225099D01*
G75*
G02*
X0193189Y0224744I0000000J-000354D01*
G01*
G37*
G36*
G01*
X0212154Y0166175D02*
X0214994Y0163335D01*
G75*
G02*
X0214994Y0162834I-000251J-000251D01*
G01*
X0212989Y0160830D01*
G75*
G02*
X0212488Y0160830I-000251J0000251D01*
G01*
X0209649Y0163669D01*
G75*
G02*
X0209649Y0164171I0000251J0000251D01*
G01*
X0211653Y0166175D01*
G75*
G02*
X0212154Y0166175I0000251J-000251D01*
G01*
G37*
G36*
G01*
X0202967Y0156988D02*
X0205807Y0154149D01*
G75*
G02*
X0205807Y0153648I-000251J-000251D01*
G01*
X0203803Y0151643D01*
G75*
G02*
X0203301Y0151643I-000251J0000251D01*
G01*
X0200462Y0154483D01*
G75*
G02*
X0200462Y0154984I0000251J0000251D01*
G01*
X0202466Y0156988D01*
G75*
G02*
X0202967Y0156988I0000251J-000251D01*
G01*
G37*
G36*
G01*
X0256358Y0223622D02*
X0253287Y0223622D01*
G75*
G02*
X0253012Y0223898I0000000J0000276D01*
G01*
X0253012Y0226102D01*
G75*
G02*
X0253287Y0226378I0000276J0000000D01*
G01*
X0256358Y0226378D01*
G75*
G02*
X0256634Y0226102I0000000J-000276D01*
G01*
X0256634Y0223898D01*
G75*
G02*
X0256358Y0223622I-000276J0000000D01*
G01*
G37*
G36*
G01*
X0256358Y0229921D02*
X0253287Y0229921D01*
G75*
G02*
X0253012Y0230197I0000000J0000276D01*
G01*
X0253012Y0232402D01*
G75*
G02*
X0253287Y0232677I0000276J0000000D01*
G01*
X0256358Y0232677D01*
G75*
G02*
X0256634Y0232402I0000000J-000276D01*
G01*
X0256634Y0230197D01*
G75*
G02*
X0256358Y0229921I-000276J0000000D01*
G01*
G37*
G36*
G01*
X0120621Y0187595D02*
X0117962Y0186059D01*
G75*
G02*
X0117585Y0186160I-000138J0000239D01*
G01*
X0116483Y0188070D01*
G75*
G02*
X0116584Y0188446I0000239J0000138D01*
G01*
X0119243Y0189982D01*
G75*
G02*
X0119620Y0189881I0000138J-000239D01*
G01*
X0120722Y0187971D01*
G75*
G02*
X0120621Y0187595I-000239J-000138D01*
G01*
G37*
G36*
G01*
X0117471Y0193050D02*
X0114812Y0191515D01*
G75*
G02*
X0114436Y0191616I-000138J0000239D01*
G01*
X0113333Y0193525D01*
G75*
G02*
X0113434Y0193901I0000239J0000138D01*
G01*
X0116094Y0195437D01*
G75*
G02*
X0116470Y0195336I0000138J-000239D01*
G01*
X0117572Y0193427D01*
G75*
G02*
X0117471Y0193050I-000239J-000138D01*
G01*
G37*
G36*
G01*
X0068490Y0190419D02*
X0058773Y0184809D01*
G75*
G02*
X0057429Y0185169I-000492J0000852D01*
G01*
X0056002Y0187641D01*
G75*
G02*
X0056362Y0188986I0000852J0000492D01*
G01*
X0066079Y0194596D01*
G75*
G02*
X0067424Y0194236I0000492J-000852D01*
G01*
X0068851Y0191764D01*
G75*
G02*
X0068490Y0190419I-000852J-000492D01*
G01*
G37*
G36*
G01*
X0056827Y0210621D02*
X0047110Y0205011D01*
G75*
G02*
X0045765Y0205371I-000492J0000852D01*
G01*
X0044338Y0207843D01*
G75*
G02*
X0044698Y0209187I0000852J0000492D01*
G01*
X0054416Y0214798D01*
G75*
G02*
X0055760Y0214437I0000492J-000852D01*
G01*
X0057187Y0211965D01*
G75*
G02*
X0056827Y0210621I-000852J-000492D01*
G01*
G37*
G36*
G01*
X0256752Y0193307D02*
X0253681Y0193307D01*
G75*
G02*
X0253406Y0193583I0000000J0000276D01*
G01*
X0253406Y0195788D01*
G75*
G02*
X0253681Y0196063I0000276J0000000D01*
G01*
X0256752Y0196063D01*
G75*
G02*
X0257028Y0195788I0000000J-000276D01*
G01*
X0257028Y0193583D01*
G75*
G02*
X0256752Y0193307I-000276J0000000D01*
G01*
G37*
G36*
G01*
X0256752Y0199606D02*
X0253681Y0199606D01*
G75*
G02*
X0253406Y0199882I0000000J0000276D01*
G01*
X0253406Y0202087D01*
G75*
G02*
X0253681Y0202362I0000276J0000000D01*
G01*
X0256752Y0202362D01*
G75*
G02*
X0257028Y0202087I0000000J-000276D01*
G01*
X0257028Y0199882D01*
G75*
G02*
X0256752Y0199606I-000276J0000000D01*
G01*
G37*
G36*
G01*
X0214272Y0187343D02*
X0214272Y0183327D01*
G75*
G02*
X0213917Y0182973I-000354J0000000D01*
G01*
X0211083Y0182973D01*
G75*
G02*
X0210728Y0183327I0000000J0000354D01*
G01*
X0210728Y0187343D01*
G75*
G02*
X0211083Y0187697I0000354J0000000D01*
G01*
X0213917Y0187697D01*
G75*
G02*
X0214272Y0187343I0000000J-000354D01*
G01*
G37*
G36*
G01*
X0201280Y0187343D02*
X0201280Y0183327D01*
G75*
G02*
X0200925Y0182973I-000354J0000000D01*
G01*
X0198091Y0182973D01*
G75*
G02*
X0197736Y0183327I0000000J0000354D01*
G01*
X0197736Y0187343D01*
G75*
G02*
X0198091Y0187697I0000354J0000000D01*
G01*
X0200925Y0187697D01*
G75*
G02*
X0201280Y0187343I0000000J-000354D01*
G01*
G37*
G36*
G01*
X0175669Y0172677D02*
X0175669Y0168662D01*
G75*
G02*
X0175315Y0168307I-000354J0000000D01*
G01*
X0172480Y0168307D01*
G75*
G02*
X0172126Y0168662I0000000J0000354D01*
G01*
X0172126Y0172677D01*
G75*
G02*
X0172480Y0173032I0000354J0000000D01*
G01*
X0175315Y0173032D01*
G75*
G02*
X0175669Y0172677I0000000J-000354D01*
G01*
G37*
G36*
G01*
X0162677Y0172677D02*
X0162677Y0168662D01*
G75*
G02*
X0162323Y0168307I-000354J0000000D01*
G01*
X0159488Y0168307D01*
G75*
G02*
X0159134Y0168662I0000000J0000354D01*
G01*
X0159134Y0172677D01*
G75*
G02*
X0159488Y0173032I0000354J0000000D01*
G01*
X0162323Y0173032D01*
G75*
G02*
X0162677Y0172677I0000000J-000354D01*
G01*
G37*
G36*
G01*
X0020424Y0170272D02*
X0017765Y0168737D01*
G75*
G02*
X0017388Y0168838I-000138J0000239D01*
G01*
X0016286Y0170747D01*
G75*
G02*
X0016387Y0171123I0000239J0000138D01*
G01*
X0019046Y0172659D01*
G75*
G02*
X0019423Y0172558I0000138J-000239D01*
G01*
X0020525Y0170649D01*
G75*
G02*
X0020424Y0170272I-000239J-000138D01*
G01*
G37*
G36*
G01*
X0017275Y0175727D02*
X0014615Y0174192D01*
G75*
G02*
X0014239Y0174293I-000138J0000239D01*
G01*
X0013136Y0176202D01*
G75*
G02*
X0013237Y0176579I0000239J0000138D01*
G01*
X0015897Y0178114D01*
G75*
G02*
X0016273Y0178013I0000138J-000239D01*
G01*
X0017375Y0176104D01*
G75*
G02*
X0017275Y0175727I-000239J-000138D01*
G01*
G37*
G36*
G01*
X0035978Y0183975D02*
X0026261Y0178365D01*
G75*
G02*
X0024916Y0178725I-000492J0000852D01*
G01*
X0023489Y0181197D01*
G75*
G02*
X0023849Y0182541I0000852J0000492D01*
G01*
X0033567Y0188151D01*
G75*
G02*
X0034911Y0187791I0000492J-000852D01*
G01*
X0036338Y0185319D01*
G75*
G02*
X0035978Y0183975I-000852J-000492D01*
G01*
G37*
G36*
G01*
X0024315Y0204176D02*
X0014597Y0198566D01*
G75*
G02*
X0013253Y0198926I-000492J0000852D01*
G01*
X0011826Y0201398D01*
G75*
G02*
X0012186Y0202743I0000852J0000492D01*
G01*
X0021903Y0208353D01*
G75*
G02*
X0023248Y0207993I0000492J-000852D01*
G01*
X0024675Y0205521D01*
G75*
G02*
X0024315Y0204176I-000852J-000492D01*
G01*
G37*
G36*
G01*
X0085582Y0182083D02*
X0082922Y0180548D01*
G75*
G02*
X0082546Y0180649I-000138J0000239D01*
G01*
X0081443Y0182558D01*
G75*
G02*
X0081544Y0182934I0000239J0000138D01*
G01*
X0084204Y0184470D01*
G75*
G02*
X0084580Y0184369I0000138J-000239D01*
G01*
X0085683Y0182460D01*
G75*
G02*
X0085582Y0182083I-000239J-000138D01*
G01*
G37*
G36*
G01*
X0082432Y0187538D02*
X0079773Y0186003D01*
G75*
G02*
X0079396Y0186104I-000138J0000239D01*
G01*
X0078294Y0188013D01*
G75*
G02*
X0078395Y0188390I0000239J0000138D01*
G01*
X0081054Y0189925D01*
G75*
G02*
X0081431Y0189824I0000138J-000239D01*
G01*
X0082533Y0187915D01*
G75*
G02*
X0082432Y0187538I-000239J-000138D01*
G01*
G37*
X0449803Y0156291D02*
G01*
G75*
D366*
X0526181Y0126376D02*
D03*
X0526181Y0139368D02*
D03*
D367*
X0526575Y0106516D02*
D03*
X0526575Y0117933D02*
D03*
X0518543Y0106516D02*
D03*
X0518543Y0117933D02*
D03*
D370*
X0504527Y0143889D02*
D03*
X0508464Y0143889D02*
D03*
X0519094Y0147236D02*
D03*
X0519094Y0138574D02*
D03*
X0513846Y0148023D02*
D03*
X0513846Y0139362D02*
D03*
D371*
X0461220Y0136136D02*
D03*
X0461220Y0139680D02*
D03*
X0497953Y0126745D02*
D03*
X0497953Y0123201D02*
D03*
X0513058Y0134742D02*
D03*
X0513058Y0131199D02*
D03*
X0461220Y0127518D02*
D03*
X0461220Y0131061D02*
D03*
X0465157Y0148023D02*
D03*
X0465157Y0144480D02*
D03*
D372*
X0514633Y0122538D02*
D03*
X0518177Y0122538D02*
D03*
X0527035Y0143305D02*
D03*
X0523491Y0143305D02*
D03*
X0468718Y0094541D02*
D03*
X0472262Y0094541D02*
D03*
D132*
X0467913Y0090543D02*
D03*
X0463976Y0090543D02*
D03*
D133*
X0521456Y0153338D02*
D03*
X0454527Y0153338D02*
D03*
X0501968Y0153338D02*
D03*
X0501771Y0092315D02*
D03*
X0526968Y0092315D02*
D03*
X0477362Y0092315D02*
D03*
X0494291Y0092315D02*
D03*
X0452756Y0092315D02*
D03*
X0528740Y0153338D02*
D03*
D378*
X0506102Y0107078D02*
D03*
X0506102Y0118102D02*
D03*
D379*
X0501779Y0139756D02*
D03*
X0507999Y0139756D02*
D03*
X0501779Y0125662D02*
D03*
X0507999Y0125662D02*
D03*
X0501779Y0130353D02*
D03*
X0507999Y0130353D02*
D03*
X0501779Y0135045D02*
D03*
X0507999Y0135045D02*
D03*
X0514023Y0126843D02*
D03*
X0520244Y0126843D02*
D03*
D380*
X0465157Y0136333D02*
D03*
X0465157Y0140270D02*
D03*
X0465157Y0131652D02*
D03*
X0465157Y0127715D02*
D03*
X0519094Y0134939D02*
D03*
X0519094Y0131002D02*
D03*
X0497480Y0112006D02*
D03*
X0497480Y0108069D02*
D03*
X0460039Y0104230D02*
D03*
X0460039Y0108168D02*
D03*
D308*
X0471917Y0131219D02*
D03*
X0471917Y0136219D02*
D03*
X0471917Y0141219D02*
D03*
X0471917Y0146219D02*
D03*
X0494554Y0131219D02*
D03*
X0494554Y0136219D02*
D03*
X0494554Y0141219D02*
D03*
X0494554Y0146219D02*
D03*
X0466634Y0108152D02*
D03*
X0466634Y0113152D02*
D03*
X0466634Y0118152D02*
D03*
X0466634Y0123152D02*
D03*
X0490059Y0108152D02*
D03*
X0490059Y0113152D02*
D03*
X0490059Y0118152D02*
D03*
X0490059Y0123152D02*
D03*
D381*
X0483235Y0138719D02*
D03*
D382*
X0478346Y0115652D02*
D03*
X0625984Y0083457D02*
G01*
G75*
D132*
X0615748Y0118890D02*
D03*
X0619488Y0118890D02*
D03*
X0623228Y0118890D02*
D03*
X0619291Y0084638D02*
D03*
X0615748Y0084638D02*
D03*
D307*
X0615748Y0111410D02*
D03*
X0615748Y0115347D02*
D03*
X0615748Y0100287D02*
D03*
X0615748Y0096350D02*
D03*
X0615748Y0091921D02*
D03*
X0615748Y0087984D02*
D03*
X0623031Y0111410D02*
D03*
X0623031Y0115347D02*
D03*
D298*
X0623228Y0108025D02*
D03*
X0619685Y0108025D02*
D03*
D306*
X0616515Y0104140D02*
D03*
X0622736Y0104140D02*
D03*
D297*
X0619685Y0091528D02*
D03*
X0619685Y0087985D02*
D03*
X0623228Y0099894D02*
D03*
X0623228Y0096351D02*
D03*
X0619627Y0114756D02*
D03*
X0619627Y0111213D02*
D03*
X0623228Y0087985D02*
D03*
X0623228Y0091528D02*
D03*
X0338780Y0276764D02*
%LPD*%
G01*
D14*
X0280512Y0249599D03*
X0280512Y0254323D03*
X0280512Y0244874D03*
X0280512Y0240150D03*
X0337304Y0265583D03*
X0337304Y0269520D03*
G36*
G01*
X0321851Y0246170D02*
X0321851Y0247351D01*
G75*
G02*
X0322441Y0247942I0000591J0000000D01*
G01*
X0326477Y0247942D01*
G75*
G02*
X0327067Y0247351I0000000J-000591D01*
G01*
X0327067Y0246170D01*
G75*
G02*
X0326477Y0245580I-000591J0000000D01*
G01*
X0322441Y0245580D01*
G75*
G02*
X0321851Y0246170I0000000J0000591D01*
G01*
G37*
G36*
G01*
X0321851Y0249911D02*
X0321851Y0251092D01*
G75*
G02*
X0322441Y0251682I0000591J0000000D01*
G01*
X0326477Y0251682D01*
G75*
G02*
X0327067Y0251092I0000000J-000591D01*
G01*
X0327067Y0249911D01*
G75*
G02*
X0326477Y0249320I-000591J0000000D01*
G01*
X0322441Y0249320D01*
G75*
G02*
X0321851Y0249911I0000000J0000591D01*
G01*
G37*
G36*
G01*
X0321851Y0253651D02*
X0321851Y0254832D01*
G75*
G02*
X0322441Y0255422I0000591J0000000D01*
G01*
X0326477Y0255422D01*
G75*
G02*
X0327067Y0254832I0000000J-000591D01*
G01*
X0327067Y0253651D01*
G75*
G02*
X0326477Y0253060I-000591J0000000D01*
G01*
X0322441Y0253060D01*
G75*
G02*
X0321851Y0253651I0000000J0000591D01*
G01*
G37*
G36*
G01*
X0330808Y0253651D02*
X0330808Y0254832D01*
G75*
G02*
X0331398Y0255422I0000591J0000000D01*
G01*
X0335434Y0255422D01*
G75*
G02*
X0336024Y0254832I0000000J-000591D01*
G01*
X0336024Y0253651D01*
G75*
G02*
X0335434Y0253060I-000591J0000000D01*
G01*
X0331398Y0253060D01*
G75*
G02*
X0330808Y0253651I0000000J0000591D01*
G01*
G37*
G36*
G01*
X0330808Y0246170D02*
X0330808Y0247351D01*
G75*
G02*
X0331398Y0247942I0000591J0000000D01*
G01*
X0335434Y0247942D01*
G75*
G02*
X0336024Y0247351I0000000J-000591D01*
G01*
X0336024Y0246170D01*
G75*
G02*
X0335434Y0245580I-000591J0000000D01*
G01*
X0331398Y0245580D01*
G75*
G02*
X0330808Y0246170I0000000J0000591D01*
G01*
G37*
G36*
G01*
X0322126Y0268457D02*
X0320788Y0268457D01*
G75*
G02*
X0320237Y0269008I0000000J0000551D01*
G01*
X0320237Y0270110D01*
G75*
G02*
X0320788Y0270662I0000551J0000000D01*
G01*
X0322126Y0270662D01*
G75*
G02*
X0322678Y0270110I0000000J-000551D01*
G01*
X0322678Y0269008D01*
G75*
G02*
X0322126Y0268457I-000551J0000000D01*
G01*
G37*
G36*
G01*
X0322126Y0272236D02*
X0320788Y0272236D01*
G75*
G02*
X0320237Y0272788I0000000J0000551D01*
G01*
X0320237Y0273890D01*
G75*
G02*
X0320788Y0274441I0000551J0000000D01*
G01*
X0322126Y0274441D01*
G75*
G02*
X0322678Y0273890I0000000J-000551D01*
G01*
X0322678Y0272788D01*
G75*
G02*
X0322126Y0272236I-000551J0000000D01*
G01*
G37*
G36*
G01*
X0295611Y0245740D02*
X0295611Y0244402D01*
G75*
G02*
X0295060Y0243851I-000551J0000000D01*
G01*
X0293957Y0243851D01*
G75*
G02*
X0293406Y0244402I0000000J0000551D01*
G01*
X0293406Y0245740D01*
G75*
G02*
X0293957Y0246292I0000551J0000000D01*
G01*
X0295060Y0246292D01*
G75*
G02*
X0295611Y0245740I0000000J-000551D01*
G01*
G37*
G36*
G01*
X0291831Y0245740D02*
X0291831Y0244402D01*
G75*
G02*
X0291280Y0243851I-000551J0000000D01*
G01*
X0290178Y0243851D01*
G75*
G02*
X0289626Y0244402I0000000J0000551D01*
G01*
X0289626Y0245740D01*
G75*
G02*
X0290178Y0246292I0000551J0000000D01*
G01*
X0291280Y0246292D01*
G75*
G02*
X0291831Y0245740I0000000J-000551D01*
G01*
G37*
G36*
G01*
X0282264Y0240740D02*
X0282264Y0242079D01*
G75*
G02*
X0282815Y0242630I0000551J0000000D01*
G01*
X0283918Y0242630D01*
G75*
G02*
X0284469Y0242079I0000000J-000551D01*
G01*
X0284469Y0240740D01*
G75*
G02*
X0283918Y0240189I-000551J0000000D01*
G01*
X0282815Y0240189D01*
G75*
G02*
X0282264Y0240740I0000000J0000551D01*
G01*
G37*
G36*
G01*
X0286044Y0240740D02*
X0286044Y0242079D01*
G75*
G02*
X0286595Y0242630I0000551J0000000D01*
G01*
X0287697Y0242630D01*
G75*
G02*
X0288249Y0242079I0000000J-000551D01*
G01*
X0288249Y0240740D01*
G75*
G02*
X0287697Y0240189I-000551J0000000D01*
G01*
X0286595Y0240189D01*
G75*
G02*
X0286044Y0240740I0000000J0000551D01*
G01*
G37*
G36*
G01*
X0304016Y0249481D02*
X0304016Y0248142D01*
G75*
G02*
X0303465Y0247591I-000551J0000000D01*
G01*
X0302363Y0247591D01*
G75*
G02*
X0301811Y0248142I0000000J0000551D01*
G01*
X0301811Y0249481D01*
G75*
G02*
X0302363Y0250032I0000551J0000000D01*
G01*
X0303465Y0250032D01*
G75*
G02*
X0304016Y0249481I0000000J-000551D01*
G01*
G37*
G36*
G01*
X0300237Y0249481D02*
X0300237Y0248142D01*
G75*
G02*
X0299686Y0247591I-000551J0000000D01*
G01*
X0298583Y0247591D01*
G75*
G02*
X0298032Y0248142I0000000J0000551D01*
G01*
X0298032Y0249481D01*
G75*
G02*
X0298583Y0250032I0000551J0000000D01*
G01*
X0299686Y0250032D01*
G75*
G02*
X0300237Y0249481I0000000J-000551D01*
G01*
G37*
G36*
G01*
X0282461Y0244402D02*
X0282461Y0245740D01*
G75*
G02*
X0283012Y0246292I0000551J0000000D01*
G01*
X0284115Y0246292D01*
G75*
G02*
X0284666Y0245740I0000000J-000551D01*
G01*
X0284666Y0244402D01*
G75*
G02*
X0284115Y0243851I-000551J0000000D01*
G01*
X0283012Y0243851D01*
G75*
G02*
X0282461Y0244402I0000000J0000551D01*
G01*
G37*
G36*
G01*
X0286241Y0244402D02*
X0286241Y0245740D01*
G75*
G02*
X0286792Y0246292I0000551J0000000D01*
G01*
X0287894Y0246292D01*
G75*
G02*
X0288445Y0245740I0000000J-000551D01*
G01*
X0288445Y0244402D01*
G75*
G02*
X0287894Y0243851I-000551J0000000D01*
G01*
X0286792Y0243851D01*
G75*
G02*
X0286241Y0244402I0000000J0000551D01*
G01*
G37*
G36*
G01*
X0287737Y0265918D02*
X0287737Y0264579D01*
G75*
G02*
X0287186Y0264028I-000551J0000000D01*
G01*
X0286083Y0264028D01*
G75*
G02*
X0285532Y0264579I0000000J0000551D01*
G01*
X0285532Y0265918D01*
G75*
G02*
X0286083Y0266469I0000551J0000000D01*
G01*
X0287186Y0266469D01*
G75*
G02*
X0287737Y0265918I0000000J-000551D01*
G01*
G37*
G36*
G01*
X0283957Y0265918D02*
X0283957Y0264579D01*
G75*
G02*
X0283406Y0264028I-000551J0000000D01*
G01*
X0282304Y0264028D01*
G75*
G02*
X0281752Y0264579I0000000J0000551D01*
G01*
X0281752Y0265918D01*
G75*
G02*
X0282304Y0266469I0000551J0000000D01*
G01*
X0283406Y0266469D01*
G75*
G02*
X0283957Y0265918I0000000J-000551D01*
G01*
G37*
G36*
G01*
X0318246Y0273418D02*
X0318246Y0272630D01*
G75*
G02*
X0317852Y0272236I-000394J0000000D01*
G01*
X0312832Y0272236D01*
G75*
G02*
X0312439Y0272630I0000000J0000394D01*
G01*
X0312439Y0273418D01*
G75*
G02*
X0312832Y0273811I0000394J0000000D01*
G01*
X0317852Y0273811D01*
G75*
G02*
X0318246Y0273418I0000000J-000394D01*
G01*
G37*
G36*
G01*
X0318246Y0270858D02*
X0318246Y0270071D01*
G75*
G02*
X0317852Y0269677I-000394J0000000D01*
G01*
X0312832Y0269677D01*
G75*
G02*
X0312439Y0270071I0000000J0000394D01*
G01*
X0312439Y0270858D01*
G75*
G02*
X0312832Y0271252I0000394J0000000D01*
G01*
X0317852Y0271252D01*
G75*
G02*
X0318246Y0270858I0000000J-000394D01*
G01*
G37*
G36*
G01*
X0318246Y0268299D02*
X0318246Y0267512D01*
G75*
G02*
X0317852Y0267118I-000394J0000000D01*
G01*
X0312832Y0267118D01*
G75*
G02*
X0312439Y0267512I0000000J0000394D01*
G01*
X0312439Y0268299D01*
G75*
G02*
X0312832Y0268693I0000394J0000000D01*
G01*
X0317852Y0268693D01*
G75*
G02*
X0318246Y0268299I0000000J-000394D01*
G01*
G37*
G36*
G01*
X0318246Y0265740D02*
X0318246Y0264953D01*
G75*
G02*
X0317852Y0264559I-000394J0000000D01*
G01*
X0312832Y0264559D01*
G75*
G02*
X0312439Y0264953I0000000J0000394D01*
G01*
X0312439Y0265740D01*
G75*
G02*
X0312832Y0266134I0000394J0000000D01*
G01*
X0317852Y0266134D01*
G75*
G02*
X0318246Y0265740I0000000J-000394D01*
G01*
G37*
G36*
G01*
X0318246Y0263181D02*
X0318246Y0262394D01*
G75*
G02*
X0317852Y0262000I-000394J0000000D01*
G01*
X0312832Y0262000D01*
G75*
G02*
X0312439Y0262394I0000000J0000394D01*
G01*
X0312439Y0263181D01*
G75*
G02*
X0312832Y0263575I0000394J0000000D01*
G01*
X0317852Y0263575D01*
G75*
G02*
X0318246Y0263181I0000000J-000394D01*
G01*
G37*
G36*
G01*
X0318246Y0260622D02*
X0318246Y0259835D01*
G75*
G02*
X0317852Y0259441I-000394J0000000D01*
G01*
X0312832Y0259441D01*
G75*
G02*
X0312439Y0259835I0000000J0000394D01*
G01*
X0312439Y0260622D01*
G75*
G02*
X0312832Y0261016I0000394J0000000D01*
G01*
X0317852Y0261016D01*
G75*
G02*
X0318246Y0260622I0000000J-000394D01*
G01*
G37*
G36*
G01*
X0318246Y0258063D02*
X0318246Y0257276D01*
G75*
G02*
X0317852Y0256882I-000394J0000000D01*
G01*
X0312832Y0256882D01*
G75*
G02*
X0312439Y0257276I0000000J0000394D01*
G01*
X0312439Y0258063D01*
G75*
G02*
X0312832Y0258457I0000394J0000000D01*
G01*
X0317852Y0258457D01*
G75*
G02*
X0318246Y0258063I0000000J-000394D01*
G01*
G37*
G36*
G01*
X0295706Y0258063D02*
X0295706Y0257276D01*
G75*
G02*
X0295313Y0256882I-000394J0000000D01*
G01*
X0290293Y0256882D01*
G75*
G02*
X0289899Y0257276I0000000J0000394D01*
G01*
X0289899Y0258063D01*
G75*
G02*
X0290293Y0258457I0000394J0000000D01*
G01*
X0295313Y0258457D01*
G75*
G02*
X0295706Y0258063I0000000J-000394D01*
G01*
G37*
G36*
G01*
X0295706Y0260622D02*
X0295706Y0259835D01*
G75*
G02*
X0295313Y0259441I-000394J0000000D01*
G01*
X0290293Y0259441D01*
G75*
G02*
X0289899Y0259835I0000000J0000394D01*
G01*
X0289899Y0260622D01*
G75*
G02*
X0290293Y0261016I0000394J0000000D01*
G01*
X0295313Y0261016D01*
G75*
G02*
X0295706Y0260622I0000000J-000394D01*
G01*
G37*
G36*
G01*
X0295706Y0263181D02*
X0295706Y0262394D01*
G75*
G02*
X0295313Y0262000I-000394J0000000D01*
G01*
X0290293Y0262000D01*
G75*
G02*
X0289899Y0262394I0000000J0000394D01*
G01*
X0289899Y0263181D01*
G75*
G02*
X0290293Y0263575I0000394J0000000D01*
G01*
X0295313Y0263575D01*
G75*
G02*
X0295706Y0263181I0000000J-000394D01*
G01*
G37*
G36*
G01*
X0295706Y0265740D02*
X0295706Y0264953D01*
G75*
G02*
X0295313Y0264559I-000394J0000000D01*
G01*
X0290293Y0264559D01*
G75*
G02*
X0289899Y0264953I0000000J0000394D01*
G01*
X0289899Y0265740D01*
G75*
G02*
X0290293Y0266134I0000394J0000000D01*
G01*
X0295313Y0266134D01*
G75*
G02*
X0295706Y0265740I0000000J-000394D01*
G01*
G37*
G36*
G01*
X0295706Y0268299D02*
X0295706Y0267512D01*
G75*
G02*
X0295313Y0267118I-000394J0000000D01*
G01*
X0290293Y0267118D01*
G75*
G02*
X0289899Y0267512I0000000J0000394D01*
G01*
X0289899Y0268299D01*
G75*
G02*
X0290293Y0268693I0000394J0000000D01*
G01*
X0295313Y0268693D01*
G75*
G02*
X0295706Y0268299I0000000J-000394D01*
G01*
G37*
G36*
G01*
X0295706Y0270858D02*
X0295706Y0270071D01*
G75*
G02*
X0295313Y0269677I-000394J0000000D01*
G01*
X0290293Y0269677D01*
G75*
G02*
X0289899Y0270071I0000000J0000394D01*
G01*
X0289899Y0270858D01*
G75*
G02*
X0290293Y0271252I0000394J0000000D01*
G01*
X0295313Y0271252D01*
G75*
G02*
X0295706Y0270858I0000000J-000394D01*
G01*
G37*
G36*
G01*
X0295706Y0273418D02*
X0295706Y0272630D01*
G75*
G02*
X0295313Y0272236I-000394J0000000D01*
G01*
X0290293Y0272236D01*
G75*
G02*
X0289899Y0272630I0000000J0000394D01*
G01*
X0289899Y0273418D01*
G75*
G02*
X0290293Y0273811I0000394J0000000D01*
G01*
X0295313Y0273811D01*
G75*
G02*
X0295706Y0273418I0000000J-000394D01*
G01*
G37*
G36*
G01*
X0335889Y0265547D02*
X0335889Y0262004D01*
G75*
G02*
X0334905Y0261020I-000984J0000000D01*
G01*
X0332838Y0261020D01*
G75*
G02*
X0331854Y0262004I0000000J0000984D01*
G01*
X0331854Y0265547D01*
G75*
G02*
X0332838Y0266532I0000984J0000000D01*
G01*
X0334905Y0266532D01*
G75*
G02*
X0335889Y0265547I0000000J-000984D01*
G01*
G37*
G36*
G01*
X0328704Y0265547D02*
X0328704Y0262004D01*
G75*
G02*
X0327720Y0261020I-000984J0000000D01*
G01*
X0325653Y0261020D01*
G75*
G02*
X0324669Y0262004I0000000J0000984D01*
G01*
X0324669Y0265547D01*
G75*
G02*
X0325653Y0266532I0000984J0000000D01*
G01*
X0327720Y0266532D01*
G75*
G02*
X0328704Y0265547I0000000J-000984D01*
G01*
G37*
G36*
G01*
X0289646Y0251823D02*
X0289646Y0253280D01*
G75*
G02*
X0290178Y0253811I0000531J0000000D01*
G01*
X0291241Y0253811D01*
G75*
G02*
X0291772Y0253280I0000000J-000531D01*
G01*
X0291772Y0251823D01*
G75*
G02*
X0291241Y0251292I-000531J0000000D01*
G01*
X0290178Y0251292D01*
G75*
G02*
X0289646Y0251823I0000000J0000531D01*
G01*
G37*
G36*
G01*
X0293662Y0251823D02*
X0293662Y0253280D01*
G75*
G02*
X0294193Y0253811I0000531J0000000D01*
G01*
X0295256Y0253811D01*
G75*
G02*
X0295788Y0253280I0000000J-000531D01*
G01*
X0295788Y0251823D01*
G75*
G02*
X0295256Y0251292I-000531J0000000D01*
G01*
X0294193Y0251292D01*
G75*
G02*
X0293662Y0251823I0000000J0000531D01*
G01*
G37*
G36*
G01*
X0330079Y0240898D02*
X0330079Y0242236D01*
G75*
G02*
X0330630Y0242788I0000551J0000000D01*
G01*
X0331733Y0242788D01*
G75*
G02*
X0332284Y0242236I0000000J-000551D01*
G01*
X0332284Y0240898D01*
G75*
G02*
X0331733Y0240347I-000551J0000000D01*
G01*
X0330630Y0240347D01*
G75*
G02*
X0330079Y0240898I0000000J0000551D01*
G01*
G37*
G36*
G01*
X0333859Y0240898D02*
X0333859Y0242236D01*
G75*
G02*
X0334410Y0242788I0000551J0000000D01*
G01*
X0335512Y0242788D01*
G75*
G02*
X0336063Y0242236I0000000J-000551D01*
G01*
X0336063Y0240898D01*
G75*
G02*
X0335512Y0240347I-000551J0000000D01*
G01*
X0334410Y0240347D01*
G75*
G02*
X0333859Y0240898I0000000J0000551D01*
G01*
G37*
G36*
G01*
X0281969Y0248083D02*
X0281969Y0249540D01*
G75*
G02*
X0282500Y0250071I0000531J0000000D01*
G01*
X0283563Y0250071D01*
G75*
G02*
X0284095Y0249540I0000000J-000531D01*
G01*
X0284095Y0248083D01*
G75*
G02*
X0283563Y0247551I-000531J0000000D01*
G01*
X0282500Y0247551D01*
G75*
G02*
X0281969Y0248083I0000000J0000531D01*
G01*
G37*
G36*
G01*
X0285985Y0248083D02*
X0285985Y0249540D01*
G75*
G02*
X0286516Y0250071I0000531J0000000D01*
G01*
X0287579Y0250071D01*
G75*
G02*
X0288111Y0249540I0000000J-000531D01*
G01*
X0288111Y0248083D01*
G75*
G02*
X0287579Y0247551I-000531J0000000D01*
G01*
X0286516Y0247551D01*
G75*
G02*
X0285985Y0248083I0000000J0000531D01*
G01*
G37*
G36*
G01*
X0297902Y0251823D02*
X0297902Y0253279D01*
G75*
G02*
X0298434Y0253811I0000531J0000000D01*
G01*
X0299497Y0253811D01*
G75*
G02*
X0300028Y0253279I0000000J-000531D01*
G01*
X0300028Y0251823D01*
G75*
G02*
X0299497Y0251291I-000531J0000000D01*
G01*
X0298434Y0251291D01*
G75*
G02*
X0297902Y0251823I0000000J0000531D01*
G01*
G37*
G36*
G01*
X0301918Y0251823D02*
X0301918Y0253279D01*
G75*
G02*
X0302450Y0253811I0000531J0000000D01*
G01*
X0303513Y0253811D01*
G75*
G02*
X0304044Y0253279I0000000J-000531D01*
G01*
X0304044Y0251823D01*
G75*
G02*
X0303513Y0251291I-000531J0000000D01*
G01*
X0302450Y0251291D01*
G75*
G02*
X0301918Y0251823I0000000J0000531D01*
G01*
G37*
G36*
G01*
X0324669Y0269579D02*
X0324669Y0273122D01*
G75*
G02*
X0325653Y0274107I0000984J0000000D01*
G01*
X0327720Y0274107D01*
G75*
G02*
X0328704Y0273122I0000000J-000984D01*
G01*
X0328704Y0269579D01*
G75*
G02*
X0327720Y0268595I-000984J0000000D01*
G01*
X0325653Y0268595D01*
G75*
G02*
X0324669Y0269579I0000000J0000984D01*
G01*
G37*
G36*
G01*
X0331854Y0269579D02*
X0331854Y0273122D01*
G75*
G02*
X0332838Y0274107I0000984J0000000D01*
G01*
X0334905Y0274107D01*
G75*
G02*
X0335889Y0273122I0000000J-000984D01*
G01*
X0335889Y0269579D01*
G75*
G02*
X0334905Y0268595I-000984J0000000D01*
G01*
X0332838Y0268595D01*
G75*
G02*
X0331854Y0269579I0000000J0000984D01*
G01*
G37*
G36*
G01*
X0297953Y0240681D02*
X0297953Y0242138D01*
G75*
G02*
X0298485Y0242670I0000531J0000000D01*
G01*
X0299548Y0242670D01*
G75*
G02*
X0300079Y0242138I0000000J-000531D01*
G01*
X0300079Y0240681D01*
G75*
G02*
X0299548Y0240150I-000531J0000000D01*
G01*
X0298485Y0240150D01*
G75*
G02*
X0297953Y0240681I0000000J0000531D01*
G01*
G37*
G36*
G01*
X0301969Y0240681D02*
X0301969Y0242138D01*
G75*
G02*
X0302500Y0242670I0000531J0000000D01*
G01*
X0303563Y0242670D01*
G75*
G02*
X0304095Y0242138I0000000J-000531D01*
G01*
X0304095Y0240681D01*
G75*
G02*
X0303563Y0240150I-000531J0000000D01*
G01*
X0302500Y0240150D01*
G75*
G02*
X0301969Y0240681I0000000J0000531D01*
G01*
G37*
G36*
G01*
X0288268Y0274185D02*
X0288268Y0272729D01*
G75*
G02*
X0287737Y0272197I-000531J0000000D01*
G01*
X0286674Y0272197D01*
G75*
G02*
X0286142Y0272729I0000000J0000531D01*
G01*
X0286142Y0274185D01*
G75*
G02*
X0286674Y0274717I0000531J0000000D01*
G01*
X0287737Y0274717D01*
G75*
G02*
X0288268Y0274185I0000000J-000531D01*
G01*
G37*
G36*
G01*
X0284252Y0274185D02*
X0284252Y0272729D01*
G75*
G02*
X0283721Y0272197I-000531J0000000D01*
G01*
X0282658Y0272197D01*
G75*
G02*
X0282126Y0272729I0000000J0000531D01*
G01*
X0282126Y0274185D01*
G75*
G02*
X0282658Y0274717I0000531J0000000D01*
G01*
X0283721Y0274717D01*
G75*
G02*
X0284252Y0274185I0000000J-000531D01*
G01*
G37*
G36*
G01*
X0287815Y0262236D02*
X0287815Y0260780D01*
G75*
G02*
X0287284Y0260248I-000531J0000000D01*
G01*
X0286221Y0260248D01*
G75*
G02*
X0285689Y0260780I0000000J0000531D01*
G01*
X0285689Y0262236D01*
G75*
G02*
X0286221Y0262768I0000531J0000000D01*
G01*
X0287284Y0262768D01*
G75*
G02*
X0287815Y0262236I0000000J-000531D01*
G01*
G37*
G36*
G01*
X0283800Y0262236D02*
X0283800Y0260780D01*
G75*
G02*
X0283268Y0260248I-000531J0000000D01*
G01*
X0282205Y0260248D01*
G75*
G02*
X0281674Y0260780I0000000J0000531D01*
G01*
X0281674Y0262236D01*
G75*
G02*
X0282205Y0262768I0000531J0000000D01*
G01*
X0283268Y0262768D01*
G75*
G02*
X0283800Y0262236I0000000J-000531D01*
G01*
G37*
G36*
G01*
X0289351Y0248083D02*
X0289351Y0249540D01*
G75*
G02*
X0289882Y0250071I0000531J0000000D01*
G01*
X0290945Y0250071D01*
G75*
G02*
X0291477Y0249540I0000000J-000531D01*
G01*
X0291477Y0248083D01*
G75*
G02*
X0290945Y0247551I-000531J0000000D01*
G01*
X0289882Y0247551D01*
G75*
G02*
X0289351Y0248083I0000000J0000531D01*
G01*
G37*
G36*
G01*
X0293367Y0248083D02*
X0293367Y0249540D01*
G75*
G02*
X0293898Y0250071I0000531J0000000D01*
G01*
X0294961Y0250071D01*
G75*
G02*
X0295493Y0249540I0000000J-000531D01*
G01*
X0295493Y0248083D01*
G75*
G02*
X0294961Y0247551I-000531J0000000D01*
G01*
X0293898Y0247551D01*
G75*
G02*
X0293367Y0248083I0000000J0000531D01*
G01*
G37*
G36*
G01*
X0281654Y0257000D02*
X0281654Y0258339D01*
G75*
G02*
X0282205Y0258890I0000551J0000000D01*
G01*
X0283308Y0258890D01*
G75*
G02*
X0283859Y0258339I0000000J-000551D01*
G01*
X0283859Y0257000D01*
G75*
G02*
X0283308Y0256449I-000551J0000000D01*
G01*
X0282205Y0256449D01*
G75*
G02*
X0281654Y0257000I0000000J0000551D01*
G01*
G37*
G36*
G01*
X0285434Y0257000D02*
X0285434Y0258339D01*
G75*
G02*
X0285985Y0258890I0000551J0000000D01*
G01*
X0287087Y0258890D01*
G75*
G02*
X0287638Y0258339I0000000J-000551D01*
G01*
X0287638Y0257000D01*
G75*
G02*
X0287087Y0256449I-000551J0000000D01*
G01*
X0285985Y0256449D01*
G75*
G02*
X0285434Y0257000I0000000J0000551D01*
G01*
G37*
G36*
G01*
X0320802Y0267215D02*
X0322140Y0267215D01*
G75*
G02*
X0322692Y0266664I0000000J-000551D01*
G01*
X0322692Y0265562D01*
G75*
G02*
X0322140Y0265010I-000551J0000000D01*
G01*
X0320802Y0265010D01*
G75*
G02*
X0320251Y0265562I0000000J0000551D01*
G01*
X0320251Y0266664D01*
G75*
G02*
X0320802Y0267215I0000551J0000000D01*
G01*
G37*
G36*
G01*
X0320802Y0263436D02*
X0322140Y0263436D01*
G75*
G02*
X0322692Y0262885I0000000J-000551D01*
G01*
X0322692Y0261782D01*
G75*
G02*
X0322140Y0261231I-000551J0000000D01*
G01*
X0320802Y0261231D01*
G75*
G02*
X0320251Y0261782I0000000J0000551D01*
G01*
X0320251Y0262885D01*
G75*
G02*
X0320802Y0263436I0000551J0000000D01*
G01*
G37*
G36*
G01*
X0288308Y0253280D02*
X0288308Y0251823D01*
G75*
G02*
X0287776Y0251292I-000531J0000000D01*
G01*
X0286713Y0251292D01*
G75*
G02*
X0286182Y0251823I0000000J0000531D01*
G01*
X0286182Y0253280D01*
G75*
G02*
X0286713Y0253811I0000531J0000000D01*
G01*
X0287776Y0253811D01*
G75*
G02*
X0288308Y0253280I0000000J-000531D01*
G01*
G37*
G36*
G01*
X0284292Y0253280D02*
X0284292Y0251823D01*
G75*
G02*
X0283760Y0251292I-000531J0000000D01*
G01*
X0282697Y0251292D01*
G75*
G02*
X0282166Y0251823I0000000J0000531D01*
G01*
X0282166Y0253280D01*
G75*
G02*
X0282697Y0253811I0000531J0000000D01*
G01*
X0283760Y0253811D01*
G75*
G02*
X0284292Y0253280I0000000J-000531D01*
G01*
G37*
G36*
G01*
X0305709Y0241921D02*
X0305709Y0243103D01*
G75*
G02*
X0306300Y0243693I0000591J0000000D01*
G01*
X0310335Y0243693D01*
G75*
G02*
X0310926Y0243103I0000000J-000591D01*
G01*
X0310926Y0241921D01*
G75*
G02*
X0310335Y0241331I-000591J0000000D01*
G01*
X0306300Y0241331D01*
G75*
G02*
X0305709Y0241921I0000000J0000591D01*
G01*
G37*
G36*
G01*
X0305709Y0245662D02*
X0305709Y0246843D01*
G75*
G02*
X0306300Y0247433I0000591J0000000D01*
G01*
X0310335Y0247433D01*
G75*
G02*
X0310926Y0246843I0000000J-000591D01*
G01*
X0310926Y0245662D01*
G75*
G02*
X0310335Y0245071I-000591J0000000D01*
G01*
X0306300Y0245071D01*
G75*
G02*
X0305709Y0245662I0000000J0000591D01*
G01*
G37*
G36*
G01*
X0305709Y0249402D02*
X0305709Y0250583D01*
G75*
G02*
X0306300Y0251173I0000591J0000000D01*
G01*
X0310335Y0251173D01*
G75*
G02*
X0310926Y0250583I0000000J-000591D01*
G01*
X0310926Y0249402D01*
G75*
G02*
X0310335Y0248811I-000591J0000000D01*
G01*
X0306300Y0248811D01*
G75*
G02*
X0305709Y0249402I0000000J0000591D01*
G01*
G37*
G36*
G01*
X0314666Y0249402D02*
X0314666Y0250583D01*
G75*
G02*
X0315256Y0251173I0000591J0000000D01*
G01*
X0319292Y0251173D01*
G75*
G02*
X0319882Y0250583I0000000J-000591D01*
G01*
X0319882Y0249402D01*
G75*
G02*
X0319292Y0248811I-000591J0000000D01*
G01*
X0315256Y0248811D01*
G75*
G02*
X0314666Y0249402I0000000J0000591D01*
G01*
G37*
G36*
G01*
X0314666Y0241921D02*
X0314666Y0243103D01*
G75*
G02*
X0315256Y0243693I0000591J0000000D01*
G01*
X0319292Y0243693D01*
G75*
G02*
X0319882Y0243103I0000000J-000591D01*
G01*
X0319882Y0241921D01*
G75*
G02*
X0319292Y0241331I-000591J0000000D01*
G01*
X0315256Y0241331D01*
G75*
G02*
X0314666Y0241921I0000000J0000591D01*
G01*
G37*
G36*
G01*
X0304016Y0245740D02*
X0304016Y0244402D01*
G75*
G02*
X0303465Y0243851I-000551J0000000D01*
G01*
X0302363Y0243851D01*
G75*
G02*
X0301811Y0244402I0000000J0000551D01*
G01*
X0301811Y0245740D01*
G75*
G02*
X0302363Y0246292I0000551J0000000D01*
G01*
X0303465Y0246292D01*
G75*
G02*
X0304016Y0245740I0000000J-000551D01*
G01*
G37*
G36*
G01*
X0300237Y0245740D02*
X0300237Y0244402D01*
G75*
G02*
X0299686Y0243851I-000551J0000000D01*
G01*
X0298583Y0243851D01*
G75*
G02*
X0298032Y0244402I0000000J0000551D01*
G01*
X0298032Y0245740D01*
G75*
G02*
X0298583Y0246292I0000551J0000000D01*
G01*
X0299686Y0246292D01*
G75*
G02*
X0300237Y0245740I0000000J-000551D01*
G01*
G37*
X0547638Y0233654D02*
%LPD*%
G01*
D14*
X0489370Y0206489D03*
X0489370Y0211213D03*
X0489370Y0201764D03*
X0489370Y0197040D03*
X0546162Y0222473D03*
X0546162Y0226410D03*
X0081496Y0158358D02*
%LPD*%
G01*
D154*
X0093110Y0067177D03*
X0104921Y0075051D03*
X0093110Y0082925D03*
D167*
X0092323Y0154185D03*
X0088323Y0134185D03*
X0096323Y0134185D03*
D391*
X0131201Y0064697D03*
D392*
X0131201Y0074697D03*
X0131201Y0084697D03*
G36*
G01*
X0088855Y0078653D02*
X0090213Y0078653D01*
G75*
G02*
X0090794Y0078073I0000000J-000581D01*
G01*
X0090794Y0076911D01*
G75*
G02*
X0090213Y0076330I-000581J0000000D01*
G01*
X0088855Y0076330D01*
G75*
G02*
X0088274Y0076911I0000000J0000581D01*
G01*
X0088274Y0078073D01*
G75*
G02*
X0088855Y0078653I0000581J0000000D01*
G01*
G37*
G36*
G01*
X0088855Y0074834D02*
X0090213Y0074834D01*
G75*
G02*
X0090794Y0074254I0000000J-000581D01*
G01*
X0090794Y0073092D01*
G75*
G02*
X0090213Y0072512I-000581J0000000D01*
G01*
X0088855Y0072512D01*
G75*
G02*
X0088274Y0073092I0000000J0000581D01*
G01*
X0088274Y0074254D01*
G75*
G02*
X0088855Y0074834I0000581J0000000D01*
G01*
G37*
G36*
G01*
X0104144Y0064185D02*
X0105502Y0064185D01*
G75*
G02*
X0106083Y0063604I0000000J-000581D01*
G01*
X0106083Y0062443D01*
G75*
G02*
X0105502Y0061862I-000581J0000000D01*
G01*
X0104144Y0061862D01*
G75*
G02*
X0103563Y0062443I0000000J0000581D01*
G01*
X0103563Y0063604D01*
G75*
G02*
X0104144Y0064185I0000581J0000000D01*
G01*
G37*
G36*
G01*
X0104144Y0060366D02*
X0105502Y0060366D01*
G75*
G02*
X0106083Y0059785I0000000J-000581D01*
G01*
X0106083Y0058624D01*
G75*
G02*
X0105502Y0058043I-000581J0000000D01*
G01*
X0104144Y0058043D01*
G75*
G02*
X0103563Y0058624I0000000J0000581D01*
G01*
X0103563Y0059785D01*
G75*
G02*
X0104144Y0060366I0000581J0000000D01*
G01*
G37*
G36*
G01*
X0130340Y0114067D02*
X0128322Y0114067D01*
G75*
G02*
X0127461Y0114928I0000000J0000861D01*
G01*
X0127461Y0116650D01*
G75*
G02*
X0128322Y0117512I0000861J0000000D01*
G01*
X0130340Y0117512D01*
G75*
G02*
X0131201Y0116650I0000000J-000861D01*
G01*
X0131201Y0114928D01*
G75*
G02*
X0130340Y0114067I-000861J0000000D01*
G01*
G37*
G36*
G01*
X0130340Y0120267D02*
X0128322Y0120267D01*
G75*
G02*
X0127461Y0121129I0000000J0000861D01*
G01*
X0127461Y0122851D01*
G75*
G02*
X0128322Y0123712I0000861J0000000D01*
G01*
X0130340Y0123712D01*
G75*
G02*
X0131201Y0122851I0000000J-000861D01*
G01*
X0131201Y0121129D01*
G75*
G02*
X0130340Y0120267I-000861J0000000D01*
G01*
G37*
G36*
G01*
X0086014Y0072512D02*
X0084655Y0072512D01*
G75*
G02*
X0084075Y0073092I0000000J0000581D01*
G01*
X0084075Y0074254D01*
G75*
G02*
X0084655Y0074834I0000581J0000000D01*
G01*
X0086014Y0074834D01*
G75*
G02*
X0086594Y0074254I0000000J-000581D01*
G01*
X0086594Y0073092D01*
G75*
G02*
X0086014Y0072512I-000581J0000000D01*
G01*
G37*
G36*
G01*
X0086014Y0076330D02*
X0084655Y0076330D01*
G75*
G02*
X0084075Y0076911I0000000J0000581D01*
G01*
X0084075Y0078073D01*
G75*
G02*
X0084655Y0078653I0000581J0000000D01*
G01*
X0086014Y0078653D01*
G75*
G02*
X0086594Y0078073I0000000J-000581D01*
G01*
X0086594Y0076911D01*
G75*
G02*
X0086014Y0076330I-000581J0000000D01*
G01*
G37*
G36*
G01*
X0125010Y0132213D02*
X0126368Y0132213D01*
G75*
G02*
X0126949Y0131633I0000000J-000581D01*
G01*
X0126949Y0130471D01*
G75*
G02*
X0126368Y0129891I-000581J0000000D01*
G01*
X0125010Y0129891D01*
G75*
G02*
X0124429Y0130471I0000000J0000581D01*
G01*
X0124429Y0131633D01*
G75*
G02*
X0125010Y0132213I0000581J0000000D01*
G01*
G37*
G36*
G01*
X0125010Y0128395D02*
X0126368Y0128395D01*
G75*
G02*
X0126949Y0127814I0000000J-000581D01*
G01*
X0126949Y0126652D01*
G75*
G02*
X0126368Y0126072I-000581J0000000D01*
G01*
X0125010Y0126072D01*
G75*
G02*
X0124429Y0126652I0000000J0000581D01*
G01*
X0124429Y0127814D01*
G75*
G02*
X0125010Y0128395I0000581J0000000D01*
G01*
G37*
G36*
G01*
X0123140Y0124126D02*
X0124498Y0124126D01*
G75*
G02*
X0125079Y0123545I0000000J-000581D01*
G01*
X0125079Y0122384D01*
G75*
G02*
X0124498Y0121803I-000581J0000000D01*
G01*
X0123140Y0121803D01*
G75*
G02*
X0122559Y0122384I0000000J0000581D01*
G01*
X0122559Y0123545D01*
G75*
G02*
X0123140Y0124126I0000581J0000000D01*
G01*
G37*
G36*
G01*
X0123140Y0120307D02*
X0124498Y0120307D01*
G75*
G02*
X0125079Y0119726I0000000J-000581D01*
G01*
X0125079Y0118565D01*
G75*
G02*
X0124498Y0117984I-000581J0000000D01*
G01*
X0123140Y0117984D01*
G75*
G02*
X0122559Y0118565I0000000J0000581D01*
G01*
X0122559Y0119726D01*
G75*
G02*
X0123140Y0120307I0000581J0000000D01*
G01*
G37*
G36*
G01*
X0130472Y0152738D02*
X0130472Y0151380D01*
G75*
G02*
X0129892Y0150799I-000581J0000000D01*
G01*
X0128730Y0150799D01*
G75*
G02*
X0128150Y0151380I0000000J0000581D01*
G01*
X0128150Y0152738D01*
G75*
G02*
X0128730Y0153319I0000581J0000000D01*
G01*
X0129892Y0153319D01*
G75*
G02*
X0130472Y0152738I0000000J-000581D01*
G01*
G37*
G36*
G01*
X0126653Y0152738D02*
X0126653Y0151380D01*
G75*
G02*
X0126073Y0150799I-000581J0000000D01*
G01*
X0124911Y0150799D01*
G75*
G02*
X0124331Y0151380I0000000J0000581D01*
G01*
X0124331Y0152738D01*
G75*
G02*
X0124911Y0153319I0000581J0000000D01*
G01*
X0126073Y0153319D01*
G75*
G02*
X0126653Y0152738I0000000J-000581D01*
G01*
G37*
G36*
G01*
X0112884Y0103220D02*
X0111526Y0103220D01*
G75*
G02*
X0110945Y0103801I0000000J0000581D01*
G01*
X0110945Y0104962D01*
G75*
G02*
X0111526Y0105543I0000581J0000000D01*
G01*
X0112884Y0105543D01*
G75*
G02*
X0113465Y0104962I0000000J-000581D01*
G01*
X0113465Y0103801D01*
G75*
G02*
X0112884Y0103220I-000581J0000000D01*
G01*
G37*
G36*
G01*
X0112884Y0107039D02*
X0111526Y0107039D01*
G75*
G02*
X0110945Y0107620I0000000J0000581D01*
G01*
X0110945Y0108781D01*
G75*
G02*
X0111526Y0109362I0000581J0000000D01*
G01*
X0112884Y0109362D01*
G75*
G02*
X0113465Y0108781I0000000J-000581D01*
G01*
X0113465Y0107620D01*
G75*
G02*
X0112884Y0107039I-000581J0000000D01*
G01*
G37*
G36*
G01*
X0107589Y0109362D02*
X0108947Y0109362D01*
G75*
G02*
X0109527Y0108781I0000000J-000581D01*
G01*
X0109527Y0107620D01*
G75*
G02*
X0108947Y0107039I-000581J0000000D01*
G01*
X0107589Y0107039D01*
G75*
G02*
X0107008Y0107620I0000000J0000581D01*
G01*
X0107008Y0108781D01*
G75*
G02*
X0107589Y0109362I0000581J0000000D01*
G01*
G37*
G36*
G01*
X0107589Y0105543D02*
X0108947Y0105543D01*
G75*
G02*
X0109527Y0104962I0000000J-000581D01*
G01*
X0109527Y0103801D01*
G75*
G02*
X0108947Y0103220I-000581J0000000D01*
G01*
X0107589Y0103220D01*
G75*
G02*
X0107008Y0103801I0000000J0000581D01*
G01*
X0107008Y0104962D01*
G75*
G02*
X0107589Y0105543I0000581J0000000D01*
G01*
G37*
G36*
G01*
X0110029Y0061882D02*
X0108671Y0061882D01*
G75*
G02*
X0108090Y0062462I0000000J0000581D01*
G01*
X0108090Y0063624D01*
G75*
G02*
X0108671Y0064204I0000581J0000000D01*
G01*
X0110029Y0064204D01*
G75*
G02*
X0110610Y0063624I0000000J-000581D01*
G01*
X0110610Y0062462D01*
G75*
G02*
X0110029Y0061882I-000581J0000000D01*
G01*
G37*
G36*
G01*
X0110029Y0065701D02*
X0108671Y0065701D01*
G75*
G02*
X0108090Y0066281I0000000J0000581D01*
G01*
X0108090Y0067443D01*
G75*
G02*
X0108671Y0068023I0000581J0000000D01*
G01*
X0110029Y0068023D01*
G75*
G02*
X0110610Y0067443I0000000J-000581D01*
G01*
X0110610Y0066281D01*
G75*
G02*
X0110029Y0065701I-000581J0000000D01*
G01*
G37*
D394*
X0086614Y0116232D03*
X0089173Y0116232D03*
X0091732Y0116232D03*
X0094291Y0116232D03*
X0096850Y0116232D03*
X0099409Y0116232D03*
X0101968Y0116232D03*
X0101968Y0093004D03*
X0099409Y0093004D03*
X0096850Y0093004D03*
X0094291Y0093004D03*
X0091732Y0093004D03*
X0089173Y0093004D03*
X0086614Y0093004D03*
G36*
G01*
X0130108Y0126055D02*
X0128750Y0126055D01*
G75*
G02*
X0128169Y0126636I0000000J0000581D01*
G01*
X0128169Y0127797D01*
G75*
G02*
X0128750Y0128378I0000581J0000000D01*
G01*
X0130108Y0128378D01*
G75*
G02*
X0130689Y0127797I0000000J-000581D01*
G01*
X0130689Y0126636D01*
G75*
G02*
X0130108Y0126055I-000581J0000000D01*
G01*
G37*
G36*
G01*
X0130108Y0129874D02*
X0128750Y0129874D01*
G75*
G02*
X0128169Y0130454I0000000J0000581D01*
G01*
X0128169Y0131616D01*
G75*
G02*
X0128750Y0132197I0000581J0000000D01*
G01*
X0130108Y0132197D01*
G75*
G02*
X0130689Y0131616I0000000J-000581D01*
G01*
X0130689Y0130454D01*
G75*
G02*
X0130108Y0129874I-000581J0000000D01*
G01*
G37*
G36*
G01*
X0132490Y0132197D02*
X0133848Y0132197D01*
G75*
G02*
X0134429Y0131616I0000000J-000581D01*
G01*
X0134429Y0130454D01*
G75*
G02*
X0133848Y0129874I-000581J0000000D01*
G01*
X0132490Y0129874D01*
G75*
G02*
X0131909Y0130454I0000000J0000581D01*
G01*
X0131909Y0131616D01*
G75*
G02*
X0132490Y0132197I0000581J0000000D01*
G01*
G37*
G36*
G01*
X0132490Y0128378D02*
X0133848Y0128378D01*
G75*
G02*
X0134429Y0127797I0000000J-000581D01*
G01*
X0134429Y0126636D01*
G75*
G02*
X0133848Y0126055I-000581J0000000D01*
G01*
X0132490Y0126055D01*
G75*
G02*
X0131909Y0126636I0000000J0000581D01*
G01*
X0131909Y0127797D01*
G75*
G02*
X0132490Y0128378I0000581J0000000D01*
G01*
G37*
G36*
G01*
X0123041Y0071960D02*
X0124400Y0071960D01*
G75*
G02*
X0124980Y0071380I0000000J-000581D01*
G01*
X0124980Y0070218D01*
G75*
G02*
X0124400Y0069638I-000581J0000000D01*
G01*
X0123041Y0069638D01*
G75*
G02*
X0122461Y0070218I0000000J0000581D01*
G01*
X0122461Y0071380D01*
G75*
G02*
X0123041Y0071960I0000581J0000000D01*
G01*
G37*
G36*
G01*
X0123041Y0068141D02*
X0124400Y0068141D01*
G75*
G02*
X0124980Y0067561I0000000J-000581D01*
G01*
X0124980Y0066399D01*
G75*
G02*
X0124400Y0065819I-000581J0000000D01*
G01*
X0123041Y0065819D01*
G75*
G02*
X0122461Y0066399I0000000J0000581D01*
G01*
X0122461Y0067561D01*
G75*
G02*
X0123041Y0068141I0000581J0000000D01*
G01*
G37*
G36*
G01*
X0093743Y0078653D02*
X0095102Y0078653D01*
G75*
G02*
X0095682Y0078073I0000000J-000581D01*
G01*
X0095682Y0076911D01*
G75*
G02*
X0095102Y0076330I-000581J0000000D01*
G01*
X0093743Y0076330D01*
G75*
G02*
X0093163Y0076911I0000000J0000581D01*
G01*
X0093163Y0078073D01*
G75*
G02*
X0093743Y0078653I0000581J0000000D01*
G01*
G37*
G36*
G01*
X0093743Y0074834D02*
X0095102Y0074834D01*
G75*
G02*
X0095682Y0074254I0000000J-000581D01*
G01*
X0095682Y0073092D01*
G75*
G02*
X0095102Y0072512I-000581J0000000D01*
G01*
X0093743Y0072512D01*
G75*
G02*
X0093163Y0073092I0000000J0000581D01*
G01*
X0093163Y0074254D01*
G75*
G02*
X0093743Y0074834I0000581J0000000D01*
G01*
G37*
G36*
G01*
X0116821Y0106468D02*
X0115463Y0106468D01*
G75*
G02*
X0114882Y0107049I0000000J0000581D01*
G01*
X0114882Y0108210D01*
G75*
G02*
X0115463Y0108791I0000581J0000000D01*
G01*
X0116821Y0108791D01*
G75*
G02*
X0117402Y0108210I0000000J-000581D01*
G01*
X0117402Y0107049D01*
G75*
G02*
X0116821Y0106468I-000581J0000000D01*
G01*
G37*
G36*
G01*
X0116821Y0110287D02*
X0115463Y0110287D01*
G75*
G02*
X0114882Y0110868I0000000J0000581D01*
G01*
X0114882Y0112029D01*
G75*
G02*
X0115463Y0112610I0000581J0000000D01*
G01*
X0116821Y0112610D01*
G75*
G02*
X0117402Y0112029I0000000J-000581D01*
G01*
X0117402Y0110868D01*
G75*
G02*
X0116821Y0110287I-000581J0000000D01*
G01*
G37*
G36*
G01*
X0124400Y0058141D02*
X0123041Y0058141D01*
G75*
G02*
X0122461Y0058722I0000000J0000581D01*
G01*
X0122461Y0059884D01*
G75*
G02*
X0123041Y0060464I0000581J0000000D01*
G01*
X0124400Y0060464D01*
G75*
G02*
X0124980Y0059884I0000000J-000581D01*
G01*
X0124980Y0058722D01*
G75*
G02*
X0124400Y0058141I-000581J0000000D01*
G01*
G37*
G36*
G01*
X0124400Y0061960D02*
X0123041Y0061960D01*
G75*
G02*
X0122461Y0062541I0000000J0000581D01*
G01*
X0122461Y0063702D01*
G75*
G02*
X0123041Y0064283I0000581J0000000D01*
G01*
X0124400Y0064283D01*
G75*
G02*
X0124980Y0063702I0000000J-000581D01*
G01*
X0124980Y0062541D01*
G75*
G02*
X0124400Y0061960I-000581J0000000D01*
G01*
G37*
G36*
G01*
X0108947Y0110602D02*
X0107589Y0110602D01*
G75*
G02*
X0107008Y0111183I0000000J0000581D01*
G01*
X0107008Y0112344D01*
G75*
G02*
X0107589Y0112925I0000581J0000000D01*
G01*
X0108947Y0112925D01*
G75*
G02*
X0109527Y0112344I0000000J-000581D01*
G01*
X0109527Y0111183D01*
G75*
G02*
X0108947Y0110602I-000581J0000000D01*
G01*
G37*
G36*
G01*
X0108947Y0114421D02*
X0107589Y0114421D01*
G75*
G02*
X0107008Y0115002I0000000J0000581D01*
G01*
X0107008Y0116163D01*
G75*
G02*
X0107589Y0116744I0000581J0000000D01*
G01*
X0108947Y0116744D01*
G75*
G02*
X0109527Y0116163I0000000J-000581D01*
G01*
X0109527Y0115002D01*
G75*
G02*
X0108947Y0114421I-000581J0000000D01*
G01*
G37*
G36*
G01*
X0084331Y0121852D02*
X0084331Y0123210D01*
G75*
G02*
X0084911Y0123791I0000581J0000000D01*
G01*
X0086073Y0123791D01*
G75*
G02*
X0086653Y0123210I0000000J-000581D01*
G01*
X0086653Y0121852D01*
G75*
G02*
X0086073Y0121271I-000581J0000000D01*
G01*
X0084911Y0121271D01*
G75*
G02*
X0084331Y0121852I0000000J0000581D01*
G01*
G37*
G36*
G01*
X0088150Y0121852D02*
X0088150Y0123210D01*
G75*
G02*
X0088730Y0123791I0000581J0000000D01*
G01*
X0089892Y0123791D01*
G75*
G02*
X0090472Y0123210I0000000J-000581D01*
G01*
X0090472Y0121852D01*
G75*
G02*
X0089892Y0121271I-000581J0000000D01*
G01*
X0088730Y0121271D01*
G75*
G02*
X0088150Y0121852I0000000J0000581D01*
G01*
G37*
G36*
G01*
X0112884Y0095740D02*
X0111526Y0095740D01*
G75*
G02*
X0110945Y0096321I0000000J0000581D01*
G01*
X0110945Y0097482D01*
G75*
G02*
X0111526Y0098063I0000581J0000000D01*
G01*
X0112884Y0098063D01*
G75*
G02*
X0113465Y0097482I0000000J-000581D01*
G01*
X0113465Y0096321D01*
G75*
G02*
X0112884Y0095740I-000581J0000000D01*
G01*
G37*
G36*
G01*
X0112884Y0099559D02*
X0111526Y0099559D01*
G75*
G02*
X0110945Y0100139I0000000J0000581D01*
G01*
X0110945Y0101301D01*
G75*
G02*
X0111526Y0101882I0000581J0000000D01*
G01*
X0112884Y0101882D01*
G75*
G02*
X0113465Y0101301I0000000J-000581D01*
G01*
X0113465Y0100139D01*
G75*
G02*
X0112884Y0099559I-000581J0000000D01*
G01*
G37*
G36*
G01*
X0111526Y0094401D02*
X0112884Y0094401D01*
G75*
G02*
X0113465Y0093821I0000000J-000581D01*
G01*
X0113465Y0092659D01*
G75*
G02*
X0112884Y0092078I-000581J0000000D01*
G01*
X0111526Y0092078D01*
G75*
G02*
X0110945Y0092659I0000000J0000581D01*
G01*
X0110945Y0093821D01*
G75*
G02*
X0111526Y0094401I0000581J0000000D01*
G01*
G37*
G36*
G01*
X0111526Y0090582D02*
X0112884Y0090582D01*
G75*
G02*
X0113465Y0090002I0000000J-000581D01*
G01*
X0113465Y0088840D01*
G75*
G02*
X0112884Y0088260I-000581J0000000D01*
G01*
X0111526Y0088260D01*
G75*
G02*
X0110945Y0088840I0000000J0000581D01*
G01*
X0110945Y0090002D01*
G75*
G02*
X0111526Y0090582I0000581J0000000D01*
G01*
G37*
G36*
G01*
X0084331Y0125592D02*
X0084331Y0126951D01*
G75*
G02*
X0084911Y0127531I0000581J0000000D01*
G01*
X0086073Y0127531D01*
G75*
G02*
X0086653Y0126951I0000000J-000581D01*
G01*
X0086653Y0125592D01*
G75*
G02*
X0086073Y0125012I-000581J0000000D01*
G01*
X0084911Y0125012D01*
G75*
G02*
X0084331Y0125592I0000000J0000581D01*
G01*
G37*
G36*
G01*
X0088150Y0125592D02*
X0088150Y0126951D01*
G75*
G02*
X0088730Y0127531I0000581J0000000D01*
G01*
X0089892Y0127531D01*
G75*
G02*
X0090472Y0126951I0000000J-000581D01*
G01*
X0090472Y0125592D01*
G75*
G02*
X0089892Y0125012I-000581J0000000D01*
G01*
X0088730Y0125012D01*
G75*
G02*
X0088150Y0125592I0000000J0000581D01*
G01*
G37*
D395*
X0133169Y0136271D03*
X0129429Y0136271D03*
X0125689Y0136271D03*
X0125689Y0146586D03*
X0133169Y0146586D03*
G36*
G01*
X0115463Y0101783D02*
X0116821Y0101783D01*
G75*
G02*
X0117402Y0101202I0000000J-000581D01*
G01*
X0117402Y0100041D01*
G75*
G02*
X0116821Y0099460I-000581J0000000D01*
G01*
X0115463Y0099460D01*
G75*
G02*
X0114882Y0100041I0000000J0000581D01*
G01*
X0114882Y0101202D01*
G75*
G02*
X0115463Y0101783I0000581J0000000D01*
G01*
G37*
G36*
G01*
X0115463Y0097964D02*
X0116821Y0097964D01*
G75*
G02*
X0117402Y0097384I0000000J-000581D01*
G01*
X0117402Y0096222D01*
G75*
G02*
X0116821Y0095641I-000581J0000000D01*
G01*
X0115463Y0095641D01*
G75*
G02*
X0114882Y0096222I0000000J0000581D01*
G01*
X0114882Y0097384D01*
G75*
G02*
X0115463Y0097964I0000581J0000000D01*
G01*
G37*
G36*
G01*
X0119567Y0114372D02*
X0119567Y0115730D01*
G75*
G02*
X0120148Y0116311I0000581J0000000D01*
G01*
X0121309Y0116311D01*
G75*
G02*
X0121890Y0115730I0000000J-000581D01*
G01*
X0121890Y0114372D01*
G75*
G02*
X0121309Y0113791I-000581J0000000D01*
G01*
X0120148Y0113791D01*
G75*
G02*
X0119567Y0114372I0000000J0000581D01*
G01*
G37*
G36*
G01*
X0123386Y0114372D02*
X0123386Y0115730D01*
G75*
G02*
X0123966Y0116311I0000581J0000000D01*
G01*
X0125128Y0116311D01*
G75*
G02*
X0125709Y0115730I0000000J-000581D01*
G01*
X0125709Y0114372D01*
G75*
G02*
X0125128Y0113791I-000581J0000000D01*
G01*
X0123966Y0113791D01*
G75*
G02*
X0123386Y0114372I0000000J0000581D01*
G01*
G37*
G36*
G01*
X0099134Y0123210D02*
X0099134Y0121852D01*
G75*
G02*
X0098553Y0121271I-000581J0000000D01*
G01*
X0097392Y0121271D01*
G75*
G02*
X0096811Y0121852I0000000J0000581D01*
G01*
X0096811Y0123210D01*
G75*
G02*
X0097392Y0123791I0000581J0000000D01*
G01*
X0098553Y0123791D01*
G75*
G02*
X0099134Y0123210I0000000J-000581D01*
G01*
G37*
G36*
G01*
X0095315Y0123210D02*
X0095315Y0121852D01*
G75*
G02*
X0094734Y0121271I-000581J0000000D01*
G01*
X0093573Y0121271D01*
G75*
G02*
X0092992Y0121852I0000000J0000581D01*
G01*
X0092992Y0123210D01*
G75*
G02*
X0093573Y0123791I0000581J0000000D01*
G01*
X0094734Y0123791D01*
G75*
G02*
X0095315Y0123210I0000000J-000581D01*
G01*
G37*
G36*
G01*
X0100089Y0080090D02*
X0098730Y0080090D01*
G75*
G02*
X0098150Y0080671I0000000J0000581D01*
G01*
X0098150Y0081832D01*
G75*
G02*
X0098730Y0082413I0000581J0000000D01*
G01*
X0100089Y0082413D01*
G75*
G02*
X0100669Y0081832I0000000J-000581D01*
G01*
X0100669Y0080671D01*
G75*
G02*
X0100089Y0080090I-000581J0000000D01*
G01*
G37*
G36*
G01*
X0100089Y0083909D02*
X0098730Y0083909D01*
G75*
G02*
X0098150Y0084490I0000000J0000581D01*
G01*
X0098150Y0085651D01*
G75*
G02*
X0098730Y0086232I0000581J0000000D01*
G01*
X0100089Y0086232D01*
G75*
G02*
X0100669Y0085651I0000000J-000581D01*
G01*
X0100669Y0084490D01*
G75*
G02*
X0100089Y0083909I-000581J0000000D01*
G01*
G37*
G36*
G01*
X0100089Y0072512D02*
X0098730Y0072512D01*
G75*
G02*
X0098150Y0073092I0000000J0000581D01*
G01*
X0098150Y0074254D01*
G75*
G02*
X0098730Y0074834I0000581J0000000D01*
G01*
X0100089Y0074834D01*
G75*
G02*
X0100669Y0074254I0000000J-000581D01*
G01*
X0100669Y0073092D01*
G75*
G02*
X0100089Y0072512I-000581J0000000D01*
G01*
G37*
G36*
G01*
X0100089Y0076330D02*
X0098730Y0076330D01*
G75*
G02*
X0098150Y0076911I0000000J0000581D01*
G01*
X0098150Y0078073D01*
G75*
G02*
X0098730Y0078653I0000581J0000000D01*
G01*
X0100089Y0078653D01*
G75*
G02*
X0100669Y0078073I0000000J-000581D01*
G01*
X0100669Y0076911D01*
G75*
G02*
X0100089Y0076330I-000581J0000000D01*
G01*
G37*
G36*
G01*
X0099134Y0126951D02*
X0099134Y0125592D01*
G75*
G02*
X0098553Y0125012I-000581J0000000D01*
G01*
X0097392Y0125012D01*
G75*
G02*
X0096811Y0125592I0000000J0000581D01*
G01*
X0096811Y0126951D01*
G75*
G02*
X0097392Y0127531I0000581J0000000D01*
G01*
X0098553Y0127531D01*
G75*
G02*
X0099134Y0126951I0000000J-000581D01*
G01*
G37*
G36*
G01*
X0095315Y0126951D02*
X0095315Y0125592D01*
G75*
G02*
X0094734Y0125012I-000581J0000000D01*
G01*
X0093573Y0125012D01*
G75*
G02*
X0092992Y0125592I0000000J0000581D01*
G01*
X0092992Y0126951D01*
G75*
G02*
X0093573Y0127531I0000581J0000000D01*
G01*
X0094734Y0127531D01*
G75*
G02*
X0095315Y0126951I0000000J-000581D01*
G01*
G37*
G36*
G01*
X0108947Y0092590D02*
X0107589Y0092590D01*
G75*
G02*
X0107008Y0093171I0000000J0000581D01*
G01*
X0107008Y0094332D01*
G75*
G02*
X0107589Y0094913I0000581J0000000D01*
G01*
X0108947Y0094913D01*
G75*
G02*
X0109527Y0094332I0000000J-000581D01*
G01*
X0109527Y0093171D01*
G75*
G02*
X0108947Y0092590I-000581J0000000D01*
G01*
G37*
G36*
G01*
X0108947Y0096409D02*
X0107589Y0096409D01*
G75*
G02*
X0107008Y0096990I0000000J0000581D01*
G01*
X0107008Y0098151D01*
G75*
G02*
X0107589Y0098732I0000581J0000000D01*
G01*
X0108947Y0098732D01*
G75*
G02*
X0109527Y0098151I0000000J-000581D01*
G01*
X0109527Y0096990D01*
G75*
G02*
X0108947Y0096409I-000581J0000000D01*
G01*
G37*
G36*
G01*
X0099134Y0130691D02*
X0099134Y0129332D01*
G75*
G02*
X0098553Y0128752I-000581J0000000D01*
G01*
X0097392Y0128752D01*
G75*
G02*
X0096811Y0129332I0000000J0000581D01*
G01*
X0096811Y0130691D01*
G75*
G02*
X0097392Y0131271I0000581J0000000D01*
G01*
X0098553Y0131271D01*
G75*
G02*
X0099134Y0130691I0000000J-000581D01*
G01*
G37*
G36*
G01*
X0095315Y0130691D02*
X0095315Y0129332D01*
G75*
G02*
X0094734Y0128752I-000581J0000000D01*
G01*
X0093573Y0128752D01*
G75*
G02*
X0092992Y0129332I0000000J0000581D01*
G01*
X0092992Y0130691D01*
G75*
G02*
X0093573Y0131271I0000581J0000000D01*
G01*
X0094734Y0131271D01*
G75*
G02*
X0095315Y0130691I0000000J-000581D01*
G01*
G37*
G36*
G01*
X0090472Y0130691D02*
X0090472Y0129332D01*
G75*
G02*
X0089892Y0128752I-000581J0000000D01*
G01*
X0088730Y0128752D01*
G75*
G02*
X0088150Y0129332I0000000J0000581D01*
G01*
X0088150Y0130691D01*
G75*
G02*
X0088730Y0131271I0000581J0000000D01*
G01*
X0089892Y0131271D01*
G75*
G02*
X0090472Y0130691I0000000J-000581D01*
G01*
G37*
G36*
G01*
X0086653Y0130691D02*
X0086653Y0129332D01*
G75*
G02*
X0086073Y0128752I-000581J0000000D01*
G01*
X0084911Y0128752D01*
G75*
G02*
X0084331Y0129332I0000000J0000581D01*
G01*
X0084331Y0130691D01*
G75*
G02*
X0084911Y0131271I0000581J0000000D01*
G01*
X0086073Y0131271D01*
G75*
G02*
X0086653Y0130691I0000000J-000581D01*
G01*
G37*
G36*
G01*
X0096279Y0145504D02*
X0097618Y0145504D01*
G75*
G02*
X0098169Y0144953I0000000J-000551D01*
G01*
X0098169Y0143850D01*
G75*
G02*
X0097618Y0143299I-000551J0000000D01*
G01*
X0096279Y0143299D01*
G75*
G02*
X0095728Y0143850I0000000J0000551D01*
G01*
X0095728Y0144953D01*
G75*
G02*
X0096279Y0145504I0000551J0000000D01*
G01*
G37*
G36*
G01*
X0096279Y0141724D02*
X0097618Y0141724D01*
G75*
G02*
X0098169Y0141173I0000000J-000551D01*
G01*
X0098169Y0140071D01*
G75*
G02*
X0097618Y0139520I-000551J0000000D01*
G01*
X0096279Y0139520D01*
G75*
G02*
X0095728Y0140071I0000000J0000551D01*
G01*
X0095728Y0141173D01*
G75*
G02*
X0096279Y0141724I0000551J0000000D01*
G01*
G37*
G36*
G01*
X0122539Y0090563D02*
X0121083Y0090563D01*
G75*
G02*
X0120551Y0091094I0000000J0000531D01*
G01*
X0120551Y0092157D01*
G75*
G02*
X0121083Y0092689I0000531J0000000D01*
G01*
X0122539Y0092689D01*
G75*
G02*
X0123071Y0092157I0000000J-000531D01*
G01*
X0123071Y0091094D01*
G75*
G02*
X0122539Y0090563I-000531J0000000D01*
G01*
G37*
G36*
G01*
X0122539Y0094578D02*
X0121083Y0094578D01*
G75*
G02*
X0120551Y0095110I0000000J0000531D01*
G01*
X0120551Y0096173D01*
G75*
G02*
X0121083Y0096704I0000531J0000000D01*
G01*
X0122539Y0096704D01*
G75*
G02*
X0123071Y0096173I0000000J-000531D01*
G01*
X0123071Y0095110D01*
G75*
G02*
X0122539Y0094578I-000531J0000000D01*
G01*
G37*
G36*
G01*
X0108006Y0151291D02*
X0108006Y0152748D01*
G75*
G02*
X0108538Y0153279I0000531J0000000D01*
G01*
X0109601Y0153279D01*
G75*
G02*
X0110132Y0152748I0000000J-000531D01*
G01*
X0110132Y0151291D01*
G75*
G02*
X0109601Y0150760I-000531J0000000D01*
G01*
X0108538Y0150760D01*
G75*
G02*
X0108006Y0151291I0000000J0000531D01*
G01*
G37*
G36*
G01*
X0112022Y0151291D02*
X0112022Y0152748D01*
G75*
G02*
X0112554Y0153279I0000531J0000000D01*
G01*
X0113617Y0153279D01*
G75*
G02*
X0114148Y0152748I0000000J-000531D01*
G01*
X0114148Y0151291D01*
G75*
G02*
X0113617Y0150760I-000531J0000000D01*
G01*
X0112554Y0150760D01*
G75*
G02*
X0112022Y0151291I0000000J0000531D01*
G01*
G37*
G36*
G01*
X0084055Y0150681D02*
X0085236Y0150681D01*
G75*
G02*
X0085827Y0150090I0000000J-000591D01*
G01*
X0085827Y0145464D01*
G75*
G02*
X0085236Y0144874I-000591J0000000D01*
G01*
X0084055Y0144874D01*
G75*
G02*
X0083465Y0145464I0000000J0000591D01*
G01*
X0083465Y0150090D01*
G75*
G02*
X0084055Y0150681I0000591J0000000D01*
G01*
G37*
G36*
G01*
X0091535Y0150681D02*
X0092716Y0150681D01*
G75*
G02*
X0093307Y0150090I0000000J-000591D01*
G01*
X0093307Y0145464D01*
G75*
G02*
X0092716Y0144874I-000591J0000000D01*
G01*
X0091535Y0144874D01*
G75*
G02*
X0090945Y0145464I0000000J0000591D01*
G01*
X0090945Y0150090D01*
G75*
G02*
X0091535Y0150681I0000591J0000000D01*
G01*
G37*
G36*
G01*
X0087795Y0143299D02*
X0088976Y0143299D01*
G75*
G02*
X0089567Y0142708I0000000J-000591D01*
G01*
X0089567Y0138082D01*
G75*
G02*
X0088976Y0137492I-000591J0000000D01*
G01*
X0087795Y0137492D01*
G75*
G02*
X0087205Y0138082I0000000J0000591D01*
G01*
X0087205Y0142708D01*
G75*
G02*
X0087795Y0143299I0000591J0000000D01*
G01*
G37*
G36*
G01*
X0121987Y0152728D02*
X0121987Y0151389D01*
G75*
G02*
X0121435Y0150838I-000551J0000000D01*
G01*
X0120333Y0150838D01*
G75*
G02*
X0119782Y0151389I0000000J0000551D01*
G01*
X0119782Y0152728D01*
G75*
G02*
X0120333Y0153279I0000551J0000000D01*
G01*
X0121435Y0153279D01*
G75*
G02*
X0121987Y0152728I0000000J-000551D01*
G01*
G37*
G36*
G01*
X0118207Y0152728D02*
X0118207Y0151389D01*
G75*
G02*
X0117656Y0150838I-000551J0000000D01*
G01*
X0116554Y0150838D01*
G75*
G02*
X0116002Y0151389I0000000J0000551D01*
G01*
X0116002Y0152728D01*
G75*
G02*
X0116554Y0153279I0000551J0000000D01*
G01*
X0117656Y0153279D01*
G75*
G02*
X0118207Y0152728I0000000J-000551D01*
G01*
G37*
G36*
G01*
X0118916Y0121941D02*
X0117735Y0121941D01*
G75*
G02*
X0117144Y0122531I0000000J0000591D01*
G01*
X0117144Y0128240D01*
G75*
G02*
X0117735Y0128830I0000591J0000000D01*
G01*
X0118916Y0128830D01*
G75*
G02*
X0119506Y0128240I0000000J-000591D01*
G01*
X0119506Y0122531D01*
G75*
G02*
X0118916Y0121941I-000591J0000000D01*
G01*
G37*
G36*
G01*
X0113916Y0121941D02*
X0112735Y0121941D01*
G75*
G02*
X0112144Y0122531I0000000J0000591D01*
G01*
X0112144Y0128240D01*
G75*
G02*
X0112735Y0128830I0000591J0000000D01*
G01*
X0113916Y0128830D01*
G75*
G02*
X0114506Y0128240I0000000J-000591D01*
G01*
X0114506Y0122531D01*
G75*
G02*
X0113916Y0121941I-000591J0000000D01*
G01*
G37*
G36*
G01*
X0108916Y0121941D02*
X0107735Y0121941D01*
G75*
G02*
X0107144Y0122531I0000000J0000591D01*
G01*
X0107144Y0128240D01*
G75*
G02*
X0107735Y0128830I0000591J0000000D01*
G01*
X0108916Y0128830D01*
G75*
G02*
X0109506Y0128240I0000000J-000591D01*
G01*
X0109506Y0122531D01*
G75*
G02*
X0108916Y0121941I-000591J0000000D01*
G01*
G37*
G36*
G01*
X0103916Y0121941D02*
X0102735Y0121941D01*
G75*
G02*
X0102144Y0122531I0000000J0000591D01*
G01*
X0102144Y0128240D01*
G75*
G02*
X0102735Y0128830I0000591J0000000D01*
G01*
X0103916Y0128830D01*
G75*
G02*
X0104506Y0128240I0000000J-000591D01*
G01*
X0104506Y0122531D01*
G75*
G02*
X0103916Y0121941I-000591J0000000D01*
G01*
G37*
G36*
G01*
X0103916Y0142216D02*
X0102735Y0142216D01*
G75*
G02*
X0102144Y0142807I0000000J0000591D01*
G01*
X0102144Y0148515D01*
G75*
G02*
X0102735Y0149106I0000591J0000000D01*
G01*
X0103916Y0149106D01*
G75*
G02*
X0104506Y0148515I0000000J-000591D01*
G01*
X0104506Y0142807D01*
G75*
G02*
X0103916Y0142216I-000591J0000000D01*
G01*
G37*
G36*
G01*
X0108916Y0142216D02*
X0107735Y0142216D01*
G75*
G02*
X0107144Y0142807I0000000J0000591D01*
G01*
X0107144Y0148515D01*
G75*
G02*
X0107735Y0149106I0000591J0000000D01*
G01*
X0108916Y0149106D01*
G75*
G02*
X0109506Y0148515I0000000J-000591D01*
G01*
X0109506Y0142807D01*
G75*
G02*
X0108916Y0142216I-000591J0000000D01*
G01*
G37*
G36*
G01*
X0113916Y0142216D02*
X0112735Y0142216D01*
G75*
G02*
X0112144Y0142807I0000000J0000591D01*
G01*
X0112144Y0148515D01*
G75*
G02*
X0112735Y0149106I0000591J0000000D01*
G01*
X0113916Y0149106D01*
G75*
G02*
X0114506Y0148515I0000000J-000591D01*
G01*
X0114506Y0142807D01*
G75*
G02*
X0113916Y0142216I-000591J0000000D01*
G01*
G37*
G36*
G01*
X0118916Y0142216D02*
X0117735Y0142216D01*
G75*
G02*
X0117144Y0142807I0000000J0000591D01*
G01*
X0117144Y0148515D01*
G75*
G02*
X0117735Y0149106I0000591J0000000D01*
G01*
X0118916Y0149106D01*
G75*
G02*
X0119506Y0148515I0000000J-000591D01*
G01*
X0119506Y0142807D01*
G75*
G02*
X0118916Y0142216I-000591J0000000D01*
G01*
G37*
X0425000Y0232079D02*
G01*
G75*
D487*
X0373031Y0147040D02*
D03*
X0373031Y0172335D02*
D03*
X0373031Y0157079D02*
D03*
X0373031Y0162295D02*
D03*
X0380118Y0131784D02*
D03*
X0373031Y0131784D02*
D03*
X0373031Y0141823D02*
D03*
X0380118Y0141823D02*
D03*
X0380118Y0172335D02*
D03*
X0380118Y0162295D02*
D03*
X0380118Y0157079D02*
D03*
X0380118Y0147040D02*
D03*
D488*
X0373031Y0150485D02*
D03*
X0373031Y0165740D02*
D03*
X0373031Y0153634D02*
D03*
X0373031Y0168890D02*
D03*
X0373031Y0138378D02*
D03*
X0373031Y0135229D02*
D03*
X0380118Y0135229D02*
D03*
X0380118Y0138378D02*
D03*
X0380118Y0165740D02*
D03*
X0380118Y0168890D02*
D03*
X0380118Y0150485D02*
D03*
X0380118Y0153634D02*
D03*
D491*
X0371063Y0093890D02*
D03*
X0375000Y0093890D02*
D03*
X0376575Y0097433D02*
D03*
X0380512Y0097433D02*
D03*
X0368701Y0114756D02*
D03*
X0372638Y0114756D02*
D03*
X0340048Y0172458D02*
D03*
X0343985Y0172458D02*
D03*
X0348244Y0172458D02*
D03*
X0352181Y0172458D02*
D03*
X0391566Y0139991D02*
D03*
X0395503Y0139991D02*
D03*
X0391566Y0143714D02*
D03*
X0395503Y0143714D02*
D03*
X0393982Y0106882D02*
D03*
X0390045Y0106882D02*
D03*
X0305348Y0095949D02*
D03*
X0341096Y0096188D02*
D03*
X0326181Y0172458D02*
D03*
X0358465Y0118300D02*
D03*
X0358465Y0122630D02*
D03*
X0361895Y0126849D02*
D03*
X0373172Y0126794D02*
D03*
X0352756Y0156454D02*
D03*
X0361545Y0156454D02*
D03*
X0365482Y0164939D02*
D03*
X0300565Y0194805D02*
D03*
X0326181Y0176961D02*
D03*
X0367126Y0093890D02*
D03*
X0380512Y0126885D02*
D03*
X0402165Y0125487D02*
D03*
X0416230Y0125487D02*
D03*
X0402165Y0129717D02*
D03*
X0416230Y0129717D02*
D03*
X0376527Y0176625D02*
D03*
X0421063Y0178536D02*
D03*
X0354528Y0118300D02*
D03*
X0365482Y0156454D02*
D03*
X0356693Y0156454D02*
D03*
X0356693Y0160942D02*
D03*
X0352756Y0160942D02*
D03*
X0298622Y0180898D02*
D03*
X0302559Y0180898D02*
D03*
X0304502Y0194805D02*
D03*
X0389947Y0123981D02*
D03*
X0393884Y0123981D02*
D03*
X0420168Y0125487D02*
D03*
X0376575Y0126885D02*
D03*
X0361545Y0164939D02*
D03*
X0369235Y0126794D02*
D03*
X0365832Y0126849D02*
D03*
X0406102Y0129717D02*
D03*
X0380464Y0176625D02*
D03*
X0417126Y0178536D02*
D03*
X0345033Y0096188D02*
D03*
X0371063Y0093890D02*
D03*
X0397835Y0118914D02*
D03*
X0401772Y0118914D02*
D03*
X0406102Y0125487D02*
D03*
X0322244Y0176961D02*
D03*
X0322244Y0172458D02*
D03*
X0354528Y0122630D02*
D03*
X0309285Y0095949D02*
D03*
X0318601Y0095949D02*
D03*
X0314664Y0095949D02*
D03*
X0412293Y0129717D02*
D03*
X0421063Y0174599D02*
D03*
X0417126Y0174599D02*
D03*
X0421063Y0162197D02*
D03*
X0417126Y0162197D02*
D03*
X0421063Y0158063D02*
D03*
X0417126Y0158063D02*
D03*
X0421063Y0149795D02*
D03*
X0417126Y0149795D02*
D03*
X0421063Y0153929D02*
D03*
X0417126Y0153929D02*
D03*
X0421063Y0145662D02*
D03*
X0417126Y0145662D02*
D03*
X0421063Y0166331D02*
D03*
X0417126Y0166331D02*
D03*
X0421063Y0170465D02*
D03*
X0417126Y0170465D02*
D03*
D493*
X0366073Y0143103D02*
D03*
X0366073Y0138870D02*
D03*
X0320669Y0226961D02*
D03*
X0325394Y0226961D02*
D03*
X0330118Y0226961D02*
D03*
X0334842Y0226961D02*
D03*
X0404921Y0098614D02*
D03*
X0400787Y0098614D02*
D03*
X0309607Y0190835D02*
D03*
X0309607Y0186898D02*
D03*
X0420536Y0099796D02*
D03*
X0420536Y0103732D02*
D03*
X0366073Y0134933D02*
D03*
X0366073Y0147040D02*
D03*
X0313779Y0191331D02*
D03*
X0313779Y0187394D02*
D03*
X0338552Y0219107D02*
D03*
X0338552Y0215170D02*
D03*
X0334842Y0215170D02*
D03*
X0334842Y0219107D02*
D03*
X0334842Y0204520D02*
D03*
X0334842Y0208457D02*
D03*
X0334842Y0223024D02*
D03*
X0330118Y0223024D02*
D03*
X0320669Y0223024D02*
D03*
X0325394Y0223024D02*
D03*
X0419501Y0189830D02*
D03*
X0419501Y0185893D02*
D03*
X0369291Y0186803D02*
D03*
X0369291Y0190740D02*
D03*
X0369291Y0197040D02*
D03*
X0369291Y0200977D02*
D03*
X0397244Y0186803D02*
D03*
X0397244Y0190740D02*
D03*
X0373819Y0212197D02*
D03*
X0373819Y0208260D02*
D03*
X0403149Y0212197D02*
D03*
X0403149Y0208260D02*
D03*
X0415945Y0212197D02*
D03*
X0415945Y0208260D02*
D03*
X0399053Y0219107D02*
D03*
X0399053Y0223044D02*
D03*
X0420669Y0219481D02*
D03*
X0420669Y0215544D02*
D03*
X0420472Y0222630D02*
D03*
X0420472Y0226567D02*
D03*
X0420536Y0111322D02*
D03*
X0420536Y0107385D02*
D03*
X0404921Y0094677D02*
D03*
X0400787Y0094677D02*
D03*
X0397047Y0208260D02*
D03*
X0397047Y0212197D02*
D03*
X0392717Y0208260D02*
D03*
X0392717Y0212197D02*
D03*
X0384252Y0208260D02*
D03*
X0384252Y0212197D02*
D03*
X0380086Y0223044D02*
D03*
X0380086Y0219107D02*
D03*
X0341339Y0190740D02*
D03*
X0341339Y0186803D02*
D03*
X0411614Y0208260D02*
D03*
X0411614Y0212197D02*
D03*
X0361243Y0223044D02*
D03*
X0361243Y0219107D02*
D03*
X0365354Y0208260D02*
D03*
X0365354Y0212197D02*
D03*
X0378149Y0208260D02*
D03*
X0378149Y0212197D02*
D03*
X0342263Y0223044D02*
D03*
X0342263Y0219107D02*
D03*
X0346456Y0208260D02*
D03*
X0346456Y0212197D02*
D03*
X0354921Y0208260D02*
D03*
X0354921Y0212197D02*
D03*
X0359252Y0208260D02*
D03*
X0359252Y0212197D02*
D03*
X0341475Y0204520D02*
D03*
X0341475Y0208457D02*
D03*
D495*
X0385443Y0101823D02*
D03*
X0393183Y0111298D02*
D03*
X0411516Y0134668D02*
D03*
D498*
X0337795Y0103240D02*
D03*
X0344095Y0103240D02*
D03*
X0374409Y0101862D02*
D03*
X0380709Y0101862D02*
D03*
X0374409Y0106488D02*
D03*
X0380709Y0106488D02*
D03*
D495*
X0402264Y0138409D02*
D03*
X0393183Y0118778D02*
D03*
X0383931Y0115038D02*
D03*
X0385443Y0094343D02*
D03*
X0394695Y0098083D02*
D03*
X0411516Y0142149D02*
D03*
D223*
X0347087Y0177945D02*
D03*
X0332874Y0177945D02*
D03*
X0362874Y0177945D02*
D03*
D224*
X0309882Y0100386D02*
D03*
X0329882Y0104386D02*
D03*
X0329882Y0096386D02*
D03*
D37*
X0420669Y0094677D02*
D03*
D513*
X0376969Y0111685D02*
D03*
X0376969Y0117906D02*
D03*
D514*
X0347539Y0182473D02*
D03*
X0347539Y0189559D02*
D03*
X0357579Y0189559D02*
D03*
X0357579Y0182473D02*
D03*
X0375492Y0189559D02*
D03*
X0403445Y0189559D02*
D03*
X0385531Y0193496D02*
D03*
X0330413Y0218693D02*
D03*
X0330413Y0211607D02*
D03*
X0320374Y0211607D02*
D03*
X0320374Y0218693D02*
D03*
X0413484Y0200583D02*
D03*
X0413484Y0193496D02*
D03*
X0403445Y0193496D02*
D03*
X0403445Y0200583D02*
D03*
X0403445Y0182473D02*
D03*
X0413484Y0189559D02*
D03*
X0413484Y0182473D02*
D03*
X0385531Y0200583D02*
D03*
X0375492Y0193496D02*
D03*
X0375492Y0200583D02*
D03*
X0375492Y0182473D02*
D03*
X0385531Y0189559D02*
D03*
X0385531Y0182473D02*
D03*
X0384547Y0224402D02*
D03*
X0384547Y0217315D02*
D03*
X0394587Y0217315D02*
D03*
X0394587Y0224402D02*
D03*
X0403445Y0224402D02*
D03*
X0403445Y0217315D02*
D03*
X0413484Y0217315D02*
D03*
X0413484Y0224402D02*
D03*
X0365649Y0224402D02*
D03*
X0365649Y0217315D02*
D03*
X0375689Y0217315D02*
D03*
X0375689Y0224402D02*
D03*
X0346752Y0224402D02*
D03*
X0346752Y0217315D02*
D03*
X0356791Y0217315D02*
D03*
X0356791Y0224402D02*
D03*
X0347539Y0200583D02*
D03*
X0347539Y0193496D02*
D03*
X0357579Y0193496D02*
D03*
X0357579Y0200583D02*
D03*
X0319980Y0200583D02*
D03*
X0319980Y0193496D02*
D03*
X0330020Y0193496D02*
D03*
X0330020Y0200583D02*
D03*
X0330020Y0182473D02*
D03*
X0330020Y0189559D02*
D03*
X0319980Y0189559D02*
D03*
X0319980Y0182473D02*
D03*
D515*
X0354134Y0189559D02*
D03*
X0350984Y0189559D02*
D03*
X0350984Y0182473D02*
D03*
X0354134Y0182473D02*
D03*
X0378937Y0189559D02*
D03*
X0406890Y0189559D02*
D03*
X0382087Y0193496D02*
D03*
X0323819Y0211607D02*
D03*
X0326968Y0211607D02*
D03*
X0326968Y0218693D02*
D03*
X0323819Y0218693D02*
D03*
X0406890Y0193496D02*
D03*
X0410039Y0193496D02*
D03*
X0410039Y0200583D02*
D03*
X0406890Y0200583D02*
D03*
X0410039Y0189559D02*
D03*
X0406890Y0182473D02*
D03*
X0410039Y0182473D02*
D03*
X0378937Y0193496D02*
D03*
X0382087Y0200583D02*
D03*
X0378937Y0200583D02*
D03*
X0382086Y0189559D02*
D03*
X0378937Y0182473D02*
D03*
X0382086Y0182473D02*
D03*
X0387992Y0224402D02*
D03*
X0391142Y0224402D02*
D03*
X0391142Y0217315D02*
D03*
X0387992Y0217315D02*
D03*
X0406889Y0224402D02*
D03*
X0410039Y0224402D02*
D03*
X0410039Y0217315D02*
D03*
X0406889Y0217315D02*
D03*
X0369094Y0224402D02*
D03*
X0372244Y0224402D02*
D03*
X0372244Y0217315D02*
D03*
X0369094Y0217315D02*
D03*
X0350197Y0224402D02*
D03*
X0353346Y0224402D02*
D03*
X0353346Y0217315D02*
D03*
X0350197Y0217315D02*
D03*
X0350984Y0200583D02*
D03*
X0354134Y0200583D02*
D03*
X0354134Y0193496D02*
D03*
X0350984Y0193496D02*
D03*
X0323425Y0200583D02*
D03*
X0326575Y0200583D02*
D03*
X0326575Y0193496D02*
D03*
X0323425Y0193496D02*
D03*
X0326575Y0182473D02*
D03*
X0323425Y0182473D02*
D03*
X0323425Y0189559D02*
D03*
X0326575Y0189559D02*
D03*
D516*
X0315197Y0105209D02*
D03*
X0315197Y0100219D02*
D03*
X0321417Y0100219D02*
D03*
X0321417Y0105209D02*
D03*
D517*
X0302559Y0112099D02*
D03*
X0335236Y0112099D02*
D03*
X0302559Y0166232D02*
D03*
X0335236Y0166232D02*
D03*
D518*
X0312795Y0130130D02*
D03*
X0312795Y0121469D02*
D03*
X0312795Y0125799D02*
D03*
X0312795Y0134461D02*
D03*
X0312795Y0138792D02*
D03*
X0312795Y0143122D02*
D03*
X0312795Y0147453D02*
D03*
X0312795Y0151784D02*
D03*
D519*
X0294488Y0210740D02*
D03*
X0307692Y0210740D02*
D03*
X0301969Y0218772D02*
D03*
X0315172Y0218772D02*
D03*
X0298228Y0201488D02*
D03*
X0311432Y0201488D02*
D03*
X0311432Y0228024D02*
D03*
X0399606Y0113103D02*
D03*
X0403346Y0103851D02*
D03*
X0298228Y0228024D02*
D03*
D249*
X0300565Y0184967D02*
D03*
X0304502Y0184967D02*
D03*
X0300565Y0190971D02*
D03*
X0302533Y0190971D02*
D03*
X0302533Y0184967D02*
D03*
X0304502Y0190971D02*
D03*
D520*
X0391130Y0128319D02*
D03*
X0396248Y0128319D02*
D03*
X0393689Y0128319D02*
D03*
X0391130Y0135800D02*
D03*
X0396248Y0135800D02*
D03*
D251*
X0387913Y0147827D02*
D03*
X0410905Y0150386D02*
D03*
X0410905Y0147827D02*
D03*
X0387913Y0170858D02*
D03*
X0410905Y0173417D02*
D03*
X0410905Y0175977D02*
D03*
X0410905Y0170858D02*
D03*
X0410905Y0168299D02*
D03*
X0410905Y0165740D02*
D03*
X0410905Y0163181D02*
D03*
X0410905Y0160622D02*
D03*
X0410905Y0158063D02*
D03*
X0410905Y0155504D02*
D03*
X0410905Y0152945D02*
D03*
X0387913Y0175977D02*
D03*
X0387913Y0173417D02*
D03*
X0387913Y0168299D02*
D03*
X0387913Y0165740D02*
D03*
X0387913Y0163181D02*
D03*
X0387913Y0160622D02*
D03*
X0387913Y0158063D02*
D03*
X0387913Y0155504D02*
D03*
X0387913Y0152945D02*
D03*
X0387913Y0150386D02*
D03*
D521*
X0413976Y0110240D02*
D03*
X0413976Y0098822D02*
D03*
D522*
X0355886Y0108105D02*
D03*
X0368878Y0108105D02*
D03*
X0419963Y0119305D02*
D03*
X0406971Y0119305D02*
D03*
D254*
X0357111Y0133510D02*
D03*
X0357111Y0148077D02*
D03*
D255*
X0305535Y0188953D02*
D03*
X0305535Y0186985D02*
D03*
X0299531Y0186985D02*
D03*
X0299531Y0188953D02*
D03*
D523*
X0370522Y0120987D02*
D03*
X0364617Y0120987D02*
D03*
D519*
X0301969Y0210740D02*
D03*
X0315172Y0210740D02*
D03*
X0307692Y0218772D02*
D03*
X0407087Y0113103D02*
D03*
X0294488Y0218772D02*
D03*
D257*
X0367719Y0171646D02*
D03*
X0361026Y0171646D02*
D03*
D524*
X0351358Y0098109D02*
D03*
X0362775Y0098109D02*
D03*
D525*
X0420275Y0132473D02*
D03*
X0420275Y0138772D02*
D03*
X0016437Y0138772D02*
%LPD*%
G01*
D154*
X0028051Y0047591D03*
X0039862Y0055465D03*
X0028051Y0063339D03*
D167*
X0027264Y0134599D03*
X0023264Y0114599D03*
X0031264Y0114599D03*
D391*
X0066142Y0045111D03*
D392*
X0066142Y0055111D03*
X0066142Y0065111D03*
G36*
G01*
X0023796Y0059067D02*
X0025154Y0059067D01*
G75*
G02*
X0025735Y0058487I0000000J-000581D01*
G01*
X0025735Y0057325D01*
G75*
G02*
X0025154Y0056744I-000581J0000000D01*
G01*
X0023796Y0056744D01*
G75*
G02*
X0023215Y0057325I0000000J0000581D01*
G01*
X0023215Y0058487D01*
G75*
G02*
X0023796Y0059067I0000581J0000000D01*
G01*
G37*
G36*
G01*
X0023796Y0055248D02*
X0025154Y0055248D01*
G75*
G02*
X0025735Y0054668I0000000J-000581D01*
G01*
X0025735Y0053506D01*
G75*
G02*
X0025154Y0052926I-000581J0000000D01*
G01*
X0023796Y0052926D01*
G75*
G02*
X0023215Y0053506I0000000J0000581D01*
G01*
X0023215Y0054668D01*
G75*
G02*
X0023796Y0055248I0000581J0000000D01*
G01*
G37*
G36*
G01*
X0039085Y0044599D02*
X0040443Y0044599D01*
G75*
G02*
X0041024Y0044018I0000000J-000581D01*
G01*
X0041024Y0042857D01*
G75*
G02*
X0040443Y0042276I-000581J0000000D01*
G01*
X0039085Y0042276D01*
G75*
G02*
X0038504Y0042857I0000000J0000581D01*
G01*
X0038504Y0044018D01*
G75*
G02*
X0039085Y0044599I0000581J0000000D01*
G01*
G37*
G36*
G01*
X0039085Y0040780D02*
X0040443Y0040780D01*
G75*
G02*
X0041024Y0040199I0000000J-000581D01*
G01*
X0041024Y0039038D01*
G75*
G02*
X0040443Y0038457I-000581J0000000D01*
G01*
X0039085Y0038457D01*
G75*
G02*
X0038504Y0039038I0000000J0000581D01*
G01*
X0038504Y0040199D01*
G75*
G02*
X0039085Y0040780I0000581J0000000D01*
G01*
G37*
G36*
G01*
X0065281Y0094481D02*
X0063263Y0094481D01*
G75*
G02*
X0062402Y0095342I0000000J0000861D01*
G01*
X0062402Y0097064D01*
G75*
G02*
X0063263Y0097926I0000861J0000000D01*
G01*
X0065281Y0097926D01*
G75*
G02*
X0066142Y0097064I0000000J-000861D01*
G01*
X0066142Y0095342D01*
G75*
G02*
X0065281Y0094481I-000861J0000000D01*
G01*
G37*
G36*
G01*
X0065281Y0100681D02*
X0063263Y0100681D01*
G75*
G02*
X0062402Y0101543I0000000J0000861D01*
G01*
X0062402Y0103265D01*
G75*
G02*
X0063263Y0104126I0000861J0000000D01*
G01*
X0065281Y0104126D01*
G75*
G02*
X0066142Y0103265I0000000J-000861D01*
G01*
X0066142Y0101543D01*
G75*
G02*
X0065281Y0100681I-000861J0000000D01*
G01*
G37*
G36*
G01*
X0020955Y0052926D02*
X0019596Y0052926D01*
G75*
G02*
X0019016Y0053506I0000000J0000581D01*
G01*
X0019016Y0054668D01*
G75*
G02*
X0019596Y0055248I0000581J0000000D01*
G01*
X0020955Y0055248D01*
G75*
G02*
X0021535Y0054668I0000000J-000581D01*
G01*
X0021535Y0053506D01*
G75*
G02*
X0020955Y0052926I-000581J0000000D01*
G01*
G37*
G36*
G01*
X0020955Y0056744D02*
X0019596Y0056744D01*
G75*
G02*
X0019016Y0057325I0000000J0000581D01*
G01*
X0019016Y0058487D01*
G75*
G02*
X0019596Y0059067I0000581J0000000D01*
G01*
X0020955Y0059067D01*
G75*
G02*
X0021535Y0058487I0000000J-000581D01*
G01*
X0021535Y0057325D01*
G75*
G02*
X0020955Y0056744I-000581J0000000D01*
G01*
G37*
G36*
G01*
X0059951Y0112627D02*
X0061309Y0112627D01*
G75*
G02*
X0061890Y0112047I0000000J-000581D01*
G01*
X0061890Y0110885D01*
G75*
G02*
X0061309Y0110305I-000581J0000000D01*
G01*
X0059951Y0110305D01*
G75*
G02*
X0059370Y0110885I0000000J0000581D01*
G01*
X0059370Y0112047D01*
G75*
G02*
X0059951Y0112627I0000581J0000000D01*
G01*
G37*
G36*
G01*
X0059951Y0108809D02*
X0061309Y0108809D01*
G75*
G02*
X0061890Y0108228I0000000J-000581D01*
G01*
X0061890Y0107066D01*
G75*
G02*
X0061309Y0106486I-000581J0000000D01*
G01*
X0059951Y0106486D01*
G75*
G02*
X0059370Y0107066I0000000J0000581D01*
G01*
X0059370Y0108228D01*
G75*
G02*
X0059951Y0108809I0000581J0000000D01*
G01*
G37*
G36*
G01*
X0058081Y0104540D02*
X0059439Y0104540D01*
G75*
G02*
X0060020Y0103959I0000000J-000581D01*
G01*
X0060020Y0102798D01*
G75*
G02*
X0059439Y0102217I-000581J0000000D01*
G01*
X0058081Y0102217D01*
G75*
G02*
X0057500Y0102798I0000000J0000581D01*
G01*
X0057500Y0103959D01*
G75*
G02*
X0058081Y0104540I0000581J0000000D01*
G01*
G37*
G36*
G01*
X0058081Y0100721D02*
X0059439Y0100721D01*
G75*
G02*
X0060020Y0100140I0000000J-000581D01*
G01*
X0060020Y0098979D01*
G75*
G02*
X0059439Y0098398I-000581J0000000D01*
G01*
X0058081Y0098398D01*
G75*
G02*
X0057500Y0098979I0000000J0000581D01*
G01*
X0057500Y0100140D01*
G75*
G02*
X0058081Y0100721I0000581J0000000D01*
G01*
G37*
G36*
G01*
X0065413Y0133152D02*
X0065413Y0131794D01*
G75*
G02*
X0064833Y0131213I-000581J0000000D01*
G01*
X0063671Y0131213D01*
G75*
G02*
X0063091Y0131794I0000000J0000581D01*
G01*
X0063091Y0133152D01*
G75*
G02*
X0063671Y0133733I0000581J0000000D01*
G01*
X0064833Y0133733D01*
G75*
G02*
X0065413Y0133152I0000000J-000581D01*
G01*
G37*
G36*
G01*
X0061594Y0133152D02*
X0061594Y0131794D01*
G75*
G02*
X0061014Y0131213I-000581J0000000D01*
G01*
X0059852Y0131213D01*
G75*
G02*
X0059272Y0131794I0000000J0000581D01*
G01*
X0059272Y0133152D01*
G75*
G02*
X0059852Y0133733I0000581J0000000D01*
G01*
X0061014Y0133733D01*
G75*
G02*
X0061594Y0133152I0000000J-000581D01*
G01*
G37*
G36*
G01*
X0047825Y0083634D02*
X0046467Y0083634D01*
G75*
G02*
X0045886Y0084215I0000000J0000581D01*
G01*
X0045886Y0085376D01*
G75*
G02*
X0046467Y0085957I0000581J0000000D01*
G01*
X0047825Y0085957D01*
G75*
G02*
X0048406Y0085376I0000000J-000581D01*
G01*
X0048406Y0084215D01*
G75*
G02*
X0047825Y0083634I-000581J0000000D01*
G01*
G37*
G36*
G01*
X0047825Y0087453D02*
X0046467Y0087453D01*
G75*
G02*
X0045886Y0088034I0000000J0000581D01*
G01*
X0045886Y0089195D01*
G75*
G02*
X0046467Y0089776I0000581J0000000D01*
G01*
X0047825Y0089776D01*
G75*
G02*
X0048406Y0089195I0000000J-000581D01*
G01*
X0048406Y0088034D01*
G75*
G02*
X0047825Y0087453I-000581J0000000D01*
G01*
G37*
G36*
G01*
X0042530Y0089776D02*
X0043888Y0089776D01*
G75*
G02*
X0044468Y0089195I0000000J-000581D01*
G01*
X0044468Y0088034D01*
G75*
G02*
X0043888Y0087453I-000581J0000000D01*
G01*
X0042530Y0087453D01*
G75*
G02*
X0041949Y0088034I0000000J0000581D01*
G01*
X0041949Y0089195D01*
G75*
G02*
X0042530Y0089776I0000581J0000000D01*
G01*
G37*
G36*
G01*
X0042530Y0085957D02*
X0043888Y0085957D01*
G75*
G02*
X0044468Y0085376I0000000J-000581D01*
G01*
X0044468Y0084215D01*
G75*
G02*
X0043888Y0083634I-000581J0000000D01*
G01*
X0042530Y0083634D01*
G75*
G02*
X0041949Y0084215I0000000J0000581D01*
G01*
X0041949Y0085376D01*
G75*
G02*
X0042530Y0085957I0000581J0000000D01*
G01*
G37*
G36*
G01*
X0044970Y0042296D02*
X0043612Y0042296D01*
G75*
G02*
X0043031Y0042876I0000000J0000581D01*
G01*
X0043031Y0044038D01*
G75*
G02*
X0043612Y0044618I0000581J0000000D01*
G01*
X0044970Y0044618D01*
G75*
G02*
X0045551Y0044038I0000000J-000581D01*
G01*
X0045551Y0042876D01*
G75*
G02*
X0044970Y0042296I-000581J0000000D01*
G01*
G37*
G36*
G01*
X0044970Y0046115D02*
X0043612Y0046115D01*
G75*
G02*
X0043031Y0046695I0000000J0000581D01*
G01*
X0043031Y0047857D01*
G75*
G02*
X0043612Y0048437I0000581J0000000D01*
G01*
X0044970Y0048437D01*
G75*
G02*
X0045551Y0047857I0000000J-000581D01*
G01*
X0045551Y0046695D01*
G75*
G02*
X0044970Y0046115I-000581J0000000D01*
G01*
G37*
D394*
X0021555Y0096646D03*
X0024114Y0096646D03*
X0026673Y0096646D03*
X0029232Y0096646D03*
X0031791Y0096646D03*
X0034350Y0096646D03*
X0036909Y0096646D03*
X0036909Y0073418D03*
X0034350Y0073418D03*
X0031791Y0073418D03*
X0029232Y0073418D03*
X0026673Y0073418D03*
X0024114Y0073418D03*
X0021555Y0073418D03*
G36*
G01*
X0065049Y0106469D02*
X0063691Y0106469D01*
G75*
G02*
X0063110Y0107050I0000000J0000581D01*
G01*
X0063110Y0108211D01*
G75*
G02*
X0063691Y0108792I0000581J0000000D01*
G01*
X0065049Y0108792D01*
G75*
G02*
X0065630Y0108211I0000000J-000581D01*
G01*
X0065630Y0107050D01*
G75*
G02*
X0065049Y0106469I-000581J0000000D01*
G01*
G37*
G36*
G01*
X0065049Y0110288D02*
X0063691Y0110288D01*
G75*
G02*
X0063110Y0110868I0000000J0000581D01*
G01*
X0063110Y0112030D01*
G75*
G02*
X0063691Y0112611I0000581J0000000D01*
G01*
X0065049Y0112611D01*
G75*
G02*
X0065630Y0112030I0000000J-000581D01*
G01*
X0065630Y0110868D01*
G75*
G02*
X0065049Y0110288I-000581J0000000D01*
G01*
G37*
G36*
G01*
X0067431Y0112611D02*
X0068789Y0112611D01*
G75*
G02*
X0069370Y0112030I0000000J-000581D01*
G01*
X0069370Y0110868D01*
G75*
G02*
X0068789Y0110288I-000581J0000000D01*
G01*
X0067431Y0110288D01*
G75*
G02*
X0066850Y0110868I0000000J0000581D01*
G01*
X0066850Y0112030D01*
G75*
G02*
X0067431Y0112611I0000581J0000000D01*
G01*
G37*
G36*
G01*
X0067431Y0108792D02*
X0068789Y0108792D01*
G75*
G02*
X0069370Y0108211I0000000J-000581D01*
G01*
X0069370Y0107050D01*
G75*
G02*
X0068789Y0106469I-000581J0000000D01*
G01*
X0067431Y0106469D01*
G75*
G02*
X0066850Y0107050I0000000J0000581D01*
G01*
X0066850Y0108211D01*
G75*
G02*
X0067431Y0108792I0000581J0000000D01*
G01*
G37*
G36*
G01*
X0057982Y0052374D02*
X0059341Y0052374D01*
G75*
G02*
X0059921Y0051794I0000000J-000581D01*
G01*
X0059921Y0050632D01*
G75*
G02*
X0059341Y0050052I-000581J0000000D01*
G01*
X0057982Y0050052D01*
G75*
G02*
X0057402Y0050632I0000000J0000581D01*
G01*
X0057402Y0051794D01*
G75*
G02*
X0057982Y0052374I0000581J0000000D01*
G01*
G37*
G36*
G01*
X0057982Y0048555D02*
X0059341Y0048555D01*
G75*
G02*
X0059921Y0047975I0000000J-000581D01*
G01*
X0059921Y0046813D01*
G75*
G02*
X0059341Y0046233I-000581J0000000D01*
G01*
X0057982Y0046233D01*
G75*
G02*
X0057402Y0046813I0000000J0000581D01*
G01*
X0057402Y0047975D01*
G75*
G02*
X0057982Y0048555I0000581J0000000D01*
G01*
G37*
G36*
G01*
X0028684Y0059067D02*
X0030043Y0059067D01*
G75*
G02*
X0030623Y0058487I0000000J-000581D01*
G01*
X0030623Y0057325D01*
G75*
G02*
X0030043Y0056744I-000581J0000000D01*
G01*
X0028684Y0056744D01*
G75*
G02*
X0028104Y0057325I0000000J0000581D01*
G01*
X0028104Y0058487D01*
G75*
G02*
X0028684Y0059067I0000581J0000000D01*
G01*
G37*
G36*
G01*
X0028684Y0055248D02*
X0030043Y0055248D01*
G75*
G02*
X0030623Y0054668I0000000J-000581D01*
G01*
X0030623Y0053506D01*
G75*
G02*
X0030043Y0052926I-000581J0000000D01*
G01*
X0028684Y0052926D01*
G75*
G02*
X0028104Y0053506I0000000J0000581D01*
G01*
X0028104Y0054668D01*
G75*
G02*
X0028684Y0055248I0000581J0000000D01*
G01*
G37*
G36*
G01*
X0051762Y0086882D02*
X0050404Y0086882D01*
G75*
G02*
X0049823Y0087463I0000000J0000581D01*
G01*
X0049823Y0088624D01*
G75*
G02*
X0050404Y0089205I0000581J0000000D01*
G01*
X0051762Y0089205D01*
G75*
G02*
X0052343Y0088624I0000000J-000581D01*
G01*
X0052343Y0087463D01*
G75*
G02*
X0051762Y0086882I-000581J0000000D01*
G01*
G37*
G36*
G01*
X0051762Y0090701D02*
X0050404Y0090701D01*
G75*
G02*
X0049823Y0091282I0000000J0000581D01*
G01*
X0049823Y0092443D01*
G75*
G02*
X0050404Y0093024I0000581J0000000D01*
G01*
X0051762Y0093024D01*
G75*
G02*
X0052343Y0092443I0000000J-000581D01*
G01*
X0052343Y0091282D01*
G75*
G02*
X0051762Y0090701I-000581J0000000D01*
G01*
G37*
G36*
G01*
X0059341Y0038555D02*
X0057982Y0038555D01*
G75*
G02*
X0057402Y0039136I0000000J0000581D01*
G01*
X0057402Y0040298D01*
G75*
G02*
X0057982Y0040878I0000581J0000000D01*
G01*
X0059341Y0040878D01*
G75*
G02*
X0059921Y0040298I0000000J-000581D01*
G01*
X0059921Y0039136D01*
G75*
G02*
X0059341Y0038555I-000581J0000000D01*
G01*
G37*
G36*
G01*
X0059341Y0042374D02*
X0057982Y0042374D01*
G75*
G02*
X0057402Y0042955I0000000J0000581D01*
G01*
X0057402Y0044116D01*
G75*
G02*
X0057982Y0044697I0000581J0000000D01*
G01*
X0059341Y0044697D01*
G75*
G02*
X0059921Y0044116I0000000J-000581D01*
G01*
X0059921Y0042955D01*
G75*
G02*
X0059341Y0042374I-000581J0000000D01*
G01*
G37*
G36*
G01*
X0043888Y0091016D02*
X0042530Y0091016D01*
G75*
G02*
X0041949Y0091597I0000000J0000581D01*
G01*
X0041949Y0092758D01*
G75*
G02*
X0042530Y0093339I0000581J0000000D01*
G01*
X0043888Y0093339D01*
G75*
G02*
X0044468Y0092758I0000000J-000581D01*
G01*
X0044468Y0091597D01*
G75*
G02*
X0043888Y0091016I-000581J0000000D01*
G01*
G37*
G36*
G01*
X0043888Y0094835D02*
X0042530Y0094835D01*
G75*
G02*
X0041949Y0095416I0000000J0000581D01*
G01*
X0041949Y0096577D01*
G75*
G02*
X0042530Y0097158I0000581J0000000D01*
G01*
X0043888Y0097158D01*
G75*
G02*
X0044468Y0096577I0000000J-000581D01*
G01*
X0044468Y0095416D01*
G75*
G02*
X0043888Y0094835I-000581J0000000D01*
G01*
G37*
G36*
G01*
X0019272Y0102266D02*
X0019272Y0103624D01*
G75*
G02*
X0019852Y0104205I0000581J0000000D01*
G01*
X0021014Y0104205D01*
G75*
G02*
X0021594Y0103624I0000000J-000581D01*
G01*
X0021594Y0102266D01*
G75*
G02*
X0021014Y0101685I-000581J0000000D01*
G01*
X0019852Y0101685D01*
G75*
G02*
X0019272Y0102266I0000000J0000581D01*
G01*
G37*
G36*
G01*
X0023091Y0102266D02*
X0023091Y0103624D01*
G75*
G02*
X0023671Y0104205I0000581J0000000D01*
G01*
X0024833Y0104205D01*
G75*
G02*
X0025413Y0103624I0000000J-000581D01*
G01*
X0025413Y0102266D01*
G75*
G02*
X0024833Y0101685I-000581J0000000D01*
G01*
X0023671Y0101685D01*
G75*
G02*
X0023091Y0102266I0000000J0000581D01*
G01*
G37*
G36*
G01*
X0047825Y0076154D02*
X0046467Y0076154D01*
G75*
G02*
X0045886Y0076735I0000000J0000581D01*
G01*
X0045886Y0077896D01*
G75*
G02*
X0046467Y0078477I0000581J0000000D01*
G01*
X0047825Y0078477D01*
G75*
G02*
X0048406Y0077896I0000000J-000581D01*
G01*
X0048406Y0076735D01*
G75*
G02*
X0047825Y0076154I-000581J0000000D01*
G01*
G37*
G36*
G01*
X0047825Y0079973D02*
X0046467Y0079973D01*
G75*
G02*
X0045886Y0080553I0000000J0000581D01*
G01*
X0045886Y0081715D01*
G75*
G02*
X0046467Y0082296I0000581J0000000D01*
G01*
X0047825Y0082296D01*
G75*
G02*
X0048406Y0081715I0000000J-000581D01*
G01*
X0048406Y0080553D01*
G75*
G02*
X0047825Y0079973I-000581J0000000D01*
G01*
G37*
G36*
G01*
X0046467Y0074815D02*
X0047825Y0074815D01*
G75*
G02*
X0048406Y0074235I0000000J-000581D01*
G01*
X0048406Y0073073D01*
G75*
G02*
X0047825Y0072492I-000581J0000000D01*
G01*
X0046467Y0072492D01*
G75*
G02*
X0045886Y0073073I0000000J0000581D01*
G01*
X0045886Y0074235D01*
G75*
G02*
X0046467Y0074815I0000581J0000000D01*
G01*
G37*
G36*
G01*
X0046467Y0070996D02*
X0047825Y0070996D01*
G75*
G02*
X0048406Y0070416I0000000J-000581D01*
G01*
X0048406Y0069254D01*
G75*
G02*
X0047825Y0068674I-000581J0000000D01*
G01*
X0046467Y0068674D01*
G75*
G02*
X0045886Y0069254I0000000J0000581D01*
G01*
X0045886Y0070416D01*
G75*
G02*
X0046467Y0070996I0000581J0000000D01*
G01*
G37*
G36*
G01*
X0019272Y0106006D02*
X0019272Y0107365D01*
G75*
G02*
X0019852Y0107945I0000581J0000000D01*
G01*
X0021014Y0107945D01*
G75*
G02*
X0021594Y0107365I0000000J-000581D01*
G01*
X0021594Y0106006D01*
G75*
G02*
X0021014Y0105426I-000581J0000000D01*
G01*
X0019852Y0105426D01*
G75*
G02*
X0019272Y0106006I0000000J0000581D01*
G01*
G37*
G36*
G01*
X0023091Y0106006D02*
X0023091Y0107365D01*
G75*
G02*
X0023671Y0107945I0000581J0000000D01*
G01*
X0024833Y0107945D01*
G75*
G02*
X0025413Y0107365I0000000J-000581D01*
G01*
X0025413Y0106006D01*
G75*
G02*
X0024833Y0105426I-000581J0000000D01*
G01*
X0023671Y0105426D01*
G75*
G02*
X0023091Y0106006I0000000J0000581D01*
G01*
G37*
D395*
X0068110Y0116685D03*
X0064370Y0116685D03*
X0060630Y0116685D03*
X0060630Y0127000D03*
X0068110Y0127000D03*
G36*
G01*
X0050404Y0082197D02*
X0051762Y0082197D01*
G75*
G02*
X0052343Y0081616I0000000J-000581D01*
G01*
X0052343Y0080455D01*
G75*
G02*
X0051762Y0079874I-000581J0000000D01*
G01*
X0050404Y0079874D01*
G75*
G02*
X0049823Y0080455I0000000J0000581D01*
G01*
X0049823Y0081616D01*
G75*
G02*
X0050404Y0082197I0000581J0000000D01*
G01*
G37*
G36*
G01*
X0050404Y0078378D02*
X0051762Y0078378D01*
G75*
G02*
X0052343Y0077798I0000000J-000581D01*
G01*
X0052343Y0076636D01*
G75*
G02*
X0051762Y0076055I-000581J0000000D01*
G01*
X0050404Y0076055D01*
G75*
G02*
X0049823Y0076636I0000000J0000581D01*
G01*
X0049823Y0077798D01*
G75*
G02*
X0050404Y0078378I0000581J0000000D01*
G01*
G37*
G36*
G01*
X0054508Y0094786D02*
X0054508Y0096144D01*
G75*
G02*
X0055089Y0096725I0000581J0000000D01*
G01*
X0056250Y0096725D01*
G75*
G02*
X0056831Y0096144I0000000J-000581D01*
G01*
X0056831Y0094786D01*
G75*
G02*
X0056250Y0094205I-000581J0000000D01*
G01*
X0055089Y0094205D01*
G75*
G02*
X0054508Y0094786I0000000J0000581D01*
G01*
G37*
G36*
G01*
X0058327Y0094786D02*
X0058327Y0096144D01*
G75*
G02*
X0058907Y0096725I0000581J0000000D01*
G01*
X0060069Y0096725D01*
G75*
G02*
X0060650Y0096144I0000000J-000581D01*
G01*
X0060650Y0094786D01*
G75*
G02*
X0060069Y0094205I-000581J0000000D01*
G01*
X0058907Y0094205D01*
G75*
G02*
X0058327Y0094786I0000000J0000581D01*
G01*
G37*
G36*
G01*
X0034075Y0103624D02*
X0034075Y0102266D01*
G75*
G02*
X0033494Y0101685I-000581J0000000D01*
G01*
X0032333Y0101685D01*
G75*
G02*
X0031752Y0102266I0000000J0000581D01*
G01*
X0031752Y0103624D01*
G75*
G02*
X0032333Y0104205I0000581J0000000D01*
G01*
X0033494Y0104205D01*
G75*
G02*
X0034075Y0103624I0000000J-000581D01*
G01*
G37*
G36*
G01*
X0030256Y0103624D02*
X0030256Y0102266D01*
G75*
G02*
X0029675Y0101685I-000581J0000000D01*
G01*
X0028514Y0101685D01*
G75*
G02*
X0027933Y0102266I0000000J0000581D01*
G01*
X0027933Y0103624D01*
G75*
G02*
X0028514Y0104205I0000581J0000000D01*
G01*
X0029675Y0104205D01*
G75*
G02*
X0030256Y0103624I0000000J-000581D01*
G01*
G37*
G36*
G01*
X0035030Y0060504D02*
X0033671Y0060504D01*
G75*
G02*
X0033091Y0061085I0000000J0000581D01*
G01*
X0033091Y0062246D01*
G75*
G02*
X0033671Y0062827I0000581J0000000D01*
G01*
X0035030Y0062827D01*
G75*
G02*
X0035610Y0062246I0000000J-000581D01*
G01*
X0035610Y0061085D01*
G75*
G02*
X0035030Y0060504I-000581J0000000D01*
G01*
G37*
G36*
G01*
X0035030Y0064323D02*
X0033671Y0064323D01*
G75*
G02*
X0033091Y0064904I0000000J0000581D01*
G01*
X0033091Y0066065D01*
G75*
G02*
X0033671Y0066646I0000581J0000000D01*
G01*
X0035030Y0066646D01*
G75*
G02*
X0035610Y0066065I0000000J-000581D01*
G01*
X0035610Y0064904D01*
G75*
G02*
X0035030Y0064323I-000581J0000000D01*
G01*
G37*
G36*
G01*
X0035030Y0052926D02*
X0033671Y0052926D01*
G75*
G02*
X0033091Y0053506I0000000J0000581D01*
G01*
X0033091Y0054668D01*
G75*
G02*
X0033671Y0055248I0000581J0000000D01*
G01*
X0035030Y0055248D01*
G75*
G02*
X0035610Y0054668I0000000J-000581D01*
G01*
X0035610Y0053506D01*
G75*
G02*
X0035030Y0052926I-000581J0000000D01*
G01*
G37*
G36*
G01*
X0035030Y0056744D02*
X0033671Y0056744D01*
G75*
G02*
X0033091Y0057325I0000000J0000581D01*
G01*
X0033091Y0058487D01*
G75*
G02*
X0033671Y0059067I0000581J0000000D01*
G01*
X0035030Y0059067D01*
G75*
G02*
X0035610Y0058487I0000000J-000581D01*
G01*
X0035610Y0057325D01*
G75*
G02*
X0035030Y0056744I-000581J0000000D01*
G01*
G37*
G36*
G01*
X0034075Y0107365D02*
X0034075Y0106006D01*
G75*
G02*
X0033494Y0105426I-000581J0000000D01*
G01*
X0032333Y0105426D01*
G75*
G02*
X0031752Y0106006I0000000J0000581D01*
G01*
X0031752Y0107365D01*
G75*
G02*
X0032333Y0107945I0000581J0000000D01*
G01*
X0033494Y0107945D01*
G75*
G02*
X0034075Y0107365I0000000J-000581D01*
G01*
G37*
G36*
G01*
X0030256Y0107365D02*
X0030256Y0106006D01*
G75*
G02*
X0029675Y0105426I-000581J0000000D01*
G01*
X0028514Y0105426D01*
G75*
G02*
X0027933Y0106006I0000000J0000581D01*
G01*
X0027933Y0107365D01*
G75*
G02*
X0028514Y0107945I0000581J0000000D01*
G01*
X0029675Y0107945D01*
G75*
G02*
X0030256Y0107365I0000000J-000581D01*
G01*
G37*
G36*
G01*
X0043888Y0073004D02*
X0042530Y0073004D01*
G75*
G02*
X0041949Y0073585I0000000J0000581D01*
G01*
X0041949Y0074746D01*
G75*
G02*
X0042530Y0075327I0000581J0000000D01*
G01*
X0043888Y0075327D01*
G75*
G02*
X0044468Y0074746I0000000J-000581D01*
G01*
X0044468Y0073585D01*
G75*
G02*
X0043888Y0073004I-000581J0000000D01*
G01*
G37*
G36*
G01*
X0043888Y0076823D02*
X0042530Y0076823D01*
G75*
G02*
X0041949Y0077404I0000000J0000581D01*
G01*
X0041949Y0078565D01*
G75*
G02*
X0042530Y0079146I0000581J0000000D01*
G01*
X0043888Y0079146D01*
G75*
G02*
X0044468Y0078565I0000000J-000581D01*
G01*
X0044468Y0077404D01*
G75*
G02*
X0043888Y0076823I-000581J0000000D01*
G01*
G37*
G36*
G01*
X0034075Y0111105D02*
X0034075Y0109746D01*
G75*
G02*
X0033494Y0109166I-000581J0000000D01*
G01*
X0032333Y0109166D01*
G75*
G02*
X0031752Y0109746I0000000J0000581D01*
G01*
X0031752Y0111105D01*
G75*
G02*
X0032333Y0111685I0000581J0000000D01*
G01*
X0033494Y0111685D01*
G75*
G02*
X0034075Y0111105I0000000J-000581D01*
G01*
G37*
G36*
G01*
X0030256Y0111105D02*
X0030256Y0109746D01*
G75*
G02*
X0029675Y0109166I-000581J0000000D01*
G01*
X0028514Y0109166D01*
G75*
G02*
X0027933Y0109746I0000000J0000581D01*
G01*
X0027933Y0111105D01*
G75*
G02*
X0028514Y0111685I0000581J0000000D01*
G01*
X0029675Y0111685D01*
G75*
G02*
X0030256Y0111105I0000000J-000581D01*
G01*
G37*
G36*
G01*
X0025413Y0111105D02*
X0025413Y0109746D01*
G75*
G02*
X0024833Y0109166I-000581J0000000D01*
G01*
X0023671Y0109166D01*
G75*
G02*
X0023091Y0109746I0000000J0000581D01*
G01*
X0023091Y0111105D01*
G75*
G02*
X0023671Y0111685I0000581J0000000D01*
G01*
X0024833Y0111685D01*
G75*
G02*
X0025413Y0111105I0000000J-000581D01*
G01*
G37*
G36*
G01*
X0021594Y0111105D02*
X0021594Y0109746D01*
G75*
G02*
X0021014Y0109166I-000581J0000000D01*
G01*
X0019852Y0109166D01*
G75*
G02*
X0019272Y0109746I0000000J0000581D01*
G01*
X0019272Y0111105D01*
G75*
G02*
X0019852Y0111685I0000581J0000000D01*
G01*
X0021014Y0111685D01*
G75*
G02*
X0021594Y0111105I0000000J-000581D01*
G01*
G37*
G36*
G01*
X0031220Y0125918D02*
X0032559Y0125918D01*
G75*
G02*
X0033110Y0125367I0000000J-000551D01*
G01*
X0033110Y0124264D01*
G75*
G02*
X0032559Y0123713I-000551J0000000D01*
G01*
X0031220Y0123713D01*
G75*
G02*
X0030669Y0124264I0000000J0000551D01*
G01*
X0030669Y0125367D01*
G75*
G02*
X0031220Y0125918I0000551J0000000D01*
G01*
G37*
G36*
G01*
X0031220Y0122138D02*
X0032559Y0122138D01*
G75*
G02*
X0033110Y0121587I0000000J-000551D01*
G01*
X0033110Y0120485D01*
G75*
G02*
X0032559Y0119934I-000551J0000000D01*
G01*
X0031220Y0119934D01*
G75*
G02*
X0030669Y0120485I0000000J0000551D01*
G01*
X0030669Y0121587D01*
G75*
G02*
X0031220Y0122138I0000551J0000000D01*
G01*
G37*
G36*
G01*
X0057480Y0070977D02*
X0056024Y0070977D01*
G75*
G02*
X0055492Y0071508I0000000J0000531D01*
G01*
X0055492Y0072571D01*
G75*
G02*
X0056024Y0073103I0000531J0000000D01*
G01*
X0057480Y0073103D01*
G75*
G02*
X0058012Y0072571I0000000J-000531D01*
G01*
X0058012Y0071508D01*
G75*
G02*
X0057480Y0070977I-000531J0000000D01*
G01*
G37*
G36*
G01*
X0057480Y0074992D02*
X0056024Y0074992D01*
G75*
G02*
X0055492Y0075524I0000000J0000531D01*
G01*
X0055492Y0076587D01*
G75*
G02*
X0056024Y0077118I0000531J0000000D01*
G01*
X0057480Y0077118D01*
G75*
G02*
X0058012Y0076587I0000000J-000531D01*
G01*
X0058012Y0075524D01*
G75*
G02*
X0057480Y0074992I-000531J0000000D01*
G01*
G37*
G36*
G01*
X0042947Y0131705D02*
X0042947Y0133162D01*
G75*
G02*
X0043479Y0133693I0000531J0000000D01*
G01*
X0044542Y0133693D01*
G75*
G02*
X0045073Y0133162I0000000J-000531D01*
G01*
X0045073Y0131705D01*
G75*
G02*
X0044542Y0131174I-000531J0000000D01*
G01*
X0043479Y0131174D01*
G75*
G02*
X0042947Y0131705I0000000J0000531D01*
G01*
G37*
G36*
G01*
X0046963Y0131705D02*
X0046963Y0133162D01*
G75*
G02*
X0047495Y0133693I0000531J0000000D01*
G01*
X0048558Y0133693D01*
G75*
G02*
X0049089Y0133162I0000000J-000531D01*
G01*
X0049089Y0131705D01*
G75*
G02*
X0048558Y0131174I-000531J0000000D01*
G01*
X0047495Y0131174D01*
G75*
G02*
X0046963Y0131705I0000000J0000531D01*
G01*
G37*
G36*
G01*
X0018996Y0131095D02*
X0020177Y0131095D01*
G75*
G02*
X0020768Y0130504I0000000J-000591D01*
G01*
X0020768Y0125878D01*
G75*
G02*
X0020177Y0125288I-000591J0000000D01*
G01*
X0018996Y0125288D01*
G75*
G02*
X0018406Y0125878I0000000J0000591D01*
G01*
X0018406Y0130504D01*
G75*
G02*
X0018996Y0131095I0000591J0000000D01*
G01*
G37*
G36*
G01*
X0026476Y0131095D02*
X0027657Y0131095D01*
G75*
G02*
X0028248Y0130504I0000000J-000591D01*
G01*
X0028248Y0125878D01*
G75*
G02*
X0027657Y0125288I-000591J0000000D01*
G01*
X0026476Y0125288D01*
G75*
G02*
X0025886Y0125878I0000000J0000591D01*
G01*
X0025886Y0130504D01*
G75*
G02*
X0026476Y0131095I0000591J0000000D01*
G01*
G37*
G36*
G01*
X0022736Y0123713D02*
X0023917Y0123713D01*
G75*
G02*
X0024508Y0123122I0000000J-000591D01*
G01*
X0024508Y0118496D01*
G75*
G02*
X0023917Y0117906I-000591J0000000D01*
G01*
X0022736Y0117906D01*
G75*
G02*
X0022146Y0118496I0000000J0000591D01*
G01*
X0022146Y0123122D01*
G75*
G02*
X0022736Y0123713I0000591J0000000D01*
G01*
G37*
G36*
G01*
X0056928Y0133142D02*
X0056928Y0131803D01*
G75*
G02*
X0056376Y0131252I-000551J0000000D01*
G01*
X0055274Y0131252D01*
G75*
G02*
X0054723Y0131803I0000000J0000551D01*
G01*
X0054723Y0133142D01*
G75*
G02*
X0055274Y0133693I0000551J0000000D01*
G01*
X0056376Y0133693D01*
G75*
G02*
X0056928Y0133142I0000000J-000551D01*
G01*
G37*
G36*
G01*
X0053148Y0133142D02*
X0053148Y0131803D01*
G75*
G02*
X0052597Y0131252I-000551J0000000D01*
G01*
X0051495Y0131252D01*
G75*
G02*
X0050943Y0131803I0000000J0000551D01*
G01*
X0050943Y0133142D01*
G75*
G02*
X0051495Y0133693I0000551J0000000D01*
G01*
X0052597Y0133693D01*
G75*
G02*
X0053148Y0133142I0000000J-000551D01*
G01*
G37*
G36*
G01*
X0053857Y0102355D02*
X0052676Y0102355D01*
G75*
G02*
X0052085Y0102945I0000000J0000591D01*
G01*
X0052085Y0108654D01*
G75*
G02*
X0052676Y0109244I0000591J0000000D01*
G01*
X0053857Y0109244D01*
G75*
G02*
X0054447Y0108654I0000000J-000591D01*
G01*
X0054447Y0102945D01*
G75*
G02*
X0053857Y0102355I-000591J0000000D01*
G01*
G37*
G36*
G01*
X0048857Y0102355D02*
X0047676Y0102355D01*
G75*
G02*
X0047085Y0102945I0000000J0000591D01*
G01*
X0047085Y0108654D01*
G75*
G02*
X0047676Y0109244I0000591J0000000D01*
G01*
X0048857Y0109244D01*
G75*
G02*
X0049447Y0108654I0000000J-000591D01*
G01*
X0049447Y0102945D01*
G75*
G02*
X0048857Y0102355I-000591J0000000D01*
G01*
G37*
G36*
G01*
X0043857Y0102355D02*
X0042676Y0102355D01*
G75*
G02*
X0042085Y0102945I0000000J0000591D01*
G01*
X0042085Y0108654D01*
G75*
G02*
X0042676Y0109244I0000591J0000000D01*
G01*
X0043857Y0109244D01*
G75*
G02*
X0044447Y0108654I0000000J-000591D01*
G01*
X0044447Y0102945D01*
G75*
G02*
X0043857Y0102355I-000591J0000000D01*
G01*
G37*
G36*
G01*
X0038857Y0102355D02*
X0037676Y0102355D01*
G75*
G02*
X0037085Y0102945I0000000J0000591D01*
G01*
X0037085Y0108654D01*
G75*
G02*
X0037676Y0109244I0000591J0000000D01*
G01*
X0038857Y0109244D01*
G75*
G02*
X0039447Y0108654I0000000J-000591D01*
G01*
X0039447Y0102945D01*
G75*
G02*
X0038857Y0102355I-000591J0000000D01*
G01*
G37*
G36*
G01*
X0038857Y0122630D02*
X0037676Y0122630D01*
G75*
G02*
X0037085Y0123221I0000000J0000591D01*
G01*
X0037085Y0128929D01*
G75*
G02*
X0037676Y0129520I0000591J0000000D01*
G01*
X0038857Y0129520D01*
G75*
G02*
X0039447Y0128929I0000000J-000591D01*
G01*
X0039447Y0123221D01*
G75*
G02*
X0038857Y0122630I-000591J0000000D01*
G01*
G37*
G36*
G01*
X0043857Y0122630D02*
X0042676Y0122630D01*
G75*
G02*
X0042085Y0123221I0000000J0000591D01*
G01*
X0042085Y0128929D01*
G75*
G02*
X0042676Y0129520I0000591J0000000D01*
G01*
X0043857Y0129520D01*
G75*
G02*
X0044447Y0128929I0000000J-000591D01*
G01*
X0044447Y0123221D01*
G75*
G02*
X0043857Y0122630I-000591J0000000D01*
G01*
G37*
G36*
G01*
X0048857Y0122630D02*
X0047676Y0122630D01*
G75*
G02*
X0047085Y0123221I0000000J0000591D01*
G01*
X0047085Y0128929D01*
G75*
G02*
X0047676Y0129520I0000591J0000000D01*
G01*
X0048857Y0129520D01*
G75*
G02*
X0049447Y0128929I0000000J-000591D01*
G01*
X0049447Y0123221D01*
G75*
G02*
X0048857Y0122630I-000591J0000000D01*
G01*
G37*
G36*
G01*
X0053857Y0122630D02*
X0052676Y0122630D01*
G75*
G02*
X0052085Y0123221I0000000J0000591D01*
G01*
X0052085Y0128929D01*
G75*
G02*
X0052676Y0129520I0000591J0000000D01*
G01*
X0053857Y0129520D01*
G75*
G02*
X0054447Y0128929I0000000J-000591D01*
G01*
X0054447Y0123221D01*
G75*
G02*
X0053857Y0122630I-000591J0000000D01*
G01*
G37*
X0532776Y0015150D02*
G01*
G75*
D132*
X0546260Y0068595D02*
D03*
X0573721Y0046646D02*
D03*
X0591044Y0046646D02*
D03*
X0582284Y0046646D02*
D03*
X0552461Y0049284D02*
D03*
X0569095Y0046646D02*
D03*
X0602477Y0049320D02*
D03*
M02*
