M48
INCH,TZ
T01C0.009850
T02C0.015700
T03C0.024600
T04C0.031750
T05C0.039200
T06C0.043300
T07C0.068900
T08C0.112200
T09C0.126000
%
T01
X2135Y17224
X5521Y17539
X8809Y18366
X10108Y18346
X12254Y19016
X13061Y27815
X13179Y20039
X14439Y17500
X14616Y28681
X14813Y29646
X19419Y23071
X19694Y24016
X19714Y28563
X21624Y21358
X21820Y12283
X22194Y15571
X22234Y17500
X22982Y20138
X23120Y23169
X26820Y17933
X27175Y17500
X28691Y17126
X41958Y6476
X41978Y6752
X42154Y27616
X42293Y27854
X45285Y23484
X47942Y20354
X48946Y7205
X51505Y28779
X54360Y9252
X54626Y6860
X55246Y4929
X56909Y4665
X57372Y4665
X58228Y4665
X59104Y4665
X60247Y4933
X2293Y3189
X2687Y3189
X3080Y3189
X3474Y3189
X4401Y13658
X4801Y13658
X5698Y13658
X6092Y13658
X6486Y13658
X8799Y5147
X9192Y5147
X9586Y5147
X9980Y5147
X10907Y15616
X11307Y15616
X12204Y15616
X12598Y15616
X12992Y15616
X28051Y25433
X28051Y24960
X28051Y24488
X28051Y24016
X29232Y18838
X29232Y18523
X29232Y18209
X29232Y17894
X29232Y17579
X29232Y17264
X29232Y16949
X29232Y16634
X29232Y16319
X29232Y16004
X29232Y15689
X29232Y15374
X29232Y15059
X29232Y14744
X29232Y14114
X29232Y13563
X29232Y13248
X29232Y12933
X29232Y12618
X29232Y12303
X29232Y11988
X29232Y20531
X29232Y14429
X29389Y9153
X29704Y9153
X30019Y9153
X30334Y9153
X30649Y9153
X30964Y9153
X31279Y9153
X31594Y9153
X31830Y23090
X31909Y9153
X32224Y9153
X32303Y23090
X32539Y9153
X32775Y23090
X32854Y9153
X33248Y23090
X33720Y23090
X33730Y26953
X33730Y26559
X33799Y9153
X34114Y9153
X34192Y23090
X34429Y9153
X34665Y23090
X34744Y9153
X35059Y9153
X35137Y23090
X35374Y9153
X35610Y23090
X35689Y9153
X36004Y9153
X36082Y23090
X36318Y9153
X36555Y23090
X37027Y23090
X37500Y23090
X37972Y23090
X38011Y9153
X38444Y23090
X38917Y23090
X39074Y9153
X39389Y23090
X39468Y9153
X39862Y23090
X40334Y23090
X40807Y23090
X41279Y23090
X42224Y23090
X42381Y22106
X42381Y21712
X42381Y17500
X42381Y17106
X42381Y16712
X42381Y16319
X42381Y15925
X42381Y15531
X42381Y15138
X42381Y14744
X42381Y13720
X42381Y13405
X42381Y11555
X42381Y11004
X42381Y9153
X46397Y9055
X46791Y9055
X48937Y21122
X48937Y20649
X48937Y20177
X48937Y19705
X54616Y22642
X54616Y22248
X61574Y11890
X61574Y8464
X61929Y8464
X61948Y11890
X62322Y11890
X45252Y14547
X45888Y14819
X46273Y14605
X46702Y15246
X47038Y15286
X47628Y15089
X47884Y14813
X48415Y14695
X48711Y15089
X48219Y15286
X49400Y15286
X50975Y15286
X50955Y14813
X51247Y13702
X51222Y12655
X50934Y12333
X50859Y11280
X50975Y10168
X50975Y9380
X49971Y9853
X49965Y10498
X48719Y10438
X48809Y9971
X48329Y9803
X48612Y9380
X47444Y9802
X47272Y9106
X46880Y9065
X46486Y9065
X46580Y9747
X46091Y10057
X45774Y9670
X45344Y10067
X45723Y10456
X46447Y10531
X46880Y10483
X45895Y11799
X45266Y11799
X45252Y12718
X45252Y13573
X45894Y13350
X46919Y12766
X48366Y12373
X48415Y13120
X48925Y12687
X49923Y12098
X51880Y11152
X51947Y10220
X52352Y10168
X52156Y9380
X51565Y9774
X52705Y12248
X53111Y12206
X52695Y13035
X52292Y13300
X52369Y14737
X51734Y14328
X51501Y15168
X62558Y8480
X62305Y8632
X62018Y8474
X61663Y8474
X61997Y9476
X62102Y9750
X61889Y9993
X62402Y9443
X61662Y10922
X61663Y11899
X62037Y11899
X62411Y11899
X33828Y25817
X33801Y24171
X33779Y25000
X33057Y27524
X33048Y26767
X33011Y25965
X32974Y24159
X32942Y25659
X32626Y24187
X32574Y26009
X32539Y27396
X32411Y25699
X32234Y27530
X32178Y23996
X32090Y26789
X32086Y25896
X31936Y24468
X31890Y25517
X31525Y25502
X31277Y25101
X31145Y25907
X31092Y25581
X31082Y26299
X31062Y27382
X31012Y27010
X30972Y26660
X30751Y26002
X30442Y27530
X30373Y25955
X30059Y25531
X29940Y25817
X29842Y26321
X29820Y24858
X29777Y27370
X29754Y25561
X29685Y24187
X29389Y24246
X29206Y25516
X29194Y24017
X28867Y26890
X28391Y26898
X28149Y27067
X28139Y26654
X28123Y27549
X33818Y26569
X33818Y26963
X28139Y24026
X28139Y24498
X28139Y24970
X28139Y25443
X54576Y21152
X54576Y23120
X54537Y19813
X53710Y21230
X53553Y22293
X53435Y23120
X53198Y19813
X52805Y20719
X52765Y21703
X52214Y22333
X52175Y23120
X51781Y19813
X51545Y20522
X51466Y23120
X51380Y21213
X50954Y22766
X50443Y21900
X50206Y22845
X50049Y19813
X49734Y23120
X49416Y20638
X49143Y21506
X49143Y22845
X54704Y22258
X54704Y22652
X49025Y19715
X49025Y20187
X49025Y20659
X49025Y21132
X10620Y15689
X13550Y15614
X11880Y15570
X8514Y15570
X8704Y15337
X9984Y15281
X10295Y15281
X13318Y15127
X11727Y14899
X12425Y14807
X9797Y14744
X8864Y14607
X8592Y14315
X13632Y14212
X12995Y14166
X12618Y14124
X11311Y14049
X10074Y14045
X8553Y13769
X10639Y13688
X9350Y13563
X11299Y13503
X12346Y13494
X10589Y13385
X8514Y13287
X13637Y12490
X9321Y12322
X11126Y12032
X12065Y11802
X10565Y11801
X11358Y11800
X11601Y11594
X8415Y11574
X11260Y11516
X12637Y11209
X10502Y11001
X12586Y10912
X8445Y10787
X11939Y10771
X12592Y10602
X9159Y10584
X10541Y10511
X11541Y10452
X12216Y10299
X9242Y10295
X9975Y9994
X12941Y9976
X13242Y9968
X8435Y9596
X13073Y9389
X13658Y9364
X12774Y9355
X13439Y9098
X11797Y8960
X10950Y8914
X10437Y8844
X9537Y8844
X9236Y8844
X8935Y8844
X8634Y8844
X10029Y8840
X11565Y8464
X11348Y8208
X8393Y6133
X10142Y5916
X13395Y5876
X12982Y5728
X10049Y5629
X12401Y5590
X12126Y5590
X11850Y5590
X12962Y5413
X8386Y5393
X12401Y5285
X12126Y5285
X13376Y5088
X13081Y15626
X12687Y15626
X12293Y15626
X11395Y15626
X10995Y15626
X10069Y5157
X9675Y5157
X9281Y5157
X8888Y5157
X42313Y23100
X41837Y23069
X41605Y22879
X41369Y23100
X41132Y22899
X40896Y23100
X40660Y22899
X40424Y23100
X40187Y22899
X39951Y23100
X39715Y22899
X39479Y23100
X39243Y22899
X39006Y23100
X38770Y22899
X38534Y23100
X38298Y22899
X38061Y23100
X37825Y22899
X37589Y23100
X37353Y22899
X37117Y23100
X36880Y22899
X36644Y23100
X36408Y22899
X36172Y23100
X35935Y22899
X35699Y23100
X35463Y22899
X35227Y23100
X34991Y22899
X34754Y23100
X34518Y22899
X34282Y23100
X34046Y22899
X33809Y23100
X33573Y22899
X33337Y23100
X33101Y22899
X32865Y23100
X32628Y22899
X32392Y23100
X32156Y22899
X31920Y23100
X31605Y22942
X31612Y22407
X32039Y22213
X32490Y22203
X32932Y22196
X33405Y22198
X33910Y21151
X34220Y21151
X34467Y21624
X35065Y21421
X35361Y21412
X35204Y21141
X35087Y20459
X35342Y20191
X35439Y19650
X35000Y19650
X34540Y19770
X34540Y19438
X34540Y19143
X34546Y18852
X34216Y18168
X33671Y18172
X33809Y17588
X34439Y17667
X34509Y16835
X34524Y16449
X34872Y16643
X35106Y16843
X35363Y16410
X36056Y16109
X36654Y16092
X37001Y16388
X37776Y16213
X37758Y16768
X37768Y17315
X38476Y17188
X38431Y16389
X38457Y15624
X38479Y14814
X37776Y14774
X37776Y15059
X37776Y15344
X37776Y14473
X36988Y14157
X37001Y13872
X37033Y13574
X36983Y13092
X36579Y13041
X35949Y12563
X35572Y12575
X34636Y12431
X34311Y13031
X34103Y12828
X34121Y13355
X33763Y13402
X34314Y13586
X34520Y14729
X34743Y14958
X34789Y15641
X35080Y15652
X34593Y15860
X33924Y15860
X33058Y16049
X32864Y16263
X32660Y16467
X32458Y16669
X32461Y15856
X32908Y15391
X32921Y14690
X32545Y14788
X32668Y14320
X32870Y13783
X32630Y13557
X32436Y13159
X32628Y12903
X32729Y12520
X32769Y12214
X32471Y12312
X31967Y12514
X31911Y12815
X31967Y13377
X31820Y13622
X32077Y14005
X32095Y14496
X30867Y14888
X30557Y15202
X30739Y15423
X30774Y15943
X29321Y16013
X29321Y15698
X29321Y15383
X29321Y15068
X29321Y14753
X29321Y14438
X29321Y14124
X29460Y13846
X29321Y13572
X29321Y13257
X29321Y12942
X29321Y12627
X29321Y12312
X29321Y11998
X29678Y11910
X29461Y11666
X29770Y10964
X29774Y10029
X30147Y9985
X30149Y10270
X30522Y10029
X30424Y9163
X30739Y9163
X31054Y9163
X31369Y9163
X31683Y9163
X31998Y9163
X32313Y9163
X32628Y9163
X32943Y9163
X33534Y9360
X33888Y9163
X34203Y9163
X34518Y9163
X34833Y9163
X35148Y9163
X35463Y9163
X35778Y9163
X36093Y9163
X36408Y9163
X36920Y9202
X36826Y9857
X37224Y9893
X37569Y9848
X37848Y10150
X37790Y9395
X38101Y9163
X39164Y9163
X39558Y9163
X39919Y9187
X39911Y9650
X40141Y10095
X40222Y10968
X40662Y10745
X39476Y10433
X39013Y10114
X39056Y10965
X38613Y11013
X38128Y11441
X38120Y11726
X38052Y12086
X38049Y12382
X38779Y12283
X38770Y12667
X38779Y12992
X38440Y13320
X38779Y13700
X38763Y14052
X38783Y14347
X38466Y14029
X39461Y13601
X39464Y13157
X40640Y13301
X40620Y13822
X40621Y14211
X39796Y14676
X39496Y14637
X39473Y15090
X39473Y15377
X39473Y15664
X39473Y16080
X39473Y16366
X39455Y16790
X39455Y17098
X39455Y17387
X39231Y18127
X38951Y18222
X38639Y18617
X38937Y18937
X38937Y19503
X38944Y19789
X38853Y20450
X39056Y21195
X38888Y21427
X39188Y21462
X39813Y21626
X40109Y21626
X40735Y21421
X41021Y21421
X40857Y21138
X40753Y20462
X40912Y20193
X41092Y19616
X40616Y19616
X40130Y19770
X40130Y19438
X40130Y19143
X40137Y18852
X40900Y18630
X40896Y18253
X41699Y18245
X41672Y18579
X41967Y18147
X42446Y18104
X42471Y17509
X42471Y17116
X42471Y16722
X42471Y16328
X42471Y15935
X42471Y15541
X42471Y15147
X42471Y14753
X42432Y14124
X42471Y13730
X42471Y13415
X42471Y13041
X42343Y12558
X42432Y12194
X42471Y11564
X42187Y11454
X42471Y11013
X42450Y9851
X42471Y9163
X41447Y12431
X41321Y12726
X40452Y12241
X38460Y11949
X37583Y11501
X37451Y11112
X37113Y11183
X36690Y11505
X36250Y11604
X35509Y11526
X34981Y10590
X34841Y10311
X34770Y10004
X34508Y10694
X33677Y10665
X33485Y10340
X32741Y10686
X32815Y11534
X32521Y11534
X32230Y11534
X31044Y11476
X31014Y11013
X31289Y10482
X31315Y9578
X32425Y9451
X30109Y9163
X29794Y9163
X29479Y9163
X30673Y12067
X30829Y12306
X30601Y12598
X30384Y13025
X30825Y13023
X30923Y13707
X30407Y13996
X30131Y13442
X30120Y14651
X29321Y16328
X29321Y16643
X29321Y16958
X29321Y17273
X29321Y17588
X29321Y17903
X29321Y18218
X29321Y18533
X29321Y18848
X29840Y19462
X29400Y20068
X29321Y20541
X29892Y21139
X29892Y21458
X29892Y21776
X29892Y22094
X29892Y22413
X30256Y22739
X29538Y22782
X31134Y21951
X31001Y21372
X31565Y20462
X31798Y19758
X31784Y19438
X31789Y19150
X31790Y18852
X32577Y18630
X32586Y18217
X33096Y18602
X33386Y18818
X33386Y19391
X33349Y19777
X32745Y19643
X32245Y19650
X32585Y20196
X32464Y20862
X32781Y20862
X33127Y20862
X32117Y20873
X33928Y20462
X36144Y19777
X36142Y19378
X36142Y18939
X36060Y18555
X35333Y18577
X35384Y18295
X36526Y18163
X36850Y18155
X36872Y17663
X37282Y17943
X37353Y18772
X37330Y19143
X37343Y19438
X37353Y19938
X37648Y19675
X38317Y19630
X38117Y20172
X38188Y21048
X37957Y21628
X37247Y21421
X36955Y21421
X37097Y21131
X36974Y20462
X36328Y21582
X36000Y21633
X37995Y18624
X38194Y18218
X39807Y18168
X40341Y17549
X40341Y16788
X40341Y16027
X40340Y15265
X36657Y15318
X36861Y14993
X36699Y14105
X37778Y13005
X36979Y10382
X36535Y10478
X36442Y10748
X36239Y10385
X33733Y11727
X33675Y12010
X32102Y17543
X31723Y17194
X30636Y17339
X30685Y18068
X30997Y18036
X31460Y18168
X29925Y17861
X36247Y16806
X41733Y19350
X41695Y19815
X41977Y20137
X42468Y20176
X41870Y20728
X42136Y21040
X42471Y21722
X42471Y22116
X42451Y22701
X41880Y22509
X41683Y21626
X42343Y18818
X4114Y13731
X7044Y13656
X5374Y13612
X2008Y13612
X2198Y13379
X3478Y13323
X3789Y13323
X6812Y13169
X5221Y12941
X5919Y12849
X3291Y12786
X2358Y12649
X2086Y12357
X7126Y12254
X6489Y12208
X6112Y12166
X4805Y12091
X3568Y12087
X2047Y11811
X4133Y11730
X2844Y11605
X4793Y11545
X5840Y11536
X4083Y11427
X2008Y11329
X7131Y10532
X2815Y10364
X4620Y10074
X5559Y9844
X4059Y9843
X4852Y9842
X5095Y9636
X1909Y9616
X4754Y9558
X6131Y9251
X3996Y9043
X6080Y8954
X1939Y8829
X5433Y8813
X6086Y8644
X2653Y8626
X4035Y8553
X5035Y8494
X5710Y8341
X2736Y8337
X3469Y8036
X6435Y8018
X6736Y8010
X1929Y7638
X6567Y7431
X7152Y7406
X6268Y7397
X6933Y7140
X5291Y7002
X4444Y6956
X3931Y6886
X3031Y6886
X2730Y6886
X2429Y6886
X2128Y6886
X3523Y6882
X5059Y6506
X4842Y6250
X1887Y4175
X3636Y3958
X6889Y3918
X6476Y3770
X3543Y3671
X5895Y3632
X5620Y3632
X5344Y3632
X6456Y3455
X1880Y3435
X5895Y3327
X5620Y3327
X6870Y3130
X6575Y13668
X6181Y13668
X5787Y13668
X4889Y13668
X4489Y13668
X3563Y3199
X3169Y3199
X2775Y3199
X2382Y3199
X55335Y4939
X56998Y4676
X57460Y4676
X58317Y4676
X59193Y4676
X60336Y4943
X54714Y6870
T02
X13021Y24114
X16053Y17716
X17391Y19823
X18572Y22342
X19242Y18523
X20580Y14606
X22549Y13090
X23218Y28701
X25639Y15413
X39439Y8464
X58454Y26004
T03
X47187Y4588G85X47187Y4155
X47187Y2844G85X47187Y2608
X50588Y4588G85X50588Y4155
X50588Y2844G85X50588Y2608
X47750Y4175
X50025Y4175
T04
X992Y21378
X4057Y21528
X7549Y22593
X10580Y23261
X44616Y18829
X44929Y7451
X46429Y7451
X46545Y18829
X49367Y18251
X50731Y16887
X36376Y17805
X34798Y17805
X33376Y17805
T05
X45275Y9232
X45452Y15334
X47736Y9232
X49429Y9232
X50177Y9232
X50196Y15334
X52145Y15334
X52696Y9232
X52874Y15334
X52903Y17608
X54391Y17608
X45541Y15345
X50286Y15345
X50266Y9242
X49518Y9242
X47825Y9242
X45364Y9242
X52786Y9242
X52963Y15345
X52234Y15345
X9399Y8303
X10581Y7515
X9399Y6728
X9321Y15429
X9721Y13429
X8921Y13429
X42156Y9478
X33077Y10449
X33077Y9649
X31077Y10049
X2893Y6345
X4075Y5557
X2893Y4770
X2815Y13471
X3215Y11471
X2415Y11471
T06
X3346Y26742
X3346Y25128
X5590Y26742
X5590Y25128
X7834Y26742
X7834Y25128
X10078Y26742
X10078Y25128
X12322Y26742
X12322Y25128
X14567Y26742
X14567Y25128
X16811Y26742
X16811Y25128
X19055Y26742
X19055Y25128
X21299Y26742
X21299Y25128
X23543Y26742
X23543Y25128
X25787Y26742
X25787Y25128
X37204Y26722
X37204Y25108
X39448Y26722
X39448Y25108
X41692Y26722
X41692Y25108
X43937Y26722
X43937Y25108
X46181Y26722
X46181Y25108
X48425Y26722
X48425Y25108
X50669Y26722
X50669Y25108
X52913Y26722
X52913Y25108
X55157Y26722
X55157Y25108
X57401Y26722
X57401Y25108
X59645Y26722
X59645Y25108
X13208Y8480
X13208Y7480
X13208Y6480
X6702Y6522
X6702Y5522
X6702Y4522
T07
X25994Y4153
X25994Y1004
X26781Y2579
X27568Y4153
X27568Y1004
X28356Y2579
X29143Y4153
X29143Y1004
X29931Y2579
X30718Y4153
X30718Y1004
X31505Y2579
X32293Y4153
X32293Y1004
X33080Y2579
X33868Y4153
X33868Y1004
X34655Y2579
X35442Y4153
X35442Y1004
X36230Y2579
X37017Y4153
X37017Y1004
T08
X23435Y2382
X39576Y2382
T09
X16210Y9134
X57431Y9134
M30
