G75*
G70*
%OFA0B0*%
%FSLAX25Y25*%
%IPPOS*%
%LPD*%
%AMOC8*
5,1,8,0,0,1.08239X$1,22.5*
%
%AMM123*
21,1,0.025200,0.019680,-0.000000,0.000000,90.000000*
21,1,0.015750,0.029130,-0.000000,0.000000,90.000000*
1,1,0.009450,0.009840,0.007870*
1,1,0.009450,0.009840,-0.007870*
1,1,0.009450,-0.009840,-0.007870*
1,1,0.009450,-0.009840,0.007870*
%
%AMM124*
21,1,0.025200,0.019680,-0.000000,0.000000,0.000000*
21,1,0.015750,0.029130,-0.000000,0.000000,0.000000*
1,1,0.009450,0.007870,-0.009840*
1,1,0.009450,-0.007870,-0.009840*
1,1,0.009450,-0.007870,0.009840*
1,1,0.009450,0.007870,0.009840*
%
%AMM131*
21,1,0.038980,0.026770,-0.000000,0.000000,0.000000*
21,1,0.026770,0.038980,-0.000000,0.000000,0.000000*
1,1,0.012210,0.013390,-0.013390*
1,1,0.012210,-0.013390,-0.013390*
1,1,0.012210,-0.013390,0.013390*
1,1,0.012210,0.013390,0.013390*
%
%AMM132*
21,1,0.029130,0.018900,-0.000000,0.000000,270.000000*
21,1,0.018900,0.029130,-0.000000,0.000000,270.000000*
1,1,0.010240,-0.009450,-0.009450*
1,1,0.010240,-0.009450,0.009450*
1,1,0.010240,0.009450,0.009450*
1,1,0.010240,0.009450,-0.009450*
%
%AMM190*
21,1,0.041340,0.026770,0.000000,-0.000000,270.000000*
21,1,0.029130,0.038980,0.000000,-0.000000,270.000000*
1,1,0.012210,-0.013390,-0.014570*
1,1,0.012210,-0.013390,0.014570*
1,1,0.012210,0.013390,0.014570*
1,1,0.012210,0.013390,-0.014570*
%
%AMM191*
21,1,0.076380,0.036220,0.000000,-0.000000,0.000000*
21,1,0.061810,0.050790,0.000000,-0.000000,0.000000*
1,1,0.014570,0.030910,-0.018110*
1,1,0.014570,-0.030910,-0.018110*
1,1,0.014570,-0.030910,0.018110*
1,1,0.014570,0.030910,0.018110*
%
%AMM194*
21,1,0.029130,0.018900,0.000000,-0.000000,0.000000*
21,1,0.018900,0.029130,0.000000,-0.000000,0.000000*
1,1,0.010240,0.009450,-0.009450*
1,1,0.010240,-0.009450,-0.009450*
1,1,0.010240,-0.009450,0.009450*
1,1,0.010240,0.009450,0.009450*
%
%AMM195*
21,1,0.025200,0.019680,0.000000,-0.000000,270.000000*
21,1,0.015750,0.029130,0.000000,-0.000000,270.000000*
1,1,0.009450,-0.009840,-0.007870*
1,1,0.009450,-0.009840,0.007870*
1,1,0.009450,0.009840,0.007870*
1,1,0.009450,0.009840,-0.007870*
%
%AMM196*
21,1,0.025200,0.019680,0.000000,-0.000000,180.000000*
21,1,0.015750,0.029130,0.000000,-0.000000,180.000000*
1,1,0.009450,-0.007870,0.009840*
1,1,0.009450,0.007870,0.009840*
1,1,0.009450,0.007870,-0.009840*
1,1,0.009450,-0.007870,-0.009840*
%
%AMM202*
21,1,0.111810,0.050390,0.000000,-0.000000,0.000000*
21,1,0.093700,0.068500,0.000000,-0.000000,0.000000*
1,1,0.018110,0.046850,-0.025200*
1,1,0.018110,-0.046850,-0.025200*
1,1,0.018110,-0.046850,0.025200*
1,1,0.018110,0.046850,0.025200*
%
%AMM203*
21,1,0.038980,0.026770,0.000000,-0.000000,180.000000*
21,1,0.026770,0.038980,0.000000,-0.000000,180.000000*
1,1,0.012210,-0.013390,0.013390*
1,1,0.012210,0.013390,0.013390*
1,1,0.012210,0.013390,-0.013390*
1,1,0.012210,-0.013390,-0.013390*
%
%AMM204*
21,1,0.029130,0.018900,0.000000,-0.000000,90.000000*
21,1,0.018900,0.029130,0.000000,-0.000000,90.000000*
1,1,0.010240,0.009450,0.009450*
1,1,0.010240,0.009450,-0.009450*
1,1,0.010240,-0.009450,-0.009450*
1,1,0.010240,-0.009450,0.009450*
%
%AMM205*
21,1,0.127560,0.075590,0.000000,-0.000000,90.000000*
21,1,0.103150,0.100000,0.000000,-0.000000,90.000000*
1,1,0.024410,0.037800,0.051580*
1,1,0.024410,0.037800,-0.051580*
1,1,0.024410,-0.037800,-0.051580*
1,1,0.024410,-0.037800,0.051580*
%
%AMM206*
21,1,0.123620,0.083460,0.000000,-0.000000,270.000000*
21,1,0.097240,0.109840,0.000000,-0.000000,270.000000*
1,1,0.026380,-0.041730,-0.048620*
1,1,0.026380,-0.041730,0.048620*
1,1,0.026380,0.041730,0.048620*
1,1,0.026380,0.041730,-0.048620*
%
%AMM278*
21,1,0.029530,0.026380,-0.000000,-0.000000,90.000000*
21,1,0.020470,0.035430,-0.000000,-0.000000,90.000000*
1,1,0.009060,0.013190,0.010240*
1,1,0.009060,0.013190,-0.010240*
1,1,0.009060,-0.013190,-0.010240*
1,1,0.009060,-0.013190,0.010240*
%
%AMM279*
21,1,0.021650,0.027950,-0.000000,-0.000000,90.000000*
21,1,0.014170,0.035430,-0.000000,-0.000000,90.000000*
1,1,0.007480,0.013980,0.007090*
1,1,0.007480,0.013980,-0.007090*
1,1,0.007480,-0.013980,-0.007090*
1,1,0.007480,-0.013980,0.007090*
%
%AMM282*
21,1,0.031500,0.018900,-0.000000,-0.000000,270.000000*
21,1,0.022840,0.027560,-0.000000,-0.000000,270.000000*
1,1,0.008660,-0.009450,-0.011420*
1,1,0.008660,-0.009450,0.011420*
1,1,0.008660,0.009450,0.011420*
1,1,0.008660,0.009450,-0.011420*
%
%AMM284*
21,1,0.031500,0.018900,-0.000000,-0.000000,0.000000*
21,1,0.022840,0.027560,-0.000000,-0.000000,0.000000*
1,1,0.008660,0.011420,-0.009450*
1,1,0.008660,-0.011420,-0.009450*
1,1,0.008660,-0.011420,0.009450*
1,1,0.008660,0.011420,0.009450*
%
%AMM286*
21,1,0.039370,0.030320,-0.000000,-0.000000,90.000000*
21,1,0.028350,0.041340,-0.000000,-0.000000,90.000000*
1,1,0.011020,0.015160,0.014170*
1,1,0.011020,0.015160,-0.014170*
1,1,0.011020,-0.015160,-0.014170*
1,1,0.011020,-0.015160,0.014170*
%
%AMM289*
21,1,0.031500,0.030710,-0.000000,-0.000000,180.000000*
21,1,0.022050,0.040160,-0.000000,-0.000000,180.000000*
1,1,0.009450,-0.011020,0.015350*
1,1,0.009450,0.011020,0.015350*
1,1,0.009450,0.011020,-0.015350*
1,1,0.009450,-0.011020,-0.015350*
%
%AMM304*
21,1,0.037400,0.026770,-0.000000,-0.000000,270.000000*
21,1,0.026770,0.037400,-0.000000,-0.000000,270.000000*
1,1,0.010630,-0.013390,-0.013390*
1,1,0.010630,-0.013390,0.013390*
1,1,0.010630,0.013390,0.013390*
1,1,0.010630,0.013390,-0.013390*
%
%AMM305*
21,1,0.029530,0.026380,-0.000000,-0.000000,180.000000*
21,1,0.020470,0.035430,-0.000000,-0.000000,180.000000*
1,1,0.009060,-0.010240,0.013190*
1,1,0.009060,0.010240,0.013190*
1,1,0.009060,0.010240,-0.013190*
1,1,0.009060,-0.010240,-0.013190*
%
%AMM306*
21,1,0.021650,0.027950,-0.000000,-0.000000,180.000000*
21,1,0.014170,0.035430,-0.000000,-0.000000,180.000000*
1,1,0.007480,-0.007090,0.013980*
1,1,0.007480,0.007090,0.013980*
1,1,0.007480,0.007090,-0.013980*
1,1,0.007480,-0.007090,-0.013980*
%
%AMM307*
21,1,0.037400,0.026770,-0.000000,-0.000000,180.000000*
21,1,0.026770,0.037400,-0.000000,-0.000000,180.000000*
1,1,0.010630,-0.013390,0.013390*
1,1,0.010630,0.013390,0.013390*
1,1,0.010630,0.013390,-0.013390*
1,1,0.010630,-0.013390,-0.013390*
%
%AMM308*
21,1,0.082680,0.045670,-0.000000,-0.000000,0.000000*
21,1,0.067320,0.061020,-0.000000,-0.000000,0.000000*
1,1,0.015350,0.033660,-0.022840*
1,1,0.015350,-0.033660,-0.022840*
1,1,0.015350,-0.033660,0.022840*
1,1,0.015350,0.033660,0.022840*
%
%AMM309*
21,1,0.062990,0.020470,-0.000000,-0.000000,0.000000*
21,1,0.053940,0.029530,-0.000000,-0.000000,0.000000*
1,1,0.009060,0.026970,-0.010240*
1,1,0.009060,-0.026970,-0.010240*
1,1,0.009060,-0.026970,0.010240*
1,1,0.009060,0.026970,0.010240*
%
%AMM310*
21,1,0.039370,0.030320,-0.000000,-0.000000,0.000000*
21,1,0.028350,0.041340,-0.000000,-0.000000,0.000000*
1,1,0.011020,0.014170,-0.015160*
1,1,0.011020,-0.014170,-0.015160*
1,1,0.011020,-0.014170,0.015160*
1,1,0.011020,0.014170,0.015160*
%
%AMM311*
21,1,0.016540,0.028980,-0.000000,-0.000000,0.000000*
21,1,0.010080,0.035430,-0.000000,-0.000000,0.000000*
1,1,0.006460,0.005040,-0.014490*
1,1,0.006460,-0.005040,-0.014490*
1,1,0.006460,-0.005040,0.014490*
1,1,0.006460,0.005040,0.014490*
%
%AMM312*
21,1,0.074800,0.036220,-0.000000,-0.000000,180.000000*
21,1,0.061810,0.049210,-0.000000,-0.000000,180.000000*
1,1,0.012990,-0.030910,0.018110*
1,1,0.012990,0.030910,0.018110*
1,1,0.012990,0.030910,-0.018110*
1,1,0.012990,-0.030910,-0.018110*
%
%AMM313*
21,1,0.039760,0.026770,-0.000000,-0.000000,180.000000*
21,1,0.029130,0.037400,-0.000000,-0.000000,180.000000*
1,1,0.010630,-0.014570,0.013390*
1,1,0.010630,0.014570,0.013390*
1,1,0.010630,0.014570,-0.013390*
1,1,0.010630,-0.014570,-0.013390*
%
%AMM314*
21,1,0.031500,0.049610,-0.000000,-0.000000,180.000000*
21,1,0.022050,0.059060,-0.000000,-0.000000,180.000000*
1,1,0.009450,-0.011020,0.024800*
1,1,0.009450,0.011020,0.024800*
1,1,0.009450,0.011020,-0.024800*
1,1,0.009450,-0.011020,-0.024800*
%
%AMM315*
21,1,0.074800,0.036220,-0.000000,-0.000000,270.000000*
21,1,0.061810,0.049210,-0.000000,-0.000000,270.000000*
1,1,0.012990,-0.018110,-0.030910*
1,1,0.012990,-0.018110,0.030910*
1,1,0.012990,0.018110,0.030910*
1,1,0.012990,0.018110,-0.030910*
%
%AMM316*
21,1,0.031500,0.030710,-0.000000,-0.000000,270.000000*
21,1,0.022050,0.040160,-0.000000,-0.000000,270.000000*
1,1,0.009450,-0.015350,-0.011020*
1,1,0.009450,-0.015350,0.011020*
1,1,0.009450,0.015350,0.011020*
1,1,0.009450,0.015350,-0.011020*
%
%ADD10C,0.06000*%
%ADD13C,0.22047*%
%ADD131C,0.02913*%
%ADD132C,0.06457*%
%ADD14C,0.02362*%
%ADD153C,0.05118*%
%ADD166C,0.03900*%
%ADD222C,0.04724*%
%ADD223C,0.04294*%
%ADD248R,0.01772X0.01870*%
%ADD250O,0.05354X0.01378*%
%ADD253R,0.09843X0.07087*%
%ADD254R,0.01870X0.01772*%
%ADD256R,0.04331X0.04724*%
%ADD296M123*%
%ADD297M124*%
%ADD305M131*%
%ADD306M132*%
%ADD307O,0.09213X0.02520*%
%ADD365M190*%
%ADD366M191*%
%ADD369M194*%
%ADD37C,0.05906*%
%ADD370M195*%
%ADD371M196*%
%ADD377M202*%
%ADD378M203*%
%ADD379M204*%
%ADD380M205*%
%ADD381M206*%
%ADD390R,0.07874X0.07500*%
%ADD391O,0.07874X0.07500*%
%ADD393R,0.01772X0.05709*%
%ADD394R,0.02559X0.04803*%
%ADD47R,0.10335X0.10335*%
%ADD48C,0.10335*%
%ADD486M278*%
%ADD487M279*%
%ADD49C,0.06693*%
%ADD490M282*%
%ADD492M284*%
%ADD494M286*%
%ADD497M289*%
%ADD51O,0.03937X0.08268*%
%ADD512M304*%
%ADD513M305*%
%ADD514M306*%
%ADD515M307*%
%ADD516M308*%
%ADD517M309*%
%ADD518M310*%
%ADD519M311*%
%ADD52O,0.03937X0.06299*%
%ADD520M312*%
%ADD521M313*%
%ADD522M314*%
%ADD523M315*%
%ADD524M316*%
%ADD70C,0.00472*%
%ADD71C,0.11220*%
%ADD72C,0.02559*%
X0000000Y0000000D02*
%LPD*%
G01*
D70*
X0604478Y0192224D02*
X0553297Y0192224D01*
X0553297Y0219783D01*
X0604478Y0219783D01*
X0604478Y0192224D01*
G36*
X0604478Y0192224D02*
G01*
X0553297Y0192224D01*
X0553297Y0219783D01*
X0604478Y0219783D01*
X0604478Y0192224D01*
G37*
D10*
X0464291Y0074508D03*
X0449291Y0074508D03*
D13*
X0162106Y0091339D03*
D14*
X0615748Y0118898D03*
X0619488Y0118898D03*
X0623228Y0118898D03*
X0619291Y0084646D03*
X0615748Y0084646D03*
X0280512Y0249606D03*
X0280512Y0254331D03*
X0280512Y0244882D03*
X0280512Y0240157D03*
X0337303Y0265590D03*
X0337303Y0269527D03*
D14*
X0546260Y0068602D03*
X0552461Y0049291D03*
X0602476Y0049327D03*
X0569094Y0046653D03*
X0573720Y0046653D03*
X0582283Y0046653D03*
X0591043Y0046653D03*
D37*
X0526968Y0092323D03*
X0501772Y0092323D03*
X0494291Y0092323D03*
X0477362Y0092323D03*
D14*
X0467913Y0090551D03*
X0463976Y0090551D03*
D37*
X0452756Y0092323D03*
X0528740Y0153346D03*
X0521457Y0153346D03*
X0501968Y0153346D03*
X0454528Y0153346D03*
D71*
X0234350Y0023819D03*
X0395768Y0023819D03*
D47*
X0259941Y0041535D03*
D48*
X0275689Y0041535D03*
X0291437Y0041535D03*
X0307185Y0041535D03*
X0322933Y0041535D03*
X0338681Y0041535D03*
X0354429Y0041535D03*
X0370177Y0041535D03*
X0267815Y0025787D03*
X0283563Y0025787D03*
X0299311Y0025787D03*
X0315059Y0025787D03*
X0330807Y0025787D03*
X0346555Y0025787D03*
X0362303Y0025787D03*
X0259941Y0010039D03*
X0275689Y0010039D03*
X0291437Y0010039D03*
X0307185Y0010039D03*
X0322933Y0010039D03*
X0338681Y0010039D03*
X0354429Y0010039D03*
X0370177Y0010039D03*
G36*
G01*
X0253740Y0248130D02*
X0253740Y0254429D01*
G75*
G02*
X0254724Y0255413I0000984J0000000D01*
G01*
X0261024Y0255413D01*
G75*
G02*
X0262008Y0254429I0000000J-000984D01*
G01*
X0262008Y0248130D01*
G75*
G02*
X0261024Y0247146I-000984J0000000D01*
G01*
X0254724Y0247146D01*
G75*
G02*
X0253740Y0248130I0000000J0000984D01*
G01*
G37*
G36*
G01*
X0231299Y0248130D02*
X0231299Y0254429D01*
G75*
G02*
X0232283Y0255413I0000984J0000000D01*
G01*
X0238583Y0255413D01*
G75*
G02*
X0239567Y0254429I0000000J-000984D01*
G01*
X0239567Y0248130D01*
G75*
G02*
X0238583Y0247146I-000984J0000000D01*
G01*
X0232283Y0247146D01*
G75*
G02*
X0231299Y0248130I0000000J0000984D01*
G01*
G37*
G36*
G01*
X0208858Y0248130D02*
X0208858Y0254429D01*
G75*
G02*
X0209843Y0255413I0000984J0000000D01*
G01*
X0216142Y0255413D01*
G75*
G02*
X0217126Y0254429I0000000J-000984D01*
G01*
X0217126Y0248130D01*
G75*
G02*
X0216142Y0247146I-000984J0000000D01*
G01*
X0209843Y0247146D01*
G75*
G02*
X0208858Y0248130I0000000J0000984D01*
G01*
G37*
G36*
G01*
X0186417Y0248130D02*
X0186417Y0254429D01*
G75*
G02*
X0187402Y0255413I0000984J0000000D01*
G01*
X0193701Y0255413D01*
G75*
G02*
X0194685Y0254429I0000000J-000984D01*
G01*
X0194685Y0248130D01*
G75*
G02*
X0193701Y0247146I-000984J0000000D01*
G01*
X0187402Y0247146D01*
G75*
G02*
X0186417Y0248130I0000000J0000984D01*
G01*
G37*
G36*
G01*
X0163976Y0248130D02*
X0163976Y0254429D01*
G75*
G02*
X0164961Y0255413I0000984J0000000D01*
G01*
X0171260Y0255413D01*
G75*
G02*
X0172244Y0254429I0000000J-000984D01*
G01*
X0172244Y0248130D01*
G75*
G02*
X0171260Y0247146I-000984J0000000D01*
G01*
X0164961Y0247146D01*
G75*
G02*
X0163976Y0248130I0000000J0000984D01*
G01*
G37*
G36*
G01*
X0141535Y0248130D02*
X0141535Y0254429D01*
G75*
G02*
X0142520Y0255413I0000984J0000000D01*
G01*
X0148819Y0255413D01*
G75*
G02*
X0149803Y0254429I0000000J-000984D01*
G01*
X0149803Y0248130D01*
G75*
G02*
X0148819Y0247146I-000984J0000000D01*
G01*
X0142520Y0247146D01*
G75*
G02*
X0141535Y0248130I0000000J0000984D01*
G01*
G37*
G36*
G01*
X0119094Y0248130D02*
X0119094Y0254429D01*
G75*
G02*
X0120079Y0255413I0000984J0000000D01*
G01*
X0126378Y0255413D01*
G75*
G02*
X0127362Y0254429I0000000J-000984D01*
G01*
X0127362Y0248130D01*
G75*
G02*
X0126378Y0247146I-000984J0000000D01*
G01*
X0120079Y0247146D01*
G75*
G02*
X0119094Y0248130I0000000J0000984D01*
G01*
G37*
G36*
G01*
X0096654Y0248130D02*
X0096654Y0254429D01*
G75*
G02*
X0097638Y0255413I0000984J0000000D01*
G01*
X0103937Y0255413D01*
G75*
G02*
X0104921Y0254429I0000000J-000984D01*
G01*
X0104921Y0248130D01*
G75*
G02*
X0103937Y0247146I-000984J0000000D01*
G01*
X0097638Y0247146D01*
G75*
G02*
X0096654Y0248130I0000000J0000984D01*
G01*
G37*
G36*
G01*
X0074213Y0248130D02*
X0074213Y0254429D01*
G75*
G02*
X0075197Y0255413I0000984J0000000D01*
G01*
X0081496Y0255413D01*
G75*
G02*
X0082480Y0254429I0000000J-000984D01*
G01*
X0082480Y0248130D01*
G75*
G02*
X0081496Y0247146I-000984J0000000D01*
G01*
X0075197Y0247146D01*
G75*
G02*
X0074213Y0248130I0000000J0000984D01*
G01*
G37*
G36*
G01*
X0051772Y0248130D02*
X0051772Y0254429D01*
G75*
G02*
X0052756Y0255413I0000984J0000000D01*
G01*
X0059055Y0255413D01*
G75*
G02*
X0060039Y0254429I0000000J-000984D01*
G01*
X0060039Y0248130D01*
G75*
G02*
X0059055Y0247146I-000984J0000000D01*
G01*
X0052756Y0247146D01*
G75*
G02*
X0051772Y0248130I0000000J0000984D01*
G01*
G37*
G36*
G01*
X0029331Y0248130D02*
X0029331Y0254429D01*
G75*
G02*
X0030315Y0255413I0000984J0000000D01*
G01*
X0036614Y0255413D01*
G75*
G02*
X0037598Y0254429I0000000J-000984D01*
G01*
X0037598Y0248130D01*
G75*
G02*
X0036614Y0247146I-000984J0000000D01*
G01*
X0030315Y0247146D01*
G75*
G02*
X0029331Y0248130I0000000J0000984D01*
G01*
G37*
G36*
G01*
X0253740Y0264272D02*
X0253740Y0270571D01*
G75*
G02*
X0254724Y0271555I0000984J0000000D01*
G01*
X0261024Y0271555D01*
G75*
G02*
X0262008Y0270571I0000000J-000984D01*
G01*
X0262008Y0264272D01*
G75*
G02*
X0261024Y0263287I-000984J0000000D01*
G01*
X0254724Y0263287D01*
G75*
G02*
X0253740Y0264272I0000000J0000984D01*
G01*
G37*
G36*
G01*
X0231299Y0264272D02*
X0231299Y0270571D01*
G75*
G02*
X0232283Y0271555I0000984J0000000D01*
G01*
X0238583Y0271555D01*
G75*
G02*
X0239567Y0270571I0000000J-000984D01*
G01*
X0239567Y0264272D01*
G75*
G02*
X0238583Y0263287I-000984J0000000D01*
G01*
X0232283Y0263287D01*
G75*
G02*
X0231299Y0264272I0000000J0000984D01*
G01*
G37*
G36*
G01*
X0208858Y0264272D02*
X0208858Y0270571D01*
G75*
G02*
X0209843Y0271555I0000984J0000000D01*
G01*
X0216142Y0271555D01*
G75*
G02*
X0217126Y0270571I0000000J-000984D01*
G01*
X0217126Y0264272D01*
G75*
G02*
X0216142Y0263287I-000984J0000000D01*
G01*
X0209843Y0263287D01*
G75*
G02*
X0208858Y0264272I0000000J0000984D01*
G01*
G37*
G36*
G01*
X0186417Y0264272D02*
X0186417Y0270571D01*
G75*
G02*
X0187402Y0271555I0000984J0000000D01*
G01*
X0193701Y0271555D01*
G75*
G02*
X0194685Y0270571I0000000J-000984D01*
G01*
X0194685Y0264272D01*
G75*
G02*
X0193701Y0263287I-000984J0000000D01*
G01*
X0187402Y0263287D01*
G75*
G02*
X0186417Y0264272I0000000J0000984D01*
G01*
G37*
G36*
G01*
X0163976Y0264272D02*
X0163976Y0270571D01*
G75*
G02*
X0164961Y0271555I0000984J0000000D01*
G01*
X0171260Y0271555D01*
G75*
G02*
X0172244Y0270571I0000000J-000984D01*
G01*
X0172244Y0264272D01*
G75*
G02*
X0171260Y0263287I-000984J0000000D01*
G01*
X0164961Y0263287D01*
G75*
G02*
X0163976Y0264272I0000000J0000984D01*
G01*
G37*
G36*
G01*
X0141535Y0264272D02*
X0141535Y0270571D01*
G75*
G02*
X0142520Y0271555I0000984J0000000D01*
G01*
X0148819Y0271555D01*
G75*
G02*
X0149803Y0270571I0000000J-000984D01*
G01*
X0149803Y0264272D01*
G75*
G02*
X0148819Y0263287I-000984J0000000D01*
G01*
X0142520Y0263287D01*
G75*
G02*
X0141535Y0264272I0000000J0000984D01*
G01*
G37*
G36*
G01*
X0119094Y0264272D02*
X0119094Y0270571D01*
G75*
G02*
X0120079Y0271555I0000984J0000000D01*
G01*
X0126378Y0271555D01*
G75*
G02*
X0127362Y0270571I0000000J-000984D01*
G01*
X0127362Y0264272D01*
G75*
G02*
X0126378Y0263287I-000984J0000000D01*
G01*
X0120079Y0263287D01*
G75*
G02*
X0119094Y0264272I0000000J0000984D01*
G01*
G37*
G36*
G01*
X0096654Y0264272D02*
X0096654Y0270571D01*
G75*
G02*
X0097638Y0271555I0000984J0000000D01*
G01*
X0103937Y0271555D01*
G75*
G02*
X0104921Y0270571I0000000J-000984D01*
G01*
X0104921Y0264272D01*
G75*
G02*
X0103937Y0263287I-000984J0000000D01*
G01*
X0097638Y0263287D01*
G75*
G02*
X0096654Y0264272I0000000J0000984D01*
G01*
G37*
G36*
G01*
X0074213Y0264272D02*
X0074213Y0270571D01*
G75*
G02*
X0075197Y0271555I0000984J0000000D01*
G01*
X0081496Y0271555D01*
G75*
G02*
X0082480Y0270571I0000000J-000984D01*
G01*
X0082480Y0264272D01*
G75*
G02*
X0081496Y0263287I-000984J0000000D01*
G01*
X0075197Y0263287D01*
G75*
G02*
X0074213Y0264272I0000000J0000984D01*
G01*
G37*
G36*
G01*
X0051772Y0264272D02*
X0051772Y0270571D01*
G75*
G02*
X0052756Y0271555I0000984J0000000D01*
G01*
X0059055Y0271555D01*
G75*
G02*
X0060039Y0270571I0000000J-000984D01*
G01*
X0060039Y0264272D01*
G75*
G02*
X0059055Y0263287I-000984J0000000D01*
G01*
X0052756Y0263287D01*
G75*
G02*
X0051772Y0264272I0000000J0000984D01*
G01*
G37*
G36*
G01*
X0029331Y0264272D02*
X0029331Y0270571D01*
G75*
G02*
X0030315Y0271555I0000984J0000000D01*
G01*
X0036614Y0271555D01*
G75*
G02*
X0037598Y0270571I0000000J-000984D01*
G01*
X0037598Y0264272D01*
G75*
G02*
X0036614Y0263287I-000984J0000000D01*
G01*
X0030315Y0263287D01*
G75*
G02*
X0029331Y0264272I0000000J0000984D01*
G01*
G37*
G36*
G01*
X0592323Y0247933D02*
X0592323Y0254232D01*
G75*
G02*
X0593307Y0255216I0000984J0000000D01*
G01*
X0599606Y0255216D01*
G75*
G02*
X0600591Y0254232I0000000J-000984D01*
G01*
X0600591Y0247933D01*
G75*
G02*
X0599606Y0246949I-000984J0000000D01*
G01*
X0593307Y0246949D01*
G75*
G02*
X0592323Y0247933I0000000J0000984D01*
G01*
G37*
G36*
G01*
X0569882Y0247933D02*
X0569882Y0254232D01*
G75*
G02*
X0570866Y0255216I0000984J0000000D01*
G01*
X0577165Y0255216D01*
G75*
G02*
X0578150Y0254232I0000000J-000984D01*
G01*
X0578150Y0247933D01*
G75*
G02*
X0577165Y0246949I-000984J0000000D01*
G01*
X0570866Y0246949D01*
G75*
G02*
X0569882Y0247933I0000000J0000984D01*
G01*
G37*
G36*
G01*
X0547441Y0247933D02*
X0547441Y0254232D01*
G75*
G02*
X0548425Y0255216I0000984J0000000D01*
G01*
X0554724Y0255216D01*
G75*
G02*
X0555709Y0254232I0000000J-000984D01*
G01*
X0555709Y0247933D01*
G75*
G02*
X0554724Y0246949I-000984J0000000D01*
G01*
X0548425Y0246949D01*
G75*
G02*
X0547441Y0247933I0000000J0000984D01*
G01*
G37*
G36*
G01*
X0525000Y0247933D02*
X0525000Y0254232D01*
G75*
G02*
X0525984Y0255216I0000984J0000000D01*
G01*
X0532283Y0255216D01*
G75*
G02*
X0533268Y0254232I0000000J-000984D01*
G01*
X0533268Y0247933D01*
G75*
G02*
X0532283Y0246949I-000984J0000000D01*
G01*
X0525984Y0246949D01*
G75*
G02*
X0525000Y0247933I0000000J0000984D01*
G01*
G37*
G36*
G01*
X0502559Y0247933D02*
X0502559Y0254232D01*
G75*
G02*
X0503543Y0255216I0000984J0000000D01*
G01*
X0509842Y0255216D01*
G75*
G02*
X0510827Y0254232I0000000J-000984D01*
G01*
X0510827Y0247933D01*
G75*
G02*
X0509842Y0246949I-000984J0000000D01*
G01*
X0503543Y0246949D01*
G75*
G02*
X0502559Y0247933I0000000J0000984D01*
G01*
G37*
G36*
G01*
X0480118Y0247933D02*
X0480118Y0254232D01*
G75*
G02*
X0481102Y0255216I0000984J0000000D01*
G01*
X0487402Y0255216D01*
G75*
G02*
X0488386Y0254232I0000000J-000984D01*
G01*
X0488386Y0247933D01*
G75*
G02*
X0487402Y0246949I-000984J0000000D01*
G01*
X0481102Y0246949D01*
G75*
G02*
X0480118Y0247933I0000000J0000984D01*
G01*
G37*
G36*
G01*
X0457677Y0247933D02*
X0457677Y0254232D01*
G75*
G02*
X0458661Y0255216I0000984J0000000D01*
G01*
X0464961Y0255216D01*
G75*
G02*
X0465945Y0254232I0000000J-000984D01*
G01*
X0465945Y0247933D01*
G75*
G02*
X0464961Y0246949I-000984J0000000D01*
G01*
X0458661Y0246949D01*
G75*
G02*
X0457677Y0247933I0000000J0000984D01*
G01*
G37*
G36*
G01*
X0435236Y0247933D02*
X0435236Y0254232D01*
G75*
G02*
X0436220Y0255216I0000984J0000000D01*
G01*
X0442520Y0255216D01*
G75*
G02*
X0443504Y0254232I0000000J-000984D01*
G01*
X0443504Y0247933D01*
G75*
G02*
X0442520Y0246949I-000984J0000000D01*
G01*
X0436220Y0246949D01*
G75*
G02*
X0435236Y0247933I0000000J0000984D01*
G01*
G37*
G36*
G01*
X0412795Y0247933D02*
X0412795Y0254232D01*
G75*
G02*
X0413780Y0255216I0000984J0000000D01*
G01*
X0420079Y0255216D01*
G75*
G02*
X0421063Y0254232I0000000J-000984D01*
G01*
X0421063Y0247933D01*
G75*
G02*
X0420079Y0246949I-000984J0000000D01*
G01*
X0413780Y0246949D01*
G75*
G02*
X0412795Y0247933I0000000J0000984D01*
G01*
G37*
G36*
G01*
X0390354Y0247933D02*
X0390354Y0254232D01*
G75*
G02*
X0391339Y0255216I0000984J0000000D01*
G01*
X0397638Y0255216D01*
G75*
G02*
X0398622Y0254232I0000000J-000984D01*
G01*
X0398622Y0247933D01*
G75*
G02*
X0397638Y0246949I-000984J0000000D01*
G01*
X0391339Y0246949D01*
G75*
G02*
X0390354Y0247933I0000000J0000984D01*
G01*
G37*
G36*
G01*
X0367913Y0247933D02*
X0367913Y0254232D01*
G75*
G02*
X0368898Y0255216I0000984J0000000D01*
G01*
X0375197Y0255216D01*
G75*
G02*
X0376181Y0254232I0000000J-000984D01*
G01*
X0376181Y0247933D01*
G75*
G02*
X0375197Y0246949I-000984J0000000D01*
G01*
X0368898Y0246949D01*
G75*
G02*
X0367913Y0247933I0000000J0000984D01*
G01*
G37*
G36*
G01*
X0592323Y0264075D02*
X0592323Y0270374D01*
G75*
G02*
X0593307Y0271358I0000984J0000000D01*
G01*
X0599606Y0271358D01*
G75*
G02*
X0600591Y0270374I0000000J-000984D01*
G01*
X0600591Y0264075D01*
G75*
G02*
X0599606Y0263090I-000984J0000000D01*
G01*
X0593307Y0263090D01*
G75*
G02*
X0592323Y0264075I0000000J0000984D01*
G01*
G37*
G36*
G01*
X0569882Y0264075D02*
X0569882Y0270374D01*
G75*
G02*
X0570866Y0271358I0000984J0000000D01*
G01*
X0577165Y0271358D01*
G75*
G02*
X0578150Y0270374I0000000J-000984D01*
G01*
X0578150Y0264075D01*
G75*
G02*
X0577165Y0263090I-000984J0000000D01*
G01*
X0570866Y0263090D01*
G75*
G02*
X0569882Y0264075I0000000J0000984D01*
G01*
G37*
G36*
G01*
X0547441Y0264075D02*
X0547441Y0270374D01*
G75*
G02*
X0548425Y0271358I0000984J0000000D01*
G01*
X0554724Y0271358D01*
G75*
G02*
X0555709Y0270374I0000000J-000984D01*
G01*
X0555709Y0264075D01*
G75*
G02*
X0554724Y0263090I-000984J0000000D01*
G01*
X0548425Y0263090D01*
G75*
G02*
X0547441Y0264075I0000000J0000984D01*
G01*
G37*
G36*
G01*
X0525000Y0264075D02*
X0525000Y0270374D01*
G75*
G02*
X0525984Y0271358I0000984J0000000D01*
G01*
X0532283Y0271358D01*
G75*
G02*
X0533268Y0270374I0000000J-000984D01*
G01*
X0533268Y0264075D01*
G75*
G02*
X0532283Y0263090I-000984J0000000D01*
G01*
X0525984Y0263090D01*
G75*
G02*
X0525000Y0264075I0000000J0000984D01*
G01*
G37*
G36*
G01*
X0502559Y0264075D02*
X0502559Y0270374D01*
G75*
G02*
X0503543Y0271358I0000984J0000000D01*
G01*
X0509842Y0271358D01*
G75*
G02*
X0510827Y0270374I0000000J-000984D01*
G01*
X0510827Y0264075D01*
G75*
G02*
X0509842Y0263090I-000984J0000000D01*
G01*
X0503543Y0263090D01*
G75*
G02*
X0502559Y0264075I0000000J0000984D01*
G01*
G37*
G36*
G01*
X0480118Y0264075D02*
X0480118Y0270374D01*
G75*
G02*
X0481102Y0271358I0000984J0000000D01*
G01*
X0487402Y0271358D01*
G75*
G02*
X0488386Y0270374I0000000J-000984D01*
G01*
X0488386Y0264075D01*
G75*
G02*
X0487402Y0263090I-000984J0000000D01*
G01*
X0481102Y0263090D01*
G75*
G02*
X0480118Y0264075I0000000J0000984D01*
G01*
G37*
G36*
G01*
X0457677Y0264075D02*
X0457677Y0270374D01*
G75*
G02*
X0458661Y0271358I0000984J0000000D01*
G01*
X0464961Y0271358D01*
G75*
G02*
X0465945Y0270374I0000000J-000984D01*
G01*
X0465945Y0264075D01*
G75*
G02*
X0464961Y0263090I-000984J0000000D01*
G01*
X0458661Y0263090D01*
G75*
G02*
X0457677Y0264075I0000000J0000984D01*
G01*
G37*
G36*
G01*
X0435236Y0264075D02*
X0435236Y0270374D01*
G75*
G02*
X0436220Y0271358I0000984J0000000D01*
G01*
X0442520Y0271358D01*
G75*
G02*
X0443504Y0270374I0000000J-000984D01*
G01*
X0443504Y0264075D01*
G75*
G02*
X0442520Y0263090I-000984J0000000D01*
G01*
X0436220Y0263090D01*
G75*
G02*
X0435236Y0264075I0000000J0000984D01*
G01*
G37*
G36*
G01*
X0412795Y0264075D02*
X0412795Y0270374D01*
G75*
G02*
X0413780Y0271358I0000984J0000000D01*
G01*
X0420079Y0271358D01*
G75*
G02*
X0421063Y0270374I0000000J-000984D01*
G01*
X0421063Y0264075D01*
G75*
G02*
X0420079Y0263090I-000984J0000000D01*
G01*
X0413780Y0263090D01*
G75*
G02*
X0412795Y0264075I0000000J0000984D01*
G01*
G37*
G36*
G01*
X0390354Y0264075D02*
X0390354Y0270374D01*
G75*
G02*
X0391339Y0271358I0000984J0000000D01*
G01*
X0397638Y0271358D01*
G75*
G02*
X0398622Y0270374I0000000J-000984D01*
G01*
X0398622Y0264075D01*
G75*
G02*
X0397638Y0263090I-000984J0000000D01*
G01*
X0391339Y0263090D01*
G75*
G02*
X0390354Y0264075I0000000J0000984D01*
G01*
G37*
G36*
G01*
X0367913Y0264075D02*
X0367913Y0270374D01*
G75*
G02*
X0368898Y0271358I0000984J0000000D01*
G01*
X0375197Y0271358D01*
G75*
G02*
X0376181Y0270374I0000000J-000984D01*
G01*
X0376181Y0264075D01*
G75*
G02*
X0375197Y0263090I-000984J0000000D01*
G01*
X0368898Y0263090D01*
G75*
G02*
X0367913Y0264075I0000000J0000984D01*
G01*
G37*
D14*
X0489370Y0206496D03*
X0489370Y0211220D03*
X0489370Y0201772D03*
X0489370Y0197047D03*
X0546161Y0222480D03*
X0546161Y0226417D03*
D49*
X0529035Y0176083D03*
D72*
X0477500Y0041752D03*
X0500256Y0041752D03*
D51*
X0471870Y0043720D03*
D52*
X0471870Y0027264D03*
D51*
X0505886Y0043720D03*
D52*
X0505886Y0027264D03*
D13*
X0574311Y0091339D03*
D49*
X0543917Y0176083D03*
D10*
X0446161Y0188287D03*
X0465453Y0188287D03*
X0493672Y0182509D03*
X0507313Y0168868D03*
G36*
G01*
X0099494Y0200955D02*
X0089777Y0195345D01*
G75*
G02*
X0088433Y0195705I-000492J0000852D01*
G01*
X0087006Y0198177D01*
G75*
G02*
X0087366Y0199522I0000852J0000492D01*
G01*
X0097083Y0205132D01*
G75*
G02*
X0098428Y0204772I0000492J-000852D01*
G01*
X0099855Y0202300D01*
G75*
G02*
X0099494Y0200955I-000852J-000492D01*
G01*
G37*
G36*
G01*
X0087831Y0221157D02*
X0078114Y0215547D01*
G75*
G02*
X0076769Y0215907I-000492J0000852D01*
G01*
X0075342Y0218379D01*
G75*
G02*
X0075702Y0219723I0000852J0000492D01*
G01*
X0085420Y0225333D01*
G75*
G02*
X0086764Y0224973I0000492J-000852D01*
G01*
X0088191Y0222501D01*
G75*
G02*
X0087831Y0221157I-000852J-000492D01*
G01*
G37*
G36*
G01*
X0134172Y0208384D02*
X0124455Y0202774D01*
G75*
G02*
X0123111Y0203134I-000492J0000852D01*
G01*
X0121683Y0205606D01*
G75*
G02*
X0122044Y0206950I0000852J0000492D01*
G01*
X0131761Y0212561D01*
G75*
G02*
X0133105Y0212200I0000492J-000852D01*
G01*
X0134533Y0209728D01*
G75*
G02*
X0134172Y0208384I-000852J-000492D01*
G01*
G37*
G36*
G01*
X0122509Y0228586D02*
X0112792Y0222975D01*
G75*
G02*
X0111447Y0223336I-000492J0000852D01*
G01*
X0110020Y0225808D01*
G75*
G02*
X0110380Y0227152I0000852J0000492D01*
G01*
X0120098Y0232762D01*
G75*
G02*
X0121442Y0232402I0000492J-000852D01*
G01*
X0122869Y0229930D01*
G75*
G02*
X0122509Y0228586I-000852J-000492D01*
G01*
G37*
G36*
G01*
X0053101Y0172831D02*
X0050442Y0171295D01*
G75*
G02*
X0050065Y0171396I-000138J0000239D01*
G01*
X0048963Y0173306D01*
G75*
G02*
X0049064Y0173682I0000239J0000138D01*
G01*
X0051723Y0175218D01*
G75*
G02*
X0052100Y0175117I0000138J-000239D01*
G01*
X0053202Y0173207D01*
G75*
G02*
X0053101Y0172831I-000239J-000138D01*
G01*
G37*
G36*
G01*
X0049952Y0178286D02*
X0047292Y0176751D01*
G75*
G02*
X0046916Y0176852I-000138J0000239D01*
G01*
X0045813Y0178761D01*
G75*
G02*
X0045914Y0179137I0000239J0000138D01*
G01*
X0048574Y0180673D01*
G75*
G02*
X0048950Y0180572I0000138J-000239D01*
G01*
X0050053Y0178663D01*
G75*
G02*
X0049952Y0178286I-000239J-000138D01*
G01*
G37*
G36*
G01*
X0206181Y0224744D02*
X0206181Y0220728D01*
G75*
G02*
X0205827Y0220374I-000354J0000000D01*
G01*
X0202992Y0220374D01*
G75*
G02*
X0202638Y0220728I0000000J0000354D01*
G01*
X0202638Y0224744D01*
G75*
G02*
X0202992Y0225098I0000354J0000000D01*
G01*
X0205827Y0225098D01*
G75*
G02*
X0206181Y0224744I0000000J-000354D01*
G01*
G37*
G36*
G01*
X0193189Y0224744D02*
X0193189Y0220728D01*
G75*
G02*
X0192835Y0220374I-000354J0000000D01*
G01*
X0190000Y0220374D01*
G75*
G02*
X0189646Y0220728I0000000J0000354D01*
G01*
X0189646Y0224744D01*
G75*
G02*
X0190000Y0225098I0000354J0000000D01*
G01*
X0192835Y0225098D01*
G75*
G02*
X0193189Y0224744I0000000J-000354D01*
G01*
G37*
G36*
G01*
X0212154Y0166175D02*
X0214994Y0163335D01*
G75*
G02*
X0214994Y0162834I-000251J-000251D01*
G01*
X0212989Y0160830D01*
G75*
G02*
X0212488Y0160830I-000251J0000251D01*
G01*
X0209649Y0163669D01*
G75*
G02*
X0209649Y0164170I0000251J0000251D01*
G01*
X0211653Y0166175D01*
G75*
G02*
X0212154Y0166175I0000251J-000251D01*
G01*
G37*
G36*
G01*
X0202967Y0156988D02*
X0205807Y0154148D01*
G75*
G02*
X0205807Y0153647I-000251J-000251D01*
G01*
X0203803Y0151643D01*
G75*
G02*
X0203301Y0151643I-000251J0000251D01*
G01*
X0200462Y0154482D01*
G75*
G02*
X0200462Y0154984I0000251J0000251D01*
G01*
X0202466Y0156988D01*
G75*
G02*
X0202967Y0156988I0000251J-000251D01*
G01*
G37*
G36*
G01*
X0256358Y0223622D02*
X0253287Y0223622D01*
G75*
G02*
X0253012Y0223898I0000000J0000276D01*
G01*
X0253012Y0226102D01*
G75*
G02*
X0253287Y0226378I0000276J0000000D01*
G01*
X0256358Y0226378D01*
G75*
G02*
X0256634Y0226102I0000000J-000276D01*
G01*
X0256634Y0223898D01*
G75*
G02*
X0256358Y0223622I-000276J0000000D01*
G01*
G37*
G36*
G01*
X0256358Y0229921D02*
X0253287Y0229921D01*
G75*
G02*
X0253012Y0230197I0000000J0000276D01*
G01*
X0253012Y0232401D01*
G75*
G02*
X0253287Y0232677I0000276J0000000D01*
G01*
X0256358Y0232677D01*
G75*
G02*
X0256634Y0232401I0000000J-000276D01*
G01*
X0256634Y0230197D01*
G75*
G02*
X0256358Y0229921I-000276J0000000D01*
G01*
G37*
G36*
G01*
X0120621Y0187595D02*
X0117962Y0186059D01*
G75*
G02*
X0117585Y0186160I-000138J0000239D01*
G01*
X0116483Y0188069D01*
G75*
G02*
X0116584Y0188446I0000239J0000138D01*
G01*
X0119243Y0189981D01*
G75*
G02*
X0119620Y0189880I0000138J-000239D01*
G01*
X0120722Y0187971D01*
G75*
G02*
X0120621Y0187595I-000239J-000138D01*
G01*
G37*
G36*
G01*
X0117471Y0193050D02*
X0114812Y0191515D01*
G75*
G02*
X0114436Y0191615I-000138J0000239D01*
G01*
X0113333Y0193525D01*
G75*
G02*
X0113434Y0193901I0000239J0000138D01*
G01*
X0116093Y0195437D01*
G75*
G02*
X0116470Y0195336I0000138J-000239D01*
G01*
X0117572Y0193426D01*
G75*
G02*
X0117471Y0193050I-000239J-000138D01*
G01*
G37*
G36*
G01*
X0068490Y0190419D02*
X0058773Y0184809D01*
G75*
G02*
X0057429Y0185169I-000492J0000852D01*
G01*
X0056002Y0187641D01*
G75*
G02*
X0056362Y0188986I0000852J0000492D01*
G01*
X0066079Y0194596D01*
G75*
G02*
X0067424Y0194235I0000492J-000852D01*
G01*
X0068851Y0191764D01*
G75*
G02*
X0068490Y0190419I-000852J-000492D01*
G01*
G37*
G36*
G01*
X0056827Y0210621D02*
X0047110Y0205010D01*
G75*
G02*
X0045765Y0205371I-000492J0000852D01*
G01*
X0044338Y0207843D01*
G75*
G02*
X0044698Y0209187I0000852J0000492D01*
G01*
X0054416Y0214797D01*
G75*
G02*
X0055760Y0214437I0000492J-000852D01*
G01*
X0057187Y0211965D01*
G75*
G02*
X0056827Y0210621I-000852J-000492D01*
G01*
G37*
G36*
G01*
X0256752Y0193307D02*
X0253681Y0193307D01*
G75*
G02*
X0253405Y0193583I0000000J0000276D01*
G01*
X0253405Y0195787D01*
G75*
G02*
X0253681Y0196063I0000276J0000000D01*
G01*
X0256752Y0196063D01*
G75*
G02*
X0257028Y0195787I0000000J-000276D01*
G01*
X0257028Y0193583D01*
G75*
G02*
X0256752Y0193307I-000276J0000000D01*
G01*
G37*
G36*
G01*
X0256752Y0199606D02*
X0253681Y0199606D01*
G75*
G02*
X0253405Y0199882I0000000J0000276D01*
G01*
X0253405Y0202087D01*
G75*
G02*
X0253681Y0202362I0000276J0000000D01*
G01*
X0256752Y0202362D01*
G75*
G02*
X0257028Y0202087I0000000J-000276D01*
G01*
X0257028Y0199882D01*
G75*
G02*
X0256752Y0199606I-000276J0000000D01*
G01*
G37*
G36*
G01*
X0214272Y0187342D02*
X0214272Y0183327D01*
G75*
G02*
X0213917Y0182972I-000354J0000000D01*
G01*
X0211083Y0182972D01*
G75*
G02*
X0210728Y0183327I0000000J0000354D01*
G01*
X0210728Y0187342D01*
G75*
G02*
X0211083Y0187697I0000354J0000000D01*
G01*
X0213917Y0187697D01*
G75*
G02*
X0214272Y0187342I0000000J-000354D01*
G01*
G37*
G36*
G01*
X0201280Y0187342D02*
X0201280Y0183327D01*
G75*
G02*
X0200925Y0182972I-000354J0000000D01*
G01*
X0198091Y0182972D01*
G75*
G02*
X0197736Y0183327I0000000J0000354D01*
G01*
X0197736Y0187342D01*
G75*
G02*
X0198091Y0187697I0000354J0000000D01*
G01*
X0200925Y0187697D01*
G75*
G02*
X0201280Y0187342I0000000J-000354D01*
G01*
G37*
G36*
G01*
X0175669Y0172677D02*
X0175669Y0168661D01*
G75*
G02*
X0175315Y0168307I-000354J0000000D01*
G01*
X0172480Y0168307D01*
G75*
G02*
X0172126Y0168661I0000000J0000354D01*
G01*
X0172126Y0172677D01*
G75*
G02*
X0172480Y0173031I0000354J0000000D01*
G01*
X0175315Y0173031D01*
G75*
G02*
X0175669Y0172677I0000000J-000354D01*
G01*
G37*
G36*
G01*
X0162677Y0172677D02*
X0162677Y0168661D01*
G75*
G02*
X0162323Y0168307I-000354J0000000D01*
G01*
X0159488Y0168307D01*
G75*
G02*
X0159134Y0168661I0000000J0000354D01*
G01*
X0159134Y0172677D01*
G75*
G02*
X0159488Y0173031I0000354J0000000D01*
G01*
X0162323Y0173031D01*
G75*
G02*
X0162677Y0172677I0000000J-000354D01*
G01*
G37*
G36*
G01*
X0020424Y0170272D02*
X0017765Y0168736D01*
G75*
G02*
X0017388Y0168837I-000138J0000239D01*
G01*
X0016286Y0170747D01*
G75*
G02*
X0016387Y0171123I0000239J0000138D01*
G01*
X0019046Y0172659D01*
G75*
G02*
X0019423Y0172558I0000138J-000239D01*
G01*
X0020525Y0170648D01*
G75*
G02*
X0020424Y0170272I-000239J-000138D01*
G01*
G37*
G36*
G01*
X0017275Y0175727D02*
X0014615Y0174192D01*
G75*
G02*
X0014239Y0174293I-000138J0000239D01*
G01*
X0013136Y0176202D01*
G75*
G02*
X0013237Y0176578I0000239J0000138D01*
G01*
X0015897Y0178114D01*
G75*
G02*
X0016273Y0178013I0000138J-000239D01*
G01*
X0017375Y0176104D01*
G75*
G02*
X0017275Y0175727I-000239J-000138D01*
G01*
G37*
G36*
G01*
X0035978Y0183975D02*
X0026261Y0178364D01*
G75*
G02*
X0024916Y0178725I-000492J0000852D01*
G01*
X0023489Y0181196D01*
G75*
G02*
X0023849Y0182541I0000852J0000492D01*
G01*
X0033567Y0188151D01*
G75*
G02*
X0034911Y0187791I0000492J-000852D01*
G01*
X0036338Y0185319D01*
G75*
G02*
X0035978Y0183975I-000852J-000492D01*
G01*
G37*
G36*
G01*
X0024315Y0204176D02*
X0014597Y0198566D01*
G75*
G02*
X0013253Y0198926I-000492J0000852D01*
G01*
X0011826Y0201398D01*
G75*
G02*
X0012186Y0202743I0000852J0000492D01*
G01*
X0021903Y0208353D01*
G75*
G02*
X0023248Y0207993I0000492J-000852D01*
G01*
X0024675Y0205521D01*
G75*
G02*
X0024315Y0204176I-000852J-000492D01*
G01*
G37*
G36*
G01*
X0085582Y0182083D02*
X0082922Y0180547D01*
G75*
G02*
X0082546Y0180648I-000138J0000239D01*
G01*
X0081443Y0182558D01*
G75*
G02*
X0081544Y0182934I0000239J0000138D01*
G01*
X0084204Y0184470D01*
G75*
G02*
X0084580Y0184369I0000138J-000239D01*
G01*
X0085683Y0182459D01*
G75*
G02*
X0085582Y0182083I-000239J-000138D01*
G01*
G37*
G36*
G01*
X0082432Y0187538D02*
X0079773Y0186003D01*
G75*
G02*
X0079396Y0186104I-000138J0000239D01*
G01*
X0078294Y0188013D01*
G75*
G02*
X0078395Y0188389I0000239J0000138D01*
G01*
X0081054Y0189925D01*
G75*
G02*
X0081431Y0189824I0000138J-000239D01*
G01*
X0082533Y0187915D01*
G75*
G02*
X0082432Y0187538I-000239J-000138D01*
G01*
G37*
X0450492Y0141929D02*
G01*
G75*
D365*
X0526870Y0112014D02*
D03*
X0526870Y0125006D02*
D03*
D366*
X0527264Y0092154D02*
D03*
X0527264Y0103571D02*
D03*
X0519232Y0092154D02*
D03*
X0519232Y0103571D02*
D03*
D369*
X0505216Y0129527D02*
D03*
X0509153Y0129527D02*
D03*
X0519783Y0132874D02*
D03*
X0519783Y0124212D02*
D03*
X0514535Y0133661D02*
D03*
X0514535Y0125000D02*
D03*
D370*
X0461909Y0121774D02*
D03*
X0461909Y0125318D02*
D03*
X0498642Y0112383D02*
D03*
X0498642Y0108839D02*
D03*
X0513747Y0120380D02*
D03*
X0513747Y0116837D02*
D03*
X0461909Y0113156D02*
D03*
X0461909Y0116699D02*
D03*
X0465846Y0133661D02*
D03*
X0465846Y0130118D02*
D03*
D371*
X0515322Y0108176D02*
D03*
X0518866Y0108176D02*
D03*
X0527724Y0128943D02*
D03*
X0524180Y0128943D02*
D03*
X0469407Y0080179D02*
D03*
X0472951Y0080179D02*
D03*
D131*
X0468602Y0076181D02*
D03*
X0464665Y0076181D02*
D03*
D132*
X0522145Y0138976D02*
D03*
X0455216Y0138976D02*
D03*
X0502657Y0138976D02*
D03*
X0502460Y0077953D02*
D03*
X0527657Y0077953D02*
D03*
X0478051Y0077953D02*
D03*
X0494980Y0077953D02*
D03*
X0453445Y0077953D02*
D03*
X0529429Y0138976D02*
D03*
D377*
X0506791Y0092716D02*
D03*
X0506791Y0103740D02*
D03*
D378*
X0502468Y0125394D02*
D03*
X0508688Y0125394D02*
D03*
X0502468Y0111300D02*
D03*
X0508688Y0111300D02*
D03*
X0502468Y0115991D02*
D03*
X0508688Y0115991D02*
D03*
X0502468Y0120683D02*
D03*
X0508688Y0120683D02*
D03*
X0514712Y0112481D02*
D03*
X0520933Y0112481D02*
D03*
D379*
X0465846Y0121971D02*
D03*
X0465846Y0125908D02*
D03*
X0465846Y0117290D02*
D03*
X0465846Y0113353D02*
D03*
X0519783Y0120577D02*
D03*
X0519783Y0116640D02*
D03*
X0498169Y0097644D02*
D03*
X0498169Y0093707D02*
D03*
X0460728Y0089868D02*
D03*
X0460728Y0093806D02*
D03*
D307*
X0472606Y0116857D02*
D03*
X0472606Y0121857D02*
D03*
X0472606Y0126857D02*
D03*
X0472606Y0131857D02*
D03*
X0495243Y0116857D02*
D03*
X0495243Y0121857D02*
D03*
X0495243Y0126857D02*
D03*
X0495243Y0131857D02*
D03*
X0467323Y0093790D02*
D03*
X0467323Y0098790D02*
D03*
X0467323Y0103790D02*
D03*
X0467323Y0108790D02*
D03*
X0490748Y0093790D02*
D03*
X0490748Y0098790D02*
D03*
X0490748Y0103790D02*
D03*
X0490748Y0108790D02*
D03*
D380*
X0483924Y0124357D02*
D03*
D381*
X0479035Y0101290D02*
D03*
X0626673Y0069094D02*
G01*
G75*
D131*
X0616437Y0104527D02*
D03*
X0620177Y0104527D02*
D03*
X0623917Y0104527D02*
D03*
X0619980Y0070275D02*
D03*
X0616437Y0070275D02*
D03*
D306*
X0616437Y0097047D02*
D03*
X0616437Y0100984D02*
D03*
X0616437Y0085924D02*
D03*
X0616437Y0081987D02*
D03*
X0616437Y0077558D02*
D03*
X0616437Y0073621D02*
D03*
X0623720Y0097047D02*
D03*
X0623720Y0100984D02*
D03*
D297*
X0623917Y0093662D02*
D03*
X0620374Y0093662D02*
D03*
D305*
X0617204Y0089777D02*
D03*
X0623425Y0089777D02*
D03*
D296*
X0620374Y0077165D02*
D03*
X0620374Y0073622D02*
D03*
X0623917Y0085531D02*
D03*
X0623917Y0081988D02*
D03*
X0620316Y0100393D02*
D03*
X0620316Y0096850D02*
D03*
X0623917Y0073622D02*
D03*
X0623917Y0077165D02*
D03*
X0339469Y0262402D02*
%LPD*%
G01*
D14*
X0281201Y0235237D03*
X0281201Y0239961D03*
X0281201Y0230512D03*
X0281201Y0225788D03*
X0337993Y0251221D03*
X0337993Y0255158D03*
G36*
G01*
X0322540Y0231808D02*
X0322540Y0232989D01*
G75*
G02*
X0323130Y0233580I0000591J0000000D01*
G01*
X0327166Y0233580D01*
G75*
G02*
X0327756Y0232989I0000000J-000591D01*
G01*
X0327756Y0231808D01*
G75*
G02*
X0327166Y0231218I-000591J0000000D01*
G01*
X0323130Y0231218D01*
G75*
G02*
X0322540Y0231808I0000000J0000591D01*
G01*
G37*
G36*
G01*
X0322540Y0235549D02*
X0322540Y0236730D01*
G75*
G02*
X0323130Y0237320I0000591J0000000D01*
G01*
X0327166Y0237320D01*
G75*
G02*
X0327756Y0236730I0000000J-000591D01*
G01*
X0327756Y0235549D01*
G75*
G02*
X0327166Y0234958I-000591J0000000D01*
G01*
X0323130Y0234958D01*
G75*
G02*
X0322540Y0235549I0000000J0000591D01*
G01*
G37*
G36*
G01*
X0322540Y0239289D02*
X0322540Y0240470D01*
G75*
G02*
X0323130Y0241060I0000591J0000000D01*
G01*
X0327166Y0241060D01*
G75*
G02*
X0327756Y0240470I0000000J-000591D01*
G01*
X0327756Y0239289D01*
G75*
G02*
X0327166Y0238698I-000591J0000000D01*
G01*
X0323130Y0238698D01*
G75*
G02*
X0322540Y0239289I0000000J0000591D01*
G01*
G37*
G36*
G01*
X0331497Y0239289D02*
X0331497Y0240470D01*
G75*
G02*
X0332087Y0241060I0000591J0000000D01*
G01*
X0336123Y0241060D01*
G75*
G02*
X0336713Y0240470I0000000J-000591D01*
G01*
X0336713Y0239289D01*
G75*
G02*
X0336123Y0238698I-000591J0000000D01*
G01*
X0332087Y0238698D01*
G75*
G02*
X0331497Y0239289I0000000J0000591D01*
G01*
G37*
G36*
G01*
X0331497Y0231808D02*
X0331497Y0232989D01*
G75*
G02*
X0332087Y0233580I0000591J0000000D01*
G01*
X0336123Y0233580D01*
G75*
G02*
X0336713Y0232989I0000000J-000591D01*
G01*
X0336713Y0231808D01*
G75*
G02*
X0336123Y0231218I-000591J0000000D01*
G01*
X0332087Y0231218D01*
G75*
G02*
X0331497Y0231808I0000000J0000591D01*
G01*
G37*
G36*
G01*
X0322815Y0254095D02*
X0321477Y0254095D01*
G75*
G02*
X0320926Y0254646I0000000J0000551D01*
G01*
X0320926Y0255748D01*
G75*
G02*
X0321477Y0256300I0000551J0000000D01*
G01*
X0322815Y0256300D01*
G75*
G02*
X0323367Y0255748I0000000J-000551D01*
G01*
X0323367Y0254646D01*
G75*
G02*
X0322815Y0254095I-000551J0000000D01*
G01*
G37*
G36*
G01*
X0322815Y0257874D02*
X0321477Y0257874D01*
G75*
G02*
X0320926Y0258426I0000000J0000551D01*
G01*
X0320926Y0259528D01*
G75*
G02*
X0321477Y0260079I0000551J0000000D01*
G01*
X0322815Y0260079D01*
G75*
G02*
X0323367Y0259528I0000000J-000551D01*
G01*
X0323367Y0258426D01*
G75*
G02*
X0322815Y0257874I-000551J0000000D01*
G01*
G37*
G36*
G01*
X0296300Y0231378D02*
X0296300Y0230040D01*
G75*
G02*
X0295749Y0229489I-000551J0000000D01*
G01*
X0294646Y0229489D01*
G75*
G02*
X0294095Y0230040I0000000J0000551D01*
G01*
X0294095Y0231378D01*
G75*
G02*
X0294646Y0231930I0000551J0000000D01*
G01*
X0295749Y0231930D01*
G75*
G02*
X0296300Y0231378I0000000J-000551D01*
G01*
G37*
G36*
G01*
X0292520Y0231378D02*
X0292520Y0230040D01*
G75*
G02*
X0291969Y0229489I-000551J0000000D01*
G01*
X0290867Y0229489D01*
G75*
G02*
X0290315Y0230040I0000000J0000551D01*
G01*
X0290315Y0231378D01*
G75*
G02*
X0290867Y0231930I0000551J0000000D01*
G01*
X0291969Y0231930D01*
G75*
G02*
X0292520Y0231378I0000000J-000551D01*
G01*
G37*
G36*
G01*
X0282953Y0226378D02*
X0282953Y0227717D01*
G75*
G02*
X0283504Y0228268I0000551J0000000D01*
G01*
X0284607Y0228268D01*
G75*
G02*
X0285158Y0227717I0000000J-000551D01*
G01*
X0285158Y0226378D01*
G75*
G02*
X0284607Y0225827I-000551J0000000D01*
G01*
X0283504Y0225827D01*
G75*
G02*
X0282953Y0226378I0000000J0000551D01*
G01*
G37*
G36*
G01*
X0286733Y0226378D02*
X0286733Y0227717D01*
G75*
G02*
X0287284Y0228268I0000551J0000000D01*
G01*
X0288386Y0228268D01*
G75*
G02*
X0288938Y0227717I0000000J-000551D01*
G01*
X0288938Y0226378D01*
G75*
G02*
X0288386Y0225827I-000551J0000000D01*
G01*
X0287284Y0225827D01*
G75*
G02*
X0286733Y0226378I0000000J0000551D01*
G01*
G37*
G36*
G01*
X0304705Y0235119D02*
X0304705Y0233780D01*
G75*
G02*
X0304154Y0233229I-000551J0000000D01*
G01*
X0303052Y0233229D01*
G75*
G02*
X0302500Y0233780I0000000J0000551D01*
G01*
X0302500Y0235119D01*
G75*
G02*
X0303052Y0235670I0000551J0000000D01*
G01*
X0304154Y0235670D01*
G75*
G02*
X0304705Y0235119I0000000J-000551D01*
G01*
G37*
G36*
G01*
X0300926Y0235119D02*
X0300926Y0233780D01*
G75*
G02*
X0300375Y0233229I-000551J0000000D01*
G01*
X0299272Y0233229D01*
G75*
G02*
X0298721Y0233780I0000000J0000551D01*
G01*
X0298721Y0235119D01*
G75*
G02*
X0299272Y0235670I0000551J0000000D01*
G01*
X0300375Y0235670D01*
G75*
G02*
X0300926Y0235119I0000000J-000551D01*
G01*
G37*
G36*
G01*
X0283150Y0230040D02*
X0283150Y0231378D01*
G75*
G02*
X0283701Y0231930I0000551J0000000D01*
G01*
X0284804Y0231930D01*
G75*
G02*
X0285355Y0231378I0000000J-000551D01*
G01*
X0285355Y0230040D01*
G75*
G02*
X0284804Y0229489I-000551J0000000D01*
G01*
X0283701Y0229489D01*
G75*
G02*
X0283150Y0230040I0000000J0000551D01*
G01*
G37*
G36*
G01*
X0286930Y0230040D02*
X0286930Y0231378D01*
G75*
G02*
X0287481Y0231930I0000551J0000000D01*
G01*
X0288583Y0231930D01*
G75*
G02*
X0289134Y0231378I0000000J-000551D01*
G01*
X0289134Y0230040D01*
G75*
G02*
X0288583Y0229489I-000551J0000000D01*
G01*
X0287481Y0229489D01*
G75*
G02*
X0286930Y0230040I0000000J0000551D01*
G01*
G37*
G36*
G01*
X0288426Y0251556D02*
X0288426Y0250217D01*
G75*
G02*
X0287875Y0249666I-000551J0000000D01*
G01*
X0286772Y0249666D01*
G75*
G02*
X0286221Y0250217I0000000J0000551D01*
G01*
X0286221Y0251556D01*
G75*
G02*
X0286772Y0252107I0000551J0000000D01*
G01*
X0287875Y0252107D01*
G75*
G02*
X0288426Y0251556I0000000J-000551D01*
G01*
G37*
G36*
G01*
X0284646Y0251556D02*
X0284646Y0250217D01*
G75*
G02*
X0284095Y0249666I-000551J0000000D01*
G01*
X0282993Y0249666D01*
G75*
G02*
X0282441Y0250217I0000000J0000551D01*
G01*
X0282441Y0251556D01*
G75*
G02*
X0282993Y0252107I0000551J0000000D01*
G01*
X0284095Y0252107D01*
G75*
G02*
X0284646Y0251556I0000000J-000551D01*
G01*
G37*
G36*
G01*
X0318935Y0259056D02*
X0318935Y0258268D01*
G75*
G02*
X0318541Y0257874I-000394J0000000D01*
G01*
X0313521Y0257874D01*
G75*
G02*
X0313128Y0258268I0000000J0000394D01*
G01*
X0313128Y0259056D01*
G75*
G02*
X0313521Y0259449I0000394J0000000D01*
G01*
X0318541Y0259449D01*
G75*
G02*
X0318935Y0259056I0000000J-000394D01*
G01*
G37*
G36*
G01*
X0318935Y0256496D02*
X0318935Y0255709D01*
G75*
G02*
X0318541Y0255315I-000394J0000000D01*
G01*
X0313521Y0255315D01*
G75*
G02*
X0313128Y0255709I0000000J0000394D01*
G01*
X0313128Y0256496D01*
G75*
G02*
X0313521Y0256890I0000394J0000000D01*
G01*
X0318541Y0256890D01*
G75*
G02*
X0318935Y0256496I0000000J-000394D01*
G01*
G37*
G36*
G01*
X0318935Y0253937D02*
X0318935Y0253150D01*
G75*
G02*
X0318541Y0252756I-000394J0000000D01*
G01*
X0313521Y0252756D01*
G75*
G02*
X0313128Y0253150I0000000J0000394D01*
G01*
X0313128Y0253937D01*
G75*
G02*
X0313521Y0254331I0000394J0000000D01*
G01*
X0318541Y0254331D01*
G75*
G02*
X0318935Y0253937I0000000J-000394D01*
G01*
G37*
G36*
G01*
X0318935Y0251378D02*
X0318935Y0250591D01*
G75*
G02*
X0318541Y0250197I-000394J0000000D01*
G01*
X0313521Y0250197D01*
G75*
G02*
X0313128Y0250591I0000000J0000394D01*
G01*
X0313128Y0251378D01*
G75*
G02*
X0313521Y0251772I0000394J0000000D01*
G01*
X0318541Y0251772D01*
G75*
G02*
X0318935Y0251378I0000000J-000394D01*
G01*
G37*
G36*
G01*
X0318935Y0248819D02*
X0318935Y0248032D01*
G75*
G02*
X0318541Y0247638I-000394J0000000D01*
G01*
X0313521Y0247638D01*
G75*
G02*
X0313128Y0248032I0000000J0000394D01*
G01*
X0313128Y0248819D01*
G75*
G02*
X0313521Y0249213I0000394J0000000D01*
G01*
X0318541Y0249213D01*
G75*
G02*
X0318935Y0248819I0000000J-000394D01*
G01*
G37*
G36*
G01*
X0318935Y0246260D02*
X0318935Y0245473D01*
G75*
G02*
X0318541Y0245079I-000394J0000000D01*
G01*
X0313521Y0245079D01*
G75*
G02*
X0313128Y0245473I0000000J0000394D01*
G01*
X0313128Y0246260D01*
G75*
G02*
X0313521Y0246654I0000394J0000000D01*
G01*
X0318541Y0246654D01*
G75*
G02*
X0318935Y0246260I0000000J-000394D01*
G01*
G37*
G36*
G01*
X0318935Y0243701D02*
X0318935Y0242914D01*
G75*
G02*
X0318541Y0242520I-000394J0000000D01*
G01*
X0313521Y0242520D01*
G75*
G02*
X0313128Y0242914I0000000J0000394D01*
G01*
X0313128Y0243701D01*
G75*
G02*
X0313521Y0244095I0000394J0000000D01*
G01*
X0318541Y0244095D01*
G75*
G02*
X0318935Y0243701I0000000J-000394D01*
G01*
G37*
G36*
G01*
X0296395Y0243701D02*
X0296395Y0242914D01*
G75*
G02*
X0296002Y0242520I-000394J0000000D01*
G01*
X0290982Y0242520D01*
G75*
G02*
X0290588Y0242914I0000000J0000394D01*
G01*
X0290588Y0243701D01*
G75*
G02*
X0290982Y0244095I0000394J0000000D01*
G01*
X0296002Y0244095D01*
G75*
G02*
X0296395Y0243701I0000000J-000394D01*
G01*
G37*
G36*
G01*
X0296395Y0246260D02*
X0296395Y0245473D01*
G75*
G02*
X0296002Y0245079I-000394J0000000D01*
G01*
X0290982Y0245079D01*
G75*
G02*
X0290588Y0245473I0000000J0000394D01*
G01*
X0290588Y0246260D01*
G75*
G02*
X0290982Y0246654I0000394J0000000D01*
G01*
X0296002Y0246654D01*
G75*
G02*
X0296395Y0246260I0000000J-000394D01*
G01*
G37*
G36*
G01*
X0296395Y0248819D02*
X0296395Y0248032D01*
G75*
G02*
X0296002Y0247638I-000394J0000000D01*
G01*
X0290982Y0247638D01*
G75*
G02*
X0290588Y0248032I0000000J0000394D01*
G01*
X0290588Y0248819D01*
G75*
G02*
X0290982Y0249213I0000394J0000000D01*
G01*
X0296002Y0249213D01*
G75*
G02*
X0296395Y0248819I0000000J-000394D01*
G01*
G37*
G36*
G01*
X0296395Y0251378D02*
X0296395Y0250591D01*
G75*
G02*
X0296002Y0250197I-000394J0000000D01*
G01*
X0290982Y0250197D01*
G75*
G02*
X0290588Y0250591I0000000J0000394D01*
G01*
X0290588Y0251378D01*
G75*
G02*
X0290982Y0251772I0000394J0000000D01*
G01*
X0296002Y0251772D01*
G75*
G02*
X0296395Y0251378I0000000J-000394D01*
G01*
G37*
G36*
G01*
X0296395Y0253937D02*
X0296395Y0253150D01*
G75*
G02*
X0296002Y0252756I-000394J0000000D01*
G01*
X0290982Y0252756D01*
G75*
G02*
X0290588Y0253150I0000000J0000394D01*
G01*
X0290588Y0253937D01*
G75*
G02*
X0290982Y0254331I0000394J0000000D01*
G01*
X0296002Y0254331D01*
G75*
G02*
X0296395Y0253937I0000000J-000394D01*
G01*
G37*
G36*
G01*
X0296395Y0256496D02*
X0296395Y0255709D01*
G75*
G02*
X0296002Y0255315I-000394J0000000D01*
G01*
X0290982Y0255315D01*
G75*
G02*
X0290588Y0255709I0000000J0000394D01*
G01*
X0290588Y0256496D01*
G75*
G02*
X0290982Y0256890I0000394J0000000D01*
G01*
X0296002Y0256890D01*
G75*
G02*
X0296395Y0256496I0000000J-000394D01*
G01*
G37*
G36*
G01*
X0296395Y0259056D02*
X0296395Y0258268D01*
G75*
G02*
X0296002Y0257874I-000394J0000000D01*
G01*
X0290982Y0257874D01*
G75*
G02*
X0290588Y0258268I0000000J0000394D01*
G01*
X0290588Y0259056D01*
G75*
G02*
X0290982Y0259449I0000394J0000000D01*
G01*
X0296002Y0259449D01*
G75*
G02*
X0296395Y0259056I0000000J-000394D01*
G01*
G37*
G36*
G01*
X0336578Y0251185D02*
X0336578Y0247642D01*
G75*
G02*
X0335594Y0246658I-000984J0000000D01*
G01*
X0333527Y0246658D01*
G75*
G02*
X0332543Y0247642I0000000J0000984D01*
G01*
X0332543Y0251185D01*
G75*
G02*
X0333527Y0252170I0000984J0000000D01*
G01*
X0335594Y0252170D01*
G75*
G02*
X0336578Y0251185I0000000J-000984D01*
G01*
G37*
G36*
G01*
X0329393Y0251185D02*
X0329393Y0247642D01*
G75*
G02*
X0328409Y0246658I-000984J0000000D01*
G01*
X0326342Y0246658D01*
G75*
G02*
X0325358Y0247642I0000000J0000984D01*
G01*
X0325358Y0251185D01*
G75*
G02*
X0326342Y0252170I0000984J0000000D01*
G01*
X0328409Y0252170D01*
G75*
G02*
X0329393Y0251185I0000000J-000984D01*
G01*
G37*
G36*
G01*
X0290335Y0237461D02*
X0290335Y0238918D01*
G75*
G02*
X0290867Y0239449I0000531J0000000D01*
G01*
X0291930Y0239449D01*
G75*
G02*
X0292461Y0238918I0000000J-000531D01*
G01*
X0292461Y0237461D01*
G75*
G02*
X0291930Y0236930I-000531J0000000D01*
G01*
X0290867Y0236930D01*
G75*
G02*
X0290335Y0237461I0000000J0000531D01*
G01*
G37*
G36*
G01*
X0294351Y0237461D02*
X0294351Y0238918D01*
G75*
G02*
X0294882Y0239449I0000531J0000000D01*
G01*
X0295945Y0239449D01*
G75*
G02*
X0296477Y0238918I0000000J-000531D01*
G01*
X0296477Y0237461D01*
G75*
G02*
X0295945Y0236930I-000531J0000000D01*
G01*
X0294882Y0236930D01*
G75*
G02*
X0294351Y0237461I0000000J0000531D01*
G01*
G37*
G36*
G01*
X0330768Y0226536D02*
X0330768Y0227874D01*
G75*
G02*
X0331319Y0228426I0000551J0000000D01*
G01*
X0332422Y0228426D01*
G75*
G02*
X0332973Y0227874I0000000J-000551D01*
G01*
X0332973Y0226536D01*
G75*
G02*
X0332422Y0225985I-000551J0000000D01*
G01*
X0331319Y0225985D01*
G75*
G02*
X0330768Y0226536I0000000J0000551D01*
G01*
G37*
G36*
G01*
X0334548Y0226536D02*
X0334548Y0227874D01*
G75*
G02*
X0335099Y0228426I0000551J0000000D01*
G01*
X0336201Y0228426D01*
G75*
G02*
X0336752Y0227874I0000000J-000551D01*
G01*
X0336752Y0226536D01*
G75*
G02*
X0336201Y0225985I-000551J0000000D01*
G01*
X0335099Y0225985D01*
G75*
G02*
X0334548Y0226536I0000000J0000551D01*
G01*
G37*
G36*
G01*
X0282658Y0233721D02*
X0282658Y0235178D01*
G75*
G02*
X0283189Y0235709I0000531J0000000D01*
G01*
X0284252Y0235709D01*
G75*
G02*
X0284784Y0235178I0000000J-000531D01*
G01*
X0284784Y0233721D01*
G75*
G02*
X0284252Y0233189I-000531J0000000D01*
G01*
X0283189Y0233189D01*
G75*
G02*
X0282658Y0233721I0000000J0000531D01*
G01*
G37*
G36*
G01*
X0286674Y0233721D02*
X0286674Y0235178D01*
G75*
G02*
X0287205Y0235709I0000531J0000000D01*
G01*
X0288268Y0235709D01*
G75*
G02*
X0288800Y0235178I0000000J-000531D01*
G01*
X0288800Y0233721D01*
G75*
G02*
X0288268Y0233189I-000531J0000000D01*
G01*
X0287205Y0233189D01*
G75*
G02*
X0286674Y0233721I0000000J0000531D01*
G01*
G37*
G36*
G01*
X0298591Y0237461D02*
X0298591Y0238917D01*
G75*
G02*
X0299123Y0239449I0000531J0000000D01*
G01*
X0300186Y0239449D01*
G75*
G02*
X0300717Y0238917I0000000J-000531D01*
G01*
X0300717Y0237461D01*
G75*
G02*
X0300186Y0236929I-000531J0000000D01*
G01*
X0299123Y0236929D01*
G75*
G02*
X0298591Y0237461I0000000J0000531D01*
G01*
G37*
G36*
G01*
X0302607Y0237461D02*
X0302607Y0238917D01*
G75*
G02*
X0303139Y0239449I0000531J0000000D01*
G01*
X0304202Y0239449D01*
G75*
G02*
X0304733Y0238917I0000000J-000531D01*
G01*
X0304733Y0237461D01*
G75*
G02*
X0304202Y0236929I-000531J0000000D01*
G01*
X0303139Y0236929D01*
G75*
G02*
X0302607Y0237461I0000000J0000531D01*
G01*
G37*
G36*
G01*
X0325358Y0255217D02*
X0325358Y0258760D01*
G75*
G02*
X0326342Y0259745I0000984J0000000D01*
G01*
X0328409Y0259745D01*
G75*
G02*
X0329393Y0258760I0000000J-000984D01*
G01*
X0329393Y0255217D01*
G75*
G02*
X0328409Y0254233I-000984J0000000D01*
G01*
X0326342Y0254233D01*
G75*
G02*
X0325358Y0255217I0000000J0000984D01*
G01*
G37*
G36*
G01*
X0332543Y0255217D02*
X0332543Y0258760D01*
G75*
G02*
X0333527Y0259745I0000984J0000000D01*
G01*
X0335594Y0259745D01*
G75*
G02*
X0336578Y0258760I0000000J-000984D01*
G01*
X0336578Y0255217D01*
G75*
G02*
X0335594Y0254233I-000984J0000000D01*
G01*
X0333527Y0254233D01*
G75*
G02*
X0332543Y0255217I0000000J0000984D01*
G01*
G37*
G36*
G01*
X0298642Y0226319D02*
X0298642Y0227776D01*
G75*
G02*
X0299174Y0228308I0000531J0000000D01*
G01*
X0300237Y0228308D01*
G75*
G02*
X0300768Y0227776I0000000J-000531D01*
G01*
X0300768Y0226319D01*
G75*
G02*
X0300237Y0225788I-000531J0000000D01*
G01*
X0299174Y0225788D01*
G75*
G02*
X0298642Y0226319I0000000J0000531D01*
G01*
G37*
G36*
G01*
X0302658Y0226319D02*
X0302658Y0227776D01*
G75*
G02*
X0303189Y0228308I0000531J0000000D01*
G01*
X0304252Y0228308D01*
G75*
G02*
X0304784Y0227776I0000000J-000531D01*
G01*
X0304784Y0226319D01*
G75*
G02*
X0304252Y0225788I-000531J0000000D01*
G01*
X0303189Y0225788D01*
G75*
G02*
X0302658Y0226319I0000000J0000531D01*
G01*
G37*
G36*
G01*
X0288957Y0259823D02*
X0288957Y0258367D01*
G75*
G02*
X0288426Y0257835I-000531J0000000D01*
G01*
X0287363Y0257835D01*
G75*
G02*
X0286831Y0258367I0000000J0000531D01*
G01*
X0286831Y0259823D01*
G75*
G02*
X0287363Y0260355I0000531J0000000D01*
G01*
X0288426Y0260355D01*
G75*
G02*
X0288957Y0259823I0000000J-000531D01*
G01*
G37*
G36*
G01*
X0284941Y0259823D02*
X0284941Y0258367D01*
G75*
G02*
X0284410Y0257835I-000531J0000000D01*
G01*
X0283347Y0257835D01*
G75*
G02*
X0282815Y0258367I0000000J0000531D01*
G01*
X0282815Y0259823D01*
G75*
G02*
X0283347Y0260355I0000531J0000000D01*
G01*
X0284410Y0260355D01*
G75*
G02*
X0284941Y0259823I0000000J-000531D01*
G01*
G37*
G36*
G01*
X0288504Y0247874D02*
X0288504Y0246418D01*
G75*
G02*
X0287973Y0245886I-000531J0000000D01*
G01*
X0286910Y0245886D01*
G75*
G02*
X0286378Y0246418I0000000J0000531D01*
G01*
X0286378Y0247874D01*
G75*
G02*
X0286910Y0248406I0000531J0000000D01*
G01*
X0287973Y0248406D01*
G75*
G02*
X0288504Y0247874I0000000J-000531D01*
G01*
G37*
G36*
G01*
X0284489Y0247874D02*
X0284489Y0246418D01*
G75*
G02*
X0283957Y0245886I-000531J0000000D01*
G01*
X0282894Y0245886D01*
G75*
G02*
X0282363Y0246418I0000000J0000531D01*
G01*
X0282363Y0247874D01*
G75*
G02*
X0282894Y0248406I0000531J0000000D01*
G01*
X0283957Y0248406D01*
G75*
G02*
X0284489Y0247874I0000000J-000531D01*
G01*
G37*
G36*
G01*
X0290040Y0233721D02*
X0290040Y0235178D01*
G75*
G02*
X0290571Y0235709I0000531J0000000D01*
G01*
X0291634Y0235709D01*
G75*
G02*
X0292166Y0235178I0000000J-000531D01*
G01*
X0292166Y0233721D01*
G75*
G02*
X0291634Y0233189I-000531J0000000D01*
G01*
X0290571Y0233189D01*
G75*
G02*
X0290040Y0233721I0000000J0000531D01*
G01*
G37*
G36*
G01*
X0294056Y0233721D02*
X0294056Y0235178D01*
G75*
G02*
X0294587Y0235709I0000531J0000000D01*
G01*
X0295650Y0235709D01*
G75*
G02*
X0296182Y0235178I0000000J-000531D01*
G01*
X0296182Y0233721D01*
G75*
G02*
X0295650Y0233189I-000531J0000000D01*
G01*
X0294587Y0233189D01*
G75*
G02*
X0294056Y0233721I0000000J0000531D01*
G01*
G37*
G36*
G01*
X0282343Y0242638D02*
X0282343Y0243977D01*
G75*
G02*
X0282894Y0244528I0000551J0000000D01*
G01*
X0283997Y0244528D01*
G75*
G02*
X0284548Y0243977I0000000J-000551D01*
G01*
X0284548Y0242638D01*
G75*
G02*
X0283997Y0242087I-000551J0000000D01*
G01*
X0282894Y0242087D01*
G75*
G02*
X0282343Y0242638I0000000J0000551D01*
G01*
G37*
G36*
G01*
X0286123Y0242638D02*
X0286123Y0243977D01*
G75*
G02*
X0286674Y0244528I0000551J0000000D01*
G01*
X0287776Y0244528D01*
G75*
G02*
X0288327Y0243977I0000000J-000551D01*
G01*
X0288327Y0242638D01*
G75*
G02*
X0287776Y0242087I-000551J0000000D01*
G01*
X0286674Y0242087D01*
G75*
G02*
X0286123Y0242638I0000000J0000551D01*
G01*
G37*
G36*
G01*
X0321491Y0252853D02*
X0322829Y0252853D01*
G75*
G02*
X0323381Y0252302I0000000J-000551D01*
G01*
X0323381Y0251200D01*
G75*
G02*
X0322829Y0250648I-000551J0000000D01*
G01*
X0321491Y0250648D01*
G75*
G02*
X0320940Y0251200I0000000J0000551D01*
G01*
X0320940Y0252302D01*
G75*
G02*
X0321491Y0252853I0000551J0000000D01*
G01*
G37*
G36*
G01*
X0321491Y0249074D02*
X0322829Y0249074D01*
G75*
G02*
X0323381Y0248523I0000000J-000551D01*
G01*
X0323381Y0247420D01*
G75*
G02*
X0322829Y0246869I-000551J0000000D01*
G01*
X0321491Y0246869D01*
G75*
G02*
X0320940Y0247420I0000000J0000551D01*
G01*
X0320940Y0248523D01*
G75*
G02*
X0321491Y0249074I0000551J0000000D01*
G01*
G37*
G36*
G01*
X0288997Y0238918D02*
X0288997Y0237461D01*
G75*
G02*
X0288465Y0236930I-000531J0000000D01*
G01*
X0287402Y0236930D01*
G75*
G02*
X0286871Y0237461I0000000J0000531D01*
G01*
X0286871Y0238918D01*
G75*
G02*
X0287402Y0239449I0000531J0000000D01*
G01*
X0288465Y0239449D01*
G75*
G02*
X0288997Y0238918I0000000J-000531D01*
G01*
G37*
G36*
G01*
X0284981Y0238918D02*
X0284981Y0237461D01*
G75*
G02*
X0284449Y0236930I-000531J0000000D01*
G01*
X0283386Y0236930D01*
G75*
G02*
X0282855Y0237461I0000000J0000531D01*
G01*
X0282855Y0238918D01*
G75*
G02*
X0283386Y0239449I0000531J0000000D01*
G01*
X0284449Y0239449D01*
G75*
G02*
X0284981Y0238918I0000000J-000531D01*
G01*
G37*
G36*
G01*
X0306398Y0227559D02*
X0306398Y0228741D01*
G75*
G02*
X0306989Y0229331I0000591J0000000D01*
G01*
X0311024Y0229331D01*
G75*
G02*
X0311615Y0228741I0000000J-000591D01*
G01*
X0311615Y0227559D01*
G75*
G02*
X0311024Y0226969I-000591J0000000D01*
G01*
X0306989Y0226969D01*
G75*
G02*
X0306398Y0227559I0000000J0000591D01*
G01*
G37*
G36*
G01*
X0306398Y0231300D02*
X0306398Y0232481D01*
G75*
G02*
X0306989Y0233071I0000591J0000000D01*
G01*
X0311024Y0233071D01*
G75*
G02*
X0311615Y0232481I0000000J-000591D01*
G01*
X0311615Y0231300D01*
G75*
G02*
X0311024Y0230709I-000591J0000000D01*
G01*
X0306989Y0230709D01*
G75*
G02*
X0306398Y0231300I0000000J0000591D01*
G01*
G37*
G36*
G01*
X0306398Y0235040D02*
X0306398Y0236221D01*
G75*
G02*
X0306989Y0236811I0000591J0000000D01*
G01*
X0311024Y0236811D01*
G75*
G02*
X0311615Y0236221I0000000J-000591D01*
G01*
X0311615Y0235040D01*
G75*
G02*
X0311024Y0234449I-000591J0000000D01*
G01*
X0306989Y0234449D01*
G75*
G02*
X0306398Y0235040I0000000J0000591D01*
G01*
G37*
G36*
G01*
X0315355Y0235040D02*
X0315355Y0236221D01*
G75*
G02*
X0315945Y0236811I0000591J0000000D01*
G01*
X0319981Y0236811D01*
G75*
G02*
X0320571Y0236221I0000000J-000591D01*
G01*
X0320571Y0235040D01*
G75*
G02*
X0319981Y0234449I-000591J0000000D01*
G01*
X0315945Y0234449D01*
G75*
G02*
X0315355Y0235040I0000000J0000591D01*
G01*
G37*
G36*
G01*
X0315355Y0227559D02*
X0315355Y0228741D01*
G75*
G02*
X0315945Y0229331I0000591J0000000D01*
G01*
X0319981Y0229331D01*
G75*
G02*
X0320571Y0228741I0000000J-000591D01*
G01*
X0320571Y0227559D01*
G75*
G02*
X0319981Y0226969I-000591J0000000D01*
G01*
X0315945Y0226969D01*
G75*
G02*
X0315355Y0227559I0000000J0000591D01*
G01*
G37*
G36*
G01*
X0304705Y0231378D02*
X0304705Y0230040D01*
G75*
G02*
X0304154Y0229489I-000551J0000000D01*
G01*
X0303052Y0229489D01*
G75*
G02*
X0302500Y0230040I0000000J0000551D01*
G01*
X0302500Y0231378D01*
G75*
G02*
X0303052Y0231930I0000551J0000000D01*
G01*
X0304154Y0231930D01*
G75*
G02*
X0304705Y0231378I0000000J-000551D01*
G01*
G37*
G36*
G01*
X0300926Y0231378D02*
X0300926Y0230040D01*
G75*
G02*
X0300375Y0229489I-000551J0000000D01*
G01*
X0299272Y0229489D01*
G75*
G02*
X0298721Y0230040I0000000J0000551D01*
G01*
X0298721Y0231378D01*
G75*
G02*
X0299272Y0231930I0000551J0000000D01*
G01*
X0300375Y0231930D01*
G75*
G02*
X0300926Y0231378I0000000J-000551D01*
G01*
G37*
X0548327Y0219291D02*
%LPD*%
G01*
D14*
X0490059Y0192126D03*
X0490059Y0196850D03*
X0490059Y0187401D03*
X0490059Y0182677D03*
X0546851Y0208110D03*
X0546851Y0212047D03*
X0082185Y0143996D02*
%LPD*%
G01*
D153*
X0093799Y0052815D03*
X0105610Y0060689D03*
X0093799Y0068563D03*
D166*
X0093012Y0139823D03*
X0089012Y0119823D03*
X0097012Y0119823D03*
D390*
X0131890Y0050335D03*
D391*
X0131890Y0060335D03*
X0131890Y0070335D03*
G36*
G01*
X0089544Y0064291D02*
X0090902Y0064291D01*
G75*
G02*
X0091483Y0063711I0000000J-000581D01*
G01*
X0091483Y0062549D01*
G75*
G02*
X0090902Y0061968I-000581J0000000D01*
G01*
X0089544Y0061968D01*
G75*
G02*
X0088963Y0062549I0000000J0000581D01*
G01*
X0088963Y0063711D01*
G75*
G02*
X0089544Y0064291I0000581J0000000D01*
G01*
G37*
G36*
G01*
X0089544Y0060472D02*
X0090902Y0060472D01*
G75*
G02*
X0091483Y0059892I0000000J-000581D01*
G01*
X0091483Y0058730D01*
G75*
G02*
X0090902Y0058150I-000581J0000000D01*
G01*
X0089544Y0058150D01*
G75*
G02*
X0088963Y0058730I0000000J0000581D01*
G01*
X0088963Y0059892D01*
G75*
G02*
X0089544Y0060472I0000581J0000000D01*
G01*
G37*
G36*
G01*
X0104833Y0049823D02*
X0106191Y0049823D01*
G75*
G02*
X0106772Y0049242I0000000J-000581D01*
G01*
X0106772Y0048081D01*
G75*
G02*
X0106191Y0047500I-000581J0000000D01*
G01*
X0104833Y0047500D01*
G75*
G02*
X0104252Y0048081I0000000J0000581D01*
G01*
X0104252Y0049242D01*
G75*
G02*
X0104833Y0049823I0000581J0000000D01*
G01*
G37*
G36*
G01*
X0104833Y0046004D02*
X0106191Y0046004D01*
G75*
G02*
X0106772Y0045423I0000000J-000581D01*
G01*
X0106772Y0044262D01*
G75*
G02*
X0106191Y0043681I-000581J0000000D01*
G01*
X0104833Y0043681D01*
G75*
G02*
X0104252Y0044262I0000000J0000581D01*
G01*
X0104252Y0045423D01*
G75*
G02*
X0104833Y0046004I0000581J0000000D01*
G01*
G37*
G36*
G01*
X0131029Y0099705D02*
X0129011Y0099705D01*
G75*
G02*
X0128150Y0100566I0000000J0000861D01*
G01*
X0128150Y0102288D01*
G75*
G02*
X0129011Y0103150I0000861J0000000D01*
G01*
X0131029Y0103150D01*
G75*
G02*
X0131890Y0102288I0000000J-000861D01*
G01*
X0131890Y0100566D01*
G75*
G02*
X0131029Y0099705I-000861J0000000D01*
G01*
G37*
G36*
G01*
X0131029Y0105905D02*
X0129011Y0105905D01*
G75*
G02*
X0128150Y0106767I0000000J0000861D01*
G01*
X0128150Y0108489D01*
G75*
G02*
X0129011Y0109350I0000861J0000000D01*
G01*
X0131029Y0109350D01*
G75*
G02*
X0131890Y0108489I0000000J-000861D01*
G01*
X0131890Y0106767D01*
G75*
G02*
X0131029Y0105905I-000861J0000000D01*
G01*
G37*
G36*
G01*
X0086703Y0058150D02*
X0085344Y0058150D01*
G75*
G02*
X0084764Y0058730I0000000J0000581D01*
G01*
X0084764Y0059892D01*
G75*
G02*
X0085344Y0060472I0000581J0000000D01*
G01*
X0086703Y0060472D01*
G75*
G02*
X0087283Y0059892I0000000J-000581D01*
G01*
X0087283Y0058730D01*
G75*
G02*
X0086703Y0058150I-000581J0000000D01*
G01*
G37*
G36*
G01*
X0086703Y0061968D02*
X0085344Y0061968D01*
G75*
G02*
X0084764Y0062549I0000000J0000581D01*
G01*
X0084764Y0063711D01*
G75*
G02*
X0085344Y0064291I0000581J0000000D01*
G01*
X0086703Y0064291D01*
G75*
G02*
X0087283Y0063711I0000000J-000581D01*
G01*
X0087283Y0062549D01*
G75*
G02*
X0086703Y0061968I-000581J0000000D01*
G01*
G37*
G36*
G01*
X0125699Y0117851D02*
X0127057Y0117851D01*
G75*
G02*
X0127638Y0117271I0000000J-000581D01*
G01*
X0127638Y0116109D01*
G75*
G02*
X0127057Y0115529I-000581J0000000D01*
G01*
X0125699Y0115529D01*
G75*
G02*
X0125118Y0116109I0000000J0000581D01*
G01*
X0125118Y0117271D01*
G75*
G02*
X0125699Y0117851I0000581J0000000D01*
G01*
G37*
G36*
G01*
X0125699Y0114033D02*
X0127057Y0114033D01*
G75*
G02*
X0127638Y0113452I0000000J-000581D01*
G01*
X0127638Y0112290D01*
G75*
G02*
X0127057Y0111710I-000581J0000000D01*
G01*
X0125699Y0111710D01*
G75*
G02*
X0125118Y0112290I0000000J0000581D01*
G01*
X0125118Y0113452D01*
G75*
G02*
X0125699Y0114033I0000581J0000000D01*
G01*
G37*
G36*
G01*
X0123829Y0109764D02*
X0125187Y0109764D01*
G75*
G02*
X0125768Y0109183I0000000J-000581D01*
G01*
X0125768Y0108022D01*
G75*
G02*
X0125187Y0107441I-000581J0000000D01*
G01*
X0123829Y0107441D01*
G75*
G02*
X0123248Y0108022I0000000J0000581D01*
G01*
X0123248Y0109183D01*
G75*
G02*
X0123829Y0109764I0000581J0000000D01*
G01*
G37*
G36*
G01*
X0123829Y0105945D02*
X0125187Y0105945D01*
G75*
G02*
X0125768Y0105364I0000000J-000581D01*
G01*
X0125768Y0104203D01*
G75*
G02*
X0125187Y0103622I-000581J0000000D01*
G01*
X0123829Y0103622D01*
G75*
G02*
X0123248Y0104203I0000000J0000581D01*
G01*
X0123248Y0105364D01*
G75*
G02*
X0123829Y0105945I0000581J0000000D01*
G01*
G37*
G36*
G01*
X0131161Y0138376D02*
X0131161Y0137018D01*
G75*
G02*
X0130581Y0136437I-000581J0000000D01*
G01*
X0129419Y0136437D01*
G75*
G02*
X0128839Y0137018I0000000J0000581D01*
G01*
X0128839Y0138376D01*
G75*
G02*
X0129419Y0138957I0000581J0000000D01*
G01*
X0130581Y0138957D01*
G75*
G02*
X0131161Y0138376I0000000J-000581D01*
G01*
G37*
G36*
G01*
X0127342Y0138376D02*
X0127342Y0137018D01*
G75*
G02*
X0126762Y0136437I-000581J0000000D01*
G01*
X0125600Y0136437D01*
G75*
G02*
X0125020Y0137018I0000000J0000581D01*
G01*
X0125020Y0138376D01*
G75*
G02*
X0125600Y0138957I0000581J0000000D01*
G01*
X0126762Y0138957D01*
G75*
G02*
X0127342Y0138376I0000000J-000581D01*
G01*
G37*
G36*
G01*
X0113573Y0088858D02*
X0112215Y0088858D01*
G75*
G02*
X0111634Y0089439I0000000J0000581D01*
G01*
X0111634Y0090600D01*
G75*
G02*
X0112215Y0091181I0000581J0000000D01*
G01*
X0113573Y0091181D01*
G75*
G02*
X0114154Y0090600I0000000J-000581D01*
G01*
X0114154Y0089439D01*
G75*
G02*
X0113573Y0088858I-000581J0000000D01*
G01*
G37*
G36*
G01*
X0113573Y0092677D02*
X0112215Y0092677D01*
G75*
G02*
X0111634Y0093258I0000000J0000581D01*
G01*
X0111634Y0094419D01*
G75*
G02*
X0112215Y0095000I0000581J0000000D01*
G01*
X0113573Y0095000D01*
G75*
G02*
X0114154Y0094419I0000000J-000581D01*
G01*
X0114154Y0093258D01*
G75*
G02*
X0113573Y0092677I-000581J0000000D01*
G01*
G37*
G36*
G01*
X0108278Y0095000D02*
X0109636Y0095000D01*
G75*
G02*
X0110216Y0094419I0000000J-000581D01*
G01*
X0110216Y0093258D01*
G75*
G02*
X0109636Y0092677I-000581J0000000D01*
G01*
X0108278Y0092677D01*
G75*
G02*
X0107697Y0093258I0000000J0000581D01*
G01*
X0107697Y0094419D01*
G75*
G02*
X0108278Y0095000I0000581J0000000D01*
G01*
G37*
G36*
G01*
X0108278Y0091181D02*
X0109636Y0091181D01*
G75*
G02*
X0110216Y0090600I0000000J-000581D01*
G01*
X0110216Y0089439D01*
G75*
G02*
X0109636Y0088858I-000581J0000000D01*
G01*
X0108278Y0088858D01*
G75*
G02*
X0107697Y0089439I0000000J0000581D01*
G01*
X0107697Y0090600D01*
G75*
G02*
X0108278Y0091181I0000581J0000000D01*
G01*
G37*
G36*
G01*
X0110718Y0047520D02*
X0109360Y0047520D01*
G75*
G02*
X0108779Y0048100I0000000J0000581D01*
G01*
X0108779Y0049262D01*
G75*
G02*
X0109360Y0049842I0000581J0000000D01*
G01*
X0110718Y0049842D01*
G75*
G02*
X0111299Y0049262I0000000J-000581D01*
G01*
X0111299Y0048100D01*
G75*
G02*
X0110718Y0047520I-000581J0000000D01*
G01*
G37*
G36*
G01*
X0110718Y0051339D02*
X0109360Y0051339D01*
G75*
G02*
X0108779Y0051919I0000000J0000581D01*
G01*
X0108779Y0053081D01*
G75*
G02*
X0109360Y0053661I0000581J0000000D01*
G01*
X0110718Y0053661D01*
G75*
G02*
X0111299Y0053081I0000000J-000581D01*
G01*
X0111299Y0051919D01*
G75*
G02*
X0110718Y0051339I-000581J0000000D01*
G01*
G37*
D393*
X0087303Y0101870D03*
X0089862Y0101870D03*
X0092421Y0101870D03*
X0094980Y0101870D03*
X0097539Y0101870D03*
X0100098Y0101870D03*
X0102657Y0101870D03*
X0102657Y0078642D03*
X0100098Y0078642D03*
X0097539Y0078642D03*
X0094980Y0078642D03*
X0092421Y0078642D03*
X0089862Y0078642D03*
X0087303Y0078642D03*
G36*
G01*
X0130797Y0111693D02*
X0129439Y0111693D01*
G75*
G02*
X0128858Y0112274I0000000J0000581D01*
G01*
X0128858Y0113435D01*
G75*
G02*
X0129439Y0114016I0000581J0000000D01*
G01*
X0130797Y0114016D01*
G75*
G02*
X0131378Y0113435I0000000J-000581D01*
G01*
X0131378Y0112274D01*
G75*
G02*
X0130797Y0111693I-000581J0000000D01*
G01*
G37*
G36*
G01*
X0130797Y0115512D02*
X0129439Y0115512D01*
G75*
G02*
X0128858Y0116092I0000000J0000581D01*
G01*
X0128858Y0117254D01*
G75*
G02*
X0129439Y0117835I0000581J0000000D01*
G01*
X0130797Y0117835D01*
G75*
G02*
X0131378Y0117254I0000000J-000581D01*
G01*
X0131378Y0116092D01*
G75*
G02*
X0130797Y0115512I-000581J0000000D01*
G01*
G37*
G36*
G01*
X0133179Y0117835D02*
X0134537Y0117835D01*
G75*
G02*
X0135118Y0117254I0000000J-000581D01*
G01*
X0135118Y0116092D01*
G75*
G02*
X0134537Y0115512I-000581J0000000D01*
G01*
X0133179Y0115512D01*
G75*
G02*
X0132598Y0116092I0000000J0000581D01*
G01*
X0132598Y0117254D01*
G75*
G02*
X0133179Y0117835I0000581J0000000D01*
G01*
G37*
G36*
G01*
X0133179Y0114016D02*
X0134537Y0114016D01*
G75*
G02*
X0135118Y0113435I0000000J-000581D01*
G01*
X0135118Y0112274D01*
G75*
G02*
X0134537Y0111693I-000581J0000000D01*
G01*
X0133179Y0111693D01*
G75*
G02*
X0132598Y0112274I0000000J0000581D01*
G01*
X0132598Y0113435D01*
G75*
G02*
X0133179Y0114016I0000581J0000000D01*
G01*
G37*
G36*
G01*
X0123730Y0057598D02*
X0125089Y0057598D01*
G75*
G02*
X0125669Y0057018I0000000J-000581D01*
G01*
X0125669Y0055856D01*
G75*
G02*
X0125089Y0055276I-000581J0000000D01*
G01*
X0123730Y0055276D01*
G75*
G02*
X0123150Y0055856I0000000J0000581D01*
G01*
X0123150Y0057018D01*
G75*
G02*
X0123730Y0057598I0000581J0000000D01*
G01*
G37*
G36*
G01*
X0123730Y0053779D02*
X0125089Y0053779D01*
G75*
G02*
X0125669Y0053199I0000000J-000581D01*
G01*
X0125669Y0052037D01*
G75*
G02*
X0125089Y0051457I-000581J0000000D01*
G01*
X0123730Y0051457D01*
G75*
G02*
X0123150Y0052037I0000000J0000581D01*
G01*
X0123150Y0053199D01*
G75*
G02*
X0123730Y0053779I0000581J0000000D01*
G01*
G37*
G36*
G01*
X0094432Y0064291D02*
X0095791Y0064291D01*
G75*
G02*
X0096371Y0063711I0000000J-000581D01*
G01*
X0096371Y0062549D01*
G75*
G02*
X0095791Y0061968I-000581J0000000D01*
G01*
X0094432Y0061968D01*
G75*
G02*
X0093852Y0062549I0000000J0000581D01*
G01*
X0093852Y0063711D01*
G75*
G02*
X0094432Y0064291I0000581J0000000D01*
G01*
G37*
G36*
G01*
X0094432Y0060472D02*
X0095791Y0060472D01*
G75*
G02*
X0096371Y0059892I0000000J-000581D01*
G01*
X0096371Y0058730D01*
G75*
G02*
X0095791Y0058150I-000581J0000000D01*
G01*
X0094432Y0058150D01*
G75*
G02*
X0093852Y0058730I0000000J0000581D01*
G01*
X0093852Y0059892D01*
G75*
G02*
X0094432Y0060472I0000581J0000000D01*
G01*
G37*
G36*
G01*
X0117510Y0092106D02*
X0116152Y0092106D01*
G75*
G02*
X0115571Y0092687I0000000J0000581D01*
G01*
X0115571Y0093848D01*
G75*
G02*
X0116152Y0094429I0000581J0000000D01*
G01*
X0117510Y0094429D01*
G75*
G02*
X0118091Y0093848I0000000J-000581D01*
G01*
X0118091Y0092687D01*
G75*
G02*
X0117510Y0092106I-000581J0000000D01*
G01*
G37*
G36*
G01*
X0117510Y0095925D02*
X0116152Y0095925D01*
G75*
G02*
X0115571Y0096506I0000000J0000581D01*
G01*
X0115571Y0097667D01*
G75*
G02*
X0116152Y0098248I0000581J0000000D01*
G01*
X0117510Y0098248D01*
G75*
G02*
X0118091Y0097667I0000000J-000581D01*
G01*
X0118091Y0096506D01*
G75*
G02*
X0117510Y0095925I-000581J0000000D01*
G01*
G37*
G36*
G01*
X0125089Y0043779D02*
X0123730Y0043779D01*
G75*
G02*
X0123150Y0044360I0000000J0000581D01*
G01*
X0123150Y0045522D01*
G75*
G02*
X0123730Y0046102I0000581J0000000D01*
G01*
X0125089Y0046102D01*
G75*
G02*
X0125669Y0045522I0000000J-000581D01*
G01*
X0125669Y0044360D01*
G75*
G02*
X0125089Y0043779I-000581J0000000D01*
G01*
G37*
G36*
G01*
X0125089Y0047598D02*
X0123730Y0047598D01*
G75*
G02*
X0123150Y0048179I0000000J0000581D01*
G01*
X0123150Y0049340D01*
G75*
G02*
X0123730Y0049921I0000581J0000000D01*
G01*
X0125089Y0049921D01*
G75*
G02*
X0125669Y0049340I0000000J-000581D01*
G01*
X0125669Y0048179D01*
G75*
G02*
X0125089Y0047598I-000581J0000000D01*
G01*
G37*
G36*
G01*
X0109636Y0096240D02*
X0108278Y0096240D01*
G75*
G02*
X0107697Y0096821I0000000J0000581D01*
G01*
X0107697Y0097982D01*
G75*
G02*
X0108278Y0098563I0000581J0000000D01*
G01*
X0109636Y0098563D01*
G75*
G02*
X0110216Y0097982I0000000J-000581D01*
G01*
X0110216Y0096821D01*
G75*
G02*
X0109636Y0096240I-000581J0000000D01*
G01*
G37*
G36*
G01*
X0109636Y0100059D02*
X0108278Y0100059D01*
G75*
G02*
X0107697Y0100640I0000000J0000581D01*
G01*
X0107697Y0101801D01*
G75*
G02*
X0108278Y0102382I0000581J0000000D01*
G01*
X0109636Y0102382D01*
G75*
G02*
X0110216Y0101801I0000000J-000581D01*
G01*
X0110216Y0100640D01*
G75*
G02*
X0109636Y0100059I-000581J0000000D01*
G01*
G37*
G36*
G01*
X0085020Y0107490D02*
X0085020Y0108848D01*
G75*
G02*
X0085600Y0109429I0000581J0000000D01*
G01*
X0086762Y0109429D01*
G75*
G02*
X0087342Y0108848I0000000J-000581D01*
G01*
X0087342Y0107490D01*
G75*
G02*
X0086762Y0106909I-000581J0000000D01*
G01*
X0085600Y0106909D01*
G75*
G02*
X0085020Y0107490I0000000J0000581D01*
G01*
G37*
G36*
G01*
X0088839Y0107490D02*
X0088839Y0108848D01*
G75*
G02*
X0089419Y0109429I0000581J0000000D01*
G01*
X0090581Y0109429D01*
G75*
G02*
X0091161Y0108848I0000000J-000581D01*
G01*
X0091161Y0107490D01*
G75*
G02*
X0090581Y0106909I-000581J0000000D01*
G01*
X0089419Y0106909D01*
G75*
G02*
X0088839Y0107490I0000000J0000581D01*
G01*
G37*
G36*
G01*
X0113573Y0081378D02*
X0112215Y0081378D01*
G75*
G02*
X0111634Y0081959I0000000J0000581D01*
G01*
X0111634Y0083120D01*
G75*
G02*
X0112215Y0083701I0000581J0000000D01*
G01*
X0113573Y0083701D01*
G75*
G02*
X0114154Y0083120I0000000J-000581D01*
G01*
X0114154Y0081959D01*
G75*
G02*
X0113573Y0081378I-000581J0000000D01*
G01*
G37*
G36*
G01*
X0113573Y0085197D02*
X0112215Y0085197D01*
G75*
G02*
X0111634Y0085777I0000000J0000581D01*
G01*
X0111634Y0086939D01*
G75*
G02*
X0112215Y0087520I0000581J0000000D01*
G01*
X0113573Y0087520D01*
G75*
G02*
X0114154Y0086939I0000000J-000581D01*
G01*
X0114154Y0085777D01*
G75*
G02*
X0113573Y0085197I-000581J0000000D01*
G01*
G37*
G36*
G01*
X0112215Y0080039D02*
X0113573Y0080039D01*
G75*
G02*
X0114154Y0079459I0000000J-000581D01*
G01*
X0114154Y0078297D01*
G75*
G02*
X0113573Y0077716I-000581J0000000D01*
G01*
X0112215Y0077716D01*
G75*
G02*
X0111634Y0078297I0000000J0000581D01*
G01*
X0111634Y0079459D01*
G75*
G02*
X0112215Y0080039I0000581J0000000D01*
G01*
G37*
G36*
G01*
X0112215Y0076220D02*
X0113573Y0076220D01*
G75*
G02*
X0114154Y0075640I0000000J-000581D01*
G01*
X0114154Y0074478D01*
G75*
G02*
X0113573Y0073898I-000581J0000000D01*
G01*
X0112215Y0073898D01*
G75*
G02*
X0111634Y0074478I0000000J0000581D01*
G01*
X0111634Y0075640D01*
G75*
G02*
X0112215Y0076220I0000581J0000000D01*
G01*
G37*
G36*
G01*
X0085020Y0111230D02*
X0085020Y0112589D01*
G75*
G02*
X0085600Y0113169I0000581J0000000D01*
G01*
X0086762Y0113169D01*
G75*
G02*
X0087342Y0112589I0000000J-000581D01*
G01*
X0087342Y0111230D01*
G75*
G02*
X0086762Y0110650I-000581J0000000D01*
G01*
X0085600Y0110650D01*
G75*
G02*
X0085020Y0111230I0000000J0000581D01*
G01*
G37*
G36*
G01*
X0088839Y0111230D02*
X0088839Y0112589D01*
G75*
G02*
X0089419Y0113169I0000581J0000000D01*
G01*
X0090581Y0113169D01*
G75*
G02*
X0091161Y0112589I0000000J-000581D01*
G01*
X0091161Y0111230D01*
G75*
G02*
X0090581Y0110650I-000581J0000000D01*
G01*
X0089419Y0110650D01*
G75*
G02*
X0088839Y0111230I0000000J0000581D01*
G01*
G37*
D394*
X0133858Y0121909D03*
X0130118Y0121909D03*
X0126378Y0121909D03*
X0126378Y0132224D03*
X0133858Y0132224D03*
G36*
G01*
X0116152Y0087421D02*
X0117510Y0087421D01*
G75*
G02*
X0118091Y0086840I0000000J-000581D01*
G01*
X0118091Y0085679D01*
G75*
G02*
X0117510Y0085098I-000581J0000000D01*
G01*
X0116152Y0085098D01*
G75*
G02*
X0115571Y0085679I0000000J0000581D01*
G01*
X0115571Y0086840D01*
G75*
G02*
X0116152Y0087421I0000581J0000000D01*
G01*
G37*
G36*
G01*
X0116152Y0083602D02*
X0117510Y0083602D01*
G75*
G02*
X0118091Y0083022I0000000J-000581D01*
G01*
X0118091Y0081860D01*
G75*
G02*
X0117510Y0081279I-000581J0000000D01*
G01*
X0116152Y0081279D01*
G75*
G02*
X0115571Y0081860I0000000J0000581D01*
G01*
X0115571Y0083022D01*
G75*
G02*
X0116152Y0083602I0000581J0000000D01*
G01*
G37*
G36*
G01*
X0120256Y0100010D02*
X0120256Y0101368D01*
G75*
G02*
X0120837Y0101949I0000581J0000000D01*
G01*
X0121998Y0101949D01*
G75*
G02*
X0122579Y0101368I0000000J-000581D01*
G01*
X0122579Y0100010D01*
G75*
G02*
X0121998Y0099429I-000581J0000000D01*
G01*
X0120837Y0099429D01*
G75*
G02*
X0120256Y0100010I0000000J0000581D01*
G01*
G37*
G36*
G01*
X0124075Y0100010D02*
X0124075Y0101368D01*
G75*
G02*
X0124655Y0101949I0000581J0000000D01*
G01*
X0125817Y0101949D01*
G75*
G02*
X0126398Y0101368I0000000J-000581D01*
G01*
X0126398Y0100010D01*
G75*
G02*
X0125817Y0099429I-000581J0000000D01*
G01*
X0124655Y0099429D01*
G75*
G02*
X0124075Y0100010I0000000J0000581D01*
G01*
G37*
G36*
G01*
X0099823Y0108848D02*
X0099823Y0107490D01*
G75*
G02*
X0099242Y0106909I-000581J0000000D01*
G01*
X0098081Y0106909D01*
G75*
G02*
X0097500Y0107490I0000000J0000581D01*
G01*
X0097500Y0108848D01*
G75*
G02*
X0098081Y0109429I0000581J0000000D01*
G01*
X0099242Y0109429D01*
G75*
G02*
X0099823Y0108848I0000000J-000581D01*
G01*
G37*
G36*
G01*
X0096004Y0108848D02*
X0096004Y0107490D01*
G75*
G02*
X0095423Y0106909I-000581J0000000D01*
G01*
X0094262Y0106909D01*
G75*
G02*
X0093681Y0107490I0000000J0000581D01*
G01*
X0093681Y0108848D01*
G75*
G02*
X0094262Y0109429I0000581J0000000D01*
G01*
X0095423Y0109429D01*
G75*
G02*
X0096004Y0108848I0000000J-000581D01*
G01*
G37*
G36*
G01*
X0100778Y0065728D02*
X0099419Y0065728D01*
G75*
G02*
X0098839Y0066309I0000000J0000581D01*
G01*
X0098839Y0067470D01*
G75*
G02*
X0099419Y0068051I0000581J0000000D01*
G01*
X0100778Y0068051D01*
G75*
G02*
X0101358Y0067470I0000000J-000581D01*
G01*
X0101358Y0066309D01*
G75*
G02*
X0100778Y0065728I-000581J0000000D01*
G01*
G37*
G36*
G01*
X0100778Y0069547D02*
X0099419Y0069547D01*
G75*
G02*
X0098839Y0070128I0000000J0000581D01*
G01*
X0098839Y0071289D01*
G75*
G02*
X0099419Y0071870I0000581J0000000D01*
G01*
X0100778Y0071870D01*
G75*
G02*
X0101358Y0071289I0000000J-000581D01*
G01*
X0101358Y0070128D01*
G75*
G02*
X0100778Y0069547I-000581J0000000D01*
G01*
G37*
G36*
G01*
X0100778Y0058150D02*
X0099419Y0058150D01*
G75*
G02*
X0098839Y0058730I0000000J0000581D01*
G01*
X0098839Y0059892D01*
G75*
G02*
X0099419Y0060472I0000581J0000000D01*
G01*
X0100778Y0060472D01*
G75*
G02*
X0101358Y0059892I0000000J-000581D01*
G01*
X0101358Y0058730D01*
G75*
G02*
X0100778Y0058150I-000581J0000000D01*
G01*
G37*
G36*
G01*
X0100778Y0061968D02*
X0099419Y0061968D01*
G75*
G02*
X0098839Y0062549I0000000J0000581D01*
G01*
X0098839Y0063711D01*
G75*
G02*
X0099419Y0064291I0000581J0000000D01*
G01*
X0100778Y0064291D01*
G75*
G02*
X0101358Y0063711I0000000J-000581D01*
G01*
X0101358Y0062549D01*
G75*
G02*
X0100778Y0061968I-000581J0000000D01*
G01*
G37*
G36*
G01*
X0099823Y0112589D02*
X0099823Y0111230D01*
G75*
G02*
X0099242Y0110650I-000581J0000000D01*
G01*
X0098081Y0110650D01*
G75*
G02*
X0097500Y0111230I0000000J0000581D01*
G01*
X0097500Y0112589D01*
G75*
G02*
X0098081Y0113169I0000581J0000000D01*
G01*
X0099242Y0113169D01*
G75*
G02*
X0099823Y0112589I0000000J-000581D01*
G01*
G37*
G36*
G01*
X0096004Y0112589D02*
X0096004Y0111230D01*
G75*
G02*
X0095423Y0110650I-000581J0000000D01*
G01*
X0094262Y0110650D01*
G75*
G02*
X0093681Y0111230I0000000J0000581D01*
G01*
X0093681Y0112589D01*
G75*
G02*
X0094262Y0113169I0000581J0000000D01*
G01*
X0095423Y0113169D01*
G75*
G02*
X0096004Y0112589I0000000J-000581D01*
G01*
G37*
G36*
G01*
X0109636Y0078228D02*
X0108278Y0078228D01*
G75*
G02*
X0107697Y0078809I0000000J0000581D01*
G01*
X0107697Y0079970D01*
G75*
G02*
X0108278Y0080551I0000581J0000000D01*
G01*
X0109636Y0080551D01*
G75*
G02*
X0110216Y0079970I0000000J-000581D01*
G01*
X0110216Y0078809D01*
G75*
G02*
X0109636Y0078228I-000581J0000000D01*
G01*
G37*
G36*
G01*
X0109636Y0082047D02*
X0108278Y0082047D01*
G75*
G02*
X0107697Y0082628I0000000J0000581D01*
G01*
X0107697Y0083789D01*
G75*
G02*
X0108278Y0084370I0000581J0000000D01*
G01*
X0109636Y0084370D01*
G75*
G02*
X0110216Y0083789I0000000J-000581D01*
G01*
X0110216Y0082628D01*
G75*
G02*
X0109636Y0082047I-000581J0000000D01*
G01*
G37*
G36*
G01*
X0099823Y0116329D02*
X0099823Y0114970D01*
G75*
G02*
X0099242Y0114390I-000581J0000000D01*
G01*
X0098081Y0114390D01*
G75*
G02*
X0097500Y0114970I0000000J0000581D01*
G01*
X0097500Y0116329D01*
G75*
G02*
X0098081Y0116909I0000581J0000000D01*
G01*
X0099242Y0116909D01*
G75*
G02*
X0099823Y0116329I0000000J-000581D01*
G01*
G37*
G36*
G01*
X0096004Y0116329D02*
X0096004Y0114970D01*
G75*
G02*
X0095423Y0114390I-000581J0000000D01*
G01*
X0094262Y0114390D01*
G75*
G02*
X0093681Y0114970I0000000J0000581D01*
G01*
X0093681Y0116329D01*
G75*
G02*
X0094262Y0116909I0000581J0000000D01*
G01*
X0095423Y0116909D01*
G75*
G02*
X0096004Y0116329I0000000J-000581D01*
G01*
G37*
G36*
G01*
X0091161Y0116329D02*
X0091161Y0114970D01*
G75*
G02*
X0090581Y0114390I-000581J0000000D01*
G01*
X0089419Y0114390D01*
G75*
G02*
X0088839Y0114970I0000000J0000581D01*
G01*
X0088839Y0116329D01*
G75*
G02*
X0089419Y0116909I0000581J0000000D01*
G01*
X0090581Y0116909D01*
G75*
G02*
X0091161Y0116329I0000000J-000581D01*
G01*
G37*
G36*
G01*
X0087342Y0116329D02*
X0087342Y0114970D01*
G75*
G02*
X0086762Y0114390I-000581J0000000D01*
G01*
X0085600Y0114390D01*
G75*
G02*
X0085020Y0114970I0000000J0000581D01*
G01*
X0085020Y0116329D01*
G75*
G02*
X0085600Y0116909I0000581J0000000D01*
G01*
X0086762Y0116909D01*
G75*
G02*
X0087342Y0116329I0000000J-000581D01*
G01*
G37*
G36*
G01*
X0096968Y0131142D02*
X0098307Y0131142D01*
G75*
G02*
X0098858Y0130591I0000000J-000551D01*
G01*
X0098858Y0129488D01*
G75*
G02*
X0098307Y0128937I-000551J0000000D01*
G01*
X0096968Y0128937D01*
G75*
G02*
X0096417Y0129488I0000000J0000551D01*
G01*
X0096417Y0130591D01*
G75*
G02*
X0096968Y0131142I0000551J0000000D01*
G01*
G37*
G36*
G01*
X0096968Y0127362D02*
X0098307Y0127362D01*
G75*
G02*
X0098858Y0126811I0000000J-000551D01*
G01*
X0098858Y0125709D01*
G75*
G02*
X0098307Y0125158I-000551J0000000D01*
G01*
X0096968Y0125158D01*
G75*
G02*
X0096417Y0125709I0000000J0000551D01*
G01*
X0096417Y0126811D01*
G75*
G02*
X0096968Y0127362I0000551J0000000D01*
G01*
G37*
G36*
G01*
X0123228Y0076201D02*
X0121772Y0076201D01*
G75*
G02*
X0121240Y0076732I0000000J0000531D01*
G01*
X0121240Y0077795D01*
G75*
G02*
X0121772Y0078327I0000531J0000000D01*
G01*
X0123228Y0078327D01*
G75*
G02*
X0123760Y0077795I0000000J-000531D01*
G01*
X0123760Y0076732D01*
G75*
G02*
X0123228Y0076201I-000531J0000000D01*
G01*
G37*
G36*
G01*
X0123228Y0080216D02*
X0121772Y0080216D01*
G75*
G02*
X0121240Y0080748I0000000J0000531D01*
G01*
X0121240Y0081811D01*
G75*
G02*
X0121772Y0082342I0000531J0000000D01*
G01*
X0123228Y0082342D01*
G75*
G02*
X0123760Y0081811I0000000J-000531D01*
G01*
X0123760Y0080748D01*
G75*
G02*
X0123228Y0080216I-000531J0000000D01*
G01*
G37*
G36*
G01*
X0108695Y0136929D02*
X0108695Y0138386D01*
G75*
G02*
X0109227Y0138917I0000531J0000000D01*
G01*
X0110290Y0138917D01*
G75*
G02*
X0110821Y0138386I0000000J-000531D01*
G01*
X0110821Y0136929D01*
G75*
G02*
X0110290Y0136398I-000531J0000000D01*
G01*
X0109227Y0136398D01*
G75*
G02*
X0108695Y0136929I0000000J0000531D01*
G01*
G37*
G36*
G01*
X0112711Y0136929D02*
X0112711Y0138386D01*
G75*
G02*
X0113243Y0138917I0000531J0000000D01*
G01*
X0114306Y0138917D01*
G75*
G02*
X0114837Y0138386I0000000J-000531D01*
G01*
X0114837Y0136929D01*
G75*
G02*
X0114306Y0136398I-000531J0000000D01*
G01*
X0113243Y0136398D01*
G75*
G02*
X0112711Y0136929I0000000J0000531D01*
G01*
G37*
G36*
G01*
X0084744Y0136319D02*
X0085925Y0136319D01*
G75*
G02*
X0086516Y0135728I0000000J-000591D01*
G01*
X0086516Y0131102D01*
G75*
G02*
X0085925Y0130512I-000591J0000000D01*
G01*
X0084744Y0130512D01*
G75*
G02*
X0084154Y0131102I0000000J0000591D01*
G01*
X0084154Y0135728D01*
G75*
G02*
X0084744Y0136319I0000591J0000000D01*
G01*
G37*
G36*
G01*
X0092224Y0136319D02*
X0093405Y0136319D01*
G75*
G02*
X0093996Y0135728I0000000J-000591D01*
G01*
X0093996Y0131102D01*
G75*
G02*
X0093405Y0130512I-000591J0000000D01*
G01*
X0092224Y0130512D01*
G75*
G02*
X0091634Y0131102I0000000J0000591D01*
G01*
X0091634Y0135728D01*
G75*
G02*
X0092224Y0136319I0000591J0000000D01*
G01*
G37*
G36*
G01*
X0088484Y0128937D02*
X0089665Y0128937D01*
G75*
G02*
X0090256Y0128346I0000000J-000591D01*
G01*
X0090256Y0123720D01*
G75*
G02*
X0089665Y0123130I-000591J0000000D01*
G01*
X0088484Y0123130D01*
G75*
G02*
X0087894Y0123720I0000000J0000591D01*
G01*
X0087894Y0128346D01*
G75*
G02*
X0088484Y0128937I0000591J0000000D01*
G01*
G37*
G36*
G01*
X0122676Y0138366D02*
X0122676Y0137027D01*
G75*
G02*
X0122124Y0136476I-000551J0000000D01*
G01*
X0121022Y0136476D01*
G75*
G02*
X0120471Y0137027I0000000J0000551D01*
G01*
X0120471Y0138366D01*
G75*
G02*
X0121022Y0138917I0000551J0000000D01*
G01*
X0122124Y0138917D01*
G75*
G02*
X0122676Y0138366I0000000J-000551D01*
G01*
G37*
G36*
G01*
X0118896Y0138366D02*
X0118896Y0137027D01*
G75*
G02*
X0118345Y0136476I-000551J0000000D01*
G01*
X0117243Y0136476D01*
G75*
G02*
X0116691Y0137027I0000000J0000551D01*
G01*
X0116691Y0138366D01*
G75*
G02*
X0117243Y0138917I0000551J0000000D01*
G01*
X0118345Y0138917D01*
G75*
G02*
X0118896Y0138366I0000000J-000551D01*
G01*
G37*
G36*
G01*
X0119605Y0107579D02*
X0118424Y0107579D01*
G75*
G02*
X0117833Y0108169I0000000J0000591D01*
G01*
X0117833Y0113878D01*
G75*
G02*
X0118424Y0114468I0000591J0000000D01*
G01*
X0119605Y0114468D01*
G75*
G02*
X0120195Y0113878I0000000J-000591D01*
G01*
X0120195Y0108169D01*
G75*
G02*
X0119605Y0107579I-000591J0000000D01*
G01*
G37*
G36*
G01*
X0114605Y0107579D02*
X0113424Y0107579D01*
G75*
G02*
X0112833Y0108169I0000000J0000591D01*
G01*
X0112833Y0113878D01*
G75*
G02*
X0113424Y0114468I0000591J0000000D01*
G01*
X0114605Y0114468D01*
G75*
G02*
X0115195Y0113878I0000000J-000591D01*
G01*
X0115195Y0108169D01*
G75*
G02*
X0114605Y0107579I-000591J0000000D01*
G01*
G37*
G36*
G01*
X0109605Y0107579D02*
X0108424Y0107579D01*
G75*
G02*
X0107833Y0108169I0000000J0000591D01*
G01*
X0107833Y0113878D01*
G75*
G02*
X0108424Y0114468I0000591J0000000D01*
G01*
X0109605Y0114468D01*
G75*
G02*
X0110195Y0113878I0000000J-000591D01*
G01*
X0110195Y0108169D01*
G75*
G02*
X0109605Y0107579I-000591J0000000D01*
G01*
G37*
G36*
G01*
X0104605Y0107579D02*
X0103424Y0107579D01*
G75*
G02*
X0102833Y0108169I0000000J0000591D01*
G01*
X0102833Y0113878D01*
G75*
G02*
X0103424Y0114468I0000591J0000000D01*
G01*
X0104605Y0114468D01*
G75*
G02*
X0105195Y0113878I0000000J-000591D01*
G01*
X0105195Y0108169D01*
G75*
G02*
X0104605Y0107579I-000591J0000000D01*
G01*
G37*
G36*
G01*
X0104605Y0127854D02*
X0103424Y0127854D01*
G75*
G02*
X0102833Y0128445I0000000J0000591D01*
G01*
X0102833Y0134153D01*
G75*
G02*
X0103424Y0134744I0000591J0000000D01*
G01*
X0104605Y0134744D01*
G75*
G02*
X0105195Y0134153I0000000J-000591D01*
G01*
X0105195Y0128445D01*
G75*
G02*
X0104605Y0127854I-000591J0000000D01*
G01*
G37*
G36*
G01*
X0109605Y0127854D02*
X0108424Y0127854D01*
G75*
G02*
X0107833Y0128445I0000000J0000591D01*
G01*
X0107833Y0134153D01*
G75*
G02*
X0108424Y0134744I0000591J0000000D01*
G01*
X0109605Y0134744D01*
G75*
G02*
X0110195Y0134153I0000000J-000591D01*
G01*
X0110195Y0128445D01*
G75*
G02*
X0109605Y0127854I-000591J0000000D01*
G01*
G37*
G36*
G01*
X0114605Y0127854D02*
X0113424Y0127854D01*
G75*
G02*
X0112833Y0128445I0000000J0000591D01*
G01*
X0112833Y0134153D01*
G75*
G02*
X0113424Y0134744I0000591J0000000D01*
G01*
X0114605Y0134744D01*
G75*
G02*
X0115195Y0134153I0000000J-000591D01*
G01*
X0115195Y0128445D01*
G75*
G02*
X0114605Y0127854I-000591J0000000D01*
G01*
G37*
G36*
G01*
X0119605Y0127854D02*
X0118424Y0127854D01*
G75*
G02*
X0117833Y0128445I0000000J0000591D01*
G01*
X0117833Y0134153D01*
G75*
G02*
X0118424Y0134744I0000591J0000000D01*
G01*
X0119605Y0134744D01*
G75*
G02*
X0120195Y0134153I0000000J-000591D01*
G01*
X0120195Y0128445D01*
G75*
G02*
X0119605Y0127854I-000591J0000000D01*
G01*
G37*
X0425689Y0217717D02*
G01*
G75*
D486*
X0373720Y0132678D02*
D03*
X0373720Y0157973D02*
D03*
X0373720Y0142717D02*
D03*
X0373720Y0147933D02*
D03*
X0380807Y0117422D02*
D03*
X0373720Y0117422D02*
D03*
X0373720Y0127461D02*
D03*
X0380807Y0127461D02*
D03*
X0380807Y0157973D02*
D03*
X0380807Y0147933D02*
D03*
X0380807Y0142717D02*
D03*
X0380807Y0132678D02*
D03*
D487*
X0373720Y0136123D02*
D03*
X0373720Y0151378D02*
D03*
X0373720Y0139272D02*
D03*
X0373720Y0154528D02*
D03*
X0373720Y0124016D02*
D03*
X0373720Y0120867D02*
D03*
X0380807Y0120867D02*
D03*
X0380807Y0124016D02*
D03*
X0380807Y0151378D02*
D03*
X0380807Y0154528D02*
D03*
X0380807Y0136123D02*
D03*
X0380807Y0139272D02*
D03*
D490*
X0371752Y0079528D02*
D03*
X0375689Y0079528D02*
D03*
X0377264Y0083071D02*
D03*
X0381201Y0083071D02*
D03*
X0369390Y0100394D02*
D03*
X0373327Y0100394D02*
D03*
X0340737Y0158096D02*
D03*
X0344674Y0158096D02*
D03*
X0348933Y0158096D02*
D03*
X0352870Y0158096D02*
D03*
X0392255Y0125629D02*
D03*
X0396192Y0125629D02*
D03*
X0392255Y0129352D02*
D03*
X0396192Y0129352D02*
D03*
X0394671Y0092520D02*
D03*
X0390734Y0092520D02*
D03*
X0306037Y0081587D02*
D03*
X0341785Y0081826D02*
D03*
X0326870Y0158096D02*
D03*
X0359154Y0103938D02*
D03*
X0359154Y0108268D02*
D03*
X0362584Y0112487D02*
D03*
X0373861Y0112432D02*
D03*
X0353445Y0142092D02*
D03*
X0362234Y0142092D02*
D03*
X0366171Y0150577D02*
D03*
X0301254Y0180443D02*
D03*
X0326870Y0162599D02*
D03*
X0367815Y0079528D02*
D03*
X0381201Y0112523D02*
D03*
X0402854Y0111125D02*
D03*
X0416919Y0111125D02*
D03*
X0402854Y0115355D02*
D03*
X0416919Y0115355D02*
D03*
X0377216Y0162263D02*
D03*
X0421752Y0164174D02*
D03*
X0355217Y0103938D02*
D03*
X0366171Y0142092D02*
D03*
X0357382Y0142092D02*
D03*
X0357382Y0146580D02*
D03*
X0353445Y0146580D02*
D03*
X0299311Y0166536D02*
D03*
X0303248Y0166536D02*
D03*
X0305191Y0180443D02*
D03*
X0390636Y0109619D02*
D03*
X0394573Y0109619D02*
D03*
X0420857Y0111125D02*
D03*
X0377264Y0112523D02*
D03*
X0362234Y0150577D02*
D03*
X0369924Y0112432D02*
D03*
X0366521Y0112487D02*
D03*
X0406791Y0115355D02*
D03*
X0381153Y0162263D02*
D03*
X0417815Y0164174D02*
D03*
X0345722Y0081826D02*
D03*
X0371752Y0079528D02*
D03*
X0398524Y0104552D02*
D03*
X0402461Y0104552D02*
D03*
X0406791Y0111125D02*
D03*
X0322933Y0162599D02*
D03*
X0322933Y0158096D02*
D03*
X0355217Y0108268D02*
D03*
X0309974Y0081587D02*
D03*
X0319290Y0081587D02*
D03*
X0315353Y0081587D02*
D03*
X0412982Y0115355D02*
D03*
X0421752Y0160237D02*
D03*
X0417815Y0160237D02*
D03*
X0421752Y0147835D02*
D03*
X0417815Y0147835D02*
D03*
X0421752Y0143701D02*
D03*
X0417815Y0143701D02*
D03*
X0421752Y0135433D02*
D03*
X0417815Y0135433D02*
D03*
X0421752Y0139567D02*
D03*
X0417815Y0139567D02*
D03*
X0421752Y0131300D02*
D03*
X0417815Y0131300D02*
D03*
X0421752Y0151969D02*
D03*
X0417815Y0151969D02*
D03*
X0421752Y0156103D02*
D03*
X0417815Y0156103D02*
D03*
D492*
X0366762Y0128741D02*
D03*
X0366762Y0124508D02*
D03*
X0321358Y0212599D02*
D03*
X0326083Y0212599D02*
D03*
X0330807Y0212599D02*
D03*
X0335531Y0212599D02*
D03*
X0405610Y0084252D02*
D03*
X0401476Y0084252D02*
D03*
X0310296Y0176473D02*
D03*
X0310296Y0172536D02*
D03*
X0421225Y0085434D02*
D03*
X0421225Y0089370D02*
D03*
X0366762Y0120571D02*
D03*
X0366762Y0132678D02*
D03*
X0314468Y0176969D02*
D03*
X0314468Y0173032D02*
D03*
X0339241Y0204745D02*
D03*
X0339241Y0200808D02*
D03*
X0335531Y0200808D02*
D03*
X0335531Y0204745D02*
D03*
X0335531Y0190158D02*
D03*
X0335531Y0194095D02*
D03*
X0335531Y0208662D02*
D03*
X0330807Y0208662D02*
D03*
X0321358Y0208662D02*
D03*
X0326083Y0208662D02*
D03*
X0420190Y0175468D02*
D03*
X0420190Y0171531D02*
D03*
X0369980Y0172441D02*
D03*
X0369980Y0176378D02*
D03*
X0369980Y0182678D02*
D03*
X0369980Y0186615D02*
D03*
X0397933Y0172441D02*
D03*
X0397933Y0176378D02*
D03*
X0374508Y0197835D02*
D03*
X0374508Y0193898D02*
D03*
X0403838Y0197835D02*
D03*
X0403838Y0193898D02*
D03*
X0416634Y0197835D02*
D03*
X0416634Y0193898D02*
D03*
X0399742Y0204745D02*
D03*
X0399742Y0208682D02*
D03*
X0421358Y0205119D02*
D03*
X0421358Y0201182D02*
D03*
X0421161Y0208268D02*
D03*
X0421161Y0212205D02*
D03*
X0421225Y0096960D02*
D03*
X0421225Y0093023D02*
D03*
X0405610Y0080315D02*
D03*
X0401476Y0080315D02*
D03*
X0397736Y0193898D02*
D03*
X0397736Y0197835D02*
D03*
X0393406Y0193898D02*
D03*
X0393406Y0197835D02*
D03*
X0384941Y0193898D02*
D03*
X0384941Y0197835D02*
D03*
X0380775Y0208682D02*
D03*
X0380775Y0204745D02*
D03*
X0342028Y0176378D02*
D03*
X0342028Y0172441D02*
D03*
X0412303Y0193898D02*
D03*
X0412303Y0197835D02*
D03*
X0361932Y0208682D02*
D03*
X0361932Y0204745D02*
D03*
X0366043Y0193898D02*
D03*
X0366043Y0197835D02*
D03*
X0378838Y0193898D02*
D03*
X0378838Y0197835D02*
D03*
X0342952Y0208682D02*
D03*
X0342952Y0204745D02*
D03*
X0347145Y0193898D02*
D03*
X0347145Y0197835D02*
D03*
X0355610Y0193898D02*
D03*
X0355610Y0197835D02*
D03*
X0359941Y0193898D02*
D03*
X0359941Y0197835D02*
D03*
X0342164Y0190158D02*
D03*
X0342164Y0194095D02*
D03*
D494*
X0386132Y0087461D02*
D03*
X0393872Y0096936D02*
D03*
X0412205Y0120306D02*
D03*
D497*
X0338484Y0088878D02*
D03*
X0344784Y0088878D02*
D03*
X0375098Y0087500D02*
D03*
X0381398Y0087500D02*
D03*
X0375098Y0092126D02*
D03*
X0381398Y0092126D02*
D03*
D494*
X0402953Y0124047D02*
D03*
X0393872Y0104416D02*
D03*
X0384620Y0100676D02*
D03*
X0386132Y0079981D02*
D03*
X0395384Y0083721D02*
D03*
X0412205Y0127787D02*
D03*
D222*
X0347776Y0163583D02*
D03*
X0333563Y0163583D02*
D03*
X0363563Y0163583D02*
D03*
D223*
X0310571Y0086024D02*
D03*
X0330571Y0090024D02*
D03*
X0330571Y0082024D02*
D03*
D37*
X0421358Y0080315D02*
D03*
D512*
X0377658Y0097323D02*
D03*
X0377658Y0103544D02*
D03*
D513*
X0348228Y0168111D02*
D03*
X0348228Y0175197D02*
D03*
X0358268Y0175197D02*
D03*
X0358268Y0168111D02*
D03*
X0376181Y0175197D02*
D03*
X0404134Y0175197D02*
D03*
X0386220Y0179134D02*
D03*
X0331102Y0204331D02*
D03*
X0331102Y0197245D02*
D03*
X0321063Y0197245D02*
D03*
X0321063Y0204331D02*
D03*
X0414173Y0186221D02*
D03*
X0414173Y0179134D02*
D03*
X0404134Y0179134D02*
D03*
X0404134Y0186221D02*
D03*
X0404134Y0168111D02*
D03*
X0414173Y0175197D02*
D03*
X0414173Y0168111D02*
D03*
X0386220Y0186221D02*
D03*
X0376181Y0179134D02*
D03*
X0376181Y0186221D02*
D03*
X0376181Y0168111D02*
D03*
X0386220Y0175197D02*
D03*
X0386220Y0168111D02*
D03*
X0385236Y0210040D02*
D03*
X0385236Y0202953D02*
D03*
X0395276Y0202953D02*
D03*
X0395276Y0210040D02*
D03*
X0404134Y0210040D02*
D03*
X0404134Y0202953D02*
D03*
X0414173Y0202953D02*
D03*
X0414173Y0210040D02*
D03*
X0366338Y0210040D02*
D03*
X0366338Y0202953D02*
D03*
X0376378Y0202953D02*
D03*
X0376378Y0210040D02*
D03*
X0347441Y0210040D02*
D03*
X0347441Y0202953D02*
D03*
X0357480Y0202953D02*
D03*
X0357480Y0210040D02*
D03*
X0348228Y0186221D02*
D03*
X0348228Y0179134D02*
D03*
X0358268Y0179134D02*
D03*
X0358268Y0186221D02*
D03*
X0320669Y0186221D02*
D03*
X0320669Y0179134D02*
D03*
X0330709Y0179134D02*
D03*
X0330709Y0186221D02*
D03*
X0330709Y0168111D02*
D03*
X0330709Y0175197D02*
D03*
X0320669Y0175197D02*
D03*
X0320669Y0168111D02*
D03*
D514*
X0354823Y0175197D02*
D03*
X0351673Y0175197D02*
D03*
X0351673Y0168111D02*
D03*
X0354823Y0168111D02*
D03*
X0379626Y0175197D02*
D03*
X0407579Y0175197D02*
D03*
X0382776Y0179134D02*
D03*
X0324508Y0197245D02*
D03*
X0327657Y0197245D02*
D03*
X0327657Y0204331D02*
D03*
X0324508Y0204331D02*
D03*
X0407579Y0179134D02*
D03*
X0410728Y0179134D02*
D03*
X0410728Y0186221D02*
D03*
X0407579Y0186221D02*
D03*
X0410728Y0175197D02*
D03*
X0407579Y0168111D02*
D03*
X0410728Y0168111D02*
D03*
X0379626Y0179134D02*
D03*
X0382776Y0186221D02*
D03*
X0379626Y0186221D02*
D03*
X0382775Y0175197D02*
D03*
X0379626Y0168111D02*
D03*
X0382775Y0168111D02*
D03*
X0388681Y0210040D02*
D03*
X0391831Y0210040D02*
D03*
X0391831Y0202953D02*
D03*
X0388681Y0202953D02*
D03*
X0407578Y0210040D02*
D03*
X0410728Y0210040D02*
D03*
X0410728Y0202953D02*
D03*
X0407578Y0202953D02*
D03*
X0369783Y0210040D02*
D03*
X0372933Y0210040D02*
D03*
X0372933Y0202953D02*
D03*
X0369783Y0202953D02*
D03*
X0350886Y0210040D02*
D03*
X0354035Y0210040D02*
D03*
X0354035Y0202953D02*
D03*
X0350886Y0202953D02*
D03*
X0351673Y0186221D02*
D03*
X0354823Y0186221D02*
D03*
X0354823Y0179134D02*
D03*
X0351673Y0179134D02*
D03*
X0324114Y0186221D02*
D03*
X0327264Y0186221D02*
D03*
X0327264Y0179134D02*
D03*
X0324114Y0179134D02*
D03*
X0327264Y0168111D02*
D03*
X0324114Y0168111D02*
D03*
X0324114Y0175197D02*
D03*
X0327264Y0175197D02*
D03*
D515*
X0315886Y0090847D02*
D03*
X0315886Y0085857D02*
D03*
X0322106Y0085857D02*
D03*
X0322106Y0090847D02*
D03*
D516*
X0303248Y0097737D02*
D03*
X0335925Y0097737D02*
D03*
X0303248Y0151870D02*
D03*
X0335925Y0151870D02*
D03*
D517*
X0313484Y0115768D02*
D03*
X0313484Y0107107D02*
D03*
X0313484Y0111437D02*
D03*
X0313484Y0120099D02*
D03*
X0313484Y0124430D02*
D03*
X0313484Y0128760D02*
D03*
X0313484Y0133091D02*
D03*
X0313484Y0137422D02*
D03*
D518*
X0295177Y0196378D02*
D03*
X0308381Y0196378D02*
D03*
X0302658Y0204410D02*
D03*
X0315861Y0204410D02*
D03*
X0298917Y0187126D02*
D03*
X0312121Y0187126D02*
D03*
X0312121Y0213662D02*
D03*
X0400295Y0098741D02*
D03*
X0404035Y0089489D02*
D03*
X0298917Y0213662D02*
D03*
D248*
X0301254Y0170605D02*
D03*
X0305191Y0170605D02*
D03*
X0301254Y0176609D02*
D03*
X0303222Y0176609D02*
D03*
X0303222Y0170605D02*
D03*
X0305191Y0176609D02*
D03*
D519*
X0391819Y0113957D02*
D03*
X0396937Y0113957D02*
D03*
X0394378Y0113957D02*
D03*
X0391819Y0121438D02*
D03*
X0396937Y0121438D02*
D03*
D250*
X0388602Y0133465D02*
D03*
X0411594Y0136024D02*
D03*
X0411594Y0133465D02*
D03*
X0388602Y0156496D02*
D03*
X0411594Y0159055D02*
D03*
X0411594Y0161615D02*
D03*
X0411594Y0156496D02*
D03*
X0411594Y0153937D02*
D03*
X0411594Y0151378D02*
D03*
X0411594Y0148819D02*
D03*
X0411594Y0146260D02*
D03*
X0411594Y0143701D02*
D03*
X0411594Y0141142D02*
D03*
X0411594Y0138583D02*
D03*
X0388602Y0161615D02*
D03*
X0388602Y0159055D02*
D03*
X0388602Y0153937D02*
D03*
X0388602Y0151378D02*
D03*
X0388602Y0148819D02*
D03*
X0388602Y0146260D02*
D03*
X0388602Y0143701D02*
D03*
X0388602Y0141142D02*
D03*
X0388602Y0138583D02*
D03*
X0388602Y0136024D02*
D03*
D520*
X0414665Y0095878D02*
D03*
X0414665Y0084460D02*
D03*
D521*
X0356575Y0093743D02*
D03*
X0369567Y0093743D02*
D03*
X0420652Y0104943D02*
D03*
X0407660Y0104943D02*
D03*
D253*
X0357800Y0119148D02*
D03*
X0357800Y0133715D02*
D03*
D254*
X0306224Y0174591D02*
D03*
X0306224Y0172623D02*
D03*
X0300220Y0172623D02*
D03*
X0300220Y0174591D02*
D03*
D522*
X0371211Y0106625D02*
D03*
X0365306Y0106625D02*
D03*
D518*
X0302658Y0196378D02*
D03*
X0315861Y0196378D02*
D03*
X0308381Y0204410D02*
D03*
X0407776Y0098741D02*
D03*
X0295177Y0204410D02*
D03*
D256*
X0368408Y0157284D02*
D03*
X0361715Y0157284D02*
D03*
D523*
X0352047Y0083747D02*
D03*
X0363464Y0083747D02*
D03*
D524*
X0420964Y0118111D02*
D03*
X0420964Y0124410D02*
D03*
X0017126Y0124409D02*
%LPD*%
G01*
D153*
X0028740Y0033228D03*
X0040551Y0041102D03*
X0028740Y0048976D03*
D166*
X0027953Y0120236D03*
X0023953Y0100236D03*
X0031953Y0100236D03*
D390*
X0066831Y0030748D03*
D391*
X0066831Y0040748D03*
X0066831Y0050748D03*
G36*
G01*
X0024485Y0044704D02*
X0025843Y0044704D01*
G75*
G02*
X0026424Y0044124I0000000J-000581D01*
G01*
X0026424Y0042962D01*
G75*
G02*
X0025843Y0042381I-000581J0000000D01*
G01*
X0024485Y0042381D01*
G75*
G02*
X0023904Y0042962I0000000J0000581D01*
G01*
X0023904Y0044124D01*
G75*
G02*
X0024485Y0044704I0000581J0000000D01*
G01*
G37*
G36*
G01*
X0024485Y0040885D02*
X0025843Y0040885D01*
G75*
G02*
X0026424Y0040305I0000000J-000581D01*
G01*
X0026424Y0039143D01*
G75*
G02*
X0025843Y0038563I-000581J0000000D01*
G01*
X0024485Y0038563D01*
G75*
G02*
X0023904Y0039143I0000000J0000581D01*
G01*
X0023904Y0040305D01*
G75*
G02*
X0024485Y0040885I0000581J0000000D01*
G01*
G37*
G36*
G01*
X0039774Y0030236D02*
X0041132Y0030236D01*
G75*
G02*
X0041713Y0029655I0000000J-000581D01*
G01*
X0041713Y0028494D01*
G75*
G02*
X0041132Y0027913I-000581J0000000D01*
G01*
X0039774Y0027913D01*
G75*
G02*
X0039193Y0028494I0000000J0000581D01*
G01*
X0039193Y0029655D01*
G75*
G02*
X0039774Y0030236I0000581J0000000D01*
G01*
G37*
G36*
G01*
X0039774Y0026417D02*
X0041132Y0026417D01*
G75*
G02*
X0041713Y0025836I0000000J-000581D01*
G01*
X0041713Y0024675D01*
G75*
G02*
X0041132Y0024094I-000581J0000000D01*
G01*
X0039774Y0024094D01*
G75*
G02*
X0039193Y0024675I0000000J0000581D01*
G01*
X0039193Y0025836D01*
G75*
G02*
X0039774Y0026417I0000581J0000000D01*
G01*
G37*
G36*
G01*
X0065970Y0080118D02*
X0063952Y0080118D01*
G75*
G02*
X0063091Y0080979I0000000J0000861D01*
G01*
X0063091Y0082701D01*
G75*
G02*
X0063952Y0083563I0000861J0000000D01*
G01*
X0065970Y0083563D01*
G75*
G02*
X0066831Y0082701I0000000J-000861D01*
G01*
X0066831Y0080979D01*
G75*
G02*
X0065970Y0080118I-000861J0000000D01*
G01*
G37*
G36*
G01*
X0065970Y0086318D02*
X0063952Y0086318D01*
G75*
G02*
X0063091Y0087180I0000000J0000861D01*
G01*
X0063091Y0088902D01*
G75*
G02*
X0063952Y0089763I0000861J0000000D01*
G01*
X0065970Y0089763D01*
G75*
G02*
X0066831Y0088902I0000000J-000861D01*
G01*
X0066831Y0087180D01*
G75*
G02*
X0065970Y0086318I-000861J0000000D01*
G01*
G37*
G36*
G01*
X0021644Y0038563D02*
X0020285Y0038563D01*
G75*
G02*
X0019705Y0039143I0000000J0000581D01*
G01*
X0019705Y0040305D01*
G75*
G02*
X0020285Y0040885I0000581J0000000D01*
G01*
X0021644Y0040885D01*
G75*
G02*
X0022224Y0040305I0000000J-000581D01*
G01*
X0022224Y0039143D01*
G75*
G02*
X0021644Y0038563I-000581J0000000D01*
G01*
G37*
G36*
G01*
X0021644Y0042381D02*
X0020285Y0042381D01*
G75*
G02*
X0019705Y0042962I0000000J0000581D01*
G01*
X0019705Y0044124D01*
G75*
G02*
X0020285Y0044704I0000581J0000000D01*
G01*
X0021644Y0044704D01*
G75*
G02*
X0022224Y0044124I0000000J-000581D01*
G01*
X0022224Y0042962D01*
G75*
G02*
X0021644Y0042381I-000581J0000000D01*
G01*
G37*
G36*
G01*
X0060640Y0098264D02*
X0061998Y0098264D01*
G75*
G02*
X0062579Y0097684I0000000J-000581D01*
G01*
X0062579Y0096522D01*
G75*
G02*
X0061998Y0095942I-000581J0000000D01*
G01*
X0060640Y0095942D01*
G75*
G02*
X0060059Y0096522I0000000J0000581D01*
G01*
X0060059Y0097684D01*
G75*
G02*
X0060640Y0098264I0000581J0000000D01*
G01*
G37*
G36*
G01*
X0060640Y0094446D02*
X0061998Y0094446D01*
G75*
G02*
X0062579Y0093865I0000000J-000581D01*
G01*
X0062579Y0092703D01*
G75*
G02*
X0061998Y0092123I-000581J0000000D01*
G01*
X0060640Y0092123D01*
G75*
G02*
X0060059Y0092703I0000000J0000581D01*
G01*
X0060059Y0093865D01*
G75*
G02*
X0060640Y0094446I0000581J0000000D01*
G01*
G37*
G36*
G01*
X0058770Y0090177D02*
X0060128Y0090177D01*
G75*
G02*
X0060709Y0089596I0000000J-000581D01*
G01*
X0060709Y0088435D01*
G75*
G02*
X0060128Y0087854I-000581J0000000D01*
G01*
X0058770Y0087854D01*
G75*
G02*
X0058189Y0088435I0000000J0000581D01*
G01*
X0058189Y0089596D01*
G75*
G02*
X0058770Y0090177I0000581J0000000D01*
G01*
G37*
G36*
G01*
X0058770Y0086358D02*
X0060128Y0086358D01*
G75*
G02*
X0060709Y0085777I0000000J-000581D01*
G01*
X0060709Y0084616D01*
G75*
G02*
X0060128Y0084035I-000581J0000000D01*
G01*
X0058770Y0084035D01*
G75*
G02*
X0058189Y0084616I0000000J0000581D01*
G01*
X0058189Y0085777D01*
G75*
G02*
X0058770Y0086358I0000581J0000000D01*
G01*
G37*
G36*
G01*
X0066102Y0118789D02*
X0066102Y0117431D01*
G75*
G02*
X0065522Y0116850I-000581J0000000D01*
G01*
X0064360Y0116850D01*
G75*
G02*
X0063780Y0117431I0000000J0000581D01*
G01*
X0063780Y0118789D01*
G75*
G02*
X0064360Y0119370I0000581J0000000D01*
G01*
X0065522Y0119370D01*
G75*
G02*
X0066102Y0118789I0000000J-000581D01*
G01*
G37*
G36*
G01*
X0062283Y0118789D02*
X0062283Y0117431D01*
G75*
G02*
X0061703Y0116850I-000581J0000000D01*
G01*
X0060541Y0116850D01*
G75*
G02*
X0059961Y0117431I0000000J0000581D01*
G01*
X0059961Y0118789D01*
G75*
G02*
X0060541Y0119370I0000581J0000000D01*
G01*
X0061703Y0119370D01*
G75*
G02*
X0062283Y0118789I0000000J-000581D01*
G01*
G37*
G36*
G01*
X0048514Y0069271D02*
X0047156Y0069271D01*
G75*
G02*
X0046575Y0069852I0000000J0000581D01*
G01*
X0046575Y0071013D01*
G75*
G02*
X0047156Y0071594I0000581J0000000D01*
G01*
X0048514Y0071594D01*
G75*
G02*
X0049095Y0071013I0000000J-000581D01*
G01*
X0049095Y0069852D01*
G75*
G02*
X0048514Y0069271I-000581J0000000D01*
G01*
G37*
G36*
G01*
X0048514Y0073090D02*
X0047156Y0073090D01*
G75*
G02*
X0046575Y0073671I0000000J0000581D01*
G01*
X0046575Y0074832D01*
G75*
G02*
X0047156Y0075413I0000581J0000000D01*
G01*
X0048514Y0075413D01*
G75*
G02*
X0049095Y0074832I0000000J-000581D01*
G01*
X0049095Y0073671D01*
G75*
G02*
X0048514Y0073090I-000581J0000000D01*
G01*
G37*
G36*
G01*
X0043219Y0075413D02*
X0044577Y0075413D01*
G75*
G02*
X0045157Y0074832I0000000J-000581D01*
G01*
X0045157Y0073671D01*
G75*
G02*
X0044577Y0073090I-000581J0000000D01*
G01*
X0043219Y0073090D01*
G75*
G02*
X0042638Y0073671I0000000J0000581D01*
G01*
X0042638Y0074832D01*
G75*
G02*
X0043219Y0075413I0000581J0000000D01*
G01*
G37*
G36*
G01*
X0043219Y0071594D02*
X0044577Y0071594D01*
G75*
G02*
X0045157Y0071013I0000000J-000581D01*
G01*
X0045157Y0069852D01*
G75*
G02*
X0044577Y0069271I-000581J0000000D01*
G01*
X0043219Y0069271D01*
G75*
G02*
X0042638Y0069852I0000000J0000581D01*
G01*
X0042638Y0071013D01*
G75*
G02*
X0043219Y0071594I0000581J0000000D01*
G01*
G37*
G36*
G01*
X0045659Y0027933D02*
X0044301Y0027933D01*
G75*
G02*
X0043720Y0028513I0000000J0000581D01*
G01*
X0043720Y0029675D01*
G75*
G02*
X0044301Y0030255I0000581J0000000D01*
G01*
X0045659Y0030255D01*
G75*
G02*
X0046240Y0029675I0000000J-000581D01*
G01*
X0046240Y0028513D01*
G75*
G02*
X0045659Y0027933I-000581J0000000D01*
G01*
G37*
G36*
G01*
X0045659Y0031752D02*
X0044301Y0031752D01*
G75*
G02*
X0043720Y0032332I0000000J0000581D01*
G01*
X0043720Y0033494D01*
G75*
G02*
X0044301Y0034074I0000581J0000000D01*
G01*
X0045659Y0034074D01*
G75*
G02*
X0046240Y0033494I0000000J-000581D01*
G01*
X0046240Y0032332D01*
G75*
G02*
X0045659Y0031752I-000581J0000000D01*
G01*
G37*
D393*
X0022244Y0082283D03*
X0024803Y0082283D03*
X0027362Y0082283D03*
X0029921Y0082283D03*
X0032480Y0082283D03*
X0035039Y0082283D03*
X0037598Y0082283D03*
X0037598Y0059055D03*
X0035039Y0059055D03*
X0032480Y0059055D03*
X0029921Y0059055D03*
X0027362Y0059055D03*
X0024803Y0059055D03*
X0022244Y0059055D03*
G36*
G01*
X0065738Y0092106D02*
X0064380Y0092106D01*
G75*
G02*
X0063799Y0092687I0000000J0000581D01*
G01*
X0063799Y0093848D01*
G75*
G02*
X0064380Y0094429I0000581J0000000D01*
G01*
X0065738Y0094429D01*
G75*
G02*
X0066319Y0093848I0000000J-000581D01*
G01*
X0066319Y0092687D01*
G75*
G02*
X0065738Y0092106I-000581J0000000D01*
G01*
G37*
G36*
G01*
X0065738Y0095925D02*
X0064380Y0095925D01*
G75*
G02*
X0063799Y0096505I0000000J0000581D01*
G01*
X0063799Y0097667D01*
G75*
G02*
X0064380Y0098248I0000581J0000000D01*
G01*
X0065738Y0098248D01*
G75*
G02*
X0066319Y0097667I0000000J-000581D01*
G01*
X0066319Y0096505D01*
G75*
G02*
X0065738Y0095925I-000581J0000000D01*
G01*
G37*
G36*
G01*
X0068120Y0098248D02*
X0069478Y0098248D01*
G75*
G02*
X0070059Y0097667I0000000J-000581D01*
G01*
X0070059Y0096505D01*
G75*
G02*
X0069478Y0095925I-000581J0000000D01*
G01*
X0068120Y0095925D01*
G75*
G02*
X0067539Y0096505I0000000J0000581D01*
G01*
X0067539Y0097667D01*
G75*
G02*
X0068120Y0098248I0000581J0000000D01*
G01*
G37*
G36*
G01*
X0068120Y0094429D02*
X0069478Y0094429D01*
G75*
G02*
X0070059Y0093848I0000000J-000581D01*
G01*
X0070059Y0092687D01*
G75*
G02*
X0069478Y0092106I-000581J0000000D01*
G01*
X0068120Y0092106D01*
G75*
G02*
X0067539Y0092687I0000000J0000581D01*
G01*
X0067539Y0093848D01*
G75*
G02*
X0068120Y0094429I0000581J0000000D01*
G01*
G37*
G36*
G01*
X0058671Y0038011D02*
X0060030Y0038011D01*
G75*
G02*
X0060610Y0037431I0000000J-000581D01*
G01*
X0060610Y0036269D01*
G75*
G02*
X0060030Y0035689I-000581J0000000D01*
G01*
X0058671Y0035689D01*
G75*
G02*
X0058091Y0036269I0000000J0000581D01*
G01*
X0058091Y0037431D01*
G75*
G02*
X0058671Y0038011I0000581J0000000D01*
G01*
G37*
G36*
G01*
X0058671Y0034192D02*
X0060030Y0034192D01*
G75*
G02*
X0060610Y0033612I0000000J-000581D01*
G01*
X0060610Y0032450D01*
G75*
G02*
X0060030Y0031870I-000581J0000000D01*
G01*
X0058671Y0031870D01*
G75*
G02*
X0058091Y0032450I0000000J0000581D01*
G01*
X0058091Y0033612D01*
G75*
G02*
X0058671Y0034192I0000581J0000000D01*
G01*
G37*
G36*
G01*
X0029373Y0044704D02*
X0030732Y0044704D01*
G75*
G02*
X0031312Y0044124I0000000J-000581D01*
G01*
X0031312Y0042962D01*
G75*
G02*
X0030732Y0042381I-000581J0000000D01*
G01*
X0029373Y0042381D01*
G75*
G02*
X0028793Y0042962I0000000J0000581D01*
G01*
X0028793Y0044124D01*
G75*
G02*
X0029373Y0044704I0000581J0000000D01*
G01*
G37*
G36*
G01*
X0029373Y0040885D02*
X0030732Y0040885D01*
G75*
G02*
X0031312Y0040305I0000000J-000581D01*
G01*
X0031312Y0039143D01*
G75*
G02*
X0030732Y0038563I-000581J0000000D01*
G01*
X0029373Y0038563D01*
G75*
G02*
X0028793Y0039143I0000000J0000581D01*
G01*
X0028793Y0040305D01*
G75*
G02*
X0029373Y0040885I0000581J0000000D01*
G01*
G37*
G36*
G01*
X0052451Y0072519D02*
X0051093Y0072519D01*
G75*
G02*
X0050512Y0073100I0000000J0000581D01*
G01*
X0050512Y0074261D01*
G75*
G02*
X0051093Y0074842I0000581J0000000D01*
G01*
X0052451Y0074842D01*
G75*
G02*
X0053032Y0074261I0000000J-000581D01*
G01*
X0053032Y0073100D01*
G75*
G02*
X0052451Y0072519I-000581J0000000D01*
G01*
G37*
G36*
G01*
X0052451Y0076338D02*
X0051093Y0076338D01*
G75*
G02*
X0050512Y0076919I0000000J0000581D01*
G01*
X0050512Y0078080D01*
G75*
G02*
X0051093Y0078661I0000581J0000000D01*
G01*
X0052451Y0078661D01*
G75*
G02*
X0053032Y0078080I0000000J-000581D01*
G01*
X0053032Y0076919D01*
G75*
G02*
X0052451Y0076338I-000581J0000000D01*
G01*
G37*
G36*
G01*
X0060030Y0024192D02*
X0058671Y0024192D01*
G75*
G02*
X0058091Y0024773I0000000J0000581D01*
G01*
X0058091Y0025935D01*
G75*
G02*
X0058671Y0026515I0000581J0000000D01*
G01*
X0060030Y0026515D01*
G75*
G02*
X0060610Y0025935I0000000J-000581D01*
G01*
X0060610Y0024773D01*
G75*
G02*
X0060030Y0024192I-000581J0000000D01*
G01*
G37*
G36*
G01*
X0060030Y0028011D02*
X0058671Y0028011D01*
G75*
G02*
X0058091Y0028592I0000000J0000581D01*
G01*
X0058091Y0029753D01*
G75*
G02*
X0058671Y0030334I0000581J0000000D01*
G01*
X0060030Y0030334D01*
G75*
G02*
X0060610Y0029753I0000000J-000581D01*
G01*
X0060610Y0028592D01*
G75*
G02*
X0060030Y0028011I-000581J0000000D01*
G01*
G37*
G36*
G01*
X0044577Y0076653D02*
X0043219Y0076653D01*
G75*
G02*
X0042638Y0077234I0000000J0000581D01*
G01*
X0042638Y0078395D01*
G75*
G02*
X0043219Y0078976I0000581J0000000D01*
G01*
X0044577Y0078976D01*
G75*
G02*
X0045157Y0078395I0000000J-000581D01*
G01*
X0045157Y0077234D01*
G75*
G02*
X0044577Y0076653I-000581J0000000D01*
G01*
G37*
G36*
G01*
X0044577Y0080472D02*
X0043219Y0080472D01*
G75*
G02*
X0042638Y0081053I0000000J0000581D01*
G01*
X0042638Y0082214D01*
G75*
G02*
X0043219Y0082795I0000581J0000000D01*
G01*
X0044577Y0082795D01*
G75*
G02*
X0045157Y0082214I0000000J-000581D01*
G01*
X0045157Y0081053D01*
G75*
G02*
X0044577Y0080472I-000581J0000000D01*
G01*
G37*
G36*
G01*
X0019961Y0087903D02*
X0019961Y0089261D01*
G75*
G02*
X0020541Y0089842I0000581J0000000D01*
G01*
X0021703Y0089842D01*
G75*
G02*
X0022283Y0089261I0000000J-000581D01*
G01*
X0022283Y0087903D01*
G75*
G02*
X0021703Y0087322I-000581J0000000D01*
G01*
X0020541Y0087322D01*
G75*
G02*
X0019961Y0087903I0000000J0000581D01*
G01*
G37*
G36*
G01*
X0023780Y0087903D02*
X0023780Y0089261D01*
G75*
G02*
X0024360Y0089842I0000581J0000000D01*
G01*
X0025522Y0089842D01*
G75*
G02*
X0026102Y0089261I0000000J-000581D01*
G01*
X0026102Y0087903D01*
G75*
G02*
X0025522Y0087322I-000581J0000000D01*
G01*
X0024360Y0087322D01*
G75*
G02*
X0023780Y0087903I0000000J0000581D01*
G01*
G37*
G36*
G01*
X0048514Y0061791D02*
X0047156Y0061791D01*
G75*
G02*
X0046575Y0062372I0000000J0000581D01*
G01*
X0046575Y0063533D01*
G75*
G02*
X0047156Y0064114I0000581J0000000D01*
G01*
X0048514Y0064114D01*
G75*
G02*
X0049095Y0063533I0000000J-000581D01*
G01*
X0049095Y0062372D01*
G75*
G02*
X0048514Y0061791I-000581J0000000D01*
G01*
G37*
G36*
G01*
X0048514Y0065610D02*
X0047156Y0065610D01*
G75*
G02*
X0046575Y0066190I0000000J0000581D01*
G01*
X0046575Y0067352D01*
G75*
G02*
X0047156Y0067933I0000581J0000000D01*
G01*
X0048514Y0067933D01*
G75*
G02*
X0049095Y0067352I0000000J-000581D01*
G01*
X0049095Y0066190D01*
G75*
G02*
X0048514Y0065610I-000581J0000000D01*
G01*
G37*
G36*
G01*
X0047156Y0060452D02*
X0048514Y0060452D01*
G75*
G02*
X0049095Y0059872I0000000J-000581D01*
G01*
X0049095Y0058710D01*
G75*
G02*
X0048514Y0058129I-000581J0000000D01*
G01*
X0047156Y0058129D01*
G75*
G02*
X0046575Y0058710I0000000J0000581D01*
G01*
X0046575Y0059872D01*
G75*
G02*
X0047156Y0060452I0000581J0000000D01*
G01*
G37*
G36*
G01*
X0047156Y0056633D02*
X0048514Y0056633D01*
G75*
G02*
X0049095Y0056053I0000000J-000581D01*
G01*
X0049095Y0054891D01*
G75*
G02*
X0048514Y0054311I-000581J0000000D01*
G01*
X0047156Y0054311D01*
G75*
G02*
X0046575Y0054891I0000000J0000581D01*
G01*
X0046575Y0056053D01*
G75*
G02*
X0047156Y0056633I0000581J0000000D01*
G01*
G37*
G36*
G01*
X0019961Y0091643D02*
X0019961Y0093002D01*
G75*
G02*
X0020541Y0093582I0000581J0000000D01*
G01*
X0021703Y0093582D01*
G75*
G02*
X0022283Y0093002I0000000J-000581D01*
G01*
X0022283Y0091643D01*
G75*
G02*
X0021703Y0091063I-000581J0000000D01*
G01*
X0020541Y0091063D01*
G75*
G02*
X0019961Y0091643I0000000J0000581D01*
G01*
G37*
G36*
G01*
X0023780Y0091643D02*
X0023780Y0093002D01*
G75*
G02*
X0024360Y0093582I0000581J0000000D01*
G01*
X0025522Y0093582D01*
G75*
G02*
X0026102Y0093002I0000000J-000581D01*
G01*
X0026102Y0091643D01*
G75*
G02*
X0025522Y0091063I-000581J0000000D01*
G01*
X0024360Y0091063D01*
G75*
G02*
X0023780Y0091643I0000000J0000581D01*
G01*
G37*
D394*
X0068799Y0102322D03*
X0065059Y0102322D03*
X0061319Y0102322D03*
X0061319Y0112637D03*
X0068799Y0112637D03*
G36*
G01*
X0051093Y0067834D02*
X0052451Y0067834D01*
G75*
G02*
X0053032Y0067253I0000000J-000581D01*
G01*
X0053032Y0066092D01*
G75*
G02*
X0052451Y0065511I-000581J0000000D01*
G01*
X0051093Y0065511D01*
G75*
G02*
X0050512Y0066092I0000000J0000581D01*
G01*
X0050512Y0067253D01*
G75*
G02*
X0051093Y0067834I0000581J0000000D01*
G01*
G37*
G36*
G01*
X0051093Y0064015D02*
X0052451Y0064015D01*
G75*
G02*
X0053032Y0063435I0000000J-000581D01*
G01*
X0053032Y0062273D01*
G75*
G02*
X0052451Y0061692I-000581J0000000D01*
G01*
X0051093Y0061692D01*
G75*
G02*
X0050512Y0062273I0000000J0000581D01*
G01*
X0050512Y0063435D01*
G75*
G02*
X0051093Y0064015I0000581J0000000D01*
G01*
G37*
G36*
G01*
X0055197Y0080423D02*
X0055197Y0081781D01*
G75*
G02*
X0055778Y0082362I0000581J0000000D01*
G01*
X0056939Y0082362D01*
G75*
G02*
X0057520Y0081781I0000000J-000581D01*
G01*
X0057520Y0080423D01*
G75*
G02*
X0056939Y0079842I-000581J0000000D01*
G01*
X0055778Y0079842D01*
G75*
G02*
X0055197Y0080423I0000000J0000581D01*
G01*
G37*
G36*
G01*
X0059016Y0080423D02*
X0059016Y0081781D01*
G75*
G02*
X0059596Y0082362I0000581J0000000D01*
G01*
X0060758Y0082362D01*
G75*
G02*
X0061339Y0081781I0000000J-000581D01*
G01*
X0061339Y0080423D01*
G75*
G02*
X0060758Y0079842I-000581J0000000D01*
G01*
X0059596Y0079842D01*
G75*
G02*
X0059016Y0080423I0000000J0000581D01*
G01*
G37*
G36*
G01*
X0034764Y0089261D02*
X0034764Y0087903D01*
G75*
G02*
X0034183Y0087322I-000581J0000000D01*
G01*
X0033022Y0087322D01*
G75*
G02*
X0032441Y0087903I0000000J0000581D01*
G01*
X0032441Y0089261D01*
G75*
G02*
X0033022Y0089842I0000581J0000000D01*
G01*
X0034183Y0089842D01*
G75*
G02*
X0034764Y0089261I0000000J-000581D01*
G01*
G37*
G36*
G01*
X0030945Y0089261D02*
X0030945Y0087903D01*
G75*
G02*
X0030364Y0087322I-000581J0000000D01*
G01*
X0029203Y0087322D01*
G75*
G02*
X0028622Y0087903I0000000J0000581D01*
G01*
X0028622Y0089261D01*
G75*
G02*
X0029203Y0089842I0000581J0000000D01*
G01*
X0030364Y0089842D01*
G75*
G02*
X0030945Y0089261I0000000J-000581D01*
G01*
G37*
G36*
G01*
X0035719Y0046141D02*
X0034360Y0046141D01*
G75*
G02*
X0033780Y0046722I0000000J0000581D01*
G01*
X0033780Y0047883D01*
G75*
G02*
X0034360Y0048464I0000581J0000000D01*
G01*
X0035719Y0048464D01*
G75*
G02*
X0036299Y0047883I0000000J-000581D01*
G01*
X0036299Y0046722D01*
G75*
G02*
X0035719Y0046141I-000581J0000000D01*
G01*
G37*
G36*
G01*
X0035719Y0049960D02*
X0034360Y0049960D01*
G75*
G02*
X0033780Y0050541I0000000J0000581D01*
G01*
X0033780Y0051702D01*
G75*
G02*
X0034360Y0052283I0000581J0000000D01*
G01*
X0035719Y0052283D01*
G75*
G02*
X0036299Y0051702I0000000J-000581D01*
G01*
X0036299Y0050541D01*
G75*
G02*
X0035719Y0049960I-000581J0000000D01*
G01*
G37*
G36*
G01*
X0035719Y0038563D02*
X0034360Y0038563D01*
G75*
G02*
X0033780Y0039143I0000000J0000581D01*
G01*
X0033780Y0040305D01*
G75*
G02*
X0034360Y0040885I0000581J0000000D01*
G01*
X0035719Y0040885D01*
G75*
G02*
X0036299Y0040305I0000000J-000581D01*
G01*
X0036299Y0039143D01*
G75*
G02*
X0035719Y0038563I-000581J0000000D01*
G01*
G37*
G36*
G01*
X0035719Y0042381D02*
X0034360Y0042381D01*
G75*
G02*
X0033780Y0042962I0000000J0000581D01*
G01*
X0033780Y0044124D01*
G75*
G02*
X0034360Y0044704I0000581J0000000D01*
G01*
X0035719Y0044704D01*
G75*
G02*
X0036299Y0044124I0000000J-000581D01*
G01*
X0036299Y0042962D01*
G75*
G02*
X0035719Y0042381I-000581J0000000D01*
G01*
G37*
G36*
G01*
X0034764Y0093002D02*
X0034764Y0091643D01*
G75*
G02*
X0034183Y0091063I-000581J0000000D01*
G01*
X0033022Y0091063D01*
G75*
G02*
X0032441Y0091643I0000000J0000581D01*
G01*
X0032441Y0093002D01*
G75*
G02*
X0033022Y0093582I0000581J0000000D01*
G01*
X0034183Y0093582D01*
G75*
G02*
X0034764Y0093002I0000000J-000581D01*
G01*
G37*
G36*
G01*
X0030945Y0093002D02*
X0030945Y0091643D01*
G75*
G02*
X0030364Y0091063I-000581J0000000D01*
G01*
X0029203Y0091063D01*
G75*
G02*
X0028622Y0091643I0000000J0000581D01*
G01*
X0028622Y0093002D01*
G75*
G02*
X0029203Y0093582I0000581J0000000D01*
G01*
X0030364Y0093582D01*
G75*
G02*
X0030945Y0093002I0000000J-000581D01*
G01*
G37*
G36*
G01*
X0044577Y0058641D02*
X0043219Y0058641D01*
G75*
G02*
X0042638Y0059222I0000000J0000581D01*
G01*
X0042638Y0060383D01*
G75*
G02*
X0043219Y0060964I0000581J0000000D01*
G01*
X0044577Y0060964D01*
G75*
G02*
X0045157Y0060383I0000000J-000581D01*
G01*
X0045157Y0059222D01*
G75*
G02*
X0044577Y0058641I-000581J0000000D01*
G01*
G37*
G36*
G01*
X0044577Y0062460D02*
X0043219Y0062460D01*
G75*
G02*
X0042638Y0063041I0000000J0000581D01*
G01*
X0042638Y0064202D01*
G75*
G02*
X0043219Y0064783I0000581J0000000D01*
G01*
X0044577Y0064783D01*
G75*
G02*
X0045157Y0064202I0000000J-000581D01*
G01*
X0045157Y0063041D01*
G75*
G02*
X0044577Y0062460I-000581J0000000D01*
G01*
G37*
G36*
G01*
X0034764Y0096742D02*
X0034764Y0095383D01*
G75*
G02*
X0034183Y0094803I-000581J0000000D01*
G01*
X0033022Y0094803D01*
G75*
G02*
X0032441Y0095383I0000000J0000581D01*
G01*
X0032441Y0096742D01*
G75*
G02*
X0033022Y0097322I0000581J0000000D01*
G01*
X0034183Y0097322D01*
G75*
G02*
X0034764Y0096742I0000000J-000581D01*
G01*
G37*
G36*
G01*
X0030945Y0096742D02*
X0030945Y0095383D01*
G75*
G02*
X0030364Y0094803I-000581J0000000D01*
G01*
X0029203Y0094803D01*
G75*
G02*
X0028622Y0095383I0000000J0000581D01*
G01*
X0028622Y0096742D01*
G75*
G02*
X0029203Y0097322I0000581J0000000D01*
G01*
X0030364Y0097322D01*
G75*
G02*
X0030945Y0096742I0000000J-000581D01*
G01*
G37*
G36*
G01*
X0026102Y0096742D02*
X0026102Y0095383D01*
G75*
G02*
X0025522Y0094803I-000581J0000000D01*
G01*
X0024360Y0094803D01*
G75*
G02*
X0023780Y0095383I0000000J0000581D01*
G01*
X0023780Y0096742D01*
G75*
G02*
X0024360Y0097322I0000581J0000000D01*
G01*
X0025522Y0097322D01*
G75*
G02*
X0026102Y0096742I0000000J-000581D01*
G01*
G37*
G36*
G01*
X0022283Y0096742D02*
X0022283Y0095383D01*
G75*
G02*
X0021703Y0094803I-000581J0000000D01*
G01*
X0020541Y0094803D01*
G75*
G02*
X0019961Y0095383I0000000J0000581D01*
G01*
X0019961Y0096742D01*
G75*
G02*
X0020541Y0097322I0000581J0000000D01*
G01*
X0021703Y0097322D01*
G75*
G02*
X0022283Y0096742I0000000J-000581D01*
G01*
G37*
G36*
G01*
X0031909Y0111555D02*
X0033248Y0111555D01*
G75*
G02*
X0033799Y0111004I0000000J-000551D01*
G01*
X0033799Y0109901D01*
G75*
G02*
X0033248Y0109350I-000551J0000000D01*
G01*
X0031909Y0109350D01*
G75*
G02*
X0031358Y0109901I0000000J0000551D01*
G01*
X0031358Y0111004D01*
G75*
G02*
X0031909Y0111555I0000551J0000000D01*
G01*
G37*
G36*
G01*
X0031909Y0107775D02*
X0033248Y0107775D01*
G75*
G02*
X0033799Y0107224I0000000J-000551D01*
G01*
X0033799Y0106122D01*
G75*
G02*
X0033248Y0105571I-000551J0000000D01*
G01*
X0031909Y0105571D01*
G75*
G02*
X0031358Y0106122I0000000J0000551D01*
G01*
X0031358Y0107224D01*
G75*
G02*
X0031909Y0107775I0000551J0000000D01*
G01*
G37*
G36*
G01*
X0058169Y0056614D02*
X0056713Y0056614D01*
G75*
G02*
X0056181Y0057145I0000000J0000531D01*
G01*
X0056181Y0058208D01*
G75*
G02*
X0056713Y0058740I0000531J0000000D01*
G01*
X0058169Y0058740D01*
G75*
G02*
X0058701Y0058208I0000000J-000531D01*
G01*
X0058701Y0057145D01*
G75*
G02*
X0058169Y0056614I-000531J0000000D01*
G01*
G37*
G36*
G01*
X0058169Y0060629D02*
X0056713Y0060629D01*
G75*
G02*
X0056181Y0061161I0000000J0000531D01*
G01*
X0056181Y0062224D01*
G75*
G02*
X0056713Y0062755I0000531J0000000D01*
G01*
X0058169Y0062755D01*
G75*
G02*
X0058701Y0062224I0000000J-000531D01*
G01*
X0058701Y0061161D01*
G75*
G02*
X0058169Y0060629I-000531J0000000D01*
G01*
G37*
G36*
G01*
X0043636Y0117342D02*
X0043636Y0118799D01*
G75*
G02*
X0044168Y0119330I0000531J0000000D01*
G01*
X0045231Y0119330D01*
G75*
G02*
X0045762Y0118799I0000000J-000531D01*
G01*
X0045762Y0117342D01*
G75*
G02*
X0045231Y0116811I-000531J0000000D01*
G01*
X0044168Y0116811D01*
G75*
G02*
X0043636Y0117342I0000000J0000531D01*
G01*
G37*
G36*
G01*
X0047652Y0117342D02*
X0047652Y0118799D01*
G75*
G02*
X0048184Y0119330I0000531J0000000D01*
G01*
X0049247Y0119330D01*
G75*
G02*
X0049778Y0118799I0000000J-000531D01*
G01*
X0049778Y0117342D01*
G75*
G02*
X0049247Y0116811I-000531J0000000D01*
G01*
X0048184Y0116811D01*
G75*
G02*
X0047652Y0117342I0000000J0000531D01*
G01*
G37*
G36*
G01*
X0019685Y0116732D02*
X0020866Y0116732D01*
G75*
G02*
X0021457Y0116141I0000000J-000591D01*
G01*
X0021457Y0111515D01*
G75*
G02*
X0020866Y0110925I-000591J0000000D01*
G01*
X0019685Y0110925D01*
G75*
G02*
X0019095Y0111515I0000000J0000591D01*
G01*
X0019095Y0116141D01*
G75*
G02*
X0019685Y0116732I0000591J0000000D01*
G01*
G37*
G36*
G01*
X0027165Y0116732D02*
X0028346Y0116732D01*
G75*
G02*
X0028937Y0116141I0000000J-000591D01*
G01*
X0028937Y0111515D01*
G75*
G02*
X0028346Y0110925I-000591J0000000D01*
G01*
X0027165Y0110925D01*
G75*
G02*
X0026575Y0111515I0000000J0000591D01*
G01*
X0026575Y0116141D01*
G75*
G02*
X0027165Y0116732I0000591J0000000D01*
G01*
G37*
G36*
G01*
X0023425Y0109350D02*
X0024606Y0109350D01*
G75*
G02*
X0025197Y0108759I0000000J-000591D01*
G01*
X0025197Y0104133D01*
G75*
G02*
X0024606Y0103543I-000591J0000000D01*
G01*
X0023425Y0103543D01*
G75*
G02*
X0022835Y0104133I0000000J0000591D01*
G01*
X0022835Y0108759D01*
G75*
G02*
X0023425Y0109350I0000591J0000000D01*
G01*
G37*
G36*
G01*
X0057617Y0118779D02*
X0057617Y0117440D01*
G75*
G02*
X0057065Y0116889I-000551J0000000D01*
G01*
X0055963Y0116889D01*
G75*
G02*
X0055412Y0117440I0000000J0000551D01*
G01*
X0055412Y0118779D01*
G75*
G02*
X0055963Y0119330I0000551J0000000D01*
G01*
X0057065Y0119330D01*
G75*
G02*
X0057617Y0118779I0000000J-000551D01*
G01*
G37*
G36*
G01*
X0053837Y0118779D02*
X0053837Y0117440D01*
G75*
G02*
X0053286Y0116889I-000551J0000000D01*
G01*
X0052184Y0116889D01*
G75*
G02*
X0051632Y0117440I0000000J0000551D01*
G01*
X0051632Y0118779D01*
G75*
G02*
X0052184Y0119330I0000551J0000000D01*
G01*
X0053286Y0119330D01*
G75*
G02*
X0053837Y0118779I0000000J-000551D01*
G01*
G37*
G36*
G01*
X0054546Y0087992D02*
X0053365Y0087992D01*
G75*
G02*
X0052774Y0088582I0000000J0000591D01*
G01*
X0052774Y0094291D01*
G75*
G02*
X0053365Y0094881I0000591J0000000D01*
G01*
X0054546Y0094881D01*
G75*
G02*
X0055136Y0094291I0000000J-000591D01*
G01*
X0055136Y0088582D01*
G75*
G02*
X0054546Y0087992I-000591J0000000D01*
G01*
G37*
G36*
G01*
X0049546Y0087992D02*
X0048365Y0087992D01*
G75*
G02*
X0047774Y0088582I0000000J0000591D01*
G01*
X0047774Y0094291D01*
G75*
G02*
X0048365Y0094881I0000591J0000000D01*
G01*
X0049546Y0094881D01*
G75*
G02*
X0050136Y0094291I0000000J-000591D01*
G01*
X0050136Y0088582D01*
G75*
G02*
X0049546Y0087992I-000591J0000000D01*
G01*
G37*
G36*
G01*
X0044546Y0087992D02*
X0043365Y0087992D01*
G75*
G02*
X0042774Y0088582I0000000J0000591D01*
G01*
X0042774Y0094291D01*
G75*
G02*
X0043365Y0094881I0000591J0000000D01*
G01*
X0044546Y0094881D01*
G75*
G02*
X0045136Y0094291I0000000J-000591D01*
G01*
X0045136Y0088582D01*
G75*
G02*
X0044546Y0087992I-000591J0000000D01*
G01*
G37*
G36*
G01*
X0039546Y0087992D02*
X0038365Y0087992D01*
G75*
G02*
X0037774Y0088582I0000000J0000591D01*
G01*
X0037774Y0094291D01*
G75*
G02*
X0038365Y0094881I0000591J0000000D01*
G01*
X0039546Y0094881D01*
G75*
G02*
X0040136Y0094291I0000000J-000591D01*
G01*
X0040136Y0088582D01*
G75*
G02*
X0039546Y0087992I-000591J0000000D01*
G01*
G37*
G36*
G01*
X0039546Y0108267D02*
X0038365Y0108267D01*
G75*
G02*
X0037774Y0108858I0000000J0000591D01*
G01*
X0037774Y0114566D01*
G75*
G02*
X0038365Y0115157I0000591J0000000D01*
G01*
X0039546Y0115157D01*
G75*
G02*
X0040136Y0114566I0000000J-000591D01*
G01*
X0040136Y0108858D01*
G75*
G02*
X0039546Y0108267I-000591J0000000D01*
G01*
G37*
G36*
G01*
X0044546Y0108267D02*
X0043365Y0108267D01*
G75*
G02*
X0042774Y0108858I0000000J0000591D01*
G01*
X0042774Y0114566D01*
G75*
G02*
X0043365Y0115157I0000591J0000000D01*
G01*
X0044546Y0115157D01*
G75*
G02*
X0045136Y0114566I0000000J-000591D01*
G01*
X0045136Y0108858D01*
G75*
G02*
X0044546Y0108267I-000591J0000000D01*
G01*
G37*
G36*
G01*
X0049546Y0108267D02*
X0048365Y0108267D01*
G75*
G02*
X0047774Y0108858I0000000J0000591D01*
G01*
X0047774Y0114566D01*
G75*
G02*
X0048365Y0115157I0000591J0000000D01*
G01*
X0049546Y0115157D01*
G75*
G02*
X0050136Y0114566I0000000J-000591D01*
G01*
X0050136Y0108858D01*
G75*
G02*
X0049546Y0108267I-000591J0000000D01*
G01*
G37*
G36*
G01*
X0054546Y0108267D02*
X0053365Y0108267D01*
G75*
G02*
X0052774Y0108858I0000000J0000591D01*
G01*
X0052774Y0114566D01*
G75*
G02*
X0053365Y0115157I0000591J0000000D01*
G01*
X0054546Y0115157D01*
G75*
G02*
X0055136Y0114566I0000000J-000591D01*
G01*
X0055136Y0108858D01*
G75*
G02*
X0054546Y0108267I-000591J0000000D01*
G01*
G37*
X0533465Y0000787D02*
G01*
G75*
D131*
X0546949Y0054232D02*
D03*
X0574410Y0032283D02*
D03*
X0591733Y0032283D02*
D03*
X0582973Y0032283D02*
D03*
X0553150Y0034921D02*
D03*
X0569784Y0032283D02*
D03*
X0603166Y0034957D02*
D03*
M02*
