M48
INCH,TZ
T01C0.009850
T02C0.015700
T03C0.024600
T04C0.031750
T05C0.039200
T06C0.043300
T07C0.068900
T08C0.112200
T09C0.126000
%
T01
X2267Y18726
X5653Y19041
X8940Y19868
X10239Y19848
X12385Y20518
X13192Y29317
X13310Y21541
X14570Y19002
X14747Y30183
X14944Y31148
X19550Y24573
X19826Y25518
X19846Y30065
X21755Y22860
X21952Y13785
X22326Y17073
X22365Y19002
X23113Y21640
X23251Y24671
X26952Y19435
X27306Y19002
X28822Y18628
X42090Y7978
X42109Y8254
X42286Y29118
X42424Y29356
X45416Y24986
X48074Y21856
X49078Y8707
X51637Y30282
X54491Y10754
X54757Y8362
X55377Y6431
X57040Y6167
X57503Y6167
X58359Y6167
X59235Y6167
X60379Y6435
X2424Y4691
X2818Y4691
X3212Y4691
X3605Y4691
X4532Y15160
X4932Y15160
X5830Y15160
X6224Y15160
X6617Y15160
X8930Y6650
X9324Y6650
X9718Y6650
X10111Y6650
X11038Y17119
X11438Y17119
X12336Y17119
X12729Y17119
X13123Y17119
X28182Y26935
X28182Y26463
X28182Y25990
X28182Y25518
X29363Y20341
X29363Y20026
X29363Y19711
X29363Y19396
X29363Y19081
X29363Y18766
X29363Y18451
X29363Y18136
X29363Y17821
X29363Y17506
X29363Y17191
X29363Y16876
X29363Y16561
X29363Y16246
X29363Y15616
X29363Y15065
X29363Y14750
X29363Y14435
X29363Y14120
X29363Y13805
X29363Y13490
X29363Y22033
X29363Y15931
X29521Y10656
X29836Y10656
X30151Y10656
X30466Y10656
X30781Y10656
X31096Y10656
X31411Y10656
X31725Y10656
X31962Y24593
X32040Y10656
X32355Y10656
X32434Y24593
X32670Y10656
X32907Y24593
X32985Y10656
X33379Y24593
X33851Y24593
X33861Y28455
X33861Y28061
X33930Y10656
X34245Y10656
X34324Y24593
X34560Y10656
X34796Y24593
X34875Y10656
X35190Y10656
X35269Y24593
X35505Y10656
X35741Y24593
X35820Y10656
X36135Y10656
X36214Y24593
X36450Y10656
X36686Y24593
X37159Y24593
X37631Y24593
X38103Y24593
X38143Y10656
X38576Y24593
X39048Y24593
X39206Y10656
X39521Y24593
X39600Y10656
X39993Y24593
X40466Y24593
X40938Y24593
X41411Y24593
X42355Y24593
X42513Y23608
X42513Y23215
X42513Y19002
X42513Y18608
X42513Y18215
X42513Y17821
X42513Y17427
X42513Y17034
X42513Y16640
X42513Y16246
X42513Y15222
X42513Y14908
X42513Y13057
X42513Y12506
X42513Y10656
X46529Y10557
X46922Y10557
X49068Y22624
X49068Y22152
X49068Y21679
X49068Y21207
X54747Y24144
X54747Y23750
X61706Y13392
X61706Y9967
X62060Y9967
X62080Y13392
X62454Y13392
X45163Y14537
X45799Y14809
X46184Y14595
X46613Y15236
X46949Y15276
X47539Y15079
X47795Y14803
X48326Y14685
X48622Y15079
X48130Y15276
X49311Y15276
X50886Y15276
X50866Y14803
X51158Y13692
X51133Y12645
X50845Y12323
X50770Y11270
X50886Y10158
X50886Y9370
X49882Y9843
X49876Y10488
X48630Y10428
X48720Y9961
X48240Y9793
X48523Y9370
X47355Y9792
X47183Y9096
X46791Y9055
X46397Y9055
X46491Y9737
X46002Y10047
X45685Y9660
X45255Y10057
X45634Y10446
X46358Y10521
X46791Y10473
X45806Y11789
X45177Y11789
X45163Y12708
X45163Y13563
X45805Y13340
X46830Y12756
X48277Y12363
X48326Y13110
X48836Y12677
X49834Y12088
X51791Y11142
X51858Y10210
X52263Y10158
X52067Y9370
X51476Y9764
X52616Y12238
X53022Y12196
X52606Y13025
X52203Y13290
X52280Y14727
X51645Y14318
X51412Y15158
X62469Y8470
X62216Y8622
X61929Y8464
X61574Y8464
X61908Y9466
X62013Y9740
X61800Y9983
X62313Y9433
X61573Y10912
X61574Y11889
X61948Y11889
X62322Y11889
X33740Y25807
X33713Y24161
X33691Y24990
X32969Y27514
X32960Y26757
X32923Y25955
X32886Y24149
X32854Y25649
X32538Y24177
X32486Y25999
X32451Y27386
X32323Y25689
X32146Y27520
X32090Y23986
X32002Y26779
X31998Y25886
X31848Y24458
X31802Y25507
X31437Y25492
X31189Y25091
X31057Y25897
X31004Y25571
X30994Y26289
X30974Y27372
X30924Y27000
X30884Y26650
X30663Y25992
X30354Y27520
X30285Y25945
X29971Y25521
X29852Y25807
X29754Y26311
X29732Y24848
X29689Y27360
X29666Y25551
X29597Y24177
X29301Y24236
X29118Y25506
X29106Y24007
X28779Y26880
X28303Y26888
X28061Y27057
X28051Y26644
X28035Y27539
X33730Y26559
X33730Y26953
X28051Y24016
X28051Y24488
X28051Y24960
X28051Y25433
X54488Y21142
X54488Y23110
X54449Y19803
X53622Y21220
X53465Y22283
X53347Y23110
X53110Y19803
X52717Y20709
X52677Y21693
X52126Y22323
X52087Y23110
X51693Y19803
X51457Y20512
X51378Y23110
X51292Y21203
X50866Y22756
X50355Y21890
X50118Y22835
X49961Y19803
X49646Y23110
X49328Y20628
X49055Y21496
X49055Y22835
X54616Y22248
X54616Y22642
X48937Y19705
X48937Y20177
X48937Y20649
X48937Y21122
X10532Y15680
X13462Y15605
X11792Y15561
X8426Y15561
X8616Y15328
X9896Y15272
X10207Y15272
X13230Y15118
X11639Y14890
X12337Y14798
X9709Y14735
X8776Y14598
X8504Y14306
X13544Y14203
X12907Y14157
X12530Y14115
X11223Y14040
X9986Y14036
X8465Y13760
X10551Y13679
X9262Y13554
X11211Y13494
X12258Y13485
X10501Y13376
X8426Y13278
X13549Y12481
X9233Y12313
X11038Y12023
X11977Y11793
X10477Y11792
X11270Y11791
X11513Y11585
X8327Y11565
X11172Y11507
X12549Y11200
X10414Y10992
X12498Y10903
X8357Y10778
X11851Y10762
X12504Y10593
X9071Y10575
X10453Y10502
X11453Y10443
X12128Y10290
X9154Y10286
X9887Y9985
X12853Y9967
X13154Y9959
X8347Y9587
X12985Y9380
X13570Y9355
X12686Y9346
X13351Y9089
X11709Y8951
X10862Y8905
X10349Y8835
X9449Y8835
X9148Y8835
X8847Y8835
X8546Y8835
X9941Y8831
X11477Y8455
X11260Y8199
X8305Y6124
X10054Y5907
X13307Y5867
X12894Y5719
X9961Y5620
X12313Y5581
X12038Y5581
X11762Y5581
X12874Y5404
X8298Y5384
X12313Y5276
X12038Y5276
X13288Y5079
X12993Y15617
X12599Y15617
X12205Y15617
X11307Y15617
X10907Y15617
X9981Y5148
X9587Y5148
X9193Y5148
X8800Y5148
X42224Y23091
X41748Y23060
X41516Y22870
X41280Y23091
X41043Y22890
X40807Y23091
X40571Y22890
X40335Y23091
X40098Y22890
X39862Y23091
X39626Y22890
X39390Y23091
X39154Y22890
X38917Y23091
X38681Y22890
X38445Y23091
X38209Y22890
X37972Y23091
X37736Y22890
X37500Y23091
X37264Y22890
X37028Y23091
X36791Y22890
X36555Y23091
X36319Y22890
X36083Y23091
X35846Y22890
X35610Y23091
X35374Y22890
X35138Y23091
X34902Y22890
X34665Y23091
X34429Y22890
X34193Y23091
X33957Y22890
X33720Y23091
X33484Y22890
X33248Y23091
X33012Y22890
X32776Y23091
X32539Y22890
X32303Y23091
X32067Y22890
X31831Y23091
X31516Y22933
X31523Y22398
X31950Y22204
X32401Y22194
X32843Y22187
X33316Y22189
X33821Y21142
X34131Y21142
X34378Y21615
X34976Y21412
X35272Y21403
X35115Y21132
X34998Y20450
X35253Y20182
X35350Y19641
X34911Y19641
X34451Y19761
X34451Y19429
X34451Y19134
X34457Y18843
X34127Y18159
X33582Y18163
X33720Y17579
X34350Y17658
X34420Y16826
X34435Y16440
X34783Y16634
X35017Y16834
X35274Y16401
X35967Y16100
X36565Y16083
X36912Y16379
X37687Y16204
X37669Y16759
X37679Y17306
X38387Y17179
X38342Y16380
X38368Y15615
X38390Y14805
X37687Y14765
X37687Y15050
X37687Y15335
X37687Y14464
X36899Y14148
X36912Y13863
X36944Y13565
X36894Y13083
X36490Y13032
X35860Y12554
X35483Y12566
X34547Y12422
X34222Y13022
X34014Y12819
X34032Y13346
X33674Y13393
X34225Y13577
X34431Y14720
X34654Y14949
X34700Y15632
X34991Y15643
X34504Y15851
X33835Y15851
X32969Y16040
X32775Y16254
X32571Y16458
X32369Y16660
X32372Y15847
X32819Y15382
X32832Y14681
X32456Y14779
X32579Y14311
X32781Y13774
X32541Y13548
X32347Y13150
X32539Y12894
X32640Y12511
X32680Y12205
X32382Y12303
X31878Y12505
X31822Y12806
X31878Y13368
X31731Y13613
X31988Y13996
X32006Y14487
X30778Y14879
X30468Y15193
X30650Y15414
X30685Y15934
X29232Y16004
X29232Y15689
X29232Y15374
X29232Y15059
X29232Y14744
X29232Y14429
X29232Y14115
X29371Y13837
X29232Y13563
X29232Y13248
X29232Y12933
X29232Y12618
X29232Y12303
X29232Y11989
X29589Y11901
X29372Y11657
X29681Y10955
X29685Y10020
X30058Y9976
X30060Y10261
X30433Y10020
X30335Y9154
X30650Y9154
X30965Y9154
X31280Y9154
X31594Y9154
X31909Y9154
X32224Y9154
X32539Y9154
X32854Y9154
X33445Y9351
X33799Y9154
X34114Y9154
X34429Y9154
X34744Y9154
X35059Y9154
X35374Y9154
X35689Y9154
X36004Y9154
X36319Y9154
X36831Y9193
X36737Y9848
X37135Y9884
X37480Y9839
X37759Y10141
X37701Y9386
X38012Y9154
X39075Y9154
X39469Y9154
X39830Y9178
X39822Y9641
X40052Y10086
X40133Y10959
X40573Y10736
X39387Y10424
X38924Y10105
X38967Y10956
X38524Y11004
X38039Y11432
X38031Y11717
X37963Y12077
X37960Y12373
X38690Y12274
X38681Y12658
X38690Y12983
X38351Y13311
X38690Y13691
X38674Y14043
X38694Y14338
X38377Y14020
X39372Y13592
X39375Y13148
X40551Y13292
X40531Y13813
X40532Y14202
X39707Y14667
X39407Y14628
X39384Y15081
X39384Y15368
X39384Y15655
X39384Y16071
X39384Y16357
X39366Y16781
X39366Y17089
X39366Y17378
X39142Y18118
X38862Y18213
X38550Y18608
X38848Y18928
X38848Y19494
X38855Y19780
X38764Y20441
X38967Y21186
X38799Y21418
X39099Y21453
X39724Y21617
X40020Y21617
X40646Y21412
X40932Y21412
X40768Y21129
X40664Y20453
X40823Y20184
X41003Y19607
X40527Y19607
X40041Y19761
X40041Y19429
X40041Y19134
X40048Y18843
X40811Y18621
X40807Y18244
X41610Y18236
X41583Y18570
X41878Y18138
X42357Y18095
X42382Y17500
X42382Y17107
X42382Y16713
X42382Y16319
X42382Y15926
X42382Y15532
X42382Y15138
X42382Y14744
X42343Y14115
X42382Y13721
X42382Y13406
X42382Y13032
X42254Y12549
X42343Y12185
X42382Y11555
X42098Y11445
X42382Y11004
X42361Y9842
X42382Y9154
X41358Y12422
X41232Y12717
X40363Y12232
X38371Y11940
X37494Y11492
X37362Y11103
X37024Y11174
X36601Y11496
X36161Y11595
X35420Y11517
X34892Y10581
X34752Y10302
X34681Y9995
X34419Y10685
X33588Y10656
X33396Y10331
X32652Y10677
X32726Y11525
X32432Y11525
X32141Y11525
X30955Y11467
X30925Y11004
X31200Y10473
X31226Y9569
X32336Y9442
X30020Y9154
X29705Y9154
X29390Y9154
X30584Y12058
X30740Y12297
X30512Y12589
X30295Y13016
X30736Y13014
X30834Y13698
X30318Y13987
X30042Y13433
X30031Y14642
X29232Y16319
X29232Y16634
X29232Y16949
X29232Y17264
X29232Y17579
X29232Y17894
X29232Y18209
X29232Y18524
X29232Y18839
X29751Y19453
X29311Y20059
X29232Y20532
X29803Y21130
X29803Y21449
X29803Y21767
X29803Y22085
X29803Y22404
X30167Y22730
X29449Y22773
X31045Y21942
X30912Y21363
X31476Y20453
X31709Y19749
X31695Y19429
X31700Y19141
X31701Y18843
X32488Y18621
X32497Y18208
X33007Y18593
X33297Y18809
X33297Y19382
X33260Y19768
X32656Y19634
X32156Y19641
X32496Y20187
X32375Y20853
X32692Y20853
X33038Y20853
X32028Y20864
X33839Y20453
X36055Y19768
X36053Y19369
X36053Y18930
X35971Y18546
X35244Y18568
X35295Y18286
X36437Y18154
X36761Y18146
X36783Y17654
X37193Y17934
X37264Y18763
X37241Y19134
X37254Y19429
X37264Y19929
X37559Y19666
X38228Y19621
X38028Y20163
X38099Y21039
X37868Y21619
X37158Y21412
X36866Y21412
X37008Y21122
X36885Y20453
X36239Y21573
X35911Y21624
X37906Y18615
X38105Y18209
X39718Y18159
X40252Y17540
X40252Y16779
X40252Y16018
X40251Y15256
X36568Y15309
X36772Y14984
X36610Y14096
X37689Y12996
X36890Y10373
X36446Y10469
X36353Y10739
X36150Y10376
X33644Y11718
X33586Y12001
X32013Y17534
X31634Y17185
X30547Y17330
X30596Y18059
X30908Y18027
X31371Y18159
X29836Y17852
X36158Y16797
X41644Y19341
X41606Y19806
X41888Y20128
X42379Y20167
X41781Y20719
X42047Y21031
X42382Y21713
X42382Y22107
X42362Y22692
X41791Y22500
X41594Y21617
X42254Y18809
X4026Y13721
X6956Y13646
X5286Y13602
X1920Y13602
X2110Y13369
X3390Y13313
X3701Y13313
X6724Y13159
X5133Y12931
X5831Y12839
X3203Y12776
X2270Y12639
X1998Y12347
X7038Y12244
X6401Y12198
X6024Y12156
X4717Y12081
X3480Y12077
X1959Y11801
X4045Y11720
X2756Y11595
X4705Y11535
X5752Y11526
X3995Y11417
X1920Y11319
X7043Y10522
X2727Y10354
X4532Y10064
X5471Y9834
X3971Y9833
X4764Y9832
X5007Y9626
X1821Y9606
X4666Y9548
X6043Y9241
X3908Y9033
X5992Y8944
X1851Y8819
X5345Y8803
X5998Y8634
X2565Y8616
X3947Y8543
X4947Y8484
X5622Y8331
X2648Y8327
X3381Y8026
X6347Y8008
X6648Y8000
X1841Y7628
X6479Y7421
X7064Y7396
X6180Y7387
X6845Y7130
X5203Y6992
X4356Y6946
X3843Y6876
X2943Y6876
X2642Y6876
X2341Y6876
X2040Y6876
X3435Y6872
X4971Y6496
X4754Y6240
X1799Y4165
X3548Y3948
X6801Y3908
X6388Y3760
X3455Y3661
X5807Y3622
X5532Y3622
X5256Y3622
X6368Y3445
X1792Y3425
X5807Y3317
X5532Y3317
X6782Y3120
X6487Y13658
X6093Y13658
X5699Y13658
X4801Y13658
X4401Y13658
X3475Y3189
X3081Y3189
X2687Y3189
X2294Y3189
X55247Y4929
X56910Y4666
X57372Y4666
X58229Y4666
X59105Y4666
X60248Y4933
X54626Y6860
T02
X13153Y25616
X16184Y19219
X17523Y21325
X18704Y23845
X19373Y20026
X20712Y16108
X22680Y14593
X23350Y30203
X25771Y16915
X39570Y9967
X58586Y27506
T03
X47318Y6091G85X47318Y5658
X47318Y4346G85X47318Y4110
X50720Y6091G85X50720Y5658
X50720Y4346G85X50720Y4110
X47881Y5677
X50157Y5677
T04
X1123Y22880
X4188Y23030
X7680Y24095
X10712Y24763
X44747Y20331
X45060Y8953
X46560Y8953
X46676Y20331
X49498Y19753
X50862Y18389
X36287Y17796
X34709Y17796
X33287Y17796
T05
X45407Y10734
X45584Y16837
X47867Y10734
X49560Y10734
X50308Y10734
X50328Y16837
X52277Y16837
X52828Y10734
X53005Y16837
X53035Y19110
X54523Y19110
X45452Y15335
X50197Y15335
X50177Y9232
X49429Y9232
X47736Y9232
X45275Y9232
X52697Y9232
X52874Y15335
X52145Y15335
X9311Y8294
X10493Y7506
X9311Y6719
X9233Y15420
X9633Y13420
X8833Y13420
X42067Y9469
X32988Y10440
X32988Y9640
X30988Y10040
X2805Y6335
X3987Y5547
X2805Y4760
X2727Y13461
X3127Y11461
X2327Y11461
T06
X3477Y28244
X3477Y26630
X5722Y28244
X5722Y26630
X7966Y28244
X7966Y26630
X10210Y28244
X10210Y26630
X12454Y28244
X12454Y26630
X14698Y28244
X14698Y26630
X16942Y28244
X16942Y26630
X19186Y28244
X19186Y26630
X21430Y28244
X21430Y26630
X23674Y28244
X23674Y26630
X25918Y28244
X25918Y26630
X37336Y28224
X37336Y26610
X39580Y28224
X39580Y26610
X41824Y28224
X41824Y26610
X44068Y28224
X44068Y26610
X46312Y28224
X46312Y26610
X48556Y28224
X48556Y26610
X50800Y28224
X50800Y26610
X53044Y28224
X53044Y26610
X55288Y28224
X55288Y26610
X57533Y28224
X57533Y26610
X59777Y28224
X59777Y26610
X13120Y8471
X13120Y7471
X13120Y6471
X6614Y6512
X6614Y5512
X6614Y4512
T07
X26125Y5656
X26125Y2506
X26912Y4081
X27700Y5656
X27700Y2506
X28487Y4081
X29275Y5656
X29275Y2506
X30062Y4081
X30850Y5656
X30850Y2506
X31637Y4081
X32424Y5656
X32424Y2506
X33212Y4081
X33999Y5656
X33999Y2506
X34787Y4081
X35574Y5656
X35574Y2506
X36361Y4081
X37149Y5656
X37149Y2506
T08
X23566Y3884
X39708Y3884
T09
X16342Y10636
X57562Y10636
M30
