G75*
G70*
%OFA0B0*%
%FSLAX25Y25*%
%IPPOS*%
%LPD*%
%AMOC8*
5,1,8,0,0,1.08239X$1,22.5*
%
%AMM117*
21,1,0.027170,0.052760,-0.000000,0.000000,0.000000*
21,1,0.017320,0.062600,-0.000000,0.000000,0.000000*
1,1,0.009840,0.008660,-0.026380*
1,1,0.009840,-0.008660,-0.026380*
1,1,0.009840,-0.008660,0.026380*
1,1,0.009840,0.008660,0.026380*
%
%AMM184*
21,1,0.092130,0.073230,0.000000,-0.000000,180.000000*
21,1,0.069290,0.096060,0.000000,-0.000000,180.000000*
1,1,0.022840,-0.034650,0.036610*
1,1,0.022840,0.034650,0.036610*
1,1,0.022840,0.034650,-0.036610*
1,1,0.022840,-0.034650,-0.036610*
%
%AMM185*
21,1,0.100000,0.111020,0.000000,-0.000000,270.000000*
21,1,0.075590,0.135430,0.000000,-0.000000,270.000000*
1,1,0.024410,-0.055510,-0.037800*
1,1,0.024410,-0.055510,0.037800*
1,1,0.024410,0.055510,0.037800*
1,1,0.024410,0.055510,-0.037800*
%
%AMM186*
21,1,0.080320,0.083460,0.000000,-0.000000,270.000000*
21,1,0.059840,0.103940,0.000000,-0.000000,270.000000*
1,1,0.020470,-0.041730,-0.029920*
1,1,0.020470,-0.041730,0.029920*
1,1,0.020470,0.041730,0.029920*
1,1,0.020470,0.041730,-0.029920*
%
%AMM187*
21,1,0.084250,0.053540,0.000000,-0.000000,90.000000*
21,1,0.065350,0.072440,0.000000,-0.000000,90.000000*
1,1,0.018900,0.026770,0.032680*
1,1,0.018900,0.026770,-0.032680*
1,1,0.018900,-0.026770,-0.032680*
1,1,0.018900,-0.026770,0.032680*
%
%AMM188*
21,1,0.040950,0.030320,0.000000,-0.000000,0.000000*
21,1,0.028350,0.042910,0.000000,-0.000000,0.000000*
1,1,0.012600,0.014170,-0.015160*
1,1,0.012600,-0.014170,-0.015160*
1,1,0.012600,-0.014170,0.015160*
1,1,0.012600,0.014170,0.015160*
%
%AMM189*
21,1,0.027170,0.052760,0.000000,-0.000000,180.000000*
21,1,0.017320,0.062600,0.000000,-0.000000,180.000000*
1,1,0.009840,-0.008660,0.026380*
1,1,0.009840,0.008660,0.026380*
1,1,0.009840,0.008660,-0.026380*
1,1,0.009840,-0.008660,-0.026380*
%
%AMM190*
21,1,0.041340,0.026770,0.000000,-0.000000,270.000000*
21,1,0.029130,0.038980,0.000000,-0.000000,270.000000*
1,1,0.012210,-0.013390,-0.014570*
1,1,0.012210,-0.013390,0.014570*
1,1,0.012210,0.013390,0.014570*
1,1,0.012210,0.013390,-0.014570*
%
%AMM191*
21,1,0.076380,0.036220,0.000000,-0.000000,0.000000*
21,1,0.061810,0.050790,0.000000,-0.000000,0.000000*
1,1,0.014570,0.030910,-0.018110*
1,1,0.014570,-0.030910,-0.018110*
1,1,0.014570,-0.030910,0.018110*
1,1,0.014570,0.030910,0.018110*
%
%AMM192*
21,1,0.038980,0.026770,0.000000,-0.000000,270.000000*
21,1,0.026770,0.038980,0.000000,-0.000000,270.000000*
1,1,0.012210,-0.013390,-0.013390*
1,1,0.012210,-0.013390,0.013390*
1,1,0.012210,0.013390,0.013390*
1,1,0.012210,0.013390,-0.013390*
%
%AMM193*
21,1,0.021260,0.016540,0.000000,-0.000000,180.000000*
21,1,0.012600,0.025200,0.000000,-0.000000,180.000000*
1,1,0.008660,-0.006300,0.008270*
1,1,0.008660,0.006300,0.008270*
1,1,0.008660,0.006300,-0.008270*
1,1,0.008660,-0.006300,-0.008270*
%
%AMM194*
21,1,0.029130,0.018900,0.000000,-0.000000,0.000000*
21,1,0.018900,0.029130,0.000000,-0.000000,0.000000*
1,1,0.010240,0.009450,-0.009450*
1,1,0.010240,-0.009450,-0.009450*
1,1,0.010240,-0.009450,0.009450*
1,1,0.010240,0.009450,0.009450*
%
%AMM195*
21,1,0.025200,0.019680,0.000000,-0.000000,270.000000*
21,1,0.015750,0.029130,0.000000,-0.000000,270.000000*
1,1,0.009450,-0.009840,-0.007870*
1,1,0.009450,-0.009840,0.007870*
1,1,0.009450,0.009840,0.007870*
1,1,0.009450,0.009840,-0.007870*
%
%AMM196*
21,1,0.025200,0.019680,0.000000,-0.000000,180.000000*
21,1,0.015750,0.029130,0.000000,-0.000000,180.000000*
1,1,0.009450,-0.007870,0.009840*
1,1,0.009450,0.007870,0.009840*
1,1,0.009450,0.007870,-0.009840*
1,1,0.009450,-0.007870,-0.009840*
%
%AMM278*
21,1,0.029530,0.026380,-0.000000,-0.000000,90.000000*
21,1,0.020470,0.035430,-0.000000,-0.000000,90.000000*
1,1,0.009060,0.013190,0.010240*
1,1,0.009060,0.013190,-0.010240*
1,1,0.009060,-0.013190,-0.010240*
1,1,0.009060,-0.013190,0.010240*
%
%AMM279*
21,1,0.021650,0.027950,-0.000000,-0.000000,90.000000*
21,1,0.014170,0.035430,-0.000000,-0.000000,90.000000*
1,1,0.007480,0.013980,0.007090*
1,1,0.007480,0.013980,-0.007090*
1,1,0.007480,-0.013980,-0.007090*
1,1,0.007480,-0.013980,0.007090*
%
%AMM280*
21,1,0.016540,0.028980,-0.000000,-0.000000,270.000000*
21,1,0.010080,0.035430,-0.000000,-0.000000,270.000000*
1,1,0.006460,-0.014490,-0.005040*
1,1,0.006460,-0.014490,0.005040*
1,1,0.006460,0.014490,0.005040*
1,1,0.006460,0.014490,-0.005040*
%
%AMM281*
21,1,0.027560,0.030710,-0.000000,-0.000000,0.000000*
21,1,0.018900,0.039370,-0.000000,-0.000000,0.000000*
1,1,0.008660,0.009450,-0.015350*
1,1,0.008660,-0.009450,-0.015350*
1,1,0.008660,-0.009450,0.015350*
1,1,0.008660,0.009450,0.015350*
%
%AMM282*
21,1,0.031500,0.018900,-0.000000,-0.000000,270.000000*
21,1,0.022840,0.027560,-0.000000,-0.000000,270.000000*
1,1,0.008660,-0.009450,-0.011420*
1,1,0.008660,-0.009450,0.011420*
1,1,0.008660,0.009450,0.011420*
1,1,0.008660,0.009450,-0.011420*
%
%AMM283*
21,1,0.035430,0.072440,-0.000000,-0.000000,270.000000*
21,1,0.025200,0.082680,-0.000000,-0.000000,270.000000*
1,1,0.010240,-0.036220,-0.012600*
1,1,0.010240,-0.036220,0.012600*
1,1,0.010240,0.036220,0.012600*
1,1,0.010240,0.036220,-0.012600*
%
%AMM284*
21,1,0.031500,0.018900,-0.000000,-0.000000,0.000000*
21,1,0.022840,0.027560,-0.000000,-0.000000,0.000000*
1,1,0.008660,0.011420,-0.009450*
1,1,0.008660,-0.011420,-0.009450*
1,1,0.008660,-0.011420,0.009450*
1,1,0.008660,0.011420,0.009450*
%
%AMM285*
21,1,0.027560,0.030710,-0.000000,-0.000000,90.000000*
21,1,0.018900,0.039370,-0.000000,-0.000000,90.000000*
1,1,0.008660,0.015350,0.009450*
1,1,0.008660,0.015350,-0.009450*
1,1,0.008660,-0.015350,-0.009450*
1,1,0.008660,-0.015350,0.009450*
%
%AMM286*
21,1,0.039370,0.030320,-0.000000,-0.000000,90.000000*
21,1,0.028350,0.041340,-0.000000,-0.000000,90.000000*
1,1,0.011020,0.015160,0.014170*
1,1,0.011020,0.015160,-0.014170*
1,1,0.011020,-0.015160,-0.014170*
1,1,0.011020,-0.015160,0.014170*
%
%AMM287*
21,1,0.047240,0.075980,-0.000000,-0.000000,180.000000*
21,1,0.034650,0.088580,-0.000000,-0.000000,180.000000*
1,1,0.012600,-0.017320,0.037990*
1,1,0.012600,0.017320,0.037990*
1,1,0.012600,0.017320,-0.037990*
1,1,0.012600,-0.017320,-0.037990*
%
%AMM288*
21,1,0.043310,0.035430,-0.000000,-0.000000,180.000000*
21,1,0.031500,0.047240,-0.000000,-0.000000,180.000000*
1,1,0.011810,-0.015750,0.017720*
1,1,0.011810,0.015750,0.017720*
1,1,0.011810,0.015750,-0.017720*
1,1,0.011810,-0.015750,-0.017720*
%
%AMM289*
21,1,0.031500,0.030710,-0.000000,-0.000000,180.000000*
21,1,0.022050,0.040160,-0.000000,-0.000000,180.000000*
1,1,0.009450,-0.011020,0.015350*
1,1,0.009450,0.011020,0.015350*
1,1,0.009450,0.011020,-0.015350*
1,1,0.009450,-0.011020,-0.015350*
%
%AMM290*
21,1,0.035430,0.072440,-0.000000,-0.000000,180.000000*
21,1,0.025200,0.082680,-0.000000,-0.000000,180.000000*
1,1,0.010240,-0.012600,0.036220*
1,1,0.010240,0.012600,0.036220*
1,1,0.010240,0.012600,-0.036220*
1,1,0.010240,-0.012600,-0.036220*
%
%AMM291*
21,1,0.141730,0.067720,-0.000000,-0.000000,180.000000*
21,1,0.120870,0.088580,-0.000000,-0.000000,180.000000*
1,1,0.020870,-0.060430,0.033860*
1,1,0.020870,0.060430,0.033860*
1,1,0.020870,0.060430,-0.033860*
1,1,0.020870,-0.060430,-0.033860*
%
%AMM292*
21,1,0.047240,0.075990,-0.000000,-0.000000,180.000000*
21,1,0.034650,0.088580,-0.000000,-0.000000,180.000000*
1,1,0.012600,-0.017320,0.037990*
1,1,0.012600,0.017320,0.037990*
1,1,0.012600,0.017320,-0.037990*
1,1,0.012600,-0.017320,-0.037990*
%
%AMM293*
21,1,0.090550,0.073230,-0.000000,-0.000000,270.000000*
21,1,0.069290,0.094490,-0.000000,-0.000000,270.000000*
1,1,0.021260,-0.036610,-0.034650*
1,1,0.021260,-0.036610,0.034650*
1,1,0.021260,0.036610,0.034650*
1,1,0.021260,0.036610,-0.034650*
%
%AMM95*
21,1,0.084250,0.045670,0.000000,0.000000,270.000000*
21,1,0.067320,0.062600,0.000000,0.000000,270.000000*
1,1,0.016930,-0.022840,-0.033660*
1,1,0.016930,-0.022840,0.033660*
1,1,0.016930,0.022840,0.033660*
1,1,0.016930,0.022840,-0.033660*
%
%AMM96*
21,1,0.064570,0.020470,0.000000,0.000000,270.000000*
21,1,0.053940,0.031100,0.000000,0.000000,270.000000*
1,1,0.010630,-0.010240,-0.026970*
1,1,0.010630,-0.010240,0.026970*
1,1,0.010630,0.010240,0.026970*
1,1,0.010630,0.010240,-0.026970*
%
%AMM97*
21,1,0.038980,0.026770,0.000000,0.000000,90.000000*
21,1,0.026770,0.038980,0.000000,0.000000,90.000000*
1,1,0.012210,0.013390,0.013390*
1,1,0.012210,0.013390,-0.013390*
1,1,0.012210,-0.013390,-0.013390*
1,1,0.012210,-0.013390,0.013390*
%
%AMM98*
21,1,0.033070,0.030710,0.000000,0.000000,270.000000*
21,1,0.022050,0.041730,0.000000,0.000000,270.000000*
1,1,0.011020,-0.015350,-0.011020*
1,1,0.011020,-0.015350,0.011020*
1,1,0.011020,0.015350,0.011020*
1,1,0.011020,0.015350,-0.011020*
%
%ADD10C,0.06000*%
%ADD11R,0.07874X0.05906*%
%ADD12R,0.07874X0.14961*%
%ADD13C,0.22047*%
%ADD132C,0.02913*%
%ADD133C,0.06457*%
%ADD14C,0.02362*%
%ADD149R,0.02559X0.01575*%
%ADD150R,0.01575X0.02559*%
%ADD151R,0.05512X0.01181*%
%ADD152R,0.03543X0.03150*%
%ADD154C,0.05118*%
%ADD156R,0.03150X0.03543*%
%ADD164C,0.03100*%
%ADD167C,0.03900*%
%ADD202O,0.05118X0.01260*%
%ADD203O,0.01260X0.05118*%
%ADD204O,0.04724X0.01575*%
%ADD205C,0.03494*%
%ADD208R,0.01772X0.01378*%
%ADD209R,0.01378X0.01772*%
%ADD214O,0.09055X0.02756*%
%ADD221C,0.03543*%
%ADD223C,0.04724*%
%ADD224C,0.04294*%
%ADD268M95*%
%ADD269M96*%
%ADD270M97*%
%ADD271M98*%
%ADD291M117*%
%ADD360M184*%
%ADD361M185*%
%ADD362M186*%
%ADD363M187*%
%ADD364M188*%
%ADD365M189*%
%ADD366M190*%
%ADD367M191*%
%ADD368M192*%
%ADD369M193*%
%ADD37C,0.05906*%
%ADD370M194*%
%ADD371M195*%
%ADD372M196*%
%ADD389R,0.08661X0.04724*%
%ADD390R,0.25197X0.22835*%
%ADD391R,0.07874X0.07500*%
%ADD392O,0.07874X0.07500*%
%ADD47R,0.10335X0.10335*%
%ADD48C,0.10335*%
%ADD487M278*%
%ADD488M279*%
%ADD489M280*%
%ADD49C,0.06693*%
%ADD490M281*%
%ADD491M282*%
%ADD492M283*%
%ADD493M284*%
%ADD494M285*%
%ADD495M286*%
%ADD496M287*%
%ADD497M288*%
%ADD498M289*%
%ADD499M290*%
%ADD50R,0.01181X0.04528*%
%ADD500M291*%
%ADD501M292*%
%ADD502M293*%
%ADD51O,0.03937X0.08268*%
%ADD52O,0.03937X0.06299*%
%ADD65R,0.05118X0.03937*%
%ADD70C,0.00472*%
%ADD71C,0.11220*%
%ADD72C,0.02559*%
X0000000Y0000000D02*
%LPD*%
G01*
D70*
X0604478Y0192225D02*
X0553297Y0192225D01*
X0553297Y0219784D01*
X0604478Y0219784D01*
X0604478Y0192225D01*
G36*
X0604478Y0192225D02*
G01*
X0553297Y0192225D01*
X0553297Y0219784D01*
X0604478Y0219784D01*
X0604478Y0192225D01*
G37*
D10*
X0464291Y0074508D03*
G36*
G01*
X0462500Y0076969D02*
X0462500Y0072048D01*
G75*
G02*
X0462106Y0071654I-000394J0000000D01*
G01*
X0458957Y0071654D01*
G75*
G02*
X0458563Y0072048I0000000J0000394D01*
G01*
X0458563Y0076969D01*
G75*
G02*
X0458957Y0077363I0000394J0000000D01*
G01*
X0462106Y0077363D01*
G75*
G02*
X0462500Y0076969I0000000J-000394D01*
G01*
G37*
G36*
G01*
X0455020Y0076969D02*
X0455020Y0072048D01*
G75*
G02*
X0454626Y0071654I-000394J0000000D01*
G01*
X0451476Y0071654D01*
G75*
G02*
X0451083Y0072048I0000000J0000394D01*
G01*
X0451083Y0076969D01*
G75*
G02*
X0451476Y0077363I0000394J0000000D01*
G01*
X0454626Y0077363D01*
G75*
G02*
X0455020Y0076969I0000000J-000394D01*
G01*
G37*
X0449291Y0074508D03*
G36*
G01*
X0560571Y0236122D02*
X0563642Y0236122D01*
G75*
G02*
X0563917Y0235847I0000000J-000276D01*
G01*
X0563917Y0233642D01*
G75*
G02*
X0563642Y0233367I-000276J0000000D01*
G01*
X0560571Y0233367D01*
G75*
G02*
X0560295Y0233642I0000000J0000276D01*
G01*
X0560295Y0235847D01*
G75*
G02*
X0560571Y0236122I0000276J0000000D01*
G01*
G37*
G36*
G01*
X0560571Y0229823D02*
X0563642Y0229823D01*
G75*
G02*
X0563917Y0229548I0000000J-000276D01*
G01*
X0563917Y0227343D01*
G75*
G02*
X0563642Y0227067I-000276J0000000D01*
G01*
X0560571Y0227067D01*
G75*
G02*
X0560295Y0227343I0000000J0000276D01*
G01*
X0560295Y0229548D01*
G75*
G02*
X0560571Y0229823I0000276J0000000D01*
G01*
G37*
D11*
X0223524Y0231693D03*
X0223524Y0222638D03*
X0223524Y0213583D03*
D12*
X0248327Y0222638D03*
D13*
X0162106Y0091339D03*
G36*
X0191112Y0200371D02*
G01*
X0196226Y0203323D01*
X0200163Y0196504D01*
X0195049Y0193551D01*
X0191112Y0200371D01*
G37*
G36*
X0183270Y0195843D02*
G01*
X0188384Y0198796D01*
X0192321Y0191977D01*
X0187207Y0189024D01*
X0183270Y0195843D01*
G37*
G36*
X0175428Y0191315D02*
G01*
X0180542Y0194268D01*
X0184479Y0187449D01*
X0179365Y0184496D01*
X0175428Y0191315D01*
G37*
G36*
X0191750Y0172099D02*
G01*
X0204706Y0179579D01*
X0208643Y0172760D01*
X0195687Y0165280D01*
X0191750Y0172099D01*
G37*
G36*
G01*
X0503642Y0055670D02*
X0503642Y0052599D01*
G75*
G02*
X0503366Y0052323I-000276J0000000D01*
G01*
X0501161Y0052323D01*
G75*
G02*
X0500886Y0052599I0000000J0000276D01*
G01*
X0500886Y0055670D01*
G75*
G02*
X0501161Y0055945I0000276J0000000D01*
G01*
X0503366Y0055945D01*
G75*
G02*
X0503642Y0055670I0000000J-000276D01*
G01*
G37*
G36*
G01*
X0497343Y0055670D02*
X0497343Y0052599D01*
G75*
G02*
X0497067Y0052323I-000276J0000000D01*
G01*
X0494862Y0052323D01*
G75*
G02*
X0494587Y0052599I0000000J0000276D01*
G01*
X0494587Y0055670D01*
G75*
G02*
X0494862Y0055945I0000276J0000000D01*
G01*
X0497067Y0055945D01*
G75*
G02*
X0497343Y0055670I0000000J-000276D01*
G01*
G37*
G36*
X0211274Y0126455D02*
G01*
X0207098Y0122279D01*
X0201530Y0127847D01*
X0205706Y0132023D01*
X0211274Y0126455D01*
G37*
G36*
X0217676Y0132858D02*
G01*
X0213501Y0128682D01*
X0207933Y0134250D01*
X0212109Y0138426D01*
X0217676Y0132858D01*
G37*
G36*
X0224079Y0139261D02*
G01*
X0219904Y0135085D01*
X0214336Y0140653D01*
X0218512Y0144829D01*
X0224079Y0139261D01*
G37*
G36*
X0203339Y0153598D02*
G01*
X0192761Y0143019D01*
X0187193Y0148587D01*
X0197772Y0159166D01*
X0203339Y0153598D01*
G37*
G36*
G01*
X0257421Y0180119D02*
X0260492Y0180119D01*
G75*
G02*
X0260768Y0179843I0000000J-000276D01*
G01*
X0260768Y0177638D01*
G75*
G02*
X0260492Y0177363I-000276J0000000D01*
G01*
X0257421Y0177363D01*
G75*
G02*
X0257146Y0177638I0000000J0000276D01*
G01*
X0257146Y0179843D01*
G75*
G02*
X0257421Y0180119I0000276J0000000D01*
G01*
G37*
G36*
G01*
X0257421Y0173819D02*
X0260492Y0173819D01*
G75*
G02*
X0260768Y0173544I0000000J-000276D01*
G01*
X0260768Y0171339D01*
G75*
G02*
X0260492Y0171063I-000276J0000000D01*
G01*
X0257421Y0171063D01*
G75*
G02*
X0257146Y0171339I0000000J0000276D01*
G01*
X0257146Y0173544D01*
G75*
G02*
X0257421Y0173819I0000276J0000000D01*
G01*
G37*
D14*
X0615748Y0118898D03*
X0619488Y0118898D03*
X0623228Y0118898D03*
X0619291Y0084646D03*
X0615748Y0084646D03*
X0280512Y0249607D03*
X0280512Y0254331D03*
X0280512Y0244882D03*
X0280512Y0240158D03*
X0337303Y0265591D03*
X0337303Y0269528D03*
G36*
G01*
X0441398Y0233367D02*
X0438327Y0233367D01*
G75*
G02*
X0438051Y0233642I0000000J0000276D01*
G01*
X0438051Y0235847D01*
G75*
G02*
X0438327Y0236122I0000276J0000000D01*
G01*
X0441398Y0236122D01*
G75*
G02*
X0441673Y0235847I0000000J-000276D01*
G01*
X0441673Y0233642D01*
G75*
G02*
X0441398Y0233367I-000276J0000000D01*
G01*
G37*
G36*
G01*
X0441398Y0239666D02*
X0438327Y0239666D01*
G75*
G02*
X0438051Y0239941I0000000J0000276D01*
G01*
X0438051Y0242146D01*
G75*
G02*
X0438327Y0242422I0000276J0000000D01*
G01*
X0441398Y0242422D01*
G75*
G02*
X0441673Y0242146I0000000J-000276D01*
G01*
X0441673Y0239941D01*
G75*
G02*
X0441398Y0239666I-000276J0000000D01*
G01*
G37*
G36*
G01*
X0261083Y0099804D02*
X0258012Y0099804D01*
G75*
G02*
X0257736Y0100079I0000000J0000276D01*
G01*
X0257736Y0102284D01*
G75*
G02*
X0258012Y0102559I0000276J0000000D01*
G01*
X0261083Y0102559D01*
G75*
G02*
X0261358Y0102284I0000000J-000276D01*
G01*
X0261358Y0100079D01*
G75*
G02*
X0261083Y0099804I-000276J0000000D01*
G01*
G37*
G36*
G01*
X0261083Y0106103D02*
X0258012Y0106103D01*
G75*
G02*
X0257736Y0106378I0000000J0000276D01*
G01*
X0257736Y0108583D01*
G75*
G02*
X0258012Y0108859I0000276J0000000D01*
G01*
X0261083Y0108859D01*
G75*
G02*
X0261358Y0108583I0000000J-000276D01*
G01*
X0261358Y0106378D01*
G75*
G02*
X0261083Y0106103I-000276J0000000D01*
G01*
G37*
G36*
G01*
X0161161Y0205119D02*
X0164232Y0205119D01*
G75*
G02*
X0164508Y0204843I0000000J-000276D01*
G01*
X0164508Y0202638D01*
G75*
G02*
X0164232Y0202363I-000276J0000000D01*
G01*
X0161161Y0202363D01*
G75*
G02*
X0160886Y0202638I0000000J0000276D01*
G01*
X0160886Y0204843D01*
G75*
G02*
X0161161Y0205119I0000276J0000000D01*
G01*
G37*
G36*
G01*
X0161161Y0198819D02*
X0164232Y0198819D01*
G75*
G02*
X0164508Y0198544I0000000J-000276D01*
G01*
X0164508Y0196339D01*
G75*
G02*
X0164232Y0196063I-000276J0000000D01*
G01*
X0161161Y0196063D01*
G75*
G02*
X0160886Y0196339I0000000J0000276D01*
G01*
X0160886Y0198544D01*
G75*
G02*
X0161161Y0198819I0000276J0000000D01*
G01*
G37*
D14*
X0546260Y0068603D03*
X0552461Y0049292D03*
X0602476Y0049327D03*
X0569094Y0046654D03*
X0573720Y0046654D03*
X0582283Y0046654D03*
X0591043Y0046654D03*
D11*
X0244193Y0165748D03*
X0244193Y0156693D03*
X0244193Y0147638D03*
D12*
X0268996Y0156693D03*
G36*
X0160600Y0191512D02*
G01*
X0165714Y0194465D01*
X0169651Y0187646D01*
X0164537Y0184693D01*
X0160600Y0191512D01*
G37*
G36*
X0152758Y0186985D02*
G01*
X0157872Y0189937D01*
X0161809Y0183118D01*
X0156695Y0180166D01*
X0152758Y0186985D01*
G37*
G36*
X0144916Y0182457D02*
G01*
X0150030Y0185410D01*
X0153967Y0178591D01*
X0148853Y0175638D01*
X0144916Y0182457D01*
G37*
G36*
X0161238Y0163241D02*
G01*
X0174195Y0170721D01*
X0178132Y0163902D01*
X0165175Y0156422D01*
X0161238Y0163241D01*
G37*
D37*
X0526968Y0092323D03*
X0501772Y0092323D03*
X0494291Y0092323D03*
X0477362Y0092323D03*
D14*
X0467913Y0090552D03*
X0463976Y0090552D03*
D37*
X0452756Y0092323D03*
X0528740Y0153347D03*
X0521457Y0153347D03*
X0501968Y0153347D03*
X0454528Y0153347D03*
D11*
X0222343Y0200985D03*
X0222343Y0191930D03*
X0222343Y0182874D03*
D12*
X0247146Y0191930D03*
G36*
G01*
X0142776Y0285532D02*
X0139705Y0285532D01*
G75*
G02*
X0139429Y0285808I0000000J0000276D01*
G01*
X0139429Y0288012D01*
G75*
G02*
X0139705Y0288288I0000276J0000000D01*
G01*
X0142776Y0288288D01*
G75*
G02*
X0143051Y0288012I0000000J-000276D01*
G01*
X0143051Y0285808D01*
G75*
G02*
X0142776Y0285532I-000276J0000000D01*
G01*
G37*
G36*
G01*
X0142776Y0291831D02*
X0139705Y0291831D01*
G75*
G02*
X0139429Y0292107I0000000J0000276D01*
G01*
X0139429Y0294311D01*
G75*
G02*
X0139705Y0294587I0000276J0000000D01*
G01*
X0142776Y0294587D01*
G75*
G02*
X0143051Y0294311I0000000J-000276D01*
G01*
X0143051Y0292107D01*
G75*
G02*
X0142776Y0291831I-000276J0000000D01*
G01*
G37*
G36*
G01*
X0547697Y0117067D02*
X0545020Y0117067D01*
G75*
G02*
X0544685Y0117402I0000000J0000335D01*
G01*
X0544685Y0120079D01*
G75*
G02*
X0545020Y0120414I0000335J0000000D01*
G01*
X0547697Y0120414D01*
G75*
G02*
X0548031Y0120079I0000000J-000335D01*
G01*
X0548031Y0117402D01*
G75*
G02*
X0547697Y0117067I-000335J0000000D01*
G01*
G37*
G36*
G01*
X0547697Y0123288D02*
X0545020Y0123288D01*
G75*
G02*
X0544685Y0123622I0000000J0000335D01*
G01*
X0544685Y0126300D01*
G75*
G02*
X0545020Y0126634I0000335J0000000D01*
G01*
X0547697Y0126634D01*
G75*
G02*
X0548031Y0126300I0000000J-000335D01*
G01*
X0548031Y0123622D01*
G75*
G02*
X0547697Y0123288I-000335J0000000D01*
G01*
G37*
G36*
X0185206Y0239642D02*
G01*
X0190320Y0242595D01*
X0194257Y0235776D01*
X0189143Y0232823D01*
X0185206Y0239642D01*
G37*
G36*
X0177364Y0235115D02*
G01*
X0182478Y0238067D01*
X0186415Y0231248D01*
X0181301Y0228296D01*
X0177364Y0235115D01*
G37*
G36*
X0169522Y0230587D02*
G01*
X0174636Y0233540D01*
X0178573Y0226721D01*
X0173459Y0223768D01*
X0169522Y0230587D01*
G37*
G36*
X0185845Y0211371D02*
G01*
X0198801Y0218851D01*
X0202738Y0212032D01*
X0189782Y0204552D01*
X0185845Y0211371D01*
G37*
D71*
X0234350Y0023819D03*
X0395768Y0023819D03*
D47*
X0259941Y0041536D03*
D48*
X0275689Y0041536D03*
X0291437Y0041536D03*
X0307185Y0041536D03*
X0322933Y0041536D03*
X0338681Y0041536D03*
X0354429Y0041536D03*
X0370177Y0041536D03*
X0267815Y0025788D03*
X0283563Y0025788D03*
X0299311Y0025788D03*
X0315059Y0025788D03*
X0330807Y0025788D03*
X0346555Y0025788D03*
X0362303Y0025788D03*
X0259941Y0010040D03*
X0275689Y0010040D03*
X0291437Y0010040D03*
X0307185Y0010040D03*
X0322933Y0010040D03*
X0338681Y0010040D03*
X0354429Y0010040D03*
X0370177Y0010040D03*
G36*
G01*
X0253740Y0248130D02*
X0253740Y0254430D01*
G75*
G02*
X0254724Y0255414I0000984J0000000D01*
G01*
X0261024Y0255414D01*
G75*
G02*
X0262008Y0254430I0000000J-000984D01*
G01*
X0262008Y0248130D01*
G75*
G02*
X0261024Y0247146I-000984J0000000D01*
G01*
X0254724Y0247146D01*
G75*
G02*
X0253740Y0248130I0000000J0000984D01*
G01*
G37*
G36*
G01*
X0231299Y0248130D02*
X0231299Y0254430D01*
G75*
G02*
X0232283Y0255414I0000984J0000000D01*
G01*
X0238583Y0255414D01*
G75*
G02*
X0239567Y0254430I0000000J-000984D01*
G01*
X0239567Y0248130D01*
G75*
G02*
X0238583Y0247146I-000984J0000000D01*
G01*
X0232283Y0247146D01*
G75*
G02*
X0231299Y0248130I0000000J0000984D01*
G01*
G37*
G36*
G01*
X0208858Y0248130D02*
X0208858Y0254430D01*
G75*
G02*
X0209843Y0255414I0000984J0000000D01*
G01*
X0216142Y0255414D01*
G75*
G02*
X0217126Y0254430I0000000J-000984D01*
G01*
X0217126Y0248130D01*
G75*
G02*
X0216142Y0247146I-000984J0000000D01*
G01*
X0209843Y0247146D01*
G75*
G02*
X0208858Y0248130I0000000J0000984D01*
G01*
G37*
G36*
G01*
X0186417Y0248130D02*
X0186417Y0254430D01*
G75*
G02*
X0187402Y0255414I0000984J0000000D01*
G01*
X0193701Y0255414D01*
G75*
G02*
X0194685Y0254430I0000000J-000984D01*
G01*
X0194685Y0248130D01*
G75*
G02*
X0193701Y0247146I-000984J0000000D01*
G01*
X0187402Y0247146D01*
G75*
G02*
X0186417Y0248130I0000000J0000984D01*
G01*
G37*
G36*
G01*
X0163976Y0248130D02*
X0163976Y0254430D01*
G75*
G02*
X0164961Y0255414I0000984J0000000D01*
G01*
X0171260Y0255414D01*
G75*
G02*
X0172244Y0254430I0000000J-000984D01*
G01*
X0172244Y0248130D01*
G75*
G02*
X0171260Y0247146I-000984J0000000D01*
G01*
X0164961Y0247146D01*
G75*
G02*
X0163976Y0248130I0000000J0000984D01*
G01*
G37*
G36*
G01*
X0141535Y0248130D02*
X0141535Y0254430D01*
G75*
G02*
X0142520Y0255414I0000984J0000000D01*
G01*
X0148819Y0255414D01*
G75*
G02*
X0149803Y0254430I0000000J-000984D01*
G01*
X0149803Y0248130D01*
G75*
G02*
X0148819Y0247146I-000984J0000000D01*
G01*
X0142520Y0247146D01*
G75*
G02*
X0141535Y0248130I0000000J0000984D01*
G01*
G37*
G36*
G01*
X0119094Y0248130D02*
X0119094Y0254430D01*
G75*
G02*
X0120079Y0255414I0000984J0000000D01*
G01*
X0126378Y0255414D01*
G75*
G02*
X0127362Y0254430I0000000J-000984D01*
G01*
X0127362Y0248130D01*
G75*
G02*
X0126378Y0247146I-000984J0000000D01*
G01*
X0120079Y0247146D01*
G75*
G02*
X0119094Y0248130I0000000J0000984D01*
G01*
G37*
G36*
G01*
X0096654Y0248130D02*
X0096654Y0254430D01*
G75*
G02*
X0097638Y0255414I0000984J0000000D01*
G01*
X0103937Y0255414D01*
G75*
G02*
X0104921Y0254430I0000000J-000984D01*
G01*
X0104921Y0248130D01*
G75*
G02*
X0103937Y0247146I-000984J0000000D01*
G01*
X0097638Y0247146D01*
G75*
G02*
X0096654Y0248130I0000000J0000984D01*
G01*
G37*
G36*
G01*
X0074213Y0248130D02*
X0074213Y0254430D01*
G75*
G02*
X0075197Y0255414I0000984J0000000D01*
G01*
X0081496Y0255414D01*
G75*
G02*
X0082480Y0254430I0000000J-000984D01*
G01*
X0082480Y0248130D01*
G75*
G02*
X0081496Y0247146I-000984J0000000D01*
G01*
X0075197Y0247146D01*
G75*
G02*
X0074213Y0248130I0000000J0000984D01*
G01*
G37*
G36*
G01*
X0051772Y0248130D02*
X0051772Y0254430D01*
G75*
G02*
X0052756Y0255414I0000984J0000000D01*
G01*
X0059055Y0255414D01*
G75*
G02*
X0060039Y0254430I0000000J-000984D01*
G01*
X0060039Y0248130D01*
G75*
G02*
X0059055Y0247146I-000984J0000000D01*
G01*
X0052756Y0247146D01*
G75*
G02*
X0051772Y0248130I0000000J0000984D01*
G01*
G37*
G36*
G01*
X0029331Y0248130D02*
X0029331Y0254430D01*
G75*
G02*
X0030315Y0255414I0000984J0000000D01*
G01*
X0036614Y0255414D01*
G75*
G02*
X0037598Y0254430I0000000J-000984D01*
G01*
X0037598Y0248130D01*
G75*
G02*
X0036614Y0247146I-000984J0000000D01*
G01*
X0030315Y0247146D01*
G75*
G02*
X0029331Y0248130I0000000J0000984D01*
G01*
G37*
G36*
G01*
X0253740Y0264272D02*
X0253740Y0270571D01*
G75*
G02*
X0254724Y0271556I0000984J0000000D01*
G01*
X0261024Y0271556D01*
G75*
G02*
X0262008Y0270571I0000000J-000984D01*
G01*
X0262008Y0264272D01*
G75*
G02*
X0261024Y0263288I-000984J0000000D01*
G01*
X0254724Y0263288D01*
G75*
G02*
X0253740Y0264272I0000000J0000984D01*
G01*
G37*
G36*
G01*
X0231299Y0264272D02*
X0231299Y0270571D01*
G75*
G02*
X0232283Y0271556I0000984J0000000D01*
G01*
X0238583Y0271556D01*
G75*
G02*
X0239567Y0270571I0000000J-000984D01*
G01*
X0239567Y0264272D01*
G75*
G02*
X0238583Y0263288I-000984J0000000D01*
G01*
X0232283Y0263288D01*
G75*
G02*
X0231299Y0264272I0000000J0000984D01*
G01*
G37*
G36*
G01*
X0208858Y0264272D02*
X0208858Y0270571D01*
G75*
G02*
X0209843Y0271556I0000984J0000000D01*
G01*
X0216142Y0271556D01*
G75*
G02*
X0217126Y0270571I0000000J-000984D01*
G01*
X0217126Y0264272D01*
G75*
G02*
X0216142Y0263288I-000984J0000000D01*
G01*
X0209843Y0263288D01*
G75*
G02*
X0208858Y0264272I0000000J0000984D01*
G01*
G37*
G36*
G01*
X0186417Y0264272D02*
X0186417Y0270571D01*
G75*
G02*
X0187402Y0271556I0000984J0000000D01*
G01*
X0193701Y0271556D01*
G75*
G02*
X0194685Y0270571I0000000J-000984D01*
G01*
X0194685Y0264272D01*
G75*
G02*
X0193701Y0263288I-000984J0000000D01*
G01*
X0187402Y0263288D01*
G75*
G02*
X0186417Y0264272I0000000J0000984D01*
G01*
G37*
G36*
G01*
X0163976Y0264272D02*
X0163976Y0270571D01*
G75*
G02*
X0164961Y0271556I0000984J0000000D01*
G01*
X0171260Y0271556D01*
G75*
G02*
X0172244Y0270571I0000000J-000984D01*
G01*
X0172244Y0264272D01*
G75*
G02*
X0171260Y0263288I-000984J0000000D01*
G01*
X0164961Y0263288D01*
G75*
G02*
X0163976Y0264272I0000000J0000984D01*
G01*
G37*
G36*
G01*
X0141535Y0264272D02*
X0141535Y0270571D01*
G75*
G02*
X0142520Y0271556I0000984J0000000D01*
G01*
X0148819Y0271556D01*
G75*
G02*
X0149803Y0270571I0000000J-000984D01*
G01*
X0149803Y0264272D01*
G75*
G02*
X0148819Y0263288I-000984J0000000D01*
G01*
X0142520Y0263288D01*
G75*
G02*
X0141535Y0264272I0000000J0000984D01*
G01*
G37*
G36*
G01*
X0119094Y0264272D02*
X0119094Y0270571D01*
G75*
G02*
X0120079Y0271556I0000984J0000000D01*
G01*
X0126378Y0271556D01*
G75*
G02*
X0127362Y0270571I0000000J-000984D01*
G01*
X0127362Y0264272D01*
G75*
G02*
X0126378Y0263288I-000984J0000000D01*
G01*
X0120079Y0263288D01*
G75*
G02*
X0119094Y0264272I0000000J0000984D01*
G01*
G37*
G36*
G01*
X0096654Y0264272D02*
X0096654Y0270571D01*
G75*
G02*
X0097638Y0271556I0000984J0000000D01*
G01*
X0103937Y0271556D01*
G75*
G02*
X0104921Y0270571I0000000J-000984D01*
G01*
X0104921Y0264272D01*
G75*
G02*
X0103937Y0263288I-000984J0000000D01*
G01*
X0097638Y0263288D01*
G75*
G02*
X0096654Y0264272I0000000J0000984D01*
G01*
G37*
G36*
G01*
X0074213Y0264272D02*
X0074213Y0270571D01*
G75*
G02*
X0075197Y0271556I0000984J0000000D01*
G01*
X0081496Y0271556D01*
G75*
G02*
X0082480Y0270571I0000000J-000984D01*
G01*
X0082480Y0264272D01*
G75*
G02*
X0081496Y0263288I-000984J0000000D01*
G01*
X0075197Y0263288D01*
G75*
G02*
X0074213Y0264272I0000000J0000984D01*
G01*
G37*
G36*
G01*
X0051772Y0264272D02*
X0051772Y0270571D01*
G75*
G02*
X0052756Y0271556I0000984J0000000D01*
G01*
X0059055Y0271556D01*
G75*
G02*
X0060039Y0270571I0000000J-000984D01*
G01*
X0060039Y0264272D01*
G75*
G02*
X0059055Y0263288I-000984J0000000D01*
G01*
X0052756Y0263288D01*
G75*
G02*
X0051772Y0264272I0000000J0000984D01*
G01*
G37*
G36*
G01*
X0029331Y0264272D02*
X0029331Y0270571D01*
G75*
G02*
X0030315Y0271556I0000984J0000000D01*
G01*
X0036614Y0271556D01*
G75*
G02*
X0037598Y0270571I0000000J-000984D01*
G01*
X0037598Y0264272D01*
G75*
G02*
X0036614Y0263288I-000984J0000000D01*
G01*
X0030315Y0263288D01*
G75*
G02*
X0029331Y0264272I0000000J0000984D01*
G01*
G37*
G36*
G01*
X0592323Y0247934D02*
X0592323Y0254233D01*
G75*
G02*
X0593307Y0255217I0000984J0000000D01*
G01*
X0599606Y0255217D01*
G75*
G02*
X0600591Y0254233I0000000J-000984D01*
G01*
X0600591Y0247934D01*
G75*
G02*
X0599606Y0246949I-000984J0000000D01*
G01*
X0593307Y0246949D01*
G75*
G02*
X0592323Y0247934I0000000J0000984D01*
G01*
G37*
G36*
G01*
X0569882Y0247934D02*
X0569882Y0254233D01*
G75*
G02*
X0570866Y0255217I0000984J0000000D01*
G01*
X0577165Y0255217D01*
G75*
G02*
X0578150Y0254233I0000000J-000984D01*
G01*
X0578150Y0247934D01*
G75*
G02*
X0577165Y0246949I-000984J0000000D01*
G01*
X0570866Y0246949D01*
G75*
G02*
X0569882Y0247934I0000000J0000984D01*
G01*
G37*
G36*
G01*
X0547441Y0247934D02*
X0547441Y0254233D01*
G75*
G02*
X0548425Y0255217I0000984J0000000D01*
G01*
X0554724Y0255217D01*
G75*
G02*
X0555709Y0254233I0000000J-000984D01*
G01*
X0555709Y0247934D01*
G75*
G02*
X0554724Y0246949I-000984J0000000D01*
G01*
X0548425Y0246949D01*
G75*
G02*
X0547441Y0247934I0000000J0000984D01*
G01*
G37*
G36*
G01*
X0525000Y0247934D02*
X0525000Y0254233D01*
G75*
G02*
X0525984Y0255217I0000984J0000000D01*
G01*
X0532283Y0255217D01*
G75*
G02*
X0533268Y0254233I0000000J-000984D01*
G01*
X0533268Y0247934D01*
G75*
G02*
X0532283Y0246949I-000984J0000000D01*
G01*
X0525984Y0246949D01*
G75*
G02*
X0525000Y0247934I0000000J0000984D01*
G01*
G37*
G36*
G01*
X0502559Y0247934D02*
X0502559Y0254233D01*
G75*
G02*
X0503543Y0255217I0000984J0000000D01*
G01*
X0509843Y0255217D01*
G75*
G02*
X0510827Y0254233I0000000J-000984D01*
G01*
X0510827Y0247934D01*
G75*
G02*
X0509843Y0246949I-000984J0000000D01*
G01*
X0503543Y0246949D01*
G75*
G02*
X0502559Y0247934I0000000J0000984D01*
G01*
G37*
G36*
G01*
X0480118Y0247934D02*
X0480118Y0254233D01*
G75*
G02*
X0481102Y0255217I0000984J0000000D01*
G01*
X0487402Y0255217D01*
G75*
G02*
X0488386Y0254233I0000000J-000984D01*
G01*
X0488386Y0247934D01*
G75*
G02*
X0487402Y0246949I-000984J0000000D01*
G01*
X0481102Y0246949D01*
G75*
G02*
X0480118Y0247934I0000000J0000984D01*
G01*
G37*
G36*
G01*
X0457677Y0247934D02*
X0457677Y0254233D01*
G75*
G02*
X0458661Y0255217I0000984J0000000D01*
G01*
X0464961Y0255217D01*
G75*
G02*
X0465945Y0254233I0000000J-000984D01*
G01*
X0465945Y0247934D01*
G75*
G02*
X0464961Y0246949I-000984J0000000D01*
G01*
X0458661Y0246949D01*
G75*
G02*
X0457677Y0247934I0000000J0000984D01*
G01*
G37*
G36*
G01*
X0435236Y0247934D02*
X0435236Y0254233D01*
G75*
G02*
X0436220Y0255217I0000984J0000000D01*
G01*
X0442520Y0255217D01*
G75*
G02*
X0443504Y0254233I0000000J-000984D01*
G01*
X0443504Y0247934D01*
G75*
G02*
X0442520Y0246949I-000984J0000000D01*
G01*
X0436220Y0246949D01*
G75*
G02*
X0435236Y0247934I0000000J0000984D01*
G01*
G37*
G36*
G01*
X0412795Y0247934D02*
X0412795Y0254233D01*
G75*
G02*
X0413780Y0255217I0000984J0000000D01*
G01*
X0420079Y0255217D01*
G75*
G02*
X0421063Y0254233I0000000J-000984D01*
G01*
X0421063Y0247934D01*
G75*
G02*
X0420079Y0246949I-000984J0000000D01*
G01*
X0413780Y0246949D01*
G75*
G02*
X0412795Y0247934I0000000J0000984D01*
G01*
G37*
G36*
G01*
X0390354Y0247934D02*
X0390354Y0254233D01*
G75*
G02*
X0391339Y0255217I0000984J0000000D01*
G01*
X0397638Y0255217D01*
G75*
G02*
X0398622Y0254233I0000000J-000984D01*
G01*
X0398622Y0247934D01*
G75*
G02*
X0397638Y0246949I-000984J0000000D01*
G01*
X0391339Y0246949D01*
G75*
G02*
X0390354Y0247934I0000000J0000984D01*
G01*
G37*
G36*
G01*
X0367913Y0247934D02*
X0367913Y0254233D01*
G75*
G02*
X0368898Y0255217I0000984J0000000D01*
G01*
X0375197Y0255217D01*
G75*
G02*
X0376181Y0254233I0000000J-000984D01*
G01*
X0376181Y0247934D01*
G75*
G02*
X0375197Y0246949I-000984J0000000D01*
G01*
X0368898Y0246949D01*
G75*
G02*
X0367913Y0247934I0000000J0000984D01*
G01*
G37*
G36*
G01*
X0592323Y0264075D02*
X0592323Y0270374D01*
G75*
G02*
X0593307Y0271359I0000984J0000000D01*
G01*
X0599606Y0271359D01*
G75*
G02*
X0600591Y0270374I0000000J-000984D01*
G01*
X0600591Y0264075D01*
G75*
G02*
X0599606Y0263091I-000984J0000000D01*
G01*
X0593307Y0263091D01*
G75*
G02*
X0592323Y0264075I0000000J0000984D01*
G01*
G37*
G36*
G01*
X0569882Y0264075D02*
X0569882Y0270374D01*
G75*
G02*
X0570866Y0271359I0000984J0000000D01*
G01*
X0577165Y0271359D01*
G75*
G02*
X0578150Y0270374I0000000J-000984D01*
G01*
X0578150Y0264075D01*
G75*
G02*
X0577165Y0263091I-000984J0000000D01*
G01*
X0570866Y0263091D01*
G75*
G02*
X0569882Y0264075I0000000J0000984D01*
G01*
G37*
G36*
G01*
X0547441Y0264075D02*
X0547441Y0270374D01*
G75*
G02*
X0548425Y0271359I0000984J0000000D01*
G01*
X0554724Y0271359D01*
G75*
G02*
X0555709Y0270374I0000000J-000984D01*
G01*
X0555709Y0264075D01*
G75*
G02*
X0554724Y0263091I-000984J0000000D01*
G01*
X0548425Y0263091D01*
G75*
G02*
X0547441Y0264075I0000000J0000984D01*
G01*
G37*
G36*
G01*
X0525000Y0264075D02*
X0525000Y0270374D01*
G75*
G02*
X0525984Y0271359I0000984J0000000D01*
G01*
X0532283Y0271359D01*
G75*
G02*
X0533268Y0270374I0000000J-000984D01*
G01*
X0533268Y0264075D01*
G75*
G02*
X0532283Y0263091I-000984J0000000D01*
G01*
X0525984Y0263091D01*
G75*
G02*
X0525000Y0264075I0000000J0000984D01*
G01*
G37*
G36*
G01*
X0502559Y0264075D02*
X0502559Y0270374D01*
G75*
G02*
X0503543Y0271359I0000984J0000000D01*
G01*
X0509843Y0271359D01*
G75*
G02*
X0510827Y0270374I0000000J-000984D01*
G01*
X0510827Y0264075D01*
G75*
G02*
X0509843Y0263091I-000984J0000000D01*
G01*
X0503543Y0263091D01*
G75*
G02*
X0502559Y0264075I0000000J0000984D01*
G01*
G37*
G36*
G01*
X0480118Y0264075D02*
X0480118Y0270374D01*
G75*
G02*
X0481102Y0271359I0000984J0000000D01*
G01*
X0487402Y0271359D01*
G75*
G02*
X0488386Y0270374I0000000J-000984D01*
G01*
X0488386Y0264075D01*
G75*
G02*
X0487402Y0263091I-000984J0000000D01*
G01*
X0481102Y0263091D01*
G75*
G02*
X0480118Y0264075I0000000J0000984D01*
G01*
G37*
G36*
G01*
X0457677Y0264075D02*
X0457677Y0270374D01*
G75*
G02*
X0458661Y0271359I0000984J0000000D01*
G01*
X0464961Y0271359D01*
G75*
G02*
X0465945Y0270374I0000000J-000984D01*
G01*
X0465945Y0264075D01*
G75*
G02*
X0464961Y0263091I-000984J0000000D01*
G01*
X0458661Y0263091D01*
G75*
G02*
X0457677Y0264075I0000000J0000984D01*
G01*
G37*
G36*
G01*
X0435236Y0264075D02*
X0435236Y0270374D01*
G75*
G02*
X0436220Y0271359I0000984J0000000D01*
G01*
X0442520Y0271359D01*
G75*
G02*
X0443504Y0270374I0000000J-000984D01*
G01*
X0443504Y0264075D01*
G75*
G02*
X0442520Y0263091I-000984J0000000D01*
G01*
X0436220Y0263091D01*
G75*
G02*
X0435236Y0264075I0000000J0000984D01*
G01*
G37*
G36*
G01*
X0412795Y0264075D02*
X0412795Y0270374D01*
G75*
G02*
X0413780Y0271359I0000984J0000000D01*
G01*
X0420079Y0271359D01*
G75*
G02*
X0421063Y0270374I0000000J-000984D01*
G01*
X0421063Y0264075D01*
G75*
G02*
X0420079Y0263091I-000984J0000000D01*
G01*
X0413780Y0263091D01*
G75*
G02*
X0412795Y0264075I0000000J0000984D01*
G01*
G37*
G36*
G01*
X0390354Y0264075D02*
X0390354Y0270374D01*
G75*
G02*
X0391339Y0271359I0000984J0000000D01*
G01*
X0397638Y0271359D01*
G75*
G02*
X0398622Y0270374I0000000J-000984D01*
G01*
X0398622Y0264075D01*
G75*
G02*
X0397638Y0263091I-000984J0000000D01*
G01*
X0391339Y0263091D01*
G75*
G02*
X0390354Y0264075I0000000J0000984D01*
G01*
G37*
G36*
G01*
X0367913Y0264075D02*
X0367913Y0270374D01*
G75*
G02*
X0368898Y0271359I0000984J0000000D01*
G01*
X0375197Y0271359D01*
G75*
G02*
X0376181Y0270374I0000000J-000984D01*
G01*
X0376181Y0264075D01*
G75*
G02*
X0375197Y0263091I-000984J0000000D01*
G01*
X0368898Y0263091D01*
G75*
G02*
X0367913Y0264075I0000000J0000984D01*
G01*
G37*
G36*
G01*
X0209794Y0112839D02*
X0207622Y0115011D01*
G75*
G02*
X0207622Y0115400I0000195J0000195D01*
G01*
X0209181Y0116959D01*
G75*
G02*
X0209571Y0116959I0000195J-000195D01*
G01*
X0211742Y0114788D01*
G75*
G02*
X0211742Y0114398I-000195J-000195D01*
G01*
X0210183Y0112839D01*
G75*
G02*
X0209794Y0112839I-000195J0000195D01*
G01*
G37*
G36*
G01*
X0214248Y0117293D02*
X0212076Y0119465D01*
G75*
G02*
X0212076Y0119855I0000195J0000195D01*
G01*
X0213635Y0121414D01*
G75*
G02*
X0214025Y0121414I0000195J-000195D01*
G01*
X0216197Y0119242D01*
G75*
G02*
X0216197Y0118852I-000195J-000195D01*
G01*
X0214638Y0117293D01*
G75*
G02*
X0214248Y0117293I-000195J0000195D01*
G01*
G37*
D14*
X0489370Y0206496D03*
X0489370Y0211221D03*
X0489370Y0201772D03*
X0489370Y0197048D03*
X0546161Y0222481D03*
X0546161Y0226418D03*
D49*
X0529035Y0176083D03*
D72*
X0477500Y0041752D03*
X0500256Y0041752D03*
D50*
X0475689Y0045945D03*
X0478839Y0045945D03*
X0483957Y0045945D03*
X0487894Y0045945D03*
X0489862Y0045945D03*
X0493799Y0045945D03*
X0498917Y0045945D03*
X0502067Y0045945D03*
X0500886Y0045945D03*
X0497736Y0045945D03*
X0495768Y0045945D03*
X0491831Y0045945D03*
X0485925Y0045945D03*
X0481988Y0045945D03*
X0480020Y0045945D03*
X0476870Y0045945D03*
D51*
X0471870Y0043721D03*
D52*
X0471870Y0027264D03*
D51*
X0505886Y0043721D03*
D52*
X0505886Y0027264D03*
D13*
X0574311Y0091339D03*
G36*
G01*
X0095061Y0182538D02*
X0092674Y0181160D01*
G75*
G02*
X0091329Y0181520I-000492J0000852D01*
G01*
X0087983Y0187316D01*
G75*
G02*
X0088343Y0188661I0000852J0000492D01*
G01*
X0090730Y0190039D01*
G75*
G02*
X0092074Y0189679I0000492J-000852D01*
G01*
X0095421Y0183882D01*
G75*
G02*
X0095061Y0182538I-000852J-000492D01*
G01*
G37*
G36*
G01*
X0102409Y0205874D02*
X0084338Y0195441D01*
G75*
G02*
X0082993Y0195801I-000492J0000852D01*
G01*
X0071379Y0215917D01*
G75*
G02*
X0071740Y0217262I0000852J0000492D01*
G01*
X0089810Y0227695D01*
G75*
G02*
X0091155Y0227335I0000492J-000852D01*
G01*
X0102769Y0207218D01*
G75*
G02*
X0102409Y0205874I-000852J-000492D01*
G01*
G37*
G36*
G01*
X0110608Y0191514D02*
X0108221Y0190136D01*
G75*
G02*
X0106877Y0190497I-000492J0000852D01*
G01*
X0103530Y0196293D01*
G75*
G02*
X0103891Y0197637I0000852J0000492D01*
G01*
X0106277Y0199015D01*
G75*
G02*
X0107622Y0198655I0000492J-000852D01*
G01*
X0110968Y0192859D01*
G75*
G02*
X0110608Y0191514I-000852J-000492D01*
G01*
G37*
G36*
G01*
X0109843Y0287894D02*
X0109843Y0286713D01*
G75*
G02*
X0109252Y0286122I-000591J0000000D01*
G01*
X0104626Y0286122D01*
G75*
G02*
X0104035Y0286713I0000000J0000591D01*
G01*
X0104035Y0287894D01*
G75*
G02*
X0104626Y0288485I0000591J0000000D01*
G01*
X0109252Y0288485D01*
G75*
G02*
X0109843Y0287894I0000000J-000591D01*
G01*
G37*
G36*
G01*
X0102461Y0291634D02*
X0102461Y0290453D01*
G75*
G02*
X0101870Y0289863I-000591J0000000D01*
G01*
X0097244Y0289863D01*
G75*
G02*
X0096654Y0290453I0000000J0000591D01*
G01*
X0096654Y0291634D01*
G75*
G02*
X0097244Y0292225I0000591J0000000D01*
G01*
X0101870Y0292225D01*
G75*
G02*
X0102461Y0291634I0000000J-000591D01*
G01*
G37*
G36*
G01*
X0109843Y0295374D02*
X0109843Y0294193D01*
G75*
G02*
X0109252Y0293603I-000591J0000000D01*
G01*
X0104626Y0293603D01*
G75*
G02*
X0104035Y0294193I0000000J0000591D01*
G01*
X0104035Y0295374D01*
G75*
G02*
X0104626Y0295965I0000591J0000000D01*
G01*
X0109252Y0295965D01*
G75*
G02*
X0109843Y0295374I0000000J-000591D01*
G01*
G37*
G36*
G01*
X0272185Y0245374D02*
X0275256Y0245374D01*
G75*
G02*
X0275531Y0245099I0000000J-000276D01*
G01*
X0275531Y0242894D01*
G75*
G02*
X0275256Y0242619I-000276J0000000D01*
G01*
X0272185Y0242619D01*
G75*
G02*
X0271909Y0242894I0000000J0000276D01*
G01*
X0271909Y0245099D01*
G75*
G02*
X0272185Y0245374I0000276J0000000D01*
G01*
G37*
G36*
G01*
X0272185Y0239075D02*
X0275256Y0239075D01*
G75*
G02*
X0275531Y0238800I0000000J-000276D01*
G01*
X0275531Y0236595D01*
G75*
G02*
X0275256Y0236319I-000276J0000000D01*
G01*
X0272185Y0236319D01*
G75*
G02*
X0271909Y0236595I0000000J0000276D01*
G01*
X0271909Y0238800D01*
G75*
G02*
X0272185Y0239075I0000276J0000000D01*
G01*
G37*
G36*
G01*
X0129345Y0189671D02*
X0126958Y0188293D01*
G75*
G02*
X0125614Y0188654I-000492J0000852D01*
G01*
X0122267Y0194450D01*
G75*
G02*
X0122627Y0195794I0000852J0000492D01*
G01*
X0125014Y0197172D01*
G75*
G02*
X0126359Y0196812I0000492J-000852D01*
G01*
X0129705Y0191016D01*
G75*
G02*
X0129345Y0189671I-000852J-000492D01*
G01*
G37*
G36*
G01*
X0136693Y0213007D02*
X0118622Y0202574D01*
G75*
G02*
X0117278Y0202934I-000492J0000852D01*
G01*
X0105663Y0223051D01*
G75*
G02*
X0106024Y0224395I0000852J0000492D01*
G01*
X0124094Y0234828D01*
G75*
G02*
X0125439Y0234468I0000492J-000852D01*
G01*
X0137053Y0214352D01*
G75*
G02*
X0136693Y0213007I-000852J-000492D01*
G01*
G37*
G36*
G01*
X0144892Y0198648D02*
X0142506Y0197270D01*
G75*
G02*
X0141161Y0197630I-000492J0000852D01*
G01*
X0137815Y0203426D01*
G75*
G02*
X0138175Y0204771I0000852J0000492D01*
G01*
X0140562Y0206149D01*
G75*
G02*
X0141906Y0205788I0000492J-000852D01*
G01*
X0145253Y0199992D01*
G75*
G02*
X0144892Y0198648I-000852J-000492D01*
G01*
G37*
G36*
G01*
X0192185Y0284548D02*
X0189114Y0284548D01*
G75*
G02*
X0188839Y0284823I0000000J0000276D01*
G01*
X0188839Y0287028D01*
G75*
G02*
X0189114Y0287304I0000276J0000000D01*
G01*
X0192185Y0287304D01*
G75*
G02*
X0192461Y0287028I0000000J-000276D01*
G01*
X0192461Y0284823D01*
G75*
G02*
X0192185Y0284548I-000276J0000000D01*
G01*
G37*
G36*
G01*
X0192185Y0290847D02*
X0189114Y0290847D01*
G75*
G02*
X0188839Y0291122I0000000J0000276D01*
G01*
X0188839Y0293327D01*
G75*
G02*
X0189114Y0293603I0000276J0000000D01*
G01*
X0192185Y0293603D01*
G75*
G02*
X0192461Y0293327I0000000J-000276D01*
G01*
X0192461Y0291122D01*
G75*
G02*
X0192185Y0290847I-000276J0000000D01*
G01*
G37*
G36*
G01*
X0624665Y0123130D02*
X0621594Y0123130D01*
G75*
G02*
X0621319Y0123406I0000000J0000276D01*
G01*
X0621319Y0125611D01*
G75*
G02*
X0621594Y0125886I0000276J0000000D01*
G01*
X0624665Y0125886D01*
G75*
G02*
X0624941Y0125611I0000000J-000276D01*
G01*
X0624941Y0123406D01*
G75*
G02*
X0624665Y0123130I-000276J0000000D01*
G01*
G37*
G36*
G01*
X0624665Y0129430D02*
X0621594Y0129430D01*
G75*
G02*
X0621319Y0129705I0000000J0000276D01*
G01*
X0621319Y0131910D01*
G75*
G02*
X0621594Y0132185I0000276J0000000D01*
G01*
X0624665Y0132185D01*
G75*
G02*
X0624941Y0131910I0000000J-000276D01*
G01*
X0624941Y0129705D01*
G75*
G02*
X0624665Y0129430I-000276J0000000D01*
G01*
G37*
G36*
G01*
X0062416Y0174415D02*
X0060029Y0173037D01*
G75*
G02*
X0058684Y0173398I-000492J0000852D01*
G01*
X0055338Y0179194D01*
G75*
G02*
X0055698Y0180538I0000852J0000492D01*
G01*
X0058085Y0181916D01*
G75*
G02*
X0059429Y0181556I0000492J-000852D01*
G01*
X0062776Y0175760D01*
G75*
G02*
X0062416Y0174415I-000852J-000492D01*
G01*
G37*
G36*
G01*
X0069764Y0197751D02*
X0051693Y0187318D01*
G75*
G02*
X0050349Y0187678I-000492J0000852D01*
G01*
X0038734Y0207795D01*
G75*
G02*
X0039095Y0209139I0000852J0000492D01*
G01*
X0057165Y0219572D01*
G75*
G02*
X0058510Y0219212I0000492J-000852D01*
G01*
X0070124Y0199096D01*
G75*
G02*
X0069764Y0197751I-000852J-000492D01*
G01*
G37*
G36*
G01*
X0077963Y0183392D02*
X0075576Y0182014D01*
G75*
G02*
X0074232Y0182374I-000492J0000852D01*
G01*
X0070886Y0188170D01*
G75*
G02*
X0071246Y0189515I0000852J0000492D01*
G01*
X0073632Y0190893D01*
G75*
G02*
X0074977Y0190533I0000492J-000852D01*
G01*
X0078323Y0184736D01*
G75*
G02*
X0077963Y0183392I-000852J-000492D01*
G01*
G37*
G36*
G01*
X0132431Y0287697D02*
X0132431Y0286516D01*
G75*
G02*
X0131841Y0285926I-000591J0000000D01*
G01*
X0127215Y0285926D01*
G75*
G02*
X0126624Y0286516I0000000J0000591D01*
G01*
X0126624Y0287697D01*
G75*
G02*
X0127215Y0288288I0000591J0000000D01*
G01*
X0131841Y0288288D01*
G75*
G02*
X0132431Y0287697I0000000J-000591D01*
G01*
G37*
G36*
G01*
X0125049Y0291437D02*
X0125049Y0290256D01*
G75*
G02*
X0124459Y0289666I-000591J0000000D01*
G01*
X0119833Y0289666D01*
G75*
G02*
X0119242Y0290256I0000000J0000591D01*
G01*
X0119242Y0291437D01*
G75*
G02*
X0119833Y0292028I0000591J0000000D01*
G01*
X0124459Y0292028D01*
G75*
G02*
X0125049Y0291437I0000000J-000591D01*
G01*
G37*
G36*
G01*
X0132431Y0295178D02*
X0132431Y0293996D01*
G75*
G02*
X0131841Y0293406I-000591J0000000D01*
G01*
X0127215Y0293406D01*
G75*
G02*
X0126624Y0293996I0000000J0000591D01*
G01*
X0126624Y0295178D01*
G75*
G02*
X0127215Y0295768I0000591J0000000D01*
G01*
X0131841Y0295768D01*
G75*
G02*
X0132431Y0295178I0000000J-000591D01*
G01*
G37*
D49*
X0543917Y0176083D03*
G36*
G01*
X0168110Y0286122D02*
X0168110Y0284941D01*
G75*
G02*
X0167520Y0284351I-000591J0000000D01*
G01*
X0162894Y0284351D01*
G75*
G02*
X0162303Y0284941I0000000J0000591D01*
G01*
X0162303Y0286122D01*
G75*
G02*
X0162894Y0286713I0000591J0000000D01*
G01*
X0167520Y0286713D01*
G75*
G02*
X0168110Y0286122I0000000J-000591D01*
G01*
G37*
G36*
G01*
X0160728Y0289863D02*
X0160728Y0288682D01*
G75*
G02*
X0160138Y0288091I-000591J0000000D01*
G01*
X0155512Y0288091D01*
G75*
G02*
X0154921Y0288682I0000000J0000591D01*
G01*
X0154921Y0289863D01*
G75*
G02*
X0155512Y0290453I0000591J0000000D01*
G01*
X0160138Y0290453D01*
G75*
G02*
X0160728Y0289863I0000000J-000591D01*
G01*
G37*
G36*
G01*
X0168110Y0293603D02*
X0168110Y0292422D01*
G75*
G02*
X0167520Y0291831I-000591J0000000D01*
G01*
X0162894Y0291831D01*
G75*
G02*
X0162303Y0292422I0000000J0000591D01*
G01*
X0162303Y0293603D01*
G75*
G02*
X0162894Y0294193I0000591J0000000D01*
G01*
X0167520Y0294193D01*
G75*
G02*
X0168110Y0293603I0000000J-000591D01*
G01*
G37*
D11*
X0248524Y0132284D03*
X0248524Y0123229D03*
X0248524Y0114174D03*
D12*
X0273327Y0123229D03*
G36*
G01*
X0205660Y0231394D02*
X0203001Y0229859D01*
G75*
G02*
X0202625Y0229960I-000138J0000239D01*
G01*
X0201522Y0231869D01*
G75*
G02*
X0201623Y0232246I0000239J0000138D01*
G01*
X0204282Y0233781D01*
G75*
G02*
X0204659Y0233680I0000138J-000239D01*
G01*
X0205761Y0231771D01*
G75*
G02*
X0205660Y0231394I-000239J-000138D01*
G01*
G37*
G36*
G01*
X0202511Y0236850D02*
X0199851Y0235314D01*
G75*
G02*
X0199475Y0235415I-000138J0000239D01*
G01*
X0198373Y0237324D01*
G75*
G02*
X0198473Y0237701I0000239J0000138D01*
G01*
X0201133Y0239236D01*
G75*
G02*
X0201509Y0239135I0000138J-000239D01*
G01*
X0202612Y0237226D01*
G75*
G02*
X0202511Y0236850I-000239J-000138D01*
G01*
G37*
G36*
G01*
X0186417Y0285926D02*
X0186417Y0284745D01*
G75*
G02*
X0185827Y0284154I-000591J0000000D01*
G01*
X0181201Y0284154D01*
G75*
G02*
X0180610Y0284745I0000000J0000591D01*
G01*
X0180610Y0285926D01*
G75*
G02*
X0181201Y0286516I0000591J0000000D01*
G01*
X0185827Y0286516D01*
G75*
G02*
X0186417Y0285926I0000000J-000591D01*
G01*
G37*
G36*
G01*
X0179035Y0289666D02*
X0179035Y0288485D01*
G75*
G02*
X0178445Y0287894I-000591J0000000D01*
G01*
X0173819Y0287894D01*
G75*
G02*
X0173228Y0288485I0000000J0000591D01*
G01*
X0173228Y0289666D01*
G75*
G02*
X0173819Y0290256I0000591J0000000D01*
G01*
X0178445Y0290256D01*
G75*
G02*
X0179035Y0289666I0000000J-000591D01*
G01*
G37*
G36*
G01*
X0186417Y0293406D02*
X0186417Y0292225D01*
G75*
G02*
X0185827Y0291634I-000591J0000000D01*
G01*
X0181201Y0291634D01*
G75*
G02*
X0180610Y0292225I0000000J0000591D01*
G01*
X0180610Y0293406D01*
G75*
G02*
X0181201Y0293996I0000591J0000000D01*
G01*
X0185827Y0293996D01*
G75*
G02*
X0186417Y0293406I0000000J-000591D01*
G01*
G37*
D10*
X0446161Y0188288D03*
G36*
G01*
X0451457Y0184745D02*
X0448740Y0184745D01*
G75*
G02*
X0447835Y0185650I0000000J0000906D01*
G01*
X0447835Y0190926D01*
G75*
G02*
X0448740Y0191831I0000906J0000000D01*
G01*
X0451457Y0191831D01*
G75*
G02*
X0452362Y0190926I0000000J-000906D01*
G01*
X0452362Y0185650D01*
G75*
G02*
X0451457Y0184745I-000906J0000000D01*
G01*
G37*
G36*
G01*
X0462874Y0184745D02*
X0460158Y0184745D01*
G75*
G02*
X0459252Y0185650I0000000J0000906D01*
G01*
X0459252Y0190926D01*
G75*
G02*
X0460158Y0191831I0000906J0000000D01*
G01*
X0462874Y0191831D01*
G75*
G02*
X0463780Y0190926I0000000J-000906D01*
G01*
X0463780Y0185650D01*
G75*
G02*
X0462874Y0184745I-000906J0000000D01*
G01*
G37*
X0465453Y0188288D03*
D65*
X0553888Y0189961D03*
X0553888Y0184056D03*
X0553888Y0178150D03*
X0553888Y0172245D03*
X0553888Y0166339D03*
X0553888Y0160433D03*
X0553888Y0154528D03*
X0553888Y0148622D03*
X0553888Y0142717D03*
X0553888Y0136811D03*
X0553888Y0130906D03*
X0553888Y0125000D03*
X0553888Y0119095D03*
X0603888Y0119095D03*
X0603888Y0125000D03*
X0603888Y0130906D03*
X0603888Y0136811D03*
X0603888Y0142717D03*
X0603888Y0148622D03*
X0603888Y0154528D03*
X0603888Y0160433D03*
X0603888Y0166339D03*
X0603888Y0172245D03*
X0603888Y0178150D03*
X0603888Y0184056D03*
X0603888Y0189961D03*
G36*
G01*
X0028131Y0171121D02*
X0025745Y0169743D01*
G75*
G02*
X0024400Y0170103I-000492J0000852D01*
G01*
X0021054Y0175899D01*
G75*
G02*
X0021414Y0177244I0000852J0000492D01*
G01*
X0023801Y0178622D01*
G75*
G02*
X0025145Y0178261I0000492J-000852D01*
G01*
X0028492Y0172465D01*
G75*
G02*
X0028131Y0171121I-000852J-000492D01*
G01*
G37*
G36*
G01*
X0035479Y0194456D02*
X0017409Y0184023D01*
G75*
G02*
X0016064Y0184384I-000492J0000852D01*
G01*
X0004450Y0204500D01*
G75*
G02*
X0004810Y0205844I0000852J0000492D01*
G01*
X0022881Y0216277D01*
G75*
G02*
X0024226Y0215917I0000492J-000852D01*
G01*
X0035840Y0195801D01*
G75*
G02*
X0035479Y0194456I-000852J-000492D01*
G01*
G37*
G36*
G01*
X0043679Y0180097D02*
X0041292Y0178719D01*
G75*
G02*
X0039948Y0179079I-000492J0000852D01*
G01*
X0036601Y0184875D01*
G75*
G02*
X0036962Y0186220I0000852J0000492D01*
G01*
X0039348Y0187598D01*
G75*
G02*
X0040693Y0187238I0000492J-000852D01*
G01*
X0044039Y0181441D01*
G75*
G02*
X0043679Y0180097I-000852J-000492D01*
G01*
G37*
D10*
X0493672Y0182510D03*
G36*
G01*
X0494910Y0176260D02*
X0492990Y0178181D01*
G75*
G02*
X0492990Y0179462I0000640J0000640D01*
G01*
X0496720Y0183192D01*
G75*
G02*
X0498001Y0183192I0000640J-000640D01*
G01*
X0499921Y0181271D01*
G75*
G02*
X0499921Y0179991I-000640J-000640D01*
G01*
X0496191Y0176260D01*
G75*
G02*
X0494910Y0176260I-000640J0000640D01*
G01*
G37*
G36*
G01*
X0502984Y0168187D02*
X0501063Y0170108D01*
G75*
G02*
X0501063Y0171388I0000640J0000640D01*
G01*
X0504793Y0175119D01*
G75*
G02*
X0506074Y0175119I0000640J-000640D01*
G01*
X0507995Y0173198D01*
G75*
G02*
X0507995Y0171917I-000640J-000640D01*
G01*
X0504264Y0168187D01*
G75*
G02*
X0502984Y0168187I-000640J0000640D01*
G01*
G37*
X0507313Y0168869D03*
G36*
G01*
X0448878Y0227264D02*
X0445807Y0227264D01*
G75*
G02*
X0445531Y0227540I0000000J0000276D01*
G01*
X0445531Y0229745D01*
G75*
G02*
X0445807Y0230020I0000276J0000000D01*
G01*
X0448878Y0230020D01*
G75*
G02*
X0449154Y0229745I0000000J-000276D01*
G01*
X0449154Y0227540D01*
G75*
G02*
X0448878Y0227264I-000276J0000000D01*
G01*
G37*
G36*
G01*
X0448878Y0233563D02*
X0445807Y0233563D01*
G75*
G02*
X0445531Y0233839I0000000J0000276D01*
G01*
X0445531Y0236044D01*
G75*
G02*
X0445807Y0236319I0000276J0000000D01*
G01*
X0448878Y0236319D01*
G75*
G02*
X0449154Y0236044I0000000J-000276D01*
G01*
X0449154Y0233839D01*
G75*
G02*
X0448878Y0233563I-000276J0000000D01*
G01*
G37*
G36*
G01*
X0208023Y0198028D02*
X0205363Y0196493D01*
G75*
G02*
X0204987Y0196594I-000138J0000239D01*
G01*
X0203884Y0198503D01*
G75*
G02*
X0203985Y0198880I0000239J0000138D01*
G01*
X0206645Y0200415D01*
G75*
G02*
X0207021Y0200314I0000138J-000239D01*
G01*
X0208124Y0198405D01*
G75*
G02*
X0208023Y0198028I-000239J-000138D01*
G01*
G37*
G36*
G01*
X0204873Y0203484D02*
X0202214Y0201948D01*
G75*
G02*
X0201837Y0202049I-000138J0000239D01*
G01*
X0200735Y0203958D01*
G75*
G02*
X0200836Y0204335I0000239J0000138D01*
G01*
X0203495Y0205870D01*
G75*
G02*
X0203872Y0205769I0000138J-000239D01*
G01*
X0204974Y0203860D01*
G75*
G02*
X0204873Y0203484I-000239J-000138D01*
G01*
G37*
G36*
G01*
X0467618Y0051024D02*
X0467618Y0054095D01*
G75*
G02*
X0467894Y0054371I0000276J0000000D01*
G01*
X0470098Y0054371D01*
G75*
G02*
X0470374Y0054095I0000000J-000276D01*
G01*
X0470374Y0051024D01*
G75*
G02*
X0470098Y0050748I-000276J0000000D01*
G01*
X0467894Y0050748D01*
G75*
G02*
X0467618Y0051024I0000000J0000276D01*
G01*
G37*
G36*
G01*
X0473917Y0051024D02*
X0473917Y0054095D01*
G75*
G02*
X0474193Y0054371I0000276J0000000D01*
G01*
X0476398Y0054371D01*
G75*
G02*
X0476673Y0054095I0000000J-000276D01*
G01*
X0476673Y0051024D01*
G75*
G02*
X0476398Y0050748I-000276J0000000D01*
G01*
X0474193Y0050748D01*
G75*
G02*
X0473917Y0051024I0000000J0000276D01*
G01*
G37*
X0449803Y0156898D02*
G01*
G75*
D360*
X0474170Y0111819D02*
D03*
X0456453Y0111819D02*
D03*
D361*
X0498622Y0115146D02*
D03*
X0498622Y0142508D02*
D03*
D362*
X0475394Y0126386D02*
D03*
X0475394Y0142528D02*
D03*
D363*
X0457283Y0124615D02*
D03*
X0457283Y0140363D02*
D03*
D364*
X0519061Y0147554D02*
D03*
X0515321Y0138302D02*
D03*
D364*
X0522801Y0138302D02*
D03*
D365*
X0528740Y0115467D02*
D03*
D365*
X0525000Y0115467D02*
D03*
X0521260Y0115467D02*
D03*
X0521260Y0107003D02*
D03*
X0528740Y0107003D02*
D03*
D366*
X0514739Y0103151D02*
D03*
X0514739Y0116143D02*
D03*
D367*
X0515027Y0121437D02*
D03*
X0515027Y0132855D02*
D03*
D368*
X0482480Y0102252D02*
D03*
X0482480Y0108473D02*
D03*
X0482480Y0112843D02*
D03*
X0482480Y0119063D02*
D03*
D369*
X0459591Y0152929D02*
D03*
X0463725Y0152929D02*
D03*
X0501465Y0102374D02*
D03*
X0505599Y0102374D02*
D03*
X0496752Y0102374D02*
D03*
X0492618Y0102374D02*
D03*
X0477103Y0101482D02*
D03*
X0472969Y0101482D02*
D03*
D370*
X0521310Y0120585D02*
D03*
X0525247Y0120585D02*
D03*
X0522212Y0134260D02*
D03*
X0522212Y0125599D02*
D03*
X0528609Y0134260D02*
D03*
X0528609Y0125599D02*
D03*
D371*
X0528740Y0142633D02*
D03*
X0528740Y0139089D02*
D03*
D372*
X0505402Y0106632D02*
D03*
X0501858Y0106632D02*
D03*
X0496358Y0106632D02*
D03*
X0492815Y0106632D02*
D03*
X0464802Y0101482D02*
D03*
X0468346Y0101482D02*
D03*
D132*
X0467913Y0091150D02*
D03*
X0463976Y0091150D02*
D03*
D133*
X0521456Y0153945D02*
D03*
X0454527Y0153945D02*
D03*
X0501968Y0153945D02*
D03*
X0501771Y0092922D02*
D03*
X0526968Y0092922D02*
D03*
X0477362Y0092922D02*
D03*
X0494291Y0092922D02*
D03*
X0452756Y0092922D02*
D03*
X0528740Y0153945D02*
D03*
X0625984Y0084063D02*
G01*
G75*
D291*
X0615760Y0098768D02*
D03*
X0623240Y0098768D02*
D03*
X0623240Y0090303D02*
D03*
X0619500Y0090303D02*
D03*
X0615760Y0114417D02*
D03*
X0623240Y0114417D02*
D03*
X0623240Y0105953D02*
D03*
X0619500Y0105953D02*
D03*
D291*
X0615760Y0090303D02*
D03*
X0615760Y0105953D02*
D03*
D132*
X0615748Y0119496D02*
D03*
X0619488Y0119496D02*
D03*
X0623228Y0119496D02*
D03*
X0619291Y0085244D02*
D03*
X0615748Y0085244D02*
D03*
X0338780Y0277370D02*
%LPD*%
G01*
G36*
G01*
X0284686Y0261543D02*
X0284686Y0262882D01*
G75*
G02*
X0285237Y0263433I0000551J0000000D01*
G01*
X0286339Y0263433D01*
G75*
G02*
X0286890Y0262882I0000000J-000551D01*
G01*
X0286890Y0261543D01*
G75*
G02*
X0286339Y0260992I-000551J0000000D01*
G01*
X0285237Y0260992D01*
G75*
G02*
X0284686Y0261543I0000000J0000551D01*
G01*
G37*
G36*
G01*
X0280906Y0261543D02*
X0280906Y0262882D01*
G75*
G02*
X0281457Y0263433I0000551J0000000D01*
G01*
X0282560Y0263433D01*
G75*
G02*
X0283111Y0262882I0000000J-000551D01*
G01*
X0283111Y0261543D01*
G75*
G02*
X0282560Y0260992I-000551J0000000D01*
G01*
X0281457Y0260992D01*
G75*
G02*
X0280906Y0261543I0000000J0000551D01*
G01*
G37*
G36*
G01*
X0311182Y0246779D02*
X0312520Y0246779D01*
G75*
G02*
X0313071Y0246228I0000000J-000551D01*
G01*
X0313071Y0245126D01*
G75*
G02*
X0312520Y0244575I-000551J0000000D01*
G01*
X0311182Y0244575D01*
G75*
G02*
X0310630Y0245126I0000000J0000551D01*
G01*
X0310630Y0246228D01*
G75*
G02*
X0311182Y0246779I0000551J0000000D01*
G01*
G37*
G36*
G01*
X0311182Y0250559D02*
X0312520Y0250559D01*
G75*
G02*
X0313071Y0250008I0000000J-000551D01*
G01*
X0313071Y0248905D01*
G75*
G02*
X0312520Y0248354I-000551J0000000D01*
G01*
X0311182Y0248354D01*
G75*
G02*
X0310630Y0248905I0000000J0000551D01*
G01*
X0310630Y0250008D01*
G75*
G02*
X0311182Y0250559I0000551J0000000D01*
G01*
G37*
G36*
G01*
X0298091Y0275441D02*
X0299548Y0275441D01*
G75*
G02*
X0300079Y0274909I0000000J-000531D01*
G01*
X0300079Y0273846D01*
G75*
G02*
X0299548Y0273315I-000531J0000000D01*
G01*
X0298091Y0273315D01*
G75*
G02*
X0297560Y0273846I0000000J0000531D01*
G01*
X0297560Y0274909D01*
G75*
G02*
X0298091Y0275441I0000531J0000000D01*
G01*
G37*
G36*
G01*
X0298091Y0271425D02*
X0299548Y0271425D01*
G75*
G02*
X0300079Y0270894I0000000J-000531D01*
G01*
X0300079Y0269831D01*
G75*
G02*
X0299548Y0269299I-000531J0000000D01*
G01*
X0298091Y0269299D01*
G75*
G02*
X0297560Y0269831I0000000J0000531D01*
G01*
X0297560Y0270894D01*
G75*
G02*
X0298091Y0271425I0000531J0000000D01*
G01*
G37*
G36*
G01*
X0309063Y0243098D02*
X0309063Y0241917D01*
G75*
G02*
X0308473Y0241327I-000591J0000000D01*
G01*
X0301977Y0241327D01*
G75*
G02*
X0301386Y0241917I0000000J0000591D01*
G01*
X0301386Y0243098D01*
G75*
G02*
X0301977Y0243689I0000591J0000000D01*
G01*
X0308473Y0243689D01*
G75*
G02*
X0309063Y0243098I0000000J-000591D01*
G01*
G37*
G36*
G01*
X0309063Y0248098D02*
X0309063Y0246917D01*
G75*
G02*
X0308473Y0246327I-000591J0000000D01*
G01*
X0301977Y0246327D01*
G75*
G02*
X0301386Y0246917I0000000J0000591D01*
G01*
X0301386Y0248098D01*
G75*
G02*
X0301977Y0248689I0000591J0000000D01*
G01*
X0308473Y0248689D01*
G75*
G02*
X0309063Y0248098I0000000J-000591D01*
G01*
G37*
G36*
G01*
X0309063Y0253098D02*
X0309063Y0251917D01*
G75*
G02*
X0308473Y0251327I-000591J0000000D01*
G01*
X0301977Y0251327D01*
G75*
G02*
X0301386Y0251917I0000000J0000591D01*
G01*
X0301386Y0253098D01*
G75*
G02*
X0301977Y0253689I0000591J0000000D01*
G01*
X0308473Y0253689D01*
G75*
G02*
X0309063Y0253098I0000000J-000591D01*
G01*
G37*
G36*
G01*
X0309063Y0258098D02*
X0309063Y0256917D01*
G75*
G02*
X0308473Y0256327I-000591J0000000D01*
G01*
X0301977Y0256327D01*
G75*
G02*
X0301386Y0256917I0000000J0000591D01*
G01*
X0301386Y0258098D01*
G75*
G02*
X0301977Y0258689I0000591J0000000D01*
G01*
X0308473Y0258689D01*
G75*
G02*
X0309063Y0258098I0000000J-000591D01*
G01*
G37*
G36*
G01*
X0289575Y0258098D02*
X0289575Y0256917D01*
G75*
G02*
X0288985Y0256327I-000591J0000000D01*
G01*
X0282489Y0256327D01*
G75*
G02*
X0281898Y0256917I0000000J0000591D01*
G01*
X0281898Y0258098D01*
G75*
G02*
X0282489Y0258689I0000591J0000000D01*
G01*
X0288985Y0258689D01*
G75*
G02*
X0289575Y0258098I0000000J-000591D01*
G01*
G37*
G36*
G01*
X0289575Y0253098D02*
X0289575Y0251917D01*
G75*
G02*
X0288985Y0251327I-000591J0000000D01*
G01*
X0282489Y0251327D01*
G75*
G02*
X0281898Y0251917I0000000J0000591D01*
G01*
X0281898Y0253098D01*
G75*
G02*
X0282489Y0253689I0000591J0000000D01*
G01*
X0288985Y0253689D01*
G75*
G02*
X0289575Y0253098I0000000J-000591D01*
G01*
G37*
G36*
G01*
X0289575Y0248098D02*
X0289575Y0246917D01*
G75*
G02*
X0288985Y0246327I-000591J0000000D01*
G01*
X0282489Y0246327D01*
G75*
G02*
X0281898Y0246917I0000000J0000591D01*
G01*
X0281898Y0248098D01*
G75*
G02*
X0282489Y0248689I0000591J0000000D01*
G01*
X0288985Y0248689D01*
G75*
G02*
X0289575Y0248098I0000000J-000591D01*
G01*
G37*
G36*
G01*
X0289575Y0243098D02*
X0289575Y0241917D01*
G75*
G02*
X0288985Y0241327I-000591J0000000D01*
G01*
X0282489Y0241327D01*
G75*
G02*
X0281898Y0241917I0000000J0000591D01*
G01*
X0281898Y0243098D01*
G75*
G02*
X0282489Y0243689I0000591J0000000D01*
G01*
X0288985Y0243689D01*
G75*
G02*
X0289575Y0243098I0000000J-000591D01*
G01*
G37*
D149*
X0323583Y0242370D03*
X0323583Y0244929D03*
X0323583Y0247488D03*
X0316103Y0247488D03*
X0316103Y0244929D03*
X0316103Y0242370D03*
D14*
X0280512Y0250205D03*
X0280512Y0254929D03*
X0280512Y0245480D03*
X0280512Y0240756D03*
X0337304Y0266189D03*
X0337304Y0270126D03*
G36*
G01*
X0307422Y0261458D02*
X0305965Y0261458D01*
G75*
G02*
X0305434Y0261990I0000000J0000531D01*
G01*
X0305434Y0263053D01*
G75*
G02*
X0305965Y0263584I0000531J0000000D01*
G01*
X0307422Y0263584D01*
G75*
G02*
X0307953Y0263053I0000000J-000531D01*
G01*
X0307953Y0261990D01*
G75*
G02*
X0307422Y0261458I-000531J0000000D01*
G01*
G37*
G36*
G01*
X0307422Y0265474D02*
X0305965Y0265474D01*
G75*
G02*
X0305434Y0266005I0000000J0000531D01*
G01*
X0305434Y0267068D01*
G75*
G02*
X0305965Y0267600I0000531J0000000D01*
G01*
X0307422Y0267600D01*
G75*
G02*
X0307953Y0267068I0000000J-000531D01*
G01*
X0307953Y0266005D01*
G75*
G02*
X0307422Y0265474I-000531J0000000D01*
G01*
G37*
G36*
G01*
X0302087Y0267521D02*
X0303426Y0267521D01*
G75*
G02*
X0303977Y0266970I0000000J-000551D01*
G01*
X0303977Y0265868D01*
G75*
G02*
X0303426Y0265316I-000551J0000000D01*
G01*
X0302087Y0265316D01*
G75*
G02*
X0301536Y0265868I0000000J0000551D01*
G01*
X0301536Y0266970D01*
G75*
G02*
X0302087Y0267521I0000551J0000000D01*
G01*
G37*
G36*
G01*
X0302087Y0263742D02*
X0303426Y0263742D01*
G75*
G02*
X0303977Y0263190I0000000J-000551D01*
G01*
X0303977Y0262088D01*
G75*
G02*
X0303426Y0261537I-000551J0000000D01*
G01*
X0302087Y0261537D01*
G75*
G02*
X0301536Y0262088I0000000J0000551D01*
G01*
X0301536Y0263190D01*
G75*
G02*
X0302087Y0263742I0000551J0000000D01*
G01*
G37*
G36*
G01*
X0305965Y0275441D02*
X0307422Y0275441D01*
G75*
G02*
X0307953Y0274909I0000000J-000531D01*
G01*
X0307953Y0273846D01*
G75*
G02*
X0307422Y0273315I-000531J0000000D01*
G01*
X0305965Y0273315D01*
G75*
G02*
X0305434Y0273846I0000000J0000531D01*
G01*
X0305434Y0274909D01*
G75*
G02*
X0305965Y0275441I0000531J0000000D01*
G01*
G37*
G36*
G01*
X0305965Y0271425D02*
X0307422Y0271425D01*
G75*
G02*
X0307953Y0270894I0000000J-000531D01*
G01*
X0307953Y0269831D01*
G75*
G02*
X0307422Y0269299I-000531J0000000D01*
G01*
X0305965Y0269299D01*
G75*
G02*
X0305434Y0269831I0000000J0000531D01*
G01*
X0305434Y0270894D01*
G75*
G02*
X0305965Y0271425I0000531J0000000D01*
G01*
G37*
G36*
G01*
X0294371Y0269378D02*
X0293032Y0269378D01*
G75*
G02*
X0292481Y0269929I0000000J0000551D01*
G01*
X0292481Y0271031D01*
G75*
G02*
X0293032Y0271583I0000551J0000000D01*
G01*
X0294371Y0271583D01*
G75*
G02*
X0294922Y0271031I0000000J-000551D01*
G01*
X0294922Y0269929D01*
G75*
G02*
X0294371Y0269378I-000551J0000000D01*
G01*
G37*
G36*
G01*
X0294371Y0273157D02*
X0293032Y0273157D01*
G75*
G02*
X0292481Y0273709I0000000J0000551D01*
G01*
X0292481Y0274811D01*
G75*
G02*
X0293032Y0275362I0000551J0000000D01*
G01*
X0294371Y0275362D01*
G75*
G02*
X0294922Y0274811I0000000J-000551D01*
G01*
X0294922Y0273709D01*
G75*
G02*
X0294371Y0273157I-000551J0000000D01*
G01*
G37*
G36*
G01*
X0317500Y0265520D02*
X0316162Y0265520D01*
G75*
G02*
X0315611Y0266071I0000000J0000551D01*
G01*
X0315611Y0267173D01*
G75*
G02*
X0316162Y0267724I0000551J0000000D01*
G01*
X0317500Y0267724D01*
G75*
G02*
X0318052Y0267173I0000000J-000551D01*
G01*
X0318052Y0266071D01*
G75*
G02*
X0317500Y0265520I-000551J0000000D01*
G01*
G37*
G36*
G01*
X0317500Y0269299D02*
X0316162Y0269299D01*
G75*
G02*
X0315611Y0269850I0000000J0000551D01*
G01*
X0315611Y0270953D01*
G75*
G02*
X0316162Y0271504I0000551J0000000D01*
G01*
X0317500Y0271504D01*
G75*
G02*
X0318052Y0270953I0000000J-000551D01*
G01*
X0318052Y0269850D01*
G75*
G02*
X0317500Y0269299I-000551J0000000D01*
G01*
G37*
G36*
G01*
X0311910Y0262272D02*
X0311910Y0263728D01*
G75*
G02*
X0312441Y0264260I0000531J0000000D01*
G01*
X0313504Y0264260D01*
G75*
G02*
X0314036Y0263728I0000000J-000531D01*
G01*
X0314036Y0262272D01*
G75*
G02*
X0313504Y0261740I-000531J0000000D01*
G01*
X0312441Y0261740D01*
G75*
G02*
X0311910Y0262272I0000000J0000531D01*
G01*
G37*
G36*
G01*
X0315926Y0262272D02*
X0315926Y0263728D01*
G75*
G02*
X0316457Y0264260I0000531J0000000D01*
G01*
X0317520Y0264260D01*
G75*
G02*
X0318052Y0263728I0000000J-000531D01*
G01*
X0318052Y0262272D01*
G75*
G02*
X0317520Y0261740I-000531J0000000D01*
G01*
X0316457Y0261740D01*
G75*
G02*
X0315926Y0262272I0000000J0000531D01*
G01*
G37*
G36*
G01*
X0335335Y0254560D02*
X0335335Y0252542D01*
G75*
G02*
X0334474Y0251681I-000861J0000000D01*
G01*
X0332751Y0251681D01*
G75*
G02*
X0331890Y0252542I0000000J0000861D01*
G01*
X0331890Y0254560D01*
G75*
G02*
X0332751Y0255421I0000861J0000000D01*
G01*
X0334474Y0255421D01*
G75*
G02*
X0335335Y0254560I0000000J-000861D01*
G01*
G37*
G36*
G01*
X0329134Y0254560D02*
X0329134Y0252542D01*
G75*
G02*
X0328273Y0251681I-000861J0000000D01*
G01*
X0326551Y0251681D01*
G75*
G02*
X0325689Y0252542I0000000J0000861D01*
G01*
X0325689Y0254560D01*
G75*
G02*
X0326551Y0255421I0000861J0000000D01*
G01*
X0328273Y0255421D01*
G75*
G02*
X0329134Y0254560I0000000J-000861D01*
G01*
G37*
G36*
G01*
X0328819Y0247705D02*
X0328819Y0249161D01*
G75*
G02*
X0329351Y0249693I0000531J0000000D01*
G01*
X0330414Y0249693D01*
G75*
G02*
X0330945Y0249161I0000000J-000531D01*
G01*
X0330945Y0247705D01*
G75*
G02*
X0330414Y0247173I-000531J0000000D01*
G01*
X0329351Y0247173D01*
G75*
G02*
X0328819Y0247705I0000000J0000531D01*
G01*
G37*
G36*
G01*
X0332835Y0247705D02*
X0332835Y0249161D01*
G75*
G02*
X0333367Y0249693I0000531J0000000D01*
G01*
X0334430Y0249693D01*
G75*
G02*
X0334961Y0249161I0000000J-000531D01*
G01*
X0334961Y0247705D01*
G75*
G02*
X0334430Y0247173I-000531J0000000D01*
G01*
X0333367Y0247173D01*
G75*
G02*
X0332835Y0247705I0000000J0000531D01*
G01*
G37*
G36*
G01*
X0318052Y0259791D02*
X0318052Y0258335D01*
G75*
G02*
X0317520Y0257803I-000531J0000000D01*
G01*
X0316457Y0257803D01*
G75*
G02*
X0315926Y0258335I0000000J0000531D01*
G01*
X0315926Y0259791D01*
G75*
G02*
X0316457Y0260323I0000531J0000000D01*
G01*
X0317520Y0260323D01*
G75*
G02*
X0318052Y0259791I0000000J-000531D01*
G01*
G37*
G36*
G01*
X0314036Y0259791D02*
X0314036Y0258335D01*
G75*
G02*
X0313504Y0257803I-000531J0000000D01*
G01*
X0312441Y0257803D01*
G75*
G02*
X0311910Y0258335I0000000J0000531D01*
G01*
X0311910Y0259791D01*
G75*
G02*
X0312441Y0260323I0000531J0000000D01*
G01*
X0313504Y0260323D01*
G75*
G02*
X0314036Y0259791I0000000J-000531D01*
G01*
G37*
G36*
G01*
X0312737Y0265582D02*
X0311280Y0265582D01*
G75*
G02*
X0310749Y0266113I0000000J0000531D01*
G01*
X0310749Y0267176D01*
G75*
G02*
X0311280Y0267708I0000531J0000000D01*
G01*
X0312737Y0267708D01*
G75*
G02*
X0313268Y0267176I0000000J-000531D01*
G01*
X0313268Y0266113D01*
G75*
G02*
X0312737Y0265582I-000531J0000000D01*
G01*
G37*
G36*
G01*
X0312737Y0269598D02*
X0311280Y0269598D01*
G75*
G02*
X0310749Y0270129I0000000J0000531D01*
G01*
X0310749Y0271192D01*
G75*
G02*
X0311280Y0271723I0000531J0000000D01*
G01*
X0312737Y0271723D01*
G75*
G02*
X0313268Y0271192I0000000J-000531D01*
G01*
X0313268Y0270129D01*
G75*
G02*
X0312737Y0269598I-000531J0000000D01*
G01*
G37*
G36*
G01*
X0330079Y0258984D02*
X0330079Y0260323D01*
G75*
G02*
X0330630Y0260874I0000551J0000000D01*
G01*
X0331733Y0260874D01*
G75*
G02*
X0332284Y0260323I0000000J-000551D01*
G01*
X0332284Y0258984D01*
G75*
G02*
X0331733Y0258433I-000551J0000000D01*
G01*
X0330630Y0258433D01*
G75*
G02*
X0330079Y0258984I0000000J0000551D01*
G01*
G37*
G36*
G01*
X0333859Y0258984D02*
X0333859Y0260323D01*
G75*
G02*
X0334410Y0260874I0000551J0000000D01*
G01*
X0335512Y0260874D01*
G75*
G02*
X0336063Y0260323I0000000J-000551D01*
G01*
X0336063Y0258984D01*
G75*
G02*
X0335512Y0258433I-000551J0000000D01*
G01*
X0334410Y0258433D01*
G75*
G02*
X0333859Y0258984I0000000J0000551D01*
G01*
G37*
G36*
G01*
X0293032Y0267521D02*
X0294371Y0267521D01*
G75*
G02*
X0294922Y0266970I0000000J-000551D01*
G01*
X0294922Y0265868D01*
G75*
G02*
X0294371Y0265316I-000551J0000000D01*
G01*
X0293032Y0265316D01*
G75*
G02*
X0292481Y0265868I0000000J0000551D01*
G01*
X0292481Y0266970D01*
G75*
G02*
X0293032Y0267521I0000551J0000000D01*
G01*
G37*
G36*
G01*
X0293032Y0263742D02*
X0294371Y0263742D01*
G75*
G02*
X0294922Y0263190I0000000J-000551D01*
G01*
X0294922Y0262088D01*
G75*
G02*
X0294371Y0261537I-000551J0000000D01*
G01*
X0293032Y0261537D01*
G75*
G02*
X0292481Y0262088I0000000J0000551D01*
G01*
X0292481Y0263190D01*
G75*
G02*
X0293032Y0263742I0000551J0000000D01*
G01*
G37*
G36*
G01*
X0318052Y0275047D02*
X0318052Y0273590D01*
G75*
G02*
X0317520Y0273059I-000531J0000000D01*
G01*
X0316457Y0273059D01*
G75*
G02*
X0315926Y0273590I0000000J0000531D01*
G01*
X0315926Y0275047D01*
G75*
G02*
X0316457Y0275579I0000531J0000000D01*
G01*
X0317520Y0275579D01*
G75*
G02*
X0318052Y0275047I0000000J-000531D01*
G01*
G37*
G36*
G01*
X0314036Y0275047D02*
X0314036Y0273590D01*
G75*
G02*
X0313504Y0273059I-000531J0000000D01*
G01*
X0312441Y0273059D01*
G75*
G02*
X0311910Y0273590I0000000J0000531D01*
G01*
X0311910Y0275047D01*
G75*
G02*
X0312441Y0275579I0000531J0000000D01*
G01*
X0313504Y0275579D01*
G75*
G02*
X0314036Y0275047I0000000J-000531D01*
G01*
G37*
D150*
X0288793Y0273827D03*
X0286234Y0273827D03*
X0283675Y0273827D03*
X0283675Y0266346D03*
X0286234Y0266346D03*
X0288793Y0266346D03*
G36*
G01*
X0334742Y0265041D02*
X0334742Y0263860D01*
G75*
G02*
X0334151Y0263269I-000591J0000000D01*
G01*
X0330116Y0263269D01*
G75*
G02*
X0329525Y0263860I0000000J0000591D01*
G01*
X0329525Y0265041D01*
G75*
G02*
X0330116Y0265631I0000591J0000000D01*
G01*
X0334151Y0265631D01*
G75*
G02*
X0334742Y0265041I0000000J-000591D01*
G01*
G37*
G36*
G01*
X0334742Y0268781D02*
X0334742Y0267600D01*
G75*
G02*
X0334151Y0267009I-000591J0000000D01*
G01*
X0330116Y0267009D01*
G75*
G02*
X0329525Y0267600I0000000J0000591D01*
G01*
X0329525Y0268781D01*
G75*
G02*
X0330116Y0269372I0000591J0000000D01*
G01*
X0334151Y0269372D01*
G75*
G02*
X0334742Y0268781I0000000J-000591D01*
G01*
G37*
G36*
G01*
X0334742Y0272521D02*
X0334742Y0271340D01*
G75*
G02*
X0334151Y0270750I-000591J0000000D01*
G01*
X0330116Y0270750D01*
G75*
G02*
X0329525Y0271340I0000000J0000591D01*
G01*
X0329525Y0272521D01*
G75*
G02*
X0330116Y0273112I0000591J0000000D01*
G01*
X0334151Y0273112D01*
G75*
G02*
X0334742Y0272521I0000000J-000591D01*
G01*
G37*
G36*
G01*
X0325785Y0272521D02*
X0325785Y0271340D01*
G75*
G02*
X0325195Y0270750I-000591J0000000D01*
G01*
X0321159Y0270750D01*
G75*
G02*
X0320569Y0271340I0000000J0000591D01*
G01*
X0320569Y0272521D01*
G75*
G02*
X0321159Y0273112I0000591J0000000D01*
G01*
X0325195Y0273112D01*
G75*
G02*
X0325785Y0272521I0000000J-000591D01*
G01*
G37*
G36*
G01*
X0325785Y0268781D02*
X0325785Y0267600D01*
G75*
G02*
X0325195Y0267009I-000591J0000000D01*
G01*
X0321159Y0267009D01*
G75*
G02*
X0320569Y0267600I0000000J0000591D01*
G01*
X0320569Y0268781D01*
G75*
G02*
X0321159Y0269372I0000591J0000000D01*
G01*
X0325195Y0269372D01*
G75*
G02*
X0325785Y0268781I0000000J-000591D01*
G01*
G37*
G36*
G01*
X0325785Y0265041D02*
X0325785Y0263860D01*
G75*
G02*
X0325195Y0263269I-000591J0000000D01*
G01*
X0321159Y0263269D01*
G75*
G02*
X0320569Y0263860I0000000J0000591D01*
G01*
X0320569Y0265041D01*
G75*
G02*
X0321159Y0265631I0000591J0000000D01*
G01*
X0325195Y0265631D01*
G75*
G02*
X0325785Y0265041I0000000J-000591D01*
G01*
G37*
G36*
G01*
X0323859Y0253157D02*
X0323859Y0251819D01*
G75*
G02*
X0323308Y0251268I-000551J0000000D01*
G01*
X0322205Y0251268D01*
G75*
G02*
X0321654Y0251819I0000000J0000551D01*
G01*
X0321654Y0253157D01*
G75*
G02*
X0322205Y0253709I0000551J0000000D01*
G01*
X0323308Y0253709D01*
G75*
G02*
X0323859Y0253157I0000000J-000551D01*
G01*
G37*
G36*
G01*
X0320079Y0253157D02*
X0320079Y0251819D01*
G75*
G02*
X0319528Y0251268I-000551J0000000D01*
G01*
X0318426Y0251268D01*
G75*
G02*
X0317874Y0251819I0000000J0000551D01*
G01*
X0317874Y0253157D01*
G75*
G02*
X0318426Y0253709I0000551J0000000D01*
G01*
X0319528Y0253709D01*
G75*
G02*
X0320079Y0253157I0000000J-000551D01*
G01*
G37*
G36*
G01*
X0302087Y0275362D02*
X0303426Y0275362D01*
G75*
G02*
X0303977Y0274811I0000000J-000551D01*
G01*
X0303977Y0273709D01*
G75*
G02*
X0303426Y0273157I-000551J0000000D01*
G01*
X0302087Y0273157D01*
G75*
G02*
X0301536Y0273709I0000000J0000551D01*
G01*
X0301536Y0274811D01*
G75*
G02*
X0302087Y0275362I0000551J0000000D01*
G01*
G37*
G36*
G01*
X0302087Y0271583D02*
X0303426Y0271583D01*
G75*
G02*
X0303977Y0271031I0000000J-000551D01*
G01*
X0303977Y0269929D01*
G75*
G02*
X0303426Y0269378I-000551J0000000D01*
G01*
X0302087Y0269378D01*
G75*
G02*
X0301536Y0269929I0000000J0000551D01*
G01*
X0301536Y0271031D01*
G75*
G02*
X0302087Y0271583I0000551J0000000D01*
G01*
G37*
G36*
G01*
X0298091Y0267600D02*
X0299548Y0267600D01*
G75*
G02*
X0300079Y0267068I0000000J-000531D01*
G01*
X0300079Y0266005D01*
G75*
G02*
X0299548Y0265474I-000531J0000000D01*
G01*
X0298091Y0265474D01*
G75*
G02*
X0297560Y0266005I0000000J0000531D01*
G01*
X0297560Y0267068D01*
G75*
G02*
X0298091Y0267600I0000531J0000000D01*
G01*
G37*
G36*
G01*
X0298091Y0263584D02*
X0299548Y0263584D01*
G75*
G02*
X0300079Y0263053I0000000J-000531D01*
G01*
X0300079Y0261990D01*
G75*
G02*
X0299548Y0261458I-000531J0000000D01*
G01*
X0298091Y0261458D01*
G75*
G02*
X0297560Y0261990I0000000J0000531D01*
G01*
X0297560Y0263053D01*
G75*
G02*
X0298091Y0263584I0000531J0000000D01*
G01*
G37*
X0547638Y0234260D02*
%LPD*%
G01*
D14*
X0489370Y0207095D03*
X0489370Y0211819D03*
X0489370Y0202370D03*
X0489370Y0197646D03*
X0546162Y0223079D03*
X0546162Y0227016D03*
D151*
X0513780Y0221268D03*
X0513780Y0223236D03*
X0513780Y0225205D03*
X0513780Y0227173D03*
X0513780Y0229142D03*
X0496457Y0229142D03*
X0496457Y0227173D03*
X0496457Y0225205D03*
X0496457Y0223236D03*
X0496457Y0221268D03*
G36*
G01*
X0506260Y0208079D02*
X0503189Y0208079D01*
G75*
G02*
X0502914Y0208354I0000000J0000276D01*
G01*
X0502914Y0210559D01*
G75*
G02*
X0503189Y0210835I0000276J0000000D01*
G01*
X0506260Y0210835D01*
G75*
G02*
X0506536Y0210559I0000000J-000276D01*
G01*
X0506536Y0208354D01*
G75*
G02*
X0506260Y0208079I-000276J0000000D01*
G01*
G37*
G36*
G01*
X0506260Y0214378D02*
X0503189Y0214378D01*
G75*
G02*
X0502914Y0214654I0000000J0000276D01*
G01*
X0502914Y0216858D01*
G75*
G02*
X0503189Y0217134I0000276J0000000D01*
G01*
X0506260Y0217134D01*
G75*
G02*
X0506536Y0216858I0000000J-000276D01*
G01*
X0506536Y0214654D01*
G75*
G02*
X0506260Y0214378I-000276J0000000D01*
G01*
G37*
G36*
G01*
X0491929Y0201425D02*
X0491929Y0204496D01*
G75*
G02*
X0492205Y0204772I0000276J0000000D01*
G01*
X0494410Y0204772D01*
G75*
G02*
X0494685Y0204496I0000000J-000276D01*
G01*
X0494685Y0201425D01*
G75*
G02*
X0494410Y0201150I-000276J0000000D01*
G01*
X0492205Y0201150D01*
G75*
G02*
X0491929Y0201425I0000000J0000276D01*
G01*
G37*
G36*
G01*
X0498229Y0201425D02*
X0498229Y0204496D01*
G75*
G02*
X0498504Y0204772I0000276J0000000D01*
G01*
X0500709Y0204772D01*
G75*
G02*
X0500984Y0204496I0000000J-000276D01*
G01*
X0500984Y0201425D01*
G75*
G02*
X0500709Y0201150I-000276J0000000D01*
G01*
X0498504Y0201150D01*
G75*
G02*
X0498229Y0201425I0000000J0000276D01*
G01*
G37*
G36*
G01*
X0512166Y0208079D02*
X0509095Y0208079D01*
G75*
G02*
X0508819Y0208354I0000000J0000276D01*
G01*
X0508819Y0210559D01*
G75*
G02*
X0509095Y0210835I0000276J0000000D01*
G01*
X0512166Y0210835D01*
G75*
G02*
X0512441Y0210559I0000000J-000276D01*
G01*
X0512441Y0208354D01*
G75*
G02*
X0512166Y0208079I-000276J0000000D01*
G01*
G37*
G36*
G01*
X0512166Y0214378D02*
X0509095Y0214378D01*
G75*
G02*
X0508819Y0214654I0000000J0000276D01*
G01*
X0508819Y0216858D01*
G75*
G02*
X0509095Y0217134I0000276J0000000D01*
G01*
X0512166Y0217134D01*
G75*
G02*
X0512441Y0216858I0000000J-000276D01*
G01*
X0512441Y0214654D01*
G75*
G02*
X0512166Y0214378I-000276J0000000D01*
G01*
G37*
G36*
G01*
X0522815Y0204339D02*
X0520099Y0204339D01*
G75*
G02*
X0519193Y0205244I0000000J0000906D01*
G01*
X0519193Y0210520D01*
G75*
G02*
X0520099Y0211425I0000906J0000000D01*
G01*
X0522815Y0211425D01*
G75*
G02*
X0523721Y0210520I0000000J-000906D01*
G01*
X0523721Y0205244D01*
G75*
G02*
X0522815Y0204339I-000906J0000000D01*
G01*
G37*
G36*
G01*
X0534233Y0204339D02*
X0531516Y0204339D01*
G75*
G02*
X0530610Y0205244I0000000J0000906D01*
G01*
X0530610Y0210520D01*
G75*
G02*
X0531516Y0211425I0000906J0000000D01*
G01*
X0534233Y0211425D01*
G75*
G02*
X0535138Y0210520I0000000J-000906D01*
G01*
X0535138Y0205244D01*
G75*
G02*
X0534233Y0204339I-000906J0000000D01*
G01*
G37*
G36*
G01*
X0522815Y0214181D02*
X0520099Y0214181D01*
G75*
G02*
X0519193Y0215087I0000000J0000906D01*
G01*
X0519193Y0220362D01*
G75*
G02*
X0520099Y0221268I0000906J0000000D01*
G01*
X0522815Y0221268D01*
G75*
G02*
X0523721Y0220362I0000000J-000906D01*
G01*
X0523721Y0215087D01*
G75*
G02*
X0522815Y0214181I-000906J0000000D01*
G01*
G37*
G36*
G01*
X0534233Y0214181D02*
X0531516Y0214181D01*
G75*
G02*
X0530610Y0215087I0000000J0000906D01*
G01*
X0530610Y0220362D01*
G75*
G02*
X0531516Y0221268I0000906J0000000D01*
G01*
X0534233Y0221268D01*
G75*
G02*
X0535138Y0220362I0000000J-000906D01*
G01*
X0535138Y0215087D01*
G75*
G02*
X0534233Y0214181I-000906J0000000D01*
G01*
G37*
G36*
G01*
X0544882Y0207862D02*
X0544882Y0205146D01*
G75*
G02*
X0543977Y0204240I-000906J0000000D01*
G01*
X0538701Y0204240D01*
G75*
G02*
X0537795Y0205146I0000000J0000906D01*
G01*
X0537795Y0207862D01*
G75*
G02*
X0538701Y0208768I0000906J0000000D01*
G01*
X0543977Y0208768D01*
G75*
G02*
X0544882Y0207862I0000000J-000906D01*
G01*
G37*
G36*
G01*
X0544882Y0219280D02*
X0544882Y0216563D01*
G75*
G02*
X0543977Y0215658I-000906J0000000D01*
G01*
X0538701Y0215658D01*
G75*
G02*
X0537795Y0216563I0000000J0000906D01*
G01*
X0537795Y0219280D01*
G75*
G02*
X0538701Y0220185I0000906J0000000D01*
G01*
X0543977Y0220185D01*
G75*
G02*
X0544882Y0219280I0000000J-000906D01*
G01*
G37*
G36*
G01*
X0529508Y0223630D02*
X0526792Y0223630D01*
G75*
G02*
X0525886Y0224536I0000000J0000906D01*
G01*
X0525886Y0229811D01*
G75*
G02*
X0526792Y0230717I0000906J0000000D01*
G01*
X0529508Y0230717D01*
G75*
G02*
X0530414Y0229811I0000000J-000906D01*
G01*
X0530414Y0224536D01*
G75*
G02*
X0529508Y0223630I-000906J0000000D01*
G01*
G37*
G36*
G01*
X0540925Y0223630D02*
X0538209Y0223630D01*
G75*
G02*
X0537303Y0224536I0000000J0000906D01*
G01*
X0537303Y0229811D01*
G75*
G02*
X0538209Y0230717I0000906J0000000D01*
G01*
X0540925Y0230717D01*
G75*
G02*
X0541831Y0229811I0000000J-000906D01*
G01*
X0541831Y0224536D01*
G75*
G02*
X0540925Y0223630I-000906J0000000D01*
G01*
G37*
G36*
G01*
X0503839Y0201755D02*
X0503839Y0203773D01*
G75*
G02*
X0504700Y0204634I0000861J0000000D01*
G01*
X0506422Y0204634D01*
G75*
G02*
X0507284Y0203773I0000000J-000861D01*
G01*
X0507284Y0201755D01*
G75*
G02*
X0506422Y0200894I-000861J0000000D01*
G01*
X0504700Y0200894D01*
G75*
G02*
X0503839Y0201755I0000000J0000861D01*
G01*
G37*
G36*
G01*
X0510040Y0201755D02*
X0510040Y0203773D01*
G75*
G02*
X0510901Y0204634I0000861J0000000D01*
G01*
X0512623Y0204634D01*
G75*
G02*
X0513484Y0203773I0000000J-000861D01*
G01*
X0513484Y0201755D01*
G75*
G02*
X0512623Y0200894I-000861J0000000D01*
G01*
X0510901Y0200894D01*
G75*
G02*
X0510040Y0201755I0000000J0000861D01*
G01*
G37*
G36*
G01*
X0497894Y0208717D02*
X0497894Y0211394D01*
G75*
G02*
X0498229Y0211729I0000335J0000000D01*
G01*
X0500906Y0211729D01*
G75*
G02*
X0501240Y0211394I0000000J-000335D01*
G01*
X0501240Y0208717D01*
G75*
G02*
X0500906Y0208382I-000335J0000000D01*
G01*
X0498229Y0208382D01*
G75*
G02*
X0497894Y0208717I0000000J0000335D01*
G01*
G37*
G36*
G01*
X0491673Y0208717D02*
X0491673Y0211394D01*
G75*
G02*
X0492008Y0211729I0000335J0000000D01*
G01*
X0494685Y0211729D01*
G75*
G02*
X0495020Y0211394I0000000J-000335D01*
G01*
X0495020Y0208717D01*
G75*
G02*
X0494685Y0208382I-000335J0000000D01*
G01*
X0492008Y0208382D01*
G75*
G02*
X0491673Y0208717I0000000J0000335D01*
G01*
G37*
G36*
G01*
X0491673Y0214024D02*
X0491673Y0216701D01*
G75*
G02*
X0492008Y0217036I0000335J0000000D01*
G01*
X0494685Y0217036D01*
G75*
G02*
X0495020Y0216701I0000000J-000335D01*
G01*
X0495020Y0214024D01*
G75*
G02*
X0494685Y0213689I-000335J0000000D01*
G01*
X0492008Y0213689D01*
G75*
G02*
X0491673Y0214024I0000000J0000335D01*
G01*
G37*
G36*
G01*
X0497894Y0214024D02*
X0497894Y0216701D01*
G75*
G02*
X0498229Y0217036I0000335J0000000D01*
G01*
X0500906Y0217036D01*
G75*
G02*
X0501240Y0216701I0000000J-000335D01*
G01*
X0501240Y0214024D01*
G75*
G02*
X0500906Y0213689I-000335J0000000D01*
G01*
X0498229Y0213689D01*
G75*
G02*
X0497894Y0214024I0000000J0000335D01*
G01*
G37*
G36*
G01*
X0517087Y0207823D02*
X0514410Y0207823D01*
G75*
G02*
X0514075Y0208158I0000000J0000335D01*
G01*
X0514075Y0210835D01*
G75*
G02*
X0514410Y0211169I0000335J0000000D01*
G01*
X0517087Y0211169D01*
G75*
G02*
X0517421Y0210835I0000000J-000335D01*
G01*
X0517421Y0208158D01*
G75*
G02*
X0517087Y0207823I-000335J0000000D01*
G01*
G37*
G36*
G01*
X0517087Y0214043D02*
X0514410Y0214043D01*
G75*
G02*
X0514075Y0214378I0000000J0000335D01*
G01*
X0514075Y0217055D01*
G75*
G02*
X0514410Y0217390I0000335J0000000D01*
G01*
X0517087Y0217390D01*
G75*
G02*
X0517421Y0217055I0000000J-000335D01*
G01*
X0517421Y0214378D01*
G75*
G02*
X0517087Y0214043I-000335J0000000D01*
G01*
G37*
X0081496Y0158965D02*
%LPD*%
G01*
G36*
G01*
X0117205Y0091357D02*
X0117205Y0092715D01*
G75*
G02*
X0117785Y0093296I0000581J0000000D01*
G01*
X0118947Y0093296D01*
G75*
G02*
X0119527Y0092715I0000000J-000581D01*
G01*
X0119527Y0091357D01*
G75*
G02*
X0118947Y0090776I-000581J0000000D01*
G01*
X0117785Y0090776D01*
G75*
G02*
X0117205Y0091357I0000000J0000581D01*
G01*
G37*
G36*
G01*
X0121024Y0091357D02*
X0121024Y0092715D01*
G75*
G02*
X0121604Y0093296I0000581J0000000D01*
G01*
X0122766Y0093296D01*
G75*
G02*
X0123346Y0092715I0000000J-000581D01*
G01*
X0123346Y0091357D01*
G75*
G02*
X0122766Y0090776I-000581J0000000D01*
G01*
X0121604Y0090776D01*
G75*
G02*
X0121024Y0091357I0000000J0000581D01*
G01*
G37*
G36*
G01*
X0101781Y0149930D02*
X0103140Y0149930D01*
G75*
G02*
X0103720Y0149349I0000000J-000581D01*
G01*
X0103720Y0148187D01*
G75*
G02*
X0103140Y0147607I-000581J0000000D01*
G01*
X0101781Y0147607D01*
G75*
G02*
X0101201Y0148187I0000000J0000581D01*
G01*
X0101201Y0149349D01*
G75*
G02*
X0101781Y0149930I0000581J0000000D01*
G01*
G37*
G36*
G01*
X0101781Y0146111D02*
X0103140Y0146111D01*
G75*
G02*
X0103720Y0145530I0000000J-000581D01*
G01*
X0103720Y0144369D01*
G75*
G02*
X0103140Y0143788I-000581J0000000D01*
G01*
X0101781Y0143788D01*
G75*
G02*
X0101201Y0144369I0000000J0000581D01*
G01*
X0101201Y0145530D01*
G75*
G02*
X0101781Y0146111I0000581J0000000D01*
G01*
G37*
G36*
G01*
X0116978Y0139403D02*
X0116978Y0137385D01*
G75*
G02*
X0116117Y0136524I-000861J0000000D01*
G01*
X0114395Y0136524D01*
G75*
G02*
X0113533Y0137385I0000000J0000861D01*
G01*
X0113533Y0139403D01*
G75*
G02*
X0114395Y0140264I0000861J0000000D01*
G01*
X0116117Y0140264D01*
G75*
G02*
X0116978Y0139403I0000000J-000861D01*
G01*
G37*
G36*
G01*
X0110777Y0139403D02*
X0110777Y0137385D01*
G75*
G02*
X0109916Y0136524I-000861J0000000D01*
G01*
X0108194Y0136524D01*
G75*
G02*
X0107333Y0137385I0000000J0000861D01*
G01*
X0107333Y0139403D01*
G75*
G02*
X0108194Y0140264I0000861J0000000D01*
G01*
X0109916Y0140264D01*
G75*
G02*
X0110777Y0139403I0000000J-000861D01*
G01*
G37*
G36*
G01*
X0091949Y0092912D02*
X0091949Y0091554D01*
G75*
G02*
X0091368Y0090973I-000581J0000000D01*
G01*
X0090207Y0090973D01*
G75*
G02*
X0089626Y0091554I0000000J0000581D01*
G01*
X0089626Y0092912D01*
G75*
G02*
X0090207Y0093493I0000581J0000000D01*
G01*
X0091368Y0093493D01*
G75*
G02*
X0091949Y0092912I0000000J-000581D01*
G01*
G37*
G36*
G01*
X0088130Y0092912D02*
X0088130Y0091554D01*
G75*
G02*
X0087549Y0090973I-000581J0000000D01*
G01*
X0086388Y0090973D01*
G75*
G02*
X0085807Y0091554I0000000J0000581D01*
G01*
X0085807Y0092912D01*
G75*
G02*
X0086388Y0093493I0000581J0000000D01*
G01*
X0087549Y0093493D01*
G75*
G02*
X0088130Y0092912I0000000J-000581D01*
G01*
G37*
D156*
X0107776Y0144103D03*
X0115256Y0144103D03*
X0111516Y0151977D03*
G36*
G01*
X0091949Y0097095D02*
X0091949Y0095737D01*
G75*
G02*
X0091368Y0095156I-000581J0000000D01*
G01*
X0090207Y0095156D01*
G75*
G02*
X0089626Y0095737I0000000J0000581D01*
G01*
X0089626Y0097095D01*
G75*
G02*
X0090207Y0097676I0000581J0000000D01*
G01*
X0091368Y0097676D01*
G75*
G02*
X0091949Y0097095I0000000J-000581D01*
G01*
G37*
G36*
G01*
X0088130Y0097095D02*
X0088130Y0095737D01*
G75*
G02*
X0087549Y0095156I-000581J0000000D01*
G01*
X0086388Y0095156D01*
G75*
G02*
X0085807Y0095737I0000000J0000581D01*
G01*
X0085807Y0097095D01*
G75*
G02*
X0086388Y0097676I0000581J0000000D01*
G01*
X0087549Y0097676D01*
G75*
G02*
X0088130Y0097095I0000000J-000581D01*
G01*
G37*
G36*
G01*
X0115866Y0092715D02*
X0115866Y0091357D01*
G75*
G02*
X0115285Y0090776I-000581J0000000D01*
G01*
X0114124Y0090776D01*
G75*
G02*
X0113543Y0091357I0000000J0000581D01*
G01*
X0113543Y0092715D01*
G75*
G02*
X0114124Y0093296I0000581J0000000D01*
G01*
X0115285Y0093296D01*
G75*
G02*
X0115866Y0092715I0000000J-000581D01*
G01*
G37*
G36*
G01*
X0112047Y0092715D02*
X0112047Y0091357D01*
G75*
G02*
X0111466Y0090776I-000581J0000000D01*
G01*
X0110305Y0090776D01*
G75*
G02*
X0109724Y0091357I0000000J0000581D01*
G01*
X0109724Y0092715D01*
G75*
G02*
X0110305Y0093296I0000581J0000000D01*
G01*
X0111466Y0093296D01*
G75*
G02*
X0112047Y0092715I0000000J-000581D01*
G01*
G37*
G36*
G01*
X0128130Y0096475D02*
X0128130Y0097833D01*
G75*
G02*
X0128711Y0098414I0000581J0000000D01*
G01*
X0129872Y0098414D01*
G75*
G02*
X0130453Y0097833I0000000J-000581D01*
G01*
X0130453Y0096475D01*
G75*
G02*
X0129872Y0095894I-000581J0000000D01*
G01*
X0128711Y0095894D01*
G75*
G02*
X0128130Y0096475I0000000J0000581D01*
G01*
G37*
G36*
G01*
X0131949Y0096475D02*
X0131949Y0097833D01*
G75*
G02*
X0132529Y0098414I0000581J0000000D01*
G01*
X0133691Y0098414D01*
G75*
G02*
X0134272Y0097833I0000000J-000581D01*
G01*
X0134272Y0096475D01*
G75*
G02*
X0133691Y0095894I-000581J0000000D01*
G01*
X0132529Y0095894D01*
G75*
G02*
X0131949Y0096475I0000000J0000581D01*
G01*
G37*
G36*
G01*
X0101358Y0091357D02*
X0101358Y0092715D01*
G75*
G02*
X0101939Y0093296I0000581J0000000D01*
G01*
X0103100Y0093296D01*
G75*
G02*
X0103681Y0092715I0000000J-000581D01*
G01*
X0103681Y0091357D01*
G75*
G02*
X0103100Y0090776I-000581J0000000D01*
G01*
X0101939Y0090776D01*
G75*
G02*
X0101358Y0091357I0000000J0000581D01*
G01*
G37*
G36*
G01*
X0105177Y0091357D02*
X0105177Y0092715D01*
G75*
G02*
X0105758Y0093296I0000581J0000000D01*
G01*
X0106919Y0093296D01*
G75*
G02*
X0107500Y0092715I0000000J-000581D01*
G01*
X0107500Y0091357D01*
G75*
G02*
X0106919Y0090776I-000581J0000000D01*
G01*
X0105758Y0090776D01*
G75*
G02*
X0105177Y0091357I0000000J0000581D01*
G01*
G37*
G36*
G01*
X0128130Y0131121D02*
X0128130Y0132479D01*
G75*
G02*
X0128711Y0133059I0000581J0000000D01*
G01*
X0129872Y0133059D01*
G75*
G02*
X0130453Y0132479I0000000J-000581D01*
G01*
X0130453Y0131121D01*
G75*
G02*
X0129872Y0130540I-000581J0000000D01*
G01*
X0128711Y0130540D01*
G75*
G02*
X0128130Y0131121I0000000J0000581D01*
G01*
G37*
G36*
G01*
X0131949Y0131121D02*
X0131949Y0132479D01*
G75*
G02*
X0132529Y0133059I0000581J0000000D01*
G01*
X0133691Y0133059D01*
G75*
G02*
X0134272Y0132479I0000000J-000581D01*
G01*
X0134272Y0131121D01*
G75*
G02*
X0133691Y0130540I-000581J0000000D01*
G01*
X0132529Y0130540D01*
G75*
G02*
X0131949Y0131121I0000000J0000581D01*
G01*
G37*
D389*
X0121457Y0066682D03*
D154*
X0093110Y0067784D03*
X0104921Y0075658D03*
X0093110Y0083532D03*
D390*
X0096653Y0075658D03*
D389*
X0121457Y0084634D03*
G36*
G01*
X0101683Y0142154D02*
X0103041Y0142154D01*
G75*
G02*
X0103622Y0141573I0000000J-000581D01*
G01*
X0103622Y0140412D01*
G75*
G02*
X0103041Y0139831I-000581J0000000D01*
G01*
X0101683Y0139831D01*
G75*
G02*
X0101102Y0140412I0000000J0000581D01*
G01*
X0101102Y0141573D01*
G75*
G02*
X0101683Y0142154I0000581J0000000D01*
G01*
G37*
G36*
G01*
X0101683Y0138335D02*
X0103041Y0138335D01*
G75*
G02*
X0103622Y0137754I0000000J-000581D01*
G01*
X0103622Y0136593D01*
G75*
G02*
X0103041Y0136012I-000581J0000000D01*
G01*
X0101683Y0136012D01*
G75*
G02*
X0101102Y0136593I0000000J0000581D01*
G01*
X0101102Y0137754D01*
G75*
G02*
X0101683Y0138335I0000581J0000000D01*
G01*
G37*
G36*
G01*
X0088017Y0103650D02*
X0085999Y0103650D01*
G75*
G02*
X0085138Y0104511I0000000J0000861D01*
G01*
X0085138Y0106234D01*
G75*
G02*
X0085999Y0107095I0000861J0000000D01*
G01*
X0088017Y0107095D01*
G75*
G02*
X0088878Y0106234I0000000J-000861D01*
G01*
X0088878Y0104511D01*
G75*
G02*
X0088017Y0103650I-000861J0000000D01*
G01*
G37*
G36*
G01*
X0088017Y0109851D02*
X0085999Y0109851D01*
G75*
G02*
X0085138Y0110712I0000000J0000861D01*
G01*
X0085138Y0112434D01*
G75*
G02*
X0085999Y0113296I0000861J0000000D01*
G01*
X0088017Y0113296D01*
G75*
G02*
X0088878Y0112434I0000000J-000861D01*
G01*
X0088878Y0110712D01*
G75*
G02*
X0088017Y0109851I-000861J0000000D01*
G01*
G37*
G36*
G01*
X0091949Y0101278D02*
X0091949Y0099920D01*
G75*
G02*
X0091368Y0099339I-000581J0000000D01*
G01*
X0090207Y0099339D01*
G75*
G02*
X0089626Y0099920I0000000J0000581D01*
G01*
X0089626Y0101278D01*
G75*
G02*
X0090207Y0101859I0000581J0000000D01*
G01*
X0091368Y0101859D01*
G75*
G02*
X0091949Y0101278I0000000J-000581D01*
G01*
G37*
G36*
G01*
X0088130Y0101278D02*
X0088130Y0099920D01*
G75*
G02*
X0087549Y0099339I-000581J0000000D01*
G01*
X0086388Y0099339D01*
G75*
G02*
X0085807Y0099920I0000000J0000581D01*
G01*
X0085807Y0101278D01*
G75*
G02*
X0086388Y0101859I0000581J0000000D01*
G01*
X0087549Y0101859D01*
G75*
G02*
X0088130Y0101278I0000000J-000581D01*
G01*
G37*
G36*
G01*
X0087402Y0057169D02*
X0087402Y0059186D01*
G75*
G02*
X0088263Y0060048I0000861J0000000D01*
G01*
X0089985Y0060048D01*
G75*
G02*
X0090846Y0059186I0000000J-000861D01*
G01*
X0090846Y0057169D01*
G75*
G02*
X0089985Y0056308I-000861J0000000D01*
G01*
X0088263Y0056308D01*
G75*
G02*
X0087402Y0057169I0000000J0000861D01*
G01*
G37*
G36*
G01*
X0093602Y0057169D02*
X0093602Y0059186D01*
G75*
G02*
X0094464Y0060048I0000861J0000000D01*
G01*
X0096186Y0060048D01*
G75*
G02*
X0097047Y0059186I0000000J-000861D01*
G01*
X0097047Y0057169D01*
G75*
G02*
X0096186Y0056308I-000861J0000000D01*
G01*
X0094464Y0056308D01*
G75*
G02*
X0093602Y0057169I0000000J0000861D01*
G01*
G37*
G36*
G01*
X0085999Y0125008D02*
X0088017Y0125008D01*
G75*
G02*
X0088878Y0124147I0000000J-000861D01*
G01*
X0088878Y0122425D01*
G75*
G02*
X0088017Y0121563I-000861J0000000D01*
G01*
X0085999Y0121563D01*
G75*
G02*
X0085138Y0122425I0000000J0000861D01*
G01*
X0085138Y0124147D01*
G75*
G02*
X0085999Y0125008I0000861J0000000D01*
G01*
G37*
G36*
G01*
X0085999Y0118808D02*
X0088017Y0118808D01*
G75*
G02*
X0088878Y0117946I0000000J-000861D01*
G01*
X0088878Y0116224D01*
G75*
G02*
X0088017Y0115363I-000861J0000000D01*
G01*
X0085999Y0115363D01*
G75*
G02*
X0085138Y0116224I0000000J0000861D01*
G01*
X0085138Y0117946D01*
G75*
G02*
X0085999Y0118808I0000861J0000000D01*
G01*
G37*
G36*
G01*
X0090177Y0129329D02*
X0090177Y0127971D01*
G75*
G02*
X0089596Y0127390I-000581J0000000D01*
G01*
X0088435Y0127390D01*
G75*
G02*
X0087854Y0127971I0000000J0000581D01*
G01*
X0087854Y0129329D01*
G75*
G02*
X0088435Y0129910I0000581J0000000D01*
G01*
X0089596Y0129910D01*
G75*
G02*
X0090177Y0129329I0000000J-000581D01*
G01*
G37*
G36*
G01*
X0086358Y0129329D02*
X0086358Y0127971D01*
G75*
G02*
X0085777Y0127390I-000581J0000000D01*
G01*
X0084616Y0127390D01*
G75*
G02*
X0084035Y0127971I0000000J0000581D01*
G01*
X0084035Y0129329D01*
G75*
G02*
X0084616Y0129910I0000581J0000000D01*
G01*
X0085777Y0129910D01*
G75*
G02*
X0086358Y0129329I0000000J-000581D01*
G01*
G37*
G36*
G01*
X0102854Y0094890D02*
X0101870Y0094890D01*
G75*
G02*
X0101378Y0095382I0000000J0000492D01*
G01*
X0101378Y0100304D01*
G75*
G02*
X0101870Y0100796I0000492J0000000D01*
G01*
X0102854Y0100796D01*
G75*
G02*
X0103346Y0100304I0000000J-000492D01*
G01*
X0103346Y0095382D01*
G75*
G02*
X0102854Y0094890I-000492J0000000D01*
G01*
G37*
G36*
G01*
X0106004Y0094890D02*
X0105020Y0094890D01*
G75*
G02*
X0104527Y0095382I0000000J0000492D01*
G01*
X0104527Y0100304D01*
G75*
G02*
X0105020Y0100796I0000492J0000000D01*
G01*
X0106004Y0100796D01*
G75*
G02*
X0106496Y0100304I0000000J-000492D01*
G01*
X0106496Y0095382D01*
G75*
G02*
X0106004Y0094890I-000492J0000000D01*
G01*
G37*
G36*
G01*
X0109153Y0094890D02*
X0108169Y0094890D01*
G75*
G02*
X0107677Y0095382I0000000J0000492D01*
G01*
X0107677Y0100304D01*
G75*
G02*
X0108169Y0100796I0000492J0000000D01*
G01*
X0109153Y0100796D01*
G75*
G02*
X0109646Y0100304I0000000J-000492D01*
G01*
X0109646Y0095382D01*
G75*
G02*
X0109153Y0094890I-000492J0000000D01*
G01*
G37*
G36*
G01*
X0112303Y0094890D02*
X0111319Y0094890D01*
G75*
G02*
X0110827Y0095382I0000000J0000492D01*
G01*
X0110827Y0100304D01*
G75*
G02*
X0111319Y0100796I0000492J0000000D01*
G01*
X0112303Y0100796D01*
G75*
G02*
X0112795Y0100304I0000000J-000492D01*
G01*
X0112795Y0095382D01*
G75*
G02*
X0112303Y0094890I-000492J0000000D01*
G01*
G37*
G36*
G01*
X0115453Y0094890D02*
X0114468Y0094890D01*
G75*
G02*
X0113976Y0095382I0000000J0000492D01*
G01*
X0113976Y0100304D01*
G75*
G02*
X0114468Y0100796I0000492J0000000D01*
G01*
X0115453Y0100796D01*
G75*
G02*
X0115945Y0100304I0000000J-000492D01*
G01*
X0115945Y0095382D01*
G75*
G02*
X0115453Y0094890I-000492J0000000D01*
G01*
G37*
G36*
G01*
X0118602Y0094890D02*
X0117618Y0094890D01*
G75*
G02*
X0117126Y0095382I0000000J0000492D01*
G01*
X0117126Y0100304D01*
G75*
G02*
X0117618Y0100796I0000492J0000000D01*
G01*
X0118602Y0100796D01*
G75*
G02*
X0119094Y0100304I0000000J-000492D01*
G01*
X0119094Y0095382D01*
G75*
G02*
X0118602Y0094890I-000492J0000000D01*
G01*
G37*
G36*
G01*
X0121752Y0094890D02*
X0120768Y0094890D01*
G75*
G02*
X0120276Y0095382I0000000J0000492D01*
G01*
X0120276Y0100304D01*
G75*
G02*
X0120768Y0100796I0000492J0000000D01*
G01*
X0121752Y0100796D01*
G75*
G02*
X0122244Y0100304I0000000J-000492D01*
G01*
X0122244Y0095382D01*
G75*
G02*
X0121752Y0094890I-000492J0000000D01*
G01*
G37*
G36*
G01*
X0124902Y0094890D02*
X0123917Y0094890D01*
G75*
G02*
X0123425Y0095382I0000000J0000492D01*
G01*
X0123425Y0100304D01*
G75*
G02*
X0123917Y0100796I0000492J0000000D01*
G01*
X0124902Y0100796D01*
G75*
G02*
X0125394Y0100304I0000000J-000492D01*
G01*
X0125394Y0095382D01*
G75*
G02*
X0124902Y0094890I-000492J0000000D01*
G01*
G37*
G36*
G01*
X0132283Y0102272D02*
X0127362Y0102272D01*
G75*
G02*
X0126870Y0102764I0000000J0000492D01*
G01*
X0126870Y0103748D01*
G75*
G02*
X0127362Y0104241I0000492J0000000D01*
G01*
X0132283Y0104241D01*
G75*
G02*
X0132776Y0103748I0000000J-000492D01*
G01*
X0132776Y0102764D01*
G75*
G02*
X0132283Y0102272I-000492J0000000D01*
G01*
G37*
G36*
G01*
X0132283Y0105422D02*
X0127362Y0105422D01*
G75*
G02*
X0126870Y0105914I0000000J0000492D01*
G01*
X0126870Y0106898D01*
G75*
G02*
X0127362Y0107390I0000492J0000000D01*
G01*
X0132283Y0107390D01*
G75*
G02*
X0132776Y0106898I0000000J-000492D01*
G01*
X0132776Y0105914D01*
G75*
G02*
X0132283Y0105422I-000492J0000000D01*
G01*
G37*
G36*
G01*
X0132283Y0108571D02*
X0127362Y0108571D01*
G75*
G02*
X0126870Y0109063I0000000J0000492D01*
G01*
X0126870Y0110048D01*
G75*
G02*
X0127362Y0110540I0000492J0000000D01*
G01*
X0132283Y0110540D01*
G75*
G02*
X0132776Y0110048I0000000J-000492D01*
G01*
X0132776Y0109063D01*
G75*
G02*
X0132283Y0108571I-000492J0000000D01*
G01*
G37*
G36*
G01*
X0132283Y0111721D02*
X0127362Y0111721D01*
G75*
G02*
X0126870Y0112213I0000000J0000492D01*
G01*
X0126870Y0113197D01*
G75*
G02*
X0127362Y0113689I0000492J0000000D01*
G01*
X0132283Y0113689D01*
G75*
G02*
X0132776Y0113197I0000000J-000492D01*
G01*
X0132776Y0112213D01*
G75*
G02*
X0132283Y0111721I-000492J0000000D01*
G01*
G37*
G36*
G01*
X0132283Y0114871D02*
X0127362Y0114871D01*
G75*
G02*
X0126870Y0115363I0000000J0000492D01*
G01*
X0126870Y0116347D01*
G75*
G02*
X0127362Y0116839I0000492J0000000D01*
G01*
X0132283Y0116839D01*
G75*
G02*
X0132776Y0116347I0000000J-000492D01*
G01*
X0132776Y0115363D01*
G75*
G02*
X0132283Y0114871I-000492J0000000D01*
G01*
G37*
G36*
G01*
X0132283Y0118020D02*
X0127362Y0118020D01*
G75*
G02*
X0126870Y0118512I0000000J0000492D01*
G01*
X0126870Y0119496D01*
G75*
G02*
X0127362Y0119989I0000492J0000000D01*
G01*
X0132283Y0119989D01*
G75*
G02*
X0132776Y0119496I0000000J-000492D01*
G01*
X0132776Y0118512D01*
G75*
G02*
X0132283Y0118020I-000492J0000000D01*
G01*
G37*
G36*
G01*
X0132283Y0121170D02*
X0127362Y0121170D01*
G75*
G02*
X0126870Y0121662I0000000J0000492D01*
G01*
X0126870Y0122646D01*
G75*
G02*
X0127362Y0123138I0000492J0000000D01*
G01*
X0132283Y0123138D01*
G75*
G02*
X0132776Y0122646I0000000J-000492D01*
G01*
X0132776Y0121662D01*
G75*
G02*
X0132283Y0121170I-000492J0000000D01*
G01*
G37*
G36*
G01*
X0132283Y0124319D02*
X0127362Y0124319D01*
G75*
G02*
X0126870Y0124811I0000000J0000492D01*
G01*
X0126870Y0125796D01*
G75*
G02*
X0127362Y0126288I0000492J0000000D01*
G01*
X0132283Y0126288D01*
G75*
G02*
X0132776Y0125796I0000000J-000492D01*
G01*
X0132776Y0124811D01*
G75*
G02*
X0132283Y0124319I-000492J0000000D01*
G01*
G37*
G36*
G01*
X0124902Y0127764D02*
X0123917Y0127764D01*
G75*
G02*
X0123425Y0128256I0000000J0000492D01*
G01*
X0123425Y0133178D01*
G75*
G02*
X0123917Y0133670I0000492J0000000D01*
G01*
X0124902Y0133670D01*
G75*
G02*
X0125394Y0133178I0000000J-000492D01*
G01*
X0125394Y0128256D01*
G75*
G02*
X0124902Y0127764I-000492J0000000D01*
G01*
G37*
G36*
G01*
X0121752Y0127764D02*
X0120768Y0127764D01*
G75*
G02*
X0120276Y0128256I0000000J0000492D01*
G01*
X0120276Y0133178D01*
G75*
G02*
X0120768Y0133670I0000492J0000000D01*
G01*
X0121752Y0133670D01*
G75*
G02*
X0122244Y0133178I0000000J-000492D01*
G01*
X0122244Y0128256D01*
G75*
G02*
X0121752Y0127764I-000492J0000000D01*
G01*
G37*
G36*
G01*
X0118602Y0127764D02*
X0117618Y0127764D01*
G75*
G02*
X0117126Y0128256I0000000J0000492D01*
G01*
X0117126Y0133178D01*
G75*
G02*
X0117618Y0133670I0000492J0000000D01*
G01*
X0118602Y0133670D01*
G75*
G02*
X0119094Y0133178I0000000J-000492D01*
G01*
X0119094Y0128256D01*
G75*
G02*
X0118602Y0127764I-000492J0000000D01*
G01*
G37*
G36*
G01*
X0115453Y0127764D02*
X0114468Y0127764D01*
G75*
G02*
X0113976Y0128256I0000000J0000492D01*
G01*
X0113976Y0133178D01*
G75*
G02*
X0114468Y0133670I0000492J0000000D01*
G01*
X0115453Y0133670D01*
G75*
G02*
X0115945Y0133178I0000000J-000492D01*
G01*
X0115945Y0128256D01*
G75*
G02*
X0115453Y0127764I-000492J0000000D01*
G01*
G37*
G36*
G01*
X0112303Y0127764D02*
X0111319Y0127764D01*
G75*
G02*
X0110827Y0128256I0000000J0000492D01*
G01*
X0110827Y0133178D01*
G75*
G02*
X0111319Y0133670I0000492J0000000D01*
G01*
X0112303Y0133670D01*
G75*
G02*
X0112795Y0133178I0000000J-000492D01*
G01*
X0112795Y0128256D01*
G75*
G02*
X0112303Y0127764I-000492J0000000D01*
G01*
G37*
G36*
G01*
X0109153Y0127764D02*
X0108169Y0127764D01*
G75*
G02*
X0107677Y0128256I0000000J0000492D01*
G01*
X0107677Y0133178D01*
G75*
G02*
X0108169Y0133670I0000492J0000000D01*
G01*
X0109153Y0133670D01*
G75*
G02*
X0109646Y0133178I0000000J-000492D01*
G01*
X0109646Y0128256D01*
G75*
G02*
X0109153Y0127764I-000492J0000000D01*
G01*
G37*
G36*
G01*
X0106004Y0127764D02*
X0105020Y0127764D01*
G75*
G02*
X0104527Y0128256I0000000J0000492D01*
G01*
X0104527Y0133178D01*
G75*
G02*
X0105020Y0133670I0000492J0000000D01*
G01*
X0106004Y0133670D01*
G75*
G02*
X0106496Y0133178I0000000J-000492D01*
G01*
X0106496Y0128256D01*
G75*
G02*
X0106004Y0127764I-000492J0000000D01*
G01*
G37*
G36*
G01*
X0102854Y0127764D02*
X0101870Y0127764D01*
G75*
G02*
X0101378Y0128256I0000000J0000492D01*
G01*
X0101378Y0133178D01*
G75*
G02*
X0101870Y0133670I0000492J0000000D01*
G01*
X0102854Y0133670D01*
G75*
G02*
X0103346Y0133178I0000000J-000492D01*
G01*
X0103346Y0128256D01*
G75*
G02*
X0102854Y0127764I-000492J0000000D01*
G01*
G37*
G36*
G01*
X0099409Y0124319D02*
X0094488Y0124319D01*
G75*
G02*
X0093996Y0124811I0000000J0000492D01*
G01*
X0093996Y0125796D01*
G75*
G02*
X0094488Y0126288I0000492J0000000D01*
G01*
X0099409Y0126288D01*
G75*
G02*
X0099902Y0125796I0000000J-000492D01*
G01*
X0099902Y0124811D01*
G75*
G02*
X0099409Y0124319I-000492J0000000D01*
G01*
G37*
G36*
G01*
X0099409Y0121170D02*
X0094488Y0121170D01*
G75*
G02*
X0093996Y0121662I0000000J0000492D01*
G01*
X0093996Y0122646D01*
G75*
G02*
X0094488Y0123138I0000492J0000000D01*
G01*
X0099409Y0123138D01*
G75*
G02*
X0099902Y0122646I0000000J-000492D01*
G01*
X0099902Y0121662D01*
G75*
G02*
X0099409Y0121170I-000492J0000000D01*
G01*
G37*
G36*
G01*
X0099409Y0118020D02*
X0094488Y0118020D01*
G75*
G02*
X0093996Y0118512I0000000J0000492D01*
G01*
X0093996Y0119496D01*
G75*
G02*
X0094488Y0119989I0000492J0000000D01*
G01*
X0099409Y0119989D01*
G75*
G02*
X0099902Y0119496I0000000J-000492D01*
G01*
X0099902Y0118512D01*
G75*
G02*
X0099409Y0118020I-000492J0000000D01*
G01*
G37*
G36*
G01*
X0099409Y0114871D02*
X0094488Y0114871D01*
G75*
G02*
X0093996Y0115363I0000000J0000492D01*
G01*
X0093996Y0116347D01*
G75*
G02*
X0094488Y0116839I0000492J0000000D01*
G01*
X0099409Y0116839D01*
G75*
G02*
X0099902Y0116347I0000000J-000492D01*
G01*
X0099902Y0115363D01*
G75*
G02*
X0099409Y0114871I-000492J0000000D01*
G01*
G37*
G36*
G01*
X0099409Y0111721D02*
X0094488Y0111721D01*
G75*
G02*
X0093996Y0112213I0000000J0000492D01*
G01*
X0093996Y0113197D01*
G75*
G02*
X0094488Y0113689I0000492J0000000D01*
G01*
X0099409Y0113689D01*
G75*
G02*
X0099902Y0113197I0000000J-000492D01*
G01*
X0099902Y0112213D01*
G75*
G02*
X0099409Y0111721I-000492J0000000D01*
G01*
G37*
G36*
G01*
X0099409Y0108571D02*
X0094488Y0108571D01*
G75*
G02*
X0093996Y0109063I0000000J0000492D01*
G01*
X0093996Y0110048D01*
G75*
G02*
X0094488Y0110540I0000492J0000000D01*
G01*
X0099409Y0110540D01*
G75*
G02*
X0099902Y0110048I0000000J-000492D01*
G01*
X0099902Y0109063D01*
G75*
G02*
X0099409Y0108571I-000492J0000000D01*
G01*
G37*
G36*
G01*
X0099409Y0105422D02*
X0094488Y0105422D01*
G75*
G02*
X0093996Y0105914I0000000J0000492D01*
G01*
X0093996Y0106898D01*
G75*
G02*
X0094488Y0107390I0000492J0000000D01*
G01*
X0099409Y0107390D01*
G75*
G02*
X0099902Y0106898I0000000J-000492D01*
G01*
X0099902Y0105914D01*
G75*
G02*
X0099409Y0105422I-000492J0000000D01*
G01*
G37*
G36*
G01*
X0099409Y0102272D02*
X0094488Y0102272D01*
G75*
G02*
X0093996Y0102764I0000000J0000492D01*
G01*
X0093996Y0103748D01*
G75*
G02*
X0094488Y0104241I0000492J0000000D01*
G01*
X0099409Y0104241D01*
G75*
G02*
X0099902Y0103748I0000000J-000492D01*
G01*
X0099902Y0102764D01*
G75*
G02*
X0099409Y0102272I-000492J0000000D01*
G01*
G37*
G36*
G01*
X0120955Y0136898D02*
X0119596Y0136898D01*
G75*
G02*
X0119016Y0137479I0000000J0000581D01*
G01*
X0119016Y0138640D01*
G75*
G02*
X0119596Y0139221I0000581J0000000D01*
G01*
X0120955Y0139221D01*
G75*
G02*
X0121535Y0138640I0000000J-000581D01*
G01*
X0121535Y0137479D01*
G75*
G02*
X0120955Y0136898I-000581J0000000D01*
G01*
G37*
G36*
G01*
X0120955Y0140717D02*
X0119596Y0140717D01*
G75*
G02*
X0119016Y0141298I0000000J0000581D01*
G01*
X0119016Y0142459D01*
G75*
G02*
X0119596Y0143040I0000581J0000000D01*
G01*
X0120955Y0143040D01*
G75*
G02*
X0121535Y0142459I0000000J-000581D01*
G01*
X0121535Y0141298D01*
G75*
G02*
X0120955Y0140717I-000581J0000000D01*
G01*
G37*
G36*
G01*
X0097559Y0129821D02*
X0097559Y0128463D01*
G75*
G02*
X0096978Y0127882I-000581J0000000D01*
G01*
X0095817Y0127882D01*
G75*
G02*
X0095236Y0128463I0000000J0000581D01*
G01*
X0095236Y0129821D01*
G75*
G02*
X0095817Y0130402I0000581J0000000D01*
G01*
X0096978Y0130402D01*
G75*
G02*
X0097559Y0129821I0000000J-000581D01*
G01*
G37*
G36*
G01*
X0093740Y0129821D02*
X0093740Y0128463D01*
G75*
G02*
X0093159Y0127882I-000581J0000000D01*
G01*
X0091998Y0127882D01*
G75*
G02*
X0091417Y0128463I0000000J0000581D01*
G01*
X0091417Y0129821D01*
G75*
G02*
X0091998Y0130402I0000581J0000000D01*
G01*
X0093159Y0130402D01*
G75*
G02*
X0093740Y0129821I0000000J-000581D01*
G01*
G37*
G36*
G01*
X0119596Y0153465D02*
X0120955Y0153465D01*
G75*
G02*
X0121535Y0152884I0000000J-000581D01*
G01*
X0121535Y0151723D01*
G75*
G02*
X0120955Y0151142I-000581J0000000D01*
G01*
X0119596Y0151142D01*
G75*
G02*
X0119016Y0151723I0000000J0000581D01*
G01*
X0119016Y0152884D01*
G75*
G02*
X0119596Y0153465I0000581J0000000D01*
G01*
G37*
G36*
G01*
X0119596Y0149646D02*
X0120955Y0149646D01*
G75*
G02*
X0121535Y0149065I0000000J-000581D01*
G01*
X0121535Y0147904D01*
G75*
G02*
X0120955Y0147323I-000581J0000000D01*
G01*
X0119596Y0147323D01*
G75*
G02*
X0119016Y0147904I0000000J0000581D01*
G01*
X0119016Y0149065D01*
G75*
G02*
X0119596Y0149646I0000581J0000000D01*
G01*
G37*
D152*
X0125197Y0151977D03*
X0125197Y0144496D03*
X0133071Y0148237D03*
G36*
G01*
X0099429Y0092912D02*
X0099429Y0091554D01*
G75*
G02*
X0098848Y0090973I-000581J0000000D01*
G01*
X0097687Y0090973D01*
G75*
G02*
X0097106Y0091554I0000000J0000581D01*
G01*
X0097106Y0092912D01*
G75*
G02*
X0097687Y0093493I0000581J0000000D01*
G01*
X0098848Y0093493D01*
G75*
G02*
X0099429Y0092912I0000000J-000581D01*
G01*
G37*
G36*
G01*
X0095610Y0092912D02*
X0095610Y0091554D01*
G75*
G02*
X0095029Y0090973I-000581J0000000D01*
G01*
X0093868Y0090973D01*
G75*
G02*
X0093287Y0091554I0000000J0000581D01*
G01*
X0093287Y0092912D01*
G75*
G02*
X0093868Y0093493I0000581J0000000D01*
G01*
X0095029Y0093493D01*
G75*
G02*
X0095610Y0092912I0000000J-000581D01*
G01*
G37*
G36*
G01*
X0134468Y0139039D02*
X0134468Y0137021D01*
G75*
G02*
X0133607Y0136160I-000861J0000000D01*
G01*
X0131885Y0136160D01*
G75*
G02*
X0131024Y0137021I0000000J0000861D01*
G01*
X0131024Y0139039D01*
G75*
G02*
X0131885Y0139900I0000861J0000000D01*
G01*
X0133607Y0139900D01*
G75*
G02*
X0134468Y0139039I0000000J-000861D01*
G01*
G37*
G36*
G01*
X0128268Y0139039D02*
X0128268Y0137021D01*
G75*
G02*
X0127406Y0136160I-000861J0000000D01*
G01*
X0125684Y0136160D01*
G75*
G02*
X0124823Y0137021I0000000J0000861D01*
G01*
X0124823Y0139039D01*
G75*
G02*
X0125684Y0139900I0000861J0000000D01*
G01*
X0127406Y0139900D01*
G75*
G02*
X0128268Y0139039I0000000J-000861D01*
G01*
G37*
D167*
X0092323Y0154792D03*
X0088323Y0134792D03*
X0096323Y0134792D03*
D164*
X0089823Y0149792D03*
X0094823Y0149792D03*
X0089823Y0144792D03*
X0094823Y0144792D03*
X0089823Y0139792D03*
X0094823Y0139792D03*
D391*
X0131201Y0065304D03*
D392*
X0131201Y0075304D03*
X0131201Y0085304D03*
X0425000Y0232685D02*
G01*
G75*
D487*
X0301378Y0214595D02*
D03*
X0294291Y0214595D02*
D03*
X0294291Y0224634D02*
D03*
X0301378Y0224634D02*
D03*
X0413189Y0165854D02*
D03*
X0420276Y0165854D02*
D03*
X0420276Y0175894D02*
D03*
X0413189Y0175894D02*
D03*
X0413189Y0159752D02*
D03*
X0420276Y0159752D02*
D03*
X0420276Y0149712D02*
D03*
X0413189Y0149712D02*
D03*
D488*
X0301378Y0218039D02*
D03*
X0301378Y0221189D02*
D03*
X0294291Y0221189D02*
D03*
X0294291Y0218039D02*
D03*
X0420276Y0172449D02*
D03*
X0420276Y0169299D02*
D03*
X0413189Y0169299D02*
D03*
X0413189Y0172449D02*
D03*
X0413189Y0156307D02*
D03*
X0413189Y0153157D02*
D03*
X0420276Y0153157D02*
D03*
X0420276Y0156307D02*
D03*
D489*
X0305590Y0217591D02*
D03*
X0305590Y0215032D02*
D03*
X0305590Y0212472D02*
D03*
X0313070Y0217591D02*
D03*
X0313070Y0212472D02*
D03*
X0313070Y0215032D02*
D03*
X0313070Y0222216D02*
D03*
X0313070Y0227335D02*
D03*
X0305590Y0222216D02*
D03*
X0305590Y0224776D02*
D03*
X0305590Y0227335D02*
D03*
X0313070Y0224776D02*
D03*
D202*
X0372798Y0118315D02*
D03*
X0372798Y0120283D02*
D03*
X0372798Y0122252D02*
D03*
X0372798Y0124220D02*
D03*
X0372798Y0126189D02*
D03*
X0372798Y0128157D02*
D03*
X0372798Y0130126D02*
D03*
X0372798Y0132094D02*
D03*
X0372798Y0134063D02*
D03*
X0372798Y0138000D02*
D03*
X0372798Y0139969D02*
D03*
X0372798Y0141937D02*
D03*
X0372798Y0143906D02*
D03*
X0372798Y0145874D02*
D03*
X0372798Y0147843D02*
D03*
X0372798Y0149811D02*
D03*
X0372798Y0151780D02*
D03*
X0372798Y0153748D02*
D03*
X0372798Y0155717D02*
D03*
X0372798Y0157685D02*
D03*
X0372798Y0159653D02*
D03*
X0372798Y0161622D02*
D03*
X0372798Y0163590D02*
D03*
X0372798Y0165559D02*
D03*
X0311774Y0165559D02*
D03*
X0311774Y0163590D02*
D03*
X0311774Y0161622D02*
D03*
X0311774Y0159653D02*
D03*
X0311774Y0157685D02*
D03*
X0311774Y0155717D02*
D03*
X0311774Y0153748D02*
D03*
X0311774Y0151780D02*
D03*
X0311774Y0149811D02*
D03*
X0311774Y0147843D02*
D03*
X0311774Y0145874D02*
D03*
X0311774Y0143906D02*
D03*
X0311774Y0141937D02*
D03*
X0311774Y0139969D02*
D03*
X0311774Y0138000D02*
D03*
X0311774Y0136032D02*
D03*
X0311774Y0134063D02*
D03*
X0311774Y0132094D02*
D03*
X0311774Y0130126D02*
D03*
X0311774Y0128157D02*
D03*
X0311774Y0126189D02*
D03*
X0311774Y0124220D02*
D03*
X0311774Y0122252D02*
D03*
X0311774Y0118315D02*
D03*
X0372798Y0136032D02*
D03*
X0311774Y0120283D02*
D03*
D203*
X0365908Y0172449D02*
D03*
X0361971Y0172449D02*
D03*
X0360002Y0172449D02*
D03*
X0358034Y0172449D02*
D03*
X0356065Y0172449D02*
D03*
X0354097Y0172449D02*
D03*
X0352128Y0172449D02*
D03*
X0350160Y0172449D02*
D03*
X0348191Y0172449D02*
D03*
X0346223Y0172449D02*
D03*
X0344254Y0172449D02*
D03*
X0342286Y0172449D02*
D03*
X0340317Y0172449D02*
D03*
X0338349Y0172449D02*
D03*
X0336380Y0172449D02*
D03*
X0334412Y0172449D02*
D03*
X0332443Y0172449D02*
D03*
X0330475Y0172449D02*
D03*
X0328506Y0172449D02*
D03*
X0326538Y0172449D02*
D03*
X0324569Y0172449D02*
D03*
X0322601Y0172449D02*
D03*
X0320632Y0172449D02*
D03*
X0318664Y0172449D02*
D03*
X0318664Y0111425D02*
D03*
X0320632Y0111425D02*
D03*
X0322601Y0111425D02*
D03*
X0324569Y0111425D02*
D03*
X0326538Y0111425D02*
D03*
X0328506Y0111425D02*
D03*
X0330475Y0111425D02*
D03*
X0332443Y0111425D02*
D03*
X0334412Y0111425D02*
D03*
X0336380Y0111425D02*
D03*
X0338349Y0111425D02*
D03*
X0340317Y0111425D02*
D03*
X0342286Y0111425D02*
D03*
X0344254Y0111425D02*
D03*
X0346223Y0111425D02*
D03*
X0348191Y0111425D02*
D03*
X0350160Y0111425D02*
D03*
X0352128Y0111425D02*
D03*
X0354097Y0111425D02*
D03*
X0356065Y0111425D02*
D03*
X0358034Y0111425D02*
D03*
X0360002Y0111425D02*
D03*
X0361971Y0111425D02*
D03*
X0363939Y0111425D02*
D03*
X0365908Y0111425D02*
D03*
X0363939Y0172449D02*
D03*
D204*
X0369291Y0189378D02*
D03*
X0341339Y0189378D02*
D03*
X0397244Y0189378D02*
D03*
X0391732Y0194496D02*
D03*
X0363779Y0184260D02*
D03*
X0363779Y0186819D02*
D03*
X0363779Y0189378D02*
D03*
X0363779Y0191937D02*
D03*
X0363779Y0194496D02*
D03*
X0363779Y0197055D02*
D03*
X0363779Y0199614D02*
D03*
X0341339Y0184260D02*
D03*
X0341339Y0186819D02*
D03*
X0341339Y0191937D02*
D03*
X0341339Y0194496D02*
D03*
X0341339Y0197055D02*
D03*
X0341339Y0199614D02*
D03*
X0419685Y0184260D02*
D03*
X0419685Y0186819D02*
D03*
X0419685Y0189378D02*
D03*
X0419685Y0191937D02*
D03*
X0419685Y0194496D02*
D03*
X0419685Y0197055D02*
D03*
X0419685Y0199614D02*
D03*
X0397244Y0184260D02*
D03*
X0397244Y0186819D02*
D03*
X0397244Y0191937D02*
D03*
X0397244Y0194496D02*
D03*
X0397244Y0197055D02*
D03*
X0397244Y0199614D02*
D03*
X0391732Y0184260D02*
D03*
X0391732Y0186819D02*
D03*
X0391732Y0189378D02*
D03*
X0391732Y0191937D02*
D03*
X0391732Y0197055D02*
D03*
X0391732Y0199614D02*
D03*
X0369291Y0184260D02*
D03*
X0369291Y0186819D02*
D03*
X0369291Y0191937D02*
D03*
X0369291Y0194496D02*
D03*
X0369291Y0197055D02*
D03*
X0369291Y0199614D02*
D03*
X0313386Y0199614D02*
D03*
X0313386Y0197055D02*
D03*
X0313386Y0194496D02*
D03*
X0313386Y0191937D02*
D03*
X0313386Y0189378D02*
D03*
X0313386Y0186819D02*
D03*
X0313386Y0184260D02*
D03*
X0335827Y0199614D02*
D03*
X0335827Y0197055D02*
D03*
X0335827Y0194496D02*
D03*
X0335827Y0191937D02*
D03*
X0335827Y0189378D02*
D03*
X0335827Y0186819D02*
D03*
X0335827Y0184260D02*
D03*
D205*
X0314882Y0098492D02*
D03*
X0314882Y0103492D02*
D03*
X0319882Y0098492D02*
D03*
X0319882Y0103492D02*
D03*
X0324882Y0098492D02*
D03*
X0324882Y0103492D02*
D03*
D490*
X0300591Y0097252D02*
D03*
X0296850Y0097252D02*
D03*
X0304331Y0097252D02*
D03*
X0304331Y0106701D02*
D03*
X0300591Y0106701D02*
D03*
X0296850Y0106701D02*
D03*
D491*
X0299141Y0118512D02*
D03*
X0299141Y0113787D02*
D03*
X0300610Y0128059D02*
D03*
X0387150Y0101274D02*
D03*
X0373838Y0177140D02*
D03*
X0303077Y0118512D02*
D03*
X0296672Y0128059D02*
D03*
X0301972Y0165043D02*
D03*
X0298035Y0165043D02*
D03*
X0301972Y0174098D02*
D03*
X0298035Y0174098D02*
D03*
X0303077Y0113787D02*
D03*
X0383213Y0101274D02*
D03*
X0390290Y0117989D02*
D03*
X0386353Y0117989D02*
D03*
X0369901Y0177140D02*
D03*
X0369882Y0172844D02*
D03*
X0373819Y0172844D02*
D03*
D208*
X0296684Y0136694D02*
D03*
X0296684Y0138662D02*
D03*
X0302983Y0134725D02*
D03*
X0302983Y0136694D02*
D03*
X0302983Y0132757D02*
D03*
X0302983Y0138662D02*
D03*
X0296684Y0132757D02*
D03*
X0296684Y0134725D02*
D03*
D209*
X0298849Y0138859D02*
D03*
X0300818Y0138859D02*
D03*
X0300818Y0132560D02*
D03*
X0298849Y0132560D02*
D03*
D492*
X0301589Y0143709D02*
D03*
X0301589Y0160244D02*
D03*
D493*
X0330118Y0216150D02*
D03*
X0320669Y0216150D02*
D03*
X0325394Y0216150D02*
D03*
X0334842Y0216150D02*
D03*
X0320669Y0227567D02*
D03*
X0330118Y0227567D02*
D03*
X0325394Y0227567D02*
D03*
X0334842Y0227567D02*
D03*
X0341052Y0209170D02*
D03*
X0341052Y0205233D02*
D03*
X0334842Y0223630D02*
D03*
D03*
X0334842Y0219693D02*
D03*
X0330118Y0223630D02*
D03*
X0330118Y0219693D02*
D03*
X0334842Y0212213D02*
D03*
X0325394Y0223630D02*
D03*
X0325394Y0219693D02*
D03*
X0330118Y0212213D02*
D03*
X0325394Y0212213D02*
D03*
X0320669Y0223630D02*
D03*
X0320669Y0219693D02*
D03*
X0320669Y0223630D02*
D03*
X0320669Y0212213D02*
D03*
X0330118Y0223630D02*
D03*
X0325394Y0223630D02*
D03*
X0420866Y0221268D02*
D03*
X0420866Y0225205D02*
D03*
X0396260Y0223630D02*
D03*
X0396260Y0227567D02*
D03*
X0382087Y0223630D02*
D03*
X0382087Y0227567D02*
D03*
X0363189Y0219693D02*
D03*
X0363189Y0223630D02*
D03*
X0363189Y0227567D02*
D03*
X0363189Y0223630D02*
D03*
X0349016Y0219693D02*
D03*
X0349016Y0223630D02*
D03*
X0420866Y0204535D02*
D03*
X0420866Y0208472D02*
D03*
X0415157Y0223630D02*
D03*
X0415157Y0219693D02*
D03*
X0410433Y0223630D02*
D03*
X0410433Y0219693D02*
D03*
X0405709Y0223630D02*
D03*
X0405709Y0219693D02*
D03*
X0400984Y0223630D02*
D03*
X0400984Y0219693D02*
D03*
X0415157Y0223630D02*
D03*
X0415157Y0227567D02*
D03*
X0410433Y0223630D02*
D03*
X0410433Y0227567D02*
D03*
X0405709Y0223630D02*
D03*
X0405709Y0227567D02*
D03*
X0400984Y0223630D02*
D03*
X0400984Y0227567D02*
D03*
X0396260Y0223630D02*
D03*
X0396260Y0219693D02*
D03*
X0391535Y0223630D02*
D03*
X0391535Y0219693D02*
D03*
X0386811Y0223630D02*
D03*
X0386811Y0219693D02*
D03*
X0382087Y0223630D02*
D03*
X0382087Y0219693D02*
D03*
X0391535Y0223630D02*
D03*
X0391535Y0227567D02*
D03*
X0386811Y0223630D02*
D03*
X0386811Y0227567D02*
D03*
X0377362Y0219693D02*
D03*
X0377362Y0223630D02*
D03*
X0372638Y0219693D02*
D03*
X0372638Y0223630D02*
D03*
X0367913Y0219693D02*
D03*
X0367913Y0223630D02*
D03*
X0377362Y0227567D02*
D03*
X0377362Y0223630D02*
D03*
X0372638Y0227567D02*
D03*
X0372638Y0223630D02*
D03*
X0367913Y0227567D02*
D03*
X0367913Y0223630D02*
D03*
X0358464Y0219693D02*
D03*
X0358464Y0223630D02*
D03*
X0353740Y0219693D02*
D03*
X0353740Y0223630D02*
D03*
X0344291Y0219693D02*
D03*
X0344291Y0223630D02*
D03*
X0358464Y0227567D02*
D03*
X0358464Y0223630D02*
D03*
X0353740Y0227567D02*
D03*
X0353740Y0223630D02*
D03*
X0349016Y0227567D02*
D03*
X0349016Y0223630D02*
D03*
X0344291Y0227567D02*
D03*
X0344291Y0223630D02*
D03*
X0420866Y0213591D02*
D03*
X0420866Y0217528D02*
D03*
D494*
X0356102Y0210638D02*
D03*
X0375000Y0210638D02*
D03*
X0393898Y0210638D02*
D03*
X0412795Y0210638D02*
D03*
X0384449Y0206898D02*
D03*
X0384449Y0210638D02*
D03*
X0384449Y0214378D02*
D03*
X0393898Y0214378D02*
D03*
X0393898Y0206898D02*
D03*
X0403346Y0206898D02*
D03*
X0403346Y0210638D02*
D03*
X0403346Y0214378D02*
D03*
X0412795Y0214378D02*
D03*
X0412795Y0206898D02*
D03*
X0365551Y0206898D02*
D03*
X0365551Y0210638D02*
D03*
X0365551Y0214378D02*
D03*
X0375000Y0214378D02*
D03*
X0375000Y0206898D02*
D03*
X0346653Y0206898D02*
D03*
X0346653Y0210638D02*
D03*
X0346653Y0214378D02*
D03*
X0356102Y0214378D02*
D03*
X0356102Y0206898D02*
D03*
D495*
X0390087Y0113603D02*
D03*
X0372165Y0103354D02*
D03*
D214*
X0399409Y0138726D02*
D03*
X0418307Y0143726D02*
D03*
X0418307Y0128726D02*
D03*
X0418307Y0133726D02*
D03*
X0418307Y0138726D02*
D03*
X0399409Y0128726D02*
D03*
X0399409Y0133726D02*
D03*
X0399409Y0143726D02*
D03*
D496*
X0417717Y0121085D02*
D03*
X0399606Y0121085D02*
D03*
D497*
X0383255Y0152611D02*
D03*
X0399464Y0153159D02*
D03*
X0382778Y0160771D02*
D03*
X0382778Y0168382D02*
D03*
X0399464Y0160771D02*
D03*
X0399464Y0168382D02*
D03*
X0382778Y0175994D02*
D03*
X0399464Y0175994D02*
D03*
X0389948Y0152611D02*
D03*
X0389471Y0160771D02*
D03*
X0389471Y0168382D02*
D03*
X0389471Y0175994D02*
D03*
X0406157Y0160771D02*
D03*
X0406157Y0153159D02*
D03*
X0389948Y0144634D02*
D03*
X0383255Y0144634D02*
D03*
X0383255Y0137547D02*
D03*
X0389948Y0137547D02*
D03*
X0389948Y0130461D02*
D03*
X0383255Y0130461D02*
D03*
X0383255Y0123374D02*
D03*
X0389948Y0123374D02*
D03*
X0406157Y0168382D02*
D03*
X0406157Y0175994D02*
D03*
X0383255Y0095874D02*
D03*
X0389948Y0095874D02*
D03*
D498*
X0296581Y0123287D02*
D03*
X0302881Y0123287D02*
D03*
X0303941Y0169728D02*
D03*
X0297641Y0169728D02*
D03*
D499*
X0337206Y0100345D02*
D03*
X0353741Y0100345D02*
D03*
D495*
X0372165Y0095874D02*
D03*
X0362913Y0099614D02*
D03*
X0390087Y0106123D02*
D03*
X0380835Y0109863D02*
D03*
D500*
X0408661Y0096675D02*
D03*
D501*
X0408661Y0121085D02*
D03*
D221*
X0339370Y0223630D02*
D03*
X0420276Y0229535D02*
D03*
D502*
X0302179Y0205888D02*
D03*
X0302179Y0188172D02*
D03*
D223*
X0347087Y0178551D02*
D03*
X0332874Y0178551D02*
D03*
X0362874Y0178551D02*
D03*
D224*
X0309882Y0100992D02*
D03*
X0329882Y0104992D02*
D03*
X0329882Y0096992D02*
D03*
D37*
X0420669Y0095283D02*
D03*
X0016437Y0139378D02*
%LPD*%
G01*
G36*
G01*
X0052146Y0071770D02*
X0052146Y0073128D01*
G75*
G02*
X0052726Y0073709I0000581J0000000D01*
G01*
X0053888Y0073709D01*
G75*
G02*
X0054468Y0073128I0000000J-000581D01*
G01*
X0054468Y0071770D01*
G75*
G02*
X0053888Y0071189I-000581J0000000D01*
G01*
X0052726Y0071189D01*
G75*
G02*
X0052146Y0071770I0000000J0000581D01*
G01*
G37*
G36*
G01*
X0055965Y0071770D02*
X0055965Y0073128D01*
G75*
G02*
X0056545Y0073709I0000581J0000000D01*
G01*
X0057707Y0073709D01*
G75*
G02*
X0058287Y0073128I0000000J-000581D01*
G01*
X0058287Y0071770D01*
G75*
G02*
X0057707Y0071189I-000581J0000000D01*
G01*
X0056545Y0071189D01*
G75*
G02*
X0055965Y0071770I0000000J0000581D01*
G01*
G37*
G36*
G01*
X0036722Y0130343D02*
X0038081Y0130343D01*
G75*
G02*
X0038661Y0129762I0000000J-000581D01*
G01*
X0038661Y0128600D01*
G75*
G02*
X0038081Y0128020I-000581J0000000D01*
G01*
X0036722Y0128020D01*
G75*
G02*
X0036142Y0128600I0000000J0000581D01*
G01*
X0036142Y0129762D01*
G75*
G02*
X0036722Y0130343I0000581J0000000D01*
G01*
G37*
G36*
G01*
X0036722Y0126524D02*
X0038081Y0126524D01*
G75*
G02*
X0038661Y0125943I0000000J-000581D01*
G01*
X0038661Y0124782D01*
G75*
G02*
X0038081Y0124201I-000581J0000000D01*
G01*
X0036722Y0124201D01*
G75*
G02*
X0036142Y0124782I0000000J0000581D01*
G01*
X0036142Y0125943D01*
G75*
G02*
X0036722Y0126524I0000581J0000000D01*
G01*
G37*
G36*
G01*
X0051919Y0119816D02*
X0051919Y0117798D01*
G75*
G02*
X0051058Y0116937I-000861J0000000D01*
G01*
X0049336Y0116937D01*
G75*
G02*
X0048474Y0117798I0000000J0000861D01*
G01*
X0048474Y0119816D01*
G75*
G02*
X0049336Y0120677I0000861J0000000D01*
G01*
X0051058Y0120677D01*
G75*
G02*
X0051919Y0119816I0000000J-000861D01*
G01*
G37*
G36*
G01*
X0045718Y0119816D02*
X0045718Y0117798D01*
G75*
G02*
X0044857Y0116937I-000861J0000000D01*
G01*
X0043135Y0116937D01*
G75*
G02*
X0042274Y0117798I0000000J0000861D01*
G01*
X0042274Y0119816D01*
G75*
G02*
X0043135Y0120677I0000861J0000000D01*
G01*
X0044857Y0120677D01*
G75*
G02*
X0045718Y0119816I0000000J-000861D01*
G01*
G37*
G36*
G01*
X0026890Y0073325D02*
X0026890Y0071967D01*
G75*
G02*
X0026309Y0071386I-000581J0000000D01*
G01*
X0025148Y0071386D01*
G75*
G02*
X0024567Y0071967I0000000J0000581D01*
G01*
X0024567Y0073325D01*
G75*
G02*
X0025148Y0073906I0000581J0000000D01*
G01*
X0026309Y0073906D01*
G75*
G02*
X0026890Y0073325I0000000J-000581D01*
G01*
G37*
G36*
G01*
X0023071Y0073325D02*
X0023071Y0071967D01*
G75*
G02*
X0022490Y0071386I-000581J0000000D01*
G01*
X0021329Y0071386D01*
G75*
G02*
X0020748Y0071967I0000000J0000581D01*
G01*
X0020748Y0073325D01*
G75*
G02*
X0021329Y0073906I0000581J0000000D01*
G01*
X0022490Y0073906D01*
G75*
G02*
X0023071Y0073325I0000000J-000581D01*
G01*
G37*
D156*
X0042717Y0124516D03*
X0050197Y0124516D03*
X0046457Y0132390D03*
G36*
G01*
X0026890Y0077508D02*
X0026890Y0076150D01*
G75*
G02*
X0026309Y0075569I-000581J0000000D01*
G01*
X0025148Y0075569D01*
G75*
G02*
X0024567Y0076150I0000000J0000581D01*
G01*
X0024567Y0077508D01*
G75*
G02*
X0025148Y0078089I0000581J0000000D01*
G01*
X0026309Y0078089D01*
G75*
G02*
X0026890Y0077508I0000000J-000581D01*
G01*
G37*
G36*
G01*
X0023071Y0077508D02*
X0023071Y0076150D01*
G75*
G02*
X0022490Y0075569I-000581J0000000D01*
G01*
X0021329Y0075569D01*
G75*
G02*
X0020748Y0076150I0000000J0000581D01*
G01*
X0020748Y0077508D01*
G75*
G02*
X0021329Y0078089I0000581J0000000D01*
G01*
X0022490Y0078089D01*
G75*
G02*
X0023071Y0077508I0000000J-000581D01*
G01*
G37*
G36*
G01*
X0050807Y0073128D02*
X0050807Y0071770D01*
G75*
G02*
X0050226Y0071189I-000581J0000000D01*
G01*
X0049065Y0071189D01*
G75*
G02*
X0048484Y0071770I0000000J0000581D01*
G01*
X0048484Y0073128D01*
G75*
G02*
X0049065Y0073709I0000581J0000000D01*
G01*
X0050226Y0073709D01*
G75*
G02*
X0050807Y0073128I0000000J-000581D01*
G01*
G37*
G36*
G01*
X0046988Y0073128D02*
X0046988Y0071770D01*
G75*
G02*
X0046407Y0071189I-000581J0000000D01*
G01*
X0045246Y0071189D01*
G75*
G02*
X0044665Y0071770I0000000J0000581D01*
G01*
X0044665Y0073128D01*
G75*
G02*
X0045246Y0073709I0000581J0000000D01*
G01*
X0046407Y0073709D01*
G75*
G02*
X0046988Y0073128I0000000J-000581D01*
G01*
G37*
G36*
G01*
X0063071Y0076888D02*
X0063071Y0078246D01*
G75*
G02*
X0063652Y0078827I0000581J0000000D01*
G01*
X0064813Y0078827D01*
G75*
G02*
X0065394Y0078246I0000000J-000581D01*
G01*
X0065394Y0076888D01*
G75*
G02*
X0064813Y0076307I-000581J0000000D01*
G01*
X0063652Y0076307D01*
G75*
G02*
X0063071Y0076888I0000000J0000581D01*
G01*
G37*
G36*
G01*
X0066890Y0076888D02*
X0066890Y0078246D01*
G75*
G02*
X0067470Y0078827I0000581J0000000D01*
G01*
X0068632Y0078827D01*
G75*
G02*
X0069213Y0078246I0000000J-000581D01*
G01*
X0069213Y0076888D01*
G75*
G02*
X0068632Y0076307I-000581J0000000D01*
G01*
X0067470Y0076307D01*
G75*
G02*
X0066890Y0076888I0000000J0000581D01*
G01*
G37*
G36*
G01*
X0036299Y0071770D02*
X0036299Y0073128D01*
G75*
G02*
X0036880Y0073709I0000581J0000000D01*
G01*
X0038041Y0073709D01*
G75*
G02*
X0038622Y0073128I0000000J-000581D01*
G01*
X0038622Y0071770D01*
G75*
G02*
X0038041Y0071189I-000581J0000000D01*
G01*
X0036880Y0071189D01*
G75*
G02*
X0036299Y0071770I0000000J0000581D01*
G01*
G37*
G36*
G01*
X0040118Y0071770D02*
X0040118Y0073128D01*
G75*
G02*
X0040699Y0073709I0000581J0000000D01*
G01*
X0041860Y0073709D01*
G75*
G02*
X0042441Y0073128I0000000J-000581D01*
G01*
X0042441Y0071770D01*
G75*
G02*
X0041860Y0071189I-000581J0000000D01*
G01*
X0040699Y0071189D01*
G75*
G02*
X0040118Y0071770I0000000J0000581D01*
G01*
G37*
G36*
G01*
X0063071Y0111534D02*
X0063071Y0112892D01*
G75*
G02*
X0063652Y0113472I0000581J0000000D01*
G01*
X0064813Y0113472D01*
G75*
G02*
X0065394Y0112892I0000000J-000581D01*
G01*
X0065394Y0111534D01*
G75*
G02*
X0064813Y0110953I-000581J0000000D01*
G01*
X0063652Y0110953D01*
G75*
G02*
X0063071Y0111534I0000000J0000581D01*
G01*
G37*
G36*
G01*
X0066890Y0111534D02*
X0066890Y0112892D01*
G75*
G02*
X0067470Y0113472I0000581J0000000D01*
G01*
X0068632Y0113472D01*
G75*
G02*
X0069213Y0112892I0000000J-000581D01*
G01*
X0069213Y0111534D01*
G75*
G02*
X0068632Y0110953I-000581J0000000D01*
G01*
X0067470Y0110953D01*
G75*
G02*
X0066890Y0111534I0000000J0000581D01*
G01*
G37*
D389*
X0056398Y0047095D03*
D154*
X0028051Y0048197D03*
X0039862Y0056071D03*
X0028051Y0063945D03*
D390*
X0031594Y0056071D03*
D389*
X0056398Y0065047D03*
G36*
G01*
X0036624Y0122567D02*
X0037982Y0122567D01*
G75*
G02*
X0038563Y0121986I0000000J-000581D01*
G01*
X0038563Y0120825D01*
G75*
G02*
X0037982Y0120244I-000581J0000000D01*
G01*
X0036624Y0120244D01*
G75*
G02*
X0036043Y0120825I0000000J0000581D01*
G01*
X0036043Y0121986D01*
G75*
G02*
X0036624Y0122567I0000581J0000000D01*
G01*
G37*
G36*
G01*
X0036624Y0118748D02*
X0037982Y0118748D01*
G75*
G02*
X0038563Y0118167I0000000J-000581D01*
G01*
X0038563Y0117006D01*
G75*
G02*
X0037982Y0116425I-000581J0000000D01*
G01*
X0036624Y0116425D01*
G75*
G02*
X0036043Y0117006I0000000J0000581D01*
G01*
X0036043Y0118167D01*
G75*
G02*
X0036624Y0118748I0000581J0000000D01*
G01*
G37*
G36*
G01*
X0022958Y0084063D02*
X0020940Y0084063D01*
G75*
G02*
X0020079Y0084924I0000000J0000861D01*
G01*
X0020079Y0086647D01*
G75*
G02*
X0020940Y0087508I0000861J0000000D01*
G01*
X0022958Y0087508D01*
G75*
G02*
X0023819Y0086647I0000000J-000861D01*
G01*
X0023819Y0084924D01*
G75*
G02*
X0022958Y0084063I-000861J0000000D01*
G01*
G37*
G36*
G01*
X0022958Y0090264D02*
X0020940Y0090264D01*
G75*
G02*
X0020079Y0091125I0000000J0000861D01*
G01*
X0020079Y0092847D01*
G75*
G02*
X0020940Y0093709I0000861J0000000D01*
G01*
X0022958Y0093709D01*
G75*
G02*
X0023819Y0092847I0000000J-000861D01*
G01*
X0023819Y0091125D01*
G75*
G02*
X0022958Y0090264I-000861J0000000D01*
G01*
G37*
G36*
G01*
X0026890Y0081691D02*
X0026890Y0080333D01*
G75*
G02*
X0026309Y0079752I-000581J0000000D01*
G01*
X0025148Y0079752D01*
G75*
G02*
X0024567Y0080333I0000000J0000581D01*
G01*
X0024567Y0081691D01*
G75*
G02*
X0025148Y0082272I0000581J0000000D01*
G01*
X0026309Y0082272D01*
G75*
G02*
X0026890Y0081691I0000000J-000581D01*
G01*
G37*
G36*
G01*
X0023071Y0081691D02*
X0023071Y0080333D01*
G75*
G02*
X0022490Y0079752I-000581J0000000D01*
G01*
X0021329Y0079752D01*
G75*
G02*
X0020748Y0080333I0000000J0000581D01*
G01*
X0020748Y0081691D01*
G75*
G02*
X0021329Y0082272I0000581J0000000D01*
G01*
X0022490Y0082272D01*
G75*
G02*
X0023071Y0081691I0000000J-000581D01*
G01*
G37*
G36*
G01*
X0022343Y0037582D02*
X0022343Y0039599D01*
G75*
G02*
X0023204Y0040461I0000861J0000000D01*
G01*
X0024926Y0040461D01*
G75*
G02*
X0025787Y0039599I0000000J-000861D01*
G01*
X0025787Y0037582D01*
G75*
G02*
X0024926Y0036721I-000861J0000000D01*
G01*
X0023204Y0036721D01*
G75*
G02*
X0022343Y0037582I0000000J0000861D01*
G01*
G37*
G36*
G01*
X0028543Y0037582D02*
X0028543Y0039599D01*
G75*
G02*
X0029405Y0040461I0000861J0000000D01*
G01*
X0031127Y0040461D01*
G75*
G02*
X0031988Y0039599I0000000J-000861D01*
G01*
X0031988Y0037582D01*
G75*
G02*
X0031127Y0036721I-000861J0000000D01*
G01*
X0029405Y0036721D01*
G75*
G02*
X0028543Y0037582I0000000J0000861D01*
G01*
G37*
G36*
G01*
X0020940Y0105421D02*
X0022958Y0105421D01*
G75*
G02*
X0023819Y0104560I0000000J-000861D01*
G01*
X0023819Y0102838D01*
G75*
G02*
X0022958Y0101976I-000861J0000000D01*
G01*
X0020940Y0101976D01*
G75*
G02*
X0020079Y0102838I0000000J0000861D01*
G01*
X0020079Y0104560D01*
G75*
G02*
X0020940Y0105421I0000861J0000000D01*
G01*
G37*
G36*
G01*
X0020940Y0099221D02*
X0022958Y0099221D01*
G75*
G02*
X0023819Y0098359I0000000J-000861D01*
G01*
X0023819Y0096637D01*
G75*
G02*
X0022958Y0095776I-000861J0000000D01*
G01*
X0020940Y0095776D01*
G75*
G02*
X0020079Y0096637I0000000J0000861D01*
G01*
X0020079Y0098359D01*
G75*
G02*
X0020940Y0099221I0000861J0000000D01*
G01*
G37*
G36*
G01*
X0025118Y0109742D02*
X0025118Y0108384D01*
G75*
G02*
X0024537Y0107803I-000581J0000000D01*
G01*
X0023376Y0107803D01*
G75*
G02*
X0022795Y0108384I0000000J0000581D01*
G01*
X0022795Y0109742D01*
G75*
G02*
X0023376Y0110323I0000581J0000000D01*
G01*
X0024537Y0110323D01*
G75*
G02*
X0025118Y0109742I0000000J-000581D01*
G01*
G37*
G36*
G01*
X0021299Y0109742D02*
X0021299Y0108384D01*
G75*
G02*
X0020718Y0107803I-000581J0000000D01*
G01*
X0019557Y0107803D01*
G75*
G02*
X0018976Y0108384I0000000J0000581D01*
G01*
X0018976Y0109742D01*
G75*
G02*
X0019557Y0110323I0000581J0000000D01*
G01*
X0020718Y0110323D01*
G75*
G02*
X0021299Y0109742I0000000J-000581D01*
G01*
G37*
G36*
G01*
X0037795Y0075303D02*
X0036811Y0075303D01*
G75*
G02*
X0036319Y0075795I0000000J0000492D01*
G01*
X0036319Y0080717D01*
G75*
G02*
X0036811Y0081209I0000492J0000000D01*
G01*
X0037795Y0081209D01*
G75*
G02*
X0038287Y0080717I0000000J-000492D01*
G01*
X0038287Y0075795D01*
G75*
G02*
X0037795Y0075303I-000492J0000000D01*
G01*
G37*
G36*
G01*
X0040945Y0075303D02*
X0039961Y0075303D01*
G75*
G02*
X0039468Y0075795I0000000J0000492D01*
G01*
X0039468Y0080717D01*
G75*
G02*
X0039961Y0081209I0000492J0000000D01*
G01*
X0040945Y0081209D01*
G75*
G02*
X0041437Y0080717I0000000J-000492D01*
G01*
X0041437Y0075795D01*
G75*
G02*
X0040945Y0075303I-000492J0000000D01*
G01*
G37*
G36*
G01*
X0044094Y0075303D02*
X0043110Y0075303D01*
G75*
G02*
X0042618Y0075795I0000000J0000492D01*
G01*
X0042618Y0080717D01*
G75*
G02*
X0043110Y0081209I0000492J0000000D01*
G01*
X0044094Y0081209D01*
G75*
G02*
X0044587Y0080717I0000000J-000492D01*
G01*
X0044587Y0075795D01*
G75*
G02*
X0044094Y0075303I-000492J0000000D01*
G01*
G37*
G36*
G01*
X0047244Y0075303D02*
X0046260Y0075303D01*
G75*
G02*
X0045768Y0075795I0000000J0000492D01*
G01*
X0045768Y0080717D01*
G75*
G02*
X0046260Y0081209I0000492J0000000D01*
G01*
X0047244Y0081209D01*
G75*
G02*
X0047736Y0080717I0000000J-000492D01*
G01*
X0047736Y0075795D01*
G75*
G02*
X0047244Y0075303I-000492J0000000D01*
G01*
G37*
G36*
G01*
X0050394Y0075303D02*
X0049409Y0075303D01*
G75*
G02*
X0048917Y0075795I0000000J0000492D01*
G01*
X0048917Y0080717D01*
G75*
G02*
X0049409Y0081209I0000492J0000000D01*
G01*
X0050394Y0081209D01*
G75*
G02*
X0050886Y0080717I0000000J-000492D01*
G01*
X0050886Y0075795D01*
G75*
G02*
X0050394Y0075303I-000492J0000000D01*
G01*
G37*
G36*
G01*
X0053543Y0075303D02*
X0052559Y0075303D01*
G75*
G02*
X0052067Y0075795I0000000J0000492D01*
G01*
X0052067Y0080717D01*
G75*
G02*
X0052559Y0081209I0000492J0000000D01*
G01*
X0053543Y0081209D01*
G75*
G02*
X0054035Y0080717I0000000J-000492D01*
G01*
X0054035Y0075795D01*
G75*
G02*
X0053543Y0075303I-000492J0000000D01*
G01*
G37*
G36*
G01*
X0056693Y0075303D02*
X0055709Y0075303D01*
G75*
G02*
X0055217Y0075795I0000000J0000492D01*
G01*
X0055217Y0080717D01*
G75*
G02*
X0055709Y0081209I0000492J0000000D01*
G01*
X0056693Y0081209D01*
G75*
G02*
X0057185Y0080717I0000000J-000492D01*
G01*
X0057185Y0075795D01*
G75*
G02*
X0056693Y0075303I-000492J0000000D01*
G01*
G37*
G36*
G01*
X0059843Y0075303D02*
X0058858Y0075303D01*
G75*
G02*
X0058366Y0075795I0000000J0000492D01*
G01*
X0058366Y0080717D01*
G75*
G02*
X0058858Y0081209I0000492J0000000D01*
G01*
X0059843Y0081209D01*
G75*
G02*
X0060335Y0080717I0000000J-000492D01*
G01*
X0060335Y0075795D01*
G75*
G02*
X0059843Y0075303I-000492J0000000D01*
G01*
G37*
G36*
G01*
X0067224Y0082685D02*
X0062303Y0082685D01*
G75*
G02*
X0061811Y0083177I0000000J0000492D01*
G01*
X0061811Y0084161D01*
G75*
G02*
X0062303Y0084654I0000492J0000000D01*
G01*
X0067224Y0084654D01*
G75*
G02*
X0067717Y0084161I0000000J-000492D01*
G01*
X0067717Y0083177D01*
G75*
G02*
X0067224Y0082685I-000492J0000000D01*
G01*
G37*
G36*
G01*
X0067224Y0085835D02*
X0062303Y0085835D01*
G75*
G02*
X0061811Y0086327I0000000J0000492D01*
G01*
X0061811Y0087311D01*
G75*
G02*
X0062303Y0087803I0000492J0000000D01*
G01*
X0067224Y0087803D01*
G75*
G02*
X0067717Y0087311I0000000J-000492D01*
G01*
X0067717Y0086327D01*
G75*
G02*
X0067224Y0085835I-000492J0000000D01*
G01*
G37*
G36*
G01*
X0067224Y0088984D02*
X0062303Y0088984D01*
G75*
G02*
X0061811Y0089476I0000000J0000492D01*
G01*
X0061811Y0090461D01*
G75*
G02*
X0062303Y0090953I0000492J0000000D01*
G01*
X0067224Y0090953D01*
G75*
G02*
X0067717Y0090461I0000000J-000492D01*
G01*
X0067717Y0089476D01*
G75*
G02*
X0067224Y0088984I-000492J0000000D01*
G01*
G37*
G36*
G01*
X0067224Y0092134D02*
X0062303Y0092134D01*
G75*
G02*
X0061811Y0092626I0000000J0000492D01*
G01*
X0061811Y0093610D01*
G75*
G02*
X0062303Y0094102I0000492J0000000D01*
G01*
X0067224Y0094102D01*
G75*
G02*
X0067717Y0093610I0000000J-000492D01*
G01*
X0067717Y0092626D01*
G75*
G02*
X0067224Y0092134I-000492J0000000D01*
G01*
G37*
G36*
G01*
X0067224Y0095284D02*
X0062303Y0095284D01*
G75*
G02*
X0061811Y0095776I0000000J0000492D01*
G01*
X0061811Y0096760D01*
G75*
G02*
X0062303Y0097252I0000492J0000000D01*
G01*
X0067224Y0097252D01*
G75*
G02*
X0067717Y0096760I0000000J-000492D01*
G01*
X0067717Y0095776D01*
G75*
G02*
X0067224Y0095284I-000492J0000000D01*
G01*
G37*
G36*
G01*
X0067224Y0098433D02*
X0062303Y0098433D01*
G75*
G02*
X0061811Y0098925I0000000J0000492D01*
G01*
X0061811Y0099909D01*
G75*
G02*
X0062303Y0100402I0000492J0000000D01*
G01*
X0067224Y0100402D01*
G75*
G02*
X0067717Y0099909I0000000J-000492D01*
G01*
X0067717Y0098925D01*
G75*
G02*
X0067224Y0098433I-000492J0000000D01*
G01*
G37*
G36*
G01*
X0067224Y0101583D02*
X0062303Y0101583D01*
G75*
G02*
X0061811Y0102075I0000000J0000492D01*
G01*
X0061811Y0103059D01*
G75*
G02*
X0062303Y0103551I0000492J0000000D01*
G01*
X0067224Y0103551D01*
G75*
G02*
X0067717Y0103059I0000000J-000492D01*
G01*
X0067717Y0102075D01*
G75*
G02*
X0067224Y0101583I-000492J0000000D01*
G01*
G37*
G36*
G01*
X0067224Y0104732D02*
X0062303Y0104732D01*
G75*
G02*
X0061811Y0105224I0000000J0000492D01*
G01*
X0061811Y0106209D01*
G75*
G02*
X0062303Y0106701I0000492J0000000D01*
G01*
X0067224Y0106701D01*
G75*
G02*
X0067717Y0106209I0000000J-000492D01*
G01*
X0067717Y0105224D01*
G75*
G02*
X0067224Y0104732I-000492J0000000D01*
G01*
G37*
G36*
G01*
X0059843Y0108177D02*
X0058858Y0108177D01*
G75*
G02*
X0058366Y0108669I0000000J0000492D01*
G01*
X0058366Y0113591D01*
G75*
G02*
X0058858Y0114083I0000492J0000000D01*
G01*
X0059843Y0114083D01*
G75*
G02*
X0060335Y0113591I0000000J-000492D01*
G01*
X0060335Y0108669D01*
G75*
G02*
X0059843Y0108177I-000492J0000000D01*
G01*
G37*
G36*
G01*
X0056693Y0108177D02*
X0055709Y0108177D01*
G75*
G02*
X0055217Y0108669I0000000J0000492D01*
G01*
X0055217Y0113591D01*
G75*
G02*
X0055709Y0114083I0000492J0000000D01*
G01*
X0056693Y0114083D01*
G75*
G02*
X0057185Y0113591I0000000J-000492D01*
G01*
X0057185Y0108669D01*
G75*
G02*
X0056693Y0108177I-000492J0000000D01*
G01*
G37*
G36*
G01*
X0053543Y0108177D02*
X0052559Y0108177D01*
G75*
G02*
X0052067Y0108669I0000000J0000492D01*
G01*
X0052067Y0113591D01*
G75*
G02*
X0052559Y0114083I0000492J0000000D01*
G01*
X0053543Y0114083D01*
G75*
G02*
X0054035Y0113591I0000000J-000492D01*
G01*
X0054035Y0108669D01*
G75*
G02*
X0053543Y0108177I-000492J0000000D01*
G01*
G37*
G36*
G01*
X0050394Y0108177D02*
X0049409Y0108177D01*
G75*
G02*
X0048917Y0108669I0000000J0000492D01*
G01*
X0048917Y0113591D01*
G75*
G02*
X0049409Y0114083I0000492J0000000D01*
G01*
X0050394Y0114083D01*
G75*
G02*
X0050886Y0113591I0000000J-000492D01*
G01*
X0050886Y0108669D01*
G75*
G02*
X0050394Y0108177I-000492J0000000D01*
G01*
G37*
G36*
G01*
X0047244Y0108177D02*
X0046260Y0108177D01*
G75*
G02*
X0045768Y0108669I0000000J0000492D01*
G01*
X0045768Y0113591D01*
G75*
G02*
X0046260Y0114083I0000492J0000000D01*
G01*
X0047244Y0114083D01*
G75*
G02*
X0047736Y0113591I0000000J-000492D01*
G01*
X0047736Y0108669D01*
G75*
G02*
X0047244Y0108177I-000492J0000000D01*
G01*
G37*
G36*
G01*
X0044094Y0108177D02*
X0043110Y0108177D01*
G75*
G02*
X0042618Y0108669I0000000J0000492D01*
G01*
X0042618Y0113591D01*
G75*
G02*
X0043110Y0114083I0000492J0000000D01*
G01*
X0044094Y0114083D01*
G75*
G02*
X0044587Y0113591I0000000J-000492D01*
G01*
X0044587Y0108669D01*
G75*
G02*
X0044094Y0108177I-000492J0000000D01*
G01*
G37*
G36*
G01*
X0040945Y0108177D02*
X0039961Y0108177D01*
G75*
G02*
X0039468Y0108669I0000000J0000492D01*
G01*
X0039468Y0113591D01*
G75*
G02*
X0039961Y0114083I0000492J0000000D01*
G01*
X0040945Y0114083D01*
G75*
G02*
X0041437Y0113591I0000000J-000492D01*
G01*
X0041437Y0108669D01*
G75*
G02*
X0040945Y0108177I-000492J0000000D01*
G01*
G37*
G36*
G01*
X0037795Y0108177D02*
X0036811Y0108177D01*
G75*
G02*
X0036319Y0108669I0000000J0000492D01*
G01*
X0036319Y0113591D01*
G75*
G02*
X0036811Y0114083I0000492J0000000D01*
G01*
X0037795Y0114083D01*
G75*
G02*
X0038287Y0113591I0000000J-000492D01*
G01*
X0038287Y0108669D01*
G75*
G02*
X0037795Y0108177I-000492J0000000D01*
G01*
G37*
G36*
G01*
X0034350Y0104732D02*
X0029429Y0104732D01*
G75*
G02*
X0028937Y0105224I0000000J0000492D01*
G01*
X0028937Y0106209D01*
G75*
G02*
X0029429Y0106701I0000492J0000000D01*
G01*
X0034350Y0106701D01*
G75*
G02*
X0034843Y0106209I0000000J-000492D01*
G01*
X0034843Y0105224D01*
G75*
G02*
X0034350Y0104732I-000492J0000000D01*
G01*
G37*
G36*
G01*
X0034350Y0101583D02*
X0029429Y0101583D01*
G75*
G02*
X0028937Y0102075I0000000J0000492D01*
G01*
X0028937Y0103059D01*
G75*
G02*
X0029429Y0103551I0000492J0000000D01*
G01*
X0034350Y0103551D01*
G75*
G02*
X0034843Y0103059I0000000J-000492D01*
G01*
X0034843Y0102075D01*
G75*
G02*
X0034350Y0101583I-000492J0000000D01*
G01*
G37*
G36*
G01*
X0034350Y0098433D02*
X0029429Y0098433D01*
G75*
G02*
X0028937Y0098925I0000000J0000492D01*
G01*
X0028937Y0099909D01*
G75*
G02*
X0029429Y0100402I0000492J0000000D01*
G01*
X0034350Y0100402D01*
G75*
G02*
X0034843Y0099909I0000000J-000492D01*
G01*
X0034843Y0098925D01*
G75*
G02*
X0034350Y0098433I-000492J0000000D01*
G01*
G37*
G36*
G01*
X0034350Y0095284D02*
X0029429Y0095284D01*
G75*
G02*
X0028937Y0095776I0000000J0000492D01*
G01*
X0028937Y0096760D01*
G75*
G02*
X0029429Y0097252I0000492J0000000D01*
G01*
X0034350Y0097252D01*
G75*
G02*
X0034843Y0096760I0000000J-000492D01*
G01*
X0034843Y0095776D01*
G75*
G02*
X0034350Y0095284I-000492J0000000D01*
G01*
G37*
G36*
G01*
X0034350Y0092134D02*
X0029429Y0092134D01*
G75*
G02*
X0028937Y0092626I0000000J0000492D01*
G01*
X0028937Y0093610D01*
G75*
G02*
X0029429Y0094102I0000492J0000000D01*
G01*
X0034350Y0094102D01*
G75*
G02*
X0034843Y0093610I0000000J-000492D01*
G01*
X0034843Y0092626D01*
G75*
G02*
X0034350Y0092134I-000492J0000000D01*
G01*
G37*
G36*
G01*
X0034350Y0088984D02*
X0029429Y0088984D01*
G75*
G02*
X0028937Y0089476I0000000J0000492D01*
G01*
X0028937Y0090461D01*
G75*
G02*
X0029429Y0090953I0000492J0000000D01*
G01*
X0034350Y0090953D01*
G75*
G02*
X0034843Y0090461I0000000J-000492D01*
G01*
X0034843Y0089476D01*
G75*
G02*
X0034350Y0088984I-000492J0000000D01*
G01*
G37*
G36*
G01*
X0034350Y0085835D02*
X0029429Y0085835D01*
G75*
G02*
X0028937Y0086327I0000000J0000492D01*
G01*
X0028937Y0087311D01*
G75*
G02*
X0029429Y0087803I0000492J0000000D01*
G01*
X0034350Y0087803D01*
G75*
G02*
X0034843Y0087311I0000000J-000492D01*
G01*
X0034843Y0086327D01*
G75*
G02*
X0034350Y0085835I-000492J0000000D01*
G01*
G37*
G36*
G01*
X0034350Y0082685D02*
X0029429Y0082685D01*
G75*
G02*
X0028937Y0083177I0000000J0000492D01*
G01*
X0028937Y0084161D01*
G75*
G02*
X0029429Y0084654I0000492J0000000D01*
G01*
X0034350Y0084654D01*
G75*
G02*
X0034843Y0084161I0000000J-000492D01*
G01*
X0034843Y0083177D01*
G75*
G02*
X0034350Y0082685I-000492J0000000D01*
G01*
G37*
G36*
G01*
X0055896Y0117311D02*
X0054537Y0117311D01*
G75*
G02*
X0053957Y0117892I0000000J0000581D01*
G01*
X0053957Y0119053D01*
G75*
G02*
X0054537Y0119634I0000581J0000000D01*
G01*
X0055896Y0119634D01*
G75*
G02*
X0056476Y0119053I0000000J-000581D01*
G01*
X0056476Y0117892D01*
G75*
G02*
X0055896Y0117311I-000581J0000000D01*
G01*
G37*
G36*
G01*
X0055896Y0121130D02*
X0054537Y0121130D01*
G75*
G02*
X0053957Y0121711I0000000J0000581D01*
G01*
X0053957Y0122872D01*
G75*
G02*
X0054537Y0123453I0000581J0000000D01*
G01*
X0055896Y0123453D01*
G75*
G02*
X0056476Y0122872I0000000J-000581D01*
G01*
X0056476Y0121711D01*
G75*
G02*
X0055896Y0121130I-000581J0000000D01*
G01*
G37*
G36*
G01*
X0032500Y0110234D02*
X0032500Y0108876D01*
G75*
G02*
X0031919Y0108295I-000581J0000000D01*
G01*
X0030758Y0108295D01*
G75*
G02*
X0030177Y0108876I0000000J0000581D01*
G01*
X0030177Y0110234D01*
G75*
G02*
X0030758Y0110815I0000581J0000000D01*
G01*
X0031919Y0110815D01*
G75*
G02*
X0032500Y0110234I0000000J-000581D01*
G01*
G37*
G36*
G01*
X0028681Y0110234D02*
X0028681Y0108876D01*
G75*
G02*
X0028100Y0108295I-000581J0000000D01*
G01*
X0026939Y0108295D01*
G75*
G02*
X0026358Y0108876I0000000J0000581D01*
G01*
X0026358Y0110234D01*
G75*
G02*
X0026939Y0110815I0000581J0000000D01*
G01*
X0028100Y0110815D01*
G75*
G02*
X0028681Y0110234I0000000J-000581D01*
G01*
G37*
G36*
G01*
X0054537Y0133878D02*
X0055896Y0133878D01*
G75*
G02*
X0056476Y0133297I0000000J-000581D01*
G01*
X0056476Y0132136D01*
G75*
G02*
X0055896Y0131555I-000581J0000000D01*
G01*
X0054537Y0131555D01*
G75*
G02*
X0053957Y0132136I0000000J0000581D01*
G01*
X0053957Y0133297D01*
G75*
G02*
X0054537Y0133878I0000581J0000000D01*
G01*
G37*
G36*
G01*
X0054537Y0130059D02*
X0055896Y0130059D01*
G75*
G02*
X0056476Y0129478I0000000J-000581D01*
G01*
X0056476Y0128317D01*
G75*
G02*
X0055896Y0127736I-000581J0000000D01*
G01*
X0054537Y0127736D01*
G75*
G02*
X0053957Y0128317I0000000J0000581D01*
G01*
X0053957Y0129478D01*
G75*
G02*
X0054537Y0130059I0000581J0000000D01*
G01*
G37*
D152*
X0060138Y0132390D03*
X0060138Y0124909D03*
X0068012Y0128650D03*
G36*
G01*
X0034370Y0073325D02*
X0034370Y0071967D01*
G75*
G02*
X0033789Y0071386I-000581J0000000D01*
G01*
X0032628Y0071386D01*
G75*
G02*
X0032047Y0071967I0000000J0000581D01*
G01*
X0032047Y0073325D01*
G75*
G02*
X0032628Y0073906I0000581J0000000D01*
G01*
X0033789Y0073906D01*
G75*
G02*
X0034370Y0073325I0000000J-000581D01*
G01*
G37*
G36*
G01*
X0030551Y0073325D02*
X0030551Y0071967D01*
G75*
G02*
X0029970Y0071386I-000581J0000000D01*
G01*
X0028809Y0071386D01*
G75*
G02*
X0028228Y0071967I0000000J0000581D01*
G01*
X0028228Y0073325D01*
G75*
G02*
X0028809Y0073906I0000581J0000000D01*
G01*
X0029970Y0073906D01*
G75*
G02*
X0030551Y0073325I0000000J-000581D01*
G01*
G37*
G36*
G01*
X0069409Y0119452D02*
X0069409Y0117434D01*
G75*
G02*
X0068548Y0116573I-000861J0000000D01*
G01*
X0066826Y0116573D01*
G75*
G02*
X0065965Y0117434I0000000J0000861D01*
G01*
X0065965Y0119452D01*
G75*
G02*
X0066826Y0120313I0000861J0000000D01*
G01*
X0068548Y0120313D01*
G75*
G02*
X0069409Y0119452I0000000J-000861D01*
G01*
G37*
G36*
G01*
X0063209Y0119452D02*
X0063209Y0117434D01*
G75*
G02*
X0062347Y0116573I-000861J0000000D01*
G01*
X0060625Y0116573D01*
G75*
G02*
X0059764Y0117434I0000000J0000861D01*
G01*
X0059764Y0119452D01*
G75*
G02*
X0060625Y0120313I0000861J0000000D01*
G01*
X0062347Y0120313D01*
G75*
G02*
X0063209Y0119452I0000000J-000861D01*
G01*
G37*
D167*
X0027264Y0135205D03*
X0023264Y0115205D03*
X0031264Y0115205D03*
D164*
X0024764Y0130205D03*
X0029764Y0130205D03*
X0024764Y0125205D03*
X0029764Y0125205D03*
X0024764Y0120205D03*
X0029764Y0120205D03*
D391*
X0066142Y0045717D03*
D392*
X0066142Y0055717D03*
X0066142Y0065717D03*
X0532776Y0015756D02*
G01*
G75*
D268*
X0550394Y0063787D02*
D03*
X0550394Y0031110D02*
D03*
X0604528Y0031110D02*
D03*
X0604528Y0063787D02*
D03*
D269*
X0595158Y0053551D02*
D03*
X0590827Y0053551D02*
D03*
X0586496Y0053551D02*
D03*
X0582166Y0053551D02*
D03*
X0577835Y0053551D02*
D03*
X0573504Y0053551D02*
D03*
X0569174Y0053551D02*
D03*
X0564843Y0053551D02*
D03*
D270*
X0544489Y0068354D02*
D03*
X0544489Y0074575D02*
D03*
X0539863Y0068354D02*
D03*
X0539863Y0074575D02*
D03*
D271*
X0535335Y0074614D02*
D03*
X0535335Y0068315D02*
D03*
D132*
X0546260Y0069201D02*
D03*
X0573721Y0047252D02*
D03*
X0591044Y0047252D02*
D03*
X0582284Y0047252D02*
D03*
X0552461Y0049890D02*
D03*
X0569095Y0047252D02*
D03*
X0602477Y0049926D02*
D03*
M02*
