M48
INCH,TZ
T01C0.009850
T02C0.015700
T03C0.024600
T04C0.031750
T05C0.039200
T06C0.043300
T07C0.068900
T08C0.112200
T09C0.126000
%
T01
X2136Y17224
X5522Y17539
X8809Y18365
X10108Y18346
X12254Y19015
X13061Y27814
X13179Y20039
X14439Y17499
X14616Y28680
X14813Y29645
X19419Y23070
X19695Y24015
X19715Y28562
X21624Y21357
X21821Y12283
X22195Y15570
X22234Y17499
X22982Y20137
X23120Y23169
X26821Y17932
X27175Y17499
X28691Y17125
X41959Y6476
X41978Y6751
X42155Y27616
X42293Y27854
X45285Y23483
X47943Y20354
X48947Y7204
X51506Y28779
X54360Y9251
X54626Y6859
X55246Y4928
X56909Y4665
X57372Y4665
X58228Y4665
X59104Y4665
X60248Y4932
X2293Y3188
X2687Y3188
X3081Y3188
X3474Y3188
X4401Y13657
X4801Y13657
X5699Y13657
X6093Y13657
X6486Y13657
X8799Y5147
X9193Y5147
X9587Y5147
X9980Y5147
X10907Y15616
X11307Y15616
X12205Y15616
X12598Y15616
X12992Y15616
X28051Y25432
X28051Y24960
X28051Y24487
X28051Y24015
X29232Y18838
X29232Y18523
X29232Y18208
X29232Y17893
X29232Y17578
X29232Y17263
X29232Y16948
X29232Y16633
X29232Y16318
X29232Y16003
X29232Y15688
X29232Y15373
X29232Y15058
X29232Y14743
X29232Y14113
X29232Y13562
X29232Y13247
X29232Y12932
X29232Y12617
X29232Y12302
X29232Y11987
X29232Y20531
X29232Y14428
X29390Y9153
X29705Y9153
X30020Y9153
X30335Y9153
X30650Y9153
X30965Y9153
X31280Y9153
X31594Y9153
X31831Y23090
X31909Y9153
X32224Y9153
X32303Y23090
X32539Y9153
X32776Y23090
X32854Y9153
X33248Y23090
X33720Y23090
X33730Y26952
X33730Y26558
X33799Y9153
X34114Y9153
X34193Y23090
X34429Y9153
X34665Y23090
X34744Y9153
X35059Y9153
X35138Y23090
X35374Y9153
X35610Y23090
X35689Y9153
X36004Y9153
X36083Y23090
X36319Y9153
X36555Y23090
X37028Y23090
X37500Y23090
X37972Y23090
X38012Y9153
X38445Y23090
X38917Y23090
X39075Y9153
X39390Y23090
X39469Y9153
X39862Y23090
X40335Y23090
X40807Y23090
X41280Y23090
X42224Y23090
X42382Y22106
X42382Y21712
X42382Y17499
X42382Y17106
X42382Y16712
X42382Y16318
X42382Y15924
X42382Y15531
X42382Y15137
X42382Y14743
X42382Y13720
X42382Y13405
X42382Y11554
X42382Y11003
X42382Y9153
X46398Y9054
X46791Y9054
X48937Y21121
X48937Y20649
X48937Y20176
X48937Y19704
X54616Y22641
X54616Y22247
X61575Y11889
X61575Y8464
X61929Y8464
X61949Y11889
X62323Y11889
X45163Y14536
X45799Y14808
X46184Y14594
X46613Y15235
X46949Y15275
X47539Y15078
X47795Y14802
X48326Y14684
X48622Y15078
X48130Y15275
X49311Y15275
X50886Y15275
X50866Y14802
X51158Y13691
X51133Y12644
X50845Y12322
X50770Y11269
X50886Y10157
X50886Y9369
X49882Y9842
X49876Y10487
X48630Y10427
X48720Y9960
X48240Y9792
X48523Y9369
X47355Y9791
X47183Y9095
X46791Y9054
X46397Y9054
X46491Y9736
X46002Y10046
X45685Y9659
X45255Y10056
X45634Y10445
X46358Y10520
X46791Y10472
X45806Y11788
X45177Y11788
X45163Y12707
X45163Y13562
X45805Y13339
X46830Y12755
X48277Y12362
X48326Y13109
X48836Y12676
X49834Y12087
X51791Y11141
X51858Y10209
X52263Y10157
X52067Y9369
X51476Y9763
X52616Y12237
X53022Y12195
X52606Y13024
X52203Y13289
X52280Y14726
X51645Y14317
X51412Y15157
X62469Y8470
X62216Y8622
X61929Y8464
X61574Y8464
X61908Y9466
X62013Y9740
X61800Y9983
X62313Y9433
X61573Y10912
X61574Y11889
X61948Y11889
X62322Y11889
X33740Y25806
X33713Y24160
X33691Y24989
X32969Y27513
X32960Y26756
X32923Y25954
X32886Y24148
X32854Y25648
X32538Y24176
X32486Y25998
X32451Y27385
X32323Y25688
X32146Y27519
X32090Y23985
X32002Y26778
X31998Y25885
X31848Y24457
X31802Y25506
X31437Y25491
X31189Y25090
X31057Y25896
X31004Y25570
X30994Y26288
X30974Y27371
X30924Y26999
X30884Y26649
X30663Y25991
X30354Y27519
X30285Y25944
X29971Y25520
X29852Y25806
X29754Y26310
X29732Y24847
X29689Y27359
X29666Y25550
X29597Y24176
X29301Y24235
X29118Y25505
X29106Y24006
X28779Y26879
X28303Y26887
X28061Y27056
X28051Y26643
X28035Y27538
X33730Y26558
X33730Y26952
X28051Y24015
X28051Y24487
X28051Y24959
X28051Y25432
X54488Y21141
X54488Y23109
X54449Y19802
X53622Y21219
X53465Y22282
X53347Y23109
X53110Y19802
X52717Y20708
X52677Y21692
X52126Y22322
X52087Y23109
X51693Y19802
X51457Y20511
X51378Y23109
X51292Y21202
X50866Y22755
X50355Y21889
X50118Y22834
X49961Y19802
X49646Y23109
X49328Y20627
X49055Y21495
X49055Y22834
X54616Y22247
X54616Y22641
X48937Y19704
X48937Y20176
X48937Y20648
X48937Y21121
X10532Y15679
X13462Y15604
X11792Y15560
X8426Y15560
X8616Y15327
X9896Y15271
X10207Y15271
X13230Y15117
X11639Y14889
X12337Y14797
X9709Y14734
X8776Y14597
X8504Y14305
X13544Y14202
X12907Y14156
X12530Y14114
X11223Y14039
X9986Y14035
X8465Y13759
X10551Y13678
X9262Y13553
X11211Y13493
X12258Y13484
X10501Y13375
X8426Y13277
X13549Y12480
X9233Y12312
X11038Y12022
X11977Y11792
X10477Y11791
X11270Y11790
X11513Y11584
X8327Y11564
X11172Y11506
X12549Y11199
X10414Y10991
X12498Y10902
X8357Y10777
X11851Y10761
X12504Y10592
X9071Y10574
X10453Y10501
X11453Y10442
X12128Y10289
X9154Y10285
X9887Y9984
X12853Y9966
X13154Y9958
X8347Y9586
X12985Y9379
X13570Y9354
X12686Y9345
X13351Y9088
X11709Y8950
X10862Y8904
X10349Y8834
X9449Y8834
X9148Y8834
X8847Y8834
X8546Y8834
X9941Y8830
X11477Y8454
X11260Y8198
X8305Y6123
X10054Y5906
X13307Y5866
X12894Y5718
X9961Y5619
X12313Y5580
X12038Y5580
X11762Y5580
X12874Y5403
X8298Y5383
X12313Y5275
X12038Y5275
X13288Y5078
X12993Y15616
X12599Y15616
X12205Y15616
X11307Y15616
X10907Y15616
X9981Y5147
X9587Y5147
X9193Y5147
X8800Y5147
X42224Y23090
X41748Y23059
X41516Y22869
X41280Y23090
X41043Y22889
X40807Y23090
X40571Y22889
X40335Y23090
X40098Y22889
X39862Y23090
X39626Y22889
X39390Y23090
X39154Y22889
X38917Y23090
X38681Y22889
X38445Y23090
X38209Y22889
X37972Y23090
X37736Y22889
X37500Y23090
X37264Y22889
X37028Y23090
X36791Y22889
X36555Y23090
X36319Y22889
X36083Y23090
X35846Y22889
X35610Y23090
X35374Y22889
X35138Y23090
X34902Y22889
X34665Y23090
X34429Y22889
X34193Y23090
X33957Y22889
X33720Y23090
X33484Y22889
X33248Y23090
X33012Y22889
X32776Y23090
X32539Y22889
X32303Y23090
X32067Y22889
X31831Y23090
X31516Y22932
X31523Y22397
X31950Y22203
X32401Y22193
X32843Y22186
X33316Y22188
X33821Y21141
X34131Y21141
X34378Y21614
X34976Y21411
X35272Y21402
X35115Y21131
X34998Y20449
X35253Y20181
X35350Y19640
X34911Y19640
X34451Y19760
X34451Y19428
X34451Y19133
X34457Y18842
X34127Y18158
X33582Y18162
X33720Y17578
X34350Y17657
X34420Y16825
X34435Y16439
X34783Y16633
X35017Y16833
X35274Y16400
X35967Y16099
X36565Y16082
X36912Y16378
X37687Y16203
X37669Y16758
X37679Y17305
X38387Y17178
X38342Y16379
X38368Y15614
X38390Y14804
X37687Y14764
X37687Y15049
X37687Y15334
X37687Y14463
X36899Y14147
X36912Y13862
X36944Y13564
X36894Y13082
X36490Y13031
X35860Y12553
X35483Y12565
X34547Y12421
X34222Y13021
X34014Y12818
X34032Y13345
X33674Y13392
X34225Y13576
X34431Y14719
X34654Y14948
X34700Y15631
X34991Y15642
X34504Y15850
X33835Y15850
X32969Y16039
X32775Y16253
X32571Y16457
X32369Y16659
X32372Y15846
X32819Y15381
X32832Y14680
X32456Y14778
X32579Y14310
X32781Y13773
X32541Y13547
X32347Y13149
X32539Y12893
X32640Y12510
X32680Y12204
X32382Y12302
X31878Y12504
X31822Y12805
X31878Y13367
X31731Y13612
X31988Y13995
X32006Y14486
X30778Y14878
X30468Y15192
X30650Y15413
X30685Y15933
X29232Y16003
X29232Y15688
X29232Y15373
X29232Y15058
X29232Y14743
X29232Y14428
X29232Y14114
X29371Y13836
X29232Y13562
X29232Y13247
X29232Y12932
X29232Y12617
X29232Y12302
X29232Y11988
X29589Y11900
X29372Y11656
X29681Y10954
X29685Y10019
X30058Y9975
X30060Y10260
X30433Y10019
X30335Y9153
X30650Y9153
X30965Y9153
X31280Y9153
X31594Y9153
X31909Y9153
X32224Y9153
X32539Y9153
X32854Y9153
X33445Y9350
X33799Y9153
X34114Y9153
X34429Y9153
X34744Y9153
X35059Y9153
X35374Y9153
X35689Y9153
X36004Y9153
X36319Y9153
X36831Y9192
X36737Y9847
X37135Y9883
X37480Y9838
X37759Y10140
X37701Y9385
X38012Y9153
X39075Y9153
X39469Y9153
X39830Y9177
X39822Y9640
X40052Y10085
X40133Y10958
X40573Y10735
X39387Y10423
X38924Y10104
X38967Y10955
X38524Y11003
X38039Y11431
X38031Y11716
X37963Y12076
X37960Y12372
X38690Y12273
X38681Y12657
X38690Y12982
X38351Y13310
X38690Y13690
X38674Y14042
X38694Y14337
X38377Y14019
X39372Y13591
X39375Y13147
X40551Y13291
X40531Y13812
X40532Y14201
X39707Y14666
X39407Y14627
X39384Y15080
X39384Y15367
X39384Y15654
X39384Y16070
X39384Y16356
X39366Y16780
X39366Y17088
X39366Y17377
X39142Y18117
X38862Y18212
X38550Y18607
X38848Y18927
X38848Y19493
X38855Y19779
X38764Y20440
X38967Y21185
X38799Y21417
X39099Y21452
X39724Y21616
X40020Y21616
X40646Y21411
X40932Y21411
X40768Y21128
X40664Y20452
X40823Y20183
X41003Y19606
X40527Y19606
X40041Y19760
X40041Y19428
X40041Y19133
X40048Y18842
X40811Y18620
X40807Y18243
X41610Y18235
X41583Y18569
X41878Y18137
X42357Y18094
X42382Y17499
X42382Y17106
X42382Y16712
X42382Y16318
X42382Y15925
X42382Y15531
X42382Y15137
X42382Y14743
X42343Y14114
X42382Y13720
X42382Y13405
X42382Y13031
X42254Y12548
X42343Y12184
X42382Y11554
X42098Y11444
X42382Y11003
X42361Y9841
X42382Y9153
X41358Y12421
X41232Y12716
X40363Y12231
X38371Y11939
X37494Y11491
X37362Y11102
X37024Y11173
X36601Y11495
X36161Y11594
X35420Y11516
X34892Y10580
X34752Y10301
X34681Y9994
X34419Y10684
X33588Y10655
X33396Y10330
X32652Y10676
X32726Y11524
X32432Y11524
X32141Y11524
X30955Y11466
X30925Y11003
X31200Y10472
X31226Y9568
X32336Y9441
X30020Y9153
X29705Y9153
X29390Y9153
X30584Y12057
X30740Y12296
X30512Y12588
X30295Y13015
X30736Y13013
X30834Y13697
X30318Y13986
X30042Y13432
X30031Y14641
X29232Y16318
X29232Y16633
X29232Y16948
X29232Y17263
X29232Y17578
X29232Y17893
X29232Y18208
X29232Y18523
X29232Y18838
X29751Y19452
X29311Y20058
X29232Y20531
X29803Y21129
X29803Y21448
X29803Y21766
X29803Y22084
X29803Y22403
X30167Y22729
X29449Y22772
X31045Y21941
X30912Y21362
X31476Y20452
X31709Y19748
X31695Y19428
X31700Y19140
X31701Y18842
X32488Y18620
X32497Y18207
X33007Y18592
X33297Y18808
X33297Y19381
X33260Y19767
X32656Y19633
X32156Y19640
X32496Y20186
X32375Y20852
X32692Y20852
X33038Y20852
X32028Y20863
X33839Y20452
X36055Y19767
X36053Y19368
X36053Y18929
X35971Y18545
X35244Y18567
X35295Y18285
X36437Y18153
X36761Y18145
X36783Y17653
X37193Y17933
X37264Y18762
X37241Y19133
X37254Y19428
X37264Y19928
X37559Y19665
X38228Y19620
X38028Y20162
X38099Y21038
X37868Y21618
X37158Y21411
X36866Y21411
X37008Y21121
X36885Y20452
X36239Y21572
X35911Y21623
X37906Y18614
X38105Y18208
X39718Y18158
X40252Y17539
X40252Y16778
X40252Y16017
X40251Y15255
X36568Y15308
X36772Y14983
X36610Y14095
X37689Y12995
X36890Y10372
X36446Y10468
X36353Y10738
X36150Y10375
X33644Y11717
X33586Y12000
X32013Y17533
X31634Y17184
X30547Y17329
X30596Y18058
X30908Y18026
X31371Y18158
X29836Y17851
X36158Y16796
X41644Y19340
X41606Y19805
X41888Y20127
X42379Y20166
X41781Y20718
X42047Y21030
X42382Y21712
X42382Y22106
X42362Y22691
X41791Y22499
X41594Y21616
X42254Y18808
X4026Y13720
X6956Y13645
X5286Y13601
X1920Y13601
X2110Y13368
X3390Y13312
X3701Y13312
X6724Y13158
X5133Y12930
X5831Y12838
X3203Y12775
X2270Y12638
X1998Y12346
X7038Y12243
X6401Y12197
X6024Y12155
X4717Y12080
X3480Y12076
X1959Y11800
X4045Y11719
X2756Y11594
X4705Y11534
X5752Y11525
X3995Y11416
X1920Y11318
X7043Y10521
X2727Y10353
X4532Y10063
X5471Y9833
X3971Y9832
X4764Y9831
X5007Y9625
X1821Y9605
X4666Y9547
X6043Y9240
X3908Y9032
X5992Y8943
X1851Y8818
X5345Y8802
X5998Y8633
X2565Y8615
X3947Y8542
X4947Y8483
X5622Y8330
X2648Y8326
X3381Y8025
X6347Y8007
X6648Y7999
X1841Y7627
X6479Y7420
X7064Y7395
X6180Y7386
X6845Y7129
X5203Y6991
X4356Y6945
X3843Y6875
X2943Y6875
X2642Y6875
X2341Y6875
X2040Y6875
X3435Y6871
X4971Y6495
X4754Y6239
X1799Y4164
X3548Y3947
X6801Y3907
X6388Y3759
X3455Y3660
X5807Y3621
X5532Y3621
X5256Y3621
X6368Y3444
X1792Y3424
X5807Y3316
X5532Y3316
X6782Y3119
X6487Y13657
X6093Y13657
X5699Y13657
X4801Y13657
X4401Y13657
X3475Y3188
X3081Y3188
X2687Y3188
X2294Y3188
X55247Y4928
X56910Y4665
X57372Y4665
X58229Y4665
X59105Y4665
X60248Y4932
X54626Y6859
T02
X13022Y24113
X16053Y17716
X17392Y19822
X18573Y22342
X19242Y18523
X20581Y14606
X22549Y13090
X23219Y28700
X25640Y15413
X39439Y8464
X58455Y26003
T03
X47187Y4588G85X47187Y4155
X47187Y2844G85X47187Y2607
X50589Y4588G85X50589Y4155
X50589Y2844G85X50589Y2607
X47750Y4174
X50026Y4174
T04
X992Y21377
X4057Y21527
X7549Y22592
X10581Y23261
X44616Y18828
X44929Y7450
X46429Y7450
X46545Y18828
X49367Y18250
X50731Y16886
X36287Y17795
X34709Y17795
X33287Y17795
T05
X45276Y9231
X45453Y15334
X47736Y9231
X49429Y9231
X50177Y9231
X50197Y15334
X52146Y15334
X52697Y9231
X52874Y15334
X52904Y17607
X54392Y17607
X45452Y15334
X50197Y15334
X50177Y9231
X49429Y9231
X47736Y9231
X45275Y9231
X52697Y9231
X52874Y15334
X52145Y15334
X9311Y8293
X10493Y7505
X9311Y6718
X9233Y15419
X9633Y13419
X8833Y13419
X42067Y9468
X32988Y10439
X32988Y9639
X30988Y10039
X2805Y6334
X3987Y5546
X2805Y4759
X2727Y13460
X3127Y11460
X2327Y11460
T06
X3346Y26741
X3346Y25127
X5591Y26741
X5591Y25127
X7835Y26741
X7835Y25127
X10079Y26741
X10079Y25127
X12323Y26741
X12323Y25127
X14567Y26741
X14567Y25127
X16811Y26741
X16811Y25127
X19055Y26741
X19055Y25127
X21299Y26741
X21299Y25127
X23543Y26741
X23543Y25127
X25787Y26741
X25787Y25127
X37205Y26722
X37205Y25107
X39449Y26722
X39449Y25107
X41693Y26722
X41693Y25107
X43937Y26722
X43937Y25107
X46181Y26722
X46181Y25107
X48425Y26722
X48425Y25107
X50669Y26722
X50669Y25107
X52913Y26722
X52913Y25107
X55157Y26722
X55157Y25107
X57402Y26722
X57402Y25107
X59646Y26722
X59646Y25107
X13120Y8470
X13120Y7470
X13120Y6470
X6614Y6511
X6614Y5511
X6614Y4511
T07
X25994Y4153
X25994Y1003
X26781Y2578
X27569Y4153
X27569Y1003
X28356Y2578
X29144Y4153
X29144Y1003
X29931Y2578
X30719Y4153
X30719Y1003
X31506Y2578
X32293Y4153
X32293Y1003
X33081Y2578
X33868Y4153
X33868Y1003
X34656Y2578
X35443Y4153
X35443Y1003
X36230Y2578
X37018Y4153
X37018Y1003
T08
X23435Y2381
X39577Y2381
T09
X16211Y9133
X57431Y9133
M30
