G75*
G70*
%OFA0B0*%
%FSLAX25Y25*%
%IPPOS*%
%LPD*%
%AMOC8*
5,1,8,0,0,1.08239X$1,22.5*
%
%AMM117*
21,1,0.027170,0.052760,-0.000000,0.000000,0.000000*
21,1,0.017320,0.062600,-0.000000,0.000000,0.000000*
1,1,0.009840,0.008660,-0.026380*
1,1,0.009840,-0.008660,-0.026380*
1,1,0.009840,-0.008660,0.026380*
1,1,0.009840,0.008660,0.026380*
%
%AMM184*
21,1,0.092130,0.073230,0.000000,-0.000000,180.000000*
21,1,0.069290,0.096060,0.000000,-0.000000,180.000000*
1,1,0.022840,-0.034650,0.036610*
1,1,0.022840,0.034650,0.036610*
1,1,0.022840,0.034650,-0.036610*
1,1,0.022840,-0.034650,-0.036610*
%
%AMM185*
21,1,0.100000,0.111020,0.000000,-0.000000,270.000000*
21,1,0.075590,0.135430,0.000000,-0.000000,270.000000*
1,1,0.024410,-0.055510,-0.037800*
1,1,0.024410,-0.055510,0.037800*
1,1,0.024410,0.055510,0.037800*
1,1,0.024410,0.055510,-0.037800*
%
%AMM186*
21,1,0.080320,0.083460,0.000000,-0.000000,270.000000*
21,1,0.059840,0.103940,0.000000,-0.000000,270.000000*
1,1,0.020470,-0.041730,-0.029920*
1,1,0.020470,-0.041730,0.029920*
1,1,0.020470,0.041730,0.029920*
1,1,0.020470,0.041730,-0.029920*
%
%AMM187*
21,1,0.084250,0.053540,0.000000,-0.000000,90.000000*
21,1,0.065350,0.072440,0.000000,-0.000000,90.000000*
1,1,0.018900,0.026770,0.032680*
1,1,0.018900,0.026770,-0.032680*
1,1,0.018900,-0.026770,-0.032680*
1,1,0.018900,-0.026770,0.032680*
%
%AMM188*
21,1,0.040950,0.030320,0.000000,-0.000000,0.000000*
21,1,0.028350,0.042910,0.000000,-0.000000,0.000000*
1,1,0.012600,0.014170,-0.015160*
1,1,0.012600,-0.014170,-0.015160*
1,1,0.012600,-0.014170,0.015160*
1,1,0.012600,0.014170,0.015160*
%
%AMM189*
21,1,0.027170,0.052760,0.000000,-0.000000,180.000000*
21,1,0.017320,0.062600,0.000000,-0.000000,180.000000*
1,1,0.009840,-0.008660,0.026380*
1,1,0.009840,0.008660,0.026380*
1,1,0.009840,0.008660,-0.026380*
1,1,0.009840,-0.008660,-0.026380*
%
%AMM190*
21,1,0.041340,0.026770,0.000000,-0.000000,270.000000*
21,1,0.029130,0.038980,0.000000,-0.000000,270.000000*
1,1,0.012210,-0.013390,-0.014570*
1,1,0.012210,-0.013390,0.014570*
1,1,0.012210,0.013390,0.014570*
1,1,0.012210,0.013390,-0.014570*
%
%AMM191*
21,1,0.076380,0.036220,0.000000,-0.000000,0.000000*
21,1,0.061810,0.050790,0.000000,-0.000000,0.000000*
1,1,0.014570,0.030910,-0.018110*
1,1,0.014570,-0.030910,-0.018110*
1,1,0.014570,-0.030910,0.018110*
1,1,0.014570,0.030910,0.018110*
%
%AMM192*
21,1,0.038980,0.026770,0.000000,-0.000000,270.000000*
21,1,0.026770,0.038980,0.000000,-0.000000,270.000000*
1,1,0.012210,-0.013390,-0.013390*
1,1,0.012210,-0.013390,0.013390*
1,1,0.012210,0.013390,0.013390*
1,1,0.012210,0.013390,-0.013390*
%
%AMM193*
21,1,0.021260,0.016540,0.000000,-0.000000,180.000000*
21,1,0.012600,0.025200,0.000000,-0.000000,180.000000*
1,1,0.008660,-0.006300,0.008270*
1,1,0.008660,0.006300,0.008270*
1,1,0.008660,0.006300,-0.008270*
1,1,0.008660,-0.006300,-0.008270*
%
%AMM194*
21,1,0.029130,0.018900,0.000000,-0.000000,0.000000*
21,1,0.018900,0.029130,0.000000,-0.000000,0.000000*
1,1,0.010240,0.009450,-0.009450*
1,1,0.010240,-0.009450,-0.009450*
1,1,0.010240,-0.009450,0.009450*
1,1,0.010240,0.009450,0.009450*
%
%AMM195*
21,1,0.025200,0.019680,0.000000,-0.000000,270.000000*
21,1,0.015750,0.029130,0.000000,-0.000000,270.000000*
1,1,0.009450,-0.009840,-0.007870*
1,1,0.009450,-0.009840,0.007870*
1,1,0.009450,0.009840,0.007870*
1,1,0.009450,0.009840,-0.007870*
%
%AMM196*
21,1,0.025200,0.019680,0.000000,-0.000000,180.000000*
21,1,0.015750,0.029130,0.000000,-0.000000,180.000000*
1,1,0.009450,-0.007870,0.009840*
1,1,0.009450,0.007870,0.009840*
1,1,0.009450,0.007870,-0.009840*
1,1,0.009450,-0.007870,-0.009840*
%
%AMM278*
21,1,0.029530,0.026380,-0.000000,-0.000000,90.000000*
21,1,0.020470,0.035430,-0.000000,-0.000000,90.000000*
1,1,0.009060,0.013190,0.010240*
1,1,0.009060,0.013190,-0.010240*
1,1,0.009060,-0.013190,-0.010240*
1,1,0.009060,-0.013190,0.010240*
%
%AMM279*
21,1,0.021650,0.027950,-0.000000,-0.000000,90.000000*
21,1,0.014170,0.035430,-0.000000,-0.000000,90.000000*
1,1,0.007480,0.013980,0.007090*
1,1,0.007480,0.013980,-0.007090*
1,1,0.007480,-0.013980,-0.007090*
1,1,0.007480,-0.013980,0.007090*
%
%AMM280*
21,1,0.016540,0.028980,-0.000000,-0.000000,270.000000*
21,1,0.010080,0.035430,-0.000000,-0.000000,270.000000*
1,1,0.006460,-0.014490,-0.005040*
1,1,0.006460,-0.014490,0.005040*
1,1,0.006460,0.014490,0.005040*
1,1,0.006460,0.014490,-0.005040*
%
%AMM281*
21,1,0.027560,0.030710,-0.000000,-0.000000,0.000000*
21,1,0.018900,0.039370,-0.000000,-0.000000,0.000000*
1,1,0.008660,0.009450,-0.015350*
1,1,0.008660,-0.009450,-0.015350*
1,1,0.008660,-0.009450,0.015350*
1,1,0.008660,0.009450,0.015350*
%
%AMM282*
21,1,0.031500,0.018900,-0.000000,-0.000000,270.000000*
21,1,0.022840,0.027560,-0.000000,-0.000000,270.000000*
1,1,0.008660,-0.009450,-0.011420*
1,1,0.008660,-0.009450,0.011420*
1,1,0.008660,0.009450,0.011420*
1,1,0.008660,0.009450,-0.011420*
%
%AMM283*
21,1,0.035430,0.072440,-0.000000,-0.000000,270.000000*
21,1,0.025200,0.082680,-0.000000,-0.000000,270.000000*
1,1,0.010240,-0.036220,-0.012600*
1,1,0.010240,-0.036220,0.012600*
1,1,0.010240,0.036220,0.012600*
1,1,0.010240,0.036220,-0.012600*
%
%AMM284*
21,1,0.031500,0.018900,-0.000000,-0.000000,0.000000*
21,1,0.022840,0.027560,-0.000000,-0.000000,0.000000*
1,1,0.008660,0.011420,-0.009450*
1,1,0.008660,-0.011420,-0.009450*
1,1,0.008660,-0.011420,0.009450*
1,1,0.008660,0.011420,0.009450*
%
%AMM285*
21,1,0.027560,0.030710,-0.000000,-0.000000,90.000000*
21,1,0.018900,0.039370,-0.000000,-0.000000,90.000000*
1,1,0.008660,0.015350,0.009450*
1,1,0.008660,0.015350,-0.009450*
1,1,0.008660,-0.015350,-0.009450*
1,1,0.008660,-0.015350,0.009450*
%
%AMM286*
21,1,0.039370,0.030320,-0.000000,-0.000000,90.000000*
21,1,0.028350,0.041340,-0.000000,-0.000000,90.000000*
1,1,0.011020,0.015160,0.014170*
1,1,0.011020,0.015160,-0.014170*
1,1,0.011020,-0.015160,-0.014170*
1,1,0.011020,-0.015160,0.014170*
%
%AMM287*
21,1,0.047240,0.075980,-0.000000,-0.000000,180.000000*
21,1,0.034650,0.088580,-0.000000,-0.000000,180.000000*
1,1,0.012600,-0.017320,0.037990*
1,1,0.012600,0.017320,0.037990*
1,1,0.012600,0.017320,-0.037990*
1,1,0.012600,-0.017320,-0.037990*
%
%AMM288*
21,1,0.043310,0.035430,-0.000000,-0.000000,180.000000*
21,1,0.031500,0.047240,-0.000000,-0.000000,180.000000*
1,1,0.011810,-0.015750,0.017720*
1,1,0.011810,0.015750,0.017720*
1,1,0.011810,0.015750,-0.017720*
1,1,0.011810,-0.015750,-0.017720*
%
%AMM289*
21,1,0.031500,0.030710,-0.000000,-0.000000,180.000000*
21,1,0.022050,0.040160,-0.000000,-0.000000,180.000000*
1,1,0.009450,-0.011020,0.015350*
1,1,0.009450,0.011020,0.015350*
1,1,0.009450,0.011020,-0.015350*
1,1,0.009450,-0.011020,-0.015350*
%
%AMM290*
21,1,0.035430,0.072440,-0.000000,-0.000000,180.000000*
21,1,0.025200,0.082680,-0.000000,-0.000000,180.000000*
1,1,0.010240,-0.012600,0.036220*
1,1,0.010240,0.012600,0.036220*
1,1,0.010240,0.012600,-0.036220*
1,1,0.010240,-0.012600,-0.036220*
%
%AMM291*
21,1,0.141730,0.067720,-0.000000,-0.000000,180.000000*
21,1,0.120870,0.088580,-0.000000,-0.000000,180.000000*
1,1,0.020870,-0.060430,0.033860*
1,1,0.020870,0.060430,0.033860*
1,1,0.020870,0.060430,-0.033860*
1,1,0.020870,-0.060430,-0.033860*
%
%AMM292*
21,1,0.047240,0.075990,-0.000000,-0.000000,180.000000*
21,1,0.034650,0.088580,-0.000000,-0.000000,180.000000*
1,1,0.012600,-0.017320,0.037990*
1,1,0.012600,0.017320,0.037990*
1,1,0.012600,0.017320,-0.037990*
1,1,0.012600,-0.017320,-0.037990*
%
%AMM293*
21,1,0.090550,0.073230,-0.000000,-0.000000,270.000000*
21,1,0.069290,0.094490,-0.000000,-0.000000,270.000000*
1,1,0.021260,-0.036610,-0.034650*
1,1,0.021260,-0.036610,0.034650*
1,1,0.021260,0.036610,0.034650*
1,1,0.021260,0.036610,-0.034650*
%
%AMM95*
21,1,0.084250,0.045670,0.000000,0.000000,270.000000*
21,1,0.067320,0.062600,0.000000,0.000000,270.000000*
1,1,0.016930,-0.022840,-0.033660*
1,1,0.016930,-0.022840,0.033660*
1,1,0.016930,0.022840,0.033660*
1,1,0.016930,0.022840,-0.033660*
%
%AMM96*
21,1,0.064570,0.020470,0.000000,0.000000,270.000000*
21,1,0.053940,0.031100,0.000000,0.000000,270.000000*
1,1,0.010630,-0.010240,-0.026970*
1,1,0.010630,-0.010240,0.026970*
1,1,0.010630,0.010240,0.026970*
1,1,0.010630,0.010240,-0.026970*
%
%AMM97*
21,1,0.038980,0.026770,0.000000,0.000000,90.000000*
21,1,0.026770,0.038980,0.000000,0.000000,90.000000*
1,1,0.012210,0.013390,0.013390*
1,1,0.012210,0.013390,-0.013390*
1,1,0.012210,-0.013390,-0.013390*
1,1,0.012210,-0.013390,0.013390*
%
%AMM98*
21,1,0.033070,0.030710,0.000000,0.000000,270.000000*
21,1,0.022050,0.041730,0.000000,0.000000,270.000000*
1,1,0.011020,-0.015350,-0.011020*
1,1,0.011020,-0.015350,0.011020*
1,1,0.011020,0.015350,0.011020*
1,1,0.011020,0.015350,-0.011020*
%
%ADD10C,0.06000*%
%ADD11R,0.07874X0.05906*%
%ADD12R,0.07874X0.14961*%
%ADD13C,0.22047*%
%ADD132C,0.02913*%
%ADD133C,0.06457*%
%ADD14C,0.02362*%
%ADD149R,0.02559X0.01575*%
%ADD150R,0.01575X0.02559*%
%ADD151R,0.05512X0.01181*%
%ADD152R,0.03543X0.03150*%
%ADD154C,0.05118*%
%ADD156R,0.03150X0.03543*%
%ADD164C,0.03100*%
%ADD167C,0.03900*%
%ADD202O,0.05118X0.01260*%
%ADD203O,0.01260X0.05118*%
%ADD204O,0.04724X0.01575*%
%ADD205C,0.03494*%
%ADD208R,0.01772X0.01378*%
%ADD209R,0.01378X0.01772*%
%ADD214O,0.09055X0.02756*%
%ADD221C,0.03543*%
%ADD223C,0.04724*%
%ADD224C,0.04294*%
%ADD268M95*%
%ADD269M96*%
%ADD270M97*%
%ADD271M98*%
%ADD291M117*%
%ADD360M184*%
%ADD361M185*%
%ADD362M186*%
%ADD363M187*%
%ADD364M188*%
%ADD365M189*%
%ADD366M190*%
%ADD367M191*%
%ADD368M192*%
%ADD369M193*%
%ADD37C,0.05906*%
%ADD370M194*%
%ADD371M195*%
%ADD372M196*%
%ADD389R,0.08661X0.04724*%
%ADD390R,0.25197X0.22835*%
%ADD391R,0.07874X0.07500*%
%ADD392O,0.07874X0.07500*%
%ADD47R,0.10335X0.10335*%
%ADD48C,0.10335*%
%ADD487M278*%
%ADD488M279*%
%ADD489M280*%
%ADD49C,0.06693*%
%ADD490M281*%
%ADD491M282*%
%ADD492M283*%
%ADD493M284*%
%ADD494M285*%
%ADD495M286*%
%ADD496M287*%
%ADD497M288*%
%ADD498M289*%
%ADD499M290*%
%ADD50R,0.01181X0.04528*%
%ADD500M291*%
%ADD501M292*%
%ADD502M293*%
%ADD51O,0.03937X0.08268*%
%ADD52O,0.03937X0.06299*%
%ADD65R,0.05118X0.03937*%
%ADD70C,0.00472*%
%ADD71C,0.11220*%
%ADD72C,0.02559*%
X0000000Y0000000D02*
%LPD*%
G01*
D70*
X0604479Y0319086D02*
X0553298Y0319086D01*
X0553298Y0346645D01*
X0604479Y0346645D01*
X0604479Y0319086D01*
G36*
X0604479Y0319086D02*
G01*
X0553298Y0319086D01*
X0553298Y0346645D01*
X0604479Y0346645D01*
X0604479Y0319086D01*
G37*
D10*
X0464292Y0201370D03*
G36*
G01*
X0462500Y0203830D02*
X0462500Y0198909D01*
G75*
G02*
X0462107Y0198515I-000394J0000000D01*
G01*
X0458957Y0198515D01*
G75*
G02*
X0458563Y0198909I0000000J0000394D01*
G01*
X0458563Y0203830D01*
G75*
G02*
X0458957Y0204224I0000394J0000000D01*
G01*
X0462107Y0204224D01*
G75*
G02*
X0462500Y0203830I0000000J-000394D01*
G01*
G37*
G36*
G01*
X0455020Y0203830D02*
X0455020Y0198909D01*
G75*
G02*
X0454626Y0198515I-000394J0000000D01*
G01*
X0451477Y0198515D01*
G75*
G02*
X0451083Y0198909I0000000J0000394D01*
G01*
X0451083Y0203830D01*
G75*
G02*
X0451477Y0204224I0000394J0000000D01*
G01*
X0454626Y0204224D01*
G75*
G02*
X0455020Y0203830I0000000J-000394D01*
G01*
G37*
X0449292Y0201370D03*
G36*
G01*
X0560571Y0362984D02*
X0563642Y0362984D01*
G75*
G02*
X0563918Y0362708I0000000J-000276D01*
G01*
X0563918Y0360504D01*
G75*
G02*
X0563642Y0360228I-000276J0000000D01*
G01*
X0560571Y0360228D01*
G75*
G02*
X0560296Y0360504I0000000J0000276D01*
G01*
X0560296Y0362708D01*
G75*
G02*
X0560571Y0362984I0000276J0000000D01*
G01*
G37*
G36*
G01*
X0560571Y0356685D02*
X0563642Y0356685D01*
G75*
G02*
X0563918Y0356409I0000000J-000276D01*
G01*
X0563918Y0354204D01*
G75*
G02*
X0563642Y0353929I-000276J0000000D01*
G01*
X0560571Y0353929D01*
G75*
G02*
X0560296Y0354204I0000000J0000276D01*
G01*
X0560296Y0356409D01*
G75*
G02*
X0560571Y0356685I0000276J0000000D01*
G01*
G37*
D11*
X0223524Y0358555D03*
X0223524Y0349500D03*
X0223524Y0340445D03*
D12*
X0248327Y0349500D03*
D13*
X0162107Y0218201D03*
G36*
X0191112Y0327232D02*
G01*
X0196226Y0330185D01*
X0200163Y0323366D01*
X0195049Y0320413D01*
X0191112Y0327232D01*
G37*
G36*
X0183270Y0322704D02*
G01*
X0188384Y0325657D01*
X0192321Y0318838D01*
X0187207Y0315885D01*
X0183270Y0322704D01*
G37*
G36*
X0175428Y0318177D02*
G01*
X0180542Y0321130D01*
X0184479Y0314311D01*
X0179365Y0311358D01*
X0175428Y0318177D01*
G37*
G36*
X0191751Y0298961D02*
G01*
X0204707Y0306441D01*
X0208644Y0299622D01*
X0195688Y0292141D01*
X0191751Y0298961D01*
G37*
G36*
G01*
X0503642Y0182531D02*
X0503642Y0179460D01*
G75*
G02*
X0503366Y0179185I-000276J0000000D01*
G01*
X0501162Y0179185D01*
G75*
G02*
X0500886Y0179460I0000000J0000276D01*
G01*
X0500886Y0182531D01*
G75*
G02*
X0501162Y0182807I0000276J0000000D01*
G01*
X0503366Y0182807D01*
G75*
G02*
X0503642Y0182531I0000000J-000276D01*
G01*
G37*
G36*
G01*
X0497343Y0182531D02*
X0497343Y0179460D01*
G75*
G02*
X0497067Y0179185I-000276J0000000D01*
G01*
X0494863Y0179185D01*
G75*
G02*
X0494587Y0179460I0000000J0000276D01*
G01*
X0494587Y0182531D01*
G75*
G02*
X0494863Y0182807I0000276J0000000D01*
G01*
X0497067Y0182807D01*
G75*
G02*
X0497343Y0182531I0000000J-000276D01*
G01*
G37*
G36*
X0211274Y0253317D02*
G01*
X0207098Y0249141D01*
X0201530Y0254709D01*
X0205706Y0258884D01*
X0211274Y0253317D01*
G37*
G36*
X0217677Y0259720D02*
G01*
X0213501Y0255544D01*
X0207933Y0261112D01*
X0212109Y0265287D01*
X0217677Y0259720D01*
G37*
G36*
X0224080Y0266122D02*
G01*
X0219904Y0261947D01*
X0214336Y0267514D01*
X0218512Y0271690D01*
X0224080Y0266122D01*
G37*
G36*
X0203340Y0280460D02*
G01*
X0192761Y0269881D01*
X0187193Y0275449D01*
X0197772Y0286027D01*
X0203340Y0280460D01*
G37*
G36*
G01*
X0257422Y0306980D02*
X0260492Y0306980D01*
G75*
G02*
X0260768Y0306704I0000000J-000276D01*
G01*
X0260768Y0304500D01*
G75*
G02*
X0260492Y0304224I-000276J0000000D01*
G01*
X0257422Y0304224D01*
G75*
G02*
X0257146Y0304500I0000000J0000276D01*
G01*
X0257146Y0306704D01*
G75*
G02*
X0257422Y0306980I0000276J0000000D01*
G01*
G37*
G36*
G01*
X0257422Y0300681D02*
X0260492Y0300681D01*
G75*
G02*
X0260768Y0300405I0000000J-000276D01*
G01*
X0260768Y0298201D01*
G75*
G02*
X0260492Y0297925I-000276J0000000D01*
G01*
X0257422Y0297925D01*
G75*
G02*
X0257146Y0298201I0000000J0000276D01*
G01*
X0257146Y0300405D01*
G75*
G02*
X0257422Y0300681I0000276J0000000D01*
G01*
G37*
D14*
X0615748Y0245760D03*
X0619488Y0245760D03*
X0623229Y0245760D03*
X0619292Y0211508D03*
X0615748Y0211508D03*
X0280512Y0376468D03*
X0280512Y0381193D03*
X0280512Y0371744D03*
X0280512Y0367019D03*
X0337303Y0392452D03*
X0337303Y0396389D03*
G36*
G01*
X0441398Y0360228D02*
X0438327Y0360228D01*
G75*
G02*
X0438051Y0360504I0000000J0000276D01*
G01*
X0438051Y0362708D01*
G75*
G02*
X0438327Y0362984I0000276J0000000D01*
G01*
X0441398Y0362984D01*
G75*
G02*
X0441674Y0362708I0000000J-000276D01*
G01*
X0441674Y0360504D01*
G75*
G02*
X0441398Y0360228I-000276J0000000D01*
G01*
G37*
G36*
G01*
X0441398Y0366527D02*
X0438327Y0366527D01*
G75*
G02*
X0438051Y0366803I0000000J0000276D01*
G01*
X0438051Y0369008D01*
G75*
G02*
X0438327Y0369283I0000276J0000000D01*
G01*
X0441398Y0369283D01*
G75*
G02*
X0441674Y0369008I0000000J-000276D01*
G01*
X0441674Y0366803D01*
G75*
G02*
X0441398Y0366527I-000276J0000000D01*
G01*
G37*
G36*
G01*
X0261083Y0226665D02*
X0258012Y0226665D01*
G75*
G02*
X0257737Y0226941I0000000J0000276D01*
G01*
X0257737Y0229145D01*
G75*
G02*
X0258012Y0229421I0000276J0000000D01*
G01*
X0261083Y0229421D01*
G75*
G02*
X0261359Y0229145I0000000J-000276D01*
G01*
X0261359Y0226941D01*
G75*
G02*
X0261083Y0226665I-000276J0000000D01*
G01*
G37*
G36*
G01*
X0261083Y0232964D02*
X0258012Y0232964D01*
G75*
G02*
X0257737Y0233240I0000000J0000276D01*
G01*
X0257737Y0235445D01*
G75*
G02*
X0258012Y0235720I0000276J0000000D01*
G01*
X0261083Y0235720D01*
G75*
G02*
X0261359Y0235445I0000000J-000276D01*
G01*
X0261359Y0233240D01*
G75*
G02*
X0261083Y0232964I-000276J0000000D01*
G01*
G37*
G36*
G01*
X0161162Y0331980D02*
X0164233Y0331980D01*
G75*
G02*
X0164508Y0331704I0000000J-000276D01*
G01*
X0164508Y0329500D01*
G75*
G02*
X0164233Y0329224I-000276J0000000D01*
G01*
X0161162Y0329224D01*
G75*
G02*
X0160886Y0329500I0000000J0000276D01*
G01*
X0160886Y0331704D01*
G75*
G02*
X0161162Y0331980I0000276J0000000D01*
G01*
G37*
G36*
G01*
X0161162Y0325681D02*
X0164233Y0325681D01*
G75*
G02*
X0164508Y0325405I0000000J-000276D01*
G01*
X0164508Y0323201D01*
G75*
G02*
X0164233Y0322925I-000276J0000000D01*
G01*
X0161162Y0322925D01*
G75*
G02*
X0160886Y0323201I0000000J0000276D01*
G01*
X0160886Y0325405D01*
G75*
G02*
X0161162Y0325681I0000276J0000000D01*
G01*
G37*
D14*
X0546260Y0195464D03*
X0552461Y0176153D03*
X0602477Y0176189D03*
X0569095Y0173515D03*
X0573721Y0173515D03*
X0582284Y0173515D03*
X0591044Y0173515D03*
D11*
X0244193Y0292610D03*
X0244193Y0283555D03*
X0244193Y0274500D03*
D12*
X0268996Y0283555D03*
G36*
X0160600Y0318374D02*
G01*
X0165714Y0321327D01*
X0169651Y0314507D01*
X0164537Y0311555D01*
X0160600Y0318374D01*
G37*
G36*
X0152758Y0313846D02*
G01*
X0157872Y0316799D01*
X0161809Y0309980D01*
X0156695Y0307027D01*
X0152758Y0313846D01*
G37*
G36*
X0144916Y0309319D02*
G01*
X0150030Y0312271D01*
X0153967Y0305452D01*
X0148853Y0302500D01*
X0144916Y0309319D01*
G37*
G36*
X0161239Y0290102D02*
G01*
X0174195Y0297583D01*
X0178132Y0290763D01*
X0165176Y0283283D01*
X0161239Y0290102D01*
G37*
D37*
X0526969Y0219185D03*
X0501772Y0219185D03*
X0494292Y0219185D03*
X0477362Y0219185D03*
D14*
X0467914Y0217413D03*
X0463977Y0217413D03*
D37*
X0452756Y0219185D03*
X0528740Y0280208D03*
X0521457Y0280208D03*
X0501969Y0280208D03*
X0454528Y0280208D03*
D11*
X0222343Y0327846D03*
X0222343Y0318791D03*
X0222343Y0309736D03*
D12*
X0247146Y0318791D03*
G36*
G01*
X0142776Y0412393D02*
X0139705Y0412393D01*
G75*
G02*
X0139429Y0412669I0000000J0000276D01*
G01*
X0139429Y0414874D01*
G75*
G02*
X0139705Y0415149I0000276J0000000D01*
G01*
X0142776Y0415149D01*
G75*
G02*
X0143051Y0414874I0000000J-000276D01*
G01*
X0143051Y0412669D01*
G75*
G02*
X0142776Y0412393I-000276J0000000D01*
G01*
G37*
G36*
G01*
X0142776Y0418693D02*
X0139705Y0418693D01*
G75*
G02*
X0139429Y0418968I0000000J0000276D01*
G01*
X0139429Y0421173D01*
G75*
G02*
X0139705Y0421449I0000276J0000000D01*
G01*
X0142776Y0421449D01*
G75*
G02*
X0143051Y0421173I0000000J-000276D01*
G01*
X0143051Y0418968D01*
G75*
G02*
X0142776Y0418693I-000276J0000000D01*
G01*
G37*
G36*
G01*
X0547697Y0243929D02*
X0545020Y0243929D01*
G75*
G02*
X0544685Y0244264I0000000J0000335D01*
G01*
X0544685Y0246941D01*
G75*
G02*
X0545020Y0247275I0000335J0000000D01*
G01*
X0547697Y0247275D01*
G75*
G02*
X0548032Y0246941I0000000J-000335D01*
G01*
X0548032Y0244264D01*
G75*
G02*
X0547697Y0243929I-000335J0000000D01*
G01*
G37*
G36*
G01*
X0547697Y0250149D02*
X0545020Y0250149D01*
G75*
G02*
X0544685Y0250484I0000000J0000335D01*
G01*
X0544685Y0253161D01*
G75*
G02*
X0545020Y0253496I0000335J0000000D01*
G01*
X0547697Y0253496D01*
G75*
G02*
X0548032Y0253161I0000000J-000335D01*
G01*
X0548032Y0250484D01*
G75*
G02*
X0547697Y0250149I-000335J0000000D01*
G01*
G37*
G36*
X0185206Y0366504D02*
G01*
X0190321Y0369456D01*
X0194258Y0362637D01*
X0189143Y0359685D01*
X0185206Y0366504D01*
G37*
G36*
X0177364Y0361976D02*
G01*
X0182479Y0364929D01*
X0186416Y0358110D01*
X0181301Y0355157D01*
X0177364Y0361976D01*
G37*
G36*
X0169522Y0357449D02*
G01*
X0174637Y0360401D01*
X0178574Y0353582D01*
X0173459Y0350629D01*
X0169522Y0357449D01*
G37*
G36*
X0185845Y0338232D02*
G01*
X0198801Y0345713D01*
X0202738Y0338893D01*
X0189782Y0331413D01*
X0185845Y0338232D01*
G37*
D71*
X0234351Y0150681D03*
X0395768Y0150681D03*
D47*
X0259941Y0168397D03*
D48*
X0275689Y0168397D03*
X0291437Y0168397D03*
X0307185Y0168397D03*
X0322933Y0168397D03*
X0338681Y0168397D03*
X0354429Y0168397D03*
X0370177Y0168397D03*
X0267815Y0152649D03*
X0283563Y0152649D03*
X0299311Y0152649D03*
X0315059Y0152649D03*
X0330807Y0152649D03*
X0346555Y0152649D03*
X0362303Y0152649D03*
X0259941Y0136901D03*
X0275689Y0136901D03*
X0291437Y0136901D03*
X0307185Y0136901D03*
X0322933Y0136901D03*
X0338681Y0136901D03*
X0354429Y0136901D03*
X0370177Y0136901D03*
G36*
G01*
X0253740Y0374992D02*
X0253740Y0381291D01*
G75*
G02*
X0254725Y0382275I0000984J0000000D01*
G01*
X0261024Y0382275D01*
G75*
G02*
X0262008Y0381291I0000000J-000984D01*
G01*
X0262008Y0374992D01*
G75*
G02*
X0261024Y0374008I-000984J0000000D01*
G01*
X0254725Y0374008D01*
G75*
G02*
X0253740Y0374992I0000000J0000984D01*
G01*
G37*
G36*
G01*
X0231300Y0374992D02*
X0231300Y0381291D01*
G75*
G02*
X0232284Y0382275I0000984J0000000D01*
G01*
X0238583Y0382275D01*
G75*
G02*
X0239567Y0381291I0000000J-000984D01*
G01*
X0239567Y0374992D01*
G75*
G02*
X0238583Y0374008I-000984J0000000D01*
G01*
X0232284Y0374008D01*
G75*
G02*
X0231300Y0374992I0000000J0000984D01*
G01*
G37*
G36*
G01*
X0208859Y0374992D02*
X0208859Y0381291D01*
G75*
G02*
X0209843Y0382275I0000984J0000000D01*
G01*
X0216142Y0382275D01*
G75*
G02*
X0217126Y0381291I0000000J-000984D01*
G01*
X0217126Y0374992D01*
G75*
G02*
X0216142Y0374008I-000984J0000000D01*
G01*
X0209843Y0374008D01*
G75*
G02*
X0208859Y0374992I0000000J0000984D01*
G01*
G37*
G36*
G01*
X0186418Y0374992D02*
X0186418Y0381291D01*
G75*
G02*
X0187402Y0382275I0000984J0000000D01*
G01*
X0193701Y0382275D01*
G75*
G02*
X0194685Y0381291I0000000J-000984D01*
G01*
X0194685Y0374992D01*
G75*
G02*
X0193701Y0374008I-000984J0000000D01*
G01*
X0187402Y0374008D01*
G75*
G02*
X0186418Y0374992I0000000J0000984D01*
G01*
G37*
G36*
G01*
X0163977Y0374992D02*
X0163977Y0381291D01*
G75*
G02*
X0164961Y0382275I0000984J0000000D01*
G01*
X0171260Y0382275D01*
G75*
G02*
X0172244Y0381291I0000000J-000984D01*
G01*
X0172244Y0374992D01*
G75*
G02*
X0171260Y0374008I-000984J0000000D01*
G01*
X0164961Y0374008D01*
G75*
G02*
X0163977Y0374992I0000000J0000984D01*
G01*
G37*
G36*
G01*
X0141536Y0374992D02*
X0141536Y0381291D01*
G75*
G02*
X0142520Y0382275I0000984J0000000D01*
G01*
X0148819Y0382275D01*
G75*
G02*
X0149803Y0381291I0000000J-000984D01*
G01*
X0149803Y0374992D01*
G75*
G02*
X0148819Y0374008I-000984J0000000D01*
G01*
X0142520Y0374008D01*
G75*
G02*
X0141536Y0374992I0000000J0000984D01*
G01*
G37*
G36*
G01*
X0119095Y0374992D02*
X0119095Y0381291D01*
G75*
G02*
X0120079Y0382275I0000984J0000000D01*
G01*
X0126378Y0382275D01*
G75*
G02*
X0127363Y0381291I0000000J-000984D01*
G01*
X0127363Y0374992D01*
G75*
G02*
X0126378Y0374008I-000984J0000000D01*
G01*
X0120079Y0374008D01*
G75*
G02*
X0119095Y0374992I0000000J0000984D01*
G01*
G37*
G36*
G01*
X0096654Y0374992D02*
X0096654Y0381291D01*
G75*
G02*
X0097638Y0382275I0000984J0000000D01*
G01*
X0103937Y0382275D01*
G75*
G02*
X0104922Y0381291I0000000J-000984D01*
G01*
X0104922Y0374992D01*
G75*
G02*
X0103937Y0374008I-000984J0000000D01*
G01*
X0097638Y0374008D01*
G75*
G02*
X0096654Y0374992I0000000J0000984D01*
G01*
G37*
G36*
G01*
X0074213Y0374992D02*
X0074213Y0381291D01*
G75*
G02*
X0075197Y0382275I0000984J0000000D01*
G01*
X0081496Y0382275D01*
G75*
G02*
X0082481Y0381291I0000000J-000984D01*
G01*
X0082481Y0374992D01*
G75*
G02*
X0081496Y0374008I-000984J0000000D01*
G01*
X0075197Y0374008D01*
G75*
G02*
X0074213Y0374992I0000000J0000984D01*
G01*
G37*
G36*
G01*
X0051772Y0374992D02*
X0051772Y0381291D01*
G75*
G02*
X0052756Y0382275I0000984J0000000D01*
G01*
X0059055Y0382275D01*
G75*
G02*
X0060040Y0381291I0000000J-000984D01*
G01*
X0060040Y0374992D01*
G75*
G02*
X0059055Y0374008I-000984J0000000D01*
G01*
X0052756Y0374008D01*
G75*
G02*
X0051772Y0374992I0000000J0000984D01*
G01*
G37*
G36*
G01*
X0029331Y0374992D02*
X0029331Y0381291D01*
G75*
G02*
X0030315Y0382275I0000984J0000000D01*
G01*
X0036614Y0382275D01*
G75*
G02*
X0037599Y0381291I0000000J-000984D01*
G01*
X0037599Y0374992D01*
G75*
G02*
X0036614Y0374008I-000984J0000000D01*
G01*
X0030315Y0374008D01*
G75*
G02*
X0029331Y0374992I0000000J0000984D01*
G01*
G37*
G36*
G01*
X0253740Y0391134D02*
X0253740Y0397433D01*
G75*
G02*
X0254725Y0398417I0000984J0000000D01*
G01*
X0261024Y0398417D01*
G75*
G02*
X0262008Y0397433I0000000J-000984D01*
G01*
X0262008Y0391134D01*
G75*
G02*
X0261024Y0390149I-000984J0000000D01*
G01*
X0254725Y0390149D01*
G75*
G02*
X0253740Y0391134I0000000J0000984D01*
G01*
G37*
G36*
G01*
X0231300Y0391134D02*
X0231300Y0397433D01*
G75*
G02*
X0232284Y0398417I0000984J0000000D01*
G01*
X0238583Y0398417D01*
G75*
G02*
X0239567Y0397433I0000000J-000984D01*
G01*
X0239567Y0391134D01*
G75*
G02*
X0238583Y0390149I-000984J0000000D01*
G01*
X0232284Y0390149D01*
G75*
G02*
X0231300Y0391134I0000000J0000984D01*
G01*
G37*
G36*
G01*
X0208859Y0391134D02*
X0208859Y0397433D01*
G75*
G02*
X0209843Y0398417I0000984J0000000D01*
G01*
X0216142Y0398417D01*
G75*
G02*
X0217126Y0397433I0000000J-000984D01*
G01*
X0217126Y0391134D01*
G75*
G02*
X0216142Y0390149I-000984J0000000D01*
G01*
X0209843Y0390149D01*
G75*
G02*
X0208859Y0391134I0000000J0000984D01*
G01*
G37*
G36*
G01*
X0186418Y0391134D02*
X0186418Y0397433D01*
G75*
G02*
X0187402Y0398417I0000984J0000000D01*
G01*
X0193701Y0398417D01*
G75*
G02*
X0194685Y0397433I0000000J-000984D01*
G01*
X0194685Y0391134D01*
G75*
G02*
X0193701Y0390149I-000984J0000000D01*
G01*
X0187402Y0390149D01*
G75*
G02*
X0186418Y0391134I0000000J0000984D01*
G01*
G37*
G36*
G01*
X0163977Y0391134D02*
X0163977Y0397433D01*
G75*
G02*
X0164961Y0398417I0000984J0000000D01*
G01*
X0171260Y0398417D01*
G75*
G02*
X0172244Y0397433I0000000J-000984D01*
G01*
X0172244Y0391134D01*
G75*
G02*
X0171260Y0390149I-000984J0000000D01*
G01*
X0164961Y0390149D01*
G75*
G02*
X0163977Y0391134I0000000J0000984D01*
G01*
G37*
G36*
G01*
X0141536Y0391134D02*
X0141536Y0397433D01*
G75*
G02*
X0142520Y0398417I0000984J0000000D01*
G01*
X0148819Y0398417D01*
G75*
G02*
X0149803Y0397433I0000000J-000984D01*
G01*
X0149803Y0391134D01*
G75*
G02*
X0148819Y0390149I-000984J0000000D01*
G01*
X0142520Y0390149D01*
G75*
G02*
X0141536Y0391134I0000000J0000984D01*
G01*
G37*
G36*
G01*
X0119095Y0391134D02*
X0119095Y0397433D01*
G75*
G02*
X0120079Y0398417I0000984J0000000D01*
G01*
X0126378Y0398417D01*
G75*
G02*
X0127363Y0397433I0000000J-000984D01*
G01*
X0127363Y0391134D01*
G75*
G02*
X0126378Y0390149I-000984J0000000D01*
G01*
X0120079Y0390149D01*
G75*
G02*
X0119095Y0391134I0000000J0000984D01*
G01*
G37*
G36*
G01*
X0096654Y0391134D02*
X0096654Y0397433D01*
G75*
G02*
X0097638Y0398417I0000984J0000000D01*
G01*
X0103937Y0398417D01*
G75*
G02*
X0104922Y0397433I0000000J-000984D01*
G01*
X0104922Y0391134D01*
G75*
G02*
X0103937Y0390149I-000984J0000000D01*
G01*
X0097638Y0390149D01*
G75*
G02*
X0096654Y0391134I0000000J0000984D01*
G01*
G37*
G36*
G01*
X0074213Y0391134D02*
X0074213Y0397433D01*
G75*
G02*
X0075197Y0398417I0000984J0000000D01*
G01*
X0081496Y0398417D01*
G75*
G02*
X0082481Y0397433I0000000J-000984D01*
G01*
X0082481Y0391134D01*
G75*
G02*
X0081496Y0390149I-000984J0000000D01*
G01*
X0075197Y0390149D01*
G75*
G02*
X0074213Y0391134I0000000J0000984D01*
G01*
G37*
G36*
G01*
X0051772Y0391134D02*
X0051772Y0397433D01*
G75*
G02*
X0052756Y0398417I0000984J0000000D01*
G01*
X0059055Y0398417D01*
G75*
G02*
X0060040Y0397433I0000000J-000984D01*
G01*
X0060040Y0391134D01*
G75*
G02*
X0059055Y0390149I-000984J0000000D01*
G01*
X0052756Y0390149D01*
G75*
G02*
X0051772Y0391134I0000000J0000984D01*
G01*
G37*
G36*
G01*
X0029331Y0391134D02*
X0029331Y0397433D01*
G75*
G02*
X0030315Y0398417I0000984J0000000D01*
G01*
X0036614Y0398417D01*
G75*
G02*
X0037599Y0397433I0000000J-000984D01*
G01*
X0037599Y0391134D01*
G75*
G02*
X0036614Y0390149I-000984J0000000D01*
G01*
X0030315Y0390149D01*
G75*
G02*
X0029331Y0391134I0000000J0000984D01*
G01*
G37*
G36*
G01*
X0592323Y0374795D02*
X0592323Y0381094D01*
G75*
G02*
X0593307Y0382078I0000984J0000000D01*
G01*
X0599607Y0382078D01*
G75*
G02*
X0600591Y0381094I0000000J-000984D01*
G01*
X0600591Y0374795D01*
G75*
G02*
X0599607Y0373811I-000984J0000000D01*
G01*
X0593307Y0373811D01*
G75*
G02*
X0592323Y0374795I0000000J0000984D01*
G01*
G37*
G36*
G01*
X0569882Y0374795D02*
X0569882Y0381094D01*
G75*
G02*
X0570866Y0382078I0000984J0000000D01*
G01*
X0577166Y0382078D01*
G75*
G02*
X0578150Y0381094I0000000J-000984D01*
G01*
X0578150Y0374795D01*
G75*
G02*
X0577166Y0373811I-000984J0000000D01*
G01*
X0570866Y0373811D01*
G75*
G02*
X0569882Y0374795I0000000J0000984D01*
G01*
G37*
G36*
G01*
X0547441Y0374795D02*
X0547441Y0381094D01*
G75*
G02*
X0548426Y0382078I0000984J0000000D01*
G01*
X0554725Y0382078D01*
G75*
G02*
X0555709Y0381094I0000000J-000984D01*
G01*
X0555709Y0374795D01*
G75*
G02*
X0554725Y0373811I-000984J0000000D01*
G01*
X0548426Y0373811D01*
G75*
G02*
X0547441Y0374795I0000000J0000984D01*
G01*
G37*
G36*
G01*
X0525000Y0374795D02*
X0525000Y0381094D01*
G75*
G02*
X0525985Y0382078I0000984J0000000D01*
G01*
X0532284Y0382078D01*
G75*
G02*
X0533268Y0381094I0000000J-000984D01*
G01*
X0533268Y0374795D01*
G75*
G02*
X0532284Y0373811I-000984J0000000D01*
G01*
X0525985Y0373811D01*
G75*
G02*
X0525000Y0374795I0000000J0000984D01*
G01*
G37*
G36*
G01*
X0502559Y0374795D02*
X0502559Y0381094D01*
G75*
G02*
X0503544Y0382078I0000984J0000000D01*
G01*
X0509843Y0382078D01*
G75*
G02*
X0510827Y0381094I0000000J-000984D01*
G01*
X0510827Y0374795D01*
G75*
G02*
X0509843Y0373811I-000984J0000000D01*
G01*
X0503544Y0373811D01*
G75*
G02*
X0502559Y0374795I0000000J0000984D01*
G01*
G37*
G36*
G01*
X0480118Y0374795D02*
X0480118Y0381094D01*
G75*
G02*
X0481103Y0382078I0000984J0000000D01*
G01*
X0487402Y0382078D01*
G75*
G02*
X0488386Y0381094I0000000J-000984D01*
G01*
X0488386Y0374795D01*
G75*
G02*
X0487402Y0373811I-000984J0000000D01*
G01*
X0481103Y0373811D01*
G75*
G02*
X0480118Y0374795I0000000J0000984D01*
G01*
G37*
G36*
G01*
X0457677Y0374795D02*
X0457677Y0381094D01*
G75*
G02*
X0458662Y0382078I0000984J0000000D01*
G01*
X0464961Y0382078D01*
G75*
G02*
X0465945Y0381094I0000000J-000984D01*
G01*
X0465945Y0374795D01*
G75*
G02*
X0464961Y0373811I-000984J0000000D01*
G01*
X0458662Y0373811D01*
G75*
G02*
X0457677Y0374795I0000000J0000984D01*
G01*
G37*
G36*
G01*
X0435237Y0374795D02*
X0435237Y0381094D01*
G75*
G02*
X0436221Y0382078I0000984J0000000D01*
G01*
X0442520Y0382078D01*
G75*
G02*
X0443504Y0381094I0000000J-000984D01*
G01*
X0443504Y0374795D01*
G75*
G02*
X0442520Y0373811I-000984J0000000D01*
G01*
X0436221Y0373811D01*
G75*
G02*
X0435237Y0374795I0000000J0000984D01*
G01*
G37*
G36*
G01*
X0412796Y0374795D02*
X0412796Y0381094D01*
G75*
G02*
X0413780Y0382078I0000984J0000000D01*
G01*
X0420079Y0382078D01*
G75*
G02*
X0421063Y0381094I0000000J-000984D01*
G01*
X0421063Y0374795D01*
G75*
G02*
X0420079Y0373811I-000984J0000000D01*
G01*
X0413780Y0373811D01*
G75*
G02*
X0412796Y0374795I0000000J0000984D01*
G01*
G37*
G36*
G01*
X0390355Y0374795D02*
X0390355Y0381094D01*
G75*
G02*
X0391339Y0382078I0000984J0000000D01*
G01*
X0397638Y0382078D01*
G75*
G02*
X0398622Y0381094I0000000J-000984D01*
G01*
X0398622Y0374795D01*
G75*
G02*
X0397638Y0373811I-000984J0000000D01*
G01*
X0391339Y0373811D01*
G75*
G02*
X0390355Y0374795I0000000J0000984D01*
G01*
G37*
G36*
G01*
X0367914Y0374795D02*
X0367914Y0381094D01*
G75*
G02*
X0368898Y0382078I0000984J0000000D01*
G01*
X0375197Y0382078D01*
G75*
G02*
X0376181Y0381094I0000000J-000984D01*
G01*
X0376181Y0374795D01*
G75*
G02*
X0375197Y0373811I-000984J0000000D01*
G01*
X0368898Y0373811D01*
G75*
G02*
X0367914Y0374795I0000000J0000984D01*
G01*
G37*
G36*
G01*
X0592323Y0390937D02*
X0592323Y0397236D01*
G75*
G02*
X0593307Y0398220I0000984J0000000D01*
G01*
X0599607Y0398220D01*
G75*
G02*
X0600591Y0397236I0000000J-000984D01*
G01*
X0600591Y0390937D01*
G75*
G02*
X0599607Y0389952I-000984J0000000D01*
G01*
X0593307Y0389952D01*
G75*
G02*
X0592323Y0390937I0000000J0000984D01*
G01*
G37*
G36*
G01*
X0569882Y0390937D02*
X0569882Y0397236D01*
G75*
G02*
X0570866Y0398220I0000984J0000000D01*
G01*
X0577166Y0398220D01*
G75*
G02*
X0578150Y0397236I0000000J-000984D01*
G01*
X0578150Y0390937D01*
G75*
G02*
X0577166Y0389952I-000984J0000000D01*
G01*
X0570866Y0389952D01*
G75*
G02*
X0569882Y0390937I0000000J0000984D01*
G01*
G37*
G36*
G01*
X0547441Y0390937D02*
X0547441Y0397236D01*
G75*
G02*
X0548426Y0398220I0000984J0000000D01*
G01*
X0554725Y0398220D01*
G75*
G02*
X0555709Y0397236I0000000J-000984D01*
G01*
X0555709Y0390937D01*
G75*
G02*
X0554725Y0389952I-000984J0000000D01*
G01*
X0548426Y0389952D01*
G75*
G02*
X0547441Y0390937I0000000J0000984D01*
G01*
G37*
G36*
G01*
X0525000Y0390937D02*
X0525000Y0397236D01*
G75*
G02*
X0525985Y0398220I0000984J0000000D01*
G01*
X0532284Y0398220D01*
G75*
G02*
X0533268Y0397236I0000000J-000984D01*
G01*
X0533268Y0390937D01*
G75*
G02*
X0532284Y0389952I-000984J0000000D01*
G01*
X0525985Y0389952D01*
G75*
G02*
X0525000Y0390937I0000000J0000984D01*
G01*
G37*
G36*
G01*
X0502559Y0390937D02*
X0502559Y0397236D01*
G75*
G02*
X0503544Y0398220I0000984J0000000D01*
G01*
X0509843Y0398220D01*
G75*
G02*
X0510827Y0397236I0000000J-000984D01*
G01*
X0510827Y0390937D01*
G75*
G02*
X0509843Y0389952I-000984J0000000D01*
G01*
X0503544Y0389952D01*
G75*
G02*
X0502559Y0390937I0000000J0000984D01*
G01*
G37*
G36*
G01*
X0480118Y0390937D02*
X0480118Y0397236D01*
G75*
G02*
X0481103Y0398220I0000984J0000000D01*
G01*
X0487402Y0398220D01*
G75*
G02*
X0488386Y0397236I0000000J-000984D01*
G01*
X0488386Y0390937D01*
G75*
G02*
X0487402Y0389952I-000984J0000000D01*
G01*
X0481103Y0389952D01*
G75*
G02*
X0480118Y0390937I0000000J0000984D01*
G01*
G37*
G36*
G01*
X0457677Y0390937D02*
X0457677Y0397236D01*
G75*
G02*
X0458662Y0398220I0000984J0000000D01*
G01*
X0464961Y0398220D01*
G75*
G02*
X0465945Y0397236I0000000J-000984D01*
G01*
X0465945Y0390937D01*
G75*
G02*
X0464961Y0389952I-000984J0000000D01*
G01*
X0458662Y0389952D01*
G75*
G02*
X0457677Y0390937I0000000J0000984D01*
G01*
G37*
G36*
G01*
X0435237Y0390937D02*
X0435237Y0397236D01*
G75*
G02*
X0436221Y0398220I0000984J0000000D01*
G01*
X0442520Y0398220D01*
G75*
G02*
X0443504Y0397236I0000000J-000984D01*
G01*
X0443504Y0390937D01*
G75*
G02*
X0442520Y0389952I-000984J0000000D01*
G01*
X0436221Y0389952D01*
G75*
G02*
X0435237Y0390937I0000000J0000984D01*
G01*
G37*
G36*
G01*
X0412796Y0390937D02*
X0412796Y0397236D01*
G75*
G02*
X0413780Y0398220I0000984J0000000D01*
G01*
X0420079Y0398220D01*
G75*
G02*
X0421063Y0397236I0000000J-000984D01*
G01*
X0421063Y0390937D01*
G75*
G02*
X0420079Y0389952I-000984J0000000D01*
G01*
X0413780Y0389952D01*
G75*
G02*
X0412796Y0390937I0000000J0000984D01*
G01*
G37*
G36*
G01*
X0390355Y0390937D02*
X0390355Y0397236D01*
G75*
G02*
X0391339Y0398220I0000984J0000000D01*
G01*
X0397638Y0398220D01*
G75*
G02*
X0398622Y0397236I0000000J-000984D01*
G01*
X0398622Y0390937D01*
G75*
G02*
X0397638Y0389952I-000984J0000000D01*
G01*
X0391339Y0389952D01*
G75*
G02*
X0390355Y0390937I0000000J0000984D01*
G01*
G37*
G36*
G01*
X0367914Y0390937D02*
X0367914Y0397236D01*
G75*
G02*
X0368898Y0398220I0000984J0000000D01*
G01*
X0375197Y0398220D01*
G75*
G02*
X0376181Y0397236I0000000J-000984D01*
G01*
X0376181Y0390937D01*
G75*
G02*
X0375197Y0389952I-000984J0000000D01*
G01*
X0368898Y0389952D01*
G75*
G02*
X0367914Y0390937I0000000J0000984D01*
G01*
G37*
G36*
G01*
X0209794Y0239701D02*
X0207623Y0241872D01*
G75*
G02*
X0207623Y0242262I0000195J0000195D01*
G01*
X0209182Y0243821D01*
G75*
G02*
X0209571Y0243821I0000195J-000195D01*
G01*
X0211743Y0241649D01*
G75*
G02*
X0211743Y0241260I-000195J-000195D01*
G01*
X0210184Y0239701D01*
G75*
G02*
X0209794Y0239701I-000195J0000195D01*
G01*
G37*
G36*
G01*
X0214248Y0244155D02*
X0212077Y0246326D01*
G75*
G02*
X0212077Y0246716I0000195J0000195D01*
G01*
X0213636Y0248275D01*
G75*
G02*
X0214025Y0248275I0000195J-000195D01*
G01*
X0216197Y0246104D01*
G75*
G02*
X0216197Y0245714I-000195J-000195D01*
G01*
X0214638Y0244155D01*
G75*
G02*
X0214248Y0244155I-000195J0000195D01*
G01*
G37*
D14*
X0489370Y0333358D03*
X0489370Y0338082D03*
X0489370Y0328634D03*
X0489370Y0323909D03*
X0546162Y0349342D03*
X0546162Y0353279D03*
D49*
X0529036Y0302945D03*
D72*
X0477500Y0168614D03*
X0500256Y0168614D03*
D50*
X0475689Y0172807D03*
X0478839Y0172807D03*
X0483957Y0172807D03*
X0487894Y0172807D03*
X0489863Y0172807D03*
X0493800Y0172807D03*
X0498918Y0172807D03*
X0502067Y0172807D03*
X0500886Y0172807D03*
X0497737Y0172807D03*
X0495768Y0172807D03*
X0491831Y0172807D03*
X0485925Y0172807D03*
X0481988Y0172807D03*
X0480020Y0172807D03*
X0476870Y0172807D03*
D51*
X0471870Y0170582D03*
D52*
X0471870Y0154126D03*
D51*
X0505886Y0170582D03*
D52*
X0505886Y0154126D03*
D13*
X0574311Y0218201D03*
G36*
G01*
X0095061Y0309399D02*
X0092674Y0308021D01*
G75*
G02*
X0091330Y0308382I-000492J0000852D01*
G01*
X0087983Y0314178D01*
G75*
G02*
X0088343Y0315522I0000852J0000492D01*
G01*
X0090730Y0316900D01*
G75*
G02*
X0092075Y0316540I0000492J-000852D01*
G01*
X0095421Y0310744D01*
G75*
G02*
X0095061Y0309399I-000852J-000492D01*
G01*
G37*
G36*
G01*
X0102409Y0332735D02*
X0084338Y0322302D01*
G75*
G02*
X0082994Y0322662I-000492J0000852D01*
G01*
X0071380Y0342779D01*
G75*
G02*
X0071740Y0344123I0000852J0000492D01*
G01*
X0089810Y0354556D01*
G75*
G02*
X0091155Y0354196I0000492J-000852D01*
G01*
X0102769Y0334080D01*
G75*
G02*
X0102409Y0332735I-000852J-000492D01*
G01*
G37*
G36*
G01*
X0110608Y0318376D02*
X0108222Y0316998D01*
G75*
G02*
X0106877Y0317358I-000492J0000852D01*
G01*
X0103531Y0323154D01*
G75*
G02*
X0103891Y0324499I0000852J0000492D01*
G01*
X0106278Y0325877D01*
G75*
G02*
X0107622Y0325516I0000492J-000852D01*
G01*
X0110969Y0319720D01*
G75*
G02*
X0110608Y0318376I-000852J-000492D01*
G01*
G37*
G36*
G01*
X0109843Y0414756D02*
X0109843Y0413575D01*
G75*
G02*
X0109252Y0412984I-000591J0000000D01*
G01*
X0104626Y0412984D01*
G75*
G02*
X0104036Y0413575I0000000J0000591D01*
G01*
X0104036Y0414756D01*
G75*
G02*
X0104626Y0415346I0000591J0000000D01*
G01*
X0109252Y0415346D01*
G75*
G02*
X0109843Y0414756I0000000J-000591D01*
G01*
G37*
G36*
G01*
X0102461Y0418496D02*
X0102461Y0417315D01*
G75*
G02*
X0101870Y0416724I-000591J0000000D01*
G01*
X0097244Y0416724D01*
G75*
G02*
X0096654Y0417315I0000000J0000591D01*
G01*
X0096654Y0418496D01*
G75*
G02*
X0097244Y0419086I0000591J0000000D01*
G01*
X0101870Y0419086D01*
G75*
G02*
X0102461Y0418496I0000000J-000591D01*
G01*
G37*
G36*
G01*
X0109843Y0422236D02*
X0109843Y0421055D01*
G75*
G02*
X0109252Y0420464I-000591J0000000D01*
G01*
X0104626Y0420464D01*
G75*
G02*
X0104036Y0421055I0000000J0000591D01*
G01*
X0104036Y0422236D01*
G75*
G02*
X0104626Y0422827I0000591J0000000D01*
G01*
X0109252Y0422827D01*
G75*
G02*
X0109843Y0422236I0000000J-000591D01*
G01*
G37*
G36*
G01*
X0272185Y0372236D02*
X0275256Y0372236D01*
G75*
G02*
X0275532Y0371960I0000000J-000276D01*
G01*
X0275532Y0369756D01*
G75*
G02*
X0275256Y0369480I-000276J0000000D01*
G01*
X0272185Y0369480D01*
G75*
G02*
X0271910Y0369756I0000000J0000276D01*
G01*
X0271910Y0371960D01*
G75*
G02*
X0272185Y0372236I0000276J0000000D01*
G01*
G37*
G36*
G01*
X0272185Y0365937D02*
X0275256Y0365937D01*
G75*
G02*
X0275532Y0365661I0000000J-000276D01*
G01*
X0275532Y0363456D01*
G75*
G02*
X0275256Y0363181I-000276J0000000D01*
G01*
X0272185Y0363181D01*
G75*
G02*
X0271910Y0363456I0000000J0000276D01*
G01*
X0271910Y0365661D01*
G75*
G02*
X0272185Y0365937I0000276J0000000D01*
G01*
G37*
G36*
G01*
X0129345Y0316533D02*
X0126958Y0315155D01*
G75*
G02*
X0125614Y0315515I-000492J0000852D01*
G01*
X0122267Y0321311D01*
G75*
G02*
X0122628Y0322656I0000852J0000492D01*
G01*
X0125014Y0324034D01*
G75*
G02*
X0126359Y0323674I0000492J-000852D01*
G01*
X0129705Y0317877D01*
G75*
G02*
X0129345Y0316533I-000852J-000492D01*
G01*
G37*
G36*
G01*
X0136693Y0339869D02*
X0118622Y0329436D01*
G75*
G02*
X0117278Y0329796I-000492J0000852D01*
G01*
X0105664Y0349912D01*
G75*
G02*
X0106024Y0351257I0000852J0000492D01*
G01*
X0124095Y0361690D01*
G75*
G02*
X0125439Y0361330I0000492J-000852D01*
G01*
X0137053Y0341213D01*
G75*
G02*
X0136693Y0339869I-000852J-000492D01*
G01*
G37*
G36*
G01*
X0144893Y0325509D02*
X0142506Y0324131D01*
G75*
G02*
X0141161Y0324492I-000492J0000852D01*
G01*
X0137815Y0330288D01*
G75*
G02*
X0138175Y0331632I0000852J0000492D01*
G01*
X0140562Y0333010D01*
G75*
G02*
X0141906Y0332650I0000492J-000852D01*
G01*
X0145253Y0326854D01*
G75*
G02*
X0144893Y0325509I-000852J-000492D01*
G01*
G37*
G36*
G01*
X0192185Y0411409D02*
X0189114Y0411409D01*
G75*
G02*
X0188839Y0411685I0000000J0000276D01*
G01*
X0188839Y0413889D01*
G75*
G02*
X0189114Y0414165I0000276J0000000D01*
G01*
X0192185Y0414165D01*
G75*
G02*
X0192461Y0413889I0000000J-000276D01*
G01*
X0192461Y0411685D01*
G75*
G02*
X0192185Y0411409I-000276J0000000D01*
G01*
G37*
G36*
G01*
X0192185Y0417708D02*
X0189114Y0417708D01*
G75*
G02*
X0188839Y0417984I0000000J0000276D01*
G01*
X0188839Y0420189D01*
G75*
G02*
X0189114Y0420464I0000276J0000000D01*
G01*
X0192185Y0420464D01*
G75*
G02*
X0192461Y0420189I0000000J-000276D01*
G01*
X0192461Y0417984D01*
G75*
G02*
X0192185Y0417708I-000276J0000000D01*
G01*
G37*
G36*
G01*
X0624666Y0249992D02*
X0621595Y0249992D01*
G75*
G02*
X0621319Y0250267I0000000J0000276D01*
G01*
X0621319Y0252472D01*
G75*
G02*
X0621595Y0252748I0000276J0000000D01*
G01*
X0624666Y0252748D01*
G75*
G02*
X0624941Y0252472I0000000J-000276D01*
G01*
X0624941Y0250267D01*
G75*
G02*
X0624666Y0249992I-000276J0000000D01*
G01*
G37*
G36*
G01*
X0624666Y0256291D02*
X0621595Y0256291D01*
G75*
G02*
X0621319Y0256567I0000000J0000276D01*
G01*
X0621319Y0258771D01*
G75*
G02*
X0621595Y0259047I0000276J0000000D01*
G01*
X0624666Y0259047D01*
G75*
G02*
X0624941Y0258771I0000000J-000276D01*
G01*
X0624941Y0256567D01*
G75*
G02*
X0624666Y0256291I-000276J0000000D01*
G01*
G37*
G36*
G01*
X0062416Y0301277D02*
X0060029Y0299899D01*
G75*
G02*
X0058685Y0300259I-000492J0000852D01*
G01*
X0055338Y0306055D01*
G75*
G02*
X0055699Y0307400I0000852J0000492D01*
G01*
X0058085Y0308778D01*
G75*
G02*
X0059430Y0308418I0000492J-000852D01*
G01*
X0062776Y0302621D01*
G75*
G02*
X0062416Y0301277I-000852J-000492D01*
G01*
G37*
G36*
G01*
X0069764Y0324613D02*
X0051693Y0314180D01*
G75*
G02*
X0050349Y0314540I-000492J0000852D01*
G01*
X0038735Y0334656D01*
G75*
G02*
X0039095Y0336001I0000852J0000492D01*
G01*
X0057166Y0346434D01*
G75*
G02*
X0058510Y0346074I0000492J-000852D01*
G01*
X0070124Y0325957D01*
G75*
G02*
X0069764Y0324613I-000852J-000492D01*
G01*
G37*
G36*
G01*
X0077963Y0310253D02*
X0075577Y0308875D01*
G75*
G02*
X0074232Y0309236I-000492J0000852D01*
G01*
X0070886Y0315032D01*
G75*
G02*
X0071246Y0316376I0000852J0000492D01*
G01*
X0073633Y0317754D01*
G75*
G02*
X0074977Y0317394I0000492J-000852D01*
G01*
X0078324Y0311598D01*
G75*
G02*
X0077963Y0310253I-000852J-000492D01*
G01*
G37*
G36*
G01*
X0132431Y0414559D02*
X0132431Y0413378D01*
G75*
G02*
X0131841Y0412787I-000591J0000000D01*
G01*
X0127215Y0412787D01*
G75*
G02*
X0126624Y0413378I0000000J0000591D01*
G01*
X0126624Y0414559D01*
G75*
G02*
X0127215Y0415149I0000591J0000000D01*
G01*
X0131841Y0415149D01*
G75*
G02*
X0132431Y0414559I0000000J-000591D01*
G01*
G37*
G36*
G01*
X0125050Y0418299D02*
X0125050Y0417118D01*
G75*
G02*
X0124459Y0416527I-000591J0000000D01*
G01*
X0119833Y0416527D01*
G75*
G02*
X0119242Y0417118I0000000J0000591D01*
G01*
X0119242Y0418299D01*
G75*
G02*
X0119833Y0418889I0000591J0000000D01*
G01*
X0124459Y0418889D01*
G75*
G02*
X0125050Y0418299I0000000J-000591D01*
G01*
G37*
G36*
G01*
X0132431Y0422039D02*
X0132431Y0420858D01*
G75*
G02*
X0131841Y0420267I-000591J0000000D01*
G01*
X0127215Y0420267D01*
G75*
G02*
X0126624Y0420858I0000000J0000591D01*
G01*
X0126624Y0422039D01*
G75*
G02*
X0127215Y0422630I0000591J0000000D01*
G01*
X0131841Y0422630D01*
G75*
G02*
X0132431Y0422039I0000000J-000591D01*
G01*
G37*
D49*
X0543918Y0302945D03*
G36*
G01*
X0168111Y0412984D02*
X0168111Y0411803D01*
G75*
G02*
X0167520Y0411212I-000591J0000000D01*
G01*
X0162894Y0411212D01*
G75*
G02*
X0162303Y0411803I0000000J0000591D01*
G01*
X0162303Y0412984D01*
G75*
G02*
X0162894Y0413575I0000591J0000000D01*
G01*
X0167520Y0413575D01*
G75*
G02*
X0168111Y0412984I0000000J-000591D01*
G01*
G37*
G36*
G01*
X0160729Y0416724D02*
X0160729Y0415543D01*
G75*
G02*
X0160138Y0414952I-000591J0000000D01*
G01*
X0155512Y0414952D01*
G75*
G02*
X0154922Y0415543I0000000J0000591D01*
G01*
X0154922Y0416724D01*
G75*
G02*
X0155512Y0417315I0000591J0000000D01*
G01*
X0160138Y0417315D01*
G75*
G02*
X0160729Y0416724I0000000J-000591D01*
G01*
G37*
G36*
G01*
X0168111Y0420464D02*
X0168111Y0419283D01*
G75*
G02*
X0167520Y0418693I-000591J0000000D01*
G01*
X0162894Y0418693D01*
G75*
G02*
X0162303Y0419283I0000000J0000591D01*
G01*
X0162303Y0420464D01*
G75*
G02*
X0162894Y0421055I0000591J0000000D01*
G01*
X0167520Y0421055D01*
G75*
G02*
X0168111Y0420464I0000000J-000591D01*
G01*
G37*
D11*
X0248524Y0259145D03*
X0248524Y0250090D03*
X0248524Y0241035D03*
D12*
X0273327Y0250090D03*
G36*
G01*
X0205661Y0358256D02*
X0203001Y0356720D01*
G75*
G02*
X0202625Y0356821I-000138J0000239D01*
G01*
X0201522Y0358731D01*
G75*
G02*
X0201623Y0359107I0000239J0000138D01*
G01*
X0204283Y0360643D01*
G75*
G02*
X0204659Y0360542I0000138J-000239D01*
G01*
X0205762Y0358632D01*
G75*
G02*
X0205661Y0358256I-000239J-000138D01*
G01*
G37*
G36*
G01*
X0202511Y0363711D02*
X0199852Y0362176D01*
G75*
G02*
X0199475Y0362277I-000138J0000239D01*
G01*
X0198373Y0364186D01*
G75*
G02*
X0198474Y0364562I0000239J0000138D01*
G01*
X0201133Y0366098D01*
G75*
G02*
X0201510Y0365997I0000138J-000239D01*
G01*
X0202612Y0364088D01*
G75*
G02*
X0202511Y0363711I-000239J-000138D01*
G01*
G37*
G36*
G01*
X0186418Y0412787D02*
X0186418Y0411606D01*
G75*
G02*
X0185827Y0411015I-000591J0000000D01*
G01*
X0181201Y0411015D01*
G75*
G02*
X0180611Y0411606I0000000J0000591D01*
G01*
X0180611Y0412787D01*
G75*
G02*
X0181201Y0413378I0000591J0000000D01*
G01*
X0185827Y0413378D01*
G75*
G02*
X0186418Y0412787I0000000J-000591D01*
G01*
G37*
G36*
G01*
X0179036Y0416527D02*
X0179036Y0415346D01*
G75*
G02*
X0178445Y0414756I-000591J0000000D01*
G01*
X0173819Y0414756D01*
G75*
G02*
X0173229Y0415346I0000000J0000591D01*
G01*
X0173229Y0416527D01*
G75*
G02*
X0173819Y0417118I0000591J0000000D01*
G01*
X0178445Y0417118D01*
G75*
G02*
X0179036Y0416527I0000000J-000591D01*
G01*
G37*
G36*
G01*
X0186418Y0420267D02*
X0186418Y0419086D01*
G75*
G02*
X0185827Y0418496I-000591J0000000D01*
G01*
X0181201Y0418496D01*
G75*
G02*
X0180611Y0419086I0000000J0000591D01*
G01*
X0180611Y0420267D01*
G75*
G02*
X0181201Y0420858I0000591J0000000D01*
G01*
X0185827Y0420858D01*
G75*
G02*
X0186418Y0420267I0000000J-000591D01*
G01*
G37*
D10*
X0446162Y0315149D03*
G36*
G01*
X0451457Y0311606D02*
X0448740Y0311606D01*
G75*
G02*
X0447835Y0312512I0000000J0000906D01*
G01*
X0447835Y0317787D01*
G75*
G02*
X0448740Y0318693I0000906J0000000D01*
G01*
X0451457Y0318693D01*
G75*
G02*
X0452362Y0317787I0000000J-000906D01*
G01*
X0452362Y0312512D01*
G75*
G02*
X0451457Y0311606I-000906J0000000D01*
G01*
G37*
G36*
G01*
X0462874Y0311606D02*
X0460158Y0311606D01*
G75*
G02*
X0459252Y0312512I0000000J0000906D01*
G01*
X0459252Y0317787D01*
G75*
G02*
X0460158Y0318693I0000906J0000000D01*
G01*
X0462874Y0318693D01*
G75*
G02*
X0463780Y0317787I0000000J-000906D01*
G01*
X0463780Y0312512D01*
G75*
G02*
X0462874Y0311606I-000906J0000000D01*
G01*
G37*
X0465453Y0315149D03*
D65*
X0553888Y0316823D03*
X0553888Y0310917D03*
X0553888Y0305012D03*
X0553888Y0299106D03*
X0553888Y0293201D03*
X0553888Y0287295D03*
X0553888Y0281389D03*
X0553888Y0275484D03*
X0553888Y0269578D03*
X0553888Y0263673D03*
X0553888Y0257767D03*
X0553888Y0251862D03*
X0553888Y0245956D03*
X0603888Y0245956D03*
X0603888Y0251862D03*
X0603888Y0257767D03*
X0603888Y0263673D03*
X0603888Y0269578D03*
X0603888Y0275484D03*
X0603888Y0281389D03*
X0603888Y0287295D03*
X0603888Y0293201D03*
X0603888Y0299106D03*
X0603888Y0305012D03*
X0603888Y0310917D03*
X0603888Y0316823D03*
G36*
G01*
X0028132Y0297982D02*
X0025745Y0296604D01*
G75*
G02*
X0024401Y0296964I-000492J0000852D01*
G01*
X0021054Y0302761D01*
G75*
G02*
X0021414Y0304105I0000852J0000492D01*
G01*
X0023801Y0305483D01*
G75*
G02*
X0025146Y0305123I0000492J-000852D01*
G01*
X0028492Y0299327D01*
G75*
G02*
X0028132Y0297982I-000852J-000492D01*
G01*
G37*
G36*
G01*
X0035480Y0321318D02*
X0017409Y0310885D01*
G75*
G02*
X0016065Y0311245I-000492J0000852D01*
G01*
X0004450Y0331361D01*
G75*
G02*
X0004811Y0332706I0000852J0000492D01*
G01*
X0022881Y0343139D01*
G75*
G02*
X0024226Y0342779I0000492J-000852D01*
G01*
X0035840Y0322662D01*
G75*
G02*
X0035480Y0321318I-000852J-000492D01*
G01*
G37*
G36*
G01*
X0043679Y0306958D02*
X0041293Y0305580D01*
G75*
G02*
X0039948Y0305941I-000492J0000852D01*
G01*
X0036602Y0311737D01*
G75*
G02*
X0036962Y0313081I0000852J0000492D01*
G01*
X0039349Y0314459D01*
G75*
G02*
X0040693Y0314099I0000492J-000852D01*
G01*
X0044040Y0308303D01*
G75*
G02*
X0043679Y0306958I-000852J-000492D01*
G01*
G37*
D10*
X0493672Y0309371D03*
G36*
G01*
X0494911Y0303122D02*
X0492990Y0305043D01*
G75*
G02*
X0492990Y0306323I0000640J0000640D01*
G01*
X0496720Y0310054D01*
G75*
G02*
X0498001Y0310054I0000640J-000640D01*
G01*
X0499922Y0308133D01*
G75*
G02*
X0499922Y0306852I-000640J-000640D01*
G01*
X0496191Y0303122D01*
G75*
G02*
X0494911Y0303122I-000640J0000640D01*
G01*
G37*
G36*
G01*
X0502984Y0295048D02*
X0501063Y0296969D01*
G75*
G02*
X0501063Y0298250I0000640J0000640D01*
G01*
X0504794Y0301980D01*
G75*
G02*
X0506074Y0301980I0000640J-000640D01*
G01*
X0507995Y0300059D01*
G75*
G02*
X0507995Y0298779I-000640J-000640D01*
G01*
X0504265Y0295048D01*
G75*
G02*
X0502984Y0295048I-000640J0000640D01*
G01*
G37*
X0507313Y0295730D03*
G36*
G01*
X0448878Y0354126D02*
X0445807Y0354126D01*
G75*
G02*
X0445532Y0354401I0000000J0000276D01*
G01*
X0445532Y0356606D01*
G75*
G02*
X0445807Y0356882I0000276J0000000D01*
G01*
X0448878Y0356882D01*
G75*
G02*
X0449154Y0356606I0000000J-000276D01*
G01*
X0449154Y0354401D01*
G75*
G02*
X0448878Y0354126I-000276J0000000D01*
G01*
G37*
G36*
G01*
X0448878Y0360425D02*
X0445807Y0360425D01*
G75*
G02*
X0445532Y0360701I0000000J0000276D01*
G01*
X0445532Y0362905D01*
G75*
G02*
X0445807Y0363181I0000276J0000000D01*
G01*
X0448878Y0363181D01*
G75*
G02*
X0449154Y0362905I0000000J-000276D01*
G01*
X0449154Y0360701D01*
G75*
G02*
X0448878Y0360425I-000276J0000000D01*
G01*
G37*
G36*
G01*
X0208023Y0324890D02*
X0205363Y0323354D01*
G75*
G02*
X0204987Y0323455I-000138J0000239D01*
G01*
X0203885Y0325365D01*
G75*
G02*
X0203986Y0325741I0000239J0000138D01*
G01*
X0206645Y0327276D01*
G75*
G02*
X0207021Y0327176I0000138J-000239D01*
G01*
X0208124Y0325266D01*
G75*
G02*
X0208023Y0324890I-000239J-000138D01*
G01*
G37*
G36*
G01*
X0204873Y0330345D02*
X0202214Y0328810D01*
G75*
G02*
X0201837Y0328910I-000138J0000239D01*
G01*
X0200735Y0330820D01*
G75*
G02*
X0200836Y0331196I0000239J0000138D01*
G01*
X0203495Y0332732D01*
G75*
G02*
X0203872Y0332631I0000138J-000239D01*
G01*
X0204974Y0330722D01*
G75*
G02*
X0204873Y0330345I-000239J-000138D01*
G01*
G37*
G36*
G01*
X0467618Y0177886D02*
X0467618Y0180956D01*
G75*
G02*
X0467894Y0181232I0000276J0000000D01*
G01*
X0470099Y0181232D01*
G75*
G02*
X0470374Y0180956I0000000J-000276D01*
G01*
X0470374Y0177886D01*
G75*
G02*
X0470099Y0177610I-000276J0000000D01*
G01*
X0467894Y0177610D01*
G75*
G02*
X0467618Y0177886I0000000J0000276D01*
G01*
G37*
G36*
G01*
X0473918Y0177886D02*
X0473918Y0180956D01*
G75*
G02*
X0474193Y0181232I0000276J0000000D01*
G01*
X0476398Y0181232D01*
G75*
G02*
X0476674Y0180956I0000000J-000276D01*
G01*
X0476674Y0177886D01*
G75*
G02*
X0476398Y0177610I-000276J0000000D01*
G01*
X0474193Y0177610D01*
G75*
G02*
X0473918Y0177886I0000000J0000276D01*
G01*
G37*
X0449409Y0156303D02*
G01*
G75*
D360*
X0473776Y0111224D02*
D03*
X0456059Y0111224D02*
D03*
D361*
X0498228Y0114551D02*
D03*
X0498228Y0141913D02*
D03*
D362*
X0475000Y0125791D02*
D03*
X0475000Y0141933D02*
D03*
D363*
X0456889Y0124020D02*
D03*
X0456889Y0139768D02*
D03*
D364*
X0518667Y0146959D02*
D03*
X0514927Y0137707D02*
D03*
D364*
X0522407Y0137707D02*
D03*
D365*
X0528346Y0114872D02*
D03*
D365*
X0524606Y0114872D02*
D03*
X0520866Y0114872D02*
D03*
X0520866Y0106408D02*
D03*
X0528346Y0106408D02*
D03*
D366*
X0514345Y0102556D02*
D03*
X0514345Y0115548D02*
D03*
D367*
X0514633Y0120842D02*
D03*
X0514633Y0132260D02*
D03*
D368*
X0482086Y0101657D02*
D03*
X0482086Y0107878D02*
D03*
X0482086Y0112248D02*
D03*
X0482086Y0118468D02*
D03*
D369*
X0459197Y0152334D02*
D03*
X0463331Y0152334D02*
D03*
X0501071Y0101779D02*
D03*
X0505205Y0101779D02*
D03*
X0496358Y0101779D02*
D03*
X0492224Y0101779D02*
D03*
X0476709Y0100887D02*
D03*
X0472575Y0100887D02*
D03*
D370*
X0520916Y0119990D02*
D03*
X0524853Y0119990D02*
D03*
X0521818Y0133665D02*
D03*
X0521818Y0125004D02*
D03*
X0528215Y0133665D02*
D03*
X0528215Y0125004D02*
D03*
D371*
X0528346Y0142038D02*
D03*
X0528346Y0138494D02*
D03*
D372*
X0505008Y0106037D02*
D03*
X0501464Y0106037D02*
D03*
X0495964Y0106037D02*
D03*
X0492421Y0106037D02*
D03*
X0464408Y0100887D02*
D03*
X0467952Y0100887D02*
D03*
D132*
X0467519Y0090555D02*
D03*
X0463582Y0090555D02*
D03*
D133*
X0521062Y0153350D02*
D03*
X0454133Y0153350D02*
D03*
X0501574Y0153350D02*
D03*
X0501377Y0092327D02*
D03*
X0526574Y0092327D02*
D03*
X0476968Y0092327D02*
D03*
X0493897Y0092327D02*
D03*
X0452362Y0092327D02*
D03*
X0528346Y0153350D02*
D03*
X0625591Y0083469D02*
G01*
G75*
D291*
X0615367Y0098174D02*
D03*
X0622847Y0098174D02*
D03*
X0622847Y0089709D02*
D03*
X0619107Y0089709D02*
D03*
X0615367Y0113823D02*
D03*
X0622847Y0113823D02*
D03*
X0622847Y0105359D02*
D03*
X0619107Y0105359D02*
D03*
D291*
X0615367Y0089709D02*
D03*
X0615367Y0105359D02*
D03*
D132*
X0615355Y0118902D02*
D03*
X0619095Y0118902D02*
D03*
X0622835Y0118902D02*
D03*
X0618898Y0084650D02*
D03*
X0615355Y0084650D02*
D03*
X0338386Y0276776D02*
%LPD*%
G01*
G36*
G01*
X0284292Y0260949D02*
X0284292Y0262288D01*
G75*
G02*
X0284843Y0262839I0000551J0000000D01*
G01*
X0285945Y0262839D01*
G75*
G02*
X0286496Y0262288I0000000J-000551D01*
G01*
X0286496Y0260949D01*
G75*
G02*
X0285945Y0260398I-000551J0000000D01*
G01*
X0284843Y0260398D01*
G75*
G02*
X0284292Y0260949I0000000J0000551D01*
G01*
G37*
G36*
G01*
X0280512Y0260949D02*
X0280512Y0262288D01*
G75*
G02*
X0281063Y0262839I0000551J0000000D01*
G01*
X0282166Y0262839D01*
G75*
G02*
X0282717Y0262288I0000000J-000551D01*
G01*
X0282717Y0260949D01*
G75*
G02*
X0282166Y0260398I-000551J0000000D01*
G01*
X0281063Y0260398D01*
G75*
G02*
X0280512Y0260949I0000000J0000551D01*
G01*
G37*
G36*
G01*
X0310788Y0246185D02*
X0312126Y0246185D01*
G75*
G02*
X0312677Y0245634I0000000J-000551D01*
G01*
X0312677Y0244532D01*
G75*
G02*
X0312126Y0243981I-000551J0000000D01*
G01*
X0310788Y0243981D01*
G75*
G02*
X0310236Y0244532I0000000J0000551D01*
G01*
X0310236Y0245634D01*
G75*
G02*
X0310788Y0246185I0000551J0000000D01*
G01*
G37*
G36*
G01*
X0310788Y0249965D02*
X0312126Y0249965D01*
G75*
G02*
X0312677Y0249414I0000000J-000551D01*
G01*
X0312677Y0248311D01*
G75*
G02*
X0312126Y0247760I-000551J0000000D01*
G01*
X0310788Y0247760D01*
G75*
G02*
X0310236Y0248311I0000000J0000551D01*
G01*
X0310236Y0249414D01*
G75*
G02*
X0310788Y0249965I0000551J0000000D01*
G01*
G37*
G36*
G01*
X0297697Y0274847D02*
X0299154Y0274847D01*
G75*
G02*
X0299685Y0274315I0000000J-000531D01*
G01*
X0299685Y0273252D01*
G75*
G02*
X0299154Y0272721I-000531J0000000D01*
G01*
X0297697Y0272721D01*
G75*
G02*
X0297166Y0273252I0000000J0000531D01*
G01*
X0297166Y0274315D01*
G75*
G02*
X0297697Y0274847I0000531J0000000D01*
G01*
G37*
G36*
G01*
X0297697Y0270831D02*
X0299154Y0270831D01*
G75*
G02*
X0299685Y0270300I0000000J-000531D01*
G01*
X0299685Y0269237D01*
G75*
G02*
X0299154Y0268705I-000531J0000000D01*
G01*
X0297697Y0268705D01*
G75*
G02*
X0297166Y0269237I0000000J0000531D01*
G01*
X0297166Y0270300D01*
G75*
G02*
X0297697Y0270831I0000531J0000000D01*
G01*
G37*
G36*
G01*
X0308669Y0242504D02*
X0308669Y0241323D01*
G75*
G02*
X0308079Y0240733I-000591J0000000D01*
G01*
X0301583Y0240733D01*
G75*
G02*
X0300992Y0241323I0000000J0000591D01*
G01*
X0300992Y0242504D01*
G75*
G02*
X0301583Y0243095I0000591J0000000D01*
G01*
X0308079Y0243095D01*
G75*
G02*
X0308669Y0242504I0000000J-000591D01*
G01*
G37*
G36*
G01*
X0308669Y0247504D02*
X0308669Y0246323D01*
G75*
G02*
X0308079Y0245733I-000591J0000000D01*
G01*
X0301583Y0245733D01*
G75*
G02*
X0300992Y0246323I0000000J0000591D01*
G01*
X0300992Y0247504D01*
G75*
G02*
X0301583Y0248095I0000591J0000000D01*
G01*
X0308079Y0248095D01*
G75*
G02*
X0308669Y0247504I0000000J-000591D01*
G01*
G37*
G36*
G01*
X0308669Y0252504D02*
X0308669Y0251323D01*
G75*
G02*
X0308079Y0250733I-000591J0000000D01*
G01*
X0301583Y0250733D01*
G75*
G02*
X0300992Y0251323I0000000J0000591D01*
G01*
X0300992Y0252504D01*
G75*
G02*
X0301583Y0253095I0000591J0000000D01*
G01*
X0308079Y0253095D01*
G75*
G02*
X0308669Y0252504I0000000J-000591D01*
G01*
G37*
G36*
G01*
X0308669Y0257504D02*
X0308669Y0256323D01*
G75*
G02*
X0308079Y0255733I-000591J0000000D01*
G01*
X0301583Y0255733D01*
G75*
G02*
X0300992Y0256323I0000000J0000591D01*
G01*
X0300992Y0257504D01*
G75*
G02*
X0301583Y0258095I0000591J0000000D01*
G01*
X0308079Y0258095D01*
G75*
G02*
X0308669Y0257504I0000000J-000591D01*
G01*
G37*
G36*
G01*
X0289181Y0257504D02*
X0289181Y0256323D01*
G75*
G02*
X0288591Y0255733I-000591J0000000D01*
G01*
X0282095Y0255733D01*
G75*
G02*
X0281504Y0256323I0000000J0000591D01*
G01*
X0281504Y0257504D01*
G75*
G02*
X0282095Y0258095I0000591J0000000D01*
G01*
X0288591Y0258095D01*
G75*
G02*
X0289181Y0257504I0000000J-000591D01*
G01*
G37*
G36*
G01*
X0289181Y0252504D02*
X0289181Y0251323D01*
G75*
G02*
X0288591Y0250733I-000591J0000000D01*
G01*
X0282095Y0250733D01*
G75*
G02*
X0281504Y0251323I0000000J0000591D01*
G01*
X0281504Y0252504D01*
G75*
G02*
X0282095Y0253095I0000591J0000000D01*
G01*
X0288591Y0253095D01*
G75*
G02*
X0289181Y0252504I0000000J-000591D01*
G01*
G37*
G36*
G01*
X0289181Y0247504D02*
X0289181Y0246323D01*
G75*
G02*
X0288591Y0245733I-000591J0000000D01*
G01*
X0282095Y0245733D01*
G75*
G02*
X0281504Y0246323I0000000J0000591D01*
G01*
X0281504Y0247504D01*
G75*
G02*
X0282095Y0248095I0000591J0000000D01*
G01*
X0288591Y0248095D01*
G75*
G02*
X0289181Y0247504I0000000J-000591D01*
G01*
G37*
G36*
G01*
X0289181Y0242504D02*
X0289181Y0241323D01*
G75*
G02*
X0288591Y0240733I-000591J0000000D01*
G01*
X0282095Y0240733D01*
G75*
G02*
X0281504Y0241323I0000000J0000591D01*
G01*
X0281504Y0242504D01*
G75*
G02*
X0282095Y0243095I0000591J0000000D01*
G01*
X0288591Y0243095D01*
G75*
G02*
X0289181Y0242504I0000000J-000591D01*
G01*
G37*
D149*
X0323189Y0241776D03*
X0323189Y0244335D03*
X0323189Y0246894D03*
X0315709Y0246894D03*
X0315709Y0244335D03*
X0315709Y0241776D03*
D14*
X0280118Y0249611D03*
X0280118Y0254335D03*
X0280118Y0244886D03*
X0280118Y0240162D03*
X0336910Y0265595D03*
X0336910Y0269532D03*
G36*
G01*
X0307028Y0260864D02*
X0305571Y0260864D01*
G75*
G02*
X0305040Y0261396I0000000J0000531D01*
G01*
X0305040Y0262459D01*
G75*
G02*
X0305571Y0262990I0000531J0000000D01*
G01*
X0307028Y0262990D01*
G75*
G02*
X0307559Y0262459I0000000J-000531D01*
G01*
X0307559Y0261396D01*
G75*
G02*
X0307028Y0260864I-000531J0000000D01*
G01*
G37*
G36*
G01*
X0307028Y0264880D02*
X0305571Y0264880D01*
G75*
G02*
X0305040Y0265411I0000000J0000531D01*
G01*
X0305040Y0266474D01*
G75*
G02*
X0305571Y0267006I0000531J0000000D01*
G01*
X0307028Y0267006D01*
G75*
G02*
X0307559Y0266474I0000000J-000531D01*
G01*
X0307559Y0265411D01*
G75*
G02*
X0307028Y0264880I-000531J0000000D01*
G01*
G37*
G36*
G01*
X0301693Y0266927D02*
X0303032Y0266927D01*
G75*
G02*
X0303583Y0266376I0000000J-000551D01*
G01*
X0303583Y0265274D01*
G75*
G02*
X0303032Y0264722I-000551J0000000D01*
G01*
X0301693Y0264722D01*
G75*
G02*
X0301142Y0265274I0000000J0000551D01*
G01*
X0301142Y0266376D01*
G75*
G02*
X0301693Y0266927I0000551J0000000D01*
G01*
G37*
G36*
G01*
X0301693Y0263148D02*
X0303032Y0263148D01*
G75*
G02*
X0303583Y0262596I0000000J-000551D01*
G01*
X0303583Y0261494D01*
G75*
G02*
X0303032Y0260943I-000551J0000000D01*
G01*
X0301693Y0260943D01*
G75*
G02*
X0301142Y0261494I0000000J0000551D01*
G01*
X0301142Y0262596D01*
G75*
G02*
X0301693Y0263148I0000551J0000000D01*
G01*
G37*
G36*
G01*
X0305571Y0274847D02*
X0307028Y0274847D01*
G75*
G02*
X0307559Y0274315I0000000J-000531D01*
G01*
X0307559Y0273252D01*
G75*
G02*
X0307028Y0272721I-000531J0000000D01*
G01*
X0305571Y0272721D01*
G75*
G02*
X0305040Y0273252I0000000J0000531D01*
G01*
X0305040Y0274315D01*
G75*
G02*
X0305571Y0274847I0000531J0000000D01*
G01*
G37*
G36*
G01*
X0305571Y0270831D02*
X0307028Y0270831D01*
G75*
G02*
X0307559Y0270300I0000000J-000531D01*
G01*
X0307559Y0269237D01*
G75*
G02*
X0307028Y0268705I-000531J0000000D01*
G01*
X0305571Y0268705D01*
G75*
G02*
X0305040Y0269237I0000000J0000531D01*
G01*
X0305040Y0270300D01*
G75*
G02*
X0305571Y0270831I0000531J0000000D01*
G01*
G37*
G36*
G01*
X0293977Y0268784D02*
X0292638Y0268784D01*
G75*
G02*
X0292087Y0269335I0000000J0000551D01*
G01*
X0292087Y0270437D01*
G75*
G02*
X0292638Y0270989I0000551J0000000D01*
G01*
X0293977Y0270989D01*
G75*
G02*
X0294528Y0270437I0000000J-000551D01*
G01*
X0294528Y0269335D01*
G75*
G02*
X0293977Y0268784I-000551J0000000D01*
G01*
G37*
G36*
G01*
X0293977Y0272563D02*
X0292638Y0272563D01*
G75*
G02*
X0292087Y0273115I0000000J0000551D01*
G01*
X0292087Y0274217D01*
G75*
G02*
X0292638Y0274768I0000551J0000000D01*
G01*
X0293977Y0274768D01*
G75*
G02*
X0294528Y0274217I0000000J-000551D01*
G01*
X0294528Y0273115D01*
G75*
G02*
X0293977Y0272563I-000551J0000000D01*
G01*
G37*
G36*
G01*
X0317106Y0264926D02*
X0315768Y0264926D01*
G75*
G02*
X0315217Y0265477I0000000J0000551D01*
G01*
X0315217Y0266579D01*
G75*
G02*
X0315768Y0267130I0000551J0000000D01*
G01*
X0317106Y0267130D01*
G75*
G02*
X0317658Y0266579I0000000J-000551D01*
G01*
X0317658Y0265477D01*
G75*
G02*
X0317106Y0264926I-000551J0000000D01*
G01*
G37*
G36*
G01*
X0317106Y0268705D02*
X0315768Y0268705D01*
G75*
G02*
X0315217Y0269256I0000000J0000551D01*
G01*
X0315217Y0270359D01*
G75*
G02*
X0315768Y0270910I0000551J0000000D01*
G01*
X0317106Y0270910D01*
G75*
G02*
X0317658Y0270359I0000000J-000551D01*
G01*
X0317658Y0269256D01*
G75*
G02*
X0317106Y0268705I-000551J0000000D01*
G01*
G37*
G36*
G01*
X0311516Y0261678D02*
X0311516Y0263134D01*
G75*
G02*
X0312047Y0263666I0000531J0000000D01*
G01*
X0313110Y0263666D01*
G75*
G02*
X0313642Y0263134I0000000J-000531D01*
G01*
X0313642Y0261678D01*
G75*
G02*
X0313110Y0261146I-000531J0000000D01*
G01*
X0312047Y0261146D01*
G75*
G02*
X0311516Y0261678I0000000J0000531D01*
G01*
G37*
G36*
G01*
X0315532Y0261678D02*
X0315532Y0263134D01*
G75*
G02*
X0316063Y0263666I0000531J0000000D01*
G01*
X0317126Y0263666D01*
G75*
G02*
X0317658Y0263134I0000000J-000531D01*
G01*
X0317658Y0261678D01*
G75*
G02*
X0317126Y0261146I-000531J0000000D01*
G01*
X0316063Y0261146D01*
G75*
G02*
X0315532Y0261678I0000000J0000531D01*
G01*
G37*
G36*
G01*
X0334941Y0253966D02*
X0334941Y0251948D01*
G75*
G02*
X0334080Y0251087I-000861J0000000D01*
G01*
X0332357Y0251087D01*
G75*
G02*
X0331496Y0251948I0000000J0000861D01*
G01*
X0331496Y0253966D01*
G75*
G02*
X0332357Y0254827I0000861J0000000D01*
G01*
X0334080Y0254827D01*
G75*
G02*
X0334941Y0253966I0000000J-000861D01*
G01*
G37*
G36*
G01*
X0328740Y0253966D02*
X0328740Y0251948D01*
G75*
G02*
X0327879Y0251087I-000861J0000000D01*
G01*
X0326157Y0251087D01*
G75*
G02*
X0325295Y0251948I0000000J0000861D01*
G01*
X0325295Y0253966D01*
G75*
G02*
X0326157Y0254827I0000861J0000000D01*
G01*
X0327879Y0254827D01*
G75*
G02*
X0328740Y0253966I0000000J-000861D01*
G01*
G37*
G36*
G01*
X0328425Y0247111D02*
X0328425Y0248567D01*
G75*
G02*
X0328957Y0249099I0000531J0000000D01*
G01*
X0330020Y0249099D01*
G75*
G02*
X0330551Y0248567I0000000J-000531D01*
G01*
X0330551Y0247111D01*
G75*
G02*
X0330020Y0246579I-000531J0000000D01*
G01*
X0328957Y0246579D01*
G75*
G02*
X0328425Y0247111I0000000J0000531D01*
G01*
G37*
G36*
G01*
X0332441Y0247111D02*
X0332441Y0248567D01*
G75*
G02*
X0332973Y0249099I0000531J0000000D01*
G01*
X0334036Y0249099D01*
G75*
G02*
X0334567Y0248567I0000000J-000531D01*
G01*
X0334567Y0247111D01*
G75*
G02*
X0334036Y0246579I-000531J0000000D01*
G01*
X0332973Y0246579D01*
G75*
G02*
X0332441Y0247111I0000000J0000531D01*
G01*
G37*
G36*
G01*
X0317658Y0259197D02*
X0317658Y0257741D01*
G75*
G02*
X0317126Y0257209I-000531J0000000D01*
G01*
X0316063Y0257209D01*
G75*
G02*
X0315532Y0257741I0000000J0000531D01*
G01*
X0315532Y0259197D01*
G75*
G02*
X0316063Y0259729I0000531J0000000D01*
G01*
X0317126Y0259729D01*
G75*
G02*
X0317658Y0259197I0000000J-000531D01*
G01*
G37*
G36*
G01*
X0313642Y0259197D02*
X0313642Y0257741D01*
G75*
G02*
X0313110Y0257209I-000531J0000000D01*
G01*
X0312047Y0257209D01*
G75*
G02*
X0311516Y0257741I0000000J0000531D01*
G01*
X0311516Y0259197D01*
G75*
G02*
X0312047Y0259729I0000531J0000000D01*
G01*
X0313110Y0259729D01*
G75*
G02*
X0313642Y0259197I0000000J-000531D01*
G01*
G37*
G36*
G01*
X0312343Y0264988D02*
X0310886Y0264988D01*
G75*
G02*
X0310355Y0265519I0000000J0000531D01*
G01*
X0310355Y0266582D01*
G75*
G02*
X0310886Y0267114I0000531J0000000D01*
G01*
X0312343Y0267114D01*
G75*
G02*
X0312874Y0266582I0000000J-000531D01*
G01*
X0312874Y0265519D01*
G75*
G02*
X0312343Y0264988I-000531J0000000D01*
G01*
G37*
G36*
G01*
X0312343Y0269004D02*
X0310886Y0269004D01*
G75*
G02*
X0310355Y0269535I0000000J0000531D01*
G01*
X0310355Y0270598D01*
G75*
G02*
X0310886Y0271129I0000531J0000000D01*
G01*
X0312343Y0271129D01*
G75*
G02*
X0312874Y0270598I0000000J-000531D01*
G01*
X0312874Y0269535D01*
G75*
G02*
X0312343Y0269004I-000531J0000000D01*
G01*
G37*
G36*
G01*
X0329685Y0258390D02*
X0329685Y0259729D01*
G75*
G02*
X0330236Y0260280I0000551J0000000D01*
G01*
X0331339Y0260280D01*
G75*
G02*
X0331890Y0259729I0000000J-000551D01*
G01*
X0331890Y0258390D01*
G75*
G02*
X0331339Y0257839I-000551J0000000D01*
G01*
X0330236Y0257839D01*
G75*
G02*
X0329685Y0258390I0000000J0000551D01*
G01*
G37*
G36*
G01*
X0333465Y0258390D02*
X0333465Y0259729D01*
G75*
G02*
X0334016Y0260280I0000551J0000000D01*
G01*
X0335118Y0260280D01*
G75*
G02*
X0335669Y0259729I0000000J-000551D01*
G01*
X0335669Y0258390D01*
G75*
G02*
X0335118Y0257839I-000551J0000000D01*
G01*
X0334016Y0257839D01*
G75*
G02*
X0333465Y0258390I0000000J0000551D01*
G01*
G37*
G36*
G01*
X0292638Y0266927D02*
X0293977Y0266927D01*
G75*
G02*
X0294528Y0266376I0000000J-000551D01*
G01*
X0294528Y0265274D01*
G75*
G02*
X0293977Y0264722I-000551J0000000D01*
G01*
X0292638Y0264722D01*
G75*
G02*
X0292087Y0265274I0000000J0000551D01*
G01*
X0292087Y0266376D01*
G75*
G02*
X0292638Y0266927I0000551J0000000D01*
G01*
G37*
G36*
G01*
X0292638Y0263148D02*
X0293977Y0263148D01*
G75*
G02*
X0294528Y0262596I0000000J-000551D01*
G01*
X0294528Y0261494D01*
G75*
G02*
X0293977Y0260943I-000551J0000000D01*
G01*
X0292638Y0260943D01*
G75*
G02*
X0292087Y0261494I0000000J0000551D01*
G01*
X0292087Y0262596D01*
G75*
G02*
X0292638Y0263148I0000551J0000000D01*
G01*
G37*
G36*
G01*
X0317658Y0274453D02*
X0317658Y0272996D01*
G75*
G02*
X0317126Y0272465I-000531J0000000D01*
G01*
X0316063Y0272465D01*
G75*
G02*
X0315532Y0272996I0000000J0000531D01*
G01*
X0315532Y0274453D01*
G75*
G02*
X0316063Y0274985I0000531J0000000D01*
G01*
X0317126Y0274985D01*
G75*
G02*
X0317658Y0274453I0000000J-000531D01*
G01*
G37*
G36*
G01*
X0313642Y0274453D02*
X0313642Y0272996D01*
G75*
G02*
X0313110Y0272465I-000531J0000000D01*
G01*
X0312047Y0272465D01*
G75*
G02*
X0311516Y0272996I0000000J0000531D01*
G01*
X0311516Y0274453D01*
G75*
G02*
X0312047Y0274985I0000531J0000000D01*
G01*
X0313110Y0274985D01*
G75*
G02*
X0313642Y0274453I0000000J-000531D01*
G01*
G37*
D150*
X0288399Y0273233D03*
X0285840Y0273233D03*
X0283281Y0273233D03*
X0283281Y0265752D03*
X0285840Y0265752D03*
X0288399Y0265752D03*
G36*
G01*
X0334348Y0264447D02*
X0334348Y0263266D01*
G75*
G02*
X0333757Y0262675I-000591J0000000D01*
G01*
X0329722Y0262675D01*
G75*
G02*
X0329131Y0263266I0000000J0000591D01*
G01*
X0329131Y0264447D01*
G75*
G02*
X0329722Y0265037I0000591J0000000D01*
G01*
X0333757Y0265037D01*
G75*
G02*
X0334348Y0264447I0000000J-000591D01*
G01*
G37*
G36*
G01*
X0334348Y0268187D02*
X0334348Y0267006D01*
G75*
G02*
X0333757Y0266415I-000591J0000000D01*
G01*
X0329722Y0266415D01*
G75*
G02*
X0329131Y0267006I0000000J0000591D01*
G01*
X0329131Y0268187D01*
G75*
G02*
X0329722Y0268778I0000591J0000000D01*
G01*
X0333757Y0268778D01*
G75*
G02*
X0334348Y0268187I0000000J-000591D01*
G01*
G37*
G36*
G01*
X0334348Y0271927D02*
X0334348Y0270746D01*
G75*
G02*
X0333757Y0270156I-000591J0000000D01*
G01*
X0329722Y0270156D01*
G75*
G02*
X0329131Y0270746I0000000J0000591D01*
G01*
X0329131Y0271927D01*
G75*
G02*
X0329722Y0272518I0000591J0000000D01*
G01*
X0333757Y0272518D01*
G75*
G02*
X0334348Y0271927I0000000J-000591D01*
G01*
G37*
G36*
G01*
X0325391Y0271927D02*
X0325391Y0270746D01*
G75*
G02*
X0324801Y0270156I-000591J0000000D01*
G01*
X0320765Y0270156D01*
G75*
G02*
X0320175Y0270746I0000000J0000591D01*
G01*
X0320175Y0271927D01*
G75*
G02*
X0320765Y0272518I0000591J0000000D01*
G01*
X0324801Y0272518D01*
G75*
G02*
X0325391Y0271927I0000000J-000591D01*
G01*
G37*
G36*
G01*
X0325391Y0268187D02*
X0325391Y0267006D01*
G75*
G02*
X0324801Y0266415I-000591J0000000D01*
G01*
X0320765Y0266415D01*
G75*
G02*
X0320175Y0267006I0000000J0000591D01*
G01*
X0320175Y0268187D01*
G75*
G02*
X0320765Y0268778I0000591J0000000D01*
G01*
X0324801Y0268778D01*
G75*
G02*
X0325391Y0268187I0000000J-000591D01*
G01*
G37*
G36*
G01*
X0325391Y0264447D02*
X0325391Y0263266D01*
G75*
G02*
X0324801Y0262675I-000591J0000000D01*
G01*
X0320765Y0262675D01*
G75*
G02*
X0320175Y0263266I0000000J0000591D01*
G01*
X0320175Y0264447D01*
G75*
G02*
X0320765Y0265037I0000591J0000000D01*
G01*
X0324801Y0265037D01*
G75*
G02*
X0325391Y0264447I0000000J-000591D01*
G01*
G37*
G36*
G01*
X0323465Y0252563D02*
X0323465Y0251225D01*
G75*
G02*
X0322914Y0250674I-000551J0000000D01*
G01*
X0321811Y0250674D01*
G75*
G02*
X0321260Y0251225I0000000J0000551D01*
G01*
X0321260Y0252563D01*
G75*
G02*
X0321811Y0253115I0000551J0000000D01*
G01*
X0322914Y0253115D01*
G75*
G02*
X0323465Y0252563I0000000J-000551D01*
G01*
G37*
G36*
G01*
X0319685Y0252563D02*
X0319685Y0251225D01*
G75*
G02*
X0319134Y0250674I-000551J0000000D01*
G01*
X0318032Y0250674D01*
G75*
G02*
X0317480Y0251225I0000000J0000551D01*
G01*
X0317480Y0252563D01*
G75*
G02*
X0318032Y0253115I0000551J0000000D01*
G01*
X0319134Y0253115D01*
G75*
G02*
X0319685Y0252563I0000000J-000551D01*
G01*
G37*
G36*
G01*
X0301693Y0274768D02*
X0303032Y0274768D01*
G75*
G02*
X0303583Y0274217I0000000J-000551D01*
G01*
X0303583Y0273115D01*
G75*
G02*
X0303032Y0272563I-000551J0000000D01*
G01*
X0301693Y0272563D01*
G75*
G02*
X0301142Y0273115I0000000J0000551D01*
G01*
X0301142Y0274217D01*
G75*
G02*
X0301693Y0274768I0000551J0000000D01*
G01*
G37*
G36*
G01*
X0301693Y0270989D02*
X0303032Y0270989D01*
G75*
G02*
X0303583Y0270437I0000000J-000551D01*
G01*
X0303583Y0269335D01*
G75*
G02*
X0303032Y0268784I-000551J0000000D01*
G01*
X0301693Y0268784D01*
G75*
G02*
X0301142Y0269335I0000000J0000551D01*
G01*
X0301142Y0270437D01*
G75*
G02*
X0301693Y0270989I0000551J0000000D01*
G01*
G37*
G36*
G01*
X0297697Y0267006D02*
X0299154Y0267006D01*
G75*
G02*
X0299685Y0266474I0000000J-000531D01*
G01*
X0299685Y0265411D01*
G75*
G02*
X0299154Y0264880I-000531J0000000D01*
G01*
X0297697Y0264880D01*
G75*
G02*
X0297166Y0265411I0000000J0000531D01*
G01*
X0297166Y0266474D01*
G75*
G02*
X0297697Y0267006I0000531J0000000D01*
G01*
G37*
G36*
G01*
X0297697Y0262990D02*
X0299154Y0262990D01*
G75*
G02*
X0299685Y0262459I0000000J-000531D01*
G01*
X0299685Y0261396D01*
G75*
G02*
X0299154Y0260864I-000531J0000000D01*
G01*
X0297697Y0260864D01*
G75*
G02*
X0297166Y0261396I0000000J0000531D01*
G01*
X0297166Y0262459D01*
G75*
G02*
X0297697Y0262990I0000531J0000000D01*
G01*
G37*
X0547244Y0233665D02*
%LPD*%
G01*
D14*
X0488976Y0206500D03*
X0488976Y0211224D03*
X0488976Y0201775D03*
X0488976Y0197051D03*
X0545768Y0222484D03*
X0545768Y0226421D03*
D151*
X0513386Y0220673D03*
X0513386Y0222641D03*
X0513386Y0224610D03*
X0513386Y0226578D03*
X0513386Y0228547D03*
X0496063Y0228547D03*
X0496063Y0226578D03*
X0496063Y0224610D03*
X0496063Y0222641D03*
X0496063Y0220673D03*
G36*
G01*
X0505866Y0207484D02*
X0502795Y0207484D01*
G75*
G02*
X0502520Y0207759I0000000J0000276D01*
G01*
X0502520Y0209964D01*
G75*
G02*
X0502795Y0210240I0000276J0000000D01*
G01*
X0505866Y0210240D01*
G75*
G02*
X0506142Y0209964I0000000J-000276D01*
G01*
X0506142Y0207759D01*
G75*
G02*
X0505866Y0207484I-000276J0000000D01*
G01*
G37*
G36*
G01*
X0505866Y0213783D02*
X0502795Y0213783D01*
G75*
G02*
X0502520Y0214059I0000000J0000276D01*
G01*
X0502520Y0216263D01*
G75*
G02*
X0502795Y0216539I0000276J0000000D01*
G01*
X0505866Y0216539D01*
G75*
G02*
X0506142Y0216263I0000000J-000276D01*
G01*
X0506142Y0214059D01*
G75*
G02*
X0505866Y0213783I-000276J0000000D01*
G01*
G37*
G36*
G01*
X0491535Y0200830D02*
X0491535Y0203901D01*
G75*
G02*
X0491811Y0204177I0000276J0000000D01*
G01*
X0494016Y0204177D01*
G75*
G02*
X0494291Y0203901I0000000J-000276D01*
G01*
X0494291Y0200830D01*
G75*
G02*
X0494016Y0200555I-000276J0000000D01*
G01*
X0491811Y0200555D01*
G75*
G02*
X0491535Y0200830I0000000J0000276D01*
G01*
G37*
G36*
G01*
X0497835Y0200830D02*
X0497835Y0203901D01*
G75*
G02*
X0498110Y0204177I0000276J0000000D01*
G01*
X0500315Y0204177D01*
G75*
G02*
X0500590Y0203901I0000000J-000276D01*
G01*
X0500590Y0200830D01*
G75*
G02*
X0500315Y0200555I-000276J0000000D01*
G01*
X0498110Y0200555D01*
G75*
G02*
X0497835Y0200830I0000000J0000276D01*
G01*
G37*
G36*
G01*
X0511772Y0207484D02*
X0508701Y0207484D01*
G75*
G02*
X0508425Y0207759I0000000J0000276D01*
G01*
X0508425Y0209964D01*
G75*
G02*
X0508701Y0210240I0000276J0000000D01*
G01*
X0511772Y0210240D01*
G75*
G02*
X0512047Y0209964I0000000J-000276D01*
G01*
X0512047Y0207759D01*
G75*
G02*
X0511772Y0207484I-000276J0000000D01*
G01*
G37*
G36*
G01*
X0511772Y0213783D02*
X0508701Y0213783D01*
G75*
G02*
X0508425Y0214059I0000000J0000276D01*
G01*
X0508425Y0216263D01*
G75*
G02*
X0508701Y0216539I0000276J0000000D01*
G01*
X0511772Y0216539D01*
G75*
G02*
X0512047Y0216263I0000000J-000276D01*
G01*
X0512047Y0214059D01*
G75*
G02*
X0511772Y0213783I-000276J0000000D01*
G01*
G37*
G36*
G01*
X0522421Y0203744D02*
X0519705Y0203744D01*
G75*
G02*
X0518799Y0204649I0000000J0000906D01*
G01*
X0518799Y0209925D01*
G75*
G02*
X0519705Y0210830I0000906J0000000D01*
G01*
X0522421Y0210830D01*
G75*
G02*
X0523327Y0209925I0000000J-000906D01*
G01*
X0523327Y0204649D01*
G75*
G02*
X0522421Y0203744I-000906J0000000D01*
G01*
G37*
G36*
G01*
X0533839Y0203744D02*
X0531122Y0203744D01*
G75*
G02*
X0530216Y0204649I0000000J0000906D01*
G01*
X0530216Y0209925D01*
G75*
G02*
X0531122Y0210830I0000906J0000000D01*
G01*
X0533839Y0210830D01*
G75*
G02*
X0534744Y0209925I0000000J-000906D01*
G01*
X0534744Y0204649D01*
G75*
G02*
X0533839Y0203744I-000906J0000000D01*
G01*
G37*
G36*
G01*
X0522421Y0213586D02*
X0519705Y0213586D01*
G75*
G02*
X0518799Y0214492I0000000J0000906D01*
G01*
X0518799Y0219767D01*
G75*
G02*
X0519705Y0220673I0000906J0000000D01*
G01*
X0522421Y0220673D01*
G75*
G02*
X0523327Y0219767I0000000J-000906D01*
G01*
X0523327Y0214492D01*
G75*
G02*
X0522421Y0213586I-000906J0000000D01*
G01*
G37*
G36*
G01*
X0533839Y0213586D02*
X0531122Y0213586D01*
G75*
G02*
X0530216Y0214492I0000000J0000906D01*
G01*
X0530216Y0219767D01*
G75*
G02*
X0531122Y0220673I0000906J0000000D01*
G01*
X0533839Y0220673D01*
G75*
G02*
X0534744Y0219767I0000000J-000906D01*
G01*
X0534744Y0214492D01*
G75*
G02*
X0533839Y0213586I-000906J0000000D01*
G01*
G37*
G36*
G01*
X0544488Y0207267D02*
X0544488Y0204551D01*
G75*
G02*
X0543583Y0203645I-000906J0000000D01*
G01*
X0538307Y0203645D01*
G75*
G02*
X0537401Y0204551I0000000J0000906D01*
G01*
X0537401Y0207267D01*
G75*
G02*
X0538307Y0208173I0000906J0000000D01*
G01*
X0543583Y0208173D01*
G75*
G02*
X0544488Y0207267I0000000J-000906D01*
G01*
G37*
G36*
G01*
X0544488Y0218685D02*
X0544488Y0215968D01*
G75*
G02*
X0543583Y0215063I-000906J0000000D01*
G01*
X0538307Y0215063D01*
G75*
G02*
X0537401Y0215968I0000000J0000906D01*
G01*
X0537401Y0218685D01*
G75*
G02*
X0538307Y0219590I0000906J0000000D01*
G01*
X0543583Y0219590D01*
G75*
G02*
X0544488Y0218685I0000000J-000906D01*
G01*
G37*
G36*
G01*
X0529114Y0223035D02*
X0526398Y0223035D01*
G75*
G02*
X0525492Y0223941I0000000J0000906D01*
G01*
X0525492Y0229216D01*
G75*
G02*
X0526398Y0230122I0000906J0000000D01*
G01*
X0529114Y0230122D01*
G75*
G02*
X0530020Y0229216I0000000J-000906D01*
G01*
X0530020Y0223941D01*
G75*
G02*
X0529114Y0223035I-000906J0000000D01*
G01*
G37*
G36*
G01*
X0540531Y0223035D02*
X0537815Y0223035D01*
G75*
G02*
X0536909Y0223941I0000000J0000906D01*
G01*
X0536909Y0229216D01*
G75*
G02*
X0537815Y0230122I0000906J0000000D01*
G01*
X0540531Y0230122D01*
G75*
G02*
X0541437Y0229216I0000000J-000906D01*
G01*
X0541437Y0223941D01*
G75*
G02*
X0540531Y0223035I-000906J0000000D01*
G01*
G37*
G36*
G01*
X0503445Y0201160D02*
X0503445Y0203178D01*
G75*
G02*
X0504306Y0204039I0000861J0000000D01*
G01*
X0506028Y0204039D01*
G75*
G02*
X0506890Y0203178I0000000J-000861D01*
G01*
X0506890Y0201160D01*
G75*
G02*
X0506028Y0200299I-000861J0000000D01*
G01*
X0504306Y0200299D01*
G75*
G02*
X0503445Y0201160I0000000J0000861D01*
G01*
G37*
G36*
G01*
X0509646Y0201160D02*
X0509646Y0203178D01*
G75*
G02*
X0510507Y0204039I0000861J0000000D01*
G01*
X0512229Y0204039D01*
G75*
G02*
X0513090Y0203178I0000000J-000861D01*
G01*
X0513090Y0201160D01*
G75*
G02*
X0512229Y0200299I-000861J0000000D01*
G01*
X0510507Y0200299D01*
G75*
G02*
X0509646Y0201160I0000000J0000861D01*
G01*
G37*
G36*
G01*
X0497500Y0208122D02*
X0497500Y0210799D01*
G75*
G02*
X0497835Y0211134I0000335J0000000D01*
G01*
X0500512Y0211134D01*
G75*
G02*
X0500846Y0210799I0000000J-000335D01*
G01*
X0500846Y0208122D01*
G75*
G02*
X0500512Y0207787I-000335J0000000D01*
G01*
X0497835Y0207787D01*
G75*
G02*
X0497500Y0208122I0000000J0000335D01*
G01*
G37*
G36*
G01*
X0491279Y0208122D02*
X0491279Y0210799D01*
G75*
G02*
X0491614Y0211134I0000335J0000000D01*
G01*
X0494291Y0211134D01*
G75*
G02*
X0494626Y0210799I0000000J-000335D01*
G01*
X0494626Y0208122D01*
G75*
G02*
X0494291Y0207787I-000335J0000000D01*
G01*
X0491614Y0207787D01*
G75*
G02*
X0491279Y0208122I0000000J0000335D01*
G01*
G37*
G36*
G01*
X0491279Y0213429D02*
X0491279Y0216106D01*
G75*
G02*
X0491614Y0216441I0000335J0000000D01*
G01*
X0494291Y0216441D01*
G75*
G02*
X0494626Y0216106I0000000J-000335D01*
G01*
X0494626Y0213429D01*
G75*
G02*
X0494291Y0213094I-000335J0000000D01*
G01*
X0491614Y0213094D01*
G75*
G02*
X0491279Y0213429I0000000J0000335D01*
G01*
G37*
G36*
G01*
X0497500Y0213429D02*
X0497500Y0216106D01*
G75*
G02*
X0497835Y0216441I0000335J0000000D01*
G01*
X0500512Y0216441D01*
G75*
G02*
X0500846Y0216106I0000000J-000335D01*
G01*
X0500846Y0213429D01*
G75*
G02*
X0500512Y0213094I-000335J0000000D01*
G01*
X0497835Y0213094D01*
G75*
G02*
X0497500Y0213429I0000000J0000335D01*
G01*
G37*
G36*
G01*
X0516693Y0207228D02*
X0514016Y0207228D01*
G75*
G02*
X0513681Y0207563I0000000J0000335D01*
G01*
X0513681Y0210240D01*
G75*
G02*
X0514016Y0210574I0000335J0000000D01*
G01*
X0516693Y0210574D01*
G75*
G02*
X0517027Y0210240I0000000J-000335D01*
G01*
X0517027Y0207563D01*
G75*
G02*
X0516693Y0207228I-000335J0000000D01*
G01*
G37*
G36*
G01*
X0516693Y0213448D02*
X0514016Y0213448D01*
G75*
G02*
X0513681Y0213783I0000000J0000335D01*
G01*
X0513681Y0216460D01*
G75*
G02*
X0514016Y0216795I0000335J0000000D01*
G01*
X0516693Y0216795D01*
G75*
G02*
X0517027Y0216460I0000000J-000335D01*
G01*
X0517027Y0213783D01*
G75*
G02*
X0516693Y0213448I-000335J0000000D01*
G01*
G37*
X0081102Y0158370D02*
%LPD*%
G01*
G36*
G01*
X0116811Y0090762D02*
X0116811Y0092120D01*
G75*
G02*
X0117391Y0092701I0000581J0000000D01*
G01*
X0118553Y0092701D01*
G75*
G02*
X0119133Y0092120I0000000J-000581D01*
G01*
X0119133Y0090762D01*
G75*
G02*
X0118553Y0090181I-000581J0000000D01*
G01*
X0117391Y0090181D01*
G75*
G02*
X0116811Y0090762I0000000J0000581D01*
G01*
G37*
G36*
G01*
X0120630Y0090762D02*
X0120630Y0092120D01*
G75*
G02*
X0121210Y0092701I0000581J0000000D01*
G01*
X0122372Y0092701D01*
G75*
G02*
X0122952Y0092120I0000000J-000581D01*
G01*
X0122952Y0090762D01*
G75*
G02*
X0122372Y0090181I-000581J0000000D01*
G01*
X0121210Y0090181D01*
G75*
G02*
X0120630Y0090762I0000000J0000581D01*
G01*
G37*
G36*
G01*
X0101387Y0149335D02*
X0102746Y0149335D01*
G75*
G02*
X0103326Y0148754I0000000J-000581D01*
G01*
X0103326Y0147592D01*
G75*
G02*
X0102746Y0147012I-000581J0000000D01*
G01*
X0101387Y0147012D01*
G75*
G02*
X0100807Y0147592I0000000J0000581D01*
G01*
X0100807Y0148754D01*
G75*
G02*
X0101387Y0149335I0000581J0000000D01*
G01*
G37*
G36*
G01*
X0101387Y0145516D02*
X0102746Y0145516D01*
G75*
G02*
X0103326Y0144935I0000000J-000581D01*
G01*
X0103326Y0143774D01*
G75*
G02*
X0102746Y0143193I-000581J0000000D01*
G01*
X0101387Y0143193D01*
G75*
G02*
X0100807Y0143774I0000000J0000581D01*
G01*
X0100807Y0144935D01*
G75*
G02*
X0101387Y0145516I0000581J0000000D01*
G01*
G37*
G36*
G01*
X0116584Y0138808D02*
X0116584Y0136790D01*
G75*
G02*
X0115723Y0135929I-000861J0000000D01*
G01*
X0114001Y0135929D01*
G75*
G02*
X0113139Y0136790I0000000J0000861D01*
G01*
X0113139Y0138808D01*
G75*
G02*
X0114001Y0139669I0000861J0000000D01*
G01*
X0115723Y0139669D01*
G75*
G02*
X0116584Y0138808I0000000J-000861D01*
G01*
G37*
G36*
G01*
X0110383Y0138808D02*
X0110383Y0136790D01*
G75*
G02*
X0109522Y0135929I-000861J0000000D01*
G01*
X0107800Y0135929D01*
G75*
G02*
X0106939Y0136790I0000000J0000861D01*
G01*
X0106939Y0138808D01*
G75*
G02*
X0107800Y0139669I0000861J0000000D01*
G01*
X0109522Y0139669D01*
G75*
G02*
X0110383Y0138808I0000000J-000861D01*
G01*
G37*
G36*
G01*
X0091555Y0092317D02*
X0091555Y0090959D01*
G75*
G02*
X0090974Y0090378I-000581J0000000D01*
G01*
X0089813Y0090378D01*
G75*
G02*
X0089232Y0090959I0000000J0000581D01*
G01*
X0089232Y0092317D01*
G75*
G02*
X0089813Y0092898I0000581J0000000D01*
G01*
X0090974Y0092898D01*
G75*
G02*
X0091555Y0092317I0000000J-000581D01*
G01*
G37*
G36*
G01*
X0087736Y0092317D02*
X0087736Y0090959D01*
G75*
G02*
X0087155Y0090378I-000581J0000000D01*
G01*
X0085994Y0090378D01*
G75*
G02*
X0085413Y0090959I0000000J0000581D01*
G01*
X0085413Y0092317D01*
G75*
G02*
X0085994Y0092898I0000581J0000000D01*
G01*
X0087155Y0092898D01*
G75*
G02*
X0087736Y0092317I0000000J-000581D01*
G01*
G37*
D156*
X0107382Y0143508D03*
X0114862Y0143508D03*
X0111122Y0151382D03*
G36*
G01*
X0091555Y0096500D02*
X0091555Y0095142D01*
G75*
G02*
X0090974Y0094561I-000581J0000000D01*
G01*
X0089813Y0094561D01*
G75*
G02*
X0089232Y0095142I0000000J0000581D01*
G01*
X0089232Y0096500D01*
G75*
G02*
X0089813Y0097081I0000581J0000000D01*
G01*
X0090974Y0097081D01*
G75*
G02*
X0091555Y0096500I0000000J-000581D01*
G01*
G37*
G36*
G01*
X0087736Y0096500D02*
X0087736Y0095142D01*
G75*
G02*
X0087155Y0094561I-000581J0000000D01*
G01*
X0085994Y0094561D01*
G75*
G02*
X0085413Y0095142I0000000J0000581D01*
G01*
X0085413Y0096500D01*
G75*
G02*
X0085994Y0097081I0000581J0000000D01*
G01*
X0087155Y0097081D01*
G75*
G02*
X0087736Y0096500I0000000J-000581D01*
G01*
G37*
G36*
G01*
X0115472Y0092120D02*
X0115472Y0090762D01*
G75*
G02*
X0114891Y0090181I-000581J0000000D01*
G01*
X0113730Y0090181D01*
G75*
G02*
X0113149Y0090762I0000000J0000581D01*
G01*
X0113149Y0092120D01*
G75*
G02*
X0113730Y0092701I0000581J0000000D01*
G01*
X0114891Y0092701D01*
G75*
G02*
X0115472Y0092120I0000000J-000581D01*
G01*
G37*
G36*
G01*
X0111653Y0092120D02*
X0111653Y0090762D01*
G75*
G02*
X0111072Y0090181I-000581J0000000D01*
G01*
X0109911Y0090181D01*
G75*
G02*
X0109330Y0090762I0000000J0000581D01*
G01*
X0109330Y0092120D01*
G75*
G02*
X0109911Y0092701I0000581J0000000D01*
G01*
X0111072Y0092701D01*
G75*
G02*
X0111653Y0092120I0000000J-000581D01*
G01*
G37*
G36*
G01*
X0127736Y0095880D02*
X0127736Y0097238D01*
G75*
G02*
X0128317Y0097819I0000581J0000000D01*
G01*
X0129478Y0097819D01*
G75*
G02*
X0130059Y0097238I0000000J-000581D01*
G01*
X0130059Y0095880D01*
G75*
G02*
X0129478Y0095299I-000581J0000000D01*
G01*
X0128317Y0095299D01*
G75*
G02*
X0127736Y0095880I0000000J0000581D01*
G01*
G37*
G36*
G01*
X0131555Y0095880D02*
X0131555Y0097238D01*
G75*
G02*
X0132135Y0097819I0000581J0000000D01*
G01*
X0133297Y0097819D01*
G75*
G02*
X0133878Y0097238I0000000J-000581D01*
G01*
X0133878Y0095880D01*
G75*
G02*
X0133297Y0095299I-000581J0000000D01*
G01*
X0132135Y0095299D01*
G75*
G02*
X0131555Y0095880I0000000J0000581D01*
G01*
G37*
G36*
G01*
X0100964Y0090762D02*
X0100964Y0092120D01*
G75*
G02*
X0101545Y0092701I0000581J0000000D01*
G01*
X0102706Y0092701D01*
G75*
G02*
X0103287Y0092120I0000000J-000581D01*
G01*
X0103287Y0090762D01*
G75*
G02*
X0102706Y0090181I-000581J0000000D01*
G01*
X0101545Y0090181D01*
G75*
G02*
X0100964Y0090762I0000000J0000581D01*
G01*
G37*
G36*
G01*
X0104783Y0090762D02*
X0104783Y0092120D01*
G75*
G02*
X0105364Y0092701I0000581J0000000D01*
G01*
X0106525Y0092701D01*
G75*
G02*
X0107106Y0092120I0000000J-000581D01*
G01*
X0107106Y0090762D01*
G75*
G02*
X0106525Y0090181I-000581J0000000D01*
G01*
X0105364Y0090181D01*
G75*
G02*
X0104783Y0090762I0000000J0000581D01*
G01*
G37*
G36*
G01*
X0127736Y0130526D02*
X0127736Y0131884D01*
G75*
G02*
X0128317Y0132464I0000581J0000000D01*
G01*
X0129478Y0132464D01*
G75*
G02*
X0130059Y0131884I0000000J-000581D01*
G01*
X0130059Y0130526D01*
G75*
G02*
X0129478Y0129945I-000581J0000000D01*
G01*
X0128317Y0129945D01*
G75*
G02*
X0127736Y0130526I0000000J0000581D01*
G01*
G37*
G36*
G01*
X0131555Y0130526D02*
X0131555Y0131884D01*
G75*
G02*
X0132135Y0132464I0000581J0000000D01*
G01*
X0133297Y0132464D01*
G75*
G02*
X0133878Y0131884I0000000J-000581D01*
G01*
X0133878Y0130526D01*
G75*
G02*
X0133297Y0129945I-000581J0000000D01*
G01*
X0132135Y0129945D01*
G75*
G02*
X0131555Y0130526I0000000J0000581D01*
G01*
G37*
D389*
X0121063Y0066087D03*
D154*
X0092716Y0067189D03*
X0104527Y0075063D03*
X0092716Y0082937D03*
D390*
X0096259Y0075063D03*
D389*
X0121063Y0084039D03*
G36*
G01*
X0101289Y0141559D02*
X0102647Y0141559D01*
G75*
G02*
X0103228Y0140978I0000000J-000581D01*
G01*
X0103228Y0139817D01*
G75*
G02*
X0102647Y0139236I-000581J0000000D01*
G01*
X0101289Y0139236D01*
G75*
G02*
X0100708Y0139817I0000000J0000581D01*
G01*
X0100708Y0140978D01*
G75*
G02*
X0101289Y0141559I0000581J0000000D01*
G01*
G37*
G36*
G01*
X0101289Y0137740D02*
X0102647Y0137740D01*
G75*
G02*
X0103228Y0137159I0000000J-000581D01*
G01*
X0103228Y0135998D01*
G75*
G02*
X0102647Y0135417I-000581J0000000D01*
G01*
X0101289Y0135417D01*
G75*
G02*
X0100708Y0135998I0000000J0000581D01*
G01*
X0100708Y0137159D01*
G75*
G02*
X0101289Y0137740I0000581J0000000D01*
G01*
G37*
G36*
G01*
X0087623Y0103055D02*
X0085605Y0103055D01*
G75*
G02*
X0084744Y0103916I0000000J0000861D01*
G01*
X0084744Y0105639D01*
G75*
G02*
X0085605Y0106500I0000861J0000000D01*
G01*
X0087623Y0106500D01*
G75*
G02*
X0088484Y0105639I0000000J-000861D01*
G01*
X0088484Y0103916D01*
G75*
G02*
X0087623Y0103055I-000861J0000000D01*
G01*
G37*
G36*
G01*
X0087623Y0109256D02*
X0085605Y0109256D01*
G75*
G02*
X0084744Y0110117I0000000J0000861D01*
G01*
X0084744Y0111839D01*
G75*
G02*
X0085605Y0112701I0000861J0000000D01*
G01*
X0087623Y0112701D01*
G75*
G02*
X0088484Y0111839I0000000J-000861D01*
G01*
X0088484Y0110117D01*
G75*
G02*
X0087623Y0109256I-000861J0000000D01*
G01*
G37*
G36*
G01*
X0091555Y0100683D02*
X0091555Y0099325D01*
G75*
G02*
X0090974Y0098744I-000581J0000000D01*
G01*
X0089813Y0098744D01*
G75*
G02*
X0089232Y0099325I0000000J0000581D01*
G01*
X0089232Y0100683D01*
G75*
G02*
X0089813Y0101264I0000581J0000000D01*
G01*
X0090974Y0101264D01*
G75*
G02*
X0091555Y0100683I0000000J-000581D01*
G01*
G37*
G36*
G01*
X0087736Y0100683D02*
X0087736Y0099325D01*
G75*
G02*
X0087155Y0098744I-000581J0000000D01*
G01*
X0085994Y0098744D01*
G75*
G02*
X0085413Y0099325I0000000J0000581D01*
G01*
X0085413Y0100683D01*
G75*
G02*
X0085994Y0101264I0000581J0000000D01*
G01*
X0087155Y0101264D01*
G75*
G02*
X0087736Y0100683I0000000J-000581D01*
G01*
G37*
G36*
G01*
X0087008Y0056574D02*
X0087008Y0058591D01*
G75*
G02*
X0087869Y0059453I0000861J0000000D01*
G01*
X0089591Y0059453D01*
G75*
G02*
X0090452Y0058591I0000000J-000861D01*
G01*
X0090452Y0056574D01*
G75*
G02*
X0089591Y0055713I-000861J0000000D01*
G01*
X0087869Y0055713D01*
G75*
G02*
X0087008Y0056574I0000000J0000861D01*
G01*
G37*
G36*
G01*
X0093208Y0056574D02*
X0093208Y0058591D01*
G75*
G02*
X0094070Y0059453I0000861J0000000D01*
G01*
X0095792Y0059453D01*
G75*
G02*
X0096653Y0058591I0000000J-000861D01*
G01*
X0096653Y0056574D01*
G75*
G02*
X0095792Y0055713I-000861J0000000D01*
G01*
X0094070Y0055713D01*
G75*
G02*
X0093208Y0056574I0000000J0000861D01*
G01*
G37*
G36*
G01*
X0085605Y0124413D02*
X0087623Y0124413D01*
G75*
G02*
X0088484Y0123552I0000000J-000861D01*
G01*
X0088484Y0121830D01*
G75*
G02*
X0087623Y0120968I-000861J0000000D01*
G01*
X0085605Y0120968D01*
G75*
G02*
X0084744Y0121830I0000000J0000861D01*
G01*
X0084744Y0123552D01*
G75*
G02*
X0085605Y0124413I0000861J0000000D01*
G01*
G37*
G36*
G01*
X0085605Y0118213D02*
X0087623Y0118213D01*
G75*
G02*
X0088484Y0117351I0000000J-000861D01*
G01*
X0088484Y0115629D01*
G75*
G02*
X0087623Y0114768I-000861J0000000D01*
G01*
X0085605Y0114768D01*
G75*
G02*
X0084744Y0115629I0000000J0000861D01*
G01*
X0084744Y0117351D01*
G75*
G02*
X0085605Y0118213I0000861J0000000D01*
G01*
G37*
G36*
G01*
X0089783Y0128734D02*
X0089783Y0127376D01*
G75*
G02*
X0089202Y0126795I-000581J0000000D01*
G01*
X0088041Y0126795D01*
G75*
G02*
X0087460Y0127376I0000000J0000581D01*
G01*
X0087460Y0128734D01*
G75*
G02*
X0088041Y0129315I0000581J0000000D01*
G01*
X0089202Y0129315D01*
G75*
G02*
X0089783Y0128734I0000000J-000581D01*
G01*
G37*
G36*
G01*
X0085964Y0128734D02*
X0085964Y0127376D01*
G75*
G02*
X0085383Y0126795I-000581J0000000D01*
G01*
X0084222Y0126795D01*
G75*
G02*
X0083641Y0127376I0000000J0000581D01*
G01*
X0083641Y0128734D01*
G75*
G02*
X0084222Y0129315I0000581J0000000D01*
G01*
X0085383Y0129315D01*
G75*
G02*
X0085964Y0128734I0000000J-000581D01*
G01*
G37*
G36*
G01*
X0102460Y0094295D02*
X0101476Y0094295D01*
G75*
G02*
X0100984Y0094787I0000000J0000492D01*
G01*
X0100984Y0099709D01*
G75*
G02*
X0101476Y0100201I0000492J0000000D01*
G01*
X0102460Y0100201D01*
G75*
G02*
X0102952Y0099709I0000000J-000492D01*
G01*
X0102952Y0094787D01*
G75*
G02*
X0102460Y0094295I-000492J0000000D01*
G01*
G37*
G36*
G01*
X0105610Y0094295D02*
X0104626Y0094295D01*
G75*
G02*
X0104133Y0094787I0000000J0000492D01*
G01*
X0104133Y0099709D01*
G75*
G02*
X0104626Y0100201I0000492J0000000D01*
G01*
X0105610Y0100201D01*
G75*
G02*
X0106102Y0099709I0000000J-000492D01*
G01*
X0106102Y0094787D01*
G75*
G02*
X0105610Y0094295I-000492J0000000D01*
G01*
G37*
G36*
G01*
X0108759Y0094295D02*
X0107775Y0094295D01*
G75*
G02*
X0107283Y0094787I0000000J0000492D01*
G01*
X0107283Y0099709D01*
G75*
G02*
X0107775Y0100201I0000492J0000000D01*
G01*
X0108759Y0100201D01*
G75*
G02*
X0109252Y0099709I0000000J-000492D01*
G01*
X0109252Y0094787D01*
G75*
G02*
X0108759Y0094295I-000492J0000000D01*
G01*
G37*
G36*
G01*
X0111909Y0094295D02*
X0110925Y0094295D01*
G75*
G02*
X0110433Y0094787I0000000J0000492D01*
G01*
X0110433Y0099709D01*
G75*
G02*
X0110925Y0100201I0000492J0000000D01*
G01*
X0111909Y0100201D01*
G75*
G02*
X0112401Y0099709I0000000J-000492D01*
G01*
X0112401Y0094787D01*
G75*
G02*
X0111909Y0094295I-000492J0000000D01*
G01*
G37*
G36*
G01*
X0115059Y0094295D02*
X0114074Y0094295D01*
G75*
G02*
X0113582Y0094787I0000000J0000492D01*
G01*
X0113582Y0099709D01*
G75*
G02*
X0114074Y0100201I0000492J0000000D01*
G01*
X0115059Y0100201D01*
G75*
G02*
X0115551Y0099709I0000000J-000492D01*
G01*
X0115551Y0094787D01*
G75*
G02*
X0115059Y0094295I-000492J0000000D01*
G01*
G37*
G36*
G01*
X0118208Y0094295D02*
X0117224Y0094295D01*
G75*
G02*
X0116732Y0094787I0000000J0000492D01*
G01*
X0116732Y0099709D01*
G75*
G02*
X0117224Y0100201I0000492J0000000D01*
G01*
X0118208Y0100201D01*
G75*
G02*
X0118700Y0099709I0000000J-000492D01*
G01*
X0118700Y0094787D01*
G75*
G02*
X0118208Y0094295I-000492J0000000D01*
G01*
G37*
G36*
G01*
X0121358Y0094295D02*
X0120374Y0094295D01*
G75*
G02*
X0119882Y0094787I0000000J0000492D01*
G01*
X0119882Y0099709D01*
G75*
G02*
X0120374Y0100201I0000492J0000000D01*
G01*
X0121358Y0100201D01*
G75*
G02*
X0121850Y0099709I0000000J-000492D01*
G01*
X0121850Y0094787D01*
G75*
G02*
X0121358Y0094295I-000492J0000000D01*
G01*
G37*
G36*
G01*
X0124508Y0094295D02*
X0123523Y0094295D01*
G75*
G02*
X0123031Y0094787I0000000J0000492D01*
G01*
X0123031Y0099709D01*
G75*
G02*
X0123523Y0100201I0000492J0000000D01*
G01*
X0124508Y0100201D01*
G75*
G02*
X0125000Y0099709I0000000J-000492D01*
G01*
X0125000Y0094787D01*
G75*
G02*
X0124508Y0094295I-000492J0000000D01*
G01*
G37*
G36*
G01*
X0131889Y0101677D02*
X0126968Y0101677D01*
G75*
G02*
X0126476Y0102169I0000000J0000492D01*
G01*
X0126476Y0103153D01*
G75*
G02*
X0126968Y0103646I0000492J0000000D01*
G01*
X0131889Y0103646D01*
G75*
G02*
X0132382Y0103153I0000000J-000492D01*
G01*
X0132382Y0102169D01*
G75*
G02*
X0131889Y0101677I-000492J0000000D01*
G01*
G37*
G36*
G01*
X0131889Y0104827D02*
X0126968Y0104827D01*
G75*
G02*
X0126476Y0105319I0000000J0000492D01*
G01*
X0126476Y0106303D01*
G75*
G02*
X0126968Y0106795I0000492J0000000D01*
G01*
X0131889Y0106795D01*
G75*
G02*
X0132382Y0106303I0000000J-000492D01*
G01*
X0132382Y0105319D01*
G75*
G02*
X0131889Y0104827I-000492J0000000D01*
G01*
G37*
G36*
G01*
X0131889Y0107976D02*
X0126968Y0107976D01*
G75*
G02*
X0126476Y0108468I0000000J0000492D01*
G01*
X0126476Y0109453D01*
G75*
G02*
X0126968Y0109945I0000492J0000000D01*
G01*
X0131889Y0109945D01*
G75*
G02*
X0132382Y0109453I0000000J-000492D01*
G01*
X0132382Y0108468D01*
G75*
G02*
X0131889Y0107976I-000492J0000000D01*
G01*
G37*
G36*
G01*
X0131889Y0111126D02*
X0126968Y0111126D01*
G75*
G02*
X0126476Y0111618I0000000J0000492D01*
G01*
X0126476Y0112602D01*
G75*
G02*
X0126968Y0113094I0000492J0000000D01*
G01*
X0131889Y0113094D01*
G75*
G02*
X0132382Y0112602I0000000J-000492D01*
G01*
X0132382Y0111618D01*
G75*
G02*
X0131889Y0111126I-000492J0000000D01*
G01*
G37*
G36*
G01*
X0131889Y0114276D02*
X0126968Y0114276D01*
G75*
G02*
X0126476Y0114768I0000000J0000492D01*
G01*
X0126476Y0115752D01*
G75*
G02*
X0126968Y0116244I0000492J0000000D01*
G01*
X0131889Y0116244D01*
G75*
G02*
X0132382Y0115752I0000000J-000492D01*
G01*
X0132382Y0114768D01*
G75*
G02*
X0131889Y0114276I-000492J0000000D01*
G01*
G37*
G36*
G01*
X0131889Y0117425D02*
X0126968Y0117425D01*
G75*
G02*
X0126476Y0117917I0000000J0000492D01*
G01*
X0126476Y0118901D01*
G75*
G02*
X0126968Y0119394I0000492J0000000D01*
G01*
X0131889Y0119394D01*
G75*
G02*
X0132382Y0118901I0000000J-000492D01*
G01*
X0132382Y0117917D01*
G75*
G02*
X0131889Y0117425I-000492J0000000D01*
G01*
G37*
G36*
G01*
X0131889Y0120575D02*
X0126968Y0120575D01*
G75*
G02*
X0126476Y0121067I0000000J0000492D01*
G01*
X0126476Y0122051D01*
G75*
G02*
X0126968Y0122543I0000492J0000000D01*
G01*
X0131889Y0122543D01*
G75*
G02*
X0132382Y0122051I0000000J-000492D01*
G01*
X0132382Y0121067D01*
G75*
G02*
X0131889Y0120575I-000492J0000000D01*
G01*
G37*
G36*
G01*
X0131889Y0123724D02*
X0126968Y0123724D01*
G75*
G02*
X0126476Y0124216I0000000J0000492D01*
G01*
X0126476Y0125201D01*
G75*
G02*
X0126968Y0125693I0000492J0000000D01*
G01*
X0131889Y0125693D01*
G75*
G02*
X0132382Y0125201I0000000J-000492D01*
G01*
X0132382Y0124216D01*
G75*
G02*
X0131889Y0123724I-000492J0000000D01*
G01*
G37*
G36*
G01*
X0124508Y0127169D02*
X0123523Y0127169D01*
G75*
G02*
X0123031Y0127661I0000000J0000492D01*
G01*
X0123031Y0132583D01*
G75*
G02*
X0123523Y0133075I0000492J0000000D01*
G01*
X0124508Y0133075D01*
G75*
G02*
X0125000Y0132583I0000000J-000492D01*
G01*
X0125000Y0127661D01*
G75*
G02*
X0124508Y0127169I-000492J0000000D01*
G01*
G37*
G36*
G01*
X0121358Y0127169D02*
X0120374Y0127169D01*
G75*
G02*
X0119882Y0127661I0000000J0000492D01*
G01*
X0119882Y0132583D01*
G75*
G02*
X0120374Y0133075I0000492J0000000D01*
G01*
X0121358Y0133075D01*
G75*
G02*
X0121850Y0132583I0000000J-000492D01*
G01*
X0121850Y0127661D01*
G75*
G02*
X0121358Y0127169I-000492J0000000D01*
G01*
G37*
G36*
G01*
X0118208Y0127169D02*
X0117224Y0127169D01*
G75*
G02*
X0116732Y0127661I0000000J0000492D01*
G01*
X0116732Y0132583D01*
G75*
G02*
X0117224Y0133075I0000492J0000000D01*
G01*
X0118208Y0133075D01*
G75*
G02*
X0118700Y0132583I0000000J-000492D01*
G01*
X0118700Y0127661D01*
G75*
G02*
X0118208Y0127169I-000492J0000000D01*
G01*
G37*
G36*
G01*
X0115059Y0127169D02*
X0114074Y0127169D01*
G75*
G02*
X0113582Y0127661I0000000J0000492D01*
G01*
X0113582Y0132583D01*
G75*
G02*
X0114074Y0133075I0000492J0000000D01*
G01*
X0115059Y0133075D01*
G75*
G02*
X0115551Y0132583I0000000J-000492D01*
G01*
X0115551Y0127661D01*
G75*
G02*
X0115059Y0127169I-000492J0000000D01*
G01*
G37*
G36*
G01*
X0111909Y0127169D02*
X0110925Y0127169D01*
G75*
G02*
X0110433Y0127661I0000000J0000492D01*
G01*
X0110433Y0132583D01*
G75*
G02*
X0110925Y0133075I0000492J0000000D01*
G01*
X0111909Y0133075D01*
G75*
G02*
X0112401Y0132583I0000000J-000492D01*
G01*
X0112401Y0127661D01*
G75*
G02*
X0111909Y0127169I-000492J0000000D01*
G01*
G37*
G36*
G01*
X0108759Y0127169D02*
X0107775Y0127169D01*
G75*
G02*
X0107283Y0127661I0000000J0000492D01*
G01*
X0107283Y0132583D01*
G75*
G02*
X0107775Y0133075I0000492J0000000D01*
G01*
X0108759Y0133075D01*
G75*
G02*
X0109252Y0132583I0000000J-000492D01*
G01*
X0109252Y0127661D01*
G75*
G02*
X0108759Y0127169I-000492J0000000D01*
G01*
G37*
G36*
G01*
X0105610Y0127169D02*
X0104626Y0127169D01*
G75*
G02*
X0104133Y0127661I0000000J0000492D01*
G01*
X0104133Y0132583D01*
G75*
G02*
X0104626Y0133075I0000492J0000000D01*
G01*
X0105610Y0133075D01*
G75*
G02*
X0106102Y0132583I0000000J-000492D01*
G01*
X0106102Y0127661D01*
G75*
G02*
X0105610Y0127169I-000492J0000000D01*
G01*
G37*
G36*
G01*
X0102460Y0127169D02*
X0101476Y0127169D01*
G75*
G02*
X0100984Y0127661I0000000J0000492D01*
G01*
X0100984Y0132583D01*
G75*
G02*
X0101476Y0133075I0000492J0000000D01*
G01*
X0102460Y0133075D01*
G75*
G02*
X0102952Y0132583I0000000J-000492D01*
G01*
X0102952Y0127661D01*
G75*
G02*
X0102460Y0127169I-000492J0000000D01*
G01*
G37*
G36*
G01*
X0099015Y0123724D02*
X0094094Y0123724D01*
G75*
G02*
X0093602Y0124216I0000000J0000492D01*
G01*
X0093602Y0125201D01*
G75*
G02*
X0094094Y0125693I0000492J0000000D01*
G01*
X0099015Y0125693D01*
G75*
G02*
X0099508Y0125201I0000000J-000492D01*
G01*
X0099508Y0124216D01*
G75*
G02*
X0099015Y0123724I-000492J0000000D01*
G01*
G37*
G36*
G01*
X0099015Y0120575D02*
X0094094Y0120575D01*
G75*
G02*
X0093602Y0121067I0000000J0000492D01*
G01*
X0093602Y0122051D01*
G75*
G02*
X0094094Y0122543I0000492J0000000D01*
G01*
X0099015Y0122543D01*
G75*
G02*
X0099508Y0122051I0000000J-000492D01*
G01*
X0099508Y0121067D01*
G75*
G02*
X0099015Y0120575I-000492J0000000D01*
G01*
G37*
G36*
G01*
X0099015Y0117425D02*
X0094094Y0117425D01*
G75*
G02*
X0093602Y0117917I0000000J0000492D01*
G01*
X0093602Y0118901D01*
G75*
G02*
X0094094Y0119394I0000492J0000000D01*
G01*
X0099015Y0119394D01*
G75*
G02*
X0099508Y0118901I0000000J-000492D01*
G01*
X0099508Y0117917D01*
G75*
G02*
X0099015Y0117425I-000492J0000000D01*
G01*
G37*
G36*
G01*
X0099015Y0114276D02*
X0094094Y0114276D01*
G75*
G02*
X0093602Y0114768I0000000J0000492D01*
G01*
X0093602Y0115752D01*
G75*
G02*
X0094094Y0116244I0000492J0000000D01*
G01*
X0099015Y0116244D01*
G75*
G02*
X0099508Y0115752I0000000J-000492D01*
G01*
X0099508Y0114768D01*
G75*
G02*
X0099015Y0114276I-000492J0000000D01*
G01*
G37*
G36*
G01*
X0099015Y0111126D02*
X0094094Y0111126D01*
G75*
G02*
X0093602Y0111618I0000000J0000492D01*
G01*
X0093602Y0112602D01*
G75*
G02*
X0094094Y0113094I0000492J0000000D01*
G01*
X0099015Y0113094D01*
G75*
G02*
X0099508Y0112602I0000000J-000492D01*
G01*
X0099508Y0111618D01*
G75*
G02*
X0099015Y0111126I-000492J0000000D01*
G01*
G37*
G36*
G01*
X0099015Y0107976D02*
X0094094Y0107976D01*
G75*
G02*
X0093602Y0108468I0000000J0000492D01*
G01*
X0093602Y0109453D01*
G75*
G02*
X0094094Y0109945I0000492J0000000D01*
G01*
X0099015Y0109945D01*
G75*
G02*
X0099508Y0109453I0000000J-000492D01*
G01*
X0099508Y0108468D01*
G75*
G02*
X0099015Y0107976I-000492J0000000D01*
G01*
G37*
G36*
G01*
X0099015Y0104827D02*
X0094094Y0104827D01*
G75*
G02*
X0093602Y0105319I0000000J0000492D01*
G01*
X0093602Y0106303D01*
G75*
G02*
X0094094Y0106795I0000492J0000000D01*
G01*
X0099015Y0106795D01*
G75*
G02*
X0099508Y0106303I0000000J-000492D01*
G01*
X0099508Y0105319D01*
G75*
G02*
X0099015Y0104827I-000492J0000000D01*
G01*
G37*
G36*
G01*
X0099015Y0101677D02*
X0094094Y0101677D01*
G75*
G02*
X0093602Y0102169I0000000J0000492D01*
G01*
X0093602Y0103153D01*
G75*
G02*
X0094094Y0103646I0000492J0000000D01*
G01*
X0099015Y0103646D01*
G75*
G02*
X0099508Y0103153I0000000J-000492D01*
G01*
X0099508Y0102169D01*
G75*
G02*
X0099015Y0101677I-000492J0000000D01*
G01*
G37*
G36*
G01*
X0120561Y0136303D02*
X0119202Y0136303D01*
G75*
G02*
X0118622Y0136884I0000000J0000581D01*
G01*
X0118622Y0138045D01*
G75*
G02*
X0119202Y0138626I0000581J0000000D01*
G01*
X0120561Y0138626D01*
G75*
G02*
X0121141Y0138045I0000000J-000581D01*
G01*
X0121141Y0136884D01*
G75*
G02*
X0120561Y0136303I-000581J0000000D01*
G01*
G37*
G36*
G01*
X0120561Y0140122D02*
X0119202Y0140122D01*
G75*
G02*
X0118622Y0140703I0000000J0000581D01*
G01*
X0118622Y0141864D01*
G75*
G02*
X0119202Y0142445I0000581J0000000D01*
G01*
X0120561Y0142445D01*
G75*
G02*
X0121141Y0141864I0000000J-000581D01*
G01*
X0121141Y0140703D01*
G75*
G02*
X0120561Y0140122I-000581J0000000D01*
G01*
G37*
G36*
G01*
X0097165Y0129226D02*
X0097165Y0127868D01*
G75*
G02*
X0096584Y0127287I-000581J0000000D01*
G01*
X0095423Y0127287D01*
G75*
G02*
X0094842Y0127868I0000000J0000581D01*
G01*
X0094842Y0129226D01*
G75*
G02*
X0095423Y0129807I0000581J0000000D01*
G01*
X0096584Y0129807D01*
G75*
G02*
X0097165Y0129226I0000000J-000581D01*
G01*
G37*
G36*
G01*
X0093346Y0129226D02*
X0093346Y0127868D01*
G75*
G02*
X0092765Y0127287I-000581J0000000D01*
G01*
X0091604Y0127287D01*
G75*
G02*
X0091023Y0127868I0000000J0000581D01*
G01*
X0091023Y0129226D01*
G75*
G02*
X0091604Y0129807I0000581J0000000D01*
G01*
X0092765Y0129807D01*
G75*
G02*
X0093346Y0129226I0000000J-000581D01*
G01*
G37*
G36*
G01*
X0119202Y0152870D02*
X0120561Y0152870D01*
G75*
G02*
X0121141Y0152289I0000000J-000581D01*
G01*
X0121141Y0151128D01*
G75*
G02*
X0120561Y0150547I-000581J0000000D01*
G01*
X0119202Y0150547D01*
G75*
G02*
X0118622Y0151128I0000000J0000581D01*
G01*
X0118622Y0152289D01*
G75*
G02*
X0119202Y0152870I0000581J0000000D01*
G01*
G37*
G36*
G01*
X0119202Y0149051D02*
X0120561Y0149051D01*
G75*
G02*
X0121141Y0148470I0000000J-000581D01*
G01*
X0121141Y0147309D01*
G75*
G02*
X0120561Y0146728I-000581J0000000D01*
G01*
X0119202Y0146728D01*
G75*
G02*
X0118622Y0147309I0000000J0000581D01*
G01*
X0118622Y0148470D01*
G75*
G02*
X0119202Y0149051I0000581J0000000D01*
G01*
G37*
D152*
X0124803Y0151382D03*
X0124803Y0143901D03*
X0132677Y0147642D03*
G36*
G01*
X0099035Y0092317D02*
X0099035Y0090959D01*
G75*
G02*
X0098454Y0090378I-000581J0000000D01*
G01*
X0097293Y0090378D01*
G75*
G02*
X0096712Y0090959I0000000J0000581D01*
G01*
X0096712Y0092317D01*
G75*
G02*
X0097293Y0092898I0000581J0000000D01*
G01*
X0098454Y0092898D01*
G75*
G02*
X0099035Y0092317I0000000J-000581D01*
G01*
G37*
G36*
G01*
X0095216Y0092317D02*
X0095216Y0090959D01*
G75*
G02*
X0094635Y0090378I-000581J0000000D01*
G01*
X0093474Y0090378D01*
G75*
G02*
X0092893Y0090959I0000000J0000581D01*
G01*
X0092893Y0092317D01*
G75*
G02*
X0093474Y0092898I0000581J0000000D01*
G01*
X0094635Y0092898D01*
G75*
G02*
X0095216Y0092317I0000000J-000581D01*
G01*
G37*
G36*
G01*
X0134074Y0138444D02*
X0134074Y0136426D01*
G75*
G02*
X0133213Y0135565I-000861J0000000D01*
G01*
X0131491Y0135565D01*
G75*
G02*
X0130630Y0136426I0000000J0000861D01*
G01*
X0130630Y0138444D01*
G75*
G02*
X0131491Y0139305I0000861J0000000D01*
G01*
X0133213Y0139305D01*
G75*
G02*
X0134074Y0138444I0000000J-000861D01*
G01*
G37*
G36*
G01*
X0127874Y0138444D02*
X0127874Y0136426D01*
G75*
G02*
X0127012Y0135565I-000861J0000000D01*
G01*
X0125290Y0135565D01*
G75*
G02*
X0124429Y0136426I0000000J0000861D01*
G01*
X0124429Y0138444D01*
G75*
G02*
X0125290Y0139305I0000861J0000000D01*
G01*
X0127012Y0139305D01*
G75*
G02*
X0127874Y0138444I0000000J-000861D01*
G01*
G37*
D167*
X0091929Y0154197D03*
X0087929Y0134197D03*
X0095929Y0134197D03*
D164*
X0089429Y0149197D03*
X0094429Y0149197D03*
X0089429Y0144197D03*
X0094429Y0144197D03*
X0089429Y0139197D03*
X0094429Y0139197D03*
D391*
X0130807Y0064709D03*
D392*
X0130807Y0074709D03*
X0130807Y0084709D03*
X0424606Y0232091D02*
G01*
G75*
D487*
X0300984Y0214001D02*
D03*
X0293897Y0214001D02*
D03*
X0293897Y0224040D02*
D03*
X0300984Y0224040D02*
D03*
X0412795Y0165260D02*
D03*
X0419882Y0165260D02*
D03*
X0419882Y0175300D02*
D03*
X0412795Y0175300D02*
D03*
X0412795Y0159158D02*
D03*
X0419882Y0159158D02*
D03*
X0419882Y0149118D02*
D03*
X0412795Y0149118D02*
D03*
D488*
X0300984Y0217445D02*
D03*
X0300984Y0220595D02*
D03*
X0293897Y0220595D02*
D03*
X0293897Y0217445D02*
D03*
X0419882Y0171855D02*
D03*
X0419882Y0168705D02*
D03*
X0412795Y0168705D02*
D03*
X0412795Y0171855D02*
D03*
X0412795Y0155713D02*
D03*
X0412795Y0152563D02*
D03*
X0419882Y0152563D02*
D03*
X0419882Y0155713D02*
D03*
D489*
X0305196Y0216997D02*
D03*
X0305196Y0214438D02*
D03*
X0305196Y0211878D02*
D03*
X0312676Y0216997D02*
D03*
X0312676Y0211878D02*
D03*
X0312676Y0214438D02*
D03*
X0312676Y0221622D02*
D03*
X0312676Y0226741D02*
D03*
X0305196Y0221622D02*
D03*
X0305196Y0224182D02*
D03*
X0305196Y0226741D02*
D03*
X0312676Y0224182D02*
D03*
D202*
X0372404Y0117721D02*
D03*
X0372404Y0119689D02*
D03*
X0372404Y0121658D02*
D03*
X0372404Y0123626D02*
D03*
X0372404Y0125595D02*
D03*
X0372404Y0127563D02*
D03*
X0372404Y0129532D02*
D03*
X0372404Y0131500D02*
D03*
X0372404Y0133469D02*
D03*
X0372404Y0137406D02*
D03*
X0372404Y0139375D02*
D03*
X0372404Y0141343D02*
D03*
X0372404Y0143312D02*
D03*
X0372404Y0145280D02*
D03*
X0372404Y0147249D02*
D03*
X0372404Y0149217D02*
D03*
X0372404Y0151186D02*
D03*
X0372404Y0153154D02*
D03*
X0372404Y0155123D02*
D03*
X0372404Y0157091D02*
D03*
X0372404Y0159059D02*
D03*
X0372404Y0161028D02*
D03*
X0372404Y0162996D02*
D03*
X0372404Y0164965D02*
D03*
X0311380Y0164965D02*
D03*
X0311380Y0162996D02*
D03*
X0311380Y0161028D02*
D03*
X0311380Y0159059D02*
D03*
X0311380Y0157091D02*
D03*
X0311380Y0155123D02*
D03*
X0311380Y0153154D02*
D03*
X0311380Y0151186D02*
D03*
X0311380Y0149217D02*
D03*
X0311380Y0147249D02*
D03*
X0311380Y0145280D02*
D03*
X0311380Y0143312D02*
D03*
X0311380Y0141343D02*
D03*
X0311380Y0139375D02*
D03*
X0311380Y0137406D02*
D03*
X0311380Y0135438D02*
D03*
X0311380Y0133469D02*
D03*
X0311380Y0131500D02*
D03*
X0311380Y0129532D02*
D03*
X0311380Y0127563D02*
D03*
X0311380Y0125595D02*
D03*
X0311380Y0123626D02*
D03*
X0311380Y0121658D02*
D03*
X0311380Y0117721D02*
D03*
X0372404Y0135438D02*
D03*
X0311380Y0119689D02*
D03*
D203*
X0365514Y0171855D02*
D03*
X0361577Y0171855D02*
D03*
X0359608Y0171855D02*
D03*
X0357640Y0171855D02*
D03*
X0355671Y0171855D02*
D03*
X0353703Y0171855D02*
D03*
X0351734Y0171855D02*
D03*
X0349766Y0171855D02*
D03*
X0347797Y0171855D02*
D03*
X0345829Y0171855D02*
D03*
X0343860Y0171855D02*
D03*
X0341892Y0171855D02*
D03*
X0339923Y0171855D02*
D03*
X0337955Y0171855D02*
D03*
X0335986Y0171855D02*
D03*
X0334018Y0171855D02*
D03*
X0332049Y0171855D02*
D03*
X0330081Y0171855D02*
D03*
X0328112Y0171855D02*
D03*
X0326144Y0171855D02*
D03*
X0324175Y0171855D02*
D03*
X0322207Y0171855D02*
D03*
X0320238Y0171855D02*
D03*
X0318270Y0171855D02*
D03*
X0318270Y0110831D02*
D03*
X0320238Y0110831D02*
D03*
X0322207Y0110831D02*
D03*
X0324175Y0110831D02*
D03*
X0326144Y0110831D02*
D03*
X0328112Y0110831D02*
D03*
X0330081Y0110831D02*
D03*
X0332049Y0110831D02*
D03*
X0334018Y0110831D02*
D03*
X0335986Y0110831D02*
D03*
X0337955Y0110831D02*
D03*
X0339923Y0110831D02*
D03*
X0341892Y0110831D02*
D03*
X0343860Y0110831D02*
D03*
X0345829Y0110831D02*
D03*
X0347797Y0110831D02*
D03*
X0349766Y0110831D02*
D03*
X0351734Y0110831D02*
D03*
X0353703Y0110831D02*
D03*
X0355671Y0110831D02*
D03*
X0357640Y0110831D02*
D03*
X0359608Y0110831D02*
D03*
X0361577Y0110831D02*
D03*
X0363545Y0110831D02*
D03*
X0365514Y0110831D02*
D03*
X0363545Y0171855D02*
D03*
D204*
X0368897Y0188784D02*
D03*
X0340945Y0188784D02*
D03*
X0396850Y0188784D02*
D03*
X0391338Y0193902D02*
D03*
X0363385Y0183666D02*
D03*
X0363385Y0186225D02*
D03*
X0363385Y0188784D02*
D03*
X0363385Y0191343D02*
D03*
X0363385Y0193902D02*
D03*
X0363385Y0196461D02*
D03*
X0363385Y0199020D02*
D03*
X0340945Y0183666D02*
D03*
X0340945Y0186225D02*
D03*
X0340945Y0191343D02*
D03*
X0340945Y0193902D02*
D03*
X0340945Y0196461D02*
D03*
X0340945Y0199020D02*
D03*
X0419291Y0183666D02*
D03*
X0419291Y0186225D02*
D03*
X0419291Y0188784D02*
D03*
X0419291Y0191343D02*
D03*
X0419291Y0193902D02*
D03*
X0419291Y0196461D02*
D03*
X0419291Y0199020D02*
D03*
X0396850Y0183666D02*
D03*
X0396850Y0186225D02*
D03*
X0396850Y0191343D02*
D03*
X0396850Y0193902D02*
D03*
X0396850Y0196461D02*
D03*
X0396850Y0199020D02*
D03*
X0391338Y0183666D02*
D03*
X0391338Y0186225D02*
D03*
X0391338Y0188784D02*
D03*
X0391338Y0191343D02*
D03*
X0391338Y0196461D02*
D03*
X0391338Y0199020D02*
D03*
X0368897Y0183666D02*
D03*
X0368897Y0186225D02*
D03*
X0368897Y0191343D02*
D03*
X0368897Y0193902D02*
D03*
X0368897Y0196461D02*
D03*
X0368897Y0199020D02*
D03*
X0312992Y0199020D02*
D03*
X0312992Y0196461D02*
D03*
X0312992Y0193902D02*
D03*
X0312992Y0191343D02*
D03*
X0312992Y0188784D02*
D03*
X0312992Y0186225D02*
D03*
X0312992Y0183666D02*
D03*
X0335433Y0199020D02*
D03*
X0335433Y0196461D02*
D03*
X0335433Y0193902D02*
D03*
X0335433Y0191343D02*
D03*
X0335433Y0188784D02*
D03*
X0335433Y0186225D02*
D03*
X0335433Y0183666D02*
D03*
D205*
X0314488Y0097898D02*
D03*
X0314488Y0102898D02*
D03*
X0319488Y0097898D02*
D03*
X0319488Y0102898D02*
D03*
X0324488Y0097898D02*
D03*
X0324488Y0102898D02*
D03*
D490*
X0300197Y0096658D02*
D03*
X0296456Y0096658D02*
D03*
X0303937Y0096658D02*
D03*
X0303937Y0106107D02*
D03*
X0300197Y0106107D02*
D03*
X0296456Y0106107D02*
D03*
D491*
X0298747Y0117918D02*
D03*
X0298747Y0113193D02*
D03*
X0300216Y0127465D02*
D03*
X0386756Y0100680D02*
D03*
X0373444Y0176546D02*
D03*
X0302683Y0117918D02*
D03*
X0296278Y0127465D02*
D03*
X0301578Y0164449D02*
D03*
X0297641Y0164449D02*
D03*
X0301578Y0173504D02*
D03*
X0297641Y0173504D02*
D03*
X0302683Y0113193D02*
D03*
X0382819Y0100680D02*
D03*
X0389896Y0117395D02*
D03*
X0385959Y0117395D02*
D03*
X0369507Y0176546D02*
D03*
X0369488Y0172250D02*
D03*
X0373425Y0172250D02*
D03*
D208*
X0296290Y0136100D02*
D03*
X0296290Y0138068D02*
D03*
X0302589Y0134131D02*
D03*
X0302589Y0136100D02*
D03*
X0302589Y0132163D02*
D03*
X0302589Y0138068D02*
D03*
X0296290Y0132163D02*
D03*
X0296290Y0134131D02*
D03*
D209*
X0298455Y0138265D02*
D03*
X0300424Y0138265D02*
D03*
X0300424Y0131966D02*
D03*
X0298455Y0131966D02*
D03*
D492*
X0301195Y0143115D02*
D03*
X0301195Y0159650D02*
D03*
D493*
X0329724Y0215556D02*
D03*
X0320275Y0215556D02*
D03*
X0325000Y0215556D02*
D03*
X0334448Y0215556D02*
D03*
X0320275Y0226973D02*
D03*
X0329724Y0226973D02*
D03*
X0325000Y0226973D02*
D03*
X0334448Y0226973D02*
D03*
X0340658Y0208576D02*
D03*
X0340658Y0204639D02*
D03*
X0334448Y0223036D02*
D03*
D03*
X0334448Y0219099D02*
D03*
X0329724Y0223036D02*
D03*
X0329724Y0219099D02*
D03*
X0334448Y0211619D02*
D03*
X0325000Y0223036D02*
D03*
X0325000Y0219099D02*
D03*
X0329724Y0211619D02*
D03*
X0325000Y0211619D02*
D03*
X0320275Y0223036D02*
D03*
X0320275Y0219099D02*
D03*
X0320275Y0223036D02*
D03*
X0320275Y0211619D02*
D03*
X0329724Y0223036D02*
D03*
X0325000Y0223036D02*
D03*
X0420472Y0220674D02*
D03*
X0420472Y0224611D02*
D03*
X0395866Y0223036D02*
D03*
X0395866Y0226973D02*
D03*
X0381693Y0223036D02*
D03*
X0381693Y0226973D02*
D03*
X0362795Y0219099D02*
D03*
X0362795Y0223036D02*
D03*
X0362795Y0226973D02*
D03*
X0362795Y0223036D02*
D03*
X0348622Y0219099D02*
D03*
X0348622Y0223036D02*
D03*
X0420472Y0203941D02*
D03*
X0420472Y0207878D02*
D03*
X0414763Y0223036D02*
D03*
X0414763Y0219099D02*
D03*
X0410039Y0223036D02*
D03*
X0410039Y0219099D02*
D03*
X0405315Y0223036D02*
D03*
X0405315Y0219099D02*
D03*
X0400590Y0223036D02*
D03*
X0400590Y0219099D02*
D03*
X0414763Y0223036D02*
D03*
X0414763Y0226973D02*
D03*
X0410039Y0223036D02*
D03*
X0410039Y0226973D02*
D03*
X0405315Y0223036D02*
D03*
X0405315Y0226973D02*
D03*
X0400590Y0223036D02*
D03*
X0400590Y0226973D02*
D03*
X0395866Y0223036D02*
D03*
X0395866Y0219099D02*
D03*
X0391141Y0223036D02*
D03*
X0391141Y0219099D02*
D03*
X0386417Y0223036D02*
D03*
X0386417Y0219099D02*
D03*
X0381693Y0223036D02*
D03*
X0381693Y0219099D02*
D03*
X0391141Y0223036D02*
D03*
X0391141Y0226973D02*
D03*
X0386417Y0223036D02*
D03*
X0386417Y0226973D02*
D03*
X0376968Y0219099D02*
D03*
X0376968Y0223036D02*
D03*
X0372244Y0219099D02*
D03*
X0372244Y0223036D02*
D03*
X0367519Y0219099D02*
D03*
X0367519Y0223036D02*
D03*
X0376968Y0226973D02*
D03*
X0376968Y0223036D02*
D03*
X0372244Y0226973D02*
D03*
X0372244Y0223036D02*
D03*
X0367519Y0226973D02*
D03*
X0367519Y0223036D02*
D03*
X0358070Y0219099D02*
D03*
X0358070Y0223036D02*
D03*
X0353346Y0219099D02*
D03*
X0353346Y0223036D02*
D03*
X0343897Y0219099D02*
D03*
X0343897Y0223036D02*
D03*
X0358070Y0226973D02*
D03*
X0358070Y0223036D02*
D03*
X0353346Y0226973D02*
D03*
X0353346Y0223036D02*
D03*
X0348622Y0226973D02*
D03*
X0348622Y0223036D02*
D03*
X0343897Y0226973D02*
D03*
X0343897Y0223036D02*
D03*
X0420472Y0212997D02*
D03*
X0420472Y0216934D02*
D03*
D494*
X0355708Y0210044D02*
D03*
X0374606Y0210044D02*
D03*
X0393504Y0210044D02*
D03*
X0412401Y0210044D02*
D03*
X0384055Y0206304D02*
D03*
X0384055Y0210044D02*
D03*
X0384055Y0213784D02*
D03*
X0393504Y0213784D02*
D03*
X0393504Y0206304D02*
D03*
X0402952Y0206304D02*
D03*
X0402952Y0210044D02*
D03*
X0402952Y0213784D02*
D03*
X0412401Y0213784D02*
D03*
X0412401Y0206304D02*
D03*
X0365157Y0206304D02*
D03*
X0365157Y0210044D02*
D03*
X0365157Y0213784D02*
D03*
X0374606Y0213784D02*
D03*
X0374606Y0206304D02*
D03*
X0346259Y0206304D02*
D03*
X0346259Y0210044D02*
D03*
X0346259Y0213784D02*
D03*
X0355708Y0213784D02*
D03*
X0355708Y0206304D02*
D03*
D495*
X0389693Y0113009D02*
D03*
X0371771Y0102760D02*
D03*
D214*
X0399015Y0138132D02*
D03*
X0417913Y0143132D02*
D03*
X0417913Y0128132D02*
D03*
X0417913Y0133132D02*
D03*
X0417913Y0138132D02*
D03*
X0399015Y0128132D02*
D03*
X0399015Y0133132D02*
D03*
X0399015Y0143132D02*
D03*
D496*
X0417323Y0120491D02*
D03*
X0399212Y0120491D02*
D03*
D497*
X0382861Y0152017D02*
D03*
X0399070Y0152565D02*
D03*
X0382384Y0160177D02*
D03*
X0382384Y0167788D02*
D03*
X0399070Y0160177D02*
D03*
X0399070Y0167788D02*
D03*
X0382384Y0175400D02*
D03*
X0399070Y0175400D02*
D03*
X0389554Y0152017D02*
D03*
X0389077Y0160177D02*
D03*
X0389077Y0167788D02*
D03*
X0389077Y0175400D02*
D03*
X0405763Y0160177D02*
D03*
X0405763Y0152565D02*
D03*
X0389554Y0144040D02*
D03*
X0382861Y0144040D02*
D03*
X0382861Y0136953D02*
D03*
X0389554Y0136953D02*
D03*
X0389554Y0129867D02*
D03*
X0382861Y0129867D02*
D03*
X0382861Y0122780D02*
D03*
X0389554Y0122780D02*
D03*
X0405763Y0167788D02*
D03*
X0405763Y0175400D02*
D03*
X0382861Y0095280D02*
D03*
X0389554Y0095280D02*
D03*
D498*
X0296187Y0122693D02*
D03*
X0302487Y0122693D02*
D03*
X0303547Y0169134D02*
D03*
X0297247Y0169134D02*
D03*
D499*
X0336812Y0099751D02*
D03*
X0353347Y0099751D02*
D03*
D495*
X0371771Y0095280D02*
D03*
X0362519Y0099020D02*
D03*
X0389693Y0105529D02*
D03*
X0380441Y0109269D02*
D03*
D500*
X0408267Y0096081D02*
D03*
D501*
X0408267Y0120491D02*
D03*
D221*
X0338976Y0223036D02*
D03*
X0419882Y0228941D02*
D03*
D502*
X0301785Y0205294D02*
D03*
X0301785Y0187578D02*
D03*
D223*
X0346693Y0177957D02*
D03*
X0332480Y0177957D02*
D03*
X0362480Y0177957D02*
D03*
D224*
X0309488Y0100398D02*
D03*
X0329488Y0104398D02*
D03*
X0329488Y0096398D02*
D03*
D37*
X0420275Y0094689D02*
D03*
X0016043Y0138783D02*
%LPD*%
G01*
G36*
G01*
X0051752Y0071175D02*
X0051752Y0072533D01*
G75*
G02*
X0052332Y0073114I0000581J0000000D01*
G01*
X0053494Y0073114D01*
G75*
G02*
X0054074Y0072533I0000000J-000581D01*
G01*
X0054074Y0071175D01*
G75*
G02*
X0053494Y0070594I-000581J0000000D01*
G01*
X0052332Y0070594D01*
G75*
G02*
X0051752Y0071175I0000000J0000581D01*
G01*
G37*
G36*
G01*
X0055571Y0071175D02*
X0055571Y0072533D01*
G75*
G02*
X0056151Y0073114I0000581J0000000D01*
G01*
X0057313Y0073114D01*
G75*
G02*
X0057893Y0072533I0000000J-000581D01*
G01*
X0057893Y0071175D01*
G75*
G02*
X0057313Y0070594I-000581J0000000D01*
G01*
X0056151Y0070594D01*
G75*
G02*
X0055571Y0071175I0000000J0000581D01*
G01*
G37*
G36*
G01*
X0036328Y0129748D02*
X0037687Y0129748D01*
G75*
G02*
X0038267Y0129167I0000000J-000581D01*
G01*
X0038267Y0128005D01*
G75*
G02*
X0037687Y0127425I-000581J0000000D01*
G01*
X0036328Y0127425D01*
G75*
G02*
X0035748Y0128005I0000000J0000581D01*
G01*
X0035748Y0129167D01*
G75*
G02*
X0036328Y0129748I0000581J0000000D01*
G01*
G37*
G36*
G01*
X0036328Y0125929D02*
X0037687Y0125929D01*
G75*
G02*
X0038267Y0125348I0000000J-000581D01*
G01*
X0038267Y0124187D01*
G75*
G02*
X0037687Y0123606I-000581J0000000D01*
G01*
X0036328Y0123606D01*
G75*
G02*
X0035748Y0124187I0000000J0000581D01*
G01*
X0035748Y0125348D01*
G75*
G02*
X0036328Y0125929I0000581J0000000D01*
G01*
G37*
G36*
G01*
X0051525Y0119221D02*
X0051525Y0117203D01*
G75*
G02*
X0050664Y0116342I-000861J0000000D01*
G01*
X0048942Y0116342D01*
G75*
G02*
X0048080Y0117203I0000000J0000861D01*
G01*
X0048080Y0119221D01*
G75*
G02*
X0048942Y0120082I0000861J0000000D01*
G01*
X0050664Y0120082D01*
G75*
G02*
X0051525Y0119221I0000000J-000861D01*
G01*
G37*
G36*
G01*
X0045324Y0119221D02*
X0045324Y0117203D01*
G75*
G02*
X0044463Y0116342I-000861J0000000D01*
G01*
X0042741Y0116342D01*
G75*
G02*
X0041880Y0117203I0000000J0000861D01*
G01*
X0041880Y0119221D01*
G75*
G02*
X0042741Y0120082I0000861J0000000D01*
G01*
X0044463Y0120082D01*
G75*
G02*
X0045324Y0119221I0000000J-000861D01*
G01*
G37*
G36*
G01*
X0026496Y0072730D02*
X0026496Y0071372D01*
G75*
G02*
X0025915Y0070791I-000581J0000000D01*
G01*
X0024754Y0070791D01*
G75*
G02*
X0024173Y0071372I0000000J0000581D01*
G01*
X0024173Y0072730D01*
G75*
G02*
X0024754Y0073311I0000581J0000000D01*
G01*
X0025915Y0073311D01*
G75*
G02*
X0026496Y0072730I0000000J-000581D01*
G01*
G37*
G36*
G01*
X0022677Y0072730D02*
X0022677Y0071372D01*
G75*
G02*
X0022096Y0070791I-000581J0000000D01*
G01*
X0020935Y0070791D01*
G75*
G02*
X0020354Y0071372I0000000J0000581D01*
G01*
X0020354Y0072730D01*
G75*
G02*
X0020935Y0073311I0000581J0000000D01*
G01*
X0022096Y0073311D01*
G75*
G02*
X0022677Y0072730I0000000J-000581D01*
G01*
G37*
D156*
X0042323Y0123921D03*
X0049803Y0123921D03*
X0046063Y0131795D03*
G36*
G01*
X0026496Y0076913D02*
X0026496Y0075555D01*
G75*
G02*
X0025915Y0074974I-000581J0000000D01*
G01*
X0024754Y0074974D01*
G75*
G02*
X0024173Y0075555I0000000J0000581D01*
G01*
X0024173Y0076913D01*
G75*
G02*
X0024754Y0077494I0000581J0000000D01*
G01*
X0025915Y0077494D01*
G75*
G02*
X0026496Y0076913I0000000J-000581D01*
G01*
G37*
G36*
G01*
X0022677Y0076913D02*
X0022677Y0075555D01*
G75*
G02*
X0022096Y0074974I-000581J0000000D01*
G01*
X0020935Y0074974D01*
G75*
G02*
X0020354Y0075555I0000000J0000581D01*
G01*
X0020354Y0076913D01*
G75*
G02*
X0020935Y0077494I0000581J0000000D01*
G01*
X0022096Y0077494D01*
G75*
G02*
X0022677Y0076913I0000000J-000581D01*
G01*
G37*
G36*
G01*
X0050413Y0072533D02*
X0050413Y0071175D01*
G75*
G02*
X0049832Y0070594I-000581J0000000D01*
G01*
X0048671Y0070594D01*
G75*
G02*
X0048090Y0071175I0000000J0000581D01*
G01*
X0048090Y0072533D01*
G75*
G02*
X0048671Y0073114I0000581J0000000D01*
G01*
X0049832Y0073114D01*
G75*
G02*
X0050413Y0072533I0000000J-000581D01*
G01*
G37*
G36*
G01*
X0046594Y0072533D02*
X0046594Y0071175D01*
G75*
G02*
X0046013Y0070594I-000581J0000000D01*
G01*
X0044852Y0070594D01*
G75*
G02*
X0044271Y0071175I0000000J0000581D01*
G01*
X0044271Y0072533D01*
G75*
G02*
X0044852Y0073114I0000581J0000000D01*
G01*
X0046013Y0073114D01*
G75*
G02*
X0046594Y0072533I0000000J-000581D01*
G01*
G37*
G36*
G01*
X0062677Y0076293D02*
X0062677Y0077651D01*
G75*
G02*
X0063258Y0078232I0000581J0000000D01*
G01*
X0064419Y0078232D01*
G75*
G02*
X0065000Y0077651I0000000J-000581D01*
G01*
X0065000Y0076293D01*
G75*
G02*
X0064419Y0075712I-000581J0000000D01*
G01*
X0063258Y0075712D01*
G75*
G02*
X0062677Y0076293I0000000J0000581D01*
G01*
G37*
G36*
G01*
X0066496Y0076293D02*
X0066496Y0077651D01*
G75*
G02*
X0067076Y0078232I0000581J0000000D01*
G01*
X0068238Y0078232D01*
G75*
G02*
X0068819Y0077651I0000000J-000581D01*
G01*
X0068819Y0076293D01*
G75*
G02*
X0068238Y0075712I-000581J0000000D01*
G01*
X0067076Y0075712D01*
G75*
G02*
X0066496Y0076293I0000000J0000581D01*
G01*
G37*
G36*
G01*
X0035905Y0071175D02*
X0035905Y0072533D01*
G75*
G02*
X0036486Y0073114I0000581J0000000D01*
G01*
X0037647Y0073114D01*
G75*
G02*
X0038228Y0072533I0000000J-000581D01*
G01*
X0038228Y0071175D01*
G75*
G02*
X0037647Y0070594I-000581J0000000D01*
G01*
X0036486Y0070594D01*
G75*
G02*
X0035905Y0071175I0000000J0000581D01*
G01*
G37*
G36*
G01*
X0039724Y0071175D02*
X0039724Y0072533D01*
G75*
G02*
X0040305Y0073114I0000581J0000000D01*
G01*
X0041466Y0073114D01*
G75*
G02*
X0042047Y0072533I0000000J-000581D01*
G01*
X0042047Y0071175D01*
G75*
G02*
X0041466Y0070594I-000581J0000000D01*
G01*
X0040305Y0070594D01*
G75*
G02*
X0039724Y0071175I0000000J0000581D01*
G01*
G37*
G36*
G01*
X0062677Y0110939D02*
X0062677Y0112297D01*
G75*
G02*
X0063258Y0112877I0000581J0000000D01*
G01*
X0064419Y0112877D01*
G75*
G02*
X0065000Y0112297I0000000J-000581D01*
G01*
X0065000Y0110939D01*
G75*
G02*
X0064419Y0110358I-000581J0000000D01*
G01*
X0063258Y0110358D01*
G75*
G02*
X0062677Y0110939I0000000J0000581D01*
G01*
G37*
G36*
G01*
X0066496Y0110939D02*
X0066496Y0112297D01*
G75*
G02*
X0067076Y0112877I0000581J0000000D01*
G01*
X0068238Y0112877D01*
G75*
G02*
X0068819Y0112297I0000000J-000581D01*
G01*
X0068819Y0110939D01*
G75*
G02*
X0068238Y0110358I-000581J0000000D01*
G01*
X0067076Y0110358D01*
G75*
G02*
X0066496Y0110939I0000000J0000581D01*
G01*
G37*
D389*
X0056004Y0046500D03*
D154*
X0027657Y0047602D03*
X0039468Y0055476D03*
X0027657Y0063350D03*
D390*
X0031200Y0055476D03*
D389*
X0056004Y0064452D03*
G36*
G01*
X0036230Y0121972D02*
X0037588Y0121972D01*
G75*
G02*
X0038169Y0121391I0000000J-000581D01*
G01*
X0038169Y0120230D01*
G75*
G02*
X0037588Y0119649I-000581J0000000D01*
G01*
X0036230Y0119649D01*
G75*
G02*
X0035649Y0120230I0000000J0000581D01*
G01*
X0035649Y0121391D01*
G75*
G02*
X0036230Y0121972I0000581J0000000D01*
G01*
G37*
G36*
G01*
X0036230Y0118153D02*
X0037588Y0118153D01*
G75*
G02*
X0038169Y0117572I0000000J-000581D01*
G01*
X0038169Y0116411D01*
G75*
G02*
X0037588Y0115830I-000581J0000000D01*
G01*
X0036230Y0115830D01*
G75*
G02*
X0035649Y0116411I0000000J0000581D01*
G01*
X0035649Y0117572D01*
G75*
G02*
X0036230Y0118153I0000581J0000000D01*
G01*
G37*
G36*
G01*
X0022564Y0083468D02*
X0020546Y0083468D01*
G75*
G02*
X0019685Y0084329I0000000J0000861D01*
G01*
X0019685Y0086052D01*
G75*
G02*
X0020546Y0086913I0000861J0000000D01*
G01*
X0022564Y0086913D01*
G75*
G02*
X0023425Y0086052I0000000J-000861D01*
G01*
X0023425Y0084329D01*
G75*
G02*
X0022564Y0083468I-000861J0000000D01*
G01*
G37*
G36*
G01*
X0022564Y0089669D02*
X0020546Y0089669D01*
G75*
G02*
X0019685Y0090530I0000000J0000861D01*
G01*
X0019685Y0092252D01*
G75*
G02*
X0020546Y0093114I0000861J0000000D01*
G01*
X0022564Y0093114D01*
G75*
G02*
X0023425Y0092252I0000000J-000861D01*
G01*
X0023425Y0090530D01*
G75*
G02*
X0022564Y0089669I-000861J0000000D01*
G01*
G37*
G36*
G01*
X0026496Y0081096D02*
X0026496Y0079738D01*
G75*
G02*
X0025915Y0079157I-000581J0000000D01*
G01*
X0024754Y0079157D01*
G75*
G02*
X0024173Y0079738I0000000J0000581D01*
G01*
X0024173Y0081096D01*
G75*
G02*
X0024754Y0081677I0000581J0000000D01*
G01*
X0025915Y0081677D01*
G75*
G02*
X0026496Y0081096I0000000J-000581D01*
G01*
G37*
G36*
G01*
X0022677Y0081096D02*
X0022677Y0079738D01*
G75*
G02*
X0022096Y0079157I-000581J0000000D01*
G01*
X0020935Y0079157D01*
G75*
G02*
X0020354Y0079738I0000000J0000581D01*
G01*
X0020354Y0081096D01*
G75*
G02*
X0020935Y0081677I0000581J0000000D01*
G01*
X0022096Y0081677D01*
G75*
G02*
X0022677Y0081096I0000000J-000581D01*
G01*
G37*
G36*
G01*
X0021949Y0036987D02*
X0021949Y0039004D01*
G75*
G02*
X0022810Y0039866I0000861J0000000D01*
G01*
X0024532Y0039866D01*
G75*
G02*
X0025393Y0039004I0000000J-000861D01*
G01*
X0025393Y0036987D01*
G75*
G02*
X0024532Y0036126I-000861J0000000D01*
G01*
X0022810Y0036126D01*
G75*
G02*
X0021949Y0036987I0000000J0000861D01*
G01*
G37*
G36*
G01*
X0028149Y0036987D02*
X0028149Y0039004D01*
G75*
G02*
X0029011Y0039866I0000861J0000000D01*
G01*
X0030733Y0039866D01*
G75*
G02*
X0031594Y0039004I0000000J-000861D01*
G01*
X0031594Y0036987D01*
G75*
G02*
X0030733Y0036126I-000861J0000000D01*
G01*
X0029011Y0036126D01*
G75*
G02*
X0028149Y0036987I0000000J0000861D01*
G01*
G37*
G36*
G01*
X0020546Y0104826D02*
X0022564Y0104826D01*
G75*
G02*
X0023425Y0103965I0000000J-000861D01*
G01*
X0023425Y0102243D01*
G75*
G02*
X0022564Y0101381I-000861J0000000D01*
G01*
X0020546Y0101381D01*
G75*
G02*
X0019685Y0102243I0000000J0000861D01*
G01*
X0019685Y0103965D01*
G75*
G02*
X0020546Y0104826I0000861J0000000D01*
G01*
G37*
G36*
G01*
X0020546Y0098626D02*
X0022564Y0098626D01*
G75*
G02*
X0023425Y0097764I0000000J-000861D01*
G01*
X0023425Y0096042D01*
G75*
G02*
X0022564Y0095181I-000861J0000000D01*
G01*
X0020546Y0095181D01*
G75*
G02*
X0019685Y0096042I0000000J0000861D01*
G01*
X0019685Y0097764D01*
G75*
G02*
X0020546Y0098626I0000861J0000000D01*
G01*
G37*
G36*
G01*
X0024724Y0109147D02*
X0024724Y0107789D01*
G75*
G02*
X0024143Y0107208I-000581J0000000D01*
G01*
X0022982Y0107208D01*
G75*
G02*
X0022401Y0107789I0000000J0000581D01*
G01*
X0022401Y0109147D01*
G75*
G02*
X0022982Y0109728I0000581J0000000D01*
G01*
X0024143Y0109728D01*
G75*
G02*
X0024724Y0109147I0000000J-000581D01*
G01*
G37*
G36*
G01*
X0020905Y0109147D02*
X0020905Y0107789D01*
G75*
G02*
X0020324Y0107208I-000581J0000000D01*
G01*
X0019163Y0107208D01*
G75*
G02*
X0018582Y0107789I0000000J0000581D01*
G01*
X0018582Y0109147D01*
G75*
G02*
X0019163Y0109728I0000581J0000000D01*
G01*
X0020324Y0109728D01*
G75*
G02*
X0020905Y0109147I0000000J-000581D01*
G01*
G37*
G36*
G01*
X0037401Y0074708D02*
X0036417Y0074708D01*
G75*
G02*
X0035925Y0075200I0000000J0000492D01*
G01*
X0035925Y0080122D01*
G75*
G02*
X0036417Y0080614I0000492J0000000D01*
G01*
X0037401Y0080614D01*
G75*
G02*
X0037893Y0080122I0000000J-000492D01*
G01*
X0037893Y0075200D01*
G75*
G02*
X0037401Y0074708I-000492J0000000D01*
G01*
G37*
G36*
G01*
X0040551Y0074708D02*
X0039567Y0074708D01*
G75*
G02*
X0039074Y0075200I0000000J0000492D01*
G01*
X0039074Y0080122D01*
G75*
G02*
X0039567Y0080614I0000492J0000000D01*
G01*
X0040551Y0080614D01*
G75*
G02*
X0041043Y0080122I0000000J-000492D01*
G01*
X0041043Y0075200D01*
G75*
G02*
X0040551Y0074708I-000492J0000000D01*
G01*
G37*
G36*
G01*
X0043700Y0074708D02*
X0042716Y0074708D01*
G75*
G02*
X0042224Y0075200I0000000J0000492D01*
G01*
X0042224Y0080122D01*
G75*
G02*
X0042716Y0080614I0000492J0000000D01*
G01*
X0043700Y0080614D01*
G75*
G02*
X0044193Y0080122I0000000J-000492D01*
G01*
X0044193Y0075200D01*
G75*
G02*
X0043700Y0074708I-000492J0000000D01*
G01*
G37*
G36*
G01*
X0046850Y0074708D02*
X0045866Y0074708D01*
G75*
G02*
X0045374Y0075200I0000000J0000492D01*
G01*
X0045374Y0080122D01*
G75*
G02*
X0045866Y0080614I0000492J0000000D01*
G01*
X0046850Y0080614D01*
G75*
G02*
X0047342Y0080122I0000000J-000492D01*
G01*
X0047342Y0075200D01*
G75*
G02*
X0046850Y0074708I-000492J0000000D01*
G01*
G37*
G36*
G01*
X0050000Y0074708D02*
X0049015Y0074708D01*
G75*
G02*
X0048523Y0075200I0000000J0000492D01*
G01*
X0048523Y0080122D01*
G75*
G02*
X0049015Y0080614I0000492J0000000D01*
G01*
X0050000Y0080614D01*
G75*
G02*
X0050492Y0080122I0000000J-000492D01*
G01*
X0050492Y0075200D01*
G75*
G02*
X0050000Y0074708I-000492J0000000D01*
G01*
G37*
G36*
G01*
X0053149Y0074708D02*
X0052165Y0074708D01*
G75*
G02*
X0051673Y0075200I0000000J0000492D01*
G01*
X0051673Y0080122D01*
G75*
G02*
X0052165Y0080614I0000492J0000000D01*
G01*
X0053149Y0080614D01*
G75*
G02*
X0053641Y0080122I0000000J-000492D01*
G01*
X0053641Y0075200D01*
G75*
G02*
X0053149Y0074708I-000492J0000000D01*
G01*
G37*
G36*
G01*
X0056299Y0074708D02*
X0055315Y0074708D01*
G75*
G02*
X0054823Y0075200I0000000J0000492D01*
G01*
X0054823Y0080122D01*
G75*
G02*
X0055315Y0080614I0000492J0000000D01*
G01*
X0056299Y0080614D01*
G75*
G02*
X0056791Y0080122I0000000J-000492D01*
G01*
X0056791Y0075200D01*
G75*
G02*
X0056299Y0074708I-000492J0000000D01*
G01*
G37*
G36*
G01*
X0059449Y0074708D02*
X0058464Y0074708D01*
G75*
G02*
X0057972Y0075200I0000000J0000492D01*
G01*
X0057972Y0080122D01*
G75*
G02*
X0058464Y0080614I0000492J0000000D01*
G01*
X0059449Y0080614D01*
G75*
G02*
X0059941Y0080122I0000000J-000492D01*
G01*
X0059941Y0075200D01*
G75*
G02*
X0059449Y0074708I-000492J0000000D01*
G01*
G37*
G36*
G01*
X0066830Y0082090D02*
X0061909Y0082090D01*
G75*
G02*
X0061417Y0082582I0000000J0000492D01*
G01*
X0061417Y0083566D01*
G75*
G02*
X0061909Y0084059I0000492J0000000D01*
G01*
X0066830Y0084059D01*
G75*
G02*
X0067323Y0083566I0000000J-000492D01*
G01*
X0067323Y0082582D01*
G75*
G02*
X0066830Y0082090I-000492J0000000D01*
G01*
G37*
G36*
G01*
X0066830Y0085240D02*
X0061909Y0085240D01*
G75*
G02*
X0061417Y0085732I0000000J0000492D01*
G01*
X0061417Y0086716D01*
G75*
G02*
X0061909Y0087208I0000492J0000000D01*
G01*
X0066830Y0087208D01*
G75*
G02*
X0067323Y0086716I0000000J-000492D01*
G01*
X0067323Y0085732D01*
G75*
G02*
X0066830Y0085240I-000492J0000000D01*
G01*
G37*
G36*
G01*
X0066830Y0088389D02*
X0061909Y0088389D01*
G75*
G02*
X0061417Y0088881I0000000J0000492D01*
G01*
X0061417Y0089866D01*
G75*
G02*
X0061909Y0090358I0000492J0000000D01*
G01*
X0066830Y0090358D01*
G75*
G02*
X0067323Y0089866I0000000J-000492D01*
G01*
X0067323Y0088881D01*
G75*
G02*
X0066830Y0088389I-000492J0000000D01*
G01*
G37*
G36*
G01*
X0066830Y0091539D02*
X0061909Y0091539D01*
G75*
G02*
X0061417Y0092031I0000000J0000492D01*
G01*
X0061417Y0093015D01*
G75*
G02*
X0061909Y0093507I0000492J0000000D01*
G01*
X0066830Y0093507D01*
G75*
G02*
X0067323Y0093015I0000000J-000492D01*
G01*
X0067323Y0092031D01*
G75*
G02*
X0066830Y0091539I-000492J0000000D01*
G01*
G37*
G36*
G01*
X0066830Y0094689D02*
X0061909Y0094689D01*
G75*
G02*
X0061417Y0095181I0000000J0000492D01*
G01*
X0061417Y0096165D01*
G75*
G02*
X0061909Y0096657I0000492J0000000D01*
G01*
X0066830Y0096657D01*
G75*
G02*
X0067323Y0096165I0000000J-000492D01*
G01*
X0067323Y0095181D01*
G75*
G02*
X0066830Y0094689I-000492J0000000D01*
G01*
G37*
G36*
G01*
X0066830Y0097838D02*
X0061909Y0097838D01*
G75*
G02*
X0061417Y0098330I0000000J0000492D01*
G01*
X0061417Y0099314D01*
G75*
G02*
X0061909Y0099807I0000492J0000000D01*
G01*
X0066830Y0099807D01*
G75*
G02*
X0067323Y0099314I0000000J-000492D01*
G01*
X0067323Y0098330D01*
G75*
G02*
X0066830Y0097838I-000492J0000000D01*
G01*
G37*
G36*
G01*
X0066830Y0100988D02*
X0061909Y0100988D01*
G75*
G02*
X0061417Y0101480I0000000J0000492D01*
G01*
X0061417Y0102464D01*
G75*
G02*
X0061909Y0102956I0000492J0000000D01*
G01*
X0066830Y0102956D01*
G75*
G02*
X0067323Y0102464I0000000J-000492D01*
G01*
X0067323Y0101480D01*
G75*
G02*
X0066830Y0100988I-000492J0000000D01*
G01*
G37*
G36*
G01*
X0066830Y0104137D02*
X0061909Y0104137D01*
G75*
G02*
X0061417Y0104629I0000000J0000492D01*
G01*
X0061417Y0105614D01*
G75*
G02*
X0061909Y0106106I0000492J0000000D01*
G01*
X0066830Y0106106D01*
G75*
G02*
X0067323Y0105614I0000000J-000492D01*
G01*
X0067323Y0104629D01*
G75*
G02*
X0066830Y0104137I-000492J0000000D01*
G01*
G37*
G36*
G01*
X0059449Y0107582D02*
X0058464Y0107582D01*
G75*
G02*
X0057972Y0108074I0000000J0000492D01*
G01*
X0057972Y0112996D01*
G75*
G02*
X0058464Y0113488I0000492J0000000D01*
G01*
X0059449Y0113488D01*
G75*
G02*
X0059941Y0112996I0000000J-000492D01*
G01*
X0059941Y0108074D01*
G75*
G02*
X0059449Y0107582I-000492J0000000D01*
G01*
G37*
G36*
G01*
X0056299Y0107582D02*
X0055315Y0107582D01*
G75*
G02*
X0054823Y0108074I0000000J0000492D01*
G01*
X0054823Y0112996D01*
G75*
G02*
X0055315Y0113488I0000492J0000000D01*
G01*
X0056299Y0113488D01*
G75*
G02*
X0056791Y0112996I0000000J-000492D01*
G01*
X0056791Y0108074D01*
G75*
G02*
X0056299Y0107582I-000492J0000000D01*
G01*
G37*
G36*
G01*
X0053149Y0107582D02*
X0052165Y0107582D01*
G75*
G02*
X0051673Y0108074I0000000J0000492D01*
G01*
X0051673Y0112996D01*
G75*
G02*
X0052165Y0113488I0000492J0000000D01*
G01*
X0053149Y0113488D01*
G75*
G02*
X0053641Y0112996I0000000J-000492D01*
G01*
X0053641Y0108074D01*
G75*
G02*
X0053149Y0107582I-000492J0000000D01*
G01*
G37*
G36*
G01*
X0050000Y0107582D02*
X0049015Y0107582D01*
G75*
G02*
X0048523Y0108074I0000000J0000492D01*
G01*
X0048523Y0112996D01*
G75*
G02*
X0049015Y0113488I0000492J0000000D01*
G01*
X0050000Y0113488D01*
G75*
G02*
X0050492Y0112996I0000000J-000492D01*
G01*
X0050492Y0108074D01*
G75*
G02*
X0050000Y0107582I-000492J0000000D01*
G01*
G37*
G36*
G01*
X0046850Y0107582D02*
X0045866Y0107582D01*
G75*
G02*
X0045374Y0108074I0000000J0000492D01*
G01*
X0045374Y0112996D01*
G75*
G02*
X0045866Y0113488I0000492J0000000D01*
G01*
X0046850Y0113488D01*
G75*
G02*
X0047342Y0112996I0000000J-000492D01*
G01*
X0047342Y0108074D01*
G75*
G02*
X0046850Y0107582I-000492J0000000D01*
G01*
G37*
G36*
G01*
X0043700Y0107582D02*
X0042716Y0107582D01*
G75*
G02*
X0042224Y0108074I0000000J0000492D01*
G01*
X0042224Y0112996D01*
G75*
G02*
X0042716Y0113488I0000492J0000000D01*
G01*
X0043700Y0113488D01*
G75*
G02*
X0044193Y0112996I0000000J-000492D01*
G01*
X0044193Y0108074D01*
G75*
G02*
X0043700Y0107582I-000492J0000000D01*
G01*
G37*
G36*
G01*
X0040551Y0107582D02*
X0039567Y0107582D01*
G75*
G02*
X0039074Y0108074I0000000J0000492D01*
G01*
X0039074Y0112996D01*
G75*
G02*
X0039567Y0113488I0000492J0000000D01*
G01*
X0040551Y0113488D01*
G75*
G02*
X0041043Y0112996I0000000J-000492D01*
G01*
X0041043Y0108074D01*
G75*
G02*
X0040551Y0107582I-000492J0000000D01*
G01*
G37*
G36*
G01*
X0037401Y0107582D02*
X0036417Y0107582D01*
G75*
G02*
X0035925Y0108074I0000000J0000492D01*
G01*
X0035925Y0112996D01*
G75*
G02*
X0036417Y0113488I0000492J0000000D01*
G01*
X0037401Y0113488D01*
G75*
G02*
X0037893Y0112996I0000000J-000492D01*
G01*
X0037893Y0108074D01*
G75*
G02*
X0037401Y0107582I-000492J0000000D01*
G01*
G37*
G36*
G01*
X0033956Y0104137D02*
X0029035Y0104137D01*
G75*
G02*
X0028543Y0104629I0000000J0000492D01*
G01*
X0028543Y0105614D01*
G75*
G02*
X0029035Y0106106I0000492J0000000D01*
G01*
X0033956Y0106106D01*
G75*
G02*
X0034449Y0105614I0000000J-000492D01*
G01*
X0034449Y0104629D01*
G75*
G02*
X0033956Y0104137I-000492J0000000D01*
G01*
G37*
G36*
G01*
X0033956Y0100988D02*
X0029035Y0100988D01*
G75*
G02*
X0028543Y0101480I0000000J0000492D01*
G01*
X0028543Y0102464D01*
G75*
G02*
X0029035Y0102956I0000492J0000000D01*
G01*
X0033956Y0102956D01*
G75*
G02*
X0034449Y0102464I0000000J-000492D01*
G01*
X0034449Y0101480D01*
G75*
G02*
X0033956Y0100988I-000492J0000000D01*
G01*
G37*
G36*
G01*
X0033956Y0097838D02*
X0029035Y0097838D01*
G75*
G02*
X0028543Y0098330I0000000J0000492D01*
G01*
X0028543Y0099314D01*
G75*
G02*
X0029035Y0099807I0000492J0000000D01*
G01*
X0033956Y0099807D01*
G75*
G02*
X0034449Y0099314I0000000J-000492D01*
G01*
X0034449Y0098330D01*
G75*
G02*
X0033956Y0097838I-000492J0000000D01*
G01*
G37*
G36*
G01*
X0033956Y0094689D02*
X0029035Y0094689D01*
G75*
G02*
X0028543Y0095181I0000000J0000492D01*
G01*
X0028543Y0096165D01*
G75*
G02*
X0029035Y0096657I0000492J0000000D01*
G01*
X0033956Y0096657D01*
G75*
G02*
X0034449Y0096165I0000000J-000492D01*
G01*
X0034449Y0095181D01*
G75*
G02*
X0033956Y0094689I-000492J0000000D01*
G01*
G37*
G36*
G01*
X0033956Y0091539D02*
X0029035Y0091539D01*
G75*
G02*
X0028543Y0092031I0000000J0000492D01*
G01*
X0028543Y0093015D01*
G75*
G02*
X0029035Y0093507I0000492J0000000D01*
G01*
X0033956Y0093507D01*
G75*
G02*
X0034449Y0093015I0000000J-000492D01*
G01*
X0034449Y0092031D01*
G75*
G02*
X0033956Y0091539I-000492J0000000D01*
G01*
G37*
G36*
G01*
X0033956Y0088389D02*
X0029035Y0088389D01*
G75*
G02*
X0028543Y0088881I0000000J0000492D01*
G01*
X0028543Y0089866D01*
G75*
G02*
X0029035Y0090358I0000492J0000000D01*
G01*
X0033956Y0090358D01*
G75*
G02*
X0034449Y0089866I0000000J-000492D01*
G01*
X0034449Y0088881D01*
G75*
G02*
X0033956Y0088389I-000492J0000000D01*
G01*
G37*
G36*
G01*
X0033956Y0085240D02*
X0029035Y0085240D01*
G75*
G02*
X0028543Y0085732I0000000J0000492D01*
G01*
X0028543Y0086716D01*
G75*
G02*
X0029035Y0087208I0000492J0000000D01*
G01*
X0033956Y0087208D01*
G75*
G02*
X0034449Y0086716I0000000J-000492D01*
G01*
X0034449Y0085732D01*
G75*
G02*
X0033956Y0085240I-000492J0000000D01*
G01*
G37*
G36*
G01*
X0033956Y0082090D02*
X0029035Y0082090D01*
G75*
G02*
X0028543Y0082582I0000000J0000492D01*
G01*
X0028543Y0083566D01*
G75*
G02*
X0029035Y0084059I0000492J0000000D01*
G01*
X0033956Y0084059D01*
G75*
G02*
X0034449Y0083566I0000000J-000492D01*
G01*
X0034449Y0082582D01*
G75*
G02*
X0033956Y0082090I-000492J0000000D01*
G01*
G37*
G36*
G01*
X0055502Y0116716D02*
X0054143Y0116716D01*
G75*
G02*
X0053563Y0117297I0000000J0000581D01*
G01*
X0053563Y0118458D01*
G75*
G02*
X0054143Y0119039I0000581J0000000D01*
G01*
X0055502Y0119039D01*
G75*
G02*
X0056082Y0118458I0000000J-000581D01*
G01*
X0056082Y0117297D01*
G75*
G02*
X0055502Y0116716I-000581J0000000D01*
G01*
G37*
G36*
G01*
X0055502Y0120535D02*
X0054143Y0120535D01*
G75*
G02*
X0053563Y0121116I0000000J0000581D01*
G01*
X0053563Y0122277D01*
G75*
G02*
X0054143Y0122858I0000581J0000000D01*
G01*
X0055502Y0122858D01*
G75*
G02*
X0056082Y0122277I0000000J-000581D01*
G01*
X0056082Y0121116D01*
G75*
G02*
X0055502Y0120535I-000581J0000000D01*
G01*
G37*
G36*
G01*
X0032106Y0109639D02*
X0032106Y0108281D01*
G75*
G02*
X0031525Y0107700I-000581J0000000D01*
G01*
X0030364Y0107700D01*
G75*
G02*
X0029783Y0108281I0000000J0000581D01*
G01*
X0029783Y0109639D01*
G75*
G02*
X0030364Y0110220I0000581J0000000D01*
G01*
X0031525Y0110220D01*
G75*
G02*
X0032106Y0109639I0000000J-000581D01*
G01*
G37*
G36*
G01*
X0028287Y0109639D02*
X0028287Y0108281D01*
G75*
G02*
X0027706Y0107700I-000581J0000000D01*
G01*
X0026545Y0107700D01*
G75*
G02*
X0025964Y0108281I0000000J0000581D01*
G01*
X0025964Y0109639D01*
G75*
G02*
X0026545Y0110220I0000581J0000000D01*
G01*
X0027706Y0110220D01*
G75*
G02*
X0028287Y0109639I0000000J-000581D01*
G01*
G37*
G36*
G01*
X0054143Y0133283D02*
X0055502Y0133283D01*
G75*
G02*
X0056082Y0132702I0000000J-000581D01*
G01*
X0056082Y0131541D01*
G75*
G02*
X0055502Y0130960I-000581J0000000D01*
G01*
X0054143Y0130960D01*
G75*
G02*
X0053563Y0131541I0000000J0000581D01*
G01*
X0053563Y0132702D01*
G75*
G02*
X0054143Y0133283I0000581J0000000D01*
G01*
G37*
G36*
G01*
X0054143Y0129464D02*
X0055502Y0129464D01*
G75*
G02*
X0056082Y0128883I0000000J-000581D01*
G01*
X0056082Y0127722D01*
G75*
G02*
X0055502Y0127141I-000581J0000000D01*
G01*
X0054143Y0127141D01*
G75*
G02*
X0053563Y0127722I0000000J0000581D01*
G01*
X0053563Y0128883D01*
G75*
G02*
X0054143Y0129464I0000581J0000000D01*
G01*
G37*
D152*
X0059744Y0131795D03*
X0059744Y0124314D03*
X0067618Y0128055D03*
G36*
G01*
X0033976Y0072730D02*
X0033976Y0071372D01*
G75*
G02*
X0033395Y0070791I-000581J0000000D01*
G01*
X0032234Y0070791D01*
G75*
G02*
X0031653Y0071372I0000000J0000581D01*
G01*
X0031653Y0072730D01*
G75*
G02*
X0032234Y0073311I0000581J0000000D01*
G01*
X0033395Y0073311D01*
G75*
G02*
X0033976Y0072730I0000000J-000581D01*
G01*
G37*
G36*
G01*
X0030157Y0072730D02*
X0030157Y0071372D01*
G75*
G02*
X0029576Y0070791I-000581J0000000D01*
G01*
X0028415Y0070791D01*
G75*
G02*
X0027834Y0071372I0000000J0000581D01*
G01*
X0027834Y0072730D01*
G75*
G02*
X0028415Y0073311I0000581J0000000D01*
G01*
X0029576Y0073311D01*
G75*
G02*
X0030157Y0072730I0000000J-000581D01*
G01*
G37*
G36*
G01*
X0069015Y0118857D02*
X0069015Y0116839D01*
G75*
G02*
X0068154Y0115978I-000861J0000000D01*
G01*
X0066432Y0115978D01*
G75*
G02*
X0065571Y0116839I0000000J0000861D01*
G01*
X0065571Y0118857D01*
G75*
G02*
X0066432Y0119718I0000861J0000000D01*
G01*
X0068154Y0119718D01*
G75*
G02*
X0069015Y0118857I0000000J-000861D01*
G01*
G37*
G36*
G01*
X0062815Y0118857D02*
X0062815Y0116839D01*
G75*
G02*
X0061953Y0115978I-000861J0000000D01*
G01*
X0060231Y0115978D01*
G75*
G02*
X0059370Y0116839I0000000J0000861D01*
G01*
X0059370Y0118857D01*
G75*
G02*
X0060231Y0119718I0000861J0000000D01*
G01*
X0061953Y0119718D01*
G75*
G02*
X0062815Y0118857I0000000J-000861D01*
G01*
G37*
D167*
X0026870Y0134610D03*
X0022870Y0114610D03*
X0030870Y0114610D03*
D164*
X0024370Y0129610D03*
X0029370Y0129610D03*
X0024370Y0124610D03*
X0029370Y0124610D03*
X0024370Y0119610D03*
X0029370Y0119610D03*
D391*
X0065748Y0045122D03*
D392*
X0065748Y0055122D03*
X0065748Y0065122D03*
X0532382Y0015161D02*
G01*
G75*
D268*
X0550000Y0063192D02*
D03*
X0550000Y0030515D02*
D03*
X0604134Y0030515D02*
D03*
X0604134Y0063192D02*
D03*
D269*
X0594764Y0052956D02*
D03*
X0590433Y0052956D02*
D03*
X0586102Y0052956D02*
D03*
X0581772Y0052956D02*
D03*
X0577441Y0052956D02*
D03*
X0573110Y0052956D02*
D03*
X0568780Y0052956D02*
D03*
X0564449Y0052956D02*
D03*
D270*
X0544095Y0067759D02*
D03*
X0544095Y0073980D02*
D03*
X0539469Y0067759D02*
D03*
X0539469Y0073980D02*
D03*
D271*
X0534941Y0074019D02*
D03*
X0534941Y0067720D02*
D03*
D132*
X0545866Y0068606D02*
D03*
X0573327Y0046657D02*
D03*
X0590650Y0046657D02*
D03*
X0581890Y0046657D02*
D03*
X0552067Y0049295D02*
D03*
X0568701Y0046657D02*
D03*
X0602083Y0049331D02*
D03*
M02*
