M48
INCH,TZ
T01C0.009850
T02C0.015700
T03C0.024600
T04C0.031750
T05C0.039200
T06C0.043300
T07C0.068900
T08C0.112200
T09C0.126000
%
T01
X2135Y29910
X5521Y30225
X8809Y31052
X10108Y31032
X12254Y31701
X13061Y40500
X13179Y32725
X14439Y30185
X14616Y41366
X14813Y42331
X19419Y35756
X19695Y36701
X19714Y41248
X21624Y34044
X21820Y24969
X22195Y28256
X22234Y30185
X22982Y32823
X23120Y35855
X26820Y30618
X27175Y30185
X28691Y29811
X41958Y19162
X41978Y19437
X42154Y40302
X42293Y40540
X45285Y36170
X47943Y33040
X48946Y19890
X51506Y41465
X54360Y21937
X54626Y19546
X55246Y17615
X56909Y17351
X57372Y17351
X58228Y17351
X59104Y17351
X60247Y17618
X2293Y15874
X2687Y15874
X3080Y15874
X3474Y15874
X4401Y26343
X4801Y26343
X5698Y26343
X6092Y26343
X6486Y26343
X8799Y17833
X9193Y17833
X9586Y17833
X9980Y17833
X10907Y28302
X11307Y28302
X12204Y28302
X12598Y28302
X12992Y28302
X28051Y38118
X28051Y37646
X28051Y37174
X28051Y36701
X29232Y31524
X29232Y31209
X29232Y30894
X29232Y30579
X29232Y30264
X29232Y29949
X29232Y29634
X29232Y29319
X29232Y29004
X29232Y28689
X29232Y28374
X29232Y28059
X29232Y27744
X29232Y27429
X29232Y26800
X29232Y26248
X29232Y25933
X29232Y25618
X29232Y25304
X29232Y24989
X29232Y24674
X29232Y33217
X29232Y27115
X29389Y21839
X29704Y21839
X30019Y21839
X30334Y21839
X30649Y21839
X30964Y21839
X31279Y21839
X31594Y21839
X31830Y35776
X31909Y21839
X32224Y21839
X32303Y35776
X32539Y21839
X32775Y35776
X32854Y21839
X33248Y35776
X33720Y35776
X33730Y39638
X33730Y39244
X33799Y21839
X34114Y21839
X34193Y35776
X34429Y21839
X34665Y35776
X34744Y21839
X35059Y21839
X35137Y35776
X35374Y21839
X35610Y35776
X35689Y21839
X36004Y21839
X36082Y35776
X36319Y21839
X36555Y35776
X37027Y35776
X37500Y35776
X37972Y35776
X38011Y21839
X38445Y35776
X38917Y35776
X39074Y21839
X39389Y35776
X39468Y21839
X39862Y35776
X40334Y35776
X40807Y35776
X41279Y35776
X42224Y35776
X42382Y34792
X42382Y34398
X42382Y30185
X42382Y29792
X42382Y29398
X42382Y29004
X42382Y28611
X42382Y28217
X42382Y27823
X42382Y27429
X42382Y26406
X42382Y26091
X42382Y24241
X42382Y23689
X42382Y21839
X46397Y21741
X46791Y21741
X48937Y33807
X48937Y33335
X48937Y32863
X48937Y32390
X54616Y35327
X54616Y34933
X61574Y24575
X61574Y21150
X61929Y21150
X61948Y24575
X62322Y24575
X45124Y14537
X45760Y14809
X46145Y14595
X46574Y15236
X46910Y15276
X47500Y15079
X47756Y14803
X48287Y14685
X48583Y15079
X48091Y15276
X49272Y15276
X50847Y15276
X50827Y14803
X51119Y13692
X51094Y12645
X50806Y12323
X50731Y11270
X50847Y10158
X50847Y9370
X49843Y9843
X49837Y10488
X48591Y10428
X48681Y9961
X48201Y9793
X48484Y9370
X47316Y9792
X47144Y9096
X46752Y9055
X46358Y9055
X46452Y9737
X45963Y10047
X45646Y9660
X45216Y10057
X45595Y10446
X46319Y10521
X46752Y10473
X45767Y11789
X45138Y11789
X45124Y12708
X45124Y13563
X45766Y13340
X46791Y12756
X48238Y12363
X48287Y13110
X48797Y12677
X49795Y12088
X51752Y11142
X51819Y10210
X52224Y10158
X52028Y9370
X51437Y9764
X52577Y12238
X52983Y12196
X52567Y13025
X52164Y13290
X52241Y14727
X51606Y14318
X51373Y15158
X62430Y8471
X62177Y8623
X61890Y8465
X61535Y8465
X61869Y9467
X61974Y9741
X61761Y9984
X62274Y9434
X61534Y10913
X61535Y11890
X61909Y11890
X62283Y11890
X33701Y25808
X33674Y24162
X33652Y24991
X32930Y27515
X32921Y26758
X32884Y25956
X32847Y24150
X32815Y25650
X32499Y24178
X32447Y26000
X32412Y27387
X32284Y25690
X32107Y27521
X32051Y23987
X31963Y26780
X31959Y25887
X31809Y24459
X31763Y25508
X31398Y25493
X31150Y25092
X31018Y25898
X30965Y25572
X30955Y26290
X30935Y27373
X30885Y27001
X30845Y26651
X30624Y25993
X30315Y27521
X30246Y25946
X29932Y25522
X29813Y25808
X29715Y26312
X29693Y24849
X29650Y27361
X29627Y25552
X29558Y24178
X29262Y24237
X29079Y25507
X29067Y24008
X28740Y26881
X28264Y26889
X28022Y27058
X28012Y26645
X27996Y27540
X33691Y26560
X33691Y26954
X28012Y24017
X28012Y24489
X28012Y24961
X28012Y25434
X54448Y21142
X54448Y23110
X54409Y19803
X53582Y21220
X53425Y22283
X53307Y23110
X53070Y19803
X52677Y20709
X52637Y21693
X52086Y22323
X52047Y23110
X51653Y19803
X51417Y20512
X51338Y23110
X51252Y21203
X50826Y22756
X50315Y21890
X50078Y22835
X49921Y19803
X49606Y23110
X49288Y20628
X49015Y21496
X49015Y22835
X54576Y22248
X54576Y22642
X48897Y19705
X48897Y20177
X48897Y20649
X48897Y21122
X10492Y15680
X13422Y15605
X11752Y15561
X8386Y15561
X8576Y15328
X9856Y15272
X10167Y15272
X13190Y15118
X11599Y14890
X12297Y14798
X9669Y14735
X8736Y14598
X8464Y14306
X13504Y14203
X12867Y14157
X12490Y14115
X11183Y14040
X9946Y14036
X8425Y13760
X10511Y13679
X9222Y13554
X11171Y13494
X12218Y13485
X10461Y13376
X8386Y13278
X13509Y12481
X9193Y12313
X10998Y12023
X11937Y11793
X10437Y11792
X11230Y11791
X11473Y11585
X8287Y11565
X11132Y11507
X12509Y11200
X10374Y10992
X12458Y10903
X8317Y10778
X11811Y10762
X12464Y10593
X9031Y10575
X10413Y10502
X11413Y10443
X12088Y10290
X9114Y10286
X9847Y9985
X12813Y9967
X13114Y9959
X8307Y9587
X12945Y9380
X13530Y9355
X12646Y9346
X13311Y9089
X11669Y8951
X10822Y8905
X10309Y8835
X9409Y8835
X9108Y8835
X8807Y8835
X8506Y8835
X9901Y8831
X11437Y8455
X11220Y8199
X8265Y6124
X10014Y5907
X13267Y5867
X12854Y5719
X9921Y5620
X12273Y5581
X11998Y5581
X11722Y5581
X12834Y5404
X8258Y5384
X12273Y5276
X11998Y5276
X13248Y5079
X12953Y15617
X12559Y15617
X12165Y15617
X11267Y15617
X10867Y15617
X9941Y5148
X9547Y5148
X9153Y5148
X8760Y5148
X42185Y23091
X41709Y23060
X41477Y22870
X41241Y23091
X41004Y22890
X40768Y23091
X40532Y22890
X40296Y23091
X40059Y22890
X39823Y23091
X39587Y22890
X39351Y23091
X39115Y22890
X38878Y23091
X38642Y22890
X38406Y23091
X38170Y22890
X37933Y23091
X37697Y22890
X37461Y23091
X37225Y22890
X36989Y23091
X36752Y22890
X36516Y23091
X36280Y22890
X36044Y23091
X35807Y22890
X35571Y23091
X35335Y22890
X35099Y23091
X34863Y22890
X34626Y23091
X34390Y22890
X34154Y23091
X33918Y22890
X33681Y23091
X33445Y22890
X33209Y23091
X32973Y22890
X32737Y23091
X32500Y22890
X32264Y23091
X32028Y22890
X31792Y23091
X31477Y22933
X31484Y22398
X31911Y22204
X32362Y22194
X32804Y22187
X33277Y22189
X33782Y21142
X34092Y21142
X34339Y21615
X34937Y21412
X35233Y21403
X35076Y21132
X34959Y20450
X35214Y20182
X35311Y19641
X34872Y19641
X34412Y19761
X34412Y19429
X34412Y19134
X34418Y18843
X34088Y18159
X33543Y18163
X33681Y17579
X34311Y17658
X34381Y16826
X34396Y16440
X34744Y16634
X34978Y16834
X35235Y16401
X35928Y16100
X36526Y16083
X36873Y16379
X37648Y16204
X37630Y16759
X37640Y17306
X38348Y17179
X38303Y16380
X38329Y15615
X38351Y14805
X37648Y14765
X37648Y15050
X37648Y15335
X37648Y14464
X36860Y14148
X36873Y13863
X36905Y13565
X36855Y13083
X36451Y13032
X35821Y12554
X35444Y12566
X34508Y12422
X34183Y13022
X33975Y12819
X33993Y13346
X33635Y13393
X34186Y13577
X34392Y14720
X34615Y14949
X34661Y15632
X34952Y15643
X34465Y15851
X33796Y15851
X32930Y16040
X32736Y16254
X32532Y16458
X32330Y16660
X32333Y15847
X32780Y15382
X32793Y14681
X32417Y14779
X32540Y14311
X32742Y13774
X32502Y13548
X32308Y13150
X32500Y12894
X32601Y12511
X32641Y12205
X32343Y12303
X31839Y12505
X31783Y12806
X31839Y13368
X31692Y13613
X31949Y13996
X31967Y14487
X30739Y14879
X30429Y15193
X30611Y15414
X30646Y15934
X29193Y16004
X29193Y15689
X29193Y15374
X29193Y15059
X29193Y14744
X29193Y14429
X29193Y14115
X29332Y13837
X29193Y13563
X29193Y13248
X29193Y12933
X29193Y12618
X29193Y12303
X29193Y11989
X29550Y11901
X29333Y11657
X29642Y10955
X29646Y10020
X30019Y9976
X30021Y10261
X30394Y10020
X30296Y9154
X30611Y9154
X30926Y9154
X31241Y9154
X31555Y9154
X31870Y9154
X32185Y9154
X32500Y9154
X32815Y9154
X33406Y9351
X33760Y9154
X34075Y9154
X34390Y9154
X34705Y9154
X35020Y9154
X35335Y9154
X35650Y9154
X35965Y9154
X36280Y9154
X36792Y9193
X36698Y9848
X37096Y9884
X37441Y9839
X37720Y10141
X37662Y9386
X37973Y9154
X39036Y9154
X39430Y9154
X39791Y9178
X39783Y9641
X40013Y10086
X40094Y10959
X40534Y10736
X39348Y10424
X38885Y10105
X38928Y10956
X38485Y11004
X38000Y11432
X37992Y11717
X37924Y12077
X37921Y12373
X38651Y12274
X38642Y12658
X38651Y12983
X38312Y13311
X38651Y13691
X38635Y14043
X38655Y14338
X38338Y14020
X39333Y13592
X39336Y13148
X40512Y13292
X40492Y13813
X40493Y14202
X39668Y14667
X39368Y14628
X39345Y15081
X39345Y15368
X39345Y15655
X39345Y16071
X39345Y16357
X39327Y16781
X39327Y17089
X39327Y17378
X39103Y18118
X38823Y18213
X38511Y18608
X38809Y18928
X38809Y19494
X38816Y19780
X38725Y20441
X38928Y21186
X38760Y21418
X39060Y21453
X39685Y21617
X39981Y21617
X40607Y21412
X40893Y21412
X40729Y21129
X40625Y20453
X40784Y20184
X40964Y19607
X40488Y19607
X40002Y19761
X40002Y19429
X40002Y19134
X40009Y18843
X40772Y18621
X40768Y18244
X41571Y18236
X41544Y18570
X41839Y18138
X42318Y18095
X42343Y17500
X42343Y17107
X42343Y16713
X42343Y16319
X42343Y15926
X42343Y15532
X42343Y15138
X42343Y14744
X42304Y14115
X42343Y13721
X42343Y13406
X42343Y13032
X42215Y12549
X42304Y12185
X42343Y11555
X42059Y11445
X42343Y11004
X42322Y9842
X42343Y9154
X41319Y12422
X41193Y12717
X40324Y12232
X38332Y11940
X37455Y11492
X37323Y11103
X36985Y11174
X36562Y11496
X36122Y11595
X35381Y11517
X34853Y10581
X34713Y10302
X34642Y9995
X34380Y10685
X33549Y10656
X33357Y10331
X32613Y10677
X32687Y11525
X32393Y11525
X32102Y11525
X30916Y11467
X30886Y11004
X31161Y10473
X31187Y9569
X32297Y9442
X29981Y9154
X29666Y9154
X29351Y9154
X30545Y12058
X30701Y12297
X30473Y12589
X30256Y13016
X30697Y13014
X30795Y13698
X30279Y13987
X30003Y13433
X29992Y14642
X29193Y16319
X29193Y16634
X29193Y16949
X29193Y17264
X29193Y17579
X29193Y17894
X29193Y18209
X29193Y18524
X29193Y18839
X29712Y19453
X29272Y20059
X29193Y20532
X29764Y21130
X29764Y21449
X29764Y21767
X29764Y22085
X29764Y22404
X30128Y22730
X29410Y22773
X31006Y21942
X30873Y21363
X31437Y20453
X31670Y19749
X31656Y19429
X31661Y19141
X31662Y18843
X32449Y18621
X32458Y18208
X32968Y18593
X33258Y18809
X33258Y19382
X33221Y19768
X32617Y19634
X32117Y19641
X32457Y20187
X32336Y20853
X32653Y20853
X32999Y20853
X31989Y20864
X33800Y20453
X36016Y19768
X36014Y19369
X36014Y18930
X35932Y18546
X35205Y18568
X35256Y18286
X36398Y18154
X36722Y18146
X36744Y17654
X37154Y17934
X37225Y18763
X37202Y19134
X37215Y19429
X37225Y19929
X37520Y19666
X38189Y19621
X37989Y20163
X38060Y21039
X37829Y21619
X37119Y21412
X36827Y21412
X36969Y21122
X36846Y20453
X36200Y21573
X35872Y21624
X37867Y18615
X38066Y18209
X39679Y18159
X40213Y17540
X40213Y16779
X40213Y16018
X40212Y15256
X36529Y15309
X36733Y14984
X36571Y14096
X37650Y12996
X36851Y10373
X36407Y10469
X36314Y10739
X36111Y10376
X33605Y11718
X33547Y12001
X31974Y17534
X31595Y17185
X30508Y17330
X30557Y18059
X30869Y18027
X31332Y18159
X29797Y17852
X36119Y16797
X41605Y19341
X41567Y19806
X41849Y20128
X42340Y20167
X41742Y20719
X42008Y21031
X42343Y21713
X42343Y22107
X42323Y22692
X41752Y22500
X41555Y21617
X42215Y18809
X3986Y13721
X6916Y13646
X5246Y13602
X1880Y13602
X2070Y13369
X3350Y13313
X3661Y13313
X6684Y13159
X5093Y12931
X5791Y12839
X3163Y12776
X2230Y12639
X1958Y12347
X6998Y12244
X6361Y12198
X5984Y12156
X4677Y12081
X3440Y12077
X1919Y11801
X4005Y11720
X2716Y11595
X4665Y11535
X5712Y11526
X3955Y11417
X1880Y11319
X7003Y10522
X2687Y10354
X4492Y10064
X5431Y9834
X3931Y9833
X4724Y9832
X4967Y9626
X1781Y9606
X4626Y9548
X6003Y9241
X3868Y9033
X5952Y8944
X1811Y8819
X5305Y8803
X5958Y8634
X2525Y8616
X3907Y8543
X4907Y8484
X5582Y8331
X2608Y8327
X3341Y8026
X6307Y8008
X6608Y8000
X1801Y7628
X6439Y7421
X7024Y7396
X6140Y7387
X6805Y7130
X5163Y6992
X4316Y6946
X3803Y6876
X2903Y6876
X2602Y6876
X2301Y6876
X2000Y6876
X3395Y6872
X4931Y6496
X4714Y6240
X1759Y4165
X3508Y3948
X6761Y3908
X6348Y3760
X3415Y3661
X5767Y3622
X5492Y3622
X5216Y3622
X6328Y3445
X1752Y3425
X5767Y3317
X5492Y3317
X6742Y3120
X6447Y13658
X6053Y13658
X5659Y13658
X4761Y13658
X4361Y13658
X3435Y3189
X3041Y3189
X2647Y3189
X2254Y3189
X55207Y4929
X56870Y4666
X57332Y4666
X58189Y4666
X59065Y4666
X60208Y4933
X54586Y6860
T02
X13021Y36800
X16053Y30402
X17391Y32508
X18572Y35028
X19242Y31209
X20580Y27292
X22549Y25776
X23218Y41386
X25639Y28099
X39439Y21150
X58454Y38689
T03
X47187Y17274G85X47187Y16841
X47187Y15530G85X47187Y15294
X50588Y17274G85X50588Y16841
X50588Y15530G85X50588Y15294
X47750Y16861
X50025Y16861
T04
X992Y34063
X4057Y34213
X7549Y35279
X10580Y35947
X44616Y31514
X44929Y20136
X46429Y20136
X46545Y31514
X49367Y30936
X50731Y29572
X36248Y17796
X34670Y17796
X33248Y17796
T05
X45275Y21918
X45452Y28020
X47736Y21918
X49429Y21918
X50177Y21918
X50196Y28020
X52145Y28020
X52696Y21918
X52874Y28020
X52903Y30294
X54391Y30294
X45413Y15335
X50158Y15335
X50138Y9232
X49390Y9232
X47697Y9232
X45236Y9232
X52658Y9232
X52835Y15335
X52106Y15335
X9271Y8294
X10453Y7506
X9271Y6719
X9193Y15420
X9593Y13420
X8793Y13420
X42028Y9469
X32949Y10440
X32949Y9640
X30949Y10040
X2765Y6335
X3947Y5547
X2765Y4760
X2687Y13461
X3087Y11461
X2287Y11461
T06
X3346Y39428
X3346Y37813
X5590Y39428
X5590Y37813
X7834Y39428
X7834Y37813
X10078Y39428
X10078Y37813
X12322Y39428
X12322Y37813
X14567Y39428
X14567Y37813
X16811Y39428
X16811Y37813
X19055Y39428
X19055Y37813
X21299Y39428
X21299Y37813
X23543Y39428
X23543Y37813
X25787Y39428
X25787Y37813
X37204Y39408
X37204Y37794
X39448Y39408
X39448Y37794
X41693Y39408
X41693Y37794
X43937Y39408
X43937Y37794
X46181Y39408
X46181Y37794
X48425Y39408
X48425Y37794
X50669Y39408
X50669Y37794
X52913Y39408
X52913Y37794
X55157Y39408
X55157Y37794
X57401Y39408
X57401Y37794
X59645Y39408
X59645Y37794
X13080Y8471
X13080Y7471
X13080Y6471
X6574Y6512
X6574Y5512
X6574Y4512
T07
X25994Y16839
X25994Y13689
X26781Y15264
X27569Y16839
X27569Y13689
X28356Y15264
X29143Y16839
X29143Y13689
X29931Y15264
X30718Y16839
X30718Y13689
X31506Y15264
X32293Y16839
X32293Y13689
X33080Y15264
X33868Y16839
X33868Y13689
X34655Y15264
X35443Y16839
X35443Y13689
X36230Y15264
X37017Y16839
X37017Y13689
T08
X23435Y15067
X39576Y15067
T09
X16210Y21819
X57431Y21819
M30
