G04 #@! TF.GenerationSoftware,KiCad,Pcbnew,7.0.9-7.0.9~ubuntu22.04.1*
G04 #@! TF.CreationDate,2023-12-29T21:24:17+00:00*
G04 #@! TF.ProjectId,uaeficopiedtovfr,75616566-6963-46f7-9069-6564746f7666,rev?*
G04 #@! TF.SameCoordinates,Original*
G04 #@! TF.FileFunction,Paste,Bot*
G04 #@! TF.FilePolarity,Positive*
%FSLAX46Y46*%
G04 Gerber Fmt 4.6, Leading zero omitted, Abs format (unit mm)*
G04 Created by KiCad (PCBNEW 7.0.9-7.0.9~ubuntu22.04.1) date 2023-12-29 21:24:17*
%MOMM*%
%LPD*%
G01*
G04 APERTURE LIST*
G04 APERTURE END LIST*
G04 #@! TO.C,R14*
G36*
G01*
X25446586Y47392646D02*
X22978414Y45967646D01*
G75*
G02*
X22636908Y46059152I-125000J216506D01*
G01*
X22274408Y46687020D01*
G75*
G02*
X22365914Y47028526I216506J125000D01*
G01*
X24834086Y48453526D01*
G75*
G02*
X25175592Y48362020I125000J-216506D01*
G01*
X25538092Y47734152D01*
G75*
G02*
X25446586Y47392646I-216506J-125000D01*
G01*
G37*
G36*
G01*
X22484086Y52523846D02*
X20015914Y51098846D01*
G75*
G02*
X19674408Y51190352I-125000J216506D01*
G01*
X19311908Y51818220D01*
G75*
G02*
X19403414Y52159726I216506J125000D01*
G01*
X21871586Y53584726D01*
G75*
G02*
X22213092Y53493220I125000J-216506D01*
G01*
X22575592Y52865352D01*
G75*
G02*
X22484086Y52523846I-216506J-125000D01*
G01*
G37*
G04 #@! TD*
G04 #@! TO.C,R12*
G36*
G01*
X34254775Y49279553D02*
X31786603Y47854553D01*
G75*
G02*
X31445097Y47946059I-125000J216506D01*
G01*
X31082597Y48573927D01*
G75*
G02*
X31174103Y48915433I216506J125000D01*
G01*
X33642275Y50340433D01*
G75*
G02*
X33983781Y50248927I125000J-216506D01*
G01*
X34346281Y49621059D01*
G75*
G02*
X34254775Y49279553I-216506J-125000D01*
G01*
G37*
G36*
G01*
X31292275Y54410753D02*
X28824103Y52985753D01*
G75*
G02*
X28482597Y53077259I-125000J216506D01*
G01*
X28120097Y53705127D01*
G75*
G02*
X28211603Y54046633I216506J125000D01*
G01*
X30679775Y55471633D01*
G75*
G02*
X31021281Y55380127I125000J-216506D01*
G01*
X31383781Y54752259D01*
G75*
G02*
X31292275Y54410753I-216506J-125000D01*
G01*
G37*
G04 #@! TD*
G04 #@! TO.C,R15*
G36*
G01*
X13662750Y40249071D02*
X12987250Y39859071D01*
G75*
G02*
X12891628Y39884693I-35000J60622D01*
G01*
X12611628Y40369667D01*
G75*
G02*
X12637250Y40465289I60622J35000D01*
G01*
X13312750Y40855289D01*
G75*
G02*
X13408372Y40829667I35000J-60622D01*
G01*
X13688372Y40344693D01*
G75*
G02*
X13662750Y40249071I-60622J-35000D01*
G01*
G37*
G36*
G01*
X12862750Y41634711D02*
X12187250Y41244711D01*
G75*
G02*
X12091628Y41270333I-35000J60622D01*
G01*
X11811628Y41755307D01*
G75*
G02*
X11837250Y41850929I60622J35000D01*
G01*
X12512750Y42240929D01*
G75*
G02*
X12608372Y42215307I35000J-60622D01*
G01*
X12888372Y41730333D01*
G75*
G02*
X12862750Y41634711I-60622J-35000D01*
G01*
G37*
G04 #@! TD*
G04 #@! TO.C,D2*
G36*
G01*
X52545000Y53435000D02*
X52545000Y52415000D01*
G75*
G02*
X52455000Y52325000I-90000J0D01*
G01*
X51735000Y52325000D01*
G75*
G02*
X51645000Y52415000I0J90000D01*
G01*
X51645000Y53435000D01*
G75*
G02*
X51735000Y53525000I90000J0D01*
G01*
X52455000Y53525000D01*
G75*
G02*
X52545000Y53435000I0J-90000D01*
G01*
G37*
G36*
G01*
X49245000Y53435000D02*
X49245000Y52415000D01*
G75*
G02*
X49155000Y52325000I-90000J0D01*
G01*
X48435000Y52325000D01*
G75*
G02*
X48345000Y52415000I0J90000D01*
G01*
X48345000Y53435000D01*
G75*
G02*
X48435000Y53525000I90000J0D01*
G01*
X49155000Y53525000D01*
G75*
G02*
X49245000Y53435000I0J-90000D01*
G01*
G37*
G04 #@! TD*
G04 #@! TO.C,D5*
G36*
G01*
X54062168Y38558417D02*
X54783417Y37837168D01*
G75*
G02*
X54783417Y37709888I-63640J-63640D01*
G01*
X54274300Y37200771D01*
G75*
G02*
X54147020Y37200771I-63640J63640D01*
G01*
X53425771Y37922020D01*
G75*
G02*
X53425771Y38049300I63640J63640D01*
G01*
X53934888Y38558417D01*
G75*
G02*
X54062168Y38558417I63640J-63640D01*
G01*
G37*
G36*
G01*
X51728716Y36224965D02*
X52449965Y35503716D01*
G75*
G02*
X52449965Y35376436I-63640J-63640D01*
G01*
X51940848Y34867319D01*
G75*
G02*
X51813568Y34867319I-63640J63640D01*
G01*
X51092319Y35588568D01*
G75*
G02*
X51092319Y35715848I63640J63640D01*
G01*
X51601436Y36224965D01*
G75*
G02*
X51728716Y36224965I63640J-63640D01*
G01*
G37*
G04 #@! TD*
G04 #@! TO.C,R30*
G36*
G01*
X65290000Y53150000D02*
X64510000Y53150000D01*
G75*
G02*
X64440000Y53220000I0J70000D01*
G01*
X64440000Y53780000D01*
G75*
G02*
X64510000Y53850000I70000J0D01*
G01*
X65290000Y53850000D01*
G75*
G02*
X65360000Y53780000I0J-70000D01*
G01*
X65360000Y53220000D01*
G75*
G02*
X65290000Y53150000I-70000J0D01*
G01*
G37*
G36*
G01*
X65290000Y54750000D02*
X64510000Y54750000D01*
G75*
G02*
X64440000Y54820000I0J70000D01*
G01*
X64440000Y55380000D01*
G75*
G02*
X64510000Y55450000I70000J0D01*
G01*
X65290000Y55450000D01*
G75*
G02*
X65360000Y55380000I0J-70000D01*
G01*
X65360000Y54820000D01*
G75*
G02*
X65290000Y54750000I-70000J0D01*
G01*
G37*
G04 #@! TD*
G04 #@! TO.C,R9*
G36*
G01*
X30812750Y43999071D02*
X30137250Y43609071D01*
G75*
G02*
X30041628Y43634693I-35000J60622D01*
G01*
X29761628Y44119667D01*
G75*
G02*
X29787250Y44215289I60622J35000D01*
G01*
X30462750Y44605289D01*
G75*
G02*
X30558372Y44579667I35000J-60622D01*
G01*
X30838372Y44094693D01*
G75*
G02*
X30812750Y43999071I-60622J-35000D01*
G01*
G37*
G36*
G01*
X30012750Y45384711D02*
X29337250Y44994711D01*
G75*
G02*
X29241628Y45020333I-35000J60622D01*
G01*
X28961628Y45505307D01*
G75*
G02*
X28987250Y45600929I60622J35000D01*
G01*
X29662750Y45990929D01*
G75*
G02*
X29758372Y45965307I35000J-60622D01*
G01*
X30038372Y45480333D01*
G75*
G02*
X30012750Y45384711I-60622J-35000D01*
G01*
G37*
G04 #@! TD*
G04 #@! TO.C,R18*
G36*
G01*
X17571586Y44716460D02*
X15103414Y43291460D01*
G75*
G02*
X14761908Y43382966I-125000J216506D01*
G01*
X14399408Y44010834D01*
G75*
G02*
X14490914Y44352340I216506J125000D01*
G01*
X16959086Y45777340D01*
G75*
G02*
X17300592Y45685834I125000J-216506D01*
G01*
X17663092Y45057966D01*
G75*
G02*
X17571586Y44716460I-216506J-125000D01*
G01*
G37*
G36*
G01*
X14609086Y49847660D02*
X12140914Y48422660D01*
G75*
G02*
X11799408Y48514166I-125000J216506D01*
G01*
X11436908Y49142034D01*
G75*
G02*
X11528414Y49483540I216506J125000D01*
G01*
X13996586Y50908540D01*
G75*
G02*
X14338092Y50817034I125000J-216506D01*
G01*
X14700592Y50189166D01*
G75*
G02*
X14609086Y49847660I-216506J-125000D01*
G01*
G37*
G04 #@! TD*
G04 #@! TO.C,R29*
G36*
G01*
X65390000Y45450000D02*
X64610000Y45450000D01*
G75*
G02*
X64540000Y45520000I0J70000D01*
G01*
X64540000Y46080000D01*
G75*
G02*
X64610000Y46150000I70000J0D01*
G01*
X65390000Y46150000D01*
G75*
G02*
X65460000Y46080000I0J-70000D01*
G01*
X65460000Y45520000D01*
G75*
G02*
X65390000Y45450000I-70000J0D01*
G01*
G37*
G36*
G01*
X65390000Y47050000D02*
X64610000Y47050000D01*
G75*
G02*
X64540000Y47120000I0J70000D01*
G01*
X64540000Y47680000D01*
G75*
G02*
X64610000Y47750000I70000J0D01*
G01*
X65390000Y47750000D01*
G75*
G02*
X65460000Y47680000I0J-70000D01*
G01*
X65460000Y47120000D01*
G75*
G02*
X65390000Y47050000I-70000J0D01*
G01*
G37*
G04 #@! TD*
G04 #@! TO.C,D3*
G36*
G01*
X54600000Y43935000D02*
X54600000Y42915000D01*
G75*
G02*
X54510000Y42825000I-90000J0D01*
G01*
X53790000Y42825000D01*
G75*
G02*
X53700000Y42915000I0J90000D01*
G01*
X53700000Y43935000D01*
G75*
G02*
X53790000Y44025000I90000J0D01*
G01*
X54510000Y44025000D01*
G75*
G02*
X54600000Y43935000I0J-90000D01*
G01*
G37*
G36*
G01*
X51300000Y43935000D02*
X51300000Y42915000D01*
G75*
G02*
X51210000Y42825000I-90000J0D01*
G01*
X50490000Y42825000D01*
G75*
G02*
X50400000Y42915000I0J90000D01*
G01*
X50400000Y43935000D01*
G75*
G02*
X50490000Y44025000I90000J0D01*
G01*
X51210000Y44025000D01*
G75*
G02*
X51300000Y43935000I0J-90000D01*
G01*
G37*
G04 #@! TD*
G04 #@! TO.C,D4*
G36*
G01*
X44795000Y40210000D02*
X44795000Y39190000D01*
G75*
G02*
X44705000Y39100000I-90000J0D01*
G01*
X43985000Y39100000D01*
G75*
G02*
X43895000Y39190000I0J90000D01*
G01*
X43895000Y40210000D01*
G75*
G02*
X43985000Y40300000I90000J0D01*
G01*
X44705000Y40300000D01*
G75*
G02*
X44795000Y40210000I0J-90000D01*
G01*
G37*
G36*
G01*
X41495000Y40210000D02*
X41495000Y39190000D01*
G75*
G02*
X41405000Y39100000I-90000J0D01*
G01*
X40685000Y39100000D01*
G75*
G02*
X40595000Y39190000I0J90000D01*
G01*
X40595000Y40210000D01*
G75*
G02*
X40685000Y40300000I90000J0D01*
G01*
X41405000Y40300000D01*
G75*
G02*
X41495000Y40210000I0J-90000D01*
G01*
G37*
G04 #@! TD*
G04 #@! TO.C,R10*
G36*
G01*
X5362750Y39599071D02*
X4687250Y39209071D01*
G75*
G02*
X4591628Y39234693I-35000J60622D01*
G01*
X4311628Y39719667D01*
G75*
G02*
X4337250Y39815289I60622J35000D01*
G01*
X5012750Y40205289D01*
G75*
G02*
X5108372Y40179667I35000J-60622D01*
G01*
X5388372Y39694693D01*
G75*
G02*
X5362750Y39599071I-60622J-35000D01*
G01*
G37*
G36*
G01*
X4562750Y40984711D02*
X3887250Y40594711D01*
G75*
G02*
X3791628Y40620333I-35000J60622D01*
G01*
X3511628Y41105307D01*
G75*
G02*
X3537250Y41200929I60622J35000D01*
G01*
X4212750Y41590929D01*
G75*
G02*
X4308372Y41565307I35000J-60622D01*
G01*
X4588372Y41080333D01*
G75*
G02*
X4562750Y40984711I-60622J-35000D01*
G01*
G37*
G04 #@! TD*
G04 #@! TO.C,R13*
G36*
G01*
X9313397Y43079553D02*
X6845225Y41654553D01*
G75*
G02*
X6503719Y41746059I-125000J216506D01*
G01*
X6141219Y42373927D01*
G75*
G02*
X6232725Y42715433I216506J125000D01*
G01*
X8700897Y44140433D01*
G75*
G02*
X9042403Y44048927I125000J-216506D01*
G01*
X9404903Y43421059D01*
G75*
G02*
X9313397Y43079553I-216506J-125000D01*
G01*
G37*
G36*
G01*
X6350897Y48210753D02*
X3882725Y46785753D01*
G75*
G02*
X3541219Y46877259I-125000J216506D01*
G01*
X3178719Y47505127D01*
G75*
G02*
X3270225Y47846633I216506J125000D01*
G01*
X5738397Y49271633D01*
G75*
G02*
X6079903Y49180127I125000J-216506D01*
G01*
X6442403Y48552259D01*
G75*
G02*
X6350897Y48210753I-216506J-125000D01*
G01*
G37*
G04 #@! TD*
G04 #@! TO.C,R11*
G36*
G01*
X21912750Y42599071D02*
X21237250Y42209071D01*
G75*
G02*
X21141628Y42234693I-35000J60622D01*
G01*
X20861628Y42719667D01*
G75*
G02*
X20887250Y42815289I60622J35000D01*
G01*
X21562750Y43205289D01*
G75*
G02*
X21658372Y43179667I35000J-60622D01*
G01*
X21938372Y42694693D01*
G75*
G02*
X21912750Y42599071I-60622J-35000D01*
G01*
G37*
G36*
G01*
X21112750Y43984711D02*
X20437250Y43594711D01*
G75*
G02*
X20341628Y43620333I-35000J60622D01*
G01*
X20061628Y44105307D01*
G75*
G02*
X20087250Y44200929I60622J35000D01*
G01*
X20762750Y44590929D01*
G75*
G02*
X20858372Y44565307I35000J-60622D01*
G01*
X21138372Y44080333D01*
G75*
G02*
X21112750Y43984711I-60622J-35000D01*
G01*
G37*
G04 #@! TD*
M02*
