G04 #@! TF.GenerationSoftware,KiCad,Pcbnew,7.0.10-7.0.10~ubuntu22.04.1*
G04 #@! TF.CreationDate,2023-12-31T17:22:27+00:00*
G04 #@! TF.ProjectId,uaeficopiedtovfr,75616566-6963-46f7-9069-6564746f7666,rev?*
G04 #@! TF.SameCoordinates,Original*
G04 #@! TF.FileFunction,Soldermask,Top*
G04 #@! TF.FilePolarity,Negative*
%FSLAX46Y46*%
G04 Gerber Fmt 4.6, Leading zero omitted, Abs format (unit mm)*
G04 Created by KiCad (PCBNEW 7.0.10-7.0.10~ubuntu22.04.1) date 2023-12-31 17:22:27*
%MOMM*%
%LPD*%
G01*
G04 APERTURE LIST*
%ADD10C,0.120000*%
%ADD11C,1.524000*%
%ADD12R,2.000000X1.500000*%
%ADD13R,2.000000X3.800000*%
%ADD14C,5.600000*%
%ADD15C,0.600000*%
%ADD16C,0.599999*%
%ADD17C,1.500000*%
%ADD18C,2.850000*%
%ADD19R,2.625000X2.625000*%
%ADD20C,2.625000*%
%ADD21C,1.700000*%
%ADD22C,0.650000*%
%ADD23R,0.300000X1.150000*%
%ADD24O,1.000000X2.100000*%
%ADD25O,1.000000X1.600000*%
%ADD26R,1.300000X1.000000*%
G04 APERTURE END LIST*
G04 #@! TO.C,U2*
D10*
X153612500Y45125000D02*
X140612500Y45125000D01*
X140612500Y52125000D01*
X153612500Y52125000D01*
X153612500Y45125000D01*
G36*
X153612500Y45125000D02*
G01*
X140612500Y45125000D01*
X140612500Y52125000D01*
X153612500Y52125000D01*
X153612500Y45125000D01*
G37*
G04 #@! TD*
D11*
G04 #@! TO.C,R4*
X118005000Y15225000D03*
G36*
G01*
X117550001Y15850000D02*
X117550001Y14600000D01*
G75*
G02*
X117450001Y14500000I-100000J0D01*
G01*
X116650001Y14500000D01*
G75*
G02*
X116550001Y14600000I0J100000D01*
G01*
X116550001Y15850000D01*
G75*
G02*
X116650001Y15950000I100000J0D01*
G01*
X117450001Y15950000D01*
G75*
G02*
X117550001Y15850000I0J-100000D01*
G01*
G37*
G36*
G01*
X115649979Y15850000D02*
X115649979Y14600000D01*
G75*
G02*
X115549979Y14500000I-100000J0D01*
G01*
X114749979Y14500000D01*
G75*
G02*
X114649979Y14600000I0J100000D01*
G01*
X114649979Y15850000D01*
G75*
G02*
X114749979Y15950000I100000J0D01*
G01*
X115549979Y15950000D01*
G75*
G02*
X115649979Y15850000I0J-100000D01*
G01*
G37*
X114195000Y15225000D03*
G04 #@! TD*
G04 #@! TO.C,R1*
G36*
G01*
X142460000Y56275000D02*
X143240000Y56275000D01*
G75*
G02*
X143310000Y56205000I0J-70000D01*
G01*
X143310000Y55645000D01*
G75*
G02*
X143240000Y55575000I-70000J0D01*
G01*
X142460000Y55575000D01*
G75*
G02*
X142390000Y55645000I0J70000D01*
G01*
X142390000Y56205000D01*
G75*
G02*
X142460000Y56275000I70000J0D01*
G01*
G37*
G36*
G01*
X142460000Y54675000D02*
X143240000Y54675000D01*
G75*
G02*
X143310000Y54605000I0J-70000D01*
G01*
X143310000Y54045000D01*
G75*
G02*
X143240000Y53975000I-70000J0D01*
G01*
X142460000Y53975000D01*
G75*
G02*
X142390000Y54045000I0J70000D01*
G01*
X142390000Y54605000D01*
G75*
G02*
X142460000Y54675000I70000J0D01*
G01*
G37*
G04 #@! TD*
D12*
G04 #@! TO.C,Q14*
X56850000Y55150000D03*
X56850000Y52850000D03*
X56850000Y50550000D03*
D13*
X63150000Y52850000D03*
G04 #@! TD*
D14*
G04 #@! TO.C,H2*
X41250000Y19500000D03*
G04 #@! TD*
G04 #@! TO.C,Q8*
G36*
X48617339Y47194005D02*
G01*
X49916377Y47944005D01*
X50916377Y46211955D01*
X49617339Y45461955D01*
X48617339Y47194005D01*
G37*
G36*
X46625481Y46044005D02*
G01*
X47924519Y46794005D01*
X48924519Y45061955D01*
X47625481Y44311955D01*
X46625481Y46044005D01*
G37*
G36*
X44633623Y44894005D02*
G01*
X45932661Y45644005D01*
X46932661Y43911955D01*
X45633623Y43161955D01*
X44633623Y44894005D01*
G37*
G36*
X48779552Y40013045D02*
G01*
X52070448Y41913045D01*
X53070448Y40180995D01*
X49779552Y38280995D01*
X48779552Y40013045D01*
G37*
G04 #@! TD*
G04 #@! TO.C,R8*
G36*
G01*
X128000000Y10440000D02*
X128000000Y9660000D01*
G75*
G02*
X127930000Y9590000I-70000J0D01*
G01*
X127370000Y9590000D01*
G75*
G02*
X127300000Y9660000I0J70000D01*
G01*
X127300000Y10440000D01*
G75*
G02*
X127370000Y10510000I70000J0D01*
G01*
X127930000Y10510000D01*
G75*
G02*
X128000000Y10440000I0J-70000D01*
G01*
G37*
G36*
G01*
X126400000Y10440000D02*
X126400000Y9660000D01*
G75*
G02*
X126330000Y9590000I-70000J0D01*
G01*
X125770000Y9590000D01*
G75*
G02*
X125700000Y9660000I0J70000D01*
G01*
X125700000Y10440000D01*
G75*
G02*
X125770000Y10510000I70000J0D01*
G01*
X126330000Y10510000D01*
G75*
G02*
X126400000Y10440000I0J-70000D01*
G01*
G37*
G04 #@! TD*
G04 #@! TO.C,Q10*
G36*
X53738478Y28419491D02*
G01*
X52677818Y27358831D01*
X51263604Y28773045D01*
X52324264Y29833705D01*
X53738478Y28419491D01*
G37*
G36*
X55364823Y30045837D02*
G01*
X54304163Y28985177D01*
X52889949Y30399391D01*
X53950609Y31460051D01*
X55364823Y30045837D01*
G37*
G36*
X56991169Y31672182D02*
G01*
X55930509Y30611522D01*
X54516295Y32025736D01*
X55576955Y33086396D01*
X56991169Y31672182D01*
G37*
G36*
X51723224Y35313782D02*
G01*
X49036218Y32626776D01*
X47622004Y34040990D01*
X50309010Y36727996D01*
X51723224Y35313782D01*
G37*
G04 #@! TD*
G04 #@! TO.C,R32*
G36*
G01*
X65460000Y42050000D02*
X66240000Y42050000D01*
G75*
G02*
X66310000Y41980000I0J-70000D01*
G01*
X66310000Y41420000D01*
G75*
G02*
X66240000Y41350000I-70000J0D01*
G01*
X65460000Y41350000D01*
G75*
G02*
X65390000Y41420000I0J70000D01*
G01*
X65390000Y41980000D01*
G75*
G02*
X65460000Y42050000I70000J0D01*
G01*
G37*
G36*
G01*
X65460000Y40450000D02*
X66240000Y40450000D01*
G75*
G02*
X66310000Y40380000I0J-70000D01*
G01*
X66310000Y39820000D01*
G75*
G02*
X66240000Y39750000I-70000J0D01*
G01*
X65460000Y39750000D01*
G75*
G02*
X65390000Y39820000I0J70000D01*
G01*
X65390000Y40380000D01*
G75*
G02*
X65460000Y40450000I70000J0D01*
G01*
G37*
G04 #@! TD*
D15*
G04 #@! TO.C,M2*
X156475002Y26500000D03*
X157425002Y26500000D03*
X158375000Y26500000D03*
X157375002Y17800000D03*
X156475002Y17800000D03*
G04 #@! TD*
G04 #@! TO.C,M3*
X71325000Y59700000D03*
X71325000Y60900000D03*
X71325000Y58500000D03*
X71325000Y57300000D03*
X85750000Y63760000D03*
X85750000Y64760000D03*
G04 #@! TD*
G04 #@! TO.C,R2*
G36*
G01*
X112190000Y55575000D02*
X111410000Y55575000D01*
G75*
G02*
X111340000Y55645000I0J70000D01*
G01*
X111340000Y56205000D01*
G75*
G02*
X111410000Y56275000I70000J0D01*
G01*
X112190000Y56275000D01*
G75*
G02*
X112260000Y56205000I0J-70000D01*
G01*
X112260000Y55645000D01*
G75*
G02*
X112190000Y55575000I-70000J0D01*
G01*
G37*
G36*
G01*
X112190000Y57175000D02*
X111410000Y57175000D01*
G75*
G02*
X111340000Y57245000I0J70000D01*
G01*
X111340000Y57805000D01*
G75*
G02*
X111410000Y57875000I70000J0D01*
G01*
X112190000Y57875000D01*
G75*
G02*
X112260000Y57805000I0J-70000D01*
G01*
X112260000Y57245000D01*
G75*
G02*
X112190000Y57175000I-70000J0D01*
G01*
G37*
G04 #@! TD*
G04 #@! TO.C,R31*
G36*
G01*
X66390000Y21650000D02*
X65610000Y21650000D01*
G75*
G02*
X65540000Y21720000I0J70000D01*
G01*
X65540000Y22280000D01*
G75*
G02*
X65610000Y22350000I70000J0D01*
G01*
X66390000Y22350000D01*
G75*
G02*
X66460000Y22280000I0J-70000D01*
G01*
X66460000Y21720000D01*
G75*
G02*
X66390000Y21650000I-70000J0D01*
G01*
G37*
G36*
G01*
X66390000Y23250000D02*
X65610000Y23250000D01*
G75*
G02*
X65540000Y23320000I0J70000D01*
G01*
X65540000Y23880000D01*
G75*
G02*
X65610000Y23950000I70000J0D01*
G01*
X66390000Y23950000D01*
G75*
G02*
X66460000Y23880000I0J-70000D01*
G01*
X66460000Y23320000D01*
G75*
G02*
X66390000Y23250000I-70000J0D01*
G01*
G37*
G04 #@! TD*
G04 #@! TO.C,R23*
G36*
G01*
X41010000Y48400000D02*
X41790000Y48400000D01*
G75*
G02*
X41860000Y48330000I0J-70000D01*
G01*
X41860000Y47770000D01*
G75*
G02*
X41790000Y47700000I-70000J0D01*
G01*
X41010000Y47700000D01*
G75*
G02*
X40940000Y47770000I0J70000D01*
G01*
X40940000Y48330000D01*
G75*
G02*
X41010000Y48400000I70000J0D01*
G01*
G37*
G36*
G01*
X41010000Y46800000D02*
X41790000Y46800000D01*
G75*
G02*
X41860000Y46730000I0J-70000D01*
G01*
X41860000Y46170000D01*
G75*
G02*
X41790000Y46100000I-70000J0D01*
G01*
X41010000Y46100000D01*
G75*
G02*
X40940000Y46170000I0J70000D01*
G01*
X40940000Y46730000D01*
G75*
G02*
X41010000Y46800000I70000J0D01*
G01*
G37*
G04 #@! TD*
D16*
G04 #@! TO.C,M8*
X138824992Y13725010D03*
X140400006Y8820001D03*
X153104024Y8829064D03*
X144624996Y8150000D03*
X145800000Y8150000D03*
X147974994Y8150000D03*
X150199996Y8150000D03*
G04 #@! TD*
D12*
G04 #@! TO.C,Q16*
X62100000Y38400000D03*
X62100000Y36100000D03*
X62100000Y33800000D03*
D13*
X68400000Y36100000D03*
G04 #@! TD*
G04 #@! TO.C,Q9*
G36*
X40867339Y44944005D02*
G01*
X42166377Y45694005D01*
X43166377Y43961955D01*
X41867339Y43211955D01*
X40867339Y44944005D01*
G37*
G36*
X38875481Y43794005D02*
G01*
X40174519Y44544005D01*
X41174519Y42811955D01*
X39875481Y42061955D01*
X38875481Y43794005D01*
G37*
G36*
X36883623Y42644005D02*
G01*
X38182661Y43394005D01*
X39182661Y41661955D01*
X37883623Y40911955D01*
X36883623Y42644005D01*
G37*
G36*
X41029552Y37763045D02*
G01*
X44320448Y39663045D01*
X45320448Y37930995D01*
X42029552Y36030995D01*
X41029552Y37763045D01*
G37*
G04 #@! TD*
D17*
G04 #@! TO.C,M1*
X133924999Y19750005D03*
X127525002Y19750005D03*
X125624999Y19750005D03*
X121324999Y19750005D03*
D15*
X118925002Y19300006D03*
X117925001Y19300006D03*
D17*
X115074999Y19750005D03*
X134375001Y35250002D03*
X132525002Y35250002D03*
X127574999Y35250002D03*
X115525001Y35250002D03*
G04 #@! TD*
D12*
G04 #@! TO.C,Q13*
X56550000Y47350000D03*
X56550000Y45050000D03*
X56550000Y42750000D03*
D13*
X62850000Y45050000D03*
G04 #@! TD*
G04 #@! TO.C,R26*
G36*
G01*
X36340000Y68825000D02*
X35560000Y68825000D01*
G75*
G02*
X35490000Y68895000I0J70000D01*
G01*
X35490000Y69455000D01*
G75*
G02*
X35560000Y69525000I70000J0D01*
G01*
X36340000Y69525000D01*
G75*
G02*
X36410000Y69455000I0J-70000D01*
G01*
X36410000Y68895000D01*
G75*
G02*
X36340000Y68825000I-70000J0D01*
G01*
G37*
G36*
G01*
X36340000Y70425000D02*
X35560000Y70425000D01*
G75*
G02*
X35490000Y70495000I0J70000D01*
G01*
X35490000Y71055000D01*
G75*
G02*
X35560000Y71125000I70000J0D01*
G01*
X36340000Y71125000D01*
G75*
G02*
X36410000Y71055000I0J-70000D01*
G01*
X36410000Y70495000D01*
G75*
G02*
X36340000Y70425000I-70000J0D01*
G01*
G37*
G04 #@! TD*
G04 #@! TO.C,C1*
G36*
G01*
X139190000Y26034999D02*
X138510000Y26034999D01*
G75*
G02*
X138425000Y26119999I0J85000D01*
G01*
X138425000Y26799999D01*
G75*
G02*
X138510000Y26884999I85000J0D01*
G01*
X139190000Y26884999D01*
G75*
G02*
X139275000Y26799999I0J-85000D01*
G01*
X139275000Y26119999D01*
G75*
G02*
X139190000Y26034999I-85000J0D01*
G01*
G37*
G36*
G01*
X139190000Y27615001D02*
X138510000Y27615001D01*
G75*
G02*
X138425000Y27700001I0J85000D01*
G01*
X138425000Y28380001D01*
G75*
G02*
X138510000Y28465001I85000J0D01*
G01*
X139190000Y28465001D01*
G75*
G02*
X139275000Y28380001I0J-85000D01*
G01*
X139275000Y27700001D01*
G75*
G02*
X139190000Y27615001I-85000J0D01*
G01*
G37*
G04 #@! TD*
G04 #@! TO.C,Q7*
G36*
X47117339Y57169005D02*
G01*
X48416377Y57919005D01*
X49416377Y56186955D01*
X48117339Y55436955D01*
X47117339Y57169005D01*
G37*
G36*
X45125481Y56019005D02*
G01*
X46424519Y56769005D01*
X47424519Y55036955D01*
X46125481Y54286955D01*
X45125481Y56019005D01*
G37*
G36*
X43133623Y54869005D02*
G01*
X44432661Y55619005D01*
X45432661Y53886955D01*
X44133623Y53136955D01*
X43133623Y54869005D01*
G37*
G36*
X47279552Y49988045D02*
G01*
X50570448Y51888045D01*
X51570448Y50155995D01*
X48279552Y48255995D01*
X47279552Y49988045D01*
G37*
G04 #@! TD*
D18*
G04 #@! TO.C,J4*
X59600000Y2350000D03*
X100600000Y2350000D03*
D19*
X66100000Y6850000D03*
D20*
X70100000Y6850000D03*
X74100000Y6850000D03*
X78100000Y6850000D03*
X82100000Y6850000D03*
X86100000Y6850000D03*
X90100000Y6850000D03*
X94100000Y6850000D03*
X68100000Y2850000D03*
X72100000Y2850000D03*
X76100000Y2850000D03*
X80100000Y2850000D03*
X84100000Y2850000D03*
X88100000Y2850000D03*
X92100000Y2850000D03*
X66100000Y-1150000D03*
X70100000Y-1150000D03*
X74100000Y-1150000D03*
X78100000Y-1150000D03*
X82100000Y-1150000D03*
X86100000Y-1150000D03*
X90100000Y-1150000D03*
X94100000Y-1150000D03*
G04 #@! TD*
G04 #@! TO.C,U1*
G36*
G01*
X64525000Y59325001D02*
X64525000Y60924999D01*
G75*
G02*
X64775001Y61175000I250001J0D01*
G01*
X66374999Y61175000D01*
G75*
G02*
X66625000Y60924999I0J-250001D01*
G01*
X66625000Y59325001D01*
G75*
G02*
X66374999Y59075000I-250001J0D01*
G01*
X64775001Y59075000D01*
G75*
G02*
X64525000Y59325001I0J250001D01*
G01*
G37*
G36*
G01*
X58825000Y59325001D02*
X58825000Y60924999D01*
G75*
G02*
X59075001Y61175000I250001J0D01*
G01*
X60674999Y61175000D01*
G75*
G02*
X60925000Y60924999I0J-250001D01*
G01*
X60925000Y59325001D01*
G75*
G02*
X60674999Y59075000I-250001J0D01*
G01*
X59075001Y59075000D01*
G75*
G02*
X58825000Y59325001I0J250001D01*
G01*
G37*
G36*
G01*
X53125000Y59325001D02*
X53125000Y60924999D01*
G75*
G02*
X53375001Y61175000I250001J0D01*
G01*
X54974999Y61175000D01*
G75*
G02*
X55225000Y60924999I0J-250001D01*
G01*
X55225000Y59325001D01*
G75*
G02*
X54974999Y59075000I-250001J0D01*
G01*
X53375001Y59075000D01*
G75*
G02*
X53125000Y59325001I0J250001D01*
G01*
G37*
G36*
G01*
X47425000Y59325001D02*
X47425000Y60924999D01*
G75*
G02*
X47675001Y61175000I250001J0D01*
G01*
X49274999Y61175000D01*
G75*
G02*
X49525000Y60924999I0J-250001D01*
G01*
X49525000Y59325001D01*
G75*
G02*
X49274999Y59075000I-250001J0D01*
G01*
X47675001Y59075000D01*
G75*
G02*
X47425000Y59325001I0J250001D01*
G01*
G37*
G36*
G01*
X41725000Y59325001D02*
X41725000Y60924999D01*
G75*
G02*
X41975001Y61175000I250001J0D01*
G01*
X43574999Y61175000D01*
G75*
G02*
X43825000Y60924999I0J-250001D01*
G01*
X43825000Y59325001D01*
G75*
G02*
X43574999Y59075000I-250001J0D01*
G01*
X41975001Y59075000D01*
G75*
G02*
X41725000Y59325001I0J250001D01*
G01*
G37*
G36*
G01*
X36025000Y59325001D02*
X36025000Y60924999D01*
G75*
G02*
X36275001Y61175000I250001J0D01*
G01*
X37874999Y61175000D01*
G75*
G02*
X38125000Y60924999I0J-250001D01*
G01*
X38125000Y59325001D01*
G75*
G02*
X37874999Y59075000I-250001J0D01*
G01*
X36275001Y59075000D01*
G75*
G02*
X36025000Y59325001I0J250001D01*
G01*
G37*
G36*
G01*
X30325000Y59325001D02*
X30325000Y60924999D01*
G75*
G02*
X30575001Y61175000I250001J0D01*
G01*
X32174999Y61175000D01*
G75*
G02*
X32425000Y60924999I0J-250001D01*
G01*
X32425000Y59325001D01*
G75*
G02*
X32174999Y59075000I-250001J0D01*
G01*
X30575001Y59075000D01*
G75*
G02*
X30325000Y59325001I0J250001D01*
G01*
G37*
G36*
G01*
X24625000Y59325001D02*
X24625000Y60924999D01*
G75*
G02*
X24875001Y61175000I250001J0D01*
G01*
X26474999Y61175000D01*
G75*
G02*
X26725000Y60924999I0J-250001D01*
G01*
X26725000Y59325001D01*
G75*
G02*
X26474999Y59075000I-250001J0D01*
G01*
X24875001Y59075000D01*
G75*
G02*
X24625000Y59325001I0J250001D01*
G01*
G37*
G36*
G01*
X18925000Y59325001D02*
X18925000Y60924999D01*
G75*
G02*
X19175001Y61175000I250001J0D01*
G01*
X20774999Y61175000D01*
G75*
G02*
X21025000Y60924999I0J-250001D01*
G01*
X21025000Y59325001D01*
G75*
G02*
X20774999Y59075000I-250001J0D01*
G01*
X19175001Y59075000D01*
G75*
G02*
X18925000Y59325001I0J250001D01*
G01*
G37*
G36*
G01*
X13225000Y59325001D02*
X13225000Y60924999D01*
G75*
G02*
X13475001Y61175000I250001J0D01*
G01*
X15074999Y61175000D01*
G75*
G02*
X15325000Y60924999I0J-250001D01*
G01*
X15325000Y59325001D01*
G75*
G02*
X15074999Y59075000I-250001J0D01*
G01*
X13475001Y59075000D01*
G75*
G02*
X13225000Y59325001I0J250001D01*
G01*
G37*
G36*
G01*
X7525000Y59325001D02*
X7525000Y60924999D01*
G75*
G02*
X7775001Y61175000I250001J0D01*
G01*
X9374999Y61175000D01*
G75*
G02*
X9625000Y60924999I0J-250001D01*
G01*
X9625000Y59325001D01*
G75*
G02*
X9374999Y59075000I-250001J0D01*
G01*
X7775001Y59075000D01*
G75*
G02*
X7525000Y59325001I0J250001D01*
G01*
G37*
G36*
G01*
X64525000Y63425001D02*
X64525000Y65024999D01*
G75*
G02*
X64775001Y65275000I250001J0D01*
G01*
X66374999Y65275000D01*
G75*
G02*
X66625000Y65024999I0J-250001D01*
G01*
X66625000Y63425001D01*
G75*
G02*
X66374999Y63175000I-250001J0D01*
G01*
X64775001Y63175000D01*
G75*
G02*
X64525000Y63425001I0J250001D01*
G01*
G37*
G36*
G01*
X58825000Y63425001D02*
X58825000Y65024999D01*
G75*
G02*
X59075001Y65275000I250001J0D01*
G01*
X60674999Y65275000D01*
G75*
G02*
X60925000Y65024999I0J-250001D01*
G01*
X60925000Y63425001D01*
G75*
G02*
X60674999Y63175000I-250001J0D01*
G01*
X59075001Y63175000D01*
G75*
G02*
X58825000Y63425001I0J250001D01*
G01*
G37*
G36*
G01*
X53125000Y63425001D02*
X53125000Y65024999D01*
G75*
G02*
X53375001Y65275000I250001J0D01*
G01*
X54974999Y65275000D01*
G75*
G02*
X55225000Y65024999I0J-250001D01*
G01*
X55225000Y63425001D01*
G75*
G02*
X54974999Y63175000I-250001J0D01*
G01*
X53375001Y63175000D01*
G75*
G02*
X53125000Y63425001I0J250001D01*
G01*
G37*
G36*
G01*
X47425000Y63425001D02*
X47425000Y65024999D01*
G75*
G02*
X47675001Y65275000I250001J0D01*
G01*
X49274999Y65275000D01*
G75*
G02*
X49525000Y65024999I0J-250001D01*
G01*
X49525000Y63425001D01*
G75*
G02*
X49274999Y63175000I-250001J0D01*
G01*
X47675001Y63175000D01*
G75*
G02*
X47425000Y63425001I0J250001D01*
G01*
G37*
G36*
G01*
X41725000Y63425001D02*
X41725000Y65024999D01*
G75*
G02*
X41975001Y65275000I250001J0D01*
G01*
X43574999Y65275000D01*
G75*
G02*
X43825000Y65024999I0J-250001D01*
G01*
X43825000Y63425001D01*
G75*
G02*
X43574999Y63175000I-250001J0D01*
G01*
X41975001Y63175000D01*
G75*
G02*
X41725000Y63425001I0J250001D01*
G01*
G37*
G36*
G01*
X36025000Y63425001D02*
X36025000Y65024999D01*
G75*
G02*
X36275001Y65275000I250001J0D01*
G01*
X37874999Y65275000D01*
G75*
G02*
X38125000Y65024999I0J-250001D01*
G01*
X38125000Y63425001D01*
G75*
G02*
X37874999Y63175000I-250001J0D01*
G01*
X36275001Y63175000D01*
G75*
G02*
X36025000Y63425001I0J250001D01*
G01*
G37*
G36*
G01*
X30325000Y63425001D02*
X30325000Y65024999D01*
G75*
G02*
X30575001Y65275000I250001J0D01*
G01*
X32174999Y65275000D01*
G75*
G02*
X32425000Y65024999I0J-250001D01*
G01*
X32425000Y63425001D01*
G75*
G02*
X32174999Y63175000I-250001J0D01*
G01*
X30575001Y63175000D01*
G75*
G02*
X30325000Y63425001I0J250001D01*
G01*
G37*
G36*
G01*
X24625000Y63425001D02*
X24625000Y65024999D01*
G75*
G02*
X24875001Y65275000I250001J0D01*
G01*
X26474999Y65275000D01*
G75*
G02*
X26725000Y65024999I0J-250001D01*
G01*
X26725000Y63425001D01*
G75*
G02*
X26474999Y63175000I-250001J0D01*
G01*
X24875001Y63175000D01*
G75*
G02*
X24625000Y63425001I0J250001D01*
G01*
G37*
G36*
G01*
X18925000Y63425001D02*
X18925000Y65024999D01*
G75*
G02*
X19175001Y65275000I250001J0D01*
G01*
X20774999Y65275000D01*
G75*
G02*
X21025000Y65024999I0J-250001D01*
G01*
X21025000Y63425001D01*
G75*
G02*
X20774999Y63175000I-250001J0D01*
G01*
X19175001Y63175000D01*
G75*
G02*
X18925000Y63425001I0J250001D01*
G01*
G37*
G36*
G01*
X13225000Y63425001D02*
X13225000Y65024999D01*
G75*
G02*
X13475001Y65275000I250001J0D01*
G01*
X15074999Y65275000D01*
G75*
G02*
X15325000Y65024999I0J-250001D01*
G01*
X15325000Y63425001D01*
G75*
G02*
X15074999Y63175000I-250001J0D01*
G01*
X13475001Y63175000D01*
G75*
G02*
X13225000Y63425001I0J250001D01*
G01*
G37*
G36*
G01*
X7525000Y63425001D02*
X7525000Y65024999D01*
G75*
G02*
X7775001Y65275000I250001J0D01*
G01*
X9374999Y65275000D01*
G75*
G02*
X9625000Y65024999I0J-250001D01*
G01*
X9625000Y63425001D01*
G75*
G02*
X9374999Y63175000I-250001J0D01*
G01*
X7775001Y63175000D01*
G75*
G02*
X7525000Y63425001I0J250001D01*
G01*
G37*
G36*
G01*
X150525000Y59275001D02*
X150525000Y60874999D01*
G75*
G02*
X150775001Y61125000I250001J0D01*
G01*
X152374999Y61125000D01*
G75*
G02*
X152625000Y60874999I0J-250001D01*
G01*
X152625000Y59275001D01*
G75*
G02*
X152374999Y59025000I-250001J0D01*
G01*
X150775001Y59025000D01*
G75*
G02*
X150525000Y59275001I0J250001D01*
G01*
G37*
G36*
G01*
X144825000Y59275001D02*
X144825000Y60874999D01*
G75*
G02*
X145075001Y61125000I250001J0D01*
G01*
X146674999Y61125000D01*
G75*
G02*
X146925000Y60874999I0J-250001D01*
G01*
X146925000Y59275001D01*
G75*
G02*
X146674999Y59025000I-250001J0D01*
G01*
X145075001Y59025000D01*
G75*
G02*
X144825000Y59275001I0J250001D01*
G01*
G37*
G36*
G01*
X139125000Y59275001D02*
X139125000Y60874999D01*
G75*
G02*
X139375001Y61125000I250001J0D01*
G01*
X140974999Y61125000D01*
G75*
G02*
X141225000Y60874999I0J-250001D01*
G01*
X141225000Y59275001D01*
G75*
G02*
X140974999Y59025000I-250001J0D01*
G01*
X139375001Y59025000D01*
G75*
G02*
X139125000Y59275001I0J250001D01*
G01*
G37*
G36*
G01*
X133425000Y59275001D02*
X133425000Y60874999D01*
G75*
G02*
X133675001Y61125000I250001J0D01*
G01*
X135274999Y61125000D01*
G75*
G02*
X135525000Y60874999I0J-250001D01*
G01*
X135525000Y59275001D01*
G75*
G02*
X135274999Y59025000I-250001J0D01*
G01*
X133675001Y59025000D01*
G75*
G02*
X133425000Y59275001I0J250001D01*
G01*
G37*
G36*
G01*
X127725000Y59275001D02*
X127725000Y60874999D01*
G75*
G02*
X127975001Y61125000I250001J0D01*
G01*
X129574999Y61125000D01*
G75*
G02*
X129825000Y60874999I0J-250001D01*
G01*
X129825000Y59275001D01*
G75*
G02*
X129574999Y59025000I-250001J0D01*
G01*
X127975001Y59025000D01*
G75*
G02*
X127725000Y59275001I0J250001D01*
G01*
G37*
G36*
G01*
X122025000Y59275001D02*
X122025000Y60874999D01*
G75*
G02*
X122275001Y61125000I250001J0D01*
G01*
X123874999Y61125000D01*
G75*
G02*
X124125000Y60874999I0J-250001D01*
G01*
X124125000Y59275001D01*
G75*
G02*
X123874999Y59025000I-250001J0D01*
G01*
X122275001Y59025000D01*
G75*
G02*
X122025000Y59275001I0J250001D01*
G01*
G37*
G36*
G01*
X116325000Y59275001D02*
X116325000Y60874999D01*
G75*
G02*
X116575001Y61125000I250001J0D01*
G01*
X118174999Y61125000D01*
G75*
G02*
X118425000Y60874999I0J-250001D01*
G01*
X118425000Y59275001D01*
G75*
G02*
X118174999Y59025000I-250001J0D01*
G01*
X116575001Y59025000D01*
G75*
G02*
X116325000Y59275001I0J250001D01*
G01*
G37*
G36*
G01*
X110625000Y59275001D02*
X110625000Y60874999D01*
G75*
G02*
X110875001Y61125000I250001J0D01*
G01*
X112474999Y61125000D01*
G75*
G02*
X112725000Y60874999I0J-250001D01*
G01*
X112725000Y59275001D01*
G75*
G02*
X112474999Y59025000I-250001J0D01*
G01*
X110875001Y59025000D01*
G75*
G02*
X110625000Y59275001I0J250001D01*
G01*
G37*
G36*
G01*
X104925000Y59275001D02*
X104925000Y60874999D01*
G75*
G02*
X105175001Y61125000I250001J0D01*
G01*
X106774999Y61125000D01*
G75*
G02*
X107025000Y60874999I0J-250001D01*
G01*
X107025000Y59275001D01*
G75*
G02*
X106774999Y59025000I-250001J0D01*
G01*
X105175001Y59025000D01*
G75*
G02*
X104925000Y59275001I0J250001D01*
G01*
G37*
G36*
G01*
X99225000Y59275001D02*
X99225000Y60874999D01*
G75*
G02*
X99475001Y61125000I250001J0D01*
G01*
X101074999Y61125000D01*
G75*
G02*
X101325000Y60874999I0J-250001D01*
G01*
X101325000Y59275001D01*
G75*
G02*
X101074999Y59025000I-250001J0D01*
G01*
X99475001Y59025000D01*
G75*
G02*
X99225000Y59275001I0J250001D01*
G01*
G37*
G36*
G01*
X93525000Y59275001D02*
X93525000Y60874999D01*
G75*
G02*
X93775001Y61125000I250001J0D01*
G01*
X95374999Y61125000D01*
G75*
G02*
X95625000Y60874999I0J-250001D01*
G01*
X95625000Y59275001D01*
G75*
G02*
X95374999Y59025000I-250001J0D01*
G01*
X93775001Y59025000D01*
G75*
G02*
X93525000Y59275001I0J250001D01*
G01*
G37*
G36*
G01*
X150525000Y63375001D02*
X150525000Y64974999D01*
G75*
G02*
X150775001Y65225000I250001J0D01*
G01*
X152374999Y65225000D01*
G75*
G02*
X152625000Y64974999I0J-250001D01*
G01*
X152625000Y63375001D01*
G75*
G02*
X152374999Y63125000I-250001J0D01*
G01*
X150775001Y63125000D01*
G75*
G02*
X150525000Y63375001I0J250001D01*
G01*
G37*
G36*
G01*
X144825000Y63375001D02*
X144825000Y64974999D01*
G75*
G02*
X145075001Y65225000I250001J0D01*
G01*
X146674999Y65225000D01*
G75*
G02*
X146925000Y64974999I0J-250001D01*
G01*
X146925000Y63375001D01*
G75*
G02*
X146674999Y63125000I-250001J0D01*
G01*
X145075001Y63125000D01*
G75*
G02*
X144825000Y63375001I0J250001D01*
G01*
G37*
G36*
G01*
X139125000Y63375001D02*
X139125000Y64974999D01*
G75*
G02*
X139375001Y65225000I250001J0D01*
G01*
X140974999Y65225000D01*
G75*
G02*
X141225000Y64974999I0J-250001D01*
G01*
X141225000Y63375001D01*
G75*
G02*
X140974999Y63125000I-250001J0D01*
G01*
X139375001Y63125000D01*
G75*
G02*
X139125000Y63375001I0J250001D01*
G01*
G37*
G36*
G01*
X133425000Y63375001D02*
X133425000Y64974999D01*
G75*
G02*
X133675001Y65225000I250001J0D01*
G01*
X135274999Y65225000D01*
G75*
G02*
X135525000Y64974999I0J-250001D01*
G01*
X135525000Y63375001D01*
G75*
G02*
X135274999Y63125000I-250001J0D01*
G01*
X133675001Y63125000D01*
G75*
G02*
X133425000Y63375001I0J250001D01*
G01*
G37*
G36*
G01*
X127725000Y63375001D02*
X127725000Y64974999D01*
G75*
G02*
X127975001Y65225000I250001J0D01*
G01*
X129574999Y65225000D01*
G75*
G02*
X129825000Y64974999I0J-250001D01*
G01*
X129825000Y63375001D01*
G75*
G02*
X129574999Y63125000I-250001J0D01*
G01*
X127975001Y63125000D01*
G75*
G02*
X127725000Y63375001I0J250001D01*
G01*
G37*
G36*
G01*
X122025000Y63375001D02*
X122025000Y64974999D01*
G75*
G02*
X122275001Y65225000I250001J0D01*
G01*
X123874999Y65225000D01*
G75*
G02*
X124125000Y64974999I0J-250001D01*
G01*
X124125000Y63375001D01*
G75*
G02*
X123874999Y63125000I-250001J0D01*
G01*
X122275001Y63125000D01*
G75*
G02*
X122025000Y63375001I0J250001D01*
G01*
G37*
G36*
G01*
X116325000Y63375001D02*
X116325000Y64974999D01*
G75*
G02*
X116575001Y65225000I250001J0D01*
G01*
X118174999Y65225000D01*
G75*
G02*
X118425000Y64974999I0J-250001D01*
G01*
X118425000Y63375001D01*
G75*
G02*
X118174999Y63125000I-250001J0D01*
G01*
X116575001Y63125000D01*
G75*
G02*
X116325000Y63375001I0J250001D01*
G01*
G37*
G36*
G01*
X110625000Y63375001D02*
X110625000Y64974999D01*
G75*
G02*
X110875001Y65225000I250001J0D01*
G01*
X112474999Y65225000D01*
G75*
G02*
X112725000Y64974999I0J-250001D01*
G01*
X112725000Y63375001D01*
G75*
G02*
X112474999Y63125000I-250001J0D01*
G01*
X110875001Y63125000D01*
G75*
G02*
X110625000Y63375001I0J250001D01*
G01*
G37*
G36*
G01*
X104925000Y63375001D02*
X104925000Y64974999D01*
G75*
G02*
X105175001Y65225000I250001J0D01*
G01*
X106774999Y65225000D01*
G75*
G02*
X107025000Y64974999I0J-250001D01*
G01*
X107025000Y63375001D01*
G75*
G02*
X106774999Y63125000I-250001J0D01*
G01*
X105175001Y63125000D01*
G75*
G02*
X104925000Y63375001I0J250001D01*
G01*
G37*
G36*
G01*
X99225000Y63375001D02*
X99225000Y64974999D01*
G75*
G02*
X99475001Y65225000I250001J0D01*
G01*
X101074999Y65225000D01*
G75*
G02*
X101325000Y64974999I0J-250001D01*
G01*
X101325000Y63375001D01*
G75*
G02*
X101074999Y63125000I-250001J0D01*
G01*
X99475001Y63125000D01*
G75*
G02*
X99225000Y63375001I0J250001D01*
G01*
G37*
G36*
G01*
X93525000Y63375001D02*
X93525000Y64974999D01*
G75*
G02*
X93775001Y65225000I250001J0D01*
G01*
X95374999Y65225000D01*
G75*
G02*
X95625000Y64974999I0J-250001D01*
G01*
X95625000Y63375001D01*
G75*
G02*
X95374999Y63125000I-250001J0D01*
G01*
X93775001Y63125000D01*
G75*
G02*
X93525000Y63375001I0J250001D01*
G01*
G37*
G04 #@! TD*
G04 #@! TO.C,R24*
G36*
G01*
X53362600Y24961056D02*
X52811056Y25512600D01*
G75*
G02*
X52811056Y25611594I49497J49497D01*
G01*
X53207036Y26007574D01*
G75*
G02*
X53306030Y26007574I49497J-49497D01*
G01*
X53857574Y25456030D01*
G75*
G02*
X53857574Y25357036I-49497J-49497D01*
G01*
X53461594Y24961056D01*
G75*
G02*
X53362600Y24961056I-49497J49497D01*
G01*
G37*
G36*
G01*
X54493970Y26092426D02*
X53942426Y26643970D01*
G75*
G02*
X53942426Y26742964I49497J49497D01*
G01*
X54338406Y27138944D01*
G75*
G02*
X54437400Y27138944I49497J-49497D01*
G01*
X54988944Y26587400D01*
G75*
G02*
X54988944Y26488406I-49497J-49497D01*
G01*
X54592964Y26092426D01*
G75*
G02*
X54493970Y26092426I-49497J49497D01*
G01*
G37*
G04 #@! TD*
D15*
G04 #@! TO.C,M4*
X124375000Y48750000D03*
X124375000Y49950000D03*
X124375000Y47550000D03*
X124375000Y46350000D03*
X138800000Y52810000D03*
X138800000Y53810000D03*
G04 #@! TD*
D21*
G04 #@! TO.C,P3*
X134450000Y41025000D03*
G04 #@! TD*
D22*
G04 #@! TO.C,J9*
X121360000Y6905000D03*
X127140000Y6905000D03*
D23*
X120900000Y7970000D03*
X121700000Y7970000D03*
X123000000Y7970000D03*
X124000000Y7970000D03*
X124500000Y7970000D03*
X125500000Y7970000D03*
X126800000Y7970000D03*
X127600000Y7970000D03*
X127300000Y7970000D03*
X126500000Y7970000D03*
X126000000Y7970000D03*
X125000000Y7970000D03*
X123500000Y7970000D03*
X122500000Y7970000D03*
X122000000Y7970000D03*
X121200000Y7970000D03*
D24*
X119930000Y7405000D03*
D25*
X119930000Y3225000D03*
D24*
X128570000Y7405000D03*
D25*
X128570000Y3225000D03*
G04 #@! TD*
D14*
G04 #@! TO.C,H1*
X145950000Y19500000D03*
G04 #@! TD*
G04 #@! TO.C,Q3*
G36*
G01*
X24220382Y42664505D02*
X23614164Y42314505D01*
G75*
G02*
X23272658Y42406011I-125000J216506D01*
G01*
X22422658Y43878255D01*
G75*
G02*
X22514164Y44219761I216506J125000D01*
G01*
X23120382Y44569761D01*
G75*
G02*
X23461888Y44478255I125000J-216506D01*
G01*
X24311888Y43006011D01*
G75*
G02*
X24220382Y42664505I-216506J-125000D01*
G01*
G37*
G36*
G01*
X26086781Y48591813D02*
X21496842Y45941810D01*
G75*
G02*
X21155339Y46033315I-124999J216504D01*
G01*
X18205336Y51142870D01*
G75*
G02*
X18296842Y51484373I216504J124999D01*
G01*
X22886781Y54134376D01*
G75*
G02*
X23228283Y54042870I124998J-216504D01*
G01*
X26178286Y48933315D01*
G75*
G02*
X26086781Y48591813I-216504J-124998D01*
G01*
G37*
G36*
G01*
X28169458Y44944505D02*
X27563240Y44594505D01*
G75*
G02*
X27221734Y44686011I-125000J216506D01*
G01*
X26371734Y46158255D01*
G75*
G02*
X26463240Y46499761I216506J125000D01*
G01*
X27069458Y46849761D01*
G75*
G02*
X27410964Y46758255I125000J-216506D01*
G01*
X28260964Y45286011D01*
G75*
G02*
X28169458Y44944505I-216506J-125000D01*
G01*
G37*
G04 #@! TD*
G04 #@! TO.C,D7*
G36*
G01*
X27975000Y69425000D02*
X27975000Y69125000D01*
G75*
G02*
X27825000Y68975000I-150000J0D01*
G01*
X26650000Y68975000D01*
G75*
G02*
X26500000Y69125000I0J150000D01*
G01*
X26500000Y69425000D01*
G75*
G02*
X26650000Y69575000I150000J0D01*
G01*
X27825000Y69575000D01*
G75*
G02*
X27975000Y69425000I0J-150000D01*
G01*
G37*
G36*
G01*
X26100000Y70375000D02*
X26100000Y70075000D01*
G75*
G02*
X25950000Y69925000I-150000J0D01*
G01*
X24775000Y69925000D01*
G75*
G02*
X24625000Y70075000I0J150000D01*
G01*
X24625000Y70375000D01*
G75*
G02*
X24775000Y70525000I150000J0D01*
G01*
X25950000Y70525000D01*
G75*
G02*
X26100000Y70375000I0J-150000D01*
G01*
G37*
G36*
G01*
X27975000Y71325000D02*
X27975000Y71025000D01*
G75*
G02*
X27825000Y70875000I-150000J0D01*
G01*
X26650000Y70875000D01*
G75*
G02*
X26500000Y71025000I0J150000D01*
G01*
X26500000Y71325000D01*
G75*
G02*
X26650000Y71475000I150000J0D01*
G01*
X27825000Y71475000D01*
G75*
G02*
X27975000Y71325000I0J-150000D01*
G01*
G37*
G04 #@! TD*
G04 #@! TO.C,R5*
G36*
G01*
X69210000Y58625000D02*
X69990000Y58625000D01*
G75*
G02*
X70060000Y58555000I0J-70000D01*
G01*
X70060000Y57995000D01*
G75*
G02*
X69990000Y57925000I-70000J0D01*
G01*
X69210000Y57925000D01*
G75*
G02*
X69140000Y57995000I0J70000D01*
G01*
X69140000Y58555000D01*
G75*
G02*
X69210000Y58625000I70000J0D01*
G01*
G37*
G36*
G01*
X69210000Y57025000D02*
X69990000Y57025000D01*
G75*
G02*
X70060000Y56955000I0J-70000D01*
G01*
X70060000Y56395000D01*
G75*
G02*
X69990000Y56325000I-70000J0D01*
G01*
X69210000Y56325000D01*
G75*
G02*
X69140000Y56395000I0J70000D01*
G01*
X69140000Y56955000D01*
G75*
G02*
X69210000Y57025000I70000J0D01*
G01*
G37*
G04 #@! TD*
G04 #@! TO.C,Q1*
G36*
G01*
X32928571Y44476412D02*
X32322353Y44126412D01*
G75*
G02*
X31980847Y44217918I-125000J216506D01*
G01*
X31130847Y45690162D01*
G75*
G02*
X31222353Y46031668I216506J125000D01*
G01*
X31828571Y46381668D01*
G75*
G02*
X32170077Y46290162I125000J-216506D01*
G01*
X33020077Y44817918D01*
G75*
G02*
X32928571Y44476412I-216506J-125000D01*
G01*
G37*
G36*
G01*
X34794970Y50403720D02*
X30205031Y47753717D01*
G75*
G02*
X29863528Y47845222I-124999J216504D01*
G01*
X26913525Y52954777D01*
G75*
G02*
X27005031Y53296280I216504J124999D01*
G01*
X31594970Y55946283D01*
G75*
G02*
X31936472Y55854777I124998J-216504D01*
G01*
X34886475Y50745222D01*
G75*
G02*
X34794970Y50403720I-216504J-124998D01*
G01*
G37*
G36*
G01*
X36877647Y46756412D02*
X36271429Y46406412D01*
G75*
G02*
X35929923Y46497918I-125000J216506D01*
G01*
X35079923Y47970162D01*
G75*
G02*
X35171429Y48311668I216506J125000D01*
G01*
X35777647Y48661668D01*
G75*
G02*
X36119153Y48570162I125000J-216506D01*
G01*
X36969153Y47097918D01*
G75*
G02*
X36877647Y46756412I-216506J-125000D01*
G01*
G37*
G04 #@! TD*
G04 #@! TO.C,R25*
G36*
G01*
X48890000Y68575000D02*
X48110000Y68575000D01*
G75*
G02*
X48040000Y68645000I0J70000D01*
G01*
X48040000Y69205000D01*
G75*
G02*
X48110000Y69275000I70000J0D01*
G01*
X48890000Y69275000D01*
G75*
G02*
X48960000Y69205000I0J-70000D01*
G01*
X48960000Y68645000D01*
G75*
G02*
X48890000Y68575000I-70000J0D01*
G01*
G37*
G36*
G01*
X48890000Y70175000D02*
X48110000Y70175000D01*
G75*
G02*
X48040000Y70245000I0J70000D01*
G01*
X48040000Y70805000D01*
G75*
G02*
X48110000Y70875000I70000J0D01*
G01*
X48890000Y70875000D01*
G75*
G02*
X48960000Y70805000I0J-70000D01*
G01*
X48960000Y70245000D01*
G75*
G02*
X48890000Y70175000I-70000J0D01*
G01*
G37*
G04 #@! TD*
G04 #@! TO.C,R6*
G36*
G01*
X158740000Y27575000D02*
X157960000Y27575000D01*
G75*
G02*
X157890000Y27645000I0J70000D01*
G01*
X157890000Y28205000D01*
G75*
G02*
X157960000Y28275000I70000J0D01*
G01*
X158740000Y28275000D01*
G75*
G02*
X158810000Y28205000I0J-70000D01*
G01*
X158810000Y27645000D01*
G75*
G02*
X158740000Y27575000I-70000J0D01*
G01*
G37*
G36*
G01*
X158740000Y29175000D02*
X157960000Y29175000D01*
G75*
G02*
X157890000Y29245000I0J70000D01*
G01*
X157890000Y29805000D01*
G75*
G02*
X157960000Y29875000I70000J0D01*
G01*
X158740000Y29875000D01*
G75*
G02*
X158810000Y29805000I0J-70000D01*
G01*
X158810000Y29245000D01*
G75*
G02*
X158740000Y29175000I-70000J0D01*
G01*
G37*
G04 #@! TD*
G04 #@! TO.C,Q4*
G36*
G01*
X15928571Y40601412D02*
X15322353Y40251412D01*
G75*
G02*
X14980847Y40342918I-125000J216506D01*
G01*
X14130847Y41815162D01*
G75*
G02*
X14222353Y42156668I216506J125000D01*
G01*
X14828571Y42506668D01*
G75*
G02*
X15170077Y42415162I125000J-216506D01*
G01*
X16020077Y40942918D01*
G75*
G02*
X15928571Y40601412I-216506J-125000D01*
G01*
G37*
G36*
G01*
X17794970Y46528720D02*
X13205031Y43878717D01*
G75*
G02*
X12863528Y43970222I-124999J216504D01*
G01*
X9913525Y49079777D01*
G75*
G02*
X10005031Y49421280I216504J124999D01*
G01*
X14594970Y52071283D01*
G75*
G02*
X14936472Y51979777I124998J-216504D01*
G01*
X17886475Y46870222D01*
G75*
G02*
X17794970Y46528720I-216504J-124998D01*
G01*
G37*
G36*
G01*
X19877647Y42881412D02*
X19271429Y42531412D01*
G75*
G02*
X18929923Y42622918I-125000J216506D01*
G01*
X18079923Y44095162D01*
G75*
G02*
X18171429Y44436668I216506J125000D01*
G01*
X18777647Y44786668D01*
G75*
G02*
X19119153Y44695162I125000J-216506D01*
G01*
X19969153Y43222918D01*
G75*
G02*
X19877647Y42881412I-216506J-125000D01*
G01*
G37*
G04 #@! TD*
G04 #@! TO.C,Q12*
G36*
G01*
X33712500Y69375000D02*
X33712500Y69075000D01*
G75*
G02*
X33562500Y68925000I-150000J0D01*
G01*
X32387500Y68925000D01*
G75*
G02*
X32237500Y69075000I0J150000D01*
G01*
X32237500Y69375000D01*
G75*
G02*
X32387500Y69525000I150000J0D01*
G01*
X33562500Y69525000D01*
G75*
G02*
X33712500Y69375000I0J-150000D01*
G01*
G37*
G36*
G01*
X31837500Y70325000D02*
X31837500Y70025000D01*
G75*
G02*
X31687500Y69875000I-150000J0D01*
G01*
X30512500Y69875000D01*
G75*
G02*
X30362500Y70025000I0J150000D01*
G01*
X30362500Y70325000D01*
G75*
G02*
X30512500Y70475000I150000J0D01*
G01*
X31687500Y70475000D01*
G75*
G02*
X31837500Y70325000I0J-150000D01*
G01*
G37*
G36*
G01*
X33712500Y71275000D02*
X33712500Y70975000D01*
G75*
G02*
X33562500Y70825000I-150000J0D01*
G01*
X32387500Y70825000D01*
G75*
G02*
X32237500Y70975000I0J150000D01*
G01*
X32237500Y71275000D01*
G75*
G02*
X32387500Y71425000I150000J0D01*
G01*
X33562500Y71425000D01*
G75*
G02*
X33712500Y71275000I0J-150000D01*
G01*
G37*
G04 #@! TD*
D21*
G04 #@! TO.C,P4*
X138230000Y41025000D03*
G04 #@! TD*
G04 #@! TO.C,D6*
G36*
G01*
X42775000Y68975000D02*
X42775000Y68675000D01*
G75*
G02*
X42625000Y68525000I-150000J0D01*
G01*
X41450000Y68525000D01*
G75*
G02*
X41300000Y68675000I0J150000D01*
G01*
X41300000Y68975000D01*
G75*
G02*
X41450000Y69125000I150000J0D01*
G01*
X42625000Y69125000D01*
G75*
G02*
X42775000Y68975000I0J-150000D01*
G01*
G37*
G36*
G01*
X40900000Y69925000D02*
X40900000Y69625000D01*
G75*
G02*
X40750000Y69475000I-150000J0D01*
G01*
X39575000Y69475000D01*
G75*
G02*
X39425000Y69625000I0J150000D01*
G01*
X39425000Y69925000D01*
G75*
G02*
X39575000Y70075000I150000J0D01*
G01*
X40750000Y70075000D01*
G75*
G02*
X40900000Y69925000I0J-150000D01*
G01*
G37*
G36*
G01*
X42775000Y70875000D02*
X42775000Y70575000D01*
G75*
G02*
X42625000Y70425000I-150000J0D01*
G01*
X41450000Y70425000D01*
G75*
G02*
X41300000Y70575000I0J150000D01*
G01*
X41300000Y70875000D01*
G75*
G02*
X41450000Y71025000I150000J0D01*
G01*
X42625000Y71025000D01*
G75*
G02*
X42775000Y70875000I0J-150000D01*
G01*
G37*
G04 #@! TD*
D12*
G04 #@! TO.C,Q15*
X63200000Y29900000D03*
X63200000Y27600000D03*
X63200000Y25300000D03*
D13*
X69500000Y27600000D03*
G04 #@! TD*
G04 #@! TO.C,R21*
G36*
G01*
X52312750Y55074071D02*
X51637250Y54684071D01*
G75*
G02*
X51541628Y54709693I-35000J60622D01*
G01*
X51261628Y55194667D01*
G75*
G02*
X51287250Y55290289I60622J35000D01*
G01*
X51962750Y55680289D01*
G75*
G02*
X52058372Y55654667I35000J-60622D01*
G01*
X52338372Y55169693D01*
G75*
G02*
X52312750Y55074071I-60622J-35000D01*
G01*
G37*
G36*
G01*
X51512750Y56459711D02*
X50837250Y56069711D01*
G75*
G02*
X50741628Y56095333I-35000J60622D01*
G01*
X50461628Y56580307D01*
G75*
G02*
X50487250Y56675929I60622J35000D01*
G01*
X51162750Y57065929D01*
G75*
G02*
X51258372Y57040307I35000J-60622D01*
G01*
X51538372Y56555333D01*
G75*
G02*
X51512750Y56459711I-60622J-35000D01*
G01*
G37*
G04 #@! TD*
G04 #@! TO.C,Q11*
G36*
G01*
X47425000Y68925000D02*
X47425000Y68625000D01*
G75*
G02*
X47275000Y68475000I-150000J0D01*
G01*
X46100000Y68475000D01*
G75*
G02*
X45950000Y68625000I0J150000D01*
G01*
X45950000Y68925000D01*
G75*
G02*
X46100000Y69075000I150000J0D01*
G01*
X47275000Y69075000D01*
G75*
G02*
X47425000Y68925000I0J-150000D01*
G01*
G37*
G36*
G01*
X45550000Y69875000D02*
X45550000Y69575000D01*
G75*
G02*
X45400000Y69425000I-150000J0D01*
G01*
X44225000Y69425000D01*
G75*
G02*
X44075000Y69575000I0J150000D01*
G01*
X44075000Y69875000D01*
G75*
G02*
X44225000Y70025000I150000J0D01*
G01*
X45400000Y70025000D01*
G75*
G02*
X45550000Y69875000I0J-150000D01*
G01*
G37*
G36*
G01*
X47425000Y70825000D02*
X47425000Y70525000D01*
G75*
G02*
X47275000Y70375000I-150000J0D01*
G01*
X46100000Y70375000D01*
G75*
G02*
X45950000Y70525000I0J150000D01*
G01*
X45950000Y70825000D01*
G75*
G02*
X46100000Y70975000I150000J0D01*
G01*
X47275000Y70975000D01*
G75*
G02*
X47425000Y70825000I0J-150000D01*
G01*
G37*
G04 #@! TD*
D11*
G04 #@! TO.C,F2*
X113400000Y44125000D03*
G36*
G01*
X114744990Y43225000D02*
X114054990Y43225000D01*
G75*
G02*
X113824990Y43455000I0J230000D01*
G01*
X113824990Y44795000D01*
G75*
G02*
X114054990Y45025000I230000J0D01*
G01*
X114744990Y45025000D01*
G75*
G02*
X114974990Y44795000I0J-230000D01*
G01*
X114974990Y43455000D01*
G75*
G02*
X114744990Y43225000I-230000J0D01*
G01*
G37*
G36*
G01*
X117645010Y43225000D02*
X116955010Y43225000D01*
G75*
G02*
X116725010Y43455000I0J230000D01*
G01*
X116725010Y44795000D01*
G75*
G02*
X116955010Y45025000I230000J0D01*
G01*
X117645010Y45025000D01*
G75*
G02*
X117875010Y44795000I0J-230000D01*
G01*
X117875010Y43455000D01*
G75*
G02*
X117645010Y43225000I-230000J0D01*
G01*
G37*
X118300000Y44125000D03*
G04 #@! TD*
D26*
G04 #@! TO.C,U2*
X140762500Y44550000D03*
X140762500Y43050000D03*
X140762500Y41550000D03*
X140762500Y40050000D03*
X140762500Y38550000D03*
X140762500Y37050000D03*
X140762500Y35550000D03*
X140762500Y34050000D03*
X140762500Y32550000D03*
X140762500Y31050000D03*
X140762500Y29550000D03*
X140762500Y28050000D03*
X140762500Y26550000D03*
X153462500Y26550000D03*
X153462500Y28050000D03*
X153462500Y29550000D03*
X153462500Y31050000D03*
X153462500Y32550000D03*
X153462500Y34050000D03*
X153462500Y35550000D03*
X153462500Y37050000D03*
X153462500Y38550000D03*
X153462500Y40050000D03*
X153462500Y41550000D03*
X153462500Y43050000D03*
X153462500Y44550000D03*
G04 #@! TD*
G04 #@! TO.C,Q2*
G36*
G01*
X7220382Y39764505D02*
X6614164Y39414505D01*
G75*
G02*
X6272658Y39506011I-125000J216506D01*
G01*
X5422658Y40978255D01*
G75*
G02*
X5514164Y41319761I216506J125000D01*
G01*
X6120382Y41669761D01*
G75*
G02*
X6461888Y41578255I125000J-216506D01*
G01*
X7311888Y40106011D01*
G75*
G02*
X7220382Y39764505I-216506J-125000D01*
G01*
G37*
G36*
G01*
X9086781Y45691813D02*
X4496842Y43041810D01*
G75*
G02*
X4155339Y43133315I-124999J216504D01*
G01*
X1205336Y48242870D01*
G75*
G02*
X1296842Y48584373I216504J124999D01*
G01*
X5886781Y51234376D01*
G75*
G02*
X6228283Y51142870I124998J-216504D01*
G01*
X9178286Y46033315D01*
G75*
G02*
X9086781Y45691813I-216504J-124998D01*
G01*
G37*
G36*
G01*
X11169458Y42044505D02*
X10563240Y41694505D01*
G75*
G02*
X10221734Y41786011I-125000J216506D01*
G01*
X9371734Y43258255D01*
G75*
G02*
X9463240Y43599761I216506J125000D01*
G01*
X10069458Y43949761D01*
G75*
G02*
X10410964Y43858255I125000J-216506D01*
G01*
X11260964Y42386011D01*
G75*
G02*
X11169458Y42044505I-216506J-125000D01*
G01*
G37*
G04 #@! TD*
D11*
G04 #@! TO.C,F1*
X125467588Y42657412D03*
G36*
G01*
X125782243Y41069964D02*
X125294340Y41557867D01*
G75*
G02*
X125294340Y41883137I162635J162635D01*
G01*
X126241863Y42830660D01*
G75*
G02*
X126567133Y42830660I162635J-162635D01*
G01*
X127055036Y42342757D01*
G75*
G02*
X127055036Y42017487I-162635J-162635D01*
G01*
X126107513Y41069964D01*
G75*
G02*
X125782243Y41069964I-162635J162635D01*
G01*
G37*
G36*
G01*
X127832867Y39019340D02*
X127344964Y39507243D01*
G75*
G02*
X127344964Y39832513I162635J162635D01*
G01*
X128292487Y40780036D01*
G75*
G02*
X128617757Y40780036I162635J-162635D01*
G01*
X129105660Y40292133D01*
G75*
G02*
X129105660Y39966863I-162635J-162635D01*
G01*
X128158137Y39019340D01*
G75*
G02*
X127832867Y39019340I-162635J162635D01*
G01*
G37*
X128932412Y39192588D03*
G04 #@! TD*
G04 #@! TO.C,R3*
G36*
G01*
X114090000Y54025000D02*
X113310000Y54025000D01*
G75*
G02*
X113240000Y54095000I0J70000D01*
G01*
X113240000Y54655000D01*
G75*
G02*
X113310000Y54725000I70000J0D01*
G01*
X114090000Y54725000D01*
G75*
G02*
X114160000Y54655000I0J-70000D01*
G01*
X114160000Y54095000D01*
G75*
G02*
X114090000Y54025000I-70000J0D01*
G01*
G37*
G36*
G01*
X114090000Y55625000D02*
X113310000Y55625000D01*
G75*
G02*
X113240000Y55695000I0J70000D01*
G01*
X113240000Y56255000D01*
G75*
G02*
X113310000Y56325000I70000J0D01*
G01*
X114090000Y56325000D01*
G75*
G02*
X114160000Y56255000I0J-70000D01*
G01*
X114160000Y55695000D01*
G75*
G02*
X114090000Y55625000I-70000J0D01*
G01*
G37*
G04 #@! TD*
G04 #@! TO.C,R22*
G36*
G01*
X52912750Y46599071D02*
X52237250Y46209071D01*
G75*
G02*
X52141628Y46234693I-35000J60622D01*
G01*
X51861628Y46719667D01*
G75*
G02*
X51887250Y46815289I60622J35000D01*
G01*
X52562750Y47205289D01*
G75*
G02*
X52658372Y47179667I35000J-60622D01*
G01*
X52938372Y46694693D01*
G75*
G02*
X52912750Y46599071I-60622J-35000D01*
G01*
G37*
G36*
G01*
X52112750Y47984711D02*
X51437250Y47594711D01*
G75*
G02*
X51341628Y47620333I-35000J60622D01*
G01*
X51061628Y48105307D01*
G75*
G02*
X51087250Y48200929I60622J35000D01*
G01*
X51762750Y48590929D01*
G75*
G02*
X51858372Y48565307I35000J-60622D01*
G01*
X52138372Y48080333D01*
G75*
G02*
X52112750Y47984711I-60622J-35000D01*
G01*
G37*
G04 #@! TD*
G04 #@! TO.C,R7*
G36*
G01*
X118850000Y9260000D02*
X118850000Y10040000D01*
G75*
G02*
X118920000Y10110000I70000J0D01*
G01*
X119480000Y10110000D01*
G75*
G02*
X119550000Y10040000I0J-70000D01*
G01*
X119550000Y9260000D01*
G75*
G02*
X119480000Y9190000I-70000J0D01*
G01*
X118920000Y9190000D01*
G75*
G02*
X118850000Y9260000I0J70000D01*
G01*
G37*
G36*
G01*
X120450000Y9260000D02*
X120450000Y10040000D01*
G75*
G02*
X120520000Y10110000I70000J0D01*
G01*
X121080000Y10110000D01*
G75*
G02*
X121150000Y10040000I0J-70000D01*
G01*
X121150000Y9260000D01*
G75*
G02*
X121080000Y9190000I-70000J0D01*
G01*
X120520000Y9190000D01*
G75*
G02*
X120450000Y9260000I0J70000D01*
G01*
G37*
G04 #@! TD*
M02*
