G04 #@! TF.GenerationSoftware,KiCad,Pcbnew,7.0.9-7.0.9~ubuntu22.04.1*
G04 #@! TF.CreationDate,2023-12-28T04:49:10+00:00*
G04 #@! TF.ProjectId,uaeficopiedtovfr,75616566-6963-46f7-9069-6564746f7666,rev?*
G04 #@! TF.SameCoordinates,Original*
G04 #@! TF.FileFunction,Legend,Top*
G04 #@! TF.FilePolarity,Positive*
%FSLAX46Y46*%
G04 Gerber Fmt 4.6, Leading zero omitted, Abs format (unit mm)*
G04 Created by KiCad (PCBNEW 7.0.9-7.0.9~ubuntu22.04.1) date 2023-12-28 04:49:10*
%MOMM*%
%LPD*%
G01*
G04 APERTURE LIST*
%ADD10C,0.300000*%
%ADD11C,0.127000*%
%ADD12C,0.170000*%
%ADD13C,0.150000*%
%ADD14C,0.254000*%
%ADD15C,0.099060*%
%ADD16C,0.120000*%
%ADD17C,0.203200*%
%ADD18C,0.200000*%
%ADD19C,0.100000*%
%ADD20C,0.002540*%
%ADD21C,0.631031*%
G04 APERTURE END LIST*
D10*
X133186653Y37799172D02*
X132686653Y38513458D01*
X132329510Y37799172D02*
X132329510Y39299172D01*
X132329510Y39299172D02*
X132900939Y39299172D01*
X132900939Y39299172D02*
X133043796Y39227743D01*
X133043796Y39227743D02*
X133115225Y39156315D01*
X133115225Y39156315D02*
X133186653Y39013458D01*
X133186653Y39013458D02*
X133186653Y38799172D01*
X133186653Y38799172D02*
X133115225Y38656315D01*
X133115225Y38656315D02*
X133043796Y38584886D01*
X133043796Y38584886D02*
X132900939Y38513458D01*
X132900939Y38513458D02*
X132329510Y38513458D01*
X133686653Y39299172D02*
X134686653Y37799172D01*
X134686653Y39299172D02*
X133686653Y37799172D01*
X137329510Y39299172D02*
X138186653Y39299172D01*
X137758081Y37799172D02*
X137758081Y39299172D01*
X138543795Y39299172D02*
X139543795Y37799172D01*
X139543795Y39299172D02*
X138543795Y37799172D01*
D11*
X119870911Y15023001D02*
X119508054Y14769001D01*
X119870911Y14587572D02*
X119108911Y14587572D01*
X119108911Y14587572D02*
X119108911Y14877858D01*
X119108911Y14877858D02*
X119145197Y14950429D01*
X119145197Y14950429D02*
X119181483Y14986715D01*
X119181483Y14986715D02*
X119254054Y15023001D01*
X119254054Y15023001D02*
X119362911Y15023001D01*
X119362911Y15023001D02*
X119435483Y14986715D01*
X119435483Y14986715D02*
X119471768Y14950429D01*
X119471768Y14950429D02*
X119508054Y14877858D01*
X119508054Y14877858D02*
X119508054Y14587572D01*
X119362911Y15676143D02*
X119870911Y15676143D01*
X119072626Y15494715D02*
X119616911Y15313286D01*
X119616911Y15313286D02*
X119616911Y15785001D01*
D12*
X143538014Y55509908D02*
X143928490Y55783241D01*
X143538014Y55978479D02*
X144358014Y55978479D01*
X144358014Y55978479D02*
X144358014Y55666098D01*
X144358014Y55666098D02*
X144318966Y55588003D01*
X144318966Y55588003D02*
X144279919Y55548956D01*
X144279919Y55548956D02*
X144201823Y55509908D01*
X144201823Y55509908D02*
X144084681Y55509908D01*
X144084681Y55509908D02*
X144006585Y55548956D01*
X144006585Y55548956D02*
X143967538Y55588003D01*
X143967538Y55588003D02*
X143928490Y55666098D01*
X143928490Y55666098D02*
X143928490Y55978479D01*
X143538014Y54728956D02*
X143538014Y55197527D01*
X143538014Y54963241D02*
X144358014Y54963241D01*
X144358014Y54963241D02*
X144240871Y55041337D01*
X144240871Y55041337D02*
X144162776Y55119432D01*
X144162776Y55119432D02*
X144123728Y55197527D01*
D13*
X63703571Y29699943D02*
X63608333Y29747562D01*
X63608333Y29747562D02*
X63513095Y29842800D01*
X63513095Y29842800D02*
X63370238Y29985658D01*
X63370238Y29985658D02*
X63275000Y30033277D01*
X63275000Y30033277D02*
X63179762Y30033277D01*
X63227381Y29795181D02*
X63132143Y29842800D01*
X63132143Y29842800D02*
X63036905Y29938039D01*
X63036905Y29938039D02*
X62989286Y30128515D01*
X62989286Y30128515D02*
X62989286Y30461848D01*
X62989286Y30461848D02*
X63036905Y30652324D01*
X63036905Y30652324D02*
X63132143Y30747562D01*
X63132143Y30747562D02*
X63227381Y30795181D01*
X63227381Y30795181D02*
X63417857Y30795181D01*
X63417857Y30795181D02*
X63513095Y30747562D01*
X63513095Y30747562D02*
X63608333Y30652324D01*
X63608333Y30652324D02*
X63655952Y30461848D01*
X63655952Y30461848D02*
X63655952Y30128515D01*
X63655952Y30128515D02*
X63608333Y29938039D01*
X63608333Y29938039D02*
X63513095Y29842800D01*
X63513095Y29842800D02*
X63417857Y29795181D01*
X63417857Y29795181D02*
X63227381Y29795181D01*
X64608333Y29795181D02*
X64036905Y29795181D01*
X64322619Y29795181D02*
X64322619Y30795181D01*
X64322619Y30795181D02*
X64227381Y30652324D01*
X64227381Y30652324D02*
X64132143Y30557086D01*
X64132143Y30557086D02*
X64036905Y30509467D01*
X65465476Y30461848D02*
X65465476Y29795181D01*
X65227381Y30842800D02*
X64989286Y30128515D01*
X64989286Y30128515D02*
X65608333Y30128515D01*
D14*
X85249318Y-7468332D02*
X86156461Y-7468332D01*
X86156461Y-7468332D02*
X86337889Y-7528809D01*
X86337889Y-7528809D02*
X86458842Y-7649761D01*
X86458842Y-7649761D02*
X86519318Y-7831190D01*
X86519318Y-7831190D02*
X86519318Y-7952142D01*
X85672651Y-6319285D02*
X86519318Y-6319285D01*
X85188842Y-6621666D02*
X86095984Y-6924047D01*
X86095984Y-6924047D02*
X86095984Y-6137856D01*
D13*
X52648131Y44807451D02*
X52641751Y44913739D01*
X52641751Y44913739D02*
X52676611Y45043836D01*
X52676611Y45043836D02*
X52728900Y45238983D01*
X52728900Y45238983D02*
X52722520Y45345271D01*
X52722520Y45345271D02*
X52674901Y45427750D01*
X52492514Y45267463D02*
X52486135Y45373751D01*
X52486135Y45373751D02*
X52520994Y45503848D01*
X52520994Y45503848D02*
X52662142Y45640326D01*
X52662142Y45640326D02*
X52950817Y45806992D01*
X52950817Y45806992D02*
X53139584Y45860991D01*
X53139584Y45860991D02*
X53269681Y45826132D01*
X53269681Y45826132D02*
X53358540Y45767463D01*
X53358540Y45767463D02*
X53453778Y45602505D01*
X53453778Y45602505D02*
X53460158Y45496217D01*
X53460158Y45496217D02*
X53425298Y45366120D01*
X53425298Y45366120D02*
X53284150Y45229642D01*
X53284150Y45229642D02*
X52995475Y45062976D01*
X52995475Y45062976D02*
X52806708Y45008977D01*
X52806708Y45008977D02*
X52676611Y45043836D01*
X52676611Y45043836D02*
X52587752Y45102505D01*
X52587752Y45102505D02*
X52492514Y45267463D01*
X53487386Y44687152D02*
X53481006Y44793440D01*
X53481006Y44793440D02*
X53498436Y44858489D01*
X53498436Y44858489D02*
X53557105Y44947347D01*
X53557105Y44947347D02*
X53598344Y44971156D01*
X53598344Y44971156D02*
X53704633Y44977536D01*
X53704633Y44977536D02*
X53769681Y44960106D01*
X53769681Y44960106D02*
X53858540Y44901437D01*
X53858540Y44901437D02*
X53953778Y44736480D01*
X53953778Y44736480D02*
X53960158Y44630192D01*
X53960158Y44630192D02*
X53942728Y44565143D01*
X53942728Y44565143D02*
X53884059Y44476285D01*
X53884059Y44476285D02*
X53842819Y44452475D01*
X53842819Y44452475D02*
X53736531Y44446095D01*
X53736531Y44446095D02*
X53671482Y44463525D01*
X53671482Y44463525D02*
X53582624Y44522194D01*
X53582624Y44522194D02*
X53487386Y44687152D01*
X53487386Y44687152D02*
X53398528Y44745821D01*
X53398528Y44745821D02*
X53333479Y44763250D01*
X53333479Y44763250D02*
X53227191Y44756871D01*
X53227191Y44756871D02*
X53062233Y44661633D01*
X53062233Y44661633D02*
X53003564Y44572774D01*
X53003564Y44572774D02*
X52986135Y44507725D01*
X52986135Y44507725D02*
X52992514Y44401437D01*
X52992514Y44401437D02*
X53087752Y44236480D01*
X53087752Y44236480D02*
X53176611Y44177811D01*
X53176611Y44177811D02*
X53241660Y44160381D01*
X53241660Y44160381D02*
X53347948Y44166761D01*
X53347948Y44166761D02*
X53512905Y44261999D01*
X53512905Y44261999D02*
X53571574Y44350857D01*
X53571574Y44350857D02*
X53589004Y44415906D01*
X53589004Y44415906D02*
X53582624Y44522194D01*
D12*
X141684907Y9336986D02*
X141958240Y8946510D01*
X142153478Y9336986D02*
X142153478Y8516986D01*
X142153478Y8516986D02*
X141841097Y8516986D01*
X141841097Y8516986D02*
X141763002Y8556034D01*
X141763002Y8556034D02*
X141723955Y8595081D01*
X141723955Y8595081D02*
X141684907Y8673177D01*
X141684907Y8673177D02*
X141684907Y8790319D01*
X141684907Y8790319D02*
X141723955Y8868415D01*
X141723955Y8868415D02*
X141763002Y8907462D01*
X141763002Y8907462D02*
X141841097Y8946510D01*
X141841097Y8946510D02*
X142153478Y8946510D01*
X141216336Y8868415D02*
X141294431Y8829367D01*
X141294431Y8829367D02*
X141333478Y8790319D01*
X141333478Y8790319D02*
X141372526Y8712224D01*
X141372526Y8712224D02*
X141372526Y8673177D01*
X141372526Y8673177D02*
X141333478Y8595081D01*
X141333478Y8595081D02*
X141294431Y8556034D01*
X141294431Y8556034D02*
X141216336Y8516986D01*
X141216336Y8516986D02*
X141060145Y8516986D01*
X141060145Y8516986D02*
X140982050Y8556034D01*
X140982050Y8556034D02*
X140943002Y8595081D01*
X140943002Y8595081D02*
X140903955Y8673177D01*
X140903955Y8673177D02*
X140903955Y8712224D01*
X140903955Y8712224D02*
X140943002Y8790319D01*
X140943002Y8790319D02*
X140982050Y8829367D01*
X140982050Y8829367D02*
X141060145Y8868415D01*
X141060145Y8868415D02*
X141216336Y8868415D01*
X141216336Y8868415D02*
X141294431Y8907462D01*
X141294431Y8907462D02*
X141333478Y8946510D01*
X141333478Y8946510D02*
X141372526Y9024605D01*
X141372526Y9024605D02*
X141372526Y9180796D01*
X141372526Y9180796D02*
X141333478Y9258891D01*
X141333478Y9258891D02*
X141294431Y9297938D01*
X141294431Y9297938D02*
X141216336Y9336986D01*
X141216336Y9336986D02*
X141060145Y9336986D01*
X141060145Y9336986D02*
X140982050Y9297938D01*
X140982050Y9297938D02*
X140943002Y9258891D01*
X140943002Y9258891D02*
X140903955Y9180796D01*
X140903955Y9180796D02*
X140903955Y9024605D01*
X140903955Y9024605D02*
X140943002Y8946510D01*
X140943002Y8946510D02*
X140982050Y8907462D01*
X140982050Y8907462D02*
X141060145Y8868415D01*
D13*
X48977395Y30105745D02*
X48943723Y30206760D01*
X48943723Y30206760D02*
X48943723Y30341447D01*
X48943723Y30341447D02*
X48943723Y30543478D01*
X48943723Y30543478D02*
X48910051Y30644493D01*
X48910051Y30644493D02*
X48842708Y30711837D01*
X48708021Y30509806D02*
X48674349Y30610821D01*
X48674349Y30610821D02*
X48674349Y30745508D01*
X48674349Y30745508D02*
X48775364Y30913867D01*
X48775364Y30913867D02*
X49011066Y31149569D01*
X49011066Y31149569D02*
X49179425Y31250585D01*
X49179425Y31250585D02*
X49314112Y31250585D01*
X49314112Y31250585D02*
X49415127Y31216913D01*
X49415127Y31216913D02*
X49549814Y31082226D01*
X49549814Y31082226D02*
X49583486Y30981211D01*
X49583486Y30981211D02*
X49583486Y30846524D01*
X49583486Y30846524D02*
X49482471Y30678165D01*
X49482471Y30678165D02*
X49246769Y30442463D01*
X49246769Y30442463D02*
X49078410Y30341447D01*
X49078410Y30341447D02*
X48943723Y30341447D01*
X48943723Y30341447D02*
X48842708Y30375119D01*
X48842708Y30375119D02*
X48708021Y30509806D01*
X49684501Y29533325D02*
X49280440Y29937386D01*
X49482471Y29735356D02*
X50189578Y30442463D01*
X50189578Y30442463D02*
X50021219Y30408791D01*
X50021219Y30408791D02*
X49886532Y30408791D01*
X49886532Y30408791D02*
X49785517Y30442463D01*
X50829341Y29802699D02*
X50896685Y29735356D01*
X50896685Y29735356D02*
X50930356Y29634341D01*
X50930356Y29634341D02*
X50930356Y29566997D01*
X50930356Y29566997D02*
X50896685Y29465982D01*
X50896685Y29465982D02*
X50795669Y29297623D01*
X50795669Y29297623D02*
X50627311Y29129264D01*
X50627311Y29129264D02*
X50458952Y29028249D01*
X50458952Y29028249D02*
X50357936Y28994577D01*
X50357936Y28994577D02*
X50290593Y28994577D01*
X50290593Y28994577D02*
X50189578Y29028249D01*
X50189578Y29028249D02*
X50122234Y29095593D01*
X50122234Y29095593D02*
X50088562Y29196608D01*
X50088562Y29196608D02*
X50088562Y29263951D01*
X50088562Y29263951D02*
X50122234Y29364967D01*
X50122234Y29364967D02*
X50223249Y29533325D01*
X50223249Y29533325D02*
X50391608Y29701684D01*
X50391608Y29701684D02*
X50559967Y29802699D01*
X50559967Y29802699D02*
X50660982Y29836371D01*
X50660982Y29836371D02*
X50728326Y29836371D01*
X50728326Y29836371D02*
X50829341Y29802699D01*
D12*
X68611985Y26940093D02*
X68221509Y26666760D01*
X68611985Y26471522D02*
X67791985Y26471522D01*
X67791985Y26471522D02*
X67791985Y26783903D01*
X67791985Y26783903D02*
X67831033Y26861998D01*
X67831033Y26861998D02*
X67870080Y26901045D01*
X67870080Y26901045D02*
X67948176Y26940093D01*
X67948176Y26940093D02*
X68065318Y26940093D01*
X68065318Y26940093D02*
X68143414Y26901045D01*
X68143414Y26901045D02*
X68182461Y26861998D01*
X68182461Y26861998D02*
X68221509Y26783903D01*
X68221509Y26783903D02*
X68221509Y26471522D01*
X67791985Y27213426D02*
X67791985Y27721045D01*
X67791985Y27721045D02*
X68104366Y27447712D01*
X68104366Y27447712D02*
X68104366Y27564855D01*
X68104366Y27564855D02*
X68143414Y27642950D01*
X68143414Y27642950D02*
X68182461Y27681998D01*
X68182461Y27681998D02*
X68260557Y27721045D01*
X68260557Y27721045D02*
X68455795Y27721045D01*
X68455795Y27721045D02*
X68533890Y27681998D01*
X68533890Y27681998D02*
X68572938Y27642950D01*
X68572938Y27642950D02*
X68611985Y27564855D01*
X68611985Y27564855D02*
X68611985Y27330569D01*
X68611985Y27330569D02*
X68572938Y27252474D01*
X68572938Y27252474D02*
X68533890Y27213426D01*
X67870080Y28033426D02*
X67831033Y28072474D01*
X67831033Y28072474D02*
X67791985Y28150569D01*
X67791985Y28150569D02*
X67791985Y28345807D01*
X67791985Y28345807D02*
X67831033Y28423902D01*
X67831033Y28423902D02*
X67870080Y28462950D01*
X67870080Y28462950D02*
X67948176Y28501997D01*
X67948176Y28501997D02*
X68026271Y28501997D01*
X68026271Y28501997D02*
X68143414Y28462950D01*
X68143414Y28462950D02*
X68611985Y27994378D01*
X68611985Y27994378D02*
X68611985Y28501997D01*
D13*
X154880573Y17566742D02*
X154280573Y17566742D01*
X154280573Y17566742D02*
X154709144Y17766742D01*
X154709144Y17766742D02*
X154280573Y17966742D01*
X154280573Y17966742D02*
X154880573Y17966742D01*
X154337716Y18223884D02*
X154309144Y18252456D01*
X154309144Y18252456D02*
X154280573Y18309598D01*
X154280573Y18309598D02*
X154280573Y18452456D01*
X154280573Y18452456D02*
X154309144Y18509598D01*
X154309144Y18509598D02*
X154337716Y18538170D01*
X154337716Y18538170D02*
X154394859Y18566741D01*
X154394859Y18566741D02*
X154452002Y18566741D01*
X154452002Y18566741D02*
X154537716Y18538170D01*
X154537716Y18538170D02*
X154880573Y18195313D01*
X154880573Y18195313D02*
X154880573Y18566741D01*
D12*
X110961985Y56190093D02*
X110571509Y55916760D01*
X110961985Y55721522D02*
X110141985Y55721522D01*
X110141985Y55721522D02*
X110141985Y56033903D01*
X110141985Y56033903D02*
X110181033Y56111998D01*
X110181033Y56111998D02*
X110220080Y56151045D01*
X110220080Y56151045D02*
X110298176Y56190093D01*
X110298176Y56190093D02*
X110415318Y56190093D01*
X110415318Y56190093D02*
X110493414Y56151045D01*
X110493414Y56151045D02*
X110532461Y56111998D01*
X110532461Y56111998D02*
X110571509Y56033903D01*
X110571509Y56033903D02*
X110571509Y55721522D01*
X110220080Y56502474D02*
X110181033Y56541522D01*
X110181033Y56541522D02*
X110141985Y56619617D01*
X110141985Y56619617D02*
X110141985Y56814855D01*
X110141985Y56814855D02*
X110181033Y56892950D01*
X110181033Y56892950D02*
X110220080Y56931998D01*
X110220080Y56931998D02*
X110298176Y56971045D01*
X110298176Y56971045D02*
X110376271Y56971045D01*
X110376271Y56971045D02*
X110493414Y56931998D01*
X110493414Y56931998D02*
X110961985Y56463426D01*
X110961985Y56463426D02*
X110961985Y56971045D01*
X66861985Y38940093D02*
X66471509Y38666760D01*
X66861985Y38471522D02*
X66041985Y38471522D01*
X66041985Y38471522D02*
X66041985Y38783903D01*
X66041985Y38783903D02*
X66081033Y38861998D01*
X66081033Y38861998D02*
X66120080Y38901045D01*
X66120080Y38901045D02*
X66198176Y38940093D01*
X66198176Y38940093D02*
X66315318Y38940093D01*
X66315318Y38940093D02*
X66393414Y38901045D01*
X66393414Y38901045D02*
X66432461Y38861998D01*
X66432461Y38861998D02*
X66471509Y38783903D01*
X66471509Y38783903D02*
X66471509Y38471522D01*
X66041985Y39213426D02*
X66041985Y39721045D01*
X66041985Y39721045D02*
X66354366Y39447712D01*
X66354366Y39447712D02*
X66354366Y39564855D01*
X66354366Y39564855D02*
X66393414Y39642950D01*
X66393414Y39642950D02*
X66432461Y39681998D01*
X66432461Y39681998D02*
X66510557Y39721045D01*
X66510557Y39721045D02*
X66705795Y39721045D01*
X66705795Y39721045D02*
X66783890Y39681998D01*
X66783890Y39681998D02*
X66822938Y39642950D01*
X66822938Y39642950D02*
X66861985Y39564855D01*
X66861985Y39564855D02*
X66861985Y39330569D01*
X66861985Y39330569D02*
X66822938Y39252474D01*
X66822938Y39252474D02*
X66783890Y39213426D01*
X66861985Y40501997D02*
X66861985Y40033426D01*
X66861985Y40267712D02*
X66041985Y40267712D01*
X66041985Y40267712D02*
X66159128Y40189616D01*
X66159128Y40189616D02*
X66237223Y40111521D01*
X66237223Y40111521D02*
X66276271Y40033426D01*
X41305836Y47879799D02*
X41507331Y48311751D01*
X41071550Y48285594D02*
X41781691Y48695594D01*
X41781691Y48695594D02*
X41937881Y48425064D01*
X41937881Y48425064D02*
X41943113Y48337908D01*
X41943113Y48337908D02*
X41928820Y48284568D01*
X41928820Y48284568D02*
X41880712Y48211704D01*
X41880712Y48211704D02*
X41779263Y48153133D01*
X41779263Y48153133D02*
X41692107Y48147901D01*
X41692107Y48147901D02*
X41638767Y48162194D01*
X41638767Y48162194D02*
X41565903Y48210302D01*
X41565903Y48210302D02*
X41409712Y48480832D01*
X42104535Y47980222D02*
X42157875Y47965929D01*
X42157875Y47965929D02*
X42230739Y47917821D01*
X42230739Y47917821D02*
X42328358Y47748740D01*
X42328358Y47748740D02*
X42333589Y47661583D01*
X42333589Y47661583D02*
X42319297Y47608243D01*
X42319297Y47608243D02*
X42271188Y47535379D01*
X42271188Y47535379D02*
X42203555Y47496332D01*
X42203555Y47496332D02*
X42082583Y47471577D01*
X42082583Y47471577D02*
X41442502Y47643086D01*
X41442502Y47643086D02*
X41696312Y47203475D01*
X42543119Y47376761D02*
X42796929Y46937150D01*
X42796929Y46937150D02*
X42389732Y47017674D01*
X42389732Y47017674D02*
X42448304Y46916225D01*
X42448304Y46916225D02*
X42453535Y46829069D01*
X42453535Y46829069D02*
X42439243Y46775729D01*
X42439243Y46775729D02*
X42391134Y46702865D01*
X42391134Y46702865D02*
X42222053Y46605246D01*
X42222053Y46605246D02*
X42134897Y46600014D01*
X42134897Y46600014D02*
X42081557Y46614307D01*
X42081557Y46614307D02*
X42008693Y46662415D01*
X42008693Y46662415D02*
X41891550Y46865313D01*
X41891550Y46865313D02*
X41886318Y46952469D01*
X41886318Y46952469D02*
X41900611Y47005809D01*
D13*
X69025057Y24728572D02*
X68977438Y24633334D01*
X68977438Y24633334D02*
X68882200Y24538096D01*
X68882200Y24538096D02*
X68739342Y24395239D01*
X68739342Y24395239D02*
X68691723Y24300001D01*
X68691723Y24300001D02*
X68691723Y24204763D01*
X68929819Y24252382D02*
X68882200Y24157144D01*
X68882200Y24157144D02*
X68786961Y24061906D01*
X68786961Y24061906D02*
X68596485Y24014287D01*
X68596485Y24014287D02*
X68263152Y24014287D01*
X68263152Y24014287D02*
X68072676Y24061906D01*
X68072676Y24061906D02*
X67977438Y24157144D01*
X67977438Y24157144D02*
X67929819Y24252382D01*
X67929819Y24252382D02*
X67929819Y24442858D01*
X67929819Y24442858D02*
X67977438Y24538096D01*
X67977438Y24538096D02*
X68072676Y24633334D01*
X68072676Y24633334D02*
X68263152Y24680953D01*
X68263152Y24680953D02*
X68596485Y24680953D01*
X68596485Y24680953D02*
X68786961Y24633334D01*
X68786961Y24633334D02*
X68882200Y24538096D01*
X68882200Y24538096D02*
X68929819Y24442858D01*
X68929819Y24442858D02*
X68929819Y24252382D01*
X68929819Y25633334D02*
X68929819Y25061906D01*
X68929819Y25347620D02*
X67929819Y25347620D01*
X67929819Y25347620D02*
X68072676Y25252382D01*
X68072676Y25252382D02*
X68167914Y25157144D01*
X68167914Y25157144D02*
X68215533Y25061906D01*
X67929819Y26490477D02*
X67929819Y26300001D01*
X67929819Y26300001D02*
X67977438Y26204763D01*
X67977438Y26204763D02*
X68025057Y26157144D01*
X68025057Y26157144D02*
X68167914Y26061906D01*
X68167914Y26061906D02*
X68358390Y26014287D01*
X68358390Y26014287D02*
X68739342Y26014287D01*
X68739342Y26014287D02*
X68834580Y26061906D01*
X68834580Y26061906D02*
X68882200Y26109525D01*
X68882200Y26109525D02*
X68929819Y26204763D01*
X68929819Y26204763D02*
X68929819Y26395239D01*
X68929819Y26395239D02*
X68882200Y26490477D01*
X68882200Y26490477D02*
X68834580Y26538096D01*
X68834580Y26538096D02*
X68739342Y26585715D01*
X68739342Y26585715D02*
X68501247Y26585715D01*
X68501247Y26585715D02*
X68406009Y26538096D01*
X68406009Y26538096D02*
X68358390Y26490477D01*
X68358390Y26490477D02*
X68310771Y26395239D01*
X68310771Y26395239D02*
X68310771Y26204763D01*
X68310771Y26204763D02*
X68358390Y26109525D01*
X68358390Y26109525D02*
X68406009Y26061906D01*
X68406009Y26061906D02*
X68501247Y26014287D01*
X44898131Y42557451D02*
X44891751Y42663739D01*
X44891751Y42663739D02*
X44926611Y42793836D01*
X44926611Y42793836D02*
X44978900Y42988983D01*
X44978900Y42988983D02*
X44972520Y43095271D01*
X44972520Y43095271D02*
X44924901Y43177750D01*
X44742514Y43017463D02*
X44736135Y43123751D01*
X44736135Y43123751D02*
X44770994Y43253848D01*
X44770994Y43253848D02*
X44912142Y43390326D01*
X44912142Y43390326D02*
X45200817Y43556992D01*
X45200817Y43556992D02*
X45389584Y43610991D01*
X45389584Y43610991D02*
X45519681Y43576132D01*
X45519681Y43576132D02*
X45608540Y43517463D01*
X45608540Y43517463D02*
X45703778Y43352505D01*
X45703778Y43352505D02*
X45710158Y43246217D01*
X45710158Y43246217D02*
X45675298Y43116120D01*
X45675298Y43116120D02*
X45534150Y42979642D01*
X45534150Y42979642D02*
X45245475Y42812976D01*
X45245475Y42812976D02*
X45056708Y42758977D01*
X45056708Y42758977D02*
X44926611Y42793836D01*
X44926611Y42793836D02*
X44837752Y42852505D01*
X44837752Y42852505D02*
X44742514Y43017463D01*
X45194895Y42233916D02*
X45290133Y42068959D01*
X45290133Y42068959D02*
X45378992Y42010290D01*
X45378992Y42010290D02*
X45444041Y41992860D01*
X45444041Y41992860D02*
X45615378Y41981810D01*
X45615378Y41981810D02*
X45804144Y42035809D01*
X45804144Y42035809D02*
X46134059Y42226285D01*
X46134059Y42226285D02*
X46192728Y42315143D01*
X46192728Y42315143D02*
X46210158Y42380192D01*
X46210158Y42380192D02*
X46203778Y42486480D01*
X46203778Y42486480D02*
X46108540Y42651437D01*
X46108540Y42651437D02*
X46019681Y42710106D01*
X46019681Y42710106D02*
X45954633Y42727536D01*
X45954633Y42727536D02*
X45848344Y42721156D01*
X45848344Y42721156D02*
X45642148Y42602109D01*
X45642148Y42602109D02*
X45583479Y42513250D01*
X45583479Y42513250D02*
X45566049Y42448202D01*
X45566049Y42448202D02*
X45572429Y42341913D01*
X45572429Y42341913D02*
X45667667Y42176956D01*
X45667667Y42176956D02*
X45756525Y42118287D01*
X45756525Y42118287D02*
X45821574Y42100857D01*
X45821574Y42100857D02*
X45927862Y42107237D01*
X59453571Y46949943D02*
X59358333Y46997562D01*
X59358333Y46997562D02*
X59263095Y47092800D01*
X59263095Y47092800D02*
X59120238Y47235658D01*
X59120238Y47235658D02*
X59025000Y47283277D01*
X59025000Y47283277D02*
X58929762Y47283277D01*
X58977381Y47045181D02*
X58882143Y47092800D01*
X58882143Y47092800D02*
X58786905Y47188039D01*
X58786905Y47188039D02*
X58739286Y47378515D01*
X58739286Y47378515D02*
X58739286Y47711848D01*
X58739286Y47711848D02*
X58786905Y47902324D01*
X58786905Y47902324D02*
X58882143Y47997562D01*
X58882143Y47997562D02*
X58977381Y48045181D01*
X58977381Y48045181D02*
X59167857Y48045181D01*
X59167857Y48045181D02*
X59263095Y47997562D01*
X59263095Y47997562D02*
X59358333Y47902324D01*
X59358333Y47902324D02*
X59405952Y47711848D01*
X59405952Y47711848D02*
X59405952Y47378515D01*
X59405952Y47378515D02*
X59358333Y47188039D01*
X59358333Y47188039D02*
X59263095Y47092800D01*
X59263095Y47092800D02*
X59167857Y47045181D01*
X59167857Y47045181D02*
X58977381Y47045181D01*
X60358333Y47045181D02*
X59786905Y47045181D01*
X60072619Y47045181D02*
X60072619Y48045181D01*
X60072619Y48045181D02*
X59977381Y47902324D01*
X59977381Y47902324D02*
X59882143Y47807086D01*
X59882143Y47807086D02*
X59786905Y47759467D01*
X60691667Y48045181D02*
X61310714Y48045181D01*
X61310714Y48045181D02*
X60977381Y47664229D01*
X60977381Y47664229D02*
X61120238Y47664229D01*
X61120238Y47664229D02*
X61215476Y47616610D01*
X61215476Y47616610D02*
X61263095Y47568991D01*
X61263095Y47568991D02*
X61310714Y47473753D01*
X61310714Y47473753D02*
X61310714Y47235658D01*
X61310714Y47235658D02*
X61263095Y47140420D01*
X61263095Y47140420D02*
X61215476Y47092800D01*
X61215476Y47092800D02*
X61120238Y47045181D01*
X61120238Y47045181D02*
X60834524Y47045181D01*
X60834524Y47045181D02*
X60739286Y47092800D01*
X60739286Y47092800D02*
X60691667Y47140420D01*
D12*
X35111985Y69440093D02*
X34721509Y69166760D01*
X35111985Y68971522D02*
X34291985Y68971522D01*
X34291985Y68971522D02*
X34291985Y69283903D01*
X34291985Y69283903D02*
X34331033Y69361998D01*
X34331033Y69361998D02*
X34370080Y69401045D01*
X34370080Y69401045D02*
X34448176Y69440093D01*
X34448176Y69440093D02*
X34565318Y69440093D01*
X34565318Y69440093D02*
X34643414Y69401045D01*
X34643414Y69401045D02*
X34682461Y69361998D01*
X34682461Y69361998D02*
X34721509Y69283903D01*
X34721509Y69283903D02*
X34721509Y68971522D01*
X34370080Y69752474D02*
X34331033Y69791522D01*
X34331033Y69791522D02*
X34291985Y69869617D01*
X34291985Y69869617D02*
X34291985Y70064855D01*
X34291985Y70064855D02*
X34331033Y70142950D01*
X34331033Y70142950D02*
X34370080Y70181998D01*
X34370080Y70181998D02*
X34448176Y70221045D01*
X34448176Y70221045D02*
X34526271Y70221045D01*
X34526271Y70221045D02*
X34643414Y70181998D01*
X34643414Y70181998D02*
X35111985Y69713426D01*
X35111985Y69713426D02*
X35111985Y70221045D01*
X34291985Y70923902D02*
X34291985Y70767712D01*
X34291985Y70767712D02*
X34331033Y70689616D01*
X34331033Y70689616D02*
X34370080Y70650569D01*
X34370080Y70650569D02*
X34487223Y70572474D01*
X34487223Y70572474D02*
X34643414Y70533426D01*
X34643414Y70533426D02*
X34955795Y70533426D01*
X34955795Y70533426D02*
X35033890Y70572474D01*
X35033890Y70572474D02*
X35072938Y70611521D01*
X35072938Y70611521D02*
X35111985Y70689616D01*
X35111985Y70689616D02*
X35111985Y70845807D01*
X35111985Y70845807D02*
X35072938Y70923902D01*
X35072938Y70923902D02*
X35033890Y70962950D01*
X35033890Y70962950D02*
X34955795Y71001997D01*
X34955795Y71001997D02*
X34760557Y71001997D01*
X34760557Y71001997D02*
X34682461Y70962950D01*
X34682461Y70962950D02*
X34643414Y70923902D01*
X34643414Y70923902D02*
X34604366Y70845807D01*
X34604366Y70845807D02*
X34604366Y70689616D01*
X34604366Y70689616D02*
X34643414Y70611521D01*
X34643414Y70611521D02*
X34682461Y70572474D01*
X34682461Y70572474D02*
X34760557Y70533426D01*
X137747582Y20167534D02*
X137786630Y20128486D01*
X137786630Y20128486D02*
X137825677Y20011343D01*
X137825677Y20011343D02*
X137825677Y19933248D01*
X137825677Y19933248D02*
X137786630Y19816105D01*
X137786630Y19816105D02*
X137708534Y19738009D01*
X137708534Y19738009D02*
X137630439Y19698962D01*
X137630439Y19698962D02*
X137474248Y19659914D01*
X137474248Y19659914D02*
X137357105Y19659914D01*
X137357105Y19659914D02*
X137200915Y19698962D01*
X137200915Y19698962D02*
X137122819Y19738009D01*
X137122819Y19738009D02*
X137044724Y19816105D01*
X137044724Y19816105D02*
X137005676Y19933248D01*
X137005676Y19933248D02*
X137005676Y20011343D01*
X137005676Y20011343D02*
X137044724Y20128486D01*
X137044724Y20128486D02*
X137083772Y20167534D01*
X137825677Y20948487D02*
X137825677Y20479915D01*
X137825677Y20714201D02*
X137005676Y20714201D01*
X137005676Y20714201D02*
X137122819Y20636106D01*
X137122819Y20636106D02*
X137200915Y20558010D01*
X137200915Y20558010D02*
X137239962Y20479915D01*
D13*
X51098131Y54507451D02*
X51091751Y54613739D01*
X51091751Y54613739D02*
X51126611Y54743836D01*
X51126611Y54743836D02*
X51178900Y54938983D01*
X51178900Y54938983D02*
X51172520Y55045271D01*
X51172520Y55045271D02*
X51124901Y55127750D01*
X50942514Y54967463D02*
X50936135Y55073751D01*
X50936135Y55073751D02*
X50970994Y55203848D01*
X50970994Y55203848D02*
X51112142Y55340326D01*
X51112142Y55340326D02*
X51400817Y55506992D01*
X51400817Y55506992D02*
X51589584Y55560991D01*
X51589584Y55560991D02*
X51719681Y55526132D01*
X51719681Y55526132D02*
X51808540Y55467463D01*
X51808540Y55467463D02*
X51903778Y55302505D01*
X51903778Y55302505D02*
X51910158Y55196217D01*
X51910158Y55196217D02*
X51875298Y55066120D01*
X51875298Y55066120D02*
X51734150Y54929642D01*
X51734150Y54929642D02*
X51445475Y54762976D01*
X51445475Y54762976D02*
X51256708Y54708977D01*
X51256708Y54708977D02*
X51126611Y54743836D01*
X51126611Y54743836D02*
X51037752Y54802505D01*
X51037752Y54802505D02*
X50942514Y54967463D01*
X52189492Y54807634D02*
X52522825Y54230284D01*
X52522825Y54230284D02*
X51442514Y54101437D01*
D12*
X70115092Y36763015D02*
X69841759Y37153491D01*
X69646521Y36763015D02*
X69646521Y37583015D01*
X69646521Y37583015D02*
X69958902Y37583015D01*
X69958902Y37583015D02*
X70036997Y37543967D01*
X70036997Y37543967D02*
X70076044Y37504920D01*
X70076044Y37504920D02*
X70115092Y37426824D01*
X70115092Y37426824D02*
X70115092Y37309682D01*
X70115092Y37309682D02*
X70076044Y37231586D01*
X70076044Y37231586D02*
X70036997Y37192539D01*
X70036997Y37192539D02*
X69958902Y37153491D01*
X69958902Y37153491D02*
X69646521Y37153491D01*
X70388425Y37583015D02*
X70896044Y37583015D01*
X70896044Y37583015D02*
X70622711Y37270634D01*
X70622711Y37270634D02*
X70739854Y37270634D01*
X70739854Y37270634D02*
X70817949Y37231586D01*
X70817949Y37231586D02*
X70856997Y37192539D01*
X70856997Y37192539D02*
X70896044Y37114443D01*
X70896044Y37114443D02*
X70896044Y36919205D01*
X70896044Y36919205D02*
X70856997Y36841110D01*
X70856997Y36841110D02*
X70817949Y36802062D01*
X70817949Y36802062D02*
X70739854Y36763015D01*
X70739854Y36763015D02*
X70505568Y36763015D01*
X70505568Y36763015D02*
X70427473Y36802062D01*
X70427473Y36802062D02*
X70388425Y36841110D01*
X71403663Y37583015D02*
X71481758Y37583015D01*
X71481758Y37583015D02*
X71559854Y37543967D01*
X71559854Y37543967D02*
X71598901Y37504920D01*
X71598901Y37504920D02*
X71637949Y37426824D01*
X71637949Y37426824D02*
X71676996Y37270634D01*
X71676996Y37270634D02*
X71676996Y37075396D01*
X71676996Y37075396D02*
X71637949Y36919205D01*
X71637949Y36919205D02*
X71598901Y36841110D01*
X71598901Y36841110D02*
X71559854Y36802062D01*
X71559854Y36802062D02*
X71481758Y36763015D01*
X71481758Y36763015D02*
X71403663Y36763015D01*
X71403663Y36763015D02*
X71325568Y36802062D01*
X71325568Y36802062D02*
X71286520Y36841110D01*
X71286520Y36841110D02*
X71247473Y36919205D01*
X71247473Y36919205D02*
X71208425Y37075396D01*
X71208425Y37075396D02*
X71208425Y37270634D01*
X71208425Y37270634D02*
X71247473Y37426824D01*
X71247473Y37426824D02*
X71286520Y37504920D01*
X71286520Y37504920D02*
X71325568Y37543967D01*
X71325568Y37543967D02*
X71403663Y37583015D01*
X50260263Y27664330D02*
X49790879Y27747162D01*
X49928933Y27333000D02*
X49349105Y27912827D01*
X49349105Y27912827D02*
X49569992Y28133714D01*
X49569992Y28133714D02*
X49652825Y28161325D01*
X49652825Y28161325D02*
X49708046Y28161325D01*
X49708046Y28161325D02*
X49790879Y28133714D01*
X49790879Y28133714D02*
X49873711Y28050882D01*
X49873711Y28050882D02*
X49901322Y27968049D01*
X49901322Y27968049D02*
X49901322Y27912827D01*
X49901322Y27912827D02*
X49873711Y27829995D01*
X49873711Y27829995D02*
X49652825Y27609108D01*
X49956544Y28409822D02*
X49956544Y28465044D01*
X49956544Y28465044D02*
X49984155Y28547877D01*
X49984155Y28547877D02*
X50122209Y28685931D01*
X50122209Y28685931D02*
X50205041Y28713542D01*
X50205041Y28713542D02*
X50260263Y28713542D01*
X50260263Y28713542D02*
X50343095Y28685931D01*
X50343095Y28685931D02*
X50398317Y28630709D01*
X50398317Y28630709D02*
X50453539Y28520266D01*
X50453539Y28520266D02*
X50453539Y27857606D01*
X50453539Y27857606D02*
X50812480Y28216547D01*
X50922923Y29100093D02*
X51309474Y28713541D01*
X50563982Y29182926D02*
X50840090Y28630709D01*
X50840090Y28630709D02*
X51199031Y28989650D01*
D13*
X132579819Y40211906D02*
X131579819Y40211906D01*
X131579819Y40211906D02*
X131579819Y40592858D01*
X131579819Y40592858D02*
X131627438Y40688096D01*
X131627438Y40688096D02*
X131675057Y40735715D01*
X131675057Y40735715D02*
X131770295Y40783334D01*
X131770295Y40783334D02*
X131913152Y40783334D01*
X131913152Y40783334D02*
X132008390Y40735715D01*
X132008390Y40735715D02*
X132056009Y40688096D01*
X132056009Y40688096D02*
X132103628Y40592858D01*
X132103628Y40592858D02*
X132103628Y40211906D01*
X131579819Y41116668D02*
X131579819Y41735715D01*
X131579819Y41735715D02*
X131960771Y41402382D01*
X131960771Y41402382D02*
X131960771Y41545239D01*
X131960771Y41545239D02*
X132008390Y41640477D01*
X132008390Y41640477D02*
X132056009Y41688096D01*
X132056009Y41688096D02*
X132151247Y41735715D01*
X132151247Y41735715D02*
X132389342Y41735715D01*
X132389342Y41735715D02*
X132484580Y41688096D01*
X132484580Y41688096D02*
X132532200Y41640477D01*
X132532200Y41640477D02*
X132579819Y41545239D01*
X132579819Y41545239D02*
X132579819Y41259525D01*
X132579819Y41259525D02*
X132532200Y41164287D01*
X132532200Y41164287D02*
X132484580Y41116668D01*
X138291666Y10410181D02*
X138291666Y9695896D01*
X138291666Y9695896D02*
X138244047Y9553039D01*
X138244047Y9553039D02*
X138148809Y9457800D01*
X138148809Y9457800D02*
X138005952Y9410181D01*
X138005952Y9410181D02*
X137910714Y9410181D01*
X138815476Y9410181D02*
X139005952Y9410181D01*
X139005952Y9410181D02*
X139101190Y9457800D01*
X139101190Y9457800D02*
X139148809Y9505420D01*
X139148809Y9505420D02*
X139244047Y9648277D01*
X139244047Y9648277D02*
X139291666Y9838753D01*
X139291666Y9838753D02*
X139291666Y10219705D01*
X139291666Y10219705D02*
X139244047Y10314943D01*
X139244047Y10314943D02*
X139196428Y10362562D01*
X139196428Y10362562D02*
X139101190Y10410181D01*
X139101190Y10410181D02*
X138910714Y10410181D01*
X138910714Y10410181D02*
X138815476Y10362562D01*
X138815476Y10362562D02*
X138767857Y10314943D01*
X138767857Y10314943D02*
X138720238Y10219705D01*
X138720238Y10219705D02*
X138720238Y9981610D01*
X138720238Y9981610D02*
X138767857Y9886372D01*
X138767857Y9886372D02*
X138815476Y9838753D01*
X138815476Y9838753D02*
X138910714Y9791134D01*
X138910714Y9791134D02*
X139101190Y9791134D01*
X139101190Y9791134D02*
X139196428Y9838753D01*
X139196428Y9838753D02*
X139244047Y9886372D01*
X139244047Y9886372D02*
X139291666Y9981610D01*
X19100714Y46853166D02*
X19094334Y46959454D01*
X19094334Y46959454D02*
X19129194Y47089551D01*
X19129194Y47089551D02*
X19181483Y47284698D01*
X19181483Y47284698D02*
X19175103Y47390986D01*
X19175103Y47390986D02*
X19127484Y47473465D01*
X18945097Y47313178D02*
X18938718Y47419466D01*
X18938718Y47419466D02*
X18973577Y47549563D01*
X18973577Y47549563D02*
X19114725Y47686041D01*
X19114725Y47686041D02*
X19403400Y47852707D01*
X19403400Y47852707D02*
X19592167Y47906706D01*
X19592167Y47906706D02*
X19722264Y47871847D01*
X19722264Y47871847D02*
X19811123Y47813178D01*
X19811123Y47813178D02*
X19906361Y47648220D01*
X19906361Y47648220D02*
X19912741Y47541932D01*
X19912741Y47541932D02*
X19877881Y47411835D01*
X19877881Y47411835D02*
X19736733Y47275357D01*
X19736733Y47275357D02*
X19448058Y47108691D01*
X19448058Y47108691D02*
X19259291Y47054692D01*
X19259291Y47054692D02*
X19129194Y47089551D01*
X19129194Y47089551D02*
X19040335Y47148220D01*
X19040335Y47148220D02*
X18945097Y47313178D01*
X20192075Y47153349D02*
X20501599Y46617238D01*
X20501599Y46617238D02*
X20005018Y46715437D01*
X20005018Y46715437D02*
X20076446Y46591719D01*
X20076446Y46591719D02*
X20082826Y46485431D01*
X20082826Y46485431D02*
X20065396Y46420382D01*
X20065396Y46420382D02*
X20006727Y46331524D01*
X20006727Y46331524D02*
X19800531Y46212476D01*
X19800531Y46212476D02*
X19694243Y46206096D01*
X19694243Y46206096D02*
X19629194Y46223526D01*
X19629194Y46223526D02*
X19540335Y46282195D01*
X19540335Y46282195D02*
X19397478Y46529631D01*
X19397478Y46529631D02*
X19391099Y46635919D01*
X19391099Y46635919D02*
X19408528Y46700968D01*
X25486905Y67295181D02*
X25486905Y68295181D01*
X25486905Y68295181D02*
X25725000Y68295181D01*
X25725000Y68295181D02*
X25867857Y68247562D01*
X25867857Y68247562D02*
X25963095Y68152324D01*
X25963095Y68152324D02*
X26010714Y68057086D01*
X26010714Y68057086D02*
X26058333Y67866610D01*
X26058333Y67866610D02*
X26058333Y67723753D01*
X26058333Y67723753D02*
X26010714Y67533277D01*
X26010714Y67533277D02*
X25963095Y67438039D01*
X25963095Y67438039D02*
X25867857Y67342800D01*
X25867857Y67342800D02*
X25725000Y67295181D01*
X25725000Y67295181D02*
X25486905Y67295181D01*
X26391667Y68295181D02*
X27058333Y68295181D01*
X27058333Y68295181D02*
X26629762Y67295181D01*
D12*
X70288014Y57859908D02*
X70678490Y58133241D01*
X70288014Y58328479D02*
X71108014Y58328479D01*
X71108014Y58328479D02*
X71108014Y58016098D01*
X71108014Y58016098D02*
X71068966Y57938003D01*
X71068966Y57938003D02*
X71029919Y57898956D01*
X71029919Y57898956D02*
X70951823Y57859908D01*
X70951823Y57859908D02*
X70834681Y57859908D01*
X70834681Y57859908D02*
X70756585Y57898956D01*
X70756585Y57898956D02*
X70717538Y57938003D01*
X70717538Y57938003D02*
X70678490Y58016098D01*
X70678490Y58016098D02*
X70678490Y58328479D01*
X71108014Y57118003D02*
X71108014Y57508479D01*
X71108014Y57508479D02*
X70717538Y57547527D01*
X70717538Y57547527D02*
X70756585Y57508479D01*
X70756585Y57508479D02*
X70795633Y57430384D01*
X70795633Y57430384D02*
X70795633Y57235146D01*
X70795633Y57235146D02*
X70756585Y57157051D01*
X70756585Y57157051D02*
X70717538Y57118003D01*
X70717538Y57118003D02*
X70639442Y57078956D01*
X70639442Y57078956D02*
X70444204Y57078956D01*
X70444204Y57078956D02*
X70366109Y57118003D01*
X70366109Y57118003D02*
X70327062Y57157051D01*
X70327062Y57157051D02*
X70288014Y57235146D01*
X70288014Y57235146D02*
X70288014Y57430384D01*
X70288014Y57430384D02*
X70327062Y57508479D01*
X70327062Y57508479D02*
X70366109Y57547527D01*
D13*
X27850714Y48303166D02*
X27844334Y48409454D01*
X27844334Y48409454D02*
X27879194Y48539551D01*
X27879194Y48539551D02*
X27931483Y48734698D01*
X27931483Y48734698D02*
X27925103Y48840986D01*
X27925103Y48840986D02*
X27877484Y48923465D01*
X27695097Y48763178D02*
X27688718Y48869466D01*
X27688718Y48869466D02*
X27723577Y48999563D01*
X27723577Y48999563D02*
X27864725Y49136041D01*
X27864725Y49136041D02*
X28153400Y49302707D01*
X28153400Y49302707D02*
X28342167Y49356706D01*
X28342167Y49356706D02*
X28472264Y49321847D01*
X28472264Y49321847D02*
X28561123Y49263178D01*
X28561123Y49263178D02*
X28656361Y49098220D01*
X28656361Y49098220D02*
X28662741Y48991932D01*
X28662741Y48991932D02*
X28627881Y48861835D01*
X28627881Y48861835D02*
X28486733Y48725357D01*
X28486733Y48725357D02*
X28198058Y48558691D01*
X28198058Y48558691D02*
X28009291Y48504692D01*
X28009291Y48504692D02*
X27879194Y48539551D01*
X27879194Y48539551D02*
X27790335Y48598220D01*
X27790335Y48598220D02*
X27695097Y48763178D01*
X28385574Y47567238D02*
X28099859Y48062109D01*
X28242716Y47814674D02*
X29108742Y48314674D01*
X29108742Y48314674D02*
X28937405Y48325724D01*
X28937405Y48325724D02*
X28807307Y48360583D01*
X28807307Y48360583D02*
X28718449Y48419252D01*
D12*
X47661985Y69190093D02*
X47271509Y68916760D01*
X47661985Y68721522D02*
X46841985Y68721522D01*
X46841985Y68721522D02*
X46841985Y69033903D01*
X46841985Y69033903D02*
X46881033Y69111998D01*
X46881033Y69111998D02*
X46920080Y69151045D01*
X46920080Y69151045D02*
X46998176Y69190093D01*
X46998176Y69190093D02*
X47115318Y69190093D01*
X47115318Y69190093D02*
X47193414Y69151045D01*
X47193414Y69151045D02*
X47232461Y69111998D01*
X47232461Y69111998D02*
X47271509Y69033903D01*
X47271509Y69033903D02*
X47271509Y68721522D01*
X46920080Y69502474D02*
X46881033Y69541522D01*
X46881033Y69541522D02*
X46841985Y69619617D01*
X46841985Y69619617D02*
X46841985Y69814855D01*
X46841985Y69814855D02*
X46881033Y69892950D01*
X46881033Y69892950D02*
X46920080Y69931998D01*
X46920080Y69931998D02*
X46998176Y69971045D01*
X46998176Y69971045D02*
X47076271Y69971045D01*
X47076271Y69971045D02*
X47193414Y69931998D01*
X47193414Y69931998D02*
X47661985Y69463426D01*
X47661985Y69463426D02*
X47661985Y69971045D01*
X46841985Y70712950D02*
X46841985Y70322474D01*
X46841985Y70322474D02*
X47232461Y70283426D01*
X47232461Y70283426D02*
X47193414Y70322474D01*
X47193414Y70322474D02*
X47154366Y70400569D01*
X47154366Y70400569D02*
X47154366Y70595807D01*
X47154366Y70595807D02*
X47193414Y70673902D01*
X47193414Y70673902D02*
X47232461Y70712950D01*
X47232461Y70712950D02*
X47310557Y70751997D01*
X47310557Y70751997D02*
X47505795Y70751997D01*
X47505795Y70751997D02*
X47583890Y70712950D01*
X47583890Y70712950D02*
X47622938Y70673902D01*
X47622938Y70673902D02*
X47661985Y70595807D01*
X47661985Y70595807D02*
X47661985Y70400569D01*
X47661985Y70400569D02*
X47622938Y70322474D01*
X47622938Y70322474D02*
X47583890Y70283426D01*
X157611985Y28190093D02*
X157221509Y27916760D01*
X157611985Y27721522D02*
X156791985Y27721522D01*
X156791985Y27721522D02*
X156791985Y28033903D01*
X156791985Y28033903D02*
X156831033Y28111998D01*
X156831033Y28111998D02*
X156870080Y28151045D01*
X156870080Y28151045D02*
X156948176Y28190093D01*
X156948176Y28190093D02*
X157065318Y28190093D01*
X157065318Y28190093D02*
X157143414Y28151045D01*
X157143414Y28151045D02*
X157182461Y28111998D01*
X157182461Y28111998D02*
X157221509Y28033903D01*
X157221509Y28033903D02*
X157221509Y27721522D01*
X156791985Y28892950D02*
X156791985Y28736760D01*
X156791985Y28736760D02*
X156831033Y28658664D01*
X156831033Y28658664D02*
X156870080Y28619617D01*
X156870080Y28619617D02*
X156987223Y28541522D01*
X156987223Y28541522D02*
X157143414Y28502474D01*
X157143414Y28502474D02*
X157455795Y28502474D01*
X157455795Y28502474D02*
X157533890Y28541522D01*
X157533890Y28541522D02*
X157572938Y28580569D01*
X157572938Y28580569D02*
X157611985Y28658664D01*
X157611985Y28658664D02*
X157611985Y28814855D01*
X157611985Y28814855D02*
X157572938Y28892950D01*
X157572938Y28892950D02*
X157533890Y28931998D01*
X157533890Y28931998D02*
X157455795Y28971045D01*
X157455795Y28971045D02*
X157260557Y28971045D01*
X157260557Y28971045D02*
X157182461Y28931998D01*
X157182461Y28931998D02*
X157143414Y28892950D01*
X157143414Y28892950D02*
X157104366Y28814855D01*
X157104366Y28814855D02*
X157104366Y28658664D01*
X157104366Y28658664D02*
X157143414Y28580569D01*
X157143414Y28580569D02*
X157182461Y28541522D01*
X157182461Y28541522D02*
X157260557Y28502474D01*
D13*
X10033903Y47116259D02*
X10027523Y47222547D01*
X10027523Y47222547D02*
X10062383Y47352644D01*
X10062383Y47352644D02*
X10114672Y47547791D01*
X10114672Y47547791D02*
X10108292Y47654079D01*
X10108292Y47654079D02*
X10060673Y47736558D01*
X9878286Y47576271D02*
X9871907Y47682559D01*
X9871907Y47682559D02*
X9906766Y47812656D01*
X9906766Y47812656D02*
X10047914Y47949134D01*
X10047914Y47949134D02*
X10336589Y48115800D01*
X10336589Y48115800D02*
X10525356Y48169799D01*
X10525356Y48169799D02*
X10655453Y48134940D01*
X10655453Y48134940D02*
X10744312Y48076271D01*
X10744312Y48076271D02*
X10839550Y47911313D01*
X10839550Y47911313D02*
X10845930Y47805025D01*
X10845930Y47805025D02*
X10811070Y47674928D01*
X10811070Y47674928D02*
X10669922Y47538450D01*
X10669922Y47538450D02*
X10381247Y47371784D01*
X10381247Y47371784D02*
X10192480Y47317785D01*
X10192480Y47317785D02*
X10062383Y47352644D01*
X10062383Y47352644D02*
X9973524Y47411313D01*
X9973524Y47411313D02*
X9878286Y47576271D01*
X11098494Y46796143D02*
X10521143Y46462809D01*
X11309361Y47192815D02*
X10571723Y47041869D01*
X10571723Y47041869D02*
X10881247Y46505758D01*
X31391071Y67149943D02*
X31295833Y67197562D01*
X31295833Y67197562D02*
X31200595Y67292800D01*
X31200595Y67292800D02*
X31057738Y67435658D01*
X31057738Y67435658D02*
X30962500Y67483277D01*
X30962500Y67483277D02*
X30867262Y67483277D01*
X30914881Y67245181D02*
X30819643Y67292800D01*
X30819643Y67292800D02*
X30724405Y67388039D01*
X30724405Y67388039D02*
X30676786Y67578515D01*
X30676786Y67578515D02*
X30676786Y67911848D01*
X30676786Y67911848D02*
X30724405Y68102324D01*
X30724405Y68102324D02*
X30819643Y68197562D01*
X30819643Y68197562D02*
X30914881Y68245181D01*
X30914881Y68245181D02*
X31105357Y68245181D01*
X31105357Y68245181D02*
X31200595Y68197562D01*
X31200595Y68197562D02*
X31295833Y68102324D01*
X31295833Y68102324D02*
X31343452Y67911848D01*
X31343452Y67911848D02*
X31343452Y67578515D01*
X31343452Y67578515D02*
X31295833Y67388039D01*
X31295833Y67388039D02*
X31200595Y67292800D01*
X31200595Y67292800D02*
X31105357Y67245181D01*
X31105357Y67245181D02*
X30914881Y67245181D01*
X32295833Y67245181D02*
X31724405Y67245181D01*
X32010119Y67245181D02*
X32010119Y68245181D01*
X32010119Y68245181D02*
X31914881Y68102324D01*
X31914881Y68102324D02*
X31819643Y68007086D01*
X31819643Y68007086D02*
X31724405Y67959467D01*
X32676786Y68149943D02*
X32724405Y68197562D01*
X32724405Y68197562D02*
X32819643Y68245181D01*
X32819643Y68245181D02*
X33057738Y68245181D01*
X33057738Y68245181D02*
X33152976Y68197562D01*
X33152976Y68197562D02*
X33200595Y68149943D01*
X33200595Y68149943D02*
X33248214Y68054705D01*
X33248214Y68054705D02*
X33248214Y67959467D01*
X33248214Y67959467D02*
X33200595Y67816610D01*
X33200595Y67816610D02*
X32629167Y67245181D01*
X32629167Y67245181D02*
X33248214Y67245181D01*
X136359819Y40211906D02*
X135359819Y40211906D01*
X135359819Y40211906D02*
X135359819Y40592858D01*
X135359819Y40592858D02*
X135407438Y40688096D01*
X135407438Y40688096D02*
X135455057Y40735715D01*
X135455057Y40735715D02*
X135550295Y40783334D01*
X135550295Y40783334D02*
X135693152Y40783334D01*
X135693152Y40783334D02*
X135788390Y40735715D01*
X135788390Y40735715D02*
X135836009Y40688096D01*
X135836009Y40688096D02*
X135883628Y40592858D01*
X135883628Y40592858D02*
X135883628Y40211906D01*
X135693152Y41640477D02*
X136359819Y41640477D01*
X135312200Y41402382D02*
X136026485Y41164287D01*
X136026485Y41164287D02*
X136026485Y41783334D01*
D12*
X65061985Y48340093D02*
X64671509Y48066760D01*
X65061985Y47871522D02*
X64241985Y47871522D01*
X64241985Y47871522D02*
X64241985Y48183903D01*
X64241985Y48183903D02*
X64281033Y48261998D01*
X64281033Y48261998D02*
X64320080Y48301045D01*
X64320080Y48301045D02*
X64398176Y48340093D01*
X64398176Y48340093D02*
X64515318Y48340093D01*
X64515318Y48340093D02*
X64593414Y48301045D01*
X64593414Y48301045D02*
X64632461Y48261998D01*
X64632461Y48261998D02*
X64671509Y48183903D01*
X64671509Y48183903D02*
X64671509Y47871522D01*
X64320080Y48652474D02*
X64281033Y48691522D01*
X64281033Y48691522D02*
X64241985Y48769617D01*
X64241985Y48769617D02*
X64241985Y48964855D01*
X64241985Y48964855D02*
X64281033Y49042950D01*
X64281033Y49042950D02*
X64320080Y49081998D01*
X64320080Y49081998D02*
X64398176Y49121045D01*
X64398176Y49121045D02*
X64476271Y49121045D01*
X64476271Y49121045D02*
X64593414Y49081998D01*
X64593414Y49081998D02*
X65061985Y48613426D01*
X65061985Y48613426D02*
X65061985Y49121045D01*
X65061985Y49511521D02*
X65061985Y49667712D01*
X65061985Y49667712D02*
X65022938Y49745807D01*
X65022938Y49745807D02*
X64983890Y49784855D01*
X64983890Y49784855D02*
X64866747Y49862950D01*
X64866747Y49862950D02*
X64710557Y49901997D01*
X64710557Y49901997D02*
X64398176Y49901997D01*
X64398176Y49901997D02*
X64320080Y49862950D01*
X64320080Y49862950D02*
X64281033Y49823902D01*
X64281033Y49823902D02*
X64241985Y49745807D01*
X64241985Y49745807D02*
X64241985Y49589616D01*
X64241985Y49589616D02*
X64281033Y49511521D01*
X64281033Y49511521D02*
X64320080Y49472474D01*
X64320080Y49472474D02*
X64398176Y49433426D01*
X64398176Y49433426D02*
X64593414Y49433426D01*
X64593414Y49433426D02*
X64671509Y49472474D01*
X64671509Y49472474D02*
X64710557Y49511521D01*
X64710557Y49511521D02*
X64749604Y49589616D01*
X64749604Y49589616D02*
X64749604Y49745807D01*
X64749604Y49745807D02*
X64710557Y49823902D01*
X64710557Y49823902D02*
X64671509Y49862950D01*
X64671509Y49862950D02*
X64593414Y49901997D01*
D13*
X40286905Y66845181D02*
X40286905Y67845181D01*
X40286905Y67845181D02*
X40525000Y67845181D01*
X40525000Y67845181D02*
X40667857Y67797562D01*
X40667857Y67797562D02*
X40763095Y67702324D01*
X40763095Y67702324D02*
X40810714Y67607086D01*
X40810714Y67607086D02*
X40858333Y67416610D01*
X40858333Y67416610D02*
X40858333Y67273753D01*
X40858333Y67273753D02*
X40810714Y67083277D01*
X40810714Y67083277D02*
X40763095Y66988039D01*
X40763095Y66988039D02*
X40667857Y66892800D01*
X40667857Y66892800D02*
X40525000Y66845181D01*
X40525000Y66845181D02*
X40286905Y66845181D01*
X41715476Y67845181D02*
X41525000Y67845181D01*
X41525000Y67845181D02*
X41429762Y67797562D01*
X41429762Y67797562D02*
X41382143Y67749943D01*
X41382143Y67749943D02*
X41286905Y67607086D01*
X41286905Y67607086D02*
X41239286Y67416610D01*
X41239286Y67416610D02*
X41239286Y67035658D01*
X41239286Y67035658D02*
X41286905Y66940420D01*
X41286905Y66940420D02*
X41334524Y66892800D01*
X41334524Y66892800D02*
X41429762Y66845181D01*
X41429762Y66845181D02*
X41620238Y66845181D01*
X41620238Y66845181D02*
X41715476Y66892800D01*
X41715476Y66892800D02*
X41763095Y66940420D01*
X41763095Y66940420D02*
X41810714Y67035658D01*
X41810714Y67035658D02*
X41810714Y67273753D01*
X41810714Y67273753D02*
X41763095Y67368991D01*
X41763095Y67368991D02*
X41715476Y67416610D01*
X41715476Y67416610D02*
X41620238Y67464229D01*
X41620238Y67464229D02*
X41429762Y67464229D01*
X41429762Y67464229D02*
X41334524Y67416610D01*
X41334524Y67416610D02*
X41286905Y67368991D01*
X41286905Y67368991D02*
X41239286Y67273753D01*
X61153571Y37949943D02*
X61058333Y37997562D01*
X61058333Y37997562D02*
X60963095Y38092800D01*
X60963095Y38092800D02*
X60820238Y38235658D01*
X60820238Y38235658D02*
X60725000Y38283277D01*
X60725000Y38283277D02*
X60629762Y38283277D01*
X60677381Y38045181D02*
X60582143Y38092800D01*
X60582143Y38092800D02*
X60486905Y38188039D01*
X60486905Y38188039D02*
X60439286Y38378515D01*
X60439286Y38378515D02*
X60439286Y38711848D01*
X60439286Y38711848D02*
X60486905Y38902324D01*
X60486905Y38902324D02*
X60582143Y38997562D01*
X60582143Y38997562D02*
X60677381Y39045181D01*
X60677381Y39045181D02*
X60867857Y39045181D01*
X60867857Y39045181D02*
X60963095Y38997562D01*
X60963095Y38997562D02*
X61058333Y38902324D01*
X61058333Y38902324D02*
X61105952Y38711848D01*
X61105952Y38711848D02*
X61105952Y38378515D01*
X61105952Y38378515D02*
X61058333Y38188039D01*
X61058333Y38188039D02*
X60963095Y38092800D01*
X60963095Y38092800D02*
X60867857Y38045181D01*
X60867857Y38045181D02*
X60677381Y38045181D01*
X62058333Y38045181D02*
X61486905Y38045181D01*
X61772619Y38045181D02*
X61772619Y39045181D01*
X61772619Y39045181D02*
X61677381Y38902324D01*
X61677381Y38902324D02*
X61582143Y38807086D01*
X61582143Y38807086D02*
X61486905Y38759467D01*
X62963095Y39045181D02*
X62486905Y39045181D01*
X62486905Y39045181D02*
X62439286Y38568991D01*
X62439286Y38568991D02*
X62486905Y38616610D01*
X62486905Y38616610D02*
X62582143Y38664229D01*
X62582143Y38664229D02*
X62820238Y38664229D01*
X62820238Y38664229D02*
X62915476Y38616610D01*
X62915476Y38616610D02*
X62963095Y38568991D01*
X62963095Y38568991D02*
X63010714Y38473753D01*
X63010714Y38473753D02*
X63010714Y38235658D01*
X63010714Y38235658D02*
X62963095Y38140420D01*
X62963095Y38140420D02*
X62915476Y38092800D01*
X62915476Y38092800D02*
X62820238Y38045181D01*
X62820238Y38045181D02*
X62582143Y38045181D01*
X62582143Y38045181D02*
X62486905Y38092800D01*
X62486905Y38092800D02*
X62439286Y38140420D01*
D12*
X50894163Y55020202D02*
X50692668Y54588250D01*
X51128449Y54614407D02*
X50418308Y54204407D01*
X50418308Y54204407D02*
X50262118Y54474937D01*
X50262118Y54474937D02*
X50256886Y54562093D01*
X50256886Y54562093D02*
X50271179Y54615433D01*
X50271179Y54615433D02*
X50319287Y54688297D01*
X50319287Y54688297D02*
X50420736Y54746868D01*
X50420736Y54746868D02*
X50507892Y54752100D01*
X50507892Y54752100D02*
X50561232Y54737807D01*
X50561232Y54737807D02*
X50634096Y54689699D01*
X50634096Y54689699D02*
X50790287Y54419169D01*
X50095464Y54919779D02*
X50042124Y54934072D01*
X50042124Y54934072D02*
X49969260Y54982180D01*
X49969260Y54982180D02*
X49871641Y55151261D01*
X49871641Y55151261D02*
X49866410Y55238418D01*
X49866410Y55238418D02*
X49880702Y55291758D01*
X49880702Y55291758D02*
X49928811Y55364622D01*
X49928811Y55364622D02*
X49996444Y55403669D01*
X49996444Y55403669D02*
X50117416Y55428424D01*
X50117416Y55428424D02*
X50757497Y55256915D01*
X50757497Y55256915D02*
X50503687Y55696526D01*
X50113211Y56372851D02*
X50347497Y55967056D01*
X50230354Y56169953D02*
X49520213Y55759953D01*
X49520213Y55759953D02*
X49660709Y55750892D01*
X49660709Y55750892D02*
X49767389Y55722307D01*
X49767389Y55722307D02*
X49840253Y55674199D01*
D13*
X45103571Y66699943D02*
X45008333Y66747562D01*
X45008333Y66747562D02*
X44913095Y66842800D01*
X44913095Y66842800D02*
X44770238Y66985658D01*
X44770238Y66985658D02*
X44675000Y67033277D01*
X44675000Y67033277D02*
X44579762Y67033277D01*
X44627381Y66795181D02*
X44532143Y66842800D01*
X44532143Y66842800D02*
X44436905Y66938039D01*
X44436905Y66938039D02*
X44389286Y67128515D01*
X44389286Y67128515D02*
X44389286Y67461848D01*
X44389286Y67461848D02*
X44436905Y67652324D01*
X44436905Y67652324D02*
X44532143Y67747562D01*
X44532143Y67747562D02*
X44627381Y67795181D01*
X44627381Y67795181D02*
X44817857Y67795181D01*
X44817857Y67795181D02*
X44913095Y67747562D01*
X44913095Y67747562D02*
X45008333Y67652324D01*
X45008333Y67652324D02*
X45055952Y67461848D01*
X45055952Y67461848D02*
X45055952Y67128515D01*
X45055952Y67128515D02*
X45008333Y66938039D01*
X45008333Y66938039D02*
X44913095Y66842800D01*
X44913095Y66842800D02*
X44817857Y66795181D01*
X44817857Y66795181D02*
X44627381Y66795181D01*
X46008333Y66795181D02*
X45436905Y66795181D01*
X45722619Y66795181D02*
X45722619Y67795181D01*
X45722619Y67795181D02*
X45627381Y67652324D01*
X45627381Y67652324D02*
X45532143Y67557086D01*
X45532143Y67557086D02*
X45436905Y67509467D01*
X46960714Y66795181D02*
X46389286Y66795181D01*
X46675000Y66795181D02*
X46675000Y67795181D01*
X46675000Y67795181D02*
X46579762Y67652324D01*
X46579762Y67652324D02*
X46484524Y67557086D01*
X46484524Y67557086D02*
X46389286Y67509467D01*
D11*
X111721768Y43796001D02*
X111721768Y43542001D01*
X112120911Y43542001D02*
X111358911Y43542001D01*
X111358911Y43542001D02*
X111358911Y43904858D01*
X111431483Y44158858D02*
X111395197Y44195144D01*
X111395197Y44195144D02*
X111358911Y44267715D01*
X111358911Y44267715D02*
X111358911Y44449144D01*
X111358911Y44449144D02*
X111395197Y44521715D01*
X111395197Y44521715D02*
X111431483Y44558001D01*
X111431483Y44558001D02*
X111504054Y44594287D01*
X111504054Y44594287D02*
X111576626Y44594287D01*
X111576626Y44594287D02*
X111685483Y44558001D01*
X111685483Y44558001D02*
X112120911Y44122573D01*
X112120911Y44122573D02*
X112120911Y44594287D01*
D13*
X142771466Y53674221D02*
X142771466Y53107033D01*
X142771466Y53107033D02*
X142804830Y53040305D01*
X142804830Y53040305D02*
X142838194Y53006941D01*
X142838194Y53006941D02*
X142904922Y52973578D01*
X142904922Y52973578D02*
X143038378Y52973578D01*
X143038378Y52973578D02*
X143105106Y53006941D01*
X143105106Y53006941D02*
X143138470Y53040305D01*
X143138470Y53040305D02*
X143171834Y53107033D01*
X143171834Y53107033D02*
X143171834Y53674221D01*
X143472109Y53607493D02*
X143505473Y53640857D01*
X143505473Y53640857D02*
X143572201Y53674221D01*
X143572201Y53674221D02*
X143739021Y53674221D01*
X143739021Y53674221D02*
X143805749Y53640857D01*
X143805749Y53640857D02*
X143839113Y53607493D01*
X143839113Y53607493D02*
X143872477Y53540765D01*
X143872477Y53540765D02*
X143872477Y53474037D01*
X143872477Y53474037D02*
X143839113Y53373945D01*
X143839113Y53373945D02*
X143438745Y52973578D01*
X143438745Y52973578D02*
X143872477Y52973578D01*
D14*
X39149318Y-7468332D02*
X40056461Y-7468332D01*
X40056461Y-7468332D02*
X40237889Y-7528809D01*
X40237889Y-7528809D02*
X40358842Y-7649761D01*
X40358842Y-7649761D02*
X40419318Y-7831190D01*
X40419318Y-7831190D02*
X40419318Y-7952142D01*
X40419318Y-6198332D02*
X40419318Y-6924047D01*
X40419318Y-6561190D02*
X39149318Y-6561190D01*
X39149318Y-6561190D02*
X39330746Y-6682142D01*
X39330746Y-6682142D02*
X39451699Y-6803094D01*
X39451699Y-6803094D02*
X39512175Y-6924047D01*
D13*
X983903Y47016259D02*
X977523Y47122547D01*
X977523Y47122547D02*
X1012383Y47252644D01*
X1012383Y47252644D02*
X1064672Y47447791D01*
X1064672Y47447791D02*
X1058292Y47554079D01*
X1058292Y47554079D02*
X1010673Y47636558D01*
X828286Y47476271D02*
X821907Y47582559D01*
X821907Y47582559D02*
X856766Y47712656D01*
X856766Y47712656D02*
X997914Y47849134D01*
X997914Y47849134D02*
X1286589Y48015800D01*
X1286589Y48015800D02*
X1475356Y48069799D01*
X1475356Y48069799D02*
X1605453Y48034940D01*
X1605453Y48034940D02*
X1694312Y47976271D01*
X1694312Y47976271D02*
X1789550Y47811313D01*
X1789550Y47811313D02*
X1795930Y47705025D01*
X1795930Y47705025D02*
X1761070Y47574928D01*
X1761070Y47574928D02*
X1619922Y47438450D01*
X1619922Y47438450D02*
X1331247Y47271784D01*
X1331247Y47271784D02*
X1142480Y47217785D01*
X1142480Y47217785D02*
X1012383Y47252644D01*
X1012383Y47252644D02*
X923524Y47311313D01*
X923524Y47311313D02*
X828286Y47476271D01*
X2016595Y47227583D02*
X2081644Y47210154D01*
X2081644Y47210154D02*
X2170502Y47151485D01*
X2170502Y47151485D02*
X2289550Y46945288D01*
X2289550Y46945288D02*
X2295930Y46839000D01*
X2295930Y46839000D02*
X2278500Y46773951D01*
X2278500Y46773951D02*
X2219831Y46685093D01*
X2219831Y46685093D02*
X2137352Y46637474D01*
X2137352Y46637474D02*
X1989825Y46607284D01*
X1989825Y46607284D02*
X1209239Y46816442D01*
X1209239Y46816442D02*
X1518763Y46280331D01*
D11*
X124079328Y43536463D02*
X123899723Y43356858D01*
X124181959Y43074621D02*
X123643144Y43613437D01*
X123643144Y43613437D02*
X123899723Y43870015D01*
X124926038Y43818700D02*
X124618143Y43510805D01*
X124772090Y43664752D02*
X124233275Y44203568D01*
X124233275Y44203568D02*
X124258933Y44075278D01*
X124258933Y44075278D02*
X124258933Y43972647D01*
X124258933Y43972647D02*
X124233275Y43895673D01*
D12*
X112861985Y54640093D02*
X112471509Y54366760D01*
X112861985Y54171522D02*
X112041985Y54171522D01*
X112041985Y54171522D02*
X112041985Y54483903D01*
X112041985Y54483903D02*
X112081033Y54561998D01*
X112081033Y54561998D02*
X112120080Y54601045D01*
X112120080Y54601045D02*
X112198176Y54640093D01*
X112198176Y54640093D02*
X112315318Y54640093D01*
X112315318Y54640093D02*
X112393414Y54601045D01*
X112393414Y54601045D02*
X112432461Y54561998D01*
X112432461Y54561998D02*
X112471509Y54483903D01*
X112471509Y54483903D02*
X112471509Y54171522D01*
X112041985Y54913426D02*
X112041985Y55421045D01*
X112041985Y55421045D02*
X112354366Y55147712D01*
X112354366Y55147712D02*
X112354366Y55264855D01*
X112354366Y55264855D02*
X112393414Y55342950D01*
X112393414Y55342950D02*
X112432461Y55381998D01*
X112432461Y55381998D02*
X112510557Y55421045D01*
X112510557Y55421045D02*
X112705795Y55421045D01*
X112705795Y55421045D02*
X112783890Y55381998D01*
X112783890Y55381998D02*
X112822938Y55342950D01*
X112822938Y55342950D02*
X112861985Y55264855D01*
X112861985Y55264855D02*
X112861985Y55030569D01*
X112861985Y55030569D02*
X112822938Y54952474D01*
X112822938Y54952474D02*
X112783890Y54913426D01*
X52194163Y46370202D02*
X51992668Y45938250D01*
X52428449Y45964407D02*
X51718308Y45554407D01*
X51718308Y45554407D02*
X51562118Y45824937D01*
X51562118Y45824937D02*
X51556886Y45912093D01*
X51556886Y45912093D02*
X51571179Y45965433D01*
X51571179Y45965433D02*
X51619287Y46038297D01*
X51619287Y46038297D02*
X51720736Y46096868D01*
X51720736Y46096868D02*
X51807892Y46102100D01*
X51807892Y46102100D02*
X51861232Y46087807D01*
X51861232Y46087807D02*
X51934096Y46039699D01*
X51934096Y46039699D02*
X52090287Y45769169D01*
X51395464Y46269779D02*
X51342124Y46284072D01*
X51342124Y46284072D02*
X51269260Y46332180D01*
X51269260Y46332180D02*
X51171641Y46501261D01*
X51171641Y46501261D02*
X51166410Y46588418D01*
X51166410Y46588418D02*
X51180702Y46641758D01*
X51180702Y46641758D02*
X51228811Y46714622D01*
X51228811Y46714622D02*
X51296444Y46753669D01*
X51296444Y46753669D02*
X51417416Y46778424D01*
X51417416Y46778424D02*
X52057497Y46606915D01*
X52057497Y46606915D02*
X51803687Y47046526D01*
X51004988Y46946103D02*
X50951648Y46960396D01*
X50951648Y46960396D02*
X50878784Y47008505D01*
X50878784Y47008505D02*
X50781165Y47177586D01*
X50781165Y47177586D02*
X50775934Y47264742D01*
X50775934Y47264742D02*
X50790226Y47318082D01*
X50790226Y47318082D02*
X50838335Y47390946D01*
X50838335Y47390946D02*
X50905968Y47429993D01*
X50905968Y47429993D02*
X51026940Y47454749D01*
X51026940Y47454749D02*
X51667021Y47283240D01*
X51667021Y47283240D02*
X51413211Y47722851D01*
X135865092Y10713015D02*
X135591759Y11103491D01*
X135396521Y10713015D02*
X135396521Y11533015D01*
X135396521Y11533015D02*
X135708902Y11533015D01*
X135708902Y11533015D02*
X135786997Y11493967D01*
X135786997Y11493967D02*
X135826044Y11454920D01*
X135826044Y11454920D02*
X135865092Y11376824D01*
X135865092Y11376824D02*
X135865092Y11259682D01*
X135865092Y11259682D02*
X135826044Y11181586D01*
X135826044Y11181586D02*
X135786997Y11142539D01*
X135786997Y11142539D02*
X135708902Y11103491D01*
X135708902Y11103491D02*
X135396521Y11103491D01*
X136138425Y11533015D02*
X136685092Y11533015D01*
X136685092Y11533015D02*
X136333663Y10713015D01*
D15*
G04 #@! TO.C,R4*
X117549000Y14350000D02*
X116533000Y14350000D01*
X116533000Y15950000D02*
X117549000Y15950000D01*
X115517000Y14350000D02*
X114501000Y14350000D01*
X114501000Y15950000D02*
X115517000Y15950000D01*
D16*
X117600000Y14350000D02*
G75*
G03*
X117608602Y15953494I330000J800000D01*
G01*
X114446000Y15951638D02*
G75*
G03*
X114450000Y14350000I-326000J-801638D01*
G01*
D17*
G04 #@! TO.C,R1*
X142404160Y55251056D02*
X142404149Y54851057D01*
X143149995Y55250000D02*
X143149985Y54850000D01*
D16*
G04 #@! TO.C,Q14*
X68375000Y31340000D02*
X62365000Y31340000D01*
X66125000Y38160000D02*
X62365000Y38160000D01*
X62365000Y31340000D02*
X62365000Y32600000D01*
X62365000Y38160000D02*
X62365000Y36900000D01*
D18*
G04 #@! TO.C,J4*
X68355000Y-24190000D02*
X103535000Y-24190000D01*
X103535000Y-24190000D02*
X103535000Y-20395000D01*
X65155000Y-20395000D02*
X68355000Y-20395000D01*
X68355000Y-20395000D02*
X68355000Y-24190000D01*
X103535000Y-20395000D02*
X106735000Y-20395000D01*
X106735000Y-20395000D02*
X106735000Y-7045000D01*
X65155000Y-7045000D02*
X65155000Y-20395000D01*
X68355000Y-7045000D02*
X65155000Y-7045000D01*
X103535000Y-7045000D02*
X103535000Y3650000D01*
X106735000Y-7045000D02*
X103535000Y-7045000D01*
X67745000Y3650000D02*
X68355000Y3650000D01*
X68355000Y3650000D02*
X68355000Y-7045000D01*
X103535000Y3650000D02*
X104145000Y3650000D01*
X104145000Y3650000D02*
X104145000Y3650000D01*
X67745000Y8100000D02*
X67745000Y8100000D01*
X68355000Y8100000D02*
X67745000Y8100000D01*
X103535000Y8100000D02*
X103535000Y10100000D01*
X104145000Y8100000D02*
X103535000Y8100000D01*
X68355000Y10100000D02*
X68355000Y8100000D01*
X85945000Y10100000D02*
X68355000Y10100000D01*
X103535000Y10100000D02*
X85945000Y10100000D01*
D19*
X74835000Y10600000D02*
X74835000Y10600000D01*
X74835000Y10700000D02*
X74835000Y10700000D01*
D18*
X67745000Y8100000D02*
G75*
G03*
X67745000Y3650000I0J-2225000D01*
G01*
X104145000Y3650000D02*
G75*
G03*
X104145000Y8100000I0J2225000D01*
G01*
D19*
X74835000Y10700000D02*
G75*
G03*
X74835000Y10600000I0J-50000D01*
G01*
X74835000Y10600000D02*
G75*
G03*
X74835000Y10700000I0J50000D01*
G01*
D16*
G04 #@! TO.C,Q8*
X50178147Y48005704D02*
X53183147Y42800891D01*
X45396853Y42647147D02*
X47276853Y39390891D01*
X53183147Y42800891D02*
X52091955Y42170891D01*
X47276853Y39390891D02*
X48368045Y40020891D01*
G04 #@! TO.C,G3*
D20*
X58903460Y18890100D02*
X59205720Y18874860D01*
X59434320Y18839300D01*
X59642600Y18773260D01*
X59878820Y18666580D01*
X59965180Y18623400D01*
X60501120Y18285580D01*
X61004040Y17838540D01*
X61412980Y17333080D01*
X61481560Y17221320D01*
X61672060Y16903820D01*
X61164060Y16903820D01*
X60851640Y16891120D01*
X60673840Y16845400D01*
X60610340Y16779360D01*
X60625580Y16670140D01*
X60696700Y16652360D01*
X60788140Y16609180D01*
X60790680Y16456780D01*
X60783060Y16418680D01*
X60747500Y16235800D01*
X60694160Y15936080D01*
X60625580Y15567780D01*
X60587480Y15346800D01*
X60508740Y14945480D01*
X60440160Y14683860D01*
X60371580Y14534000D01*
X60295380Y14473040D01*
X60285220Y14470500D01*
X60272520Y14465420D01*
X60140440Y14409540D01*
X60148060Y14351120D01*
X60287760Y14305400D01*
X60544300Y14282540D01*
X60640820Y14280000D01*
X60912600Y14292700D01*
X61095480Y14325720D01*
X61148820Y14363820D01*
X61080240Y14440020D01*
X61021820Y14450180D01*
X60960860Y14455260D01*
X60922760Y14485740D01*
X60912600Y14567020D01*
X60927840Y14727040D01*
X60971020Y14988660D01*
X61047220Y15377280D01*
X61098020Y15631280D01*
X61202160Y16113880D01*
X61298680Y16444080D01*
X61379960Y16614260D01*
X61410440Y16637120D01*
X61557760Y16731100D01*
X61588240Y16766660D01*
X61651740Y16774280D01*
X61725400Y16642200D01*
X61799060Y16400900D01*
X61860020Y16083400D01*
X61877800Y15946240D01*
X61875260Y15250280D01*
X61720320Y14559400D01*
X61420600Y13906620D01*
X60991340Y13330040D01*
X60838940Y13172560D01*
X60325860Y12756000D01*
X59800080Y12479140D01*
X59213340Y12324200D01*
X58652000Y12275940D01*
X58057640Y12281020D01*
X57597900Y12349600D01*
X57468360Y12385160D01*
X56790180Y12687420D01*
X56203440Y13131920D01*
X55705600Y13718660D01*
X55416040Y14203800D01*
X55337891Y14363820D01*
X55604000Y14363820D01*
X55659880Y14325720D01*
X55875780Y14297780D01*
X56246620Y14282540D01*
X56571740Y14280000D01*
X57592820Y14280000D01*
X57592820Y14363820D01*
X57933180Y14363820D01*
X58009380Y14320640D01*
X58210040Y14290160D01*
X58441180Y14280000D01*
X58710420Y14292700D01*
X58893300Y14325720D01*
X58949180Y14363820D01*
X58878060Y14437480D01*
X58812020Y14450180D01*
X58730740Y14475580D01*
X58705340Y14582260D01*
X58728200Y14808320D01*
X58733280Y14841340D01*
X58779000Y15102960D01*
X58822180Y15301080D01*
X58837420Y15349340D01*
X58933940Y15420460D01*
X59109200Y15461100D01*
X59299700Y15461100D01*
X59431780Y15423000D01*
X59457180Y15379820D01*
X59497820Y15290920D01*
X59591800Y15308700D01*
X59690860Y15412840D01*
X59734040Y15529680D01*
X59754360Y15743040D01*
X59703560Y15804000D01*
X59607040Y15735420D01*
X59457180Y15666840D01*
X59233660Y15636360D01*
X59215880Y15633820D01*
X58926320Y15633820D01*
X58984740Y16075780D01*
X59025380Y16337400D01*
X59066020Y16527900D01*
X59083800Y16583780D01*
X59185400Y16619340D01*
X59403840Y16644740D01*
X59596880Y16649820D01*
X59866120Y16642200D01*
X59998200Y16611720D01*
X60026140Y16550760D01*
X60018520Y16525360D01*
X60028680Y16413600D01*
X60084560Y16395820D01*
X60176000Y16472020D01*
X60234420Y16647280D01*
X60236960Y16649820D01*
X60272520Y16903820D01*
X59314940Y16903820D01*
X58890760Y16901280D01*
X58608820Y16888580D01*
X58443720Y16863180D01*
X58370060Y16822540D01*
X58354820Y16776820D01*
X58423400Y16665060D01*
X58481820Y16649820D01*
X58540240Y16654900D01*
X58578340Y16647280D01*
X58593580Y16604100D01*
X58585960Y16499960D01*
X58550400Y16304380D01*
X58489440Y15997040D01*
X58398000Y15550000D01*
X58316720Y15153760D01*
X58250680Y14821020D01*
X58204960Y14587340D01*
X58187180Y14483200D01*
X58187180Y14480660D01*
X58116060Y14452720D01*
X58060180Y14450180D01*
X57986520Y14422240D01*
X57945880Y14404460D01*
X57933180Y14363820D01*
X57592820Y14363820D01*
X57592820Y14534000D01*
X57554720Y14737200D01*
X57465820Y14788000D01*
X57354060Y14724500D01*
X57338820Y14668620D01*
X57265160Y14600040D01*
X57079740Y14531460D01*
X56846060Y14478120D01*
X56620000Y14450180D01*
X56462520Y14462880D01*
X56434580Y14480660D01*
X56419340Y14582260D01*
X56426960Y14800700D01*
X56447280Y14996280D01*
X56505700Y15466180D01*
X56838440Y15466180D01*
X57046720Y15445860D01*
X57163560Y15392520D01*
X57171180Y15374740D01*
X57204200Y15290920D01*
X57280400Y15326480D01*
X57369300Y15445860D01*
X57432800Y15618580D01*
X57432800Y15621120D01*
X57450580Y15814160D01*
X57394700Y15887820D01*
X57371840Y15887820D01*
X57265160Y15839560D01*
X57255000Y15804000D01*
X57178800Y15750660D01*
X56993380Y15720180D01*
X56929880Y15720180D01*
X56607300Y15720180D01*
X56691120Y16185000D01*
X56774940Y16652360D01*
X57277860Y16649820D01*
X57559800Y16644740D01*
X57704580Y16616800D01*
X57740140Y16558380D01*
X57732520Y16522820D01*
X57742680Y16413600D01*
X57798560Y16395820D01*
X57890000Y16472020D01*
X57948420Y16647280D01*
X57950960Y16649820D01*
X57986520Y16903820D01*
X57028940Y16903820D01*
X56604760Y16901280D01*
X56322820Y16888580D01*
X56157720Y16863180D01*
X56084060Y16822540D01*
X56068820Y16776820D01*
X56137400Y16667600D01*
X56200900Y16649820D01*
X56297420Y16593940D01*
X56292340Y16502500D01*
X56259320Y16362800D01*
X56200900Y16096100D01*
X56129780Y15745580D01*
X56061200Y15402680D01*
X55959600Y14925160D01*
X55868160Y14610200D01*
X55791960Y14462880D01*
X55766560Y14450180D01*
X55626860Y14391760D01*
X55604000Y14363820D01*
X55337891Y14363820D01*
X55309360Y14422240D01*
X55240780Y14620360D01*
X55202680Y14841340D01*
X55184900Y15130900D01*
X55179820Y15539840D01*
X55179820Y15593180D01*
X55184900Y16017360D01*
X55200140Y16322160D01*
X55238240Y16553300D01*
X55304280Y16761580D01*
X55408420Y16992720D01*
X55423660Y17018120D01*
X55756400Y17546440D01*
X56208520Y18044280D01*
X56726680Y18455760D01*
X57049260Y18643720D01*
X57288020Y18752940D01*
X57493760Y18826600D01*
X57719820Y18867240D01*
X58009380Y18887560D01*
X58415780Y18892640D01*
X58484360Y18892640D01*
X58903460Y18890100D01*
G36*
X58903460Y18890100D02*
G01*
X59205720Y18874860D01*
X59434320Y18839300D01*
X59642600Y18773260D01*
X59878820Y18666580D01*
X59965180Y18623400D01*
X60501120Y18285580D01*
X61004040Y17838540D01*
X61412980Y17333080D01*
X61481560Y17221320D01*
X61672060Y16903820D01*
X61164060Y16903820D01*
X60851640Y16891120D01*
X60673840Y16845400D01*
X60610340Y16779360D01*
X60625580Y16670140D01*
X60696700Y16652360D01*
X60788140Y16609180D01*
X60790680Y16456780D01*
X60783060Y16418680D01*
X60747500Y16235800D01*
X60694160Y15936080D01*
X60625580Y15567780D01*
X60587480Y15346800D01*
X60508740Y14945480D01*
X60440160Y14683860D01*
X60371580Y14534000D01*
X60295380Y14473040D01*
X60285220Y14470500D01*
X60272520Y14465420D01*
X60140440Y14409540D01*
X60148060Y14351120D01*
X60287760Y14305400D01*
X60544300Y14282540D01*
X60640820Y14280000D01*
X60912600Y14292700D01*
X61095480Y14325720D01*
X61148820Y14363820D01*
X61080240Y14440020D01*
X61021820Y14450180D01*
X60960860Y14455260D01*
X60922760Y14485740D01*
X60912600Y14567020D01*
X60927840Y14727040D01*
X60971020Y14988660D01*
X61047220Y15377280D01*
X61098020Y15631280D01*
X61202160Y16113880D01*
X61298680Y16444080D01*
X61379960Y16614260D01*
X61410440Y16637120D01*
X61557760Y16731100D01*
X61588240Y16766660D01*
X61651740Y16774280D01*
X61725400Y16642200D01*
X61799060Y16400900D01*
X61860020Y16083400D01*
X61877800Y15946240D01*
X61875260Y15250280D01*
X61720320Y14559400D01*
X61420600Y13906620D01*
X60991340Y13330040D01*
X60838940Y13172560D01*
X60325860Y12756000D01*
X59800080Y12479140D01*
X59213340Y12324200D01*
X58652000Y12275940D01*
X58057640Y12281020D01*
X57597900Y12349600D01*
X57468360Y12385160D01*
X56790180Y12687420D01*
X56203440Y13131920D01*
X55705600Y13718660D01*
X55416040Y14203800D01*
X55337891Y14363820D01*
X55604000Y14363820D01*
X55659880Y14325720D01*
X55875780Y14297780D01*
X56246620Y14282540D01*
X56571740Y14280000D01*
X57592820Y14280000D01*
X57592820Y14363820D01*
X57933180Y14363820D01*
X58009380Y14320640D01*
X58210040Y14290160D01*
X58441180Y14280000D01*
X58710420Y14292700D01*
X58893300Y14325720D01*
X58949180Y14363820D01*
X58878060Y14437480D01*
X58812020Y14450180D01*
X58730740Y14475580D01*
X58705340Y14582260D01*
X58728200Y14808320D01*
X58733280Y14841340D01*
X58779000Y15102960D01*
X58822180Y15301080D01*
X58837420Y15349340D01*
X58933940Y15420460D01*
X59109200Y15461100D01*
X59299700Y15461100D01*
X59431780Y15423000D01*
X59457180Y15379820D01*
X59497820Y15290920D01*
X59591800Y15308700D01*
X59690860Y15412840D01*
X59734040Y15529680D01*
X59754360Y15743040D01*
X59703560Y15804000D01*
X59607040Y15735420D01*
X59457180Y15666840D01*
X59233660Y15636360D01*
X59215880Y15633820D01*
X58926320Y15633820D01*
X58984740Y16075780D01*
X59025380Y16337400D01*
X59066020Y16527900D01*
X59083800Y16583780D01*
X59185400Y16619340D01*
X59403840Y16644740D01*
X59596880Y16649820D01*
X59866120Y16642200D01*
X59998200Y16611720D01*
X60026140Y16550760D01*
X60018520Y16525360D01*
X60028680Y16413600D01*
X60084560Y16395820D01*
X60176000Y16472020D01*
X60234420Y16647280D01*
X60236960Y16649820D01*
X60272520Y16903820D01*
X59314940Y16903820D01*
X58890760Y16901280D01*
X58608820Y16888580D01*
X58443720Y16863180D01*
X58370060Y16822540D01*
X58354820Y16776820D01*
X58423400Y16665060D01*
X58481820Y16649820D01*
X58540240Y16654900D01*
X58578340Y16647280D01*
X58593580Y16604100D01*
X58585960Y16499960D01*
X58550400Y16304380D01*
X58489440Y15997040D01*
X58398000Y15550000D01*
X58316720Y15153760D01*
X58250680Y14821020D01*
X58204960Y14587340D01*
X58187180Y14483200D01*
X58187180Y14480660D01*
X58116060Y14452720D01*
X58060180Y14450180D01*
X57986520Y14422240D01*
X57945880Y14404460D01*
X57933180Y14363820D01*
X57592820Y14363820D01*
X57592820Y14534000D01*
X57554720Y14737200D01*
X57465820Y14788000D01*
X57354060Y14724500D01*
X57338820Y14668620D01*
X57265160Y14600040D01*
X57079740Y14531460D01*
X56846060Y14478120D01*
X56620000Y14450180D01*
X56462520Y14462880D01*
X56434580Y14480660D01*
X56419340Y14582260D01*
X56426960Y14800700D01*
X56447280Y14996280D01*
X56505700Y15466180D01*
X56838440Y15466180D01*
X57046720Y15445860D01*
X57163560Y15392520D01*
X57171180Y15374740D01*
X57204200Y15290920D01*
X57280400Y15326480D01*
X57369300Y15445860D01*
X57432800Y15618580D01*
X57432800Y15621120D01*
X57450580Y15814160D01*
X57394700Y15887820D01*
X57371840Y15887820D01*
X57265160Y15839560D01*
X57255000Y15804000D01*
X57178800Y15750660D01*
X56993380Y15720180D01*
X56929880Y15720180D01*
X56607300Y15720180D01*
X56691120Y16185000D01*
X56774940Y16652360D01*
X57277860Y16649820D01*
X57559800Y16644740D01*
X57704580Y16616800D01*
X57740140Y16558380D01*
X57732520Y16522820D01*
X57742680Y16413600D01*
X57798560Y16395820D01*
X57890000Y16472020D01*
X57948420Y16647280D01*
X57950960Y16649820D01*
X57986520Y16903820D01*
X57028940Y16903820D01*
X56604760Y16901280D01*
X56322820Y16888580D01*
X56157720Y16863180D01*
X56084060Y16822540D01*
X56068820Y16776820D01*
X56137400Y16667600D01*
X56200900Y16649820D01*
X56297420Y16593940D01*
X56292340Y16502500D01*
X56259320Y16362800D01*
X56200900Y16096100D01*
X56129780Y15745580D01*
X56061200Y15402680D01*
X55959600Y14925160D01*
X55868160Y14610200D01*
X55791960Y14462880D01*
X55766560Y14450180D01*
X55626860Y14391760D01*
X55604000Y14363820D01*
X55337891Y14363820D01*
X55309360Y14422240D01*
X55240780Y14620360D01*
X55202680Y14841340D01*
X55184900Y15130900D01*
X55179820Y15539840D01*
X55179820Y15593180D01*
X55184900Y16017360D01*
X55200140Y16322160D01*
X55238240Y16553300D01*
X55304280Y16761580D01*
X55408420Y16992720D01*
X55423660Y17018120D01*
X55756400Y17546440D01*
X56208520Y18044280D01*
X56726680Y18455760D01*
X57049260Y18643720D01*
X57288020Y18752940D01*
X57493760Y18826600D01*
X57719820Y18867240D01*
X58009380Y18887560D01*
X58415780Y18892640D01*
X58484360Y18892640D01*
X58903460Y18890100D01*
G37*
D17*
G04 #@! TO.C,R8*
X141426056Y10470840D02*
X141026057Y10470851D01*
X141425000Y9725005D02*
X141025000Y9725015D01*
D16*
G04 #@! TO.C,Q10*
X53440290Y27962242D02*
X49190578Y32211954D01*
X56671768Y34375701D02*
X54013046Y37034422D01*
X49190578Y32211954D02*
X50081532Y33102908D01*
X54013046Y37034422D02*
X53122092Y36143468D01*
D17*
G04 #@! TO.C,R32*
X69745840Y27198944D02*
X69745851Y27598943D01*
X69000005Y27200000D02*
X69000015Y27600000D01*
D18*
G04 #@! TO.C,M2*
X155799999Y17525000D02*
X155799999Y26625000D01*
X158900002Y17525000D02*
X157900000Y17525000D01*
X158900002Y17525000D02*
X158900002Y26625000D01*
G04 #@! TO.C,M3*
X85950000Y56825000D02*
X85950000Y63225000D01*
X85950000Y66425000D02*
X85950000Y65125000D01*
X85950000Y66425000D02*
X70950000Y66425000D01*
X71550000Y56825000D02*
X85950000Y56825000D01*
X70950000Y66425000D02*
X70950000Y61325000D01*
D17*
G04 #@! TO.C,R2*
X112095840Y56448944D02*
X112095851Y56848943D01*
X111350005Y56450000D02*
X111350015Y56850000D01*
G04 #@! TO.C,R31*
X67995840Y39198944D02*
X67995851Y39598943D01*
X67250005Y39200000D02*
X67250015Y39600000D01*
G04 #@! TO.C,R23*
X40453315Y47088700D02*
X40653305Y46742285D01*
X41099755Y47460703D02*
X41299747Y47114287D01*
D16*
G04 #@! TO.C,Q16*
X67385000Y29400000D02*
X67385000Y23390000D01*
X60565000Y27150000D02*
X60565000Y23390000D01*
X67385000Y23390000D02*
X66125000Y23390000D01*
X60565000Y23390000D02*
X61825000Y23390000D01*
G04 #@! TO.C,Q9*
X42428147Y45755704D02*
X45433147Y40550891D01*
X37646853Y40397147D02*
X39526853Y37140891D01*
X45433147Y40550891D02*
X44341955Y39920891D01*
X39526853Y37140891D02*
X40618045Y37770891D01*
D18*
G04 #@! TO.C,M7*
X17850000Y8925000D02*
X3950000Y8925000D01*
X3950000Y8925000D02*
X3950000Y36425000D01*
X3950000Y36425000D02*
X17850000Y36425000D01*
X17850000Y36425000D02*
X17850000Y8925000D01*
G04 #@! TO.C,M1*
X128349999Y35825001D02*
X131550002Y35825001D01*
X116249999Y35825001D02*
X126650001Y35825001D01*
X114349999Y35825001D02*
X114649999Y35825001D01*
X114349999Y35825001D02*
X114349999Y20425001D01*
X134949997Y34325001D02*
X134949999Y19025002D01*
X128250001Y19025004D02*
X133050001Y19025004D01*
X122049999Y19025004D02*
X124749999Y19025004D01*
X119350001Y19025004D02*
X120450004Y19025004D01*
X115799999Y19025004D02*
X117349999Y19024999D01*
X134650001Y19025002D02*
X134949999Y19025002D01*
D16*
G04 #@! TO.C,Q13*
X64125000Y48590000D02*
X58115000Y48590000D01*
X61875000Y55410000D02*
X58115000Y55410000D01*
X58115000Y48590000D02*
X58115000Y49850000D01*
X58115000Y55410000D02*
X58115000Y54150000D01*
D17*
G04 #@! TO.C,R26*
X36245840Y69698944D02*
X36245851Y70098943D01*
X35500005Y69700000D02*
X35500015Y70100000D01*
D18*
G04 #@! TO.C,C1*
X138325014Y20100000D02*
X139074999Y20100000D01*
D16*
G04 #@! TO.C,Q7*
X48628147Y57705704D02*
X51633147Y52500891D01*
X43846853Y52347147D02*
X45726853Y49090891D01*
X51633147Y52500891D02*
X50541955Y51870891D01*
X45726853Y49090891D02*
X46818045Y49720891D01*
D17*
G04 #@! TO.C,R30*
X70373944Y35629160D02*
X70773943Y35629149D01*
X70375000Y36374995D02*
X70775000Y36374985D01*
G04 #@! TO.C,R24*
X51245055Y27045608D02*
X51527905Y27328443D01*
X50718417Y27573740D02*
X51001267Y27856576D01*
D18*
G04 #@! TO.C,M4*
X139000000Y45875000D02*
X139000000Y52275000D01*
X139000000Y55475000D02*
X139000000Y54175000D01*
X139000000Y55475000D02*
X124000000Y55475000D01*
X124600000Y45875000D02*
X139000000Y45875000D01*
X124000000Y55475000D02*
X124000000Y50375000D01*
D16*
G04 #@! TO.C,P3*
X133045000Y39620000D02*
X135705000Y39620000D01*
X135705000Y39914462D02*
X135705000Y39620000D01*
X133045000Y39925627D02*
X133045000Y39620000D01*
X135705000Y41974373D02*
X135705000Y42280000D01*
X133045000Y41985538D02*
X133045000Y42280000D01*
X135705000Y42280000D02*
X133045000Y42280000D01*
G04 #@! TO.C,J9*
X134045000Y6000000D02*
X134045000Y4080000D01*
X134045000Y365000D02*
X134045000Y2070000D01*
X143205000Y4080000D02*
X143205000Y6000000D01*
X143205000Y2070000D02*
X143205000Y365000D01*
X143205000Y365000D02*
X134045000Y365000D01*
G04 #@! TO.C,Q3*
X22189023Y44704171D02*
X22422850Y44839171D01*
X22422850Y44839171D02*
X23837850Y42388319D01*
X27930772Y48019171D02*
X28480772Y47066543D01*
X28164599Y48154171D02*
X27930772Y48019171D01*
X18979023Y50264054D02*
X22189023Y44704171D01*
X24954599Y53714054D02*
X28164599Y48154171D01*
G04 #@! TO.C,D7*
X26875000Y70600000D02*
X26875000Y69675000D01*
X26225000Y68590000D02*
X27900000Y68590000D01*
X26225000Y68590000D02*
X25575000Y68590000D01*
X26225000Y71710000D02*
X26875000Y71710000D01*
X26225000Y71710000D02*
X25575000Y71710000D01*
X25475000Y69650000D02*
X25475000Y68590000D01*
X25475000Y71700000D02*
X25475000Y70700000D01*
D17*
G04 #@! TO.C,R5*
X69154160Y57601056D02*
X69154149Y57201057D01*
X69899995Y57600000D02*
X69899985Y57200000D01*
D16*
G04 #@! TO.C,Q1*
X30939023Y46154171D02*
X31172850Y46289171D01*
X31172850Y46289171D02*
X32587850Y43838319D01*
X36680772Y49469171D02*
X37230772Y48516543D01*
X36914599Y49604171D02*
X36680772Y49469171D01*
X27729023Y51714054D02*
X30939023Y46154171D01*
X33704599Y55164054D02*
X36914599Y49604171D01*
D17*
G04 #@! TO.C,R25*
X48795840Y69448944D02*
X48795851Y69848943D01*
X48050005Y69450000D02*
X48050015Y69850000D01*
G04 #@! TO.C,R6*
X158745840Y28448944D02*
X158745851Y28848943D01*
X158000005Y28450000D02*
X158000015Y28850000D01*
D16*
G04 #@! TO.C,Q4*
X13122212Y44967264D02*
X13356039Y45102264D01*
X13356039Y45102264D02*
X14771039Y42651412D01*
X18863961Y48282264D02*
X19413961Y47329636D01*
X19097788Y48417264D02*
X18863961Y48282264D01*
X9912212Y50527147D02*
X13122212Y44967264D01*
X15887788Y53977147D02*
X19097788Y48417264D01*
G04 #@! TO.C,Q12*
X32612500Y70550000D02*
X32612500Y69625000D01*
X31962500Y68540000D02*
X33637500Y68540000D01*
X31962500Y68540000D02*
X31312500Y68540000D01*
X31962500Y71660000D02*
X32612500Y71660000D01*
X31962500Y71660000D02*
X31312500Y71660000D01*
X31212500Y69600000D02*
X31212500Y68540000D01*
X31212500Y71650000D02*
X31212500Y70650000D01*
G04 #@! TO.C,P4*
X136825000Y39620000D02*
X139485000Y39620000D01*
X139485000Y39914462D02*
X139485000Y39620000D01*
X136825000Y39925627D02*
X136825000Y39620000D01*
X139485000Y41974373D02*
X139485000Y42280000D01*
X136825000Y41985538D02*
X136825000Y42280000D01*
X139485000Y42280000D02*
X136825000Y42280000D01*
D17*
G04 #@! TO.C,R29*
X66195840Y48598944D02*
X66195851Y48998943D01*
X65450005Y48600000D02*
X65450015Y49000000D01*
D16*
G04 #@! TO.C,D6*
X41675000Y70150000D02*
X41675000Y69225000D01*
X41025000Y68140000D02*
X42700000Y68140000D01*
X41025000Y68140000D02*
X40375000Y68140000D01*
X41025000Y71260000D02*
X41675000Y71260000D01*
X41025000Y71260000D02*
X40375000Y71260000D01*
X40275000Y69200000D02*
X40275000Y68140000D01*
X40275000Y71250000D02*
X40275000Y70250000D01*
G04 #@! TO.C,Q15*
X65825000Y39590000D02*
X59815000Y39590000D01*
X63575000Y46410000D02*
X59815000Y46410000D01*
X59815000Y39590000D02*
X59815000Y40850000D01*
X59815000Y46410000D02*
X59815000Y45150000D01*
D17*
G04 #@! TO.C,R21*
X51746685Y55811300D02*
X51546695Y56157715D01*
X51100245Y55439297D02*
X50900253Y55785713D01*
D16*
G04 #@! TO.C,Q11*
X46325000Y70100000D02*
X46325000Y69175000D01*
X45675000Y68090000D02*
X47350000Y68090000D01*
X45675000Y68090000D02*
X45025000Y68090000D01*
X45675000Y71210000D02*
X46325000Y71210000D01*
X45675000Y71210000D02*
X45025000Y71210000D01*
X44925000Y69150000D02*
X44925000Y68090000D01*
X44925000Y71200000D02*
X44925000Y70200000D01*
G04 #@! TO.C,F2*
X113375000Y45050000D02*
X118225000Y45050000D01*
X113375000Y43050000D02*
X118225000Y43050000D01*
X113325000Y45050000D02*
G75*
G03*
X113325000Y43050000I0J-1000000D01*
G01*
X118225000Y43050000D02*
G75*
G03*
X118225000Y45050000I0J1000000D01*
G01*
D18*
G04 #@! TO.C,M6*
X107850005Y19275015D02*
X74049995Y19275015D01*
X107850005Y55075005D02*
X107850005Y19275015D01*
X107850005Y55075005D02*
X74050005Y55075005D01*
X74049995Y55075005D02*
X74049995Y19275015D01*
G04 #@! TO.C,U2*
X140687500Y51975000D02*
X153387500Y51975000D01*
X140687500Y45295000D02*
X140687500Y51975000D01*
X140687500Y25655000D02*
X140687500Y24725000D01*
X140687500Y24725000D02*
X153387500Y24725000D01*
D21*
X143268219Y40500532D02*
X143268219Y40500532D01*
X143268219Y40500532D02*
X143272727Y40678825D01*
X143268219Y35809469D02*
X143268219Y40500532D01*
X143268219Y35809469D02*
X143268219Y35809469D01*
X143272727Y40678825D02*
X143286107Y40854779D01*
X143272727Y35631175D02*
X143268219Y35809469D01*
X143286107Y40854779D02*
X143308140Y41028174D01*
X143286107Y35455222D02*
X143272727Y35631175D01*
X143308140Y41028174D02*
X143338610Y41198793D01*
X143308140Y35281827D02*
X143286107Y35455222D01*
X143338610Y41198793D02*
X143377298Y41366419D01*
X143338610Y35111208D02*
X143308140Y35281827D01*
X143377298Y41366419D02*
X143423986Y41530833D01*
X143377298Y34943582D02*
X143338610Y35111208D01*
X143423986Y41530833D02*
X143478457Y41691818D01*
X143423986Y34779168D02*
X143377298Y34943582D01*
X143478457Y41691818D02*
X143540494Y41849156D01*
X143478457Y34618183D02*
X143423986Y34779168D01*
X143540494Y41849156D02*
X143609878Y42002630D01*
X143540494Y34460844D02*
X143478457Y34618183D01*
X143609878Y42002630D02*
X143686392Y42152022D01*
X143609878Y34307371D02*
X143540494Y34460844D01*
X143686392Y42152022D02*
X143769818Y42297114D01*
X143686392Y34157979D02*
X143609878Y34307371D01*
X143769818Y42297114D02*
X143859938Y42437689D01*
X143769818Y34012887D02*
X143686392Y34157979D01*
X143859938Y42437689D02*
X143956536Y42573528D01*
X143859938Y33872312D02*
X143769818Y34012887D01*
X143956536Y42573528D02*
X144059392Y42704414D01*
X143956536Y33736473D02*
X143859938Y33872312D01*
X144059392Y42704414D02*
X144168290Y42830130D01*
X144059392Y33605587D02*
X143956536Y33736473D01*
X144168290Y42830130D02*
X144283012Y42950457D01*
X144168290Y33479871D02*
X144059392Y33605587D01*
X144283012Y42950457D02*
X144403339Y43065179D01*
X144283012Y33359544D02*
X144168290Y33479871D01*
X144403339Y43065179D02*
X144529055Y43174077D01*
X144403339Y33244822D02*
X144283012Y33359544D01*
X144529055Y43174077D02*
X144659941Y43276933D01*
X144529055Y33135924D02*
X144403339Y33244822D01*
X144659941Y43276933D02*
X144795780Y43373531D01*
X144659941Y33033068D02*
X144529055Y33135924D01*
X144795780Y43373531D02*
X144936355Y43463651D01*
X144795780Y32936471D02*
X144659941Y33033068D01*
X144936355Y43463651D02*
X145081447Y43547077D01*
X144936355Y32846350D02*
X144795780Y32936471D01*
X145081447Y43547077D02*
X145230839Y43623591D01*
X145081447Y32762924D02*
X144936355Y32846350D01*
X145137500Y40036188D02*
X148768906Y36380969D01*
X145230839Y43623591D02*
X145384313Y43692975D01*
X145230839Y32686410D02*
X145081447Y32762924D01*
X145384313Y43692975D02*
X145541651Y43755012D01*
X145384313Y32617026D02*
X145230839Y32686410D01*
X145541651Y43755012D02*
X145702636Y43809483D01*
X145541651Y32554989D02*
X145384313Y32617026D01*
X145702636Y43809483D02*
X145867050Y43856171D01*
X145702636Y32500518D02*
X145541651Y32554989D01*
X145867050Y43856171D02*
X146034676Y43894859D01*
X145867050Y32453830D02*
X145702636Y32500518D01*
X146034676Y43894859D02*
X146205295Y43925329D01*
X146034676Y32415142D02*
X145867050Y32453830D01*
X146205295Y43925329D02*
X146378690Y43947362D01*
X146205295Y32384673D02*
X146034676Y32415142D01*
X146378690Y43947362D02*
X146554644Y43960742D01*
X146378690Y32362639D02*
X146205295Y32384673D01*
X146554644Y43960742D02*
X146732937Y43965250D01*
X146554644Y32349259D02*
X146378690Y32362639D01*
X146732937Y43965250D02*
X146732937Y43965250D01*
X146732937Y43965250D02*
X146732937Y43965250D01*
X146732937Y43965250D02*
X147423500Y43965250D01*
X146732937Y32344751D02*
X146554644Y32349259D01*
X146732937Y32344751D02*
X146732937Y32344751D01*
X147018687Y41834031D02*
X147018687Y41834031D01*
X147018687Y41834031D02*
X148768906Y39809969D01*
X147018687Y34261657D02*
X147018687Y41834031D01*
X147018687Y34261657D02*
X147018687Y34261657D01*
X147423500Y43965250D02*
X147423500Y43965250D01*
X147423500Y43965250D02*
X147601794Y43960742D01*
X147423500Y32344751D02*
X146732937Y32344751D01*
X147423500Y32344751D02*
X147423500Y32344751D01*
X147601794Y43960742D02*
X147777747Y43947362D01*
X147601794Y32349259D02*
X147423500Y32344751D01*
X147777747Y43947362D02*
X147951143Y43925329D01*
X147777747Y32362639D02*
X147601794Y32349259D01*
X147951143Y43925329D02*
X148121762Y43894859D01*
X147951143Y32384673D02*
X147777747Y32362639D01*
X148121762Y43894859D02*
X148289387Y43856171D01*
X148121762Y32415142D02*
X147951143Y32384673D01*
X148289387Y43856171D02*
X148453801Y43809483D01*
X148289387Y32453830D02*
X148121762Y32415142D01*
X148453801Y43809483D02*
X148614787Y43755012D01*
X148453801Y32500518D02*
X148289387Y32453830D01*
X148614787Y43755012D02*
X148772125Y43692975D01*
X148614787Y32554989D02*
X148453801Y32500518D01*
X148768906Y39809969D02*
X145137500Y36250000D01*
X148768906Y39809969D02*
X148768906Y39809969D01*
X148768906Y36380969D02*
X147018687Y34261657D01*
X148768906Y36380969D02*
X148768906Y36380969D01*
X148772125Y43692975D02*
X148925599Y43623591D01*
X148772125Y32617026D02*
X148614787Y32554989D01*
X148925599Y43623591D02*
X149074991Y43547077D01*
X148925599Y32686410D02*
X148772125Y32617026D01*
X149074991Y43547077D02*
X149220083Y43463651D01*
X149074991Y32762924D02*
X148925599Y32686410D01*
X149220083Y43463651D02*
X149360657Y43373531D01*
X149220083Y32846350D02*
X149074991Y32762924D01*
X149360657Y43373531D02*
X149496497Y43276933D01*
X149360657Y32936471D02*
X149220083Y32846350D01*
X149496497Y43276933D02*
X149627383Y43174077D01*
X149496497Y33033068D02*
X149360657Y32936471D01*
X149627383Y43174077D02*
X149753099Y43065179D01*
X149627383Y33135924D02*
X149496497Y33033068D01*
X149753099Y43065179D02*
X149873426Y42950457D01*
X149753099Y33244822D02*
X149627383Y33135924D01*
X149873426Y42950457D02*
X149988148Y42830130D01*
X149873426Y33359544D02*
X149753099Y33244822D01*
X149988148Y42830130D02*
X150097046Y42704414D01*
X149988148Y33479871D02*
X149873426Y33359544D01*
X150097046Y42704414D02*
X150199902Y42573528D01*
X150097046Y33605587D02*
X149988148Y33479871D01*
X150199902Y42573528D02*
X150296499Y42437689D01*
X150199902Y33736473D02*
X150097046Y33605587D01*
X150296499Y42437689D02*
X150386620Y42297114D01*
X150296499Y33872312D02*
X150199902Y33736473D01*
X150386620Y42297114D02*
X150470046Y42152022D01*
X150386620Y34012887D02*
X150296499Y33872312D01*
X150470046Y42152022D02*
X150546560Y42002630D01*
X150470046Y34157979D02*
X150386620Y34012887D01*
X150546560Y42002630D02*
X150615944Y41849156D01*
X150546560Y34307371D02*
X150470046Y34157979D01*
X150615944Y41849156D02*
X150677981Y41691818D01*
X150615944Y34460844D02*
X150546560Y34307371D01*
X150677981Y41691818D02*
X150732452Y41530833D01*
X150677981Y34618183D02*
X150615944Y34460844D01*
X150732452Y41530833D02*
X150779140Y41366419D01*
X150732452Y34779168D02*
X150677981Y34618183D01*
X150779140Y41366419D02*
X150817828Y41198793D01*
X150779140Y34943582D02*
X150732452Y34779168D01*
X150817828Y41198793D02*
X150848297Y41028174D01*
X150817828Y35111208D02*
X150779140Y34943582D01*
X150848297Y41028174D02*
X150870331Y40854779D01*
X150848297Y35281827D02*
X150817828Y35111208D01*
X150870331Y40854779D02*
X150883711Y40678825D01*
X150870331Y35455222D02*
X150848297Y35281827D01*
X150883711Y40678825D02*
X150888219Y40500532D01*
X150883711Y35631175D02*
X150870331Y35455222D01*
X150888219Y40500532D02*
X150888219Y40500532D01*
X150888219Y40500532D02*
X150888219Y35809469D01*
X150888219Y35809469D02*
X150883711Y35631175D01*
X150888219Y35809469D02*
X150888219Y35809469D01*
D18*
X153387500Y51975000D02*
X153387500Y45295000D01*
X153387500Y24725000D02*
X153387500Y25655000D01*
X139137500Y44650000D02*
G75*
G03*
X139137500Y44650000I-100000J0D01*
G01*
G04 #@! TO.C,J1*
X22255000Y-24190000D02*
X57435000Y-24190000D01*
X57435000Y-24190000D02*
X57435000Y-20395000D01*
X19055000Y-20395000D02*
X22255000Y-20395000D01*
X22255000Y-20395000D02*
X22255000Y-24190000D01*
X57435000Y-20395000D02*
X60635000Y-20395000D01*
X60635000Y-20395000D02*
X60635000Y-7045000D01*
X19055000Y-7045000D02*
X19055000Y-20395000D01*
X22255000Y-7045000D02*
X19055000Y-7045000D01*
X57435000Y-7045000D02*
X57435000Y3650000D01*
X60635000Y-7045000D02*
X57435000Y-7045000D01*
X21645000Y3650000D02*
X22255000Y3650000D01*
X22255000Y3650000D02*
X22255000Y-7045000D01*
X57435000Y3650000D02*
X58045000Y3650000D01*
X58045000Y3650000D02*
X58045000Y3650000D01*
X21645000Y8100000D02*
X21645000Y8100000D01*
X22255000Y8100000D02*
X21645000Y8100000D01*
X57435000Y8100000D02*
X57435000Y10100000D01*
X58045000Y8100000D02*
X57435000Y8100000D01*
X22255000Y10100000D02*
X22255000Y8100000D01*
X39845000Y10100000D02*
X22255000Y10100000D01*
X57435000Y10100000D02*
X39845000Y10100000D01*
D19*
X28735000Y10600000D02*
X28735000Y10600000D01*
X28735000Y10700000D02*
X28735000Y10700000D01*
D18*
X21645000Y8100000D02*
G75*
G03*
X21645000Y3650000I0J-2225000D01*
G01*
X58045000Y3650000D02*
G75*
G03*
X58045000Y8100000I0J2225000D01*
G01*
D19*
X28735000Y10700000D02*
G75*
G03*
X28735000Y10600000I0J-50000D01*
G01*
X28735000Y10600000D02*
G75*
G03*
X28735000Y10700000I0J50000D01*
G01*
D16*
G04 #@! TO.C,Q2*
X4072212Y44867264D02*
X4306039Y45002264D01*
X4306039Y45002264D02*
X5721039Y42551412D01*
X9813961Y48182264D02*
X10363961Y47229636D01*
X10047788Y48317264D02*
X9813961Y48182264D01*
X862212Y50427147D02*
X4072212Y44867264D01*
X6837788Y53877147D02*
X10047788Y48317264D01*
G04 #@! TO.C,F1*
X126135051Y43254163D02*
X129564518Y39824695D01*
X124720837Y41839949D02*
X128150305Y38410482D01*
X126099695Y43289518D02*
G75*
G03*
X124685482Y41875305I-707107J-707106D01*
G01*
X128150305Y38410482D02*
G75*
G03*
X129564518Y39824695I707107J707106D01*
G01*
D18*
G04 #@! TO.C,M5*
X34425000Y13350000D02*
X20525000Y13350000D01*
X20525000Y13350000D02*
X20525000Y40850000D01*
X20525000Y40850000D02*
X34425000Y40850000D01*
X34425000Y40850000D02*
X34425000Y13350000D01*
D17*
G04 #@! TO.C,R3*
X113995840Y54898944D02*
X113995851Y55298943D01*
X113250005Y54900000D02*
X113250015Y55300000D01*
G04 #@! TO.C,R22*
X53046685Y47161300D02*
X52846695Y47507715D01*
X52400245Y46789297D02*
X52200253Y47135713D01*
G04 #@! TO.C,R7*
X136123944Y9579160D02*
X136523943Y9579149D01*
X136125000Y10324995D02*
X136525000Y10324985D01*
G04 #@! TO.C,G4*
G36*
X3735349Y11681113D02*
G01*
X3739459Y11658282D01*
X3739491Y11654766D01*
X3750084Y11591715D01*
X3779528Y11515182D01*
X3824318Y11430255D01*
X3880949Y11342022D01*
X3945918Y11255570D01*
X4015718Y11175987D01*
X4086846Y11108360D01*
X4146876Y11063342D01*
X4209754Y11010584D01*
X4271728Y10936253D01*
X4327810Y10847551D01*
X4373011Y10751679D01*
X4384493Y10720280D01*
X4402417Y10664046D01*
X4411021Y10622988D01*
X4411357Y10585133D01*
X4404480Y10538511D01*
X4401763Y10524112D01*
X4376669Y10432584D01*
X4339556Y10347632D01*
X4294694Y10278020D01*
X4267590Y10248831D01*
X4233428Y10219964D01*
X4191829Y10187684D01*
X4149758Y10157019D01*
X4114179Y10132994D01*
X4092059Y10120635D01*
X4089002Y10119961D01*
X4072034Y10125448D01*
X4037336Y10138636D01*
X4010964Y10149165D01*
X3940044Y10182246D01*
X3880096Y10221541D01*
X3822477Y10273664D01*
X3765364Y10337132D01*
X3671842Y10452862D01*
X3599820Y10554212D01*
X3547444Y10644096D01*
X3512859Y10725427D01*
X3507522Y10742233D01*
X3495944Y10782522D01*
X3488299Y10816287D01*
X3484423Y10849854D01*
X3484155Y10889547D01*
X3487333Y10941691D01*
X3493794Y11012612D01*
X3499191Y11066935D01*
X3509966Y11159657D01*
X3523729Y11256661D01*
X3538860Y11347567D01*
X3553736Y11421993D01*
X3556592Y11434214D01*
X3573636Y11501630D01*
X3588245Y11547962D01*
X3603966Y11580564D01*
X3624346Y11606792D01*
X3652932Y11634000D01*
X3652948Y11634014D01*
X3695596Y11669818D01*
X3721896Y11685238D01*
X3735349Y11681113D01*
G37*
G36*
X10533609Y4534842D02*
G01*
X10876431Y4534667D01*
X11216164Y4534404D01*
X11551570Y4534054D01*
X11881414Y4533616D01*
X12204458Y4533091D01*
X12519467Y4532478D01*
X12825203Y4531778D01*
X13120431Y4530990D01*
X13403912Y4530114D01*
X13674412Y4529151D01*
X13930693Y4528101D01*
X14171518Y4526962D01*
X14395652Y4525737D01*
X14601857Y4524423D01*
X14788897Y4523022D01*
X14955536Y4521534D01*
X15100536Y4519958D01*
X15222661Y4518294D01*
X15320675Y4516543D01*
X15393341Y4514704D01*
X15439423Y4512778D01*
X15457683Y4510764D01*
X15457695Y4510757D01*
X15503847Y4470342D01*
X15531678Y4411267D01*
X15538575Y4356938D01*
X15532256Y4314424D01*
X15509380Y4276380D01*
X15489170Y4254500D01*
X15439765Y4205095D01*
X4593907Y4205095D01*
X4544502Y4254500D01*
X4510783Y4295002D01*
X4496654Y4333688D01*
X4495097Y4356938D01*
X4506597Y4426165D01*
X4538925Y4481502D01*
X4575977Y4510757D01*
X4594147Y4512772D01*
X4640142Y4514698D01*
X4712726Y4516537D01*
X4810661Y4518289D01*
X4932712Y4519953D01*
X5077642Y4521529D01*
X5244213Y4523018D01*
X5431191Y4524419D01*
X5637337Y4525733D01*
X5861416Y4526959D01*
X6102190Y4528097D01*
X6358424Y4529148D01*
X6628880Y4530111D01*
X6912323Y4530987D01*
X7207515Y4531775D01*
X7513220Y4532476D01*
X7828201Y4533089D01*
X8151222Y4533615D01*
X8481046Y4534053D01*
X8816437Y4534403D01*
X9156158Y4534666D01*
X9498972Y4534841D01*
X9843643Y4534929D01*
X10188934Y4534929D01*
X10533609Y4534842D01*
G37*
G36*
X3921736Y12041181D02*
G01*
X3934663Y12015558D01*
X3954357Y11968579D01*
X3962099Y11949874D01*
X3993761Y11885234D01*
X4034492Y11817148D01*
X4064371Y11774989D01*
X4086174Y11748132D01*
X4107370Y11725664D01*
X4131972Y11705130D01*
X4163995Y11684076D01*
X4207452Y11660046D01*
X4266358Y11630585D01*
X4344725Y11593238D01*
X4416575Y11559563D01*
X4518145Y11511500D01*
X4596802Y11472713D01*
X4656350Y11441042D01*
X4700595Y11414330D01*
X4733341Y11390416D01*
X4758393Y11367144D01*
X4761414Y11363910D01*
X4853755Y11252773D01*
X4927394Y11141568D01*
X4980461Y11033924D01*
X5011088Y10933473D01*
X5018209Y10864939D01*
X5004411Y10702951D01*
X4963382Y10549942D01*
X4895673Y10407613D01*
X4846175Y10333030D01*
X4805555Y10287588D01*
X4747097Y10234273D01*
X4677792Y10178323D01*
X4604631Y10124976D01*
X4534604Y10079470D01*
X4474702Y10047044D01*
X4452332Y10037914D01*
X4387220Y10019011D01*
X4331438Y10009400D01*
X4291985Y10010052D01*
X4281099Y10014163D01*
X4280774Y10027677D01*
X4300048Y10056056D01*
X4339937Y10100585D01*
X4387558Y10148882D01*
X4447026Y10209667D01*
X4490913Y10260733D01*
X4525824Y10311131D01*
X4558365Y10369911D01*
X4577979Y10409786D01*
X4609675Y10478694D01*
X4630114Y10532290D01*
X4642181Y10580651D01*
X4648763Y10633852D01*
X4650822Y10664077D01*
X4650285Y10770560D01*
X4637435Y10872872D01*
X4613787Y10963565D01*
X4580858Y11035195D01*
X4572806Y11047258D01*
X4533095Y11089141D01*
X4478784Y11129636D01*
X4452227Y11145027D01*
X4396599Y11177472D01*
X4329028Y11221943D01*
X4255601Y11273878D01*
X4182408Y11328713D01*
X4115537Y11381887D01*
X4061076Y11428836D01*
X4025113Y11464998D01*
X4024864Y11465295D01*
X3946244Y11579548D01*
X3890795Y11705367D01*
X3860707Y11836927D01*
X3855738Y11915068D01*
X3857980Y11969898D01*
X3866176Y12004598D01*
X3882527Y12027855D01*
X3884889Y12030061D01*
X3900714Y12044418D01*
X3911708Y12049463D01*
X3921736Y12041181D01*
G37*
G36*
X9943470Y8106339D02*
G01*
X10018421Y8078124D01*
X10075013Y8034187D01*
X10109108Y7976859D01*
X10110658Y7972034D01*
X10112853Y7948091D01*
X10113289Y7899973D01*
X10112066Y7832508D01*
X10109285Y7750524D01*
X10105048Y7658848D01*
X10103529Y7630558D01*
X10099485Y7557066D01*
X10096339Y7493283D01*
X10094364Y7435985D01*
X10093833Y7381948D01*
X10095016Y7327946D01*
X10098188Y7270756D01*
X10103621Y7207153D01*
X10111586Y7133913D01*
X10122357Y7047811D01*
X10136206Y6945623D01*
X10153405Y6824124D01*
X10174226Y6680089D01*
X10197126Y6522772D01*
X10212608Y6414630D01*
X10227655Y6306180D01*
X10241394Y6203965D01*
X10252952Y6114532D01*
X10261456Y6044424D01*
X10263999Y6021456D01*
X10273750Y5935795D01*
X10284997Y5851904D01*
X10298702Y5764093D01*
X10315827Y5666670D01*
X10337337Y5553943D01*
X10364193Y5420222D01*
X10372947Y5377538D01*
X10389908Y5291395D01*
X10404462Y5210334D01*
X10415583Y5140656D01*
X10422243Y5088664D01*
X10423701Y5066187D01*
X10412921Y4984197D01*
X10380471Y4921368D01*
X10326187Y4877565D01*
X10249905Y4852649D01*
X10162145Y4846261D01*
X10104168Y4848633D01*
X10050845Y4853582D01*
X10020833Y4858563D01*
X9952244Y4885457D01*
X9898056Y4927460D01*
X9880694Y4950006D01*
X9873267Y4973605D01*
X9863410Y5022746D01*
X9851568Y5094050D01*
X9838186Y5184139D01*
X9823710Y5289635D01*
X9808586Y5407161D01*
X9793259Y5533337D01*
X9778175Y5664787D01*
X9763779Y5798131D01*
X9750517Y5929993D01*
X9748145Y5954780D01*
X9739430Y6036546D01*
X9726972Y6139509D01*
X9711762Y6256192D01*
X9694791Y6379119D01*
X9677051Y6500814D01*
X9667238Y6565078D01*
X9633386Y6786554D01*
X9604961Y6981525D01*
X9581790Y7152003D01*
X9563700Y7300000D01*
X9550518Y7427529D01*
X9542070Y7536601D01*
X9538184Y7629228D01*
X9538687Y7707422D01*
X9543405Y7773196D01*
X9552165Y7828562D01*
X9556824Y7848483D01*
X9593876Y7951773D01*
X9645356Y8029898D01*
X9711452Y8083029D01*
X9792353Y8111335D01*
X9854295Y8116500D01*
X9943470Y8106339D01*
G37*
G36*
X10958065Y8114646D02*
G01*
X11031982Y8097784D01*
X11095856Y8064479D01*
X11143485Y8014946D01*
X11153589Y7997137D01*
X11162617Y7976089D01*
X11168655Y7952906D01*
X11171848Y7922701D01*
X11172346Y7880585D01*
X11170297Y7821670D01*
X11165848Y7741066D01*
X11162825Y7691988D01*
X11157272Y7594211D01*
X11153890Y7506518D01*
X11152986Y7424343D01*
X11154864Y7343119D01*
X11159827Y7258278D01*
X11168180Y7165255D01*
X11180228Y7059482D01*
X11196275Y6936393D01*
X11216625Y6791420D01*
X11228164Y6711674D01*
X11245384Y6591905D01*
X11261972Y6473690D01*
X11277233Y6362201D01*
X11290470Y6262614D01*
X11300988Y6180101D01*
X11308090Y6119838D01*
X11309272Y6108642D01*
X11319413Y6017058D01*
X11331489Y5924998D01*
X11346359Y5827242D01*
X11364885Y5718568D01*
X11387927Y5593756D01*
X11416345Y5447585D01*
X11427157Y5393231D01*
X11444876Y5301789D01*
X11460369Y5216549D01*
X11472729Y5142934D01*
X11481050Y5086367D01*
X11484426Y5052272D01*
X11484456Y5050271D01*
X11470958Y4983956D01*
X11434272Y4923362D01*
X11380109Y4877279D01*
X11367691Y4870581D01*
X11323561Y4857286D01*
X11261659Y4848882D01*
X11192969Y4846044D01*
X11128471Y4849448D01*
X11099388Y4854090D01*
X11041866Y4872345D01*
X10988311Y4899211D01*
X10949105Y4929084D01*
X10940127Y4940061D01*
X10928212Y4969903D01*
X10916120Y5019288D01*
X10906053Y5078794D01*
X10904104Y5094205D01*
X10897921Y5146564D01*
X10889069Y5221046D01*
X10878351Y5310921D01*
X10866568Y5409459D01*
X10854525Y5509929D01*
X10853299Y5520141D01*
X10840991Y5624685D01*
X10828783Y5732023D01*
X10817544Y5834264D01*
X10808139Y5923518D01*
X10801436Y5991894D01*
X10801390Y5992395D01*
X10795053Y6051660D01*
X10784934Y6133941D01*
X10771803Y6233552D01*
X10756430Y6344806D01*
X10739582Y6462015D01*
X10722029Y6579492D01*
X10721815Y6580896D01*
X10688496Y6802094D01*
X10660273Y6996793D01*
X10637092Y7167098D01*
X10618902Y7315113D01*
X10605649Y7442941D01*
X10597282Y7552687D01*
X10593748Y7646454D01*
X10594994Y7726346D01*
X10600969Y7794467D01*
X10611619Y7852921D01*
X10626892Y7903813D01*
X10646735Y7949245D01*
X10671097Y7991322D01*
X10686092Y8013361D01*
X10738121Y8064423D01*
X10804930Y8098181D01*
X10880313Y8114850D01*
X10958065Y8114646D01*
G37*
G36*
X15058614Y6952974D02*
G01*
X15154289Y6914091D01*
X15236733Y6849451D01*
X15305797Y6759189D01*
X15361330Y6643438D01*
X15384025Y6575882D01*
X15398089Y6514554D01*
X15412012Y6427286D01*
X15425477Y6317200D01*
X15438166Y6187418D01*
X15449763Y6041062D01*
X15459949Y5881252D01*
X15465529Y5774431D01*
X15470683Y5667875D01*
X15476078Y5558014D01*
X15481316Y5452847D01*
X15485997Y5360374D01*
X15489724Y5288594D01*
X15489854Y5286148D01*
X15492769Y5214050D01*
X15493704Y5149516D01*
X15492659Y5099811D01*
X15489832Y5072938D01*
X15467410Y5025081D01*
X15428029Y4975368D01*
X15380897Y4934592D01*
X15362275Y4923376D01*
X15284310Y4895132D01*
X15201122Y4885319D01*
X15119254Y4892801D01*
X15045249Y4916439D01*
X14985650Y4955096D01*
X14953677Y4994406D01*
X14948952Y5010084D01*
X14945043Y5040479D01*
X14941895Y5087646D01*
X14939449Y5153638D01*
X14937648Y5240510D01*
X14936436Y5350317D01*
X14935753Y5485113D01*
X14935543Y5643653D01*
X14935428Y5797516D01*
X14935008Y5925412D01*
X14934170Y6030435D01*
X14932803Y6115677D01*
X14930794Y6184234D01*
X14928032Y6239200D01*
X14924405Y6283667D01*
X14919800Y6320730D01*
X14914105Y6353483D01*
X14908964Y6377463D01*
X14883182Y6473698D01*
X14855426Y6543168D01*
X14824364Y6588162D01*
X14788669Y6610970D01*
X14771216Y6614561D01*
X14710132Y6607365D01*
X14641325Y6577511D01*
X14569238Y6528734D01*
X14498312Y6464772D01*
X14432987Y6389361D01*
X14377705Y6306236D01*
X14356519Y6265699D01*
X14318203Y6173209D01*
X14290092Y6076026D01*
X14272014Y5970618D01*
X14263798Y5853455D01*
X14265273Y5721006D01*
X14276268Y5569741D01*
X14296613Y5396129D01*
X14309893Y5302177D01*
X14326450Y5185723D01*
X14337729Y5094217D01*
X14343856Y5024053D01*
X14344959Y4971626D01*
X14341163Y4933328D01*
X14332597Y4905554D01*
X14324364Y4891197D01*
X14275854Y4846325D01*
X14208483Y4819527D01*
X14127023Y4811964D01*
X14043836Y4822970D01*
X13969551Y4850246D01*
X13917271Y4889980D01*
X13899010Y4909812D01*
X13883100Y4931539D01*
X13869027Y4957733D01*
X13856281Y4990969D01*
X13844347Y5033820D01*
X13832715Y5088858D01*
X13820871Y5158659D01*
X13808303Y5245794D01*
X13794500Y5352839D01*
X13778948Y5482365D01*
X13761136Y5636948D01*
X13751319Y5723573D01*
X13730843Y5906027D01*
X13713675Y6061709D01*
X13699623Y6192696D01*
X13688496Y6301067D01*
X13680101Y6388900D01*
X13674246Y6458273D01*
X13670738Y6511263D01*
X13669387Y6549948D01*
X13669999Y6576408D01*
X13671381Y6588161D01*
X13700435Y6680768D01*
X13749196Y6754509D01*
X13814568Y6807226D01*
X13893452Y6836764D01*
X13982751Y6840964D01*
X14024731Y6834188D01*
X14088935Y6812206D01*
X14138104Y6775976D01*
X14175870Y6721168D01*
X14205862Y6643454D01*
X14216302Y6605741D01*
X14232230Y6543401D01*
X14304532Y6628898D01*
X14420462Y6747854D01*
X14545406Y6842141D01*
X14677254Y6910656D01*
X14813892Y6952295D01*
X14949859Y6965964D01*
X15058614Y6952974D01*
G37*
G36*
X8362604Y7033126D02*
G01*
X8548200Y7002774D01*
X8718639Y6947626D01*
X8873924Y6867680D01*
X8986344Y6786611D01*
X9071068Y6704060D01*
X9127409Y6618913D01*
X9156033Y6529388D01*
X9157606Y6433706D01*
X9143958Y6365622D01*
X9129690Y6329236D01*
X9105851Y6293542D01*
X9069673Y6256335D01*
X9018391Y6215410D01*
X8949239Y6168564D01*
X8859451Y6113590D01*
X8746259Y6048285D01*
X8744602Y6047347D01*
X8638275Y5987414D01*
X8554327Y5940070D01*
X8490144Y5903071D01*
X8443109Y5874177D01*
X8410610Y5851145D01*
X8390032Y5831733D01*
X8378759Y5813700D01*
X8374179Y5794804D01*
X8373675Y5772802D01*
X8374633Y5745453D01*
X8374845Y5730288D01*
X8379657Y5640576D01*
X8392981Y5552807D01*
X8413151Y5472391D01*
X8438498Y5404736D01*
X8467355Y5355251D01*
X8498057Y5329347D01*
X8498474Y5329184D01*
X8530470Y5324496D01*
X8569162Y5333915D01*
X8616627Y5358889D01*
X8674945Y5400864D01*
X8746192Y5461286D01*
X8832449Y5541603D01*
X8903689Y5611247D01*
X8993973Y5699847D01*
X9067355Y5769296D01*
X9126702Y5821747D01*
X9174881Y5859352D01*
X9214758Y5884265D01*
X9249199Y5898638D01*
X9281071Y5904624D01*
X9295037Y5905155D01*
X9355913Y5895849D01*
X9409220Y5871177D01*
X9446839Y5835841D01*
X9458808Y5810309D01*
X9458372Y5764973D01*
X9441508Y5711775D01*
X9412808Y5664786D01*
X9363092Y5604021D01*
X9295255Y5532227D01*
X9212189Y5452148D01*
X9116788Y5366531D01*
X9011945Y5278122D01*
X8900554Y5189667D01*
X8854365Y5154552D01*
X8741354Y5070226D01*
X8648406Y5002326D01*
X8572699Y4949366D01*
X8511409Y4909862D01*
X8461715Y4882328D01*
X8420794Y4865278D01*
X8385822Y4857227D01*
X8353978Y4856691D01*
X8322438Y4862182D01*
X8306854Y4866442D01*
X8214191Y4906404D01*
X8134789Y4968521D01*
X8066972Y5054584D01*
X8009068Y5166385D01*
X7995495Y5199723D01*
X7967369Y5285165D01*
X7942595Y5384379D01*
X7923402Y5486202D01*
X7912017Y5579474D01*
X7909857Y5628647D01*
X7909857Y5697020D01*
X7850031Y5695766D01*
X7793209Y5705972D01*
X7754188Y5738867D01*
X7733534Y5793739D01*
X7730348Y5846335D01*
X7736704Y5908644D01*
X7754975Y5951916D01*
X7790834Y5985499D01*
X7828193Y6007589D01*
X7893428Y6042196D01*
X7902453Y6151706D01*
X7913878Y6247846D01*
X8360314Y6247846D01*
X8361030Y6233340D01*
X8365989Y6225534D01*
X8379405Y6225505D01*
X8405497Y6234335D01*
X8448478Y6253100D01*
X8512566Y6282882D01*
X8531052Y6291553D01*
X8597054Y6323294D01*
X8654481Y6352360D01*
X8697604Y6375748D01*
X8720692Y6390458D01*
X8721843Y6391496D01*
X8730859Y6419097D01*
X8721023Y6458775D01*
X8695949Y6504170D01*
X8659249Y6548920D01*
X8614537Y6586666D01*
X8608878Y6590376D01*
X8550677Y6620831D01*
X8505776Y6627574D01*
X8469846Y6609996D01*
X8438558Y6567490D01*
X8437941Y6566365D01*
X8418880Y6520978D01*
X8399080Y6457134D01*
X8381080Y6385252D01*
X8367420Y6315752D01*
X8360638Y6259052D01*
X8360314Y6247846D01*
X7913878Y6247846D01*
X7927135Y6359411D01*
X7964934Y6541607D01*
X8016024Y6698807D01*
X8080580Y6831523D01*
X8158778Y6940267D01*
X8179708Y6962972D01*
X8257150Y7042927D01*
X8362604Y7033126D01*
G37*
G36*
X12329231Y7033154D02*
G01*
X12514833Y7002836D01*
X12685200Y6947785D01*
X12840398Y6867973D01*
X12953277Y6786611D01*
X13038002Y6704060D01*
X13094342Y6618913D01*
X13122966Y6529388D01*
X13124540Y6433706D01*
X13110892Y6365622D01*
X13096312Y6328629D01*
X13071869Y6292351D01*
X13034773Y6254554D01*
X12982235Y6213006D01*
X12911466Y6165475D01*
X12819677Y6109728D01*
X12718883Y6051867D01*
X12611418Y5991424D01*
X12526408Y5943499D01*
X12461246Y5905894D01*
X12413324Y5876412D01*
X12380036Y5852857D01*
X12358774Y5833032D01*
X12346933Y5814740D01*
X12341904Y5795784D01*
X12341081Y5773967D01*
X12341857Y5747092D01*
X12342031Y5734289D01*
X12347241Y5639421D01*
X12361312Y5549509D01*
X12382648Y5468950D01*
X12409654Y5402141D01*
X12440734Y5353476D01*
X12474292Y5327352D01*
X12490927Y5324110D01*
X12530416Y5332701D01*
X12581226Y5358918D01*
X12644812Y5403859D01*
X12722632Y5468621D01*
X12816141Y5554301D01*
X12886687Y5622380D01*
X12973759Y5707280D01*
X13043497Y5773654D01*
X13098991Y5823650D01*
X13143335Y5859412D01*
X13179621Y5883090D01*
X13210940Y5896828D01*
X13240384Y5902774D01*
X13271045Y5903075D01*
X13288956Y5901669D01*
X13341583Y5892819D01*
X13377113Y5875376D01*
X13399535Y5853676D01*
X13423062Y5814022D01*
X13427795Y5769466D01*
X13412699Y5718003D01*
X13376736Y5657627D01*
X13318867Y5586332D01*
X13238057Y5502113D01*
X13197307Y5462673D01*
X13145419Y5415887D01*
X13077116Y5358128D01*
X12996713Y5292697D01*
X12908523Y5222892D01*
X12816859Y5152012D01*
X12726036Y5083357D01*
X12640365Y5020225D01*
X12564161Y4965916D01*
X12501738Y4923729D01*
X12458267Y4897420D01*
X12401666Y4869212D01*
X12359599Y4855313D01*
X12322356Y4854003D01*
X12280227Y4863565D01*
X12275384Y4865049D01*
X12179814Y4909712D01*
X12095657Y4979826D01*
X12023834Y5073744D01*
X11965264Y5189814D01*
X11920869Y5326388D01*
X11891569Y5481816D01*
X11882653Y5568882D01*
X11873001Y5696740D01*
X11815070Y5695626D01*
X11759639Y5706225D01*
X11721377Y5739920D01*
X11700968Y5795871D01*
X11697576Y5839820D01*
X11709048Y5910149D01*
X11744734Y5966873D01*
X11806541Y6012994D01*
X11808145Y6013877D01*
X11836656Y6031229D01*
X11853285Y6049792D01*
X11862332Y6078269D01*
X11868099Y6125359D01*
X11869202Y6137390D01*
X11882238Y6246284D01*
X12327248Y6246284D01*
X12328215Y6232551D01*
X12333911Y6225549D01*
X12348531Y6226407D01*
X12376270Y6236253D01*
X12421322Y6256213D01*
X12487882Y6287417D01*
X12497986Y6292194D01*
X12563540Y6323109D01*
X12620389Y6349763D01*
X12662945Y6369545D01*
X12685617Y6379847D01*
X12686888Y6380385D01*
X12701270Y6392278D01*
X12702248Y6414669D01*
X12689264Y6453355D01*
X12677252Y6480866D01*
X12637324Y6542497D01*
X12583185Y6590163D01*
X12522466Y6618070D01*
X12490349Y6622864D01*
X12456843Y6621568D01*
X12435219Y6610645D01*
X12416362Y6583369D01*
X12403937Y6559099D01*
X12383817Y6508523D01*
X12363447Y6441387D01*
X12345471Y6368467D01*
X12332528Y6300542D01*
X12327263Y6248388D01*
X12327248Y6246284D01*
X11882238Y6246284D01*
X11893138Y6337340D01*
X11926856Y6511523D01*
X11970963Y6661743D01*
X12026066Y6789808D01*
X12092770Y6897524D01*
X12145435Y6960461D01*
X12223471Y7042984D01*
X12329231Y7033154D01*
G37*
G36*
X4841745Y9920897D02*
G01*
X4879431Y9898239D01*
X4880766Y9897109D01*
X4899901Y9877923D01*
X4912195Y9855462D01*
X4919824Y9822287D01*
X4924966Y9770960D01*
X4927123Y9738779D01*
X4929686Y9676745D01*
X4929630Y9621968D01*
X4927032Y9583869D01*
X4925754Y9577037D01*
X4909080Y9548197D01*
X4875815Y9512992D01*
X4847456Y9489730D01*
X4809614Y9459719D01*
X4785639Y9431783D01*
X4769205Y9395815D01*
X4753988Y9341711D01*
X4753439Y9339520D01*
X4740775Y9284377D01*
X4725440Y9210773D01*
X4709498Y9128917D01*
X4696861Y9059625D01*
X4683420Y8979232D01*
X4675549Y8918919D01*
X4672818Y8870331D01*
X4674799Y8825110D01*
X4681064Y8774901D01*
X4681951Y8769008D01*
X4688896Y8707680D01*
X4694447Y8628794D01*
X4697928Y8543846D01*
X4698769Y8484443D01*
X4700074Y8394021D01*
X4703709Y8291702D01*
X4709329Y8181437D01*
X4716584Y8067175D01*
X4725128Y7952867D01*
X4734613Y7842462D01*
X4744690Y7739910D01*
X4755013Y7649162D01*
X4765234Y7574168D01*
X4775005Y7518876D01*
X4783979Y7487238D01*
X4786965Y7482381D01*
X4807617Y7478563D01*
X4852727Y7481398D01*
X4918658Y7490096D01*
X5001773Y7503870D01*
X5098437Y7521931D01*
X5205013Y7543491D01*
X5317866Y7567763D01*
X5433359Y7593957D01*
X5547855Y7621286D01*
X5657720Y7648961D01*
X5759315Y7676195D01*
X5849007Y7702198D01*
X5923157Y7726182D01*
X5940921Y7732532D01*
X6057168Y7775240D01*
X6052481Y7875551D01*
X6048289Y7934587D01*
X6040283Y8011391D01*
X6028195Y8107929D01*
X6011759Y8226165D01*
X5990706Y8368064D01*
X5964770Y8535591D01*
X5949851Y8629806D01*
X5923711Y8802562D01*
X5903234Y8956670D01*
X5888624Y9090076D01*
X5880085Y9200726D01*
X5877822Y9286568D01*
X5880074Y9330719D01*
X5904221Y9426824D01*
X5955549Y9513474D01*
X6033544Y9590018D01*
X6137088Y9655496D01*
X6210554Y9680586D01*
X6297895Y9691167D01*
X6387823Y9687240D01*
X6469047Y9668805D01*
X6500360Y9655463D01*
X6556369Y9623875D01*
X6599256Y9591331D01*
X6631083Y9553269D01*
X6653908Y9505127D01*
X6669792Y9442344D01*
X6680794Y9360357D01*
X6688976Y9254605D01*
X6690163Y9235140D01*
X6698385Y9102815D01*
X6707223Y8973184D01*
X6717141Y8840363D01*
X6728605Y8698469D01*
X6742078Y8541617D01*
X6758026Y8363926D01*
X6764629Y8291908D01*
X6795752Y7954065D01*
X6843717Y7954065D01*
X6895468Y7940519D01*
X6945618Y7903630D01*
X6990250Y7849028D01*
X7025444Y7782340D01*
X7047280Y7709192D01*
X7052534Y7654240D01*
X7046343Y7596297D01*
X7029621Y7527222D01*
X7005143Y7453819D01*
X6975685Y7382888D01*
X6944020Y7321230D01*
X6912926Y7275647D01*
X6889588Y7254920D01*
X6877878Y7239817D01*
X6870169Y7208378D01*
X6866569Y7159452D01*
X6867187Y7091890D01*
X6872131Y7004541D01*
X6881508Y6896255D01*
X6895428Y6765882D01*
X6913999Y6612272D01*
X6937328Y6434274D01*
X6965525Y6230738D01*
X6998697Y6000515D01*
X7023493Y5832555D01*
X7049547Y5655819D01*
X7071073Y5505254D01*
X7088235Y5378354D01*
X7101199Y5272609D01*
X7110130Y5185511D01*
X7115195Y5114553D01*
X7116559Y5057225D01*
X7114388Y5011021D01*
X7108848Y4973431D01*
X7100104Y4941948D01*
X7088321Y4914063D01*
X7084647Y4906837D01*
X7035463Y4843930D01*
X6962508Y4795744D01*
X6867736Y4763479D01*
X6842800Y4758390D01*
X6789627Y4748998D01*
X6753667Y4745104D01*
X6723473Y4747408D01*
X6687594Y4756607D01*
X6643484Y4770561D01*
X6557689Y4805188D01*
X6493723Y4849122D01*
X6444661Y4907445D01*
X6434364Y4924099D01*
X6412883Y4963088D01*
X6396215Y5000740D01*
X6383218Y5042329D01*
X6372747Y5093126D01*
X6363658Y5158403D01*
X6354806Y5243434D01*
X6347580Y5323974D01*
X6332371Y5493882D01*
X6315586Y5670904D01*
X6297715Y5850511D01*
X6279250Y6028175D01*
X6260682Y6199369D01*
X6242500Y6359566D01*
X6225197Y6504237D01*
X6209261Y6628855D01*
X6195589Y6726205D01*
X6188418Y6778133D01*
X6179549Y6848284D01*
X6170305Y6925974D01*
X6164605Y6976520D01*
X6156513Y7047041D01*
X6149771Y7093368D01*
X6142926Y7120230D01*
X6134526Y7132359D01*
X6123120Y7134486D01*
X6116456Y7133407D01*
X6088640Y7127878D01*
X6041069Y7118628D01*
X5982538Y7107362D01*
X5962717Y7103570D01*
X5690416Y7048879D01*
X5396201Y6984748D01*
X5119437Y6920479D01*
X4806534Y6845844D01*
X4811897Y6793290D01*
X4823524Y6691949D01*
X4837790Y6587255D01*
X4853649Y6485432D01*
X4870058Y6392702D01*
X4885972Y6315289D01*
X4900346Y6259417D01*
X4902781Y6251855D01*
X4922429Y6180449D01*
X4927721Y6119501D01*
X4925353Y6086845D01*
X4924456Y6027461D01*
X4932619Y5940685D01*
X4949819Y5826732D01*
X4953848Y5803493D01*
X4973481Y5692304D01*
X4988933Y5606306D01*
X5001110Y5542078D01*
X5010920Y5496198D01*
X5019271Y5465245D01*
X5027070Y5445798D01*
X5035224Y5434434D01*
X5044640Y5427733D01*
X5054764Y5422942D01*
X5093143Y5390796D01*
X5114155Y5341081D01*
X5117715Y5279595D01*
X5103740Y5212133D01*
X5072145Y5144491D01*
X5059106Y5124875D01*
X4996136Y5051792D01*
X4919869Y4986205D01*
X4836835Y4932172D01*
X4753562Y4893748D01*
X4676578Y4874988D01*
X4654937Y4873800D01*
X4578569Y4885627D01*
X4497504Y4918083D01*
X4421578Y4966629D01*
X4386372Y4997741D01*
X4333283Y5062257D01*
X4290278Y5140996D01*
X4256357Y5237130D01*
X4230524Y5353833D01*
X4211780Y5494276D01*
X4204674Y5575469D01*
X4197475Y5667898D01*
X4188573Y5777095D01*
X4178980Y5890896D01*
X4169709Y5997132D01*
X4167527Y6021456D01*
X4158713Y6120853D01*
X4148604Y6237773D01*
X4138176Y6360766D01*
X4128402Y6478384D01*
X4123605Y6537303D01*
X4114969Y6638482D01*
X4107276Y6714079D01*
X4099993Y6767534D01*
X4092588Y6802292D01*
X4084529Y6821792D01*
X4078680Y6827921D01*
X4027687Y6865123D01*
X3989764Y6906020D01*
X3956452Y6960655D01*
X3941491Y6990761D01*
X3916911Y7045928D01*
X3904229Y7088062D01*
X3900897Y7129350D01*
X3903491Y7172612D01*
X3919002Y7248200D01*
X3948773Y7314849D01*
X3988812Y7365583D01*
X4028669Y7391265D01*
X4039776Y7394588D01*
X4048789Y7397280D01*
X4055489Y7402109D01*
X4059654Y7411840D01*
X4061065Y7429240D01*
X4059500Y7457075D01*
X4054739Y7498111D01*
X4046561Y7555114D01*
X4034747Y7630851D01*
X4019074Y7728087D01*
X3999323Y7849589D01*
X3985159Y7936922D01*
X3967363Y8047912D01*
X3951190Y8150747D01*
X3937214Y8241619D01*
X3926009Y8316719D01*
X3918150Y8372238D01*
X3914211Y8404367D01*
X3913861Y8409720D01*
X3908040Y8448056D01*
X3891850Y8507676D01*
X3867203Y8583525D01*
X3836009Y8670546D01*
X3800180Y8763685D01*
X3761627Y8857886D01*
X3722260Y8948093D01*
X3683991Y9029250D01*
X3667156Y9062390D01*
X3626271Y9139731D01*
X3594740Y9196126D01*
X3568876Y9236601D01*
X3544995Y9266184D01*
X3519413Y9289900D01*
X3488444Y9312778D01*
X3478726Y9319432D01*
X3433842Y9351398D01*
X3407589Y9376402D01*
X3393833Y9402691D01*
X3386439Y9438510D01*
X3385580Y9444628D01*
X3380575Y9496695D01*
X3377178Y9561788D01*
X3376218Y9612615D01*
X3380898Y9683219D01*
X3396968Y9730769D01*
X3427475Y9760048D01*
X3475466Y9775840D01*
X3480757Y9776765D01*
X3510966Y9781059D01*
X3565146Y9788023D01*
X3639662Y9797235D01*
X3730881Y9808274D01*
X3835166Y9820719D01*
X3948884Y9834148D01*
X4068399Y9848141D01*
X4190076Y9862274D01*
X4310282Y9876129D01*
X4425380Y9889282D01*
X4531737Y9901312D01*
X4625717Y9911800D01*
X4703686Y9920322D01*
X4762009Y9926457D01*
X4797051Y9929785D01*
X4804969Y9930267D01*
X4841745Y9920897D01*
G37*
G36*
X3663549Y12913076D02*
G01*
X3671342Y12910149D01*
X3699415Y12889470D01*
X3715014Y12849577D01*
X3716655Y12841127D01*
X3725992Y12789423D01*
X3735725Y12759629D01*
X3752401Y12748314D01*
X3782566Y12752049D01*
X3832765Y12767406D01*
X3848044Y12772287D01*
X4034636Y12821676D01*
X4241024Y12858249D01*
X4445765Y12879756D01*
X4479146Y12881100D01*
X4540249Y12882380D01*
X4627735Y12883596D01*
X4740266Y12884750D01*
X4876500Y12885840D01*
X5035101Y12886866D01*
X5214727Y12887830D01*
X5414040Y12888729D01*
X5631700Y12889566D01*
X5866369Y12890339D01*
X6116706Y12891049D01*
X6381374Y12891695D01*
X6659031Y12892278D01*
X6948340Y12892798D01*
X7247960Y12893254D01*
X7556553Y12893647D01*
X7872780Y12893976D01*
X8195300Y12894243D01*
X8522775Y12894445D01*
X8853865Y12894585D01*
X9187232Y12894661D01*
X9521535Y12894673D01*
X9855436Y12894623D01*
X10187596Y12894509D01*
X10516674Y12894331D01*
X10841332Y12894090D01*
X11160231Y12893786D01*
X11472031Y12893418D01*
X11775393Y12892987D01*
X12068977Y12892493D01*
X12351445Y12891935D01*
X12621456Y12891314D01*
X12877673Y12890630D01*
X13118755Y12889882D01*
X13343364Y12889071D01*
X13550159Y12888196D01*
X13737802Y12887258D01*
X13904954Y12886257D01*
X14050274Y12885192D01*
X14172425Y12884064D01*
X14270066Y12882873D01*
X14341858Y12881618D01*
X14386463Y12880300D01*
X14396374Y12879756D01*
X14602691Y12858355D01*
X14794436Y12823919D01*
X14984104Y12773996D01*
X15062834Y12748925D01*
X15317403Y12649229D01*
X15557407Y12525242D01*
X15781532Y12378539D01*
X15988461Y12210697D01*
X16176877Y12023290D01*
X16345465Y11817895D01*
X16492907Y11596088D01*
X16617888Y11359445D01*
X16719091Y11109540D01*
X16795200Y10847950D01*
X16838302Y10623544D01*
X16841170Y10601635D01*
X16843790Y10575377D01*
X16846175Y10543466D01*
X16848334Y10504594D01*
X16850278Y10457458D01*
X16852020Y10400753D01*
X16853569Y10333172D01*
X16854936Y10253411D01*
X16856133Y10160164D01*
X16857170Y10052127D01*
X16858058Y9927994D01*
X16858808Y9786459D01*
X16859432Y9626218D01*
X16859939Y9445965D01*
X16860342Y9244396D01*
X16860650Y9020204D01*
X16860875Y8772085D01*
X16861028Y8498733D01*
X16861120Y8198844D01*
X16861160Y7893725D01*
X16861101Y7518883D01*
X16860873Y7172874D01*
X16860475Y6855471D01*
X16859904Y6566447D01*
X16859161Y6305573D01*
X16858244Y6072622D01*
X16857150Y5867367D01*
X16855880Y5689579D01*
X16854432Y5539031D01*
X16852804Y5415496D01*
X16850995Y5318746D01*
X16849004Y5248553D01*
X16846829Y5204689D01*
X16845755Y5193196D01*
X16797256Y4920354D01*
X16722671Y4658191D01*
X16623315Y4408135D01*
X16500509Y4171610D01*
X16355569Y3950043D01*
X16189815Y3744860D01*
X16004564Y3557487D01*
X15801134Y3389350D01*
X15580845Y3241875D01*
X15345013Y3116488D01*
X15094957Y3014616D01*
X14831995Y2937684D01*
X14742735Y2918038D01*
X14652997Y2902164D01*
X14553333Y2888181D01*
X14457838Y2877908D01*
X14400411Y2873869D01*
X14369762Y2873101D01*
X14311538Y2872359D01*
X14227059Y2871643D01*
X14117647Y2870955D01*
X13984622Y2870295D01*
X13829305Y2869663D01*
X13653017Y2869059D01*
X13457077Y2868485D01*
X13242808Y2867940D01*
X13011530Y2867424D01*
X12764563Y2866940D01*
X12503228Y2866485D01*
X12228846Y2866062D01*
X11942738Y2865671D01*
X11646224Y2865312D01*
X11340625Y2864985D01*
X11027262Y2864690D01*
X10707455Y2864430D01*
X10382525Y2864202D01*
X10053794Y2864010D01*
X9722581Y2863851D01*
X9390207Y2863728D01*
X9057994Y2863640D01*
X8727261Y2863588D01*
X8399330Y2863572D01*
X8075520Y2863593D01*
X7757154Y2863651D01*
X7445552Y2863747D01*
X7142034Y2863880D01*
X6847921Y2864053D01*
X6564534Y2864264D01*
X6293193Y2864514D01*
X6035220Y2864804D01*
X5791934Y2865134D01*
X5564658Y2865505D01*
X5354710Y2865916D01*
X5163413Y2866369D01*
X4992087Y2866864D01*
X4842052Y2867402D01*
X4714630Y2867982D01*
X4611140Y2868605D01*
X4532904Y2869271D01*
X4481243Y2869982D01*
X4458770Y2870647D01*
X4185499Y2901204D01*
X3921340Y2958476D01*
X3667729Y3041151D01*
X3426103Y3147914D01*
X3197898Y3277450D01*
X2984552Y3428446D01*
X2787501Y3599588D01*
X2608183Y3789560D01*
X2448033Y3997051D01*
X2308489Y4220744D01*
X2190987Y4459327D01*
X2096964Y4711485D01*
X2027858Y4975903D01*
X2002317Y5117345D01*
X1999267Y5152115D01*
X1996424Y5214110D01*
X1993789Y5301496D01*
X1991361Y5412436D01*
X1989139Y5545095D01*
X1987122Y5697639D01*
X1985311Y5868231D01*
X1983704Y6055036D01*
X1982302Y6256219D01*
X1981103Y6469943D01*
X1980609Y6581261D01*
X2302181Y6581261D01*
X2302305Y6376006D01*
X2302679Y6191646D01*
X2303333Y6026819D01*
X2304298Y5880163D01*
X2305606Y5750319D01*
X2307290Y5635924D01*
X2309379Y5535618D01*
X2311906Y5448039D01*
X2314902Y5371827D01*
X2318399Y5305618D01*
X2322427Y5248054D01*
X2327020Y5197772D01*
X2332207Y5153411D01*
X2338021Y5113611D01*
X2344493Y5077009D01*
X2351655Y5042244D01*
X2359538Y5007956D01*
X2368173Y4972784D01*
X2374033Y4949482D01*
X2450466Y4703831D01*
X2551608Y4471587D01*
X2675819Y4254153D01*
X2821459Y4052933D01*
X2986889Y3869331D01*
X3170466Y3704749D01*
X3370552Y3560593D01*
X3585506Y3438266D01*
X3813688Y3339171D01*
X4053457Y3264713D01*
X4303174Y3216295D01*
X4413861Y3203772D01*
X4441027Y3202652D01*
X4495936Y3201582D01*
X4577271Y3200560D01*
X4683714Y3199589D01*
X4813946Y3198666D01*
X4966650Y3197794D01*
X5140508Y3196971D01*
X5334202Y3196198D01*
X5546414Y3195475D01*
X5775826Y3194802D01*
X6021119Y3194179D01*
X6280977Y3193607D01*
X6554080Y3193086D01*
X6839111Y3192615D01*
X7134752Y3192195D01*
X7439685Y3191826D01*
X7752592Y3191508D01*
X8072155Y3191241D01*
X8397055Y3191026D01*
X8725976Y3190862D01*
X9057599Y3190749D01*
X9390605Y3190689D01*
X9723678Y3190680D01*
X10055499Y3190723D01*
X10384750Y3190818D01*
X10710112Y3190966D01*
X11030269Y3191166D01*
X11343902Y3191418D01*
X11649693Y3191723D01*
X11946324Y3192081D01*
X12232477Y3192492D01*
X12506834Y3192956D01*
X12768077Y3193472D01*
X13014889Y3194043D01*
X13245950Y3194666D01*
X13459944Y3195343D01*
X13655552Y3196074D01*
X13831456Y3196859D01*
X13986338Y3197697D01*
X14118881Y3198590D01*
X14227766Y3199537D01*
X14311674Y3200538D01*
X14369289Y3201594D01*
X14399293Y3202704D01*
X14400372Y3202788D01*
X14660900Y3238612D01*
X14911104Y3301338D01*
X15149980Y3390517D01*
X15376520Y3505698D01*
X15589718Y3646432D01*
X15788567Y3812270D01*
X15810079Y3832557D01*
X15991157Y4024546D01*
X16146566Y4230127D01*
X16276171Y4449015D01*
X16379835Y4680923D01*
X16457424Y4925565D01*
X16508801Y5182654D01*
X16527339Y5347023D01*
X16529386Y5387958D01*
X16531224Y5457432D01*
X16532850Y5554920D01*
X16534263Y5679901D01*
X16535460Y5831851D01*
X16536441Y6010247D01*
X16537203Y6214566D01*
X16537744Y6444286D01*
X16538062Y6698883D01*
X16538156Y6977835D01*
X16538023Y7280617D01*
X16537662Y7606709D01*
X16537071Y7955585D01*
X16536949Y8016215D01*
X16536315Y8335574D01*
X16535751Y8627264D01*
X16535214Y8892677D01*
X16534659Y9133204D01*
X16534041Y9350238D01*
X16533317Y9545172D01*
X16532442Y9719397D01*
X16531371Y9874305D01*
X16530061Y10011289D01*
X16528468Y10131741D01*
X16526546Y10237052D01*
X16524252Y10328615D01*
X16521541Y10407823D01*
X16518369Y10476066D01*
X16514692Y10534738D01*
X16510465Y10585231D01*
X16505644Y10628936D01*
X16500185Y10667246D01*
X16494044Y10701553D01*
X16487176Y10733249D01*
X16479537Y10763726D01*
X16471083Y10794376D01*
X16461769Y10826592D01*
X16451551Y10861766D01*
X16445766Y10882040D01*
X16365798Y11113098D01*
X16259410Y11336991D01*
X16129043Y11549954D01*
X15977139Y11748222D01*
X15806140Y11928031D01*
X15714233Y12009845D01*
X15514351Y12160867D01*
X15302138Y12287859D01*
X15075280Y12391909D01*
X14831459Y12474103D01*
X14612402Y12526939D01*
X14599707Y12529288D01*
X14584969Y12531493D01*
X14567256Y12533559D01*
X14545640Y12535493D01*
X14519192Y12537299D01*
X14486981Y12538983D01*
X14448079Y12540551D01*
X14401555Y12542008D01*
X14346481Y12543360D01*
X14281926Y12544612D01*
X14206962Y12545771D01*
X14120659Y12546841D01*
X14022087Y12547828D01*
X13910317Y12548738D01*
X13784420Y12549577D01*
X13643465Y12550349D01*
X13486524Y12551061D01*
X13312668Y12551718D01*
X13120965Y12552325D01*
X12910488Y12552889D01*
X12680306Y12553414D01*
X12429491Y12553907D01*
X12157112Y12554373D01*
X11862240Y12554817D01*
X11543946Y12555245D01*
X11201301Y12555663D01*
X10833373Y12556076D01*
X10439236Y12556490D01*
X10017958Y12556910D01*
X9568610Y12557342D01*
X9537317Y12557372D01*
X9034091Y12557814D01*
X8559494Y12558158D01*
X8113092Y12558404D01*
X7694454Y12558550D01*
X7303146Y12558596D01*
X6938736Y12558540D01*
X6600791Y12558383D01*
X6288877Y12558121D01*
X6002562Y12557756D01*
X5741413Y12557286D01*
X5504998Y12556709D01*
X5292884Y12556025D01*
X5104637Y12555234D01*
X4939824Y12554333D01*
X4798014Y12553323D01*
X4678774Y12552202D01*
X4581669Y12550969D01*
X4506268Y12549623D01*
X4452138Y12548164D01*
X4418846Y12546590D01*
X4414109Y12546213D01*
X4199027Y12517334D01*
X3991002Y12468994D01*
X3881167Y12435312D01*
X3825692Y12416479D01*
X3792289Y12402293D01*
X3775362Y12388505D01*
X3769315Y12370864D01*
X3768552Y12349755D01*
X3765225Y12315540D01*
X3756245Y12261498D01*
X3743110Y12195970D01*
X3732103Y12147119D01*
X3715558Y12083365D01*
X3695904Y12021836D01*
X3670711Y11956503D01*
X3637549Y11881334D01*
X3593986Y11790299D01*
X3563464Y11728790D01*
X3487185Y11572472D01*
X3423441Y11433514D01*
X3372885Y11313510D01*
X3336168Y11214053D01*
X3313941Y11136734D01*
X3308212Y11104898D01*
X3308884Y11019638D01*
X3328410Y10917962D01*
X3364893Y10803801D01*
X3416437Y10681087D01*
X3481146Y10553752D01*
X3557124Y10425726D01*
X3642474Y10300942D01*
X3735301Y10183332D01*
X3773809Y10139497D01*
X3814815Y10092027D01*
X3836555Y10060397D01*
X3841273Y10040904D01*
X3837560Y10034148D01*
X3822282Y10022461D01*
X3803310Y10019206D01*
X3774181Y10025341D01*
X3728433Y10041821D01*
X3694771Y10055266D01*
X3603453Y10102755D01*
X3504955Y10172378D01*
X3403807Y10259671D01*
X3304542Y10360171D01*
X3211689Y10469415D01*
X3129781Y10582937D01*
X3085281Y10655628D01*
X3055853Y10714412D01*
X3024177Y10788607D01*
X2995516Y10865551D01*
X2985825Y10895056D01*
X2965213Y10963716D01*
X2952791Y11016022D01*
X2947164Y11063052D01*
X2946935Y11115889D01*
X2950205Y11177786D01*
X2954153Y11232377D01*
X2959443Y11276141D01*
X2968154Y11315733D01*
X2982360Y11357810D01*
X3004140Y11409027D01*
X3035569Y11476039D01*
X3057411Y11521399D01*
X3100453Y11607713D01*
X3152919Y11708646D01*
X3209323Y11813875D01*
X3264174Y11913076D01*
X3286510Y11952341D01*
X3329730Y12027616D01*
X3368834Y12095937D01*
X3401131Y12152589D01*
X3423932Y12192853D01*
X3433915Y12210819D01*
X3434227Y12222484D01*
X3415000Y12217499D01*
X3379089Y12197742D01*
X3329350Y12165085D01*
X3268637Y12121405D01*
X3199805Y12068577D01*
X3125709Y12008475D01*
X3125225Y12008071D01*
X2947967Y11841986D01*
X2787821Y11654455D01*
X2647095Y11449040D01*
X2528096Y11229306D01*
X2433134Y10998816D01*
X2395882Y10882356D01*
X2385200Y10846027D01*
X2375432Y10813110D01*
X2366538Y10782228D01*
X2358472Y10752006D01*
X2351192Y10721068D01*
X2344654Y10688040D01*
X2338815Y10651544D01*
X2333632Y10610207D01*
X2329062Y10562651D01*
X2325061Y10507502D01*
X2321586Y10443384D01*
X2318593Y10368922D01*
X2316040Y10282739D01*
X2313883Y10183460D01*
X2312078Y10069710D01*
X2310583Y9940112D01*
X2309355Y9793293D01*
X2308349Y9627874D01*
X2307523Y9442483D01*
X2306833Y9235741D01*
X2306236Y9006275D01*
X2305689Y8752708D01*
X2305148Y8473665D01*
X2304571Y8167770D01*
X2304184Y7968596D01*
X2303538Y7638451D01*
X2302983Y7336005D01*
X2302551Y7059900D01*
X2302273Y6808772D01*
X2302181Y6581261D01*
X1980609Y6581261D01*
X1980107Y6694375D01*
X1979313Y6927677D01*
X1978721Y7168016D01*
X1978331Y7413555D01*
X1978141Y7662459D01*
X1978152Y7912893D01*
X1978362Y8163020D01*
X1978772Y8411007D01*
X1979380Y8655016D01*
X1980186Y8893214D01*
X1981190Y9123764D01*
X1982391Y9344831D01*
X1983788Y9554579D01*
X1985381Y9751174D01*
X1987169Y9932779D01*
X1989152Y10097559D01*
X1991329Y10243679D01*
X1993700Y10369304D01*
X1996265Y10472598D01*
X1999021Y10551725D01*
X2001970Y10604850D01*
X2003957Y10624351D01*
X2057936Y10892312D01*
X2138212Y11151016D01*
X2243448Y11398619D01*
X2372305Y11633279D01*
X2523446Y11853152D01*
X2695533Y12056396D01*
X2887229Y12241167D01*
X3097194Y12405623D01*
X3324093Y12547920D01*
X3446580Y12611698D01*
X3515727Y12646190D01*
X3562761Y12674122D01*
X3591895Y12701241D01*
X3607343Y12733295D01*
X3613319Y12776032D01*
X3614037Y12835200D01*
X3613999Y12840078D01*
X3614683Y12889471D01*
X3620458Y12914790D01*
X3635391Y12921002D01*
X3663549Y12913076D01*
G37*
G04 #@! TD*
M02*
