G04 #@! TF.GenerationSoftware,KiCad,Pcbnew,7.0.10-7.0.10~ubuntu22.04.1*
G04 #@! TF.CreationDate,2024-01-15T23:46:46+00:00*
G04 #@! TF.ProjectId,uaeficopiedtovfr,75616566-6963-46f7-9069-6564746f7666,rev?*
G04 #@! TF.SameCoordinates,Original*
G04 #@! TF.FileFunction,Paste,Bot*
G04 #@! TF.FilePolarity,Positive*
%FSLAX46Y46*%
G04 Gerber Fmt 4.6, Leading zero omitted, Abs format (unit mm)*
G04 Created by KiCad (PCBNEW 7.0.10-7.0.10~ubuntu22.04.1) date 2024-01-15 23:46:46*
%MOMM*%
%LPD*%
G01*
G04 APERTURE LIST*
G04 APERTURE END LIST*
G04 #@! TO.C,D2*
G36*
G01*
X129564000Y50373000D02*
X128544000Y50373000D01*
G75*
G02*
X128454000Y50463000I0J90000D01*
G01*
X128454000Y51183000D01*
G75*
G02*
X128544000Y51273000I90000J0D01*
G01*
X129564000Y51273000D01*
G75*
G02*
X129654000Y51183000I0J-90000D01*
G01*
X129654000Y50463000D01*
G75*
G02*
X129564000Y50373000I-90000J0D01*
G01*
G37*
G36*
G01*
X129564000Y53673000D02*
X128544000Y53673000D01*
G75*
G02*
X128454000Y53763000I0J90000D01*
G01*
X128454000Y54483000D01*
G75*
G02*
X128544000Y54573000I90000J0D01*
G01*
X129564000Y54573000D01*
G75*
G02*
X129654000Y54483000I0J-90000D01*
G01*
X129654000Y53763000D01*
G75*
G02*
X129564000Y53673000I-90000J0D01*
G01*
G37*
G04 #@! TD*
G04 #@! TO.C,D5*
G36*
G01*
X125572000Y50400000D02*
X124552000Y50400000D01*
G75*
G02*
X124462000Y50490000I0J90000D01*
G01*
X124462000Y51210000D01*
G75*
G02*
X124552000Y51300000I90000J0D01*
G01*
X125572000Y51300000D01*
G75*
G02*
X125662000Y51210000I0J-90000D01*
G01*
X125662000Y50490000D01*
G75*
G02*
X125572000Y50400000I-90000J0D01*
G01*
G37*
G36*
G01*
X125572000Y53700000D02*
X124552000Y53700000D01*
G75*
G02*
X124462000Y53790000I0J90000D01*
G01*
X124462000Y54510000D01*
G75*
G02*
X124552000Y54600000I90000J0D01*
G01*
X125572000Y54600000D01*
G75*
G02*
X125662000Y54510000I0J-90000D01*
G01*
X125662000Y53790000D01*
G75*
G02*
X125572000Y53700000I-90000J0D01*
G01*
G37*
G04 #@! TD*
G04 #@! TO.C,D3*
G36*
G01*
X119794000Y43095000D02*
X118774000Y43095000D01*
G75*
G02*
X118684000Y43185000I0J90000D01*
G01*
X118684000Y43905000D01*
G75*
G02*
X118774000Y43995000I90000J0D01*
G01*
X119794000Y43995000D01*
G75*
G02*
X119884000Y43905000I0J-90000D01*
G01*
X119884000Y43185000D01*
G75*
G02*
X119794000Y43095000I-90000J0D01*
G01*
G37*
G36*
G01*
X119794000Y46395000D02*
X118774000Y46395000D01*
G75*
G02*
X118684000Y46485000I0J90000D01*
G01*
X118684000Y47205000D01*
G75*
G02*
X118774000Y47295000I90000J0D01*
G01*
X119794000Y47295000D01*
G75*
G02*
X119884000Y47205000I0J-90000D01*
G01*
X119884000Y46485000D01*
G75*
G02*
X119794000Y46395000I-90000J0D01*
G01*
G37*
G04 #@! TD*
G04 #@! TO.C,R12*
G36*
G01*
X116315586Y45900460D02*
X113847414Y44475460D01*
G75*
G02*
X113505908Y44566966I-125000J216506D01*
G01*
X113143408Y45194834D01*
G75*
G02*
X113234914Y45536340I216506J125000D01*
G01*
X115703086Y46961340D01*
G75*
G02*
X116044592Y46869834I125000J-216506D01*
G01*
X116407092Y46241966D01*
G75*
G02*
X116315586Y45900460I-216506J-125000D01*
G01*
G37*
G36*
G01*
X113353086Y51031660D02*
X110884914Y49606660D01*
G75*
G02*
X110543408Y49698166I-125000J216506D01*
G01*
X110180908Y50326034D01*
G75*
G02*
X110272414Y50667540I216506J125000D01*
G01*
X112740586Y52092540D01*
G75*
G02*
X113082092Y52001034I125000J-216506D01*
G01*
X113444592Y51373166D01*
G75*
G02*
X113353086Y51031660I-216506J-125000D01*
G01*
G37*
G04 #@! TD*
G04 #@! TO.C,D4*
G36*
G01*
X123868000Y45394000D02*
X122848000Y45394000D01*
G75*
G02*
X122758000Y45484000I0J90000D01*
G01*
X122758000Y46204000D01*
G75*
G02*
X122848000Y46294000I90000J0D01*
G01*
X123868000Y46294000D01*
G75*
G02*
X123958000Y46204000I0J-90000D01*
G01*
X123958000Y45484000D01*
G75*
G02*
X123868000Y45394000I-90000J0D01*
G01*
G37*
G36*
G01*
X123868000Y48694000D02*
X122848000Y48694000D01*
G75*
G02*
X122758000Y48784000I0J90000D01*
G01*
X122758000Y49504000D01*
G75*
G02*
X122848000Y49594000I90000J0D01*
G01*
X123868000Y49594000D01*
G75*
G02*
X123958000Y49504000I0J-90000D01*
G01*
X123958000Y48784000D01*
G75*
G02*
X123868000Y48694000I-90000J0D01*
G01*
G37*
G04 #@! TD*
G04 #@! TO.C,R5*
G36*
G01*
X16662000Y37938000D02*
X16662000Y38718000D01*
G75*
G02*
X16732000Y38788000I70000J0D01*
G01*
X17292000Y38788000D01*
G75*
G02*
X17362000Y38718000I0J-70000D01*
G01*
X17362000Y37938000D01*
G75*
G02*
X17292000Y37868000I-70000J0D01*
G01*
X16732000Y37868000D01*
G75*
G02*
X16662000Y37938000I0J70000D01*
G01*
G37*
G36*
G01*
X18262000Y37938000D02*
X18262000Y38718000D01*
G75*
G02*
X18332000Y38788000I70000J0D01*
G01*
X18892000Y38788000D01*
G75*
G02*
X18962000Y38718000I0J-70000D01*
G01*
X18962000Y37938000D01*
G75*
G02*
X18892000Y37868000I-70000J0D01*
G01*
X18332000Y37868000D01*
G75*
G02*
X18262000Y37938000I0J70000D01*
G01*
G37*
G04 #@! TD*
G04 #@! TO.C,R18*
G36*
G01*
X98465586Y46196460D02*
X95997414Y44771460D01*
G75*
G02*
X95655908Y44862966I-125000J216506D01*
G01*
X95293408Y45490834D01*
G75*
G02*
X95384914Y45832340I216506J125000D01*
G01*
X97853086Y47257340D01*
G75*
G02*
X98194592Y47165834I125000J-216506D01*
G01*
X98557092Y46537966D01*
G75*
G02*
X98465586Y46196460I-216506J-125000D01*
G01*
G37*
G36*
G01*
X95503086Y51327660D02*
X93034914Y49902660D01*
G75*
G02*
X92693408Y49994166I-125000J216506D01*
G01*
X92330908Y50622034D01*
G75*
G02*
X92422414Y50963540I216506J125000D01*
G01*
X94890586Y52388540D01*
G75*
G02*
X95232092Y52297034I125000J-216506D01*
G01*
X95594592Y51669166D01*
G75*
G02*
X95503086Y51327660I-216506J-125000D01*
G01*
G37*
G04 #@! TD*
G04 #@! TO.C,R13*
G36*
G01*
X99118586Y33268460D02*
X96650414Y31843460D01*
G75*
G02*
X96308908Y31934966I-125000J216506D01*
G01*
X95946408Y32562834D01*
G75*
G02*
X96037914Y32904340I216506J125000D01*
G01*
X98506086Y34329340D01*
G75*
G02*
X98847592Y34237834I125000J-216506D01*
G01*
X99210092Y33609966D01*
G75*
G02*
X99118586Y33268460I-216506J-125000D01*
G01*
G37*
G36*
G01*
X96156086Y38399660D02*
X93687914Y36974660D01*
G75*
G02*
X93346408Y37066166I-125000J216506D01*
G01*
X92983908Y37694034D01*
G75*
G02*
X93075414Y38035540I216506J125000D01*
G01*
X95543586Y39460540D01*
G75*
G02*
X95885092Y39369034I125000J-216506D01*
G01*
X96247592Y38741166D01*
G75*
G02*
X96156086Y38399660I-216506J-125000D01*
G01*
G37*
G04 #@! TD*
G04 #@! TO.C,R14*
G36*
G01*
X111119586Y37056460D02*
X108651414Y35631460D01*
G75*
G02*
X108309908Y35722966I-125000J216506D01*
G01*
X107947408Y36350834D01*
G75*
G02*
X108038914Y36692340I216506J125000D01*
G01*
X110507086Y38117340D01*
G75*
G02*
X110848592Y38025834I125000J-216506D01*
G01*
X111211092Y37397966D01*
G75*
G02*
X111119586Y37056460I-216506J-125000D01*
G01*
G37*
G36*
G01*
X108157086Y42187660D02*
X105688914Y40762660D01*
G75*
G02*
X105347408Y40854166I-125000J216506D01*
G01*
X104984908Y41482034D01*
G75*
G02*
X105076414Y41823540I216506J125000D01*
G01*
X107544586Y43248540D01*
G75*
G02*
X107886092Y43157034I125000J-216506D01*
G01*
X108248592Y42529166D01*
G75*
G02*
X108157086Y42187660I-216506J-125000D01*
G01*
G37*
G04 #@! TD*
M02*
