G04 #@! TF.GenerationSoftware,KiCad,Pcbnew,7.0.9-7.0.9~ubuntu22.04.1*
G04 #@! TF.CreationDate,2023-12-28T06:13:26+00:00*
G04 #@! TF.ProjectId,uaeficopiedtovfr,75616566-6963-46f7-9069-6564746f7666,rev?*
G04 #@! TF.SameCoordinates,Original*
G04 #@! TF.FileFunction,Legend,Bot*
G04 #@! TF.FilePolarity,Positive*
%FSLAX46Y46*%
G04 Gerber Fmt 4.6, Leading zero omitted, Abs format (unit mm)*
G04 Created by KiCad (PCBNEW 7.0.9-7.0.9~ubuntu22.04.1) date 2023-12-28 06:13:26*
%MOMM*%
%LPD*%
G01*
G04 APERTURE LIST*
%ADD10C,0.127000*%
%ADD11C,0.150000*%
%ADD12C,0.170000*%
%ADD13C,0.099060*%
%ADD14C,0.120000*%
%ADD15C,0.200000*%
%ADD16C,0.203200*%
G04 APERTURE END LIST*
D10*
X119870911Y15277000D02*
X119508054Y15531000D01*
X119870911Y15712429D02*
X119108911Y15712429D01*
X119108911Y15712429D02*
X119108911Y15422143D01*
X119108911Y15422143D02*
X119145197Y15349572D01*
X119145197Y15349572D02*
X119181483Y15313286D01*
X119181483Y15313286D02*
X119254054Y15277000D01*
X119254054Y15277000D02*
X119362911Y15277000D01*
X119362911Y15277000D02*
X119435483Y15313286D01*
X119435483Y15313286D02*
X119471768Y15349572D01*
X119471768Y15349572D02*
X119508054Y15422143D01*
X119508054Y15422143D02*
X119508054Y15712429D01*
X119362911Y14623857D02*
X119870911Y14623857D01*
X119072626Y14805286D02*
X119616911Y14986715D01*
X119616911Y14986715D02*
X119616911Y14515000D01*
D11*
X132579819Y41688095D02*
X131579819Y41688095D01*
X131579819Y41688095D02*
X131579819Y41307143D01*
X131579819Y41307143D02*
X131627438Y41211905D01*
X131627438Y41211905D02*
X131675057Y41164286D01*
X131675057Y41164286D02*
X131770295Y41116667D01*
X131770295Y41116667D02*
X131913152Y41116667D01*
X131913152Y41116667D02*
X132008390Y41164286D01*
X132008390Y41164286D02*
X132056009Y41211905D01*
X132056009Y41211905D02*
X132103628Y41307143D01*
X132103628Y41307143D02*
X132103628Y41688095D01*
X131579819Y40783333D02*
X131579819Y40164286D01*
X131579819Y40164286D02*
X131960771Y40497619D01*
X131960771Y40497619D02*
X131960771Y40354762D01*
X131960771Y40354762D02*
X132008390Y40259524D01*
X132008390Y40259524D02*
X132056009Y40211905D01*
X132056009Y40211905D02*
X132151247Y40164286D01*
X132151247Y40164286D02*
X132389342Y40164286D01*
X132389342Y40164286D02*
X132484580Y40211905D01*
X132484580Y40211905D02*
X132532200Y40259524D01*
X132532200Y40259524D02*
X132579819Y40354762D01*
X132579819Y40354762D02*
X132579819Y40640476D01*
X132579819Y40640476D02*
X132532200Y40735714D01*
X132532200Y40735714D02*
X132484580Y40783333D01*
X136359819Y41688095D02*
X135359819Y41688095D01*
X135359819Y41688095D02*
X135359819Y41307143D01*
X135359819Y41307143D02*
X135407438Y41211905D01*
X135407438Y41211905D02*
X135455057Y41164286D01*
X135455057Y41164286D02*
X135550295Y41116667D01*
X135550295Y41116667D02*
X135693152Y41116667D01*
X135693152Y41116667D02*
X135788390Y41164286D01*
X135788390Y41164286D02*
X135836009Y41211905D01*
X135836009Y41211905D02*
X135883628Y41307143D01*
X135883628Y41307143D02*
X135883628Y41688095D01*
X135693152Y40259524D02*
X136359819Y40259524D01*
X135312200Y40497619D02*
X136026485Y40735714D01*
X136026485Y40735714D02*
X136026485Y40116667D01*
D10*
X111721768Y44304000D02*
X111721768Y44558000D01*
X112120911Y44558000D02*
X111358911Y44558000D01*
X111358911Y44558000D02*
X111358911Y44195143D01*
X111431483Y43941143D02*
X111395197Y43904857D01*
X111395197Y43904857D02*
X111358911Y43832285D01*
X111358911Y43832285D02*
X111358911Y43650857D01*
X111358911Y43650857D02*
X111395197Y43578285D01*
X111395197Y43578285D02*
X111431483Y43542000D01*
X111431483Y43542000D02*
X111504054Y43505714D01*
X111504054Y43505714D02*
X111576626Y43505714D01*
X111576626Y43505714D02*
X111685483Y43542000D01*
X111685483Y43542000D02*
X112120911Y43977428D01*
X112120911Y43977428D02*
X112120911Y43505714D01*
X124438537Y43895672D02*
X124618142Y44075277D01*
X124900379Y43793041D02*
X124361563Y44331856D01*
X124361563Y44331856D02*
X124104985Y44075277D01*
X124156300Y43048962D02*
X124464195Y43356857D01*
X124310248Y43202910D02*
X123771432Y43741725D01*
X123771432Y43741725D02*
X123899722Y43716067D01*
X123899722Y43716067D02*
X124002353Y43716067D01*
X124002353Y43716067D02*
X124079327Y43741725D01*
D11*
X27049819Y47892858D02*
X26573628Y48226191D01*
X27049819Y48464286D02*
X26049819Y48464286D01*
X26049819Y48464286D02*
X26049819Y48083334D01*
X26049819Y48083334D02*
X26097438Y47988096D01*
X26097438Y47988096D02*
X26145057Y47940477D01*
X26145057Y47940477D02*
X26240295Y47892858D01*
X26240295Y47892858D02*
X26383152Y47892858D01*
X26383152Y47892858D02*
X26478390Y47940477D01*
X26478390Y47940477D02*
X26526009Y47988096D01*
X26526009Y47988096D02*
X26573628Y48083334D01*
X26573628Y48083334D02*
X26573628Y48464286D01*
X27049819Y46940477D02*
X27049819Y47511905D01*
X27049819Y47226191D02*
X26049819Y47226191D01*
X26049819Y47226191D02*
X26192676Y47321429D01*
X26192676Y47321429D02*
X26287914Y47416667D01*
X26287914Y47416667D02*
X26335533Y47511905D01*
X26383152Y46083334D02*
X27049819Y46083334D01*
X26002200Y46321429D02*
X26716485Y46559524D01*
X26716485Y46559524D02*
X26716485Y45940477D01*
X36399819Y49642858D02*
X35923628Y49976191D01*
X36399819Y50214286D02*
X35399819Y50214286D01*
X35399819Y50214286D02*
X35399819Y49833334D01*
X35399819Y49833334D02*
X35447438Y49738096D01*
X35447438Y49738096D02*
X35495057Y49690477D01*
X35495057Y49690477D02*
X35590295Y49642858D01*
X35590295Y49642858D02*
X35733152Y49642858D01*
X35733152Y49642858D02*
X35828390Y49690477D01*
X35828390Y49690477D02*
X35876009Y49738096D01*
X35876009Y49738096D02*
X35923628Y49833334D01*
X35923628Y49833334D02*
X35923628Y50214286D01*
X36399819Y48690477D02*
X36399819Y49261905D01*
X36399819Y48976191D02*
X35399819Y48976191D01*
X35399819Y48976191D02*
X35542676Y49071429D01*
X35542676Y49071429D02*
X35637914Y49166667D01*
X35637914Y49166667D02*
X35685533Y49261905D01*
X35495057Y48309524D02*
X35447438Y48261905D01*
X35447438Y48261905D02*
X35399819Y48166667D01*
X35399819Y48166667D02*
X35399819Y47928572D01*
X35399819Y47928572D02*
X35447438Y47833334D01*
X35447438Y47833334D02*
X35495057Y47785715D01*
X35495057Y47785715D02*
X35590295Y47738096D01*
X35590295Y47738096D02*
X35685533Y47738096D01*
X35685533Y47738096D02*
X35828390Y47785715D01*
X35828390Y47785715D02*
X36399819Y48357143D01*
X36399819Y48357143D02*
X36399819Y47738096D01*
D12*
X17888014Y42640093D02*
X18278490Y42366760D01*
X17888014Y42171522D02*
X18708014Y42171522D01*
X18708014Y42171522D02*
X18708014Y42483903D01*
X18708014Y42483903D02*
X18668966Y42561998D01*
X18668966Y42561998D02*
X18629919Y42601045D01*
X18629919Y42601045D02*
X18551823Y42640093D01*
X18551823Y42640093D02*
X18434681Y42640093D01*
X18434681Y42640093D02*
X18356585Y42601045D01*
X18356585Y42601045D02*
X18317538Y42561998D01*
X18317538Y42561998D02*
X18278490Y42483903D01*
X18278490Y42483903D02*
X18278490Y42171522D01*
X17888014Y43421045D02*
X17888014Y42952474D01*
X17888014Y43186760D02*
X18708014Y43186760D01*
X18708014Y43186760D02*
X18590871Y43108664D01*
X18590871Y43108664D02*
X18512776Y43030569D01*
X18512776Y43030569D02*
X18473728Y42952474D01*
X18708014Y44162950D02*
X18708014Y43772474D01*
X18708014Y43772474D02*
X18317538Y43733426D01*
X18317538Y43733426D02*
X18356585Y43772474D01*
X18356585Y43772474D02*
X18395633Y43850569D01*
X18395633Y43850569D02*
X18395633Y44045807D01*
X18395633Y44045807D02*
X18356585Y44123902D01*
X18356585Y44123902D02*
X18317538Y44162950D01*
X18317538Y44162950D02*
X18239442Y44201997D01*
X18239442Y44201997D02*
X18044204Y44201997D01*
X18044204Y44201997D02*
X17966109Y44162950D01*
X17966109Y44162950D02*
X17927062Y44123902D01*
X17927062Y44123902D02*
X17888014Y44045807D01*
X17888014Y44045807D02*
X17888014Y43850569D01*
X17888014Y43850569D02*
X17927062Y43772474D01*
X17927062Y43772474D02*
X17966109Y43733426D01*
X50875237Y54429492D02*
X50875237Y55249492D01*
X50875237Y55249492D02*
X50679999Y55249492D01*
X50679999Y55249492D02*
X50562856Y55210444D01*
X50562856Y55210444D02*
X50484761Y55132349D01*
X50484761Y55132349D02*
X50445714Y55054254D01*
X50445714Y55054254D02*
X50406666Y54898063D01*
X50406666Y54898063D02*
X50406666Y54780920D01*
X50406666Y54780920D02*
X50445714Y54624730D01*
X50445714Y54624730D02*
X50484761Y54546635D01*
X50484761Y54546635D02*
X50562856Y54468539D01*
X50562856Y54468539D02*
X50679999Y54429492D01*
X50679999Y54429492D02*
X50875237Y54429492D01*
X50094285Y55171397D02*
X50055237Y55210444D01*
X50055237Y55210444D02*
X49977142Y55249492D01*
X49977142Y55249492D02*
X49781904Y55249492D01*
X49781904Y55249492D02*
X49703809Y55210444D01*
X49703809Y55210444D02*
X49664761Y55171397D01*
X49664761Y55171397D02*
X49625714Y55093301D01*
X49625714Y55093301D02*
X49625714Y55015206D01*
X49625714Y55015206D02*
X49664761Y54898063D01*
X49664761Y54898063D02*
X50133333Y54429492D01*
X50133333Y54429492D02*
X49625714Y54429492D01*
X52038610Y38168061D02*
X51458783Y38747889D01*
X51458783Y38747889D02*
X51320729Y38609835D01*
X51320729Y38609835D02*
X51265507Y38499391D01*
X51265507Y38499391D02*
X51265507Y38388948D01*
X51265507Y38388948D02*
X51293118Y38306115D01*
X51293118Y38306115D02*
X51375950Y38168061D01*
X51375950Y38168061D02*
X51458783Y38085229D01*
X51458783Y38085229D02*
X51596837Y38002396D01*
X51596837Y38002396D02*
X51679670Y37974785D01*
X51679670Y37974785D02*
X51790113Y37974785D01*
X51790113Y37974785D02*
X51900556Y38030007D01*
X51900556Y38030007D02*
X52038610Y38168061D01*
X50602847Y37891953D02*
X50878955Y38168061D01*
X50878955Y38168061D02*
X51182675Y37919564D01*
X51182675Y37919564D02*
X51127453Y37919564D01*
X51127453Y37919564D02*
X51044620Y37891953D01*
X51044620Y37891953D02*
X50906566Y37753899D01*
X50906566Y37753899D02*
X50878955Y37671066D01*
X50878955Y37671066D02*
X50878955Y37615844D01*
X50878955Y37615844D02*
X50906566Y37533012D01*
X50906566Y37533012D02*
X51044620Y37394958D01*
X51044620Y37394958D02*
X51127453Y37367347D01*
X51127453Y37367347D02*
X51182675Y37367347D01*
X51182675Y37367347D02*
X51265507Y37394958D01*
X51265507Y37394958D02*
X51403561Y37533012D01*
X51403561Y37533012D02*
X51431172Y37615844D01*
X51431172Y37615844D02*
X51431172Y37671066D01*
X30988014Y44790093D02*
X31378490Y44516760D01*
X30988014Y44321522D02*
X31808014Y44321522D01*
X31808014Y44321522D02*
X31808014Y44633903D01*
X31808014Y44633903D02*
X31768966Y44711998D01*
X31768966Y44711998D02*
X31729919Y44751045D01*
X31729919Y44751045D02*
X31651823Y44790093D01*
X31651823Y44790093D02*
X31534681Y44790093D01*
X31534681Y44790093D02*
X31456585Y44751045D01*
X31456585Y44751045D02*
X31417538Y44711998D01*
X31417538Y44711998D02*
X31378490Y44633903D01*
X31378490Y44633903D02*
X31378490Y44321522D01*
X30988014Y45180569D02*
X30988014Y45336760D01*
X30988014Y45336760D02*
X31027062Y45414855D01*
X31027062Y45414855D02*
X31066109Y45453903D01*
X31066109Y45453903D02*
X31183252Y45531998D01*
X31183252Y45531998D02*
X31339442Y45571045D01*
X31339442Y45571045D02*
X31651823Y45571045D01*
X31651823Y45571045D02*
X31729919Y45531998D01*
X31729919Y45531998D02*
X31768966Y45492950D01*
X31768966Y45492950D02*
X31808014Y45414855D01*
X31808014Y45414855D02*
X31808014Y45258664D01*
X31808014Y45258664D02*
X31768966Y45180569D01*
X31768966Y45180569D02*
X31729919Y45141522D01*
X31729919Y45141522D02*
X31651823Y45102474D01*
X31651823Y45102474D02*
X31456585Y45102474D01*
X31456585Y45102474D02*
X31378490Y45141522D01*
X31378490Y45141522D02*
X31339442Y45180569D01*
X31339442Y45180569D02*
X31300395Y45258664D01*
X31300395Y45258664D02*
X31300395Y45414855D01*
X31300395Y45414855D02*
X31339442Y45492950D01*
X31339442Y45492950D02*
X31378490Y45531998D01*
X31378490Y45531998D02*
X31456585Y45571045D01*
D11*
X18499819Y48842858D02*
X18023628Y49176191D01*
X18499819Y49414286D02*
X17499819Y49414286D01*
X17499819Y49414286D02*
X17499819Y49033334D01*
X17499819Y49033334D02*
X17547438Y48938096D01*
X17547438Y48938096D02*
X17595057Y48890477D01*
X17595057Y48890477D02*
X17690295Y48842858D01*
X17690295Y48842858D02*
X17833152Y48842858D01*
X17833152Y48842858D02*
X17928390Y48890477D01*
X17928390Y48890477D02*
X17976009Y48938096D01*
X17976009Y48938096D02*
X18023628Y49033334D01*
X18023628Y49033334D02*
X18023628Y49414286D01*
X18499819Y47890477D02*
X18499819Y48461905D01*
X18499819Y48176191D02*
X17499819Y48176191D01*
X17499819Y48176191D02*
X17642676Y48271429D01*
X17642676Y48271429D02*
X17737914Y48366667D01*
X17737914Y48366667D02*
X17785533Y48461905D01*
X17928390Y47319048D02*
X17880771Y47414286D01*
X17880771Y47414286D02*
X17833152Y47461905D01*
X17833152Y47461905D02*
X17737914Y47509524D01*
X17737914Y47509524D02*
X17690295Y47509524D01*
X17690295Y47509524D02*
X17595057Y47461905D01*
X17595057Y47461905D02*
X17547438Y47414286D01*
X17547438Y47414286D02*
X17499819Y47319048D01*
X17499819Y47319048D02*
X17499819Y47128572D01*
X17499819Y47128572D02*
X17547438Y47033334D01*
X17547438Y47033334D02*
X17595057Y46985715D01*
X17595057Y46985715D02*
X17690295Y46938096D01*
X17690295Y46938096D02*
X17737914Y46938096D01*
X17737914Y46938096D02*
X17833152Y46985715D01*
X17833152Y46985715D02*
X17880771Y47033334D01*
X17880771Y47033334D02*
X17928390Y47128572D01*
X17928390Y47128572D02*
X17928390Y47319048D01*
X17928390Y47319048D02*
X17976009Y47414286D01*
X17976009Y47414286D02*
X18023628Y47461905D01*
X18023628Y47461905D02*
X18118866Y47509524D01*
X18118866Y47509524D02*
X18309342Y47509524D01*
X18309342Y47509524D02*
X18404580Y47461905D01*
X18404580Y47461905D02*
X18452200Y47414286D01*
X18452200Y47414286D02*
X18499819Y47319048D01*
X18499819Y47319048D02*
X18499819Y47128572D01*
X18499819Y47128572D02*
X18452200Y47033334D01*
X18452200Y47033334D02*
X18404580Y46985715D01*
X18404580Y46985715D02*
X18309342Y46938096D01*
X18309342Y46938096D02*
X18118866Y46938096D01*
X18118866Y46938096D02*
X18023628Y46985715D01*
X18023628Y46985715D02*
X17976009Y47033334D01*
X17976009Y47033334D02*
X17928390Y47128572D01*
D12*
X52930237Y44929492D02*
X52930237Y45749492D01*
X52930237Y45749492D02*
X52734999Y45749492D01*
X52734999Y45749492D02*
X52617856Y45710444D01*
X52617856Y45710444D02*
X52539761Y45632349D01*
X52539761Y45632349D02*
X52500714Y45554254D01*
X52500714Y45554254D02*
X52461666Y45398063D01*
X52461666Y45398063D02*
X52461666Y45280920D01*
X52461666Y45280920D02*
X52500714Y45124730D01*
X52500714Y45124730D02*
X52539761Y45046635D01*
X52539761Y45046635D02*
X52617856Y44968539D01*
X52617856Y44968539D02*
X52734999Y44929492D01*
X52734999Y44929492D02*
X52930237Y44929492D01*
X52188333Y45749492D02*
X51680714Y45749492D01*
X51680714Y45749492D02*
X51954047Y45437111D01*
X51954047Y45437111D02*
X51836904Y45437111D01*
X51836904Y45437111D02*
X51758809Y45398063D01*
X51758809Y45398063D02*
X51719761Y45359016D01*
X51719761Y45359016D02*
X51680714Y45280920D01*
X51680714Y45280920D02*
X51680714Y45085682D01*
X51680714Y45085682D02*
X51719761Y45007587D01*
X51719761Y45007587D02*
X51758809Y44968539D01*
X51758809Y44968539D02*
X51836904Y44929492D01*
X51836904Y44929492D02*
X52071190Y44929492D01*
X52071190Y44929492D02*
X52149285Y44968539D01*
X52149285Y44968539D02*
X52188333Y45007587D01*
X43025237Y42279492D02*
X43025237Y43099492D01*
X43025237Y43099492D02*
X42829999Y43099492D01*
X42829999Y43099492D02*
X42712856Y43060444D01*
X42712856Y43060444D02*
X42634761Y42982349D01*
X42634761Y42982349D02*
X42595714Y42904254D01*
X42595714Y42904254D02*
X42556666Y42748063D01*
X42556666Y42748063D02*
X42556666Y42630920D01*
X42556666Y42630920D02*
X42595714Y42474730D01*
X42595714Y42474730D02*
X42634761Y42396635D01*
X42634761Y42396635D02*
X42712856Y42318539D01*
X42712856Y42318539D02*
X42829999Y42279492D01*
X42829999Y42279492D02*
X43025237Y42279492D01*
X41853809Y42826159D02*
X41853809Y42279492D01*
X42049047Y43138539D02*
X42244285Y42552825D01*
X42244285Y42552825D02*
X41736666Y42552825D01*
X8538014Y42540093D02*
X8928490Y42266760D01*
X8538014Y42071522D02*
X9358014Y42071522D01*
X9358014Y42071522D02*
X9358014Y42383903D01*
X9358014Y42383903D02*
X9318966Y42461998D01*
X9318966Y42461998D02*
X9279919Y42501045D01*
X9279919Y42501045D02*
X9201823Y42540093D01*
X9201823Y42540093D02*
X9084681Y42540093D01*
X9084681Y42540093D02*
X9006585Y42501045D01*
X9006585Y42501045D02*
X8967538Y42461998D01*
X8967538Y42461998D02*
X8928490Y42383903D01*
X8928490Y42383903D02*
X8928490Y42071522D01*
X8538014Y43321045D02*
X8538014Y42852474D01*
X8538014Y43086760D02*
X9358014Y43086760D01*
X9358014Y43086760D02*
X9240871Y43008664D01*
X9240871Y43008664D02*
X9162776Y42930569D01*
X9162776Y42930569D02*
X9123728Y42852474D01*
X9358014Y43828664D02*
X9358014Y43906759D01*
X9358014Y43906759D02*
X9318966Y43984855D01*
X9318966Y43984855D02*
X9279919Y44023902D01*
X9279919Y44023902D02*
X9201823Y44062950D01*
X9201823Y44062950D02*
X9045633Y44101997D01*
X9045633Y44101997D02*
X8850395Y44101997D01*
X8850395Y44101997D02*
X8694204Y44062950D01*
X8694204Y44062950D02*
X8616109Y44023902D01*
X8616109Y44023902D02*
X8577062Y43984855D01*
X8577062Y43984855D02*
X8538014Y43906759D01*
X8538014Y43906759D02*
X8538014Y43828664D01*
X8538014Y43828664D02*
X8577062Y43750569D01*
X8577062Y43750569D02*
X8616109Y43711521D01*
X8616109Y43711521D02*
X8694204Y43672474D01*
X8694204Y43672474D02*
X8850395Y43633426D01*
X8850395Y43633426D02*
X9045633Y43633426D01*
X9045633Y43633426D02*
X9201823Y43672474D01*
X9201823Y43672474D02*
X9279919Y43711521D01*
X9279919Y43711521D02*
X9318966Y43750569D01*
X9318966Y43750569D02*
X9358014Y43828664D01*
D11*
X9549819Y48592858D02*
X9073628Y48926191D01*
X9549819Y49164286D02*
X8549819Y49164286D01*
X8549819Y49164286D02*
X8549819Y48783334D01*
X8549819Y48783334D02*
X8597438Y48688096D01*
X8597438Y48688096D02*
X8645057Y48640477D01*
X8645057Y48640477D02*
X8740295Y48592858D01*
X8740295Y48592858D02*
X8883152Y48592858D01*
X8883152Y48592858D02*
X8978390Y48640477D01*
X8978390Y48640477D02*
X9026009Y48688096D01*
X9026009Y48688096D02*
X9073628Y48783334D01*
X9073628Y48783334D02*
X9073628Y49164286D01*
X9549819Y47640477D02*
X9549819Y48211905D01*
X9549819Y47926191D02*
X8549819Y47926191D01*
X8549819Y47926191D02*
X8692676Y48021429D01*
X8692676Y48021429D02*
X8787914Y48116667D01*
X8787914Y48116667D02*
X8835533Y48211905D01*
X8549819Y47307143D02*
X8549819Y46688096D01*
X8549819Y46688096D02*
X8930771Y47021429D01*
X8930771Y47021429D02*
X8930771Y46878572D01*
X8930771Y46878572D02*
X8978390Y46783334D01*
X8978390Y46783334D02*
X9026009Y46735715D01*
X9026009Y46735715D02*
X9121247Y46688096D01*
X9121247Y46688096D02*
X9359342Y46688096D01*
X9359342Y46688096D02*
X9454580Y46735715D01*
X9454580Y46735715D02*
X9502200Y46783334D01*
X9502200Y46783334D02*
X9549819Y46878572D01*
X9549819Y46878572D02*
X9549819Y47164286D01*
X9549819Y47164286D02*
X9502200Y47259524D01*
X9502200Y47259524D02*
X9454580Y47307143D01*
D12*
X27488014Y42990093D02*
X27878490Y42716760D01*
X27488014Y42521522D02*
X28308014Y42521522D01*
X28308014Y42521522D02*
X28308014Y42833903D01*
X28308014Y42833903D02*
X28268966Y42911998D01*
X28268966Y42911998D02*
X28229919Y42951045D01*
X28229919Y42951045D02*
X28151823Y42990093D01*
X28151823Y42990093D02*
X28034681Y42990093D01*
X28034681Y42990093D02*
X27956585Y42951045D01*
X27956585Y42951045D02*
X27917538Y42911998D01*
X27917538Y42911998D02*
X27878490Y42833903D01*
X27878490Y42833903D02*
X27878490Y42521522D01*
X27488014Y43771045D02*
X27488014Y43302474D01*
X27488014Y43536760D02*
X28308014Y43536760D01*
X28308014Y43536760D02*
X28190871Y43458664D01*
X28190871Y43458664D02*
X28112776Y43380569D01*
X28112776Y43380569D02*
X28073728Y43302474D01*
X27488014Y44551997D02*
X27488014Y44083426D01*
X27488014Y44317712D02*
X28308014Y44317712D01*
X28308014Y44317712D02*
X28190871Y44239616D01*
X28190871Y44239616D02*
X28112776Y44161521D01*
X28112776Y44161521D02*
X28073728Y44083426D01*
D13*
G04 #@! TO.C,R4*
X117549000Y15950000D02*
X116533000Y15950000D01*
X116533000Y14350000D02*
X117549000Y14350000D01*
X115517000Y15950000D02*
X114501000Y15950000D01*
X114501000Y14350000D02*
X115517000Y14350000D01*
D14*
X117600000Y14350001D02*
G75*
G03*
X117604000Y15951637I330000J799999D01*
G01*
X114441398Y15953494D02*
G75*
G03*
X114450000Y14350000I-321398J-803494D01*
G01*
D15*
G04 #@! TO.C,M2*
X155799999Y17525000D02*
X155799999Y26625000D01*
X158900002Y17525000D02*
X157900000Y17525000D01*
X158900002Y17525000D02*
X158900002Y26625000D01*
G04 #@! TO.C,M3*
X85950000Y56825000D02*
X85950000Y63225000D01*
X85950000Y66425000D02*
X85950000Y65125000D01*
X85950000Y66425000D02*
X70950000Y66425000D01*
X71550000Y56825000D02*
X85950000Y56825000D01*
X70950000Y66425000D02*
X70950000Y61325000D01*
G04 #@! TO.C,M7*
X17850000Y8925000D02*
X3950000Y8925000D01*
X3950000Y8925000D02*
X3950000Y36425000D01*
X3950000Y36425000D02*
X17850000Y36425000D01*
X17850000Y36425000D02*
X17850000Y8925000D01*
G04 #@! TO.C,M1*
X128349999Y35825001D02*
X131550002Y35825001D01*
X116249999Y35825001D02*
X126650001Y35825001D01*
X114349999Y35825001D02*
X114649999Y35825001D01*
X114349999Y35825001D02*
X114349999Y20425001D01*
X134949997Y34325001D02*
X134949999Y19025002D01*
X128250001Y19025004D02*
X133050001Y19025004D01*
X122049999Y19025004D02*
X124749999Y19025004D01*
X119350001Y19025004D02*
X120450004Y19025004D01*
X115799999Y19025004D02*
X117349999Y19024999D01*
X134650001Y19025002D02*
X134949999Y19025002D01*
G04 #@! TO.C,M4*
X139000000Y45875000D02*
X139000000Y52275000D01*
X139000000Y55475000D02*
X139000000Y54175000D01*
X139000000Y55475000D02*
X124000000Y55475000D01*
X124600000Y45875000D02*
X139000000Y45875000D01*
X124000000Y55475000D02*
X124000000Y50375000D01*
D14*
G04 #@! TO.C,P3*
X135705000Y39620000D02*
X133045000Y39620000D01*
X133045000Y39914462D02*
X133045000Y39620000D01*
X135705000Y39925627D02*
X135705000Y39620000D01*
X133045000Y41974373D02*
X133045000Y42280000D01*
X135705000Y41985538D02*
X135705000Y42280000D01*
X133045000Y42280000D02*
X135705000Y42280000D01*
G04 #@! TO.C,P4*
X139485000Y39620000D02*
X136825000Y39620000D01*
X136825000Y39914462D02*
X136825000Y39620000D01*
X139485000Y39925627D02*
X139485000Y39620000D01*
X136825000Y41974373D02*
X136825000Y42280000D01*
X139485000Y41985538D02*
X139485000Y42280000D01*
X136825000Y42280000D02*
X139485000Y42280000D01*
G04 #@! TO.C,F2*
X118175000Y45050000D02*
X113325000Y45050000D01*
X118175000Y43050000D02*
X113325000Y43050000D01*
X113325000Y45050000D02*
G75*
G03*
X113325000Y43050000I0J-1000000D01*
G01*
X118225000Y43050000D02*
G75*
G03*
X118225000Y45050000I0J1000000D01*
G01*
D15*
G04 #@! TO.C,M6*
X107850005Y19275015D02*
X74049995Y19275015D01*
X107850005Y55075005D02*
X107850005Y19275015D01*
X107850005Y55075005D02*
X74049995Y55075005D01*
X74049995Y55075005D02*
X74049995Y19275015D01*
D14*
G04 #@! TO.C,F1*
X129529163Y39860051D02*
X126099695Y43289518D01*
X128114949Y38445837D02*
X124685482Y41875305D01*
X126099695Y43289518D02*
G75*
G03*
X124685482Y41875305I-707107J-707106D01*
G01*
X128150305Y38410482D02*
G75*
G03*
X129564518Y39824695I707107J707106D01*
G01*
D15*
G04 #@! TO.C,M5*
X34425000Y13350000D02*
X20525000Y13350000D01*
X20525000Y13350000D02*
X20525000Y40850000D01*
X20525000Y40850000D02*
X34425000Y40850000D01*
X34425000Y40850000D02*
X34425000Y13350000D01*
D14*
G04 #@! TO.C,R14*
X22265000Y45072936D02*
X22265000Y49427064D01*
X25685000Y45072936D02*
X25685000Y49427064D01*
G04 #@! TO.C,R12*
X31615000Y46822936D02*
X31615000Y51177064D01*
X35035000Y46822936D02*
X35035000Y51177064D01*
D16*
G04 #@! TO.C,R15*
X16754160Y42898944D02*
X16754149Y43298943D01*
X17499995Y42900000D02*
X17499985Y43300000D01*
D14*
G04 #@! TO.C,D2*
X52520000Y51800000D02*
X48620000Y51800000D01*
X52520000Y53800000D02*
X52520000Y51800000D01*
X52520000Y53800000D02*
X48620000Y53800000D01*
D12*
X50820000Y52800000D02*
X50620000Y52800000D01*
X50620000Y52450000D02*
X50620000Y53150000D01*
X50620000Y52800000D02*
X49920000Y52450000D01*
X50620000Y52800000D02*
X49920000Y53150000D01*
X49920000Y52450000D02*
X49920000Y53150000D01*
X49920000Y52800000D02*
X49620000Y52800000D01*
D14*
G04 #@! TO.C,D5*
X55060965Y37471751D02*
X52303249Y34714035D01*
X53646751Y38885965D02*
X55060965Y37471751D01*
X53646751Y38885965D02*
X50889035Y36128249D01*
D12*
X53151777Y36976777D02*
X53010355Y36835355D01*
X53257843Y36587868D02*
X52762868Y37082843D01*
X53010355Y36835355D02*
X52762868Y36092893D01*
X53010355Y36835355D02*
X52267893Y36587868D01*
X52762868Y36092893D02*
X52267893Y36587868D01*
X52515381Y36340381D02*
X52303249Y36128249D01*
D16*
G04 #@! TO.C,R9*
X29854160Y45048944D02*
X29854149Y45448943D01*
X30599995Y45050000D02*
X30599985Y45450000D01*
D14*
G04 #@! TO.C,R18*
X13715000Y46022936D02*
X13715000Y50377064D01*
X17135000Y46022936D02*
X17135000Y50377064D01*
G04 #@! TO.C,D3*
X54575000Y42300000D02*
X50675000Y42300000D01*
X54575000Y44300000D02*
X54575000Y42300000D01*
X54575000Y44300000D02*
X50675000Y44300000D01*
D12*
X52875000Y43300000D02*
X52675000Y43300000D01*
X52675000Y42950000D02*
X52675000Y43650000D01*
X52675000Y43300000D02*
X51975000Y42950000D01*
X52675000Y43300000D02*
X51975000Y43650000D01*
X51975000Y42950000D02*
X51975000Y43650000D01*
X51975000Y43300000D02*
X51675000Y43300000D01*
D14*
G04 #@! TO.C,D4*
X44670000Y39650000D02*
X40770000Y39650000D01*
X44670000Y41650000D02*
X44670000Y39650000D01*
X44670000Y41650000D02*
X40770000Y41650000D01*
D12*
X42970000Y40650000D02*
X42770000Y40650000D01*
X42770000Y40300000D02*
X42770000Y41000000D01*
X42770000Y40650000D02*
X42070000Y40300000D01*
X42770000Y40650000D02*
X42070000Y41000000D01*
X42070000Y40300000D02*
X42070000Y41000000D01*
X42070000Y40650000D02*
X41770000Y40650000D01*
D16*
G04 #@! TO.C,R10*
X7404160Y42798944D02*
X7404149Y43198943D01*
X8149995Y42800000D02*
X8149985Y43200000D01*
D14*
G04 #@! TO.C,R13*
X4765000Y45772936D02*
X4765000Y50127064D01*
X8185000Y45772936D02*
X8185000Y50127064D01*
D16*
G04 #@! TO.C,R11*
X26354160Y43248944D02*
X26354149Y43648943D01*
X27099995Y43250000D02*
X27099985Y43650000D01*
G04 #@! TD*
M02*
