G04 #@! TF.GenerationSoftware,KiCad,Pcbnew,7.0.10-7.0.10~ubuntu22.04.1*
G04 #@! TF.CreationDate,2024-01-02T04:04:11+00:00*
G04 #@! TF.ProjectId,uaeficopiedtovfr,75616566-6963-46f7-9069-6564746f7666,rev?*
G04 #@! TF.SameCoordinates,Original*
G04 #@! TF.FileFunction,Soldermask,Top*
G04 #@! TF.FilePolarity,Negative*
%FSLAX46Y46*%
G04 Gerber Fmt 4.6, Leading zero omitted, Abs format (unit mm)*
G04 Created by KiCad (PCBNEW 7.0.10-7.0.10~ubuntu22.04.1) date 2024-01-02 04:04:11*
%MOMM*%
%LPD*%
G01*
G04 APERTURE LIST*
%ADD10C,0.120000*%
%ADD11C,1.524000*%
%ADD12R,2.000000X1.500000*%
%ADD13R,2.000000X3.800000*%
%ADD14C,5.600000*%
%ADD15C,0.600000*%
%ADD16C,1.500000*%
%ADD17C,2.850000*%
%ADD18R,2.625000X2.625000*%
%ADD19C,2.625000*%
%ADD20C,1.700000*%
%ADD21C,0.650000*%
%ADD22R,0.300000X1.150000*%
%ADD23O,1.000000X2.100000*%
%ADD24O,1.000000X1.600000*%
%ADD25R,1.300000X1.000000*%
G04 APERTURE END LIST*
G04 #@! TO.C,U2*
D10*
X153537500Y45106000D02*
X140537500Y45106000D01*
X140537500Y52106000D01*
X153537500Y52106000D01*
X153537500Y45106000D01*
G36*
X153537500Y45106000D02*
G01*
X140537500Y45106000D01*
X140537500Y52106000D01*
X153537500Y52106000D01*
X153537500Y45106000D01*
G37*
G04 #@! TD*
D11*
G04 #@! TO.C,R4*
X117930000Y15206000D03*
G36*
G01*
X117475001Y15831000D02*
X117475001Y14581000D01*
G75*
G02*
X117375001Y14481000I-100000J0D01*
G01*
X116575001Y14481000D01*
G75*
G02*
X116475001Y14581000I0J100000D01*
G01*
X116475001Y15831000D01*
G75*
G02*
X116575001Y15931000I100000J0D01*
G01*
X117375001Y15931000D01*
G75*
G02*
X117475001Y15831000I0J-100000D01*
G01*
G37*
G36*
G01*
X115574979Y15831000D02*
X115574979Y14581000D01*
G75*
G02*
X115474979Y14481000I-100000J0D01*
G01*
X114674979Y14481000D01*
G75*
G02*
X114574979Y14581000I0J100000D01*
G01*
X114574979Y15831000D01*
G75*
G02*
X114674979Y15931000I100000J0D01*
G01*
X115474979Y15931000D01*
G75*
G02*
X115574979Y15831000I0J-100000D01*
G01*
G37*
X114120000Y15206000D03*
G04 #@! TD*
G04 #@! TO.C,R1*
G36*
G01*
X142385000Y56256000D02*
X143165000Y56256000D01*
G75*
G02*
X143235000Y56186000I0J-70000D01*
G01*
X143235000Y55626000D01*
G75*
G02*
X143165000Y55556000I-70000J0D01*
G01*
X142385000Y55556000D01*
G75*
G02*
X142315000Y55626000I0J70000D01*
G01*
X142315000Y56186000D01*
G75*
G02*
X142385000Y56256000I70000J0D01*
G01*
G37*
G36*
G01*
X142385000Y54656000D02*
X143165000Y54656000D01*
G75*
G02*
X143235000Y54586000I0J-70000D01*
G01*
X143235000Y54026000D01*
G75*
G02*
X143165000Y53956000I-70000J0D01*
G01*
X142385000Y53956000D01*
G75*
G02*
X142315000Y54026000I0J70000D01*
G01*
X142315000Y54586000D01*
G75*
G02*
X142385000Y54656000I70000J0D01*
G01*
G37*
G04 #@! TD*
D12*
G04 #@! TO.C,Q14*
X56775000Y55131000D03*
X56775000Y52831000D03*
X56775000Y50531000D03*
D13*
X63075000Y52831000D03*
G04 #@! TD*
D14*
G04 #@! TO.C,H2*
X41175000Y19481000D03*
G04 #@! TD*
G04 #@! TO.C,Q8*
G36*
X48542339Y47175005D02*
G01*
X49841377Y47925005D01*
X50841377Y46192955D01*
X49542339Y45442955D01*
X48542339Y47175005D01*
G37*
G36*
X46550481Y46025005D02*
G01*
X47849519Y46775005D01*
X48849519Y45042955D01*
X47550481Y44292955D01*
X46550481Y46025005D01*
G37*
G36*
X44558623Y44875005D02*
G01*
X45857661Y45625005D01*
X46857661Y43892955D01*
X45558623Y43142955D01*
X44558623Y44875005D01*
G37*
G36*
X48704552Y39994045D02*
G01*
X51995448Y41894045D01*
X52995448Y40161995D01*
X49704552Y38261995D01*
X48704552Y39994045D01*
G37*
G04 #@! TD*
G04 #@! TO.C,R8*
G36*
G01*
X127925000Y10421000D02*
X127925000Y9641000D01*
G75*
G02*
X127855000Y9571000I-70000J0D01*
G01*
X127295000Y9571000D01*
G75*
G02*
X127225000Y9641000I0J70000D01*
G01*
X127225000Y10421000D01*
G75*
G02*
X127295000Y10491000I70000J0D01*
G01*
X127855000Y10491000D01*
G75*
G02*
X127925000Y10421000I0J-70000D01*
G01*
G37*
G36*
G01*
X126325000Y10421000D02*
X126325000Y9641000D01*
G75*
G02*
X126255000Y9571000I-70000J0D01*
G01*
X125695000Y9571000D01*
G75*
G02*
X125625000Y9641000I0J70000D01*
G01*
X125625000Y10421000D01*
G75*
G02*
X125695000Y10491000I70000J0D01*
G01*
X126255000Y10491000D01*
G75*
G02*
X126325000Y10421000I0J-70000D01*
G01*
G37*
G04 #@! TD*
G04 #@! TO.C,Q10*
G36*
X53663478Y28400491D02*
G01*
X52602818Y27339831D01*
X51188604Y28754045D01*
X52249264Y29814705D01*
X53663478Y28400491D01*
G37*
G36*
X55289823Y30026837D02*
G01*
X54229163Y28966177D01*
X52814949Y30380391D01*
X53875609Y31441051D01*
X55289823Y30026837D01*
G37*
G36*
X56916169Y31653182D02*
G01*
X55855509Y30592522D01*
X54441295Y32006736D01*
X55501955Y33067396D01*
X56916169Y31653182D01*
G37*
G36*
X51648224Y35294782D02*
G01*
X48961218Y32607776D01*
X47547004Y34021990D01*
X50234010Y36708996D01*
X51648224Y35294782D01*
G37*
G04 #@! TD*
G04 #@! TO.C,R32*
G36*
G01*
X65385000Y42031000D02*
X66165000Y42031000D01*
G75*
G02*
X66235000Y41961000I0J-70000D01*
G01*
X66235000Y41401000D01*
G75*
G02*
X66165000Y41331000I-70000J0D01*
G01*
X65385000Y41331000D01*
G75*
G02*
X65315000Y41401000I0J70000D01*
G01*
X65315000Y41961000D01*
G75*
G02*
X65385000Y42031000I70000J0D01*
G01*
G37*
G36*
G01*
X65385000Y40431000D02*
X66165000Y40431000D01*
G75*
G02*
X66235000Y40361000I0J-70000D01*
G01*
X66235000Y39801000D01*
G75*
G02*
X66165000Y39731000I-70000J0D01*
G01*
X65385000Y39731000D01*
G75*
G02*
X65315000Y39801000I0J70000D01*
G01*
X65315000Y40361000D01*
G75*
G02*
X65385000Y40431000I70000J0D01*
G01*
G37*
G04 #@! TD*
D15*
G04 #@! TO.C,M2*
X156400002Y26481000D03*
X157350002Y26481000D03*
X158300000Y26481000D03*
X157300002Y17781000D03*
X156400002Y17781000D03*
G04 #@! TD*
G04 #@! TO.C,M3*
X71250000Y59681000D03*
X71250000Y60881000D03*
X71250000Y58481000D03*
X71250000Y57281000D03*
X85675000Y63741000D03*
X85675000Y64741000D03*
G04 #@! TD*
G04 #@! TO.C,R2*
G36*
G01*
X114860000Y55992000D02*
X114080000Y55992000D01*
G75*
G02*
X114010000Y56062000I0J70000D01*
G01*
X114010000Y56622000D01*
G75*
G02*
X114080000Y56692000I70000J0D01*
G01*
X114860000Y56692000D01*
G75*
G02*
X114930000Y56622000I0J-70000D01*
G01*
X114930000Y56062000D01*
G75*
G02*
X114860000Y55992000I-70000J0D01*
G01*
G37*
G36*
G01*
X114860000Y57592000D02*
X114080000Y57592000D01*
G75*
G02*
X114010000Y57662000I0J70000D01*
G01*
X114010000Y58222000D01*
G75*
G02*
X114080000Y58292000I70000J0D01*
G01*
X114860000Y58292000D01*
G75*
G02*
X114930000Y58222000I0J-70000D01*
G01*
X114930000Y57662000D01*
G75*
G02*
X114860000Y57592000I-70000J0D01*
G01*
G37*
G04 #@! TD*
G04 #@! TO.C,R31*
G36*
G01*
X66315000Y21631000D02*
X65535000Y21631000D01*
G75*
G02*
X65465000Y21701000I0J70000D01*
G01*
X65465000Y22261000D01*
G75*
G02*
X65535000Y22331000I70000J0D01*
G01*
X66315000Y22331000D01*
G75*
G02*
X66385000Y22261000I0J-70000D01*
G01*
X66385000Y21701000D01*
G75*
G02*
X66315000Y21631000I-70000J0D01*
G01*
G37*
G36*
G01*
X66315000Y23231000D02*
X65535000Y23231000D01*
G75*
G02*
X65465000Y23301000I0J70000D01*
G01*
X65465000Y23861000D01*
G75*
G02*
X65535000Y23931000I70000J0D01*
G01*
X66315000Y23931000D01*
G75*
G02*
X66385000Y23861000I0J-70000D01*
G01*
X66385000Y23301000D01*
G75*
G02*
X66315000Y23231000I-70000J0D01*
G01*
G37*
G04 #@! TD*
G04 #@! TO.C,R23*
G36*
G01*
X40935000Y48381000D02*
X41715000Y48381000D01*
G75*
G02*
X41785000Y48311000I0J-70000D01*
G01*
X41785000Y47751000D01*
G75*
G02*
X41715000Y47681000I-70000J0D01*
G01*
X40935000Y47681000D01*
G75*
G02*
X40865000Y47751000I0J70000D01*
G01*
X40865000Y48311000D01*
G75*
G02*
X40935000Y48381000I70000J0D01*
G01*
G37*
G36*
G01*
X40935000Y46781000D02*
X41715000Y46781000D01*
G75*
G02*
X41785000Y46711000I0J-70000D01*
G01*
X41785000Y46151000D01*
G75*
G02*
X41715000Y46081000I-70000J0D01*
G01*
X40935000Y46081000D01*
G75*
G02*
X40865000Y46151000I0J70000D01*
G01*
X40865000Y46711000D01*
G75*
G02*
X40935000Y46781000I70000J0D01*
G01*
G37*
G04 #@! TD*
D12*
G04 #@! TO.C,Q16*
X62025000Y38381000D03*
X62025000Y36081000D03*
X62025000Y33781000D03*
D13*
X68325000Y36081000D03*
G04 #@! TD*
G04 #@! TO.C,Q9*
G36*
X40792339Y44925005D02*
G01*
X42091377Y45675005D01*
X43091377Y43942955D01*
X41792339Y43192955D01*
X40792339Y44925005D01*
G37*
G36*
X38800481Y43775005D02*
G01*
X40099519Y44525005D01*
X41099519Y42792955D01*
X39800481Y42042955D01*
X38800481Y43775005D01*
G37*
G36*
X36808623Y42625005D02*
G01*
X38107661Y43375005D01*
X39107661Y41642955D01*
X37808623Y40892955D01*
X36808623Y42625005D01*
G37*
G36*
X40954552Y37744045D02*
G01*
X44245448Y39644045D01*
X45245448Y37911995D01*
X41954552Y36011995D01*
X40954552Y37744045D01*
G37*
G04 #@! TD*
D16*
G04 #@! TO.C,M1*
X133849999Y19731005D03*
X127450002Y19731005D03*
X125549999Y19731005D03*
X121249999Y19731005D03*
D15*
X118850002Y19281006D03*
X117850001Y19281006D03*
D16*
X114999999Y19731005D03*
X134300001Y35231002D03*
X132450002Y35231002D03*
X127499999Y35231002D03*
X115450001Y35231002D03*
G04 #@! TD*
D12*
G04 #@! TO.C,Q13*
X56475000Y47331000D03*
X56475000Y45031000D03*
X56475000Y42731000D03*
D13*
X62775000Y45031000D03*
G04 #@! TD*
G04 #@! TO.C,R26*
G36*
G01*
X36265000Y68806000D02*
X35485000Y68806000D01*
G75*
G02*
X35415000Y68876000I0J70000D01*
G01*
X35415000Y69436000D01*
G75*
G02*
X35485000Y69506000I70000J0D01*
G01*
X36265000Y69506000D01*
G75*
G02*
X36335000Y69436000I0J-70000D01*
G01*
X36335000Y68876000D01*
G75*
G02*
X36265000Y68806000I-70000J0D01*
G01*
G37*
G36*
G01*
X36265000Y70406000D02*
X35485000Y70406000D01*
G75*
G02*
X35415000Y70476000I0J70000D01*
G01*
X35415000Y71036000D01*
G75*
G02*
X35485000Y71106000I70000J0D01*
G01*
X36265000Y71106000D01*
G75*
G02*
X36335000Y71036000I0J-70000D01*
G01*
X36335000Y70476000D01*
G75*
G02*
X36265000Y70406000I-70000J0D01*
G01*
G37*
G04 #@! TD*
G04 #@! TO.C,C1*
G36*
G01*
X139115000Y26015999D02*
X138435000Y26015999D01*
G75*
G02*
X138350000Y26100999I0J85000D01*
G01*
X138350000Y26780999D01*
G75*
G02*
X138435000Y26865999I85000J0D01*
G01*
X139115000Y26865999D01*
G75*
G02*
X139200000Y26780999I0J-85000D01*
G01*
X139200000Y26100999D01*
G75*
G02*
X139115000Y26015999I-85000J0D01*
G01*
G37*
G36*
G01*
X139115000Y27596001D02*
X138435000Y27596001D01*
G75*
G02*
X138350000Y27681001I0J85000D01*
G01*
X138350000Y28361001D01*
G75*
G02*
X138435000Y28446001I85000J0D01*
G01*
X139115000Y28446001D01*
G75*
G02*
X139200000Y28361001I0J-85000D01*
G01*
X139200000Y27681001D01*
G75*
G02*
X139115000Y27596001I-85000J0D01*
G01*
G37*
G04 #@! TD*
G04 #@! TO.C,Q7*
G36*
X47042339Y57150005D02*
G01*
X48341377Y57900005D01*
X49341377Y56167955D01*
X48042339Y55417955D01*
X47042339Y57150005D01*
G37*
G36*
X45050481Y56000005D02*
G01*
X46349519Y56750005D01*
X47349519Y55017955D01*
X46050481Y54267955D01*
X45050481Y56000005D01*
G37*
G36*
X43058623Y54850005D02*
G01*
X44357661Y55600005D01*
X45357661Y53867955D01*
X44058623Y53117955D01*
X43058623Y54850005D01*
G37*
G36*
X47204552Y49969045D02*
G01*
X50495448Y51869045D01*
X51495448Y50136995D01*
X48204552Y48236995D01*
X47204552Y49969045D01*
G37*
G04 #@! TD*
D17*
G04 #@! TO.C,J4*
X59506000Y6773000D03*
X100506000Y6773000D03*
D18*
X66006000Y11273000D03*
D19*
X70006000Y11273000D03*
X74006000Y11273000D03*
X78006000Y11273000D03*
X82006000Y11273000D03*
X86006000Y11273000D03*
X90006000Y11273000D03*
X94006000Y11273000D03*
X68006000Y7273000D03*
X72006000Y7273000D03*
X76006000Y7273000D03*
X80006000Y7273000D03*
X84006000Y7273000D03*
X88006000Y7273000D03*
X92006000Y7273000D03*
X66006000Y3273000D03*
X70006000Y3273000D03*
X74006000Y3273000D03*
X78006000Y3273000D03*
X82006000Y3273000D03*
X86006000Y3273000D03*
X90006000Y3273000D03*
X94006000Y3273000D03*
G04 #@! TD*
G04 #@! TO.C,U1*
G36*
G01*
X64450000Y59306001D02*
X64450000Y60905999D01*
G75*
G02*
X64700001Y61156000I250001J0D01*
G01*
X66299999Y61156000D01*
G75*
G02*
X66550000Y60905999I0J-250001D01*
G01*
X66550000Y59306001D01*
G75*
G02*
X66299999Y59056000I-250001J0D01*
G01*
X64700001Y59056000D01*
G75*
G02*
X64450000Y59306001I0J250001D01*
G01*
G37*
G36*
G01*
X58750000Y59306001D02*
X58750000Y60905999D01*
G75*
G02*
X59000001Y61156000I250001J0D01*
G01*
X60599999Y61156000D01*
G75*
G02*
X60850000Y60905999I0J-250001D01*
G01*
X60850000Y59306001D01*
G75*
G02*
X60599999Y59056000I-250001J0D01*
G01*
X59000001Y59056000D01*
G75*
G02*
X58750000Y59306001I0J250001D01*
G01*
G37*
G36*
G01*
X53050000Y59306001D02*
X53050000Y60905999D01*
G75*
G02*
X53300001Y61156000I250001J0D01*
G01*
X54899999Y61156000D01*
G75*
G02*
X55150000Y60905999I0J-250001D01*
G01*
X55150000Y59306001D01*
G75*
G02*
X54899999Y59056000I-250001J0D01*
G01*
X53300001Y59056000D01*
G75*
G02*
X53050000Y59306001I0J250001D01*
G01*
G37*
G36*
G01*
X47350000Y59306001D02*
X47350000Y60905999D01*
G75*
G02*
X47600001Y61156000I250001J0D01*
G01*
X49199999Y61156000D01*
G75*
G02*
X49450000Y60905999I0J-250001D01*
G01*
X49450000Y59306001D01*
G75*
G02*
X49199999Y59056000I-250001J0D01*
G01*
X47600001Y59056000D01*
G75*
G02*
X47350000Y59306001I0J250001D01*
G01*
G37*
G36*
G01*
X41650000Y59306001D02*
X41650000Y60905999D01*
G75*
G02*
X41900001Y61156000I250001J0D01*
G01*
X43499999Y61156000D01*
G75*
G02*
X43750000Y60905999I0J-250001D01*
G01*
X43750000Y59306001D01*
G75*
G02*
X43499999Y59056000I-250001J0D01*
G01*
X41900001Y59056000D01*
G75*
G02*
X41650000Y59306001I0J250001D01*
G01*
G37*
G36*
G01*
X35950000Y59306001D02*
X35950000Y60905999D01*
G75*
G02*
X36200001Y61156000I250001J0D01*
G01*
X37799999Y61156000D01*
G75*
G02*
X38050000Y60905999I0J-250001D01*
G01*
X38050000Y59306001D01*
G75*
G02*
X37799999Y59056000I-250001J0D01*
G01*
X36200001Y59056000D01*
G75*
G02*
X35950000Y59306001I0J250001D01*
G01*
G37*
G36*
G01*
X30250000Y59306001D02*
X30250000Y60905999D01*
G75*
G02*
X30500001Y61156000I250001J0D01*
G01*
X32099999Y61156000D01*
G75*
G02*
X32350000Y60905999I0J-250001D01*
G01*
X32350000Y59306001D01*
G75*
G02*
X32099999Y59056000I-250001J0D01*
G01*
X30500001Y59056000D01*
G75*
G02*
X30250000Y59306001I0J250001D01*
G01*
G37*
G36*
G01*
X24550000Y59306001D02*
X24550000Y60905999D01*
G75*
G02*
X24800001Y61156000I250001J0D01*
G01*
X26399999Y61156000D01*
G75*
G02*
X26650000Y60905999I0J-250001D01*
G01*
X26650000Y59306001D01*
G75*
G02*
X26399999Y59056000I-250001J0D01*
G01*
X24800001Y59056000D01*
G75*
G02*
X24550000Y59306001I0J250001D01*
G01*
G37*
G36*
G01*
X18850000Y59306001D02*
X18850000Y60905999D01*
G75*
G02*
X19100001Y61156000I250001J0D01*
G01*
X20699999Y61156000D01*
G75*
G02*
X20950000Y60905999I0J-250001D01*
G01*
X20950000Y59306001D01*
G75*
G02*
X20699999Y59056000I-250001J0D01*
G01*
X19100001Y59056000D01*
G75*
G02*
X18850000Y59306001I0J250001D01*
G01*
G37*
G36*
G01*
X13150000Y59306001D02*
X13150000Y60905999D01*
G75*
G02*
X13400001Y61156000I250001J0D01*
G01*
X14999999Y61156000D01*
G75*
G02*
X15250000Y60905999I0J-250001D01*
G01*
X15250000Y59306001D01*
G75*
G02*
X14999999Y59056000I-250001J0D01*
G01*
X13400001Y59056000D01*
G75*
G02*
X13150000Y59306001I0J250001D01*
G01*
G37*
G36*
G01*
X7450000Y59306001D02*
X7450000Y60905999D01*
G75*
G02*
X7700001Y61156000I250001J0D01*
G01*
X9299999Y61156000D01*
G75*
G02*
X9550000Y60905999I0J-250001D01*
G01*
X9550000Y59306001D01*
G75*
G02*
X9299999Y59056000I-250001J0D01*
G01*
X7700001Y59056000D01*
G75*
G02*
X7450000Y59306001I0J250001D01*
G01*
G37*
G36*
G01*
X64450000Y63406001D02*
X64450000Y65005999D01*
G75*
G02*
X64700001Y65256000I250001J0D01*
G01*
X66299999Y65256000D01*
G75*
G02*
X66550000Y65005999I0J-250001D01*
G01*
X66550000Y63406001D01*
G75*
G02*
X66299999Y63156000I-250001J0D01*
G01*
X64700001Y63156000D01*
G75*
G02*
X64450000Y63406001I0J250001D01*
G01*
G37*
G36*
G01*
X58750000Y63406001D02*
X58750000Y65005999D01*
G75*
G02*
X59000001Y65256000I250001J0D01*
G01*
X60599999Y65256000D01*
G75*
G02*
X60850000Y65005999I0J-250001D01*
G01*
X60850000Y63406001D01*
G75*
G02*
X60599999Y63156000I-250001J0D01*
G01*
X59000001Y63156000D01*
G75*
G02*
X58750000Y63406001I0J250001D01*
G01*
G37*
G36*
G01*
X53050000Y63406001D02*
X53050000Y65005999D01*
G75*
G02*
X53300001Y65256000I250001J0D01*
G01*
X54899999Y65256000D01*
G75*
G02*
X55150000Y65005999I0J-250001D01*
G01*
X55150000Y63406001D01*
G75*
G02*
X54899999Y63156000I-250001J0D01*
G01*
X53300001Y63156000D01*
G75*
G02*
X53050000Y63406001I0J250001D01*
G01*
G37*
G36*
G01*
X47350000Y63406001D02*
X47350000Y65005999D01*
G75*
G02*
X47600001Y65256000I250001J0D01*
G01*
X49199999Y65256000D01*
G75*
G02*
X49450000Y65005999I0J-250001D01*
G01*
X49450000Y63406001D01*
G75*
G02*
X49199999Y63156000I-250001J0D01*
G01*
X47600001Y63156000D01*
G75*
G02*
X47350000Y63406001I0J250001D01*
G01*
G37*
G36*
G01*
X41650000Y63406001D02*
X41650000Y65005999D01*
G75*
G02*
X41900001Y65256000I250001J0D01*
G01*
X43499999Y65256000D01*
G75*
G02*
X43750000Y65005999I0J-250001D01*
G01*
X43750000Y63406001D01*
G75*
G02*
X43499999Y63156000I-250001J0D01*
G01*
X41900001Y63156000D01*
G75*
G02*
X41650000Y63406001I0J250001D01*
G01*
G37*
G36*
G01*
X35950000Y63406001D02*
X35950000Y65005999D01*
G75*
G02*
X36200001Y65256000I250001J0D01*
G01*
X37799999Y65256000D01*
G75*
G02*
X38050000Y65005999I0J-250001D01*
G01*
X38050000Y63406001D01*
G75*
G02*
X37799999Y63156000I-250001J0D01*
G01*
X36200001Y63156000D01*
G75*
G02*
X35950000Y63406001I0J250001D01*
G01*
G37*
G36*
G01*
X30250000Y63406001D02*
X30250000Y65005999D01*
G75*
G02*
X30500001Y65256000I250001J0D01*
G01*
X32099999Y65256000D01*
G75*
G02*
X32350000Y65005999I0J-250001D01*
G01*
X32350000Y63406001D01*
G75*
G02*
X32099999Y63156000I-250001J0D01*
G01*
X30500001Y63156000D01*
G75*
G02*
X30250000Y63406001I0J250001D01*
G01*
G37*
G36*
G01*
X24550000Y63406001D02*
X24550000Y65005999D01*
G75*
G02*
X24800001Y65256000I250001J0D01*
G01*
X26399999Y65256000D01*
G75*
G02*
X26650000Y65005999I0J-250001D01*
G01*
X26650000Y63406001D01*
G75*
G02*
X26399999Y63156000I-250001J0D01*
G01*
X24800001Y63156000D01*
G75*
G02*
X24550000Y63406001I0J250001D01*
G01*
G37*
G36*
G01*
X18850000Y63406001D02*
X18850000Y65005999D01*
G75*
G02*
X19100001Y65256000I250001J0D01*
G01*
X20699999Y65256000D01*
G75*
G02*
X20950000Y65005999I0J-250001D01*
G01*
X20950000Y63406001D01*
G75*
G02*
X20699999Y63156000I-250001J0D01*
G01*
X19100001Y63156000D01*
G75*
G02*
X18850000Y63406001I0J250001D01*
G01*
G37*
G36*
G01*
X13150000Y63406001D02*
X13150000Y65005999D01*
G75*
G02*
X13400001Y65256000I250001J0D01*
G01*
X14999999Y65256000D01*
G75*
G02*
X15250000Y65005999I0J-250001D01*
G01*
X15250000Y63406001D01*
G75*
G02*
X14999999Y63156000I-250001J0D01*
G01*
X13400001Y63156000D01*
G75*
G02*
X13150000Y63406001I0J250001D01*
G01*
G37*
G36*
G01*
X7450000Y63406001D02*
X7450000Y65005999D01*
G75*
G02*
X7700001Y65256000I250001J0D01*
G01*
X9299999Y65256000D01*
G75*
G02*
X9550000Y65005999I0J-250001D01*
G01*
X9550000Y63406001D01*
G75*
G02*
X9299999Y63156000I-250001J0D01*
G01*
X7700001Y63156000D01*
G75*
G02*
X7450000Y63406001I0J250001D01*
G01*
G37*
G36*
G01*
X150450000Y59256001D02*
X150450000Y60855999D01*
G75*
G02*
X150700001Y61106000I250001J0D01*
G01*
X152299999Y61106000D01*
G75*
G02*
X152550000Y60855999I0J-250001D01*
G01*
X152550000Y59256001D01*
G75*
G02*
X152299999Y59006000I-250001J0D01*
G01*
X150700001Y59006000D01*
G75*
G02*
X150450000Y59256001I0J250001D01*
G01*
G37*
G36*
G01*
X144750000Y59256001D02*
X144750000Y60855999D01*
G75*
G02*
X145000001Y61106000I250001J0D01*
G01*
X146599999Y61106000D01*
G75*
G02*
X146850000Y60855999I0J-250001D01*
G01*
X146850000Y59256001D01*
G75*
G02*
X146599999Y59006000I-250001J0D01*
G01*
X145000001Y59006000D01*
G75*
G02*
X144750000Y59256001I0J250001D01*
G01*
G37*
G36*
G01*
X139050000Y59256001D02*
X139050000Y60855999D01*
G75*
G02*
X139300001Y61106000I250001J0D01*
G01*
X140899999Y61106000D01*
G75*
G02*
X141150000Y60855999I0J-250001D01*
G01*
X141150000Y59256001D01*
G75*
G02*
X140899999Y59006000I-250001J0D01*
G01*
X139300001Y59006000D01*
G75*
G02*
X139050000Y59256001I0J250001D01*
G01*
G37*
G36*
G01*
X133350000Y59256001D02*
X133350000Y60855999D01*
G75*
G02*
X133600001Y61106000I250001J0D01*
G01*
X135199999Y61106000D01*
G75*
G02*
X135450000Y60855999I0J-250001D01*
G01*
X135450000Y59256001D01*
G75*
G02*
X135199999Y59006000I-250001J0D01*
G01*
X133600001Y59006000D01*
G75*
G02*
X133350000Y59256001I0J250001D01*
G01*
G37*
G36*
G01*
X127650000Y59256001D02*
X127650000Y60855999D01*
G75*
G02*
X127900001Y61106000I250001J0D01*
G01*
X129499999Y61106000D01*
G75*
G02*
X129750000Y60855999I0J-250001D01*
G01*
X129750000Y59256001D01*
G75*
G02*
X129499999Y59006000I-250001J0D01*
G01*
X127900001Y59006000D01*
G75*
G02*
X127650000Y59256001I0J250001D01*
G01*
G37*
G36*
G01*
X121950000Y59256001D02*
X121950000Y60855999D01*
G75*
G02*
X122200001Y61106000I250001J0D01*
G01*
X123799999Y61106000D01*
G75*
G02*
X124050000Y60855999I0J-250001D01*
G01*
X124050000Y59256001D01*
G75*
G02*
X123799999Y59006000I-250001J0D01*
G01*
X122200001Y59006000D01*
G75*
G02*
X121950000Y59256001I0J250001D01*
G01*
G37*
G36*
G01*
X116250000Y59256001D02*
X116250000Y60855999D01*
G75*
G02*
X116500001Y61106000I250001J0D01*
G01*
X118099999Y61106000D01*
G75*
G02*
X118350000Y60855999I0J-250001D01*
G01*
X118350000Y59256001D01*
G75*
G02*
X118099999Y59006000I-250001J0D01*
G01*
X116500001Y59006000D01*
G75*
G02*
X116250000Y59256001I0J250001D01*
G01*
G37*
G36*
G01*
X110550000Y59256001D02*
X110550000Y60855999D01*
G75*
G02*
X110800001Y61106000I250001J0D01*
G01*
X112399999Y61106000D01*
G75*
G02*
X112650000Y60855999I0J-250001D01*
G01*
X112650000Y59256001D01*
G75*
G02*
X112399999Y59006000I-250001J0D01*
G01*
X110800001Y59006000D01*
G75*
G02*
X110550000Y59256001I0J250001D01*
G01*
G37*
G36*
G01*
X104850000Y59256001D02*
X104850000Y60855999D01*
G75*
G02*
X105100001Y61106000I250001J0D01*
G01*
X106699999Y61106000D01*
G75*
G02*
X106950000Y60855999I0J-250001D01*
G01*
X106950000Y59256001D01*
G75*
G02*
X106699999Y59006000I-250001J0D01*
G01*
X105100001Y59006000D01*
G75*
G02*
X104850000Y59256001I0J250001D01*
G01*
G37*
G36*
G01*
X99150000Y59256001D02*
X99150000Y60855999D01*
G75*
G02*
X99400001Y61106000I250001J0D01*
G01*
X100999999Y61106000D01*
G75*
G02*
X101250000Y60855999I0J-250001D01*
G01*
X101250000Y59256001D01*
G75*
G02*
X100999999Y59006000I-250001J0D01*
G01*
X99400001Y59006000D01*
G75*
G02*
X99150000Y59256001I0J250001D01*
G01*
G37*
G36*
G01*
X93450000Y59256001D02*
X93450000Y60855999D01*
G75*
G02*
X93700001Y61106000I250001J0D01*
G01*
X95299999Y61106000D01*
G75*
G02*
X95550000Y60855999I0J-250001D01*
G01*
X95550000Y59256001D01*
G75*
G02*
X95299999Y59006000I-250001J0D01*
G01*
X93700001Y59006000D01*
G75*
G02*
X93450000Y59256001I0J250001D01*
G01*
G37*
G36*
G01*
X150450000Y63356001D02*
X150450000Y64955999D01*
G75*
G02*
X150700001Y65206000I250001J0D01*
G01*
X152299999Y65206000D01*
G75*
G02*
X152550000Y64955999I0J-250001D01*
G01*
X152550000Y63356001D01*
G75*
G02*
X152299999Y63106000I-250001J0D01*
G01*
X150700001Y63106000D01*
G75*
G02*
X150450000Y63356001I0J250001D01*
G01*
G37*
G36*
G01*
X144750000Y63356001D02*
X144750000Y64955999D01*
G75*
G02*
X145000001Y65206000I250001J0D01*
G01*
X146599999Y65206000D01*
G75*
G02*
X146850000Y64955999I0J-250001D01*
G01*
X146850000Y63356001D01*
G75*
G02*
X146599999Y63106000I-250001J0D01*
G01*
X145000001Y63106000D01*
G75*
G02*
X144750000Y63356001I0J250001D01*
G01*
G37*
G36*
G01*
X139050000Y63356001D02*
X139050000Y64955999D01*
G75*
G02*
X139300001Y65206000I250001J0D01*
G01*
X140899999Y65206000D01*
G75*
G02*
X141150000Y64955999I0J-250001D01*
G01*
X141150000Y63356001D01*
G75*
G02*
X140899999Y63106000I-250001J0D01*
G01*
X139300001Y63106000D01*
G75*
G02*
X139050000Y63356001I0J250001D01*
G01*
G37*
G36*
G01*
X133350000Y63356001D02*
X133350000Y64955999D01*
G75*
G02*
X133600001Y65206000I250001J0D01*
G01*
X135199999Y65206000D01*
G75*
G02*
X135450000Y64955999I0J-250001D01*
G01*
X135450000Y63356001D01*
G75*
G02*
X135199999Y63106000I-250001J0D01*
G01*
X133600001Y63106000D01*
G75*
G02*
X133350000Y63356001I0J250001D01*
G01*
G37*
G36*
G01*
X127650000Y63356001D02*
X127650000Y64955999D01*
G75*
G02*
X127900001Y65206000I250001J0D01*
G01*
X129499999Y65206000D01*
G75*
G02*
X129750000Y64955999I0J-250001D01*
G01*
X129750000Y63356001D01*
G75*
G02*
X129499999Y63106000I-250001J0D01*
G01*
X127900001Y63106000D01*
G75*
G02*
X127650000Y63356001I0J250001D01*
G01*
G37*
G36*
G01*
X121950000Y63356001D02*
X121950000Y64955999D01*
G75*
G02*
X122200001Y65206000I250001J0D01*
G01*
X123799999Y65206000D01*
G75*
G02*
X124050000Y64955999I0J-250001D01*
G01*
X124050000Y63356001D01*
G75*
G02*
X123799999Y63106000I-250001J0D01*
G01*
X122200001Y63106000D01*
G75*
G02*
X121950000Y63356001I0J250001D01*
G01*
G37*
G36*
G01*
X116250000Y63356001D02*
X116250000Y64955999D01*
G75*
G02*
X116500001Y65206000I250001J0D01*
G01*
X118099999Y65206000D01*
G75*
G02*
X118350000Y64955999I0J-250001D01*
G01*
X118350000Y63356001D01*
G75*
G02*
X118099999Y63106000I-250001J0D01*
G01*
X116500001Y63106000D01*
G75*
G02*
X116250000Y63356001I0J250001D01*
G01*
G37*
G36*
G01*
X110550000Y63356001D02*
X110550000Y64955999D01*
G75*
G02*
X110800001Y65206000I250001J0D01*
G01*
X112399999Y65206000D01*
G75*
G02*
X112650000Y64955999I0J-250001D01*
G01*
X112650000Y63356001D01*
G75*
G02*
X112399999Y63106000I-250001J0D01*
G01*
X110800001Y63106000D01*
G75*
G02*
X110550000Y63356001I0J250001D01*
G01*
G37*
G36*
G01*
X104850000Y63356001D02*
X104850000Y64955999D01*
G75*
G02*
X105100001Y65206000I250001J0D01*
G01*
X106699999Y65206000D01*
G75*
G02*
X106950000Y64955999I0J-250001D01*
G01*
X106950000Y63356001D01*
G75*
G02*
X106699999Y63106000I-250001J0D01*
G01*
X105100001Y63106000D01*
G75*
G02*
X104850000Y63356001I0J250001D01*
G01*
G37*
G36*
G01*
X99150000Y63356001D02*
X99150000Y64955999D01*
G75*
G02*
X99400001Y65206000I250001J0D01*
G01*
X100999999Y65206000D01*
G75*
G02*
X101250000Y64955999I0J-250001D01*
G01*
X101250000Y63356001D01*
G75*
G02*
X100999999Y63106000I-250001J0D01*
G01*
X99400001Y63106000D01*
G75*
G02*
X99150000Y63356001I0J250001D01*
G01*
G37*
G36*
G01*
X93450000Y63356001D02*
X93450000Y64955999D01*
G75*
G02*
X93700001Y65206000I250001J0D01*
G01*
X95299999Y65206000D01*
G75*
G02*
X95550000Y64955999I0J-250001D01*
G01*
X95550000Y63356001D01*
G75*
G02*
X95299999Y63106000I-250001J0D01*
G01*
X93700001Y63106000D01*
G75*
G02*
X93450000Y63356001I0J250001D01*
G01*
G37*
G04 #@! TD*
G04 #@! TO.C,R24*
G36*
G01*
X53287600Y24942056D02*
X52736056Y25493600D01*
G75*
G02*
X52736056Y25592594I49497J49497D01*
G01*
X53132036Y25988574D01*
G75*
G02*
X53231030Y25988574I49497J-49497D01*
G01*
X53782574Y25437030D01*
G75*
G02*
X53782574Y25338036I-49497J-49497D01*
G01*
X53386594Y24942056D01*
G75*
G02*
X53287600Y24942056I-49497J49497D01*
G01*
G37*
G36*
G01*
X54418970Y26073426D02*
X53867426Y26624970D01*
G75*
G02*
X53867426Y26723964I49497J49497D01*
G01*
X54263406Y27119944D01*
G75*
G02*
X54362400Y27119944I49497J-49497D01*
G01*
X54913944Y26568400D01*
G75*
G02*
X54913944Y26469406I-49497J-49497D01*
G01*
X54517964Y26073426D01*
G75*
G02*
X54418970Y26073426I-49497J49497D01*
G01*
G37*
G04 #@! TD*
D15*
G04 #@! TO.C,M4*
X124300000Y48731000D03*
X124300000Y49931000D03*
X124300000Y47531000D03*
X124300000Y46331000D03*
X138725000Y52791000D03*
X138725000Y53791000D03*
G04 #@! TD*
D20*
G04 #@! TO.C,P3*
X134375000Y41006000D03*
G04 #@! TD*
D21*
G04 #@! TO.C,J9*
X121285000Y6886000D03*
X127065000Y6886000D03*
D22*
X120825000Y7951000D03*
X121625000Y7951000D03*
X122925000Y7951000D03*
X123925000Y7951000D03*
X124425000Y7951000D03*
X125425000Y7951000D03*
X126725000Y7951000D03*
X127525000Y7951000D03*
X127225000Y7951000D03*
X126425000Y7951000D03*
X125925000Y7951000D03*
X124925000Y7951000D03*
X123425000Y7951000D03*
X122425000Y7951000D03*
X121925000Y7951000D03*
X121125000Y7951000D03*
D23*
X119855000Y7386000D03*
D24*
X119855000Y3206000D03*
D23*
X128495000Y7386000D03*
D24*
X128495000Y3206000D03*
G04 #@! TD*
D14*
G04 #@! TO.C,H1*
X145875000Y19481000D03*
G04 #@! TD*
G04 #@! TO.C,Q3*
G36*
G01*
X24145382Y42645505D02*
X23539164Y42295505D01*
G75*
G02*
X23197658Y42387011I-125000J216506D01*
G01*
X22347658Y43859255D01*
G75*
G02*
X22439164Y44200761I216506J125000D01*
G01*
X23045382Y44550761D01*
G75*
G02*
X23386888Y44459255I125000J-216506D01*
G01*
X24236888Y42987011D01*
G75*
G02*
X24145382Y42645505I-216506J-125000D01*
G01*
G37*
G36*
G01*
X26011781Y48572813D02*
X21421842Y45922810D01*
G75*
G02*
X21080339Y46014315I-124999J216504D01*
G01*
X18130336Y51123870D01*
G75*
G02*
X18221842Y51465373I216504J124999D01*
G01*
X22811781Y54115376D01*
G75*
G02*
X23153283Y54023870I124998J-216504D01*
G01*
X26103286Y48914315D01*
G75*
G02*
X26011781Y48572813I-216504J-124998D01*
G01*
G37*
G36*
G01*
X28094458Y44925505D02*
X27488240Y44575505D01*
G75*
G02*
X27146734Y44667011I-125000J216506D01*
G01*
X26296734Y46139255D01*
G75*
G02*
X26388240Y46480761I216506J125000D01*
G01*
X26994458Y46830761D01*
G75*
G02*
X27335964Y46739255I125000J-216506D01*
G01*
X28185964Y45267011D01*
G75*
G02*
X28094458Y44925505I-216506J-125000D01*
G01*
G37*
G04 #@! TD*
G04 #@! TO.C,D7*
G36*
G01*
X27900000Y69406000D02*
X27900000Y69106000D01*
G75*
G02*
X27750000Y68956000I-150000J0D01*
G01*
X26575000Y68956000D01*
G75*
G02*
X26425000Y69106000I0J150000D01*
G01*
X26425000Y69406000D01*
G75*
G02*
X26575000Y69556000I150000J0D01*
G01*
X27750000Y69556000D01*
G75*
G02*
X27900000Y69406000I0J-150000D01*
G01*
G37*
G36*
G01*
X26025000Y70356000D02*
X26025000Y70056000D01*
G75*
G02*
X25875000Y69906000I-150000J0D01*
G01*
X24700000Y69906000D01*
G75*
G02*
X24550000Y70056000I0J150000D01*
G01*
X24550000Y70356000D01*
G75*
G02*
X24700000Y70506000I150000J0D01*
G01*
X25875000Y70506000D01*
G75*
G02*
X26025000Y70356000I0J-150000D01*
G01*
G37*
G36*
G01*
X27900000Y71306000D02*
X27900000Y71006000D01*
G75*
G02*
X27750000Y70856000I-150000J0D01*
G01*
X26575000Y70856000D01*
G75*
G02*
X26425000Y71006000I0J150000D01*
G01*
X26425000Y71306000D01*
G75*
G02*
X26575000Y71456000I150000J0D01*
G01*
X27750000Y71456000D01*
G75*
G02*
X27900000Y71306000I0J-150000D01*
G01*
G37*
G04 #@! TD*
G04 #@! TO.C,R5*
G36*
G01*
X69135000Y58606000D02*
X69915000Y58606000D01*
G75*
G02*
X69985000Y58536000I0J-70000D01*
G01*
X69985000Y57976000D01*
G75*
G02*
X69915000Y57906000I-70000J0D01*
G01*
X69135000Y57906000D01*
G75*
G02*
X69065000Y57976000I0J70000D01*
G01*
X69065000Y58536000D01*
G75*
G02*
X69135000Y58606000I70000J0D01*
G01*
G37*
G36*
G01*
X69135000Y57006000D02*
X69915000Y57006000D01*
G75*
G02*
X69985000Y56936000I0J-70000D01*
G01*
X69985000Y56376000D01*
G75*
G02*
X69915000Y56306000I-70000J0D01*
G01*
X69135000Y56306000D01*
G75*
G02*
X69065000Y56376000I0J70000D01*
G01*
X69065000Y56936000D01*
G75*
G02*
X69135000Y57006000I70000J0D01*
G01*
G37*
G04 #@! TD*
G04 #@! TO.C,Q1*
G36*
G01*
X32853571Y44457412D02*
X32247353Y44107412D01*
G75*
G02*
X31905847Y44198918I-125000J216506D01*
G01*
X31055847Y45671162D01*
G75*
G02*
X31147353Y46012668I216506J125000D01*
G01*
X31753571Y46362668D01*
G75*
G02*
X32095077Y46271162I125000J-216506D01*
G01*
X32945077Y44798918D01*
G75*
G02*
X32853571Y44457412I-216506J-125000D01*
G01*
G37*
G36*
G01*
X34719970Y50384720D02*
X30130031Y47734717D01*
G75*
G02*
X29788528Y47826222I-124999J216504D01*
G01*
X26838525Y52935777D01*
G75*
G02*
X26930031Y53277280I216504J124999D01*
G01*
X31519970Y55927283D01*
G75*
G02*
X31861472Y55835777I124998J-216504D01*
G01*
X34811475Y50726222D01*
G75*
G02*
X34719970Y50384720I-216504J-124998D01*
G01*
G37*
G36*
G01*
X36802647Y46737412D02*
X36196429Y46387412D01*
G75*
G02*
X35854923Y46478918I-125000J216506D01*
G01*
X35004923Y47951162D01*
G75*
G02*
X35096429Y48292668I216506J125000D01*
G01*
X35702647Y48642668D01*
G75*
G02*
X36044153Y48551162I125000J-216506D01*
G01*
X36894153Y47078918D01*
G75*
G02*
X36802647Y46737412I-216506J-125000D01*
G01*
G37*
G04 #@! TD*
G04 #@! TO.C,R25*
G36*
G01*
X48815000Y68556000D02*
X48035000Y68556000D01*
G75*
G02*
X47965000Y68626000I0J70000D01*
G01*
X47965000Y69186000D01*
G75*
G02*
X48035000Y69256000I70000J0D01*
G01*
X48815000Y69256000D01*
G75*
G02*
X48885000Y69186000I0J-70000D01*
G01*
X48885000Y68626000D01*
G75*
G02*
X48815000Y68556000I-70000J0D01*
G01*
G37*
G36*
G01*
X48815000Y70156000D02*
X48035000Y70156000D01*
G75*
G02*
X47965000Y70226000I0J70000D01*
G01*
X47965000Y70786000D01*
G75*
G02*
X48035000Y70856000I70000J0D01*
G01*
X48815000Y70856000D01*
G75*
G02*
X48885000Y70786000I0J-70000D01*
G01*
X48885000Y70226000D01*
G75*
G02*
X48815000Y70156000I-70000J0D01*
G01*
G37*
G04 #@! TD*
G04 #@! TO.C,R6*
G36*
G01*
X158665000Y27556000D02*
X157885000Y27556000D01*
G75*
G02*
X157815000Y27626000I0J70000D01*
G01*
X157815000Y28186000D01*
G75*
G02*
X157885000Y28256000I70000J0D01*
G01*
X158665000Y28256000D01*
G75*
G02*
X158735000Y28186000I0J-70000D01*
G01*
X158735000Y27626000D01*
G75*
G02*
X158665000Y27556000I-70000J0D01*
G01*
G37*
G36*
G01*
X158665000Y29156000D02*
X157885000Y29156000D01*
G75*
G02*
X157815000Y29226000I0J70000D01*
G01*
X157815000Y29786000D01*
G75*
G02*
X157885000Y29856000I70000J0D01*
G01*
X158665000Y29856000D01*
G75*
G02*
X158735000Y29786000I0J-70000D01*
G01*
X158735000Y29226000D01*
G75*
G02*
X158665000Y29156000I-70000J0D01*
G01*
G37*
G04 #@! TD*
G04 #@! TO.C,Q4*
G36*
G01*
X15853571Y40582412D02*
X15247353Y40232412D01*
G75*
G02*
X14905847Y40323918I-125000J216506D01*
G01*
X14055847Y41796162D01*
G75*
G02*
X14147353Y42137668I216506J125000D01*
G01*
X14753571Y42487668D01*
G75*
G02*
X15095077Y42396162I125000J-216506D01*
G01*
X15945077Y40923918D01*
G75*
G02*
X15853571Y40582412I-216506J-125000D01*
G01*
G37*
G36*
G01*
X17719970Y46509720D02*
X13130031Y43859717D01*
G75*
G02*
X12788528Y43951222I-124999J216504D01*
G01*
X9838525Y49060777D01*
G75*
G02*
X9930031Y49402280I216504J124999D01*
G01*
X14519970Y52052283D01*
G75*
G02*
X14861472Y51960777I124998J-216504D01*
G01*
X17811475Y46851222D01*
G75*
G02*
X17719970Y46509720I-216504J-124998D01*
G01*
G37*
G36*
G01*
X19802647Y42862412D02*
X19196429Y42512412D01*
G75*
G02*
X18854923Y42603918I-125000J216506D01*
G01*
X18004923Y44076162D01*
G75*
G02*
X18096429Y44417668I216506J125000D01*
G01*
X18702647Y44767668D01*
G75*
G02*
X19044153Y44676162I125000J-216506D01*
G01*
X19894153Y43203918D01*
G75*
G02*
X19802647Y42862412I-216506J-125000D01*
G01*
G37*
G04 #@! TD*
G04 #@! TO.C,Q12*
G36*
G01*
X33637500Y69356000D02*
X33637500Y69056000D01*
G75*
G02*
X33487500Y68906000I-150000J0D01*
G01*
X32312500Y68906000D01*
G75*
G02*
X32162500Y69056000I0J150000D01*
G01*
X32162500Y69356000D01*
G75*
G02*
X32312500Y69506000I150000J0D01*
G01*
X33487500Y69506000D01*
G75*
G02*
X33637500Y69356000I0J-150000D01*
G01*
G37*
G36*
G01*
X31762500Y70306000D02*
X31762500Y70006000D01*
G75*
G02*
X31612500Y69856000I-150000J0D01*
G01*
X30437500Y69856000D01*
G75*
G02*
X30287500Y70006000I0J150000D01*
G01*
X30287500Y70306000D01*
G75*
G02*
X30437500Y70456000I150000J0D01*
G01*
X31612500Y70456000D01*
G75*
G02*
X31762500Y70306000I0J-150000D01*
G01*
G37*
G36*
G01*
X33637500Y71256000D02*
X33637500Y70956000D01*
G75*
G02*
X33487500Y70806000I-150000J0D01*
G01*
X32312500Y70806000D01*
G75*
G02*
X32162500Y70956000I0J150000D01*
G01*
X32162500Y71256000D01*
G75*
G02*
X32312500Y71406000I150000J0D01*
G01*
X33487500Y71406000D01*
G75*
G02*
X33637500Y71256000I0J-150000D01*
G01*
G37*
G04 #@! TD*
D20*
G04 #@! TO.C,P4*
X138155000Y41006000D03*
G04 #@! TD*
G04 #@! TO.C,D6*
G36*
G01*
X42700000Y68956000D02*
X42700000Y68656000D01*
G75*
G02*
X42550000Y68506000I-150000J0D01*
G01*
X41375000Y68506000D01*
G75*
G02*
X41225000Y68656000I0J150000D01*
G01*
X41225000Y68956000D01*
G75*
G02*
X41375000Y69106000I150000J0D01*
G01*
X42550000Y69106000D01*
G75*
G02*
X42700000Y68956000I0J-150000D01*
G01*
G37*
G36*
G01*
X40825000Y69906000D02*
X40825000Y69606000D01*
G75*
G02*
X40675000Y69456000I-150000J0D01*
G01*
X39500000Y69456000D01*
G75*
G02*
X39350000Y69606000I0J150000D01*
G01*
X39350000Y69906000D01*
G75*
G02*
X39500000Y70056000I150000J0D01*
G01*
X40675000Y70056000D01*
G75*
G02*
X40825000Y69906000I0J-150000D01*
G01*
G37*
G36*
G01*
X42700000Y70856000D02*
X42700000Y70556000D01*
G75*
G02*
X42550000Y70406000I-150000J0D01*
G01*
X41375000Y70406000D01*
G75*
G02*
X41225000Y70556000I0J150000D01*
G01*
X41225000Y70856000D01*
G75*
G02*
X41375000Y71006000I150000J0D01*
G01*
X42550000Y71006000D01*
G75*
G02*
X42700000Y70856000I0J-150000D01*
G01*
G37*
G04 #@! TD*
D12*
G04 #@! TO.C,Q15*
X63125000Y29881000D03*
X63125000Y27581000D03*
X63125000Y25281000D03*
D13*
X69425000Y27581000D03*
G04 #@! TD*
G04 #@! TO.C,R21*
G36*
G01*
X52237750Y55055071D02*
X51562250Y54665071D01*
G75*
G02*
X51466628Y54690693I-35000J60622D01*
G01*
X51186628Y55175667D01*
G75*
G02*
X51212250Y55271289I60622J35000D01*
G01*
X51887750Y55661289D01*
G75*
G02*
X51983372Y55635667I35000J-60622D01*
G01*
X52263372Y55150693D01*
G75*
G02*
X52237750Y55055071I-60622J-35000D01*
G01*
G37*
G36*
G01*
X51437750Y56440711D02*
X50762250Y56050711D01*
G75*
G02*
X50666628Y56076333I-35000J60622D01*
G01*
X50386628Y56561307D01*
G75*
G02*
X50412250Y56656929I60622J35000D01*
G01*
X51087750Y57046929D01*
G75*
G02*
X51183372Y57021307I35000J-60622D01*
G01*
X51463372Y56536333D01*
G75*
G02*
X51437750Y56440711I-60622J-35000D01*
G01*
G37*
G04 #@! TD*
G04 #@! TO.C,Q11*
G36*
G01*
X47350000Y68906000D02*
X47350000Y68606000D01*
G75*
G02*
X47200000Y68456000I-150000J0D01*
G01*
X46025000Y68456000D01*
G75*
G02*
X45875000Y68606000I0J150000D01*
G01*
X45875000Y68906000D01*
G75*
G02*
X46025000Y69056000I150000J0D01*
G01*
X47200000Y69056000D01*
G75*
G02*
X47350000Y68906000I0J-150000D01*
G01*
G37*
G36*
G01*
X45475000Y69856000D02*
X45475000Y69556000D01*
G75*
G02*
X45325000Y69406000I-150000J0D01*
G01*
X44150000Y69406000D01*
G75*
G02*
X44000000Y69556000I0J150000D01*
G01*
X44000000Y69856000D01*
G75*
G02*
X44150000Y70006000I150000J0D01*
G01*
X45325000Y70006000D01*
G75*
G02*
X45475000Y69856000I0J-150000D01*
G01*
G37*
G36*
G01*
X47350000Y70806000D02*
X47350000Y70506000D01*
G75*
G02*
X47200000Y70356000I-150000J0D01*
G01*
X46025000Y70356000D01*
G75*
G02*
X45875000Y70506000I0J150000D01*
G01*
X45875000Y70806000D01*
G75*
G02*
X46025000Y70956000I150000J0D01*
G01*
X47200000Y70956000D01*
G75*
G02*
X47350000Y70806000I0J-150000D01*
G01*
G37*
G04 #@! TD*
D11*
G04 #@! TO.C,F2*
X111920000Y45328000D03*
G36*
G01*
X111020000Y43983010D02*
X111020000Y44673010D01*
G75*
G02*
X111250000Y44903010I230000J0D01*
G01*
X112590000Y44903010D01*
G75*
G02*
X112820000Y44673010I0J-230000D01*
G01*
X112820000Y43983010D01*
G75*
G02*
X112590000Y43753010I-230000J0D01*
G01*
X111250000Y43753010D01*
G75*
G02*
X111020000Y43983010I0J230000D01*
G01*
G37*
G36*
G01*
X111020000Y41082990D02*
X111020000Y41772990D01*
G75*
G02*
X111250000Y42002990I230000J0D01*
G01*
X112590000Y42002990D01*
G75*
G02*
X112820000Y41772990I0J-230000D01*
G01*
X112820000Y41082990D01*
G75*
G02*
X112590000Y40852990I-230000J0D01*
G01*
X111250000Y40852990D01*
G75*
G02*
X111020000Y41082990I0J230000D01*
G01*
G37*
X111920000Y40428000D03*
G04 #@! TD*
D25*
G04 #@! TO.C,U2*
X140687500Y44531000D03*
X140687500Y43031000D03*
X140687500Y41531000D03*
X140687500Y40031000D03*
X140687500Y38531000D03*
X140687500Y37031000D03*
X140687500Y35531000D03*
X140687500Y34031000D03*
X140687500Y32531000D03*
X140687500Y31031000D03*
X140687500Y29531000D03*
X140687500Y28031000D03*
X140687500Y26531000D03*
X153387500Y26531000D03*
X153387500Y28031000D03*
X153387500Y29531000D03*
X153387500Y31031000D03*
X153387500Y32531000D03*
X153387500Y34031000D03*
X153387500Y35531000D03*
X153387500Y37031000D03*
X153387500Y38531000D03*
X153387500Y40031000D03*
X153387500Y41531000D03*
X153387500Y43031000D03*
X153387500Y44531000D03*
G04 #@! TD*
G04 #@! TO.C,Q2*
G36*
G01*
X7145382Y39745505D02*
X6539164Y39395505D01*
G75*
G02*
X6197658Y39487011I-125000J216506D01*
G01*
X5347658Y40959255D01*
G75*
G02*
X5439164Y41300761I216506J125000D01*
G01*
X6045382Y41650761D01*
G75*
G02*
X6386888Y41559255I125000J-216506D01*
G01*
X7236888Y40087011D01*
G75*
G02*
X7145382Y39745505I-216506J-125000D01*
G01*
G37*
G36*
G01*
X9011781Y45672813D02*
X4421842Y43022810D01*
G75*
G02*
X4080339Y43114315I-124999J216504D01*
G01*
X1130336Y48223870D01*
G75*
G02*
X1221842Y48565373I216504J124999D01*
G01*
X5811781Y51215376D01*
G75*
G02*
X6153283Y51123870I124998J-216504D01*
G01*
X9103286Y46014315D01*
G75*
G02*
X9011781Y45672813I-216504J-124998D01*
G01*
G37*
G36*
G01*
X11094458Y42025505D02*
X10488240Y41675505D01*
G75*
G02*
X10146734Y41767011I-125000J216506D01*
G01*
X9296734Y43239255D01*
G75*
G02*
X9388240Y43580761I216506J125000D01*
G01*
X9994458Y43930761D01*
G75*
G02*
X10335964Y43839255I125000J-216506D01*
G01*
X11185964Y42367011D01*
G75*
G02*
X11094458Y42025505I-216506J-125000D01*
G01*
G37*
G04 #@! TD*
D11*
G04 #@! TO.C,F1*
X123766588Y43776412D03*
G36*
G01*
X124081243Y42188964D02*
X123593340Y42676867D01*
G75*
G02*
X123593340Y43002137I162635J162635D01*
G01*
X124540863Y43949660D01*
G75*
G02*
X124866133Y43949660I162635J-162635D01*
G01*
X125354036Y43461757D01*
G75*
G02*
X125354036Y43136487I-162635J-162635D01*
G01*
X124406513Y42188964D01*
G75*
G02*
X124081243Y42188964I-162635J162635D01*
G01*
G37*
G36*
G01*
X126131867Y40138340D02*
X125643964Y40626243D01*
G75*
G02*
X125643964Y40951513I162635J162635D01*
G01*
X126591487Y41899036D01*
G75*
G02*
X126916757Y41899036I162635J-162635D01*
G01*
X127404660Y41411133D01*
G75*
G02*
X127404660Y41085863I-162635J-162635D01*
G01*
X126457137Y40138340D01*
G75*
G02*
X126131867Y40138340I-162635J162635D01*
G01*
G37*
X127231412Y40311588D03*
G04 #@! TD*
G04 #@! TO.C,R3*
G36*
G01*
X117251072Y54061000D02*
X116471072Y54061000D01*
G75*
G02*
X116401072Y54131000I0J70000D01*
G01*
X116401072Y54691000D01*
G75*
G02*
X116471072Y54761000I70000J0D01*
G01*
X117251072Y54761000D01*
G75*
G02*
X117321072Y54691000I0J-70000D01*
G01*
X117321072Y54131000D01*
G75*
G02*
X117251072Y54061000I-70000J0D01*
G01*
G37*
G36*
G01*
X117251072Y55661000D02*
X116471072Y55661000D01*
G75*
G02*
X116401072Y55731000I0J70000D01*
G01*
X116401072Y56291000D01*
G75*
G02*
X116471072Y56361000I70000J0D01*
G01*
X117251072Y56361000D01*
G75*
G02*
X117321072Y56291000I0J-70000D01*
G01*
X117321072Y55731000D01*
G75*
G02*
X117251072Y55661000I-70000J0D01*
G01*
G37*
G04 #@! TD*
G04 #@! TO.C,R22*
G36*
G01*
X52837750Y46580071D02*
X52162250Y46190071D01*
G75*
G02*
X52066628Y46215693I-35000J60622D01*
G01*
X51786628Y46700667D01*
G75*
G02*
X51812250Y46796289I60622J35000D01*
G01*
X52487750Y47186289D01*
G75*
G02*
X52583372Y47160667I35000J-60622D01*
G01*
X52863372Y46675693D01*
G75*
G02*
X52837750Y46580071I-60622J-35000D01*
G01*
G37*
G36*
G01*
X52037750Y47965711D02*
X51362250Y47575711D01*
G75*
G02*
X51266628Y47601333I-35000J60622D01*
G01*
X50986628Y48086307D01*
G75*
G02*
X51012250Y48181929I60622J35000D01*
G01*
X51687750Y48571929D01*
G75*
G02*
X51783372Y48546307I35000J-60622D01*
G01*
X52063372Y48061333D01*
G75*
G02*
X52037750Y47965711I-60622J-35000D01*
G01*
G37*
G04 #@! TD*
G04 #@! TO.C,R7*
G36*
G01*
X118775000Y9241000D02*
X118775000Y10021000D01*
G75*
G02*
X118845000Y10091000I70000J0D01*
G01*
X119405000Y10091000D01*
G75*
G02*
X119475000Y10021000I0J-70000D01*
G01*
X119475000Y9241000D01*
G75*
G02*
X119405000Y9171000I-70000J0D01*
G01*
X118845000Y9171000D01*
G75*
G02*
X118775000Y9241000I0J70000D01*
G01*
G37*
G36*
G01*
X120375000Y9241000D02*
X120375000Y10021000D01*
G75*
G02*
X120445000Y10091000I70000J0D01*
G01*
X121005000Y10091000D01*
G75*
G02*
X121075000Y10021000I0J-70000D01*
G01*
X121075000Y9241000D01*
G75*
G02*
X121005000Y9171000I-70000J0D01*
G01*
X120445000Y9171000D01*
G75*
G02*
X120375000Y9241000I0J70000D01*
G01*
G37*
G04 #@! TD*
M02*
