M48
; DRILL file {KiCad 7.0.9-7.0.9~ubuntu22.04.1} date Thu Dec 28 08:03:04 2023
; FORMAT={2:4/ absolute / inch / suppress leading zeros}
; #@! TF.CreationDate,2023-12-28T08:03:04+00:00
; #@! TF.GenerationSoftware,Kicad,Pcbnew,7.0.9-7.0.9~ubuntu22.04.1
; #@! TF.FileFunction,MixedPlating,1,2
FMAT,2
INCH,TZ
; #@! TA.AperFunction,Plated,PTH,ViaDrill
T1C0.0079
; #@! TA.AperFunction,Plated,PTH,ComponentDrill
T2C0.0118
; #@! TA.AperFunction,Plated,PTH,ViaDrill
T3C0.0157
; #@! TA.AperFunction,Plated,PTH,ComponentDrill
T4C0.0236
; #@! TA.AperFunction,Plated,PTH,ViaDrill
T5C0.0320
; #@! TA.AperFunction,Plated,PTH,ComponentDrill
T6C0.0320
; #@! TA.AperFunction,Plated,PTH,ComponentDrill
T7C0.0394
; #@! TA.AperFunction,Plated,PTH,ComponentDrill
T8C0.0433
; #@! TA.AperFunction,Plated,PTH,ComponentDrill
T9C0.0704
; #@! TA.AperFunction,Plated,PTH,ComponentDrill
T10C0.0850
; #@! TA.AperFunction,Plated,PTH,ComponentDrill
T11C0.1260
; #@! TA.AperFunction,NonPlated,NPTH,ComponentDrill
T12C0.0256
%
G90
G05
T1
X1772Y22037
X2638Y16663
X3839Y22274
X6024Y26860
X6811Y25797
X7756Y17037
X8642Y21683
X9213Y28573
X9783Y29183
X10413Y16506
X10965Y17156
X12461Y17549
X16772Y21841
X26358Y4813
X27357Y15812
X27618Y19813
X27677Y6368
X27776Y9419
X27795Y21447
X27894Y11174
X28327Y14734
X28366Y13160
X28504Y14222
X28780Y14872
X28878Y12392
X32579Y5738
X32953Y5128
X34173Y5502
X34488Y22923
X36398Y23907
X36742Y7205
X36969Y27549
X37520Y7195
X38031Y5837
X38154Y22608
X38294Y25784
X38511Y24852
X39980Y7077
X40256Y5029
X40492Y23770
X40787Y5738
X40802Y25851
X40925Y4813
X41398Y6329
X41713Y6899
X42362Y4065
X42618Y25404
X42992Y25423
X43760Y7470
X44055Y7490
X44350Y7096
X44508Y14911
X44508Y6644
X44724Y26329
X44980Y15344
X46063Y6919
X47283Y7293
X47913Y18494
X50039Y4518
X50217Y4734
X50512Y16762
X50827Y27825
X50827Y16604
X51043Y28868
X51870Y25896
X52992Y17549
X53386Y17215
T2
X2234Y3740
X2628Y3740
X3022Y3740
X3415Y3740
X4342Y14209
X4742Y14209
X5640Y14209
X6033Y14209
X6427Y14209
X8760Y5482
X9154Y5482
X9547Y5482
X9941Y5482
X10868Y15951
X11268Y15951
X12165Y15951
X12559Y15951
X12953Y15951
X28120Y23996
X28120Y23524
X28120Y23051
X28120Y22579
X29301Y17402
X29301Y17087
X29301Y16772
X29301Y16457
X29301Y16142
X29301Y15827
X29301Y15512
X29301Y15197
X29301Y14882
X29301Y14567
X29301Y14252
X29301Y13937
X29301Y13622
X29301Y13307
X29301Y12677
X29301Y12126
X29301Y11811
X29301Y11496
X29301Y11181
X29301Y10866
X29301Y10551
X29301Y19094
X29301Y12992
X29459Y7717
X29774Y7717
X30089Y7717
X30404Y7717
X30719Y7717
X31033Y7717
X31348Y7717
X31663Y7717
X31900Y21654
X31978Y7717
X32293Y7717
X32372Y21654
X32608Y7717
X32844Y21654
X32923Y7717
X33317Y21654
X33789Y21654
X33799Y25516
X33799Y25122
X33868Y7717
X34183Y7717
X34262Y21654
X34498Y7717
X34734Y21654
X34813Y7717
X35128Y7717
X35207Y21654
X35443Y7717
X35679Y21654
X35758Y7717
X36073Y7717
X36152Y21654
X36388Y7717
X36624Y21654
X37096Y21654
X37569Y21654
X38041Y21654
X38081Y7717
X38514Y21654
X38986Y21654
X39144Y7717
X39459Y21654
X39537Y7717
X39931Y21654
X40404Y21654
X40876Y21654
X41348Y21654
X42293Y21654
X42451Y20669
X42451Y20276
X42451Y16063
X42451Y15669
X42451Y15276
X42451Y14882
X42451Y14488
X42451Y14094
X42451Y13701
X42451Y13307
X42451Y12283
X42451Y11969
X42451Y10118
X42451Y9567
X42451Y7717
X46467Y7618
X46860Y7618
X49006Y19685
X49006Y19213
X49006Y18740
X49006Y18268
X54685Y21205
X54685Y20811
X61644Y10453
X61644Y7028
X61998Y7028
X62018Y10453
X62392Y10453
T3
X7520Y15443
X15453Y22470
X20728Y13140
X22205Y17667
X22224Y11112
X22303Y15423
X23031Y13711
X24232Y12057
X25276Y11900
X26516Y16703
X26831Y10443
X27382Y14931
X27539Y8022
X28465Y18140
X28681Y20482
X28858Y8868
X29823Y4557
X31535Y27628
X32067Y6644
X34173Y26230
X34626Y6821
X36122Y24734
X40531Y4419
X40846Y6663
X41339Y600
X45217Y20305
X45472Y19085
X45492Y16191
X46516Y20187
X46654Y26900
X47323Y5915
X47815Y22726
X47894Y15974
X48031Y17431
X48780Y7274
X49370Y4419
X50433Y5896
X51575Y7234
X53327Y26959
X54685Y11998
X58504Y21624
X58563Y24498
X61339Y27923
X61811Y18829
T5
X906Y21801
X3575Y21348
X7336Y21250
X10787Y22156
X15531Y18002
X17747Y19056
X21201Y21585
X23976Y18750
X45591Y21781
X47224Y19478
X47224Y16329
X49862Y14734
T6
X44685Y17392
X44998Y6014
X46498Y6014
X46614Y17392
X49436Y16814
X50800Y15450
T7
X45344Y7795
X45522Y13898
X47805Y7795
X49498Y7795
X50246Y7795
X50266Y13898
X52215Y13898
X52766Y7795
X52943Y13898
X52972Y16171
X54461Y16171
T8
X3415Y25305
X3415Y23691
X5659Y25305
X5659Y23691
X7904Y25305
X7904Y23691
X10148Y25305
X10148Y23691
X12392Y25305
X12392Y23691
X14636Y25305
X14636Y23691
X16880Y25305
X16880Y23691
X19124Y25305
X19124Y23691
X21368Y25305
X21368Y23691
X23612Y25305
X23612Y23691
X25856Y25305
X25856Y23691
X37274Y25285
X37274Y23671
X39518Y25285
X39518Y23671
X41762Y25285
X41762Y23671
X44006Y25285
X44006Y23671
X46250Y25285
X46250Y23671
X48494Y25285
X48494Y23671
X50738Y25285
X50738Y23671
X52982Y25285
X52982Y23671
X55226Y25285
X55226Y23671
X57470Y25285
X57470Y23671
X59715Y25285
X59715Y23671
T9
X11382Y3238
X11382Y1486
X13134Y3238
X13134Y1486
X14882Y3238
X14882Y1486
X16634Y3238
X16634Y1486
X18382Y3238
X18382Y1486
X20134Y3238
X20134Y1486
X29531Y3238
X29531Y1486
X31283Y3238
X31283Y1486
X33031Y3238
X33031Y1486
X34783Y3238
X34783Y1486
X36531Y3238
X36531Y1486
X38283Y3238
X38283Y1486
T10
X9006Y2360
X22506Y2360
X27156Y2360
X40656Y2360
T11
X16280Y7697
X57500Y7697
T12
X53508Y2709
X55783Y2709
T4
X52945Y3122G85X52945Y2689
G05
X52945Y1378G85X52945Y1142
G05
X56346Y3122G85X56346Y2689
G05
X56346Y1378G85X56346Y1142
G05
T0
M30
