G04 #@! TF.GenerationSoftware,KiCad,Pcbnew,7.0.9-7.0.9~ubuntu22.04.1*
G04 #@! TF.CreationDate,2023-12-28T06:57:58+00:00*
G04 #@! TF.ProjectId,uaeficopiedtovfr,75616566-6963-46f7-9069-6564746f7666,rev?*
G04 #@! TF.SameCoordinates,Original*
G04 #@! TF.FileFunction,Paste,Bot*
G04 #@! TF.FilePolarity,Positive*
%FSLAX46Y46*%
G04 Gerber Fmt 4.6, Leading zero omitted, Abs format (unit mm)*
G04 Created by KiCad (PCBNEW 7.0.9-7.0.9~ubuntu22.04.1) date 2023-12-28 06:57:58*
%MOMM*%
%LPD*%
G01*
G04 APERTURE LIST*
G04 APERTURE END LIST*
G04 #@! TO.C,R14*
G36*
G01*
X25425000Y69225000D02*
X22575000Y69225000D01*
G75*
G02*
X22325000Y69475000I0J250000D01*
G01*
X22325000Y70200000D01*
G75*
G02*
X22575000Y70450000I250000J0D01*
G01*
X25425000Y70450000D01*
G75*
G02*
X25675000Y70200000I0J-250000D01*
G01*
X25675000Y69475000D01*
G75*
G02*
X25425000Y69225000I-250000J0D01*
G01*
G37*
G36*
G01*
X25425000Y75150000D02*
X22575000Y75150000D01*
G75*
G02*
X22325000Y75400000I0J250000D01*
G01*
X22325000Y76125000D01*
G75*
G02*
X22575000Y76375000I250000J0D01*
G01*
X25425000Y76375000D01*
G75*
G02*
X25675000Y76125000I0J-250000D01*
G01*
X25675000Y75400000D01*
G75*
G02*
X25425000Y75150000I-250000J0D01*
G01*
G37*
G04 #@! TD*
G04 #@! TO.C,R12*
G36*
G01*
X34775000Y70975000D02*
X31925000Y70975000D01*
G75*
G02*
X31675000Y71225000I0J250000D01*
G01*
X31675000Y71950000D01*
G75*
G02*
X31925000Y72200000I250000J0D01*
G01*
X34775000Y72200000D01*
G75*
G02*
X35025000Y71950000I0J-250000D01*
G01*
X35025000Y71225000D01*
G75*
G02*
X34775000Y70975000I-250000J0D01*
G01*
G37*
G36*
G01*
X34775000Y76900000D02*
X31925000Y76900000D01*
G75*
G02*
X31675000Y77150000I0J250000D01*
G01*
X31675000Y77875000D01*
G75*
G02*
X31925000Y78125000I250000J0D01*
G01*
X34775000Y78125000D01*
G75*
G02*
X35025000Y77875000I0J-250000D01*
G01*
X35025000Y77150000D01*
G75*
G02*
X34775000Y76900000I-250000J0D01*
G01*
G37*
G04 #@! TD*
G04 #@! TO.C,R15*
G36*
G01*
X17540000Y67500000D02*
X16760000Y67500000D01*
G75*
G02*
X16690000Y67570000I0J70000D01*
G01*
X16690000Y68130000D01*
G75*
G02*
X16760000Y68200000I70000J0D01*
G01*
X17540000Y68200000D01*
G75*
G02*
X17610000Y68130000I0J-70000D01*
G01*
X17610000Y67570000D01*
G75*
G02*
X17540000Y67500000I-70000J0D01*
G01*
G37*
G36*
G01*
X17540000Y69100000D02*
X16760000Y69100000D01*
G75*
G02*
X16690000Y69170000I0J70000D01*
G01*
X16690000Y69730000D01*
G75*
G02*
X16760000Y69800000I70000J0D01*
G01*
X17540000Y69800000D01*
G75*
G02*
X17610000Y69730000I0J-70000D01*
G01*
X17610000Y69170000D01*
G75*
G02*
X17540000Y69100000I-70000J0D01*
G01*
G37*
G04 #@! TD*
G04 #@! TO.C,D2*
G36*
G01*
X52395000Y78860000D02*
X52395000Y77840000D01*
G75*
G02*
X52305000Y77750000I-90000J0D01*
G01*
X51585000Y77750000D01*
G75*
G02*
X51495000Y77840000I0J90000D01*
G01*
X51495000Y78860000D01*
G75*
G02*
X51585000Y78950000I90000J0D01*
G01*
X52305000Y78950000D01*
G75*
G02*
X52395000Y78860000I0J-90000D01*
G01*
G37*
G36*
G01*
X49095000Y78860000D02*
X49095000Y77840000D01*
G75*
G02*
X49005000Y77750000I-90000J0D01*
G01*
X48285000Y77750000D01*
G75*
G02*
X48195000Y77840000I0J90000D01*
G01*
X48195000Y78860000D01*
G75*
G02*
X48285000Y78950000I90000J0D01*
G01*
X49005000Y78950000D01*
G75*
G02*
X49095000Y78860000I0J-90000D01*
G01*
G37*
G04 #@! TD*
G04 #@! TO.C,D5*
G36*
G01*
X53912168Y63983417D02*
X54633417Y63262168D01*
G75*
G02*
X54633417Y63134888I-63640J-63640D01*
G01*
X54124300Y62625771D01*
G75*
G02*
X53997020Y62625771I-63640J63640D01*
G01*
X53275771Y63347020D01*
G75*
G02*
X53275771Y63474300I63640J63640D01*
G01*
X53784888Y63983417D01*
G75*
G02*
X53912168Y63983417I63640J-63640D01*
G01*
G37*
G36*
G01*
X51578716Y61649965D02*
X52299965Y60928716D01*
G75*
G02*
X52299965Y60801436I-63640J-63640D01*
G01*
X51790848Y60292319D01*
G75*
G02*
X51663568Y60292319I-63640J63640D01*
G01*
X50942319Y61013568D01*
G75*
G02*
X50942319Y61140848I63640J63640D01*
G01*
X51451436Y61649965D01*
G75*
G02*
X51578716Y61649965I63640J-63640D01*
G01*
G37*
G04 #@! TD*
G04 #@! TO.C,R9*
G36*
G01*
X30640000Y69650000D02*
X29860000Y69650000D01*
G75*
G02*
X29790000Y69720000I0J70000D01*
G01*
X29790000Y70280000D01*
G75*
G02*
X29860000Y70350000I70000J0D01*
G01*
X30640000Y70350000D01*
G75*
G02*
X30710000Y70280000I0J-70000D01*
G01*
X30710000Y69720000D01*
G75*
G02*
X30640000Y69650000I-70000J0D01*
G01*
G37*
G36*
G01*
X30640000Y71250000D02*
X29860000Y71250000D01*
G75*
G02*
X29790000Y71320000I0J70000D01*
G01*
X29790000Y71880000D01*
G75*
G02*
X29860000Y71950000I70000J0D01*
G01*
X30640000Y71950000D01*
G75*
G02*
X30710000Y71880000I0J-70000D01*
G01*
X30710000Y71320000D01*
G75*
G02*
X30640000Y71250000I-70000J0D01*
G01*
G37*
G04 #@! TD*
G04 #@! TO.C,R18*
G36*
G01*
X16875000Y70175000D02*
X14025000Y70175000D01*
G75*
G02*
X13775000Y70425000I0J250000D01*
G01*
X13775000Y71150000D01*
G75*
G02*
X14025000Y71400000I250000J0D01*
G01*
X16875000Y71400000D01*
G75*
G02*
X17125000Y71150000I0J-250000D01*
G01*
X17125000Y70425000D01*
G75*
G02*
X16875000Y70175000I-250000J0D01*
G01*
G37*
G36*
G01*
X16875000Y76100000D02*
X14025000Y76100000D01*
G75*
G02*
X13775000Y76350000I0J250000D01*
G01*
X13775000Y77075000D01*
G75*
G02*
X14025000Y77325000I250000J0D01*
G01*
X16875000Y77325000D01*
G75*
G02*
X17125000Y77075000I0J-250000D01*
G01*
X17125000Y76350000D01*
G75*
G02*
X16875000Y76100000I-250000J0D01*
G01*
G37*
G04 #@! TD*
G04 #@! TO.C,D3*
G36*
G01*
X54450000Y69360000D02*
X54450000Y68340000D01*
G75*
G02*
X54360000Y68250000I-90000J0D01*
G01*
X53640000Y68250000D01*
G75*
G02*
X53550000Y68340000I0J90000D01*
G01*
X53550000Y69360000D01*
G75*
G02*
X53640000Y69450000I90000J0D01*
G01*
X54360000Y69450000D01*
G75*
G02*
X54450000Y69360000I0J-90000D01*
G01*
G37*
G36*
G01*
X51150000Y69360000D02*
X51150000Y68340000D01*
G75*
G02*
X51060000Y68250000I-90000J0D01*
G01*
X50340000Y68250000D01*
G75*
G02*
X50250000Y68340000I0J90000D01*
G01*
X50250000Y69360000D01*
G75*
G02*
X50340000Y69450000I90000J0D01*
G01*
X51060000Y69450000D01*
G75*
G02*
X51150000Y69360000I0J-90000D01*
G01*
G37*
G04 #@! TD*
G04 #@! TO.C,D4*
G36*
G01*
X44545000Y66710000D02*
X44545000Y65690000D01*
G75*
G02*
X44455000Y65600000I-90000J0D01*
G01*
X43735000Y65600000D01*
G75*
G02*
X43645000Y65690000I0J90000D01*
G01*
X43645000Y66710000D01*
G75*
G02*
X43735000Y66800000I90000J0D01*
G01*
X44455000Y66800000D01*
G75*
G02*
X44545000Y66710000I0J-90000D01*
G01*
G37*
G36*
G01*
X41245000Y66710000D02*
X41245000Y65690000D01*
G75*
G02*
X41155000Y65600000I-90000J0D01*
G01*
X40435000Y65600000D01*
G75*
G02*
X40345000Y65690000I0J90000D01*
G01*
X40345000Y66710000D01*
G75*
G02*
X40435000Y66800000I90000J0D01*
G01*
X41155000Y66800000D01*
G75*
G02*
X41245000Y66710000I0J-90000D01*
G01*
G37*
G04 #@! TD*
G04 #@! TO.C,R10*
G36*
G01*
X8190000Y67400000D02*
X7410000Y67400000D01*
G75*
G02*
X7340000Y67470000I0J70000D01*
G01*
X7340000Y68030000D01*
G75*
G02*
X7410000Y68100000I70000J0D01*
G01*
X8190000Y68100000D01*
G75*
G02*
X8260000Y68030000I0J-70000D01*
G01*
X8260000Y67470000D01*
G75*
G02*
X8190000Y67400000I-70000J0D01*
G01*
G37*
G36*
G01*
X8190000Y69000000D02*
X7410000Y69000000D01*
G75*
G02*
X7340000Y69070000I0J70000D01*
G01*
X7340000Y69630000D01*
G75*
G02*
X7410000Y69700000I70000J0D01*
G01*
X8190000Y69700000D01*
G75*
G02*
X8260000Y69630000I0J-70000D01*
G01*
X8260000Y69070000D01*
G75*
G02*
X8190000Y69000000I-70000J0D01*
G01*
G37*
G04 #@! TD*
G04 #@! TO.C,R13*
G36*
G01*
X7925000Y69925000D02*
X5075000Y69925000D01*
G75*
G02*
X4825000Y70175000I0J250000D01*
G01*
X4825000Y70900000D01*
G75*
G02*
X5075000Y71150000I250000J0D01*
G01*
X7925000Y71150000D01*
G75*
G02*
X8175000Y70900000I0J-250000D01*
G01*
X8175000Y70175000D01*
G75*
G02*
X7925000Y69925000I-250000J0D01*
G01*
G37*
G36*
G01*
X7925000Y75850000D02*
X5075000Y75850000D01*
G75*
G02*
X4825000Y76100000I0J250000D01*
G01*
X4825000Y76825000D01*
G75*
G02*
X5075000Y77075000I250000J0D01*
G01*
X7925000Y77075000D01*
G75*
G02*
X8175000Y76825000I0J-250000D01*
G01*
X8175000Y76100000D01*
G75*
G02*
X7925000Y75850000I-250000J0D01*
G01*
G37*
G04 #@! TD*
G04 #@! TO.C,R11*
G36*
G01*
X27140000Y67850000D02*
X26360000Y67850000D01*
G75*
G02*
X26290000Y67920000I0J70000D01*
G01*
X26290000Y68480000D01*
G75*
G02*
X26360000Y68550000I70000J0D01*
G01*
X27140000Y68550000D01*
G75*
G02*
X27210000Y68480000I0J-70000D01*
G01*
X27210000Y67920000D01*
G75*
G02*
X27140000Y67850000I-70000J0D01*
G01*
G37*
G36*
G01*
X27140000Y69450000D02*
X26360000Y69450000D01*
G75*
G02*
X26290000Y69520000I0J70000D01*
G01*
X26290000Y70080000D01*
G75*
G02*
X26360000Y70150000I70000J0D01*
G01*
X27140000Y70150000D01*
G75*
G02*
X27210000Y70080000I0J-70000D01*
G01*
X27210000Y69520000D01*
G75*
G02*
X27140000Y69450000I-70000J0D01*
G01*
G37*
G04 #@! TD*
M02*
