G04 #@! TF.GenerationSoftware,KiCad,Pcbnew,7.0.10-7.0.10~ubuntu22.04.1*
G04 #@! TF.CreationDate,2023-12-31T21:24:10+00:00*
G04 #@! TF.ProjectId,uaeficopiedtovfr,75616566-6963-46f7-9069-6564746f7666,rev?*
G04 #@! TF.SameCoordinates,Original*
G04 #@! TF.FileFunction,Soldermask,Bot*
G04 #@! TF.FilePolarity,Negative*
%FSLAX46Y46*%
G04 Gerber Fmt 4.6, Leading zero omitted, Abs format (unit mm)*
G04 Created by KiCad (PCBNEW 7.0.10-7.0.10~ubuntu22.04.1) date 2023-12-31 21:24:10*
%MOMM*%
%LPD*%
G01*
G04 APERTURE LIST*
%ADD10C,0.120000*%
%ADD11C,1.524000*%
%ADD12C,5.600000*%
%ADD13C,0.600000*%
%ADD14C,0.599999*%
%ADD15C,1.500000*%
%ADD16C,2.850000*%
%ADD17R,2.625000X2.625000*%
%ADD18C,2.625000*%
%ADD19C,1.700000*%
%ADD20C,0.650000*%
%ADD21O,1.000000X2.100000*%
%ADD22O,1.000000X1.600000*%
G04 APERTURE END LIST*
G04 #@! TO.C,U2*
D10*
X153537500Y75123000D02*
X140537500Y75123000D01*
X140537500Y82123000D01*
X153537500Y82123000D01*
X153537500Y75123000D01*
G36*
X153537500Y75123000D02*
G01*
X140537500Y75123000D01*
X140537500Y82123000D01*
X153537500Y82123000D01*
X153537500Y75123000D01*
G37*
G04 #@! TD*
D11*
G04 #@! TO.C,R4*
X117930000Y45223000D03*
X114120000Y45223000D03*
G04 #@! TD*
D12*
G04 #@! TO.C,H2*
X41175000Y49498000D03*
G04 #@! TD*
D13*
G04 #@! TO.C,M2*
X156400002Y56498000D03*
X157350002Y56498000D03*
X158300000Y56498000D03*
X157300002Y47798000D03*
X156400002Y47798000D03*
G04 #@! TD*
G04 #@! TO.C,M3*
X71250000Y89698000D03*
X71250000Y90898000D03*
X71250000Y88498000D03*
X71250000Y87298000D03*
X85675000Y93758000D03*
X85675000Y94758000D03*
G04 #@! TD*
D14*
G04 #@! TO.C,M8*
X138749992Y43723010D03*
X140325006Y38818001D03*
X153029024Y38827064D03*
X144549996Y38148000D03*
X145725000Y38148000D03*
X147899994Y38148000D03*
X150124996Y38148000D03*
G04 #@! TD*
D15*
G04 #@! TO.C,M1*
X133849999Y49748005D03*
X127450002Y49748005D03*
X125549999Y49748005D03*
X121249999Y49748005D03*
D13*
X118850002Y49298006D03*
X117850001Y49298006D03*
D15*
X114999999Y49748005D03*
X134300001Y65248002D03*
X132450002Y65248002D03*
X127499999Y65248002D03*
X115450001Y65248002D03*
G04 #@! TD*
D16*
G04 #@! TO.C,J4*
X59525000Y32348000D03*
X100525000Y32348000D03*
D17*
X66025000Y36848000D03*
D18*
X70025000Y36848000D03*
X74025000Y36848000D03*
X78025000Y36848000D03*
X82025000Y36848000D03*
X86025000Y36848000D03*
X90025000Y36848000D03*
X94025000Y36848000D03*
X68025000Y32848000D03*
X72025000Y32848000D03*
X76025000Y32848000D03*
X80025000Y32848000D03*
X84025000Y32848000D03*
X88025000Y32848000D03*
X92025000Y32848000D03*
X66025000Y28848000D03*
X70025000Y28848000D03*
X74025000Y28848000D03*
X78025000Y28848000D03*
X82025000Y28848000D03*
X86025000Y28848000D03*
X90025000Y28848000D03*
X94025000Y28848000D03*
G04 #@! TD*
G04 #@! TO.C,U1*
G36*
G01*
X64450000Y89323001D02*
X64450000Y90922999D01*
G75*
G02*
X64700001Y91173000I250001J0D01*
G01*
X66299999Y91173000D01*
G75*
G02*
X66550000Y90922999I0J-250001D01*
G01*
X66550000Y89323001D01*
G75*
G02*
X66299999Y89073000I-250001J0D01*
G01*
X64700001Y89073000D01*
G75*
G02*
X64450000Y89323001I0J250001D01*
G01*
G37*
G36*
G01*
X58750000Y89323001D02*
X58750000Y90922999D01*
G75*
G02*
X59000001Y91173000I250001J0D01*
G01*
X60599999Y91173000D01*
G75*
G02*
X60850000Y90922999I0J-250001D01*
G01*
X60850000Y89323001D01*
G75*
G02*
X60599999Y89073000I-250001J0D01*
G01*
X59000001Y89073000D01*
G75*
G02*
X58750000Y89323001I0J250001D01*
G01*
G37*
G36*
G01*
X53050000Y89323001D02*
X53050000Y90922999D01*
G75*
G02*
X53300001Y91173000I250001J0D01*
G01*
X54899999Y91173000D01*
G75*
G02*
X55150000Y90922999I0J-250001D01*
G01*
X55150000Y89323001D01*
G75*
G02*
X54899999Y89073000I-250001J0D01*
G01*
X53300001Y89073000D01*
G75*
G02*
X53050000Y89323001I0J250001D01*
G01*
G37*
G36*
G01*
X47350000Y89323001D02*
X47350000Y90922999D01*
G75*
G02*
X47600001Y91173000I250001J0D01*
G01*
X49199999Y91173000D01*
G75*
G02*
X49450000Y90922999I0J-250001D01*
G01*
X49450000Y89323001D01*
G75*
G02*
X49199999Y89073000I-250001J0D01*
G01*
X47600001Y89073000D01*
G75*
G02*
X47350000Y89323001I0J250001D01*
G01*
G37*
G36*
G01*
X41650000Y89323001D02*
X41650000Y90922999D01*
G75*
G02*
X41900001Y91173000I250001J0D01*
G01*
X43499999Y91173000D01*
G75*
G02*
X43750000Y90922999I0J-250001D01*
G01*
X43750000Y89323001D01*
G75*
G02*
X43499999Y89073000I-250001J0D01*
G01*
X41900001Y89073000D01*
G75*
G02*
X41650000Y89323001I0J250001D01*
G01*
G37*
G36*
G01*
X35950000Y89323001D02*
X35950000Y90922999D01*
G75*
G02*
X36200001Y91173000I250001J0D01*
G01*
X37799999Y91173000D01*
G75*
G02*
X38050000Y90922999I0J-250001D01*
G01*
X38050000Y89323001D01*
G75*
G02*
X37799999Y89073000I-250001J0D01*
G01*
X36200001Y89073000D01*
G75*
G02*
X35950000Y89323001I0J250001D01*
G01*
G37*
G36*
G01*
X30250000Y89323001D02*
X30250000Y90922999D01*
G75*
G02*
X30500001Y91173000I250001J0D01*
G01*
X32099999Y91173000D01*
G75*
G02*
X32350000Y90922999I0J-250001D01*
G01*
X32350000Y89323001D01*
G75*
G02*
X32099999Y89073000I-250001J0D01*
G01*
X30500001Y89073000D01*
G75*
G02*
X30250000Y89323001I0J250001D01*
G01*
G37*
G36*
G01*
X24550000Y89323001D02*
X24550000Y90922999D01*
G75*
G02*
X24800001Y91173000I250001J0D01*
G01*
X26399999Y91173000D01*
G75*
G02*
X26650000Y90922999I0J-250001D01*
G01*
X26650000Y89323001D01*
G75*
G02*
X26399999Y89073000I-250001J0D01*
G01*
X24800001Y89073000D01*
G75*
G02*
X24550000Y89323001I0J250001D01*
G01*
G37*
G36*
G01*
X18850000Y89323001D02*
X18850000Y90922999D01*
G75*
G02*
X19100001Y91173000I250001J0D01*
G01*
X20699999Y91173000D01*
G75*
G02*
X20950000Y90922999I0J-250001D01*
G01*
X20950000Y89323001D01*
G75*
G02*
X20699999Y89073000I-250001J0D01*
G01*
X19100001Y89073000D01*
G75*
G02*
X18850000Y89323001I0J250001D01*
G01*
G37*
G36*
G01*
X13150000Y89323001D02*
X13150000Y90922999D01*
G75*
G02*
X13400001Y91173000I250001J0D01*
G01*
X14999999Y91173000D01*
G75*
G02*
X15250000Y90922999I0J-250001D01*
G01*
X15250000Y89323001D01*
G75*
G02*
X14999999Y89073000I-250001J0D01*
G01*
X13400001Y89073000D01*
G75*
G02*
X13150000Y89323001I0J250001D01*
G01*
G37*
G36*
G01*
X7450000Y89323001D02*
X7450000Y90922999D01*
G75*
G02*
X7700001Y91173000I250001J0D01*
G01*
X9299999Y91173000D01*
G75*
G02*
X9550000Y90922999I0J-250001D01*
G01*
X9550000Y89323001D01*
G75*
G02*
X9299999Y89073000I-250001J0D01*
G01*
X7700001Y89073000D01*
G75*
G02*
X7450000Y89323001I0J250001D01*
G01*
G37*
G36*
G01*
X64450000Y93423001D02*
X64450000Y95022999D01*
G75*
G02*
X64700001Y95273000I250001J0D01*
G01*
X66299999Y95273000D01*
G75*
G02*
X66550000Y95022999I0J-250001D01*
G01*
X66550000Y93423001D01*
G75*
G02*
X66299999Y93173000I-250001J0D01*
G01*
X64700001Y93173000D01*
G75*
G02*
X64450000Y93423001I0J250001D01*
G01*
G37*
G36*
G01*
X58750000Y93423001D02*
X58750000Y95022999D01*
G75*
G02*
X59000001Y95273000I250001J0D01*
G01*
X60599999Y95273000D01*
G75*
G02*
X60850000Y95022999I0J-250001D01*
G01*
X60850000Y93423001D01*
G75*
G02*
X60599999Y93173000I-250001J0D01*
G01*
X59000001Y93173000D01*
G75*
G02*
X58750000Y93423001I0J250001D01*
G01*
G37*
G36*
G01*
X53050000Y93423001D02*
X53050000Y95022999D01*
G75*
G02*
X53300001Y95273000I250001J0D01*
G01*
X54899999Y95273000D01*
G75*
G02*
X55150000Y95022999I0J-250001D01*
G01*
X55150000Y93423001D01*
G75*
G02*
X54899999Y93173000I-250001J0D01*
G01*
X53300001Y93173000D01*
G75*
G02*
X53050000Y93423001I0J250001D01*
G01*
G37*
G36*
G01*
X47350000Y93423001D02*
X47350000Y95022999D01*
G75*
G02*
X47600001Y95273000I250001J0D01*
G01*
X49199999Y95273000D01*
G75*
G02*
X49450000Y95022999I0J-250001D01*
G01*
X49450000Y93423001D01*
G75*
G02*
X49199999Y93173000I-250001J0D01*
G01*
X47600001Y93173000D01*
G75*
G02*
X47350000Y93423001I0J250001D01*
G01*
G37*
G36*
G01*
X41650000Y93423001D02*
X41650000Y95022999D01*
G75*
G02*
X41900001Y95273000I250001J0D01*
G01*
X43499999Y95273000D01*
G75*
G02*
X43750000Y95022999I0J-250001D01*
G01*
X43750000Y93423001D01*
G75*
G02*
X43499999Y93173000I-250001J0D01*
G01*
X41900001Y93173000D01*
G75*
G02*
X41650000Y93423001I0J250001D01*
G01*
G37*
G36*
G01*
X35950000Y93423001D02*
X35950000Y95022999D01*
G75*
G02*
X36200001Y95273000I250001J0D01*
G01*
X37799999Y95273000D01*
G75*
G02*
X38050000Y95022999I0J-250001D01*
G01*
X38050000Y93423001D01*
G75*
G02*
X37799999Y93173000I-250001J0D01*
G01*
X36200001Y93173000D01*
G75*
G02*
X35950000Y93423001I0J250001D01*
G01*
G37*
G36*
G01*
X30250000Y93423001D02*
X30250000Y95022999D01*
G75*
G02*
X30500001Y95273000I250001J0D01*
G01*
X32099999Y95273000D01*
G75*
G02*
X32350000Y95022999I0J-250001D01*
G01*
X32350000Y93423001D01*
G75*
G02*
X32099999Y93173000I-250001J0D01*
G01*
X30500001Y93173000D01*
G75*
G02*
X30250000Y93423001I0J250001D01*
G01*
G37*
G36*
G01*
X24550000Y93423001D02*
X24550000Y95022999D01*
G75*
G02*
X24800001Y95273000I250001J0D01*
G01*
X26399999Y95273000D01*
G75*
G02*
X26650000Y95022999I0J-250001D01*
G01*
X26650000Y93423001D01*
G75*
G02*
X26399999Y93173000I-250001J0D01*
G01*
X24800001Y93173000D01*
G75*
G02*
X24550000Y93423001I0J250001D01*
G01*
G37*
G36*
G01*
X18850000Y93423001D02*
X18850000Y95022999D01*
G75*
G02*
X19100001Y95273000I250001J0D01*
G01*
X20699999Y95273000D01*
G75*
G02*
X20950000Y95022999I0J-250001D01*
G01*
X20950000Y93423001D01*
G75*
G02*
X20699999Y93173000I-250001J0D01*
G01*
X19100001Y93173000D01*
G75*
G02*
X18850000Y93423001I0J250001D01*
G01*
G37*
G36*
G01*
X13150000Y93423001D02*
X13150000Y95022999D01*
G75*
G02*
X13400001Y95273000I250001J0D01*
G01*
X14999999Y95273000D01*
G75*
G02*
X15250000Y95022999I0J-250001D01*
G01*
X15250000Y93423001D01*
G75*
G02*
X14999999Y93173000I-250001J0D01*
G01*
X13400001Y93173000D01*
G75*
G02*
X13150000Y93423001I0J250001D01*
G01*
G37*
G36*
G01*
X7450000Y93423001D02*
X7450000Y95022999D01*
G75*
G02*
X7700001Y95273000I250001J0D01*
G01*
X9299999Y95273000D01*
G75*
G02*
X9550000Y95022999I0J-250001D01*
G01*
X9550000Y93423001D01*
G75*
G02*
X9299999Y93173000I-250001J0D01*
G01*
X7700001Y93173000D01*
G75*
G02*
X7450000Y93423001I0J250001D01*
G01*
G37*
G36*
G01*
X150450000Y89273001D02*
X150450000Y90872999D01*
G75*
G02*
X150700001Y91123000I250001J0D01*
G01*
X152299999Y91123000D01*
G75*
G02*
X152550000Y90872999I0J-250001D01*
G01*
X152550000Y89273001D01*
G75*
G02*
X152299999Y89023000I-250001J0D01*
G01*
X150700001Y89023000D01*
G75*
G02*
X150450000Y89273001I0J250001D01*
G01*
G37*
G36*
G01*
X144750000Y89273001D02*
X144750000Y90872999D01*
G75*
G02*
X145000001Y91123000I250001J0D01*
G01*
X146599999Y91123000D01*
G75*
G02*
X146850000Y90872999I0J-250001D01*
G01*
X146850000Y89273001D01*
G75*
G02*
X146599999Y89023000I-250001J0D01*
G01*
X145000001Y89023000D01*
G75*
G02*
X144750000Y89273001I0J250001D01*
G01*
G37*
G36*
G01*
X139050000Y89273001D02*
X139050000Y90872999D01*
G75*
G02*
X139300001Y91123000I250001J0D01*
G01*
X140899999Y91123000D01*
G75*
G02*
X141150000Y90872999I0J-250001D01*
G01*
X141150000Y89273001D01*
G75*
G02*
X140899999Y89023000I-250001J0D01*
G01*
X139300001Y89023000D01*
G75*
G02*
X139050000Y89273001I0J250001D01*
G01*
G37*
G36*
G01*
X133350000Y89273001D02*
X133350000Y90872999D01*
G75*
G02*
X133600001Y91123000I250001J0D01*
G01*
X135199999Y91123000D01*
G75*
G02*
X135450000Y90872999I0J-250001D01*
G01*
X135450000Y89273001D01*
G75*
G02*
X135199999Y89023000I-250001J0D01*
G01*
X133600001Y89023000D01*
G75*
G02*
X133350000Y89273001I0J250001D01*
G01*
G37*
G36*
G01*
X127650000Y89273001D02*
X127650000Y90872999D01*
G75*
G02*
X127900001Y91123000I250001J0D01*
G01*
X129499999Y91123000D01*
G75*
G02*
X129750000Y90872999I0J-250001D01*
G01*
X129750000Y89273001D01*
G75*
G02*
X129499999Y89023000I-250001J0D01*
G01*
X127900001Y89023000D01*
G75*
G02*
X127650000Y89273001I0J250001D01*
G01*
G37*
G36*
G01*
X121950000Y89273001D02*
X121950000Y90872999D01*
G75*
G02*
X122200001Y91123000I250001J0D01*
G01*
X123799999Y91123000D01*
G75*
G02*
X124050000Y90872999I0J-250001D01*
G01*
X124050000Y89273001D01*
G75*
G02*
X123799999Y89023000I-250001J0D01*
G01*
X122200001Y89023000D01*
G75*
G02*
X121950000Y89273001I0J250001D01*
G01*
G37*
G36*
G01*
X116250000Y89273001D02*
X116250000Y90872999D01*
G75*
G02*
X116500001Y91123000I250001J0D01*
G01*
X118099999Y91123000D01*
G75*
G02*
X118350000Y90872999I0J-250001D01*
G01*
X118350000Y89273001D01*
G75*
G02*
X118099999Y89023000I-250001J0D01*
G01*
X116500001Y89023000D01*
G75*
G02*
X116250000Y89273001I0J250001D01*
G01*
G37*
G36*
G01*
X110550000Y89273001D02*
X110550000Y90872999D01*
G75*
G02*
X110800001Y91123000I250001J0D01*
G01*
X112399999Y91123000D01*
G75*
G02*
X112650000Y90872999I0J-250001D01*
G01*
X112650000Y89273001D01*
G75*
G02*
X112399999Y89023000I-250001J0D01*
G01*
X110800001Y89023000D01*
G75*
G02*
X110550000Y89273001I0J250001D01*
G01*
G37*
G36*
G01*
X104850000Y89273001D02*
X104850000Y90872999D01*
G75*
G02*
X105100001Y91123000I250001J0D01*
G01*
X106699999Y91123000D01*
G75*
G02*
X106950000Y90872999I0J-250001D01*
G01*
X106950000Y89273001D01*
G75*
G02*
X106699999Y89023000I-250001J0D01*
G01*
X105100001Y89023000D01*
G75*
G02*
X104850000Y89273001I0J250001D01*
G01*
G37*
G36*
G01*
X99150000Y89273001D02*
X99150000Y90872999D01*
G75*
G02*
X99400001Y91123000I250001J0D01*
G01*
X100999999Y91123000D01*
G75*
G02*
X101250000Y90872999I0J-250001D01*
G01*
X101250000Y89273001D01*
G75*
G02*
X100999999Y89023000I-250001J0D01*
G01*
X99400001Y89023000D01*
G75*
G02*
X99150000Y89273001I0J250001D01*
G01*
G37*
G36*
G01*
X93450000Y89273001D02*
X93450000Y90872999D01*
G75*
G02*
X93700001Y91123000I250001J0D01*
G01*
X95299999Y91123000D01*
G75*
G02*
X95550000Y90872999I0J-250001D01*
G01*
X95550000Y89273001D01*
G75*
G02*
X95299999Y89023000I-250001J0D01*
G01*
X93700001Y89023000D01*
G75*
G02*
X93450000Y89273001I0J250001D01*
G01*
G37*
G36*
G01*
X150450000Y93373001D02*
X150450000Y94972999D01*
G75*
G02*
X150700001Y95223000I250001J0D01*
G01*
X152299999Y95223000D01*
G75*
G02*
X152550000Y94972999I0J-250001D01*
G01*
X152550000Y93373001D01*
G75*
G02*
X152299999Y93123000I-250001J0D01*
G01*
X150700001Y93123000D01*
G75*
G02*
X150450000Y93373001I0J250001D01*
G01*
G37*
G36*
G01*
X144750000Y93373001D02*
X144750000Y94972999D01*
G75*
G02*
X145000001Y95223000I250001J0D01*
G01*
X146599999Y95223000D01*
G75*
G02*
X146850000Y94972999I0J-250001D01*
G01*
X146850000Y93373001D01*
G75*
G02*
X146599999Y93123000I-250001J0D01*
G01*
X145000001Y93123000D01*
G75*
G02*
X144750000Y93373001I0J250001D01*
G01*
G37*
G36*
G01*
X139050000Y93373001D02*
X139050000Y94972999D01*
G75*
G02*
X139300001Y95223000I250001J0D01*
G01*
X140899999Y95223000D01*
G75*
G02*
X141150000Y94972999I0J-250001D01*
G01*
X141150000Y93373001D01*
G75*
G02*
X140899999Y93123000I-250001J0D01*
G01*
X139300001Y93123000D01*
G75*
G02*
X139050000Y93373001I0J250001D01*
G01*
G37*
G36*
G01*
X133350000Y93373001D02*
X133350000Y94972999D01*
G75*
G02*
X133600001Y95223000I250001J0D01*
G01*
X135199999Y95223000D01*
G75*
G02*
X135450000Y94972999I0J-250001D01*
G01*
X135450000Y93373001D01*
G75*
G02*
X135199999Y93123000I-250001J0D01*
G01*
X133600001Y93123000D01*
G75*
G02*
X133350000Y93373001I0J250001D01*
G01*
G37*
G36*
G01*
X127650000Y93373001D02*
X127650000Y94972999D01*
G75*
G02*
X127900001Y95223000I250001J0D01*
G01*
X129499999Y95223000D01*
G75*
G02*
X129750000Y94972999I0J-250001D01*
G01*
X129750000Y93373001D01*
G75*
G02*
X129499999Y93123000I-250001J0D01*
G01*
X127900001Y93123000D01*
G75*
G02*
X127650000Y93373001I0J250001D01*
G01*
G37*
G36*
G01*
X121950000Y93373001D02*
X121950000Y94972999D01*
G75*
G02*
X122200001Y95223000I250001J0D01*
G01*
X123799999Y95223000D01*
G75*
G02*
X124050000Y94972999I0J-250001D01*
G01*
X124050000Y93373001D01*
G75*
G02*
X123799999Y93123000I-250001J0D01*
G01*
X122200001Y93123000D01*
G75*
G02*
X121950000Y93373001I0J250001D01*
G01*
G37*
G36*
G01*
X116250000Y93373001D02*
X116250000Y94972999D01*
G75*
G02*
X116500001Y95223000I250001J0D01*
G01*
X118099999Y95223000D01*
G75*
G02*
X118350000Y94972999I0J-250001D01*
G01*
X118350000Y93373001D01*
G75*
G02*
X118099999Y93123000I-250001J0D01*
G01*
X116500001Y93123000D01*
G75*
G02*
X116250000Y93373001I0J250001D01*
G01*
G37*
G36*
G01*
X110550000Y93373001D02*
X110550000Y94972999D01*
G75*
G02*
X110800001Y95223000I250001J0D01*
G01*
X112399999Y95223000D01*
G75*
G02*
X112650000Y94972999I0J-250001D01*
G01*
X112650000Y93373001D01*
G75*
G02*
X112399999Y93123000I-250001J0D01*
G01*
X110800001Y93123000D01*
G75*
G02*
X110550000Y93373001I0J250001D01*
G01*
G37*
G36*
G01*
X104850000Y93373001D02*
X104850000Y94972999D01*
G75*
G02*
X105100001Y95223000I250001J0D01*
G01*
X106699999Y95223000D01*
G75*
G02*
X106950000Y94972999I0J-250001D01*
G01*
X106950000Y93373001D01*
G75*
G02*
X106699999Y93123000I-250001J0D01*
G01*
X105100001Y93123000D01*
G75*
G02*
X104850000Y93373001I0J250001D01*
G01*
G37*
G36*
G01*
X99150000Y93373001D02*
X99150000Y94972999D01*
G75*
G02*
X99400001Y95223000I250001J0D01*
G01*
X100999999Y95223000D01*
G75*
G02*
X101250000Y94972999I0J-250001D01*
G01*
X101250000Y93373001D01*
G75*
G02*
X100999999Y93123000I-250001J0D01*
G01*
X99400001Y93123000D01*
G75*
G02*
X99150000Y93373001I0J250001D01*
G01*
G37*
G36*
G01*
X93450000Y93373001D02*
X93450000Y94972999D01*
G75*
G02*
X93700001Y95223000I250001J0D01*
G01*
X95299999Y95223000D01*
G75*
G02*
X95550000Y94972999I0J-250001D01*
G01*
X95550000Y93373001D01*
G75*
G02*
X95299999Y93123000I-250001J0D01*
G01*
X93700001Y93123000D01*
G75*
G02*
X93450000Y93373001I0J250001D01*
G01*
G37*
G04 #@! TD*
D13*
G04 #@! TO.C,M4*
X124300000Y78748000D03*
X124300000Y79948000D03*
X124300000Y77548000D03*
X124300000Y76348000D03*
X138725000Y82808000D03*
X138725000Y83808000D03*
G04 #@! TD*
D19*
G04 #@! TO.C,P3*
X134375000Y71023000D03*
G04 #@! TD*
D20*
G04 #@! TO.C,J9*
X121285000Y36903000D03*
X127065000Y36903000D03*
D21*
X119855000Y37403000D03*
D22*
X119855000Y33223000D03*
D21*
X128495000Y37403000D03*
D22*
X128495000Y33223000D03*
G04 #@! TD*
D12*
G04 #@! TO.C,H1*
X145875000Y49498000D03*
G04 #@! TD*
D19*
G04 #@! TO.C,P4*
X138155000Y71023000D03*
G04 #@! TD*
D11*
G04 #@! TO.C,F2*
X113325000Y74123000D03*
X118225000Y74123000D03*
G04 #@! TD*
G04 #@! TO.C,F1*
X125392588Y72655412D03*
X128857412Y69190588D03*
G04 #@! TD*
G04 #@! TO.C,R14*
G36*
G01*
X25271586Y77340646D02*
X22803414Y75915646D01*
G75*
G02*
X22461908Y76007152I-125000J216506D01*
G01*
X22099408Y76635020D01*
G75*
G02*
X22190914Y76976526I216506J125000D01*
G01*
X24659086Y78401526D01*
G75*
G02*
X25000592Y78310020I125000J-216506D01*
G01*
X25363092Y77682152D01*
G75*
G02*
X25271586Y77340646I-216506J-125000D01*
G01*
G37*
G36*
G01*
X22309086Y82471846D02*
X19840914Y81046846D01*
G75*
G02*
X19499408Y81138352I-125000J216506D01*
G01*
X19136908Y81766220D01*
G75*
G02*
X19228414Y82107726I216506J125000D01*
G01*
X21696586Y83532726D01*
G75*
G02*
X22038092Y83441220I125000J-216506D01*
G01*
X22400592Y82813352D01*
G75*
G02*
X22309086Y82471846I-216506J-125000D01*
G01*
G37*
G04 #@! TD*
G04 #@! TO.C,R12*
G36*
G01*
X34079775Y79227553D02*
X31611603Y77802553D01*
G75*
G02*
X31270097Y77894059I-125000J216506D01*
G01*
X30907597Y78521927D01*
G75*
G02*
X30999103Y78863433I216506J125000D01*
G01*
X33467275Y80288433D01*
G75*
G02*
X33808781Y80196927I125000J-216506D01*
G01*
X34171281Y79569059D01*
G75*
G02*
X34079775Y79227553I-216506J-125000D01*
G01*
G37*
G36*
G01*
X31117275Y84358753D02*
X28649103Y82933753D01*
G75*
G02*
X28307597Y83025259I-125000J216506D01*
G01*
X27945097Y83653127D01*
G75*
G02*
X28036603Y83994633I216506J125000D01*
G01*
X30504775Y85419633D01*
G75*
G02*
X30846281Y85328127I125000J-216506D01*
G01*
X31208781Y84700259D01*
G75*
G02*
X31117275Y84358753I-216506J-125000D01*
G01*
G37*
G04 #@! TD*
G04 #@! TO.C,R15*
G36*
G01*
X13487750Y70197071D02*
X12812250Y69807071D01*
G75*
G02*
X12716628Y69832693I-35000J60622D01*
G01*
X12436628Y70317667D01*
G75*
G02*
X12462250Y70413289I60622J35000D01*
G01*
X13137750Y70803289D01*
G75*
G02*
X13233372Y70777667I35000J-60622D01*
G01*
X13513372Y70292693D01*
G75*
G02*
X13487750Y70197071I-60622J-35000D01*
G01*
G37*
G36*
G01*
X12687750Y71582711D02*
X12012250Y71192711D01*
G75*
G02*
X11916628Y71218333I-35000J60622D01*
G01*
X11636628Y71703307D01*
G75*
G02*
X11662250Y71798929I60622J35000D01*
G01*
X12337750Y72188929D01*
G75*
G02*
X12433372Y72163307I35000J-60622D01*
G01*
X12713372Y71678333D01*
G75*
G02*
X12687750Y71582711I-60622J-35000D01*
G01*
G37*
G04 #@! TD*
G04 #@! TO.C,D2*
G36*
G01*
X52370000Y83383000D02*
X52370000Y82363000D01*
G75*
G02*
X52280000Y82273000I-90000J0D01*
G01*
X51560000Y82273000D01*
G75*
G02*
X51470000Y82363000I0J90000D01*
G01*
X51470000Y83383000D01*
G75*
G02*
X51560000Y83473000I90000J0D01*
G01*
X52280000Y83473000D01*
G75*
G02*
X52370000Y83383000I0J-90000D01*
G01*
G37*
G36*
G01*
X49070000Y83383000D02*
X49070000Y82363000D01*
G75*
G02*
X48980000Y82273000I-90000J0D01*
G01*
X48260000Y82273000D01*
G75*
G02*
X48170000Y82363000I0J90000D01*
G01*
X48170000Y83383000D01*
G75*
G02*
X48260000Y83473000I90000J0D01*
G01*
X48980000Y83473000D01*
G75*
G02*
X49070000Y83383000I0J-90000D01*
G01*
G37*
G04 #@! TD*
G04 #@! TO.C,D5*
G36*
G01*
X53887168Y68506417D02*
X54608417Y67785168D01*
G75*
G02*
X54608417Y67657888I-63640J-63640D01*
G01*
X54099300Y67148771D01*
G75*
G02*
X53972020Y67148771I-63640J63640D01*
G01*
X53250771Y67870020D01*
G75*
G02*
X53250771Y67997300I63640J63640D01*
G01*
X53759888Y68506417D01*
G75*
G02*
X53887168Y68506417I63640J-63640D01*
G01*
G37*
G36*
G01*
X51553716Y66172965D02*
X52274965Y65451716D01*
G75*
G02*
X52274965Y65324436I-63640J-63640D01*
G01*
X51765848Y64815319D01*
G75*
G02*
X51638568Y64815319I-63640J63640D01*
G01*
X50917319Y65536568D01*
G75*
G02*
X50917319Y65663848I63640J63640D01*
G01*
X51426436Y66172965D01*
G75*
G02*
X51553716Y66172965I63640J-63640D01*
G01*
G37*
G04 #@! TD*
G04 #@! TO.C,R30*
G36*
G01*
X65115000Y83098000D02*
X64335000Y83098000D01*
G75*
G02*
X64265000Y83168000I0J70000D01*
G01*
X64265000Y83728000D01*
G75*
G02*
X64335000Y83798000I70000J0D01*
G01*
X65115000Y83798000D01*
G75*
G02*
X65185000Y83728000I0J-70000D01*
G01*
X65185000Y83168000D01*
G75*
G02*
X65115000Y83098000I-70000J0D01*
G01*
G37*
G36*
G01*
X65115000Y84698000D02*
X64335000Y84698000D01*
G75*
G02*
X64265000Y84768000I0J70000D01*
G01*
X64265000Y85328000D01*
G75*
G02*
X64335000Y85398000I70000J0D01*
G01*
X65115000Y85398000D01*
G75*
G02*
X65185000Y85328000I0J-70000D01*
G01*
X65185000Y84768000D01*
G75*
G02*
X65115000Y84698000I-70000J0D01*
G01*
G37*
G04 #@! TD*
G04 #@! TO.C,R9*
G36*
G01*
X30637750Y73947071D02*
X29962250Y73557071D01*
G75*
G02*
X29866628Y73582693I-35000J60622D01*
G01*
X29586628Y74067667D01*
G75*
G02*
X29612250Y74163289I60622J35000D01*
G01*
X30287750Y74553289D01*
G75*
G02*
X30383372Y74527667I35000J-60622D01*
G01*
X30663372Y74042693D01*
G75*
G02*
X30637750Y73947071I-60622J-35000D01*
G01*
G37*
G36*
G01*
X29837750Y75332711D02*
X29162250Y74942711D01*
G75*
G02*
X29066628Y74968333I-35000J60622D01*
G01*
X28786628Y75453307D01*
G75*
G02*
X28812250Y75548929I60622J35000D01*
G01*
X29487750Y75938929D01*
G75*
G02*
X29583372Y75913307I35000J-60622D01*
G01*
X29863372Y75428333D01*
G75*
G02*
X29837750Y75332711I-60622J-35000D01*
G01*
G37*
G04 #@! TD*
G04 #@! TO.C,R18*
G36*
G01*
X17396586Y74664460D02*
X14928414Y73239460D01*
G75*
G02*
X14586908Y73330966I-125000J216506D01*
G01*
X14224408Y73958834D01*
G75*
G02*
X14315914Y74300340I216506J125000D01*
G01*
X16784086Y75725340D01*
G75*
G02*
X17125592Y75633834I125000J-216506D01*
G01*
X17488092Y75005966D01*
G75*
G02*
X17396586Y74664460I-216506J-125000D01*
G01*
G37*
G36*
G01*
X14434086Y79795660D02*
X11965914Y78370660D01*
G75*
G02*
X11624408Y78462166I-125000J216506D01*
G01*
X11261908Y79090034D01*
G75*
G02*
X11353414Y79431540I216506J125000D01*
G01*
X13821586Y80856540D01*
G75*
G02*
X14163092Y80765034I125000J-216506D01*
G01*
X14525592Y80137166D01*
G75*
G02*
X14434086Y79795660I-216506J-125000D01*
G01*
G37*
G04 #@! TD*
G04 #@! TO.C,R29*
G36*
G01*
X65215000Y75398000D02*
X64435000Y75398000D01*
G75*
G02*
X64365000Y75468000I0J70000D01*
G01*
X64365000Y76028000D01*
G75*
G02*
X64435000Y76098000I70000J0D01*
G01*
X65215000Y76098000D01*
G75*
G02*
X65285000Y76028000I0J-70000D01*
G01*
X65285000Y75468000D01*
G75*
G02*
X65215000Y75398000I-70000J0D01*
G01*
G37*
G36*
G01*
X65215000Y76998000D02*
X64435000Y76998000D01*
G75*
G02*
X64365000Y77068000I0J70000D01*
G01*
X64365000Y77628000D01*
G75*
G02*
X64435000Y77698000I70000J0D01*
G01*
X65215000Y77698000D01*
G75*
G02*
X65285000Y77628000I0J-70000D01*
G01*
X65285000Y77068000D01*
G75*
G02*
X65215000Y76998000I-70000J0D01*
G01*
G37*
G04 #@! TD*
G04 #@! TO.C,D3*
G36*
G01*
X54425000Y73883000D02*
X54425000Y72863000D01*
G75*
G02*
X54335000Y72773000I-90000J0D01*
G01*
X53615000Y72773000D01*
G75*
G02*
X53525000Y72863000I0J90000D01*
G01*
X53525000Y73883000D01*
G75*
G02*
X53615000Y73973000I90000J0D01*
G01*
X54335000Y73973000D01*
G75*
G02*
X54425000Y73883000I0J-90000D01*
G01*
G37*
G36*
G01*
X51125000Y73883000D02*
X51125000Y72863000D01*
G75*
G02*
X51035000Y72773000I-90000J0D01*
G01*
X50315000Y72773000D01*
G75*
G02*
X50225000Y72863000I0J90000D01*
G01*
X50225000Y73883000D01*
G75*
G02*
X50315000Y73973000I90000J0D01*
G01*
X51035000Y73973000D01*
G75*
G02*
X51125000Y73883000I0J-90000D01*
G01*
G37*
G04 #@! TD*
G04 #@! TO.C,D4*
G36*
G01*
X44620000Y70158000D02*
X44620000Y69138000D01*
G75*
G02*
X44530000Y69048000I-90000J0D01*
G01*
X43810000Y69048000D01*
G75*
G02*
X43720000Y69138000I0J90000D01*
G01*
X43720000Y70158000D01*
G75*
G02*
X43810000Y70248000I90000J0D01*
G01*
X44530000Y70248000D01*
G75*
G02*
X44620000Y70158000I0J-90000D01*
G01*
G37*
G36*
G01*
X41320000Y70158000D02*
X41320000Y69138000D01*
G75*
G02*
X41230000Y69048000I-90000J0D01*
G01*
X40510000Y69048000D01*
G75*
G02*
X40420000Y69138000I0J90000D01*
G01*
X40420000Y70158000D01*
G75*
G02*
X40510000Y70248000I90000J0D01*
G01*
X41230000Y70248000D01*
G75*
G02*
X41320000Y70158000I0J-90000D01*
G01*
G37*
G04 #@! TD*
G04 #@! TO.C,R10*
G36*
G01*
X5187750Y69547071D02*
X4512250Y69157071D01*
G75*
G02*
X4416628Y69182693I-35000J60622D01*
G01*
X4136628Y69667667D01*
G75*
G02*
X4162250Y69763289I60622J35000D01*
G01*
X4837750Y70153289D01*
G75*
G02*
X4933372Y70127667I35000J-60622D01*
G01*
X5213372Y69642693D01*
G75*
G02*
X5187750Y69547071I-60622J-35000D01*
G01*
G37*
G36*
G01*
X4387750Y70932711D02*
X3712250Y70542711D01*
G75*
G02*
X3616628Y70568333I-35000J60622D01*
G01*
X3336628Y71053307D01*
G75*
G02*
X3362250Y71148929I60622J35000D01*
G01*
X4037750Y71538929D01*
G75*
G02*
X4133372Y71513307I35000J-60622D01*
G01*
X4413372Y71028333D01*
G75*
G02*
X4387750Y70932711I-60622J-35000D01*
G01*
G37*
G04 #@! TD*
G04 #@! TO.C,R13*
G36*
G01*
X9138397Y73027553D02*
X6670225Y71602553D01*
G75*
G02*
X6328719Y71694059I-125000J216506D01*
G01*
X5966219Y72321927D01*
G75*
G02*
X6057725Y72663433I216506J125000D01*
G01*
X8525897Y74088433D01*
G75*
G02*
X8867403Y73996927I125000J-216506D01*
G01*
X9229903Y73369059D01*
G75*
G02*
X9138397Y73027553I-216506J-125000D01*
G01*
G37*
G36*
G01*
X6175897Y78158753D02*
X3707725Y76733753D01*
G75*
G02*
X3366219Y76825259I-125000J216506D01*
G01*
X3003719Y77453127D01*
G75*
G02*
X3095225Y77794633I216506J125000D01*
G01*
X5563397Y79219633D01*
G75*
G02*
X5904903Y79128127I125000J-216506D01*
G01*
X6267403Y78500259D01*
G75*
G02*
X6175897Y78158753I-216506J-125000D01*
G01*
G37*
G04 #@! TD*
G04 #@! TO.C,R11*
G36*
G01*
X21737750Y72547071D02*
X21062250Y72157071D01*
G75*
G02*
X20966628Y72182693I-35000J60622D01*
G01*
X20686628Y72667667D01*
G75*
G02*
X20712250Y72763289I60622J35000D01*
G01*
X21387750Y73153289D01*
G75*
G02*
X21483372Y73127667I35000J-60622D01*
G01*
X21763372Y72642693D01*
G75*
G02*
X21737750Y72547071I-60622J-35000D01*
G01*
G37*
G36*
G01*
X20937750Y73932711D02*
X20262250Y73542711D01*
G75*
G02*
X20166628Y73568333I-35000J60622D01*
G01*
X19886628Y74053307D01*
G75*
G02*
X19912250Y74148929I60622J35000D01*
G01*
X20587750Y74538929D01*
G75*
G02*
X20683372Y74513307I35000J-60622D01*
G01*
X20963372Y74028333D01*
G75*
G02*
X20937750Y73932711I-60622J-35000D01*
G01*
G37*
G04 #@! TD*
M02*
