G04 #@! TF.GenerationSoftware,KiCad,Pcbnew,7.0.10-7.0.10~ubuntu22.04.1*
G04 #@! TF.CreationDate,2023-12-31T22:58:43+00:00*
G04 #@! TF.ProjectId,uaeficopiedtovfr,75616566-6963-46f7-9069-6564746f7666,rev?*
G04 #@! TF.SameCoordinates,Original*
G04 #@! TF.FileFunction,Paste,Bot*
G04 #@! TF.FilePolarity,Positive*
%FSLAX46Y46*%
G04 Gerber Fmt 4.6, Leading zero omitted, Abs format (unit mm)*
G04 Created by KiCad (PCBNEW 7.0.10-7.0.10~ubuntu22.04.1) date 2023-12-31 22:58:43*
%MOMM*%
%LPD*%
G01*
G04 APERTURE LIST*
G04 APERTURE END LIST*
G04 #@! TO.C,R14*
G36*
G01*
X25271586Y51040646D02*
X22803414Y49615646D01*
G75*
G02*
X22461908Y49707152I-125000J216506D01*
G01*
X22099408Y50335020D01*
G75*
G02*
X22190914Y50676526I216506J125000D01*
G01*
X24659086Y52101526D01*
G75*
G02*
X25000592Y52010020I125000J-216506D01*
G01*
X25363092Y51382152D01*
G75*
G02*
X25271586Y51040646I-216506J-125000D01*
G01*
G37*
G36*
G01*
X22309086Y56171846D02*
X19840914Y54746846D01*
G75*
G02*
X19499408Y54838352I-125000J216506D01*
G01*
X19136908Y55466220D01*
G75*
G02*
X19228414Y55807726I216506J125000D01*
G01*
X21696586Y57232726D01*
G75*
G02*
X22038092Y57141220I125000J-216506D01*
G01*
X22400592Y56513352D01*
G75*
G02*
X22309086Y56171846I-216506J-125000D01*
G01*
G37*
G04 #@! TD*
G04 #@! TO.C,R12*
G36*
G01*
X34079775Y52927553D02*
X31611603Y51502553D01*
G75*
G02*
X31270097Y51594059I-125000J216506D01*
G01*
X30907597Y52221927D01*
G75*
G02*
X30999103Y52563433I216506J125000D01*
G01*
X33467275Y53988433D01*
G75*
G02*
X33808781Y53896927I125000J-216506D01*
G01*
X34171281Y53269059D01*
G75*
G02*
X34079775Y52927553I-216506J-125000D01*
G01*
G37*
G36*
G01*
X31117275Y58058753D02*
X28649103Y56633753D01*
G75*
G02*
X28307597Y56725259I-125000J216506D01*
G01*
X27945097Y57353127D01*
G75*
G02*
X28036603Y57694633I216506J125000D01*
G01*
X30504775Y59119633D01*
G75*
G02*
X30846281Y59028127I125000J-216506D01*
G01*
X31208781Y58400259D01*
G75*
G02*
X31117275Y58058753I-216506J-125000D01*
G01*
G37*
G04 #@! TD*
G04 #@! TO.C,R15*
G36*
G01*
X13487750Y43897071D02*
X12812250Y43507071D01*
G75*
G02*
X12716628Y43532693I-35000J60622D01*
G01*
X12436628Y44017667D01*
G75*
G02*
X12462250Y44113289I60622J35000D01*
G01*
X13137750Y44503289D01*
G75*
G02*
X13233372Y44477667I35000J-60622D01*
G01*
X13513372Y43992693D01*
G75*
G02*
X13487750Y43897071I-60622J-35000D01*
G01*
G37*
G36*
G01*
X12687750Y45282711D02*
X12012250Y44892711D01*
G75*
G02*
X11916628Y44918333I-35000J60622D01*
G01*
X11636628Y45403307D01*
G75*
G02*
X11662250Y45498929I60622J35000D01*
G01*
X12337750Y45888929D01*
G75*
G02*
X12433372Y45863307I35000J-60622D01*
G01*
X12713372Y45378333D01*
G75*
G02*
X12687750Y45282711I-60622J-35000D01*
G01*
G37*
G04 #@! TD*
G04 #@! TO.C,D2*
G36*
G01*
X52370000Y57083000D02*
X52370000Y56063000D01*
G75*
G02*
X52280000Y55973000I-90000J0D01*
G01*
X51560000Y55973000D01*
G75*
G02*
X51470000Y56063000I0J90000D01*
G01*
X51470000Y57083000D01*
G75*
G02*
X51560000Y57173000I90000J0D01*
G01*
X52280000Y57173000D01*
G75*
G02*
X52370000Y57083000I0J-90000D01*
G01*
G37*
G36*
G01*
X49070000Y57083000D02*
X49070000Y56063000D01*
G75*
G02*
X48980000Y55973000I-90000J0D01*
G01*
X48260000Y55973000D01*
G75*
G02*
X48170000Y56063000I0J90000D01*
G01*
X48170000Y57083000D01*
G75*
G02*
X48260000Y57173000I90000J0D01*
G01*
X48980000Y57173000D01*
G75*
G02*
X49070000Y57083000I0J-90000D01*
G01*
G37*
G04 #@! TD*
G04 #@! TO.C,D5*
G36*
G01*
X53887168Y42206417D02*
X54608417Y41485168D01*
G75*
G02*
X54608417Y41357888I-63640J-63640D01*
G01*
X54099300Y40848771D01*
G75*
G02*
X53972020Y40848771I-63640J63640D01*
G01*
X53250771Y41570020D01*
G75*
G02*
X53250771Y41697300I63640J63640D01*
G01*
X53759888Y42206417D01*
G75*
G02*
X53887168Y42206417I63640J-63640D01*
G01*
G37*
G36*
G01*
X51553716Y39872965D02*
X52274965Y39151716D01*
G75*
G02*
X52274965Y39024436I-63640J-63640D01*
G01*
X51765848Y38515319D01*
G75*
G02*
X51638568Y38515319I-63640J63640D01*
G01*
X50917319Y39236568D01*
G75*
G02*
X50917319Y39363848I63640J63640D01*
G01*
X51426436Y39872965D01*
G75*
G02*
X51553716Y39872965I63640J-63640D01*
G01*
G37*
G04 #@! TD*
G04 #@! TO.C,R30*
G36*
G01*
X65115000Y56798000D02*
X64335000Y56798000D01*
G75*
G02*
X64265000Y56868000I0J70000D01*
G01*
X64265000Y57428000D01*
G75*
G02*
X64335000Y57498000I70000J0D01*
G01*
X65115000Y57498000D01*
G75*
G02*
X65185000Y57428000I0J-70000D01*
G01*
X65185000Y56868000D01*
G75*
G02*
X65115000Y56798000I-70000J0D01*
G01*
G37*
G36*
G01*
X65115000Y58398000D02*
X64335000Y58398000D01*
G75*
G02*
X64265000Y58468000I0J70000D01*
G01*
X64265000Y59028000D01*
G75*
G02*
X64335000Y59098000I70000J0D01*
G01*
X65115000Y59098000D01*
G75*
G02*
X65185000Y59028000I0J-70000D01*
G01*
X65185000Y58468000D01*
G75*
G02*
X65115000Y58398000I-70000J0D01*
G01*
G37*
G04 #@! TD*
G04 #@! TO.C,R9*
G36*
G01*
X30637750Y47647071D02*
X29962250Y47257071D01*
G75*
G02*
X29866628Y47282693I-35000J60622D01*
G01*
X29586628Y47767667D01*
G75*
G02*
X29612250Y47863289I60622J35000D01*
G01*
X30287750Y48253289D01*
G75*
G02*
X30383372Y48227667I35000J-60622D01*
G01*
X30663372Y47742693D01*
G75*
G02*
X30637750Y47647071I-60622J-35000D01*
G01*
G37*
G36*
G01*
X29837750Y49032711D02*
X29162250Y48642711D01*
G75*
G02*
X29066628Y48668333I-35000J60622D01*
G01*
X28786628Y49153307D01*
G75*
G02*
X28812250Y49248929I60622J35000D01*
G01*
X29487750Y49638929D01*
G75*
G02*
X29583372Y49613307I35000J-60622D01*
G01*
X29863372Y49128333D01*
G75*
G02*
X29837750Y49032711I-60622J-35000D01*
G01*
G37*
G04 #@! TD*
G04 #@! TO.C,R18*
G36*
G01*
X17396586Y48364460D02*
X14928414Y46939460D01*
G75*
G02*
X14586908Y47030966I-125000J216506D01*
G01*
X14224408Y47658834D01*
G75*
G02*
X14315914Y48000340I216506J125000D01*
G01*
X16784086Y49425340D01*
G75*
G02*
X17125592Y49333834I125000J-216506D01*
G01*
X17488092Y48705966D01*
G75*
G02*
X17396586Y48364460I-216506J-125000D01*
G01*
G37*
G36*
G01*
X14434086Y53495660D02*
X11965914Y52070660D01*
G75*
G02*
X11624408Y52162166I-125000J216506D01*
G01*
X11261908Y52790034D01*
G75*
G02*
X11353414Y53131540I216506J125000D01*
G01*
X13821586Y54556540D01*
G75*
G02*
X14163092Y54465034I125000J-216506D01*
G01*
X14525592Y53837166D01*
G75*
G02*
X14434086Y53495660I-216506J-125000D01*
G01*
G37*
G04 #@! TD*
G04 #@! TO.C,R29*
G36*
G01*
X65215000Y49098000D02*
X64435000Y49098000D01*
G75*
G02*
X64365000Y49168000I0J70000D01*
G01*
X64365000Y49728000D01*
G75*
G02*
X64435000Y49798000I70000J0D01*
G01*
X65215000Y49798000D01*
G75*
G02*
X65285000Y49728000I0J-70000D01*
G01*
X65285000Y49168000D01*
G75*
G02*
X65215000Y49098000I-70000J0D01*
G01*
G37*
G36*
G01*
X65215000Y50698000D02*
X64435000Y50698000D01*
G75*
G02*
X64365000Y50768000I0J70000D01*
G01*
X64365000Y51328000D01*
G75*
G02*
X64435000Y51398000I70000J0D01*
G01*
X65215000Y51398000D01*
G75*
G02*
X65285000Y51328000I0J-70000D01*
G01*
X65285000Y50768000D01*
G75*
G02*
X65215000Y50698000I-70000J0D01*
G01*
G37*
G04 #@! TD*
G04 #@! TO.C,D3*
G36*
G01*
X54425000Y47583000D02*
X54425000Y46563000D01*
G75*
G02*
X54335000Y46473000I-90000J0D01*
G01*
X53615000Y46473000D01*
G75*
G02*
X53525000Y46563000I0J90000D01*
G01*
X53525000Y47583000D01*
G75*
G02*
X53615000Y47673000I90000J0D01*
G01*
X54335000Y47673000D01*
G75*
G02*
X54425000Y47583000I0J-90000D01*
G01*
G37*
G36*
G01*
X51125000Y47583000D02*
X51125000Y46563000D01*
G75*
G02*
X51035000Y46473000I-90000J0D01*
G01*
X50315000Y46473000D01*
G75*
G02*
X50225000Y46563000I0J90000D01*
G01*
X50225000Y47583000D01*
G75*
G02*
X50315000Y47673000I90000J0D01*
G01*
X51035000Y47673000D01*
G75*
G02*
X51125000Y47583000I0J-90000D01*
G01*
G37*
G04 #@! TD*
G04 #@! TO.C,D4*
G36*
G01*
X44620000Y43858000D02*
X44620000Y42838000D01*
G75*
G02*
X44530000Y42748000I-90000J0D01*
G01*
X43810000Y42748000D01*
G75*
G02*
X43720000Y42838000I0J90000D01*
G01*
X43720000Y43858000D01*
G75*
G02*
X43810000Y43948000I90000J0D01*
G01*
X44530000Y43948000D01*
G75*
G02*
X44620000Y43858000I0J-90000D01*
G01*
G37*
G36*
G01*
X41320000Y43858000D02*
X41320000Y42838000D01*
G75*
G02*
X41230000Y42748000I-90000J0D01*
G01*
X40510000Y42748000D01*
G75*
G02*
X40420000Y42838000I0J90000D01*
G01*
X40420000Y43858000D01*
G75*
G02*
X40510000Y43948000I90000J0D01*
G01*
X41230000Y43948000D01*
G75*
G02*
X41320000Y43858000I0J-90000D01*
G01*
G37*
G04 #@! TD*
G04 #@! TO.C,R10*
G36*
G01*
X5187750Y43247071D02*
X4512250Y42857071D01*
G75*
G02*
X4416628Y42882693I-35000J60622D01*
G01*
X4136628Y43367667D01*
G75*
G02*
X4162250Y43463289I60622J35000D01*
G01*
X4837750Y43853289D01*
G75*
G02*
X4933372Y43827667I35000J-60622D01*
G01*
X5213372Y43342693D01*
G75*
G02*
X5187750Y43247071I-60622J-35000D01*
G01*
G37*
G36*
G01*
X4387750Y44632711D02*
X3712250Y44242711D01*
G75*
G02*
X3616628Y44268333I-35000J60622D01*
G01*
X3336628Y44753307D01*
G75*
G02*
X3362250Y44848929I60622J35000D01*
G01*
X4037750Y45238929D01*
G75*
G02*
X4133372Y45213307I35000J-60622D01*
G01*
X4413372Y44728333D01*
G75*
G02*
X4387750Y44632711I-60622J-35000D01*
G01*
G37*
G04 #@! TD*
G04 #@! TO.C,R13*
G36*
G01*
X9138397Y46727553D02*
X6670225Y45302553D01*
G75*
G02*
X6328719Y45394059I-125000J216506D01*
G01*
X5966219Y46021927D01*
G75*
G02*
X6057725Y46363433I216506J125000D01*
G01*
X8525897Y47788433D01*
G75*
G02*
X8867403Y47696927I125000J-216506D01*
G01*
X9229903Y47069059D01*
G75*
G02*
X9138397Y46727553I-216506J-125000D01*
G01*
G37*
G36*
G01*
X6175897Y51858753D02*
X3707725Y50433753D01*
G75*
G02*
X3366219Y50525259I-125000J216506D01*
G01*
X3003719Y51153127D01*
G75*
G02*
X3095225Y51494633I216506J125000D01*
G01*
X5563397Y52919633D01*
G75*
G02*
X5904903Y52828127I125000J-216506D01*
G01*
X6267403Y52200259D01*
G75*
G02*
X6175897Y51858753I-216506J-125000D01*
G01*
G37*
G04 #@! TD*
G04 #@! TO.C,R11*
G36*
G01*
X21737750Y46247071D02*
X21062250Y45857071D01*
G75*
G02*
X20966628Y45882693I-35000J60622D01*
G01*
X20686628Y46367667D01*
G75*
G02*
X20712250Y46463289I60622J35000D01*
G01*
X21387750Y46853289D01*
G75*
G02*
X21483372Y46827667I35000J-60622D01*
G01*
X21763372Y46342693D01*
G75*
G02*
X21737750Y46247071I-60622J-35000D01*
G01*
G37*
G36*
G01*
X20937750Y47632711D02*
X20262250Y47242711D01*
G75*
G02*
X20166628Y47268333I-35000J60622D01*
G01*
X19886628Y47753307D01*
G75*
G02*
X19912250Y47848929I60622J35000D01*
G01*
X20587750Y48238929D01*
G75*
G02*
X20683372Y48213307I35000J-60622D01*
G01*
X20963372Y47728333D01*
G75*
G02*
X20937750Y47632711I-60622J-35000D01*
G01*
G37*
G04 #@! TD*
M02*
