G04 #@! TF.GenerationSoftware,KiCad,Pcbnew,7.0.10-7.0.10~ubuntu22.04.1*
G04 #@! TF.CreationDate,2023-12-31T17:41:37+00:00*
G04 #@! TF.ProjectId,uaeficopiedtovfr,75616566-6963-46f7-9069-6564746f7666,rev?*
G04 #@! TF.SameCoordinates,Original*
G04 #@! TF.FileFunction,Soldermask,Top*
G04 #@! TF.FilePolarity,Negative*
%FSLAX46Y46*%
G04 Gerber Fmt 4.6, Leading zero omitted, Abs format (unit mm)*
G04 Created by KiCad (PCBNEW 7.0.10-7.0.10~ubuntu22.04.1) date 2023-12-31 17:41:37*
%MOMM*%
%LPD*%
G01*
G04 APERTURE LIST*
%ADD10C,0.120000*%
%ADD11C,1.524000*%
%ADD12R,2.000000X1.500000*%
%ADD13R,2.000000X3.800000*%
%ADD14C,5.600000*%
%ADD15C,0.600000*%
%ADD16C,0.599999*%
%ADD17C,1.500000*%
%ADD18C,2.850000*%
%ADD19R,2.625000X2.625000*%
%ADD20C,2.625000*%
%ADD21C,1.700000*%
%ADD22C,0.650000*%
%ADD23R,0.300000X1.150000*%
%ADD24O,1.000000X2.100000*%
%ADD25O,1.000000X1.600000*%
%ADD26R,1.300000X1.000000*%
G04 APERTURE END LIST*
G04 #@! TO.C,U2*
D10*
X153437500Y48826000D02*
X140437500Y48826000D01*
X140437500Y55826000D01*
X153437500Y55826000D01*
X153437500Y48826000D01*
G36*
X153437500Y48826000D02*
G01*
X140437500Y48826000D01*
X140437500Y55826000D01*
X153437500Y55826000D01*
X153437500Y48826000D01*
G37*
G04 #@! TD*
D11*
G04 #@! TO.C,R4*
X117830000Y18926000D03*
G36*
G01*
X117375001Y19551000D02*
X117375001Y18301000D01*
G75*
G02*
X117275001Y18201000I-100000J0D01*
G01*
X116475001Y18201000D01*
G75*
G02*
X116375001Y18301000I0J100000D01*
G01*
X116375001Y19551000D01*
G75*
G02*
X116475001Y19651000I100000J0D01*
G01*
X117275001Y19651000D01*
G75*
G02*
X117375001Y19551000I0J-100000D01*
G01*
G37*
G36*
G01*
X115474979Y19551000D02*
X115474979Y18301000D01*
G75*
G02*
X115374979Y18201000I-100000J0D01*
G01*
X114574979Y18201000D01*
G75*
G02*
X114474979Y18301000I0J100000D01*
G01*
X114474979Y19551000D01*
G75*
G02*
X114574979Y19651000I100000J0D01*
G01*
X115374979Y19651000D01*
G75*
G02*
X115474979Y19551000I0J-100000D01*
G01*
G37*
X114020000Y18926000D03*
G04 #@! TD*
G04 #@! TO.C,R1*
G36*
G01*
X142285000Y59976000D02*
X143065000Y59976000D01*
G75*
G02*
X143135000Y59906000I0J-70000D01*
G01*
X143135000Y59346000D01*
G75*
G02*
X143065000Y59276000I-70000J0D01*
G01*
X142285000Y59276000D01*
G75*
G02*
X142215000Y59346000I0J70000D01*
G01*
X142215000Y59906000D01*
G75*
G02*
X142285000Y59976000I70000J0D01*
G01*
G37*
G36*
G01*
X142285000Y58376000D02*
X143065000Y58376000D01*
G75*
G02*
X143135000Y58306000I0J-70000D01*
G01*
X143135000Y57746000D01*
G75*
G02*
X143065000Y57676000I-70000J0D01*
G01*
X142285000Y57676000D01*
G75*
G02*
X142215000Y57746000I0J70000D01*
G01*
X142215000Y58306000D01*
G75*
G02*
X142285000Y58376000I70000J0D01*
G01*
G37*
G04 #@! TD*
D12*
G04 #@! TO.C,Q14*
X56675000Y58851000D03*
X56675000Y56551000D03*
X56675000Y54251000D03*
D13*
X62975000Y56551000D03*
G04 #@! TD*
D14*
G04 #@! TO.C,H2*
X41075000Y23201000D03*
G04 #@! TD*
G04 #@! TO.C,Q8*
G36*
X48442339Y50895005D02*
G01*
X49741377Y51645005D01*
X50741377Y49912955D01*
X49442339Y49162955D01*
X48442339Y50895005D01*
G37*
G36*
X46450481Y49745005D02*
G01*
X47749519Y50495005D01*
X48749519Y48762955D01*
X47450481Y48012955D01*
X46450481Y49745005D01*
G37*
G36*
X44458623Y48595005D02*
G01*
X45757661Y49345005D01*
X46757661Y47612955D01*
X45458623Y46862955D01*
X44458623Y48595005D01*
G37*
G36*
X48604552Y43714045D02*
G01*
X51895448Y45614045D01*
X52895448Y43881995D01*
X49604552Y41981995D01*
X48604552Y43714045D01*
G37*
G04 #@! TD*
G04 #@! TO.C,R8*
G36*
G01*
X127825000Y14141000D02*
X127825000Y13361000D01*
G75*
G02*
X127755000Y13291000I-70000J0D01*
G01*
X127195000Y13291000D01*
G75*
G02*
X127125000Y13361000I0J70000D01*
G01*
X127125000Y14141000D01*
G75*
G02*
X127195000Y14211000I70000J0D01*
G01*
X127755000Y14211000D01*
G75*
G02*
X127825000Y14141000I0J-70000D01*
G01*
G37*
G36*
G01*
X126225000Y14141000D02*
X126225000Y13361000D01*
G75*
G02*
X126155000Y13291000I-70000J0D01*
G01*
X125595000Y13291000D01*
G75*
G02*
X125525000Y13361000I0J70000D01*
G01*
X125525000Y14141000D01*
G75*
G02*
X125595000Y14211000I70000J0D01*
G01*
X126155000Y14211000D01*
G75*
G02*
X126225000Y14141000I0J-70000D01*
G01*
G37*
G04 #@! TD*
G04 #@! TO.C,Q10*
G36*
X53563478Y32120491D02*
G01*
X52502818Y31059831D01*
X51088604Y32474045D01*
X52149264Y33534705D01*
X53563478Y32120491D01*
G37*
G36*
X55189823Y33746837D02*
G01*
X54129163Y32686177D01*
X52714949Y34100391D01*
X53775609Y35161051D01*
X55189823Y33746837D01*
G37*
G36*
X56816169Y35373182D02*
G01*
X55755509Y34312522D01*
X54341295Y35726736D01*
X55401955Y36787396D01*
X56816169Y35373182D01*
G37*
G36*
X51548224Y39014782D02*
G01*
X48861218Y36327776D01*
X47447004Y37741990D01*
X50134010Y40428996D01*
X51548224Y39014782D01*
G37*
G04 #@! TD*
G04 #@! TO.C,R32*
G36*
G01*
X65285000Y45751000D02*
X66065000Y45751000D01*
G75*
G02*
X66135000Y45681000I0J-70000D01*
G01*
X66135000Y45121000D01*
G75*
G02*
X66065000Y45051000I-70000J0D01*
G01*
X65285000Y45051000D01*
G75*
G02*
X65215000Y45121000I0J70000D01*
G01*
X65215000Y45681000D01*
G75*
G02*
X65285000Y45751000I70000J0D01*
G01*
G37*
G36*
G01*
X65285000Y44151000D02*
X66065000Y44151000D01*
G75*
G02*
X66135000Y44081000I0J-70000D01*
G01*
X66135000Y43521000D01*
G75*
G02*
X66065000Y43451000I-70000J0D01*
G01*
X65285000Y43451000D01*
G75*
G02*
X65215000Y43521000I0J70000D01*
G01*
X65215000Y44081000D01*
G75*
G02*
X65285000Y44151000I70000J0D01*
G01*
G37*
G04 #@! TD*
D15*
G04 #@! TO.C,M2*
X156300002Y30201000D03*
X157250002Y30201000D03*
X158200000Y30201000D03*
X157200002Y21501000D03*
X156300002Y21501000D03*
G04 #@! TD*
G04 #@! TO.C,M3*
X71150000Y63401000D03*
X71150000Y64601000D03*
X71150000Y62201000D03*
X71150000Y61001000D03*
X85575000Y67461000D03*
X85575000Y68461000D03*
G04 #@! TD*
G04 #@! TO.C,R2*
G36*
G01*
X112015000Y59276000D02*
X111235000Y59276000D01*
G75*
G02*
X111165000Y59346000I0J70000D01*
G01*
X111165000Y59906000D01*
G75*
G02*
X111235000Y59976000I70000J0D01*
G01*
X112015000Y59976000D01*
G75*
G02*
X112085000Y59906000I0J-70000D01*
G01*
X112085000Y59346000D01*
G75*
G02*
X112015000Y59276000I-70000J0D01*
G01*
G37*
G36*
G01*
X112015000Y60876000D02*
X111235000Y60876000D01*
G75*
G02*
X111165000Y60946000I0J70000D01*
G01*
X111165000Y61506000D01*
G75*
G02*
X111235000Y61576000I70000J0D01*
G01*
X112015000Y61576000D01*
G75*
G02*
X112085000Y61506000I0J-70000D01*
G01*
X112085000Y60946000D01*
G75*
G02*
X112015000Y60876000I-70000J0D01*
G01*
G37*
G04 #@! TD*
G04 #@! TO.C,R31*
G36*
G01*
X66215000Y25351000D02*
X65435000Y25351000D01*
G75*
G02*
X65365000Y25421000I0J70000D01*
G01*
X65365000Y25981000D01*
G75*
G02*
X65435000Y26051000I70000J0D01*
G01*
X66215000Y26051000D01*
G75*
G02*
X66285000Y25981000I0J-70000D01*
G01*
X66285000Y25421000D01*
G75*
G02*
X66215000Y25351000I-70000J0D01*
G01*
G37*
G36*
G01*
X66215000Y26951000D02*
X65435000Y26951000D01*
G75*
G02*
X65365000Y27021000I0J70000D01*
G01*
X65365000Y27581000D01*
G75*
G02*
X65435000Y27651000I70000J0D01*
G01*
X66215000Y27651000D01*
G75*
G02*
X66285000Y27581000I0J-70000D01*
G01*
X66285000Y27021000D01*
G75*
G02*
X66215000Y26951000I-70000J0D01*
G01*
G37*
G04 #@! TD*
G04 #@! TO.C,R23*
G36*
G01*
X40835000Y52101000D02*
X41615000Y52101000D01*
G75*
G02*
X41685000Y52031000I0J-70000D01*
G01*
X41685000Y51471000D01*
G75*
G02*
X41615000Y51401000I-70000J0D01*
G01*
X40835000Y51401000D01*
G75*
G02*
X40765000Y51471000I0J70000D01*
G01*
X40765000Y52031000D01*
G75*
G02*
X40835000Y52101000I70000J0D01*
G01*
G37*
G36*
G01*
X40835000Y50501000D02*
X41615000Y50501000D01*
G75*
G02*
X41685000Y50431000I0J-70000D01*
G01*
X41685000Y49871000D01*
G75*
G02*
X41615000Y49801000I-70000J0D01*
G01*
X40835000Y49801000D01*
G75*
G02*
X40765000Y49871000I0J70000D01*
G01*
X40765000Y50431000D01*
G75*
G02*
X40835000Y50501000I70000J0D01*
G01*
G37*
G04 #@! TD*
D16*
G04 #@! TO.C,M8*
X138649992Y17426010D03*
X140225006Y12521001D03*
X152929024Y12530064D03*
X144449996Y11851000D03*
X145625000Y11851000D03*
X147799994Y11851000D03*
X150024996Y11851000D03*
G04 #@! TD*
D12*
G04 #@! TO.C,Q16*
X61925000Y42101000D03*
X61925000Y39801000D03*
X61925000Y37501000D03*
D13*
X68225000Y39801000D03*
G04 #@! TD*
G04 #@! TO.C,Q9*
G36*
X40692339Y48645005D02*
G01*
X41991377Y49395005D01*
X42991377Y47662955D01*
X41692339Y46912955D01*
X40692339Y48645005D01*
G37*
G36*
X38700481Y47495005D02*
G01*
X39999519Y48245005D01*
X40999519Y46512955D01*
X39700481Y45762955D01*
X38700481Y47495005D01*
G37*
G36*
X36708623Y46345005D02*
G01*
X38007661Y47095005D01*
X39007661Y45362955D01*
X37708623Y44612955D01*
X36708623Y46345005D01*
G37*
G36*
X40854552Y41464045D02*
G01*
X44145448Y43364045D01*
X45145448Y41631995D01*
X41854552Y39731995D01*
X40854552Y41464045D01*
G37*
G04 #@! TD*
D17*
G04 #@! TO.C,M1*
X133749999Y23451005D03*
X127350002Y23451005D03*
X125449999Y23451005D03*
X121149999Y23451005D03*
D15*
X118750002Y23001006D03*
X117750001Y23001006D03*
D17*
X114899999Y23451005D03*
X134200001Y38951002D03*
X132350002Y38951002D03*
X127399999Y38951002D03*
X115350001Y38951002D03*
G04 #@! TD*
D12*
G04 #@! TO.C,Q13*
X56375000Y51051000D03*
X56375000Y48751000D03*
X56375000Y46451000D03*
D13*
X62675000Y48751000D03*
G04 #@! TD*
G04 #@! TO.C,R26*
G36*
G01*
X36165000Y72526000D02*
X35385000Y72526000D01*
G75*
G02*
X35315000Y72596000I0J70000D01*
G01*
X35315000Y73156000D01*
G75*
G02*
X35385000Y73226000I70000J0D01*
G01*
X36165000Y73226000D01*
G75*
G02*
X36235000Y73156000I0J-70000D01*
G01*
X36235000Y72596000D01*
G75*
G02*
X36165000Y72526000I-70000J0D01*
G01*
G37*
G36*
G01*
X36165000Y74126000D02*
X35385000Y74126000D01*
G75*
G02*
X35315000Y74196000I0J70000D01*
G01*
X35315000Y74756000D01*
G75*
G02*
X35385000Y74826000I70000J0D01*
G01*
X36165000Y74826000D01*
G75*
G02*
X36235000Y74756000I0J-70000D01*
G01*
X36235000Y74196000D01*
G75*
G02*
X36165000Y74126000I-70000J0D01*
G01*
G37*
G04 #@! TD*
G04 #@! TO.C,C1*
G36*
G01*
X139015000Y29735999D02*
X138335000Y29735999D01*
G75*
G02*
X138250000Y29820999I0J85000D01*
G01*
X138250000Y30500999D01*
G75*
G02*
X138335000Y30585999I85000J0D01*
G01*
X139015000Y30585999D01*
G75*
G02*
X139100000Y30500999I0J-85000D01*
G01*
X139100000Y29820999D01*
G75*
G02*
X139015000Y29735999I-85000J0D01*
G01*
G37*
G36*
G01*
X139015000Y31316001D02*
X138335000Y31316001D01*
G75*
G02*
X138250000Y31401001I0J85000D01*
G01*
X138250000Y32081001D01*
G75*
G02*
X138335000Y32166001I85000J0D01*
G01*
X139015000Y32166001D01*
G75*
G02*
X139100000Y32081001I0J-85000D01*
G01*
X139100000Y31401001D01*
G75*
G02*
X139015000Y31316001I-85000J0D01*
G01*
G37*
G04 #@! TD*
G04 #@! TO.C,Q7*
G36*
X46942339Y60870005D02*
G01*
X48241377Y61620005D01*
X49241377Y59887955D01*
X47942339Y59137955D01*
X46942339Y60870005D01*
G37*
G36*
X44950481Y59720005D02*
G01*
X46249519Y60470005D01*
X47249519Y58737955D01*
X45950481Y57987955D01*
X44950481Y59720005D01*
G37*
G36*
X42958623Y58570005D02*
G01*
X44257661Y59320005D01*
X45257661Y57587955D01*
X43958623Y56837955D01*
X42958623Y58570005D01*
G37*
G36*
X47104552Y53689045D02*
G01*
X50395448Y55589045D01*
X51395448Y53856995D01*
X48104552Y51956995D01*
X47104552Y53689045D01*
G37*
G04 #@! TD*
D18*
G04 #@! TO.C,J4*
X59425000Y6051000D03*
X100425000Y6051000D03*
D19*
X65925000Y10551000D03*
D20*
X69925000Y10551000D03*
X73925000Y10551000D03*
X77925000Y10551000D03*
X81925000Y10551000D03*
X85925000Y10551000D03*
X89925000Y10551000D03*
X93925000Y10551000D03*
X67925000Y6551000D03*
X71925000Y6551000D03*
X75925000Y6551000D03*
X79925000Y6551000D03*
X83925000Y6551000D03*
X87925000Y6551000D03*
X91925000Y6551000D03*
X65925000Y2551000D03*
X69925000Y2551000D03*
X73925000Y2551000D03*
X77925000Y2551000D03*
X81925000Y2551000D03*
X85925000Y2551000D03*
X89925000Y2551000D03*
X93925000Y2551000D03*
G04 #@! TD*
G04 #@! TO.C,U1*
G36*
G01*
X64350000Y63026001D02*
X64350000Y64625999D01*
G75*
G02*
X64600001Y64876000I250001J0D01*
G01*
X66199999Y64876000D01*
G75*
G02*
X66450000Y64625999I0J-250001D01*
G01*
X66450000Y63026001D01*
G75*
G02*
X66199999Y62776000I-250001J0D01*
G01*
X64600001Y62776000D01*
G75*
G02*
X64350000Y63026001I0J250001D01*
G01*
G37*
G36*
G01*
X58650000Y63026001D02*
X58650000Y64625999D01*
G75*
G02*
X58900001Y64876000I250001J0D01*
G01*
X60499999Y64876000D01*
G75*
G02*
X60750000Y64625999I0J-250001D01*
G01*
X60750000Y63026001D01*
G75*
G02*
X60499999Y62776000I-250001J0D01*
G01*
X58900001Y62776000D01*
G75*
G02*
X58650000Y63026001I0J250001D01*
G01*
G37*
G36*
G01*
X52950000Y63026001D02*
X52950000Y64625999D01*
G75*
G02*
X53200001Y64876000I250001J0D01*
G01*
X54799999Y64876000D01*
G75*
G02*
X55050000Y64625999I0J-250001D01*
G01*
X55050000Y63026001D01*
G75*
G02*
X54799999Y62776000I-250001J0D01*
G01*
X53200001Y62776000D01*
G75*
G02*
X52950000Y63026001I0J250001D01*
G01*
G37*
G36*
G01*
X47250000Y63026001D02*
X47250000Y64625999D01*
G75*
G02*
X47500001Y64876000I250001J0D01*
G01*
X49099999Y64876000D01*
G75*
G02*
X49350000Y64625999I0J-250001D01*
G01*
X49350000Y63026001D01*
G75*
G02*
X49099999Y62776000I-250001J0D01*
G01*
X47500001Y62776000D01*
G75*
G02*
X47250000Y63026001I0J250001D01*
G01*
G37*
G36*
G01*
X41550000Y63026001D02*
X41550000Y64625999D01*
G75*
G02*
X41800001Y64876000I250001J0D01*
G01*
X43399999Y64876000D01*
G75*
G02*
X43650000Y64625999I0J-250001D01*
G01*
X43650000Y63026001D01*
G75*
G02*
X43399999Y62776000I-250001J0D01*
G01*
X41800001Y62776000D01*
G75*
G02*
X41550000Y63026001I0J250001D01*
G01*
G37*
G36*
G01*
X35850000Y63026001D02*
X35850000Y64625999D01*
G75*
G02*
X36100001Y64876000I250001J0D01*
G01*
X37699999Y64876000D01*
G75*
G02*
X37950000Y64625999I0J-250001D01*
G01*
X37950000Y63026001D01*
G75*
G02*
X37699999Y62776000I-250001J0D01*
G01*
X36100001Y62776000D01*
G75*
G02*
X35850000Y63026001I0J250001D01*
G01*
G37*
G36*
G01*
X30150000Y63026001D02*
X30150000Y64625999D01*
G75*
G02*
X30400001Y64876000I250001J0D01*
G01*
X31999999Y64876000D01*
G75*
G02*
X32250000Y64625999I0J-250001D01*
G01*
X32250000Y63026001D01*
G75*
G02*
X31999999Y62776000I-250001J0D01*
G01*
X30400001Y62776000D01*
G75*
G02*
X30150000Y63026001I0J250001D01*
G01*
G37*
G36*
G01*
X24450000Y63026001D02*
X24450000Y64625999D01*
G75*
G02*
X24700001Y64876000I250001J0D01*
G01*
X26299999Y64876000D01*
G75*
G02*
X26550000Y64625999I0J-250001D01*
G01*
X26550000Y63026001D01*
G75*
G02*
X26299999Y62776000I-250001J0D01*
G01*
X24700001Y62776000D01*
G75*
G02*
X24450000Y63026001I0J250001D01*
G01*
G37*
G36*
G01*
X18750000Y63026001D02*
X18750000Y64625999D01*
G75*
G02*
X19000001Y64876000I250001J0D01*
G01*
X20599999Y64876000D01*
G75*
G02*
X20850000Y64625999I0J-250001D01*
G01*
X20850000Y63026001D01*
G75*
G02*
X20599999Y62776000I-250001J0D01*
G01*
X19000001Y62776000D01*
G75*
G02*
X18750000Y63026001I0J250001D01*
G01*
G37*
G36*
G01*
X13050000Y63026001D02*
X13050000Y64625999D01*
G75*
G02*
X13300001Y64876000I250001J0D01*
G01*
X14899999Y64876000D01*
G75*
G02*
X15150000Y64625999I0J-250001D01*
G01*
X15150000Y63026001D01*
G75*
G02*
X14899999Y62776000I-250001J0D01*
G01*
X13300001Y62776000D01*
G75*
G02*
X13050000Y63026001I0J250001D01*
G01*
G37*
G36*
G01*
X7350000Y63026001D02*
X7350000Y64625999D01*
G75*
G02*
X7600001Y64876000I250001J0D01*
G01*
X9199999Y64876000D01*
G75*
G02*
X9450000Y64625999I0J-250001D01*
G01*
X9450000Y63026001D01*
G75*
G02*
X9199999Y62776000I-250001J0D01*
G01*
X7600001Y62776000D01*
G75*
G02*
X7350000Y63026001I0J250001D01*
G01*
G37*
G36*
G01*
X64350000Y67126001D02*
X64350000Y68725999D01*
G75*
G02*
X64600001Y68976000I250001J0D01*
G01*
X66199999Y68976000D01*
G75*
G02*
X66450000Y68725999I0J-250001D01*
G01*
X66450000Y67126001D01*
G75*
G02*
X66199999Y66876000I-250001J0D01*
G01*
X64600001Y66876000D01*
G75*
G02*
X64350000Y67126001I0J250001D01*
G01*
G37*
G36*
G01*
X58650000Y67126001D02*
X58650000Y68725999D01*
G75*
G02*
X58900001Y68976000I250001J0D01*
G01*
X60499999Y68976000D01*
G75*
G02*
X60750000Y68725999I0J-250001D01*
G01*
X60750000Y67126001D01*
G75*
G02*
X60499999Y66876000I-250001J0D01*
G01*
X58900001Y66876000D01*
G75*
G02*
X58650000Y67126001I0J250001D01*
G01*
G37*
G36*
G01*
X52950000Y67126001D02*
X52950000Y68725999D01*
G75*
G02*
X53200001Y68976000I250001J0D01*
G01*
X54799999Y68976000D01*
G75*
G02*
X55050000Y68725999I0J-250001D01*
G01*
X55050000Y67126001D01*
G75*
G02*
X54799999Y66876000I-250001J0D01*
G01*
X53200001Y66876000D01*
G75*
G02*
X52950000Y67126001I0J250001D01*
G01*
G37*
G36*
G01*
X47250000Y67126001D02*
X47250000Y68725999D01*
G75*
G02*
X47500001Y68976000I250001J0D01*
G01*
X49099999Y68976000D01*
G75*
G02*
X49350000Y68725999I0J-250001D01*
G01*
X49350000Y67126001D01*
G75*
G02*
X49099999Y66876000I-250001J0D01*
G01*
X47500001Y66876000D01*
G75*
G02*
X47250000Y67126001I0J250001D01*
G01*
G37*
G36*
G01*
X41550000Y67126001D02*
X41550000Y68725999D01*
G75*
G02*
X41800001Y68976000I250001J0D01*
G01*
X43399999Y68976000D01*
G75*
G02*
X43650000Y68725999I0J-250001D01*
G01*
X43650000Y67126001D01*
G75*
G02*
X43399999Y66876000I-250001J0D01*
G01*
X41800001Y66876000D01*
G75*
G02*
X41550000Y67126001I0J250001D01*
G01*
G37*
G36*
G01*
X35850000Y67126001D02*
X35850000Y68725999D01*
G75*
G02*
X36100001Y68976000I250001J0D01*
G01*
X37699999Y68976000D01*
G75*
G02*
X37950000Y68725999I0J-250001D01*
G01*
X37950000Y67126001D01*
G75*
G02*
X37699999Y66876000I-250001J0D01*
G01*
X36100001Y66876000D01*
G75*
G02*
X35850000Y67126001I0J250001D01*
G01*
G37*
G36*
G01*
X30150000Y67126001D02*
X30150000Y68725999D01*
G75*
G02*
X30400001Y68976000I250001J0D01*
G01*
X31999999Y68976000D01*
G75*
G02*
X32250000Y68725999I0J-250001D01*
G01*
X32250000Y67126001D01*
G75*
G02*
X31999999Y66876000I-250001J0D01*
G01*
X30400001Y66876000D01*
G75*
G02*
X30150000Y67126001I0J250001D01*
G01*
G37*
G36*
G01*
X24450000Y67126001D02*
X24450000Y68725999D01*
G75*
G02*
X24700001Y68976000I250001J0D01*
G01*
X26299999Y68976000D01*
G75*
G02*
X26550000Y68725999I0J-250001D01*
G01*
X26550000Y67126001D01*
G75*
G02*
X26299999Y66876000I-250001J0D01*
G01*
X24700001Y66876000D01*
G75*
G02*
X24450000Y67126001I0J250001D01*
G01*
G37*
G36*
G01*
X18750000Y67126001D02*
X18750000Y68725999D01*
G75*
G02*
X19000001Y68976000I250001J0D01*
G01*
X20599999Y68976000D01*
G75*
G02*
X20850000Y68725999I0J-250001D01*
G01*
X20850000Y67126001D01*
G75*
G02*
X20599999Y66876000I-250001J0D01*
G01*
X19000001Y66876000D01*
G75*
G02*
X18750000Y67126001I0J250001D01*
G01*
G37*
G36*
G01*
X13050000Y67126001D02*
X13050000Y68725999D01*
G75*
G02*
X13300001Y68976000I250001J0D01*
G01*
X14899999Y68976000D01*
G75*
G02*
X15150000Y68725999I0J-250001D01*
G01*
X15150000Y67126001D01*
G75*
G02*
X14899999Y66876000I-250001J0D01*
G01*
X13300001Y66876000D01*
G75*
G02*
X13050000Y67126001I0J250001D01*
G01*
G37*
G36*
G01*
X7350000Y67126001D02*
X7350000Y68725999D01*
G75*
G02*
X7600001Y68976000I250001J0D01*
G01*
X9199999Y68976000D01*
G75*
G02*
X9450000Y68725999I0J-250001D01*
G01*
X9450000Y67126001D01*
G75*
G02*
X9199999Y66876000I-250001J0D01*
G01*
X7600001Y66876000D01*
G75*
G02*
X7350000Y67126001I0J250001D01*
G01*
G37*
G36*
G01*
X150350000Y62976001D02*
X150350000Y64575999D01*
G75*
G02*
X150600001Y64826000I250001J0D01*
G01*
X152199999Y64826000D01*
G75*
G02*
X152450000Y64575999I0J-250001D01*
G01*
X152450000Y62976001D01*
G75*
G02*
X152199999Y62726000I-250001J0D01*
G01*
X150600001Y62726000D01*
G75*
G02*
X150350000Y62976001I0J250001D01*
G01*
G37*
G36*
G01*
X144650000Y62976001D02*
X144650000Y64575999D01*
G75*
G02*
X144900001Y64826000I250001J0D01*
G01*
X146499999Y64826000D01*
G75*
G02*
X146750000Y64575999I0J-250001D01*
G01*
X146750000Y62976001D01*
G75*
G02*
X146499999Y62726000I-250001J0D01*
G01*
X144900001Y62726000D01*
G75*
G02*
X144650000Y62976001I0J250001D01*
G01*
G37*
G36*
G01*
X138950000Y62976001D02*
X138950000Y64575999D01*
G75*
G02*
X139200001Y64826000I250001J0D01*
G01*
X140799999Y64826000D01*
G75*
G02*
X141050000Y64575999I0J-250001D01*
G01*
X141050000Y62976001D01*
G75*
G02*
X140799999Y62726000I-250001J0D01*
G01*
X139200001Y62726000D01*
G75*
G02*
X138950000Y62976001I0J250001D01*
G01*
G37*
G36*
G01*
X133250000Y62976001D02*
X133250000Y64575999D01*
G75*
G02*
X133500001Y64826000I250001J0D01*
G01*
X135099999Y64826000D01*
G75*
G02*
X135350000Y64575999I0J-250001D01*
G01*
X135350000Y62976001D01*
G75*
G02*
X135099999Y62726000I-250001J0D01*
G01*
X133500001Y62726000D01*
G75*
G02*
X133250000Y62976001I0J250001D01*
G01*
G37*
G36*
G01*
X127550000Y62976001D02*
X127550000Y64575999D01*
G75*
G02*
X127800001Y64826000I250001J0D01*
G01*
X129399999Y64826000D01*
G75*
G02*
X129650000Y64575999I0J-250001D01*
G01*
X129650000Y62976001D01*
G75*
G02*
X129399999Y62726000I-250001J0D01*
G01*
X127800001Y62726000D01*
G75*
G02*
X127550000Y62976001I0J250001D01*
G01*
G37*
G36*
G01*
X121850000Y62976001D02*
X121850000Y64575999D01*
G75*
G02*
X122100001Y64826000I250001J0D01*
G01*
X123699999Y64826000D01*
G75*
G02*
X123950000Y64575999I0J-250001D01*
G01*
X123950000Y62976001D01*
G75*
G02*
X123699999Y62726000I-250001J0D01*
G01*
X122100001Y62726000D01*
G75*
G02*
X121850000Y62976001I0J250001D01*
G01*
G37*
G36*
G01*
X116150000Y62976001D02*
X116150000Y64575999D01*
G75*
G02*
X116400001Y64826000I250001J0D01*
G01*
X117999999Y64826000D01*
G75*
G02*
X118250000Y64575999I0J-250001D01*
G01*
X118250000Y62976001D01*
G75*
G02*
X117999999Y62726000I-250001J0D01*
G01*
X116400001Y62726000D01*
G75*
G02*
X116150000Y62976001I0J250001D01*
G01*
G37*
G36*
G01*
X110450000Y62976001D02*
X110450000Y64575999D01*
G75*
G02*
X110700001Y64826000I250001J0D01*
G01*
X112299999Y64826000D01*
G75*
G02*
X112550000Y64575999I0J-250001D01*
G01*
X112550000Y62976001D01*
G75*
G02*
X112299999Y62726000I-250001J0D01*
G01*
X110700001Y62726000D01*
G75*
G02*
X110450000Y62976001I0J250001D01*
G01*
G37*
G36*
G01*
X104750000Y62976001D02*
X104750000Y64575999D01*
G75*
G02*
X105000001Y64826000I250001J0D01*
G01*
X106599999Y64826000D01*
G75*
G02*
X106850000Y64575999I0J-250001D01*
G01*
X106850000Y62976001D01*
G75*
G02*
X106599999Y62726000I-250001J0D01*
G01*
X105000001Y62726000D01*
G75*
G02*
X104750000Y62976001I0J250001D01*
G01*
G37*
G36*
G01*
X99050000Y62976001D02*
X99050000Y64575999D01*
G75*
G02*
X99300001Y64826000I250001J0D01*
G01*
X100899999Y64826000D01*
G75*
G02*
X101150000Y64575999I0J-250001D01*
G01*
X101150000Y62976001D01*
G75*
G02*
X100899999Y62726000I-250001J0D01*
G01*
X99300001Y62726000D01*
G75*
G02*
X99050000Y62976001I0J250001D01*
G01*
G37*
G36*
G01*
X93350000Y62976001D02*
X93350000Y64575999D01*
G75*
G02*
X93600001Y64826000I250001J0D01*
G01*
X95199999Y64826000D01*
G75*
G02*
X95450000Y64575999I0J-250001D01*
G01*
X95450000Y62976001D01*
G75*
G02*
X95199999Y62726000I-250001J0D01*
G01*
X93600001Y62726000D01*
G75*
G02*
X93350000Y62976001I0J250001D01*
G01*
G37*
G36*
G01*
X150350000Y67076001D02*
X150350000Y68675999D01*
G75*
G02*
X150600001Y68926000I250001J0D01*
G01*
X152199999Y68926000D01*
G75*
G02*
X152450000Y68675999I0J-250001D01*
G01*
X152450000Y67076001D01*
G75*
G02*
X152199999Y66826000I-250001J0D01*
G01*
X150600001Y66826000D01*
G75*
G02*
X150350000Y67076001I0J250001D01*
G01*
G37*
G36*
G01*
X144650000Y67076001D02*
X144650000Y68675999D01*
G75*
G02*
X144900001Y68926000I250001J0D01*
G01*
X146499999Y68926000D01*
G75*
G02*
X146750000Y68675999I0J-250001D01*
G01*
X146750000Y67076001D01*
G75*
G02*
X146499999Y66826000I-250001J0D01*
G01*
X144900001Y66826000D01*
G75*
G02*
X144650000Y67076001I0J250001D01*
G01*
G37*
G36*
G01*
X138950000Y67076001D02*
X138950000Y68675999D01*
G75*
G02*
X139200001Y68926000I250001J0D01*
G01*
X140799999Y68926000D01*
G75*
G02*
X141050000Y68675999I0J-250001D01*
G01*
X141050000Y67076001D01*
G75*
G02*
X140799999Y66826000I-250001J0D01*
G01*
X139200001Y66826000D01*
G75*
G02*
X138950000Y67076001I0J250001D01*
G01*
G37*
G36*
G01*
X133250000Y67076001D02*
X133250000Y68675999D01*
G75*
G02*
X133500001Y68926000I250001J0D01*
G01*
X135099999Y68926000D01*
G75*
G02*
X135350000Y68675999I0J-250001D01*
G01*
X135350000Y67076001D01*
G75*
G02*
X135099999Y66826000I-250001J0D01*
G01*
X133500001Y66826000D01*
G75*
G02*
X133250000Y67076001I0J250001D01*
G01*
G37*
G36*
G01*
X127550000Y67076001D02*
X127550000Y68675999D01*
G75*
G02*
X127800001Y68926000I250001J0D01*
G01*
X129399999Y68926000D01*
G75*
G02*
X129650000Y68675999I0J-250001D01*
G01*
X129650000Y67076001D01*
G75*
G02*
X129399999Y66826000I-250001J0D01*
G01*
X127800001Y66826000D01*
G75*
G02*
X127550000Y67076001I0J250001D01*
G01*
G37*
G36*
G01*
X121850000Y67076001D02*
X121850000Y68675999D01*
G75*
G02*
X122100001Y68926000I250001J0D01*
G01*
X123699999Y68926000D01*
G75*
G02*
X123950000Y68675999I0J-250001D01*
G01*
X123950000Y67076001D01*
G75*
G02*
X123699999Y66826000I-250001J0D01*
G01*
X122100001Y66826000D01*
G75*
G02*
X121850000Y67076001I0J250001D01*
G01*
G37*
G36*
G01*
X116150000Y67076001D02*
X116150000Y68675999D01*
G75*
G02*
X116400001Y68926000I250001J0D01*
G01*
X117999999Y68926000D01*
G75*
G02*
X118250000Y68675999I0J-250001D01*
G01*
X118250000Y67076001D01*
G75*
G02*
X117999999Y66826000I-250001J0D01*
G01*
X116400001Y66826000D01*
G75*
G02*
X116150000Y67076001I0J250001D01*
G01*
G37*
G36*
G01*
X110450000Y67076001D02*
X110450000Y68675999D01*
G75*
G02*
X110700001Y68926000I250001J0D01*
G01*
X112299999Y68926000D01*
G75*
G02*
X112550000Y68675999I0J-250001D01*
G01*
X112550000Y67076001D01*
G75*
G02*
X112299999Y66826000I-250001J0D01*
G01*
X110700001Y66826000D01*
G75*
G02*
X110450000Y67076001I0J250001D01*
G01*
G37*
G36*
G01*
X104750000Y67076001D02*
X104750000Y68675999D01*
G75*
G02*
X105000001Y68926000I250001J0D01*
G01*
X106599999Y68926000D01*
G75*
G02*
X106850000Y68675999I0J-250001D01*
G01*
X106850000Y67076001D01*
G75*
G02*
X106599999Y66826000I-250001J0D01*
G01*
X105000001Y66826000D01*
G75*
G02*
X104750000Y67076001I0J250001D01*
G01*
G37*
G36*
G01*
X99050000Y67076001D02*
X99050000Y68675999D01*
G75*
G02*
X99300001Y68926000I250001J0D01*
G01*
X100899999Y68926000D01*
G75*
G02*
X101150000Y68675999I0J-250001D01*
G01*
X101150000Y67076001D01*
G75*
G02*
X100899999Y66826000I-250001J0D01*
G01*
X99300001Y66826000D01*
G75*
G02*
X99050000Y67076001I0J250001D01*
G01*
G37*
G36*
G01*
X93350000Y67076001D02*
X93350000Y68675999D01*
G75*
G02*
X93600001Y68926000I250001J0D01*
G01*
X95199999Y68926000D01*
G75*
G02*
X95450000Y68675999I0J-250001D01*
G01*
X95450000Y67076001D01*
G75*
G02*
X95199999Y66826000I-250001J0D01*
G01*
X93600001Y66826000D01*
G75*
G02*
X93350000Y67076001I0J250001D01*
G01*
G37*
G04 #@! TD*
G04 #@! TO.C,R24*
G36*
G01*
X53187600Y28662056D02*
X52636056Y29213600D01*
G75*
G02*
X52636056Y29312594I49497J49497D01*
G01*
X53032036Y29708574D01*
G75*
G02*
X53131030Y29708574I49497J-49497D01*
G01*
X53682574Y29157030D01*
G75*
G02*
X53682574Y29058036I-49497J-49497D01*
G01*
X53286594Y28662056D01*
G75*
G02*
X53187600Y28662056I-49497J49497D01*
G01*
G37*
G36*
G01*
X54318970Y29793426D02*
X53767426Y30344970D01*
G75*
G02*
X53767426Y30443964I49497J49497D01*
G01*
X54163406Y30839944D01*
G75*
G02*
X54262400Y30839944I49497J-49497D01*
G01*
X54813944Y30288400D01*
G75*
G02*
X54813944Y30189406I-49497J-49497D01*
G01*
X54417964Y29793426D01*
G75*
G02*
X54318970Y29793426I-49497J49497D01*
G01*
G37*
G04 #@! TD*
D15*
G04 #@! TO.C,M4*
X124200000Y52451000D03*
X124200000Y53651000D03*
X124200000Y51251000D03*
X124200000Y50051000D03*
X138625000Y56511000D03*
X138625000Y57511000D03*
G04 #@! TD*
D21*
G04 #@! TO.C,P3*
X134275000Y44726000D03*
G04 #@! TD*
D22*
G04 #@! TO.C,J9*
X121185000Y10606000D03*
X126965000Y10606000D03*
D23*
X120725000Y11671000D03*
X121525000Y11671000D03*
X122825000Y11671000D03*
X123825000Y11671000D03*
X124325000Y11671000D03*
X125325000Y11671000D03*
X126625000Y11671000D03*
X127425000Y11671000D03*
X127125000Y11671000D03*
X126325000Y11671000D03*
X125825000Y11671000D03*
X124825000Y11671000D03*
X123325000Y11671000D03*
X122325000Y11671000D03*
X121825000Y11671000D03*
X121025000Y11671000D03*
D24*
X119755000Y11106000D03*
D25*
X119755000Y6926000D03*
D24*
X128395000Y11106000D03*
D25*
X128395000Y6926000D03*
G04 #@! TD*
D14*
G04 #@! TO.C,H1*
X145775000Y23201000D03*
G04 #@! TD*
G04 #@! TO.C,Q3*
G36*
G01*
X24045382Y46365505D02*
X23439164Y46015505D01*
G75*
G02*
X23097658Y46107011I-125000J216506D01*
G01*
X22247658Y47579255D01*
G75*
G02*
X22339164Y47920761I216506J125000D01*
G01*
X22945382Y48270761D01*
G75*
G02*
X23286888Y48179255I125000J-216506D01*
G01*
X24136888Y46707011D01*
G75*
G02*
X24045382Y46365505I-216506J-125000D01*
G01*
G37*
G36*
G01*
X25911781Y52292813D02*
X21321842Y49642810D01*
G75*
G02*
X20980339Y49734315I-124999J216504D01*
G01*
X18030336Y54843870D01*
G75*
G02*
X18121842Y55185373I216504J124999D01*
G01*
X22711781Y57835376D01*
G75*
G02*
X23053283Y57743870I124998J-216504D01*
G01*
X26003286Y52634315D01*
G75*
G02*
X25911781Y52292813I-216504J-124998D01*
G01*
G37*
G36*
G01*
X27994458Y48645505D02*
X27388240Y48295505D01*
G75*
G02*
X27046734Y48387011I-125000J216506D01*
G01*
X26196734Y49859255D01*
G75*
G02*
X26288240Y50200761I216506J125000D01*
G01*
X26894458Y50550761D01*
G75*
G02*
X27235964Y50459255I125000J-216506D01*
G01*
X28085964Y48987011D01*
G75*
G02*
X27994458Y48645505I-216506J-125000D01*
G01*
G37*
G04 #@! TD*
G04 #@! TO.C,D7*
G36*
G01*
X27800000Y73126000D02*
X27800000Y72826000D01*
G75*
G02*
X27650000Y72676000I-150000J0D01*
G01*
X26475000Y72676000D01*
G75*
G02*
X26325000Y72826000I0J150000D01*
G01*
X26325000Y73126000D01*
G75*
G02*
X26475000Y73276000I150000J0D01*
G01*
X27650000Y73276000D01*
G75*
G02*
X27800000Y73126000I0J-150000D01*
G01*
G37*
G36*
G01*
X25925000Y74076000D02*
X25925000Y73776000D01*
G75*
G02*
X25775000Y73626000I-150000J0D01*
G01*
X24600000Y73626000D01*
G75*
G02*
X24450000Y73776000I0J150000D01*
G01*
X24450000Y74076000D01*
G75*
G02*
X24600000Y74226000I150000J0D01*
G01*
X25775000Y74226000D01*
G75*
G02*
X25925000Y74076000I0J-150000D01*
G01*
G37*
G36*
G01*
X27800000Y75026000D02*
X27800000Y74726000D01*
G75*
G02*
X27650000Y74576000I-150000J0D01*
G01*
X26475000Y74576000D01*
G75*
G02*
X26325000Y74726000I0J150000D01*
G01*
X26325000Y75026000D01*
G75*
G02*
X26475000Y75176000I150000J0D01*
G01*
X27650000Y75176000D01*
G75*
G02*
X27800000Y75026000I0J-150000D01*
G01*
G37*
G04 #@! TD*
G04 #@! TO.C,R5*
G36*
G01*
X69035000Y62326000D02*
X69815000Y62326000D01*
G75*
G02*
X69885000Y62256000I0J-70000D01*
G01*
X69885000Y61696000D01*
G75*
G02*
X69815000Y61626000I-70000J0D01*
G01*
X69035000Y61626000D01*
G75*
G02*
X68965000Y61696000I0J70000D01*
G01*
X68965000Y62256000D01*
G75*
G02*
X69035000Y62326000I70000J0D01*
G01*
G37*
G36*
G01*
X69035000Y60726000D02*
X69815000Y60726000D01*
G75*
G02*
X69885000Y60656000I0J-70000D01*
G01*
X69885000Y60096000D01*
G75*
G02*
X69815000Y60026000I-70000J0D01*
G01*
X69035000Y60026000D01*
G75*
G02*
X68965000Y60096000I0J70000D01*
G01*
X68965000Y60656000D01*
G75*
G02*
X69035000Y60726000I70000J0D01*
G01*
G37*
G04 #@! TD*
G04 #@! TO.C,Q1*
G36*
G01*
X32753571Y48177412D02*
X32147353Y47827412D01*
G75*
G02*
X31805847Y47918918I-125000J216506D01*
G01*
X30955847Y49391162D01*
G75*
G02*
X31047353Y49732668I216506J125000D01*
G01*
X31653571Y50082668D01*
G75*
G02*
X31995077Y49991162I125000J-216506D01*
G01*
X32845077Y48518918D01*
G75*
G02*
X32753571Y48177412I-216506J-125000D01*
G01*
G37*
G36*
G01*
X34619970Y54104720D02*
X30030031Y51454717D01*
G75*
G02*
X29688528Y51546222I-124999J216504D01*
G01*
X26738525Y56655777D01*
G75*
G02*
X26830031Y56997280I216504J124999D01*
G01*
X31419970Y59647283D01*
G75*
G02*
X31761472Y59555777I124998J-216504D01*
G01*
X34711475Y54446222D01*
G75*
G02*
X34619970Y54104720I-216504J-124998D01*
G01*
G37*
G36*
G01*
X36702647Y50457412D02*
X36096429Y50107412D01*
G75*
G02*
X35754923Y50198918I-125000J216506D01*
G01*
X34904923Y51671162D01*
G75*
G02*
X34996429Y52012668I216506J125000D01*
G01*
X35602647Y52362668D01*
G75*
G02*
X35944153Y52271162I125000J-216506D01*
G01*
X36794153Y50798918D01*
G75*
G02*
X36702647Y50457412I-216506J-125000D01*
G01*
G37*
G04 #@! TD*
G04 #@! TO.C,R25*
G36*
G01*
X48715000Y72276000D02*
X47935000Y72276000D01*
G75*
G02*
X47865000Y72346000I0J70000D01*
G01*
X47865000Y72906000D01*
G75*
G02*
X47935000Y72976000I70000J0D01*
G01*
X48715000Y72976000D01*
G75*
G02*
X48785000Y72906000I0J-70000D01*
G01*
X48785000Y72346000D01*
G75*
G02*
X48715000Y72276000I-70000J0D01*
G01*
G37*
G36*
G01*
X48715000Y73876000D02*
X47935000Y73876000D01*
G75*
G02*
X47865000Y73946000I0J70000D01*
G01*
X47865000Y74506000D01*
G75*
G02*
X47935000Y74576000I70000J0D01*
G01*
X48715000Y74576000D01*
G75*
G02*
X48785000Y74506000I0J-70000D01*
G01*
X48785000Y73946000D01*
G75*
G02*
X48715000Y73876000I-70000J0D01*
G01*
G37*
G04 #@! TD*
G04 #@! TO.C,R6*
G36*
G01*
X158565000Y31276000D02*
X157785000Y31276000D01*
G75*
G02*
X157715000Y31346000I0J70000D01*
G01*
X157715000Y31906000D01*
G75*
G02*
X157785000Y31976000I70000J0D01*
G01*
X158565000Y31976000D01*
G75*
G02*
X158635000Y31906000I0J-70000D01*
G01*
X158635000Y31346000D01*
G75*
G02*
X158565000Y31276000I-70000J0D01*
G01*
G37*
G36*
G01*
X158565000Y32876000D02*
X157785000Y32876000D01*
G75*
G02*
X157715000Y32946000I0J70000D01*
G01*
X157715000Y33506000D01*
G75*
G02*
X157785000Y33576000I70000J0D01*
G01*
X158565000Y33576000D01*
G75*
G02*
X158635000Y33506000I0J-70000D01*
G01*
X158635000Y32946000D01*
G75*
G02*
X158565000Y32876000I-70000J0D01*
G01*
G37*
G04 #@! TD*
G04 #@! TO.C,Q4*
G36*
G01*
X15753571Y44302412D02*
X15147353Y43952412D01*
G75*
G02*
X14805847Y44043918I-125000J216506D01*
G01*
X13955847Y45516162D01*
G75*
G02*
X14047353Y45857668I216506J125000D01*
G01*
X14653571Y46207668D01*
G75*
G02*
X14995077Y46116162I125000J-216506D01*
G01*
X15845077Y44643918D01*
G75*
G02*
X15753571Y44302412I-216506J-125000D01*
G01*
G37*
G36*
G01*
X17619970Y50229720D02*
X13030031Y47579717D01*
G75*
G02*
X12688528Y47671222I-124999J216504D01*
G01*
X9738525Y52780777D01*
G75*
G02*
X9830031Y53122280I216504J124999D01*
G01*
X14419970Y55772283D01*
G75*
G02*
X14761472Y55680777I124998J-216504D01*
G01*
X17711475Y50571222D01*
G75*
G02*
X17619970Y50229720I-216504J-124998D01*
G01*
G37*
G36*
G01*
X19702647Y46582412D02*
X19096429Y46232412D01*
G75*
G02*
X18754923Y46323918I-125000J216506D01*
G01*
X17904923Y47796162D01*
G75*
G02*
X17996429Y48137668I216506J125000D01*
G01*
X18602647Y48487668D01*
G75*
G02*
X18944153Y48396162I125000J-216506D01*
G01*
X19794153Y46923918D01*
G75*
G02*
X19702647Y46582412I-216506J-125000D01*
G01*
G37*
G04 #@! TD*
G04 #@! TO.C,Q12*
G36*
G01*
X33537500Y73076000D02*
X33537500Y72776000D01*
G75*
G02*
X33387500Y72626000I-150000J0D01*
G01*
X32212500Y72626000D01*
G75*
G02*
X32062500Y72776000I0J150000D01*
G01*
X32062500Y73076000D01*
G75*
G02*
X32212500Y73226000I150000J0D01*
G01*
X33387500Y73226000D01*
G75*
G02*
X33537500Y73076000I0J-150000D01*
G01*
G37*
G36*
G01*
X31662500Y74026000D02*
X31662500Y73726000D01*
G75*
G02*
X31512500Y73576000I-150000J0D01*
G01*
X30337500Y73576000D01*
G75*
G02*
X30187500Y73726000I0J150000D01*
G01*
X30187500Y74026000D01*
G75*
G02*
X30337500Y74176000I150000J0D01*
G01*
X31512500Y74176000D01*
G75*
G02*
X31662500Y74026000I0J-150000D01*
G01*
G37*
G36*
G01*
X33537500Y74976000D02*
X33537500Y74676000D01*
G75*
G02*
X33387500Y74526000I-150000J0D01*
G01*
X32212500Y74526000D01*
G75*
G02*
X32062500Y74676000I0J150000D01*
G01*
X32062500Y74976000D01*
G75*
G02*
X32212500Y75126000I150000J0D01*
G01*
X33387500Y75126000D01*
G75*
G02*
X33537500Y74976000I0J-150000D01*
G01*
G37*
G04 #@! TD*
D21*
G04 #@! TO.C,P4*
X138055000Y44726000D03*
G04 #@! TD*
G04 #@! TO.C,D6*
G36*
G01*
X42600000Y72676000D02*
X42600000Y72376000D01*
G75*
G02*
X42450000Y72226000I-150000J0D01*
G01*
X41275000Y72226000D01*
G75*
G02*
X41125000Y72376000I0J150000D01*
G01*
X41125000Y72676000D01*
G75*
G02*
X41275000Y72826000I150000J0D01*
G01*
X42450000Y72826000D01*
G75*
G02*
X42600000Y72676000I0J-150000D01*
G01*
G37*
G36*
G01*
X40725000Y73626000D02*
X40725000Y73326000D01*
G75*
G02*
X40575000Y73176000I-150000J0D01*
G01*
X39400000Y73176000D01*
G75*
G02*
X39250000Y73326000I0J150000D01*
G01*
X39250000Y73626000D01*
G75*
G02*
X39400000Y73776000I150000J0D01*
G01*
X40575000Y73776000D01*
G75*
G02*
X40725000Y73626000I0J-150000D01*
G01*
G37*
G36*
G01*
X42600000Y74576000D02*
X42600000Y74276000D01*
G75*
G02*
X42450000Y74126000I-150000J0D01*
G01*
X41275000Y74126000D01*
G75*
G02*
X41125000Y74276000I0J150000D01*
G01*
X41125000Y74576000D01*
G75*
G02*
X41275000Y74726000I150000J0D01*
G01*
X42450000Y74726000D01*
G75*
G02*
X42600000Y74576000I0J-150000D01*
G01*
G37*
G04 #@! TD*
D12*
G04 #@! TO.C,Q15*
X63025000Y33601000D03*
X63025000Y31301000D03*
X63025000Y29001000D03*
D13*
X69325000Y31301000D03*
G04 #@! TD*
G04 #@! TO.C,R21*
G36*
G01*
X52137750Y58775071D02*
X51462250Y58385071D01*
G75*
G02*
X51366628Y58410693I-35000J60622D01*
G01*
X51086628Y58895667D01*
G75*
G02*
X51112250Y58991289I60622J35000D01*
G01*
X51787750Y59381289D01*
G75*
G02*
X51883372Y59355667I35000J-60622D01*
G01*
X52163372Y58870693D01*
G75*
G02*
X52137750Y58775071I-60622J-35000D01*
G01*
G37*
G36*
G01*
X51337750Y60160711D02*
X50662250Y59770711D01*
G75*
G02*
X50566628Y59796333I-35000J60622D01*
G01*
X50286628Y60281307D01*
G75*
G02*
X50312250Y60376929I60622J35000D01*
G01*
X50987750Y60766929D01*
G75*
G02*
X51083372Y60741307I35000J-60622D01*
G01*
X51363372Y60256333D01*
G75*
G02*
X51337750Y60160711I-60622J-35000D01*
G01*
G37*
G04 #@! TD*
G04 #@! TO.C,Q11*
G36*
G01*
X47250000Y72626000D02*
X47250000Y72326000D01*
G75*
G02*
X47100000Y72176000I-150000J0D01*
G01*
X45925000Y72176000D01*
G75*
G02*
X45775000Y72326000I0J150000D01*
G01*
X45775000Y72626000D01*
G75*
G02*
X45925000Y72776000I150000J0D01*
G01*
X47100000Y72776000D01*
G75*
G02*
X47250000Y72626000I0J-150000D01*
G01*
G37*
G36*
G01*
X45375000Y73576000D02*
X45375000Y73276000D01*
G75*
G02*
X45225000Y73126000I-150000J0D01*
G01*
X44050000Y73126000D01*
G75*
G02*
X43900000Y73276000I0J150000D01*
G01*
X43900000Y73576000D01*
G75*
G02*
X44050000Y73726000I150000J0D01*
G01*
X45225000Y73726000D01*
G75*
G02*
X45375000Y73576000I0J-150000D01*
G01*
G37*
G36*
G01*
X47250000Y74526000D02*
X47250000Y74226000D01*
G75*
G02*
X47100000Y74076000I-150000J0D01*
G01*
X45925000Y74076000D01*
G75*
G02*
X45775000Y74226000I0J150000D01*
G01*
X45775000Y74526000D01*
G75*
G02*
X45925000Y74676000I150000J0D01*
G01*
X47100000Y74676000D01*
G75*
G02*
X47250000Y74526000I0J-150000D01*
G01*
G37*
G04 #@! TD*
D11*
G04 #@! TO.C,F2*
X113225000Y47826000D03*
G36*
G01*
X114569990Y46926000D02*
X113879990Y46926000D01*
G75*
G02*
X113649990Y47156000I0J230000D01*
G01*
X113649990Y48496000D01*
G75*
G02*
X113879990Y48726000I230000J0D01*
G01*
X114569990Y48726000D01*
G75*
G02*
X114799990Y48496000I0J-230000D01*
G01*
X114799990Y47156000D01*
G75*
G02*
X114569990Y46926000I-230000J0D01*
G01*
G37*
G36*
G01*
X117470010Y46926000D02*
X116780010Y46926000D01*
G75*
G02*
X116550010Y47156000I0J230000D01*
G01*
X116550010Y48496000D01*
G75*
G02*
X116780010Y48726000I230000J0D01*
G01*
X117470010Y48726000D01*
G75*
G02*
X117700010Y48496000I0J-230000D01*
G01*
X117700010Y47156000D01*
G75*
G02*
X117470010Y46926000I-230000J0D01*
G01*
G37*
X118125000Y47826000D03*
G04 #@! TD*
D26*
G04 #@! TO.C,U2*
X140587500Y48251000D03*
X140587500Y46751000D03*
X140587500Y45251000D03*
X140587500Y43751000D03*
X140587500Y42251000D03*
X140587500Y40751000D03*
X140587500Y39251000D03*
X140587500Y37751000D03*
X140587500Y36251000D03*
X140587500Y34751000D03*
X140587500Y33251000D03*
X140587500Y31751000D03*
X140587500Y30251000D03*
X153287500Y30251000D03*
X153287500Y31751000D03*
X153287500Y33251000D03*
X153287500Y34751000D03*
X153287500Y36251000D03*
X153287500Y37751000D03*
X153287500Y39251000D03*
X153287500Y40751000D03*
X153287500Y42251000D03*
X153287500Y43751000D03*
X153287500Y45251000D03*
X153287500Y46751000D03*
X153287500Y48251000D03*
G04 #@! TD*
G04 #@! TO.C,Q2*
G36*
G01*
X7045382Y43465505D02*
X6439164Y43115505D01*
G75*
G02*
X6097658Y43207011I-125000J216506D01*
G01*
X5247658Y44679255D01*
G75*
G02*
X5339164Y45020761I216506J125000D01*
G01*
X5945382Y45370761D01*
G75*
G02*
X6286888Y45279255I125000J-216506D01*
G01*
X7136888Y43807011D01*
G75*
G02*
X7045382Y43465505I-216506J-125000D01*
G01*
G37*
G36*
G01*
X8911781Y49392813D02*
X4321842Y46742810D01*
G75*
G02*
X3980339Y46834315I-124999J216504D01*
G01*
X1030336Y51943870D01*
G75*
G02*
X1121842Y52285373I216504J124999D01*
G01*
X5711781Y54935376D01*
G75*
G02*
X6053283Y54843870I124998J-216504D01*
G01*
X9003286Y49734315D01*
G75*
G02*
X8911781Y49392813I-216504J-124998D01*
G01*
G37*
G36*
G01*
X10994458Y45745505D02*
X10388240Y45395505D01*
G75*
G02*
X10046734Y45487011I-125000J216506D01*
G01*
X9196734Y46959255D01*
G75*
G02*
X9288240Y47300761I216506J125000D01*
G01*
X9894458Y47650761D01*
G75*
G02*
X10235964Y47559255I125000J-216506D01*
G01*
X11085964Y46087011D01*
G75*
G02*
X10994458Y45745505I-216506J-125000D01*
G01*
G37*
G04 #@! TD*
D11*
G04 #@! TO.C,F1*
X125292588Y46358412D03*
G36*
G01*
X125607243Y44770964D02*
X125119340Y45258867D01*
G75*
G02*
X125119340Y45584137I162635J162635D01*
G01*
X126066863Y46531660D01*
G75*
G02*
X126392133Y46531660I162635J-162635D01*
G01*
X126880036Y46043757D01*
G75*
G02*
X126880036Y45718487I-162635J-162635D01*
G01*
X125932513Y44770964D01*
G75*
G02*
X125607243Y44770964I-162635J162635D01*
G01*
G37*
G36*
G01*
X127657867Y42720340D02*
X127169964Y43208243D01*
G75*
G02*
X127169964Y43533513I162635J162635D01*
G01*
X128117487Y44481036D01*
G75*
G02*
X128442757Y44481036I162635J-162635D01*
G01*
X128930660Y43993133D01*
G75*
G02*
X128930660Y43667863I-162635J-162635D01*
G01*
X127983137Y42720340D01*
G75*
G02*
X127657867Y42720340I-162635J162635D01*
G01*
G37*
X128757412Y42893588D03*
G04 #@! TD*
G04 #@! TO.C,R3*
G36*
G01*
X113915000Y57726000D02*
X113135000Y57726000D01*
G75*
G02*
X113065000Y57796000I0J70000D01*
G01*
X113065000Y58356000D01*
G75*
G02*
X113135000Y58426000I70000J0D01*
G01*
X113915000Y58426000D01*
G75*
G02*
X113985000Y58356000I0J-70000D01*
G01*
X113985000Y57796000D01*
G75*
G02*
X113915000Y57726000I-70000J0D01*
G01*
G37*
G36*
G01*
X113915000Y59326000D02*
X113135000Y59326000D01*
G75*
G02*
X113065000Y59396000I0J70000D01*
G01*
X113065000Y59956000D01*
G75*
G02*
X113135000Y60026000I70000J0D01*
G01*
X113915000Y60026000D01*
G75*
G02*
X113985000Y59956000I0J-70000D01*
G01*
X113985000Y59396000D01*
G75*
G02*
X113915000Y59326000I-70000J0D01*
G01*
G37*
G04 #@! TD*
G04 #@! TO.C,R22*
G36*
G01*
X52737750Y50300071D02*
X52062250Y49910071D01*
G75*
G02*
X51966628Y49935693I-35000J60622D01*
G01*
X51686628Y50420667D01*
G75*
G02*
X51712250Y50516289I60622J35000D01*
G01*
X52387750Y50906289D01*
G75*
G02*
X52483372Y50880667I35000J-60622D01*
G01*
X52763372Y50395693D01*
G75*
G02*
X52737750Y50300071I-60622J-35000D01*
G01*
G37*
G36*
G01*
X51937750Y51685711D02*
X51262250Y51295711D01*
G75*
G02*
X51166628Y51321333I-35000J60622D01*
G01*
X50886628Y51806307D01*
G75*
G02*
X50912250Y51901929I60622J35000D01*
G01*
X51587750Y52291929D01*
G75*
G02*
X51683372Y52266307I35000J-60622D01*
G01*
X51963372Y51781333D01*
G75*
G02*
X51937750Y51685711I-60622J-35000D01*
G01*
G37*
G04 #@! TD*
G04 #@! TO.C,R7*
G36*
G01*
X118675000Y12961000D02*
X118675000Y13741000D01*
G75*
G02*
X118745000Y13811000I70000J0D01*
G01*
X119305000Y13811000D01*
G75*
G02*
X119375000Y13741000I0J-70000D01*
G01*
X119375000Y12961000D01*
G75*
G02*
X119305000Y12891000I-70000J0D01*
G01*
X118745000Y12891000D01*
G75*
G02*
X118675000Y12961000I0J70000D01*
G01*
G37*
G36*
G01*
X120275000Y12961000D02*
X120275000Y13741000D01*
G75*
G02*
X120345000Y13811000I70000J0D01*
G01*
X120905000Y13811000D01*
G75*
G02*
X120975000Y13741000I0J-70000D01*
G01*
X120975000Y12961000D01*
G75*
G02*
X120905000Y12891000I-70000J0D01*
G01*
X120345000Y12891000D01*
G75*
G02*
X120275000Y12961000I0J70000D01*
G01*
G37*
G04 #@! TD*
M02*
