G04 #@! TF.GenerationSoftware,KiCad,Pcbnew,7.0.10-7.0.10~ubuntu22.04.1*
G04 #@! TF.CreationDate,2023-12-31T22:58:43+00:00*
G04 #@! TF.ProjectId,uaeficopiedtovfr,75616566-6963-46f7-9069-6564746f7666,rev?*
G04 #@! TF.SameCoordinates,Original*
G04 #@! TF.FileFunction,Paste,Top*
G04 #@! TF.FilePolarity,Positive*
%FSLAX46Y46*%
G04 Gerber Fmt 4.6, Leading zero omitted, Abs format (unit mm)*
G04 Created by KiCad (PCBNEW 7.0.10-7.0.10~ubuntu22.04.1) date 2023-12-31 22:58:43*
%MOMM*%
%LPD*%
G01*
G04 APERTURE LIST*
%ADD10R,2.000000X1.500000*%
%ADD11R,2.000000X3.800000*%
%ADD12O,0.000001X0.000001*%
%ADD13R,0.300000X1.150000*%
%ADD14R,1.300000X1.000000*%
G04 APERTURE END LIST*
G04 #@! TO.C,R4*
G36*
G01*
X117475001Y19548000D02*
X117475001Y18298000D01*
G75*
G02*
X117375001Y18198000I-100000J0D01*
G01*
X116575001Y18198000D01*
G75*
G02*
X116475001Y18298000I0J100000D01*
G01*
X116475001Y19548000D01*
G75*
G02*
X116575001Y19648000I100000J0D01*
G01*
X117375001Y19648000D01*
G75*
G02*
X117475001Y19548000I0J-100000D01*
G01*
G37*
G36*
G01*
X115574979Y19548000D02*
X115574979Y18298000D01*
G75*
G02*
X115474979Y18198000I-100000J0D01*
G01*
X114674979Y18198000D01*
G75*
G02*
X114574979Y18298000I0J100000D01*
G01*
X114574979Y19548000D01*
G75*
G02*
X114674979Y19648000I100000J0D01*
G01*
X115474979Y19648000D01*
G75*
G02*
X115574979Y19548000I0J-100000D01*
G01*
G37*
G04 #@! TD*
G04 #@! TO.C,R1*
G36*
G01*
X142385000Y59973000D02*
X143165000Y59973000D01*
G75*
G02*
X143235000Y59903000I0J-70000D01*
G01*
X143235000Y59343000D01*
G75*
G02*
X143165000Y59273000I-70000J0D01*
G01*
X142385000Y59273000D01*
G75*
G02*
X142315000Y59343000I0J70000D01*
G01*
X142315000Y59903000D01*
G75*
G02*
X142385000Y59973000I70000J0D01*
G01*
G37*
G36*
G01*
X142385000Y58373000D02*
X143165000Y58373000D01*
G75*
G02*
X143235000Y58303000I0J-70000D01*
G01*
X143235000Y57743000D01*
G75*
G02*
X143165000Y57673000I-70000J0D01*
G01*
X142385000Y57673000D01*
G75*
G02*
X142315000Y57743000I0J70000D01*
G01*
X142315000Y58303000D01*
G75*
G02*
X142385000Y58373000I70000J0D01*
G01*
G37*
G04 #@! TD*
D10*
G04 #@! TO.C,Q14*
X56775000Y58848000D03*
X56775000Y56548000D03*
X56775000Y54248000D03*
D11*
X63075000Y56548000D03*
G04 #@! TD*
G04 #@! TO.C,Q8*
G36*
X48542339Y50892005D02*
G01*
X49841377Y51642005D01*
X50841377Y49909955D01*
X49542339Y49159955D01*
X48542339Y50892005D01*
G37*
G36*
X46550481Y49742005D02*
G01*
X47849519Y50492005D01*
X48849519Y48759955D01*
X47550481Y48009955D01*
X46550481Y49742005D01*
G37*
G36*
X44558623Y48592005D02*
G01*
X45857661Y49342005D01*
X46857661Y47609955D01*
X45558623Y46859955D01*
X44558623Y48592005D01*
G37*
G36*
X48704552Y43711045D02*
G01*
X51995448Y45611045D01*
X52995448Y43878995D01*
X49704552Y41978995D01*
X48704552Y43711045D01*
G37*
G04 #@! TD*
G04 #@! TO.C,R8*
G36*
G01*
X127925000Y14138000D02*
X127925000Y13358000D01*
G75*
G02*
X127855000Y13288000I-70000J0D01*
G01*
X127295000Y13288000D01*
G75*
G02*
X127225000Y13358000I0J70000D01*
G01*
X127225000Y14138000D01*
G75*
G02*
X127295000Y14208000I70000J0D01*
G01*
X127855000Y14208000D01*
G75*
G02*
X127925000Y14138000I0J-70000D01*
G01*
G37*
G36*
G01*
X126325000Y14138000D02*
X126325000Y13358000D01*
G75*
G02*
X126255000Y13288000I-70000J0D01*
G01*
X125695000Y13288000D01*
G75*
G02*
X125625000Y13358000I0J70000D01*
G01*
X125625000Y14138000D01*
G75*
G02*
X125695000Y14208000I70000J0D01*
G01*
X126255000Y14208000D01*
G75*
G02*
X126325000Y14138000I0J-70000D01*
G01*
G37*
G04 #@! TD*
G04 #@! TO.C,Q10*
G36*
X53663478Y32117491D02*
G01*
X52602818Y31056831D01*
X51188604Y32471045D01*
X52249264Y33531705D01*
X53663478Y32117491D01*
G37*
G36*
X55289823Y33743837D02*
G01*
X54229163Y32683177D01*
X52814949Y34097391D01*
X53875609Y35158051D01*
X55289823Y33743837D01*
G37*
G36*
X56916169Y35370182D02*
G01*
X55855509Y34309522D01*
X54441295Y35723736D01*
X55501955Y36784396D01*
X56916169Y35370182D01*
G37*
G36*
X51648224Y39011782D02*
G01*
X48961218Y36324776D01*
X47547004Y37738990D01*
X50234010Y40425996D01*
X51648224Y39011782D01*
G37*
G04 #@! TD*
G04 #@! TO.C,R32*
G36*
G01*
X65385000Y45748000D02*
X66165000Y45748000D01*
G75*
G02*
X66235000Y45678000I0J-70000D01*
G01*
X66235000Y45118000D01*
G75*
G02*
X66165000Y45048000I-70000J0D01*
G01*
X65385000Y45048000D01*
G75*
G02*
X65315000Y45118000I0J70000D01*
G01*
X65315000Y45678000D01*
G75*
G02*
X65385000Y45748000I70000J0D01*
G01*
G37*
G36*
G01*
X65385000Y44148000D02*
X66165000Y44148000D01*
G75*
G02*
X66235000Y44078000I0J-70000D01*
G01*
X66235000Y43518000D01*
G75*
G02*
X66165000Y43448000I-70000J0D01*
G01*
X65385000Y43448000D01*
G75*
G02*
X65315000Y43518000I0J70000D01*
G01*
X65315000Y44078000D01*
G75*
G02*
X65385000Y44148000I70000J0D01*
G01*
G37*
G04 #@! TD*
G04 #@! TO.C,R2*
G36*
G01*
X112115000Y59273000D02*
X111335000Y59273000D01*
G75*
G02*
X111265000Y59343000I0J70000D01*
G01*
X111265000Y59903000D01*
G75*
G02*
X111335000Y59973000I70000J0D01*
G01*
X112115000Y59973000D01*
G75*
G02*
X112185000Y59903000I0J-70000D01*
G01*
X112185000Y59343000D01*
G75*
G02*
X112115000Y59273000I-70000J0D01*
G01*
G37*
G36*
G01*
X112115000Y60873000D02*
X111335000Y60873000D01*
G75*
G02*
X111265000Y60943000I0J70000D01*
G01*
X111265000Y61503000D01*
G75*
G02*
X111335000Y61573000I70000J0D01*
G01*
X112115000Y61573000D01*
G75*
G02*
X112185000Y61503000I0J-70000D01*
G01*
X112185000Y60943000D01*
G75*
G02*
X112115000Y60873000I-70000J0D01*
G01*
G37*
G04 #@! TD*
G04 #@! TO.C,R31*
G36*
G01*
X66315000Y25348000D02*
X65535000Y25348000D01*
G75*
G02*
X65465000Y25418000I0J70000D01*
G01*
X65465000Y25978000D01*
G75*
G02*
X65535000Y26048000I70000J0D01*
G01*
X66315000Y26048000D01*
G75*
G02*
X66385000Y25978000I0J-70000D01*
G01*
X66385000Y25418000D01*
G75*
G02*
X66315000Y25348000I-70000J0D01*
G01*
G37*
G36*
G01*
X66315000Y26948000D02*
X65535000Y26948000D01*
G75*
G02*
X65465000Y27018000I0J70000D01*
G01*
X65465000Y27578000D01*
G75*
G02*
X65535000Y27648000I70000J0D01*
G01*
X66315000Y27648000D01*
G75*
G02*
X66385000Y27578000I0J-70000D01*
G01*
X66385000Y27018000D01*
G75*
G02*
X66315000Y26948000I-70000J0D01*
G01*
G37*
G04 #@! TD*
G04 #@! TO.C,R23*
G36*
G01*
X40935000Y52098000D02*
X41715000Y52098000D01*
G75*
G02*
X41785000Y52028000I0J-70000D01*
G01*
X41785000Y51468000D01*
G75*
G02*
X41715000Y51398000I-70000J0D01*
G01*
X40935000Y51398000D01*
G75*
G02*
X40865000Y51468000I0J70000D01*
G01*
X40865000Y52028000D01*
G75*
G02*
X40935000Y52098000I70000J0D01*
G01*
G37*
G36*
G01*
X40935000Y50498000D02*
X41715000Y50498000D01*
G75*
G02*
X41785000Y50428000I0J-70000D01*
G01*
X41785000Y49868000D01*
G75*
G02*
X41715000Y49798000I-70000J0D01*
G01*
X40935000Y49798000D01*
G75*
G02*
X40865000Y49868000I0J70000D01*
G01*
X40865000Y50428000D01*
G75*
G02*
X40935000Y50498000I70000J0D01*
G01*
G37*
G04 #@! TD*
D12*
G04 #@! TO.C,M8*
X145500004Y19023017D03*
X146269998Y4198000D03*
X153249996Y5473034D03*
G04 #@! TD*
D10*
G04 #@! TO.C,Q16*
X62025000Y42098000D03*
X62025000Y39798000D03*
X62025000Y37498000D03*
D11*
X68325000Y39798000D03*
G04 #@! TD*
G04 #@! TO.C,Q9*
G36*
X40792339Y48642005D02*
G01*
X42091377Y49392005D01*
X43091377Y47659955D01*
X41792339Y46909955D01*
X40792339Y48642005D01*
G37*
G36*
X38800481Y47492005D02*
G01*
X40099519Y48242005D01*
X41099519Y46509955D01*
X39800481Y45759955D01*
X38800481Y47492005D01*
G37*
G36*
X36808623Y46342005D02*
G01*
X38107661Y47092005D01*
X39107661Y45359955D01*
X37808623Y44609955D01*
X36808623Y46342005D01*
G37*
G36*
X40954552Y41461045D02*
G01*
X44245448Y43361045D01*
X45245448Y41628995D01*
X41954552Y39728995D01*
X40954552Y41461045D01*
G37*
G04 #@! TD*
D10*
G04 #@! TO.C,Q13*
X56475000Y51048000D03*
X56475000Y48748000D03*
X56475000Y46448000D03*
D11*
X62775000Y48748000D03*
G04 #@! TD*
G04 #@! TO.C,R26*
G36*
G01*
X36265000Y72523000D02*
X35485000Y72523000D01*
G75*
G02*
X35415000Y72593000I0J70000D01*
G01*
X35415000Y73153000D01*
G75*
G02*
X35485000Y73223000I70000J0D01*
G01*
X36265000Y73223000D01*
G75*
G02*
X36335000Y73153000I0J-70000D01*
G01*
X36335000Y72593000D01*
G75*
G02*
X36265000Y72523000I-70000J0D01*
G01*
G37*
G36*
G01*
X36265000Y74123000D02*
X35485000Y74123000D01*
G75*
G02*
X35415000Y74193000I0J70000D01*
G01*
X35415000Y74753000D01*
G75*
G02*
X35485000Y74823000I70000J0D01*
G01*
X36265000Y74823000D01*
G75*
G02*
X36335000Y74753000I0J-70000D01*
G01*
X36335000Y74193000D01*
G75*
G02*
X36265000Y74123000I-70000J0D01*
G01*
G37*
G04 #@! TD*
G04 #@! TO.C,C1*
G36*
G01*
X139115000Y29732999D02*
X138435000Y29732999D01*
G75*
G02*
X138350000Y29817999I0J85000D01*
G01*
X138350000Y30497999D01*
G75*
G02*
X138435000Y30582999I85000J0D01*
G01*
X139115000Y30582999D01*
G75*
G02*
X139200000Y30497999I0J-85000D01*
G01*
X139200000Y29817999D01*
G75*
G02*
X139115000Y29732999I-85000J0D01*
G01*
G37*
G36*
G01*
X139115000Y31313001D02*
X138435000Y31313001D01*
G75*
G02*
X138350000Y31398001I0J85000D01*
G01*
X138350000Y32078001D01*
G75*
G02*
X138435000Y32163001I85000J0D01*
G01*
X139115000Y32163001D01*
G75*
G02*
X139200000Y32078001I0J-85000D01*
G01*
X139200000Y31398001D01*
G75*
G02*
X139115000Y31313001I-85000J0D01*
G01*
G37*
G04 #@! TD*
G04 #@! TO.C,Q7*
G36*
X47042339Y60867005D02*
G01*
X48341377Y61617005D01*
X49341377Y59884955D01*
X48042339Y59134955D01*
X47042339Y60867005D01*
G37*
G36*
X45050481Y59717005D02*
G01*
X46349519Y60467005D01*
X47349519Y58734955D01*
X46050481Y57984955D01*
X45050481Y59717005D01*
G37*
G36*
X43058623Y58567005D02*
G01*
X44357661Y59317005D01*
X45357661Y57584955D01*
X44058623Y56834955D01*
X43058623Y58567005D01*
G37*
G36*
X47204552Y53686045D02*
G01*
X50495448Y55586045D01*
X51495448Y53853995D01*
X48204552Y51953995D01*
X47204552Y53686045D01*
G37*
G04 #@! TD*
G04 #@! TO.C,R24*
G36*
G01*
X53287600Y28659056D02*
X52736056Y29210600D01*
G75*
G02*
X52736056Y29309594I49497J49497D01*
G01*
X53132036Y29705574D01*
G75*
G02*
X53231030Y29705574I49497J-49497D01*
G01*
X53782574Y29154030D01*
G75*
G02*
X53782574Y29055036I-49497J-49497D01*
G01*
X53386594Y28659056D01*
G75*
G02*
X53287600Y28659056I-49497J49497D01*
G01*
G37*
G36*
G01*
X54418970Y29790426D02*
X53867426Y30341970D01*
G75*
G02*
X53867426Y30440964I49497J49497D01*
G01*
X54263406Y30836944D01*
G75*
G02*
X54362400Y30836944I49497J-49497D01*
G01*
X54913944Y30285400D01*
G75*
G02*
X54913944Y30186406I-49497J-49497D01*
G01*
X54517964Y29790426D01*
G75*
G02*
X54418970Y29790426I-49497J49497D01*
G01*
G37*
G04 #@! TD*
D13*
G04 #@! TO.C,J9*
X120825000Y11668000D03*
X121625000Y11668000D03*
X122925000Y11668000D03*
X123925000Y11668000D03*
X124425000Y11668000D03*
X125425000Y11668000D03*
X126725000Y11668000D03*
X127525000Y11668000D03*
X127225000Y11668000D03*
X126425000Y11668000D03*
X125925000Y11668000D03*
X124925000Y11668000D03*
X123425000Y11668000D03*
X122425000Y11668000D03*
X121925000Y11668000D03*
X121125000Y11668000D03*
G04 #@! TD*
G04 #@! TO.C,Q3*
G36*
G01*
X24145382Y46362505D02*
X23539164Y46012505D01*
G75*
G02*
X23197658Y46104011I-125000J216506D01*
G01*
X22347658Y47576255D01*
G75*
G02*
X22439164Y47917761I216506J125000D01*
G01*
X23045382Y48267761D01*
G75*
G02*
X23386888Y48176255I125000J-216506D01*
G01*
X24236888Y46704011D01*
G75*
G02*
X24145382Y46362505I-216506J-125000D01*
G01*
G37*
G36*
G01*
X23370401Y50764812D02*
X21421843Y49639812D01*
G75*
G02*
X21080337Y49731318I-125000J216506D01*
G01*
X19805337Y51939682D01*
G75*
G02*
X19896843Y52281188I216506J125000D01*
G01*
X21845401Y53406188D01*
G75*
G02*
X22186907Y53314682I125000J-216506D01*
G01*
X23461907Y51106318D01*
G75*
G02*
X23370401Y50764812I-216506J-125000D01*
G01*
G37*
G36*
G01*
X26011779Y52289812D02*
X24063221Y51164812D01*
G75*
G02*
X23721715Y51256318I-125000J216506D01*
G01*
X22446715Y53464682D01*
G75*
G02*
X22538221Y53806188I216506J125000D01*
G01*
X24486779Y54931188D01*
G75*
G02*
X24828285Y54839682I125000J-216506D01*
G01*
X26103285Y52631318D01*
G75*
G02*
X26011779Y52289812I-216506J-125000D01*
G01*
G37*
G36*
G01*
X21695401Y53665998D02*
X19746843Y52540998D01*
G75*
G02*
X19405337Y52632504I-125000J216506D01*
G01*
X18130337Y54840868D01*
G75*
G02*
X18221843Y55182374I216506J125000D01*
G01*
X20170401Y56307374D01*
G75*
G02*
X20511907Y56215868I125000J-216506D01*
G01*
X21786907Y54007504D01*
G75*
G02*
X21695401Y53665998I-216506J-125000D01*
G01*
G37*
G36*
G01*
X24336779Y55190998D02*
X22388221Y54065998D01*
G75*
G02*
X22046715Y54157504I-125000J216506D01*
G01*
X20771715Y56365868D01*
G75*
G02*
X20863221Y56707374I216506J125000D01*
G01*
X22811779Y57832374D01*
G75*
G02*
X23153285Y57740868I125000J-216506D01*
G01*
X24428285Y55532504D01*
G75*
G02*
X24336779Y55190998I-216506J-125000D01*
G01*
G37*
G36*
G01*
X28094458Y48642505D02*
X27488240Y48292505D01*
G75*
G02*
X27146734Y48384011I-125000J216506D01*
G01*
X26296734Y49856255D01*
G75*
G02*
X26388240Y50197761I216506J125000D01*
G01*
X26994458Y50547761D01*
G75*
G02*
X27335964Y50456255I125000J-216506D01*
G01*
X28185964Y48984011D01*
G75*
G02*
X28094458Y48642505I-216506J-125000D01*
G01*
G37*
G04 #@! TD*
G04 #@! TO.C,D7*
G36*
G01*
X27900000Y73123000D02*
X27900000Y72823000D01*
G75*
G02*
X27750000Y72673000I-150000J0D01*
G01*
X26575000Y72673000D01*
G75*
G02*
X26425000Y72823000I0J150000D01*
G01*
X26425000Y73123000D01*
G75*
G02*
X26575000Y73273000I150000J0D01*
G01*
X27750000Y73273000D01*
G75*
G02*
X27900000Y73123000I0J-150000D01*
G01*
G37*
G36*
G01*
X26025000Y74073000D02*
X26025000Y73773000D01*
G75*
G02*
X25875000Y73623000I-150000J0D01*
G01*
X24700000Y73623000D01*
G75*
G02*
X24550000Y73773000I0J150000D01*
G01*
X24550000Y74073000D01*
G75*
G02*
X24700000Y74223000I150000J0D01*
G01*
X25875000Y74223000D01*
G75*
G02*
X26025000Y74073000I0J-150000D01*
G01*
G37*
G36*
G01*
X27900000Y75023000D02*
X27900000Y74723000D01*
G75*
G02*
X27750000Y74573000I-150000J0D01*
G01*
X26575000Y74573000D01*
G75*
G02*
X26425000Y74723000I0J150000D01*
G01*
X26425000Y75023000D01*
G75*
G02*
X26575000Y75173000I150000J0D01*
G01*
X27750000Y75173000D01*
G75*
G02*
X27900000Y75023000I0J-150000D01*
G01*
G37*
G04 #@! TD*
G04 #@! TO.C,R5*
G36*
G01*
X69135000Y62323000D02*
X69915000Y62323000D01*
G75*
G02*
X69985000Y62253000I0J-70000D01*
G01*
X69985000Y61693000D01*
G75*
G02*
X69915000Y61623000I-70000J0D01*
G01*
X69135000Y61623000D01*
G75*
G02*
X69065000Y61693000I0J70000D01*
G01*
X69065000Y62253000D01*
G75*
G02*
X69135000Y62323000I70000J0D01*
G01*
G37*
G36*
G01*
X69135000Y60723000D02*
X69915000Y60723000D01*
G75*
G02*
X69985000Y60653000I0J-70000D01*
G01*
X69985000Y60093000D01*
G75*
G02*
X69915000Y60023000I-70000J0D01*
G01*
X69135000Y60023000D01*
G75*
G02*
X69065000Y60093000I0J70000D01*
G01*
X69065000Y60653000D01*
G75*
G02*
X69135000Y60723000I70000J0D01*
G01*
G37*
G04 #@! TD*
G04 #@! TO.C,Q1*
G36*
G01*
X32853571Y48174412D02*
X32247353Y47824412D01*
G75*
G02*
X31905847Y47915918I-125000J216506D01*
G01*
X31055847Y49388162D01*
G75*
G02*
X31147353Y49729668I216506J125000D01*
G01*
X31753571Y50079668D01*
G75*
G02*
X32095077Y49988162I125000J-216506D01*
G01*
X32945077Y48515918D01*
G75*
G02*
X32853571Y48174412I-216506J-125000D01*
G01*
G37*
G36*
G01*
X32078590Y52576719D02*
X30130032Y51451719D01*
G75*
G02*
X29788526Y51543225I-125000J216506D01*
G01*
X28513526Y53751589D01*
G75*
G02*
X28605032Y54093095I216506J125000D01*
G01*
X30553590Y55218095D01*
G75*
G02*
X30895096Y55126589I125000J-216506D01*
G01*
X32170096Y52918225D01*
G75*
G02*
X32078590Y52576719I-216506J-125000D01*
G01*
G37*
G36*
G01*
X34719968Y54101719D02*
X32771410Y52976719D01*
G75*
G02*
X32429904Y53068225I-125000J216506D01*
G01*
X31154904Y55276589D01*
G75*
G02*
X31246410Y55618095I216506J125000D01*
G01*
X33194968Y56743095D01*
G75*
G02*
X33536474Y56651589I125000J-216506D01*
G01*
X34811474Y54443225D01*
G75*
G02*
X34719968Y54101719I-216506J-125000D01*
G01*
G37*
G36*
G01*
X30403590Y55477905D02*
X28455032Y54352905D01*
G75*
G02*
X28113526Y54444411I-125000J216506D01*
G01*
X26838526Y56652775D01*
G75*
G02*
X26930032Y56994281I216506J125000D01*
G01*
X28878590Y58119281D01*
G75*
G02*
X29220096Y58027775I125000J-216506D01*
G01*
X30495096Y55819411D01*
G75*
G02*
X30403590Y55477905I-216506J-125000D01*
G01*
G37*
G36*
G01*
X33044968Y57002905D02*
X31096410Y55877905D01*
G75*
G02*
X30754904Y55969411I-125000J216506D01*
G01*
X29479904Y58177775D01*
G75*
G02*
X29571410Y58519281I216506J125000D01*
G01*
X31519968Y59644281D01*
G75*
G02*
X31861474Y59552775I125000J-216506D01*
G01*
X33136474Y57344411D01*
G75*
G02*
X33044968Y57002905I-216506J-125000D01*
G01*
G37*
G36*
G01*
X36802647Y50454412D02*
X36196429Y50104412D01*
G75*
G02*
X35854923Y50195918I-125000J216506D01*
G01*
X35004923Y51668162D01*
G75*
G02*
X35096429Y52009668I216506J125000D01*
G01*
X35702647Y52359668D01*
G75*
G02*
X36044153Y52268162I125000J-216506D01*
G01*
X36894153Y50795918D01*
G75*
G02*
X36802647Y50454412I-216506J-125000D01*
G01*
G37*
G04 #@! TD*
G04 #@! TO.C,R25*
G36*
G01*
X48815000Y72273000D02*
X48035000Y72273000D01*
G75*
G02*
X47965000Y72343000I0J70000D01*
G01*
X47965000Y72903000D01*
G75*
G02*
X48035000Y72973000I70000J0D01*
G01*
X48815000Y72973000D01*
G75*
G02*
X48885000Y72903000I0J-70000D01*
G01*
X48885000Y72343000D01*
G75*
G02*
X48815000Y72273000I-70000J0D01*
G01*
G37*
G36*
G01*
X48815000Y73873000D02*
X48035000Y73873000D01*
G75*
G02*
X47965000Y73943000I0J70000D01*
G01*
X47965000Y74503000D01*
G75*
G02*
X48035000Y74573000I70000J0D01*
G01*
X48815000Y74573000D01*
G75*
G02*
X48885000Y74503000I0J-70000D01*
G01*
X48885000Y73943000D01*
G75*
G02*
X48815000Y73873000I-70000J0D01*
G01*
G37*
G04 #@! TD*
G04 #@! TO.C,R6*
G36*
G01*
X158665000Y31273000D02*
X157885000Y31273000D01*
G75*
G02*
X157815000Y31343000I0J70000D01*
G01*
X157815000Y31903000D01*
G75*
G02*
X157885000Y31973000I70000J0D01*
G01*
X158665000Y31973000D01*
G75*
G02*
X158735000Y31903000I0J-70000D01*
G01*
X158735000Y31343000D01*
G75*
G02*
X158665000Y31273000I-70000J0D01*
G01*
G37*
G36*
G01*
X158665000Y32873000D02*
X157885000Y32873000D01*
G75*
G02*
X157815000Y32943000I0J70000D01*
G01*
X157815000Y33503000D01*
G75*
G02*
X157885000Y33573000I70000J0D01*
G01*
X158665000Y33573000D01*
G75*
G02*
X158735000Y33503000I0J-70000D01*
G01*
X158735000Y32943000D01*
G75*
G02*
X158665000Y32873000I-70000J0D01*
G01*
G37*
G04 #@! TD*
G04 #@! TO.C,Q4*
G36*
G01*
X15853571Y44299412D02*
X15247353Y43949412D01*
G75*
G02*
X14905847Y44040918I-125000J216506D01*
G01*
X14055847Y45513162D01*
G75*
G02*
X14147353Y45854668I216506J125000D01*
G01*
X14753571Y46204668D01*
G75*
G02*
X15095077Y46113162I125000J-216506D01*
G01*
X15945077Y44640918D01*
G75*
G02*
X15853571Y44299412I-216506J-125000D01*
G01*
G37*
G36*
G01*
X15078590Y48701719D02*
X13130032Y47576719D01*
G75*
G02*
X12788526Y47668225I-125000J216506D01*
G01*
X11513526Y49876589D01*
G75*
G02*
X11605032Y50218095I216506J125000D01*
G01*
X13553590Y51343095D01*
G75*
G02*
X13895096Y51251589I125000J-216506D01*
G01*
X15170096Y49043225D01*
G75*
G02*
X15078590Y48701719I-216506J-125000D01*
G01*
G37*
G36*
G01*
X17719968Y50226719D02*
X15771410Y49101719D01*
G75*
G02*
X15429904Y49193225I-125000J216506D01*
G01*
X14154904Y51401589D01*
G75*
G02*
X14246410Y51743095I216506J125000D01*
G01*
X16194968Y52868095D01*
G75*
G02*
X16536474Y52776589I125000J-216506D01*
G01*
X17811474Y50568225D01*
G75*
G02*
X17719968Y50226719I-216506J-125000D01*
G01*
G37*
G36*
G01*
X13403590Y51602905D02*
X11455032Y50477905D01*
G75*
G02*
X11113526Y50569411I-125000J216506D01*
G01*
X9838526Y52777775D01*
G75*
G02*
X9930032Y53119281I216506J125000D01*
G01*
X11878590Y54244281D01*
G75*
G02*
X12220096Y54152775I125000J-216506D01*
G01*
X13495096Y51944411D01*
G75*
G02*
X13403590Y51602905I-216506J-125000D01*
G01*
G37*
G36*
G01*
X16044968Y53127905D02*
X14096410Y52002905D01*
G75*
G02*
X13754904Y52094411I-125000J216506D01*
G01*
X12479904Y54302775D01*
G75*
G02*
X12571410Y54644281I216506J125000D01*
G01*
X14519968Y55769281D01*
G75*
G02*
X14861474Y55677775I125000J-216506D01*
G01*
X16136474Y53469411D01*
G75*
G02*
X16044968Y53127905I-216506J-125000D01*
G01*
G37*
G36*
G01*
X19802647Y46579412D02*
X19196429Y46229412D01*
G75*
G02*
X18854923Y46320918I-125000J216506D01*
G01*
X18004923Y47793162D01*
G75*
G02*
X18096429Y48134668I216506J125000D01*
G01*
X18702647Y48484668D01*
G75*
G02*
X19044153Y48393162I125000J-216506D01*
G01*
X19894153Y46920918D01*
G75*
G02*
X19802647Y46579412I-216506J-125000D01*
G01*
G37*
G04 #@! TD*
G04 #@! TO.C,Q12*
G36*
G01*
X33637500Y73073000D02*
X33637500Y72773000D01*
G75*
G02*
X33487500Y72623000I-150000J0D01*
G01*
X32312500Y72623000D01*
G75*
G02*
X32162500Y72773000I0J150000D01*
G01*
X32162500Y73073000D01*
G75*
G02*
X32312500Y73223000I150000J0D01*
G01*
X33487500Y73223000D01*
G75*
G02*
X33637500Y73073000I0J-150000D01*
G01*
G37*
G36*
G01*
X31762500Y74023000D02*
X31762500Y73723000D01*
G75*
G02*
X31612500Y73573000I-150000J0D01*
G01*
X30437500Y73573000D01*
G75*
G02*
X30287500Y73723000I0J150000D01*
G01*
X30287500Y74023000D01*
G75*
G02*
X30437500Y74173000I150000J0D01*
G01*
X31612500Y74173000D01*
G75*
G02*
X31762500Y74023000I0J-150000D01*
G01*
G37*
G36*
G01*
X33637500Y74973000D02*
X33637500Y74673000D01*
G75*
G02*
X33487500Y74523000I-150000J0D01*
G01*
X32312500Y74523000D01*
G75*
G02*
X32162500Y74673000I0J150000D01*
G01*
X32162500Y74973000D01*
G75*
G02*
X32312500Y75123000I150000J0D01*
G01*
X33487500Y75123000D01*
G75*
G02*
X33637500Y74973000I0J-150000D01*
G01*
G37*
G04 #@! TD*
G04 #@! TO.C,D6*
G36*
G01*
X42700000Y72673000D02*
X42700000Y72373000D01*
G75*
G02*
X42550000Y72223000I-150000J0D01*
G01*
X41375000Y72223000D01*
G75*
G02*
X41225000Y72373000I0J150000D01*
G01*
X41225000Y72673000D01*
G75*
G02*
X41375000Y72823000I150000J0D01*
G01*
X42550000Y72823000D01*
G75*
G02*
X42700000Y72673000I0J-150000D01*
G01*
G37*
G36*
G01*
X40825000Y73623000D02*
X40825000Y73323000D01*
G75*
G02*
X40675000Y73173000I-150000J0D01*
G01*
X39500000Y73173000D01*
G75*
G02*
X39350000Y73323000I0J150000D01*
G01*
X39350000Y73623000D01*
G75*
G02*
X39500000Y73773000I150000J0D01*
G01*
X40675000Y73773000D01*
G75*
G02*
X40825000Y73623000I0J-150000D01*
G01*
G37*
G36*
G01*
X42700000Y74573000D02*
X42700000Y74273000D01*
G75*
G02*
X42550000Y74123000I-150000J0D01*
G01*
X41375000Y74123000D01*
G75*
G02*
X41225000Y74273000I0J150000D01*
G01*
X41225000Y74573000D01*
G75*
G02*
X41375000Y74723000I150000J0D01*
G01*
X42550000Y74723000D01*
G75*
G02*
X42700000Y74573000I0J-150000D01*
G01*
G37*
G04 #@! TD*
D10*
G04 #@! TO.C,Q15*
X63125000Y33598000D03*
X63125000Y31298000D03*
X63125000Y28998000D03*
D11*
X69425000Y31298000D03*
G04 #@! TD*
G04 #@! TO.C,R21*
G36*
G01*
X52237750Y58772071D02*
X51562250Y58382071D01*
G75*
G02*
X51466628Y58407693I-35000J60622D01*
G01*
X51186628Y58892667D01*
G75*
G02*
X51212250Y58988289I60622J35000D01*
G01*
X51887750Y59378289D01*
G75*
G02*
X51983372Y59352667I35000J-60622D01*
G01*
X52263372Y58867693D01*
G75*
G02*
X52237750Y58772071I-60622J-35000D01*
G01*
G37*
G36*
G01*
X51437750Y60157711D02*
X50762250Y59767711D01*
G75*
G02*
X50666628Y59793333I-35000J60622D01*
G01*
X50386628Y60278307D01*
G75*
G02*
X50412250Y60373929I60622J35000D01*
G01*
X51087750Y60763929D01*
G75*
G02*
X51183372Y60738307I35000J-60622D01*
G01*
X51463372Y60253333D01*
G75*
G02*
X51437750Y60157711I-60622J-35000D01*
G01*
G37*
G04 #@! TD*
G04 #@! TO.C,Q11*
G36*
G01*
X47350000Y72623000D02*
X47350000Y72323000D01*
G75*
G02*
X47200000Y72173000I-150000J0D01*
G01*
X46025000Y72173000D01*
G75*
G02*
X45875000Y72323000I0J150000D01*
G01*
X45875000Y72623000D01*
G75*
G02*
X46025000Y72773000I150000J0D01*
G01*
X47200000Y72773000D01*
G75*
G02*
X47350000Y72623000I0J-150000D01*
G01*
G37*
G36*
G01*
X45475000Y73573000D02*
X45475000Y73273000D01*
G75*
G02*
X45325000Y73123000I-150000J0D01*
G01*
X44150000Y73123000D01*
G75*
G02*
X44000000Y73273000I0J150000D01*
G01*
X44000000Y73573000D01*
G75*
G02*
X44150000Y73723000I150000J0D01*
G01*
X45325000Y73723000D01*
G75*
G02*
X45475000Y73573000I0J-150000D01*
G01*
G37*
G36*
G01*
X47350000Y74523000D02*
X47350000Y74223000D01*
G75*
G02*
X47200000Y74073000I-150000J0D01*
G01*
X46025000Y74073000D01*
G75*
G02*
X45875000Y74223000I0J150000D01*
G01*
X45875000Y74523000D01*
G75*
G02*
X46025000Y74673000I150000J0D01*
G01*
X47200000Y74673000D01*
G75*
G02*
X47350000Y74523000I0J-150000D01*
G01*
G37*
G04 #@! TD*
G04 #@! TO.C,F2*
G36*
G01*
X114669990Y46923000D02*
X113979990Y46923000D01*
G75*
G02*
X113749990Y47153000I0J230000D01*
G01*
X113749990Y48493000D01*
G75*
G02*
X113979990Y48723000I230000J0D01*
G01*
X114669990Y48723000D01*
G75*
G02*
X114899990Y48493000I0J-230000D01*
G01*
X114899990Y47153000D01*
G75*
G02*
X114669990Y46923000I-230000J0D01*
G01*
G37*
G36*
G01*
X117570010Y46923000D02*
X116880010Y46923000D01*
G75*
G02*
X116650010Y47153000I0J230000D01*
G01*
X116650010Y48493000D01*
G75*
G02*
X116880010Y48723000I230000J0D01*
G01*
X117570010Y48723000D01*
G75*
G02*
X117800010Y48493000I0J-230000D01*
G01*
X117800010Y47153000D01*
G75*
G02*
X117570010Y46923000I-230000J0D01*
G01*
G37*
G04 #@! TD*
D14*
G04 #@! TO.C,U2*
X140687500Y48248000D03*
X140687500Y46748000D03*
X140687500Y45248000D03*
X140687500Y43748000D03*
X140687500Y42248000D03*
X140687500Y40748000D03*
X140687500Y39248000D03*
X140687500Y37748000D03*
X140687500Y36248000D03*
X140687500Y34748000D03*
X140687500Y33248000D03*
X140687500Y31748000D03*
X140687500Y30248000D03*
X153387500Y30248000D03*
X153387500Y31748000D03*
X153387500Y33248000D03*
X153387500Y34748000D03*
X153387500Y36248000D03*
X153387500Y37748000D03*
X153387500Y39248000D03*
X153387500Y40748000D03*
X153387500Y42248000D03*
X153387500Y43748000D03*
X153387500Y45248000D03*
X153387500Y46748000D03*
X153387500Y48248000D03*
G04 #@! TD*
G04 #@! TO.C,Q2*
G36*
G01*
X7145382Y43462505D02*
X6539164Y43112505D01*
G75*
G02*
X6197658Y43204011I-125000J216506D01*
G01*
X5347658Y44676255D01*
G75*
G02*
X5439164Y45017761I216506J125000D01*
G01*
X6045382Y45367761D01*
G75*
G02*
X6386888Y45276255I125000J-216506D01*
G01*
X7236888Y43804011D01*
G75*
G02*
X7145382Y43462505I-216506J-125000D01*
G01*
G37*
G36*
G01*
X6370401Y47864812D02*
X4421843Y46739812D01*
G75*
G02*
X4080337Y46831318I-125000J216506D01*
G01*
X2805337Y49039682D01*
G75*
G02*
X2896843Y49381188I216506J125000D01*
G01*
X4845401Y50506188D01*
G75*
G02*
X5186907Y50414682I125000J-216506D01*
G01*
X6461907Y48206318D01*
G75*
G02*
X6370401Y47864812I-216506J-125000D01*
G01*
G37*
G36*
G01*
X9011779Y49389812D02*
X7063221Y48264812D01*
G75*
G02*
X6721715Y48356318I-125000J216506D01*
G01*
X5446715Y50564682D01*
G75*
G02*
X5538221Y50906188I216506J125000D01*
G01*
X7486779Y52031188D01*
G75*
G02*
X7828285Y51939682I125000J-216506D01*
G01*
X9103285Y49731318D01*
G75*
G02*
X9011779Y49389812I-216506J-125000D01*
G01*
G37*
G36*
G01*
X4695401Y50765998D02*
X2746843Y49640998D01*
G75*
G02*
X2405337Y49732504I-125000J216506D01*
G01*
X1130337Y51940868D01*
G75*
G02*
X1221843Y52282374I216506J125000D01*
G01*
X3170401Y53407374D01*
G75*
G02*
X3511907Y53315868I125000J-216506D01*
G01*
X4786907Y51107504D01*
G75*
G02*
X4695401Y50765998I-216506J-125000D01*
G01*
G37*
G36*
G01*
X7336779Y52290998D02*
X5388221Y51165998D01*
G75*
G02*
X5046715Y51257504I-125000J216506D01*
G01*
X3771715Y53465868D01*
G75*
G02*
X3863221Y53807374I216506J125000D01*
G01*
X5811779Y54932374D01*
G75*
G02*
X6153285Y54840868I125000J-216506D01*
G01*
X7428285Y52632504D01*
G75*
G02*
X7336779Y52290998I-216506J-125000D01*
G01*
G37*
G36*
G01*
X11094458Y45742505D02*
X10488240Y45392505D01*
G75*
G02*
X10146734Y45484011I-125000J216506D01*
G01*
X9296734Y46956255D01*
G75*
G02*
X9388240Y47297761I216506J125000D01*
G01*
X9994458Y47647761D01*
G75*
G02*
X10335964Y47556255I125000J-216506D01*
G01*
X11185964Y46084011D01*
G75*
G02*
X11094458Y45742505I-216506J-125000D01*
G01*
G37*
G04 #@! TD*
G04 #@! TO.C,F1*
G36*
G01*
X125707243Y44767964D02*
X125219340Y45255867D01*
G75*
G02*
X125219340Y45581137I162635J162635D01*
G01*
X126166863Y46528660D01*
G75*
G02*
X126492133Y46528660I162635J-162635D01*
G01*
X126980036Y46040757D01*
G75*
G02*
X126980036Y45715487I-162635J-162635D01*
G01*
X126032513Y44767964D01*
G75*
G02*
X125707243Y44767964I-162635J162635D01*
G01*
G37*
G36*
G01*
X127757867Y42717340D02*
X127269964Y43205243D01*
G75*
G02*
X127269964Y43530513I162635J162635D01*
G01*
X128217487Y44478036D01*
G75*
G02*
X128542757Y44478036I162635J-162635D01*
G01*
X129030660Y43990133D01*
G75*
G02*
X129030660Y43664863I-162635J-162635D01*
G01*
X128083137Y42717340D01*
G75*
G02*
X127757867Y42717340I-162635J162635D01*
G01*
G37*
G04 #@! TD*
G04 #@! TO.C,R3*
G36*
G01*
X114015000Y57723000D02*
X113235000Y57723000D01*
G75*
G02*
X113165000Y57793000I0J70000D01*
G01*
X113165000Y58353000D01*
G75*
G02*
X113235000Y58423000I70000J0D01*
G01*
X114015000Y58423000D01*
G75*
G02*
X114085000Y58353000I0J-70000D01*
G01*
X114085000Y57793000D01*
G75*
G02*
X114015000Y57723000I-70000J0D01*
G01*
G37*
G36*
G01*
X114015000Y59323000D02*
X113235000Y59323000D01*
G75*
G02*
X113165000Y59393000I0J70000D01*
G01*
X113165000Y59953000D01*
G75*
G02*
X113235000Y60023000I70000J0D01*
G01*
X114015000Y60023000D01*
G75*
G02*
X114085000Y59953000I0J-70000D01*
G01*
X114085000Y59393000D01*
G75*
G02*
X114015000Y59323000I-70000J0D01*
G01*
G37*
G04 #@! TD*
G04 #@! TO.C,R22*
G36*
G01*
X52837750Y50297071D02*
X52162250Y49907071D01*
G75*
G02*
X52066628Y49932693I-35000J60622D01*
G01*
X51786628Y50417667D01*
G75*
G02*
X51812250Y50513289I60622J35000D01*
G01*
X52487750Y50903289D01*
G75*
G02*
X52583372Y50877667I35000J-60622D01*
G01*
X52863372Y50392693D01*
G75*
G02*
X52837750Y50297071I-60622J-35000D01*
G01*
G37*
G36*
G01*
X52037750Y51682711D02*
X51362250Y51292711D01*
G75*
G02*
X51266628Y51318333I-35000J60622D01*
G01*
X50986628Y51803307D01*
G75*
G02*
X51012250Y51898929I60622J35000D01*
G01*
X51687750Y52288929D01*
G75*
G02*
X51783372Y52263307I35000J-60622D01*
G01*
X52063372Y51778333D01*
G75*
G02*
X52037750Y51682711I-60622J-35000D01*
G01*
G37*
G04 #@! TD*
G04 #@! TO.C,R7*
G36*
G01*
X118775000Y12958000D02*
X118775000Y13738000D01*
G75*
G02*
X118845000Y13808000I70000J0D01*
G01*
X119405000Y13808000D01*
G75*
G02*
X119475000Y13738000I0J-70000D01*
G01*
X119475000Y12958000D01*
G75*
G02*
X119405000Y12888000I-70000J0D01*
G01*
X118845000Y12888000D01*
G75*
G02*
X118775000Y12958000I0J70000D01*
G01*
G37*
G36*
G01*
X120375000Y12958000D02*
X120375000Y13738000D01*
G75*
G02*
X120445000Y13808000I70000J0D01*
G01*
X121005000Y13808000D01*
G75*
G02*
X121075000Y13738000I0J-70000D01*
G01*
X121075000Y12958000D01*
G75*
G02*
X121005000Y12888000I-70000J0D01*
G01*
X120445000Y12888000D01*
G75*
G02*
X120375000Y12958000I0J70000D01*
G01*
G37*
G04 #@! TD*
M02*
