M48
; DRILL file {KiCad 7.0.10-7.0.10~ubuntu22.04.1} date Sat Jan  6 05:06:27 2024
; FORMAT={2:4/ absolute / inch / suppress leading zeros}
; #@! TF.CreationDate,2024-01-06T05:06:27+00:00
; #@! TF.GenerationSoftware,Kicad,Pcbnew,7.0.10-7.0.10~ubuntu22.04.1
; #@! TF.FileFunction,MixedPlating,1,4
FMAT,2
INCH,TZ
; #@! TA.AperFunction,Plated,PTH,ViaDrill
T1C0.0079
; #@! TA.AperFunction,Plated,PTH,ComponentDrill
T2C0.0118
; #@! TA.AperFunction,Plated,PTH,ViaDrill
T3C0.0157
; #@! TA.AperFunction,Plated,PTH,ComponentDrill
T4C0.0236
; #@! TA.AperFunction,Plated,PTH,ComponentDrill
T5C0.0320
; #@! TA.AperFunction,Plated,PTH,ComponentDrill
T6C0.0394
; #@! TA.AperFunction,Plated,PTH,ComponentDrill
T7C0.0433
; #@! TA.AperFunction,Plated,PTH,ComponentDrill
T8C0.0689
; #@! TA.AperFunction,Plated,PTH,ComponentDrill
T9C0.1260
; #@! TA.AperFunction,NonPlated,NPTH,ComponentDrill
T10C0.0256
; #@! TA.AperFunction,NonPlated,NPTH,ComponentDrill
T11C0.1122
%
G90
G05
T1
X11247Y27789
X12468Y22220
X17035Y15874
X17122Y7245
X17360Y4635
X17413Y10233
X18023Y7132
X19461Y3939
X24219Y5480
X28964Y22311
X32692Y21516
X32693Y9466
X33465Y16591
X33963Y10707
X38911Y12021
X38946Y16808
X39731Y7005
X43648Y13784
X45187Y14971
X46976Y18876
X48576Y19715
X48728Y11259
X48873Y27183
X49239Y21778
X49964Y27929
X50128Y18324
X50813Y21849
X54899Y27052
X55425Y1996
T2
X1345Y3082
X1739Y3082
X2132Y3082
X2387Y20857
X2526Y3082
X2780Y20857
X3453Y13551
X3853Y13551
X3906Y15178
X4379Y15178
X4750Y13551
X4851Y15178
X5144Y13551
X5324Y15178
X5538Y13551
X8519Y10456
X8519Y10062
X18381Y17160
X18381Y16845
X18381Y16530
X18381Y16215
X18381Y15900
X18381Y15585
X18381Y15270
X18381Y14956
X18381Y14641
X18381Y14326
X18381Y14011
X18381Y13696
X18381Y13381
X18381Y13066
X18381Y12436
X18381Y11885
X18381Y11570
X18381Y11255
X18381Y10940
X18381Y10625
X18381Y10310
X18381Y18853
X18381Y12751
X18538Y7475
X18853Y7475
X19168Y7475
X19483Y7475
X19798Y7475
X20113Y7475
X20428Y7475
X20743Y7475
X20979Y21412
X21058Y7475
X21373Y7475
X21452Y21412
X21688Y7475
X21924Y21412
X22003Y7475
X22396Y21412
X22869Y21412
X22948Y7475
X23263Y7475
X23341Y21412
X23578Y7475
X23814Y21412
X23893Y7475
X24207Y7475
X24286Y21412
X24522Y7475
X24759Y21412
X24837Y7475
X25152Y7475
X25231Y21412
X25467Y7475
X25704Y21412
X26176Y21412
X26648Y21412
X27121Y21412
X27160Y7475
X27593Y21412
X27936Y24802
X27936Y24408
X28066Y21412
X28223Y7475
X28538Y21412
X28617Y7475
X29011Y21412
X29483Y21412
X29956Y21412
X30428Y21412
X31373Y21412
X31530Y20428
X31530Y20034
X31530Y15822
X31530Y15428
X31530Y15034
X31530Y14641
X31530Y14247
X31530Y13853
X31530Y13459
X31530Y13066
X31530Y12042
X31530Y11727
X31530Y9877
X31530Y9326
X31530Y7475
X33615Y27345
X33615Y26872
X33615Y26400
X33615Y25928
X44067Y9040
X44067Y8646
X44067Y8253
X44067Y7859
X54536Y6932
X54536Y6532
X54536Y5635
X54536Y5241
X54536Y4847
T3
X11644Y28512
X15267Y18853
X15618Y8227
X18540Y5707
X20960Y4366
X28455Y5978
X35384Y12688
X36655Y20822
X36964Y15630
X38324Y8004
X38647Y5941
X41438Y13264
X41578Y17183
X43094Y20604
X45917Y21305
X46772Y27197
X48175Y13621
X48371Y12672
X48606Y17180
X50491Y14376
X51953Y17039
X52358Y27027
X54137Y21919
X56259Y15748
X58078Y12935
T5
X10046Y22277
X10127Y20692
X11410Y20913
X11492Y19328
T6
X8696Y11578
X8696Y9117
X8696Y7424
X8696Y6676
X8696Y4156
X14799Y11400
X14799Y6656
X14799Y4707
X14799Y3979
T7
X3317Y25307
X3317Y23693
X5561Y25307
X5561Y23693
X7805Y25307
X7805Y23693
X10049Y25307
X10049Y23693
X12293Y25307
X12293Y23693
X14537Y25307
X14537Y23693
X16781Y25307
X16781Y23693
X19026Y25307
X19026Y23693
X21270Y25307
X21270Y23693
X23514Y25307
X23514Y23693
X25758Y25307
X25758Y23693
X37175Y25288
X37175Y23674
X39419Y25288
X39419Y23674
X41663Y25288
X41663Y23674
X43907Y25288
X43907Y23674
X46152Y25288
X46152Y23674
X48396Y25288
X48396Y23674
X50640Y25288
X50640Y23674
X52884Y25288
X52884Y23674
X55128Y25288
X55128Y23674
X57372Y25288
X57372Y23674
X59616Y25288
X59616Y23674
T8
X25987Y4438
X25987Y1289
X26774Y2863
X27561Y4438
X27561Y1289
X28349Y2863
X29136Y4438
X29136Y1289
X29924Y2863
X30711Y4438
X30711Y1289
X31498Y2863
X32286Y4438
X32286Y1289
X33073Y2863
X33861Y4438
X33861Y1289
X34648Y2863
X35435Y4438
X35435Y1289
X36223Y2863
X37010Y4438
X37010Y1289
T9
X11578Y14481
X52326Y1863
T10
X46117Y2643
X48393Y2643
T11
X23428Y2667
X39569Y2667
T4
X45554Y3057G85X45554Y2624
G05
X45554Y1313G85X45554Y1076
G05
X48956Y3057G85X48956Y2624
G05
X48956Y1313G85X48956Y1076
G05
M30
