M48
; DRILL file {KiCad 7.0.10-7.0.10~ubuntu22.04.1} date Tue Jan  2 04:04:11 2024
; FORMAT={2:4/ absolute / inch / suppress leading zeros}
; #@! TF.CreationDate,2024-01-02T04:04:11+00:00
; #@! TF.GenerationSoftware,Kicad,Pcbnew,7.0.10-7.0.10~ubuntu22.04.1
; #@! TF.FileFunction,MixedPlating,1,4
FMAT,2
INCH,TZ
; #@! TA.AperFunction,Plated,PTH,ViaDrill
T1C0.0079
; #@! TA.AperFunction,Plated,PTH,ComponentDrill
T2C0.0118
; #@! TA.AperFunction,Plated,PTH,ViaDrill
T3C0.0157
; #@! TA.AperFunction,Plated,PTH,ComponentDrill
T4C0.0236
; #@! TA.AperFunction,Plated,PTH,ViaDrill
T5C0.0320
; #@! TA.AperFunction,Plated,PTH,ComponentDrill
T6C0.0320
; #@! TA.AperFunction,Plated,PTH,ComponentDrill
T7C0.0394
; #@! TA.AperFunction,Plated,PTH,ComponentDrill
T8C0.0433
; #@! TA.AperFunction,Plated,PTH,ComponentDrill
T9C0.0689
; #@! TA.AperFunction,Plated,PTH,ComponentDrill
T10C0.1260
; #@! TA.AperFunction,NonPlated,NPTH,ComponentDrill
T11C0.0256
; #@! TA.AperFunction,NonPlated,NPTH,ComponentDrill
T12C0.1122
%
G90
G05
T1
X2136Y15760
X5522Y16075
X8809Y16902
X10108Y16882
X12254Y17552
X13061Y26351
X13179Y18575
X14439Y16036
X14616Y27217
X14813Y28181
X19419Y21607
X19695Y22552
X19715Y27099
X21624Y19894
X21821Y10819
X22195Y14107
X22234Y16036
X22982Y18674
X23120Y21705
X26821Y16469
X27175Y16036
X28691Y15662
X42014Y5381
X42025Y5675
X42155Y26152
X42293Y26390
X45501Y22178
X47681Y19152
X48947Y5741
X51506Y27315
X54360Y7788
T2
X2293Y1725
X2687Y1725
X3081Y1725
X3474Y1725
X4401Y12194
X4801Y12194
X5699Y12194
X6093Y12194
X6486Y12194
X8799Y3683
X9193Y3683
X9587Y3683
X9980Y3683
X10907Y14152
X11307Y14152
X12205Y14152
X12598Y14152
X12992Y14152
X28051Y23969
X28051Y23496
X28051Y23024
X28051Y22552
X29232Y17374
X29232Y17059
X29232Y16744
X29232Y16430
X29232Y16115
X29232Y15800
X29232Y15485
X29232Y15170
X29232Y14855
X29232Y14540
X29232Y14225
X29232Y13910
X29232Y13595
X29232Y13280
X29232Y12650
X29232Y12099
X29232Y11784
X29232Y11469
X29232Y11154
X29232Y10839
X29232Y10524
X29232Y19067
X29232Y12965
X29390Y7689
X29705Y7689
X30020Y7689
X30335Y7689
X30650Y7689
X30965Y7689
X31280Y7689
X31594Y7689
X31831Y21626
X31909Y7689
X32224Y7689
X32303Y21626
X32539Y7689
X32776Y21626
X32854Y7689
X33248Y21626
X33720Y21626
X33730Y25489
X33730Y25095
X33799Y7689
X34114Y7689
X34193Y21626
X34429Y7689
X34665Y21626
X34744Y7689
X35059Y7689
X35138Y21626
X35374Y7689
X35610Y21626
X35689Y7689
X36004Y7689
X36083Y21626
X36319Y7689
X36555Y21626
X37028Y21626
X37500Y21626
X37972Y21626
X38012Y7689
X38445Y21626
X38917Y21626
X39075Y7689
X39390Y21626
X39469Y7689
X39862Y21626
X40335Y21626
X40807Y21626
X41280Y21626
X42224Y21626
X42382Y20642
X42382Y20248
X42382Y16036
X42382Y15642
X42382Y15248
X42382Y14855
X42382Y14461
X42382Y14067
X42382Y13674
X42382Y13280
X42382Y12256
X42382Y11941
X42382Y10091
X42382Y9540
X42382Y7689
X46398Y7591
X46791Y7591
X48937Y19658
X48937Y19185
X48937Y18713
X48937Y18241
X54616Y21178
X54616Y20784
X61575Y10426
X61575Y7000
X61929Y7000
X61949Y10426
X62323Y10426
T3
X13022Y22650
X15737Y15635
X17392Y18359
X18573Y20878
X19242Y17059
X20581Y13142
X22549Y11626
X23219Y27237
X23960Y10470
X25640Y13949
X39439Y7000
X58455Y24540
T5
X992Y19914
X4057Y20064
X7549Y21129
X10581Y21797
T6
X44063Y17846
X44063Y15917
X44929Y5987
X46429Y5987
X48727Y17235
X50091Y15871
T7
X45276Y7768
X45453Y13870
X47736Y7768
X49429Y7768
X50177Y7768
X50197Y13870
X52146Y13870
X52697Y7768
X52874Y13870
X52904Y16144
X54392Y16144
T8
X3346Y25278
X3346Y23664
X5591Y25278
X5591Y23664
X7835Y25278
X7835Y23664
X10079Y25278
X10079Y23664
X12323Y25278
X12323Y23664
X14567Y25278
X14567Y23664
X16811Y25278
X16811Y23664
X19055Y25278
X19055Y23664
X21299Y25278
X21299Y23664
X23543Y25278
X23543Y23664
X25787Y25278
X25787Y23664
X37205Y25258
X37205Y23644
X39449Y25258
X39449Y23644
X41693Y25258
X41693Y23644
X43937Y25258
X43937Y23644
X46181Y25258
X46181Y23644
X48425Y25258
X48425Y23644
X50669Y25258
X50669Y23644
X52913Y25258
X52913Y23644
X55157Y25258
X55157Y23644
X57402Y25258
X57402Y23644
X59646Y25258
X59646Y23644
T9
X25987Y4438
X25987Y1289
X26774Y2863
X27561Y4438
X27561Y1289
X28349Y2863
X29136Y4438
X29136Y1289
X29924Y2863
X30711Y4438
X30711Y1289
X31498Y2863
X32286Y4438
X32286Y1289
X33073Y2863
X33861Y4438
X33861Y1289
X34648Y2863
X35435Y4438
X35435Y1289
X36223Y2863
X37010Y4438
X37010Y1289
T10
X16211Y7670
X57431Y7670
T11
X47750Y2711
X50026Y2711
T12
X23428Y2667
X39569Y2667
T4
X47187Y3124G85X47187Y2691
G05
X47187Y1380G85X47187Y1144
G05
X50589Y3124G85X50589Y2691
G05
X50589Y1380G85X50589Y1144
G05
M30
