G04 #@! TF.GenerationSoftware,KiCad,Pcbnew,7.0.10-7.0.10~ubuntu22.04.1*
G04 #@! TF.CreationDate,2023-12-31T17:22:27+00:00*
G04 #@! TF.ProjectId,uaeficopiedtovfr,75616566-6963-46f7-9069-6564746f7666,rev?*
G04 #@! TF.SameCoordinates,Original*
G04 #@! TF.FileFunction,Soldermask,Bot*
G04 #@! TF.FilePolarity,Negative*
%FSLAX46Y46*%
G04 Gerber Fmt 4.6, Leading zero omitted, Abs format (unit mm)*
G04 Created by KiCad (PCBNEW 7.0.10-7.0.10~ubuntu22.04.1) date 2023-12-31 17:22:27*
%MOMM*%
%LPD*%
G01*
G04 APERTURE LIST*
%ADD10C,0.120000*%
%ADD11C,1.524000*%
%ADD12C,5.600000*%
%ADD13C,0.600000*%
%ADD14C,0.599999*%
%ADD15C,1.500000*%
%ADD16C,2.850000*%
%ADD17R,2.625000X2.625000*%
%ADD18C,2.625000*%
%ADD19C,1.700000*%
%ADD20C,0.650000*%
%ADD21O,1.000000X2.100000*%
%ADD22O,1.000000X1.600000*%
G04 APERTURE END LIST*
G04 #@! TO.C,U2*
D10*
X153612500Y45125000D02*
X140612500Y45125000D01*
X140612500Y52125000D01*
X153612500Y52125000D01*
X153612500Y45125000D01*
G36*
X153612500Y45125000D02*
G01*
X140612500Y45125000D01*
X140612500Y52125000D01*
X153612500Y52125000D01*
X153612500Y45125000D01*
G37*
G04 #@! TD*
D11*
G04 #@! TO.C,R4*
X118005000Y15225000D03*
X114195000Y15225000D03*
G04 #@! TD*
D12*
G04 #@! TO.C,H2*
X41250000Y19500000D03*
G04 #@! TD*
D13*
G04 #@! TO.C,M2*
X156475002Y26500000D03*
X157425002Y26500000D03*
X158375000Y26500000D03*
X157375002Y17800000D03*
X156475002Y17800000D03*
G04 #@! TD*
G04 #@! TO.C,M3*
X71325000Y59700000D03*
X71325000Y60900000D03*
X71325000Y58500000D03*
X71325000Y57300000D03*
X85750000Y63760000D03*
X85750000Y64760000D03*
G04 #@! TD*
D14*
G04 #@! TO.C,M8*
X138824992Y13725010D03*
X140400006Y8820001D03*
X153104024Y8829064D03*
X144624996Y8150000D03*
X145800000Y8150000D03*
X147974994Y8150000D03*
X150199996Y8150000D03*
G04 #@! TD*
D15*
G04 #@! TO.C,M1*
X133924999Y19750005D03*
X127525002Y19750005D03*
X125624999Y19750005D03*
X121324999Y19750005D03*
D13*
X118925002Y19300006D03*
X117925001Y19300006D03*
D15*
X115074999Y19750005D03*
X134375001Y35250002D03*
X132525002Y35250002D03*
X127574999Y35250002D03*
X115525001Y35250002D03*
G04 #@! TD*
D16*
G04 #@! TO.C,J4*
X59600000Y2350000D03*
X100600000Y2350000D03*
D17*
X66100000Y6850000D03*
D18*
X70100000Y6850000D03*
X74100000Y6850000D03*
X78100000Y6850000D03*
X82100000Y6850000D03*
X86100000Y6850000D03*
X90100000Y6850000D03*
X94100000Y6850000D03*
X68100000Y2850000D03*
X72100000Y2850000D03*
X76100000Y2850000D03*
X80100000Y2850000D03*
X84100000Y2850000D03*
X88100000Y2850000D03*
X92100000Y2850000D03*
X66100000Y-1150000D03*
X70100000Y-1150000D03*
X74100000Y-1150000D03*
X78100000Y-1150000D03*
X82100000Y-1150000D03*
X86100000Y-1150000D03*
X90100000Y-1150000D03*
X94100000Y-1150000D03*
G04 #@! TD*
G04 #@! TO.C,U1*
G36*
G01*
X64525000Y59325001D02*
X64525000Y60924999D01*
G75*
G02*
X64775001Y61175000I250001J0D01*
G01*
X66374999Y61175000D01*
G75*
G02*
X66625000Y60924999I0J-250001D01*
G01*
X66625000Y59325001D01*
G75*
G02*
X66374999Y59075000I-250001J0D01*
G01*
X64775001Y59075000D01*
G75*
G02*
X64525000Y59325001I0J250001D01*
G01*
G37*
G36*
G01*
X58825000Y59325001D02*
X58825000Y60924999D01*
G75*
G02*
X59075001Y61175000I250001J0D01*
G01*
X60674999Y61175000D01*
G75*
G02*
X60925000Y60924999I0J-250001D01*
G01*
X60925000Y59325001D01*
G75*
G02*
X60674999Y59075000I-250001J0D01*
G01*
X59075001Y59075000D01*
G75*
G02*
X58825000Y59325001I0J250001D01*
G01*
G37*
G36*
G01*
X53125000Y59325001D02*
X53125000Y60924999D01*
G75*
G02*
X53375001Y61175000I250001J0D01*
G01*
X54974999Y61175000D01*
G75*
G02*
X55225000Y60924999I0J-250001D01*
G01*
X55225000Y59325001D01*
G75*
G02*
X54974999Y59075000I-250001J0D01*
G01*
X53375001Y59075000D01*
G75*
G02*
X53125000Y59325001I0J250001D01*
G01*
G37*
G36*
G01*
X47425000Y59325001D02*
X47425000Y60924999D01*
G75*
G02*
X47675001Y61175000I250001J0D01*
G01*
X49274999Y61175000D01*
G75*
G02*
X49525000Y60924999I0J-250001D01*
G01*
X49525000Y59325001D01*
G75*
G02*
X49274999Y59075000I-250001J0D01*
G01*
X47675001Y59075000D01*
G75*
G02*
X47425000Y59325001I0J250001D01*
G01*
G37*
G36*
G01*
X41725000Y59325001D02*
X41725000Y60924999D01*
G75*
G02*
X41975001Y61175000I250001J0D01*
G01*
X43574999Y61175000D01*
G75*
G02*
X43825000Y60924999I0J-250001D01*
G01*
X43825000Y59325001D01*
G75*
G02*
X43574999Y59075000I-250001J0D01*
G01*
X41975001Y59075000D01*
G75*
G02*
X41725000Y59325001I0J250001D01*
G01*
G37*
G36*
G01*
X36025000Y59325001D02*
X36025000Y60924999D01*
G75*
G02*
X36275001Y61175000I250001J0D01*
G01*
X37874999Y61175000D01*
G75*
G02*
X38125000Y60924999I0J-250001D01*
G01*
X38125000Y59325001D01*
G75*
G02*
X37874999Y59075000I-250001J0D01*
G01*
X36275001Y59075000D01*
G75*
G02*
X36025000Y59325001I0J250001D01*
G01*
G37*
G36*
G01*
X30325000Y59325001D02*
X30325000Y60924999D01*
G75*
G02*
X30575001Y61175000I250001J0D01*
G01*
X32174999Y61175000D01*
G75*
G02*
X32425000Y60924999I0J-250001D01*
G01*
X32425000Y59325001D01*
G75*
G02*
X32174999Y59075000I-250001J0D01*
G01*
X30575001Y59075000D01*
G75*
G02*
X30325000Y59325001I0J250001D01*
G01*
G37*
G36*
G01*
X24625000Y59325001D02*
X24625000Y60924999D01*
G75*
G02*
X24875001Y61175000I250001J0D01*
G01*
X26474999Y61175000D01*
G75*
G02*
X26725000Y60924999I0J-250001D01*
G01*
X26725000Y59325001D01*
G75*
G02*
X26474999Y59075000I-250001J0D01*
G01*
X24875001Y59075000D01*
G75*
G02*
X24625000Y59325001I0J250001D01*
G01*
G37*
G36*
G01*
X18925000Y59325001D02*
X18925000Y60924999D01*
G75*
G02*
X19175001Y61175000I250001J0D01*
G01*
X20774999Y61175000D01*
G75*
G02*
X21025000Y60924999I0J-250001D01*
G01*
X21025000Y59325001D01*
G75*
G02*
X20774999Y59075000I-250001J0D01*
G01*
X19175001Y59075000D01*
G75*
G02*
X18925000Y59325001I0J250001D01*
G01*
G37*
G36*
G01*
X13225000Y59325001D02*
X13225000Y60924999D01*
G75*
G02*
X13475001Y61175000I250001J0D01*
G01*
X15074999Y61175000D01*
G75*
G02*
X15325000Y60924999I0J-250001D01*
G01*
X15325000Y59325001D01*
G75*
G02*
X15074999Y59075000I-250001J0D01*
G01*
X13475001Y59075000D01*
G75*
G02*
X13225000Y59325001I0J250001D01*
G01*
G37*
G36*
G01*
X7525000Y59325001D02*
X7525000Y60924999D01*
G75*
G02*
X7775001Y61175000I250001J0D01*
G01*
X9374999Y61175000D01*
G75*
G02*
X9625000Y60924999I0J-250001D01*
G01*
X9625000Y59325001D01*
G75*
G02*
X9374999Y59075000I-250001J0D01*
G01*
X7775001Y59075000D01*
G75*
G02*
X7525000Y59325001I0J250001D01*
G01*
G37*
G36*
G01*
X64525000Y63425001D02*
X64525000Y65024999D01*
G75*
G02*
X64775001Y65275000I250001J0D01*
G01*
X66374999Y65275000D01*
G75*
G02*
X66625000Y65024999I0J-250001D01*
G01*
X66625000Y63425001D01*
G75*
G02*
X66374999Y63175000I-250001J0D01*
G01*
X64775001Y63175000D01*
G75*
G02*
X64525000Y63425001I0J250001D01*
G01*
G37*
G36*
G01*
X58825000Y63425001D02*
X58825000Y65024999D01*
G75*
G02*
X59075001Y65275000I250001J0D01*
G01*
X60674999Y65275000D01*
G75*
G02*
X60925000Y65024999I0J-250001D01*
G01*
X60925000Y63425001D01*
G75*
G02*
X60674999Y63175000I-250001J0D01*
G01*
X59075001Y63175000D01*
G75*
G02*
X58825000Y63425001I0J250001D01*
G01*
G37*
G36*
G01*
X53125000Y63425001D02*
X53125000Y65024999D01*
G75*
G02*
X53375001Y65275000I250001J0D01*
G01*
X54974999Y65275000D01*
G75*
G02*
X55225000Y65024999I0J-250001D01*
G01*
X55225000Y63425001D01*
G75*
G02*
X54974999Y63175000I-250001J0D01*
G01*
X53375001Y63175000D01*
G75*
G02*
X53125000Y63425001I0J250001D01*
G01*
G37*
G36*
G01*
X47425000Y63425001D02*
X47425000Y65024999D01*
G75*
G02*
X47675001Y65275000I250001J0D01*
G01*
X49274999Y65275000D01*
G75*
G02*
X49525000Y65024999I0J-250001D01*
G01*
X49525000Y63425001D01*
G75*
G02*
X49274999Y63175000I-250001J0D01*
G01*
X47675001Y63175000D01*
G75*
G02*
X47425000Y63425001I0J250001D01*
G01*
G37*
G36*
G01*
X41725000Y63425001D02*
X41725000Y65024999D01*
G75*
G02*
X41975001Y65275000I250001J0D01*
G01*
X43574999Y65275000D01*
G75*
G02*
X43825000Y65024999I0J-250001D01*
G01*
X43825000Y63425001D01*
G75*
G02*
X43574999Y63175000I-250001J0D01*
G01*
X41975001Y63175000D01*
G75*
G02*
X41725000Y63425001I0J250001D01*
G01*
G37*
G36*
G01*
X36025000Y63425001D02*
X36025000Y65024999D01*
G75*
G02*
X36275001Y65275000I250001J0D01*
G01*
X37874999Y65275000D01*
G75*
G02*
X38125000Y65024999I0J-250001D01*
G01*
X38125000Y63425001D01*
G75*
G02*
X37874999Y63175000I-250001J0D01*
G01*
X36275001Y63175000D01*
G75*
G02*
X36025000Y63425001I0J250001D01*
G01*
G37*
G36*
G01*
X30325000Y63425001D02*
X30325000Y65024999D01*
G75*
G02*
X30575001Y65275000I250001J0D01*
G01*
X32174999Y65275000D01*
G75*
G02*
X32425000Y65024999I0J-250001D01*
G01*
X32425000Y63425001D01*
G75*
G02*
X32174999Y63175000I-250001J0D01*
G01*
X30575001Y63175000D01*
G75*
G02*
X30325000Y63425001I0J250001D01*
G01*
G37*
G36*
G01*
X24625000Y63425001D02*
X24625000Y65024999D01*
G75*
G02*
X24875001Y65275000I250001J0D01*
G01*
X26474999Y65275000D01*
G75*
G02*
X26725000Y65024999I0J-250001D01*
G01*
X26725000Y63425001D01*
G75*
G02*
X26474999Y63175000I-250001J0D01*
G01*
X24875001Y63175000D01*
G75*
G02*
X24625000Y63425001I0J250001D01*
G01*
G37*
G36*
G01*
X18925000Y63425001D02*
X18925000Y65024999D01*
G75*
G02*
X19175001Y65275000I250001J0D01*
G01*
X20774999Y65275000D01*
G75*
G02*
X21025000Y65024999I0J-250001D01*
G01*
X21025000Y63425001D01*
G75*
G02*
X20774999Y63175000I-250001J0D01*
G01*
X19175001Y63175000D01*
G75*
G02*
X18925000Y63425001I0J250001D01*
G01*
G37*
G36*
G01*
X13225000Y63425001D02*
X13225000Y65024999D01*
G75*
G02*
X13475001Y65275000I250001J0D01*
G01*
X15074999Y65275000D01*
G75*
G02*
X15325000Y65024999I0J-250001D01*
G01*
X15325000Y63425001D01*
G75*
G02*
X15074999Y63175000I-250001J0D01*
G01*
X13475001Y63175000D01*
G75*
G02*
X13225000Y63425001I0J250001D01*
G01*
G37*
G36*
G01*
X7525000Y63425001D02*
X7525000Y65024999D01*
G75*
G02*
X7775001Y65275000I250001J0D01*
G01*
X9374999Y65275000D01*
G75*
G02*
X9625000Y65024999I0J-250001D01*
G01*
X9625000Y63425001D01*
G75*
G02*
X9374999Y63175000I-250001J0D01*
G01*
X7775001Y63175000D01*
G75*
G02*
X7525000Y63425001I0J250001D01*
G01*
G37*
G36*
G01*
X150525000Y59275001D02*
X150525000Y60874999D01*
G75*
G02*
X150775001Y61125000I250001J0D01*
G01*
X152374999Y61125000D01*
G75*
G02*
X152625000Y60874999I0J-250001D01*
G01*
X152625000Y59275001D01*
G75*
G02*
X152374999Y59025000I-250001J0D01*
G01*
X150775001Y59025000D01*
G75*
G02*
X150525000Y59275001I0J250001D01*
G01*
G37*
G36*
G01*
X144825000Y59275001D02*
X144825000Y60874999D01*
G75*
G02*
X145075001Y61125000I250001J0D01*
G01*
X146674999Y61125000D01*
G75*
G02*
X146925000Y60874999I0J-250001D01*
G01*
X146925000Y59275001D01*
G75*
G02*
X146674999Y59025000I-250001J0D01*
G01*
X145075001Y59025000D01*
G75*
G02*
X144825000Y59275001I0J250001D01*
G01*
G37*
G36*
G01*
X139125000Y59275001D02*
X139125000Y60874999D01*
G75*
G02*
X139375001Y61125000I250001J0D01*
G01*
X140974999Y61125000D01*
G75*
G02*
X141225000Y60874999I0J-250001D01*
G01*
X141225000Y59275001D01*
G75*
G02*
X140974999Y59025000I-250001J0D01*
G01*
X139375001Y59025000D01*
G75*
G02*
X139125000Y59275001I0J250001D01*
G01*
G37*
G36*
G01*
X133425000Y59275001D02*
X133425000Y60874999D01*
G75*
G02*
X133675001Y61125000I250001J0D01*
G01*
X135274999Y61125000D01*
G75*
G02*
X135525000Y60874999I0J-250001D01*
G01*
X135525000Y59275001D01*
G75*
G02*
X135274999Y59025000I-250001J0D01*
G01*
X133675001Y59025000D01*
G75*
G02*
X133425000Y59275001I0J250001D01*
G01*
G37*
G36*
G01*
X127725000Y59275001D02*
X127725000Y60874999D01*
G75*
G02*
X127975001Y61125000I250001J0D01*
G01*
X129574999Y61125000D01*
G75*
G02*
X129825000Y60874999I0J-250001D01*
G01*
X129825000Y59275001D01*
G75*
G02*
X129574999Y59025000I-250001J0D01*
G01*
X127975001Y59025000D01*
G75*
G02*
X127725000Y59275001I0J250001D01*
G01*
G37*
G36*
G01*
X122025000Y59275001D02*
X122025000Y60874999D01*
G75*
G02*
X122275001Y61125000I250001J0D01*
G01*
X123874999Y61125000D01*
G75*
G02*
X124125000Y60874999I0J-250001D01*
G01*
X124125000Y59275001D01*
G75*
G02*
X123874999Y59025000I-250001J0D01*
G01*
X122275001Y59025000D01*
G75*
G02*
X122025000Y59275001I0J250001D01*
G01*
G37*
G36*
G01*
X116325000Y59275001D02*
X116325000Y60874999D01*
G75*
G02*
X116575001Y61125000I250001J0D01*
G01*
X118174999Y61125000D01*
G75*
G02*
X118425000Y60874999I0J-250001D01*
G01*
X118425000Y59275001D01*
G75*
G02*
X118174999Y59025000I-250001J0D01*
G01*
X116575001Y59025000D01*
G75*
G02*
X116325000Y59275001I0J250001D01*
G01*
G37*
G36*
G01*
X110625000Y59275001D02*
X110625000Y60874999D01*
G75*
G02*
X110875001Y61125000I250001J0D01*
G01*
X112474999Y61125000D01*
G75*
G02*
X112725000Y60874999I0J-250001D01*
G01*
X112725000Y59275001D01*
G75*
G02*
X112474999Y59025000I-250001J0D01*
G01*
X110875001Y59025000D01*
G75*
G02*
X110625000Y59275001I0J250001D01*
G01*
G37*
G36*
G01*
X104925000Y59275001D02*
X104925000Y60874999D01*
G75*
G02*
X105175001Y61125000I250001J0D01*
G01*
X106774999Y61125000D01*
G75*
G02*
X107025000Y60874999I0J-250001D01*
G01*
X107025000Y59275001D01*
G75*
G02*
X106774999Y59025000I-250001J0D01*
G01*
X105175001Y59025000D01*
G75*
G02*
X104925000Y59275001I0J250001D01*
G01*
G37*
G36*
G01*
X99225000Y59275001D02*
X99225000Y60874999D01*
G75*
G02*
X99475001Y61125000I250001J0D01*
G01*
X101074999Y61125000D01*
G75*
G02*
X101325000Y60874999I0J-250001D01*
G01*
X101325000Y59275001D01*
G75*
G02*
X101074999Y59025000I-250001J0D01*
G01*
X99475001Y59025000D01*
G75*
G02*
X99225000Y59275001I0J250001D01*
G01*
G37*
G36*
G01*
X93525000Y59275001D02*
X93525000Y60874999D01*
G75*
G02*
X93775001Y61125000I250001J0D01*
G01*
X95374999Y61125000D01*
G75*
G02*
X95625000Y60874999I0J-250001D01*
G01*
X95625000Y59275001D01*
G75*
G02*
X95374999Y59025000I-250001J0D01*
G01*
X93775001Y59025000D01*
G75*
G02*
X93525000Y59275001I0J250001D01*
G01*
G37*
G36*
G01*
X150525000Y63375001D02*
X150525000Y64974999D01*
G75*
G02*
X150775001Y65225000I250001J0D01*
G01*
X152374999Y65225000D01*
G75*
G02*
X152625000Y64974999I0J-250001D01*
G01*
X152625000Y63375001D01*
G75*
G02*
X152374999Y63125000I-250001J0D01*
G01*
X150775001Y63125000D01*
G75*
G02*
X150525000Y63375001I0J250001D01*
G01*
G37*
G36*
G01*
X144825000Y63375001D02*
X144825000Y64974999D01*
G75*
G02*
X145075001Y65225000I250001J0D01*
G01*
X146674999Y65225000D01*
G75*
G02*
X146925000Y64974999I0J-250001D01*
G01*
X146925000Y63375001D01*
G75*
G02*
X146674999Y63125000I-250001J0D01*
G01*
X145075001Y63125000D01*
G75*
G02*
X144825000Y63375001I0J250001D01*
G01*
G37*
G36*
G01*
X139125000Y63375001D02*
X139125000Y64974999D01*
G75*
G02*
X139375001Y65225000I250001J0D01*
G01*
X140974999Y65225000D01*
G75*
G02*
X141225000Y64974999I0J-250001D01*
G01*
X141225000Y63375001D01*
G75*
G02*
X140974999Y63125000I-250001J0D01*
G01*
X139375001Y63125000D01*
G75*
G02*
X139125000Y63375001I0J250001D01*
G01*
G37*
G36*
G01*
X133425000Y63375001D02*
X133425000Y64974999D01*
G75*
G02*
X133675001Y65225000I250001J0D01*
G01*
X135274999Y65225000D01*
G75*
G02*
X135525000Y64974999I0J-250001D01*
G01*
X135525000Y63375001D01*
G75*
G02*
X135274999Y63125000I-250001J0D01*
G01*
X133675001Y63125000D01*
G75*
G02*
X133425000Y63375001I0J250001D01*
G01*
G37*
G36*
G01*
X127725000Y63375001D02*
X127725000Y64974999D01*
G75*
G02*
X127975001Y65225000I250001J0D01*
G01*
X129574999Y65225000D01*
G75*
G02*
X129825000Y64974999I0J-250001D01*
G01*
X129825000Y63375001D01*
G75*
G02*
X129574999Y63125000I-250001J0D01*
G01*
X127975001Y63125000D01*
G75*
G02*
X127725000Y63375001I0J250001D01*
G01*
G37*
G36*
G01*
X122025000Y63375001D02*
X122025000Y64974999D01*
G75*
G02*
X122275001Y65225000I250001J0D01*
G01*
X123874999Y65225000D01*
G75*
G02*
X124125000Y64974999I0J-250001D01*
G01*
X124125000Y63375001D01*
G75*
G02*
X123874999Y63125000I-250001J0D01*
G01*
X122275001Y63125000D01*
G75*
G02*
X122025000Y63375001I0J250001D01*
G01*
G37*
G36*
G01*
X116325000Y63375001D02*
X116325000Y64974999D01*
G75*
G02*
X116575001Y65225000I250001J0D01*
G01*
X118174999Y65225000D01*
G75*
G02*
X118425000Y64974999I0J-250001D01*
G01*
X118425000Y63375001D01*
G75*
G02*
X118174999Y63125000I-250001J0D01*
G01*
X116575001Y63125000D01*
G75*
G02*
X116325000Y63375001I0J250001D01*
G01*
G37*
G36*
G01*
X110625000Y63375001D02*
X110625000Y64974999D01*
G75*
G02*
X110875001Y65225000I250001J0D01*
G01*
X112474999Y65225000D01*
G75*
G02*
X112725000Y64974999I0J-250001D01*
G01*
X112725000Y63375001D01*
G75*
G02*
X112474999Y63125000I-250001J0D01*
G01*
X110875001Y63125000D01*
G75*
G02*
X110625000Y63375001I0J250001D01*
G01*
G37*
G36*
G01*
X104925000Y63375001D02*
X104925000Y64974999D01*
G75*
G02*
X105175001Y65225000I250001J0D01*
G01*
X106774999Y65225000D01*
G75*
G02*
X107025000Y64974999I0J-250001D01*
G01*
X107025000Y63375001D01*
G75*
G02*
X106774999Y63125000I-250001J0D01*
G01*
X105175001Y63125000D01*
G75*
G02*
X104925000Y63375001I0J250001D01*
G01*
G37*
G36*
G01*
X99225000Y63375001D02*
X99225000Y64974999D01*
G75*
G02*
X99475001Y65225000I250001J0D01*
G01*
X101074999Y65225000D01*
G75*
G02*
X101325000Y64974999I0J-250001D01*
G01*
X101325000Y63375001D01*
G75*
G02*
X101074999Y63125000I-250001J0D01*
G01*
X99475001Y63125000D01*
G75*
G02*
X99225000Y63375001I0J250001D01*
G01*
G37*
G36*
G01*
X93525000Y63375001D02*
X93525000Y64974999D01*
G75*
G02*
X93775001Y65225000I250001J0D01*
G01*
X95374999Y65225000D01*
G75*
G02*
X95625000Y64974999I0J-250001D01*
G01*
X95625000Y63375001D01*
G75*
G02*
X95374999Y63125000I-250001J0D01*
G01*
X93775001Y63125000D01*
G75*
G02*
X93525000Y63375001I0J250001D01*
G01*
G37*
G04 #@! TD*
D13*
G04 #@! TO.C,M4*
X124375000Y48750000D03*
X124375000Y49950000D03*
X124375000Y47550000D03*
X124375000Y46350000D03*
X138800000Y52810000D03*
X138800000Y53810000D03*
G04 #@! TD*
D19*
G04 #@! TO.C,P3*
X134450000Y41025000D03*
G04 #@! TD*
D20*
G04 #@! TO.C,J9*
X121360000Y6905000D03*
X127140000Y6905000D03*
D21*
X119930000Y7405000D03*
D22*
X119930000Y3225000D03*
D21*
X128570000Y7405000D03*
D22*
X128570000Y3225000D03*
G04 #@! TD*
D12*
G04 #@! TO.C,H1*
X145950000Y19500000D03*
G04 #@! TD*
D19*
G04 #@! TO.C,P4*
X138230000Y41025000D03*
G04 #@! TD*
D11*
G04 #@! TO.C,F2*
X113400000Y44125000D03*
X118300000Y44125000D03*
G04 #@! TD*
G04 #@! TO.C,F1*
X125467588Y42657412D03*
X128932412Y39192588D03*
G04 #@! TD*
G04 #@! TO.C,R14*
G36*
G01*
X25346586Y47342646D02*
X22878414Y45917646D01*
G75*
G02*
X22536908Y46009152I-125000J216506D01*
G01*
X22174408Y46637020D01*
G75*
G02*
X22265914Y46978526I216506J125000D01*
G01*
X24734086Y48403526D01*
G75*
G02*
X25075592Y48312020I125000J-216506D01*
G01*
X25438092Y47684152D01*
G75*
G02*
X25346586Y47342646I-216506J-125000D01*
G01*
G37*
G36*
G01*
X22384086Y52473846D02*
X19915914Y51048846D01*
G75*
G02*
X19574408Y51140352I-125000J216506D01*
G01*
X19211908Y51768220D01*
G75*
G02*
X19303414Y52109726I216506J125000D01*
G01*
X21771586Y53534726D01*
G75*
G02*
X22113092Y53443220I125000J-216506D01*
G01*
X22475592Y52815352D01*
G75*
G02*
X22384086Y52473846I-216506J-125000D01*
G01*
G37*
G04 #@! TD*
G04 #@! TO.C,R12*
G36*
G01*
X34154775Y49229553D02*
X31686603Y47804553D01*
G75*
G02*
X31345097Y47896059I-125000J216506D01*
G01*
X30982597Y48523927D01*
G75*
G02*
X31074103Y48865433I216506J125000D01*
G01*
X33542275Y50290433D01*
G75*
G02*
X33883781Y50198927I125000J-216506D01*
G01*
X34246281Y49571059D01*
G75*
G02*
X34154775Y49229553I-216506J-125000D01*
G01*
G37*
G36*
G01*
X31192275Y54360753D02*
X28724103Y52935753D01*
G75*
G02*
X28382597Y53027259I-125000J216506D01*
G01*
X28020097Y53655127D01*
G75*
G02*
X28111603Y53996633I216506J125000D01*
G01*
X30579775Y55421633D01*
G75*
G02*
X30921281Y55330127I125000J-216506D01*
G01*
X31283781Y54702259D01*
G75*
G02*
X31192275Y54360753I-216506J-125000D01*
G01*
G37*
G04 #@! TD*
G04 #@! TO.C,R15*
G36*
G01*
X13562750Y40199071D02*
X12887250Y39809071D01*
G75*
G02*
X12791628Y39834693I-35000J60622D01*
G01*
X12511628Y40319667D01*
G75*
G02*
X12537250Y40415289I60622J35000D01*
G01*
X13212750Y40805289D01*
G75*
G02*
X13308372Y40779667I35000J-60622D01*
G01*
X13588372Y40294693D01*
G75*
G02*
X13562750Y40199071I-60622J-35000D01*
G01*
G37*
G36*
G01*
X12762750Y41584711D02*
X12087250Y41194711D01*
G75*
G02*
X11991628Y41220333I-35000J60622D01*
G01*
X11711628Y41705307D01*
G75*
G02*
X11737250Y41800929I60622J35000D01*
G01*
X12412750Y42190929D01*
G75*
G02*
X12508372Y42165307I35000J-60622D01*
G01*
X12788372Y41680333D01*
G75*
G02*
X12762750Y41584711I-60622J-35000D01*
G01*
G37*
G04 #@! TD*
G04 #@! TO.C,D2*
G36*
G01*
X52445000Y53385000D02*
X52445000Y52365000D01*
G75*
G02*
X52355000Y52275000I-90000J0D01*
G01*
X51635000Y52275000D01*
G75*
G02*
X51545000Y52365000I0J90000D01*
G01*
X51545000Y53385000D01*
G75*
G02*
X51635000Y53475000I90000J0D01*
G01*
X52355000Y53475000D01*
G75*
G02*
X52445000Y53385000I0J-90000D01*
G01*
G37*
G36*
G01*
X49145000Y53385000D02*
X49145000Y52365000D01*
G75*
G02*
X49055000Y52275000I-90000J0D01*
G01*
X48335000Y52275000D01*
G75*
G02*
X48245000Y52365000I0J90000D01*
G01*
X48245000Y53385000D01*
G75*
G02*
X48335000Y53475000I90000J0D01*
G01*
X49055000Y53475000D01*
G75*
G02*
X49145000Y53385000I0J-90000D01*
G01*
G37*
G04 #@! TD*
G04 #@! TO.C,D5*
G36*
G01*
X53962168Y38508417D02*
X54683417Y37787168D01*
G75*
G02*
X54683417Y37659888I-63640J-63640D01*
G01*
X54174300Y37150771D01*
G75*
G02*
X54047020Y37150771I-63640J63640D01*
G01*
X53325771Y37872020D01*
G75*
G02*
X53325771Y37999300I63640J63640D01*
G01*
X53834888Y38508417D01*
G75*
G02*
X53962168Y38508417I63640J-63640D01*
G01*
G37*
G36*
G01*
X51628716Y36174965D02*
X52349965Y35453716D01*
G75*
G02*
X52349965Y35326436I-63640J-63640D01*
G01*
X51840848Y34817319D01*
G75*
G02*
X51713568Y34817319I-63640J63640D01*
G01*
X50992319Y35538568D01*
G75*
G02*
X50992319Y35665848I63640J63640D01*
G01*
X51501436Y36174965D01*
G75*
G02*
X51628716Y36174965I63640J-63640D01*
G01*
G37*
G04 #@! TD*
G04 #@! TO.C,R30*
G36*
G01*
X65190000Y53100000D02*
X64410000Y53100000D01*
G75*
G02*
X64340000Y53170000I0J70000D01*
G01*
X64340000Y53730000D01*
G75*
G02*
X64410000Y53800000I70000J0D01*
G01*
X65190000Y53800000D01*
G75*
G02*
X65260000Y53730000I0J-70000D01*
G01*
X65260000Y53170000D01*
G75*
G02*
X65190000Y53100000I-70000J0D01*
G01*
G37*
G36*
G01*
X65190000Y54700000D02*
X64410000Y54700000D01*
G75*
G02*
X64340000Y54770000I0J70000D01*
G01*
X64340000Y55330000D01*
G75*
G02*
X64410000Y55400000I70000J0D01*
G01*
X65190000Y55400000D01*
G75*
G02*
X65260000Y55330000I0J-70000D01*
G01*
X65260000Y54770000D01*
G75*
G02*
X65190000Y54700000I-70000J0D01*
G01*
G37*
G04 #@! TD*
G04 #@! TO.C,R9*
G36*
G01*
X30712750Y43949071D02*
X30037250Y43559071D01*
G75*
G02*
X29941628Y43584693I-35000J60622D01*
G01*
X29661628Y44069667D01*
G75*
G02*
X29687250Y44165289I60622J35000D01*
G01*
X30362750Y44555289D01*
G75*
G02*
X30458372Y44529667I35000J-60622D01*
G01*
X30738372Y44044693D01*
G75*
G02*
X30712750Y43949071I-60622J-35000D01*
G01*
G37*
G36*
G01*
X29912750Y45334711D02*
X29237250Y44944711D01*
G75*
G02*
X29141628Y44970333I-35000J60622D01*
G01*
X28861628Y45455307D01*
G75*
G02*
X28887250Y45550929I60622J35000D01*
G01*
X29562750Y45940929D01*
G75*
G02*
X29658372Y45915307I35000J-60622D01*
G01*
X29938372Y45430333D01*
G75*
G02*
X29912750Y45334711I-60622J-35000D01*
G01*
G37*
G04 #@! TD*
G04 #@! TO.C,R18*
G36*
G01*
X17471586Y44666460D02*
X15003414Y43241460D01*
G75*
G02*
X14661908Y43332966I-125000J216506D01*
G01*
X14299408Y43960834D01*
G75*
G02*
X14390914Y44302340I216506J125000D01*
G01*
X16859086Y45727340D01*
G75*
G02*
X17200592Y45635834I125000J-216506D01*
G01*
X17563092Y45007966D01*
G75*
G02*
X17471586Y44666460I-216506J-125000D01*
G01*
G37*
G36*
G01*
X14509086Y49797660D02*
X12040914Y48372660D01*
G75*
G02*
X11699408Y48464166I-125000J216506D01*
G01*
X11336908Y49092034D01*
G75*
G02*
X11428414Y49433540I216506J125000D01*
G01*
X13896586Y50858540D01*
G75*
G02*
X14238092Y50767034I125000J-216506D01*
G01*
X14600592Y50139166D01*
G75*
G02*
X14509086Y49797660I-216506J-125000D01*
G01*
G37*
G04 #@! TD*
G04 #@! TO.C,R29*
G36*
G01*
X65290000Y45400000D02*
X64510000Y45400000D01*
G75*
G02*
X64440000Y45470000I0J70000D01*
G01*
X64440000Y46030000D01*
G75*
G02*
X64510000Y46100000I70000J0D01*
G01*
X65290000Y46100000D01*
G75*
G02*
X65360000Y46030000I0J-70000D01*
G01*
X65360000Y45470000D01*
G75*
G02*
X65290000Y45400000I-70000J0D01*
G01*
G37*
G36*
G01*
X65290000Y47000000D02*
X64510000Y47000000D01*
G75*
G02*
X64440000Y47070000I0J70000D01*
G01*
X64440000Y47630000D01*
G75*
G02*
X64510000Y47700000I70000J0D01*
G01*
X65290000Y47700000D01*
G75*
G02*
X65360000Y47630000I0J-70000D01*
G01*
X65360000Y47070000D01*
G75*
G02*
X65290000Y47000000I-70000J0D01*
G01*
G37*
G04 #@! TD*
G04 #@! TO.C,D3*
G36*
G01*
X54500000Y43885000D02*
X54500000Y42865000D01*
G75*
G02*
X54410000Y42775000I-90000J0D01*
G01*
X53690000Y42775000D01*
G75*
G02*
X53600000Y42865000I0J90000D01*
G01*
X53600000Y43885000D01*
G75*
G02*
X53690000Y43975000I90000J0D01*
G01*
X54410000Y43975000D01*
G75*
G02*
X54500000Y43885000I0J-90000D01*
G01*
G37*
G36*
G01*
X51200000Y43885000D02*
X51200000Y42865000D01*
G75*
G02*
X51110000Y42775000I-90000J0D01*
G01*
X50390000Y42775000D01*
G75*
G02*
X50300000Y42865000I0J90000D01*
G01*
X50300000Y43885000D01*
G75*
G02*
X50390000Y43975000I90000J0D01*
G01*
X51110000Y43975000D01*
G75*
G02*
X51200000Y43885000I0J-90000D01*
G01*
G37*
G04 #@! TD*
G04 #@! TO.C,D4*
G36*
G01*
X44695000Y40160000D02*
X44695000Y39140000D01*
G75*
G02*
X44605000Y39050000I-90000J0D01*
G01*
X43885000Y39050000D01*
G75*
G02*
X43795000Y39140000I0J90000D01*
G01*
X43795000Y40160000D01*
G75*
G02*
X43885000Y40250000I90000J0D01*
G01*
X44605000Y40250000D01*
G75*
G02*
X44695000Y40160000I0J-90000D01*
G01*
G37*
G36*
G01*
X41395000Y40160000D02*
X41395000Y39140000D01*
G75*
G02*
X41305000Y39050000I-90000J0D01*
G01*
X40585000Y39050000D01*
G75*
G02*
X40495000Y39140000I0J90000D01*
G01*
X40495000Y40160000D01*
G75*
G02*
X40585000Y40250000I90000J0D01*
G01*
X41305000Y40250000D01*
G75*
G02*
X41395000Y40160000I0J-90000D01*
G01*
G37*
G04 #@! TD*
G04 #@! TO.C,R10*
G36*
G01*
X5262750Y39549071D02*
X4587250Y39159071D01*
G75*
G02*
X4491628Y39184693I-35000J60622D01*
G01*
X4211628Y39669667D01*
G75*
G02*
X4237250Y39765289I60622J35000D01*
G01*
X4912750Y40155289D01*
G75*
G02*
X5008372Y40129667I35000J-60622D01*
G01*
X5288372Y39644693D01*
G75*
G02*
X5262750Y39549071I-60622J-35000D01*
G01*
G37*
G36*
G01*
X4462750Y40934711D02*
X3787250Y40544711D01*
G75*
G02*
X3691628Y40570333I-35000J60622D01*
G01*
X3411628Y41055307D01*
G75*
G02*
X3437250Y41150929I60622J35000D01*
G01*
X4112750Y41540929D01*
G75*
G02*
X4208372Y41515307I35000J-60622D01*
G01*
X4488372Y41030333D01*
G75*
G02*
X4462750Y40934711I-60622J-35000D01*
G01*
G37*
G04 #@! TD*
G04 #@! TO.C,R13*
G36*
G01*
X9213397Y43029553D02*
X6745225Y41604553D01*
G75*
G02*
X6403719Y41696059I-125000J216506D01*
G01*
X6041219Y42323927D01*
G75*
G02*
X6132725Y42665433I216506J125000D01*
G01*
X8600897Y44090433D01*
G75*
G02*
X8942403Y43998927I125000J-216506D01*
G01*
X9304903Y43371059D01*
G75*
G02*
X9213397Y43029553I-216506J-125000D01*
G01*
G37*
G36*
G01*
X6250897Y48160753D02*
X3782725Y46735753D01*
G75*
G02*
X3441219Y46827259I-125000J216506D01*
G01*
X3078719Y47455127D01*
G75*
G02*
X3170225Y47796633I216506J125000D01*
G01*
X5638397Y49221633D01*
G75*
G02*
X5979903Y49130127I125000J-216506D01*
G01*
X6342403Y48502259D01*
G75*
G02*
X6250897Y48160753I-216506J-125000D01*
G01*
G37*
G04 #@! TD*
G04 #@! TO.C,R11*
G36*
G01*
X21812750Y42549071D02*
X21137250Y42159071D01*
G75*
G02*
X21041628Y42184693I-35000J60622D01*
G01*
X20761628Y42669667D01*
G75*
G02*
X20787250Y42765289I60622J35000D01*
G01*
X21462750Y43155289D01*
G75*
G02*
X21558372Y43129667I35000J-60622D01*
G01*
X21838372Y42644693D01*
G75*
G02*
X21812750Y42549071I-60622J-35000D01*
G01*
G37*
G36*
G01*
X21012750Y43934711D02*
X20337250Y43544711D01*
G75*
G02*
X20241628Y43570333I-35000J60622D01*
G01*
X19961628Y44055307D01*
G75*
G02*
X19987250Y44150929I60622J35000D01*
G01*
X20662750Y44540929D01*
G75*
G02*
X20758372Y44515307I35000J-60622D01*
G01*
X21038372Y44030333D01*
G75*
G02*
X21012750Y43934711I-60622J-35000D01*
G01*
G37*
G04 #@! TD*
M02*
