M48
; DRILL file {KiCad 7.0.10-7.0.10~ubuntu22.04.1} date Sun Dec 31 21:49:38 2023
; FORMAT={2:4/ absolute / inch / suppress leading zeros}
; #@! TF.CreationDate,2023-12-31T21:49:38+00:00
; #@! TF.GenerationSoftware,Kicad,Pcbnew,7.0.10-7.0.10~ubuntu22.04.1
; #@! TF.FileFunction,MixedPlating,1,4
FMAT,2
INCH,TZ
; #@! TA.AperFunction,Plated,PTH,ViaDrill
T1C0.0079
; #@! TA.AperFunction,Plated,PTH,ComponentDrill
T2C0.0118
; #@! TA.AperFunction,Plated,PTH,ComponentDrill
T3C0.0118
; #@! TA.AperFunction,Plated,PTH,ViaDrill
T4C0.0157
; #@! TA.AperFunction,Plated,PTH,ComponentDrill
T5C0.0236
; #@! TA.AperFunction,Plated,PTH,ViaDrill
T6C0.0320
; #@! TA.AperFunction,Plated,PTH,ComponentDrill
T7C0.0320
; #@! TA.AperFunction,Plated,PTH,ComponentDrill
T8C0.0394
; #@! TA.AperFunction,Plated,PTH,ComponentDrill
T9C0.0433
; #@! TA.AperFunction,Plated,PTH,ComponentDrill
T10C0.0689
; #@! TA.AperFunction,Plated,PTH,ComponentDrill
T11C0.1260
; #@! TA.AperFunction,NonPlated,NPTH,ComponentDrill
T12C0.0256
; #@! TA.AperFunction,NonPlated,NPTH,ComponentDrill
T13C0.1122
%
G90
G05
T1
X2165Y17254
X5551Y17569
X8839Y18396
X10138Y18376
X12283Y19045
X13091Y27844
X13209Y20069
X14469Y17529
X14646Y28711
X14843Y29675
X19449Y23100
X19724Y24045
X19744Y28593
X21654Y21388
X21850Y12313
X22224Y15600
X22264Y17530
X23012Y20167
X23150Y23199
X26850Y17963
X27205Y17530
X28720Y17156
X41988Y6506
X42008Y6781
X42184Y27646
X42323Y27884
X45315Y23514
X47972Y20384
X48976Y7234
X51535Y28809
X54390Y9281
T2
X54656Y6890
X55276Y4959
X56939Y4695
X57402Y4695
X58258Y4695
X59134Y4695
X60277Y4962
T3
X2323Y3219
X2717Y3219
X3110Y3219
X3504Y3219
X4431Y13687
X4831Y13687
X5728Y13687
X6122Y13687
X6516Y13687
X8829Y5177
X9222Y5177
X9616Y5177
X10010Y5177
X10937Y15646
X11337Y15646
X12234Y15646
X12628Y15646
X13022Y15646
X28081Y25463
X28081Y24990
X28081Y24518
X28081Y24045
X29262Y18868
X29262Y18553
X29262Y18238
X29262Y17923
X29262Y17608
X29262Y17293
X29262Y16978
X29262Y16663
X29262Y16348
X29262Y16033
X29262Y15719
X29262Y15404
X29262Y15089
X29262Y14774
X29262Y14144
X29262Y13593
X29262Y13278
X29262Y12963
X29262Y12648
X29262Y12333
X29262Y12018
X29262Y20561
X29262Y14459
X29419Y9183
X29734Y9183
X30049Y9183
X30364Y9183
X30679Y9183
X30994Y9183
X31309Y9183
X31624Y9183
X31860Y23120
X31939Y9183
X32254Y9183
X32333Y23120
X32569Y9183
X32805Y23120
X32884Y9183
X33278Y23120
X33750Y23120
X33760Y26982
X33760Y26589
X33829Y9183
X34144Y9183
X34222Y23120
X34459Y9183
X34695Y23120
X34774Y9183
X35089Y9183
X35167Y23120
X35404Y9183
X35640Y23120
X35719Y9183
X36033Y9183
X36112Y23120
X36348Y9183
X36585Y23120
X37057Y23120
X37530Y23120
X38002Y23120
X38041Y9183
X38474Y23120
X38947Y23120
X39104Y9183
X39419Y23120
X39498Y9183
X39892Y23120
X40364Y23120
X40837Y23120
X41309Y23120
X42254Y23120
X42411Y22136
X42411Y21742
X42411Y17530
X42411Y17136
X42411Y16742
X42411Y16348
X42411Y15955
X42411Y15561
X42411Y15167
X42411Y14774
X42411Y13750
X42411Y13435
X42411Y11585
X42411Y11033
X42411Y9183
X46427Y9085
X46821Y9085
X48967Y21152
X48967Y20679
X48967Y20207
X48967Y19734
X54646Y22671
X54646Y22278
X61604Y11919
X61604Y8494
X61959Y8494
X61978Y11919
X62352Y11919
T4
X13051Y24144
X16083Y17746
X17421Y19852
X18602Y22372
X19272Y18553
X20610Y14636
X22579Y13120
X23248Y28730
X25669Y15443
X39469Y8494
X58484Y26033
T6
X1022Y21407
X4087Y21557
X7579Y22623
X10610Y23291
T7
X44646Y18858
X44959Y7480
X46459Y7480
X46575Y18858
X49397Y18280
X50761Y16916
T8
X45305Y9262
X45482Y15364
X47766Y9262
X49459Y9262
X50207Y9262
X50226Y15364
X52175Y15364
X52726Y9262
X52904Y15364
X52933Y17638
X54421Y17638
T9
X3376Y26772
X3376Y25157
X5620Y26772
X5620Y25157
X7864Y26772
X7864Y25157
X10108Y26772
X10108Y25157
X12352Y26772
X12352Y25157
X14596Y26772
X14596Y25157
X16841Y26772
X16841Y25157
X19085Y26772
X19085Y25157
X21329Y26772
X21329Y25157
X23573Y26772
X23573Y25157
X25817Y26772
X25817Y25157
X37234Y26752
X37234Y25138
X39478Y26752
X39478Y25138
X41722Y26752
X41722Y25138
X43967Y26752
X43967Y25138
X46211Y26752
X46211Y25138
X48455Y26752
X48455Y25138
X50699Y26752
X50699Y25138
X52943Y26752
X52943Y25138
X55187Y26752
X55187Y25138
X57431Y26752
X57431Y25138
X59675Y26752
X59675Y25138
T10
X26024Y4183
X26024Y1033
X26811Y2608
X27598Y4183
X27598Y1033
X28386Y2608
X29173Y4183
X29173Y1033
X29961Y2608
X30748Y4183
X30748Y1033
X31535Y2608
X32323Y4183
X32323Y1033
X33110Y2608
X33898Y4183
X33898Y1033
X34685Y2608
X35472Y4183
X35472Y1033
X36260Y2608
X37047Y4183
X37047Y1033
T11
X16240Y9163
X57461Y9163
T12
X47780Y4205
X50055Y4205
T13
X23465Y2411
X39606Y2411
T5
X47217Y4618G85X47217Y4185
G05
X47217Y2874G85X47217Y2638
G05
X50618Y4618G85X50618Y4185
G05
X50618Y2874G85X50618Y2638
G05
M30
