M48
; DRILL file {KiCad 7.0.10-7.0.10~ubuntu22.04.1} date Sun Dec 31 16:39:55 2023
; FORMAT={2:4/ absolute / inch / suppress leading zeros}
; #@! TF.CreationDate,2023-12-31T16:39:55+00:00
; #@! TF.GenerationSoftware,Kicad,Pcbnew,7.0.10-7.0.10~ubuntu22.04.1
; #@! TF.FileFunction,MixedPlating,1,4
FMAT,2
INCH,TZ
; #@! TA.AperFunction,Plated,PTH,ViaDrill
T1C0.0079
; #@! TA.AperFunction,Plated,PTH,ComponentDrill
T2C0.0118
; #@! TA.AperFunction,Plated,PTH,ComponentDrill
T3C0.0118
; #@! TA.AperFunction,Plated,PTH,ViaDrill
T4C0.0157
; #@! TA.AperFunction,Plated,PTH,ComponentDrill
T5C0.0236
; #@! TA.AperFunction,Plated,PTH,ViaDrill
T6C0.0320
; #@! TA.AperFunction,Plated,PTH,ComponentDrill
T7C0.0320
; #@! TA.AperFunction,Plated,PTH,ComponentDrill
T8C0.0394
; #@! TA.AperFunction,Plated,PTH,ComponentDrill
T9C0.0433
; #@! TA.AperFunction,Plated,PTH,ComponentDrill
T10C0.0689
; #@! TA.AperFunction,Plated,PTH,ComponentDrill
T11C0.1260
; #@! TA.AperFunction,NonPlated,NPTH,ComponentDrill
T12C0.0256
; #@! TA.AperFunction,NonPlated,NPTH,ComponentDrill
T13C0.1122
%
G90
G05
T1
X2224Y17234
X5610Y17549
X8898Y18376
X10197Y18356
X12343Y19026
X13150Y27825
X13268Y20049
X14528Y17510
X14705Y28691
X14902Y29656
X19508Y23081
X19783Y24026
X19803Y28573
X21713Y21368
X21909Y12293
X22283Y15581
X22323Y17510
X23071Y20148
X23209Y23179
X26909Y17943
X27264Y17510
X28780Y17136
X42047Y6486
X42067Y6762
X42243Y27626
X42382Y27864
X45374Y23494
X48031Y20364
X49035Y7215
X51594Y28789
X54449Y9262
T2
X54715Y6870
X55335Y4939
X56998Y4675
X57461Y4675
X58317Y4675
X59193Y4675
X60336Y4943
T3
X2382Y3199
X2776Y3199
X3169Y3199
X3563Y3199
X4490Y13668
X4890Y13668
X5787Y13668
X6181Y13668
X6575Y13668
X8888Y5157
X9281Y5157
X9675Y5157
X10069Y5157
X10996Y15626
X11396Y15626
X12293Y15626
X12687Y15626
X13081Y15626
X28140Y25443
X28140Y24970
X28140Y24498
X28140Y24026
X29321Y18848
X29321Y18533
X29321Y18219
X29321Y17904
X29321Y17589
X29321Y17274
X29321Y16959
X29321Y16644
X29321Y16329
X29321Y16014
X29321Y15699
X29321Y15384
X29321Y15069
X29321Y14754
X29321Y14124
X29321Y13573
X29321Y13258
X29321Y12943
X29321Y12628
X29321Y12313
X29321Y11998
X29321Y20541
X29321Y14439
X29478Y9163
X29793Y9163
X30108Y9163
X30423Y9163
X30738Y9163
X31053Y9163
X31368Y9163
X31683Y9163
X31919Y23100
X31998Y9163
X32313Y9163
X32392Y23100
X32628Y9163
X32864Y23100
X32943Y9163
X33337Y23100
X33809Y23100
X33819Y26963
X33819Y26569
X33888Y9163
X34203Y9163
X34281Y23100
X34518Y9163
X34754Y23100
X34833Y9163
X35148Y9163
X35226Y23100
X35463Y9163
X35699Y23100
X35778Y9163
X36093Y9163
X36171Y23100
X36407Y9163
X36644Y23100
X37116Y23100
X37589Y23100
X38061Y23100
X38100Y9163
X38533Y23100
X39006Y23100
X39163Y9163
X39478Y23100
X39557Y9163
X39951Y23100
X40423Y23100
X40896Y23100
X41368Y23100
X42313Y23100
X42470Y22116
X42470Y21722
X42470Y17510
X42470Y17116
X42470Y16722
X42470Y16329
X42470Y15935
X42470Y15541
X42470Y15148
X42470Y14754
X42470Y13730
X42470Y13415
X42470Y11565
X42470Y11014
X42470Y9163
X46486Y9065
X46880Y9065
X49026Y21132
X49026Y20659
X49026Y20187
X49026Y19715
X54705Y22652
X54705Y22258
X61663Y11900
X61663Y8474
X62018Y8474
X62037Y11900
X62411Y11900
T4
X13110Y24124
X16142Y17726
X17480Y19833
X18661Y22352
X19331Y18533
X20669Y14616
X22638Y13100
X23307Y28711
X25728Y15423
X39528Y8474
X58543Y26014
T6
X1081Y21388
X4146Y21538
X7638Y22603
X10669Y23271
T7
X44705Y18839
X45018Y7461
X46518Y7461
X46634Y18839
X49456Y18261
X50820Y16897
T8
X45364Y9242
X45541Y15344
X47825Y9242
X49518Y9242
X50266Y9242
X50285Y15344
X52234Y15344
X52785Y9242
X52963Y15344
X52992Y17618
X54480Y17618
T9
X3435Y26752
X3435Y25138
X5679Y26752
X5679Y25138
X7923Y26752
X7923Y25138
X10167Y26752
X10167Y25138
X12411Y26752
X12411Y25138
X14656Y26752
X14656Y25138
X16900Y26752
X16900Y25138
X19144Y26752
X19144Y25138
X21388Y26752
X21388Y25138
X23632Y26752
X23632Y25138
X25876Y26752
X25876Y25138
X37293Y26732
X37293Y25118
X39537Y26732
X39537Y25118
X41781Y26732
X41781Y25118
X44026Y26732
X44026Y25118
X46270Y26732
X46270Y25118
X48514Y26732
X48514Y25118
X50758Y26732
X50758Y25118
X53002Y26732
X53002Y25118
X55246Y26732
X55246Y25118
X57490Y26732
X57490Y25118
X59734Y26732
X59734Y25118
T10
X26083Y4163
X26083Y1014
X26870Y2589
X27657Y4163
X27657Y1014
X28445Y2589
X29232Y4163
X29232Y1014
X30020Y2589
X30807Y4163
X30807Y1014
X31594Y2589
X32382Y4163
X32382Y1014
X33169Y2589
X33957Y4163
X33957Y1014
X34744Y2589
X35531Y4163
X35531Y1014
X36319Y2589
X37106Y4163
X37106Y1014
T11
X16299Y9144
X57520Y9144
T12
X47839Y4185
X50114Y4185
T13
X23524Y2392
X39665Y2392
T5
X47276Y4598G85X47276Y4165
G05
X47276Y2854G85X47276Y2618
G05
X50677Y4598G85X50677Y4165
G05
X50677Y2854G85X50677Y2618
G05
M30
