M48
; DRILL file {KiCad 7.0.10-7.0.10~ubuntu22.04.1} date Sun Dec 31 22:14:50 2023
; FORMAT={2:4/ absolute / inch / suppress leading zeros}
; #@! TF.CreationDate,2023-12-31T22:14:50+00:00
; #@! TF.GenerationSoftware,Kicad,Pcbnew,7.0.10-7.0.10~ubuntu22.04.1
; #@! TF.FileFunction,MixedPlating,1,4
FMAT,2
INCH,TZ
; #@! TA.AperFunction,Plated,PTH,ViaDrill
T1C0.0079
; #@! TA.AperFunction,Plated,PTH,ComponentDrill
T2C0.0118
; #@! TA.AperFunction,Plated,PTH,ComponentDrill
T3C0.0118
; #@! TA.AperFunction,Plated,PTH,ViaDrill
T4C0.0157
; #@! TA.AperFunction,Plated,PTH,ComponentDrill
T5C0.0236
; #@! TA.AperFunction,Plated,PTH,ViaDrill
T6C0.0320
; #@! TA.AperFunction,Plated,PTH,ComponentDrill
T7C0.0320
; #@! TA.AperFunction,Plated,PTH,ComponentDrill
T8C0.0394
; #@! TA.AperFunction,Plated,PTH,ComponentDrill
T9C0.0433
; #@! TA.AperFunction,Plated,PTH,ComponentDrill
T10C0.0689
; #@! TA.AperFunction,Plated,PTH,ComponentDrill
T11C0.1260
; #@! TA.AperFunction,NonPlated,NPTH,ComponentDrill
T12C0.0256
; #@! TA.AperFunction,NonPlated,NPTH,ComponentDrill
T13C0.1122
%
G90
G05
T1
X2136Y17284
X5522Y17599
X8809Y18426
X10108Y18406
X12254Y19076
X13061Y27875
X13179Y20099
X14439Y17560
X14616Y28741
X14813Y29706
X19419Y23131
X19695Y24076
X19715Y28623
X21624Y21418
X21821Y12343
X22195Y15631
X22234Y17560
X22982Y20198
X23120Y23229
X26821Y17993
X27175Y17560
X28691Y17186
X41959Y6536
X41978Y6812
X42155Y27676
X42293Y27914
X45285Y23544
X47943Y20414
X48947Y7265
X51506Y28839
X54360Y9312
T2
X54626Y6920
X55246Y4989
X56909Y4725
X57372Y4725
X58228Y4725
X59104Y4725
X60248Y4993
T3
X2293Y3249
X2687Y3249
X3081Y3249
X3474Y3249
X4401Y13718
X4801Y13718
X5699Y13718
X6093Y13718
X6486Y13718
X8799Y5207
X9193Y5207
X9587Y5207
X9980Y5207
X10907Y15676
X11307Y15676
X12205Y15676
X12598Y15676
X12992Y15676
X28051Y25493
X28051Y25020
X28051Y24548
X28051Y24076
X29232Y18898
X29232Y18583
X29232Y18269
X29232Y17954
X29232Y17639
X29232Y17324
X29232Y17009
X29232Y16694
X29232Y16379
X29232Y16064
X29232Y15749
X29232Y15434
X29232Y15119
X29232Y14804
X29232Y14174
X29232Y13623
X29232Y13308
X29232Y12993
X29232Y12678
X29232Y12363
X29232Y12048
X29232Y20591
X29232Y14489
X29390Y9213
X29705Y9213
X30020Y9213
X30335Y9213
X30650Y9213
X30965Y9213
X31280Y9213
X31594Y9213
X31831Y23150
X31909Y9213
X32224Y9213
X32303Y23150
X32539Y9213
X32776Y23150
X32854Y9213
X33248Y23150
X33720Y23150
X33730Y27013
X33730Y26619
X33799Y9213
X34114Y9213
X34193Y23150
X34429Y9213
X34665Y23150
X34744Y9213
X35059Y9213
X35138Y23150
X35374Y9213
X35610Y23150
X35689Y9213
X36004Y9213
X36083Y23150
X36319Y9213
X36555Y23150
X37028Y23150
X37500Y23150
X37972Y23150
X38012Y9213
X38445Y23150
X38917Y23150
X39075Y9213
X39390Y23150
X39469Y9213
X39862Y23150
X40335Y23150
X40807Y23150
X41280Y23150
X42224Y23150
X42382Y22166
X42382Y21772
X42382Y17560
X42382Y17166
X42382Y16772
X42382Y16379
X42382Y15985
X42382Y15591
X42382Y15198
X42382Y14804
X42382Y13780
X42382Y13465
X42382Y11615
X42382Y11064
X42382Y9213
X46398Y9115
X46791Y9115
X48937Y21182
X48937Y20709
X48937Y20237
X48937Y19765
X54616Y22702
X54616Y22308
X61575Y11950
X61575Y8524
X61929Y8524
X61949Y11950
X62323Y11950
T4
X13022Y24174
X16053Y17776
X17392Y19883
X18573Y22402
X19242Y18583
X20581Y14666
X22549Y13150
X23219Y28761
X25640Y15473
X39439Y8524
X58455Y26064
T6
X992Y21438
X4057Y21588
X7549Y22653
X10581Y23321
T7
X44616Y18889
X44929Y7511
X46429Y7511
X46545Y18889
X49367Y18311
X50731Y16947
T8
X45276Y9292
X45453Y15394
X47736Y9292
X49429Y9292
X50177Y9292
X50197Y15394
X52146Y15394
X52697Y9292
X52874Y15394
X52904Y17668
X54392Y17668
T9
X3346Y26802
X3346Y25188
X5591Y26802
X5591Y25188
X7835Y26802
X7835Y25188
X10079Y26802
X10079Y25188
X12323Y26802
X12323Y25188
X14567Y26802
X14567Y25188
X16811Y26802
X16811Y25188
X19055Y26802
X19055Y25188
X21299Y26802
X21299Y25188
X23543Y26802
X23543Y25188
X25787Y26802
X25787Y25188
X37205Y26782
X37205Y25168
X39449Y26782
X39449Y25168
X41693Y26782
X41693Y25168
X43937Y26782
X43937Y25168
X46181Y26782
X46181Y25168
X48425Y26782
X48425Y25168
X50669Y26782
X50669Y25168
X52913Y26782
X52913Y25168
X55157Y26782
X55157Y25168
X57402Y26782
X57402Y25168
X59646Y26782
X59646Y25168
T10
X25994Y4213
X25994Y1064
X26781Y2639
X27569Y4213
X27569Y1064
X28356Y2639
X29144Y4213
X29144Y1064
X29931Y2639
X30719Y4213
X30719Y1064
X31506Y2639
X32293Y4213
X32293Y1064
X33081Y2639
X33868Y4213
X33868Y1064
X34656Y2639
X35443Y4213
X35443Y1064
X36230Y2639
X37018Y4213
X37018Y1064
T11
X16211Y9194
X57431Y9194
T12
X47750Y4235
X50026Y4235
T13
X23435Y2442
X39577Y2442
T5
X47187Y4648G85X47187Y4215
G05
X47187Y2904G85X47187Y2668
G05
X50589Y4648G85X50589Y4215
G05
X50589Y2904G85X50589Y2668
G05
M30
