G04 #@! TF.GenerationSoftware,KiCad,Pcbnew,7.0.10-7.0.10~ubuntu22.04.1*
G04 #@! TF.CreationDate,2023-12-31T22:14:49+00:00*
G04 #@! TF.ProjectId,uaeficopiedtovfr,75616566-6963-46f7-9069-6564746f7666,rev?*
G04 #@! TF.SameCoordinates,Original*
G04 #@! TF.FileFunction,Soldermask,Bot*
G04 #@! TF.FilePolarity,Negative*
%FSLAX46Y46*%
G04 Gerber Fmt 4.6, Leading zero omitted, Abs format (unit mm)*
G04 Created by KiCad (PCBNEW 7.0.10-7.0.10~ubuntu22.04.1) date 2023-12-31 22:14:49*
%MOMM*%
%LPD*%
G01*
G04 APERTURE LIST*
%ADD10C,0.120000*%
%ADD11C,1.524000*%
%ADD12C,5.600000*%
%ADD13C,0.600000*%
%ADD14C,0.599999*%
%ADD15C,1.500000*%
%ADD16C,2.850000*%
%ADD17R,2.625000X2.625000*%
%ADD18C,2.625000*%
%ADD19C,1.700000*%
%ADD20C,0.650000*%
%ADD21O,1.000000X2.100000*%
%ADD22O,1.000000X1.600000*%
G04 APERTURE END LIST*
G04 #@! TO.C,U2*
D10*
X153537500Y48977000D02*
X140537500Y48977000D01*
X140537500Y55977000D01*
X153537500Y55977000D01*
X153537500Y48977000D01*
G36*
X153537500Y48977000D02*
G01*
X140537500Y48977000D01*
X140537500Y55977000D01*
X153537500Y55977000D01*
X153537500Y48977000D01*
G37*
G04 #@! TD*
D11*
G04 #@! TO.C,R4*
X117930000Y19077000D03*
X114120000Y19077000D03*
G04 #@! TD*
D12*
G04 #@! TO.C,H2*
X41175000Y23352000D03*
G04 #@! TD*
D13*
G04 #@! TO.C,M2*
X156400002Y30352000D03*
X157350002Y30352000D03*
X158300000Y30352000D03*
X157300002Y21652000D03*
X156400002Y21652000D03*
G04 #@! TD*
G04 #@! TO.C,M3*
X71250000Y63552000D03*
X71250000Y64752000D03*
X71250000Y62352000D03*
X71250000Y61152000D03*
X85675000Y67612000D03*
X85675000Y68612000D03*
G04 #@! TD*
D14*
G04 #@! TO.C,M8*
X138749992Y17577010D03*
X140325006Y12672001D03*
X153029024Y12681064D03*
X144549996Y12002000D03*
X145725000Y12002000D03*
X147899994Y12002000D03*
X150124996Y12002000D03*
G04 #@! TD*
D15*
G04 #@! TO.C,M1*
X133849999Y23602005D03*
X127450002Y23602005D03*
X125549999Y23602005D03*
X121249999Y23602005D03*
D13*
X118850002Y23152006D03*
X117850001Y23152006D03*
D15*
X114999999Y23602005D03*
X134300001Y39102002D03*
X132450002Y39102002D03*
X127499999Y39102002D03*
X115450001Y39102002D03*
G04 #@! TD*
D16*
G04 #@! TO.C,J4*
X59525000Y6202000D03*
X100525000Y6202000D03*
D17*
X66025000Y10702000D03*
D18*
X70025000Y10702000D03*
X74025000Y10702000D03*
X78025000Y10702000D03*
X82025000Y10702000D03*
X86025000Y10702000D03*
X90025000Y10702000D03*
X94025000Y10702000D03*
X68025000Y6702000D03*
X72025000Y6702000D03*
X76025000Y6702000D03*
X80025000Y6702000D03*
X84025000Y6702000D03*
X88025000Y6702000D03*
X92025000Y6702000D03*
X66025000Y2702000D03*
X70025000Y2702000D03*
X74025000Y2702000D03*
X78025000Y2702000D03*
X82025000Y2702000D03*
X86025000Y2702000D03*
X90025000Y2702000D03*
X94025000Y2702000D03*
G04 #@! TD*
G04 #@! TO.C,U1*
G36*
G01*
X64450000Y63177001D02*
X64450000Y64776999D01*
G75*
G02*
X64700001Y65027000I250001J0D01*
G01*
X66299999Y65027000D01*
G75*
G02*
X66550000Y64776999I0J-250001D01*
G01*
X66550000Y63177001D01*
G75*
G02*
X66299999Y62927000I-250001J0D01*
G01*
X64700001Y62927000D01*
G75*
G02*
X64450000Y63177001I0J250001D01*
G01*
G37*
G36*
G01*
X58750000Y63177001D02*
X58750000Y64776999D01*
G75*
G02*
X59000001Y65027000I250001J0D01*
G01*
X60599999Y65027000D01*
G75*
G02*
X60850000Y64776999I0J-250001D01*
G01*
X60850000Y63177001D01*
G75*
G02*
X60599999Y62927000I-250001J0D01*
G01*
X59000001Y62927000D01*
G75*
G02*
X58750000Y63177001I0J250001D01*
G01*
G37*
G36*
G01*
X53050000Y63177001D02*
X53050000Y64776999D01*
G75*
G02*
X53300001Y65027000I250001J0D01*
G01*
X54899999Y65027000D01*
G75*
G02*
X55150000Y64776999I0J-250001D01*
G01*
X55150000Y63177001D01*
G75*
G02*
X54899999Y62927000I-250001J0D01*
G01*
X53300001Y62927000D01*
G75*
G02*
X53050000Y63177001I0J250001D01*
G01*
G37*
G36*
G01*
X47350000Y63177001D02*
X47350000Y64776999D01*
G75*
G02*
X47600001Y65027000I250001J0D01*
G01*
X49199999Y65027000D01*
G75*
G02*
X49450000Y64776999I0J-250001D01*
G01*
X49450000Y63177001D01*
G75*
G02*
X49199999Y62927000I-250001J0D01*
G01*
X47600001Y62927000D01*
G75*
G02*
X47350000Y63177001I0J250001D01*
G01*
G37*
G36*
G01*
X41650000Y63177001D02*
X41650000Y64776999D01*
G75*
G02*
X41900001Y65027000I250001J0D01*
G01*
X43499999Y65027000D01*
G75*
G02*
X43750000Y64776999I0J-250001D01*
G01*
X43750000Y63177001D01*
G75*
G02*
X43499999Y62927000I-250001J0D01*
G01*
X41900001Y62927000D01*
G75*
G02*
X41650000Y63177001I0J250001D01*
G01*
G37*
G36*
G01*
X35950000Y63177001D02*
X35950000Y64776999D01*
G75*
G02*
X36200001Y65027000I250001J0D01*
G01*
X37799999Y65027000D01*
G75*
G02*
X38050000Y64776999I0J-250001D01*
G01*
X38050000Y63177001D01*
G75*
G02*
X37799999Y62927000I-250001J0D01*
G01*
X36200001Y62927000D01*
G75*
G02*
X35950000Y63177001I0J250001D01*
G01*
G37*
G36*
G01*
X30250000Y63177001D02*
X30250000Y64776999D01*
G75*
G02*
X30500001Y65027000I250001J0D01*
G01*
X32099999Y65027000D01*
G75*
G02*
X32350000Y64776999I0J-250001D01*
G01*
X32350000Y63177001D01*
G75*
G02*
X32099999Y62927000I-250001J0D01*
G01*
X30500001Y62927000D01*
G75*
G02*
X30250000Y63177001I0J250001D01*
G01*
G37*
G36*
G01*
X24550000Y63177001D02*
X24550000Y64776999D01*
G75*
G02*
X24800001Y65027000I250001J0D01*
G01*
X26399999Y65027000D01*
G75*
G02*
X26650000Y64776999I0J-250001D01*
G01*
X26650000Y63177001D01*
G75*
G02*
X26399999Y62927000I-250001J0D01*
G01*
X24800001Y62927000D01*
G75*
G02*
X24550000Y63177001I0J250001D01*
G01*
G37*
G36*
G01*
X18850000Y63177001D02*
X18850000Y64776999D01*
G75*
G02*
X19100001Y65027000I250001J0D01*
G01*
X20699999Y65027000D01*
G75*
G02*
X20950000Y64776999I0J-250001D01*
G01*
X20950000Y63177001D01*
G75*
G02*
X20699999Y62927000I-250001J0D01*
G01*
X19100001Y62927000D01*
G75*
G02*
X18850000Y63177001I0J250001D01*
G01*
G37*
G36*
G01*
X13150000Y63177001D02*
X13150000Y64776999D01*
G75*
G02*
X13400001Y65027000I250001J0D01*
G01*
X14999999Y65027000D01*
G75*
G02*
X15250000Y64776999I0J-250001D01*
G01*
X15250000Y63177001D01*
G75*
G02*
X14999999Y62927000I-250001J0D01*
G01*
X13400001Y62927000D01*
G75*
G02*
X13150000Y63177001I0J250001D01*
G01*
G37*
G36*
G01*
X7450000Y63177001D02*
X7450000Y64776999D01*
G75*
G02*
X7700001Y65027000I250001J0D01*
G01*
X9299999Y65027000D01*
G75*
G02*
X9550000Y64776999I0J-250001D01*
G01*
X9550000Y63177001D01*
G75*
G02*
X9299999Y62927000I-250001J0D01*
G01*
X7700001Y62927000D01*
G75*
G02*
X7450000Y63177001I0J250001D01*
G01*
G37*
G36*
G01*
X64450000Y67277001D02*
X64450000Y68876999D01*
G75*
G02*
X64700001Y69127000I250001J0D01*
G01*
X66299999Y69127000D01*
G75*
G02*
X66550000Y68876999I0J-250001D01*
G01*
X66550000Y67277001D01*
G75*
G02*
X66299999Y67027000I-250001J0D01*
G01*
X64700001Y67027000D01*
G75*
G02*
X64450000Y67277001I0J250001D01*
G01*
G37*
G36*
G01*
X58750000Y67277001D02*
X58750000Y68876999D01*
G75*
G02*
X59000001Y69127000I250001J0D01*
G01*
X60599999Y69127000D01*
G75*
G02*
X60850000Y68876999I0J-250001D01*
G01*
X60850000Y67277001D01*
G75*
G02*
X60599999Y67027000I-250001J0D01*
G01*
X59000001Y67027000D01*
G75*
G02*
X58750000Y67277001I0J250001D01*
G01*
G37*
G36*
G01*
X53050000Y67277001D02*
X53050000Y68876999D01*
G75*
G02*
X53300001Y69127000I250001J0D01*
G01*
X54899999Y69127000D01*
G75*
G02*
X55150000Y68876999I0J-250001D01*
G01*
X55150000Y67277001D01*
G75*
G02*
X54899999Y67027000I-250001J0D01*
G01*
X53300001Y67027000D01*
G75*
G02*
X53050000Y67277001I0J250001D01*
G01*
G37*
G36*
G01*
X47350000Y67277001D02*
X47350000Y68876999D01*
G75*
G02*
X47600001Y69127000I250001J0D01*
G01*
X49199999Y69127000D01*
G75*
G02*
X49450000Y68876999I0J-250001D01*
G01*
X49450000Y67277001D01*
G75*
G02*
X49199999Y67027000I-250001J0D01*
G01*
X47600001Y67027000D01*
G75*
G02*
X47350000Y67277001I0J250001D01*
G01*
G37*
G36*
G01*
X41650000Y67277001D02*
X41650000Y68876999D01*
G75*
G02*
X41900001Y69127000I250001J0D01*
G01*
X43499999Y69127000D01*
G75*
G02*
X43750000Y68876999I0J-250001D01*
G01*
X43750000Y67277001D01*
G75*
G02*
X43499999Y67027000I-250001J0D01*
G01*
X41900001Y67027000D01*
G75*
G02*
X41650000Y67277001I0J250001D01*
G01*
G37*
G36*
G01*
X35950000Y67277001D02*
X35950000Y68876999D01*
G75*
G02*
X36200001Y69127000I250001J0D01*
G01*
X37799999Y69127000D01*
G75*
G02*
X38050000Y68876999I0J-250001D01*
G01*
X38050000Y67277001D01*
G75*
G02*
X37799999Y67027000I-250001J0D01*
G01*
X36200001Y67027000D01*
G75*
G02*
X35950000Y67277001I0J250001D01*
G01*
G37*
G36*
G01*
X30250000Y67277001D02*
X30250000Y68876999D01*
G75*
G02*
X30500001Y69127000I250001J0D01*
G01*
X32099999Y69127000D01*
G75*
G02*
X32350000Y68876999I0J-250001D01*
G01*
X32350000Y67277001D01*
G75*
G02*
X32099999Y67027000I-250001J0D01*
G01*
X30500001Y67027000D01*
G75*
G02*
X30250000Y67277001I0J250001D01*
G01*
G37*
G36*
G01*
X24550000Y67277001D02*
X24550000Y68876999D01*
G75*
G02*
X24800001Y69127000I250001J0D01*
G01*
X26399999Y69127000D01*
G75*
G02*
X26650000Y68876999I0J-250001D01*
G01*
X26650000Y67277001D01*
G75*
G02*
X26399999Y67027000I-250001J0D01*
G01*
X24800001Y67027000D01*
G75*
G02*
X24550000Y67277001I0J250001D01*
G01*
G37*
G36*
G01*
X18850000Y67277001D02*
X18850000Y68876999D01*
G75*
G02*
X19100001Y69127000I250001J0D01*
G01*
X20699999Y69127000D01*
G75*
G02*
X20950000Y68876999I0J-250001D01*
G01*
X20950000Y67277001D01*
G75*
G02*
X20699999Y67027000I-250001J0D01*
G01*
X19100001Y67027000D01*
G75*
G02*
X18850000Y67277001I0J250001D01*
G01*
G37*
G36*
G01*
X13150000Y67277001D02*
X13150000Y68876999D01*
G75*
G02*
X13400001Y69127000I250001J0D01*
G01*
X14999999Y69127000D01*
G75*
G02*
X15250000Y68876999I0J-250001D01*
G01*
X15250000Y67277001D01*
G75*
G02*
X14999999Y67027000I-250001J0D01*
G01*
X13400001Y67027000D01*
G75*
G02*
X13150000Y67277001I0J250001D01*
G01*
G37*
G36*
G01*
X7450000Y67277001D02*
X7450000Y68876999D01*
G75*
G02*
X7700001Y69127000I250001J0D01*
G01*
X9299999Y69127000D01*
G75*
G02*
X9550000Y68876999I0J-250001D01*
G01*
X9550000Y67277001D01*
G75*
G02*
X9299999Y67027000I-250001J0D01*
G01*
X7700001Y67027000D01*
G75*
G02*
X7450000Y67277001I0J250001D01*
G01*
G37*
G36*
G01*
X150450000Y63127001D02*
X150450000Y64726999D01*
G75*
G02*
X150700001Y64977000I250001J0D01*
G01*
X152299999Y64977000D01*
G75*
G02*
X152550000Y64726999I0J-250001D01*
G01*
X152550000Y63127001D01*
G75*
G02*
X152299999Y62877000I-250001J0D01*
G01*
X150700001Y62877000D01*
G75*
G02*
X150450000Y63127001I0J250001D01*
G01*
G37*
G36*
G01*
X144750000Y63127001D02*
X144750000Y64726999D01*
G75*
G02*
X145000001Y64977000I250001J0D01*
G01*
X146599999Y64977000D01*
G75*
G02*
X146850000Y64726999I0J-250001D01*
G01*
X146850000Y63127001D01*
G75*
G02*
X146599999Y62877000I-250001J0D01*
G01*
X145000001Y62877000D01*
G75*
G02*
X144750000Y63127001I0J250001D01*
G01*
G37*
G36*
G01*
X139050000Y63127001D02*
X139050000Y64726999D01*
G75*
G02*
X139300001Y64977000I250001J0D01*
G01*
X140899999Y64977000D01*
G75*
G02*
X141150000Y64726999I0J-250001D01*
G01*
X141150000Y63127001D01*
G75*
G02*
X140899999Y62877000I-250001J0D01*
G01*
X139300001Y62877000D01*
G75*
G02*
X139050000Y63127001I0J250001D01*
G01*
G37*
G36*
G01*
X133350000Y63127001D02*
X133350000Y64726999D01*
G75*
G02*
X133600001Y64977000I250001J0D01*
G01*
X135199999Y64977000D01*
G75*
G02*
X135450000Y64726999I0J-250001D01*
G01*
X135450000Y63127001D01*
G75*
G02*
X135199999Y62877000I-250001J0D01*
G01*
X133600001Y62877000D01*
G75*
G02*
X133350000Y63127001I0J250001D01*
G01*
G37*
G36*
G01*
X127650000Y63127001D02*
X127650000Y64726999D01*
G75*
G02*
X127900001Y64977000I250001J0D01*
G01*
X129499999Y64977000D01*
G75*
G02*
X129750000Y64726999I0J-250001D01*
G01*
X129750000Y63127001D01*
G75*
G02*
X129499999Y62877000I-250001J0D01*
G01*
X127900001Y62877000D01*
G75*
G02*
X127650000Y63127001I0J250001D01*
G01*
G37*
G36*
G01*
X121950000Y63127001D02*
X121950000Y64726999D01*
G75*
G02*
X122200001Y64977000I250001J0D01*
G01*
X123799999Y64977000D01*
G75*
G02*
X124050000Y64726999I0J-250001D01*
G01*
X124050000Y63127001D01*
G75*
G02*
X123799999Y62877000I-250001J0D01*
G01*
X122200001Y62877000D01*
G75*
G02*
X121950000Y63127001I0J250001D01*
G01*
G37*
G36*
G01*
X116250000Y63127001D02*
X116250000Y64726999D01*
G75*
G02*
X116500001Y64977000I250001J0D01*
G01*
X118099999Y64977000D01*
G75*
G02*
X118350000Y64726999I0J-250001D01*
G01*
X118350000Y63127001D01*
G75*
G02*
X118099999Y62877000I-250001J0D01*
G01*
X116500001Y62877000D01*
G75*
G02*
X116250000Y63127001I0J250001D01*
G01*
G37*
G36*
G01*
X110550000Y63127001D02*
X110550000Y64726999D01*
G75*
G02*
X110800001Y64977000I250001J0D01*
G01*
X112399999Y64977000D01*
G75*
G02*
X112650000Y64726999I0J-250001D01*
G01*
X112650000Y63127001D01*
G75*
G02*
X112399999Y62877000I-250001J0D01*
G01*
X110800001Y62877000D01*
G75*
G02*
X110550000Y63127001I0J250001D01*
G01*
G37*
G36*
G01*
X104850000Y63127001D02*
X104850000Y64726999D01*
G75*
G02*
X105100001Y64977000I250001J0D01*
G01*
X106699999Y64977000D01*
G75*
G02*
X106950000Y64726999I0J-250001D01*
G01*
X106950000Y63127001D01*
G75*
G02*
X106699999Y62877000I-250001J0D01*
G01*
X105100001Y62877000D01*
G75*
G02*
X104850000Y63127001I0J250001D01*
G01*
G37*
G36*
G01*
X99150000Y63127001D02*
X99150000Y64726999D01*
G75*
G02*
X99400001Y64977000I250001J0D01*
G01*
X100999999Y64977000D01*
G75*
G02*
X101250000Y64726999I0J-250001D01*
G01*
X101250000Y63127001D01*
G75*
G02*
X100999999Y62877000I-250001J0D01*
G01*
X99400001Y62877000D01*
G75*
G02*
X99150000Y63127001I0J250001D01*
G01*
G37*
G36*
G01*
X93450000Y63127001D02*
X93450000Y64726999D01*
G75*
G02*
X93700001Y64977000I250001J0D01*
G01*
X95299999Y64977000D01*
G75*
G02*
X95550000Y64726999I0J-250001D01*
G01*
X95550000Y63127001D01*
G75*
G02*
X95299999Y62877000I-250001J0D01*
G01*
X93700001Y62877000D01*
G75*
G02*
X93450000Y63127001I0J250001D01*
G01*
G37*
G36*
G01*
X150450000Y67227001D02*
X150450000Y68826999D01*
G75*
G02*
X150700001Y69077000I250001J0D01*
G01*
X152299999Y69077000D01*
G75*
G02*
X152550000Y68826999I0J-250001D01*
G01*
X152550000Y67227001D01*
G75*
G02*
X152299999Y66977000I-250001J0D01*
G01*
X150700001Y66977000D01*
G75*
G02*
X150450000Y67227001I0J250001D01*
G01*
G37*
G36*
G01*
X144750000Y67227001D02*
X144750000Y68826999D01*
G75*
G02*
X145000001Y69077000I250001J0D01*
G01*
X146599999Y69077000D01*
G75*
G02*
X146850000Y68826999I0J-250001D01*
G01*
X146850000Y67227001D01*
G75*
G02*
X146599999Y66977000I-250001J0D01*
G01*
X145000001Y66977000D01*
G75*
G02*
X144750000Y67227001I0J250001D01*
G01*
G37*
G36*
G01*
X139050000Y67227001D02*
X139050000Y68826999D01*
G75*
G02*
X139300001Y69077000I250001J0D01*
G01*
X140899999Y69077000D01*
G75*
G02*
X141150000Y68826999I0J-250001D01*
G01*
X141150000Y67227001D01*
G75*
G02*
X140899999Y66977000I-250001J0D01*
G01*
X139300001Y66977000D01*
G75*
G02*
X139050000Y67227001I0J250001D01*
G01*
G37*
G36*
G01*
X133350000Y67227001D02*
X133350000Y68826999D01*
G75*
G02*
X133600001Y69077000I250001J0D01*
G01*
X135199999Y69077000D01*
G75*
G02*
X135450000Y68826999I0J-250001D01*
G01*
X135450000Y67227001D01*
G75*
G02*
X135199999Y66977000I-250001J0D01*
G01*
X133600001Y66977000D01*
G75*
G02*
X133350000Y67227001I0J250001D01*
G01*
G37*
G36*
G01*
X127650000Y67227001D02*
X127650000Y68826999D01*
G75*
G02*
X127900001Y69077000I250001J0D01*
G01*
X129499999Y69077000D01*
G75*
G02*
X129750000Y68826999I0J-250001D01*
G01*
X129750000Y67227001D01*
G75*
G02*
X129499999Y66977000I-250001J0D01*
G01*
X127900001Y66977000D01*
G75*
G02*
X127650000Y67227001I0J250001D01*
G01*
G37*
G36*
G01*
X121950000Y67227001D02*
X121950000Y68826999D01*
G75*
G02*
X122200001Y69077000I250001J0D01*
G01*
X123799999Y69077000D01*
G75*
G02*
X124050000Y68826999I0J-250001D01*
G01*
X124050000Y67227001D01*
G75*
G02*
X123799999Y66977000I-250001J0D01*
G01*
X122200001Y66977000D01*
G75*
G02*
X121950000Y67227001I0J250001D01*
G01*
G37*
G36*
G01*
X116250000Y67227001D02*
X116250000Y68826999D01*
G75*
G02*
X116500001Y69077000I250001J0D01*
G01*
X118099999Y69077000D01*
G75*
G02*
X118350000Y68826999I0J-250001D01*
G01*
X118350000Y67227001D01*
G75*
G02*
X118099999Y66977000I-250001J0D01*
G01*
X116500001Y66977000D01*
G75*
G02*
X116250000Y67227001I0J250001D01*
G01*
G37*
G36*
G01*
X110550000Y67227001D02*
X110550000Y68826999D01*
G75*
G02*
X110800001Y69077000I250001J0D01*
G01*
X112399999Y69077000D01*
G75*
G02*
X112650000Y68826999I0J-250001D01*
G01*
X112650000Y67227001D01*
G75*
G02*
X112399999Y66977000I-250001J0D01*
G01*
X110800001Y66977000D01*
G75*
G02*
X110550000Y67227001I0J250001D01*
G01*
G37*
G36*
G01*
X104850000Y67227001D02*
X104850000Y68826999D01*
G75*
G02*
X105100001Y69077000I250001J0D01*
G01*
X106699999Y69077000D01*
G75*
G02*
X106950000Y68826999I0J-250001D01*
G01*
X106950000Y67227001D01*
G75*
G02*
X106699999Y66977000I-250001J0D01*
G01*
X105100001Y66977000D01*
G75*
G02*
X104850000Y67227001I0J250001D01*
G01*
G37*
G36*
G01*
X99150000Y67227001D02*
X99150000Y68826999D01*
G75*
G02*
X99400001Y69077000I250001J0D01*
G01*
X100999999Y69077000D01*
G75*
G02*
X101250000Y68826999I0J-250001D01*
G01*
X101250000Y67227001D01*
G75*
G02*
X100999999Y66977000I-250001J0D01*
G01*
X99400001Y66977000D01*
G75*
G02*
X99150000Y67227001I0J250001D01*
G01*
G37*
G36*
G01*
X93450000Y67227001D02*
X93450000Y68826999D01*
G75*
G02*
X93700001Y69077000I250001J0D01*
G01*
X95299999Y69077000D01*
G75*
G02*
X95550000Y68826999I0J-250001D01*
G01*
X95550000Y67227001D01*
G75*
G02*
X95299999Y66977000I-250001J0D01*
G01*
X93700001Y66977000D01*
G75*
G02*
X93450000Y67227001I0J250001D01*
G01*
G37*
G04 #@! TD*
D13*
G04 #@! TO.C,M4*
X124300000Y52602000D03*
X124300000Y53802000D03*
X124300000Y51402000D03*
X124300000Y50202000D03*
X138725000Y56662000D03*
X138725000Y57662000D03*
G04 #@! TD*
D19*
G04 #@! TO.C,P3*
X134375000Y44877000D03*
G04 #@! TD*
D20*
G04 #@! TO.C,J9*
X121285000Y10757000D03*
X127065000Y10757000D03*
D21*
X119855000Y11257000D03*
D22*
X119855000Y7077000D03*
D21*
X128495000Y11257000D03*
D22*
X128495000Y7077000D03*
G04 #@! TD*
D12*
G04 #@! TO.C,H1*
X145875000Y23352000D03*
G04 #@! TD*
D19*
G04 #@! TO.C,P4*
X138155000Y44877000D03*
G04 #@! TD*
D11*
G04 #@! TO.C,F2*
X113325000Y47977000D03*
X118225000Y47977000D03*
G04 #@! TD*
G04 #@! TO.C,F1*
X125392588Y46509412D03*
X128857412Y43044588D03*
G04 #@! TD*
G04 #@! TO.C,R14*
G36*
G01*
X25271586Y51194646D02*
X22803414Y49769646D01*
G75*
G02*
X22461908Y49861152I-125000J216506D01*
G01*
X22099408Y50489020D01*
G75*
G02*
X22190914Y50830526I216506J125000D01*
G01*
X24659086Y52255526D01*
G75*
G02*
X25000592Y52164020I125000J-216506D01*
G01*
X25363092Y51536152D01*
G75*
G02*
X25271586Y51194646I-216506J-125000D01*
G01*
G37*
G36*
G01*
X22309086Y56325846D02*
X19840914Y54900846D01*
G75*
G02*
X19499408Y54992352I-125000J216506D01*
G01*
X19136908Y55620220D01*
G75*
G02*
X19228414Y55961726I216506J125000D01*
G01*
X21696586Y57386726D01*
G75*
G02*
X22038092Y57295220I125000J-216506D01*
G01*
X22400592Y56667352D01*
G75*
G02*
X22309086Y56325846I-216506J-125000D01*
G01*
G37*
G04 #@! TD*
G04 #@! TO.C,R12*
G36*
G01*
X34079775Y53081553D02*
X31611603Y51656553D01*
G75*
G02*
X31270097Y51748059I-125000J216506D01*
G01*
X30907597Y52375927D01*
G75*
G02*
X30999103Y52717433I216506J125000D01*
G01*
X33467275Y54142433D01*
G75*
G02*
X33808781Y54050927I125000J-216506D01*
G01*
X34171281Y53423059D01*
G75*
G02*
X34079775Y53081553I-216506J-125000D01*
G01*
G37*
G36*
G01*
X31117275Y58212753D02*
X28649103Y56787753D01*
G75*
G02*
X28307597Y56879259I-125000J216506D01*
G01*
X27945097Y57507127D01*
G75*
G02*
X28036603Y57848633I216506J125000D01*
G01*
X30504775Y59273633D01*
G75*
G02*
X30846281Y59182127I125000J-216506D01*
G01*
X31208781Y58554259D01*
G75*
G02*
X31117275Y58212753I-216506J-125000D01*
G01*
G37*
G04 #@! TD*
G04 #@! TO.C,R15*
G36*
G01*
X13487750Y44051071D02*
X12812250Y43661071D01*
G75*
G02*
X12716628Y43686693I-35000J60622D01*
G01*
X12436628Y44171667D01*
G75*
G02*
X12462250Y44267289I60622J35000D01*
G01*
X13137750Y44657289D01*
G75*
G02*
X13233372Y44631667I35000J-60622D01*
G01*
X13513372Y44146693D01*
G75*
G02*
X13487750Y44051071I-60622J-35000D01*
G01*
G37*
G36*
G01*
X12687750Y45436711D02*
X12012250Y45046711D01*
G75*
G02*
X11916628Y45072333I-35000J60622D01*
G01*
X11636628Y45557307D01*
G75*
G02*
X11662250Y45652929I60622J35000D01*
G01*
X12337750Y46042929D01*
G75*
G02*
X12433372Y46017307I35000J-60622D01*
G01*
X12713372Y45532333D01*
G75*
G02*
X12687750Y45436711I-60622J-35000D01*
G01*
G37*
G04 #@! TD*
G04 #@! TO.C,D2*
G36*
G01*
X52370000Y57237000D02*
X52370000Y56217000D01*
G75*
G02*
X52280000Y56127000I-90000J0D01*
G01*
X51560000Y56127000D01*
G75*
G02*
X51470000Y56217000I0J90000D01*
G01*
X51470000Y57237000D01*
G75*
G02*
X51560000Y57327000I90000J0D01*
G01*
X52280000Y57327000D01*
G75*
G02*
X52370000Y57237000I0J-90000D01*
G01*
G37*
G36*
G01*
X49070000Y57237000D02*
X49070000Y56217000D01*
G75*
G02*
X48980000Y56127000I-90000J0D01*
G01*
X48260000Y56127000D01*
G75*
G02*
X48170000Y56217000I0J90000D01*
G01*
X48170000Y57237000D01*
G75*
G02*
X48260000Y57327000I90000J0D01*
G01*
X48980000Y57327000D01*
G75*
G02*
X49070000Y57237000I0J-90000D01*
G01*
G37*
G04 #@! TD*
G04 #@! TO.C,D5*
G36*
G01*
X53887168Y42360417D02*
X54608417Y41639168D01*
G75*
G02*
X54608417Y41511888I-63640J-63640D01*
G01*
X54099300Y41002771D01*
G75*
G02*
X53972020Y41002771I-63640J63640D01*
G01*
X53250771Y41724020D01*
G75*
G02*
X53250771Y41851300I63640J63640D01*
G01*
X53759888Y42360417D01*
G75*
G02*
X53887168Y42360417I63640J-63640D01*
G01*
G37*
G36*
G01*
X51553716Y40026965D02*
X52274965Y39305716D01*
G75*
G02*
X52274965Y39178436I-63640J-63640D01*
G01*
X51765848Y38669319D01*
G75*
G02*
X51638568Y38669319I-63640J63640D01*
G01*
X50917319Y39390568D01*
G75*
G02*
X50917319Y39517848I63640J63640D01*
G01*
X51426436Y40026965D01*
G75*
G02*
X51553716Y40026965I63640J-63640D01*
G01*
G37*
G04 #@! TD*
G04 #@! TO.C,R30*
G36*
G01*
X65115000Y56952000D02*
X64335000Y56952000D01*
G75*
G02*
X64265000Y57022000I0J70000D01*
G01*
X64265000Y57582000D01*
G75*
G02*
X64335000Y57652000I70000J0D01*
G01*
X65115000Y57652000D01*
G75*
G02*
X65185000Y57582000I0J-70000D01*
G01*
X65185000Y57022000D01*
G75*
G02*
X65115000Y56952000I-70000J0D01*
G01*
G37*
G36*
G01*
X65115000Y58552000D02*
X64335000Y58552000D01*
G75*
G02*
X64265000Y58622000I0J70000D01*
G01*
X64265000Y59182000D01*
G75*
G02*
X64335000Y59252000I70000J0D01*
G01*
X65115000Y59252000D01*
G75*
G02*
X65185000Y59182000I0J-70000D01*
G01*
X65185000Y58622000D01*
G75*
G02*
X65115000Y58552000I-70000J0D01*
G01*
G37*
G04 #@! TD*
G04 #@! TO.C,R9*
G36*
G01*
X30637750Y47801071D02*
X29962250Y47411071D01*
G75*
G02*
X29866628Y47436693I-35000J60622D01*
G01*
X29586628Y47921667D01*
G75*
G02*
X29612250Y48017289I60622J35000D01*
G01*
X30287750Y48407289D01*
G75*
G02*
X30383372Y48381667I35000J-60622D01*
G01*
X30663372Y47896693D01*
G75*
G02*
X30637750Y47801071I-60622J-35000D01*
G01*
G37*
G36*
G01*
X29837750Y49186711D02*
X29162250Y48796711D01*
G75*
G02*
X29066628Y48822333I-35000J60622D01*
G01*
X28786628Y49307307D01*
G75*
G02*
X28812250Y49402929I60622J35000D01*
G01*
X29487750Y49792929D01*
G75*
G02*
X29583372Y49767307I35000J-60622D01*
G01*
X29863372Y49282333D01*
G75*
G02*
X29837750Y49186711I-60622J-35000D01*
G01*
G37*
G04 #@! TD*
G04 #@! TO.C,R18*
G36*
G01*
X17396586Y48518460D02*
X14928414Y47093460D01*
G75*
G02*
X14586908Y47184966I-125000J216506D01*
G01*
X14224408Y47812834D01*
G75*
G02*
X14315914Y48154340I216506J125000D01*
G01*
X16784086Y49579340D01*
G75*
G02*
X17125592Y49487834I125000J-216506D01*
G01*
X17488092Y48859966D01*
G75*
G02*
X17396586Y48518460I-216506J-125000D01*
G01*
G37*
G36*
G01*
X14434086Y53649660D02*
X11965914Y52224660D01*
G75*
G02*
X11624408Y52316166I-125000J216506D01*
G01*
X11261908Y52944034D01*
G75*
G02*
X11353414Y53285540I216506J125000D01*
G01*
X13821586Y54710540D01*
G75*
G02*
X14163092Y54619034I125000J-216506D01*
G01*
X14525592Y53991166D01*
G75*
G02*
X14434086Y53649660I-216506J-125000D01*
G01*
G37*
G04 #@! TD*
G04 #@! TO.C,R29*
G36*
G01*
X65215000Y49252000D02*
X64435000Y49252000D01*
G75*
G02*
X64365000Y49322000I0J70000D01*
G01*
X64365000Y49882000D01*
G75*
G02*
X64435000Y49952000I70000J0D01*
G01*
X65215000Y49952000D01*
G75*
G02*
X65285000Y49882000I0J-70000D01*
G01*
X65285000Y49322000D01*
G75*
G02*
X65215000Y49252000I-70000J0D01*
G01*
G37*
G36*
G01*
X65215000Y50852000D02*
X64435000Y50852000D01*
G75*
G02*
X64365000Y50922000I0J70000D01*
G01*
X64365000Y51482000D01*
G75*
G02*
X64435000Y51552000I70000J0D01*
G01*
X65215000Y51552000D01*
G75*
G02*
X65285000Y51482000I0J-70000D01*
G01*
X65285000Y50922000D01*
G75*
G02*
X65215000Y50852000I-70000J0D01*
G01*
G37*
G04 #@! TD*
G04 #@! TO.C,D3*
G36*
G01*
X54425000Y47737000D02*
X54425000Y46717000D01*
G75*
G02*
X54335000Y46627000I-90000J0D01*
G01*
X53615000Y46627000D01*
G75*
G02*
X53525000Y46717000I0J90000D01*
G01*
X53525000Y47737000D01*
G75*
G02*
X53615000Y47827000I90000J0D01*
G01*
X54335000Y47827000D01*
G75*
G02*
X54425000Y47737000I0J-90000D01*
G01*
G37*
G36*
G01*
X51125000Y47737000D02*
X51125000Y46717000D01*
G75*
G02*
X51035000Y46627000I-90000J0D01*
G01*
X50315000Y46627000D01*
G75*
G02*
X50225000Y46717000I0J90000D01*
G01*
X50225000Y47737000D01*
G75*
G02*
X50315000Y47827000I90000J0D01*
G01*
X51035000Y47827000D01*
G75*
G02*
X51125000Y47737000I0J-90000D01*
G01*
G37*
G04 #@! TD*
G04 #@! TO.C,D4*
G36*
G01*
X44620000Y44012000D02*
X44620000Y42992000D01*
G75*
G02*
X44530000Y42902000I-90000J0D01*
G01*
X43810000Y42902000D01*
G75*
G02*
X43720000Y42992000I0J90000D01*
G01*
X43720000Y44012000D01*
G75*
G02*
X43810000Y44102000I90000J0D01*
G01*
X44530000Y44102000D01*
G75*
G02*
X44620000Y44012000I0J-90000D01*
G01*
G37*
G36*
G01*
X41320000Y44012000D02*
X41320000Y42992000D01*
G75*
G02*
X41230000Y42902000I-90000J0D01*
G01*
X40510000Y42902000D01*
G75*
G02*
X40420000Y42992000I0J90000D01*
G01*
X40420000Y44012000D01*
G75*
G02*
X40510000Y44102000I90000J0D01*
G01*
X41230000Y44102000D01*
G75*
G02*
X41320000Y44012000I0J-90000D01*
G01*
G37*
G04 #@! TD*
G04 #@! TO.C,R10*
G36*
G01*
X5187750Y43401071D02*
X4512250Y43011071D01*
G75*
G02*
X4416628Y43036693I-35000J60622D01*
G01*
X4136628Y43521667D01*
G75*
G02*
X4162250Y43617289I60622J35000D01*
G01*
X4837750Y44007289D01*
G75*
G02*
X4933372Y43981667I35000J-60622D01*
G01*
X5213372Y43496693D01*
G75*
G02*
X5187750Y43401071I-60622J-35000D01*
G01*
G37*
G36*
G01*
X4387750Y44786711D02*
X3712250Y44396711D01*
G75*
G02*
X3616628Y44422333I-35000J60622D01*
G01*
X3336628Y44907307D01*
G75*
G02*
X3362250Y45002929I60622J35000D01*
G01*
X4037750Y45392929D01*
G75*
G02*
X4133372Y45367307I35000J-60622D01*
G01*
X4413372Y44882333D01*
G75*
G02*
X4387750Y44786711I-60622J-35000D01*
G01*
G37*
G04 #@! TD*
G04 #@! TO.C,R13*
G36*
G01*
X9138397Y46881553D02*
X6670225Y45456553D01*
G75*
G02*
X6328719Y45548059I-125000J216506D01*
G01*
X5966219Y46175927D01*
G75*
G02*
X6057725Y46517433I216506J125000D01*
G01*
X8525897Y47942433D01*
G75*
G02*
X8867403Y47850927I125000J-216506D01*
G01*
X9229903Y47223059D01*
G75*
G02*
X9138397Y46881553I-216506J-125000D01*
G01*
G37*
G36*
G01*
X6175897Y52012753D02*
X3707725Y50587753D01*
G75*
G02*
X3366219Y50679259I-125000J216506D01*
G01*
X3003719Y51307127D01*
G75*
G02*
X3095225Y51648633I216506J125000D01*
G01*
X5563397Y53073633D01*
G75*
G02*
X5904903Y52982127I125000J-216506D01*
G01*
X6267403Y52354259D01*
G75*
G02*
X6175897Y52012753I-216506J-125000D01*
G01*
G37*
G04 #@! TD*
G04 #@! TO.C,R11*
G36*
G01*
X21737750Y46401071D02*
X21062250Y46011071D01*
G75*
G02*
X20966628Y46036693I-35000J60622D01*
G01*
X20686628Y46521667D01*
G75*
G02*
X20712250Y46617289I60622J35000D01*
G01*
X21387750Y47007289D01*
G75*
G02*
X21483372Y46981667I35000J-60622D01*
G01*
X21763372Y46496693D01*
G75*
G02*
X21737750Y46401071I-60622J-35000D01*
G01*
G37*
G36*
G01*
X20937750Y47786711D02*
X20262250Y47396711D01*
G75*
G02*
X20166628Y47422333I-35000J60622D01*
G01*
X19886628Y47907307D01*
G75*
G02*
X19912250Y48002929I60622J35000D01*
G01*
X20587750Y48392929D01*
G75*
G02*
X20683372Y48367307I35000J-60622D01*
G01*
X20963372Y47882333D01*
G75*
G02*
X20937750Y47786711I-60622J-35000D01*
G01*
G37*
G04 #@! TD*
M02*
