G04 #@! TF.GenerationSoftware,KiCad,Pcbnew,7.0.10-7.0.10~ubuntu22.04.1*
G04 #@! TF.CreationDate,2024-01-06T04:56:49+00:00*
G04 #@! TF.ProjectId,uaeficopiedtovfr,75616566-6963-46f7-9069-6564746f7666,rev?*
G04 #@! TF.SameCoordinates,Original*
G04 #@! TF.FileFunction,Legend,Bot*
G04 #@! TF.FilePolarity,Positive*
%FSLAX46Y46*%
G04 Gerber Fmt 4.6, Leading zero omitted, Abs format (unit mm)*
G04 Created by KiCad (PCBNEW 7.0.10-7.0.10~ubuntu22.04.1) date 2024-01-06 04:56:49*
%MOMM*%
%LPD*%
G01*
G04 APERTURE LIST*
%ADD10C,0.150000*%
%ADD11C,0.127000*%
%ADD12C,0.170000*%
%ADD13C,0.200000*%
%ADD14C,0.120000*%
%ADD15C,0.203200*%
G04 APERTURE END LIST*
D10*
X128078447Y72111181D02*
X128078447Y71396896D01*
X128078447Y71396896D02*
X128126066Y71254039D01*
X128126066Y71254039D02*
X128221304Y71158800D01*
X128221304Y71158800D02*
X128364161Y71111181D01*
X128364161Y71111181D02*
X128459399Y71111181D01*
X127126066Y71111181D02*
X127602256Y71111181D01*
X127602256Y71111181D02*
X127602256Y72111181D01*
X126221304Y71206420D02*
X126268923Y71158800D01*
X126268923Y71158800D02*
X126411780Y71111181D01*
X126411780Y71111181D02*
X126507018Y71111181D01*
X126507018Y71111181D02*
X126649875Y71158800D01*
X126649875Y71158800D02*
X126745113Y71254039D01*
X126745113Y71254039D02*
X126792732Y71349277D01*
X126792732Y71349277D02*
X126840351Y71539753D01*
X126840351Y71539753D02*
X126840351Y71682610D01*
X126840351Y71682610D02*
X126792732Y71873086D01*
X126792732Y71873086D02*
X126745113Y71968324D01*
X126745113Y71968324D02*
X126649875Y72063562D01*
X126649875Y72063562D02*
X126507018Y72111181D01*
X126507018Y72111181D02*
X126411780Y72111181D01*
X126411780Y72111181D02*
X126268923Y72063562D01*
X126268923Y72063562D02*
X126221304Y72015943D01*
X125792732Y71111181D02*
X125792732Y72111181D01*
X125792732Y72111181D02*
X125411780Y72111181D01*
X125411780Y72111181D02*
X125316542Y72063562D01*
X125316542Y72063562D02*
X125268923Y72015943D01*
X125268923Y72015943D02*
X125221304Y71920705D01*
X125221304Y71920705D02*
X125221304Y71777848D01*
X125221304Y71777848D02*
X125268923Y71682610D01*
X125268923Y71682610D02*
X125316542Y71634991D01*
X125316542Y71634991D02*
X125411780Y71587372D01*
X125411780Y71587372D02*
X125792732Y71587372D01*
X124221304Y71206420D02*
X124268923Y71158800D01*
X124268923Y71158800D02*
X124411780Y71111181D01*
X124411780Y71111181D02*
X124507018Y71111181D01*
X124507018Y71111181D02*
X124649875Y71158800D01*
X124649875Y71158800D02*
X124745113Y71254039D01*
X124745113Y71254039D02*
X124792732Y71349277D01*
X124792732Y71349277D02*
X124840351Y71539753D01*
X124840351Y71539753D02*
X124840351Y71682610D01*
X124840351Y71682610D02*
X124792732Y71873086D01*
X124792732Y71873086D02*
X124745113Y71968324D01*
X124745113Y71968324D02*
X124649875Y72063562D01*
X124649875Y72063562D02*
X124507018Y72111181D01*
X124507018Y72111181D02*
X124411780Y72111181D01*
X124411780Y72111181D02*
X124268923Y72063562D01*
X124268923Y72063562D02*
X124221304Y72015943D01*
X123459399Y71634991D02*
X123316542Y71587372D01*
X123316542Y71587372D02*
X123268923Y71539753D01*
X123268923Y71539753D02*
X123221304Y71444515D01*
X123221304Y71444515D02*
X123221304Y71301658D01*
X123221304Y71301658D02*
X123268923Y71206420D01*
X123268923Y71206420D02*
X123316542Y71158800D01*
X123316542Y71158800D02*
X123411780Y71111181D01*
X123411780Y71111181D02*
X123792732Y71111181D01*
X123792732Y71111181D02*
X123792732Y72111181D01*
X123792732Y72111181D02*
X123459399Y72111181D01*
X123459399Y72111181D02*
X123364161Y72063562D01*
X123364161Y72063562D02*
X123316542Y72015943D01*
X123316542Y72015943D02*
X123268923Y71920705D01*
X123268923Y71920705D02*
X123268923Y71825467D01*
X123268923Y71825467D02*
X123316542Y71730229D01*
X123316542Y71730229D02*
X123364161Y71682610D01*
X123364161Y71682610D02*
X123459399Y71634991D01*
X123459399Y71634991D02*
X123792732Y71634991D01*
X121840351Y72111181D02*
X121649875Y72111181D01*
X121649875Y72111181D02*
X121554637Y72063562D01*
X121554637Y72063562D02*
X121459399Y71968324D01*
X121459399Y71968324D02*
X121411780Y71777848D01*
X121411780Y71777848D02*
X121411780Y71444515D01*
X121411780Y71444515D02*
X121459399Y71254039D01*
X121459399Y71254039D02*
X121554637Y71158800D01*
X121554637Y71158800D02*
X121649875Y71111181D01*
X121649875Y71111181D02*
X121840351Y71111181D01*
X121840351Y71111181D02*
X121935589Y71158800D01*
X121935589Y71158800D02*
X122030827Y71254039D01*
X122030827Y71254039D02*
X122078446Y71444515D01*
X122078446Y71444515D02*
X122078446Y71777848D01*
X122078446Y71777848D02*
X122030827Y71968324D01*
X122030827Y71968324D02*
X121935589Y72063562D01*
X121935589Y72063562D02*
X121840351Y72111181D01*
X120983208Y71111181D02*
X120983208Y71777848D01*
X120983208Y71587372D02*
X120935589Y71682610D01*
X120935589Y71682610D02*
X120887970Y71730229D01*
X120887970Y71730229D02*
X120792732Y71777848D01*
X120792732Y71777848D02*
X120697494Y71777848D01*
X119935589Y71111181D02*
X119935589Y72111181D01*
X119935589Y71158800D02*
X120030827Y71111181D01*
X120030827Y71111181D02*
X120221303Y71111181D01*
X120221303Y71111181D02*
X120316541Y71158800D01*
X120316541Y71158800D02*
X120364160Y71206420D01*
X120364160Y71206420D02*
X120411779Y71301658D01*
X120411779Y71301658D02*
X120411779Y71587372D01*
X120411779Y71587372D02*
X120364160Y71682610D01*
X120364160Y71682610D02*
X120316541Y71730229D01*
X120316541Y71730229D02*
X120221303Y71777848D01*
X120221303Y71777848D02*
X120030827Y71777848D01*
X120030827Y71777848D02*
X119935589Y71730229D01*
X119078446Y71158800D02*
X119173684Y71111181D01*
X119173684Y71111181D02*
X119364160Y71111181D01*
X119364160Y71111181D02*
X119459398Y71158800D01*
X119459398Y71158800D02*
X119507017Y71254039D01*
X119507017Y71254039D02*
X119507017Y71634991D01*
X119507017Y71634991D02*
X119459398Y71730229D01*
X119459398Y71730229D02*
X119364160Y71777848D01*
X119364160Y71777848D02*
X119173684Y71777848D01*
X119173684Y71777848D02*
X119078446Y71730229D01*
X119078446Y71730229D02*
X119030827Y71634991D01*
X119030827Y71634991D02*
X119030827Y71539753D01*
X119030827Y71539753D02*
X119507017Y71444515D01*
X118602255Y71111181D02*
X118602255Y71777848D01*
X118602255Y71587372D02*
X118554636Y71682610D01*
X118554636Y71682610D02*
X118507017Y71730229D01*
X118507017Y71730229D02*
X118411779Y71777848D01*
X118411779Y71777848D02*
X118316541Y71777848D01*
X117221302Y71777848D02*
X117221302Y71111181D01*
X117221302Y71682610D02*
X117173683Y71730229D01*
X117173683Y71730229D02*
X117078445Y71777848D01*
X117078445Y71777848D02*
X116935588Y71777848D01*
X116935588Y71777848D02*
X116840350Y71730229D01*
X116840350Y71730229D02*
X116792731Y71634991D01*
X116792731Y71634991D02*
X116792731Y71111181D01*
X116173683Y71111181D02*
X116268921Y71158800D01*
X116268921Y71158800D02*
X116316540Y71206420D01*
X116316540Y71206420D02*
X116364159Y71301658D01*
X116364159Y71301658D02*
X116364159Y71587372D01*
X116364159Y71587372D02*
X116316540Y71682610D01*
X116316540Y71682610D02*
X116268921Y71730229D01*
X116268921Y71730229D02*
X116173683Y71777848D01*
X116173683Y71777848D02*
X116030826Y71777848D01*
X116030826Y71777848D02*
X115935588Y71730229D01*
X115935588Y71730229D02*
X115887969Y71682610D01*
X115887969Y71682610D02*
X115840350Y71587372D01*
X115840350Y71587372D02*
X115840350Y71301658D01*
X115840350Y71301658D02*
X115887969Y71206420D01*
X115887969Y71206420D02*
X115935588Y71158800D01*
X115935588Y71158800D02*
X116030826Y71111181D01*
X116030826Y71111181D02*
X116173683Y71111181D01*
X115411778Y71206420D02*
X115364159Y71158800D01*
X115364159Y71158800D02*
X115411778Y71111181D01*
X115411778Y71111181D02*
X115459397Y71158800D01*
X115459397Y71158800D02*
X115411778Y71206420D01*
X115411778Y71206420D02*
X115411778Y71111181D01*
X115411778Y71730229D02*
X115364159Y71682610D01*
X115364159Y71682610D02*
X115411778Y71634991D01*
X115411778Y71634991D02*
X115459397Y71682610D01*
X115459397Y71682610D02*
X115411778Y71730229D01*
X115411778Y71730229D02*
X115411778Y71634991D01*
X138685590Y72161181D02*
X138685590Y71446896D01*
X138685590Y71446896D02*
X138733209Y71304039D01*
X138733209Y71304039D02*
X138828447Y71208800D01*
X138828447Y71208800D02*
X138971304Y71161181D01*
X138971304Y71161181D02*
X139066542Y71161181D01*
X137733209Y71161181D02*
X138209399Y71161181D01*
X138209399Y71161181D02*
X138209399Y72161181D01*
X136828447Y71256420D02*
X136876066Y71208800D01*
X136876066Y71208800D02*
X137018923Y71161181D01*
X137018923Y71161181D02*
X137114161Y71161181D01*
X137114161Y71161181D02*
X137257018Y71208800D01*
X137257018Y71208800D02*
X137352256Y71304039D01*
X137352256Y71304039D02*
X137399875Y71399277D01*
X137399875Y71399277D02*
X137447494Y71589753D01*
X137447494Y71589753D02*
X137447494Y71732610D01*
X137447494Y71732610D02*
X137399875Y71923086D01*
X137399875Y71923086D02*
X137352256Y72018324D01*
X137352256Y72018324D02*
X137257018Y72113562D01*
X137257018Y72113562D02*
X137114161Y72161181D01*
X137114161Y72161181D02*
X137018923Y72161181D01*
X137018923Y72161181D02*
X136876066Y72113562D01*
X136876066Y72113562D02*
X136828447Y72065943D01*
X136114161Y72161181D02*
X136114161Y71446896D01*
X136114161Y71446896D02*
X136161780Y71304039D01*
X136161780Y71304039D02*
X136257018Y71208800D01*
X136257018Y71208800D02*
X136399875Y71161181D01*
X136399875Y71161181D02*
X136495113Y71161181D01*
X135161780Y71161181D02*
X135637970Y71161181D01*
X135637970Y71161181D02*
X135637970Y72161181D01*
X134257018Y71256420D02*
X134304637Y71208800D01*
X134304637Y71208800D02*
X134447494Y71161181D01*
X134447494Y71161181D02*
X134542732Y71161181D01*
X134542732Y71161181D02*
X134685589Y71208800D01*
X134685589Y71208800D02*
X134780827Y71304039D01*
X134780827Y71304039D02*
X134828446Y71399277D01*
X134828446Y71399277D02*
X134876065Y71589753D01*
X134876065Y71589753D02*
X134876065Y71732610D01*
X134876065Y71732610D02*
X134828446Y71923086D01*
X134828446Y71923086D02*
X134780827Y72018324D01*
X134780827Y72018324D02*
X134685589Y72113562D01*
X134685589Y72113562D02*
X134542732Y72161181D01*
X134542732Y72161181D02*
X134447494Y72161181D01*
X134447494Y72161181D02*
X134304637Y72113562D01*
X134304637Y72113562D02*
X134257018Y72065943D01*
X133542732Y72161181D02*
X133542732Y71446896D01*
X133542732Y71446896D02*
X133590351Y71304039D01*
X133590351Y71304039D02*
X133685589Y71208800D01*
X133685589Y71208800D02*
X133828446Y71161181D01*
X133828446Y71161181D02*
X133923684Y71161181D01*
X132590351Y71161181D02*
X133066541Y71161181D01*
X133066541Y71161181D02*
X133066541Y72161181D01*
X131685589Y71256420D02*
X131733208Y71208800D01*
X131733208Y71208800D02*
X131876065Y71161181D01*
X131876065Y71161181D02*
X131971303Y71161181D01*
X131971303Y71161181D02*
X132114160Y71208800D01*
X132114160Y71208800D02*
X132209398Y71304039D01*
X132209398Y71304039D02*
X132257017Y71399277D01*
X132257017Y71399277D02*
X132304636Y71589753D01*
X132304636Y71589753D02*
X132304636Y71732610D01*
X132304636Y71732610D02*
X132257017Y71923086D01*
X132257017Y71923086D02*
X132209398Y72018324D01*
X132209398Y72018324D02*
X132114160Y72113562D01*
X132114160Y72113562D02*
X131971303Y72161181D01*
X131971303Y72161181D02*
X131876065Y72161181D01*
X131876065Y72161181D02*
X131733208Y72113562D01*
X131733208Y72113562D02*
X131685589Y72065943D01*
X130971303Y72161181D02*
X130971303Y71446896D01*
X130971303Y71446896D02*
X131018922Y71304039D01*
X131018922Y71304039D02*
X131114160Y71208800D01*
X131114160Y71208800D02*
X131257017Y71161181D01*
X131257017Y71161181D02*
X131352255Y71161181D01*
X130018922Y71161181D02*
X130495112Y71161181D01*
X130495112Y71161181D02*
X130495112Y72161181D01*
X129114160Y71256420D02*
X129161779Y71208800D01*
X129161779Y71208800D02*
X129304636Y71161181D01*
X129304636Y71161181D02*
X129399874Y71161181D01*
X129399874Y71161181D02*
X129542731Y71208800D01*
X129542731Y71208800D02*
X129637969Y71304039D01*
X129637969Y71304039D02*
X129685588Y71399277D01*
X129685588Y71399277D02*
X129733207Y71589753D01*
X129733207Y71589753D02*
X129733207Y71732610D01*
X129733207Y71732610D02*
X129685588Y71923086D01*
X129685588Y71923086D02*
X129637969Y72018324D01*
X129637969Y72018324D02*
X129542731Y72113562D01*
X129542731Y72113562D02*
X129399874Y72161181D01*
X129399874Y72161181D02*
X129304636Y72161181D01*
X129304636Y72161181D02*
X129161779Y72113562D01*
X129161779Y72113562D02*
X129114160Y72065943D01*
X-49732681Y43167095D02*
X-50732681Y43167095D01*
X-50732681Y43167095D02*
X-50732681Y42786143D01*
X-50732681Y42786143D02*
X-50685062Y42690905D01*
X-50685062Y42690905D02*
X-50637443Y42643286D01*
X-50637443Y42643286D02*
X-50542205Y42595667D01*
X-50542205Y42595667D02*
X-50399348Y42595667D01*
X-50399348Y42595667D02*
X-50304110Y42643286D01*
X-50304110Y42643286D02*
X-50256491Y42690905D01*
X-50256491Y42690905D02*
X-50208872Y42786143D01*
X-50208872Y42786143D02*
X-50208872Y43167095D01*
X-50732681Y42262333D02*
X-50732681Y41643286D01*
X-50732681Y41643286D02*
X-50351729Y41976619D01*
X-50351729Y41976619D02*
X-50351729Y41833762D01*
X-50351729Y41833762D02*
X-50304110Y41738524D01*
X-50304110Y41738524D02*
X-50256491Y41690905D01*
X-50256491Y41690905D02*
X-50161253Y41643286D01*
X-50161253Y41643286D02*
X-49923158Y41643286D01*
X-49923158Y41643286D02*
X-49827920Y41690905D01*
X-49827920Y41690905D02*
X-49780300Y41738524D01*
X-49780300Y41738524D02*
X-49732681Y41833762D01*
X-49732681Y41833762D02*
X-49732681Y42119476D01*
X-49732681Y42119476D02*
X-49780300Y42214714D01*
X-49780300Y42214714D02*
X-49827920Y42262333D01*
X-45952681Y43167095D02*
X-46952681Y43167095D01*
X-46952681Y43167095D02*
X-46952681Y42786143D01*
X-46952681Y42786143D02*
X-46905062Y42690905D01*
X-46905062Y42690905D02*
X-46857443Y42643286D01*
X-46857443Y42643286D02*
X-46762205Y42595667D01*
X-46762205Y42595667D02*
X-46619348Y42595667D01*
X-46619348Y42595667D02*
X-46524110Y42643286D01*
X-46524110Y42643286D02*
X-46476491Y42690905D01*
X-46476491Y42690905D02*
X-46428872Y42786143D01*
X-46428872Y42786143D02*
X-46428872Y43167095D01*
X-46619348Y41738524D02*
X-45952681Y41738524D01*
X-47000300Y41976619D02*
X-46286015Y42214714D01*
X-46286015Y42214714D02*
X-46286015Y41595667D01*
D11*
X24563537Y57897672D02*
X24743142Y58077277D01*
X25025379Y57795041D02*
X24486563Y58333856D01*
X24486563Y58333856D02*
X24229985Y58077277D01*
X24101695Y57846356D02*
X24050380Y57846356D01*
X24050380Y57846356D02*
X23973406Y57820699D01*
X23973406Y57820699D02*
X23845117Y57692409D01*
X23845117Y57692409D02*
X23819459Y57615436D01*
X23819459Y57615436D02*
X23819459Y57564120D01*
X23819459Y57564120D02*
X23845117Y57487146D01*
X23845117Y57487146D02*
X23896432Y57435830D01*
X23896432Y57435830D02*
X23999064Y57384515D01*
X23999064Y57384515D02*
X24614853Y57384515D01*
X24614853Y57384515D02*
X24281300Y57050962D01*
X24769537Y53870672D02*
X24949142Y54050277D01*
X25231379Y53768041D02*
X24692563Y54306856D01*
X24692563Y54306856D02*
X24435985Y54050277D01*
X24487300Y53023962D02*
X24795195Y53331857D01*
X24641248Y53177910D02*
X24102432Y53716725D01*
X24102432Y53716725D02*
X24230722Y53691067D01*
X24230722Y53691067D02*
X24333353Y53691067D01*
X24333353Y53691067D02*
X24410327Y53716725D01*
D12*
X131424508Y53078238D02*
X130604508Y53078238D01*
X130604508Y53078238D02*
X130604508Y52883000D01*
X130604508Y52883000D02*
X130643556Y52765857D01*
X130643556Y52765857D02*
X130721651Y52687762D01*
X130721651Y52687762D02*
X130799746Y52648715D01*
X130799746Y52648715D02*
X130955937Y52609667D01*
X130955937Y52609667D02*
X131073080Y52609667D01*
X131073080Y52609667D02*
X131229270Y52648715D01*
X131229270Y52648715D02*
X131307365Y52687762D01*
X131307365Y52687762D02*
X131385461Y52765857D01*
X131385461Y52765857D02*
X131424508Y52883000D01*
X131424508Y52883000D02*
X131424508Y53078238D01*
X130682603Y52297286D02*
X130643556Y52258238D01*
X130643556Y52258238D02*
X130604508Y52180143D01*
X130604508Y52180143D02*
X130604508Y51984905D01*
X130604508Y51984905D02*
X130643556Y51906810D01*
X130643556Y51906810D02*
X130682603Y51867762D01*
X130682603Y51867762D02*
X130760699Y51828715D01*
X130760699Y51828715D02*
X130838794Y51828715D01*
X130838794Y51828715D02*
X130955937Y51867762D01*
X130955937Y51867762D02*
X131424508Y52336334D01*
X131424508Y52336334D02*
X131424508Y51828715D01*
X127432508Y53105238D02*
X126612508Y53105238D01*
X126612508Y53105238D02*
X126612508Y52910000D01*
X126612508Y52910000D02*
X126651556Y52792857D01*
X126651556Y52792857D02*
X126729651Y52714762D01*
X126729651Y52714762D02*
X126807746Y52675715D01*
X126807746Y52675715D02*
X126963937Y52636667D01*
X126963937Y52636667D02*
X127081080Y52636667D01*
X127081080Y52636667D02*
X127237270Y52675715D01*
X127237270Y52675715D02*
X127315365Y52714762D01*
X127315365Y52714762D02*
X127393461Y52792857D01*
X127393461Y52792857D02*
X127432508Y52910000D01*
X127432508Y52910000D02*
X127432508Y53105238D01*
X126612508Y51894762D02*
X126612508Y52285238D01*
X126612508Y52285238D02*
X127002984Y52324286D01*
X127002984Y52324286D02*
X126963937Y52285238D01*
X126963937Y52285238D02*
X126924889Y52207143D01*
X126924889Y52207143D02*
X126924889Y52011905D01*
X126924889Y52011905D02*
X126963937Y51933810D01*
X126963937Y51933810D02*
X127002984Y51894762D01*
X127002984Y51894762D02*
X127081080Y51855715D01*
X127081080Y51855715D02*
X127276318Y51855715D01*
X127276318Y51855715D02*
X127354413Y51894762D01*
X127354413Y51894762D02*
X127393461Y51933810D01*
X127393461Y51933810D02*
X127432508Y52011905D01*
X127432508Y52011905D02*
X127432508Y52207143D01*
X127432508Y52207143D02*
X127393461Y52285238D01*
X127393461Y52285238D02*
X127354413Y52324286D01*
X111994191Y72176652D02*
X112384667Y71903319D01*
X111994191Y71708081D02*
X112814191Y71708081D01*
X112814191Y71708081D02*
X112814191Y72020462D01*
X112814191Y72020462D02*
X112775143Y72098557D01*
X112775143Y72098557D02*
X112736096Y72137604D01*
X112736096Y72137604D02*
X112658000Y72176652D01*
X112658000Y72176652D02*
X112540858Y72176652D01*
X112540858Y72176652D02*
X112462762Y72137604D01*
X112462762Y72137604D02*
X112423715Y72098557D01*
X112423715Y72098557D02*
X112384667Y72020462D01*
X112384667Y72020462D02*
X112384667Y71708081D01*
X112736096Y72489033D02*
X112775143Y72528081D01*
X112775143Y72528081D02*
X112814191Y72606176D01*
X112814191Y72606176D02*
X112814191Y72801414D01*
X112814191Y72801414D02*
X112775143Y72879509D01*
X112775143Y72879509D02*
X112736096Y72918557D01*
X112736096Y72918557D02*
X112658000Y72957604D01*
X112658000Y72957604D02*
X112579905Y72957604D01*
X112579905Y72957604D02*
X112462762Y72918557D01*
X112462762Y72918557D02*
X111994191Y72449985D01*
X111994191Y72449985D02*
X111994191Y72957604D01*
X112814191Y73660461D02*
X112814191Y73504271D01*
X112814191Y73504271D02*
X112775143Y73426175D01*
X112775143Y73426175D02*
X112736096Y73387128D01*
X112736096Y73387128D02*
X112618953Y73309033D01*
X112618953Y73309033D02*
X112462762Y73269985D01*
X112462762Y73269985D02*
X112150381Y73269985D01*
X112150381Y73269985D02*
X112072286Y73309033D01*
X112072286Y73309033D02*
X112033239Y73348080D01*
X112033239Y73348080D02*
X111994191Y73426175D01*
X111994191Y73426175D02*
X111994191Y73582366D01*
X111994191Y73582366D02*
X112033239Y73660461D01*
X112033239Y73660461D02*
X112072286Y73699509D01*
X112072286Y73699509D02*
X112150381Y73738556D01*
X112150381Y73738556D02*
X112345619Y73738556D01*
X112345619Y73738556D02*
X112423715Y73699509D01*
X112423715Y73699509D02*
X112462762Y73660461D01*
X112462762Y73660461D02*
X112501810Y73582366D01*
X112501810Y73582366D02*
X112501810Y73426175D01*
X112501810Y73426175D02*
X112462762Y73348080D01*
X112462762Y73348080D02*
X112423715Y73309033D01*
X112423715Y73309033D02*
X112345619Y73269985D01*
X121654508Y45800238D02*
X120834508Y45800238D01*
X120834508Y45800238D02*
X120834508Y45605000D01*
X120834508Y45605000D02*
X120873556Y45487857D01*
X120873556Y45487857D02*
X120951651Y45409762D01*
X120951651Y45409762D02*
X121029746Y45370715D01*
X121029746Y45370715D02*
X121185937Y45331667D01*
X121185937Y45331667D02*
X121303080Y45331667D01*
X121303080Y45331667D02*
X121459270Y45370715D01*
X121459270Y45370715D02*
X121537365Y45409762D01*
X121537365Y45409762D02*
X121615461Y45487857D01*
X121615461Y45487857D02*
X121654508Y45605000D01*
X121654508Y45605000D02*
X121654508Y45800238D01*
X120834508Y45058334D02*
X120834508Y44550715D01*
X120834508Y44550715D02*
X121146889Y44824048D01*
X121146889Y44824048D02*
X121146889Y44706905D01*
X121146889Y44706905D02*
X121185937Y44628810D01*
X121185937Y44628810D02*
X121224984Y44589762D01*
X121224984Y44589762D02*
X121303080Y44550715D01*
X121303080Y44550715D02*
X121498318Y44550715D01*
X121498318Y44550715D02*
X121576413Y44589762D01*
X121576413Y44589762D02*
X121615461Y44628810D01*
X121615461Y44628810D02*
X121654508Y44706905D01*
X121654508Y44706905D02*
X121654508Y44941191D01*
X121654508Y44941191D02*
X121615461Y45019286D01*
X121615461Y45019286D02*
X121576413Y45058334D01*
D10*
X115490530Y48809860D02*
X116069590Y48759280D01*
X115776245Y48314989D02*
X116642270Y48814989D01*
X116642270Y48814989D02*
X116451794Y49144903D01*
X116451794Y49144903D02*
X116362935Y49203572D01*
X116362935Y49203572D02*
X116297887Y49221002D01*
X116297887Y49221002D02*
X116191598Y49214622D01*
X116191598Y49214622D02*
X116067881Y49143194D01*
X116067881Y49143194D02*
X116009211Y49054335D01*
X116009211Y49054335D02*
X115991782Y48989286D01*
X115991782Y48989286D02*
X115998161Y48882998D01*
X115998161Y48882998D02*
X116188638Y48553084D01*
X115014340Y49634646D02*
X115300054Y49139775D01*
X115157197Y49387211D02*
X116023222Y49887211D01*
X116023222Y49887211D02*
X115947123Y49733303D01*
X115947123Y49733303D02*
X115912264Y49603206D01*
X115912264Y49603206D02*
X115918644Y49496918D01*
X115607410Y50416942D02*
X115624840Y50481991D01*
X115624840Y50481991D02*
X115618460Y50588279D01*
X115618460Y50588279D02*
X115499413Y50794475D01*
X115499413Y50794475D02*
X115410554Y50853144D01*
X115410554Y50853144D02*
X115345506Y50870574D01*
X115345506Y50870574D02*
X115239217Y50864194D01*
X115239217Y50864194D02*
X115156739Y50816575D01*
X115156739Y50816575D02*
X115056830Y50703908D01*
X115056830Y50703908D02*
X114847673Y49923322D01*
X114847673Y49923322D02*
X114538149Y50459433D01*
D12*
X125728508Y48099238D02*
X124908508Y48099238D01*
X124908508Y48099238D02*
X124908508Y47904000D01*
X124908508Y47904000D02*
X124947556Y47786857D01*
X124947556Y47786857D02*
X125025651Y47708762D01*
X125025651Y47708762D02*
X125103746Y47669715D01*
X125103746Y47669715D02*
X125259937Y47630667D01*
X125259937Y47630667D02*
X125377080Y47630667D01*
X125377080Y47630667D02*
X125533270Y47669715D01*
X125533270Y47669715D02*
X125611365Y47708762D01*
X125611365Y47708762D02*
X125689461Y47786857D01*
X125689461Y47786857D02*
X125728508Y47904000D01*
X125728508Y47904000D02*
X125728508Y48099238D01*
X125181841Y46927810D02*
X125728508Y46927810D01*
X124869461Y47123048D02*
X125455175Y47318286D01*
X125455175Y47318286D02*
X125455175Y46810667D01*
D10*
X122285094Y67068181D02*
X122285094Y68068181D01*
X122285094Y68068181D02*
X122046999Y68068181D01*
X122046999Y68068181D02*
X121904142Y68020562D01*
X121904142Y68020562D02*
X121808904Y67925324D01*
X121808904Y67925324D02*
X121761285Y67830086D01*
X121761285Y67830086D02*
X121713666Y67639610D01*
X121713666Y67639610D02*
X121713666Y67496753D01*
X121713666Y67496753D02*
X121761285Y67306277D01*
X121761285Y67306277D02*
X121808904Y67211039D01*
X121808904Y67211039D02*
X121904142Y67115800D01*
X121904142Y67115800D02*
X122046999Y67068181D01*
X122046999Y67068181D02*
X122285094Y67068181D01*
X121380332Y68068181D02*
X120713666Y68068181D01*
X120713666Y68068181D02*
X121142237Y67068181D01*
D12*
X17352092Y37564986D02*
X17078759Y37174510D01*
X16883521Y37564986D02*
X16883521Y36744986D01*
X16883521Y36744986D02*
X17195902Y36744986D01*
X17195902Y36744986D02*
X17273997Y36784034D01*
X17273997Y36784034D02*
X17313044Y36823081D01*
X17313044Y36823081D02*
X17352092Y36901177D01*
X17352092Y36901177D02*
X17352092Y37018319D01*
X17352092Y37018319D02*
X17313044Y37096415D01*
X17313044Y37096415D02*
X17273997Y37135462D01*
X17273997Y37135462D02*
X17195902Y37174510D01*
X17195902Y37174510D02*
X16883521Y37174510D01*
X18093997Y36744986D02*
X17703521Y36744986D01*
X17703521Y36744986D02*
X17664473Y37135462D01*
X17664473Y37135462D02*
X17703521Y37096415D01*
X17703521Y37096415D02*
X17781616Y37057367D01*
X17781616Y37057367D02*
X17976854Y37057367D01*
X17976854Y37057367D02*
X18054949Y37096415D01*
X18054949Y37096415D02*
X18093997Y37135462D01*
X18093997Y37135462D02*
X18133044Y37213558D01*
X18133044Y37213558D02*
X18133044Y37408796D01*
X18133044Y37408796D02*
X18093997Y37486891D01*
X18093997Y37486891D02*
X18054949Y37525938D01*
X18054949Y37525938D02*
X17976854Y37564986D01*
X17976854Y37564986D02*
X17781616Y37564986D01*
X17781616Y37564986D02*
X17703521Y37525938D01*
X17703521Y37525938D02*
X17664473Y37486891D01*
X127556191Y73976652D02*
X127946667Y73703319D01*
X127556191Y73508081D02*
X128376191Y73508081D01*
X128376191Y73508081D02*
X128376191Y73820462D01*
X128376191Y73820462D02*
X128337143Y73898557D01*
X128337143Y73898557D02*
X128298096Y73937604D01*
X128298096Y73937604D02*
X128220000Y73976652D01*
X128220000Y73976652D02*
X128102858Y73976652D01*
X128102858Y73976652D02*
X128024762Y73937604D01*
X128024762Y73937604D02*
X127985715Y73898557D01*
X127985715Y73898557D02*
X127946667Y73820462D01*
X127946667Y73820462D02*
X127946667Y73508081D01*
X128298096Y74289033D02*
X128337143Y74328081D01*
X128337143Y74328081D02*
X128376191Y74406176D01*
X128376191Y74406176D02*
X128376191Y74601414D01*
X128376191Y74601414D02*
X128337143Y74679509D01*
X128337143Y74679509D02*
X128298096Y74718557D01*
X128298096Y74718557D02*
X128220000Y74757604D01*
X128220000Y74757604D02*
X128141905Y74757604D01*
X128141905Y74757604D02*
X128024762Y74718557D01*
X128024762Y74718557D02*
X127556191Y74249985D01*
X127556191Y74249985D02*
X127556191Y74757604D01*
X128376191Y75499509D02*
X128376191Y75109033D01*
X128376191Y75109033D02*
X127985715Y75069985D01*
X127985715Y75069985D02*
X128024762Y75109033D01*
X128024762Y75109033D02*
X128063810Y75187128D01*
X128063810Y75187128D02*
X128063810Y75382366D01*
X128063810Y75382366D02*
X128024762Y75460461D01*
X128024762Y75460461D02*
X127985715Y75499509D01*
X127985715Y75499509D02*
X127907619Y75538556D01*
X127907619Y75538556D02*
X127712381Y75538556D01*
X127712381Y75538556D02*
X127634286Y75499509D01*
X127634286Y75499509D02*
X127595239Y75460461D01*
X127595239Y75460461D02*
X127556191Y75382366D01*
X127556191Y75382366D02*
X127556191Y75187128D01*
X127556191Y75187128D02*
X127595239Y75109033D01*
X127595239Y75109033D02*
X127634286Y75069985D01*
D10*
X97640530Y49105860D02*
X98219590Y49055280D01*
X97926245Y48610989D02*
X98792270Y49110989D01*
X98792270Y49110989D02*
X98601794Y49440903D01*
X98601794Y49440903D02*
X98512935Y49499572D01*
X98512935Y49499572D02*
X98447887Y49517002D01*
X98447887Y49517002D02*
X98341598Y49510622D01*
X98341598Y49510622D02*
X98217881Y49439194D01*
X98217881Y49439194D02*
X98159211Y49350335D01*
X98159211Y49350335D02*
X98141782Y49285286D01*
X98141782Y49285286D02*
X98148161Y49178998D01*
X98148161Y49178998D02*
X98338638Y48849084D01*
X97164340Y49930646D02*
X97450054Y49435775D01*
X97307197Y49683211D02*
X98173222Y50183211D01*
X98173222Y50183211D02*
X98097123Y50029303D01*
X98097123Y50029303D02*
X98062264Y49899206D01*
X98062264Y49899206D02*
X98068644Y49792918D01*
X97373497Y50711232D02*
X97462355Y50652563D01*
X97462355Y50652563D02*
X97527404Y50635134D01*
X97527404Y50635134D02*
X97633692Y50641513D01*
X97633692Y50641513D02*
X97674932Y50665323D01*
X97674932Y50665323D02*
X97733601Y50754181D01*
X97733601Y50754181D02*
X97751031Y50819230D01*
X97751031Y50819230D02*
X97744651Y50925518D01*
X97744651Y50925518D02*
X97649413Y51090475D01*
X97649413Y51090475D02*
X97560554Y51149144D01*
X97560554Y51149144D02*
X97495506Y51166574D01*
X97495506Y51166574D02*
X97389217Y51160194D01*
X97389217Y51160194D02*
X97347978Y51136385D01*
X97347978Y51136385D02*
X97289309Y51047527D01*
X97289309Y51047527D02*
X97271879Y50982478D01*
X97271879Y50982478D02*
X97278259Y50876190D01*
X97278259Y50876190D02*
X97373497Y50711232D01*
X97373497Y50711232D02*
X97379877Y50604944D01*
X97379877Y50604944D02*
X97362447Y50539895D01*
X97362447Y50539895D02*
X97303778Y50451037D01*
X97303778Y50451037D02*
X97138821Y50355799D01*
X97138821Y50355799D02*
X97032533Y50349419D01*
X97032533Y50349419D02*
X96967484Y50366849D01*
X96967484Y50366849D02*
X96878625Y50425518D01*
X96878625Y50425518D02*
X96783387Y50590475D01*
X96783387Y50590475D02*
X96777008Y50696763D01*
X96777008Y50696763D02*
X96794437Y50761812D01*
X96794437Y50761812D02*
X96853106Y50850671D01*
X96853106Y50850671D02*
X97018064Y50945909D01*
X97018064Y50945909D02*
X97124352Y50952288D01*
X97124352Y50952288D02*
X97189401Y50934859D01*
X97189401Y50934859D02*
X97278259Y50876190D01*
X98293530Y36177860D02*
X98872590Y36127280D01*
X98579245Y35682989D02*
X99445270Y36182989D01*
X99445270Y36182989D02*
X99254794Y36512903D01*
X99254794Y36512903D02*
X99165935Y36571572D01*
X99165935Y36571572D02*
X99100887Y36589002D01*
X99100887Y36589002D02*
X98994598Y36582622D01*
X98994598Y36582622D02*
X98870881Y36511194D01*
X98870881Y36511194D02*
X98812211Y36422335D01*
X98812211Y36422335D02*
X98794782Y36357286D01*
X98794782Y36357286D02*
X98801161Y36250998D01*
X98801161Y36250998D02*
X98991638Y35921084D01*
X97817340Y37002646D02*
X98103054Y36507775D01*
X97960197Y36755211D02*
X98826222Y37255211D01*
X98826222Y37255211D02*
X98750123Y37101303D01*
X98750123Y37101303D02*
X98715264Y36971206D01*
X98715264Y36971206D02*
X98721644Y36864918D01*
X98516698Y37791322D02*
X98207175Y38327433D01*
X98207175Y38327433D02*
X98043927Y37848281D01*
X98043927Y37848281D02*
X97972498Y37971999D01*
X97972498Y37971999D02*
X97883640Y38030668D01*
X97883640Y38030668D02*
X97818591Y38048098D01*
X97818591Y38048098D02*
X97712303Y38041718D01*
X97712303Y38041718D02*
X97506106Y37922671D01*
X97506106Y37922671D02*
X97447437Y37833812D01*
X97447437Y37833812D02*
X97430008Y37768763D01*
X97430008Y37768763D02*
X97436387Y37662475D01*
X97436387Y37662475D02*
X97579245Y37415040D01*
X97579245Y37415040D02*
X97668103Y37356370D01*
X97668103Y37356370D02*
X97733152Y37338941D01*
X116380928Y66922943D02*
X116476166Y66970562D01*
X116476166Y66970562D02*
X116571404Y67065800D01*
X116571404Y67065800D02*
X116714261Y67208658D01*
X116714261Y67208658D02*
X116809499Y67256277D01*
X116809499Y67256277D02*
X116904737Y67256277D01*
X116857118Y67018181D02*
X116952356Y67065800D01*
X116952356Y67065800D02*
X117047594Y67161039D01*
X117047594Y67161039D02*
X117095213Y67351515D01*
X117095213Y67351515D02*
X117095213Y67684848D01*
X117095213Y67684848D02*
X117047594Y67875324D01*
X117047594Y67875324D02*
X116952356Y67970562D01*
X116952356Y67970562D02*
X116857118Y68018181D01*
X116857118Y68018181D02*
X116666642Y68018181D01*
X116666642Y68018181D02*
X116571404Y67970562D01*
X116571404Y67970562D02*
X116476166Y67875324D01*
X116476166Y67875324D02*
X116428547Y67684848D01*
X116428547Y67684848D02*
X116428547Y67351515D01*
X116428547Y67351515D02*
X116476166Y67161039D01*
X116476166Y67161039D02*
X116571404Y67065800D01*
X116571404Y67065800D02*
X116666642Y67018181D01*
X116666642Y67018181D02*
X116857118Y67018181D01*
X115476166Y67018181D02*
X116047594Y67018181D01*
X115761880Y67018181D02*
X115761880Y68018181D01*
X115761880Y68018181D02*
X115857118Y67875324D01*
X115857118Y67875324D02*
X115952356Y67780086D01*
X115952356Y67780086D02*
X116047594Y67732467D01*
X115095213Y67922943D02*
X115047594Y67970562D01*
X115047594Y67970562D02*
X114952356Y68018181D01*
X114952356Y68018181D02*
X114714261Y68018181D01*
X114714261Y68018181D02*
X114619023Y67970562D01*
X114619023Y67970562D02*
X114571404Y67922943D01*
X114571404Y67922943D02*
X114523785Y67827705D01*
X114523785Y67827705D02*
X114523785Y67732467D01*
X114523785Y67732467D02*
X114571404Y67589610D01*
X114571404Y67589610D02*
X115142832Y67018181D01*
X115142832Y67018181D02*
X114523785Y67018181D01*
X135584094Y68121181D02*
X135584094Y69121181D01*
X135584094Y69121181D02*
X135345999Y69121181D01*
X135345999Y69121181D02*
X135203142Y69073562D01*
X135203142Y69073562D02*
X135107904Y68978324D01*
X135107904Y68978324D02*
X135060285Y68883086D01*
X135060285Y68883086D02*
X135012666Y68692610D01*
X135012666Y68692610D02*
X135012666Y68549753D01*
X135012666Y68549753D02*
X135060285Y68359277D01*
X135060285Y68359277D02*
X135107904Y68264039D01*
X135107904Y68264039D02*
X135203142Y68168800D01*
X135203142Y68168800D02*
X135345999Y68121181D01*
X135345999Y68121181D02*
X135584094Y68121181D01*
X134155523Y69121181D02*
X134345999Y69121181D01*
X134345999Y69121181D02*
X134441237Y69073562D01*
X134441237Y69073562D02*
X134488856Y69025943D01*
X134488856Y69025943D02*
X134584094Y68883086D01*
X134584094Y68883086D02*
X134631713Y68692610D01*
X134631713Y68692610D02*
X134631713Y68311658D01*
X134631713Y68311658D02*
X134584094Y68216420D01*
X134584094Y68216420D02*
X134536475Y68168800D01*
X134536475Y68168800D02*
X134441237Y68121181D01*
X134441237Y68121181D02*
X134250761Y68121181D01*
X134250761Y68121181D02*
X134155523Y68168800D01*
X134155523Y68168800D02*
X134107904Y68216420D01*
X134107904Y68216420D02*
X134060285Y68311658D01*
X134060285Y68311658D02*
X134060285Y68549753D01*
X134060285Y68549753D02*
X134107904Y68644991D01*
X134107904Y68644991D02*
X134155523Y68692610D01*
X134155523Y68692610D02*
X134250761Y68740229D01*
X134250761Y68740229D02*
X134441237Y68740229D01*
X134441237Y68740229D02*
X134536475Y68692610D01*
X134536475Y68692610D02*
X134584094Y68644991D01*
X134584094Y68644991D02*
X134631713Y68549753D01*
X110294530Y39965860D02*
X110873590Y39915280D01*
X110580245Y39470989D02*
X111446270Y39970989D01*
X111446270Y39970989D02*
X111255794Y40300903D01*
X111255794Y40300903D02*
X111166935Y40359572D01*
X111166935Y40359572D02*
X111101887Y40377002D01*
X111101887Y40377002D02*
X110995598Y40370622D01*
X110995598Y40370622D02*
X110871881Y40299194D01*
X110871881Y40299194D02*
X110813211Y40210335D01*
X110813211Y40210335D02*
X110795782Y40145286D01*
X110795782Y40145286D02*
X110802161Y40038998D01*
X110802161Y40038998D02*
X110992638Y39709084D01*
X109818340Y40790646D02*
X110104054Y40295775D01*
X109961197Y40543211D02*
X110827222Y41043211D01*
X110827222Y41043211D02*
X110751123Y40889303D01*
X110751123Y40889303D02*
X110716264Y40759206D01*
X110716264Y40759206D02*
X110722644Y40652918D01*
X109967119Y41866287D02*
X109389768Y41532954D01*
X110416081Y41850567D02*
X109916539Y41287228D01*
X109916539Y41287228D02*
X109607015Y41823339D01*
X130767428Y67975943D02*
X130862666Y68023562D01*
X130862666Y68023562D02*
X130957904Y68118800D01*
X130957904Y68118800D02*
X131100761Y68261658D01*
X131100761Y68261658D02*
X131195999Y68309277D01*
X131195999Y68309277D02*
X131291237Y68309277D01*
X131243618Y68071181D02*
X131338856Y68118800D01*
X131338856Y68118800D02*
X131434094Y68214039D01*
X131434094Y68214039D02*
X131481713Y68404515D01*
X131481713Y68404515D02*
X131481713Y68737848D01*
X131481713Y68737848D02*
X131434094Y68928324D01*
X131434094Y68928324D02*
X131338856Y69023562D01*
X131338856Y69023562D02*
X131243618Y69071181D01*
X131243618Y69071181D02*
X131053142Y69071181D01*
X131053142Y69071181D02*
X130957904Y69023562D01*
X130957904Y69023562D02*
X130862666Y68928324D01*
X130862666Y68928324D02*
X130815047Y68737848D01*
X130815047Y68737848D02*
X130815047Y68404515D01*
X130815047Y68404515D02*
X130862666Y68214039D01*
X130862666Y68214039D02*
X130957904Y68118800D01*
X130957904Y68118800D02*
X131053142Y68071181D01*
X131053142Y68071181D02*
X131243618Y68071181D01*
X129862666Y68071181D02*
X130434094Y68071181D01*
X130148380Y68071181D02*
X130148380Y69071181D01*
X130148380Y69071181D02*
X130243618Y68928324D01*
X130243618Y68928324D02*
X130338856Y68833086D01*
X130338856Y68833086D02*
X130434094Y68785467D01*
X128910285Y68071181D02*
X129481713Y68071181D01*
X129195999Y68071181D02*
X129195999Y69071181D01*
X129195999Y69071181D02*
X129291237Y68928324D01*
X129291237Y68928324D02*
X129386475Y68833086D01*
X129386475Y68833086D02*
X129481713Y68785467D01*
D13*
G04 #@! TO.C,M3*
X13922000Y53252000D02*
X7522000Y53252000D01*
X4322000Y53252000D02*
X5622000Y53252000D01*
X4322000Y53252000D02*
X4322000Y38252000D01*
X13922000Y38852000D02*
X13922000Y53252000D01*
X4322000Y38252000D02*
X9422000Y38252000D01*
G04 #@! TO.C,M7*
X15766000Y7379000D02*
X1866000Y7379000D01*
X1866000Y7379000D02*
X1866000Y34879000D01*
X1866000Y34879000D02*
X15766000Y34879000D01*
X15766000Y34879000D02*
X15766000Y7379000D01*
G04 #@! TO.C,M1*
X38239001Y16057001D02*
X38239001Y12856998D01*
X38239001Y28157001D02*
X38239001Y17756999D01*
X38239001Y30057001D02*
X38239001Y29757001D01*
X38239001Y30057001D02*
X22839001Y30057001D01*
X36739001Y9457003D02*
X21439002Y9457001D01*
X21439004Y16156999D02*
X21439004Y11356999D01*
X21439004Y22357001D02*
X21439004Y19657001D01*
X21439004Y25056999D02*
X21439004Y23956996D01*
X21439004Y28607001D02*
X21438999Y27057001D01*
X21439002Y9756999D02*
X21439002Y9457001D01*
G04 #@! TO.C,M4*
X70683000Y69856000D02*
X70683000Y63456000D01*
X70683000Y60256000D02*
X70683000Y61556000D01*
X70683000Y60256000D02*
X85683000Y60256000D01*
X85083000Y69856000D02*
X70683000Y69856000D01*
X85683000Y60256000D02*
X85683000Y65356000D01*
D14*
G04 #@! TO.C,P3*
X-46607500Y41099000D02*
X-49267500Y41099000D01*
X-49267500Y41393462D02*
X-49267500Y41099000D01*
X-46607500Y41404627D02*
X-46607500Y41099000D01*
X-49267500Y43453373D02*
X-49267500Y43759000D01*
X-46607500Y43464538D02*
X-46607500Y43759000D01*
X-49267500Y43759000D02*
X-46607500Y43759000D01*
G04 #@! TO.C,P4*
X-42827500Y41099000D02*
X-45487500Y41099000D01*
X-45487500Y41393462D02*
X-45487500Y41099000D01*
X-42827500Y41404627D02*
X-42827500Y41099000D01*
X-45487500Y43453373D02*
X-45487500Y43759000D01*
X-42827500Y43464538D02*
X-42827500Y43759000D01*
X-45487500Y43759000D02*
X-42827500Y43759000D01*
G04 #@! TO.C,F2*
X29654163Y53862051D02*
X26224695Y57291518D01*
X28239949Y52447837D02*
X24810482Y55877305D01*
X26224695Y57291518D02*
G75*
G03*
X24810482Y55877305I-707107J-707106D01*
G01*
X28275305Y52412482D02*
G75*
G03*
X29689518Y53826695I707107J707106D01*
G01*
D13*
G04 #@! TO.C,M6*
X80287005Y18787015D02*
X46486995Y18787015D01*
X80287005Y54587005D02*
X80287005Y18787015D01*
X80287005Y54587005D02*
X46486995Y54587005D01*
X46486995Y54587005D02*
X46486995Y18787015D01*
D14*
G04 #@! TO.C,F1*
X29860163Y49835051D02*
X26430695Y53264518D01*
X28445949Y48420837D02*
X25016482Y51850305D01*
X26430695Y53264518D02*
G75*
G03*
X25016482Y51850305I-707107J-707106D01*
G01*
X28481305Y48385482D02*
G75*
G03*
X29895518Y49799695I707107J707106D01*
G01*
D13*
G04 #@! TO.C,M5*
X111480000Y10612000D02*
X138980000Y10612000D01*
X138980000Y10612000D02*
X138980000Y24512000D01*
X138980000Y24512000D02*
X111480000Y24512000D01*
X111480000Y24512000D02*
X111480000Y10612000D01*
D14*
G04 #@! TO.C,D2*
X128054000Y50223000D02*
X128054000Y54123000D01*
X130054000Y50223000D02*
X128054000Y50223000D01*
X130054000Y50223000D02*
X130054000Y54123000D01*
D12*
X129054000Y51923000D02*
X129054000Y52123000D01*
X128704000Y52123000D02*
X129404000Y52123000D01*
X129054000Y52123000D02*
X128704000Y52823000D01*
X129054000Y52123000D02*
X129404000Y52823000D01*
X128704000Y52823000D02*
X129404000Y52823000D01*
X129054000Y52823000D02*
X129054000Y53123000D01*
D14*
G04 #@! TO.C,D5*
X124062000Y50250000D02*
X124062000Y54150000D01*
X126062000Y50250000D02*
X124062000Y50250000D01*
X126062000Y50250000D02*
X126062000Y54150000D01*
D12*
X125062000Y51950000D02*
X125062000Y52150000D01*
X124712000Y52150000D02*
X125412000Y52150000D01*
X125062000Y52150000D02*
X124712000Y52850000D01*
X125062000Y52150000D02*
X125412000Y52850000D01*
X124712000Y52850000D02*
X125412000Y52850000D01*
X125062000Y52850000D02*
X125062000Y53150000D01*
D15*
G04 #@! TO.C,R26*
X111526160Y69471944D02*
X111526149Y69871943D01*
X112271995Y69473000D02*
X112271985Y69873000D01*
D14*
G04 #@! TO.C,D3*
X118284000Y42945000D02*
X118284000Y46845000D01*
X120284000Y42945000D02*
X118284000Y42945000D01*
X120284000Y42945000D02*
X120284000Y46845000D01*
D12*
X119284000Y44645000D02*
X119284000Y44845000D01*
X118934000Y44845000D02*
X119634000Y44845000D01*
X119284000Y44845000D02*
X118934000Y45545000D01*
X119284000Y44845000D02*
X119634000Y45545000D01*
X118934000Y45545000D02*
X119634000Y45545000D01*
X119284000Y45545000D02*
X119284000Y45845000D01*
D14*
G04 #@! TO.C,R12*
X112901629Y45543607D02*
X110724565Y49314393D01*
X115863435Y47253607D02*
X113686371Y51024393D01*
G04 #@! TO.C,D4*
X122358000Y45244000D02*
X122358000Y49144000D01*
X124358000Y45244000D02*
X122358000Y45244000D01*
X124358000Y45244000D02*
X124358000Y49144000D01*
D12*
X123358000Y46944000D02*
X123358000Y47144000D01*
X123008000Y47144000D02*
X123708000Y47144000D01*
X123358000Y47144000D02*
X123008000Y47844000D01*
X123358000Y47144000D02*
X123708000Y47844000D01*
X123008000Y47844000D02*
X123708000Y47844000D01*
X123358000Y47844000D02*
X123358000Y48144000D01*
D14*
G04 #@! TO.C,D7*
X120897000Y70373000D02*
X120897000Y69448000D01*
X121547000Y71483000D02*
X120897000Y71483000D01*
X121547000Y71483000D02*
X122197000Y71483000D01*
X121547000Y68363000D02*
X119872000Y68363000D01*
X121547000Y68363000D02*
X122197000Y68363000D01*
X122297000Y71473000D02*
X122297000Y70473000D01*
X122297000Y69423000D02*
X122297000Y68363000D01*
D15*
G04 #@! TO.C,R5*
X17610944Y38698840D02*
X18010943Y38698851D01*
X17612000Y37953005D02*
X18012000Y37953015D01*
G04 #@! TO.C,R25*
X127075160Y70724944D02*
X127075149Y71124943D01*
X127820995Y70726000D02*
X127820985Y71126000D01*
D14*
G04 #@! TO.C,R18*
X95051629Y45839607D02*
X92874565Y49610393D01*
X98013435Y47549607D02*
X95836371Y51320393D01*
G04 #@! TO.C,R13*
X95704629Y32911607D02*
X93527565Y36682393D01*
X98666435Y34621607D02*
X96489371Y38392393D01*
G04 #@! TO.C,Q12*
X115159500Y70323000D02*
X115159500Y69398000D01*
X115809500Y71433000D02*
X115159500Y71433000D01*
X115809500Y71433000D02*
X116459500Y71433000D01*
X115809500Y68313000D02*
X114134500Y68313000D01*
X115809500Y68313000D02*
X116459500Y68313000D01*
X116559500Y71423000D02*
X116559500Y70423000D01*
X116559500Y69373000D02*
X116559500Y68313000D01*
G04 #@! TO.C,D6*
X134196000Y71426000D02*
X134196000Y70501000D01*
X134846000Y72536000D02*
X134196000Y72536000D01*
X134846000Y72536000D02*
X135496000Y72536000D01*
X134846000Y69416000D02*
X133171000Y69416000D01*
X134846000Y69416000D02*
X135496000Y69416000D01*
X135596000Y72526000D02*
X135596000Y71526000D01*
X135596000Y70476000D02*
X135596000Y69416000D01*
G04 #@! TO.C,R14*
X107705629Y36699607D02*
X105528565Y40470393D01*
X110667435Y38409607D02*
X108490371Y42180393D01*
G04 #@! TO.C,Q11*
X129546000Y71376000D02*
X129546000Y70451000D01*
X130196000Y72486000D02*
X129546000Y72486000D01*
X130196000Y72486000D02*
X130846000Y72486000D01*
X130196000Y69366000D02*
X128521000Y69366000D01*
X130196000Y69366000D02*
X130846000Y69366000D01*
X130946000Y72476000D02*
X130946000Y71476000D01*
X130946000Y70426000D02*
X130946000Y69366000D01*
G04 #@! TD*
M02*
