G04 #@! TF.GenerationSoftware,KiCad,Pcbnew,7.0.9-7.0.9~ubuntu22.04.1*
G04 #@! TF.CreationDate,2023-12-28T21:10:10+00:00*
G04 #@! TF.ProjectId,uaeficopiedtovfr,75616566-6963-46f7-9069-6564746f7666,rev?*
G04 #@! TF.SameCoordinates,Original*
G04 #@! TF.FileFunction,Soldermask,Top*
G04 #@! TF.FilePolarity,Negative*
%FSLAX46Y46*%
G04 Gerber Fmt 4.6, Leading zero omitted, Abs format (unit mm)*
G04 Created by KiCad (PCBNEW 7.0.9-7.0.9~ubuntu22.04.1) date 2023-12-28 21:10:10*
%MOMM*%
%LPD*%
G01*
G04 APERTURE LIST*
%ADD10C,0.120000*%
%ADD11C,1.524000*%
%ADD12R,2.000000X1.500000*%
%ADD13R,2.000000X3.800000*%
%ADD14R,2.682000X2.682000*%
%ADD15C,2.682000*%
%ADD16C,3.240000*%
%ADD17C,5.600000*%
%ADD18C,0.600000*%
%ADD19C,1.500000*%
%ADD20C,1.700000*%
%ADD21C,0.650000*%
%ADD22R,0.300000X1.150000*%
%ADD23O,1.000000X2.100000*%
%ADD24O,1.000000X1.600000*%
%ADD25R,1.300000X1.000000*%
G04 APERTURE END LIST*
G04 #@! TO.C,U2*
D10*
X153712500Y45175000D02*
X140712500Y45175000D01*
X140712500Y52175000D01*
X153712500Y52175000D01*
X153712500Y45175000D01*
G36*
X153712500Y45175000D02*
G01*
X140712500Y45175000D01*
X140712500Y52175000D01*
X153712500Y52175000D01*
X153712500Y45175000D01*
G37*
G04 #@! TD*
D11*
G04 #@! TO.C,R4*
X118105000Y15275000D03*
G36*
G01*
X117650001Y15900000D02*
X117650001Y14650000D01*
G75*
G02*
X117550001Y14550000I-100000J0D01*
G01*
X116750001Y14550000D01*
G75*
G02*
X116650001Y14650000I0J100000D01*
G01*
X116650001Y15900000D01*
G75*
G02*
X116750001Y16000000I100000J0D01*
G01*
X117550001Y16000000D01*
G75*
G02*
X117650001Y15900000I0J-100000D01*
G01*
G37*
G36*
G01*
X115749979Y15900000D02*
X115749979Y14650000D01*
G75*
G02*
X115649979Y14550000I-100000J0D01*
G01*
X114849979Y14550000D01*
G75*
G02*
X114749979Y14650000I0J100000D01*
G01*
X114749979Y15900000D01*
G75*
G02*
X114849979Y16000000I100000J0D01*
G01*
X115649979Y16000000D01*
G75*
G02*
X115749979Y15900000I0J-100000D01*
G01*
G37*
X114295000Y15275000D03*
G04 #@! TD*
G04 #@! TO.C,R1*
G36*
G01*
X142560000Y56325000D02*
X143340000Y56325000D01*
G75*
G02*
X143410000Y56255000I0J-70000D01*
G01*
X143410000Y55695000D01*
G75*
G02*
X143340000Y55625000I-70000J0D01*
G01*
X142560000Y55625000D01*
G75*
G02*
X142490000Y55695000I0J70000D01*
G01*
X142490000Y56255000D01*
G75*
G02*
X142560000Y56325000I70000J0D01*
G01*
G37*
G36*
G01*
X142560000Y54725000D02*
X143340000Y54725000D01*
G75*
G02*
X143410000Y54655000I0J-70000D01*
G01*
X143410000Y54095000D01*
G75*
G02*
X143340000Y54025000I-70000J0D01*
G01*
X142560000Y54025000D01*
G75*
G02*
X142490000Y54095000I0J70000D01*
G01*
X142490000Y54655000D01*
G75*
G02*
X142560000Y54725000I70000J0D01*
G01*
G37*
G04 #@! TD*
D12*
G04 #@! TO.C,Q14*
X56950000Y55200000D03*
X56950000Y52900000D03*
X56950000Y50600000D03*
D13*
X63250000Y52900000D03*
G04 #@! TD*
D14*
G04 #@! TO.C,J4*
X75010000Y8225000D03*
D15*
X79460000Y8225000D03*
X83900000Y8225000D03*
X88350000Y8225000D03*
X92790000Y8225000D03*
X97240000Y8225000D03*
X97240000Y3775000D03*
X92790000Y3775000D03*
X88350000Y3775000D03*
X83900000Y3775000D03*
X79460000Y3775000D03*
X75010000Y3775000D03*
D16*
X68975000Y5995000D03*
X103265000Y5995000D03*
G04 #@! TD*
D17*
G04 #@! TO.C,H2*
X41350000Y19550000D03*
G04 #@! TD*
G04 #@! TO.C,Q8*
G36*
X48717339Y47244005D02*
G01*
X50016377Y47994005D01*
X51016377Y46261955D01*
X49717339Y45511955D01*
X48717339Y47244005D01*
G37*
G36*
X46725481Y46094005D02*
G01*
X48024519Y46844005D01*
X49024519Y45111955D01*
X47725481Y44361955D01*
X46725481Y46094005D01*
G37*
G36*
X44733623Y44944005D02*
G01*
X46032661Y45694005D01*
X47032661Y43961955D01*
X45733623Y43211955D01*
X44733623Y44944005D01*
G37*
G36*
X48879552Y40063045D02*
G01*
X52170448Y41963045D01*
X53170448Y40230995D01*
X49879552Y38330995D01*
X48879552Y40063045D01*
G37*
G04 #@! TD*
G04 #@! TO.C,R8*
G36*
G01*
X143350000Y10290000D02*
X143350000Y9510000D01*
G75*
G02*
X143280000Y9440000I-70000J0D01*
G01*
X142720000Y9440000D01*
G75*
G02*
X142650000Y9510000I0J70000D01*
G01*
X142650000Y10290000D01*
G75*
G02*
X142720000Y10360000I70000J0D01*
G01*
X143280000Y10360000D01*
G75*
G02*
X143350000Y10290000I0J-70000D01*
G01*
G37*
G36*
G01*
X141750000Y10290000D02*
X141750000Y9510000D01*
G75*
G02*
X141680000Y9440000I-70000J0D01*
G01*
X141120000Y9440000D01*
G75*
G02*
X141050000Y9510000I0J70000D01*
G01*
X141050000Y10290000D01*
G75*
G02*
X141120000Y10360000I70000J0D01*
G01*
X141680000Y10360000D01*
G75*
G02*
X141750000Y10290000I0J-70000D01*
G01*
G37*
G04 #@! TD*
G04 #@! TO.C,Q10*
G36*
X53838478Y28469491D02*
G01*
X52777818Y27408831D01*
X51363604Y28823045D01*
X52424264Y29883705D01*
X53838478Y28469491D01*
G37*
G36*
X55464823Y30095837D02*
G01*
X54404163Y29035177D01*
X52989949Y30449391D01*
X54050609Y31510051D01*
X55464823Y30095837D01*
G37*
G36*
X57091169Y31722182D02*
G01*
X56030509Y30661522D01*
X54616295Y32075736D01*
X55676955Y33136396D01*
X57091169Y31722182D01*
G37*
G36*
X51823224Y35363782D02*
G01*
X49136218Y32676776D01*
X47722004Y34090990D01*
X50409010Y36777996D01*
X51823224Y35363782D01*
G37*
G04 #@! TD*
G04 #@! TO.C,R32*
G36*
G01*
X65560000Y42100000D02*
X66340000Y42100000D01*
G75*
G02*
X66410000Y42030000I0J-70000D01*
G01*
X66410000Y41470000D01*
G75*
G02*
X66340000Y41400000I-70000J0D01*
G01*
X65560000Y41400000D01*
G75*
G02*
X65490000Y41470000I0J70000D01*
G01*
X65490000Y42030000D01*
G75*
G02*
X65560000Y42100000I70000J0D01*
G01*
G37*
G36*
G01*
X65560000Y40500000D02*
X66340000Y40500000D01*
G75*
G02*
X66410000Y40430000I0J-70000D01*
G01*
X66410000Y39870000D01*
G75*
G02*
X66340000Y39800000I-70000J0D01*
G01*
X65560000Y39800000D01*
G75*
G02*
X65490000Y39870000I0J70000D01*
G01*
X65490000Y40430000D01*
G75*
G02*
X65560000Y40500000I70000J0D01*
G01*
G37*
G04 #@! TD*
D18*
G04 #@! TO.C,M2*
X156575002Y26550000D03*
X157525002Y26550000D03*
X158475000Y26550000D03*
X157475002Y17850000D03*
X156575002Y17850000D03*
G04 #@! TD*
G04 #@! TO.C,M3*
X71425000Y59750000D03*
X71425000Y60950000D03*
X71425000Y58550000D03*
X71425000Y57350000D03*
X85850000Y63810000D03*
X85850000Y64810000D03*
G04 #@! TD*
G04 #@! TO.C,R2*
G36*
G01*
X112290000Y55625000D02*
X111510000Y55625000D01*
G75*
G02*
X111440000Y55695000I0J70000D01*
G01*
X111440000Y56255000D01*
G75*
G02*
X111510000Y56325000I70000J0D01*
G01*
X112290000Y56325000D01*
G75*
G02*
X112360000Y56255000I0J-70000D01*
G01*
X112360000Y55695000D01*
G75*
G02*
X112290000Y55625000I-70000J0D01*
G01*
G37*
G36*
G01*
X112290000Y57225000D02*
X111510000Y57225000D01*
G75*
G02*
X111440000Y57295000I0J70000D01*
G01*
X111440000Y57855000D01*
G75*
G02*
X111510000Y57925000I70000J0D01*
G01*
X112290000Y57925000D01*
G75*
G02*
X112360000Y57855000I0J-70000D01*
G01*
X112360000Y57295000D01*
G75*
G02*
X112290000Y57225000I-70000J0D01*
G01*
G37*
G04 #@! TD*
G04 #@! TO.C,R31*
G36*
G01*
X66490000Y21700000D02*
X65710000Y21700000D01*
G75*
G02*
X65640000Y21770000I0J70000D01*
G01*
X65640000Y22330000D01*
G75*
G02*
X65710000Y22400000I70000J0D01*
G01*
X66490000Y22400000D01*
G75*
G02*
X66560000Y22330000I0J-70000D01*
G01*
X66560000Y21770000D01*
G75*
G02*
X66490000Y21700000I-70000J0D01*
G01*
G37*
G36*
G01*
X66490000Y23300000D02*
X65710000Y23300000D01*
G75*
G02*
X65640000Y23370000I0J70000D01*
G01*
X65640000Y23930000D01*
G75*
G02*
X65710000Y24000000I70000J0D01*
G01*
X66490000Y24000000D01*
G75*
G02*
X66560000Y23930000I0J-70000D01*
G01*
X66560000Y23370000D01*
G75*
G02*
X66490000Y23300000I-70000J0D01*
G01*
G37*
G04 #@! TD*
G04 #@! TO.C,R23*
G36*
G01*
X41110000Y48450000D02*
X41890000Y48450000D01*
G75*
G02*
X41960000Y48380000I0J-70000D01*
G01*
X41960000Y47820000D01*
G75*
G02*
X41890000Y47750000I-70000J0D01*
G01*
X41110000Y47750000D01*
G75*
G02*
X41040000Y47820000I0J70000D01*
G01*
X41040000Y48380000D01*
G75*
G02*
X41110000Y48450000I70000J0D01*
G01*
G37*
G36*
G01*
X41110000Y46850000D02*
X41890000Y46850000D01*
G75*
G02*
X41960000Y46780000I0J-70000D01*
G01*
X41960000Y46220000D01*
G75*
G02*
X41890000Y46150000I-70000J0D01*
G01*
X41110000Y46150000D01*
G75*
G02*
X41040000Y46220000I0J70000D01*
G01*
X41040000Y46780000D01*
G75*
G02*
X41110000Y46850000I70000J0D01*
G01*
G37*
G04 #@! TD*
D12*
G04 #@! TO.C,Q16*
X62200000Y38450000D03*
X62200000Y36150000D03*
X62200000Y33850000D03*
D13*
X68500000Y36150000D03*
G04 #@! TD*
G04 #@! TO.C,Q9*
G36*
X40967339Y44994005D02*
G01*
X42266377Y45744005D01*
X43266377Y44011955D01*
X41967339Y43261955D01*
X40967339Y44994005D01*
G37*
G36*
X38975481Y43844005D02*
G01*
X40274519Y44594005D01*
X41274519Y42861955D01*
X39975481Y42111955D01*
X38975481Y43844005D01*
G37*
G36*
X36983623Y42694005D02*
G01*
X38282661Y43444005D01*
X39282661Y41711955D01*
X37983623Y40961955D01*
X36983623Y42694005D01*
G37*
G36*
X41129552Y37813045D02*
G01*
X44420448Y39713045D01*
X45420448Y37980995D01*
X42129552Y36080995D01*
X41129552Y37813045D01*
G37*
G04 #@! TD*
D19*
G04 #@! TO.C,M1*
X134024999Y19800005D03*
X127625002Y19800005D03*
X125724999Y19800005D03*
X121424999Y19800005D03*
D18*
X119025002Y19350006D03*
X118025001Y19350006D03*
D19*
X115174999Y19800005D03*
X134475001Y35300002D03*
X132625002Y35300002D03*
X127674999Y35300002D03*
X115625001Y35300002D03*
G04 #@! TD*
D12*
G04 #@! TO.C,Q13*
X56650000Y47400000D03*
X56650000Y45100000D03*
X56650000Y42800000D03*
D13*
X62950000Y45100000D03*
G04 #@! TD*
G04 #@! TO.C,R26*
G36*
G01*
X36440000Y68875000D02*
X35660000Y68875000D01*
G75*
G02*
X35590000Y68945000I0J70000D01*
G01*
X35590000Y69505000D01*
G75*
G02*
X35660000Y69575000I70000J0D01*
G01*
X36440000Y69575000D01*
G75*
G02*
X36510000Y69505000I0J-70000D01*
G01*
X36510000Y68945000D01*
G75*
G02*
X36440000Y68875000I-70000J0D01*
G01*
G37*
G36*
G01*
X36440000Y70475000D02*
X35660000Y70475000D01*
G75*
G02*
X35590000Y70545000I0J70000D01*
G01*
X35590000Y71105000D01*
G75*
G02*
X35660000Y71175000I70000J0D01*
G01*
X36440000Y71175000D01*
G75*
G02*
X36510000Y71105000I0J-70000D01*
G01*
X36510000Y70545000D01*
G75*
G02*
X36440000Y70475000I-70000J0D01*
G01*
G37*
G04 #@! TD*
G04 #@! TO.C,C1*
G36*
G01*
X139290000Y26084999D02*
X138610000Y26084999D01*
G75*
G02*
X138525000Y26169999I0J85000D01*
G01*
X138525000Y26849999D01*
G75*
G02*
X138610000Y26934999I85000J0D01*
G01*
X139290000Y26934999D01*
G75*
G02*
X139375000Y26849999I0J-85000D01*
G01*
X139375000Y26169999D01*
G75*
G02*
X139290000Y26084999I-85000J0D01*
G01*
G37*
G36*
G01*
X139290000Y27665001D02*
X138610000Y27665001D01*
G75*
G02*
X138525000Y27750001I0J85000D01*
G01*
X138525000Y28430001D01*
G75*
G02*
X138610000Y28515001I85000J0D01*
G01*
X139290000Y28515001D01*
G75*
G02*
X139375000Y28430001I0J-85000D01*
G01*
X139375000Y27750001D01*
G75*
G02*
X139290000Y27665001I-85000J0D01*
G01*
G37*
G04 #@! TD*
G04 #@! TO.C,Q7*
G36*
X47217339Y57219005D02*
G01*
X48516377Y57969005D01*
X49516377Y56236955D01*
X48217339Y55486955D01*
X47217339Y57219005D01*
G37*
G36*
X45225481Y56069005D02*
G01*
X46524519Y56819005D01*
X47524519Y55086955D01*
X46225481Y54336955D01*
X45225481Y56069005D01*
G37*
G36*
X43233623Y54919005D02*
G01*
X44532661Y55669005D01*
X45532661Y53936955D01*
X44233623Y53186955D01*
X43233623Y54919005D01*
G37*
G36*
X47379552Y50038045D02*
G01*
X50670448Y51938045D01*
X51670448Y50205995D01*
X48379552Y48305995D01*
X47379552Y50038045D01*
G37*
G04 #@! TD*
G04 #@! TO.C,U1*
G36*
G01*
X64625000Y59375001D02*
X64625000Y60974999D01*
G75*
G02*
X64875001Y61225000I250001J0D01*
G01*
X66474999Y61225000D01*
G75*
G02*
X66725000Y60974999I0J-250001D01*
G01*
X66725000Y59375001D01*
G75*
G02*
X66474999Y59125000I-250001J0D01*
G01*
X64875001Y59125000D01*
G75*
G02*
X64625000Y59375001I0J250001D01*
G01*
G37*
G36*
G01*
X58925000Y59375001D02*
X58925000Y60974999D01*
G75*
G02*
X59175001Y61225000I250001J0D01*
G01*
X60774999Y61225000D01*
G75*
G02*
X61025000Y60974999I0J-250001D01*
G01*
X61025000Y59375001D01*
G75*
G02*
X60774999Y59125000I-250001J0D01*
G01*
X59175001Y59125000D01*
G75*
G02*
X58925000Y59375001I0J250001D01*
G01*
G37*
G36*
G01*
X53225000Y59375001D02*
X53225000Y60974999D01*
G75*
G02*
X53475001Y61225000I250001J0D01*
G01*
X55074999Y61225000D01*
G75*
G02*
X55325000Y60974999I0J-250001D01*
G01*
X55325000Y59375001D01*
G75*
G02*
X55074999Y59125000I-250001J0D01*
G01*
X53475001Y59125000D01*
G75*
G02*
X53225000Y59375001I0J250001D01*
G01*
G37*
G36*
G01*
X47525000Y59375001D02*
X47525000Y60974999D01*
G75*
G02*
X47775001Y61225000I250001J0D01*
G01*
X49374999Y61225000D01*
G75*
G02*
X49625000Y60974999I0J-250001D01*
G01*
X49625000Y59375001D01*
G75*
G02*
X49374999Y59125000I-250001J0D01*
G01*
X47775001Y59125000D01*
G75*
G02*
X47525000Y59375001I0J250001D01*
G01*
G37*
G36*
G01*
X41825000Y59375001D02*
X41825000Y60974999D01*
G75*
G02*
X42075001Y61225000I250001J0D01*
G01*
X43674999Y61225000D01*
G75*
G02*
X43925000Y60974999I0J-250001D01*
G01*
X43925000Y59375001D01*
G75*
G02*
X43674999Y59125000I-250001J0D01*
G01*
X42075001Y59125000D01*
G75*
G02*
X41825000Y59375001I0J250001D01*
G01*
G37*
G36*
G01*
X36125000Y59375001D02*
X36125000Y60974999D01*
G75*
G02*
X36375001Y61225000I250001J0D01*
G01*
X37974999Y61225000D01*
G75*
G02*
X38225000Y60974999I0J-250001D01*
G01*
X38225000Y59375001D01*
G75*
G02*
X37974999Y59125000I-250001J0D01*
G01*
X36375001Y59125000D01*
G75*
G02*
X36125000Y59375001I0J250001D01*
G01*
G37*
G36*
G01*
X30425000Y59375001D02*
X30425000Y60974999D01*
G75*
G02*
X30675001Y61225000I250001J0D01*
G01*
X32274999Y61225000D01*
G75*
G02*
X32525000Y60974999I0J-250001D01*
G01*
X32525000Y59375001D01*
G75*
G02*
X32274999Y59125000I-250001J0D01*
G01*
X30675001Y59125000D01*
G75*
G02*
X30425000Y59375001I0J250001D01*
G01*
G37*
G36*
G01*
X24725000Y59375001D02*
X24725000Y60974999D01*
G75*
G02*
X24975001Y61225000I250001J0D01*
G01*
X26574999Y61225000D01*
G75*
G02*
X26825000Y60974999I0J-250001D01*
G01*
X26825000Y59375001D01*
G75*
G02*
X26574999Y59125000I-250001J0D01*
G01*
X24975001Y59125000D01*
G75*
G02*
X24725000Y59375001I0J250001D01*
G01*
G37*
G36*
G01*
X19025000Y59375001D02*
X19025000Y60974999D01*
G75*
G02*
X19275001Y61225000I250001J0D01*
G01*
X20874999Y61225000D01*
G75*
G02*
X21125000Y60974999I0J-250001D01*
G01*
X21125000Y59375001D01*
G75*
G02*
X20874999Y59125000I-250001J0D01*
G01*
X19275001Y59125000D01*
G75*
G02*
X19025000Y59375001I0J250001D01*
G01*
G37*
G36*
G01*
X13325000Y59375001D02*
X13325000Y60974999D01*
G75*
G02*
X13575001Y61225000I250001J0D01*
G01*
X15174999Y61225000D01*
G75*
G02*
X15425000Y60974999I0J-250001D01*
G01*
X15425000Y59375001D01*
G75*
G02*
X15174999Y59125000I-250001J0D01*
G01*
X13575001Y59125000D01*
G75*
G02*
X13325000Y59375001I0J250001D01*
G01*
G37*
G36*
G01*
X7625000Y59375001D02*
X7625000Y60974999D01*
G75*
G02*
X7875001Y61225000I250001J0D01*
G01*
X9474999Y61225000D01*
G75*
G02*
X9725000Y60974999I0J-250001D01*
G01*
X9725000Y59375001D01*
G75*
G02*
X9474999Y59125000I-250001J0D01*
G01*
X7875001Y59125000D01*
G75*
G02*
X7625000Y59375001I0J250001D01*
G01*
G37*
G36*
G01*
X64625000Y63475001D02*
X64625000Y65074999D01*
G75*
G02*
X64875001Y65325000I250001J0D01*
G01*
X66474999Y65325000D01*
G75*
G02*
X66725000Y65074999I0J-250001D01*
G01*
X66725000Y63475001D01*
G75*
G02*
X66474999Y63225000I-250001J0D01*
G01*
X64875001Y63225000D01*
G75*
G02*
X64625000Y63475001I0J250001D01*
G01*
G37*
G36*
G01*
X58925000Y63475001D02*
X58925000Y65074999D01*
G75*
G02*
X59175001Y65325000I250001J0D01*
G01*
X60774999Y65325000D01*
G75*
G02*
X61025000Y65074999I0J-250001D01*
G01*
X61025000Y63475001D01*
G75*
G02*
X60774999Y63225000I-250001J0D01*
G01*
X59175001Y63225000D01*
G75*
G02*
X58925000Y63475001I0J250001D01*
G01*
G37*
G36*
G01*
X53225000Y63475001D02*
X53225000Y65074999D01*
G75*
G02*
X53475001Y65325000I250001J0D01*
G01*
X55074999Y65325000D01*
G75*
G02*
X55325000Y65074999I0J-250001D01*
G01*
X55325000Y63475001D01*
G75*
G02*
X55074999Y63225000I-250001J0D01*
G01*
X53475001Y63225000D01*
G75*
G02*
X53225000Y63475001I0J250001D01*
G01*
G37*
G36*
G01*
X47525000Y63475001D02*
X47525000Y65074999D01*
G75*
G02*
X47775001Y65325000I250001J0D01*
G01*
X49374999Y65325000D01*
G75*
G02*
X49625000Y65074999I0J-250001D01*
G01*
X49625000Y63475001D01*
G75*
G02*
X49374999Y63225000I-250001J0D01*
G01*
X47775001Y63225000D01*
G75*
G02*
X47525000Y63475001I0J250001D01*
G01*
G37*
G36*
G01*
X41825000Y63475001D02*
X41825000Y65074999D01*
G75*
G02*
X42075001Y65325000I250001J0D01*
G01*
X43674999Y65325000D01*
G75*
G02*
X43925000Y65074999I0J-250001D01*
G01*
X43925000Y63475001D01*
G75*
G02*
X43674999Y63225000I-250001J0D01*
G01*
X42075001Y63225000D01*
G75*
G02*
X41825000Y63475001I0J250001D01*
G01*
G37*
G36*
G01*
X36125000Y63475001D02*
X36125000Y65074999D01*
G75*
G02*
X36375001Y65325000I250001J0D01*
G01*
X37974999Y65325000D01*
G75*
G02*
X38225000Y65074999I0J-250001D01*
G01*
X38225000Y63475001D01*
G75*
G02*
X37974999Y63225000I-250001J0D01*
G01*
X36375001Y63225000D01*
G75*
G02*
X36125000Y63475001I0J250001D01*
G01*
G37*
G36*
G01*
X30425000Y63475001D02*
X30425000Y65074999D01*
G75*
G02*
X30675001Y65325000I250001J0D01*
G01*
X32274999Y65325000D01*
G75*
G02*
X32525000Y65074999I0J-250001D01*
G01*
X32525000Y63475001D01*
G75*
G02*
X32274999Y63225000I-250001J0D01*
G01*
X30675001Y63225000D01*
G75*
G02*
X30425000Y63475001I0J250001D01*
G01*
G37*
G36*
G01*
X24725000Y63475001D02*
X24725000Y65074999D01*
G75*
G02*
X24975001Y65325000I250001J0D01*
G01*
X26574999Y65325000D01*
G75*
G02*
X26825000Y65074999I0J-250001D01*
G01*
X26825000Y63475001D01*
G75*
G02*
X26574999Y63225000I-250001J0D01*
G01*
X24975001Y63225000D01*
G75*
G02*
X24725000Y63475001I0J250001D01*
G01*
G37*
G36*
G01*
X19025000Y63475001D02*
X19025000Y65074999D01*
G75*
G02*
X19275001Y65325000I250001J0D01*
G01*
X20874999Y65325000D01*
G75*
G02*
X21125000Y65074999I0J-250001D01*
G01*
X21125000Y63475001D01*
G75*
G02*
X20874999Y63225000I-250001J0D01*
G01*
X19275001Y63225000D01*
G75*
G02*
X19025000Y63475001I0J250001D01*
G01*
G37*
G36*
G01*
X13325000Y63475001D02*
X13325000Y65074999D01*
G75*
G02*
X13575001Y65325000I250001J0D01*
G01*
X15174999Y65325000D01*
G75*
G02*
X15425000Y65074999I0J-250001D01*
G01*
X15425000Y63475001D01*
G75*
G02*
X15174999Y63225000I-250001J0D01*
G01*
X13575001Y63225000D01*
G75*
G02*
X13325000Y63475001I0J250001D01*
G01*
G37*
G36*
G01*
X7625000Y63475001D02*
X7625000Y65074999D01*
G75*
G02*
X7875001Y65325000I250001J0D01*
G01*
X9474999Y65325000D01*
G75*
G02*
X9725000Y65074999I0J-250001D01*
G01*
X9725000Y63475001D01*
G75*
G02*
X9474999Y63225000I-250001J0D01*
G01*
X7875001Y63225000D01*
G75*
G02*
X7625000Y63475001I0J250001D01*
G01*
G37*
G36*
G01*
X150625000Y59325001D02*
X150625000Y60924999D01*
G75*
G02*
X150875001Y61175000I250001J0D01*
G01*
X152474999Y61175000D01*
G75*
G02*
X152725000Y60924999I0J-250001D01*
G01*
X152725000Y59325001D01*
G75*
G02*
X152474999Y59075000I-250001J0D01*
G01*
X150875001Y59075000D01*
G75*
G02*
X150625000Y59325001I0J250001D01*
G01*
G37*
G36*
G01*
X144925000Y59325001D02*
X144925000Y60924999D01*
G75*
G02*
X145175001Y61175000I250001J0D01*
G01*
X146774999Y61175000D01*
G75*
G02*
X147025000Y60924999I0J-250001D01*
G01*
X147025000Y59325001D01*
G75*
G02*
X146774999Y59075000I-250001J0D01*
G01*
X145175001Y59075000D01*
G75*
G02*
X144925000Y59325001I0J250001D01*
G01*
G37*
G36*
G01*
X139225000Y59325001D02*
X139225000Y60924999D01*
G75*
G02*
X139475001Y61175000I250001J0D01*
G01*
X141074999Y61175000D01*
G75*
G02*
X141325000Y60924999I0J-250001D01*
G01*
X141325000Y59325001D01*
G75*
G02*
X141074999Y59075000I-250001J0D01*
G01*
X139475001Y59075000D01*
G75*
G02*
X139225000Y59325001I0J250001D01*
G01*
G37*
G36*
G01*
X133525000Y59325001D02*
X133525000Y60924999D01*
G75*
G02*
X133775001Y61175000I250001J0D01*
G01*
X135374999Y61175000D01*
G75*
G02*
X135625000Y60924999I0J-250001D01*
G01*
X135625000Y59325001D01*
G75*
G02*
X135374999Y59075000I-250001J0D01*
G01*
X133775001Y59075000D01*
G75*
G02*
X133525000Y59325001I0J250001D01*
G01*
G37*
G36*
G01*
X127825000Y59325001D02*
X127825000Y60924999D01*
G75*
G02*
X128075001Y61175000I250001J0D01*
G01*
X129674999Y61175000D01*
G75*
G02*
X129925000Y60924999I0J-250001D01*
G01*
X129925000Y59325001D01*
G75*
G02*
X129674999Y59075000I-250001J0D01*
G01*
X128075001Y59075000D01*
G75*
G02*
X127825000Y59325001I0J250001D01*
G01*
G37*
G36*
G01*
X122125000Y59325001D02*
X122125000Y60924999D01*
G75*
G02*
X122375001Y61175000I250001J0D01*
G01*
X123974999Y61175000D01*
G75*
G02*
X124225000Y60924999I0J-250001D01*
G01*
X124225000Y59325001D01*
G75*
G02*
X123974999Y59075000I-250001J0D01*
G01*
X122375001Y59075000D01*
G75*
G02*
X122125000Y59325001I0J250001D01*
G01*
G37*
G36*
G01*
X116425000Y59325001D02*
X116425000Y60924999D01*
G75*
G02*
X116675001Y61175000I250001J0D01*
G01*
X118274999Y61175000D01*
G75*
G02*
X118525000Y60924999I0J-250001D01*
G01*
X118525000Y59325001D01*
G75*
G02*
X118274999Y59075000I-250001J0D01*
G01*
X116675001Y59075000D01*
G75*
G02*
X116425000Y59325001I0J250001D01*
G01*
G37*
G36*
G01*
X110725000Y59325001D02*
X110725000Y60924999D01*
G75*
G02*
X110975001Y61175000I250001J0D01*
G01*
X112574999Y61175000D01*
G75*
G02*
X112825000Y60924999I0J-250001D01*
G01*
X112825000Y59325001D01*
G75*
G02*
X112574999Y59075000I-250001J0D01*
G01*
X110975001Y59075000D01*
G75*
G02*
X110725000Y59325001I0J250001D01*
G01*
G37*
G36*
G01*
X105025000Y59325001D02*
X105025000Y60924999D01*
G75*
G02*
X105275001Y61175000I250001J0D01*
G01*
X106874999Y61175000D01*
G75*
G02*
X107125000Y60924999I0J-250001D01*
G01*
X107125000Y59325001D01*
G75*
G02*
X106874999Y59075000I-250001J0D01*
G01*
X105275001Y59075000D01*
G75*
G02*
X105025000Y59325001I0J250001D01*
G01*
G37*
G36*
G01*
X99325000Y59325001D02*
X99325000Y60924999D01*
G75*
G02*
X99575001Y61175000I250001J0D01*
G01*
X101174999Y61175000D01*
G75*
G02*
X101425000Y60924999I0J-250001D01*
G01*
X101425000Y59325001D01*
G75*
G02*
X101174999Y59075000I-250001J0D01*
G01*
X99575001Y59075000D01*
G75*
G02*
X99325000Y59325001I0J250001D01*
G01*
G37*
G36*
G01*
X93625000Y59325001D02*
X93625000Y60924999D01*
G75*
G02*
X93875001Y61175000I250001J0D01*
G01*
X95474999Y61175000D01*
G75*
G02*
X95725000Y60924999I0J-250001D01*
G01*
X95725000Y59325001D01*
G75*
G02*
X95474999Y59075000I-250001J0D01*
G01*
X93875001Y59075000D01*
G75*
G02*
X93625000Y59325001I0J250001D01*
G01*
G37*
G36*
G01*
X150625000Y63425001D02*
X150625000Y65024999D01*
G75*
G02*
X150875001Y65275000I250001J0D01*
G01*
X152474999Y65275000D01*
G75*
G02*
X152725000Y65024999I0J-250001D01*
G01*
X152725000Y63425001D01*
G75*
G02*
X152474999Y63175000I-250001J0D01*
G01*
X150875001Y63175000D01*
G75*
G02*
X150625000Y63425001I0J250001D01*
G01*
G37*
G36*
G01*
X144925000Y63425001D02*
X144925000Y65024999D01*
G75*
G02*
X145175001Y65275000I250001J0D01*
G01*
X146774999Y65275000D01*
G75*
G02*
X147025000Y65024999I0J-250001D01*
G01*
X147025000Y63425001D01*
G75*
G02*
X146774999Y63175000I-250001J0D01*
G01*
X145175001Y63175000D01*
G75*
G02*
X144925000Y63425001I0J250001D01*
G01*
G37*
G36*
G01*
X139225000Y63425001D02*
X139225000Y65024999D01*
G75*
G02*
X139475001Y65275000I250001J0D01*
G01*
X141074999Y65275000D01*
G75*
G02*
X141325000Y65024999I0J-250001D01*
G01*
X141325000Y63425001D01*
G75*
G02*
X141074999Y63175000I-250001J0D01*
G01*
X139475001Y63175000D01*
G75*
G02*
X139225000Y63425001I0J250001D01*
G01*
G37*
G36*
G01*
X133525000Y63425001D02*
X133525000Y65024999D01*
G75*
G02*
X133775001Y65275000I250001J0D01*
G01*
X135374999Y65275000D01*
G75*
G02*
X135625000Y65024999I0J-250001D01*
G01*
X135625000Y63425001D01*
G75*
G02*
X135374999Y63175000I-250001J0D01*
G01*
X133775001Y63175000D01*
G75*
G02*
X133525000Y63425001I0J250001D01*
G01*
G37*
G36*
G01*
X127825000Y63425001D02*
X127825000Y65024999D01*
G75*
G02*
X128075001Y65275000I250001J0D01*
G01*
X129674999Y65275000D01*
G75*
G02*
X129925000Y65024999I0J-250001D01*
G01*
X129925000Y63425001D01*
G75*
G02*
X129674999Y63175000I-250001J0D01*
G01*
X128075001Y63175000D01*
G75*
G02*
X127825000Y63425001I0J250001D01*
G01*
G37*
G36*
G01*
X122125000Y63425001D02*
X122125000Y65024999D01*
G75*
G02*
X122375001Y65275000I250001J0D01*
G01*
X123974999Y65275000D01*
G75*
G02*
X124225000Y65024999I0J-250001D01*
G01*
X124225000Y63425001D01*
G75*
G02*
X123974999Y63175000I-250001J0D01*
G01*
X122375001Y63175000D01*
G75*
G02*
X122125000Y63425001I0J250001D01*
G01*
G37*
G36*
G01*
X116425000Y63425001D02*
X116425000Y65024999D01*
G75*
G02*
X116675001Y65275000I250001J0D01*
G01*
X118274999Y65275000D01*
G75*
G02*
X118525000Y65024999I0J-250001D01*
G01*
X118525000Y63425001D01*
G75*
G02*
X118274999Y63175000I-250001J0D01*
G01*
X116675001Y63175000D01*
G75*
G02*
X116425000Y63425001I0J250001D01*
G01*
G37*
G36*
G01*
X110725000Y63425001D02*
X110725000Y65024999D01*
G75*
G02*
X110975001Y65275000I250001J0D01*
G01*
X112574999Y65275000D01*
G75*
G02*
X112825000Y65024999I0J-250001D01*
G01*
X112825000Y63425001D01*
G75*
G02*
X112574999Y63175000I-250001J0D01*
G01*
X110975001Y63175000D01*
G75*
G02*
X110725000Y63425001I0J250001D01*
G01*
G37*
G36*
G01*
X105025000Y63425001D02*
X105025000Y65024999D01*
G75*
G02*
X105275001Y65275000I250001J0D01*
G01*
X106874999Y65275000D01*
G75*
G02*
X107125000Y65024999I0J-250001D01*
G01*
X107125000Y63425001D01*
G75*
G02*
X106874999Y63175000I-250001J0D01*
G01*
X105275001Y63175000D01*
G75*
G02*
X105025000Y63425001I0J250001D01*
G01*
G37*
G36*
G01*
X99325000Y63425001D02*
X99325000Y65024999D01*
G75*
G02*
X99575001Y65275000I250001J0D01*
G01*
X101174999Y65275000D01*
G75*
G02*
X101425000Y65024999I0J-250001D01*
G01*
X101425000Y63425001D01*
G75*
G02*
X101174999Y63175000I-250001J0D01*
G01*
X99575001Y63175000D01*
G75*
G02*
X99325000Y63425001I0J250001D01*
G01*
G37*
G36*
G01*
X93625000Y63425001D02*
X93625000Y65024999D01*
G75*
G02*
X93875001Y65275000I250001J0D01*
G01*
X95474999Y65275000D01*
G75*
G02*
X95725000Y65024999I0J-250001D01*
G01*
X95725000Y63425001D01*
G75*
G02*
X95474999Y63175000I-250001J0D01*
G01*
X93875001Y63175000D01*
G75*
G02*
X93625000Y63425001I0J250001D01*
G01*
G37*
G04 #@! TD*
G04 #@! TO.C,R24*
G36*
G01*
X53462600Y25011056D02*
X52911056Y25562600D01*
G75*
G02*
X52911056Y25661594I49497J49497D01*
G01*
X53307036Y26057574D01*
G75*
G02*
X53406030Y26057574I49497J-49497D01*
G01*
X53957574Y25506030D01*
G75*
G02*
X53957574Y25407036I-49497J-49497D01*
G01*
X53561594Y25011056D01*
G75*
G02*
X53462600Y25011056I-49497J49497D01*
G01*
G37*
G36*
G01*
X54593970Y26142426D02*
X54042426Y26693970D01*
G75*
G02*
X54042426Y26792964I49497J49497D01*
G01*
X54438406Y27188944D01*
G75*
G02*
X54537400Y27188944I49497J-49497D01*
G01*
X55088944Y26637400D01*
G75*
G02*
X55088944Y26538406I-49497J-49497D01*
G01*
X54692964Y26142426D01*
G75*
G02*
X54593970Y26142426I-49497J49497D01*
G01*
G37*
G04 #@! TD*
D18*
G04 #@! TO.C,M4*
X124475000Y48800000D03*
X124475000Y50000000D03*
X124475000Y47600000D03*
X124475000Y46400000D03*
X138900000Y52860000D03*
X138900000Y53860000D03*
G04 #@! TD*
D20*
G04 #@! TO.C,P3*
X134550000Y41075000D03*
G04 #@! TD*
D21*
G04 #@! TO.C,J9*
X135910000Y6880000D03*
X141690000Y6880000D03*
D22*
X135450000Y7945000D03*
X136250000Y7945000D03*
X137550000Y7945000D03*
X138550000Y7945000D03*
X139050000Y7945000D03*
X140050000Y7945000D03*
X141350000Y7945000D03*
X142150000Y7945000D03*
X141850000Y7945000D03*
X141050000Y7945000D03*
X140550000Y7945000D03*
X139550000Y7945000D03*
X138050000Y7945000D03*
X137050000Y7945000D03*
X136550000Y7945000D03*
X135750000Y7945000D03*
D23*
X134480000Y7380000D03*
D24*
X134480000Y3200000D03*
D23*
X143120000Y7380000D03*
D24*
X143120000Y3200000D03*
G04 #@! TD*
D17*
G04 #@! TO.C,H1*
X146050000Y19550000D03*
G04 #@! TD*
G04 #@! TO.C,Q3*
G36*
G01*
X25095382Y43138319D02*
X24489164Y42788319D01*
G75*
G02*
X24147658Y42879825I-125000J216506D01*
G01*
X23297658Y44352069D01*
G75*
G02*
X23389164Y44693575I216506J125000D01*
G01*
X23995382Y45043575D01*
G75*
G02*
X24336888Y44952069I125000J-216506D01*
G01*
X25186888Y43479825D01*
G75*
G02*
X25095382Y43138319I-216506J-125000D01*
G01*
G37*
G36*
G01*
X26961781Y49065627D02*
X22371842Y46415624D01*
G75*
G02*
X22030339Y46507129I-124999J216504D01*
G01*
X19080336Y51616684D01*
G75*
G02*
X19171842Y51958187I216504J124999D01*
G01*
X23761781Y54608190D01*
G75*
G02*
X24103283Y54516684I124998J-216504D01*
G01*
X27053286Y49407129D01*
G75*
G02*
X26961781Y49065627I-216504J-124998D01*
G01*
G37*
G36*
G01*
X29044458Y45418319D02*
X28438240Y45068319D01*
G75*
G02*
X28096734Y45159825I-125000J216506D01*
G01*
X27246734Y46632069D01*
G75*
G02*
X27338240Y46973575I216506J125000D01*
G01*
X27944458Y47323575D01*
G75*
G02*
X28285964Y47232069I125000J-216506D01*
G01*
X29135964Y45759825D01*
G75*
G02*
X29044458Y45418319I-216506J-125000D01*
G01*
G37*
G04 #@! TD*
G04 #@! TO.C,D7*
G36*
G01*
X28075000Y69475000D02*
X28075000Y69175000D01*
G75*
G02*
X27925000Y69025000I-150000J0D01*
G01*
X26750000Y69025000D01*
G75*
G02*
X26600000Y69175000I0J150000D01*
G01*
X26600000Y69475000D01*
G75*
G02*
X26750000Y69625000I150000J0D01*
G01*
X27925000Y69625000D01*
G75*
G02*
X28075000Y69475000I0J-150000D01*
G01*
G37*
G36*
G01*
X26200000Y70425000D02*
X26200000Y70125000D01*
G75*
G02*
X26050000Y69975000I-150000J0D01*
G01*
X24875000Y69975000D01*
G75*
G02*
X24725000Y70125000I0J150000D01*
G01*
X24725000Y70425000D01*
G75*
G02*
X24875000Y70575000I150000J0D01*
G01*
X26050000Y70575000D01*
G75*
G02*
X26200000Y70425000I0J-150000D01*
G01*
G37*
G36*
G01*
X28075000Y71375000D02*
X28075000Y71075000D01*
G75*
G02*
X27925000Y70925000I-150000J0D01*
G01*
X26750000Y70925000D01*
G75*
G02*
X26600000Y71075000I0J150000D01*
G01*
X26600000Y71375000D01*
G75*
G02*
X26750000Y71525000I150000J0D01*
G01*
X27925000Y71525000D01*
G75*
G02*
X28075000Y71375000I0J-150000D01*
G01*
G37*
G04 #@! TD*
G04 #@! TO.C,R5*
G36*
G01*
X69310000Y58675000D02*
X70090000Y58675000D01*
G75*
G02*
X70160000Y58605000I0J-70000D01*
G01*
X70160000Y58045000D01*
G75*
G02*
X70090000Y57975000I-70000J0D01*
G01*
X69310000Y57975000D01*
G75*
G02*
X69240000Y58045000I0J70000D01*
G01*
X69240000Y58605000D01*
G75*
G02*
X69310000Y58675000I70000J0D01*
G01*
G37*
G36*
G01*
X69310000Y57075000D02*
X70090000Y57075000D01*
G75*
G02*
X70160000Y57005000I0J-70000D01*
G01*
X70160000Y56445000D01*
G75*
G02*
X70090000Y56375000I-70000J0D01*
G01*
X69310000Y56375000D01*
G75*
G02*
X69240000Y56445000I0J70000D01*
G01*
X69240000Y57005000D01*
G75*
G02*
X69310000Y57075000I70000J0D01*
G01*
G37*
G04 #@! TD*
G04 #@! TO.C,Q1*
G36*
G01*
X33845382Y44588319D02*
X33239164Y44238319D01*
G75*
G02*
X32897658Y44329825I-125000J216506D01*
G01*
X32047658Y45802069D01*
G75*
G02*
X32139164Y46143575I216506J125000D01*
G01*
X32745382Y46493575D01*
G75*
G02*
X33086888Y46402069I125000J-216506D01*
G01*
X33936888Y44929825D01*
G75*
G02*
X33845382Y44588319I-216506J-125000D01*
G01*
G37*
G36*
G01*
X35711781Y50515627D02*
X31121842Y47865624D01*
G75*
G02*
X30780339Y47957129I-124999J216504D01*
G01*
X27830336Y53066684D01*
G75*
G02*
X27921842Y53408187I216504J124999D01*
G01*
X32511781Y56058190D01*
G75*
G02*
X32853283Y55966684I124998J-216504D01*
G01*
X35803286Y50857129D01*
G75*
G02*
X35711781Y50515627I-216504J-124998D01*
G01*
G37*
G36*
G01*
X37794458Y46868319D02*
X37188240Y46518319D01*
G75*
G02*
X36846734Y46609825I-125000J216506D01*
G01*
X35996734Y48082069D01*
G75*
G02*
X36088240Y48423575I216506J125000D01*
G01*
X36694458Y48773575D01*
G75*
G02*
X37035964Y48682069I125000J-216506D01*
G01*
X37885964Y47209825D01*
G75*
G02*
X37794458Y46868319I-216506J-125000D01*
G01*
G37*
G04 #@! TD*
G04 #@! TO.C,R25*
G36*
G01*
X48990000Y68625000D02*
X48210000Y68625000D01*
G75*
G02*
X48140000Y68695000I0J70000D01*
G01*
X48140000Y69255000D01*
G75*
G02*
X48210000Y69325000I70000J0D01*
G01*
X48990000Y69325000D01*
G75*
G02*
X49060000Y69255000I0J-70000D01*
G01*
X49060000Y68695000D01*
G75*
G02*
X48990000Y68625000I-70000J0D01*
G01*
G37*
G36*
G01*
X48990000Y70225000D02*
X48210000Y70225000D01*
G75*
G02*
X48140000Y70295000I0J70000D01*
G01*
X48140000Y70855000D01*
G75*
G02*
X48210000Y70925000I70000J0D01*
G01*
X48990000Y70925000D01*
G75*
G02*
X49060000Y70855000I0J-70000D01*
G01*
X49060000Y70295000D01*
G75*
G02*
X48990000Y70225000I-70000J0D01*
G01*
G37*
G04 #@! TD*
G04 #@! TO.C,R6*
G36*
G01*
X158840000Y27625000D02*
X158060000Y27625000D01*
G75*
G02*
X157990000Y27695000I0J70000D01*
G01*
X157990000Y28255000D01*
G75*
G02*
X158060000Y28325000I70000J0D01*
G01*
X158840000Y28325000D01*
G75*
G02*
X158910000Y28255000I0J-70000D01*
G01*
X158910000Y27695000D01*
G75*
G02*
X158840000Y27625000I-70000J0D01*
G01*
G37*
G36*
G01*
X158840000Y29225000D02*
X158060000Y29225000D01*
G75*
G02*
X157990000Y29295000I0J70000D01*
G01*
X157990000Y29855000D01*
G75*
G02*
X158060000Y29925000I70000J0D01*
G01*
X158840000Y29925000D01*
G75*
G02*
X158910000Y29855000I0J-70000D01*
G01*
X158910000Y29295000D01*
G75*
G02*
X158840000Y29225000I-70000J0D01*
G01*
G37*
G04 #@! TD*
G04 #@! TO.C,Q4*
G36*
G01*
X16028571Y43401412D02*
X15422353Y43051412D01*
G75*
G02*
X15080847Y43142918I-125000J216506D01*
G01*
X14230847Y44615162D01*
G75*
G02*
X14322353Y44956668I216506J125000D01*
G01*
X14928571Y45306668D01*
G75*
G02*
X15270077Y45215162I125000J-216506D01*
G01*
X16120077Y43742918D01*
G75*
G02*
X16028571Y43401412I-216506J-125000D01*
G01*
G37*
G36*
G01*
X17894970Y49328720D02*
X13305031Y46678717D01*
G75*
G02*
X12963528Y46770222I-124999J216504D01*
G01*
X10013525Y51879777D01*
G75*
G02*
X10105031Y52221280I216504J124999D01*
G01*
X14694970Y54871283D01*
G75*
G02*
X15036472Y54779777I124998J-216504D01*
G01*
X17986475Y49670222D01*
G75*
G02*
X17894970Y49328720I-216504J-124998D01*
G01*
G37*
G36*
G01*
X19977647Y45681412D02*
X19371429Y45331412D01*
G75*
G02*
X19029923Y45422918I-125000J216506D01*
G01*
X18179923Y46895162D01*
G75*
G02*
X18271429Y47236668I216506J125000D01*
G01*
X18877647Y47586668D01*
G75*
G02*
X19219153Y47495162I125000J-216506D01*
G01*
X20069153Y46022918D01*
G75*
G02*
X19977647Y45681412I-216506J-125000D01*
G01*
G37*
G04 #@! TD*
G04 #@! TO.C,Q12*
G36*
G01*
X33812500Y69425000D02*
X33812500Y69125000D01*
G75*
G02*
X33662500Y68975000I-150000J0D01*
G01*
X32487500Y68975000D01*
G75*
G02*
X32337500Y69125000I0J150000D01*
G01*
X32337500Y69425000D01*
G75*
G02*
X32487500Y69575000I150000J0D01*
G01*
X33662500Y69575000D01*
G75*
G02*
X33812500Y69425000I0J-150000D01*
G01*
G37*
G36*
G01*
X31937500Y70375000D02*
X31937500Y70075000D01*
G75*
G02*
X31787500Y69925000I-150000J0D01*
G01*
X30612500Y69925000D01*
G75*
G02*
X30462500Y70075000I0J150000D01*
G01*
X30462500Y70375000D01*
G75*
G02*
X30612500Y70525000I150000J0D01*
G01*
X31787500Y70525000D01*
G75*
G02*
X31937500Y70375000I0J-150000D01*
G01*
G37*
G36*
G01*
X33812500Y71325000D02*
X33812500Y71025000D01*
G75*
G02*
X33662500Y70875000I-150000J0D01*
G01*
X32487500Y70875000D01*
G75*
G02*
X32337500Y71025000I0J150000D01*
G01*
X32337500Y71325000D01*
G75*
G02*
X32487500Y71475000I150000J0D01*
G01*
X33662500Y71475000D01*
G75*
G02*
X33812500Y71325000I0J-150000D01*
G01*
G37*
G04 #@! TD*
D20*
G04 #@! TO.C,P4*
X138330000Y41075000D03*
G04 #@! TD*
G04 #@! TO.C,D6*
G36*
G01*
X42875000Y69025000D02*
X42875000Y68725000D01*
G75*
G02*
X42725000Y68575000I-150000J0D01*
G01*
X41550000Y68575000D01*
G75*
G02*
X41400000Y68725000I0J150000D01*
G01*
X41400000Y69025000D01*
G75*
G02*
X41550000Y69175000I150000J0D01*
G01*
X42725000Y69175000D01*
G75*
G02*
X42875000Y69025000I0J-150000D01*
G01*
G37*
G36*
G01*
X41000000Y69975000D02*
X41000000Y69675000D01*
G75*
G02*
X40850000Y69525000I-150000J0D01*
G01*
X39675000Y69525000D01*
G75*
G02*
X39525000Y69675000I0J150000D01*
G01*
X39525000Y69975000D01*
G75*
G02*
X39675000Y70125000I150000J0D01*
G01*
X40850000Y70125000D01*
G75*
G02*
X41000000Y69975000I0J-150000D01*
G01*
G37*
G36*
G01*
X42875000Y70925000D02*
X42875000Y70625000D01*
G75*
G02*
X42725000Y70475000I-150000J0D01*
G01*
X41550000Y70475000D01*
G75*
G02*
X41400000Y70625000I0J150000D01*
G01*
X41400000Y70925000D01*
G75*
G02*
X41550000Y71075000I150000J0D01*
G01*
X42725000Y71075000D01*
G75*
G02*
X42875000Y70925000I0J-150000D01*
G01*
G37*
G04 #@! TD*
D12*
G04 #@! TO.C,Q15*
X63300000Y29950000D03*
X63300000Y27650000D03*
X63300000Y25350000D03*
D13*
X69600000Y27650000D03*
G04 #@! TD*
G04 #@! TO.C,R21*
G36*
G01*
X52412750Y55124071D02*
X51737250Y54734071D01*
G75*
G02*
X51641628Y54759693I-35000J60622D01*
G01*
X51361628Y55244667D01*
G75*
G02*
X51387250Y55340289I60622J35000D01*
G01*
X52062750Y55730289D01*
G75*
G02*
X52158372Y55704667I35000J-60622D01*
G01*
X52438372Y55219693D01*
G75*
G02*
X52412750Y55124071I-60622J-35000D01*
G01*
G37*
G36*
G01*
X51612750Y56509711D02*
X50937250Y56119711D01*
G75*
G02*
X50841628Y56145333I-35000J60622D01*
G01*
X50561628Y56630307D01*
G75*
G02*
X50587250Y56725929I60622J35000D01*
G01*
X51262750Y57115929D01*
G75*
G02*
X51358372Y57090307I35000J-60622D01*
G01*
X51638372Y56605333D01*
G75*
G02*
X51612750Y56509711I-60622J-35000D01*
G01*
G37*
G04 #@! TD*
G04 #@! TO.C,Q11*
G36*
G01*
X47525000Y68975000D02*
X47525000Y68675000D01*
G75*
G02*
X47375000Y68525000I-150000J0D01*
G01*
X46200000Y68525000D01*
G75*
G02*
X46050000Y68675000I0J150000D01*
G01*
X46050000Y68975000D01*
G75*
G02*
X46200000Y69125000I150000J0D01*
G01*
X47375000Y69125000D01*
G75*
G02*
X47525000Y68975000I0J-150000D01*
G01*
G37*
G36*
G01*
X45650000Y69925000D02*
X45650000Y69625000D01*
G75*
G02*
X45500000Y69475000I-150000J0D01*
G01*
X44325000Y69475000D01*
G75*
G02*
X44175000Y69625000I0J150000D01*
G01*
X44175000Y69925000D01*
G75*
G02*
X44325000Y70075000I150000J0D01*
G01*
X45500000Y70075000D01*
G75*
G02*
X45650000Y69925000I0J-150000D01*
G01*
G37*
G36*
G01*
X47525000Y70875000D02*
X47525000Y70575000D01*
G75*
G02*
X47375000Y70425000I-150000J0D01*
G01*
X46200000Y70425000D01*
G75*
G02*
X46050000Y70575000I0J150000D01*
G01*
X46050000Y70875000D01*
G75*
G02*
X46200000Y71025000I150000J0D01*
G01*
X47375000Y71025000D01*
G75*
G02*
X47525000Y70875000I0J-150000D01*
G01*
G37*
G04 #@! TD*
D11*
G04 #@! TO.C,F2*
X113500000Y44175000D03*
G36*
G01*
X114844990Y43275000D02*
X114154990Y43275000D01*
G75*
G02*
X113924990Y43505000I0J230000D01*
G01*
X113924990Y44845000D01*
G75*
G02*
X114154990Y45075000I230000J0D01*
G01*
X114844990Y45075000D01*
G75*
G02*
X115074990Y44845000I0J-230000D01*
G01*
X115074990Y43505000D01*
G75*
G02*
X114844990Y43275000I-230000J0D01*
G01*
G37*
G36*
G01*
X117745010Y43275000D02*
X117055010Y43275000D01*
G75*
G02*
X116825010Y43505000I0J230000D01*
G01*
X116825010Y44845000D01*
G75*
G02*
X117055010Y45075000I230000J0D01*
G01*
X117745010Y45075000D01*
G75*
G02*
X117975010Y44845000I0J-230000D01*
G01*
X117975010Y43505000D01*
G75*
G02*
X117745010Y43275000I-230000J0D01*
G01*
G37*
X118400000Y44175000D03*
G04 #@! TD*
D25*
G04 #@! TO.C,U2*
X140862500Y44600000D03*
X140862500Y43100000D03*
X140862500Y41600000D03*
X140862500Y40100000D03*
X140862500Y38600000D03*
X140862500Y37100000D03*
X140862500Y35600000D03*
X140862500Y34100000D03*
X140862500Y32600000D03*
X140862500Y31100000D03*
X140862500Y29600000D03*
X140862500Y28100000D03*
X140862500Y26600000D03*
X153562500Y26600000D03*
X153562500Y28100000D03*
X153562500Y29600000D03*
X153562500Y31100000D03*
X153562500Y32600000D03*
X153562500Y34100000D03*
X153562500Y35600000D03*
X153562500Y37100000D03*
X153562500Y38600000D03*
X153562500Y40100000D03*
X153562500Y41600000D03*
X153562500Y43100000D03*
X153562500Y44600000D03*
G04 #@! TD*
D14*
G04 #@! TO.C,J1*
X28910000Y8225000D03*
D15*
X33360000Y8225000D03*
X37800000Y8225000D03*
X42250000Y8225000D03*
X46690000Y8225000D03*
X51140000Y8225000D03*
X51140000Y3775000D03*
X46690000Y3775000D03*
X42250000Y3775000D03*
X37800000Y3775000D03*
X33360000Y3775000D03*
X28910000Y3775000D03*
D16*
X22875000Y5995000D03*
X57165000Y5995000D03*
G04 #@! TD*
G04 #@! TO.C,Q2*
G36*
G01*
X6978571Y43301412D02*
X6372353Y42951412D01*
G75*
G02*
X6030847Y43042918I-125000J216506D01*
G01*
X5180847Y44515162D01*
G75*
G02*
X5272353Y44856668I216506J125000D01*
G01*
X5878571Y45206668D01*
G75*
G02*
X6220077Y45115162I125000J-216506D01*
G01*
X7070077Y43642918D01*
G75*
G02*
X6978571Y43301412I-216506J-125000D01*
G01*
G37*
G36*
G01*
X8844970Y49228720D02*
X4255031Y46578717D01*
G75*
G02*
X3913528Y46670222I-124999J216504D01*
G01*
X963525Y51779777D01*
G75*
G02*
X1055031Y52121280I216504J124999D01*
G01*
X5644970Y54771283D01*
G75*
G02*
X5986472Y54679777I124998J-216504D01*
G01*
X8936475Y49570222D01*
G75*
G02*
X8844970Y49228720I-216504J-124998D01*
G01*
G37*
G36*
G01*
X10927647Y45581412D02*
X10321429Y45231412D01*
G75*
G02*
X9979923Y45322918I-125000J216506D01*
G01*
X9129923Y46795162D01*
G75*
G02*
X9221429Y47136668I216506J125000D01*
G01*
X9827647Y47486668D01*
G75*
G02*
X10169153Y47395162I125000J-216506D01*
G01*
X11019153Y45922918D01*
G75*
G02*
X10927647Y45581412I-216506J-125000D01*
G01*
G37*
G04 #@! TD*
D11*
G04 #@! TO.C,F1*
X125567588Y42707412D03*
G36*
G01*
X125882243Y41119964D02*
X125394340Y41607867D01*
G75*
G02*
X125394340Y41933137I162635J162635D01*
G01*
X126341863Y42880660D01*
G75*
G02*
X126667133Y42880660I162635J-162635D01*
G01*
X127155036Y42392757D01*
G75*
G02*
X127155036Y42067487I-162635J-162635D01*
G01*
X126207513Y41119964D01*
G75*
G02*
X125882243Y41119964I-162635J162635D01*
G01*
G37*
G36*
G01*
X127932867Y39069340D02*
X127444964Y39557243D01*
G75*
G02*
X127444964Y39882513I162635J162635D01*
G01*
X128392487Y40830036D01*
G75*
G02*
X128717757Y40830036I162635J-162635D01*
G01*
X129205660Y40342133D01*
G75*
G02*
X129205660Y40016863I-162635J-162635D01*
G01*
X128258137Y39069340D01*
G75*
G02*
X127932867Y39069340I-162635J162635D01*
G01*
G37*
X129032412Y39242588D03*
G04 #@! TD*
G04 #@! TO.C,R3*
G36*
G01*
X114190000Y54075000D02*
X113410000Y54075000D01*
G75*
G02*
X113340000Y54145000I0J70000D01*
G01*
X113340000Y54705000D01*
G75*
G02*
X113410000Y54775000I70000J0D01*
G01*
X114190000Y54775000D01*
G75*
G02*
X114260000Y54705000I0J-70000D01*
G01*
X114260000Y54145000D01*
G75*
G02*
X114190000Y54075000I-70000J0D01*
G01*
G37*
G36*
G01*
X114190000Y55675000D02*
X113410000Y55675000D01*
G75*
G02*
X113340000Y55745000I0J70000D01*
G01*
X113340000Y56305000D01*
G75*
G02*
X113410000Y56375000I70000J0D01*
G01*
X114190000Y56375000D01*
G75*
G02*
X114260000Y56305000I0J-70000D01*
G01*
X114260000Y55745000D01*
G75*
G02*
X114190000Y55675000I-70000J0D01*
G01*
G37*
G04 #@! TD*
G04 #@! TO.C,R22*
G36*
G01*
X53012750Y46649071D02*
X52337250Y46259071D01*
G75*
G02*
X52241628Y46284693I-35000J60622D01*
G01*
X51961628Y46769667D01*
G75*
G02*
X51987250Y46865289I60622J35000D01*
G01*
X52662750Y47255289D01*
G75*
G02*
X52758372Y47229667I35000J-60622D01*
G01*
X53038372Y46744693D01*
G75*
G02*
X53012750Y46649071I-60622J-35000D01*
G01*
G37*
G36*
G01*
X52212750Y48034711D02*
X51537250Y47644711D01*
G75*
G02*
X51441628Y47670333I-35000J60622D01*
G01*
X51161628Y48155307D01*
G75*
G02*
X51187250Y48250929I60622J35000D01*
G01*
X51862750Y48640929D01*
G75*
G02*
X51958372Y48615307I35000J-60622D01*
G01*
X52238372Y48130333D01*
G75*
G02*
X52212750Y48034711I-60622J-35000D01*
G01*
G37*
G04 #@! TD*
G04 #@! TO.C,R7*
G36*
G01*
X134550000Y9310000D02*
X134550000Y10090000D01*
G75*
G02*
X134620000Y10160000I70000J0D01*
G01*
X135180000Y10160000D01*
G75*
G02*
X135250000Y10090000I0J-70000D01*
G01*
X135250000Y9310000D01*
G75*
G02*
X135180000Y9240000I-70000J0D01*
G01*
X134620000Y9240000D01*
G75*
G02*
X134550000Y9310000I0J70000D01*
G01*
G37*
G36*
G01*
X136150000Y9310000D02*
X136150000Y10090000D01*
G75*
G02*
X136220000Y10160000I70000J0D01*
G01*
X136780000Y10160000D01*
G75*
G02*
X136850000Y10090000I0J-70000D01*
G01*
X136850000Y9310000D01*
G75*
G02*
X136780000Y9240000I-70000J0D01*
G01*
X136220000Y9240000D01*
G75*
G02*
X136150000Y9310000I0J70000D01*
G01*
G37*
G04 #@! TD*
M02*
